<svg width="34" height="34" viewBox="0 0 34 34" fill="none" xmlns="http://www.w3.org/2000/svg">
<circle cx="16.7109" cy="16.7109" r="16.7109" fill="#C92127"/>
<path d="M10.9442 9.88515V8.43585H13.4691V15.0898H11.8466V9.88515H10.9442ZM19.4028 12.6014H17.8168V14.2239H16.3401V12.6014H14.7541V11.2068H16.3401V9.57523H17.8168V11.2068H19.4028V12.6014ZM20.2772 9.88515V8.43585H22.8021V15.0898H21.1796V9.88515H20.2772ZM11.2297 17.6911V18.9398H8.62277V20.2889H10.5734V21.5012H8.62277V24.0898H7.0641V17.6911H11.2297ZM15.4032 24.0898L14.0724 21.6744H13.6987V24.0898H12.14V17.6911H14.7561C15.2604 17.6911 15.6888 17.7792 16.0413 17.9554C16.3998 18.1316 16.6672 18.3747 16.8434 18.6846C17.0196 18.9884 17.1077 19.3287 17.1077 19.7055C17.1077 20.1309 16.9862 20.5107 16.7431 20.8449C16.5062 21.1791 16.1537 21.4161 15.6858 21.5559L17.1624 24.0898H15.4032ZM13.6987 20.5714H14.6649C14.9505 20.5714 15.1632 20.5015 15.303 20.3618C15.4488 20.222 15.5217 20.0245 15.5217 19.7693C15.5217 19.5262 15.4488 19.3348 15.303 19.1951C15.1632 19.0553 14.9505 18.9854 14.6649 18.9854H13.6987V20.5714ZM19.736 18.9398V20.2342H21.8234V21.4374H19.736V22.8411H22.0968V24.0898H18.1773V17.6911H22.0968V18.9398H19.736ZM24.7586 18.9398V20.2342H26.8459V21.4374H24.7586V22.8411H27.1194V24.0898H23.1999V17.6911H27.1194V18.9398H24.7586Z" fill="white"/>
</svg>
