<svg width="36" height="36" viewBox="0 0 36 36" fill="none" xmlns="http://www.w3.org/2000/svg">
<g clip-path="url(#clip0_31122_4520)">
<path d="M18.0008 35.666C17.93 35.666 17.8595 35.6557 17.7916 35.6354C13.9204 34.5788 10.4301 32.4416 7.72906 29.4739C0.275521 21.2023 2.01385 9.92207 2.4375 7.74478C2.46124 7.62341 2.51545 7.51008 2.59505 7.41543C2.67464 7.32079 2.777 7.24794 2.8925 7.20374C5.14563 6.34113 7.37469 5.43478 9.51917 4.50947C12.2776 3.32093 15.0054 2.06093 17.6297 0.763009C17.7379 0.70191 17.8595 0.668596 17.9837 0.666051C18.1079 0.663506 18.2308 0.691809 18.3414 0.748425C20.9744 2.05145 23.7139 3.31655 26.4825 4.50874C28.627 5.43478 30.8575 6.34114 33.1092 7.20666C33.2247 7.25085 33.327 7.3237 33.4066 7.41835C33.4862 7.513 33.5404 7.62633 33.5642 7.7477C33.9878 9.92499 35.7261 21.2052 28.2704 29.4769C25.5768 32.4366 22.0978 34.5704 18.2385 35.6296C18.1619 35.6548 18.0815 35.6671 18.0008 35.666ZM3.7974 8.4178C3.39781 10.8109 2.16115 21.117 8.81333 28.4969C11.2851 31.2117 14.4678 33.1799 18.0008 34.1785C21.5339 33.1799 24.7166 31.2117 27.1883 28.4969C33.8398 21.117 32.6031 10.8109 32.2035 8.4178C30.0627 7.59311 27.9467 6.72978 25.9065 5.84822C23.2202 4.69176 20.5624 3.46749 18.0008 2.20603C15.4393 3.46749 12.7815 4.69176 10.0952 5.85186C8.055 6.72978 5.93896 7.59311 3.7974 8.4178Z" fill="black"/>
<path d="M16.084 14.7927V13.8797H18.152V21.8327H17.14V14.7927H16.084Z" fill="black"/>
</g>
<defs>
<clipPath id="clip0_31122_4520">
<rect width="35" height="35" fill="white" transform="translate(0.5 0.666016)"/>
</clipPath>
</defs>
</svg>
