<svg xmlns="http://www.w3.org/2000/svg" width="26" height="26"
                                                viewBox="0 0 26 26" fill="none">
                                                <g opacity="0.8">
                                                    <circle opacity="0.9" cx="13" cy="13" r="12.5" stroke="black" />
                                                    <path
                                                        d="M9.95412 17.0046L8.81681 19.1202V20.25H8.14213V19.1202L7 17.0046H7.76142L8.48429 18.4878L9.20234 17.0046H9.95412Z"
                                                        fill="black" />
                                                    <path
                                                        d="M11.0324 17.53V18.3437H12.1649V18.8598H11.0324V19.72H12.3094V20.25H10.3577V17H12.3094V17.53H11.0324Z"
                                                        fill="black" />
                                                    <path
                                                        d="M14.9996 19.6316H13.6599L13.4382 20.25H12.7298L13.9394 17H14.7249L15.9345 20.25H15.2213L14.9996 19.6316ZM14.8165 19.1109L14.3297 17.7532L13.843 19.1109H14.8165Z"
                                                        fill="black" />
                                                    <path
                                                        d="M18.136 20.25L17.3938 18.9853H17.0758V20.25H16.4011V17.0046H17.6637C17.9239 17.0046 18.1456 17.0496 18.3287 17.1395C18.5119 17.2263 18.6484 17.3456 18.7384 17.4975C18.8315 17.6463 18.8781 17.8137 18.8781 17.9996C18.8781 18.2135 18.8139 18.4072 18.6853 18.5808C18.5568 18.7513 18.3657 18.8691 18.1119 18.9342L18.9167 20.25H18.136ZM17.0758 18.4971H17.6396C17.8227 18.4971 17.9593 18.4553 18.0492 18.3716C18.1392 18.2848 18.1842 18.1655 18.1842 18.0136C18.1842 17.8648 18.1392 17.7501 18.0492 17.6695C17.9593 17.5858 17.8227 17.544 17.6396 17.544H17.0758V18.4971Z"
                                                        fill="black" />
                                                    <path d="M12 6.28395V5H14.7V14H13.2072V6.28395H12Z" fill="black" />
                                                </g>
                                            </svg>