<svg width="36" height="37" viewBox="0 0 36 37" fill="none" xmlns="http://www.w3.org/2000/svg">
<g id="Frame 1000004183">
<g id="Group 1000004087">
<g id="Group 1000004085">
<circle id="Ellipse 88" cx="11.25" cy="16.3438" r="10.5" stroke="black" stroke-width="1.5"/>
<path id="Union" fill-rule="evenodd" clip-rule="evenodd" d="M9.50261 19.0791C9.91904 19.2574 10.3441 19.3644 10.8039 19.4C10.9601 19.4178 11.229 19.4089 11.2204 19.4089C11.7496 19.4 12.2614 19.2841 12.7473 19.0791C13.2678 18.8473 13.7189 18.5353 14.118 18.1431C14.5084 17.7509 14.8294 17.2873 15.0636 16.7525C15.2979 16.2176 15.4193 15.6471 15.4193 15.032C15.4193 14.4169 15.2979 13.8464 15.0636 13.3115C14.8294 12.7767 14.5171 12.3131 14.118 11.912C13.7276 11.5197 13.2678 11.2077 12.7473 10.976C12.2354 10.7531 11.6888 10.6372 11.1249 10.6372C10.561 10.6372 10.0231 10.7531 9.51129 10.976C8.99943 11.1988 8.53963 11.5108 8.14923 11.912C7.75016 12.3131 7.43784 12.7767 7.2036 13.3115C6.96936 13.8464 6.8479 14.4258 6.8479 15.032C6.8479 15.6471 6.96936 16.2265 7.19492 16.7525C7.43784 17.2873 7.75016 17.7509 8.14056 18.1431C8.53095 18.5353 8.99076 18.8473 9.50261 19.0791ZM12.2614 18.8562C11.9491 19.0613 11.5674 19.1682 11.1249 19.1682C10.6912 19.1682 10.3094 19.0702 9.99712 18.8473C9.67612 18.6423 9.41586 18.3481 9.21632 17.9826C9.00811 17.6171 8.86062 17.1803 8.76519 16.6722C8.66976 16.1641 8.61771 15.6114 8.61771 15.0231C8.61771 14.4347 8.66976 13.882 8.76519 13.3739C8.8693 12.8658 9.01678 12.429 9.21632 12.0546C9.41586 11.6802 9.67612 11.3949 9.99712 11.181C10.3094 10.967 10.6912 10.8601 11.1336 10.8601C11.5761 10.8601 11.9491 10.967 12.2701 11.181C12.5824 11.3949 12.8427 11.6891 13.0509 12.0546C13.2591 12.4201 13.4066 12.8658 13.4934 13.365C13.5888 13.8731 13.6408 14.4258 13.6408 15.0231C13.6408 15.6292 13.5888 16.1819 13.4934 16.6811C13.3979 17.1893 13.2504 17.6261 13.0422 17.9915C12.8427 18.357 12.5824 18.6512 12.2614 18.8562ZM13.814 20.4873C14.2998 20.3893 14.8377 20.3358 15.4189 20.3358V18.4994C14.8203 18.4994 14.2651 18.6242 13.7445 18.8649C13.224 19.1056 12.7729 19.4265 12.3912 19.8366C12.0094 20.2467 11.7058 20.7191 11.4802 21.2451C11.2807 21.7443 11.1766 22.2702 11.1592 22.814V22.912H11.3935C11.3935 22.4663 11.4976 22.0741 11.6971 21.7532C11.8967 21.4323 12.1829 21.1648 12.5386 20.9509C12.903 20.7459 13.3281 20.5854 13.814 20.4873Z" fill="black"/>
</g>
<g id="Group 1000004086">
<circle id="Ellipse 88_2" cx="24.75" cy="21.9688" r="10.5" fill="white" stroke="black" stroke-width="1.5"/>
<path id="Union_2" fill-rule="evenodd" clip-rule="evenodd" d="M23.0026 24.7041C23.419 24.8824 23.8441 24.9894 24.3039 25.025C24.4601 25.0428 24.729 25.0339 24.7204 25.0339C25.2496 25.025 25.7614 24.9091 26.2473 24.7041C26.7678 24.4723 27.2189 24.1603 27.618 23.7681C28.0084 23.3759 28.3294 22.9123 28.5636 22.3775C28.7979 21.8426 28.9193 21.2721 28.9193 20.657C28.9193 20.0419 28.7979 19.4714 28.5636 18.9365C28.3294 18.4017 28.0171 17.9381 27.618 17.537C27.2276 17.1447 26.7678 16.8327 26.2473 16.601C25.7354 16.3781 25.1888 16.2622 24.6249 16.2622C24.061 16.2622 23.5231 16.3781 23.0113 16.601C22.4994 16.8238 22.0396 17.1358 21.6492 17.537C21.2502 17.9381 20.9378 18.4017 20.7036 18.9365C20.4694 19.4714 20.3479 20.0508 20.3479 20.657C20.3479 21.2721 20.4694 21.8515 20.6949 22.3775C20.9378 22.9123 21.2502 23.3759 21.6406 23.7681C22.031 24.1603 22.4908 24.4723 23.0026 24.7041ZM25.7614 24.4812C25.4491 24.6863 25.0674 24.7932 24.6249 24.7932C24.1912 24.7932 23.8094 24.6952 23.4971 24.4723C23.1761 24.2673 22.9159 23.9731 22.7163 23.6076C22.5081 23.2421 22.3606 22.8053 22.2652 22.2972C22.1698 21.7891 22.1177 21.2364 22.1177 20.6481C22.1177 20.0597 22.1698 19.507 22.2652 18.9989C22.3693 18.4908 22.5168 18.054 22.7163 17.6796C22.9159 17.3052 23.1761 17.0199 23.4971 16.806C23.8094 16.592 24.1912 16.4851 24.6336 16.4851C25.0761 16.4851 25.4491 16.592 25.7701 16.806C26.0824 17.0199 26.3427 17.3141 26.5509 17.6796C26.7591 18.0451 26.9066 18.4908 26.9934 18.99C27.0888 19.4981 27.1408 20.0508 27.1408 20.6481C27.1408 21.2542 27.0888 21.8069 26.9934 22.3061C26.8979 22.8143 26.7504 23.2511 26.5422 23.6165C26.3427 23.982 26.0824 24.2762 25.7614 24.4812ZM27.314 26.1123C27.7998 26.0143 28.3377 25.9608 28.9189 25.9608V24.1244C28.3203 24.1244 27.7651 24.2492 27.2445 24.4899C26.724 24.7306 26.2729 25.0515 25.8912 25.4616C25.5094 25.8717 25.2058 26.3441 24.9802 26.8701C24.7807 27.3693 24.6766 27.8952 24.6592 28.439V28.537H24.8935C24.8935 28.0913 24.9976 27.6991 25.1971 27.3782C25.3967 27.0573 25.6829 26.7898 26.0386 26.5759C26.403 26.3709 26.8281 26.2104 27.314 26.1123Z" fill="black"/>
</g>
</g>
</g>
</svg>
