<svg width="35" height="36" viewBox="0 0 35 36" fill="none" xmlns="http://www.w3.org/2000/svg">
<g clip-path="url(#clip0_31122_4791)">
<path d="M17.5008 35.666C17.43 35.666 17.3595 35.6557 17.2916 35.6354C13.4204 34.5788 9.93009 32.4416 7.22906 29.4739C-0.224479 21.2023 1.51385 9.92207 1.9375 7.74478C1.96124 7.62341 2.01545 7.51008 2.09505 7.41543C2.17464 7.32079 2.277 7.24794 2.3925 7.20374C4.64563 6.34113 6.87469 5.43478 9.01917 4.50947C11.7776 3.32093 14.5054 2.06093 17.1297 0.763009C17.2379 0.70191 17.3595 0.668596 17.4837 0.666051C17.6079 0.663506 17.7308 0.691809 17.8414 0.748425C20.4744 2.05145 23.2139 3.31655 25.9825 4.50874C28.127 5.43478 30.3575 6.34114 32.6092 7.20666C32.7247 7.25085 32.827 7.3237 32.9066 7.41835C32.9862 7.513 33.0404 7.62633 33.0642 7.7477C33.4878 9.92499 35.2261 21.2052 27.7704 29.4769C25.0768 32.4366 21.5978 34.5704 17.7385 35.6296C17.6619 35.6548 17.5815 35.6671 17.5008 35.666ZM3.2974 8.4178C2.89781 10.8109 1.66115 21.117 8.31333 28.4969C10.7851 31.2117 13.9678 33.1799 17.5008 34.1785C21.0339 33.1799 24.2166 31.2117 26.6883 28.4969C33.3398 21.117 32.1031 10.8109 31.7035 8.4178C29.5627 7.59311 27.4467 6.72978 25.4065 5.84822C22.7202 4.69176 20.0624 3.46749 17.5008 2.20603C14.9393 3.46749 12.2815 4.69176 9.59521 5.85186C7.555 6.72978 5.43896 7.59311 3.2974 8.4178Z" fill="black"/>
<path d="M14.8968 21.0297C15.8281 20.2817 16.5578 19.6694 17.0858 19.1927C17.6138 18.7087 18.0574 18.2064 18.4168 17.6857C18.7834 17.1577 18.9668 16.6407 18.9668 16.1347C18.9668 15.658 18.8494 15.284 18.6148 15.0127C18.3874 14.734 18.0171 14.5947 17.5038 14.5947C17.0051 14.5947 16.6164 14.7524 16.3378 15.0677C16.0664 15.3757 15.9198 15.79 15.8978 16.3107H14.9298C14.9591 15.4894 15.2084 14.855 15.6778 14.4077C16.1471 13.9604 16.7521 13.7367 17.4928 13.7367C18.2481 13.7367 18.8458 13.9457 19.2858 14.3637C19.7331 14.7817 19.9568 15.3574 19.9568 16.0907C19.9568 16.6994 19.7734 17.2934 19.4068 17.8727C19.0474 18.4447 18.6368 18.9507 18.1748 19.3907C17.7128 19.8234 17.1224 20.3294 16.4038 20.9087H20.1878V21.7447H14.8968V21.0297Z" fill="black"/>
</g>
<defs>
<clipPath id="clip0_31122_4791">
<rect width="35" height="35" fill="white" transform="translate(0 0.666016)"/>
</clipPath>
</defs>
</svg>
