<svg width="42" height="37" viewBox="0 0 42 37" fill="none" xmlns="http://www.w3.org/2000/svg">
<g id="Frame 1000004183">
<g id="Group 1000004088">
<g id="Group 1000004089">
<g id="Group 1000004085">
<circle id="Ellipse 88" cx="12.3" cy="18.6001" r="11.05" stroke="black" stroke-width="1.5"/>
<path id="Union" fill-rule="evenodd" clip-rule="evenodd" d="M10.4671 21.4691C10.9039 21.6561 11.3498 21.7683 11.8321 21.8057C11.9959 21.8245 12.278 21.8151 12.2689 21.8151C12.824 21.8057 13.3608 21.6842 13.8704 21.4691C14.4164 21.226 14.8896 20.8988 15.3082 20.4874C15.7177 20.076 16.0543 19.5898 16.3 19.0287C16.5457 18.4677 16.6731 17.8693 16.6731 17.2242C16.6731 16.579 16.5457 15.9806 16.3 15.4196C16.0543 14.8586 15.7268 14.3723 15.3082 13.9516C14.8987 13.5402 14.4164 13.2129 13.8704 12.9698C13.3335 12.7361 12.7603 12.6145 12.1688 12.6145C11.5773 12.6145 11.0131 12.7361 10.4762 12.9698C9.93935 13.2036 9.45706 13.5308 9.04757 13.9516C8.62899 14.3723 8.3014 14.8586 8.05571 15.4196C7.81001 15.9806 7.68262 16.5883 7.68262 17.2242C7.68262 17.8693 7.81001 18.4771 8.04661 19.0287C8.3014 19.5898 8.62899 20.076 9.03847 20.4874C9.44796 20.8988 9.93025 21.226 10.4671 21.4691ZM13.3608 21.2354C13.0332 21.4504 12.6329 21.5626 12.1688 21.5626C11.7138 21.5626 11.3134 21.4598 10.9858 21.226C10.6491 21.011 10.3761 20.7024 10.1668 20.3191C9.94844 19.9357 9.79375 19.4775 9.69365 18.9446C9.59356 18.4116 9.53896 17.8319 9.53896 17.2148C9.53896 16.5977 9.59356 16.018 9.69365 15.485C9.80285 14.9521 9.95754 14.4939 10.1668 14.1012C10.3761 13.7085 10.6491 13.4093 10.9858 13.1849C11.3134 12.9605 11.7138 12.8483 12.1779 12.8483C12.642 12.8483 13.0332 12.9605 13.3699 13.1849C13.6975 13.4093 13.9705 13.7178 14.1889 14.1012C14.4073 14.4845 14.562 14.9521 14.653 15.4757C14.7531 16.0086 14.8077 16.5883 14.8077 17.2148C14.8077 17.8506 14.7531 18.4303 14.653 18.9539C14.5529 19.4869 14.3982 19.9451 14.1798 20.3284C13.9705 20.7118 13.6975 21.0203 13.3608 21.2354ZM14.9894 22.9463C15.4989 22.8434 16.0631 22.7873 16.6728 22.7873V20.8612C16.0449 20.8612 15.4625 20.9921 14.9166 21.2445C14.3706 21.497 13.8974 21.8336 13.497 22.2637C13.0966 22.6938 12.7781 23.1894 12.5415 23.741C12.3322 24.2647 12.223 24.8163 12.2048 25.3867V25.4895H12.4505C12.4505 25.022 12.5597 24.6106 12.769 24.274C12.9783 23.9374 13.2786 23.6569 13.6517 23.4325C14.0339 23.2174 14.4798 23.0491 14.9894 22.9463Z" fill="black"/>
</g>
<g id="Group 1000004086">
<circle id="Ellipse 88_2" cx="18.1093" cy="18.6001" r="11.05" fill="white" stroke="black" stroke-width="1.5"/>
<path id="Union_2" fill-rule="evenodd" clip-rule="evenodd" d="M16.2765 21.4691C16.7132 21.6561 17.1591 21.7683 17.6414 21.8057C17.8052 21.8245 18.0873 21.8151 18.0782 21.8151C18.6333 21.8057 19.1702 21.6842 19.6797 21.4691C20.2257 21.226 20.6989 20.8988 21.1175 20.4874C21.527 20.076 21.8637 19.5898 22.1094 19.0287C22.3551 18.4677 22.4825 17.8693 22.4825 17.2242C22.4825 16.579 22.3551 15.9806 22.1094 15.4196C21.8637 14.8586 21.5361 14.3723 21.1175 13.9516C20.708 13.5402 20.2257 13.2129 19.6797 12.9698C19.1429 12.7361 18.5696 12.6145 17.9781 12.6145C17.3866 12.6145 16.8224 12.7361 16.2856 12.9698C15.7487 13.2036 15.2664 13.5308 14.8569 13.9516C14.4383 14.3723 14.1107 14.8586 13.865 15.4196C13.6193 15.9806 13.4919 16.5883 13.4919 17.2242C13.4919 17.8693 13.6193 18.4771 13.8559 19.0287C14.1107 19.5898 14.4383 20.076 14.8478 20.4874C15.2573 20.8988 15.7396 21.226 16.2765 21.4691ZM19.1702 21.2354C18.8426 21.4504 18.4422 21.5626 17.9781 21.5626C17.5231 21.5626 17.1227 21.4598 16.7951 21.226C16.4584 21.011 16.1855 20.7024 15.9762 20.3191C15.7578 19.9357 15.6031 19.4775 15.503 18.9446C15.4029 18.4116 15.3483 17.8319 15.3483 17.2148C15.3483 16.5977 15.4029 16.018 15.503 15.485C15.6122 14.9521 15.7669 14.4939 15.9762 14.1012C16.1855 13.7085 16.4584 13.4093 16.7951 13.1849C17.1227 12.9605 17.5231 12.8483 17.9872 12.8483C18.4513 12.8483 18.8426 12.9605 19.1793 13.1849C19.5069 13.4093 19.7798 13.7178 19.9982 14.1012C20.2166 14.4845 20.3713 14.9521 20.4623 15.4757C20.5624 16.0086 20.617 16.5883 20.617 17.2148C20.617 17.8506 20.5624 18.4303 20.4623 18.9539C20.3622 19.4869 20.2075 19.9451 19.9891 20.3284C19.7798 20.7118 19.5069 21.0203 19.1702 21.2354ZM20.7986 22.9463C21.3082 22.8434 21.8724 22.7873 22.4821 22.7873V20.8612C21.8542 20.8612 21.2718 20.9921 20.7258 21.2445C20.1798 21.497 19.7066 21.8336 19.3063 22.2637C18.9059 22.6938 18.5874 23.1894 18.3508 23.741C18.1415 24.2647 18.0323 24.8163 18.0141 25.3867V25.4895H18.2598C18.2598 25.022 18.369 24.6106 18.5783 24.274C18.7876 23.9374 19.0879 23.6569 19.461 23.4325C19.8431 23.2174 20.289 23.0491 20.7986 22.9463Z" fill="black"/>
</g>
<g id="Group 1000004087">
<circle id="Ellipse 88_3" cx="23.9186" cy="18.6001" r="11.05" fill="white" stroke="black" stroke-width="1.5"/>
<path id="Union_3" fill-rule="evenodd" clip-rule="evenodd" d="M22.0857 21.4691C22.5224 21.6561 22.9683 21.7683 23.4506 21.8057C23.6144 21.8245 23.8965 21.8151 23.8874 21.8151C24.4425 21.8057 24.9794 21.6842 25.4889 21.4691C26.0349 21.226 26.5081 20.8988 26.9267 20.4874C27.3362 20.076 27.6729 19.5898 27.9186 19.0287C28.1643 18.4677 28.2917 17.8693 28.2917 17.2242C28.2917 16.579 28.1643 15.9806 27.9186 15.4196C27.6729 14.8586 27.3453 14.3723 26.9267 13.9516C26.5172 13.5402 26.0349 13.2129 25.4889 12.9698C24.9521 12.7361 24.3788 12.6145 23.7873 12.6145C23.1958 12.6145 22.6316 12.7361 22.0948 12.9698C21.5579 13.2036 21.0756 13.5308 20.6661 13.9516C20.2475 14.3723 19.9199 14.8586 19.6742 15.4196C19.4285 15.9806 19.3011 16.5883 19.3011 17.2242C19.3011 17.8693 19.4285 18.4771 19.6651 19.0287C19.9199 19.5898 20.2475 20.076 20.657 20.4874C21.0665 20.8988 21.5488 21.226 22.0857 21.4691ZM24.9794 21.2354C24.6518 21.4504 24.2514 21.5626 23.7873 21.5626C23.3323 21.5626 22.9319 21.4598 22.6043 21.226C22.2677 21.011 21.9947 20.7024 21.7854 20.3191C21.567 19.9357 21.4123 19.4775 21.3122 18.9446C21.2121 18.4116 21.1575 17.8319 21.1575 17.2148C21.1575 16.5977 21.2121 16.018 21.3122 15.485C21.4214 14.9521 21.5761 14.4939 21.7854 14.1012C21.9947 13.7085 22.2677 13.4093 22.6043 13.1849C22.9319 12.9605 23.3323 12.8483 23.7964 12.8483C24.2605 12.8483 24.6518 12.9605 24.9885 13.1849C25.3161 13.4093 25.589 13.7178 25.8074 14.1012C26.0258 14.4845 26.1805 14.9521 26.2715 15.4757C26.3716 16.0086 26.4262 16.5883 26.4262 17.2148C26.4262 17.8506 26.3716 18.4303 26.2715 18.9539C26.1714 19.4869 26.0167 19.9451 25.7983 20.3284C25.589 20.7118 25.3161 21.0203 24.9794 21.2354ZM26.6079 22.9463C27.1175 22.8434 27.6816 22.7873 28.2913 22.7873V20.8612C27.6634 20.8612 27.0811 20.9921 26.5351 21.2445C25.9891 21.497 25.5159 21.8336 25.1155 22.2637C24.7151 22.6938 24.3966 23.1894 24.16 23.741C23.9508 24.2647 23.8416 24.8163 23.8234 25.3867V25.4895H24.069C24.069 25.022 24.1782 24.6106 24.3875 24.274C24.5968 23.9374 24.8971 23.6569 25.2702 23.4325C25.6524 23.2174 26.0983 23.0491 26.6079 22.9463Z" fill="black"/>
</g>
<g id="Group 1000004088_2">
<circle id="Ellipse 88_4" cx="29.7278" cy="18.6001" r="11.05" fill="white" stroke="black" stroke-width="1.5"/>
<path id="Union_4" fill-rule="evenodd" clip-rule="evenodd" d="M27.895 21.4691C28.3318 21.6561 28.7777 21.7683 29.2599 21.8057C29.4237 21.8245 29.7058 21.8151 29.6967 21.8151C30.2518 21.8057 30.7887 21.6842 31.2983 21.4691C31.8443 21.226 32.3174 20.8988 32.736 20.4874C33.1455 20.076 33.4822 19.5898 33.7279 19.0287C33.9736 18.4677 34.101 17.8693 34.101 17.2242C34.101 16.579 33.9736 15.9806 33.7279 15.4196C33.4822 14.8586 33.1546 14.3723 32.736 13.9516C32.3265 13.5402 31.8443 13.2129 31.2983 12.9698C30.7614 12.7361 30.1881 12.6145 29.5966 12.6145C29.0051 12.6145 28.441 12.7361 27.9041 12.9698C27.3672 13.2036 26.8849 13.5308 26.4754 13.9516C26.0568 14.3723 25.7293 14.8586 25.4836 15.4196C25.2379 15.9806 25.1105 16.5883 25.1105 17.2242C25.1105 17.8693 25.2379 18.4771 25.4745 19.0287C25.7293 19.5898 26.0568 20.076 26.4663 20.4874C26.8758 20.8988 27.3581 21.226 27.895 21.4691ZM30.7887 21.2354C30.4611 21.4504 30.0607 21.5626 29.5966 21.5626C29.1416 21.5626 28.7413 21.4598 28.4137 21.226C28.077 21.011 27.804 20.7024 27.5947 20.3191C27.3763 19.9357 27.2216 19.4775 27.1215 18.9446C27.0214 18.4116 26.9668 17.8319 26.9668 17.2148C26.9668 16.5977 27.0214 16.018 27.1215 15.485C27.2307 14.9521 27.3854 14.4939 27.5947 14.1012C27.804 13.7085 28.077 13.4093 28.4137 13.1849C28.7413 12.9605 29.1416 12.8483 29.6057 12.8483C30.0698 12.8483 30.4611 12.9605 30.7978 13.1849C31.1254 13.4093 31.3984 13.7178 31.6168 14.1012C31.8352 14.4845 31.9899 14.9521 32.0809 15.4757C32.1809 16.0086 32.2355 16.5883 32.2355 17.2148C32.2355 17.8506 32.1809 18.4303 32.0809 18.9539C31.9808 19.4869 31.8261 19.9451 31.6077 20.3284C31.3984 20.7118 31.1254 21.0203 30.7887 21.2354ZM32.4171 22.9463C32.9267 22.8434 33.4909 22.7873 34.1006 22.7873V20.8612C33.4727 20.8612 32.8903 20.9921 32.3443 21.2445C31.7983 21.497 31.3252 21.8336 30.9248 22.2637C30.5244 22.6938 30.2059 23.1894 29.9693 23.741C29.76 24.2647 29.6508 24.8163 29.6326 25.3867V25.4895H29.8783C29.8783 25.022 29.9875 24.6106 30.1968 24.274C30.4061 23.9374 30.7064 23.6569 31.0795 23.4325C31.4617 23.2174 31.9075 23.0491 32.4171 22.9463Z" fill="black"/>
</g>
</g>
</g>
</g>
</svg>
