<svg xmlns="http://www.w3.org/2000/svg" width="50" height="49" viewBox="0 0 51 49" fill="none">
  <path d="M40.9195 22.0004H35.5103L43.3297 11.4333L50.2364 22.0004L45.552 21.9218C45.552 34.2242 35.5794 44.1969 23.277 44.1969C10.9746 44.1969 1 34.2242 1 21.9218" stroke="black" stroke-miterlimit="2.61313" stroke-linecap="round" stroke-linejoin="round"/>
  <path d="M40.9958 22.1077C40.9958 31.8963 33.0614 39.6467 23.2728 39.6467C13.4842 39.6467 5.54785 31.7103 5.54785 21.9217C5.54785 12.1331 13.4842 4.19678 23.2728 4.19678C30.9829 4.19678 37.5425 9.11888 39.9815 15.993" stroke="black" stroke-miterlimit="2.61313" stroke-linecap="round" stroke-linejoin="round"/>
  <path d="M19.0603 18.1079C17.3173 17.2028 16.4448 15.7993 16.4448 13.8991C16.4448 12.9576 16.6845 12.1005 17.1639 11.3239C17.6433 10.5493 18.3661 9.92994 19.3345 9.46784C20.3008 9.00573 21.482 8.77563 22.876 8.77563C24.27 8.77563 25.4511 9.00573 26.4175 9.46784C27.3858 9.92994 28.1087 10.5493 28.5881 11.3239C29.0674 12.1005 29.3071 12.9576 29.3071 13.8991C29.3071 14.8578 29.0713 15.6996 28.6015 16.4224C28.1298 17.1453 27.5028 17.7071 26.7186 18.1079C27.6773 18.5259 28.427 19.1376 28.9677 19.9391C29.5085 20.7405 29.7769 21.6897 29.7769 22.7884C29.7769 23.9734 29.4778 25.005 28.8757 25.8851C28.2736 26.7652 27.451 27.442 26.406 27.9118C25.3591 28.3816 24.1837 28.6174 22.876 28.6174C21.5683 28.6174 20.3967 28.3816 19.3594 27.9118C18.322 27.442 17.5033 26.7652 16.9031 25.8851C16.301 25.005 16 23.9734 16 22.7884C16 21.6897 16.2704 20.7367 16.8111 19.9256C17.3518 19.1145 18.1015 18.5086 19.0603 18.1079ZM25.7522 14.4225C25.7522 13.5693 25.4952 12.9058 24.9814 12.4361C24.4656 11.9644 23.7657 11.7304 22.876 11.7304C22.0055 11.7304 21.3113 11.9644 20.7975 12.4361C20.2836 12.9058 20.0267 13.5769 20.0267 14.4494C20.0267 15.2336 20.2932 15.8606 20.8243 16.3304C21.3554 16.8021 22.04 17.036 22.876 17.036C23.712 17.036 24.4004 16.7963 24.9411 16.317C25.4818 15.8376 25.7522 15.2068 25.7522 14.4225ZM22.876 19.7032C21.8827 19.7032 21.0774 19.9563 20.4581 20.4606C19.8387 20.9668 19.53 21.6897 19.53 22.6312C19.53 23.5017 19.8311 24.2131 20.4312 24.7614C21.0333 25.3098 21.8482 25.586 22.876 25.586C23.9037 25.586 24.7148 25.306 25.3073 24.748C25.8998 24.19 26.197 23.4844 26.197 22.6312C26.197 21.7069 25.8921 20.9879 25.2805 20.474C24.6707 19.9601 23.8692 19.7032 22.876 19.7032Z" fill="black"/>
  <path d="M22.5625 30.7229L21.4772 34.4351H20.4648L19.7879 31.8427L19.1111 34.4351H18.0929L17 30.7229H17.951L18.6087 33.5512L19.3182 30.7229H20.3114L21.0074 33.5435L21.6632 30.7229H22.5625ZM25.4101 34.4351L24.1503 32.8551V34.4351H23.2127V29.4766H24.1503V32.2991L25.3967 30.7229H26.6162L24.9825 32.5867L26.6296 34.4351H25.4101ZM28.547 34.4965C28.2422 34.4965 27.9699 34.4408 27.7283 34.3316C27.4886 34.2223 27.2968 34.0746 27.1569 33.8867C27.015 33.6988 26.9383 33.4917 26.9249 33.2635H27.8702C27.8874 33.4054 27.9584 33.5243 28.0811 33.6183C28.2038 33.7122 28.3572 33.7582 28.5394 33.7582C28.7177 33.7582 28.8577 33.7237 28.9593 33.6509C29.059 33.5799 29.1088 33.4879 29.1088 33.3767C29.1088 33.2559 29.0475 33.1657 28.9248 33.1063C28.8021 33.0449 28.6065 32.9797 28.338 32.9088C28.0619 32.8417 27.8357 32.7707 27.6592 32.6998C27.4828 32.6289 27.3294 32.5196 27.2029 32.3719C27.0763 32.2243 27.0111 32.0249 27.0111 31.7756C27.0111 31.5704 27.0706 31.3825 27.1895 31.2119C27.3084 31.0431 27.4771 30.9089 27.6995 30.8111C27.92 30.7133 28.1808 30.6635 28.4799 30.6635C28.9209 30.6635 29.2737 30.7747 29.5384 30.9952C29.801 31.2157 29.9468 31.5148 29.9736 31.8887H29.0762C29.0628 31.7411 29.0015 31.6241 28.8922 31.5378C28.7829 31.4496 28.6352 31.4074 28.4531 31.4074C28.2824 31.4074 28.152 31.4381 28.06 31.5014C27.9699 31.5628 27.9239 31.651 27.9239 31.7622C27.9239 31.8868 27.9852 31.9827 28.1118 32.0459C28.2364 32.1111 28.4301 32.1783 28.6947 32.2454C28.9612 32.3125 29.1836 32.3815 29.3581 32.4525C29.5307 32.5234 29.6822 32.6346 29.8087 32.7842C29.9372 32.9337 30.0024 33.1312 30.0062 33.3767C30.0062 33.5914 29.9487 33.7832 29.8298 33.9538C29.7109 34.1226 29.5422 34.2549 29.3198 34.3526C29.0993 34.4485 28.8404 34.4965 28.547 34.4965Z" fill="black"/>
</svg>