<svg width="27" height="26" viewBox="0 0 27 26" fill="none" xmlns="http://www.w3.org/2000/svg">
<g opacity="0.8">
<circle opacity="0.9" cx="13.3438" cy="13" r="12.5" stroke="black"/>
<path d="M8.68199 12.6591C8.79821 13.2677 9.1546 13.572 9.75116 13.572C10.1618 13.572 10.4523 13.391 10.6228 13.0289C10.7932 12.6668 10.8784 12.0775 10.8784 11.2609C10.708 11.4997 10.4756 11.6846 10.1812 11.8156C9.88675 11.9465 9.55747 12.012 9.19333 12.012C8.69749 12.012 8.25587 11.9119 7.86849 11.7116C7.48111 11.5036 7.17508 11.1993 6.9504 10.7987C6.73347 10.3904 6.625 9.89733 6.625 9.31956C6.625 8.74948 6.74121 8.25259 6.97364 7.82889C7.21382 7.40519 7.55084 7.07778 7.98471 6.84667C8.42632 6.61556 8.94541 6.5 9.54198 6.5C10.6886 6.5 11.4905 6.85437 11.9476 7.56311C12.4047 8.27185 12.6333 9.3157 12.6333 10.6947C12.6333 11.6961 12.5403 12.5243 12.3544 13.1791C12.1762 13.8262 11.8701 14.3193 11.4363 14.6582C11.0101 14.9972 10.4252 15.1667 9.68143 15.1667C9.09261 15.1667 8.58902 15.0511 8.17065 14.82C7.76003 14.5889 7.44237 14.2846 7.21769 13.9071C7.00076 13.5296 6.8768 13.1136 6.84581 12.6591H8.68199ZM9.64657 10.452C9.97197 10.452 10.2315 10.3557 10.4252 10.1631C10.6189 9.96282 10.7157 9.69319 10.7157 9.35422C10.7157 8.98444 10.615 8.69941 10.4136 8.49911C10.2121 8.29881 9.94098 8.19867 9.60008 8.19867C9.25919 8.19867 8.98802 8.30267 8.78658 8.51067C8.59289 8.71096 8.49605 8.9883 8.49605 9.34267C8.49605 9.67393 8.59289 9.94356 8.78658 10.1516C8.98802 10.3519 9.27468 10.452 9.64657 10.452Z" fill="black"/>
<path d="M13.6935 10.7987C13.6935 9.47363 13.9492 8.42978 14.4606 7.66711C14.9797 6.90444 15.8125 6.52311 16.9592 6.52311C18.1058 6.52311 18.9348 6.90444 19.4461 7.66711C19.9652 8.42978 20.2248 9.47363 20.2248 10.7987C20.2248 12.1391 19.9652 13.1907 19.4461 13.9533C18.9348 14.716 18.1058 15.0973 16.9592 15.0973C15.8125 15.0973 14.9797 14.716 14.4606 13.9533C13.9492 13.1907 13.6935 12.1391 13.6935 10.7987ZM18.2724 10.7987C18.2724 10.0206 18.1872 9.42356 18.0167 9.00756C17.8463 8.58385 17.4938 8.372 16.9592 8.372C16.4246 8.372 16.0721 8.58385 15.9016 9.00756C15.7312 9.42356 15.6459 10.0206 15.6459 10.7987C15.6459 11.3225 15.6769 11.7578 15.7389 12.1044C15.8009 12.4434 15.9249 12.7207 16.1108 12.9364C16.3045 13.1444 16.5873 13.2484 16.9592 13.2484C17.3311 13.2484 17.61 13.1444 17.7959 12.9364C17.9896 12.7207 18.1174 12.4434 18.1794 12.1044C18.2414 11.7578 18.2724 11.3225 18.2724 10.7987Z" fill="black"/>
<path d="M8.68199 12.6591C8.79821 13.2677 9.1546 13.572 9.75116 13.572C10.1618 13.572 10.4523 13.391 10.6228 13.0289C10.7932 12.6668 10.8784 12.0775 10.8784 11.2609C10.708 11.4997 10.4756 11.6846 10.1812 11.8156C9.88675 11.9465 9.55747 12.012 9.19333 12.012C8.69749 12.012 8.25587 11.9119 7.86849 11.7116C7.48111 11.5036 7.17508 11.1993 6.9504 10.7987C6.73347 10.3904 6.625 9.89733 6.625 9.31956C6.625 8.74948 6.74121 8.25259 6.97364 7.82889C7.21382 7.40519 7.55084 7.07778 7.98471 6.84667C8.42632 6.61556 8.94541 6.5 9.54198 6.5C10.6886 6.5 11.4905 6.85437 11.9476 7.56311C12.4047 8.27185 12.6333 9.3157 12.6333 10.6947C12.6333 11.6961 12.5403 12.5243 12.3544 13.1791C12.1762 13.8262 11.8701 14.3193 11.4363 14.6582C11.0101 14.9972 10.4252 15.1667 9.68143 15.1667C9.09261 15.1667 8.58902 15.0511 8.17065 14.82C7.76003 14.5889 7.44237 14.2846 7.21769 13.9071C7.00076 13.5296 6.8768 13.1136 6.84581 12.6591H8.68199ZM9.64657 10.452C9.97197 10.452 10.2315 10.3557 10.4252 10.1631C10.6189 9.96282 10.7157 9.69319 10.7157 9.35422C10.7157 8.98444 10.615 8.69941 10.4136 8.49911C10.2121 8.29881 9.94098 8.19867 9.60008 8.19867C9.25919 8.19867 8.98802 8.30267 8.78658 8.51067C8.59289 8.71096 8.49605 8.9883 8.49605 9.34267C8.49605 9.67393 8.59289 9.94356 8.78658 10.1516C8.98802 10.3519 9.27468 10.452 9.64657 10.452Z" stroke="#F4ECDD" stroke-width="0.4"/>
<path d="M13.6935 10.7987C13.6935 9.47363 13.9492 8.42978 14.4606 7.66711C14.9797 6.90444 15.8125 6.52311 16.9592 6.52311C18.1058 6.52311 18.9348 6.90444 19.4461 7.66711C19.9652 8.42978 20.2248 9.47363 20.2248 10.7987C20.2248 12.1391 19.9652 13.1907 19.4461 13.9533C18.9348 14.716 18.1058 15.0973 16.9592 15.0973C15.8125 15.0973 14.9797 14.716 14.4606 13.9533C13.9492 13.1907 13.6935 12.1391 13.6935 10.7987ZM18.2724 10.7987C18.2724 10.0206 18.1872 9.42356 18.0167 9.00756C17.8463 8.58385 17.4938 8.372 16.9592 8.372C16.4246 8.372 16.0721 8.58385 15.9016 9.00756C15.7312 9.42356 15.6459 10.0206 15.6459 10.7987C15.6459 11.3225 15.6769 11.7578 15.7389 12.1044C15.8009 12.4434 15.9249 12.7207 16.1108 12.9364C16.3045 13.1444 16.5873 13.2484 16.9592 13.2484C17.3311 13.2484 17.61 13.1444 17.7959 12.9364C17.9896 12.7207 18.1174 12.4434 18.1794 12.1044C18.2414 11.7578 18.2724 11.3225 18.2724 10.7987Z" stroke="#F4ECDD" stroke-width="0.4"/>
<path d="M7.92221 16.2952C8.2872 16.2952 8.60616 16.3615 8.87908 16.4941C9.15201 16.6267 9.36245 16.8135 9.51042 17.0546C9.66168 17.2927 9.73731 17.5684 9.73731 17.8818C9.73731 18.1922 9.66168 18.4679 9.51042 18.709C9.36245 18.95 9.15036 19.1369 8.87415 19.2695C8.60123 19.4021 8.28391 19.4684 7.92221 19.4684H6.625V16.2952H7.92221ZM7.86795 18.7994C8.18691 18.7994 8.43517 18.7195 8.61274 18.5598C8.7903 18.4001 8.87908 18.1741 8.87908 17.8818C8.87908 17.5895 8.7903 17.362 8.61274 17.1992C8.43517 17.0365 8.18691 16.9551 7.86795 16.9551H7.46843V18.7994H7.86795Z" fill="black"/>
<path d="M12.5491 18.9079H11.2568L11.0496 19.4684H10.1667L11.4195 16.2952H12.3962L13.649 19.4684H12.7562L12.5491 18.9079ZM12.332 18.3112L11.9029 17.1495L11.4787 18.3112H12.332Z" fill="black"/>
<path d="M17.1845 16.2952L15.9859 18.4197V19.4684H15.1425V18.4197L13.9439 16.2952H14.9008L15.5716 17.6241L16.2375 16.2952H17.1845Z" fill="black"/>
<path d="M18.9621 19.5C18.7089 19.5 18.482 19.4623 18.2814 19.387C18.0809 19.3117 17.9197 19.2002 17.7981 19.0525C17.6797 18.9048 17.6172 18.7271 17.6106 18.5191H18.5083C18.5215 18.6366 18.5659 18.7271 18.6415 18.7903C18.7171 18.8506 18.8158 18.8807 18.9374 18.8807C19.0624 18.8807 19.161 18.8551 19.2334 18.8039C19.3057 18.7497 19.3419 18.6758 19.3419 18.5824C19.3419 18.5041 19.3123 18.4393 19.2531 18.388C19.1972 18.3368 19.1265 18.2946 19.041 18.2615C18.9588 18.2283 18.8404 18.1907 18.6859 18.1485C18.4623 18.0852 18.2798 18.0219 18.1384 17.9586C17.997 17.8953 17.8753 17.8019 17.7734 17.6784C17.6715 17.5548 17.6205 17.3936 17.6205 17.1947C17.6205 16.8994 17.7372 16.6689 17.9707 16.5031C18.2042 16.3344 18.5083 16.25 18.8832 16.25C19.2646 16.25 19.5721 16.3344 19.8055 16.5031C20.039 16.6689 20.164 16.9009 20.1804 17.1992H19.2679C19.2613 17.0968 19.2202 17.0169 19.1446 16.9597C19.069 16.8994 18.972 16.8693 18.8536 16.8693C18.7517 16.8693 18.6695 16.8949 18.607 16.9461C18.5445 16.9943 18.5133 17.0651 18.5133 17.1586C18.5133 17.261 18.5659 17.3409 18.6711 17.3981C18.7763 17.4554 18.9407 17.5172 19.1643 17.5834C19.3879 17.6528 19.5688 17.7191 19.7069 17.7823C19.8483 17.8456 19.9699 17.9375 20.0719 18.0581C20.1738 18.1786 20.2248 18.3338 20.2248 18.5236C20.2248 18.7045 20.1738 18.8687 20.0719 19.0163C19.9732 19.164 19.8286 19.2815 19.6378 19.3689C19.4471 19.4563 19.2219 19.5 18.9621 19.5Z" fill="black"/>
</g>
</svg>
