<svg width="73" height="73" viewBox="0 0 73 73" fill="none" xmlns="http://www.w3.org/2000/svg">
<circle cx="36.5" cy="36.6703" r="35.5" stroke="#C7E7DC"/>
<g clip-path="url(#clip0_28564_3454)">
<path d="M51.3679 57C51.2173 56.9998 51.0718 56.9452 50.9582 56.8462C50.8446 56.7472 50.7706 56.6105 50.7498 56.4613C50.6379 55.6909 50.2593 54.9842 49.6798 54.4644C49.617 54.4072 49.5665 54.3378 49.5314 54.2603C49.4963 54.1829 49.4773 54.0992 49.4757 54.0142C49.4741 53.9293 49.4898 53.8449 49.5219 53.7662C49.554 53.6875 49.6018 53.6162 49.6624 53.5566C49.723 53.497 49.7951 53.4504 49.8744 53.4196C49.9536 53.3889 50.0382 53.3746 50.1232 53.3777C50.2081 53.3807 50.2915 53.4011 50.3683 53.4375C50.4451 53.4739 50.5137 53.5256 50.5698 53.5894C51.3373 54.3015 51.8376 55.2551 51.9873 56.2913C52.0101 56.4553 51.9669 56.6216 51.8672 56.7538C51.7675 56.886 51.6194 56.9732 51.4554 56.9963C51.4264 56.9997 51.3972 57.0009 51.3679 57Z" fill="black"/>
<path d="M49.4759 46.375C49.4621 46.375 49.4496 46.375 49.4359 46.375C49.2705 46.3645 49.116 46.2888 49.0064 46.1644C48.8968 46.0401 48.8411 45.8773 48.8515 45.7119C48.8628 45.53 48.8684 45.3369 48.8684 45.1262C48.8795 44.5778 48.7431 44.0364 48.4734 43.5587C48.3918 43.4143 48.371 43.2433 48.4155 43.0835C48.46 42.9237 48.5661 42.7881 48.7106 42.7065C48.855 42.625 49.026 42.6042 49.1858 42.6486C49.3456 42.6931 49.4812 42.7993 49.5628 42.9437C49.9371 43.6091 50.1288 44.3616 50.1184 45.125C50.1184 45.3625 50.1115 45.5831 50.099 45.7894C50.089 45.9479 50.019 46.0966 49.9033 46.2054C49.7875 46.3142 49.6347 46.3748 49.4759 46.375Z" fill="black"/>
<path d="M55.1245 57C54.9739 56.9998 54.8285 56.9453 54.7149 56.8464C54.6014 56.7475 54.5273 56.611 54.5064 56.4619C54.3415 55.5231 53.8281 54.6813 53.0689 54.105C52.2739 53.3431 51.3745 52.48 51.3745 50.75C51.3603 49.8074 51.5747 48.8754 51.9995 48.0337C52.4472 47.1315 52.6621 46.1315 52.6245 45.125C52.6147 44.637 52.507 44.156 52.308 43.7104C52.109 43.2648 51.8226 42.8636 51.4658 42.5306C50.6414 41.7334 50.1602 40.6462 50.1245 39.5C50.0892 38.4884 50.3168 37.4849 50.7851 36.5875C51.2173 35.7511 51.4206 34.8153 51.3745 33.875C51.3745 24.5294 45.5976 18.25 36.9995 18.25C28.4014 18.25 22.6245 24.5294 22.6245 33.875C22.5784 34.8153 22.7817 35.7511 23.2139 36.5875C23.6822 37.4849 23.9099 38.4884 23.8745 39.5C23.8388 40.6462 23.3576 41.7334 22.5333 42.5306C22.1765 42.8636 21.8901 43.2648 21.691 43.7104C21.492 44.156 21.3844 44.637 21.3745 45.125C21.3369 46.1315 21.5518 47.1315 21.9995 48.0337C22.4243 48.8754 22.6388 49.8074 22.6245 50.75C22.6245 52.48 21.7251 53.3431 20.9314 54.105C20.1722 54.6813 19.6588 55.5231 19.4939 56.4619C19.4843 56.5447 19.4582 56.6247 19.4172 56.6973C19.3763 56.7698 19.3212 56.8335 19.2552 56.8844C19.1893 56.9354 19.1138 56.9726 19.0333 56.994C18.9527 57.0154 18.8687 57.0204 18.7861 57.0088C18.7036 56.9972 18.6242 56.9693 18.5527 56.9265C18.4811 56.8838 18.4188 56.8272 18.3695 56.7601C18.3201 56.6929 18.2847 56.6166 18.2652 56.5355C18.2458 56.4545 18.2428 56.3704 18.2564 56.2881C18.456 55.0702 19.1022 53.9704 20.0689 53.2031C20.797 52.5 21.3745 51.9475 21.3745 50.75C21.3856 49.9832 21.2077 49.2255 20.8564 48.5438C20.3372 47.4809 20.0859 46.3072 20.1245 45.125C20.139 43.8437 20.6617 42.6205 21.5776 41.7244C22.1626 41.0312 22.6245 40.4844 22.6245 39.5C22.6575 38.6731 22.471 37.8521 22.0839 37.1206C21.5719 36.1179 21.3275 34.9999 21.3745 33.875C21.3745 23.7838 27.6501 17.0031 36.992 17H36.9995C46.3451 17 52.6245 23.7819 52.6245 33.875C52.6715 34.9999 52.4272 36.1179 51.9151 37.1206C51.528 37.8521 51.3415 38.6731 51.3745 39.5C51.3745 40.4844 51.8364 41.0312 52.4214 41.7244C53.3374 42.6205 53.86 43.8437 53.8745 45.125C53.9131 46.3072 53.6618 47.4809 53.1426 48.5438C52.7914 49.2255 52.6134 49.9832 52.6245 50.75C52.6245 51.9475 53.202 52.5 53.9333 53.2031C54.8999 53.9704 55.5461 55.0702 55.7458 56.2881C55.7688 56.4522 55.7256 56.6187 55.6259 56.751C55.5262 56.8834 55.378 56.9707 55.2139 56.9938C55.1843 56.9981 55.1544 57.0002 55.1245 57Z" fill="black"/>
<path d="M22.6323 57C22.603 57.0001 22.5737 56.998 22.5448 56.9938C22.3807 56.9707 22.2325 56.8834 22.1327 56.7511C22.033 56.6187 21.9899 56.4522 22.0129 56.2881C22.2125 55.0702 22.8587 53.9704 23.8254 53.2031C24.5541 52.5 25.1316 51.9475 25.1316 50.75C25.1427 49.9832 24.9648 49.2255 24.6135 48.5438C24.0943 47.4809 23.8431 46.3072 23.8816 45.125C23.871 44.3612 24.0627 43.6082 24.4373 42.9425C24.5188 42.798 24.6544 42.6919 24.8142 42.6474C24.974 42.6029 25.145 42.6238 25.2894 42.7053C25.4339 42.7869 25.5401 42.9225 25.5845 43.0823C25.629 43.2421 25.6082 43.413 25.5266 43.5575C25.257 44.0352 25.1205 44.5766 25.1316 45.125C25.094 46.1315 25.3089 47.1315 25.7566 48.0338C26.1814 48.8754 26.3959 49.8074 26.3816 50.75C26.3816 52.48 25.4816 53.3431 24.6885 54.105C23.9291 54.6812 23.4154 55.523 23.2504 56.4619C23.2295 56.611 23.1554 56.7475 23.0418 56.8464C22.9283 56.9453 22.7828 56.9998 22.6323 57Z" fill="black"/>
<path d="M26.3823 57C26.353 57.0001 26.3237 56.998 26.2948 56.9938C26.1307 56.9707 25.9825 56.8834 25.8827 56.7511C25.783 56.6187 25.7399 56.4522 25.7629 56.2881C25.9625 55.0702 26.6087 53.9704 27.5754 53.2031C28.3041 52.5 28.8816 51.9475 28.8816 50.75C28.8816 50.545 28.8723 50.3588 28.8554 50.1875C28.8388 50.0226 28.8884 49.8578 28.9933 49.7295C29.0982 49.6011 29.2498 49.5197 29.4148 49.5031C29.5797 49.4866 29.7445 49.5362 29.8728 49.6411C30.0011 49.746 30.0826 49.8976 30.0991 50.0625C30.1198 50.2719 30.1316 50.5 30.1316 50.75C30.1316 52.48 29.2316 53.3431 28.4385 54.105C27.6791 54.6812 27.1654 55.523 27.0004 56.4619C26.9795 56.611 26.9054 56.7475 26.7918 56.8464C26.6783 56.9453 26.5328 56.9998 26.3823 57Z" fill="black"/>
<path d="M37 51.375C25.26 51.375 25.125 32.7913 25.125 32C25.1247 31.8404 25.1855 31.6868 25.2948 31.5706C25.4042 31.4544 25.5538 31.3844 25.7131 31.375C25.8156 31.3688 36.0331 30.7025 38.9538 25.445C39.0135 25.3376 39.1037 25.2502 39.2129 25.1937C39.3221 25.1372 39.4455 25.1143 39.5677 25.1276C39.6899 25.1409 39.8055 25.19 39.9 25.2687C39.9944 25.3474 40.0636 25.4522 40.0988 25.57C40.6652 27.2776 41.7605 28.7606 43.226 29.8043C44.6914 30.8479 46.451 31.398 48.25 31.375C48.4158 31.375 48.5747 31.4409 48.6919 31.5581C48.8092 31.6753 48.875 31.8343 48.875 32C48.8135 35.4583 48.2637 38.8906 47.2419 42.195C47.1886 42.3506 47.0762 42.4789 46.9291 42.5521C46.7819 42.6254 46.6117 42.6377 46.4555 42.5864C46.2993 42.5351 46.1696 42.4243 46.0946 42.2781C46.0195 42.1318 46.005 41.9618 46.0544 41.805C46.971 38.8199 47.4941 35.728 47.6106 32.6075C45.8649 32.5155 44.177 31.9511 42.7272 30.9745C41.2773 29.9978 40.12 28.6457 39.3788 27.0625C36.0575 31.3394 28.5863 32.3631 26.39 32.575C26.5106 35.6644 27.5794 50.125 37 50.125C37.3904 50.1254 37.7804 50.1002 38.1675 50.0494C38.2498 50.0366 38.3337 50.0403 38.4145 50.0604C38.4953 50.0805 38.5713 50.1165 38.638 50.1663C38.7046 50.2162 38.7607 50.2788 38.8028 50.3506C38.845 50.4224 38.8723 50.5019 38.8833 50.5844C38.8943 50.6669 38.8887 50.7508 38.8668 50.8311C38.845 50.9115 38.8073 50.9866 38.756 51.0522C38.7046 51.1177 38.6408 51.1723 38.568 51.2129C38.4953 51.2534 38.4152 51.279 38.3325 51.2881C37.8907 51.3464 37.4456 51.3754 37 51.375Z" fill="black"/>
<path d="M30.1249 57C29.977 57 29.8338 56.9475 29.7209 56.8518C29.6081 56.7562 29.5328 56.6236 29.5085 56.4776C29.4842 56.3317 29.5125 56.1819 29.5882 56.0548C29.664 55.9278 29.7824 55.8317 29.9224 55.7838C32.5818 54.875 32.6249 51.0556 32.6249 51.0169V50.125C32.6249 49.9592 32.6907 49.8003 32.808 49.6831C32.9252 49.5658 33.0841 49.5 33.2499 49.5C33.4157 49.5 33.5746 49.5658 33.6918 49.6831C33.8091 49.8003 33.8749 49.9592 33.8749 50.125V51.0181C33.8749 51.2113 33.8349 55.7637 30.3274 56.9662C30.2622 56.9887 30.1938 57.0001 30.1249 57Z" fill="black"/>
<path d="M37.0001 45.125C35.4724 45.1912 33.9757 44.6795 32.8083 43.6919C32.6944 43.574 32.6314 43.4161 32.6328 43.2523C32.6343 43.0884 32.7 42.9316 32.8159 42.8157C32.9318 42.6999 33.0885 42.6341 33.2524 42.6327C33.4163 42.6313 33.5741 42.6943 33.692 42.8081C34.6262 43.5582 35.8038 43.9379 37.0001 43.875C38.1983 43.9378 39.3776 43.5569 40.3126 42.805C40.4314 42.6943 40.5886 42.6343 40.7509 42.6374C40.9132 42.6406 41.068 42.7069 41.1823 42.8221C41.2967 42.9374 41.3617 43.0926 41.3636 43.2549C41.3655 43.4172 41.3042 43.574 41.1926 43.6919C40.025 44.6797 38.5281 45.1914 37.0001 45.125Z" fill="black"/>
<path d="M41.3755 38.25C40.8655 38.219 40.3724 38.0555 39.945 37.7757C39.5175 37.4958 39.1704 37.1093 38.938 36.6544C38.8639 36.506 38.8517 36.3343 38.9042 36.177C38.9568 36.0197 39.0696 35.8897 39.218 35.8156C39.3663 35.7415 39.538 35.7294 39.6953 35.7819C39.8526 35.8344 39.9826 35.9473 40.0567 36.0956C40.1855 36.3429 40.3732 36.5548 40.6032 36.7125C40.8331 36.8702 41.0983 36.9689 41.3755 37C41.6527 36.9682 41.9178 36.8688 42.1476 36.7104C42.3773 36.5521 42.5646 36.3397 42.693 36.0919C42.7675 35.9438 42.8979 35.8314 43.0554 35.7794C43.2129 35.7274 43.3845 35.7401 43.5326 35.8147C43.6808 35.8893 43.7932 36.0197 43.8451 36.1771C43.8971 36.3346 43.8844 36.5063 43.8098 36.6544C43.5777 37.1089 43.231 37.4951 42.8042 37.7749C42.3773 38.0547 41.8849 38.2184 41.3755 38.25Z" fill="black"/>
<path d="M32.6253 38.25C32.1158 38.2184 31.6234 38.0547 31.1965 37.7749C30.7697 37.4951 30.4231 37.1089 30.1909 36.6544C30.1168 36.506 30.1047 36.3343 30.1572 36.177C30.2097 36.0197 30.3225 35.8897 30.4709 35.8156C30.6192 35.7415 30.791 35.7294 30.9483 35.7819C31.1055 35.8344 31.2355 35.9473 31.3096 36.0956C31.4382 36.3425 31.6253 36.5541 31.8547 36.7118C32.0841 36.8695 32.3487 36.9684 32.6253 37C32.9025 36.9682 33.1676 36.8688 33.3974 36.7104C33.6271 36.5521 33.8144 36.3397 33.9428 36.0919C34.0174 35.9438 34.1477 35.8314 34.3052 35.7794C34.4627 35.7274 34.6343 35.7401 34.7824 35.8147C34.9306 35.8893 35.043 36.0197 35.0949 36.1771C35.1469 36.3346 35.1342 36.5063 35.0596 36.6544C34.8275 37.1089 34.4809 37.4951 34.054 37.7749C33.6271 38.0547 33.1347 38.2184 32.6253 38.25Z" fill="black"/>
<path d="M44.5 55.125C43.1744 55.1235 41.9035 54.5962 40.9661 53.6589C40.0288 52.7215 39.5015 51.4506 39.5 50.125C39.5 47.5512 43.5625 42.7556 44.0263 42.2175C44.0866 42.1521 44.1599 42.1 44.2414 42.0643C44.323 42.0286 44.411 42.0102 44.5 42.0102C44.589 42.0102 44.677 42.0286 44.7586 42.0643C44.8401 42.1 44.9134 42.1521 44.9737 42.2175C45.4375 42.7556 49.5 47.5512 49.5 50.125C49.4985 51.4506 48.9712 52.7215 48.0339 53.6589C47.0965 54.5962 45.8256 55.1235 44.5 55.125ZM44.5 43.6006C43.1363 45.2775 40.75 48.5412 40.75 50.125C40.75 51.1196 41.1451 52.0734 41.8483 52.7766C42.5516 53.4799 43.5054 53.875 44.5 53.875C45.4946 53.875 46.4484 53.4799 47.1517 52.7766C47.8549 52.0734 48.25 51.1196 48.25 50.125C48.25 48.5394 45.8644 45.2775 44.5 43.6006Z" fill="black"/>
<path d="M44.5 52.625C44.3342 52.625 44.1753 52.5592 44.0581 52.4419C43.9408 52.3247 43.875 52.1658 43.875 52C43.875 51.8342 43.9408 51.6753 44.0581 51.5581C44.1753 51.4408 44.3342 51.375 44.5 51.375C44.8315 51.375 45.1495 51.2433 45.3839 51.0089C45.6183 50.7745 45.75 50.4565 45.75 50.125C45.75 49.9592 45.8158 49.8003 45.9331 49.6831C46.0503 49.5658 46.2092 49.5 46.375 49.5C46.5408 49.5 46.6997 49.5658 46.8169 49.6831C46.9342 49.8003 47 49.9592 47 50.125C47 50.788 46.7366 51.4239 46.2678 51.8928C45.7989 52.3616 45.163 52.625 44.5 52.625Z" fill="black"/>
</g>
<defs>
<clipPath id="clip0_28564_3454">
<rect width="40" height="40" fill="white" transform="translate(17 17)"/>
</clipPath>
</defs>
</svg>
