<svg width="73" height="73" viewBox="0 0 73 73" fill="none" xmlns="http://www.w3.org/2000/svg">
<circle cx="36.5" cy="36.6703" r="35.5" stroke="#C7E7DC"/>
<g clip-path="url(#clip0_28564_3391)">
<path d="M28.7424 36.5568L28.7422 36.5566L28.7378 36.5626C27.5385 38.1797 26.9336 40.1609 27.025 42.172C27.0119 43.4192 27.2478 44.6565 27.7189 45.8114C28.1904 46.9672 28.8879 48.0171 29.7705 48.8998C30.6531 49.7824 31.7031 50.4799 32.8589 50.9513C34.0143 51.4227 35.2522 51.6586 36.5 51.6453C37.7478 51.6586 38.9857 51.4227 40.1411 50.9513C41.2969 50.4799 42.3469 49.7824 43.2295 48.8998C44.1121 48.0171 44.8096 46.9672 45.2811 45.8114C45.7522 44.6565 45.9881 43.4192 45.975 42.172C46.0664 40.1609 45.4615 38.1797 44.2622 36.5626L44.2624 36.5624L44.2576 36.5568C43.8002 36.0273 43.5258 35.3645 43.475 34.6667C43.4762 33.8819 43.8815 33.4474 44.3078 33.2021C44.7305 32.9589 45.1721 32.9042 45.2552 32.8953H55.875C56.0673 32.8953 56.2517 32.8189 56.3876 32.6829C56.5236 32.547 56.6 32.3626 56.6 32.1703C56.6 31.978 56.5236 31.7936 56.3877 31.6576C56.2517 31.5217 56.0673 31.4453 55.875 31.4453H45.2013V31.445L45.1933 31.4456C44.6464 31.489 43.8579 31.705 43.2035 32.2045C42.5453 32.7069 42.025 33.4953 42.025 34.6703H42.0249L42.0251 34.6747C42.0686 35.6661 42.4339 36.6163 43.0657 37.3815C44.0945 38.7574 44.6107 40.4494 44.5251 42.1653L44.525 42.1653V42.1703C44.525 44.2987 43.6795 46.3398 42.1745 47.8448C40.6696 49.3498 38.6284 50.1953 36.5 50.1953C34.3716 50.1953 32.3304 49.3498 30.8255 47.8448C29.3205 46.3398 28.475 44.2987 28.475 42.1703H28.4751L28.4749 42.1653C28.3893 40.4494 28.9055 38.7574 29.9343 37.3815C30.5661 36.6163 30.9314 35.6661 30.9749 34.6747L30.975 34.6747V34.6703C30.975 33.4953 30.4547 32.7067 29.79 32.2042C29.1293 31.7047 28.3285 31.4889 27.7576 31.4456L27.7576 31.4453H27.75H17.125C16.9327 31.4453 16.7483 31.5217 16.6123 31.6576C16.4764 31.7936 16.4 31.978 16.4 32.1703C16.4 32.3626 16.4764 32.547 16.6123 32.6829C16.7483 32.8189 16.9327 32.8953 17.125 32.8953H27.6948C27.7951 32.9034 28.2535 32.9569 28.6864 33.2024C29.1186 33.4476 29.5238 33.882 29.525 34.6667C29.4742 35.3645 29.1998 36.0273 28.7424 36.5568Z" fill="black" stroke="black" stroke-width="0.2"/>
<path d="M46.5 37.2703H55.875C56.0673 37.2703 56.2517 37.1939 56.3877 37.0579C56.5236 36.922 56.6 36.7376 56.6 36.5453C56.6 36.353 56.5236 36.1686 56.3877 36.0326C56.2517 35.8967 56.0673 35.8203 55.875 35.8203H46.5C46.3077 35.8203 46.1233 35.8967 45.9873 36.0326C45.8514 36.1686 45.775 36.353 45.775 36.5453C45.775 36.7376 45.8514 36.922 45.9873 37.0579C46.1233 37.1939 46.3077 37.2703 46.5 37.2703Z" fill="black" stroke="black" stroke-width="0.2"/>
<path d="M17.125 37.2703H26.5C26.6923 37.2703 26.8767 37.1939 27.0127 37.0579C27.1486 36.922 27.225 36.7376 27.225 36.5453C27.225 36.353 27.1486 36.1686 27.0127 36.0326C26.8767 35.8967 26.6923 35.8203 26.5 35.8203H17.125C16.9327 35.8203 16.7483 35.8967 16.6123 36.0326C16.4764 36.1686 16.4 36.353 16.4 36.5453C16.4 36.7376 16.4764 36.922 16.6123 37.0579C16.7483 37.1939 16.9327 37.2703 17.125 37.2703Z" fill="black" stroke="black" stroke-width="0.2"/>
<path d="M39.1915 25.5132L39.1915 25.5132L37.8497 24.992C37.5879 24.8903 37.4156 24.6385 37.4156 24.3578C37.4156 24.0771 37.588 23.8252 37.8497 23.7236C37.8497 23.7236 37.8497 23.7236 37.8497 23.7236L39.1915 23.2024C39.7476 22.9863 40.1919 22.5438 40.41 21.9885C40.41 21.9885 40.41 21.9885 40.41 21.9884L40.9448 20.6269L40.9448 20.6269C41.0471 20.3666 41.2984 20.1953 41.5781 20.1953C41.8578 20.1953 42.109 20.3665 42.2113 20.6269L42.2113 20.6269L42.7462 21.9884C42.9644 22.5438 43.4087 22.9864 43.9648 23.2024L45.3065 23.7236C45.5683 23.8252 45.7406 24.0771 45.7406 24.3578C45.7406 24.6385 45.5682 24.8903 45.3066 24.992M39.1915 25.5132L45.2704 24.8987M39.1915 25.5132C39.7476 25.7292 40.1919 26.1718 40.41 26.727L40.5031 26.6905L40.41 26.727L40.9448 28.0887L41.0379 28.0521L40.9448 28.0887M39.1915 25.5132L40.9448 28.0887M45.3066 24.992L45.2704 24.8987M45.3066 24.992L45.3066 24.992L45.2704 24.8987M45.3066 24.992L43.9648 25.5132M45.2704 24.8987L43.9286 25.42M43.9648 25.5132L43.9286 25.42M43.9648 25.5132C43.4086 25.7293 42.9643 26.1718 42.7462 26.727L42.7462 26.7271L42.2113 28.0887L42.2113 28.0887C42.109 28.349 41.8579 28.5203 41.5781 28.5203C41.2983 28.5203 41.0471 28.3491 40.9448 28.0887M43.9648 25.5132L43.9648 25.5132L43.9286 25.42M43.9286 25.42L40.9448 28.0887M39.9433 24.3578C40.6571 24.0114 41.2361 23.4291 41.5782 22.7125C41.9203 23.4291 42.4993 24.0113 43.2131 24.3578C42.4993 24.7042 41.9203 25.2865 41.5782 26.003C41.2361 25.2865 40.6571 24.7042 39.9433 24.3578Z" fill="black" stroke="black" stroke-width="0.2"/>
<path d="M37.1822 29.0145C37.4435 28.9131 37.6156 28.6616 37.6156 28.3812C37.6156 28.1009 37.4436 27.8494 37.1822 27.7479C37.1822 27.7479 37.1822 27.7479 37.1822 27.7479L36.0659 27.3143L36.0658 27.3143C35.6326 27.146 35.2865 26.8012 35.1165 26.3685L34.6714 25.2357C34.5693 24.9756 34.3184 24.8047 34.0391 24.8047C33.7597 24.8047 33.5089 24.9757 33.4067 25.2357L33.4067 25.2357L32.9617 26.3685C32.7917 26.8012 32.4456 27.146 32.0123 27.3143L30.896 27.7479C30.896 27.7479 30.896 27.7479 30.896 27.7479C30.6347 27.8494 30.4625 28.1009 30.4625 28.3812C30.4625 28.6616 30.6346 28.9131 30.896 29.0145L32.0123 29.4482C32.4456 29.6164 32.7917 29.9613 32.9617 30.3939L33.4067 31.5268L33.4067 31.5268C33.5089 31.7868 33.7597 31.9578 34.0391 31.9578C34.3185 31.9578 34.5693 31.7867 34.6714 31.5268L34.6714 31.5268L35.1165 30.3939L35.1165 30.3939C35.2864 29.9613 35.6326 29.6164 36.0658 29.4482L36.0659 29.4482L37.1822 29.0145ZM37.1822 29.0145L37.146 28.9213M37.1822 29.0145L37.1822 29.0145L37.146 28.9213M37.146 28.9213C37.3688 28.8348 37.5156 28.6203 37.5156 28.3812C37.5156 28.1421 37.3689 27.9277 37.146 27.8411V28.9213ZM32.9205 28.3812C33.3856 28.1125 33.7727 27.7235 34.039 27.2567C34.3053 27.7234 34.6925 28.1125 35.1575 28.3812C34.6924 28.65 34.3053 29.039 34.039 29.5058C33.7726 29.039 33.3855 28.6499 32.9205 28.3812Z" fill="black" stroke="black" stroke-width="0.2"/>
</g>
<defs>
<clipPath id="clip0_28564_3391">
<rect width="40" height="33" fill="white" transform="translate(16.5 19.6703)"/>
</clipPath>
</defs>
</svg>
