<svg width="42" height="44" viewBox="0 0 42 44" fill="none" xmlns="http://www.w3.org/2000/svg">
<path d="M32.2355 23.9526C35.1115 18.9712 33.2036 12.5261 28.0343 9.54155C22.8649 6.55703 16.3293 8.12729 13.4533 13.1087L9.77345 19.4823C6.89746 24.4637 8.80539 30.9088 13.9747 33.8934C19.1441 36.8779 25.6797 35.3076 28.5557 30.3263L32.2355 23.9526Z" stroke="black" stroke-width="0.913043"/>
<circle cx="28.5346" cy="25.0707" r="0.308537" transform="rotate(120 28.5346 25.0707)" fill="black"/>
<circle cx="27.2065" cy="27.2758" r="0.308537" transform="rotate(120 27.2065 27.2758)" fill="black"/>
<circle cx="29.7758" cy="22.8239" r="0.308537" transform="rotate(120 29.7758 22.8239)" fill="black"/>
<circle cx="25.7035" cy="29.3756" r="0.308537" transform="rotate(120 25.7035 29.3756)" fill="black"/>
<circle cx="30.6156" cy="20.3356" r="0.308537" transform="rotate(120 30.6156 20.3356)" fill="black"/>
<circle cx="30.4262" cy="17.7921" r="0.308537" transform="rotate(120 30.4262 17.7921)" fill="black"/>
<circle cx="29.6235" cy="15.3727" r="0.308537" transform="rotate(120 29.6235 15.3727)" fill="black"/>
<circle cx="28.0951" cy="13.3014" r="0.308537" transform="rotate(120 28.0951 13.3014)" fill="black"/>
<circle cx="25.9457" cy="11.8815" r="0.308537" transform="rotate(120 25.9457 11.8815)" fill="black"/>
<circle cx="23.6244" cy="30.9074" r="0.308537" transform="rotate(120 23.6244 30.9074)" fill="black"/>
<circle cx="21.2865" cy="31.8717" r="0.308537" transform="rotate(120 21.2865 31.8717)" fill="black"/>
<circle cx="18.7524" cy="31.8344" r="0.308537" transform="rotate(120 18.7524 31.8344)" fill="black"/>
<circle cx="16.2778" cy="31.1789" r="0.308537" transform="rotate(120 16.2778 31.1789)" fill="black"/>
<circle cx="14.225" cy="29.8146" r="0.308537" transform="rotate(120 14.225 29.8146)" fill="black"/>
<circle cx="12.7348" cy="27.7631" r="0.308537" transform="rotate(120 12.7348 27.7631)" fill="black"/>
<circle cx="11.9174" cy="25.2731" r="0.308537" transform="rotate(120 11.9174 25.2731)" fill="black"/>
<circle cx="11.7153" cy="22.8483" r="0.308537" transform="rotate(120 11.7153 22.8483)" fill="black"/>
<circle cx="12.5815" cy="20.3141" r="0.308537" transform="rotate(120 12.5815 20.3141)" fill="black"/>
<circle cx="13.8559" cy="17.9044" r="0.308537" transform="rotate(120 13.8559 17.9044)" fill="black"/>
<circle cx="15.2279" cy="15.7304" r="0.308537" transform="rotate(120 15.2279 15.7304)" fill="black"/>
<circle cx="16.6137" cy="13.7362" r="0.308537" transform="rotate(120 16.6137 13.7362)" fill="black"/>
<circle cx="18.6586" cy="12.2435" r="0.308537" transform="rotate(120 18.6586 12.2435)" fill="black"/>
<circle cx="21.0951" cy="11.2221" r="0.308537" transform="rotate(120 21.0951 11.2221)" fill="black"/>
<circle cx="23.6381" cy="11.141" r="0.308537" transform="rotate(120 23.6381 11.141)" fill="black"/>
<circle cx="25.9226" cy="24.0323" r="0.211054" transform="rotate(120 25.9226 24.0323)" fill="black"/>
<circle cx="25.0437" cy="25.556" r="0.211054" transform="rotate(120 25.0437 25.556)" fill="black"/>
<circle cx="26.8015" cy="22.5106" r="0.211054" transform="rotate(120 26.8015 22.5106)" fill="black"/>
<circle cx="24.0095" cy="26.9801" r="0.211054" transform="rotate(120 24.0095 26.9801)" fill="black"/>
<circle cx="27.3816" cy="20.8102" r="0.211054" transform="rotate(120 27.3816 20.8102)" fill="black"/>
<circle cx="27.2439" cy="19.0675" r="0.211054" transform="rotate(120 27.2439 19.0675)" fill="black"/>
<circle cx="26.7029" cy="17.4127" r="0.211054" transform="rotate(120 26.7029 17.4127)" fill="black"/>
<circle cx="25.6492" cy="15.9891" r="0.211054" transform="rotate(120 25.6492 15.9891)" fill="black"/>
<circle cx="24.1814" cy="15.0218" r="0.211054" transform="rotate(120 24.1814 15.0218)" fill="black"/>
<circle cx="22.6004" cy="28.0389" r="0.211054" transform="rotate(120 22.6004 28.0389)" fill="black"/>
<circle cx="20.9949" cy="28.7005" r="0.211054" transform="rotate(120 20.9949 28.7005)" fill="black"/>
<circle cx="19.2664" cy="28.6683" r="0.211054" transform="rotate(120 19.2664 28.6683)" fill="black"/>
<circle cx="17.5681" cy="28.2262" r="0.211054" transform="rotate(120 17.5681 28.2262)" fill="black"/>
<circle cx="16.1658" cy="27.2906" r="0.211054" transform="rotate(120 16.1658 27.2906)" fill="black"/>
<circle cx="15.1482" cy="25.8912" r="0.211054" transform="rotate(120 15.1482 25.8912)" fill="black"/>
<circle cx="14.5877" cy="24.1835" r="0.211054" transform="rotate(120 14.5877 24.1835)" fill="black"/>
<circle cx="14.447" cy="22.5226" r="0.211054" transform="rotate(120 14.447 22.5226)" fill="black"/>
<circle cx="15.0379" cy="20.7928" r="0.211054" transform="rotate(120 15.0379 20.7928)" fill="black"/>
<circle cx="15.9558" cy="19.204" r="0.211054" transform="rotate(120 15.9558 19.204)" fill="black"/>
<circle cx="16.8504" cy="17.6551" r="0.211054" transform="rotate(120 16.8504 17.6551)" fill="black"/>
<circle cx="17.7996" cy="16.2914" r="0.211054" transform="rotate(120 17.7996 16.2914)" fill="black"/>
<circle cx="19.198" cy="15.2709" r="0.211054" transform="rotate(120 19.198 15.2709)" fill="black"/>
<circle cx="20.866" cy="14.5675" r="0.211054" transform="rotate(120 20.866 14.5675)" fill="black"/>
<circle cx="22.6023" cy="14.5179" r="0.211054" transform="rotate(120 22.6023 14.5179)" fill="black"/>
<path d="M16.1633 4.96336C16.3416 4.78508 16.3416 4.49603 16.1633 4.31775L13.2581 1.41246C13.0798 1.23418 12.7907 1.23418 12.6124 1.41246C12.4342 1.59074 12.4342 1.8798 12.6124 2.05808L15.1949 4.64056L12.6124 7.22303C12.4342 7.40132 12.4342 7.69037 12.6124 7.86865C12.7907 8.04693 13.0798 8.04693 13.2581 7.86865L16.1633 4.96336ZM5.90965 14.5637C5.90965 9.35488 10.336 5.09708 15.8405 5.09708L15.8405 4.18403C9.87149 4.18403 4.9966 8.81173 4.9966 14.5637L5.90965 14.5637Z" fill="black"/>
<path d="M25.3708 39.543C25.1926 39.7213 25.1926 40.0103 25.3708 40.1886L28.2761 43.0939C28.4544 43.2722 28.7435 43.2722 28.9217 43.0939C29.1 42.9156 29.1 42.6266 28.9217 42.4483L26.3393 39.8658L28.9217 37.2833C29.1 37.105 29.1 36.816 28.9217 36.6377C28.7435 36.4594 28.4544 36.4594 28.2761 36.6377L25.3708 39.543ZM35.6245 29.9426C35.6245 35.1515 31.1982 39.4093 25.6936 39.4093L25.6936 40.3223C31.6627 40.3223 36.5376 35.6946 36.5376 29.9426L35.6245 29.9426Z" fill="black"/>
</svg>
