<svg width="42" height="43" viewBox="0 0 42 43" fill="none" xmlns="http://www.w3.org/2000/svg">
<path d="M23.5788 12.7424V14.3028H22.6425C22.1255 14.3028 21.7063 14.722 21.7063 15.239V16.1753H29.8203V15.239C29.8203 14.722 29.4011 14.3028 28.884 14.3028H27.9478V12.7424C27.9478 8.78463 24.7279 5.5647 20.7701 5.5647H13.2803C9.32247 5.5647 6.10254 8.78463 6.10254 12.7424V36.585C6.10254 37.102 6.52172 37.5212 7.03877 37.5212H9.53537C10.0524 37.5212 10.4716 37.102 10.4716 36.585V12.7424C10.4716 11.1937 11.7316 9.93375 13.2803 9.93375H20.7701C22.3188 9.93375 23.5788 11.1937 23.5788 12.7424Z" stroke="black" stroke-width="0.958696"/>
<path d="M33.2815 16.1891H18.1743C16.5359 16.1891 15.0802 17.3541 15.0802 18.9281V20.4345C15.0802 21.1785 15.7531 21.6671 16.4311 21.6671H35.0247C35.7027 21.6671 36.3756 21.1785 36.3756 20.4345V18.9281C36.3756 17.3541 34.92 16.1891 33.2815 16.1891Z" stroke="black" stroke-width="0.958696"/>
<path fill-rule="evenodd" clip-rule="evenodd" d="M25.3773 26.4209C28.1433 26.4209 30.3855 28.6636 30.3855 31.4305C30.3855 34.1973 28.1433 36.44 25.3773 36.44C22.6113 36.44 20.3691 34.1973 20.3691 31.4305C20.3691 28.6636 22.6113 26.4209 25.3773 26.4209Z" fill="#FEFEFE" stroke="black" stroke-width="0.958696" stroke-miterlimit="2.61313" stroke-linecap="round" stroke-linejoin="round"/>
<path d="M23.2676 31.5254L24.9658 33.2237L28.3624 29.8271" stroke="black" stroke-width="0.958696" stroke-linecap="round"/>
</svg>
