<svg width="42" height="43" viewBox="0 0 42 43" fill="none" xmlns="http://www.w3.org/2000/svg">
<path d="M17.7286 27.7269C17.9184 27.6859 18.0353 27.5844 17.9897 27.5002C17.9441 27.4161 17.7532 27.3812 17.5634 27.4222C17.3736 27.4633 17.2567 27.5648 17.3023 27.6489C17.3479 27.7331 17.5388 27.768 17.7286 27.7269Z" fill="black"/>
<path d="M20.6065 27.1332C20.7963 27.0921 20.9132 26.9906 20.8676 26.9065C20.822 26.8223 20.6312 26.7874 20.4414 26.8285C20.2515 26.8695 20.1346 26.971 20.1802 27.0552C20.2259 27.1393 20.4167 27.1743 20.6065 27.1332Z" fill="black"/>
<path d="M14.877 28.3727C15.0669 28.3316 15.1838 28.2301 15.1381 28.146C15.0925 28.0618 14.9017 28.0269 14.7119 28.068C14.522 28.109 14.4051 28.2105 14.4508 28.2947C14.4964 28.3788 14.6872 28.4138 14.877 28.3727Z" fill="black"/>
<path d="M23.5382 26.6405C23.728 26.5995 23.8449 26.498 23.7993 26.4138C23.7537 26.3297 23.5628 26.2947 23.373 26.3358C23.1832 26.3769 23.0663 26.4784 23.1119 26.5625C23.1575 26.6467 23.3483 26.6816 23.5382 26.6405Z" fill="black"/>
<path d="M12.1514 29.246C12.3413 29.2049 12.4582 29.1034 12.4126 29.0193C12.3669 28.9351 12.1761 28.9002 11.9863 28.9413C11.7965 28.9823 11.6796 29.0838 11.7252 29.168C11.7708 29.2521 11.9616 29.2871 12.1514 29.246Z" fill="black"/>
<path d="M10.1886 30.4647C10.3784 30.4237 10.4953 30.3222 10.4497 30.238C10.4041 30.1539 10.2132 30.119 10.0234 30.16C9.83357 30.2011 9.71666 30.3026 9.76227 30.3867C9.80789 30.4709 9.99874 30.5058 10.1886 30.4647Z" fill="black"/>
<path d="M8.80672 31.8139C8.99654 31.7728 9.11344 31.6713 9.06783 31.5871C9.02222 31.503 8.83137 31.4681 8.64155 31.5091C8.45173 31.5502 8.33483 31.6517 8.38044 31.7359C8.42605 31.82 8.6169 31.8549 8.80672 31.8139Z" fill="black"/>
<path d="M8.29403 33.2294C8.48384 33.1883 8.60075 33.0868 8.55513 33.0027C8.50952 32.9185 8.31867 32.8836 8.12885 32.9247C7.93903 32.9657 7.82213 33.0672 7.86774 33.1514C7.91335 33.2355 8.10421 33.2705 8.29403 33.2294Z" fill="black"/>
<path d="M8.81063 34.536C9.00044 34.495 9.11735 34.3935 9.07174 34.3093C9.02612 34.2252 8.83527 34.1902 8.64545 34.2313C8.45564 34.2724 8.33873 34.3739 8.38434 34.458C8.42996 34.5422 8.62081 34.5771 8.81063 34.536Z" fill="black"/>
<path d="M26.4493 26.5778C26.6391 26.5367 26.756 26.4352 26.7104 26.3511C26.6648 26.2669 26.4739 26.232 26.2841 26.2731C26.0943 26.3141 25.9774 26.4156 26.023 26.4998C26.0686 26.5839 26.2595 26.6188 26.4493 26.5778Z" fill="black"/>
<path d="M29.0968 26.8563C29.2866 26.8153 29.4035 26.7138 29.3579 26.6296C29.3123 26.5455 29.1214 26.5106 28.9316 26.5516C28.7418 26.5927 28.6249 26.6942 28.6705 26.7783C28.7161 26.8625 28.9069 26.8974 29.0968 26.8563Z" fill="black"/>
<path d="M31.0636 27.6508C31.2534 27.6097 31.3703 27.5082 31.3247 27.4241C31.2791 27.3399 31.0882 27.305 30.8984 27.3461C30.7086 27.3871 30.5917 27.4886 30.6373 27.5728C30.6829 27.6569 30.8737 27.6918 31.0636 27.6508Z" fill="black"/>
<path d="M32.4679 28.7086C32.6577 28.6676 32.7746 28.5661 32.729 28.4819C32.6834 28.3978 32.4925 28.3629 32.3027 28.4039C32.1129 28.445 31.996 28.5465 32.0416 28.6306C32.0872 28.7148 32.278 28.7497 32.4679 28.7086Z" fill="black"/>
<path d="M32.9571 29.9647C33.1469 29.9237 33.2638 29.8222 33.2182 29.738C33.1726 29.6539 32.9818 29.619 32.7919 29.66C32.6021 29.7011 32.4852 29.8026 32.5308 29.8867C32.5764 29.9709 32.7673 30.0058 32.9571 29.9647Z" fill="black"/>
<path d="M32.4298 31.3556C32.6196 31.3145 32.7365 31.213 32.6909 31.1289C32.6453 31.0447 32.4544 31.0098 32.2646 31.0509C32.0748 31.092 31.9579 31.1935 32.0035 31.2776C32.0491 31.3618 32.2399 31.3967 32.4298 31.3556Z" fill="black"/>
<path d="M31.0069 32.7421C31.1967 32.701 31.3136 32.5995 31.268 32.5154C31.2224 32.4312 31.0316 32.3963 30.8417 32.4374C30.6519 32.4784 30.535 32.5799 30.5806 32.6641C30.6262 32.7482 30.8171 32.7831 31.0069 32.7421Z" fill="black"/>
<path d="M29.1436 33.911C29.3335 33.87 29.4504 33.7685 29.4047 33.6843C29.3591 33.6002 29.1683 33.5652 28.9785 33.6063C28.7886 33.6474 28.6717 33.7489 28.7174 33.833C28.763 33.9172 28.9538 33.9521 29.1436 33.911Z" fill="black"/>
<path d="M26.3604 34.7968C26.5502 34.7557 26.6672 34.6542 26.6215 34.5701C26.5759 34.4859 26.3851 34.451 26.1953 34.4921C26.0054 34.5331 25.8885 34.6346 25.9341 34.7188C25.9798 34.8029 26.1706 34.8378 26.3604 34.7968Z" fill="black"/>
<path d="M23.3516 35.5043C23.5415 35.4632 23.6584 35.3617 23.6128 35.2776C23.5671 35.1934 23.3763 35.1585 23.1865 35.1996C22.9967 35.2406 22.8797 35.3421 22.9254 35.4263C22.971 35.5104 23.1618 35.5454 23.3516 35.5043Z" fill="black"/>
<path d="M20.461 36.0729C20.6508 36.0318 20.7677 35.9303 20.7221 35.8462C20.6765 35.762 20.4857 35.7271 20.2958 35.7682C20.106 35.8092 19.9891 35.9107 20.0347 35.9949C20.0803 36.079 20.2712 36.114 20.461 36.0729Z" fill="black"/>
<path d="M17.713 36.5543C17.9028 36.5133 18.0197 36.4118 17.9741 36.3276C17.9285 36.2435 17.7376 36.2086 17.5478 36.2496C17.358 36.2907 17.2411 36.3922 17.2867 36.4763C17.3323 36.5605 17.5232 36.5954 17.713 36.5543Z" fill="black"/>
<path d="M14.8595 36.6039C15.0493 36.5628 15.1662 36.4613 15.1206 36.3772C15.075 36.293 14.8841 36.2581 14.6943 36.2992C14.5045 36.3402 14.3876 36.4417 14.4332 36.5259C14.4788 36.61 14.6696 36.645 14.8595 36.6039Z" fill="black"/>
<path d="M12.085 36.3244C12.2749 36.2833 12.3918 36.1818 12.3461 36.0976C12.3005 36.0135 12.1097 35.9786 11.9199 36.0196C11.73 36.0607 11.6131 36.1622 11.6588 36.2464C11.7044 36.3305 11.8952 36.3654 12.085 36.3244Z" fill="black"/>
<path d="M10.0167 35.5807C10.2065 35.5396 10.3234 35.4381 10.2778 35.354C10.2322 35.2698 10.0413 35.2349 9.85151 35.276C9.66169 35.3171 9.54479 35.4186 9.5904 35.5027C9.63601 35.5868 9.82686 35.6218 10.0167 35.5807Z" fill="black"/>
<path d="M18.8979 28.9567C19.0277 28.9286 19.1077 28.8591 19.0765 28.8016C19.0453 28.744 18.9148 28.7201 18.7849 28.7482C18.6551 28.7763 18.5751 28.8457 18.6063 28.9033C18.6375 28.9609 18.7681 28.9847 18.8979 28.9567Z" fill="black"/>
<path d="M20.8569 28.5328C20.9867 28.5047 21.0667 28.4353 21.0355 28.3777C21.0043 28.3202 20.8737 28.2963 20.7439 28.3244C20.614 28.3525 20.5341 28.4219 20.5653 28.4795C20.5965 28.537 20.727 28.5609 20.8569 28.5328Z" fill="black"/>
<path d="M16.9389 29.3807C17.0688 29.3526 17.1487 29.2832 17.1175 29.2256C17.0863 29.1681 16.9558 29.1442 16.8259 29.1723C16.6961 29.2004 16.6161 29.2698 16.6473 29.3274C16.6785 29.3849 16.8091 29.4088 16.9389 29.3807Z" fill="black"/>
<path d="M22.8637 28.1957C22.9936 28.1676 23.0735 28.0981 23.0423 28.0406C23.0111 27.983 22.8806 27.9591 22.7507 27.9872C22.6209 28.0153 22.5409 28.0847 22.5721 28.1423C22.6033 28.1999 22.7339 28.2238 22.8637 28.1957Z" fill="black"/>
<path d="M15.0727 29.9781C15.2025 29.95 15.2825 29.8806 15.2513 29.8231C15.2201 29.7655 15.0896 29.7416 14.9597 29.7697C14.8299 29.7978 14.7499 29.8672 14.7811 29.9248C14.8123 29.9823 14.9429 30.0062 15.0727 29.9781Z" fill="black"/>
<path d="M13.7299 30.8119C13.8598 30.7838 13.9397 30.7144 13.9085 30.6568C13.8773 30.5992 13.7468 30.5753 13.6169 30.6034C13.4871 30.6315 13.4071 30.701 13.4383 30.7585C13.4695 30.8161 13.6001 30.84 13.7299 30.8119Z" fill="black"/>
<path d="M12.7856 31.7347C12.9154 31.7066 12.9954 31.6372 12.9642 31.5796C12.933 31.5221 12.8025 31.4982 12.6726 31.5263C12.5428 31.5544 12.4628 31.6238 12.494 31.6814C12.5252 31.7389 12.6557 31.7628 12.7856 31.7347Z" fill="black"/>
<path d="M12.435 32.703C12.5649 32.6749 12.6448 32.6055 12.6136 32.5479C12.5824 32.4903 12.4519 32.4665 12.322 32.4945C12.1922 32.5226 12.1122 32.5921 12.1434 32.6496C12.1746 32.7072 12.3052 32.7311 12.435 32.703Z" fill="black"/>
<path d="M12.7885 33.5963C12.9184 33.5682 12.9983 33.4988 12.9671 33.4412C12.9359 33.3837 12.8054 33.3598 12.6755 33.3879C12.5457 33.4159 12.4657 33.4854 12.4969 33.5429C12.5281 33.6005 12.6587 33.6244 12.7885 33.5963Z" fill="black"/>
<path d="M24.8549 28.1529C24.9848 28.1249 25.0647 28.0554 25.0335 27.9979C25.0023 27.9403 24.8718 27.9164 24.7419 27.9445C24.6121 27.9726 24.5321 28.042 24.5633 28.0996C24.5945 28.1571 24.7251 28.181 24.8549 28.1529Z" fill="black"/>
<path d="M26.6645 28.3441C26.7943 28.316 26.8743 28.2466 26.8431 28.189C26.8119 28.1315 26.6814 28.1076 26.5515 28.1357C26.4217 28.1638 26.3417 28.2332 26.3729 28.2907C26.4041 28.3483 26.5347 28.3722 26.6645 28.3441Z" fill="black"/>
<path d="M28.0102 28.8873C28.14 28.8592 28.22 28.7898 28.1888 28.7322C28.1576 28.6747 28.0271 28.6508 27.8972 28.6789C27.7674 28.707 27.6874 28.7764 27.7186 28.834C27.7498 28.8915 27.8804 28.9154 28.0102 28.8873Z" fill="black"/>
<path d="M28.9721 29.6107C29.102 29.5826 29.1819 29.5132 29.1507 29.4556C29.1195 29.3981 28.989 29.3742 28.8591 29.4023C28.7293 29.4304 28.6493 29.4998 28.6805 29.5573C28.7117 29.6149 28.8423 29.6388 28.9721 29.6107Z" fill="black"/>
<path d="M29.3061 30.4703C29.4359 30.4422 29.5159 30.3728 29.4847 30.3152C29.4535 30.2577 29.323 30.2338 29.1931 30.2619C29.0633 30.29 28.9833 30.3594 29.0145 30.417C29.0457 30.4745 29.1763 30.4984 29.3061 30.4703Z" fill="black"/>
<path d="M28.9457 31.4217C29.0756 31.3936 29.1556 31.3242 29.1244 31.2667C29.0932 31.2091 28.9626 31.1852 28.8328 31.2133C28.7029 31.2414 28.6229 31.3108 28.6541 31.3684C28.6853 31.4259 28.8159 31.4498 28.9457 31.4217Z" fill="black"/>
<path d="M27.9711 32.3695C28.101 32.3414 28.181 32.272 28.1498 32.2144C28.1185 32.1569 27.988 32.133 27.8582 32.1611C27.7283 32.1891 27.6483 32.2586 27.6795 32.3161C27.7107 32.3737 27.8413 32.3976 27.9711 32.3695Z" fill="black"/>
<path d="M26.6977 33.1683C26.8275 33.1402 26.9075 33.0708 26.8763 33.0132C26.8451 32.9557 26.7146 32.9318 26.5847 32.9599C26.4549 32.988 26.3749 33.0574 26.4061 33.115C26.4373 33.1725 26.5679 33.1964 26.6977 33.1683Z" fill="black"/>
<path d="M24.7934 33.7748C24.9232 33.7467 25.0032 33.6772 24.972 33.6197C24.9408 33.5621 24.8103 33.5382 24.6804 33.5663C24.5506 33.5944 24.4706 33.6638 24.5018 33.7214C24.533 33.779 24.6636 33.8029 24.7934 33.7748Z" fill="black"/>
<path d="M22.7563 34.2157C22.8861 34.1876 22.9661 34.1182 22.9349 34.0606C22.9037 34.003 22.7732 33.9792 22.6433 34.0072C22.5135 34.0353 22.4335 34.1048 22.4647 34.1623C22.4959 34.2199 22.6264 34.2438 22.7563 34.2157Z" fill="black"/>
<path d="M20.7573 34.6485C20.8871 34.6205 20.9671 34.551 20.9359 34.4935C20.9047 34.4359 20.7741 34.412 20.6443 34.4401C20.5144 34.4682 20.4345 34.5376 20.4657 34.5952C20.4969 34.6527 20.6274 34.6766 20.7573 34.6485Z" fill="black"/>
<path d="M18.8764 34.9776C19.0063 34.9496 19.0862 34.8801 19.055 34.8226C19.0238 34.765 18.8933 34.7411 18.7634 34.7692C18.6336 34.7973 18.5536 34.8667 18.5848 34.9243C18.616 34.9818 18.7466 35.0057 18.8764 34.9776Z" fill="black"/>
<path d="M16.9262 35.0113C17.0561 34.9832 17.136 34.9138 17.1048 34.8563C17.0736 34.7987 16.9431 34.7748 16.8132 34.8029C16.6834 34.831 16.6034 34.9004 16.6346 34.958C16.6658 35.0155 16.7964 35.0394 16.9262 35.0113Z" fill="black"/>
<path d="M15.0268 34.8202C15.1566 34.7921 15.2366 34.7227 15.2054 34.6651C15.1742 34.6075 15.0437 34.5836 14.9138 34.6117C14.784 34.6398 14.704 34.7093 14.7352 34.7668C14.7664 34.8244 14.897 34.8483 15.0268 34.8202Z" fill="black"/>
<path d="M13.6137 34.3116C13.7436 34.2835 13.8235 34.2141 13.7923 34.1565C13.7611 34.099 13.6306 34.0751 13.5007 34.1032C13.3709 34.1313 13.2909 34.2007 13.3221 34.2583C13.3533 34.3158 13.4839 34.3397 13.6137 34.3116Z" fill="black"/>
<path d="M20.458 32.1517L20.688 32.0409L20.6897 32.0375L20.3543 31.3413L20.1135 31.4574L20.3623 31.9739C20.358 32.0065 20.3453 32.0355 20.3262 32.065C20.3071 32.0946 20.2786 32.1185 20.2381 32.138C20.1921 32.1602 20.1482 32.1661 20.1129 32.1551C20.0776 32.1441 20.0482 32.1176 20.0283 32.0762L19.8023 31.6073L19.5615 31.7232L19.7924 32.2026C19.8272 32.2749 19.8741 32.3236 19.9382 32.3461C20.0024 32.3687 20.0756 32.3614 20.1568 32.3223C20.1974 32.3027 20.2296 32.2796 20.2571 32.2536C20.2846 32.2276 20.3074 32.1988 20.3237 32.1705C20.3402 32.1423 20.3528 32.1133 20.3618 32.0835C20.3708 32.0538 20.3771 32.0253 20.3806 31.9981L20.3844 31.9988L20.458 32.1517Z" fill="black"/>
<path d="M21.9474 30.5643L21.9879 30.5447L22.0248 30.6212L22.041 30.6133L22.0042 30.5369L22.0421 30.5186L22.0372 30.5083L21.9424 30.554L21.9474 30.5643Z" fill="black"/>
<path d="M22.1693 30.4724L22.1991 30.5343L22.2154 30.5265L22.1736 30.4397L22.16 30.4463L22.1439 30.5304L22.0654 30.4918L22.0518 30.4984L22.0936 30.5851L22.1098 30.5774L22.08 30.5154L22.1454 30.5474L22.1536 30.5435L22.1693 30.4724Z" fill="black"/>
<path d="M20.9169 31.1194C20.9333 31.0912 20.9562 31.0624 20.9799 31.0357L20.9806 31.0302C21.0045 31.0035 21.0268 30.9876 21.062 30.9707L21.1615 31.1773L21.1425 31.1864C21.1305 31.1821 21.1129 31.1803 21.0928 31.1799L21.0351 31.1847C21.0142 31.1897 20.9959 31.1934 20.9777 31.1971L20.969 31.2C20.9556 31.2044 20.9441 31.2082 20.9351 31.2126C20.9189 31.2203 20.9056 31.2344 20.8907 31.2517C20.8767 31.2712 20.8664 31.2915 20.8555 31.3171L21.1073 31.8397L20.8638 31.9571L20.5283 31.2609L20.7692 31.1448L20.8378 31.2874C20.8471 31.2652 20.8581 31.2395 20.8708 31.2105C20.8825 31.1793 20.8978 31.149 20.9169 31.1194Z" fill="black"/>
<path d="M19.5791 32.7685C19.6543 32.717 19.7433 32.6665 19.8407 32.6196L19.7312 32.3923C19.6284 32.4419 19.5407 32.502 19.469 32.5747C19.3973 32.6473 19.3405 32.7231 19.3005 32.806C19.2594 32.8869 19.2368 32.9716 19.2308 33.0559C19.2282 33.1335 19.2411 33.2088 19.2712 33.2783L19.2773 33.2907L19.3178 33.2711C19.2899 33.2133 19.2833 33.1579 19.2985 33.0997C19.3139 33.0414 19.3466 32.9849 19.3932 32.9294C19.4398 32.8739 19.5012 32.8214 19.5791 32.7685Z" fill="black"/>
<path fill-rule="evenodd" clip-rule="evenodd" d="M18.7653 32.9426C18.8439 32.9327 18.9266 32.9107 19.0044 32.8783L19.0006 32.8775C19.0288 32.8666 19.0747 32.8444 19.0747 32.8444C19.1631 32.7993 19.2436 32.7452 19.3119 32.6792C19.3845 32.6086 19.4414 32.5329 19.4851 32.4507C19.5299 32.3705 19.5525 32.2859 19.5612 32.2002C19.5689 32.1125 19.553 32.0311 19.5162 31.9546C19.4783 31.8761 19.4246 31.8129 19.3522 31.7664C19.2798 31.7198 19.1994 31.6847 19.1079 31.6677C19.0191 31.6494 18.9218 31.6479 18.8212 31.6607C18.7207 31.6735 18.6217 31.7034 18.527 31.749C18.4323 31.7947 18.3473 31.8535 18.2746 31.9241C18.202 31.9947 18.1424 32.0718 18.1014 32.1527C18.0576 32.2348 18.0351 32.3195 18.0263 32.4051C18.0186 32.4929 18.0345 32.5743 18.0713 32.6507C18.1091 32.7293 18.1629 32.7924 18.2353 32.839C18.3077 32.8856 18.3897 32.9174 18.4786 32.9356C18.5674 32.9539 18.6648 32.9553 18.7653 32.9426ZM19.2178 32.6915C19.1766 32.7444 19.1203 32.7868 19.0446 32.8233L19.0426 32.8192C18.9668 32.8556 18.8986 32.8733 18.8315 32.8724C18.7645 32.8717 18.7033 32.8554 18.6462 32.8269C18.5881 32.7963 18.5379 32.7543 18.4908 32.698C18.4438 32.6419 18.4028 32.5776 18.3669 32.5032C18.3311 32.4289 18.3064 32.3567 18.2918 32.2849C18.2771 32.213 18.2756 32.1476 18.2879 32.0831C18.3012 32.0207 18.3265 31.9627 18.3677 31.9097C18.4089 31.8569 18.4651 31.8145 18.5409 31.778C18.6167 31.7414 18.6849 31.7238 18.7519 31.7246C18.819 31.7255 18.8802 31.7417 18.9373 31.7703C18.9953 31.8008 19.0456 31.8428 19.0927 31.899C19.1398 31.9553 19.1817 32.0216 19.2176 32.096C19.2544 32.1724 19.2791 32.2444 19.2937 32.3164C19.3083 32.3882 19.3109 32.4557 19.2976 32.5181C19.2853 32.5825 19.2589 32.6386 19.2178 32.6915Z" fill="black"/>
<path fill-rule="evenodd" clip-rule="evenodd" d="M22.078 31.1965C22.1106 31.1604 22.1358 31.1228 22.1492 31.0884L22.1536 31.0837L22.1665 31.0826C22.1702 31.1597 22.1501 31.2355 22.1051 31.3081C22.0601 31.3808 21.9834 31.4432 21.8806 31.4926C21.813 31.5252 21.7495 31.5457 21.6864 31.5532C21.6233 31.5607 21.5653 31.558 21.5116 31.5432C21.4578 31.5284 21.4101 31.5055 21.3676 31.4726C21.325 31.4396 21.2912 31.3973 21.2674 31.3477C21.2395 31.29 21.2282 31.2317 21.2296 31.1725C21.2321 31.1153 21.2473 31.057 21.272 31.0044C21.2957 30.9498 21.3324 30.9015 21.3776 30.8568C21.4227 30.8122 21.4756 30.7765 21.5324 30.7492C21.5919 30.7205 21.6501 30.7027 21.7077 30.6978C21.7627 30.6943 21.8176 30.6906 21.8624 30.7073C21.988 30.7537 22.0245 30.8227 22.0245 30.8227L21.5652 31.2806C21.5983 31.3079 21.6312 31.3278 21.6692 31.3374C21.7109 31.3479 21.7523 31.3509 21.7979 31.3416C21.8435 31.3324 21.8897 31.3178 21.9357 31.2956C21.9952 31.2669 22.0427 31.2339 22.078 31.1965ZM21.4277 31.016C21.4308 31.0502 21.4403 31.0838 21.4535 31.1181L21.4674 31.1471C21.4903 31.1945 21.5137 31.2291 21.5441 31.2577L21.8164 30.9789L21.7945 30.9334C21.7607 30.8632 21.7141 30.794 21.6721 30.7761C21.6301 30.7581 21.5842 30.7598 21.5356 30.7833C21.5058 30.7976 21.4817 30.8169 21.4634 30.841C21.4449 30.8651 21.434 30.8908 21.4287 30.9214C21.4234 30.9519 21.4218 30.9832 21.4277 31.016Z" fill="black"/>
<path d="M11.9791 20.511L12.4552 10.4061C12.5258 9.45377 13.7038 7.34813 17.8516 6.54396C17.9045 6.43815 18.042 6.21594 18.1691 6.17362L19.4917 5.53876C19.5799 5.50349 19.7774 5.43295 19.862 5.43295C20.6204 5.38003 22.264 5.53876 22.7719 6.59687C24.553 6.93193 28.1047 8.311 28.0624 11.1468L28.2211 18.289M11.9791 20.511L4.25487 23.897C2.30795 25.0821 1.78595 26.5423 1.76831 27.1243L1.39798 31.1451C0.890086 34.7426 7.2176 36.8059 10.4448 37.3879C17.4284 38.4038 22.1723 37.7054 23.6712 37.2292C30.5701 35.6633 34.7638 34.143 35.9982 33.5787C39.2573 32.182 39.8251 29.7872 39.7016 28.7643L39.3313 24.5319C38.5271 20.3417 31.5894 18.624 28.2211 18.289M11.9791 20.511C12.9314 18.7476 16.9522 15.6926 25.2055 18.1475M11.9791 20.511C13.9895 19.4882 20.0525 17.6118 28.2211 18.289M1.39797 31.727C1.27452 30.8805 2.47724 28.7326 8.27569 26.9126L15.5766 24.3202C18.1691 23.6324 24.6976 22.6167 30.0729 24.0557C32.0303 24.5495 36.3686 25.8545 38.0615 27.1243C38.7846 27.812 39.9555 29.6425 38.8551 31.4625M5.04845 35.3776C4.25487 35.0071 2.74177 33.875 3.03804 32.309C3.33785 31.6742 4.48766 30.2351 6.68853 29.5579L15.2593 26.4365C17.8163 25.6958 24.4013 24.5319 30.2844 25.8016C32.7886 26.2425 37.8288 27.812 37.9557 30.5631C37.9028 31.4978 36.6225 33.6528 31.9245 34.7956C29.4555 35.501 24.4225 36.9223 24.0416 36.9647C22.7542 37.2645 19.3859 37.8324 16.2116 37.7054C14.0071 37.7054 8.68837 37.2398 5.04845 35.3776Z" stroke="black" stroke-width="0.63913"/>
<path d="M18.0332 0.85791V6.33617" stroke="black" stroke-width="0.63913"/>
<path d="M22.5986 0.85791V6.33617" stroke="black" stroke-width="0.63913"/>
<circle cx="34.1967" cy="34.4015" r="7.0551" fill="black"/>
<path d="M32.7533 35.0949L33.7285 36.6233H33.0218L32.3699 35.5989L31.7563 36.6233H31.1044L32.0795 35.1387L31.1044 33.6048H31.8111L32.463 34.6292L33.0765 33.6048H33.7285L32.7533 35.0949ZM34.207 32.6132C34.2362 32.1603 34.4091 31.8073 34.7256 31.5541C35.047 31.3009 35.4561 31.1742 35.9528 31.1742C36.2936 31.1742 36.5882 31.2351 36.8366 31.3569C37.0849 31.4786 37.2724 31.6442 37.399 31.8536C37.5256 32.0629 37.5889 32.2991 37.5889 32.5621C37.5889 32.864 37.5086 33.1221 37.3479 33.3363C37.1872 33.5506 36.9949 33.6942 36.7709 33.7673V33.7965C37.0582 33.8842 37.2822 34.0449 37.4429 34.2786C37.6035 34.5075 37.6839 34.8021 37.6839 35.1624C37.6839 35.4497 37.6182 35.7054 37.4867 35.9294C37.3552 36.1534 37.1604 36.3311 36.9023 36.4626C36.6442 36.5892 36.335 36.6525 35.9747 36.6525C35.4488 36.6525 35.0154 36.5186 34.6745 36.2508C34.3385 35.9781 34.1583 35.5885 34.134 35.0821H34.9375C34.9569 35.3402 35.0568 35.552 35.2369 35.7176C35.4171 35.8782 35.6606 35.9586 35.9674 35.9586C36.2644 35.9586 36.4933 35.8782 36.654 35.7176C36.8147 35.552 36.895 35.3402 36.895 35.0821C36.895 34.7412 36.7855 34.5002 36.5663 34.3589C36.3521 34.2129 36.0209 34.1398 35.5729 34.1398H35.383V33.4532H35.5802C35.9747 33.4483 36.2742 33.3826 36.4787 33.256C36.6881 33.1294 36.7928 32.9297 36.7928 32.657C36.7928 32.4233 36.7173 32.2382 36.5663 32.1019C36.4154 31.9607 36.2011 31.8901 35.9235 31.8901C35.6509 31.8901 35.439 31.9607 35.2881 32.1019C35.1371 32.2382 35.047 32.4087 35.0178 32.6132H34.207Z" fill="white"/>
</svg>
