<svg width="27" height="49" viewBox="0 0 27 49" fill="none" xmlns="http://www.w3.org/2000/svg">
<path d="M20.7965 46.7855C21.9854 49.0313 24.4954 47.1819 25.6844 44.5398V41.5013C24.9798 38.9472 23.0159 32.4917 20.7965 27.1018C18.0223 20.3644 9.56754 6.22918 9.56754 5.30444C9.56754 4.37971 5.7365 3.98339 4.15123 1.73761C2.56597 -0.508183 0.980709 4.77602 1.37702 10.3244C1.77334 15.8729 2.43387 16.2692 4.15123 20.8929C5.8686 25.5165 8.5107 27.6302 9.56754 32.2539C10.6244 36.8776 19.6075 44.5398 20.7965 46.7855Z" stroke="black" stroke-width="0.929811"/>
<path d="M20.8915 45.3266C21.8325 47.1098 23.8191 45.6413 24.7601 43.5433V41.1306C24.2025 39.1026 22.648 33.9767 20.8915 29.6969C18.6957 24.3472 12.324 13.0499 12.0041 12.3889C8.51115 5.17314 5.53848 4.9748 4.28379 3.19156C3.0291 1.40832 0.668017 9.82388 3.62312 15.7416C5.59639 19.6931 6.35795 21.0954 7.7172 24.7668C9.07645 28.4381 11.1676 30.1165 12.0041 33.7879C12.8405 37.4593 19.9504 43.5433 20.8915 45.3266Z" stroke="black" stroke-width="0.929811" stroke-dasharray="1.86 1.86"/>
<path d="M21.0605 43.2183C19.167 38.6827 14.8516 29.0037 12.7379 26.573C10.0958 23.5346 8.24633 22.8741 7.58581 19.5714C7.05739 16.9293 5.25195 10.1039 4.41528 7.02145" stroke="black" stroke-width="0.929811" stroke-dasharray="1.86 1.86"/>
<path d="M5.20724 5.17242C6.7497 9.8391 11.7395 16.1932 13.6618 18.7779C16.0648 22.0088 15.5113 25.2511 18.8139 29.8747C20.3801 32.0673 21.9636 38.2836 22.563 41.4209" stroke="black" stroke-width="0.929811" stroke-dasharray="1.86 1.86"/>
</svg>
