<svg xmlns="http://www.w3.org/2000/svg" width="48" height="49" viewBox="0 0 48 49" fill="none">
  <path d="M24 44.1968C35.0457 44.1968 44 35.2425 44 24.1968C44 13.1511 35.0457 4.19678 24 4.19678C12.9543 4.19678 4 13.1511 4 24.1968C4 35.2425 12.9543 44.1968 24 44.1968Z" stroke="black" stroke-miterlimit="2.61313" stroke-linecap="round" stroke-linejoin="round"/>
  <path d="M8.49707 11.5657C8.49707 11.5657 13.4664 15.2123 13.6553 17.5269C13.8443 19.8415 15.4503 20.2856 17.1697 20.4367C18.8891 20.5879 19.5788 20.4934 20.1362 21.6271C20.6936 22.7702 20.0795 23.5354 19.7394 24.1684C19.4087 24.8014 18.6246 26.8609 21.6478 27.3427L23.2727 29.9596L22.3563 31.7168C22.3563 31.7168 23.0082 32.4632 24.3213 33.4646C25.6251 34.4754 26.7966 36.3082 26.2014 36.979C25.6062 37.6498 20.4479 40.1155 18.7758 43.5071" stroke="black" stroke-miterlimit="2.61313" stroke-linecap="round" stroke-linejoin="round"/>
  <path d="M35.7343 40.3896C35.7343 40.3896 42.6403 22.1279 31.1807 12.0476" stroke="black" stroke-miterlimit="2.61313" stroke-linecap="round" stroke-linejoin="round"/>
  <path d="M17.085 5.42505C25.597 12.9262 27.2219 17.0547 28.2989 21.8067C29.6594 27.8152 31.3977 32.0949 37.3589 33.7954" stroke="black" stroke-miterlimit="2.61313" stroke-linecap="round" stroke-linejoin="round"/>
  <path d="M37.3584 33.7953C37.3584 33.7953 42.3844 31.783 43.6598 27.8435" stroke="black" stroke-miterlimit="2.61313" stroke-linecap="round" stroke-linejoin="round"/>
</svg>