<svg xmlns="http://www.w3.org/2000/svg" width="193" height="59" viewBox="0 0 193 59" fill="none">
<rect x="1" y="1" width="190.56" height="57.168" rx="8" fill="black" stroke="#D9D9D9"/>
<path d="M61.9387 21.2958V11.1885C62.7466 11.0665 63.7071 10.975 64.7589 10.975C66.6645 10.975 68.0213 11.4171 68.9208 12.2556C69.8355 13.0941 70.369 14.2832 70.369 15.9448C70.369 17.6218 69.8507 18.9938 68.8903 19.939C67.9299 20.8994 66.3444 21.4177 64.3473 21.4177C63.4022 21.4177 62.6094 21.372 61.9387 21.2958ZM63.265 12.1641V20.2744C63.6003 20.3353 64.0882 20.3506 64.6065 20.3506C67.442 20.3506 68.9818 18.7651 68.9818 15.9906C68.997 13.5666 67.625 12.0269 64.8199 12.0269C64.1339 12.0269 63.6156 12.0879 63.265 12.1641Z" fill="white"/>
<path d="M75.358 13.7801C77.477 13.7801 78.91 15.3198 78.91 17.576C78.91 20.3048 77.0197 21.4939 75.236 21.4939C73.2389 21.4939 71.6992 20.0304 71.6992 17.698C71.6992 15.2283 73.3152 13.7801 75.358 13.7801ZM75.3275 14.7862C73.742 14.7862 73.056 16.2497 73.056 17.6523C73.056 19.2682 73.9859 20.4878 75.297 20.4878C76.5776 20.4878 77.538 19.2834 77.538 17.6218C77.538 16.3717 76.9129 14.7862 75.3275 14.7862Z" fill="white"/>
<path d="M79.7839 13.9478H81.156L82.1316 17.698C82.3451 18.5212 82.5432 19.2834 82.6804 20.0457H82.7262C82.8939 19.2987 83.1378 18.506 83.3817 17.7132L84.586 13.9478H85.7142L86.8575 17.637C87.1319 18.5212 87.3454 19.2987 87.513 20.0457H87.5588C87.6807 19.2987 87.8789 18.5212 88.1228 17.6523L89.1747 13.9478H90.501L88.1228 21.3263H86.9033L85.7751 17.8047C85.516 16.9815 85.3025 16.2497 85.1196 15.3808H85.0891C84.9062 16.265 84.6775 17.0272 84.4184 17.8199L83.2293 21.3263H82.0097L79.7839 13.9478Z" fill="white"/>
<path d="M91.9746 21.3263V15.9448C91.9746 15.1826 91.9594 14.5576 91.9136 13.9478H93.1027L93.179 15.1674H93.2094C93.5753 14.4661 94.429 13.7801 95.6486 13.7801C96.67 13.7801 98.2555 14.3899 98.2555 16.9205V21.3263H96.9139V17.073C96.9139 15.8839 96.4718 14.8929 95.2065 14.8929C94.3223 14.8929 93.6363 15.518 93.4076 16.265C93.3466 16.4327 93.3162 16.6613 93.3162 16.89V21.3263H91.9746Z" fill="white"/>
<path d="M100.558 21.3263V10.5024H101.899V21.3263H100.558Z" fill="white"/>
<path d="M107.413 13.7801C109.532 13.7801 110.965 15.3198 110.965 17.576C110.965 20.3048 109.074 21.4939 107.291 21.4939C105.294 21.4939 103.754 20.0304 103.754 17.698C103.754 15.2283 105.37 13.7801 107.413 13.7801ZM107.382 14.7862C105.797 14.7862 105.111 16.2497 105.111 17.6523C105.111 19.2682 106.041 20.4878 107.352 20.4878C108.632 20.4878 109.593 19.2834 109.593 17.6218C109.593 16.3717 108.968 14.7862 107.382 14.7862Z" fill="white"/>
<path d="M118.087 21.3263H116.867L116.76 20.3963H116.715C116.303 20.9756 115.51 21.4939 114.458 21.4939C112.964 21.4939 112.202 20.4421 112.202 19.3749C112.202 17.5913 113.788 16.6156 116.638 16.6309V16.4784C116.638 15.8686 116.471 14.771 114.961 14.771C114.275 14.771 113.559 14.9844 113.041 15.3198L112.736 14.4356C113.345 14.0392 114.23 13.7801 115.16 13.7801C117.416 13.7801 117.965 15.3198 117.965 16.7985V19.5579C117.965 20.1981 117.995 20.8232 118.087 21.3263ZM116.669 18.8413V17.5608C115.205 17.5303 113.544 17.7895 113.544 19.2225C113.544 20.0914 114.123 20.503 114.809 20.503C115.769 20.503 116.379 19.8932 116.593 19.2682C116.638 19.131 116.669 18.9786 116.669 18.8413Z" fill="white"/>
<path d="M125.294 10.5024H126.635V19.4207C126.635 20.0762 126.65 20.8232 126.696 21.3263H125.492L125.431 20.0457H125.4C124.989 20.8689 124.089 21.4939 122.885 21.4939C121.101 21.4939 119.729 19.9847 119.729 17.7437C119.714 15.2893 121.239 13.7801 123.037 13.7801C124.166 13.7801 124.928 14.3136 125.263 14.9082H125.294V10.5024ZM125.294 18.2316V16.951C125.294 16.7833 125.278 16.5546 125.233 16.3869C125.034 15.5332 124.303 14.832 123.297 14.832C121.909 14.832 121.086 16.0515 121.086 17.6827C121.086 19.1767 121.818 20.4116 123.266 20.4116C124.166 20.4116 124.989 19.817 125.233 18.8109C125.278 18.6279 125.294 18.445 125.294 18.2316Z" fill="white"/>
<path d="M135.478 13.7801C137.597 13.7801 139.03 15.3198 139.03 17.576C139.03 20.3048 137.139 21.4939 135.356 21.4939C133.359 21.4939 131.819 20.0304 131.819 17.698C131.819 15.2283 133.435 13.7801 135.478 13.7801ZM135.447 14.7862C133.862 14.7862 133.176 16.2497 133.176 17.6523C133.176 19.2682 134.106 20.4878 135.417 20.4878C136.697 20.4878 137.658 19.2834 137.658 17.6218C137.658 16.3717 137.033 14.7862 135.447 14.7862Z" fill="white"/>
<path d="M140.846 21.3263V15.9448C140.846 15.1826 140.831 14.5576 140.785 13.9478H141.974L142.051 15.1674H142.081C142.447 14.4661 143.301 13.7801 144.52 13.7801C145.542 13.7801 147.127 14.3899 147.127 16.9205V21.3263H145.786V17.073C145.786 15.8839 145.344 14.8929 144.078 14.8929C143.194 14.8929 142.508 15.518 142.279 16.265C142.218 16.4327 142.188 16.6613 142.188 16.89V21.3263H140.846Z" fill="white"/>
<path d="M153.092 12.1794L154.403 11.8287V13.9478H156.324V14.9692H154.403V18.9481C154.403 19.8627 154.662 20.3811 155.409 20.3811C155.76 20.3811 156.019 20.3353 156.187 20.2896L156.248 21.2958C155.988 21.4025 155.577 21.4787 155.059 21.4787C154.434 21.4787 153.93 21.2805 153.61 20.9146C153.229 20.5183 153.092 19.8627 153.092 18.9938V14.9692H151.949V13.9478H153.092V12.1794Z" fill="white"/>
<path d="M157.961 21.3263V10.5024H159.303V15.1064H159.333C159.546 14.7253 159.882 14.3899 160.293 14.1612C160.69 13.9325 161.162 13.7801 161.665 13.7801C162.656 13.7801 164.242 14.3899 164.242 16.9357V21.3263H162.9V17.0882C162.9 15.8991 162.458 14.8929 161.193 14.8929C160.324 14.8929 159.638 15.5027 159.394 16.2345C159.318 16.4174 159.303 16.6156 159.303 16.8748V21.3263H157.961Z" fill="white"/>
<path d="M172.474 17.8809H167.291C167.322 19.6951 168.48 20.4421 169.822 20.4421C170.782 20.4421 171.361 20.2744 171.865 20.0609L172.093 21.0214C171.621 21.2348 170.813 21.4787 169.639 21.4787C167.367 21.4787 166.011 19.9847 166.011 17.759C166.011 15.5332 167.322 13.7801 169.471 13.7801C171.88 13.7801 172.52 15.8991 172.52 17.2559C172.52 17.5303 172.49 17.7437 172.474 17.8809ZM167.306 16.9205H171.224C171.24 16.0668 170.874 14.7405 169.364 14.7405C168.008 14.7405 167.413 15.9906 167.306 16.9205Z" fill="white"/>
<path d="M71.2883 39.5386H64.6086L62.6521 45.4638H60.1367L66.537 26.6263H69.4716L75.8999 45.4638H73.3006L71.2883 39.5386ZM65.1116 37.6381H70.7852L68.9406 32.216C68.5214 30.9863 68.2419 29.8683 67.9624 28.7783H67.9065C67.627 29.8963 67.3196 31.0422 66.9563 32.1881L65.1116 37.6381Z" fill="white"/>
<path d="M78.5096 50.9976V36.3525C78.5096 34.6196 78.4537 33.2222 78.3978 31.9366H80.6057L80.7175 34.2563H80.7734C81.7796 32.6073 83.3727 31.6291 85.5806 31.6291C88.8506 31.6291 91.3101 34.3961 91.3101 38.5045C91.3101 43.3676 88.3476 45.7712 85.1614 45.7712C83.3727 45.7712 81.8075 44.9886 80.997 43.6471H80.9411V50.9976H78.5096ZM80.9411 37.6381V39.9579C80.9411 40.3212 80.997 40.6566 81.0529 40.964C81.5001 42.6689 82.9814 43.8427 84.7422 43.8427C87.3414 43.8427 88.8506 41.7186 88.8506 38.6163C88.8506 35.9053 87.4253 33.5855 84.826 33.5855C83.1491 33.5855 81.584 34.7873 81.1088 36.632C81.025 36.9394 80.9411 37.3027 80.9411 37.6381Z" fill="white"/>
<path d="M94.4218 50.9976V36.3525C94.4218 34.6196 94.3659 33.2222 94.31 31.9366H96.518L96.6298 34.2563H96.6857C97.6918 32.6073 99.2849 31.6291 101.493 31.6291C104.763 31.6291 107.222 34.3961 107.222 38.5045C107.222 43.3676 104.26 45.7712 101.074 45.7712C99.2849 45.7712 97.7198 44.9886 96.9093 43.6471H96.8534V50.9976H94.4218ZM96.8534 37.6381V39.9579C96.8534 40.3212 96.9093 40.6566 96.9652 40.964C97.4124 42.6689 98.8936 43.8427 100.654 43.8427C103.254 43.8427 104.763 41.7186 104.763 38.6163C104.763 35.9053 103.338 33.5855 100.738 33.5855C99.0613 33.5855 97.4962 34.7873 97.0211 36.632C96.9372 36.9394 96.8534 37.3027 96.8534 37.6381Z" fill="white"/>
<path d="M115.39 44.5415L116.005 42.5012C117.095 43.172 118.688 43.731 120.365 43.731C122.853 43.731 124.306 42.4174 124.306 40.5168C124.306 38.7561 123.3 37.7499 120.757 36.7717C117.682 35.6817 115.782 34.0886 115.782 31.4335C115.782 28.4989 118.213 26.3188 121.875 26.3188C123.803 26.3188 125.2 26.766 126.039 27.2412L125.368 29.2255C124.753 28.8901 123.496 28.3312 121.791 28.3312C119.219 28.3312 118.241 29.8683 118.241 31.154C118.241 32.9148 119.387 33.7812 121.986 34.7873C125.173 36.0171 126.794 37.5543 126.794 40.3212C126.794 43.2279 124.641 45.7433 120.198 45.7433C118.381 45.7433 116.397 45.2122 115.39 44.5415Z" fill="white"/>
<path d="M130.517 28.6945L132.921 28.0517V31.9366H136.442V33.8091H132.921V41.1038C132.921 42.7807 133.396 43.731 134.765 43.731C135.408 43.731 135.883 43.6471 136.191 43.5633L136.303 45.4079C135.828 45.6035 135.073 45.7433 134.123 45.7433C132.977 45.7433 132.054 45.3799 131.468 44.7092C130.769 43.9825 130.517 42.7807 130.517 41.1876V33.8091H128.421V31.9366H130.517V28.6945Z" fill="white"/>
<path d="M144.777 31.6291C148.661 31.6291 151.289 34.4519 151.289 38.5884C151.289 43.5912 147.823 45.7712 144.553 45.7712C140.892 45.7712 138.069 43.0881 138.069 38.812C138.069 34.2843 141.031 31.6291 144.777 31.6291ZM144.721 33.4737C141.814 33.4737 140.556 36.1568 140.556 38.7281C140.556 41.6907 142.261 43.9266 144.665 43.9266C147.013 43.9266 148.773 41.7186 148.773 38.6722C148.773 36.3804 147.627 33.4737 144.721 33.4737Z" fill="white"/>
<path d="M154.386 45.4638V36.1568C154.386 34.5637 154.358 33.1943 154.274 31.9366H156.426L156.51 34.5917H156.622C157.237 32.775 158.718 31.6291 160.367 31.6291C160.647 31.6291 160.842 31.6571 161.066 31.713V34.0327C160.814 33.9768 160.563 33.9489 160.227 33.9489C158.495 33.9489 157.265 35.2625 156.93 37.1071C156.874 37.4425 156.818 37.8338 156.818 38.253V45.4638H154.386Z" fill="white"/>
<path d="M174.129 39.1473H164.626C164.682 42.4733 166.806 43.8427 169.266 43.8427C171.026 43.8427 172.088 43.5353 173.011 43.144L173.43 44.9048C172.564 45.2961 171.082 45.7433 168.93 45.7433C164.766 45.7433 162.278 43.0043 162.278 38.9238C162.278 34.8432 164.682 31.6291 168.623 31.6291C173.039 31.6291 174.213 35.514 174.213 38.0014C174.213 38.5045 174.157 38.8958 174.129 39.1473ZM164.654 37.3866H171.837C171.865 35.8214 171.194 33.3899 168.427 33.3899C165.94 33.3899 164.85 35.6817 164.654 37.3866Z" fill="white"/>
<path fill-rule="evenodd" clip-rule="evenodd" d="M50.5475 36.5066C49.7092 36.3146 48.2229 35.2496 47.6704 34.6341C47.5161 34.4623 47.3967 34.4194 47.245 34.2512C44.8233 31.5653 44.4138 27.3569 46.2855 24.4459C47.3725 22.7552 47.9889 22.5552 49.2691 21.6076C49.3045 21.5813 49.3603 21.5344 49.3951 21.5041L49.4734 21.4245C48.7999 20.332 47.1704 19.1076 45.95 18.585C41.6172 16.7297 39.2891 17.9661 35.629 19.1092C34.3602 19.5055 34.2554 19.5257 32.9725 19.1283C30.1268 18.247 28.4326 17.2146 25.2135 18.0705C22.1235 18.892 19.8241 21.0356 18.5376 23.9379C16.0988 29.4393 18.4332 36.7475 21.3238 41.1896C22.6677 43.2547 25.1196 46.4864 27.7639 46.719C30.6787 46.9754 32.7375 44.0496 37.7539 45.7175C39.9981 46.4636 41.772 47.3433 44.0359 45.939C46.1116 44.6515 48.1857 41.5675 49.3642 39.3439C49.7448 38.6258 50.3477 37.354 50.5475 36.5066ZM42.2701 8.62305C40.7486 8.6242 38.7389 9.5475 37.5722 10.3926C37.062 10.762 36.7915 11.0653 36.4072 11.4418C35.3567 12.471 34.492 14.0592 34.1814 15.5948C34.1116 15.94 33.9017 17.3505 34.1267 17.5737C34.3428 17.7879 35.6886 17.546 36.0202 17.4587C36.579 17.3116 37.1147 17.1 37.5609 16.8463C39.3788 15.8123 40.8382 14.233 41.6815 12.3503C42.1753 11.2479 42.3482 9.97831 42.2701 8.62305Z" fill="white"/>
</svg>