<svg xmlns="http://www.w3.org/2000/svg" width="192" height="59" viewBox="0 0 192 59" fill="none">
  <rect x="0.559998" y="1" width="190.56" height="57.168" rx="8" fill="black" stroke="#D9D9D9"/>
  <path d="M63.8026 14.7688H67.4004C67.4004 14.8308 67.4024 14.9177 67.4066 15.0293C67.419 15.3229 67.4252 15.5214 67.4252 15.6248C67.4252 16.9027 67.0592 17.8952 66.3272 18.6023C65.5953 19.3095 64.5635 19.6631 63.2319 19.6631C62.4875 19.6631 61.8238 19.5535 61.2407 19.3343C60.6576 19.1151 60.1469 18.7843 59.7085 18.3418C59.2784 17.9034 58.9476 17.3886 58.716 16.7972C58.4886 16.2059 58.3748 15.5731 58.3748 14.8991C58.3748 14.2126 58.4906 13.5799 58.7222 13.0009C58.9579 12.4219 59.3053 11.9112 59.7643 11.4687C60.2068 11.0345 60.7258 10.7037 61.3213 10.4762C61.9168 10.2488 62.5537 10.1351 63.2319 10.1351C63.9473 10.1351 64.5862 10.2653 65.1486 10.5259C65.7152 10.7864 66.2197 11.1855 66.6622 11.7231L65.5829 12.5357C65.2768 12.18 64.9315 11.9154 64.5469 11.7417C64.1623 11.568 63.7323 11.4811 63.2567 11.4811C62.2725 11.4811 61.4681 11.7975 60.8437 12.4302C60.2234 13.0588 59.9132 13.8776 59.9132 14.8867C59.9132 15.9122 60.2234 16.7455 60.8437 17.3865C61.4681 18.0234 62.2766 18.3418 63.2691 18.3418C64.1127 18.3418 64.7765 18.1454 65.2603 17.7525C65.7441 17.3596 65.9861 16.8241 65.9861 16.1459V16.0156H63.8026V14.7688Z" fill="white"/>
  <path d="M68.6011 19.4211V10.3398H73.669V11.5928H70.0774V13.8693H73.669V15.1658H70.0774V18.0999H73.669V19.4211H68.6011Z" fill="white"/>
  <path d="M77.9154 11.5928V19.4211H76.4391V11.5928H74.0261V10.3398H80.316V11.5928H77.9154Z" fill="white"/>
  <path d="M84.5411 19.4211V10.3398H86.0174V19.4211H84.5411Z" fill="white"/>
  <path d="M90.6919 11.5928V19.4211H89.2155V11.5928H86.8025V10.3398H93.0925V11.5928H90.6919Z" fill="white"/>
  <path d="M105.065 14.8991C105.065 14.44 104.98 14.0037 104.811 13.5902C104.646 13.1767 104.406 12.8086 104.091 12.486C103.785 12.1676 103.43 11.9236 103.024 11.7541C102.623 11.5804 102.199 11.4935 101.753 11.4935C101.306 11.4935 100.88 11.5783 100.475 11.7479C100.074 11.9174 99.7161 12.1635 99.4018 12.486C99.0875 12.8045 98.8477 13.1705 98.6822 13.584C98.5168 13.9975 98.4341 14.4359 98.4341 14.8991C98.4341 15.3581 98.5168 15.7923 98.6822 16.2017C98.8477 16.6111 99.0875 16.9771 99.4018 17.2997C99.7161 17.6222 100.074 17.8683 100.475 18.0378C100.876 18.2074 101.302 18.2922 101.753 18.2922C102.195 18.2922 102.615 18.2074 103.012 18.0378C103.413 17.8683 103.773 17.6222 104.091 17.2997C104.406 16.9771 104.646 16.6111 104.811 16.2017C104.98 15.7882 105.065 15.354 105.065 14.8991ZM106.604 14.8991C106.604 15.5442 106.482 16.1542 106.238 16.729C105.998 17.3038 105.646 17.8166 105.183 18.2674C104.716 18.7181 104.189 19.0634 103.601 19.3033C103.014 19.5431 102.398 19.6631 101.753 19.6631C101.099 19.6631 100.475 19.5431 99.8794 19.3033C99.2881 19.0593 98.7649 18.714 98.3101 18.2674C97.8469 17.8166 97.4954 17.3059 97.2555 16.7352C97.0157 16.1645 96.8957 15.5525 96.8957 14.8991C96.8957 14.2498 97.0157 13.6378 97.2555 13.0629C97.4954 12.4881 97.8469 11.9733 98.3101 11.5184C98.7732 11.0676 99.2984 10.7244 99.8857 10.4886C100.473 10.2529 101.095 10.1351 101.753 10.1351C102.406 10.1351 103.024 10.2529 103.608 10.4886C104.195 10.7244 104.72 11.0676 105.183 11.5184C105.646 11.9774 105.998 12.4964 106.238 13.0753C106.482 13.6502 106.604 14.2581 106.604 14.8991Z" fill="white"/>
  <path d="M107.916 19.4211V9.97998L113.685 15.5318C113.842 15.6889 114.001 15.8564 114.163 16.0342C114.324 16.2121 114.493 16.4126 114.671 16.6359V10.3398H116.036V19.7747L110.149 14.1237C109.992 13.9707 109.839 13.8094 109.69 13.6398C109.545 13.4703 109.407 13.2924 109.274 13.1064V19.4211H107.916Z" fill="white"/>
  <path d="M69.2651 36.6241H76.1009C76.1009 36.7419 76.1048 36.9069 76.1127 37.1191C76.1363 37.6769 76.148 38.0541 76.148 38.2505C76.148 40.6784 75.4527 42.5642 74.0619 43.9078C72.6712 45.2514 70.7108 45.9232 68.1808 45.9232C66.7664 45.9232 65.5053 45.715 64.3975 45.2985C63.2896 44.8821 62.3192 44.2535 61.4863 43.4128C60.6692 42.5799 60.0406 41.6017 59.6006 40.4781C59.1684 39.3545 58.9524 38.1523 58.9524 36.8716C58.9524 35.5673 59.1724 34.3651 59.6124 33.2651C60.0602 32.1651 60.7203 31.1947 61.5924 30.3539C62.4331 29.5289 63.4192 28.9003 64.5507 28.4682C65.6821 28.036 66.8922 27.82 68.1808 27.82C69.5401 27.82 70.754 28.0675 71.8226 28.5625C72.8991 29.0575 73.8576 29.8157 74.6984 30.8372L72.6476 32.3811C72.0662 31.7054 71.4101 31.2025 70.6794 30.8725C69.9486 30.5425 69.1315 30.3775 68.2279 30.3775C66.3579 30.3775 64.8296 30.9786 63.6432 32.1808C62.4646 33.3751 61.8753 34.9308 61.8753 36.848C61.8753 38.7966 62.4646 40.3799 63.6432 41.5977C64.8296 42.8078 66.3657 43.4128 68.2515 43.4128C69.8544 43.4128 71.1155 43.0395 72.0348 42.2931C72.9541 41.5467 73.4137 40.5291 73.4137 39.2405V38.993H69.2651V36.6241Z" fill="white"/>
  <path d="M86.4043 39.9123C86.4043 38.8752 86.0704 37.9991 85.4025 37.2841C84.7346 36.5612 83.9175 36.1998 82.951 36.1998C81.9924 36.1998 81.1753 36.5612 80.4995 37.2841C79.8317 37.9991 79.4977 38.8752 79.4977 39.9123C79.4977 40.9495 79.8317 41.8295 80.4995 42.5524C81.1753 43.2674 81.9924 43.6249 82.951 43.6249C83.9096 43.6249 84.7228 43.2674 85.3907 42.5524C86.0664 41.8295 86.4043 40.9495 86.4043 39.9123ZM76.7988 39.8888C76.7988 39.0716 76.952 38.3016 77.2584 37.5787C77.5727 36.848 78.0206 36.1998 78.602 35.634C79.1756 35.0762 79.8356 34.648 80.582 34.3494C81.3285 34.0508 82.1103 33.9015 82.9274 33.9015C83.7682 33.9015 84.5578 34.0508 85.2964 34.3494C86.0429 34.648 86.7107 35.088 87.3 35.6694C87.8893 36.243 88.3372 36.8912 88.6436 37.6141C88.9501 38.337 89.1033 39.0952 89.1033 39.8888C89.1033 40.7138 88.9501 41.4877 88.6436 42.2106C88.345 42.9335 87.905 43.5738 87.3236 44.1317C86.7107 44.721 86.0311 45.1649 85.2846 45.4635C84.5382 45.77 83.7525 45.9232 82.9274 45.9232C82.1181 45.9232 81.3403 45.77 80.5938 45.4635C79.8474 45.1649 79.1834 44.7289 78.602 44.1553C78.0127 43.5738 77.5648 42.9217 77.2584 42.1988C76.952 41.4759 76.7988 40.7059 76.7988 39.8888Z" fill="white"/>
  <path d="M99.3242 39.9123C99.3242 38.8752 98.9902 37.9991 98.3224 37.2841C97.6545 36.5612 96.8373 36.1998 95.8709 36.1998C94.9123 36.1998 94.0951 36.5612 93.4194 37.2841C92.7515 37.9991 92.4176 38.8752 92.4176 39.9123C92.4176 40.9495 92.7515 41.8295 93.4194 42.5524C94.0951 43.2674 94.9123 43.6249 95.8709 43.6249C96.8295 43.6249 97.6427 43.2674 98.3106 42.5524C98.9863 41.8295 99.3242 40.9495 99.3242 39.9123ZM89.7186 39.8888C89.7186 39.0716 89.8718 38.3016 90.1783 37.5787C90.4926 36.848 90.9404 36.1998 91.5219 35.634C92.0955 35.0762 92.7555 34.648 93.5019 34.3494C94.2484 34.0508 95.0302 33.9015 95.8473 33.9015C96.688 33.9015 97.4777 34.0508 98.2163 34.3494C98.9627 34.648 99.6306 35.088 100.22 35.6694C100.809 36.243 101.257 36.8912 101.563 37.6141C101.87 38.337 102.023 39.0952 102.023 39.8888C102.023 40.7138 101.87 41.4877 101.563 42.2106C101.265 42.9335 100.825 43.5738 100.243 44.1317C99.6306 44.721 98.9509 45.1649 98.2045 45.4635C97.4581 45.77 96.6723 45.9232 95.8473 45.9232C95.038 45.9232 94.2601 45.77 93.5137 45.4635C92.7673 45.1649 92.1033 44.7289 91.5219 44.1553C90.9326 43.5738 90.4847 42.9217 90.1783 42.1988C89.8718 41.4759 89.7186 40.7059 89.7186 39.8888Z" fill="white"/>
  <path d="M111.49 39.8416C111.49 38.6866 111.219 37.7869 110.677 37.1426C110.142 36.4983 109.392 36.1762 108.425 36.1762C107.459 36.1762 106.697 36.5101 106.139 37.178C105.589 37.838 105.314 38.7573 105.314 39.9359C105.314 41.1224 105.581 42.0377 106.115 42.682C106.65 43.3263 107.404 43.6485 108.378 43.6485C109.298 43.6485 110.044 43.2988 110.618 42.5995C111.199 41.9002 111.49 40.9809 111.49 39.8416ZM113.977 44.7682C113.977 46.9525 113.54 48.4886 112.668 49.3765C111.796 50.2722 110.327 50.72 108.26 50.72C106.72 50.72 105.491 50.394 104.571 49.7418C103.652 49.0975 103.185 48.2371 103.169 47.1607L105.915 47.1489C105.954 47.6282 106.178 47.9936 106.587 48.245C106.995 48.4964 107.569 48.6222 108.308 48.6222C109.4 48.6222 110.185 48.3825 110.665 47.9032C111.144 47.4239 111.388 46.6225 111.395 45.4989L111.419 44.0138C110.963 44.6581 110.429 45.1374 109.816 45.4517C109.211 45.766 108.516 45.9232 107.73 45.9232C106.151 45.9232 104.905 45.3849 103.994 44.3085C103.09 43.2242 102.639 41.7431 102.639 39.8652C102.639 38.0816 103.102 36.6437 104.029 35.5515C104.956 34.4515 106.166 33.9015 107.659 33.9015C108.571 33.9015 109.349 34.094 109.993 34.479C110.645 34.8562 111.12 35.4023 111.419 36.1173V34.2904H113.977V44.7682Z" fill="white"/>
  <path d="M116.36 45.4635V27.1953H118.917V45.4635H116.36Z" fill="white"/>
  <path d="M132.073 40.2541H123.139C123.202 41.2992 123.512 42.1163 124.07 42.7056C124.628 43.2871 125.371 43.5778 126.298 43.5778C127.123 43.5778 127.81 43.4049 128.36 43.0592C128.91 42.7135 129.39 42.1556 129.798 41.3856L131.955 42.5878C131.327 43.7113 130.549 44.5481 129.621 45.0982C128.694 45.6482 127.606 45.9232 126.357 45.9232C124.565 45.9232 123.139 45.3771 122.078 44.2849C121.018 43.1928 120.487 41.7352 120.487 39.9123C120.487 38.1602 121.033 36.7223 122.126 35.5987C123.226 34.4672 124.636 33.9015 126.357 33.9015C128.156 33.9015 129.559 34.4162 130.564 35.4455C131.57 36.4748 132.073 37.9166 132.073 39.7709V40.2541ZM129.421 38.5334C129.319 37.7319 129.013 37.123 128.502 36.7066C127.991 36.2823 127.292 36.0701 126.404 36.0701C125.563 36.0701 124.887 36.2744 124.377 36.683C123.866 37.0916 123.508 37.7084 123.304 38.5334H129.421Z" fill="white"/>
  <path d="M151.977 33.0644C151.977 33.9622 151.766 34.8091 151.342 35.6052C150.919 36.4013 150.241 37.0535 149.309 37.5616C148.378 38.0529 147.184 38.2985 145.727 38.2985H142.525V45.4635H139.629V27.805H145.727C147.082 27.805 148.225 28.0421 149.157 28.5164C150.106 28.9737 150.809 29.6005 151.266 30.3966C151.74 31.1927 151.977 32.082 151.977 33.0644ZM145.727 35.9355C146.828 35.9355 147.649 35.6899 148.191 35.1987C148.734 34.6905 149.005 33.9791 149.005 33.0644C149.005 31.1334 147.912 30.1679 145.727 30.1679H142.525V35.9355H145.727Z" fill="white"/>
  <path d="M153.35 45.4635V28.1568H155.773V45.4635H153.35Z" fill="white"/>
  <path d="M168.581 45.4635H166.024V44.0138C165.568 44.6581 165.034 45.1374 164.421 45.4517C163.816 45.766 163.121 45.9232 162.335 45.9232C160.756 45.9232 159.51 45.3849 158.599 44.3085C157.695 43.2242 157.243 41.7431 157.243 39.8652C157.243 38.0816 157.707 36.6437 158.634 35.5515C159.561 34.4515 160.771 33.9015 162.264 33.9015C163.176 33.9015 163.954 34.094 164.598 34.479C165.25 34.8562 165.725 35.4023 166.024 36.1173V34.2904H168.581V45.4635ZM166.095 39.8416C166.095 38.6866 165.824 37.7869 165.281 37.1426C164.747 36.4983 163.997 36.1762 163.03 36.1762C162.064 36.1762 161.302 36.5101 160.744 37.178C160.194 37.838 159.919 38.7573 159.919 39.9359C159.919 41.1224 160.186 42.0377 160.72 42.682C161.255 43.3263 162.009 43.6485 162.983 43.6485C163.902 43.6485 164.649 43.2988 165.222 42.5995C165.804 41.9002 166.095 40.9809 166.095 39.8416Z" fill="white"/>
  <path d="M172.768 50.72H170.14L173.204 44.4971L169.103 34.2904H171.931L173.982 40.0773C174.1 40.4309 174.202 40.7924 174.288 41.1617C174.383 41.5231 174.457 41.8924 174.512 42.2695C174.614 41.8767 174.858 41.252 175.243 40.3956L175.302 40.2541L178.06 34.2904H180.83L172.768 50.72Z" fill="white"/>
  <mask id="mask0_21306_1135" style="mask-type:alpha" maskUnits="userSpaceOnUse" x="14" y="12" width="32" height="35">
    <path d="M14.5311 16.6798C14.5311 13.6326 17.8024 11.7044 20.4684 13.1803L43.7805 26.0852C46.5308 27.6077 46.5308 31.5618 43.7805 33.0843L20.4684 45.9893C17.8024 47.4651 14.5311 45.5369 14.5311 42.4897V16.6798Z" fill="#D9D9D9"/>
  </mask>
  <g mask="url(#mask0_21306_1135)">
    <path d="M14.5311 16.6798C14.5311 13.6326 17.8024 11.7044 20.4684 13.1803L43.7805 26.0852C46.5308 27.6077 46.5308 31.5618 43.7805 33.0843L20.4684 45.9893C17.8024 47.4651 14.5311 45.5369 14.5311 42.4897V16.6798Z" fill="#FF5455"/>
    <path d="M39.3026 35.9371L13.8946 9.89385C17.4517 6.84489 28.0807 12.8581 32.9506 16.2458L48.8306 25.7738L51.3714 32.761L39.3026 35.9371Z" fill="#FFDB00"/>
    <path d="M32.3154 30.2203L13.8946 9.89385C17.4517 6.84489 28.0807 12.8581 32.9506 16.2458L38.0322 14.9755L40.573 21.9627L32.3154 30.2203Z" fill="#00EE89"/>
    <path d="M32.9504 29.5848L12.624 49.9112V17.516L13.8944 9.89355L32.9504 29.5848Z" fill="#00DCFF"/>
  </g>
</svg>