<svg xmlns="http://www.w3.org/2000/svg" width="11" height="10" viewBox="0 0 11 10" fill="none">
  <path d="M6.50521 9.75L10.6719 5.58333C11.0052 5.25 11.0052 4.75 10.6719 4.41667C10.3385 4.08333 9.83854 4.08333 9.50521 4.41667L6.75521 7.16667L6.75521 0.833333C6.75521 0.333333 6.42188 -1.96701e-07 5.92188 -2.18557e-07C5.42188 -2.40413e-07 5.08854 0.333333 5.08854 0.833333L5.08854 7.16667L2.33854 4.41667C2.00521 4.08333 1.50521 4.08333 1.17187 4.41667C0.838542 4.75 0.838542 5.25 1.17187 5.58333L5.33854 9.75C5.58854 10.0833 6.17188 10.0833 6.50521 9.75Z" fill="white"/>
</svg>