<svg width="14" height="17" viewBox="0 0 14 17" fill="none" xmlns="http://www.w3.org/2000/svg">
<g id="arrow">
<path id="Vector" fill-rule="evenodd" clip-rule="evenodd" d="M12.3538 7.90914C12.4474 8.00289 12.5 8.12997 12.5 8.26247C12.5 8.39497 12.4474 8.52206 12.3538 8.61581L8.35377 12.6158C8.308 12.6649 8.2528 12.7043 8.19146 12.7317C8.13013 12.759 8.06392 12.7737 7.99679 12.7749C7.92965 12.7761 7.86297 12.7637 7.80071 12.7386C7.73845 12.7134 7.68189 12.676 7.63441 12.6285C7.58694 12.581 7.5495 12.5245 7.52436 12.4622C7.49921 12.3999 7.48686 12.3333 7.48804 12.2661C7.48923 12.199 7.50392 12.1328 7.53125 12.0714C7.55858 12.0101 7.59798 11.9549 7.64711 11.9091L10.7938 8.76247L2.33377 8.76247C2.20116 8.76247 2.07399 8.70979 1.98022 8.61603C1.88645 8.52226 1.83377 8.39508 1.83377 8.26247C1.83377 8.12986 1.88645 8.00269 1.98022 7.90892C2.07399 7.81515 2.20116 7.76247 2.33377 7.76247L10.7938 7.76247L7.64711 4.61581C7.59798 4.57003 7.55858 4.51483 7.53125 4.4535C7.50392 4.39216 7.48923 4.32596 7.48805 4.25882C7.48686 4.19169 7.49921 4.125 7.52436 4.06274C7.54951 4.00048 7.58694 3.94393 7.63441 3.89645C7.68189 3.84897 7.73845 3.81154 7.80071 3.78639C7.86297 3.76124 7.92965 3.74889 7.99679 3.75008C8.06392 3.75126 8.13013 3.76596 8.19147 3.79328C8.2528 3.82061 8.308 3.86001 8.35377 3.90914L12.3538 7.90914Z" fill="white"/>
</g>
</svg>
