<svg xmlns="http://www.w3.org/2000/svg" width="35" height="35" viewBox="0 0 35 35" fill="none">
<g opacity="0.8">
<path d="M23.9986 17.424C23.9986 21.3902 23.2321 24.9565 22.0149 27.5126C20.78 30.1059 19.1717 31.4954 17.5599 31.4954C15.9481 31.4954 14.3398 30.1059 13.1048 27.5126C11.8877 24.9565 11.1211 21.3902 11.1211 17.424C11.1211 13.4577 11.8877 9.89141 13.1048 7.33538C14.3398 4.74205 15.9481 3.35254 17.5599 3.35254C19.1717 3.35254 20.78 4.74205 22.0149 7.33538C23.2321 9.89141 23.9986 13.4577 23.9986 17.424Z" stroke="black"/>
<path d="M14.3404 22.9998C10.9055 21.0166 8.20035 18.5696 6.59534 16.2375C4.96691 13.8714 4.56771 11.7838 5.37361 10.3879C6.17951 8.99207 8.18702 8.29398 11.0504 8.52118C13.8725 8.7451 17.3443 9.86435 20.7792 11.8475C24.2141 13.8306 26.9193 16.2777 28.5243 18.6098C30.1527 20.9759 30.5519 23.0635 29.746 24.4594C28.9401 25.8552 26.9326 26.5533 24.0693 26.3261C21.2471 26.1022 17.7753 24.9829 14.3404 22.9998Z" stroke="black"/>
<path d="M14.3406 11.8482C17.7755 9.86509 21.2473 8.74584 24.0695 8.52191C26.9328 8.29472 28.9403 8.9928 29.7462 10.3887C30.5521 11.7845 30.1529 13.8721 28.5245 16.2382C26.9195 18.5704 24.2143 21.0174 20.7794 23.0005C17.3445 24.9837 13.8727 26.1029 11.0505 26.3268C8.18719 26.554 6.17968 25.8559 5.37378 24.4601C4.56789 23.0642 4.96708 20.9766 6.59551 18.6105C8.20052 16.2784 10.9057 13.8314 14.3406 11.8482Z" stroke="black"/>
</g>
</svg>