<svg width="45" height="45" viewBox="0 0 45 45" fill="none" xmlns="http://www.w3.org/2000/svg">
<g clip-path="url(#clip0_26788_3823)">
<path d="M44.72 22.5C44.72 34.7718 34.7718 44.72 22.5 44.72C10.2282 44.72 0.28 34.7718 0.28 22.5C0.28 10.2282 10.2282 0.28 22.5 0.28C34.7718 0.28 44.72 10.2282 44.72 22.5Z" stroke="black" stroke-width="0.56"/>
<path d="M31.4142 18.0488L38.8556 20.6418" stroke="black" stroke-width="0.56"/>
<path d="M36.4298 15.6245L33.8368 23.0659" stroke="black" stroke-width="0.56"/>
<path d="M31.5931 21.062L38.6885 17.6337" stroke="black" stroke-width="0.56"/>
<path d="M33.427 15.7988L36.8553 22.8942" stroke="black" stroke-width="0.56"/>
<path d="M32.2828 16.5703L37.988 22.0062" stroke="black" stroke-width="0.56"/>
<path d="M37.8533 16.4365L32.4174 22.1417" stroke="black" stroke-width="0.56"/>
<path d="M31.202 19.3892L39.08 19.1988" stroke="black" stroke-width="0.56"/>
<path d="M35.0444 15.355L35.2348 23.2329" stroke="black" stroke-width="0.56"/>
<circle cx="20.1814" cy="32.8972" r="2.49568" transform="rotate(19.2113 20.1814 32.8972)" fill="black"/>
<circle cx="19.3625" cy="15.7888" r="2.49568" transform="rotate(19.2113 19.3625 15.7888)" fill="black"/>
<circle cx="24.5167" cy="23.7509" r="1.66379" transform="rotate(19.2113 24.5167 23.7509)" fill="black"/>
<path d="M8.95068 21.7969L18.8996 25.2637" stroke="black" stroke-width="0.56"/>
<path d="M15.6573 18.5552L12.1906 28.5041" stroke="black" stroke-width="0.56"/>
<path d="M9.19336 25.8237L18.6797 21.2401" stroke="black" stroke-width="0.56"/>
<path d="M11.6458 18.7871L16.2293 28.2735" stroke="black" stroke-width="0.56"/>
<path d="M10.1091 19.8179L17.7368 27.0855" stroke="black" stroke-width="0.56"/>
<path d="M17.5555 19.6377L10.2879 27.2654" stroke="black" stroke-width="0.56"/>
<path d="M8.67102 23.5879L19.2036 23.3333" stroke="black" stroke-width="0.56"/>
<path d="M13.8099 18.1943L14.0645 28.7269" stroke="black" stroke-width="0.56"/>
<circle cx="13.9355" cy="23.4597" r="2.96972" transform="rotate(19.2113 13.9355 23.4597)" fill="white" stroke="black" stroke-width="0.56"/>
<path d="M37.6555 7.92725L7.92822 37.6545" stroke="black" stroke-width="0.56"/>
</g>
<defs>
<clipPath id="clip0_26788_3823">
<rect width="45" height="45" fill="white"/>
</clipPath>
</defs>
</svg>
