<svg width="73" height="73" viewBox="0 0 73 73" fill="none" xmlns="http://www.w3.org/2000/svg">
<circle cx="36.5" cy="36.6703" r="35.5" stroke="#C7E7DC"/>
<g clip-path="url(#clip0_28564_3423)">
<path d="M33.2751 42.2894L33.2752 42.2894C33.2939 41.9726 33.2436 41.6555 33.1278 41.3601C33.0195 41.0839 32.8564 40.8327 32.6486 40.6216C31.6794 40.9722 30.656 41.1496 29.625 41.1453L33.2751 42.2894ZM33.2751 42.2894L33.275 42.2926M33.2751 42.2894L33.275 42.2926M33.275 42.2926C33.2486 43.2604 32.8803 44.1876 32.2354 44.9098C32.1351 45.0108 32.0668 45.1392 32.0391 45.2789C32.0111 45.4195 32.0255 45.5653 32.0803 45.6977C32.1352 45.8302 32.2281 45.9434 32.3473 46.0231C32.4665 46.1027 32.6066 46.1453 32.75 46.1453H32.75C32.9423 46.1452 33.1267 46.0688 33.2626 45.9329L33.2627 45.9329L33.2653 45.93C34.1802 44.9395 34.6995 43.6476 34.7249 42.2995C34.7657 41.6744 34.6342 41.05 34.3447 40.4944C34.0549 39.9381 33.6178 39.4721 33.0812 39.1472L33.0813 39.147L33.0741 39.1433C32.9734 39.093 32.8625 39.0669 32.75 39.0669C32.6385 39.0669 32.5285 39.0926 32.4286 39.142C31.5439 39.5214 30.5891 39.7099 29.6265 39.6953H29.625C29.0644 39.6953 28.7803 39.5647 28.6367 39.4406C28.4994 39.322 28.4782 39.1985 28.475 39.166V39.0115C28.6906 38.7902 28.8578 38.5264 28.9659 38.2367C29.0785 37.935 29.1242 37.6124 29.1 37.2913C29.099 37.1005 29.0227 36.9177 28.8877 36.7826C28.7755 36.6705 28.6303 36.5988 28.475 36.5772M33.275 42.2926L28.475 36.5772M25.15 34.1649L25.1501 34.1649C25.1887 33.4468 25.4517 32.7589 25.902 32.1983L25.9036 32.1964L25.9036 32.1964C26.1812 31.8676 26.3542 31.4634 26.4005 31.0356C26.4179 30.8318 26.3683 30.6279 26.2592 30.4549L26.2558 30.4496L26.256 30.4495C26.1252 30.2102 26.0037 29.956 25.9158 29.5698C25.8284 29.1857 25.775 28.6745 25.775 27.9203M25.15 34.1649L28.4973 23.5562C28.66 23.5884 28.8033 23.6838 28.8956 23.8215C28.988 23.9593 29.0218 24.1281 28.9897 24.2908C28.9575 24.4534 28.8621 24.5967 28.7244 24.689M25.15 34.1649V34.1703M25.15 34.1649V34.1703M25.775 27.9203H25.875L25.775 27.9204C25.775 27.9204 25.775 27.9203 25.775 27.9203ZM25.775 27.9203C25.7741 27.074 25.9722 26.2393 26.3532 25.4836C26.7343 24.7279 27.2877 24.0723 27.9688 23.5698L27.9724 23.5671L27.9724 23.5672C28.1322 23.4601 28.328 23.4209 28.5167 23.4581C28.7054 23.4954 28.8716 23.6061 28.9787 23.7659C29.0858 23.9256 29.125 24.1214 29.0878 24.3101C29.0507 24.4979 28.941 24.6633 28.7825 24.7704M28.7825 24.7704C28.7832 24.7699 28.784 24.7693 28.7847 24.7688L28.7244 24.689M28.7825 24.7704C28.2968 25.1383 27.9033 25.6141 27.6329 26.1603C27.3622 26.7072 27.2226 27.3096 27.225 27.9199L27.225 27.9203C27.225 28.569 27.2667 28.9638 27.3246 29.2274C27.3811 29.4852 27.4534 29.6198 27.5237 29.7507L27.5246 29.7523M28.7825 24.7704C28.7817 24.771 28.7809 24.7715 28.7801 24.7721L28.7244 24.689M28.7244 24.689L27.5246 29.7523M27.5246 29.7523C27.5242 29.7517 27.5238 29.7511 27.5235 29.7505L27.4375 29.8015M27.5246 29.7523L27.4358 29.7984L27.4375 29.8015M27.5246 29.7523C27.7568 30.144 27.8698 30.5948 27.8499 31.0497L27.8499 31.0506L27.8499 31.0506C27.8113 31.7688 27.5483 32.4566 27.098 33.0173L27.0964 33.0192L27.0964 33.0192C26.8197 33.3469 26.647 33.7495 26.6 34.1757M27.5246 29.7523L26.5 34.1703M27.5246 29.7523L27.5256 29.7542L27.4375 29.8015M27.5246 29.7523L27.4375 29.8015M26.6 34.1757V34.1703H26.5M26.6 34.1757V34.2726L27.9791 34.7323C27.9791 34.7323 27.9791 34.7323 27.9791 34.7323C28.1235 34.7804 28.2491 34.8727 28.3382 34.9962C28.4272 35.1197 28.475 35.2681 28.475 35.4203C28.475 35.4203 28.475 35.4203 28.475 35.4203V36.5772M26.6 34.1757C26.5998 34.1775 26.5996 34.1792 26.5994 34.181L26.5 34.1703M26.5 34.1703L28.475 36.5772M25.15 34.1703L25.15 34.7953C25.15 34.7953 25.15 34.7953 25.15 34.7953C25.15 34.9475 25.1978 35.0959 25.2868 35.2194C25.3759 35.3428 25.5015 35.4352 25.6459 35.4833C25.6459 35.4833 25.6459 35.4833 25.6459 35.4833L27.025 35.943V36.6688C27.0183 36.8979 27.0724 37.1246 27.1817 37.326C27.2795 37.5062 27.4184 37.6604 27.5868 37.7763C27.5803 37.7992 27.5729 37.8219 27.5647 37.8443C27.4199 37.8825 27.2899 37.965 27.1933 38.0807C27.0845 38.2111 27.025 38.3755 27.025 38.5453C27.025 38.5453 27.025 38.5453 27.025 38.5453V39.1703C27.025 39.5183 27.1642 40.0129 27.5618 40.4209M25.15 34.1703L27.5618 40.4209M27.5618 40.4209C27.9617 40.8311 28.6142 41.1452 29.6246 41.1453L27.5618 40.4209Z" fill="black" stroke="black" stroke-width="0.2"/>
<path d="M48.1862 42.7741C48.249 42.7916 48.3138 42.8004 48.379 42.8003L48.3794 42.8003C48.5374 42.7993 48.6908 42.7467 48.8162 42.6505C48.9415 42.5543 49.0321 42.4198 49.0739 42.2674L49.0741 42.2669C49.948 39.0183 50.3773 35.6662 50.35 32.3023M48.1862 42.7741L48.2131 42.6778M48.1862 42.7741C48.1864 42.7741 48.1865 42.7742 48.1867 42.7742L48.2131 42.6778M48.1862 42.7741C48.0946 42.7489 48.0088 42.7059 47.9337 42.6476C47.8585 42.5892 47.7955 42.5166 47.7484 42.4338C47.7012 42.3511 47.6709 42.2599 47.659 42.1654C47.6472 42.071 47.654 41.9752 47.6791 41.8835C48.5183 38.7554 48.929 35.5279 48.9 32.2893L48.9 32.2873C48.9021 32.0964 48.9794 31.914 49.1152 31.7798C49.2509 31.6455 49.4341 31.5703 49.625 31.5703H49.6281H49.6286C49.7242 31.5707 49.8187 31.5901 49.9068 31.6273C49.9949 31.6644 50.0747 31.7186 50.1418 31.7867C50.2088 31.8548 50.2617 31.9355 50.2975 32.0242C50.3331 32.1125 50.3509 32.207 50.35 32.3023M48.2131 42.6778C48.134 42.6561 48.0598 42.619 47.995 42.5686C47.9302 42.5183 47.8759 42.4557 47.8353 42.3843C47.7946 42.313 47.7685 42.2344 47.7582 42.1529C47.748 42.0715 47.7539 41.9888 47.7756 41.9096C48.6172 38.7727 49.0291 35.5361 49 32.2884C49.0018 32.1238 49.0685 31.9666 49.1855 31.8509C49.3025 31.7352 49.4604 31.6703 49.625 31.6703H49.6281C49.7105 31.6707 49.792 31.6874 49.8679 31.7194C49.9439 31.7514 50.0127 31.7981 50.0705 31.8569C50.1283 31.9156 50.1739 31.9852 50.2047 32.0616C50.2355 32.138 50.2509 32.2198 50.25 32.3021M48.2131 42.6778L48.9775 42.2409C49.8492 39.0008 50.2773 35.6574 50.25 32.3021M50.35 32.3023C50.35 32.3026 50.35 32.3029 50.35 32.3032L50.25 32.3021M50.35 32.3023C50.35 32.302 50.35 32.3017 50.35 32.3013L50.25 32.3021M47.6478 24.1345C47.5713 24.1896 47.4848 24.2293 47.3931 24.2513C47.3002 24.2735 47.2038 24.2772 47.1095 24.2621C47.0152 24.247 46.9247 24.2135 46.8435 24.1633C46.7622 24.1132 46.6916 24.0475 46.6358 23.9701C44.5153 21.041 41.2278 19.5518 38.4487 18.7957C35.6708 18.0399 33.4148 18.0203 33.375 18.0203H33.3735V18.0203C31.2935 17.9901 29.2545 18.6003 27.533 19.7682C27.4547 19.8231 27.3663 19.862 27.2729 19.8826C27.1792 19.9033 27.0823 19.9051 26.9879 19.888C26.8935 19.871 26.8034 19.8353 26.7228 19.7832C26.6423 19.731 26.5729 19.6634 26.5186 19.5843C26.4644 19.5051 26.4265 19.4159 26.4069 19.322C26.3874 19.228 26.3868 19.1311 26.405 19.0369C26.4232 18.9427 26.46 18.8531 26.5131 18.7732C26.5662 18.6933 26.6346 18.6248 26.7143 18.5716C28.6812 17.2461 31.0038 16.5483 33.3755 16.5703C33.3756 16.5703 33.3758 16.5703 33.3759 16.5703L33.375 16.6703L47.6478 24.1345ZM47.6478 24.1345L47.6478 24.1345C47.7253 24.0787 47.791 24.0081 47.8412 23.9268C47.8913 23.8455 47.9249 23.7551 47.94 23.6608C47.9551 23.5665 47.9514 23.4701 47.9291 23.3772C47.9068 23.2843 47.8664 23.1968 47.8102 23.1195L47.6478 24.1345ZM24.688 56.2744C24.7181 56.184 24.7301 56.0886 24.7233 55.9936C24.7166 55.8986 24.6912 55.8059 24.6485 55.7207C24.6059 55.6356 24.5469 55.5596 24.475 55.4973C24.4035 55.4353 24.3206 55.388 24.231 55.3579C24.2317 55.3581 24.2305 55.3575 24.2276 55.3559C24.1501 55.3142 22.8501 54.6143 22.85 51.0457C22.8636 49.496 23.3707 47.9909 24.2976 46.7488L24.2981 46.7483C25.3808 45.2761 25.968 43.4981 25.975 41.6707V41.6703C25.975 39.5252 25.2846 37.9554 24.5623 36.313L24.559 36.3056L24.5592 36.3056L24.5568 36.3008C23.4397 34.0895 22.8552 31.6476 22.85 29.1702C22.85 28.3772 22.9251 27.586 23.0745 26.8072L23.0746 26.8072L23.0752 26.803C23.1024 26.6182 23.0573 26.43 22.9493 26.2777C22.8412 26.1253 22.6785 26.0206 22.4951 25.9852C22.3117 25.9499 22.1217 25.9867 21.9648 26.088C21.8078 26.1893 21.6961 26.3473 21.6527 26.5289L21.6526 26.5289L21.6518 26.5333C21.4846 27.4023 21.4003 28.2853 21.4 29.1702L21.4 29.1705C21.4067 31.8514 22.034 34.4942 23.2326 36.8922C23.9313 38.4797 24.5249 39.8326 24.525 41.6698C24.5114 43.2196 24.0044 44.7247 23.0774 45.9667L23.0769 45.9673C21.9942 47.4394 21.407 49.2174 21.4 51.0449V51.0453C21.4 53.4036 21.92 54.8032 22.4802 55.6264C23.0409 56.4501 23.6362 56.6882 23.7708 56.7332L23.7709 56.7333C23.8612 56.7634 23.9566 56.7754 24.0516 56.7686C24.1466 56.7618 24.2394 56.7364 24.3245 56.6938C24.4097 56.6512 24.4856 56.5922 24.548 56.5202C24.6104 56.4483 24.6579 56.3647 24.688 56.2744ZM24.688 56.2744L24.5931 56.2428M24.688 56.2744C24.688 56.2744 24.688 56.2744 24.688 56.2743L24.5931 56.2428M24.5931 56.2428C24.5672 56.3207 24.5262 56.3927 24.4724 56.4548C24.4187 56.5168 24.3532 56.5676 24.2798 56.6044C24.2064 56.6411 24.1264 56.663 24.0445 56.6689C23.9626 56.6747 23.8804 56.6644 23.8025 56.6384L22.75 51.0453C22.75 54.8009 24.1831 55.4471 24.1975 55.4521C24.2754 55.4781 24.3474 55.5191 24.4095 55.5728C24.4715 55.6266 24.5224 55.6921 24.5591 55.7655C24.5958 55.8389 24.6178 55.9189 24.6236 56.0008C24.6294 56.0826 24.6191 56.1649 24.5931 56.2428ZM46.0912 52.491L46.1875 52.464L46.0912 52.491C46.4764 53.8635 47.1483 54.9347 48.0678 55.6627C48.9876 56.3911 50.1481 56.7703 51.5 56.7703C51.6923 56.7703 51.8767 56.6939 52.0127 56.5579C52.1486 56.422 52.225 56.2376 52.225 56.0453C52.225 55.853 52.1486 55.6686 52.0127 55.5326C51.8767 55.3967 51.6923 55.3203 51.5 55.3203C50.4615 55.3203 49.611 55.0483 48.9457 54.515C48.2797 53.9811 47.7901 53.178 47.4875 52.0995C47.4618 52.0078 47.4183 51.9221 47.3595 51.8473C47.3006 51.7724 47.2276 51.7098 47.1446 51.6632C47.0616 51.6165 46.9702 51.5867 46.8757 51.5753C46.7812 51.564 46.6853 51.5714 46.5936 51.5971C46.5019 51.6228 46.4162 51.6663 46.3414 51.7252C46.2665 51.784 46.2039 51.857 46.1573 51.94C46.1106 52.023 46.0808 52.1144 46.0694 52.2089C46.0581 52.3035 46.0655 52.3993 46.0912 52.491ZM25.3183 55.5201L25.3183 55.5202L25.322 55.5198C25.4173 55.5108 25.51 55.4829 25.5945 55.4378C25.6791 55.3927 25.7539 55.3313 25.8145 55.2572C25.8752 55.183 25.9206 55.0976 25.948 55.0058C25.9755 54.914 25.9845 54.8176 25.9745 54.7223L25.875 54.7328L25.9745 54.7228C25.9638 54.6164 25.845 53.2211 26.6463 51.7133C27.4442 50.2117 29.164 48.5809 32.8633 48.0116C36.9985 47.3754 39.0407 45.0588 40.0398 42.7976C41.0311 40.5536 40.9943 38.368 40.9752 37.9407C41.1074 36.2599 40.8041 34.5733 40.0946 33.0438C39.3844 31.5127 38.291 30.1907 36.9203 29.2058C34.2556 27.2269 31.9929 24.758 30.2533 21.9314C30.1569 21.7666 29.9995 21.6465 29.8151 21.5971C29.6304 21.5476 29.4335 21.5731 29.2675 21.6681C29.1015 21.7631 28.9797 21.9198 28.9287 22.1042C28.8777 22.2885 28.9017 22.4856 28.9953 22.6524L28.9952 22.6524L28.9971 22.6554C30.8313 25.6684 33.2365 28.294 36.0776 30.3846L36.0785 30.3852C37.2467 31.2246 38.1783 32.3514 38.783 33.6566C39.3875 34.9611 39.6449 36.3995 39.5305 37.8327C39.5248 37.8799 39.5236 37.9276 39.5271 37.9751C39.538 38.1233 39.6544 39.9957 38.8475 41.9703C38.0433 43.9381 36.3212 46.0116 32.6398 46.5796C28.3038 47.2461 26.2667 49.2927 25.3202 51.1941C24.3772 53.0887 24.5243 54.8242 24.5286 54.8677L24.5286 54.8678C24.5466 55.0466 24.6304 55.2124 24.7637 55.3329C24.8962 55.4529 25.0684 55.5195 25.2471 55.5203C25.2708 55.5215 25.2946 55.5215 25.3183 55.5201Z" fill="black" stroke="black" stroke-width="0.2"/>
<path d="M48.9 30.4203H48.8996L48.9004 30.4289C48.9047 30.479 48.9145 30.5284 48.9294 30.5763C48.9345 30.6149 48.9425 30.6531 48.9533 30.6905L48.9576 30.7055L48.9662 30.7184C49.0109 30.7851 49.0559 30.8517 49.1012 30.918L49.1088 30.929L49.119 30.9377C49.1579 30.9708 49.2002 30.9997 49.2452 31.0238C49.273 31.0455 49.3025 31.0649 49.3333 31.0821L49.3331 31.0825L49.3423 31.0865C49.4315 31.125 49.5275 31.145 49.6247 31.1453H49.625C49.8173 31.1453 50.0017 31.0689 50.1377 30.9329C50.2736 30.797 50.35 30.6126 50.35 30.4203C50.35 30.3618 50.357 29.5963 50.6655 28.8491C50.8193 28.4764 51.046 28.1133 51.3794 27.8438C51.7112 27.5755 52.154 27.3953 52.75 27.3953C52.9423 27.3953 53.1267 27.3189 53.2627 27.1829C53.3986 27.047 53.475 26.8626 53.475 26.6703C53.475 26.478 53.3986 26.2936 53.2626 26.1576C53.1267 26.0217 52.9423 25.9453 52.75 25.9453C52.154 25.9453 51.7112 25.7651 51.3794 25.4968C51.046 25.2273 50.8193 24.8642 50.6655 24.4915C50.357 23.7442 50.35 22.9788 50.35 22.9203C50.35 22.728 50.2736 22.5436 50.1377 22.4076C50.0017 22.2717 49.8173 22.1953 49.625 22.1953C49.4327 22.1953 49.2483 22.2717 49.1123 22.4076C48.9764 22.5436 48.9 22.728 48.9 22.9203C48.9 22.9788 48.893 23.7442 48.5845 24.4915C48.4307 24.8642 48.204 25.2273 47.8706 25.4968C47.5388 25.7651 47.096 25.9453 46.5 25.9453C46.3077 25.9453 46.1233 26.0217 45.9873 26.1576C45.8514 26.2936 45.775 26.478 45.775 26.6703C45.775 26.8626 45.8514 27.047 45.9873 27.1829C46.1233 27.3189 46.3077 27.3953 46.5 27.3953C47.0919 27.3953 47.5328 27.5754 47.8639 27.8437C48.1967 28.1133 48.4239 28.4765 48.5787 28.8493C48.8892 29.5967 48.9 30.3623 48.9 30.4203ZM45.15 49.7953H45.1496L45.1504 49.8039C45.1547 49.854 45.1645 49.9034 45.1794 49.9513C45.1845 49.9899 45.1925 50.0281 45.2033 50.0655L45.2076 50.0805L45.2162 50.0934C45.2609 50.1601 45.3059 50.2267 45.3512 50.293L45.3588 50.304L45.369 50.3127C45.4079 50.3458 45.4502 50.3747 45.4952 50.3988C45.523 50.4205 45.5525 50.4399 45.5833 50.4571L45.5831 50.4575L45.5923 50.4615C45.6815 50.5 45.7775 50.52 45.8747 50.5203H45.875C46.0673 50.5203 46.2517 50.4439 46.3877 50.3079C46.5236 50.172 46.6 49.9876 46.6 49.7953C46.6 49.7368 46.607 48.9713 46.9155 48.2241C47.0693 47.8514 47.296 47.4883 47.6294 47.2188C47.9612 46.9505 48.404 46.7703 49 46.7703C49.1923 46.7703 49.3767 46.6939 49.5127 46.5579C49.6486 46.422 49.725 46.2376 49.725 46.0453C49.725 45.853 49.6486 45.6686 49.5127 45.5326C49.3767 45.3967 49.1923 45.3203 49 45.3203C48.404 45.3203 47.9612 45.1401 47.6294 44.8718C47.296 44.6023 47.0693 44.2392 46.9155 43.8665C46.607 43.1192 46.6 42.3538 46.6 42.2953C46.6 42.103 46.5236 41.9186 46.3877 41.7826C46.2517 41.6467 46.0673 41.5703 45.875 41.5703C45.6827 41.5703 45.4983 41.6467 45.3623 41.7826C45.2264 41.9186 45.15 42.103 45.15 42.2953C45.15 42.3538 45.143 43.1192 44.8345 43.8665C44.6807 44.2392 44.454 44.6023 44.1206 44.8718C43.7888 45.1401 43.346 45.3203 42.75 45.3203C42.5577 45.3203 42.3733 45.3967 42.2373 45.5326C42.1014 45.6686 42.025 45.853 42.025 46.0453C42.025 46.2376 42.1014 46.422 42.2373 46.5579C42.3733 46.6939 42.5577 46.7703 42.75 46.7703C43.3419 46.7703 43.7828 46.9504 44.1139 47.2187C44.4467 47.4883 44.6739 47.8515 44.8287 48.2243C45.1392 48.9717 45.15 49.7373 45.15 49.7953ZM23.275 25.4203H23.2746L23.2754 25.4289C23.2797 25.479 23.2895 25.5284 23.3044 25.5763C23.3095 25.6149 23.3175 25.6531 23.3283 25.6905L23.3313 25.7009L23.3364 25.7103C23.3581 25.7504 23.3833 25.7885 23.4119 25.8241C23.4317 25.8591 23.4542 25.8925 23.4794 25.924L23.4854 25.9315L23.4927 25.9377C23.5316 25.9708 23.574 25.9997 23.619 26.0238C23.6468 26.0455 23.6762 26.0649 23.7071 26.0821L23.7068 26.0825L23.716 26.0865C23.8057 26.1252 23.9022 26.1452 23.9999 26.1453H24C24.1923 26.1453 24.3767 26.0689 24.5127 25.9329C24.6486 25.797 24.725 25.6126 24.725 25.4203C24.725 25.3618 24.732 24.5963 25.0405 23.8491C25.1943 23.4764 25.421 23.1133 25.7544 22.8438C26.0862 22.5755 26.529 22.3953 27.125 22.3953C27.3173 22.3953 27.5017 22.3189 27.6377 22.1829C27.7736 22.047 27.85 21.8626 27.85 21.6703C27.85 21.478 27.7736 21.2936 27.6377 21.1576C27.5017 21.0217 27.3173 20.9453 27.125 20.9453C26.529 20.9453 26.0862 20.7651 25.7544 20.4968C25.421 20.2273 25.1943 19.8642 25.0405 19.4915C24.732 18.7442 24.725 17.9788 24.725 17.9203C24.725 17.728 24.6486 17.5436 24.5127 17.4076C24.3767 17.2717 24.1923 17.1953 24 17.1953C23.8077 17.1953 23.6233 17.2717 23.4873 17.4076C23.3514 17.5436 23.275 17.728 23.275 17.9203C23.275 17.9788 23.268 18.7442 22.9595 19.4915C22.8057 19.8642 22.579 20.2273 22.2456 20.4968C21.9138 20.7651 21.471 20.9453 20.875 20.9453C20.6827 20.9453 20.4983 21.0217 20.3623 21.1576C20.2264 21.2936 20.15 21.478 20.15 21.6703C20.15 21.8626 20.2264 22.047 20.3623 22.1829C20.4983 22.3189 20.6827 22.3953 20.875 22.3953C21.4669 22.3953 21.9078 22.5754 22.2389 22.8437C22.5717 23.1133 22.7989 23.4765 22.9537 23.8493C23.2642 24.5967 23.275 25.3623 23.275 25.4203ZM49.625 27.7033C49.3923 27.3066 49.0879 26.9562 48.7272 26.6703C49.0879 26.3844 49.3923 26.034 49.625 25.6372C49.8577 26.034 50.1621 26.3844 50.5228 26.6703C50.1621 26.9562 49.8577 27.3066 49.625 27.7033ZM45.875 47.0783C45.6423 46.6816 45.3379 46.3312 44.9772 46.0453C45.3379 45.7594 45.6423 45.409 45.875 45.0122C46.1077 45.409 46.4121 45.7594 46.7728 46.0453C46.4121 46.3312 46.1077 46.6816 45.875 47.0783ZM24 22.7033C23.7673 22.3065 23.4629 21.9562 23.1022 21.6703C23.4629 21.3844 23.7673 21.034 24 20.6372C24.2327 21.034 24.5371 21.3844 24.8978 21.6703C24.5371 21.9562 24.2327 22.3065 24 22.7033Z" fill="black" stroke="black" stroke-width="0.2"/>
</g>
<defs>
<clipPath id="clip0_28564_3423">
<rect width="40" height="40" fill="white" transform="translate(16.5 16.6703)"/>
</clipPath>
</defs>
</svg>
