<svg xmlns="http://www.w3.org/2000/svg" width="35" height="36" viewBox="0 0 35 36" fill="none">
  <path d="M29.2448 7.09494C26.2304 4.08053 22.2226 2.42041 17.9597 2.42041C13.6967 2.42041 9.68887 4.08053 6.67446 7.09494C3.66012 10.1094 2 14.1171 2 18.3801C2 22.6431 3.66012 26.6509 6.67446 29.6653C9.68887 32.6797 13.6967 34.3399 17.9597 34.3399C22.2226 34.3399 26.2304 32.6797 29.2448 29.6654C32.2592 26.6509 33.9193 22.6431 33.9193 18.3801C33.9193 14.1171 32.2592 10.1094 29.2448 7.09494ZM17.9597 32.9398C9.93149 32.9398 3.4 26.4084 3.4 18.3801C3.4 10.3519 9.93149 3.82041 17.9597 3.82041C25.9878 3.82041 32.5193 10.3519 32.5193 18.3801C32.5193 26.4084 25.9878 32.9398 17.9597 32.9398Z" fill="black"/>
  <path d="M17.8915 14.1196C18.8848 14.1196 19.8277 14.437 20.6064 15.0237L17.4649 18.1652C17.1915 18.4386 17.1915 18.8818 17.4649 19.1552C17.6017 19.2919 17.7807 19.3602 17.9599 19.3602C18.1391 19.3602 18.3182 19.2919 18.4549 19.1552L27.138 10.472C27.4114 10.1987 27.4114 9.75542 27.138 9.482C26.8646 9.20865 26.4215 9.20865 26.148 9.482L25.1039 10.5262C23.1456 8.74063 20.6291 7.76343 17.9599 7.76343C15.9785 7.76343 14.1225 8.30964 12.5335 9.25849C12.9121 9.54766 13.2217 9.92251 13.4329 10.3543C14.7709 9.59673 16.3157 9.16343 17.9599 9.16343C20.2548 9.16343 22.4193 9.99594 24.1124 11.5178L21.6031 14.027C20.5545 13.1804 19.2598 12.7196 17.8916 12.7196C14.6246 12.7196 11.9668 15.3775 11.9668 18.6444C11.9668 19.1334 12.0266 19.6197 12.1446 20.0899C12.2243 20.4077 12.5096 20.6197 12.823 20.6197C12.8794 20.6197 12.9367 20.6128 12.9938 20.5985C13.3688 20.5044 13.5965 20.1242 13.5025 19.7492C13.4124 19.3904 13.3668 19.0186 13.3668 18.6444C13.3668 16.1494 15.3966 14.1196 17.8915 14.1196Z" fill="black"/>
  <path d="M11.9852 25.3986C9.92451 23.6427 8.74277 21.0845 8.74277 18.3801C8.74277 17.0247 9.03698 15.7368 9.56471 14.5767C9.11363 14.4034 8.71344 14.1275 8.39361 13.7767C7.72042 15.17 7.34277 16.7318 7.34277 18.3801C7.34277 21.4953 8.70385 24.4418 11.0771 26.4641C11.2089 26.5764 11.3703 26.6313 11.5308 26.6313C11.7288 26.6313 11.9255 26.5478 12.0639 26.3853C12.3147 26.0911 12.2794 25.6493 11.9852 25.3986Z" fill="black"/>
  <path d="M10.6676 13.502C11.6604 13.502 12.4652 12.6973 12.4652 11.7045C12.4652 10.7118 11.6604 9.90698 10.6676 9.90698C9.6749 9.90698 8.87012 10.7118 8.87012 11.7045C8.87012 12.6973 9.6749 13.502 10.6676 13.502Z" fill="black"/>
  <path d="M27.1813 20.7923C28.1741 20.7923 28.9788 19.9875 28.9788 18.9948C28.9788 18.002 28.1741 17.1973 27.1813 17.1973C26.1886 17.1973 25.3838 18.002 25.3838 18.9948C25.3838 19.9875 26.1886 20.7923 27.1813 20.7923Z" fill="black"/>
  <path d="M18.0876 26.6755C19.0803 26.6755 19.8851 25.8707 19.8851 24.878C19.8851 23.8852 19.0803 23.0804 18.0876 23.0804C17.0948 23.0804 16.29 23.8852 16.29 24.878C16.29 25.8707 17.0948 26.6755 18.0876 26.6755Z" fill="black"/>
  <path d="M24.7849 27.5503C25.5829 27.5503 26.2299 26.9033 26.2299 26.1053C26.2299 25.3072 25.5829 24.6603 24.7849 24.6603C23.9868 24.6603 23.3398 25.3072 23.3398 26.1053C23.3398 26.9033 23.9868 27.5503 24.7849 27.5503Z" fill="black"/>
</svg>