<svg xmlns="http://www.w3.org/2000/svg" width="35" height="36" viewBox="0 0 35 36" fill="none">
  <path fill-rule="evenodd" clip-rule="evenodd" d="M16.9999 1.88037C8.16929 1.88037 1 9.04966 1 17.8803C1 26.7111 8.16929 33.8804 16.9999 33.8804C25.8307 33.8804 33 26.7111 33 17.8803C33 9.04966 25.8307 1.88037 16.9999 1.88037ZM16.9999 3.33486C25.0278 3.33486 31.5455 9.8524 31.5455 17.8803C31.5455 25.9082 25.0278 32.4259 16.9999 32.4259C8.97203 32.4259 2.45449 25.9082 2.45449 17.8803C2.45449 9.8524 8.97203 3.33486 16.9999 3.33486Z" fill="black"/>
  <path fill-rule="evenodd" clip-rule="evenodd" d="M27.2856 6.56637L5.68942 28.1626C5.40561 28.4464 5.40561 28.9072 5.68942 29.191C5.97323 29.4748 6.43421 29.4748 6.71802 29.191L28.3142 7.5948C28.598 7.31099 28.598 6.85019 28.3142 6.56637C28.0302 6.28256 27.5694 6.28256 27.2856 6.56637Z" fill="black"/>
  <path fill-rule="evenodd" clip-rule="evenodd" d="M25.664 15.9339C25.7099 16.3886 25.615 16.9178 25.3202 17.2772C25.0655 17.5875 25.1109 18.0463 25.4212 18.3007C25.7316 18.5554 26.1901 18.5102 26.4448 18.1999C26.9768 17.5512 27.1941 16.6083 27.1114 15.7878C27.071 15.3884 26.7141 15.097 26.3147 15.1373C25.9154 15.1776 25.6239 15.5345 25.664 15.9339Z" fill="black"/>
  <path fill-rule="evenodd" clip-rule="evenodd" d="M23.764 20.9982C22.6961 22.1754 22.7731 23.6173 23.672 24.8641C23.9068 25.1896 24.3617 25.2634 24.6872 25.0287C25.0129 24.7939 25.0865 24.339 24.8518 24.0133C24.3781 23.3563 24.2786 22.5958 24.8413 21.9753C25.111 21.6781 25.0886 21.2178 24.7912 20.9481C24.494 20.6785 24.0337 20.7008 23.764 20.9982Z" fill="black"/>
  <path fill-rule="evenodd" clip-rule="evenodd" d="M17.23 30.2644C18.4935 29.6521 19.2964 28.3185 19.2788 26.918C19.2746 26.5759 19.1706 26.0864 19.1763 25.6391C19.1775 25.5541 19.1829 25.4715 19.2001 25.3945C19.2117 25.3413 19.2226 25.2854 19.2789 25.2626C19.6511 25.1119 19.8309 24.6876 19.6804 24.3155C19.5298 23.9435 19.1054 23.7636 18.7333 23.9142C18.1161 24.164 17.8295 24.6576 17.747 25.2661C17.6723 25.8159 17.8189 26.4914 17.8245 26.9363C17.8349 27.78 17.3569 28.5866 16.5957 28.9554C16.2345 29.1305 16.0834 29.5658 16.2584 29.9271C16.4333 30.2883 16.8688 30.4394 17.23 30.2644Z" fill="black"/>
  <path fill-rule="evenodd" clip-rule="evenodd" d="M21.9641 29.3632C23.1402 29.1107 24.2058 28.6158 24.8939 27.5829C25.1163 27.2488 25.0257 26.7969 24.6916 26.5743C24.3575 26.352 23.9056 26.4426 23.6832 26.7766C23.2146 27.4802 22.4599 27.7691 21.6587 27.9412C21.2663 28.0253 21.016 28.4125 21.1003 28.8049C21.1846 29.1972 21.5716 29.4475 21.9641 29.3632Z" fill="black"/>
  <path fill-rule="evenodd" clip-rule="evenodd" d="M21.1321 7.08204C20.4566 6.73574 19.6525 6.46886 18.8786 6.55666C18.2135 6.63206 17.6005 6.94939 17.071 7.40896C16.3689 8.0183 15.8146 8.88039 15.4733 9.62517C15.3063 9.99015 15.4667 10.4221 15.8317 10.5894C16.1967 10.7566 16.6287 10.596 16.7957 10.231C17.0182 9.74543 17.3516 9.19282 17.7752 8.74668C18.1341 8.36862 18.5549 8.05705 19.0423 8.0019C19.5355 7.94604 20.0381 8.15567 20.4687 8.37647C20.8258 8.55957 21.2644 8.41819 21.4475 8.06089C21.6306 7.70377 21.4894 7.26514 21.1321 7.08204Z" fill="black"/>
  <path fill-rule="evenodd" clip-rule="evenodd" d="M17.1675 12.908C16.7844 13.2487 16.3911 13.6465 15.8792 13.7707C15.5952 13.8399 15.3034 13.8338 15.0122 13.8369C14.6029 13.8411 14.1946 13.8563 13.7965 13.9666C13.0039 14.1863 12.3773 14.8229 11.9716 15.5122C11.7679 15.8581 11.8837 16.3043 12.2294 16.508C12.5754 16.7115 13.0215 16.5959 13.2252 16.25C13.4464 15.8742 13.753 15.4879 14.185 15.3684C14.4605 15.2919 14.7441 15.2942 15.0274 15.2914C15.429 15.287 15.8305 15.2795 16.2225 15.1842C16.9659 15.0037 17.578 14.4895 18.1343 13.9945C18.4342 13.7278 18.4611 13.2677 18.1942 12.9678C17.9275 12.668 17.4674 12.6411 17.1675 12.908Z" fill="black"/>
  <path fill-rule="evenodd" clip-rule="evenodd" d="M13.4226 9.4221C13.3169 9.0477 13.2135 8.57416 13.2015 8.10795C13.1922 7.74472 13.2256 7.38114 13.4199 7.11356C13.6558 6.78873 13.5836 6.33352 13.2587 6.0977C12.9341 5.86189 12.4789 5.93398 12.2431 6.25881C11.9378 6.67912 11.7859 7.20712 11.7531 7.76846C11.7117 8.47659 11.8598 9.23953 12.0228 9.81745C12.1319 10.2037 12.534 10.4287 12.9205 10.3196C13.3067 10.2105 13.5317 9.80837 13.4226 9.4221Z" fill="black"/>
  <path fill-rule="evenodd" clip-rule="evenodd" d="M9.32997 10.5077C9.04162 10.4955 8.75763 10.5147 8.47766 10.5883C7.50649 10.8435 7.06768 11.479 6.75437 12.2287C6.5601 12.6933 6.4538 13.2247 6.09459 13.595C5.81531 13.8832 5.82229 14.344 6.11047 14.6235C6.39864 14.9029 6.85945 14.8958 7.13889 14.6076C7.54646 14.1873 7.76796 13.6434 7.97392 13.1011C8.14847 12.6413 8.2682 12.1472 8.84735 11.995C8.98541 11.9587 9.12575 11.9548 9.26783 11.961C9.66893 11.9781 10.0084 11.6665 10.0255 11.2654C10.0426 10.8645 9.73107 10.525 9.32997 10.5077Z" fill="black"/>
  <path fill-rule="evenodd" clip-rule="evenodd" d="M9.02973 17.2997C8.93688 18.2773 9.379 19.2953 10.2526 19.7918C10.6015 19.9903 11.0459 19.8681 11.2442 19.5192C11.4427 19.1701 11.3205 18.7259 10.9716 18.5274C10.5949 18.3133 10.4378 17.8586 10.4778 17.437C10.5156 17.0375 10.2221 16.6823 9.82235 16.6444C9.42281 16.6064 9.06761 16.9001 9.02973 17.2997Z" fill="black"/>
  <path fill-rule="evenodd" clip-rule="evenodd" d="M8.54634 20.4973C8.02916 20.3442 7.32731 19.9814 6.80874 19.4986C6.52754 19.2369 6.29156 18.9453 6.23186 18.6176C6.15995 18.2228 5.78101 17.9605 5.38619 18.0324C4.99119 18.1043 4.72902 18.4834 4.80094 18.8782C4.9123 19.4905 5.29228 20.0742 5.81766 20.5631C6.50852 21.2063 7.44426 21.6879 8.13301 21.8921C8.51789 22.0061 8.92301 21.7862 9.03699 21.4013C9.15096 21.0164 8.93104 20.6115 8.54634 20.4973Z" fill="black"/>
  <path fill-rule="evenodd" clip-rule="evenodd" d="M14.495 23.282C14.3266 24.2111 14.3578 25.0631 14.7544 25.9311C14.9213 26.2963 15.3531 26.4572 15.7182 26.2903C16.0832 26.1236 16.2443 25.6918 16.0774 25.3267C15.8104 24.7423 15.8128 24.1668 15.9261 23.5414C15.9979 23.1464 15.7352 22.7676 15.3403 22.6961C14.9453 22.6245 14.5666 22.887 14.495 23.282Z" fill="black"/>
  <path fill-rule="evenodd" clip-rule="evenodd" d="M11.4742 28.8298C12.0303 29.2248 12.6707 29.6186 13.3102 29.8649C13.6848 30.0091 14.106 29.8219 14.2501 29.4474C14.3945 29.0728 14.2074 28.6516 13.8328 28.5074C13.3032 28.3036 12.7768 27.9709 12.3163 27.644C11.9891 27.4115 11.5347 27.4884 11.3022 27.8157C11.0697 28.143 11.1469 28.5973 11.4742 28.8298Z" fill="black"/>
  <path fill-rule="evenodd" clip-rule="evenodd" d="M22.9589 18.8153C23.2598 18.1093 23.6055 17.2114 23.3892 16.4298C23.2822 16.043 22.8811 15.816 22.4943 15.923C22.1073 16.0299 21.8802 16.4311 21.9872 16.8178C22.0396 17.0071 21.9991 17.2076 21.9443 17.4047C21.8619 17.7005 21.7301 17.9887 21.6209 18.2451C21.4634 18.6144 21.6355 19.0419 22.0047 19.1993C22.374 19.3566 22.8017 19.1847 22.9589 18.8153Z" fill="black"/>
  <path fill-rule="evenodd" clip-rule="evenodd" d="M20.6339 20.5136C19.8659 20.2581 19.0188 20.1197 18.2183 20.3228C17.8293 20.4216 17.5936 20.8177 17.6924 21.2067C17.791 21.5958 18.1871 21.8314 18.5762 21.7326C19.107 21.5979 19.6653 21.7243 20.1746 21.8938C20.5555 22.0205 20.9676 21.8142 21.0943 21.4333C21.221 21.0524 21.0147 20.6403 20.6339 20.5136Z" fill="black"/>
  <path fill-rule="evenodd" clip-rule="evenodd" d="M26.7924 20.8959C26.895 21.1989 27.0399 21.5032 27.1586 21.8111C27.2675 22.0935 27.3757 22.3782 27.2639 22.68C27.1244 23.0565 27.3167 23.4752 27.6932 23.6147C28.0696 23.7541 28.4883 23.5618 28.6278 23.1853C28.8363 22.6227 28.7815 22.0806 28.6094 21.5498C28.4864 21.1708 28.2954 20.7998 28.1703 20.4295C28.0415 20.0494 27.6283 19.8452 27.2482 19.9738C26.868 20.1024 26.6638 20.5156 26.7924 20.8959Z" fill="black"/>
  <path fill-rule="evenodd" clip-rule="evenodd" d="M28.8259 12.732C28.3773 12.2345 27.9297 11.8451 27.2991 11.6025C26.9244 11.4583 26.5032 11.6456 26.3592 12.0202C26.215 12.3947 26.4023 12.8159 26.7769 12.9601C27.183 13.1163 27.4569 13.3858 27.7458 13.7063C28.0146 14.0042 28.4748 14.028 28.773 13.7592C29.0709 13.4904 29.0947 13.0301 28.8259 12.732Z" fill="black"/>
</svg>