<svg xmlns="http://www.w3.org/2000/svg" width="45" height="45" viewBox="0 0 45 45" fill="none">
  <path d="M5.22285 23.4442C4.78341 23.4442 4.35383 23.3139 3.98845 23.0698C3.62306 22.8256 3.33828 22.4786 3.17011 22.0726C3.00194 21.6666 2.95794 21.2199 3.04367 20.7889C3.1294 20.3579 3.34101 19.962 3.65175 19.6513C3.96248 19.3405 4.35838 19.1289 4.78939 19.0432C5.22039 18.9575 5.66713 19.0015 6.07313 19.1696C6.47912 19.3378 6.82613 19.6226 7.07027 19.988C7.31442 20.3533 7.44473 20.7829 7.44473 21.2224C7.44424 21.8115 7.20999 22.3763 6.79341 22.7929C6.37684 23.2095 5.81198 23.4437 5.22285 23.4442Z" fill="black"/>
  <path d="M10.4601 26.6547C10.2249 26.6547 9.99485 26.5852 9.79921 26.455C9.60358 26.3247 9.4511 26.1397 9.36106 25.9231C9.27102 25.7066 9.24746 25.4684 9.29337 25.2385C9.33927 25.0086 9.45257 24.7975 9.61894 24.6317C9.78531 24.466 9.99729 24.3532 10.2281 24.3074C10.4588 24.2617 10.698 24.2852 10.9154 24.3749C11.1328 24.4646 11.3186 24.6164 11.4493 24.8113C11.58 25.0062 11.6498 25.2353 11.6498 25.4697C11.6495 25.7839 11.524 26.0851 11.301 26.3073C11.078 26.5294 10.7756 26.6544 10.4601 26.6547ZM10.4601 24.8778C10.3425 24.8778 10.2275 24.9125 10.1297 24.9776C10.0319 25.0427 9.95562 25.1353 9.9106 25.2435C9.86558 25.3518 9.8538 25.4709 9.87675 25.5859C9.8997 25.7008 9.95635 25.8064 10.0395 25.8892C10.1227 25.9721 10.2287 26.0285 10.3441 26.0514C10.4595 26.0742 10.5791 26.0625 10.6878 26.0177C10.7965 25.9728 10.8893 25.8969 10.9547 25.7994C11.0201 25.702 11.055 25.5874 11.055 25.4703C11.055 25.3131 10.9923 25.1624 10.8807 25.0513C10.7692 24.9402 10.6179 24.8778 10.4601 24.8778Z" fill="black"/>
  <path d="M25.001 17.0005C24.8032 17.0005 24.6099 16.9418 24.4454 16.832C24.281 16.7221 24.1528 16.5659 24.0771 16.3832C24.0014 16.2004 23.9816 15.9994 24.0202 15.8054C24.0588 15.6114 24.154 15.4332 24.2939 15.2934C24.4337 15.1535 24.6119 15.0583 24.8059 15.0197C24.9999 14.9811 25.2009 15.0009 25.3837 15.0766C25.5664 15.1523 25.7226 15.2805 25.8324 15.4449C25.9423 15.6094 26.001 15.8027 26.001 16.0005C26.0007 16.2656 25.8953 16.5198 25.7078 16.7073C25.5203 16.8948 25.2661 17.0002 25.001 17.0005ZM25.001 15.501C24.9021 15.501 24.8054 15.5303 24.7232 15.5853C24.641 15.6402 24.5769 15.7183 24.539 15.8096C24.5012 15.901 24.4913 16.0015 24.5106 16.0985C24.5299 16.1955 24.5775 16.2846 24.6474 16.3545C24.7173 16.4245 24.8064 16.4721 24.9034 16.4914C25.0004 16.5107 25.101 16.5008 25.1923 16.4629C25.2837 16.4251 25.3618 16.361 25.4167 16.2788C25.4717 16.1965 25.501 16.0999 25.501 16.001C25.501 15.8684 25.4483 15.7412 25.3545 15.6474C25.2608 15.5537 25.1336 15.501 25.001 15.501Z" fill="black"/>
  <path d="M23.501 28.0005C23.2043 28.0005 22.9143 27.9125 22.6676 27.7477C22.4209 27.5829 22.2287 27.3486 22.1152 27.0745C22.0016 26.8004 21.9719 26.4988 22.0298 26.2079C22.0877 25.9169 22.2305 25.6496 22.4403 25.4398C22.6501 25.23 22.9174 25.0872 23.2083 25.0293C23.4993 24.9714 23.8009 25.0011 24.075 25.1147C24.3491 25.2282 24.5834 25.4205 24.7482 25.6671C24.913 25.9138 25.001 26.2038 25.001 26.5005C25.0006 26.8982 24.8425 27.2795 24.5612 27.5607C24.28 27.842 23.8987 28.0001 23.501 28.0005ZM23.501 25.7512C23.3526 25.7512 23.2076 25.7952 23.0843 25.8776C22.961 25.96 22.8648 26.0772 22.8081 26.2142C22.7513 26.3513 22.7364 26.5021 22.7654 26.6476C22.7943 26.793 22.8658 26.9267 22.9706 27.0316C23.0755 27.1365 23.2092 27.2079 23.3547 27.2368C23.5001 27.2658 23.6509 27.2509 23.788 27.1941C23.925 27.1374 24.0422 27.0413 24.1246 26.9179C24.207 26.7946 24.251 26.6496 24.251 26.5012C24.251 26.3023 24.172 26.1116 24.0313 25.9709C23.8907 25.8303 23.6999 25.7512 23.501 25.7512Z" fill="black"/>
  <path d="M35.2229 30.4442C34.7834 30.4442 34.3538 30.3139 33.9884 30.0698C33.6231 29.8256 33.3383 29.4786 33.1701 29.0726C33.0019 28.6666 32.9579 28.2199 33.0437 27.7889C33.1294 27.3579 33.341 26.962 33.6518 26.6513C33.9625 26.3405 34.3584 26.1289 34.7894 26.0432C35.2204 25.9575 35.6671 26.0014 36.0731 26.1696C36.4791 26.3378 36.8261 26.6226 37.0703 26.988C37.3144 27.3533 37.4447 27.7829 37.4447 28.2224C37.4442 28.8115 37.2099 29.3763 36.7934 29.7929C36.3768 30.2094 35.812 30.4437 35.2229 30.4442Z" fill="black"/>
  <path d="M28.3052 23.1001C27.8346 23.1001 27.3746 22.9611 26.9833 22.7007C26.5921 22.4403 26.2871 22.0701 26.107 21.6371C25.9269 21.204 25.8798 20.7275 25.9716 20.2677C26.0634 19.808 26.29 19.3857 26.6228 19.0543C26.9555 18.7228 27.3795 18.4971 27.841 18.4056C28.3025 18.3142 28.7809 18.3611 29.2157 18.5405C29.6504 18.7199 30.022 19.0237 30.2834 19.4134C30.5449 19.8032 30.6844 20.2614 30.6844 20.7301C30.6839 21.3585 30.4331 21.961 29.987 22.4054C29.5409 22.8497 28.936 23.0996 28.3052 23.1001Z" fill="black"/>
  <path d="M11.2229 17.4442C10.7834 17.4442 10.3538 17.3139 9.98845 17.0698C9.62306 16.8256 9.33828 16.4786 9.17011 16.0726C9.00194 15.6666 8.95794 15.2199 9.04367 14.7889C9.1294 14.3579 9.34101 13.962 9.65175 13.6513C9.96248 13.3405 10.3584 13.1289 10.7894 13.0432C11.2204 12.9575 11.6671 13.0015 12.0731 13.1696C12.4791 13.3378 12.8261 13.6226 13.0703 13.988C13.3144 14.3533 13.4447 14.7829 13.4447 15.2224C13.4442 15.8115 13.21 16.3763 12.7934 16.7929C12.3768 17.2095 11.812 17.4437 11.2229 17.4442ZM11.2229 14.1114C11.0031 14.1114 10.7883 14.1766 10.6056 14.2987C10.423 14.4207 10.2806 14.5942 10.1965 14.7972C10.1124 15.0002 10.0904 15.2236 10.1333 15.4391C10.1761 15.6546 10.2819 15.8525 10.4373 16.0079C10.5927 16.1633 10.7906 16.2691 11.0061 16.312C11.2216 16.3548 11.445 16.3328 11.648 16.2487C11.851 16.1647 12.0245 16.0223 12.1466 15.8396C12.2686 15.6569 12.3338 15.4421 12.3338 15.2224C12.3338 14.9277 12.2167 14.6452 12.0084 14.4368C11.8001 14.2285 11.5175 14.1114 11.2229 14.1114Z" fill="black"/>
  <path d="M34.501 17.0005C34.2043 17.0005 33.9143 16.9125 33.6676 16.7477C33.4209 16.5829 33.2287 16.3486 33.1152 16.0745C33.0016 15.8004 32.9719 15.4988 33.0298 15.2079C33.0877 14.9169 33.2305 14.6496 33.4403 14.4398C33.6501 14.2301 33.9174 14.0872 34.2083 14.0293C34.4993 13.9714 34.8009 14.0011 35.075 14.1147C35.3491 14.2282 35.5834 14.4205 35.7482 14.6671C35.913 14.9138 36.001 15.2038 36.001 15.5005C36.0006 15.8982 35.8425 16.2796 35.5613 16.5608C35.28 16.842 34.8987 17.0002 34.501 17.0005Z" fill="black"/>
  <path d="M27.501 33.0005C27.2043 33.0005 26.9143 32.9125 26.6676 32.7477C26.4209 32.5829 26.2287 32.3486 26.1152 32.0745C26.0016 31.8004 25.9719 31.4988 26.0298 31.2079C26.0877 30.9169 26.2305 30.6496 26.4403 30.4398C26.6501 30.2301 26.9174 30.0872 27.2083 30.0293C27.4993 29.9714 27.8009 30.0011 28.075 30.1147C28.3491 30.2282 28.5834 30.4205 28.7482 30.6671C28.913 30.9138 29.001 31.2038 29.001 31.5005C29.0006 31.8982 28.8425 32.2796 28.5613 32.5608C28.28 32.842 27.8987 33.0002 27.501 33.0005Z" fill="black"/>
  <path d="M16.9751 24.9255C16.3868 24.9255 15.8118 24.7517 15.3227 24.4262C14.8337 24.1007 14.4525 23.638 14.2274 23.0967C14.0023 22.5554 13.9434 21.9597 14.0581 21.385C14.1729 20.8104 14.4561 20.2825 14.8721 19.8682C15.288 19.4539 15.8179 19.1717 16.3948 19.0574C16.9717 18.9431 17.5697 19.0018 18.1132 19.226C18.6566 19.4502 19.1211 19.8299 19.4479 20.3171C19.7747 20.8043 19.9491 21.3771 19.9491 21.963C19.9485 22.7485 19.6349 23.5016 19.0773 24.0571C18.5197 24.6125 17.7636 24.9248 16.9751 24.9255Z" fill="black"/>
  <path d="M15.0627 33.4687C14.6233 33.4687 14.1937 33.3383 13.8283 33.0942C13.4629 32.8501 13.1781 32.503 13.01 32.0971C12.8418 31.6911 12.7978 31.2443 12.8835 30.8133C12.9692 30.3823 13.1809 29.9864 13.4916 29.6757C13.8023 29.3649 14.1982 29.1533 14.6292 29.0676C15.0602 28.9819 15.507 29.0259 15.913 29.194C16.319 29.3622 16.666 29.647 16.9101 30.0124C17.1543 30.3778 17.2846 30.8073 17.2846 31.2468C17.2841 31.8359 17.0498 32.4008 16.6333 32.8173C16.2167 33.2339 15.6518 33.4682 15.0627 33.4687Z" fill="black"/>
  <path d="M19.001 16.0005C18.8032 16.0005 18.6099 15.9418 18.4454 15.832C18.281 15.7221 18.1528 15.5659 18.0771 15.3832C18.0014 15.2004 17.9816 14.9994 18.0202 14.8054C18.0588 14.6114 18.154 14.4332 18.2939 14.2934C18.4337 14.1535 18.6119 14.0583 18.8059 14.0197C18.9999 13.9811 19.2009 14.0009 19.3837 14.0766C19.5664 14.1523 19.7226 14.2805 19.8324 14.4449C19.9423 14.6094 20.001 14.8027 20.001 15.0005C20.0008 15.2656 19.8953 15.5199 19.7078 15.7074C19.5204 15.8948 19.2661 16.0003 19.001 16.0005Z" fill="black"/>
  <path d="M39.001 24.0005C38.6054 24.0005 38.2187 23.8832 37.8898 23.6634C37.5609 23.4437 37.3046 23.1313 37.1532 22.7659C37.0018 22.4004 36.9622 21.9983 37.0394 21.6103C37.1166 21.2223 37.3071 20.866 37.5868 20.5863C37.8665 20.3066 38.2228 20.1161 38.6108 20.0389C38.9988 19.9617 39.4009 20.0014 39.7663 20.1527C40.1318 20.3041 40.4442 20.5605 40.6639 20.8893C40.8837 21.2182 41.001 21.6049 41.001 22.0005C41.0005 22.5308 40.7897 23.0392 40.4147 23.4142C40.0397 23.7892 39.5313 24 39.001 24.0005ZM39.001 21.0015C38.8032 21.0015 38.6099 21.0601 38.4454 21.17C38.281 21.2799 38.1528 21.4361 38.0771 21.6188C38.0014 21.8015 37.9816 22.0026 38.0202 22.1966C38.0588 22.3906 38.154 22.5687 38.2939 22.7086C38.4337 22.8484 38.6119 22.9437 38.8059 22.9823C38.9999 23.0209 39.2009 23.0011 39.3837 22.9254C39.5664 22.8497 39.7226 22.7215 39.8324 22.5571C39.9423 22.3926 40.001 22.1993 40.001 22.0015C40.0011 21.8701 39.9753 21.7399 39.9251 21.6185C39.8749 21.4971 39.8013 21.3867 39.7084 21.2937C39.6156 21.2008 39.5053 21.127 39.3839 21.0767C39.2625 21.0264 39.1324 21.0005 39.001 21.0005V21.0015Z" fill="black"/>
</svg>