<svg xmlns="http://www.w3.org/2000/svg" width="35" height="36" viewBox="0 0 35 36" fill="none">
  <path d="M18.8081 25.1561H14.8315C14.4353 25.1561 14.114 24.8348 14.114 24.4385V20.9536H10.6287C10.2324 20.9536 9.91113 20.6323 9.91113 20.236V16.2595C9.91113 15.8632 10.2324 15.542 10.6287 15.542H14.1141V12.0569C14.1141 11.6606 14.4353 11.3394 14.8316 11.3394H18.8081C19.2044 11.3394 19.5257 11.6606 19.5257 12.0569V15.542H23.0104C23.4067 15.542 23.7279 15.8632 23.7279 16.2595V20.236C23.7279 20.6323 23.4067 20.9536 23.0104 20.9536H19.5257V24.4385C19.5256 24.8348 19.2043 25.1561 18.8081 25.1561ZM15.5491 23.721H18.0905V20.236C18.0905 19.8397 18.4118 19.5185 18.8081 19.5185H22.2928V16.9771H18.8081C18.4118 16.9771 18.0905 16.6558 18.0905 16.2595V12.7745H15.5491V16.2595C15.5491 16.6558 15.2278 16.9771 14.8315 16.9771H11.3462V19.5185H14.8316C15.2279 19.5185 15.5492 19.8397 15.5492 20.236L15.5491 23.721Z" fill="black"/>
  <path d="M17.0004 34.8804C16.8608 34.8804 16.7213 34.8665 16.5827 34.8388L16.5737 34.837C16.4788 34.8176 16.385 34.7919 16.2948 34.7604C13.1093 33.6488 10.4764 32.0914 8.46934 30.1313C6.71113 28.4143 5.37059 26.3244 4.48494 23.9197C2.8663 19.5247 2.95891 14.6579 3.03336 10.7474L3.03465 10.694C3.0494 10.3681 3.05938 10.0243 3.06505 9.64299C3.09043 7.93683 4.44591 6.52573 6.15106 6.4304C10.076 6.21101 13.1144 4.92843 15.7127 2.39413L15.7285 2.37924C16.4538 1.7141 17.5473 1.71404 18.2724 2.37931L18.2881 2.39419C20.8865 4.92849 23.9249 6.21107 27.8499 6.43047C29.555 6.52579 30.9105 7.93689 30.9358 9.64305C30.9415 10.0244 30.9514 10.3682 30.9662 10.6941L30.9669 10.7129C31.0411 14.6308 31.1334 19.5067 29.5087 23.9151C28.6223 26.3203 27.2818 28.4107 25.5241 30.1284C23.5187 32.0883 20.8888 33.6465 17.7075 34.7598C17.6142 34.7925 17.5169 34.8191 17.4185 34.8388C17.2797 34.8665 17.14 34.8804 17.0004 34.8804ZM16.8644 33.4492C16.9562 33.4668 17.0491 33.4667 17.1406 33.4483C17.1746 33.4416 17.208 33.4325 17.2396 33.4214C29.8904 28.9941 29.6961 18.4512 29.5503 10.7491C29.5351 10.4115 29.5248 10.0564 29.519 9.66406C29.5047 8.69864 28.7368 7.90015 27.7709 7.84614C25.6215 7.72607 23.7351 7.3112 22.0039 6.57787C20.2752 5.84563 18.7393 4.81216 17.3086 3.41878C17.1288 3.25913 16.8722 3.25913 16.6923 3.41878C15.2616 4.81216 13.7256 5.84557 11.997 6.57787C10.2658 7.3112 8.37943 7.72601 6.23008 7.84614C5.26412 7.90022 4.49621 8.69864 4.48192 9.66406C4.47605 10.0564 4.46588 10.4115 4.45061 10.7491L4.4501 10.7744C4.3037 18.4679 4.10314 29.0045 16.7612 33.4215C16.7926 33.4325 16.8259 33.4415 16.8599 33.4483L16.8644 33.4492Z" fill="black"/>
</svg>