<svg xmlns="http://www.w3.org/2000/svg" width="45" height="45" viewBox="0 0 45 45" fill="none">
  <g clip-path="url(#clip0_28440_215)">
    <path d="M0.703125 19.7461H13.9409C15.7744 19.7461 17.5303 18.9224 18.7583 17.4863C19.6957 16.39 21.0595 15.7613 22.5 15.7613C23.9405 15.7613 25.3044 16.39 26.2417 17.4863C27.4696 18.9225 29.2255 19.7461 31.0591 19.7461H44.2969C44.6852 19.7461 45 19.4313 45 19.043C45 18.6547 44.6852 18.3399 44.2969 18.3399H31.0591C29.6372 18.3399 28.271 17.6956 27.3106 16.5724C26.1057 15.1632 24.3523 14.355 22.5001 14.355C20.6479 14.355 18.8945 15.1631 17.6896 16.5724C16.7292 17.6956 15.3629 18.3399 13.9411 18.3399H0.703125C0.314824 18.3399 0 18.6547 0 19.043C0 19.4313 0.314824 19.7461 0.703125 19.7461Z" fill="black"/>
    <path d="M44.2969 36.6211H0.703125C0.314824 36.6211 0 36.9359 0 37.3242C0 37.7125 0.314824 38.0273 0.703125 38.0273H44.2969C44.6852 38.0273 45 37.7125 45 37.3242C45 36.9359 44.6852 36.6211 44.2969 36.6211Z" fill="black"/>
    <path d="M0.703125 34.0137H2.29913C2.68743 34.0137 3.00226 33.6988 3.00226 33.3105C3.00226 32.9222 2.68743 32.6074 2.29913 32.6074H0.703125C0.314824 32.6074 0 32.9222 0 33.3105C0 33.6988 0.314824 34.0137 0.703125 34.0137Z" fill="black"/>
    <path d="M6.70312 32.6074C6.31482 32.6074 6 32.9222 6 33.3105C6 33.6988 6.31482 34.0137 6.70312 34.0137H8.29913C8.68743 34.0137 9.00226 33.6988 9.00226 33.3105C9.00226 32.9222 8.68743 32.6074 8.29913 32.6074H6.70312Z" fill="black"/>
    <path d="M12.7021 32.6074C12.3138 32.6074 11.999 32.9222 11.999 33.3105C11.999 33.6988 12.3138 34.0137 12.7021 34.0137H14.2982C14.6865 34.0137 15.0013 33.6988 15.0013 33.3105C15.0013 32.9222 14.6865 32.6074 14.2982 32.6074H12.7021Z" fill="black"/>
    <path d="M18.7021 32.6074C18.3138 32.6074 17.999 32.9222 17.999 33.3105C17.999 33.6988 18.3138 34.0137 18.7021 34.0137H20.2982C20.6865 34.0137 21.0013 33.6988 21.0013 33.3105C21.0013 32.9222 20.6865 32.6074 20.2982 32.6074H18.7021Z" fill="black"/>
    <path d="M24.7021 32.6074C24.3138 32.6074 23.999 32.9222 23.999 33.3105C23.999 33.6988 24.3138 34.0137 24.7021 34.0137H26.2982C26.6865 34.0137 27.0013 33.6988 27.0013 33.3105C27.0013 32.9222 26.6865 32.6074 26.2982 32.6074H24.7021Z" fill="black"/>
    <path d="M30.7012 32.6074C30.3129 32.6074 29.998 32.9222 29.998 33.3105C29.998 33.6988 30.3129 34.0137 30.7012 34.0137H32.2972C32.6855 34.0137 33.0003 33.6988 33.0003 33.3105C33.0003 32.9222 32.6855 32.6074 32.2972 32.6074H30.7012Z" fill="black"/>
    <path d="M36.7012 32.6074C36.3129 32.6074 35.998 32.9222 35.998 33.3105C35.998 33.6988 36.3129 34.0137 36.7012 34.0137H38.2972C38.6855 34.0137 39.0003 33.6988 39.0003 33.3105C39.0003 32.9222 38.6855 32.6074 38.2972 32.6074H36.7012Z" fill="black"/>
    <path d="M44.2972 32.6074H42.7012C42.3129 32.6074 41.998 32.9222 41.998 33.3105C41.998 33.6988 42.3129 34.0137 42.7012 34.0137H44.2972C44.6855 34.0137 45.0003 33.6988 45.0003 33.3105C45.0003 32.9222 44.6855 32.6074 44.2972 32.6074Z" fill="black"/>
    <path d="M26.2616 23.1017C26.2616 22.4356 26.0903 21.7771 25.7662 21.1972C25.7646 21.1943 25.763 21.1916 25.7614 21.1887L23.9845 18.1099C23.6437 17.5197 23.0335 17.1675 22.3521 17.1675C21.6707 17.1675 21.0604 17.5197 20.7196 18.11L18.9429 21.1887C18.9412 21.1915 18.9396 21.1943 18.9381 21.1972C18.6139 21.7771 18.4426 22.4356 18.4426 23.1017C18.4426 25.2573 20.1964 27.0111 22.3522 27.0112C24.5079 27.0112 26.2616 25.2573 26.2616 23.1017ZM19.8489 23.1017C19.8489 22.6768 19.9576 22.257 20.1633 21.8872L21.9375 18.8131C22.0622 18.5971 22.2689 18.5738 22.3521 18.5738C22.4352 18.5738 22.642 18.5971 22.7666 18.8131L24.5409 21.8872C24.7467 22.2571 24.8554 22.6768 24.8554 23.1017C24.8554 24.4819 23.7324 25.6049 22.3522 25.605C20.9719 25.605 19.8489 24.4819 19.8489 23.1017Z" fill="black"/>
    <path d="M22.5 11.2749C22.8883 11.2749 23.2031 10.9601 23.2031 10.5718V7.79297C23.2031 7.40467 22.8883 7.08984 22.5 7.08984C22.1117 7.08984 21.7969 7.40467 21.7969 7.79297V10.5718C21.7969 10.9601 22.1117 11.2749 22.5 11.2749Z" fill="black"/>
    <path d="M26.74 12.5515C26.9297 12.5515 27.1188 12.4753 27.2574 12.3247L29.3143 10.0913C29.5774 9.80566 29.5591 9.36085 29.2735 9.09779C28.9879 8.83473 28.543 8.85302 28.2799 9.13866L26.223 11.372C25.96 11.6577 25.9783 12.1025 26.2639 12.3656C26.399 12.49 26.5698 12.5515 26.74 12.5515V12.5515Z" fill="black"/>
    <path d="M17.7419 12.3249C17.8805 12.4754 18.0696 12.5517 18.2593 12.5517C18.4296 12.5517 18.6003 12.4902 18.7354 12.3658C19.021 12.1028 19.0393 11.658 18.7762 11.3723L16.7193 9.13894C16.4562 8.8532 16.0114 8.83501 15.7258 9.09807C15.4402 9.36112 15.4219 9.80594 15.6849 10.0916L17.7419 12.3249Z" fill="black"/>
    <path d="M43.9952 29.9999C44.3835 29.9999 44.6983 29.6851 44.6983 29.2968C44.6983 28.9085 44.3835 28.5936 43.9952 28.5936C42.0287 28.5936 40.1848 27.5407 39.1822 25.8442C37.9261 23.7299 35.6239 22.4165 33.1739 22.4165C30.724 22.4165 28.4217 23.7299 27.1648 25.8456C26.163 27.5407 24.3191 28.5937 22.3526 28.5937C20.3861 28.5937 18.5422 27.5408 17.5396 25.8443C16.2836 23.73 13.9813 22.4166 11.5313 22.4166C9.08137 22.4166 6.77907 23.73 5.52215 25.8457C4.52037 27.5408 2.67643 28.5938 0.709961 28.5938C0.32166 28.5938 0.00683594 28.9086 0.00683594 29.2969C0.00683594 29.6852 0.32166 30.0001 0.709961 30.0001C3.17134 30.0001 5.47917 28.6824 6.73196 26.5627C7.75114 24.8471 9.54525 23.8229 11.5312 23.8229C13.5172 23.8229 15.3114 24.8471 16.3297 26.5613C17.5834 28.6824 19.8912 30.0001 22.3525 30.0001C24.8138 30.0001 27.1217 28.6824 28.3746 26.5627C29.3938 24.8471 31.1879 23.8229 33.1739 23.8229C35.1598 23.8229 36.9539 24.8471 37.9723 26.5613C39.226 28.6824 41.5337 30.0001 43.9951 30.0001L43.9952 29.9999Z" fill="black"/>
  </g>
  <defs>
    <clipPath id="clip0_28440_215">
      <rect width="45" height="45" fill="white"/>
    </clipPath>
  </defs>
</svg>