<svg xmlns="http://www.w3.org/2000/svg" width="32" height="33" viewBox="0 0 32 33" fill="none">
  <g clip-path="url(#clip0_27958_7605)">
    <path d="M16.0004 17.9496C16.3565 17.9376 16.6959 17.7964 16.9554 17.5523C17.0308 17.4875 17.0773 17.3953 17.0848 17.2961C17.0922 17.1969 17.0599 17.0989 16.9951 17.0235C16.9302 16.9481 16.838 16.9015 16.7388 16.8941C16.6396 16.8867 16.5416 16.919 16.4662 16.9838C16.4085 17.0508 16.337 17.1046 16.2566 17.1414C16.1762 17.1783 16.0889 17.1973 16.0004 17.1973C15.912 17.1973 15.8246 17.1783 15.7443 17.1414C15.6639 17.1046 15.5924 17.0508 15.5347 16.9838C15.4974 16.9517 15.4541 16.9273 15.4073 16.9119C15.3605 16.8965 15.3111 16.8904 15.262 16.8941C15.2129 16.8978 15.165 16.9111 15.1211 16.9333C15.0771 16.9555 15.0379 16.9861 15.0058 17.0235C14.9737 17.0608 14.9492 17.1041 14.9338 17.1509C14.9184 17.1976 14.9124 17.247 14.9161 17.2961C14.9198 17.3452 14.9331 17.3931 14.9553 17.4371C14.9775 17.4811 15.0081 17.5202 15.0454 17.5523C15.3049 17.7964 15.6444 17.9376 16.0004 17.9496Z" fill="black"/>
    <path d="M17.8606 19.2872H17.8563C17.5683 19.3463 17.2722 19.3548 16.9813 19.3122C16.9088 19.3019 16.8378 19.2872 16.7538 19.2719C16.6346 19.2445 16.5114 19.2387 16.3901 19.2547C16.2631 19.277 16.1424 19.3264 16.0363 19.3997C16.0249 19.4061 16.0119 19.4095 15.9988 19.4095C15.9857 19.4095 15.9728 19.4061 15.9613 19.3997C15.8553 19.3265 15.7347 19.277 15.6078 19.2547C15.4864 19.2386 15.3631 19.2445 15.2438 19.2719C15.1598 19.2882 15.0888 19.3019 15.0163 19.3122C14.7254 19.3548 14.4293 19.3463 14.1413 19.2872H14.1368C14.0716 19.2742 14.0038 19.2859 13.9467 19.32C13.8896 19.354 13.8471 19.408 13.8274 19.4716C13.8078 19.5352 13.8124 19.6037 13.8403 19.6641C13.8683 19.7245 13.9176 19.7723 13.9788 19.7984C14.3233 19.9468 14.6961 20.0182 15.0711 20.0074C15.1641 20.0047 15.2581 19.9967 15.3386 19.9904C15.4206 19.9855 15.5016 20.0113 15.5656 20.0629C15.6877 20.1371 15.8272 20.1776 15.9701 20.1802H16.0261C16.1689 20.1776 16.3085 20.1371 16.4306 20.0629C16.4946 20.0113 16.5757 19.9854 16.6578 19.9904C16.7381 19.9967 16.8328 20.0047 16.9251 20.0074C17.3 20.0182 17.6728 19.9468 18.0173 19.7984C18.0786 19.7723 18.128 19.7245 18.156 19.6641C18.184 19.6036 18.1886 19.535 18.1689 19.4714C18.1492 19.4078 18.1066 19.3537 18.0494 19.3197C17.9922 19.2857 17.9244 19.2741 17.8591 19.2872H17.8606Z" fill="black"/>
    <path d="M16.2405 20.6401C16.1666 20.6795 16.0842 20.7001 16.0005 20.7001C15.9167 20.7001 15.8343 20.6795 15.7605 20.6401C15.7158 20.616 15.6668 20.6012 15.6163 20.5965C15.5657 20.5919 15.5148 20.5976 15.4665 20.6132C15.4183 20.6288 15.3737 20.6541 15.3354 20.6874C15.2972 20.7208 15.2662 20.7616 15.2442 20.8073C15.2221 20.853 15.2096 20.9027 15.2074 20.9534C15.2052 21.0041 15.2132 21.0547 15.2311 21.1022C15.249 21.1496 15.2763 21.193 15.3114 21.2296C15.3466 21.2662 15.3888 21.2953 15.4355 21.3151C15.6111 21.4029 15.8048 21.4486 16.0012 21.4486C16.1976 21.4486 16.3913 21.4029 16.567 21.3151C16.6517 21.2693 16.7156 21.1925 16.7453 21.1008C16.775 21.0091 16.7682 20.9095 16.7264 20.8226C16.6846 20.7358 16.6109 20.6684 16.5207 20.6344C16.4305 20.6004 16.3307 20.6025 16.242 20.6401H16.2405Z" fill="black"/>
    <path d="M18.187 12.3694L18.1992 12.3671C18.8327 12.2737 19.4727 12.2314 20.113 12.2406C20.4435 12.2309 20.7744 12.2409 21.1037 12.2704C21.4279 12.2967 21.7484 12.356 22.0605 12.4476L22.0715 12.4511C22.1122 12.464 22.1563 12.4613 22.1951 12.4435C22.234 12.4258 22.2649 12.3943 22.2819 12.3551C22.2989 12.3159 22.3007 12.2718 22.2871 12.2313C22.2735 12.1909 22.2454 12.1568 22.2082 12.1359C21.8892 11.965 21.5496 11.8357 21.1977 11.7511C20.8538 11.661 20.5046 11.592 20.1522 11.5446C19.7963 11.4978 19.436 11.4931 19.079 11.5306C18.7083 11.5638 18.3455 11.6576 18.0052 11.8084C17.9393 11.8389 17.8869 11.8925 17.8579 11.959C17.8288 12.0255 17.8251 12.1004 17.8475 12.1694C17.8698 12.2385 17.9167 12.297 17.9793 12.3338C18.0418 12.3706 18.1157 12.3833 18.187 12.3694Z" fill="black"/>
    <path d="M21.4216 14.4776C21.3685 14.3916 21.2952 14.3198 21.2081 14.2685C21.121 14.2172 21.0226 14.188 20.9216 14.1834C20.7405 14.1755 20.5601 14.2093 20.3941 14.2821L20.2856 14.3291L20.2054 14.3661C20.1499 14.3889 20.0956 14.4131 20.0381 14.4326C19.9269 14.4786 19.8111 14.5161 19.6961 14.5524C19.4719 14.6237 19.2406 14.6708 19.0064 14.6929C18.7962 14.7171 18.5834 14.6972 18.3814 14.6346L18.3466 14.6229C18.2874 14.603 18.2231 14.6045 18.1648 14.627C18.1066 14.6495 18.058 14.6916 18.0274 14.7461C17.9969 14.8005 17.9863 14.864 17.9975 14.9254C18.0087 14.9868 18.041 15.0424 18.0889 15.0826C18.3529 15.2911 18.6794 15.4048 19.0159 15.4054C19.3223 15.4124 19.6277 15.3684 19.9196 15.2751C20.0621 15.2298 20.2015 15.1749 20.3366 15.1109C20.4041 15.0789 20.4699 15.0406 20.5366 15.0039L20.6346 14.9446C20.6656 14.9249 20.6806 14.9121 20.7046 14.8946C20.7816 14.8432 20.8637 14.7999 20.9496 14.7654C21.0267 14.7294 21.1123 14.7162 21.1966 14.7271L21.2431 14.7334C21.2795 14.7383 21.3165 14.7316 21.3489 14.7144C21.3692 14.7036 21.3872 14.689 21.4019 14.6712C21.4165 14.6535 21.4276 14.6331 21.4343 14.6111C21.4411 14.5891 21.4434 14.566 21.4413 14.5431C21.4391 14.5202 21.4324 14.4979 21.4216 14.4776Z" fill="black"/>
    <path d="M13.9924 14.7919C13.9697 14.7244 13.9212 14.6688 13.8575 14.6371C13.7938 14.6055 13.7201 14.6005 13.6527 14.6231L13.6184 14.6346C13.4164 14.6972 13.2035 14.7171 12.9934 14.6929C12.7591 14.6708 12.5279 14.6237 12.3037 14.5524C12.1887 14.5161 12.0729 14.4774 11.9617 14.4326C11.9042 14.4131 11.8499 14.3889 11.7944 14.3661L11.7142 14.3291L11.6057 14.2821C11.4397 14.2093 11.2592 14.1755 11.0782 14.1834C10.9772 14.188 10.8788 14.2172 10.7917 14.2685C10.7045 14.3198 10.6313 14.3916 10.5782 14.4776C10.563 14.5063 10.556 14.5385 10.5579 14.5709C10.5599 14.6032 10.5707 14.6344 10.5893 14.661C10.6078 14.6876 10.6333 14.7085 10.6629 14.7216C10.6926 14.7346 10.7253 14.7392 10.7574 14.7349L10.8039 14.7286C10.8882 14.7177 10.9739 14.7309 11.0509 14.7669C11.1368 14.8014 11.2189 14.8447 11.2959 14.8961C11.3209 14.9129 11.3349 14.9256 11.3659 14.9461L11.4639 15.0054C11.5299 15.0421 11.5957 15.0804 11.6639 15.1124C11.7991 15.1764 11.9384 15.2313 12.0809 15.2766C12.3728 15.3699 12.6783 15.4139 12.9847 15.4069C13.3213 15.4061 13.6479 15.2922 13.9119 15.0834C13.953 15.0484 13.9826 15.002 13.9969 14.95C14.0113 14.898 14.0097 14.8429 13.9924 14.7919Z" fill="black"/>
    <path d="M10.897 12.2704C11.2263 12.2409 11.5571 12.2309 11.8875 12.2406C12.5278 12.2314 13.1678 12.2737 13.8013 12.3671L13.8138 12.3696C13.8849 12.3832 13.9586 12.3702 14.0209 12.3333C14.0832 12.2964 14.1298 12.238 14.1521 12.1691C14.1744 12.1002 14.1708 12.0255 14.1419 11.9591C14.113 11.8927 14.0609 11.8391 13.9953 11.8084C13.6546 11.6575 13.2914 11.5637 12.9203 11.5306C12.5632 11.4931 12.203 11.4978 11.847 11.5446C11.4947 11.592 11.1455 11.661 10.8015 11.7511C10.4497 11.8357 10.1101 11.965 9.79104 12.1359C9.75414 12.157 9.72632 12.191 9.71291 12.2314C9.6995 12.2717 9.70146 12.3156 9.71839 12.3546C9.73532 12.3936 9.76605 12.425 9.80469 12.4428C9.84333 12.4605 9.88716 12.4634 9.92779 12.4509L9.93879 12.4476C10.2513 12.3559 10.5724 12.2965 10.897 12.2704Z" fill="black"/>
    <path d="M28.1926 32.1539C27.7979 31.1203 27.1749 30.1892 26.3701 29.4301C25.6201 28.7356 24.2616 28.2564 23.0023 27.8391C23.1518 27.1098 23.3781 26.3983 23.6773 25.7166C23.7801 25.4776 23.9424 25.2688 24.1488 25.1104C24.8118 24.5901 25.1458 23.9921 25.1351 22.7669C25.1318 22.3684 24.6236 19.3751 23.5328 19.1734C23.3477 19.1382 23.1563 19.1612 22.9848 19.2394C22.9633 19.1786 22.9436 19.1209 22.9231 19.0619C24.0801 18.8429 25.1731 17.6151 25.3598 16.4966C25.4374 16.1446 25.4349 15.7797 25.3523 15.4288C25.2698 15.0779 25.1094 14.7501 24.8831 14.4696C25.3861 12.0446 25.6136 8.69461 24.6418 6.92511C22.7046 3.40061 19.3938 1.21036 16.0003 1.20886C12.6068 1.20736 9.29608 3.40061 7.35959 6.92511C6.38784 8.69386 6.61533 12.0456 7.11834 14.4696C6.89198 14.7501 6.7316 15.0779 6.64908 15.4288C6.56655 15.7797 6.56399 16.1446 6.64159 16.4966C6.82709 17.6151 7.92133 18.8429 9.07833 19.0619C9.05783 19.1209 9.03783 19.1786 9.01658 19.2394C8.84536 19.1611 8.65401 19.138 8.46908 19.1734C7.37783 19.3751 6.86909 22.3684 6.86634 22.7669C6.85559 23.9919 7.18958 24.5904 7.85308 25.1106C8.05979 25.2688 8.2224 25.4775 8.32533 25.7166C8.62491 26.3978 8.85118 27.1088 9.00033 27.8379C7.74458 28.2524 6.38684 28.7294 5.63208 29.4301C4.82723 30.1892 4.2043 31.1203 3.80983 32.1539C3.77487 32.2454 3.77713 32.347 3.81613 32.4369C3.85513 32.5268 3.92777 32.5978 4.0185 32.6349C4.10923 32.6719 4.21084 32.6719 4.30159 32.635C4.39235 32.598 4.46503 32.527 4.50408 32.4371C4.85828 31.5053 5.41819 30.6655 6.14208 29.9801C6.72783 29.4364 7.88433 29.0034 8.95033 28.6449C8.69008 29.4949 7.86959 31.4066 7.54259 32.1434C7.50296 32.2341 7.50087 32.3369 7.53676 32.4292C7.57265 32.5216 7.64362 32.5959 7.73415 32.6361C7.82469 32.6763 7.92744 32.679 8.01999 32.6437C8.11253 32.6084 8.18734 32.5379 8.22808 32.4476C8.28258 32.3246 9.56458 29.4311 9.74933 28.5611C9.97933 27.4756 8.89933 25.1361 8.72958 24.7771C8.4395 23.8917 8.45712 22.9343 8.77958 22.0601L8.99058 21.4939C9.27433 20.7334 9.59558 19.8714 9.83134 19.1839C9.8438 19.1441 9.86825 19.1092 9.90133 19.0839C9.93361 19.0629 9.9706 19.0503 10.009 19.0472C10.0473 19.0441 10.0859 19.0506 10.1211 19.0661C10.1533 19.0813 10.1803 19.1056 10.1989 19.136C10.2175 19.1664 10.2267 19.2015 10.2256 19.2371C10.23 19.3268 10.2284 19.4167 10.2208 19.5061C10.1352 20.4451 9.99828 21.3786 9.81059 22.3026C9.67084 22.9294 10.1881 23.5624 10.6883 24.1744C10.8481 24.3694 10.9986 24.5539 11.1111 24.7189C12.3301 26.5134 11.8756 27.5299 11.5748 28.2021L11.5168 28.3336C11.2566 28.9336 10.6041 31.8809 10.5306 32.2151C10.5197 32.2633 10.5184 32.3132 10.5268 32.362C10.5353 32.4107 10.5533 32.4573 10.5798 32.499C10.6063 32.5407 10.6408 32.5768 10.6813 32.6052C10.7218 32.6335 10.7675 32.6536 10.8158 32.6642C10.8641 32.6748 10.914 32.6758 10.9627 32.667C11.0114 32.6583 11.0578 32.64 11.0994 32.6132C11.141 32.5864 11.1768 32.5517 11.2049 32.511C11.233 32.4703 11.2528 32.4245 11.2631 32.3761C11.5456 31.0929 12.0296 29.0361 12.2048 28.6319L12.2593 28.5086C12.4821 28.0586 12.6164 27.57 12.6551 27.0694C13.7098 26.1816 13.8741 24.9716 13.9346 24.0694C14.5115 24.3296 15.1164 24.5229 15.7373 24.6456C15.8222 24.6661 15.909 24.6778 15.9963 24.6804C16.0945 24.6771 16.192 24.6641 16.2876 24.6416C16.901 24.5201 17.4986 24.3289 18.0686 24.0716C18.1293 24.9731 18.2936 26.1846 19.3488 27.0716C19.3878 27.5711 19.5221 28.0584 19.7443 28.5074L19.7988 28.6306C19.9738 29.0349 20.4578 31.0914 20.7406 32.3749C20.7509 32.4232 20.7707 32.4691 20.7988 32.5098C20.8269 32.5504 20.8627 32.5852 20.9043 32.612C20.9459 32.6387 20.9923 32.657 21.041 32.6658C21.0896 32.6745 21.1396 32.6736 21.1878 32.663C21.2361 32.6523 21.2819 32.6323 21.3224 32.6039C21.3629 32.5756 21.3974 32.5395 21.4239 32.4977C21.4504 32.456 21.4684 32.4094 21.4768 32.3607C21.4853 32.312 21.484 32.2621 21.4731 32.2139C21.3996 31.8796 20.7481 28.9326 20.4868 28.3324L20.4288 28.2009C20.1288 27.5286 19.6736 26.5121 20.8926 24.7176C21.0051 24.5526 21.1556 24.3676 21.3153 24.1731C21.8153 23.5611 22.3328 22.9281 22.1931 22.3011C22.0049 21.3774 21.8674 20.4441 21.7813 19.5054C21.7729 19.4085 21.772 19.3111 21.7788 19.2141C21.7801 19.1822 21.7904 19.1513 21.8085 19.1251C21.8266 19.0988 21.8517 19.0782 21.8811 19.0656C21.9163 19.0501 21.9548 19.0436 21.9932 19.0467C22.0316 19.0498 22.0686 19.0624 22.1008 19.0834C22.134 19.1085 22.1584 19.1435 22.1706 19.1834C22.4076 19.8711 22.7278 20.7334 23.0116 21.4939L23.2226 22.0601C23.545 22.9343 23.5627 23.8917 23.2726 24.7771C23.1023 25.1361 22.0226 27.4756 22.2528 28.5611C22.4376 29.4311 23.7196 32.3246 23.7741 32.4476C23.8148 32.5379 23.8896 32.6084 23.9822 32.6437C24.0747 32.679 24.1775 32.6763 24.268 32.6361C24.3586 32.5959 24.4295 32.5216 24.4654 32.4292C24.5013 32.3369 24.4992 32.2341 24.4596 32.1434C24.1328 31.4071 23.3133 29.4986 23.0526 28.6469C24.1526 29.0169 25.2743 29.4386 25.8596 29.9804C26.5835 30.6655 27.1433 31.5053 27.4973 32.4371C27.5255 32.5061 27.5736 32.5652 27.6355 32.6067C27.6974 32.6483 27.7703 32.6704 27.8448 32.6704C27.8933 32.6704 27.9413 32.661 27.9861 32.6426C28.0318 32.6241 28.0733 32.5968 28.1084 32.5622C28.1435 32.5276 28.1714 32.4864 28.1906 32.441C28.2098 32.3956 28.2199 32.3469 28.2202 32.2976C28.2205 32.2484 28.2111 32.1995 28.1926 32.1539ZM8.28633 21.2316L8.07533 21.7994C7.82892 22.4677 7.73206 23.182 7.79158 23.8919C7.65208 23.5362 7.59235 23.1543 7.61659 22.7731C7.62209 22.0909 8.23983 20.0356 8.60608 19.9106C8.63343 19.9054 8.66165 19.9071 8.68818 19.9155C8.71472 19.9239 8.73874 19.9388 8.75808 19.9589C8.60258 20.3834 8.43909 20.8221 8.28633 21.2316ZM24.6193 16.3741C24.4883 17.1636 23.6693 18.1046 22.8738 18.3079C23.029 17.725 23.1459 17.1327 23.2238 16.5346C23.2575 16.4509 23.3173 16.3803 23.3944 16.3334C23.4715 16.2865 23.5618 16.2659 23.6516 16.2746C23.7008 16.2797 23.7504 16.2749 23.7978 16.2607C23.8451 16.2465 23.8891 16.223 23.9274 16.1917C23.9656 16.1604 23.9973 16.1218 24.0206 16.0782C24.0439 16.0347 24.0583 15.9869 24.0631 15.9377C24.0678 15.8885 24.0628 15.8389 24.0483 15.7916C24.0338 15.7444 24.0101 15.7004 23.9786 15.6624C23.9471 15.6243 23.9083 15.5928 23.8646 15.5698C23.8209 15.5468 23.7731 15.5326 23.7238 15.5281C23.5897 15.5154 23.4544 15.5259 23.3238 15.5594C23.3483 15.226 23.3634 14.885 23.3691 14.5364C23.721 14.546 24.0554 14.6919 24.3018 14.9434C24.4603 15.1419 24.5712 15.374 24.6262 15.622C24.6813 15.8699 24.6789 16.1272 24.6193 16.3741ZM8.01658 7.28636C9.79433 4.05136 12.9281 1.96011 16.0003 1.95886C19.0726 1.95761 22.2066 4.05136 23.9843 7.28636C24.7668 8.71136 24.6711 11.5819 24.2153 13.9824C23.9386 13.8624 23.6418 13.7956 23.3403 13.7854C23.1003 10.5096 22.6378 7.95536 19.9548 7.09361C19.7944 7.04342 19.652 6.94792 19.5446 6.81861C18.3891 5.40861 16.6236 4.67961 15.0466 4.96086C13.6623 5.20811 12.6078 6.18936 12.0768 7.72386C11.4616 9.50261 10.7793 10.0094 10.1768 10.4561C9.42259 11.0164 8.76809 11.5109 8.65059 13.7854C8.35249 13.7964 8.05906 13.8628 7.78533 13.9814C7.33058 11.5816 7.23383 8.71086 8.01658 7.28636ZM7.38134 16.3741C7.32162 16.1273 7.3191 15.8701 7.37395 15.6221C7.4288 15.3741 7.53958 15.142 7.69784 14.9434C7.94942 14.6875 8.29155 14.5409 8.65033 14.5351C8.65658 14.8851 8.67108 15.2291 8.69584 15.5649C8.55897 15.5272 8.4164 15.5148 8.27508 15.5281C8.22587 15.5326 8.17802 15.5468 8.1343 15.5698C8.09057 15.5928 8.05183 15.6243 8.02031 15.6624C7.98878 15.7004 7.9651 15.7444 7.9506 15.7916C7.93611 15.8389 7.9311 15.8885 7.93586 15.9377C7.94062 15.9869 7.95506 16.0347 7.97835 16.0782C8.00163 16.1218 8.0333 16.1604 8.07154 16.1917C8.10978 16.223 8.15383 16.2465 8.20116 16.2607C8.24849 16.2749 8.29817 16.2797 8.34733 16.2746C8.42008 16.2679 8.63784 16.2496 8.80208 16.5834C8.88045 17.1668 8.99619 17.7447 9.14858 18.3134C8.34533 18.1234 7.51383 17.1716 7.38134 16.3741ZM13.2003 23.7716C13.1598 24.4631 13.1051 25.3574 12.5628 26.0821C12.3961 25.4413 12.1136 24.8364 11.7293 24.2971C11.5988 24.1046 11.4378 23.9076 11.2673 23.6991C10.9351 23.2929 10.4803 22.7369 10.5408 22.4656C10.5838 22.2736 10.6441 21.9494 10.7063 21.5761C10.8623 21.773 11.0306 21.9598 11.2103 22.1354C11.809 22.7342 12.4791 23.2572 13.2053 23.6926C13.2041 23.7199 13.2021 23.7436 13.2003 23.7716ZM20.7328 23.6991C20.5623 23.9076 20.4013 24.1046 20.2708 24.2971C19.8869 24.8359 19.6046 25.4402 19.4378 26.0804C18.8963 25.3554 18.8403 24.4631 18.7996 23.7726C18.7981 23.7446 18.7961 23.7206 18.7946 23.6934C19.5209 23.2571 20.191 22.7335 20.7901 22.1344C20.9697 21.9586 21.138 21.7715 21.2938 21.5744C21.3561 21.9479 21.4166 22.2724 21.4596 22.4644C21.5201 22.7369 21.0651 23.2929 20.7328 23.6991ZM21.5753 18.3804C21.4258 18.4467 21.2966 18.5517 21.2012 18.6845C21.1057 18.8174 21.0473 18.9732 21.0321 19.1361C21.0321 19.1361 21.0218 19.3884 21.0321 19.5519C21.0481 19.8121 21.0856 20.1496 21.1321 20.5051C20.8889 20.9025 20.5984 21.2688 20.2668 21.5961C19.2668 22.5654 18.0741 23.5161 16.1396 23.9056C16.0468 23.9241 15.9513 23.9241 15.8586 23.9056C13.9241 23.5161 12.7318 22.5654 11.7313 21.5961C11.4003 21.2688 11.1102 20.9025 10.8673 20.5054C10.9146 20.1499 10.9518 19.8129 10.9673 19.5524C10.9774 19.4258 10.9785 19.2986 10.9706 19.1719C10.9706 19.1696 10.9676 19.1386 10.9673 19.1366C10.9523 18.9738 10.8942 18.8179 10.7989 18.685C10.7037 18.5521 10.5747 18.4469 10.4253 18.3804C10.269 18.3107 10.0972 18.2828 9.92684 18.2996C9.55706 16.9527 9.37856 15.5605 9.39658 14.1639C9.39658 14.1609 9.39658 14.1579 9.39658 14.1549C9.46383 12.0364 9.92533 11.5804 10.6253 11.0589C11.2798 10.5726 12.0948 9.96736 12.7861 7.96961C13.3476 6.34661 14.3971 5.83961 15.1786 5.70011C16.4928 5.46436 17.9786 6.09136 18.9648 7.29511C19.1639 7.53565 19.4281 7.7136 19.7258 7.80761C21.8421 8.48761 22.3601 10.4826 22.6171 14.1826V14.1959C22.6171 14.1959 22.6186 14.2029 22.6191 14.2066C22.6208 14.2316 22.6228 14.2566 22.6246 14.2816C22.6334 15.6407 22.455 16.9946 22.0946 18.3051C21.9179 18.2826 21.7384 18.3087 21.5753 18.3804ZM23.2421 19.9584C23.2608 19.9384 23.2842 19.9233 23.3102 19.9146C23.3361 19.9059 23.3638 19.9037 23.3908 19.9084C23.7603 20.0334 24.3781 22.0894 24.3836 22.7716C24.4074 23.1519 24.3476 23.5328 24.2086 23.8876C24.2675 23.1792 24.1709 22.4665 23.9253 21.7994L23.7141 21.2316C23.5616 20.8221 23.3981 20.3834 23.2428 19.9589L23.2421 19.9584Z" fill="black"/>
    <path d="M10.4809 17.0656C10.3928 17.0439 10.3036 17.0272 10.2136 17.0156C10.1805 17.0101 10.1467 17.0113 10.1141 17.0192C10.0815 17.0271 10.0508 17.0415 10.0239 17.0615C9.99692 17.0815 9.97428 17.1067 9.95729 17.1356C9.9403 17.1645 9.92931 17.1966 9.92496 17.2298C9.92061 17.2631 9.923 17.2969 9.93199 17.3292C9.94098 17.3615 9.95638 17.3917 9.97727 17.4179C9.99816 17.4442 10.0241 17.4659 10.0536 17.4819C10.0831 17.4979 10.1155 17.5078 10.1489 17.5111C10.2205 17.5207 10.2915 17.5341 10.3616 17.5513C10.3812 17.5562 10.4012 17.5586 10.4214 17.5586C10.4824 17.5585 10.5414 17.5361 10.5871 17.4955C10.6327 17.455 10.662 17.3992 10.6693 17.3385C10.6766 17.2779 10.6615 17.2167 10.6268 17.1664C10.5921 17.1162 10.5402 17.0802 10.4809 17.0656Z" fill="black"/>
    <path d="M12.4036 19.5755C12.3708 19.5772 12.3386 19.5853 12.3089 19.5993C12.2793 19.6134 12.2527 19.6332 12.2306 19.6575C12.2086 19.6819 12.1916 19.7103 12.1805 19.7413C12.1695 19.7722 12.1647 19.805 12.1663 19.8378C12.1683 19.877 12.1696 19.9165 12.1693 19.9573C12.1693 19.991 12.1693 20.025 12.1671 20.0573C12.1656 20.0901 12.1705 20.1229 12.1817 20.1537C12.1928 20.1846 12.21 20.213 12.2321 20.2373C12.2542 20.2615 12.2809 20.2812 12.3106 20.2951C12.3404 20.3091 12.3725 20.317 12.4053 20.3185H12.4171C12.4814 20.3186 12.5433 20.2939 12.5899 20.2494C12.6365 20.205 12.6641 20.1443 12.6671 20.08C12.6691 20.0388 12.6698 19.9975 12.6698 19.957C12.6698 19.9085 12.6698 19.86 12.6663 19.8113C12.6627 19.7452 12.6329 19.6833 12.5837 19.6391C12.5344 19.5949 12.4697 19.5721 12.4036 19.5755Z" fill="black"/>
    <path d="M11.4469 17.5279C11.4206 17.5082 11.3907 17.4939 11.3589 17.4857C11.3271 17.4776 11.294 17.4758 11.2615 17.4804C11.229 17.4851 11.1978 17.4961 11.1695 17.5128C11.1413 17.5295 11.1166 17.5516 11.0969 17.5779C11.0772 17.6042 11.0628 17.6341 11.0547 17.6659C11.0465 17.6977 11.0447 17.7308 11.0494 17.7633C11.054 17.7958 11.065 17.827 11.0818 17.8553C11.0985 17.8835 11.1206 17.9082 11.1469 17.9279C11.2054 17.9716 11.2622 18.0185 11.3174 18.0687C11.3666 18.1131 11.4314 18.1363 11.4977 18.1329C11.5639 18.1296 11.6261 18.1001 11.6706 18.0509C11.7151 18.0017 11.7382 17.9369 11.7349 17.8706C11.7316 17.8044 11.7021 17.7421 11.6529 17.6977C11.5869 17.6374 11.5176 17.5804 11.4469 17.5279Z" fill="black"/>
    <path d="M11.964 18.9768C11.9901 19.038 12.0393 19.0863 12.101 19.1111C12.1626 19.1359 12.2316 19.1352 12.2928 19.1091C12.3539 19.083 12.4022 19.0338 12.427 18.9721C12.4518 18.9105 12.4511 18.8415 12.425 18.7803C12.3905 18.6996 12.3523 18.6201 12.3173 18.5553C12.3133 18.5468 12.3048 18.5303 12.2998 18.5226C12.2661 18.4674 12.2122 18.4275 12.1495 18.4116C12.0868 18.3957 12.0204 18.4051 11.9645 18.4376C11.9079 18.4707 11.8663 18.5245 11.8484 18.5876C11.8306 18.6507 11.8379 18.7182 11.8688 18.7761C11.903 18.8416 11.9353 18.9088 11.964 18.9768Z" fill="black"/>
    <path d="M12.2915 20.7879C12.2621 20.7732 12.2301 20.7646 12.1973 20.7623C12.1645 20.7601 12.1316 20.7643 12.1005 20.7748C12.0694 20.7852 12.0406 20.8017 12.0159 20.8233C11.9911 20.8449 11.9708 20.8712 11.9562 20.9006C11.9242 20.965 11.8886 21.0275 11.8495 21.0879C11.8312 21.1154 11.8185 21.1463 11.8122 21.1788C11.8059 21.2113 11.8061 21.2447 11.8128 21.2771C11.8195 21.3095 11.8326 21.3402 11.8513 21.3675C11.8699 21.3948 11.8938 21.4181 11.9216 21.4361C11.9494 21.4541 11.9804 21.4664 12.013 21.4723C12.0455 21.4783 12.0789 21.4776 12.1112 21.4706C12.1435 21.4635 12.1741 21.45 12.2012 21.431C12.2283 21.412 12.2513 21.3878 12.269 21.3599C12.3185 21.2835 12.3636 21.2044 12.404 21.1229C12.4335 21.0635 12.4382 20.9949 12.4171 20.9321C12.396 20.8693 12.3508 20.8174 12.2915 20.7879Z" fill="black"/>
    <path d="M20.5752 17.5279C20.5044 17.5809 20.4355 17.6376 20.3685 17.6979C20.3193 17.7424 20.2898 17.8046 20.2864 17.8708C20.2831 17.9371 20.3062 18.002 20.3507 18.0511C20.3952 18.1003 20.4574 18.1299 20.5237 18.1332C20.5899 18.1365 20.6548 18.1134 20.704 18.0689C20.7593 18.0189 20.8162 17.972 20.8747 17.9282C20.901 17.9085 20.9231 17.8838 20.9399 17.8555C20.9566 17.8273 20.9676 17.796 20.9722 17.7635C20.9769 17.731 20.9751 17.6979 20.9669 17.6661C20.9588 17.6343 20.9444 17.6044 20.9247 17.5782C20.905 17.5519 20.8804 17.5298 20.8521 17.513C20.8239 17.4963 20.7926 17.4853 20.7601 17.4807C20.7276 17.476 20.6945 17.4778 20.6627 17.486C20.6309 17.4941 20.601 17.5085 20.5747 17.5282L20.5752 17.5279Z" fill="black"/>
    <path d="M21.8068 17.0154C21.717 17.027 21.6278 17.0437 21.5398 17.0654C21.4806 17.08 21.4287 17.1158 21.394 17.166C21.3593 17.2162 21.3441 17.2774 21.3514 17.338C21.3587 17.3986 21.3879 17.4544 21.4335 17.495C21.4792 17.5355 21.538 17.558 21.5991 17.5581C21.6192 17.5582 21.6393 17.5557 21.6588 17.5509C21.7291 17.5337 21.8002 17.5202 21.8718 17.5106C21.9052 17.5073 21.9375 17.4974 21.9669 17.4813C21.9963 17.4653 22.0222 17.4435 22.0431 17.4173C22.0639 17.391 22.0792 17.3609 22.0882 17.3286C22.0971 17.2963 22.0995 17.2625 22.0951 17.2293C22.0908 17.1961 22.0798 17.1641 22.0628 17.1352C22.0458 17.1063 22.0232 17.0811 21.9964 17.0612C21.9695 17.0412 21.9388 17.0268 21.9063 17.0189C21.8737 17.011 21.8399 17.01 21.8068 17.0154Z" fill="black"/>
    <path d="M19.7283 19.1084C19.7594 19.1217 19.7928 19.1285 19.8266 19.1284C19.8755 19.1284 19.9234 19.1141 19.9643 19.0871C20.0052 19.0602 20.0373 19.0219 20.0566 18.9769C20.0853 18.9089 20.1174 18.8416 20.1531 18.7751C20.1839 18.7172 20.1912 18.6496 20.1733 18.5865C20.1554 18.5234 20.1137 18.4697 20.0571 18.4366C20.0012 18.4041 19.9348 18.3948 19.8721 18.4107C19.8094 18.4265 19.7555 18.4664 19.7218 18.5216C19.7171 18.5299 19.7083 18.5466 19.7046 18.5544C19.6693 18.6199 19.6313 18.6994 19.5966 18.7794C19.5836 18.8096 19.5766 18.8421 19.5762 18.8751C19.5758 18.908 19.5818 18.9407 19.5941 18.9713C19.6063 19.0018 19.6245 19.0297 19.6475 19.0532C19.6706 19.0767 19.698 19.0955 19.7283 19.1084Z" fill="black"/>
    <path d="M20.0643 20.9006C20.0501 20.8704 20.0301 20.8434 20.0054 20.8211C19.9807 20.7988 19.9517 20.7817 19.9203 20.7707C19.8888 20.7597 19.8555 20.7551 19.8223 20.7572C19.7891 20.7593 19.7566 20.768 19.7267 20.7828C19.6969 20.7976 19.6703 20.8182 19.6486 20.8434C19.6268 20.8686 19.6103 20.8979 19.6001 20.9296C19.5898 20.9613 19.586 20.9947 19.5888 21.0279C19.5916 21.0611 19.601 21.0934 19.6165 21.1228C19.6569 21.2044 19.7019 21.2835 19.7515 21.3598C19.7879 21.4146 19.8445 21.4528 19.9089 21.4661C19.9734 21.4795 20.0404 21.4669 20.0956 21.4311C20.1508 21.3953 20.1897 21.3392 20.2038 21.2749C20.2179 21.2107 20.2061 21.1435 20.171 21.0878C20.132 21.0274 20.0963 20.9649 20.0643 20.9006Z" fill="black"/>
    <path d="M19.6158 20.3199C19.6486 20.3183 19.6808 20.3104 19.7105 20.2964C19.7403 20.2825 19.767 20.2628 19.7891 20.2386C19.8112 20.2143 19.8283 20.1859 19.8395 20.1551C19.8506 20.1242 19.8556 20.0914 19.8541 20.0586C19.8541 20.0251 19.8521 19.9911 19.8521 19.9586C19.8521 19.9179 19.8521 19.8784 19.8548 19.8391C19.8582 19.7728 19.835 19.7079 19.7905 19.6587C19.7459 19.6094 19.6836 19.5799 19.6173 19.5766C19.551 19.5733 19.4861 19.5965 19.4369 19.641C19.3877 19.6855 19.3582 19.7478 19.3548 19.8141C19.3526 19.8629 19.3513 19.9114 19.3516 19.9599C19.3516 20.0004 19.3516 20.0416 19.3541 20.0829C19.3571 20.1471 19.3847 20.2078 19.4313 20.2522C19.4778 20.2967 19.5397 20.3214 19.6041 20.3214L19.6158 20.3199Z" fill="black"/>
  </g>
  <defs>
    <clipPath id="clip0_27958_7605">
      <rect width="32" height="32" fill="white" transform="translate(0 0.880371)"/>
    </clipPath>
  </defs>
</svg>