<svg width="35" height="36" viewBox="0 0 35 36" fill="none" xmlns="http://www.w3.org/2000/svg">
<g id="fi_4299869">
<g id="Group">
<path id="Vector" d="M32.2656 18.5186H20.7812C19.7291 18.5186 18.5937 19.3547 18.5937 20.7061C18.5937 22.0968 18.8929 23.068 19.1816 24.007C19.4419 24.8519 19.6875 25.6493 19.6875 26.7217C19.6875 27.3632 19.53 29.4561 17.5 29.4561C15.47 29.4561 15.3125 27.3632 15.3125 26.7217C15.3125 25.6493 15.558 24.8519 15.8184 24.007C16.1071 23.068 16.4062 22.0968 16.4062 20.7061C16.4062 19.3547 15.2709 18.5186 14.2187 18.5186H2.73437C2.01031 18.5186 2.01085 19.6123 2.73437 19.6123H14.2187C14.6727 19.6123 15.3125 19.9514 15.3125 20.7061C15.3125 21.9321 15.0505 22.7842 14.7727 23.6854C14.5004 24.5697 14.2187 25.4846 14.2187 26.7217C14.2187 28.4875 15.0779 30.5498 17.5 30.5498C19.9221 30.5498 20.7812 28.4875 20.7812 26.7217C20.7812 25.4846 20.4996 24.5697 20.2273 23.6854C19.9494 22.7842 19.6875 21.9321 19.6875 20.7061C19.6875 19.9514 20.3273 19.6123 20.7812 19.6123H32.2656C32.9897 19.6123 32.9891 18.5186 32.2656 18.5186Z" fill="black"/>
<path id="Vector_2" d="M9.84375 10.8623C12.384 10.8623 13.6719 12.1502 13.6719 14.6904C13.6719 15.4145 14.7656 15.4139 14.7656 14.6904C14.7656 12.1502 16.0535 10.8623 18.5937 10.8623C19.3178 10.8623 19.3173 9.76855 18.5937 9.76855C16.0535 9.76855 14.7656 8.48066 14.7656 5.94042C14.7656 5.21636 13.6719 5.21691 13.6719 5.94042C13.6719 8.48066 12.384 9.76855 9.84375 9.76855C9.11968 9.76855 9.12023 10.8623 9.84375 10.8623ZM14.2187 8.54027C14.6119 9.32449 15.2102 9.92222 15.9939 10.3154C15.2097 10.7086 14.6119 11.3069 14.2187 12.0906C13.8255 11.3064 13.2273 10.7086 12.4436 10.3154C13.2278 9.92222 13.8255 9.32449 14.2187 8.54027Z" fill="black"/>
<path id="Vector_3" d="M18.5937 14.1435C20.4334 14.1435 21.3281 15.0382 21.3281 16.8779C21.3281 17.602 22.4219 17.6014 22.4219 16.8779C22.4219 15.0382 23.3166 14.1435 25.1562 14.1435C25.8803 14.1435 25.8798 13.0498 25.1562 13.0498C23.3166 13.0498 22.4219 12.1551 22.4219 10.3154C22.4219 9.59136 21.3281 9.59191 21.3281 10.3154C21.3281 12.1551 20.4334 13.0498 18.5937 13.0498C17.8697 13.0498 17.8702 14.1435 18.5937 14.1435ZM21.875 12.5587C22.1348 12.9891 22.4826 13.3375 22.913 13.5967C22.4826 13.8564 22.1342 14.2043 21.875 14.6346C21.6152 14.2043 21.2674 13.8559 20.837 13.5967C21.2674 13.3369 21.6152 12.9891 21.875 12.5587Z" fill="black"/>
</g>
</g>
</svg>
