<svg width="35" height="36" viewBox="0 0 35 36" fill="none" xmlns="http://www.w3.org/2000/svg">
<g id="fi_16742117">
<path id="Vector" d="M22.0934 26.1037C22.1751 26.15 22.2674 26.1745 22.3613 26.1748C22.4571 26.1754 22.5514 26.1509 22.6348 26.1037L27.5566 23.2927C27.6401 23.2446 27.7093 23.1752 27.7574 23.0916C27.8054 23.0081 27.8305 22.9133 27.8301 22.817V17.1896C27.8305 17.0933 27.8054 16.9985 27.7574 16.915C27.7093 16.8314 27.6401 16.762 27.5566 16.7138L22.9082 14.0615V8.75134C22.9086 8.65498 22.8835 8.56022 22.8355 8.47667C22.7875 8.39312 22.7182 8.32374 22.6348 8.27556L17.7129 5.46463C17.6298 5.41663 17.5354 5.39136 17.4395 5.39136C17.3435 5.39136 17.2492 5.41663 17.166 5.46463L12.2441 8.27556C12.1597 8.32305 12.0893 8.39212 12.0403 8.47572C11.9913 8.55932 11.9654 8.65444 11.9652 8.75134V14.0615L7.32773 16.7138C7.24326 16.7613 7.17292 16.8304 7.12391 16.914C7.07491 16.9976 7.049 17.0927 7.04883 17.1896V22.817C7.049 22.9139 7.07491 23.009 7.12391 23.0926C7.17292 23.1762 7.24326 23.2453 7.32773 23.2927L12.2496 26.1037C12.3327 26.1517 12.427 26.177 12.523 26.177C12.619 26.177 12.7133 26.1517 12.7965 26.1037L17.4449 23.4404L22.0934 26.1037ZM26.7363 17.5068V22.4998L22.3613 24.999L17.9863 22.4998V17.5068L22.3613 15.0076L26.7363 17.5068ZM16.8926 22.4998L12.5176 24.999L8.14258 22.4998V17.5068L12.5176 15.0076L16.8926 17.5068V22.4998ZM13.0645 14.0615V9.06853L17.4395 6.56931L21.8145 9.06853V14.0615C21.8145 14.0615 17.4395 16.5662 17.4395 16.5607L13.0645 14.0615Z" fill="black"/>
<path id="Vector_2" d="M31.8938 17.0529C31.8938 13.2355 30.3773 9.57436 27.6779 6.87501C24.9786 4.17566 21.3175 2.65918 17.5 2.65918C13.6826 2.65918 10.0214 4.17566 7.32209 6.87501C4.62274 9.57436 3.10626 13.2355 3.10626 17.0529C3.10626 17.198 3.16388 17.3371 3.26644 17.4396C3.369 17.5422 3.5081 17.5998 3.65314 17.5998C3.79818 17.5998 3.93728 17.5422 4.03984 17.4396C4.1424 17.3371 4.20001 17.198 4.20001 17.0529C4.20109 14.4227 4.98204 11.8518 6.44412 9.66534C7.9062 7.47888 9.98376 5.77504 12.4141 4.76923C14.8445 3.76342 17.5185 3.50082 20.0981 4.01462C22.6777 4.52842 25.047 5.79556 26.9065 7.65581C28.766 9.51607 30.0321 11.8859 30.5449 14.4657C31.0576 17.0455 30.7939 19.7194 29.7871 22.1493C28.7803 24.5793 27.0756 26.6561 24.8885 28.1173C22.7015 29.5785 20.1303 30.3584 17.5 30.3584C17.2758 30.3584 17.0516 30.3584 16.8274 30.3584L18.1399 29.4451C18.199 29.4037 18.2494 29.3509 18.288 29.2899C18.3267 29.2289 18.3528 29.1608 18.365 29.0897C18.3772 29.0185 18.3752 28.9456 18.3591 28.8752C18.343 28.8048 18.3131 28.7383 18.2711 28.6795C18.2314 28.6179 18.1796 28.5648 18.119 28.5236C18.0583 28.4824 17.99 28.4538 17.918 28.4395C17.8461 28.4252 17.772 28.4255 17.7002 28.4404C17.6284 28.4554 17.5603 28.4846 17.5 28.5264L14.9899 30.2818C14.9187 30.3324 14.8608 30.3992 14.8208 30.4768C14.7808 30.5543 14.7599 30.6403 14.7599 30.7275C14.7599 30.8148 14.7808 30.9008 14.8208 30.9783C14.8608 31.0558 14.9187 31.1227 14.9899 31.1732L17.5 33.1639C17.5962 33.2411 17.7157 33.2835 17.8391 33.2842C17.9525 33.2847 18.0633 33.2498 18.1561 33.1846C18.2489 33.1193 18.3191 33.0267 18.3569 32.9198C18.3948 32.8128 18.3984 32.6967 18.3674 32.5876C18.3363 32.4785 18.2721 32.3817 18.1836 32.3107L17.0899 31.4467H17.5C21.3157 31.4409 24.9734 29.9226 27.6715 27.2245C30.3696 24.5264 31.888 20.8686 31.8938 17.0529Z" fill="black"/>
<path id="Vector_3" d="M9.63634 20.0006C9.63634 20.8708 9.98205 21.7054 10.5974 22.3207C11.2128 22.9361 12.0474 23.2818 12.9176 23.2818C13.6504 23.3584 15.9965 22.5216 15.2418 21.5482C15.191 21.497 15.1305 21.4563 15.0638 21.4285C14.9972 21.4007 14.9257 21.3864 14.8535 21.3864C14.7813 21.3864 14.7099 21.4007 14.6432 21.4285C14.5766 21.4563 14.5161 21.497 14.4653 21.5482C14.262 21.7513 14.0206 21.9123 13.7551 22.0221C13.4895 22.1319 13.2049 22.1883 12.9176 22.1881C12.5574 22.1887 12.2027 22.1003 11.8848 21.9309C11.567 21.7615 11.2959 21.5162 11.0957 21.2168C10.8954 20.9175 10.7722 20.5733 10.7369 20.2149C10.7016 19.8564 10.7554 19.4948 10.8934 19.1622C11.0314 18.8295 11.2495 18.5361 11.5282 18.3079C11.8069 18.0798 12.1376 17.9239 12.491 17.8543C12.8443 17.7847 13.2094 17.8034 13.5539 17.9088C13.8983 18.0141 14.2113 18.2029 14.4653 18.4584C14.5682 18.5613 14.7079 18.6192 14.8535 18.6192C14.9992 18.6192 15.1388 18.5613 15.2418 18.4584C15.3448 18.3554 15.4026 18.2157 15.4026 18.0701C15.4026 17.9244 15.3448 17.7848 15.2418 17.6818C13.2621 15.6146 9.58166 17.1404 9.63634 20.0006Z" fill="black"/>
</g>
</svg>
