<svg xmlns="http://www.w3.org/2000/svg" width="35" height="35" viewBox="0 0 35 35" fill="none">
  <path d="M8.1744 7.4524C8.27571 7.57633 8.42309 7.64052 8.57164 7.64052C8.68573 7.64052 8.80064 7.60258 8.89586 7.52472C9.09588 7.36114 9.30513 7.20384 9.5178 7.05707C9.75083 6.89622 9.80935 6.57698 9.6485 6.34388C9.48772 6.11084 9.16834 6.05219 8.93531 6.21318C8.69995 6.3756 8.46828 6.54978 8.24679 6.73093C8.02756 6.91017 7.99516 7.23317 8.1744 7.4524Z" fill="black"/>
  <path d="M15.5935 5.39934C15.8517 5.41725 16.1119 5.44589 16.3669 5.48459C16.3929 5.48855 16.4188 5.49047 16.4444 5.49047C16.6936 5.49047 16.9122 5.30849 16.9506 5.05461C16.9931 4.77467 16.8006 4.51334 16.5206 4.47082C16.2382 4.42802 15.9501 4.39624 15.6643 4.37648C15.381 4.357 15.137 4.57007 15.1175 4.85254C15.0979 5.13493 15.311 5.37979 15.5935 5.39934Z" fill="black"/>
  <path d="M17.9406 5.86304C18.1856 5.94473 18.4305 6.0377 18.6682 6.13928C18.7339 6.16738 18.8023 6.18064 18.8695 6.18064C19.0686 6.18064 19.258 6.06395 19.3412 5.86933C19.4525 5.60895 19.3316 5.30769 19.0712 5.1964C18.8078 5.08381 18.5364 4.9808 18.2648 4.89022C17.9961 4.80067 17.7058 4.94587 17.6163 5.21452C17.5268 5.48317 17.672 5.77349 17.9406 5.86304Z" fill="black"/>
  <path d="M6.52866 9.36867C6.62019 9.43614 6.72676 9.46861 6.83238 9.46861C6.98974 9.46861 7.14505 9.39642 7.24554 9.26004C7.39873 9.05216 7.56252 8.84777 7.73246 8.65253C7.91833 8.43891 7.89591 8.11509 7.68229 7.92916C7.46866 7.74329 7.14491 7.76578 6.95898 7.97933C6.77092 8.19542 6.58963 8.42162 6.42003 8.65171C6.25214 8.87976 6.30075 9.20071 6.52866 9.36867Z" fill="black"/>
  <path d="M22.6823 7.74739C22.4902 7.53937 22.1658 7.52645 21.9578 7.71854C21.7498 7.91063 21.7369 8.235 21.929 8.44302C22.1043 8.63285 22.274 8.83232 22.4333 9.03576C22.5345 9.16489 22.6851 9.23229 22.8374 9.23229C22.948 9.23229 23.0593 9.19668 23.1532 9.12319C23.3761 8.9486 23.4152 8.62629 23.2406 8.40344C23.0642 8.17826 22.8764 7.95753 22.6823 7.74739Z" fill="black"/>
  <path d="M20.0974 6.90063C20.314 7.0409 20.5279 7.19211 20.7331 7.34995C20.8263 7.42166 20.9363 7.45639 21.0454 7.45639C21.1991 7.45639 21.3511 7.38755 21.452 7.2563C21.6247 7.03188 21.5828 6.70997 21.3584 6.5373C21.1312 6.3625 20.8945 6.19516 20.6546 6.03991C20.4169 5.88604 20.0995 5.95392 19.9456 6.1916C19.7917 6.42936 19.8597 6.74675 20.0974 6.90063Z" fill="black"/>
  <path d="M23.661 11.0892C23.7452 11.2817 23.9334 11.3965 24.1309 11.3965C24.1996 11.3965 24.2694 11.3826 24.3362 11.3533C24.5956 11.2398 24.7138 10.9375 24.6003 10.6781C24.4857 10.4161 24.3586 10.1556 24.2228 9.90372C24.0884 9.65455 23.7775 9.56137 23.5282 9.69583C23.279 9.83023 23.1859 10.1413 23.3203 10.3904C23.4428 10.6177 23.5575 10.8528 23.661 11.0892Z" fill="black"/>
  <path d="M6.17082 9.95266C5.91775 9.82585 5.60972 9.92798 5.48271 10.181C5.35433 10.4371 5.23498 10.7015 5.12806 10.9672C5.02231 11.2298 5.14946 11.5285 5.41216 11.6342C5.47492 11.6595 5.53972 11.6715 5.6035 11.6715C5.80653 11.6715 5.99876 11.5501 6.07922 11.3501C6.17581 11.1104 6.28347 10.8717 6.39934 10.6407C6.52615 10.3877 6.42388 10.0796 6.17082 9.95266Z" fill="black"/>
  <path d="M13.1127 24.2677C12.8589 24.2189 12.6042 24.1589 12.3558 24.0896C12.0833 24.0135 11.8003 24.1727 11.7241 24.4454C11.648 24.7181 11.8072 25.001 12.08 25.0771C12.3553 25.154 12.6377 25.2205 12.919 25.2746C12.9518 25.2809 12.9843 25.284 13.0164 25.284C13.2573 25.284 13.4722 25.1134 13.5193 24.868C13.5728 24.5899 13.3908 24.3212 13.1127 24.2677Z" fill="black"/>
  <path d="M10.7075 6.30188C10.7797 6.30188 10.8529 6.28656 10.9227 6.2543C11.1567 6.14588 11.3983 6.04573 11.6407 5.9568C11.9065 5.85925 12.0429 5.56469 11.9453 5.29884C11.8478 5.03306 11.5531 4.89655 11.2874 4.99423C11.0188 5.09281 10.7511 5.20368 10.4917 5.32386C10.2348 5.44287 10.1229 5.74762 10.2419 6.00458C10.3287 6.19175 10.5139 6.30188 10.7075 6.30188Z" fill="black"/>
  <path d="M13.1101 5.53973C13.1405 5.53973 13.1715 5.537 13.2026 5.53133C13.4563 5.48505 13.7155 5.44868 13.973 5.42311C14.2548 5.39515 14.4606 5.14407 14.4326 4.86229C14.4046 4.58051 14.1532 4.37462 13.8718 4.40271C13.5867 4.43101 13.2997 4.47128 13.0187 4.52255C12.7401 4.57334 12.5555 4.84035 12.6062 5.11891C12.6514 5.36637 12.8671 5.53973 13.1101 5.53973Z" fill="black"/>
  <path d="M10.8386 23.5221C10.6052 23.4112 10.3735 23.2893 10.15 23.1596C9.9051 23.0176 9.59134 23.101 9.44922 23.3459C9.30717 23.5908 9.39056 23.9045 9.6355 24.0466C9.88323 24.1903 10.1399 24.3255 10.3985 24.4483C10.4695 24.4821 10.5445 24.4981 10.6182 24.4981C10.8099 24.4981 10.9939 24.39 11.0816 24.2053C11.2031 23.9495 11.0943 23.6437 10.8386 23.5221Z" fill="black"/>
  <path d="M8.82295 22.2309C8.62464 22.0654 8.4305 21.8896 8.24593 21.7084C8.04392 21.51 7.71929 21.513 7.52091 21.7149C7.32253 21.9169 7.32547 22.2416 7.52747 22.44C7.73173 22.6406 7.94658 22.8351 8.16608 23.0182C8.26199 23.0982 8.37841 23.1372 8.49428 23.1372C8.64104 23.1372 8.78685 23.0745 8.88823 22.953C9.06959 22.7355 9.0404 22.4123 8.82295 22.2309Z" fill="black"/>
  <path d="M6.04466 18.3799C5.9506 18.1394 5.86529 17.8921 5.79125 17.6447C5.71011 17.3734 5.4243 17.2193 5.15312 17.3005C4.88187 17.3816 4.72772 17.6674 4.80893 17.9386C4.89096 18.2128 4.98543 18.487 5.08975 18.7535C5.16891 18.9559 5.36243 19.0795 5.56731 19.0795C5.62945 19.0795 5.69261 19.0681 5.754 19.0441C6.01773 18.941 6.14782 18.6435 6.04466 18.3799Z" fill="black"/>
  <path d="M4.95193 16.6337C4.97237 16.6337 4.99309 16.6325 5.01387 16.63C5.29496 16.5961 5.49546 16.3408 5.46162 16.0597C5.43079 15.8037 5.41008 15.5427 5.40003 15.2839C5.38909 15.001 5.15113 14.7798 4.86785 14.7915C4.58491 14.8024 4.36445 15.0407 4.37539 15.3236C4.38646 15.61 4.40943 15.8989 4.44354 16.1822C4.47485 16.4425 4.69613 16.6337 4.95193 16.6337Z" fill="black"/>
  <path d="M4.89882 14.1076C4.92131 14.1105 4.94353 14.112 4.96561 14.112C5.21929 14.112 5.43975 13.9237 5.47338 13.6654C5.50674 13.409 5.55111 13.1511 5.60518 12.8988C5.66452 12.622 5.48822 12.3494 5.21136 12.29C4.93444 12.2308 4.66189 12.407 4.60255 12.6838C4.5426 12.9632 4.49345 13.249 4.45647 13.533C4.42003 13.8138 4.618 14.0711 4.89882 14.1076Z" fill="black"/>
  <path d="M6.35888 21.08C6.4591 21.2189 6.61591 21.2927 6.77506 21.2927C6.87903 21.2927 6.98396 21.2612 7.07468 21.1957C7.30429 21.03 7.35611 20.7095 7.19034 20.4799C7.03913 20.2704 6.89468 20.052 6.76111 19.8311C6.61468 19.5888 6.29948 19.511 6.05715 19.6575C5.81481 19.804 5.73709 20.1192 5.88358 20.3615C6.03151 20.6062 6.1914 20.848 6.35888 21.08Z" fill="black"/>
  <path d="M30.5807 25.9562C30.2274 25.8723 29.9183 25.7863 29.6447 25.6919C30.1334 24.8599 30.488 23.9347 30.6745 22.9422C30.7267 22.664 30.5435 22.396 30.2653 22.3437C29.9865 22.2913 29.7189 22.4747 29.6667 22.7529C29.4973 23.6548 29.1695 24.4932 28.7172 25.2436C28.0371 24.7704 27.7096 24.0601 27.4058 22.7812C27.3207 22.4233 27.0039 22.1733 26.6352 22.1733C26.2666 22.1733 25.9497 22.4233 25.8647 22.7812C25.3634 24.8911 24.7997 25.4549 22.6897 25.9561C22.3318 26.0412 22.0818 26.358 22.0818 26.7266C22.0818 27.0953 22.3318 27.4121 22.6897 27.4972C23.7152 27.7408 24.3749 27.9997 24.8402 28.4433C24.0259 28.7421 23.1497 28.9052 22.241 28.9052C18.798 28.9052 15.8874 26.5898 14.9797 23.4349C16.9016 23.4222 18.7799 22.7534 20.2744 21.5479C20.4948 21.37 20.5293 21.0473 20.3515 20.8269C20.1737 20.6065 19.8508 20.572 19.6306 20.7498C18.2841 21.8361 16.6566 22.4102 14.924 22.4102C10.7873 22.4102 7.42194 19.0448 7.42194 14.9081C7.42194 10.7714 10.7873 7.40601 14.924 7.40601C19.0607 7.40601 22.4261 10.7714 22.4261 14.9081C22.4261 16.41 21.9841 17.859 21.1476 19.0985C20.9892 19.3333 21.0511 19.6519 21.2858 19.8103C21.5205 19.9687 21.8391 19.9068 21.9975 19.6721C22.9488 18.2625 23.4515 16.6151 23.4515 14.9081C23.4515 14.5606 23.4301 14.2182 23.3895 13.8814C26.7238 14.3886 29.3715 17.0683 29.751 20.5112C29.782 20.7926 30.0353 20.9958 30.3167 20.9646C30.5982 20.9336 30.8012 20.6802 30.7702 20.3988C30.4103 17.1344 28.256 14.4728 25.3516 13.3469C25.3551 13.306 25.354 13.2641 25.3471 13.2217C25.3017 12.939 25.2441 12.6548 25.1757 12.3772C25.108 12.1022 24.8302 11.9343 24.5553 12.0018C24.2804 12.0695 24.1124 12.3472 24.18 12.6222C24.2113 12.7494 24.2401 12.8781 24.2662 13.0074C23.9158 12.9229 23.5574 12.8599 23.1924 12.8197C22.2585 9.12395 18.9058 6.38062 14.924 6.38062C10.2219 6.38062 6.39648 10.206 6.39648 14.9081C6.39648 19.264 9.67958 22.8671 13.9011 23.3741C14.0061 23.8064 14.1439 24.2262 14.3117 24.6303C14.2437 24.7153 14.2016 24.8223 14.1992 24.9396C14.1933 25.2228 14.418 25.457 14.7011 25.4629C14.7046 25.463 14.7082 25.463 14.7117 25.4631C16.1709 28.1233 18.9987 29.9308 22.241 29.9308C23.3632 29.9308 24.4423 29.7128 25.4345 29.3146C25.5994 29.6802 25.7343 30.1237 25.8646 30.6724C25.9497 31.0303 26.2665 31.2803 26.6352 31.2803C27.0038 31.2803 27.3207 31.0303 27.4057 30.6724C27.907 28.5625 28.4708 27.9987 30.5807 27.4974C30.9386 27.4124 31.1886 27.0956 31.1886 26.7269C31.1887 26.3581 30.9387 26.0412 30.5807 25.9562ZM26.6353 29.6046C26.1232 27.9938 25.3682 27.2388 23.7574 26.7267C25.3682 26.2145 26.1232 25.4596 26.6353 23.8488C27.1474 25.4596 27.9024 26.2145 29.5132 26.7267C27.9023 27.2388 27.1474 27.9938 26.6353 29.6046Z" fill="black"/>
  <path d="M14.7616 11.2467C16.0644 11.1873 17.2725 11.8011 17.9923 12.8888C18.1486 13.125 18.4666 13.1896 18.7028 13.0334C18.939 12.8772 19.0037 12.5591 18.8475 12.3229C17.9267 10.9315 16.3809 10.1466 14.7149 10.2223C12.3023 10.3324 10.3396 12.3094 10.2468 14.7234C10.1972 16.0122 10.6613 17.2327 11.5536 18.16C12.4463 19.0876 13.6467 19.5985 14.9338 19.5985C16.512 19.5985 17.975 18.8114 18.8475 17.4929C19.0037 17.2568 18.939 16.9387 18.7028 16.7825C18.4667 16.6261 18.1486 16.6909 17.9924 16.9271C17.3103 17.9578 16.1669 18.5731 14.9338 18.5731C13.9281 18.5731 12.99 18.1739 12.2925 17.449C11.5953 16.7244 11.2327 15.7705 11.2714 14.7627C11.3439 12.8772 12.877 11.3327 14.7616 11.2467Z" fill="black"/>
</svg>