<svg xmlns="http://www.w3.org/2000/svg" width="35" height="35" viewBox="0 0 35 35" fill="none">
  <mask id="path-1-outside-1_28211_3488" maskUnits="userSpaceOnUse" x="5" y="2" width="28" height="31" fill="black">
    <rect fill="white" x="5" y="2" width="28" height="31"/>
    <path d="M17.6601 17.053C18 17.053 18.3229 16.8661 18.4985 16.5716C18.5664 16.4583 18.5268 16.311 18.4135 16.243C18.2945 16.1807 18.1473 16.2147 18.085 16.3337C17.9094 16.6282 17.4222 16.6282 17.2467 16.3337C17.1787 16.2147 17.0314 16.1807 16.9181 16.243C16.8048 16.311 16.7652 16.4583 16.8332 16.5716C16.9974 16.8718 17.3146 17.053 17.6601 17.053Z"/>
    <path d="M18.0284 19.3076C17.9717 19.3643 17.8415 19.4209 17.6602 19.4209C17.479 19.4209 17.3487 19.3643 17.292 19.3076C17.2014 19.2113 17.0428 19.2113 16.9522 19.3019C16.8559 19.3926 16.8502 19.5455 16.9465 19.6418C17.1051 19.8061 17.3713 19.9024 17.6659 19.9024C17.9548 19.9024 18.2266 19.8061 18.3852 19.6418C18.4759 19.5455 18.4759 19.3926 18.3796 19.3019C18.272 19.2113 18.119 19.2113 18.0284 19.3076Z"/>
    <path d="M19.0253 18.1294C18.6458 18.1974 18.0737 18.0784 18.068 18.0784C17.9831 18.0558 17.8811 18.0954 17.8245 18.1691C17.8245 18.1691 17.7508 18.2597 17.6545 18.2597C17.6262 18.2597 17.5922 18.254 17.5639 18.2484C17.5129 18.237 17.4733 18.1974 17.445 18.1577C17.3883 18.0841 17.2977 18.0558 17.2071 18.0671C17.0428 18.1011 16.618 18.1804 16.3178 18.0841C16.1875 18.0558 16.0572 18.1181 16.0176 18.2484C15.9779 18.3786 16.0516 18.5089 16.1818 18.5486C16.533 18.6505 16.9918 18.6109 17.2241 18.5769C17.3204 18.6675 17.462 18.7412 17.6659 18.7412C17.8641 18.7412 18.0114 18.6562 18.1077 18.5769C18.3229 18.6109 18.7704 18.6732 19.1159 18.6109C19.2462 18.5882 19.3368 18.4636 19.3142 18.3277C19.2802 18.1974 19.1499 18.1124 19.0253 18.1294Z"/>
    <path d="M21.7042 13.4336C21.5966 13.4903 21.4323 13.5299 21.3247 13.5469C21.1831 13.4733 20.8716 13.343 20.5204 13.343C19.9653 13.343 19.4895 13.6942 19.4725 13.7055C19.3649 13.7848 19.3422 13.9377 19.4215 14.0397C19.4668 14.102 19.5405 14.136 19.6141 14.136C19.6651 14.136 19.7161 14.119 19.7557 14.0907C19.7557 14.0907 19.8463 14.0227 19.9823 13.9604C19.9086 14.0624 19.8407 14.17 19.8407 14.3003C19.8407 14.6288 20.1069 14.9007 20.4411 14.9007C20.7753 14.9007 21.0415 14.6345 21.0415 14.3003C21.0415 14.136 20.9735 13.9887 20.8659 13.8811C21.0302 13.9321 21.1548 14.0001 21.1548 14.0001C21.2001 14.0284 21.2454 14.0397 21.3077 14.034C21.3474 14.0284 21.6872 13.9887 21.9308 13.8528C22.0497 13.7905 22.0894 13.6432 22.0271 13.5243C21.9704 13.411 21.8232 13.3713 21.7042 13.4336Z"/>
    <path d="M19.0761 12.9638C19.1271 12.9638 19.1781 12.9468 19.2177 12.9185C19.4613 12.7429 19.9711 12.4257 20.6281 12.4936C20.9453 12.5106 21.2569 12.6013 21.5571 12.7655C21.676 12.8278 21.8233 12.7882 21.8856 12.6692C21.9479 12.5503 21.9082 12.403 21.7893 12.3407C21.4324 12.1424 21.0473 12.0292 20.6564 12.0065C19.8634 11.9838 19.229 12.3067 18.9345 12.522C18.8269 12.6013 18.8042 12.7542 18.8778 12.8618C18.9288 12.9298 19.0025 12.9638 19.0761 12.9638Z"/>
    <path d="M14.7935 13.343C14.4423 13.343 14.1308 13.4733 13.9892 13.5469C13.8872 13.5299 13.723 13.4903 13.6097 13.4336C13.4907 13.3713 13.3435 13.411 13.2812 13.5299C13.2188 13.6489 13.2585 13.7961 13.3774 13.8584C13.6267 13.9944 13.9665 14.0397 14.0005 14.0397C14.0628 14.051 14.1081 14.034 14.1535 14.0057C14.1535 14.0057 14.2781 13.9377 14.448 13.8868C14.3404 13.9944 14.2724 14.1417 14.2724 14.3059C14.2724 14.6345 14.5386 14.9063 14.8728 14.9063C15.207 14.9063 15.4732 14.6401 15.4732 14.3059C15.4732 14.17 15.4053 14.0624 15.3316 13.9661C15.4676 14.0284 15.5525 14.0963 15.5582 14.0963C15.6035 14.1303 15.6545 14.1417 15.6998 14.1417C15.7734 14.1417 15.8471 14.1077 15.8924 14.0454C15.9717 13.9377 15.949 13.7905 15.8414 13.7112C15.8244 13.6942 15.3543 13.343 14.7935 13.343Z"/>
    <path d="M13.7621 12.7654C14.0566 12.6011 14.3681 12.5105 14.691 12.4935C15.3594 12.4255 15.8579 12.7427 16.1014 12.9183C16.1467 12.9466 16.192 12.9636 16.243 12.9636C16.3167 12.9636 16.3903 12.9296 16.4413 12.8617C16.5206 12.754 16.4979 12.6011 16.3846 12.5218C16.0901 12.3066 15.4953 11.978 14.6627 12.0064C14.2719 12.029 13.8923 12.1423 13.5298 12.3405C13.4109 12.4029 13.3712 12.5501 13.4335 12.6691C13.4958 12.788 13.6431 12.8277 13.7621 12.7654Z"/>
    <path d="M26.9547 26.5011C26.8981 25.289 26.4109 14.5891 26.0428 10.8734C25.4707 5.06747 21.3357 3 17.6596 3C13.9608 3 9.98449 5.49229 9.42939 11.0603C8.6194 19.1999 8.42681 25.4589 8.40416 26.4105C7.20899 27.0449 5.88355 28.342 6.00816 30.9419V31.7576C6.00816 31.8936 6.11578 32.0012 6.25173 32.0012C6.38767 32.0012 6.49529 31.8936 6.49529 31.7576V30.9306C6.37634 28.4836 7.65647 27.3168 8.75534 26.773C9.19716 26.5521 9.92219 26.3029 10.7605 26.014C11.6555 25.7081 12.743 25.3116 13.8702 24.8472C14.0005 26.1613 15.6544 27.2092 17.6879 27.2092C19.6818 27.2092 21.3017 26.2066 21.4943 24.9265C22.3893 25.34 23.4598 25.6968 24.4398 26.0084C25.2271 26.2632 25.9068 26.4842 26.292 26.6767C27.3852 27.2262 28.671 28.393 28.552 30.8513L28.5124 31.7633C28.5124 31.8992 28.62 32.0068 28.756 32.0068C28.8919 32.0068 28.9995 31.8992 28.9995 31.7633L29.0392 30.8626C29.1411 28.4836 28.0536 27.1979 26.9547 26.5011ZM10.5962 25.5552C9.8882 25.7988 9.34443 25.997 8.89695 26.1896C8.94226 24.6886 9.15184 18.7297 9.91652 11.1113C10.4376 5.84347 14.1817 3.48146 17.6596 3.48146C18.3167 3.48146 18.9851 3.57776 19.6478 3.73069C18.6962 4.81257 18.1694 5.80949 17.8918 6.55718C17.5407 6.60815 16.6457 6.7441 16.2945 6.92535C15.7621 7.2029 15.4562 7.4578 15.0314 7.98458C14.7312 8.35842 14.6179 8.63031 14.4933 8.94751C14.3913 9.2024 14.2724 9.49128 14.0231 9.90477C13.7116 10.4259 13.3547 11.015 12.6637 11.4455C12.3182 11.6607 11.848 11.9666 11.6555 12.5047C11.4742 12.3461 11.2476 12.2385 10.9927 12.2385C10.415 12.2385 9.93918 12.7369 9.93918 13.3543V13.7791C9.93918 14.8667 10.7548 15.739 11.7801 15.8296C12.3692 19.3302 14.0911 20.9048 15.5015 21.6752C15.4902 21.7035 15.4675 21.7205 15.4675 21.7488C15.4675 22.9723 14.8671 23.8842 14.2724 24.1448C12.9526 24.7452 11.6441 25.1984 10.5962 25.5552ZM23.7431 13.3883C23.7431 13.0371 23.9696 12.7313 24.2868 12.7313C24.5984 12.7313 24.8533 13.0145 24.8533 13.3657V13.7905C24.8533 14.5665 24.3151 15.1896 23.6128 15.3312C23.6807 14.7364 23.7431 13.394 23.7431 13.3883ZM18.243 21.8338L17.9825 21.9244C17.7672 21.998 17.5463 21.998 17.3367 21.9244L17.1498 21.8564C15.6261 21.324 12.0633 20.0722 12.0633 13.1787C12.0633 13.1787 12.0633 13.1617 12.0633 13.1561C11.9953 12.4367 12.4655 12.1422 12.9413 11.842C13.7116 11.3605 14.1138 10.6921 14.4423 10.154C14.7142 9.70652 14.8388 9.40065 14.9464 9.12876C15.0654 8.83422 15.1617 8.60198 15.4165 8.28478C15.7961 7.81465 16.0509 7.59374 16.5211 7.35584C16.7363 7.24255 17.4104 7.11794 17.9032 7.0443C17.9938 7.40115 18.1128 7.80898 18.3053 8.22248C18.9624 9.64988 19.6138 10.12 20.7976 10.9753C21.0582 11.1622 21.3471 11.3718 21.6756 11.6154C21.7662 11.6834 21.8965 11.757 22.0438 11.842C22.5026 12.0969 23.1313 12.4537 23.2559 13.2071C23.2446 20.1288 19.7384 21.324 18.243 21.8338ZM11.7121 15.3368C10.9871 15.2122 10.4263 14.5778 10.4263 13.7848V13.36C10.4263 13.0088 10.6812 12.7256 10.9927 12.7256C11.3043 12.7256 11.5705 13.0088 11.5705 13.36C11.5762 13.3657 11.6385 14.7364 11.7121 15.3368ZM17.6766 26.7221C15.847 26.7221 14.3573 25.8271 14.3177 24.7226C14.3177 24.7169 14.3177 24.6886 14.3177 24.6603C14.3687 24.6376 14.4196 24.6206 14.4763 24.5979C15.3146 24.2241 15.898 23.1309 15.9433 21.9017C16.3455 22.0887 16.708 22.2189 16.9856 22.3152L17.1725 22.3775C17.3311 22.4342 17.4953 22.4625 17.6596 22.4625C17.8239 22.4625 17.9881 22.4342 18.1467 22.3775L18.396 22.2926C18.6679 22.2019 19.0077 22.083 19.3759 21.9187C19.4325 23.2045 20.1179 24.1788 20.8146 24.5866C20.8826 24.6263 20.9619 24.6603 21.0355 24.6999C21.0185 25.8158 19.5232 26.7221 17.6766 26.7221ZM24.5757 25.5495C23.3635 25.1587 21.9928 24.7112 21.0525 24.1675C20.4464 23.8163 19.8347 22.9383 19.8347 21.7601C19.8347 21.7431 19.8177 21.7261 19.812 21.7092C21.2451 20.9615 22.967 19.4321 23.5335 15.824C24.5361 15.705 25.3234 14.8554 25.3234 13.7848V13.36C25.3234 12.7426 24.8533 12.2441 24.2698 12.2441C23.9753 12.2441 23.7204 12.3801 23.5335 12.5896C23.2333 11.9836 22.6725 11.655 22.2647 11.4228C22.1401 11.3548 22.0324 11.2925 21.9531 11.2359C21.6246 10.9867 21.3301 10.7771 21.0695 10.5845C19.914 9.75184 19.3362 9.33268 18.7302 8.01856C18.5262 7.58241 18.413 7.14626 18.3223 6.76675C18.6055 6.01907 19.138 4.9825 20.1802 3.84964C22.8028 4.63132 25.1535 6.75543 25.567 10.9187C25.9125 14.4135 26.3656 24.1221 26.4619 26.2236C26.0314 26.0197 25.363 25.8044 24.5757 25.5495Z"/>
    <path d="M29.9972 16C29.9144 16 29.8349 15.9656 29.7763 15.9044C29.7177 15.8432 29.6848 15.7602 29.6848 15.6737C29.6848 14.6538 29.0711 13.8263 28.3124 13.8263C28.2714 13.8263 28.2308 13.8179 28.1929 13.8015C28.155 13.7851 28.1205 13.7611 28.0915 13.7308C28.0625 13.7005 28.0395 13.6645 28.0238 13.6249C28.0081 13.5853 28 13.5429 28 13.5C28 13.4571 28.0081 13.4147 28.0238 13.3751C28.0395 13.3355 28.0625 13.2995 28.0915 13.2692C28.1205 13.2389 28.155 13.2149 28.1929 13.1985C28.2308 13.1821 28.2714 13.1737 28.3124 13.1737C29.0711 13.1737 29.6848 12.3462 29.6848 11.3263C29.6848 11.2398 29.7177 11.1568 29.7763 11.0956C29.8349 11.0344 29.9144 11 29.9972 11C30.0801 11 30.1595 11.0344 30.2181 11.0956C30.2767 11.1568 30.3096 11.2398 30.3096 11.3263C30.3096 12.3462 30.9289 13.1737 31.6876 13.1737C31.7704 13.1737 31.8499 13.208 31.9085 13.2692C31.9671 13.3304 32 13.4134 32 13.5C32 13.5866 31.9671 13.6696 31.9085 13.7308C31.8499 13.792 31.7704 13.8263 31.6876 13.8263C30.9289 13.8263 30.3096 14.6538 30.3096 15.6737C30.3096 15.7602 30.2767 15.8432 30.2181 15.9044C30.1595 15.9656 30.0801 16 29.9972 16ZM29.2999 13.4883C29.5923 13.702 29.8314 13.9857 29.9972 14.3158C30.1666 13.9883 30.405 13.7053 30.6946 13.4883C30.405 13.2713 30.1666 12.9884 29.9972 12.6608C29.8314 12.991 29.5923 13.2747 29.2999 13.4883Z"/>
  </mask>
  <path d="M17.6601 17.053C18 17.053 18.3229 16.8661 18.4985 16.5716C18.5664 16.4583 18.5268 16.311 18.4135 16.243C18.2945 16.1807 18.1473 16.2147 18.085 16.3337C17.9094 16.6282 17.4222 16.6282 17.2467 16.3337C17.1787 16.2147 17.0314 16.1807 16.9181 16.243C16.8048 16.311 16.7652 16.4583 16.8332 16.5716C16.9974 16.8718 17.3146 17.053 17.6601 17.053Z" fill="black"/>
  <path d="M18.0284 19.3076C17.9717 19.3643 17.8415 19.4209 17.6602 19.4209C17.479 19.4209 17.3487 19.3643 17.292 19.3076C17.2014 19.2113 17.0428 19.2113 16.9522 19.3019C16.8559 19.3926 16.8502 19.5455 16.9465 19.6418C17.1051 19.8061 17.3713 19.9024 17.6659 19.9024C17.9548 19.9024 18.2266 19.8061 18.3852 19.6418C18.4759 19.5455 18.4759 19.3926 18.3796 19.3019C18.272 19.2113 18.119 19.2113 18.0284 19.3076Z" fill="black"/>
  <path d="M19.0253 18.1294C18.6458 18.1974 18.0737 18.0784 18.068 18.0784C17.9831 18.0558 17.8811 18.0954 17.8245 18.1691C17.8245 18.1691 17.7508 18.2597 17.6545 18.2597C17.6262 18.2597 17.5922 18.254 17.5639 18.2484C17.5129 18.237 17.4733 18.1974 17.445 18.1577C17.3883 18.0841 17.2977 18.0558 17.2071 18.0671C17.0428 18.1011 16.618 18.1804 16.3178 18.0841C16.1875 18.0558 16.0572 18.1181 16.0176 18.2484C15.9779 18.3786 16.0516 18.5089 16.1818 18.5486C16.533 18.6505 16.9918 18.6109 17.2241 18.5769C17.3204 18.6675 17.462 18.7412 17.6659 18.7412C17.8641 18.7412 18.0114 18.6562 18.1077 18.5769C18.3229 18.6109 18.7704 18.6732 19.1159 18.6109C19.2462 18.5882 19.3368 18.4636 19.3142 18.3277C19.2802 18.1974 19.1499 18.1124 19.0253 18.1294Z" fill="black"/>
  <path d="M21.7042 13.4336C21.5966 13.4903 21.4323 13.5299 21.3247 13.5469C21.1831 13.4733 20.8716 13.343 20.5204 13.343C19.9653 13.343 19.4895 13.6942 19.4725 13.7055C19.3649 13.7848 19.3422 13.9377 19.4215 14.0397C19.4668 14.102 19.5405 14.136 19.6141 14.136C19.6651 14.136 19.7161 14.119 19.7557 14.0907C19.7557 14.0907 19.8463 14.0227 19.9823 13.9604C19.9086 14.0624 19.8407 14.17 19.8407 14.3003C19.8407 14.6288 20.1069 14.9007 20.4411 14.9007C20.7753 14.9007 21.0415 14.6345 21.0415 14.3003C21.0415 14.136 20.9735 13.9887 20.8659 13.8811C21.0302 13.9321 21.1548 14.0001 21.1548 14.0001C21.2001 14.0284 21.2454 14.0397 21.3077 14.034C21.3474 14.0284 21.6872 13.9887 21.9308 13.8528C22.0497 13.7905 22.0894 13.6432 22.0271 13.5243C21.9704 13.411 21.8232 13.3713 21.7042 13.4336Z" fill="black"/>
  <path d="M19.0761 12.9638C19.1271 12.9638 19.1781 12.9468 19.2177 12.9185C19.4613 12.7429 19.9711 12.4257 20.6281 12.4936C20.9453 12.5106 21.2569 12.6013 21.5571 12.7655C21.676 12.8278 21.8233 12.7882 21.8856 12.6692C21.9479 12.5503 21.9082 12.403 21.7893 12.3407C21.4324 12.1424 21.0473 12.0292 20.6564 12.0065C19.8634 11.9838 19.229 12.3067 18.9345 12.522C18.8269 12.6013 18.8042 12.7542 18.8778 12.8618C18.9288 12.9298 19.0025 12.9638 19.0761 12.9638Z" fill="black"/>
  <path d="M14.7935 13.343C14.4423 13.343 14.1308 13.4733 13.9892 13.5469C13.8872 13.5299 13.723 13.4903 13.6097 13.4336C13.4907 13.3713 13.3435 13.411 13.2812 13.5299C13.2188 13.6489 13.2585 13.7961 13.3774 13.8584C13.6267 13.9944 13.9665 14.0397 14.0005 14.0397C14.0628 14.051 14.1081 14.034 14.1535 14.0057C14.1535 14.0057 14.2781 13.9377 14.448 13.8868C14.3404 13.9944 14.2724 14.1417 14.2724 14.3059C14.2724 14.6345 14.5386 14.9063 14.8728 14.9063C15.207 14.9063 15.4732 14.6401 15.4732 14.3059C15.4732 14.17 15.4053 14.0624 15.3316 13.9661C15.4676 14.0284 15.5525 14.0963 15.5582 14.0963C15.6035 14.1303 15.6545 14.1417 15.6998 14.1417C15.7734 14.1417 15.8471 14.1077 15.8924 14.0454C15.9717 13.9377 15.949 13.7905 15.8414 13.7112C15.8244 13.6942 15.3543 13.343 14.7935 13.343Z" fill="black"/>
  <path d="M13.7621 12.7654C14.0566 12.6011 14.3681 12.5105 14.691 12.4935C15.3594 12.4255 15.8579 12.7427 16.1014 12.9183C16.1467 12.9466 16.192 12.9636 16.243 12.9636C16.3167 12.9636 16.3903 12.9296 16.4413 12.8617C16.5206 12.754 16.4979 12.6011 16.3846 12.5218C16.0901 12.3066 15.4953 11.978 14.6627 12.0064C14.2719 12.029 13.8923 12.1423 13.5298 12.3405C13.4109 12.4029 13.3712 12.5501 13.4335 12.6691C13.4958 12.788 13.6431 12.8277 13.7621 12.7654Z" fill="black"/>
  <path d="M26.9547 26.5011C26.8981 25.289 26.4109 14.5891 26.0428 10.8734C25.4707 5.06747 21.3357 3 17.6596 3C13.9608 3 9.98449 5.49229 9.42939 11.0603C8.6194 19.1999 8.42681 25.4589 8.40416 26.4105C7.20899 27.0449 5.88355 28.342 6.00816 30.9419V31.7576C6.00816 31.8936 6.11578 32.0012 6.25173 32.0012C6.38767 32.0012 6.49529 31.8936 6.49529 31.7576V30.9306C6.37634 28.4836 7.65647 27.3168 8.75534 26.773C9.19716 26.5521 9.92219 26.3029 10.7605 26.014C11.6555 25.7081 12.743 25.3116 13.8702 24.8472C14.0005 26.1613 15.6544 27.2092 17.6879 27.2092C19.6818 27.2092 21.3017 26.2066 21.4943 24.9265C22.3893 25.34 23.4598 25.6968 24.4398 26.0084C25.2271 26.2632 25.9068 26.4842 26.292 26.6767C27.3852 27.2262 28.671 28.393 28.552 30.8513L28.5124 31.7633C28.5124 31.8992 28.62 32.0068 28.756 32.0068C28.8919 32.0068 28.9995 31.8992 28.9995 31.7633L29.0392 30.8626C29.1411 28.4836 28.0536 27.1979 26.9547 26.5011ZM10.5962 25.5552C9.8882 25.7988 9.34443 25.997 8.89695 26.1896C8.94226 24.6886 9.15184 18.7297 9.91652 11.1113C10.4376 5.84347 14.1817 3.48146 17.6596 3.48146C18.3167 3.48146 18.9851 3.57776 19.6478 3.73069C18.6962 4.81257 18.1694 5.80949 17.8918 6.55718C17.5407 6.60815 16.6457 6.7441 16.2945 6.92535C15.7621 7.2029 15.4562 7.4578 15.0314 7.98458C14.7312 8.35842 14.6179 8.63031 14.4933 8.94751C14.3913 9.2024 14.2724 9.49128 14.0231 9.90477C13.7116 10.4259 13.3547 11.015 12.6637 11.4455C12.3182 11.6607 11.848 11.9666 11.6555 12.5047C11.4742 12.3461 11.2476 12.2385 10.9927 12.2385C10.415 12.2385 9.93918 12.7369 9.93918 13.3543V13.7791C9.93918 14.8667 10.7548 15.739 11.7801 15.8296C12.3692 19.3302 14.0911 20.9048 15.5015 21.6752C15.4902 21.7035 15.4675 21.7205 15.4675 21.7488C15.4675 22.9723 14.8671 23.8842 14.2724 24.1448C12.9526 24.7452 11.6441 25.1984 10.5962 25.5552ZM23.7431 13.3883C23.7431 13.0371 23.9696 12.7313 24.2868 12.7313C24.5984 12.7313 24.8533 13.0145 24.8533 13.3657V13.7905C24.8533 14.5665 24.3151 15.1896 23.6128 15.3312C23.6807 14.7364 23.7431 13.394 23.7431 13.3883ZM18.243 21.8338L17.9825 21.9244C17.7672 21.998 17.5463 21.998 17.3367 21.9244L17.1498 21.8564C15.6261 21.324 12.0633 20.0722 12.0633 13.1787C12.0633 13.1787 12.0633 13.1617 12.0633 13.1561C11.9953 12.4367 12.4655 12.1422 12.9413 11.842C13.7116 11.3605 14.1138 10.6921 14.4423 10.154C14.7142 9.70652 14.8388 9.40065 14.9464 9.12876C15.0654 8.83422 15.1617 8.60198 15.4165 8.28478C15.7961 7.81465 16.0509 7.59374 16.5211 7.35584C16.7363 7.24255 17.4104 7.11794 17.9032 7.0443C17.9938 7.40115 18.1128 7.80898 18.3053 8.22248C18.9624 9.64988 19.6138 10.12 20.7976 10.9753C21.0582 11.1622 21.3471 11.3718 21.6756 11.6154C21.7662 11.6834 21.8965 11.757 22.0438 11.842C22.5026 12.0969 23.1313 12.4537 23.2559 13.2071C23.2446 20.1288 19.7384 21.324 18.243 21.8338ZM11.7121 15.3368C10.9871 15.2122 10.4263 14.5778 10.4263 13.7848V13.36C10.4263 13.0088 10.6812 12.7256 10.9927 12.7256C11.3043 12.7256 11.5705 13.0088 11.5705 13.36C11.5762 13.3657 11.6385 14.7364 11.7121 15.3368ZM17.6766 26.7221C15.847 26.7221 14.3573 25.8271 14.3177 24.7226C14.3177 24.7169 14.3177 24.6886 14.3177 24.6603C14.3687 24.6376 14.4196 24.6206 14.4763 24.5979C15.3146 24.2241 15.898 23.1309 15.9433 21.9017C16.3455 22.0887 16.708 22.2189 16.9856 22.3152L17.1725 22.3775C17.3311 22.4342 17.4953 22.4625 17.6596 22.4625C17.8239 22.4625 17.9881 22.4342 18.1467 22.3775L18.396 22.2926C18.6679 22.2019 19.0077 22.083 19.3759 21.9187C19.4325 23.2045 20.1179 24.1788 20.8146 24.5866C20.8826 24.6263 20.9619 24.6603 21.0355 24.6999C21.0185 25.8158 19.5232 26.7221 17.6766 26.7221ZM24.5757 25.5495C23.3635 25.1587 21.9928 24.7112 21.0525 24.1675C20.4464 23.8163 19.8347 22.9383 19.8347 21.7601C19.8347 21.7431 19.8177 21.7261 19.812 21.7092C21.2451 20.9615 22.967 19.4321 23.5335 15.824C24.5361 15.705 25.3234 14.8554 25.3234 13.7848V13.36C25.3234 12.7426 24.8533 12.2441 24.2698 12.2441C23.9753 12.2441 23.7204 12.3801 23.5335 12.5896C23.2333 11.9836 22.6725 11.655 22.2647 11.4228C22.1401 11.3548 22.0324 11.2925 21.9531 11.2359C21.6246 10.9867 21.3301 10.7771 21.0695 10.5845C19.914 9.75184 19.3362 9.33268 18.7302 8.01856C18.5262 7.58241 18.413 7.14626 18.3223 6.76675C18.6055 6.01907 19.138 4.9825 20.1802 3.84964C22.8028 4.63132 25.1535 6.75543 25.567 10.9187C25.9125 14.4135 26.3656 24.1221 26.4619 26.2236C26.0314 26.0197 25.363 25.8044 24.5757 25.5495Z" fill="black"/>
  <path d="M29.9972 16C29.9144 16 29.8349 15.9656 29.7763 15.9044C29.7177 15.8432 29.6848 15.7602 29.6848 15.6737C29.6848 14.6538 29.0711 13.8263 28.3124 13.8263C28.2714 13.8263 28.2308 13.8179 28.1929 13.8015C28.155 13.7851 28.1205 13.7611 28.0915 13.7308C28.0625 13.7005 28.0395 13.6645 28.0238 13.6249C28.0081 13.5853 28 13.5429 28 13.5C28 13.4571 28.0081 13.4147 28.0238 13.3751C28.0395 13.3355 28.0625 13.2995 28.0915 13.2692C28.1205 13.2389 28.155 13.2149 28.1929 13.1985C28.2308 13.1821 28.2714 13.1737 28.3124 13.1737C29.0711 13.1737 29.6848 12.3462 29.6848 11.3263C29.6848 11.2398 29.7177 11.1568 29.7763 11.0956C29.8349 11.0344 29.9144 11 29.9972 11C30.0801 11 30.1595 11.0344 30.2181 11.0956C30.2767 11.1568 30.3096 11.2398 30.3096 11.3263C30.3096 12.3462 30.9289 13.1737 31.6876 13.1737C31.7704 13.1737 31.8499 13.208 31.9085 13.2692C31.9671 13.3304 32 13.4134 32 13.5C32 13.5866 31.9671 13.6696 31.9085 13.7308C31.8499 13.792 31.7704 13.8263 31.6876 13.8263C30.9289 13.8263 30.3096 14.6538 30.3096 15.6737C30.3096 15.7602 30.2767 15.8432 30.2181 15.9044C30.1595 15.9656 30.0801 16 29.9972 16ZM29.2999 13.4883C29.5923 13.702 29.8314 13.9857 29.9972 14.3158C30.1666 13.9883 30.405 13.7053 30.6946 13.4883C30.405 13.2713 30.1666 12.9884 29.9972 12.6608C29.8314 12.991 29.5923 13.2747 29.2999 13.4883Z" fill="black"/>
  <path d="M17.6601 17.053C18 17.053 18.3229 16.8661 18.4985 16.5716C18.5664 16.4583 18.5268 16.311 18.4135 16.243C18.2945 16.1807 18.1473 16.2147 18.085 16.3337C17.9094 16.6282 17.4222 16.6282 17.2467 16.3337C17.1787 16.2147 17.0314 16.1807 16.9181 16.243C16.8048 16.311 16.7652 16.4583 16.8332 16.5716C16.9974 16.8718 17.3146 17.053 17.6601 17.053Z" stroke="black" stroke-width="0.35" mask="url(#path-1-outside-1_28211_3488)"/>
  <path d="M18.0284 19.3076C17.9717 19.3643 17.8415 19.4209 17.6602 19.4209C17.479 19.4209 17.3487 19.3643 17.292 19.3076C17.2014 19.2113 17.0428 19.2113 16.9522 19.3019C16.8559 19.3926 16.8502 19.5455 16.9465 19.6418C17.1051 19.8061 17.3713 19.9024 17.6659 19.9024C17.9548 19.9024 18.2266 19.8061 18.3852 19.6418C18.4759 19.5455 18.4759 19.3926 18.3796 19.3019C18.272 19.2113 18.119 19.2113 18.0284 19.3076Z" stroke="black" stroke-width="0.35" mask="url(#path-1-outside-1_28211_3488)"/>
  <path d="M19.0253 18.1294C18.6458 18.1974 18.0737 18.0784 18.068 18.0784C17.9831 18.0558 17.8811 18.0954 17.8245 18.1691C17.8245 18.1691 17.7508 18.2597 17.6545 18.2597C17.6262 18.2597 17.5922 18.254 17.5639 18.2484C17.5129 18.237 17.4733 18.1974 17.445 18.1577C17.3883 18.0841 17.2977 18.0558 17.2071 18.0671C17.0428 18.1011 16.618 18.1804 16.3178 18.0841C16.1875 18.0558 16.0572 18.1181 16.0176 18.2484C15.9779 18.3786 16.0516 18.5089 16.1818 18.5486C16.533 18.6505 16.9918 18.6109 17.2241 18.5769C17.3204 18.6675 17.462 18.7412 17.6659 18.7412C17.8641 18.7412 18.0114 18.6562 18.1077 18.5769C18.3229 18.6109 18.7704 18.6732 19.1159 18.6109C19.2462 18.5882 19.3368 18.4636 19.3142 18.3277C19.2802 18.1974 19.1499 18.1124 19.0253 18.1294Z" stroke="black" stroke-width="0.35" mask="url(#path-1-outside-1_28211_3488)"/>
  <path d="M21.7042 13.4336C21.5966 13.4903 21.4323 13.5299 21.3247 13.5469C21.1831 13.4733 20.8716 13.343 20.5204 13.343C19.9653 13.343 19.4895 13.6942 19.4725 13.7055C19.3649 13.7848 19.3422 13.9377 19.4215 14.0397C19.4668 14.102 19.5405 14.136 19.6141 14.136C19.6651 14.136 19.7161 14.119 19.7557 14.0907C19.7557 14.0907 19.8463 14.0227 19.9823 13.9604C19.9086 14.0624 19.8407 14.17 19.8407 14.3003C19.8407 14.6288 20.1069 14.9007 20.4411 14.9007C20.7753 14.9007 21.0415 14.6345 21.0415 14.3003C21.0415 14.136 20.9735 13.9887 20.8659 13.8811C21.0302 13.9321 21.1548 14.0001 21.1548 14.0001C21.2001 14.0284 21.2454 14.0397 21.3077 14.034C21.3474 14.0284 21.6872 13.9887 21.9308 13.8528C22.0497 13.7905 22.0894 13.6432 22.0271 13.5243C21.9704 13.411 21.8232 13.3713 21.7042 13.4336Z" stroke="black" stroke-width="0.35" mask="url(#path-1-outside-1_28211_3488)"/>
  <path d="M19.0761 12.9638C19.1271 12.9638 19.1781 12.9468 19.2177 12.9185C19.4613 12.7429 19.9711 12.4257 20.6281 12.4936C20.9453 12.5106 21.2569 12.6013 21.5571 12.7655C21.676 12.8278 21.8233 12.7882 21.8856 12.6692C21.9479 12.5503 21.9082 12.403 21.7893 12.3407C21.4324 12.1424 21.0473 12.0292 20.6564 12.0065C19.8634 11.9838 19.229 12.3067 18.9345 12.522C18.8269 12.6013 18.8042 12.7542 18.8778 12.8618C18.9288 12.9298 19.0025 12.9638 19.0761 12.9638Z" stroke="black" stroke-width="0.35" mask="url(#path-1-outside-1_28211_3488)"/>
  <path d="M14.7935 13.343C14.4423 13.343 14.1308 13.4733 13.9892 13.5469C13.8872 13.5299 13.723 13.4903 13.6097 13.4336C13.4907 13.3713 13.3435 13.411 13.2812 13.5299C13.2188 13.6489 13.2585 13.7961 13.3774 13.8584C13.6267 13.9944 13.9665 14.0397 14.0005 14.0397C14.0628 14.051 14.1081 14.034 14.1535 14.0057C14.1535 14.0057 14.2781 13.9377 14.448 13.8868C14.3404 13.9944 14.2724 14.1417 14.2724 14.3059C14.2724 14.6345 14.5386 14.9063 14.8728 14.9063C15.207 14.9063 15.4732 14.6401 15.4732 14.3059C15.4732 14.17 15.4053 14.0624 15.3316 13.9661C15.4676 14.0284 15.5525 14.0963 15.5582 14.0963C15.6035 14.1303 15.6545 14.1417 15.6998 14.1417C15.7734 14.1417 15.8471 14.1077 15.8924 14.0454C15.9717 13.9377 15.949 13.7905 15.8414 13.7112C15.8244 13.6942 15.3543 13.343 14.7935 13.343Z" stroke="black" stroke-width="0.35" mask="url(#path-1-outside-1_28211_3488)"/>
  <path d="M13.7621 12.7654C14.0566 12.6011 14.3681 12.5105 14.691 12.4935C15.3594 12.4255 15.8579 12.7427 16.1014 12.9183C16.1467 12.9466 16.192 12.9636 16.243 12.9636C16.3167 12.9636 16.3903 12.9296 16.4413 12.8617C16.5206 12.754 16.4979 12.6011 16.3846 12.5218C16.0901 12.3066 15.4953 11.978 14.6627 12.0064C14.2719 12.029 13.8923 12.1423 13.5298 12.3405C13.4109 12.4029 13.3712 12.5501 13.4335 12.6691C13.4958 12.788 13.6431 12.8277 13.7621 12.7654Z" stroke="black" stroke-width="0.35" mask="url(#path-1-outside-1_28211_3488)"/>
  <path d="M26.9547 26.5011C26.8981 25.289 26.4109 14.5891 26.0428 10.8734C25.4707 5.06747 21.3357 3 17.6596 3C13.9608 3 9.98449 5.49229 9.42939 11.0603C8.6194 19.1999 8.42681 25.4589 8.40416 26.4105C7.20899 27.0449 5.88355 28.342 6.00816 30.9419V31.7576C6.00816 31.8936 6.11578 32.0012 6.25173 32.0012C6.38767 32.0012 6.49529 31.8936 6.49529 31.7576V30.9306C6.37634 28.4836 7.65647 27.3168 8.75534 26.773C9.19716 26.5521 9.92219 26.3029 10.7605 26.014C11.6555 25.7081 12.743 25.3116 13.8702 24.8472C14.0005 26.1613 15.6544 27.2092 17.6879 27.2092C19.6818 27.2092 21.3017 26.2066 21.4943 24.9265C22.3893 25.34 23.4598 25.6968 24.4398 26.0084C25.2271 26.2632 25.9068 26.4842 26.292 26.6767C27.3852 27.2262 28.671 28.393 28.552 30.8513L28.5124 31.7633C28.5124 31.8992 28.62 32.0068 28.756 32.0068C28.8919 32.0068 28.9995 31.8992 28.9995 31.7633L29.0392 30.8626C29.1411 28.4836 28.0536 27.1979 26.9547 26.5011ZM10.5962 25.5552C9.8882 25.7988 9.34443 25.997 8.89695 26.1896C8.94226 24.6886 9.15184 18.7297 9.91652 11.1113C10.4376 5.84347 14.1817 3.48146 17.6596 3.48146C18.3167 3.48146 18.9851 3.57776 19.6478 3.73069C18.6962 4.81257 18.1694 5.80949 17.8918 6.55718C17.5407 6.60815 16.6457 6.7441 16.2945 6.92535C15.7621 7.2029 15.4562 7.4578 15.0314 7.98458C14.7312 8.35842 14.6179 8.63031 14.4933 8.94751C14.3913 9.2024 14.2724 9.49128 14.0231 9.90477C13.7116 10.4259 13.3547 11.015 12.6637 11.4455C12.3182 11.6607 11.848 11.9666 11.6555 12.5047C11.4742 12.3461 11.2476 12.2385 10.9927 12.2385C10.415 12.2385 9.93918 12.7369 9.93918 13.3543V13.7791C9.93918 14.8667 10.7548 15.739 11.7801 15.8296C12.3692 19.3302 14.0911 20.9048 15.5015 21.6752C15.4902 21.7035 15.4675 21.7205 15.4675 21.7488C15.4675 22.9723 14.8671 23.8842 14.2724 24.1448C12.9526 24.7452 11.6441 25.1984 10.5962 25.5552ZM23.7431 13.3883C23.7431 13.0371 23.9696 12.7313 24.2868 12.7313C24.5984 12.7313 24.8533 13.0145 24.8533 13.3657V13.7905C24.8533 14.5665 24.3151 15.1896 23.6128 15.3312C23.6807 14.7364 23.7431 13.394 23.7431 13.3883ZM18.243 21.8338L17.9825 21.9244C17.7672 21.998 17.5463 21.998 17.3367 21.9244L17.1498 21.8564C15.6261 21.324 12.0633 20.0722 12.0633 13.1787C12.0633 13.1787 12.0633 13.1617 12.0633 13.1561C11.9953 12.4367 12.4655 12.1422 12.9413 11.842C13.7116 11.3605 14.1138 10.6921 14.4423 10.154C14.7142 9.70652 14.8388 9.40065 14.9464 9.12876C15.0654 8.83422 15.1617 8.60198 15.4165 8.28478C15.7961 7.81465 16.0509 7.59374 16.5211 7.35584C16.7363 7.24255 17.4104 7.11794 17.9032 7.0443C17.9938 7.40115 18.1128 7.80898 18.3053 8.22248C18.9624 9.64988 19.6138 10.12 20.7976 10.9753C21.0582 11.1622 21.3471 11.3718 21.6756 11.6154C21.7662 11.6834 21.8965 11.757 22.0438 11.842C22.5026 12.0969 23.1313 12.4537 23.2559 13.2071C23.2446 20.1288 19.7384 21.324 18.243 21.8338ZM11.7121 15.3368C10.9871 15.2122 10.4263 14.5778 10.4263 13.7848V13.36C10.4263 13.0088 10.6812 12.7256 10.9927 12.7256C11.3043 12.7256 11.5705 13.0088 11.5705 13.36C11.5762 13.3657 11.6385 14.7364 11.7121 15.3368ZM17.6766 26.7221C15.847 26.7221 14.3573 25.8271 14.3177 24.7226C14.3177 24.7169 14.3177 24.6886 14.3177 24.6603C14.3687 24.6376 14.4196 24.6206 14.4763 24.5979C15.3146 24.2241 15.898 23.1309 15.9433 21.9017C16.3455 22.0887 16.708 22.2189 16.9856 22.3152L17.1725 22.3775C17.3311 22.4342 17.4953 22.4625 17.6596 22.4625C17.8239 22.4625 17.9881 22.4342 18.1467 22.3775L18.396 22.2926C18.6679 22.2019 19.0077 22.083 19.3759 21.9187C19.4325 23.2045 20.1179 24.1788 20.8146 24.5866C20.8826 24.6263 20.9619 24.6603 21.0355 24.6999C21.0185 25.8158 19.5232 26.7221 17.6766 26.7221ZM24.5757 25.5495C23.3635 25.1587 21.9928 24.7112 21.0525 24.1675C20.4464 23.8163 19.8347 22.9383 19.8347 21.7601C19.8347 21.7431 19.8177 21.7261 19.812 21.7092C21.2451 20.9615 22.967 19.4321 23.5335 15.824C24.5361 15.705 25.3234 14.8554 25.3234 13.7848V13.36C25.3234 12.7426 24.8533 12.2441 24.2698 12.2441C23.9753 12.2441 23.7204 12.3801 23.5335 12.5896C23.2333 11.9836 22.6725 11.655 22.2647 11.4228C22.1401 11.3548 22.0324 11.2925 21.9531 11.2359C21.6246 10.9867 21.3301 10.7771 21.0695 10.5845C19.914 9.75184 19.3362 9.33268 18.7302 8.01856C18.5262 7.58241 18.413 7.14626 18.3223 6.76675C18.6055 6.01907 19.138 4.9825 20.1802 3.84964C22.8028 4.63132 25.1535 6.75543 25.567 10.9187C25.9125 14.4135 26.3656 24.1221 26.4619 26.2236C26.0314 26.0197 25.363 25.8044 24.5757 25.5495Z" stroke="black" stroke-width="0.35" mask="url(#path-1-outside-1_28211_3488)"/>
  <path d="M29.9972 16C29.9144 16 29.8349 15.9656 29.7763 15.9044C29.7177 15.8432 29.6848 15.7602 29.6848 15.6737C29.6848 14.6538 29.0711 13.8263 28.3124 13.8263C28.2714 13.8263 28.2308 13.8179 28.1929 13.8015C28.155 13.7851 28.1205 13.7611 28.0915 13.7308C28.0625 13.7005 28.0395 13.6645 28.0238 13.6249C28.0081 13.5853 28 13.5429 28 13.5C28 13.4571 28.0081 13.4147 28.0238 13.3751C28.0395 13.3355 28.0625 13.2995 28.0915 13.2692C28.1205 13.2389 28.155 13.2149 28.1929 13.1985C28.2308 13.1821 28.2714 13.1737 28.3124 13.1737C29.0711 13.1737 29.6848 12.3462 29.6848 11.3263C29.6848 11.2398 29.7177 11.1568 29.7763 11.0956C29.8349 11.0344 29.9144 11 29.9972 11C30.0801 11 30.1595 11.0344 30.2181 11.0956C30.2767 11.1568 30.3096 11.2398 30.3096 11.3263C30.3096 12.3462 30.9289 13.1737 31.6876 13.1737C31.7704 13.1737 31.8499 13.208 31.9085 13.2692C31.9671 13.3304 32 13.4134 32 13.5C32 13.5866 31.9671 13.6696 31.9085 13.7308C31.8499 13.792 31.7704 13.8263 31.6876 13.8263C30.9289 13.8263 30.3096 14.6538 30.3096 15.6737C30.3096 15.7602 30.2767 15.8432 30.2181 15.9044C30.1595 15.9656 30.0801 16 29.9972 16ZM29.2999 13.4883C29.5923 13.702 29.8314 13.9857 29.9972 14.3158C30.1666 13.9883 30.405 13.7053 30.6946 13.4883C30.405 13.2713 30.1666 12.9884 29.9972 12.6608C29.8314 12.991 29.5923 13.2747 29.2999 13.4883Z" stroke="black" stroke-width="0.35" mask="url(#path-1-outside-1_28211_3488)"/>
</svg>