<svg width="35" height="36" viewBox="0 0 35 36" fill="none" xmlns="http://www.w3.org/2000/svg">
<g id="fi_17262689">
<path id="Vector" d="M1.07991 25.2198L4.86018 31.7666C4.93333 31.8937 5.06868 31.9717 5.21565 31.9717L12.7755 31.9717C12.9218 31.9717 13.0572 31.8937 13.131 31.7666L16.7868 25.4352L21.2808 25.4352C21.4271 25.4352 21.5624 25.3572 21.6363 25.2301L25.2921 18.8986L29.7847 18.8986C29.931 18.8986 30.0663 18.8207 30.1402 18.6936L33.9198 12.1461C33.9929 12.0189 33.9929 11.8631 33.9198 11.7359L30.1402 5.18916C30.067 5.06201 29.9317 4.98408 29.7847 4.98408L22.2248 4.98408C22.0785 4.98408 21.9432 5.06201 21.8694 5.18916L18.2135 11.5206L13.7196 11.5206C13.5733 11.5206 13.4379 11.5985 13.3641 11.7257L9.70823 18.0571L5.21428 18.0571C5.06799 18.0571 4.93264 18.1351 4.85881 18.2622L1.07922 24.809C1.00676 24.9361 1.00676 25.0927 1.07991 25.2198ZM22.4614 5.80439L29.5475 5.80439L33.0906 11.941L29.5475 18.0776L25.3017 18.0776L21.6342 11.7257C21.5611 11.5985 21.4257 11.5206 21.2787 11.5206L19.1603 11.5206L22.4614 5.80439ZM13.9568 12.3409L21.0429 12.3409L24.586 18.4775L21.0429 24.6142L16.7971 24.6142L13.1296 18.2622C13.0565 18.1351 12.9211 18.0571 12.7741 18.0571L10.6557 18.0571L13.9568 12.3409ZM5.45217 18.8774L12.5383 18.8774L16.0814 25.0141L12.5383 31.1507L5.45217 31.1507L1.90911 25.0141L5.45217 18.8774ZM11.1205 29.4171C11.1205 29.1908 11.3044 29.0069 11.5307 29.0069L12.2286 29.0069C12.4549 29.0069 12.6388 29.1908 12.6388 29.4171C12.6388 29.6434 12.4549 29.8272 12.2286 29.8272L11.5307 29.8272C11.3044 29.8272 11.1205 29.6434 11.1205 29.4171ZM12.4877 26.5856L13.1857 26.5856C13.4119 26.5856 13.5958 26.7695 13.5958 26.9958C13.5958 27.2221 13.4119 27.406 13.1857 27.406L12.4877 27.406C12.2615 27.406 12.0776 27.2221 12.0776 26.9958C12.0776 26.7695 12.2615 26.5856 12.4877 26.5856ZM7.61096 25.2772C7.61096 25.051 7.79485 24.8671 8.02112 24.8671L8.71907 24.8671C8.94534 24.8671 9.12922 25.051 9.12922 25.2772C9.12922 25.5035 8.94534 25.6874 8.71907 25.6874L8.02112 25.6874C7.79485 25.6874 7.61096 25.5042 7.61096 25.2772ZM5.37493 25.5568L4.67698 25.5568C4.45071 25.5568 4.26682 25.3729 4.26682 25.1467C4.26682 24.9204 4.45071 24.7365 4.67698 24.7365L5.37493 24.7365C5.6012 24.7365 5.78508 24.9204 5.78508 25.1467C5.78508 25.3729 5.6012 25.5568 5.37493 25.5568ZM7.85706 20.7546C7.85706 20.5283 8.04094 20.3444 8.26721 20.3444L8.96516 20.3444C9.19143 20.3444 9.37532 20.5283 9.37532 20.7546C9.37532 20.9809 9.19143 21.1647 8.96516 21.1647L8.26721 21.1647C8.04094 21.1647 7.85706 20.9809 7.85706 20.7546ZM4.73782 22.5203C4.73782 22.294 4.92171 22.1102 5.14797 22.1102L5.84592 22.1102C6.07219 22.1102 6.25608 22.294 6.25608 22.5203C6.25608 22.7466 6.07219 22.9305 5.84592 22.9305L5.14797 22.9305C4.92102 22.9305 4.73782 22.7466 4.73782 22.5203ZM11.5327 22.1156C11.5327 21.8894 11.7166 21.7055 11.9429 21.7055L12.6408 21.7055C12.8671 21.7055 13.051 21.8894 13.051 22.1156C13.051 22.3419 12.8671 22.5258 12.6408 22.5258L11.9429 22.5258C11.7166 22.5258 11.5327 22.3419 11.5327 22.1156ZM6.29504 26.9445L6.99299 26.9445C7.21926 26.9445 7.40315 27.1284 7.40315 27.3547C7.40315 27.581 7.21926 27.7648 6.99299 27.7648L6.29504 27.7648C6.06878 27.7648 5.88489 27.581 5.88489 27.3547C5.88489 27.1284 6.06809 26.9445 6.29504 26.9445ZM7.16799 29.6372C7.39426 29.6372 7.57815 29.8211 7.57815 30.0474C7.57815 30.2736 7.39426 30.4575 7.16799 30.4575L6.47004 30.4575C6.24377 30.4575 6.05989 30.2736 6.05989 30.0474C6.05989 29.8211 6.24377 29.6372 6.47004 29.6372L7.16799 29.6372ZM9.1135 23.0371L9.81145 23.0371C10.0377 23.0371 10.2216 23.221 10.2216 23.4473C10.2216 23.6735 10.0377 23.8574 9.81145 23.8574L9.1135 23.8574C8.88723 23.8574 8.70335 23.6735 8.70335 23.4473C8.70335 23.221 8.88723 23.0371 9.1135 23.0371ZM10.2722 27.5864C10.2722 27.8127 10.0883 27.9966 9.86204 27.9966L9.16409 27.9966C8.93782 27.9966 8.75393 27.8127 8.75393 27.5864C8.75393 27.3602 8.93782 27.1763 9.16409 27.1763L9.86204 27.1763C10.0883 27.1763 10.2722 27.3602 10.2722 27.5864ZM13.0647 24.5622C13.0647 24.7885 12.8808 24.9724 12.6545 24.9724L11.9566 24.9724C11.7303 24.9724 11.5464 24.7885 11.5464 24.5622C11.5464 24.3359 11.7303 24.152 11.9566 24.152L12.6545 24.152C12.8815 24.152 13.0647 24.3359 13.0647 24.5622ZM19.4276 22.7274C19.4276 22.5012 19.6115 22.3173 19.8377 22.3173L20.5357 22.3173C20.7619 22.3173 20.9458 22.5012 20.9458 22.7274C20.9458 22.9537 20.7619 23.1376 20.5357 23.1376L19.8377 23.1376C19.6108 23.1376 19.4276 22.9537 19.4276 22.7274ZM15.5407 20.5119C15.5407 20.2856 15.7245 20.1018 15.9508 20.1018L16.6488 20.1018C16.875 20.1018 17.0589 20.2856 17.0589 20.5119C17.0589 20.7382 16.875 20.9221 16.6488 20.9221L15.9508 20.9221C15.7245 20.9221 15.5407 20.7382 15.5407 20.5119ZM15.9809 17.2566C15.9809 17.0304 16.1648 16.8465 16.391 16.8465L17.089 16.8465C17.3153 16.8465 17.4991 17.0304 17.4991 17.2566C17.4991 17.4829 17.3153 17.6668 17.089 17.6668L16.391 17.6668C16.1641 17.6668 15.9809 17.4836 15.9809 17.2566ZM16.1641 14.0643C16.1641 13.838 16.348 13.6541 16.5742 13.6541L17.2722 13.6541C17.4985 13.6541 17.6823 13.838 17.6823 14.0643C17.6823 14.2905 17.4985 14.4744 17.2722 14.4744L16.5742 14.4744C16.348 14.4744 16.1641 14.2912 16.1641 14.0643ZM12.971 16.2935C12.971 16.0672 13.1549 15.8833 13.3812 15.8833L14.0791 15.8833C14.3054 15.8833 14.4893 16.0672 14.4893 16.2935C14.4893 16.5197 14.3054 16.7036 14.0791 16.7036L13.3812 16.7036C13.1549 16.7036 12.971 16.5204 12.971 16.2935ZM19.8391 15.426C19.8391 15.1997 20.023 15.0158 20.2492 15.0158L20.9472 15.0158C21.1735 15.0158 21.3573 15.1997 21.3573 15.426C21.3573 15.6522 21.1735 15.8361 20.9472 15.8361L20.2492 15.8361C20.023 15.8361 19.8391 15.6522 19.8391 15.426ZM19.634 19.1919C19.634 18.9656 19.8179 18.7817 20.0442 18.7817L20.7421 18.7817C20.9684 18.7817 21.1523 18.9656 21.1523 19.1919C21.1523 19.4182 20.9684 19.602 20.7421 19.602L20.0442 19.602C19.8179 19.602 19.634 19.4188 19.634 19.1919Z" fill="black"/>
<path id="Line 13" d="M23.6583 30.1788C23.4966 30.3675 23.5184 30.6516 23.7071 30.8133C23.8958 30.9751 24.1799 30.9532 24.3417 30.7645L23.6583 30.1788ZM30.4487 23.4372C30.4296 23.1894 30.2133 23.0039 29.9655 23.023L25.9274 23.3336C25.6796 23.3527 25.4942 23.569 25.5133 23.8168C25.5323 24.0646 25.7486 24.25 25.9964 24.231L29.5858 23.9549L29.8619 27.5443C29.881 27.7921 30.0973 27.9775 30.3451 27.9584C30.5929 27.9394 30.7784 27.723 30.7593 27.4752L30.4487 23.4372ZM24.3417 30.7645L30.3417 23.7645L29.6583 23.1788L23.6583 30.1788L24.3417 30.7645Z" fill="black"/>
</g>
</svg>
