<svg xmlns="http://www.w3.org/2000/svg" width="45" height="45" viewBox="0 0 45 45" fill="none">
  <path d="M3.77089 21.7491C3.80605 21.735 7.30902 20.3906 11.25 20.3906C15.0413 20.3906 18.2742 22.5 22.5 22.5C26.7328 22.5 29.956 20.3906 33.75 20.3906C37.691 20.3906 41.194 21.735 41.2292 21.7491C42.0926 22.0894 42.608 20.778 41.7403 20.4391C41.5878 20.3794 37.9646 18.9844 33.75 18.9844C29.6571 18.9844 26.5029 21.0938 22.5 21.0938C18.5007 21.0938 15.3387 18.9844 11.25 18.9844C7.0355 18.9844 3.4123 20.3794 3.26042 20.4384C2.39277 20.778 2.90675 22.088 3.77089 21.7491Z" fill="black"/>
  <path d="M41.7396 23.9541C41.5877 23.895 37.9645 22.5 33.75 22.5C29.6571 22.5 26.5029 24.6094 22.5 24.6094C18.5006 24.6094 15.3387 22.5 11.25 22.5C7.03547 22.5 3.41226 23.895 3.26039 23.9541C2.39273 24.293 2.90672 25.6029 3.77156 25.264C3.80601 25.2506 7.30898 23.9062 11.25 23.9062C15.0412 23.9062 18.2742 26.0156 22.5 26.0156C26.7328 26.0156 29.9559 23.9062 33.75 23.9062C37.691 23.9062 41.194 25.2506 41.2291 25.2647C42.0926 25.6029 42.608 24.2937 41.7396 23.9541Z" fill="black"/>
  <path d="M22.9979 27.6285C22.7237 27.3536 22.2744 27.355 22.0015 27.6285L19.1897 30.4403C18.5316 31.0984 19.5265 32.092 20.184 31.4345L21.7969 29.8223V37.9687C21.7969 38.8996 23.2032 38.8989 23.2032 37.9687V29.8223L24.8154 31.4345C25.4637 32.0828 26.4762 31.1062 25.8097 30.4403L22.9979 27.6285Z" fill="black"/>
  <path d="M33.2522 17.3713C33.5334 17.6533 33.982 17.6392 34.2485 17.3713L37.0603 14.5596C37.7184 13.9014 36.7235 12.9079 36.0661 13.5653L34.4531 15.1776V7.03119C34.4531 6.10025 33.0469 6.10096 33.0469 7.03119V15.1776L31.4346 13.5653C30.7765 12.9072 29.783 13.9021 30.4404 14.5596L33.2522 17.3713Z" fill="black"/>
  <path d="M10.7522 17.3713C11.0334 17.6533 11.482 17.6392 11.7485 17.3713L14.5603 14.5596C15.2184 13.9014 14.2235 12.9079 13.5661 13.5653L11.9531 15.1776V7.03119C11.9531 6.10025 10.5469 6.10096 10.5469 7.03119V15.1776L8.93462 13.5653C8.27649 12.9072 7.28298 13.9021 7.9404 14.5596L10.7522 17.3713Z" fill="black"/>
</svg>