<svg xmlns="http://www.w3.org/2000/svg" width="35" height="35" viewBox="0 0 35 35" fill="none">
  <path d="M1.9015 9.23608C1.90305 9.24829 1.90534 9.26039 1.90834 9.27231C1.90834 9.28188 1.90834 9.29146 1.91381 9.30103C1.91927 9.3106 1.92201 9.32017 1.92543 9.32974C1.92884 9.33931 1.93363 9.3523 1.9391 9.36255C1.94457 9.3728 1.94867 9.3769 1.95277 9.38374C1.9601 9.39639 1.96833 9.40849 1.97738 9.41997C1.98461 9.42822 1.99237 9.43599 2.00062 9.44321C2.00814 9.45005 2.01429 9.45825 2.02181 9.46509H2.02591C2.24125 9.64351 6.02631 12.7238 11.7391 14.3042C13.3936 14.7656 15.0926 15.0496 16.8073 15.1512C17.065 15.185 17.3246 15.2019 17.5845 15.2018C17.7212 15.2018 17.8579 15.197 17.9885 15.1881H18.115C22.6199 15.1881 27.8904 13.8333 33.154 9.4603L33.1581 9.4562C33.1728 9.44358 33.1865 9.42986 33.1992 9.41519C33.208 9.4037 33.216 9.39159 33.2231 9.37895C33.2281 9.37244 33.2327 9.36559 33.2368 9.35845C33.2422 9.34766 33.2468 9.33646 33.2504 9.32495C33.2549 9.31563 33.2588 9.30604 33.2621 9.29624C33.2645 9.28681 33.2664 9.27721 33.2675 9.26753C33.2707 9.25561 33.2733 9.24351 33.275 9.2313C33.275 9.22104 33.275 9.21011 33.275 9.19917C33.275 9.18823 33.275 9.1773 33.275 9.16636C33.2732 9.15415 33.2707 9.14206 33.2675 9.13013C33.2664 9.12066 33.2646 9.11129 33.2621 9.1021C33.2589 9.09226 33.255 9.08266 33.2504 9.07339C33.2469 9.06184 33.2423 9.05063 33.2368 9.03989C33.2327 9.03253 33.2281 9.02544 33.2231 9.0187C33.2161 9.00619 33.2081 8.99429 33.1992 8.98315C33.1992 8.98315 33.1841 8.9688 33.1766 8.96128C33.1696 8.95326 33.1621 8.94572 33.154 8.93872H33.1499C27.8316 4.52612 22.5173 3.18765 17.9865 3.21294C17.8545 3.20474 17.7212 3.19995 17.5872 3.19995C17.3274 3.19995 17.0677 3.21661 16.81 3.24985C15.0954 3.35182 13.3964 3.63574 11.7418 4.09683C5.98256 5.69097 2.18246 8.80884 2.02318 8.94077C2.01498 8.94761 2.00814 8.95649 2.00062 8.96401C1.9931 8.97153 1.98558 8.97769 1.97875 8.98521C1.96955 8.99633 1.96131 9.00822 1.95414 9.02075C1.95004 9.02827 1.94457 9.03442 1.94047 9.04194C1.93636 9.04946 1.93158 9.06382 1.92679 9.07544C1.92201 9.08706 1.91859 9.0939 1.91517 9.10415C1.91175 9.1144 1.91175 9.12329 1.9097 9.13286C1.90671 9.14456 1.90442 9.15643 1.90287 9.16841V9.20122C1.90287 9.20122 1.90082 9.22856 1.9015 9.23608ZM22.9083 9.20396C22.9085 10.2564 22.5965 11.2852 22.0119 12.1604C21.4273 13.0355 20.5963 13.7176 19.624 14.1205C18.6517 14.5233 17.5818 14.6288 16.5496 14.4236C15.5173 14.2183 14.5691 13.7116 13.8249 12.9675C13.0807 12.2233 12.5738 11.2752 12.3684 10.243C12.1631 9.21077 12.2684 8.14084 12.6711 7.1685C13.0738 6.19616 13.7559 5.36508 14.6309 4.78036C15.506 4.19564 16.5348 3.88354 17.5872 3.88354C18.9979 3.88517 20.3503 4.44622 21.3478 5.44361C22.3453 6.44101 22.9065 7.79333 22.9083 9.20396ZM32.3932 9.20396C28.6929 12.1913 24.7445 13.9276 20.5869 14.4041C21.5005 13.8776 22.2593 13.1198 22.7869 12.2068C23.3145 11.2939 23.5923 10.2581 23.5923 9.20361C23.5923 8.14917 23.3145 7.11333 22.7869 6.20039C22.2593 5.28744 21.5005 4.52961 20.5869 4.00317C24.7458 4.47964 28.6929 6.21597 32.3932 9.20396ZM11.9483 4.74897C12.713 4.53752 13.4727 4.36457 14.2274 4.23013C13.4133 4.77945 12.7465 5.5202 12.2856 6.38735C11.8246 7.2545 11.5836 8.22155 11.5836 9.20361C11.5836 10.1857 11.8246 11.1527 12.2856 12.0199C12.7465 12.887 13.4133 13.6278 14.2274 14.1771C13.4731 14.0404 12.7137 13.8674 11.949 13.6583C7.28138 12.3731 3.85316 9.99419 2.80248 9.20396C3.85316 8.41372 7.28138 6.0355 11.9483 4.74897Z" fill="black"/>
  <path d="M20.234 18.3963C18.9033 18.568 17.5571 18.5843 16.2227 18.4448C16.178 18.4403 16.1329 18.4447 16.0899 18.4576C16.0469 18.4705 16.0069 18.4918 15.9722 18.5202C15.9374 18.5486 15.9086 18.5836 15.8874 18.6232C15.8661 18.6627 15.8529 18.706 15.8484 18.7507C15.8439 18.7954 15.8483 18.8405 15.8612 18.8834C15.8741 18.9264 15.8954 18.9664 15.9238 19.0012C15.9522 19.0359 15.9872 19.0648 16.0268 19.086C16.0663 19.1072 16.1096 19.1205 16.1543 19.125C16.7765 19.1899 17.4017 19.2225 18.0273 19.2227C18.7954 19.2227 19.5626 19.1729 20.3242 19.0737C20.3699 19.0694 20.4143 19.0559 20.4547 19.0341C20.4951 19.0123 20.5307 18.9826 20.5593 18.9467C20.588 18.9108 20.6091 18.8695 20.6215 18.8253C20.6338 18.7811 20.6371 18.7348 20.6312 18.6893C20.6253 18.6437 20.6102 18.5999 20.587 18.5603C20.5637 18.5207 20.5327 18.4862 20.4958 18.4589C20.459 18.4315 20.4169 18.4119 20.3723 18.4011C20.3277 18.3904 20.2813 18.3887 20.236 18.3963H20.234Z" fill="black"/>
  <path d="M5.16933 13.8182C4.08788 13.0129 3.28124 12.3047 2.80273 11.8761C2.32421 11.4475 2.24287 11.3812 2.0747 11.3812C1.98225 11.3831 1.89413 11.4208 1.82887 11.4863C1.76361 11.5518 1.72627 11.6401 1.7247 11.7325C1.7247 11.8576 1.77734 11.9547 1.95781 12.2247C1.99683 12.2832 2.05295 12.3283 2.11853 12.3537C2.1841 12.3792 2.25593 12.3838 2.32421 12.3669L2.34882 12.3881C2.83759 12.8208 3.65517 13.544 4.76054 14.3664C4.83306 14.4208 4.92422 14.4441 5.01396 14.4313C5.1037 14.4185 5.18467 14.3706 5.23906 14.298C5.26613 14.262 5.28581 14.221 5.29696 14.1773C5.30811 14.1336 5.31051 14.0882 5.30403 14.0436C5.29755 13.999 5.28231 13.9561 5.2592 13.9174C5.23608 13.8787 5.20554 13.845 5.16933 13.8182Z" fill="black"/>
  <path d="M33.1799 11.7974C33.1169 11.7322 33.0306 11.6947 32.9399 11.6932C32.8493 11.6916 32.7617 11.7262 32.6966 11.7892C32.1497 12.3183 31.5871 12.8248 31.0293 13.2931C30.9949 13.3219 30.9665 13.3573 30.9458 13.3971C30.9251 13.4369 30.9124 13.4804 30.9085 13.5252C30.9046 13.5699 30.9096 13.6149 30.9231 13.6577C30.9366 13.7005 30.9584 13.7403 30.9872 13.7747C31.0161 13.809 31.0514 13.8374 31.0913 13.8581C31.1311 13.8788 31.1746 13.8915 31.2193 13.8954C31.264 13.8993 31.3091 13.8944 31.3519 13.8809C31.3947 13.8674 31.4344 13.8456 31.4688 13.8167C32.0383 13.3382 32.6111 12.8221 33.171 12.2813C33.2034 12.2502 33.2293 12.2129 33.2473 12.1717C33.2653 12.1305 33.275 12.0862 33.2759 12.0412C33.2767 11.9962 33.2686 11.9516 33.2522 11.9097C33.2357 11.8679 33.2111 11.8297 33.1799 11.7974Z" fill="black"/>
  <path d="M12.2903 17.5991C11.0097 17.1765 9.76888 16.6415 8.58251 16.0002C8.50275 15.9584 8.40974 15.9498 8.32367 15.9763C8.23761 16.0027 8.16545 16.062 8.12286 16.1413C8.08028 16.2207 8.0707 16.3136 8.09623 16.3999C8.12175 16.4862 8.18031 16.559 8.25917 16.6024C9.48104 17.264 10.7591 17.816 12.0784 18.252C12.1215 18.2678 12.1674 18.2749 12.2133 18.2726C12.2592 18.2703 12.3042 18.2588 12.3456 18.2388C12.3869 18.2188 12.4238 18.1906 12.4541 18.1559C12.4843 18.1213 12.5072 18.0809 12.5215 18.0372C12.5357 17.9935 12.541 17.9474 12.537 17.9016C12.5331 17.8558 12.5199 17.8113 12.4983 17.7707C12.4767 17.7302 12.4472 17.6944 12.4115 17.6655C12.3757 17.6366 12.3345 17.6152 12.2903 17.6025V17.5991Z" fill="black"/>
  <path d="M28.2204 15.7761C28.1734 15.6993 28.098 15.6442 28.0106 15.6227C27.9231 15.6012 27.8308 15.615 27.7535 15.6612C26.6051 16.3644 25.3919 16.9557 24.1305 17.427C24.0454 17.4584 23.9764 17.5224 23.9385 17.6047C23.9006 17.6871 23.897 17.7811 23.9285 17.8662C23.9599 17.9512 24.0239 18.0203 24.1062 18.0581C24.1886 18.096 24.2826 18.0996 24.3677 18.0682C25.6693 17.5812 26.9214 16.971 28.1069 16.2457C28.1842 16.1985 28.2396 16.1224 28.2609 16.0344C28.2821 15.9463 28.2676 15.8534 28.2204 15.7761Z" fill="black"/>
  <path d="M10.2092 24.0807C10.195 24.0681 10.1799 24.0566 10.1639 24.0462C10.1574 24.0423 10.1503 24.0396 10.1439 24.0363C10.134 24.0306 10.1238 24.0255 10.1133 24.021C10.1039 24.0177 10.0944 24.0155 10.0844 24.0127C10.0744 24.01 10.0674 24.0073 10.058 24.0056C10.0191 23.9981 9.97908 23.9981 9.94027 24.0056C9.93085 24.0056 9.92262 24.0106 9.91379 24.0127C9.90496 24.0149 9.89437 24.0177 9.88554 24.021C9.87479 24.0254 9.86437 24.0305 9.85436 24.0363C9.8477 24.0393 9.84122 24.0425 9.83494 24.0462C9.81863 24.0564 9.80328 24.068 9.78904 24.0807L8.08258 25.6689C8.02899 25.7206 7.99933 25.7898 8.00001 25.8616C8.00068 25.9334 8.03162 26.002 8.08617 26.0528C8.14072 26.1036 8.21451 26.1324 8.29165 26.133C8.3688 26.1336 8.44312 26.106 8.49861 26.0561L9.70607 24.9323V29.7262C9.70607 29.7988 9.73707 29.8684 9.79225 29.9198C9.84742 29.9711 9.92226 30 10.0003 30C10.0783 30 10.1532 29.9711 10.2083 29.9198C10.2635 29.8684 10.2945 29.7988 10.2945 29.7262V24.935L11.5014 26.0589C11.5569 26.1088 11.6312 26.1364 11.7083 26.1357C11.7855 26.1351 11.8593 26.1063 11.9138 26.0555C11.9684 26.0048 11.9993 25.9361 12 25.8643C12.0007 25.7925 11.971 25.7233 11.9174 25.6717L10.2092 24.0807Z" fill="black"/>
  <path d="M17.2266 22.0965C17.1966 22.0659 17.161 22.0416 17.1218 22.0251C17.0826 22.0085 17.0405 22 16.9981 22C16.9556 22 16.9136 22.0085 16.8744 22.0251C16.8351 22.0416 16.7995 22.0659 16.7695 22.0965L14.0906 24.8217C14.0318 24.8837 13.9993 24.9666 14 25.0527C14.0007 25.1388 14.0347 25.2211 14.0945 25.282C14.1544 25.3429 14.2353 25.3774 14.32 25.3782C14.4046 25.3789 14.4861 25.3458 14.547 25.286L16.6772 23.1189V31.6717C16.6772 31.7587 16.7112 31.8423 16.7718 31.9038C16.8323 31.9654 16.9144 32 17 32C17.0856 32 17.1677 31.9654 17.2282 31.9038C17.2888 31.8423 17.3228 31.7587 17.3228 31.6717V23.1222L19.453 25.2893C19.5139 25.3491 19.5954 25.3822 19.68 25.3814C19.7647 25.3807 19.8456 25.3462 19.9055 25.2853C19.9653 25.2244 19.9992 25.1421 20 25.056C20.0007 24.9699 19.9682 24.8869 19.9094 24.825L17.2266 22.0965Z" fill="black"/>
  <path d="M24.2062 24.0804C24.1921 24.0678 24.1769 24.0563 24.1609 24.0459C24.1545 24.042 24.1474 24.0393 24.1409 24.036C24.131 24.0304 24.1208 24.0252 24.1103 24.0207C24.1009 24.0174 24.0915 24.0152 24.0815 24.0125C24.0715 24.0097 24.0644 24.007 24.055 24.0053C24.0171 23.9982 23.9781 23.9982 23.9403 24.0053C23.9309 24.0053 23.9226 24.0103 23.9138 24.0125C23.905 24.0147 23.8944 24.0174 23.8855 24.0207C23.8748 24.0251 23.8644 24.0303 23.8544 24.036C23.8477 24.039 23.8412 24.0423 23.8349 24.0459C23.8186 24.0562 23.8033 24.0677 23.789 24.0804L22.0826 25.6687C22.029 25.7204 21.9993 25.7896 22 25.8614C22.0007 25.9332 22.0316 26.0018 22.0862 26.0526C22.1407 26.1034 22.2145 26.1322 22.2917 26.1328C22.3688 26.1334 22.4431 26.1058 22.4986 26.056L23.7061 24.9321V29.7261C23.7061 29.7988 23.7371 29.8684 23.7922 29.9198C23.8474 29.9711 23.9223 30 24.0003 30C24.0783 30 24.1532 29.9711 24.2083 29.9198C24.2635 29.8684 24.2945 29.7988 24.2945 29.7261V24.9348L25.5014 26.0587C25.5569 26.1086 25.6312 26.1362 25.7083 26.1356C25.7855 26.1349 25.8593 26.1061 25.9138 26.0554C25.9684 26.0046 25.9993 25.9359 26 25.8641C26.0007 25.7923 25.971 25.7231 25.9174 25.6715L24.2062 24.0804Z" fill="black"/>
  <path d="M20 9.5C20 10.8807 18.8807 12 17.5 12C16.1193 12 15 10.8807 15 9.5C15 8.11929 16.1193 7 17.5 7C18.8807 7 20 8.11929 20 9.5Z" fill="black"/>
  <path d="M1.9015 9.23608C1.90305 9.24829 1.90534 9.26039 1.90834 9.27231C1.90834 9.28188 1.90834 9.29146 1.91381 9.30103C1.91927 9.3106 1.92201 9.32017 1.92543 9.32974C1.92884 9.33931 1.93363 9.3523 1.9391 9.36255C1.94457 9.3728 1.94867 9.3769 1.95277 9.38374C1.9601 9.39639 1.96833 9.40849 1.97738 9.41997C1.98461 9.42822 1.99237 9.43599 2.00062 9.44321C2.00814 9.45005 2.01429 9.45825 2.02181 9.46509H2.02591C2.24125 9.64351 6.02631 12.7238 11.7391 14.3042C13.3936 14.7656 15.0926 15.0496 16.8073 15.1512C17.065 15.185 17.3246 15.2019 17.5845 15.2018C17.7212 15.2018 17.8579 15.197 17.9885 15.1881H18.115C22.6199 15.1881 27.8904 13.8333 33.154 9.4603L33.1581 9.4562C33.1728 9.44358 33.1865 9.42986 33.1992 9.41519C33.208 9.4037 33.216 9.39159 33.2231 9.37895C33.2281 9.37244 33.2327 9.36559 33.2368 9.35845C33.2422 9.34766 33.2468 9.33646 33.2504 9.32495C33.2549 9.31563 33.2588 9.30604 33.2621 9.29624C33.2645 9.28681 33.2664 9.27721 33.2675 9.26753C33.2707 9.25561 33.2733 9.24351 33.275 9.2313C33.275 9.22104 33.275 9.21011 33.275 9.19917C33.275 9.18823 33.275 9.1773 33.275 9.16636C33.2732 9.15415 33.2707 9.14206 33.2675 9.13013C33.2664 9.12066 33.2646 9.11129 33.2621 9.1021C33.2589 9.09226 33.255 9.08266 33.2504 9.07339C33.2469 9.06184 33.2423 9.05063 33.2368 9.03989C33.2327 9.03253 33.2281 9.02544 33.2231 9.0187C33.2161 9.00619 33.2081 8.99429 33.1992 8.98315C33.1992 8.98315 33.1841 8.9688 33.1766 8.96128C33.1696 8.95326 33.1621 8.94572 33.154 8.93872H33.1499C27.8316 4.52612 22.5173 3.18765 17.9865 3.21294C17.8545 3.20474 17.7212 3.19995 17.5872 3.19995C17.3274 3.19995 17.0677 3.21661 16.81 3.24985C15.0954 3.35182 13.3964 3.63574 11.7418 4.09683C5.98256 5.69097 2.18246 8.80884 2.02318 8.94077C2.01498 8.94761 2.00814 8.95649 2.00062 8.96401C1.9931 8.97153 1.98558 8.97769 1.97875 8.98521C1.96955 8.99633 1.96131 9.00822 1.95414 9.02075C1.95004 9.02827 1.94457 9.03442 1.94047 9.04194C1.93636 9.04946 1.93158 9.06382 1.92679 9.07544C1.92201 9.08706 1.91859 9.0939 1.91517 9.10415C1.91175 9.1144 1.91175 9.12329 1.9097 9.13286C1.90671 9.14456 1.90442 9.15643 1.90287 9.16841V9.20122C1.90287 9.20122 1.90082 9.22856 1.9015 9.23608ZM22.9083 9.20396C22.9085 10.2564 22.5965 11.2852 22.0119 12.1604C21.4273 13.0355 20.5963 13.7176 19.624 14.1205C18.6517 14.5233 17.5818 14.6288 16.5496 14.4236C15.5173 14.2183 14.5691 13.7116 13.8249 12.9675C13.0807 12.2233 12.5738 11.2752 12.3684 10.243C12.1631 9.21077 12.2684 8.14084 12.6711 7.1685C13.0738 6.19616 13.7559 5.36508 14.6309 4.78036C15.506 4.19564 16.5348 3.88354 17.5872 3.88354C18.9979 3.88517 20.3503 4.44622 21.3478 5.44361C22.3453 6.44101 22.9065 7.79333 22.9083 9.20396ZM32.3932 9.20396C28.6929 12.1913 24.7445 13.9276 20.5869 14.4041C21.5005 13.8776 22.2593 13.1198 22.7869 12.2068C23.3145 11.2939 23.5923 10.2581 23.5923 9.20361C23.5923 8.14917 23.3145 7.11333 22.7869 6.20039C22.2593 5.28744 21.5005 4.52961 20.5869 4.00317C24.7458 4.47964 28.6929 6.21597 32.3932 9.20396ZM11.9483 4.74897C12.713 4.53752 13.4727 4.36457 14.2274 4.23013C13.4133 4.77945 12.7465 5.5202 12.2856 6.38735C11.8246 7.2545 11.5836 8.22155 11.5836 9.20361C11.5836 10.1857 11.8246 11.1527 12.2856 12.0199C12.7465 12.887 13.4133 13.6278 14.2274 14.1771C13.4731 14.0404 12.7137 13.8674 11.949 13.6583C7.28138 12.3731 3.85316 9.99419 2.80248 9.20396C3.85316 8.41372 7.28138 6.0355 11.9483 4.74897Z" stroke="black" stroke-width="0.5"/>
  <path d="M20.234 18.3963C18.9033 18.568 17.5571 18.5843 16.2227 18.4448C16.178 18.4403 16.1329 18.4447 16.0899 18.4576C16.0469 18.4705 16.0069 18.4918 15.9722 18.5202C15.9374 18.5486 15.9086 18.5836 15.8874 18.6232C15.8661 18.6627 15.8529 18.706 15.8484 18.7507C15.8439 18.7954 15.8483 18.8405 15.8612 18.8834C15.8741 18.9264 15.8954 18.9664 15.9238 19.0012C15.9522 19.0359 15.9872 19.0648 16.0268 19.086C16.0663 19.1072 16.1096 19.1205 16.1543 19.125C16.7765 19.1899 17.4017 19.2225 18.0273 19.2227C18.7954 19.2227 19.5626 19.1729 20.3242 19.0737C20.3699 19.0694 20.4143 19.0559 20.4547 19.0341C20.4951 19.0123 20.5307 18.9826 20.5593 18.9467C20.588 18.9108 20.6091 18.8695 20.6215 18.8253C20.6338 18.7811 20.6371 18.7348 20.6312 18.6893C20.6253 18.6437 20.6102 18.5999 20.587 18.5603C20.5637 18.5207 20.5327 18.4862 20.4958 18.4589C20.459 18.4315 20.4169 18.4119 20.3723 18.4011C20.3277 18.3904 20.2813 18.3887 20.236 18.3963H20.234Z" stroke="black" stroke-width="0.5"/>
  <path d="M5.16933 13.8182C4.08788 13.0129 3.28124 12.3047 2.80273 11.8761C2.32421 11.4475 2.24287 11.3812 2.0747 11.3812C1.98225 11.3831 1.89413 11.4208 1.82887 11.4863C1.76361 11.5518 1.72627 11.6401 1.7247 11.7325C1.7247 11.8576 1.77734 11.9547 1.95781 12.2247C1.99683 12.2832 2.05295 12.3283 2.11853 12.3537C2.1841 12.3792 2.25593 12.3838 2.32421 12.3669L2.34882 12.3881C2.83759 12.8208 3.65517 13.544 4.76054 14.3664C4.83306 14.4208 4.92422 14.4441 5.01396 14.4313C5.1037 14.4185 5.18467 14.3706 5.23906 14.298C5.26613 14.262 5.28581 14.221 5.29696 14.1773C5.30811 14.1336 5.31051 14.0882 5.30403 14.0436C5.29755 13.999 5.28231 13.9561 5.2592 13.9174C5.23608 13.8787 5.20554 13.845 5.16933 13.8182Z" stroke="black" stroke-width="0.5"/>
  <path d="M33.1799 11.7974C33.1169 11.7322 33.0306 11.6947 32.9399 11.6932C32.8493 11.6916 32.7617 11.7262 32.6966 11.7892C32.1497 12.3183 31.5871 12.8248 31.0293 13.2931C30.9949 13.3219 30.9665 13.3573 30.9458 13.3971C30.9251 13.4369 30.9124 13.4804 30.9085 13.5252C30.9046 13.5699 30.9096 13.6149 30.9231 13.6577C30.9366 13.7005 30.9584 13.7403 30.9872 13.7747C31.0161 13.809 31.0514 13.8374 31.0913 13.8581C31.1311 13.8788 31.1746 13.8915 31.2193 13.8954C31.264 13.8993 31.3091 13.8944 31.3519 13.8809C31.3947 13.8674 31.4344 13.8456 31.4688 13.8167C32.0383 13.3382 32.6111 12.8221 33.171 12.2813C33.2034 12.2502 33.2293 12.2129 33.2473 12.1717C33.2653 12.1305 33.275 12.0862 33.2759 12.0412C33.2767 11.9962 33.2686 11.9516 33.2522 11.9097C33.2357 11.8679 33.2111 11.8297 33.1799 11.7974Z" stroke="black" stroke-width="0.5"/>
  <path d="M12.2903 17.5991C11.0097 17.1765 9.76888 16.6415 8.58251 16.0002C8.50275 15.9584 8.40974 15.9498 8.32367 15.9763C8.23761 16.0027 8.16545 16.062 8.12286 16.1413C8.08028 16.2207 8.0707 16.3136 8.09623 16.3999C8.12175 16.4862 8.18031 16.559 8.25917 16.6024C9.48104 17.264 10.7591 17.816 12.0784 18.252C12.1215 18.2678 12.1674 18.2749 12.2133 18.2726C12.2592 18.2703 12.3042 18.2588 12.3456 18.2388C12.3869 18.2188 12.4238 18.1906 12.4541 18.1559C12.4843 18.1213 12.5072 18.0809 12.5215 18.0372C12.5357 17.9935 12.541 17.9474 12.537 17.9016C12.5331 17.8558 12.5199 17.8113 12.4983 17.7707C12.4767 17.7302 12.4472 17.6944 12.4115 17.6655C12.3757 17.6366 12.3345 17.6152 12.2903 17.6025V17.5991Z" stroke="black" stroke-width="0.5"/>
  <path d="M28.2204 15.7761C28.1734 15.6993 28.098 15.6442 28.0106 15.6227C27.9231 15.6012 27.8308 15.615 27.7535 15.6612C26.6051 16.3644 25.3919 16.9557 24.1305 17.427C24.0454 17.4584 23.9764 17.5224 23.9385 17.6047C23.9006 17.6871 23.897 17.7811 23.9285 17.8662C23.9599 17.9512 24.0239 18.0203 24.1062 18.0581C24.1886 18.096 24.2826 18.0996 24.3677 18.0682C25.6693 17.5812 26.9214 16.971 28.1069 16.2457C28.1842 16.1985 28.2396 16.1224 28.2609 16.0344C28.2821 15.9463 28.2676 15.8534 28.2204 15.7761Z" stroke="black" stroke-width="0.5"/>
  <path d="M10.2092 24.0807C10.195 24.0681 10.1799 24.0566 10.1639 24.0462C10.1574 24.0423 10.1503 24.0396 10.1439 24.0363C10.134 24.0306 10.1238 24.0255 10.1133 24.021C10.1039 24.0177 10.0944 24.0155 10.0844 24.0127C10.0744 24.01 10.0674 24.0073 10.058 24.0056C10.0191 23.9981 9.97908 23.9981 9.94027 24.0056C9.93085 24.0056 9.92262 24.0106 9.91379 24.0127C9.90496 24.0149 9.89437 24.0177 9.88554 24.021C9.87479 24.0254 9.86437 24.0305 9.85436 24.0363C9.8477 24.0393 9.84122 24.0425 9.83494 24.0462C9.81863 24.0564 9.80328 24.068 9.78904 24.0807L8.08258 25.6689C8.02899 25.7206 7.99933 25.7898 8.00001 25.8616C8.00068 25.9334 8.03162 26.002 8.08617 26.0528C8.14072 26.1036 8.21451 26.1324 8.29165 26.133C8.3688 26.1336 8.44312 26.106 8.49861 26.0561L9.70607 24.9323V29.7262C9.70607 29.7988 9.73707 29.8684 9.79225 29.9198C9.84742 29.9711 9.92226 30 10.0003 30C10.0783 30 10.1532 29.9711 10.2083 29.9198C10.2635 29.8684 10.2945 29.7988 10.2945 29.7262V24.935L11.5014 26.0589C11.5569 26.1088 11.6312 26.1364 11.7083 26.1357C11.7855 26.1351 11.8593 26.1063 11.9138 26.0555C11.9684 26.0048 11.9993 25.9361 12 25.8643C12.0007 25.7925 11.971 25.7233 11.9174 25.6717L10.2092 24.0807Z" stroke="black" stroke-width="0.5"/>
  <path d="M17.2266 22.0965C17.1966 22.0659 17.161 22.0416 17.1218 22.0251C17.0826 22.0085 17.0405 22 16.9981 22C16.9556 22 16.9136 22.0085 16.8744 22.0251C16.8351 22.0416 16.7995 22.0659 16.7695 22.0965L14.0906 24.8217C14.0318 24.8837 13.9993 24.9666 14 25.0527C14.0007 25.1388 14.0347 25.2211 14.0945 25.282C14.1544 25.3429 14.2353 25.3774 14.32 25.3782C14.4046 25.3789 14.4861 25.3458 14.547 25.286L16.6772 23.1189V31.6717C16.6772 31.7587 16.7112 31.8423 16.7718 31.9038C16.8323 31.9654 16.9144 32 17 32C17.0856 32 17.1677 31.9654 17.2282 31.9038C17.2888 31.8423 17.3228 31.7587 17.3228 31.6717V23.1222L19.453 25.2893C19.5139 25.3491 19.5954 25.3822 19.68 25.3814C19.7647 25.3807 19.8456 25.3462 19.9055 25.2853C19.9653 25.2244 19.9992 25.1421 20 25.056C20.0007 24.9699 19.9682 24.8869 19.9094 24.825L17.2266 22.0965Z" stroke="black" stroke-width="0.5"/>
  <path d="M24.2062 24.0804C24.1921 24.0678 24.1769 24.0563 24.1609 24.0459C24.1545 24.042 24.1474 24.0393 24.1409 24.036C24.131 24.0304 24.1208 24.0252 24.1103 24.0207C24.1009 24.0174 24.0915 24.0152 24.0815 24.0125C24.0715 24.0097 24.0644 24.007 24.055 24.0053C24.0171 23.9982 23.9781 23.9982 23.9403 24.0053C23.9309 24.0053 23.9226 24.0103 23.9138 24.0125C23.905 24.0147 23.8944 24.0174 23.8855 24.0207C23.8748 24.0251 23.8644 24.0303 23.8544 24.036C23.8477 24.039 23.8412 24.0423 23.8349 24.0459C23.8186 24.0562 23.8033 24.0677 23.789 24.0804L22.0826 25.6687C22.029 25.7204 21.9993 25.7896 22 25.8614C22.0007 25.9332 22.0316 26.0018 22.0862 26.0526C22.1407 26.1034 22.2145 26.1322 22.2917 26.1328C22.3688 26.1334 22.4431 26.1058 22.4986 26.056L23.7061 24.9321V29.7261C23.7061 29.7988 23.7371 29.8684 23.7922 29.9198C23.8474 29.9711 23.9223 30 24.0003 30C24.0783 30 24.1532 29.9711 24.2083 29.9198C24.2635 29.8684 24.2945 29.7988 24.2945 29.7261V24.9348L25.5014 26.0587C25.5569 26.1086 25.6312 26.1362 25.7083 26.1356C25.7855 26.1349 25.8593 26.1061 25.9138 26.0554C25.9684 26.0046 25.9993 25.9359 26 25.8641C26.0007 25.7923 25.971 25.7231 25.9174 25.6715L24.2062 24.0804Z" stroke="black" stroke-width="0.5"/>
  <path d="M20 9.5C20 10.8807 18.8807 12 17.5 12C16.1193 12 15 10.8807 15 9.5C15 8.11929 16.1193 7 17.5 7C18.8807 7 20 8.11929 20 9.5Z" stroke="black" stroke-width="0.5"/>
</svg>