<svg width="35" height="36" viewBox="0 0 35 36" fill="none" xmlns="http://www.w3.org/2000/svg">
<g id="fi_5697487">
<g id="Group">
<path id="Vector" d="M12.1623 18.0737C12.2342 18.0737 12.3053 18.0596 12.3716 18.0321C12.438 18.0046 12.4983 17.9643 12.5491 17.9135C12.5999 17.8628 12.6401 17.8025 12.6676 17.7361C12.6951 17.6698 12.7092 17.5986 12.7092 17.5268C12.7111 15.7734 13.4084 14.0923 14.6482 12.8524C15.888 11.6125 17.569 10.9151 19.3224 10.913C19.4675 10.913 19.6066 10.8554 19.7091 10.7529C19.8117 10.6503 19.8693 10.5112 19.8693 10.3662C19.8693 10.2211 19.8117 10.082 19.7091 9.97946C19.6066 9.87691 19.4675 9.81929 19.3224 9.81929C17.5691 9.81731 15.8882 9.11992 14.6484 7.88013C13.4086 6.64033 12.7112 4.95938 12.7092 3.20605C12.7092 3.06101 12.6516 2.92191 12.549 2.81936C12.4465 2.7168 12.3074 2.65918 12.1623 2.65918C12.0173 2.65918 11.8782 2.7168 11.7756 2.81936C11.6731 2.92191 11.6155 3.06101 11.6155 3.20605C11.6135 4.95943 10.916 6.64041 9.67618 7.8802C8.43633 9.12 6.75532 9.81736 5.00195 9.81929C4.85691 9.81929 4.71781 9.87691 4.61525 9.97946C4.5127 10.082 4.45508 10.2211 4.45508 10.3662C4.45508 10.5112 4.5127 10.6503 4.61525 10.7529C4.71781 10.8554 4.85691 10.913 5.00195 10.913C6.75541 10.915 8.43648 11.6124 9.67633 12.8523C10.9162 14.0923 11.6136 15.7734 11.6155 17.5268C11.6154 17.5986 11.6296 17.6698 11.657 17.7361C11.6845 17.8025 11.7248 17.8628 11.7756 17.9135C11.8264 17.9643 11.8867 18.0046 11.953 18.0321C12.0194 18.0596 12.0905 18.0737 12.1623 18.0737ZM7.83616 10.3662C8.81338 9.97689 9.70099 9.39251 10.4448 8.64872C11.1886 7.90493 11.773 7.01733 12.1623 6.04013C12.5516 7.01733 13.1359 7.90493 13.8797 8.64872C14.6235 9.39251 15.5111 9.97689 16.4883 10.3662C15.5111 10.7555 14.6234 11.3399 13.8797 12.0837C13.1359 12.8275 12.5515 13.7152 12.1623 14.6924C11.7731 13.7152 11.1887 12.8275 10.4448 12.0837C9.70103 11.3399 8.8134 10.7555 7.83616 10.3662Z" fill="black"/>
<path id="Vector_2" d="M23.1506 26.5135C21.7904 26.512 20.4863 25.971 19.5245 25.0092C18.5627 24.0475 18.0217 22.7435 18.0201 21.3833C18.0201 21.2383 17.9625 21.0992 17.86 20.9966C17.7574 20.894 17.6183 20.8364 17.4733 20.8364C17.3282 20.8364 17.1891 20.894 17.0866 20.9966C16.984 21.0992 16.9264 21.2383 16.9264 21.3833C16.9248 22.7435 16.3838 24.0475 15.422 25.0092C14.4602 25.971 13.1561 26.512 11.796 26.5135C11.6509 26.5135 11.5118 26.5711 11.4093 26.6736C11.3067 26.7762 11.2491 26.9153 11.2491 27.0603C11.2491 27.2054 11.3067 27.3445 11.4093 27.447C11.5118 27.5496 11.6509 27.6072 11.796 27.6072C13.1561 27.6087 14.4602 28.1497 15.422 29.1114C16.3838 30.0732 16.9248 31.3772 16.9264 32.7374C16.9264 32.8824 16.984 33.0215 17.0866 33.1241C17.1891 33.2266 17.3282 33.2842 17.4733 33.2842C17.6183 33.2842 17.7574 33.2266 17.86 33.1241C17.9625 33.0215 18.0201 32.8824 18.0201 32.7374C18.0217 31.3772 18.5627 30.0732 19.5245 29.1114C20.4863 28.1497 21.7904 27.6087 23.1506 27.6072C23.2956 27.6072 23.4347 27.5496 23.5373 27.447C23.6398 27.3445 23.6974 27.2054 23.6974 27.0603C23.6974 26.9153 23.6398 26.7762 23.5373 26.6736C23.4347 26.5711 23.2956 26.5135 23.1506 26.5135ZM17.4733 30.199C16.8459 28.8043 15.7293 27.6877 14.3346 27.0603C15.7293 26.433 16.8459 25.3164 17.4733 23.9216C18.1007 25.3164 19.2174 26.4329 20.6121 27.0603C19.2174 27.6877 18.1007 28.8043 17.4733 30.199Z" fill="black"/>
<path id="Vector_3" d="M29.9972 15.9054C28.932 15.9042 27.9108 15.4805 27.1576 14.7273C26.4044 13.9741 25.9807 12.9529 25.9794 11.8877C25.9794 11.7427 25.9218 11.6036 25.8193 11.501C25.7167 11.3984 25.5776 11.3408 25.4326 11.3408C25.2875 11.3408 25.1484 11.3984 25.0459 11.501C24.9433 11.6036 24.8857 11.7427 24.8857 11.8877C24.8845 12.9529 24.4608 13.9741 23.7076 14.7273C22.9544 15.4805 21.9332 15.9042 20.868 15.9054C20.7229 15.9054 20.5838 15.963 20.4813 16.0656C20.3787 16.1681 20.3211 16.3072 20.3211 16.4523C20.3211 16.5973 20.3787 16.7364 20.4813 16.839C20.5838 16.9415 20.7229 16.9992 20.868 16.9992C21.9332 17.0004 22.9544 17.4241 23.7076 18.1773C24.4608 18.9305 24.8845 19.9517 24.8857 21.0169C24.8857 21.1619 24.9433 21.301 25.0459 21.4036C25.1484 21.5061 25.2875 21.5638 25.4326 21.5638C25.5776 21.5638 25.7167 21.5061 25.8193 21.4036C25.9218 21.301 25.9794 21.1619 25.9794 21.0169C25.9807 19.9517 26.4044 18.9305 27.1576 18.1773C27.9108 17.4241 28.932 17.0004 29.9972 16.9992C30.1422 16.9992 30.2813 16.9415 30.3839 16.839C30.4864 16.7364 30.544 16.5973 30.544 16.4523C30.544 16.3072 30.4864 16.1681 30.3839 16.0656C30.2813 15.963 30.1422 15.9054 29.9972 15.9054ZM25.4326 18.7297C24.9371 17.7461 24.1387 16.9477 23.1551 16.4523C24.1387 15.9568 24.9371 15.1585 25.4326 14.1749C25.928 15.1584 26.7264 15.9568 27.71 16.4523C26.7264 16.9477 25.928 17.7461 25.4326 18.7297Z" fill="black"/>
</g>
</g>
</svg>
