<svg xmlns="http://www.w3.org/2000/svg" width="20" height="21" viewBox="0 0 20 21" fill="none">
  <path d="M8 6.83561C9.18963 6.96779 11.2517 6.9766 12.4501 6.83561M12.0976 5.02921V4.63263C12.0976 4.58396 12.0582 4.54451 12.0095 4.54451H11.4367C11.3881 4.54451 11.3486 4.50505 11.3486 4.45639V3.75146C11.3486 3.72712 11.3683 3.7074 11.3927 3.7074C11.417 3.7074 11.4367 3.68767 11.4367 3.66333V2.10093C11.4367 2.06094 11.4102 2.02595 11.3713 2.01665C10.8573 1.89382 9.82591 1.78529 9.03108 2.01445C8.99414 2.0251 8.96933 2.05923 8.96933 2.09767V3.66333C8.96933 3.68767 8.98906 3.7074 9.01339 3.7074C9.03773 3.7074 9.05745 3.72712 9.05745 3.75146V4.45639C9.05745 4.50505 9.018 4.54451 8.96933 4.54451H8.39654C8.34788 4.54451 8.30842 4.58396 8.30842 4.63263V5.02921M12.0976 5.02921C12.0976 5.07788 12.1371 5.11733 12.1857 5.11733H12.362C12.4107 5.11733 12.4501 5.15678 12.4501 5.20545V18.281C12.4501 18.3144 12.4309 18.3452 12.4009 18.3598C10.4857 19.2935 8.72811 18.7658 8.04127 18.3605C8.01505 18.345 8 18.317 8 18.2865V5.20545C8 5.15678 8.03945 5.11733 8.08812 5.11733H8.2203C8.26897 5.11733 8.30842 5.07788 8.30842 5.02921M12.0976 5.02921H8.30842M9.05745 3.79544H11.3486M9.05745 4.5004H11.3486" stroke="#414141" stroke-width="0.2"/>
  <path d="M10.1357 12.1628C9.96443 12.1495 9.80608 12.1094 9.65097 12.0426C9.4603 11.9558 9.28903 11.8389 9.14361 11.692C8.99819 11.5451 8.88186 11.3714 8.79137 11.1711C8.70735 10.9741 8.66211 10.757 8.66211 10.5266C8.66211 10.2996 8.70735 10.0825 8.7946 9.88218C8.88186 9.68183 8.99819 9.50819 9.14684 9.35793C9.29226 9.20767 9.46354 9.0908 9.6542 9.00732C9.84486 8.92384 10.0452 8.88043 10.2553 8.88043C10.4653 8.88043 10.6689 8.92384 10.8596 9.00732C11.0535 9.09414 11.2247 9.21101 11.3702 9.35793C11.5188 9.50819 11.6351 9.68183 11.7224 9.88218C11.8096 10.0825 11.8549 10.2962 11.8549 10.5266C11.8549 10.757 11.8096 10.9707 11.7224 11.1711C11.6351 11.3714 11.5156 11.5451 11.3702 11.692C11.2215 11.8389 11.0535 11.9558 10.8596 12.0426C10.6786 12.1194 10.4879 12.1628 10.2908 12.1661C10.294 12.1661 10.1939 12.1695 10.1357 12.1628ZM10.2553 12.076C10.4201 12.076 10.5623 12.0359 10.6786 11.9591C10.7982 11.8823 10.8951 11.7721 10.9694 11.6352C11.047 11.4983 11.1019 11.3347 11.1375 11.1444C11.173 10.9574 11.1924 10.7504 11.1924 10.5233C11.1924 10.2996 11.173 10.0925 11.1375 9.90221C11.1052 9.71522 11.0502 9.54826 10.9727 9.41136C10.8951 9.27445 10.7982 9.16426 10.6818 9.08412C10.5623 9.00398 10.4233 8.96391 10.2585 8.96391C10.0937 8.96391 9.9515 9.00398 9.83517 9.08412C9.7156 9.16426 9.61865 9.27111 9.54432 9.41136C9.47 9.5516 9.41506 9.71522 9.37628 9.90555C9.34074 10.0959 9.32135 10.3029 9.32135 10.5233C9.32135 10.7437 9.34074 10.9507 9.37628 11.141C9.41183 11.3314 9.46677 11.495 9.54432 11.6319C9.61865 11.7688 9.7156 11.879 9.83517 11.9558C9.9515 12.0393 10.0937 12.076 10.2553 12.076Z" fill="#414141"/>
  <path d="M10.1357 12.1628C9.96443 12.1495 9.80608 12.1094 9.65097 12.0426C9.4603 11.9558 9.28903 11.8389 9.14361 11.692C8.99819 11.5451 8.88186 11.3714 8.79137 11.1711C8.70735 10.9741 8.66211 10.757 8.66211 10.5266C8.66211 10.2996 8.70735 10.0825 8.7946 9.88218C8.88186 9.68183 8.99819 9.50819 9.14684 9.35793C9.29226 9.20767 9.46354 9.0908 9.6542 9.00732C9.84486 8.92384 10.0452 8.88043 10.2553 8.88043C10.4653 8.88043 10.6689 8.92384 10.8596 9.00732C11.0535 9.09414 11.2247 9.21101 11.3702 9.35793C11.5188 9.50819 11.6351 9.68183 11.7224 9.88218C11.8096 10.0825 11.8549 10.2962 11.8549 10.5266C11.8549 10.757 11.8096 10.9707 11.7224 11.1711C11.6351 11.3714 11.5156 11.5451 11.3702 11.692C11.2215 11.8389 11.0535 11.9558 10.8596 12.0426C10.6786 12.1194 10.4879 12.1628 10.2908 12.1661C10.294 12.1661 10.1939 12.1695 10.1357 12.1628ZM10.2553 12.076C10.4201 12.076 10.5623 12.0359 10.6786 11.9591C10.7982 11.8823 10.8951 11.7721 10.9694 11.6352C11.047 11.4983 11.1019 11.3347 11.1375 11.1444C11.173 10.9574 11.1924 10.7504 11.1924 10.5233C11.1924 10.2996 11.173 10.0925 11.1375 9.90221C11.1052 9.71522 11.0502 9.54826 10.9727 9.41136C10.8951 9.27445 10.7982 9.16426 10.6818 9.08412C10.5623 9.00398 10.4233 8.96391 10.2585 8.96391C10.0937 8.96391 9.9515 9.00398 9.83517 9.08412C9.7156 9.16426 9.61865 9.27111 9.54432 9.41136C9.47 9.5516 9.41506 9.71522 9.37628 9.90555C9.34074 10.0959 9.32135 10.3029 9.32135 10.5233C9.32135 10.7437 9.34074 10.9507 9.37628 11.141C9.41183 11.3314 9.46677 11.495 9.54432 11.6319C9.61865 11.7688 9.7156 11.879 9.83517 11.9558C9.9515 12.0393 10.0937 12.076 10.2553 12.076Z" stroke="#414141"/>
  <path d="M11.8533 12.5133C11.6368 12.5133 11.4364 12.5333 11.2555 12.5701C11.0745 12.6068 10.9161 12.6669 10.7804 12.7437C10.6479 12.8238 10.5413 12.924 10.467 13.0442C10.3926 13.1644 10.3539 13.3114 10.3539 13.4783H10.2666V13.4416C10.2731 13.2379 10.3118 13.0409 10.3862 12.8539C10.4702 12.6569 10.5833 12.4799 10.7255 12.3263C10.8677 12.1727 11.0357 12.0525 11.2296 11.9623C11.4235 11.8722 11.6303 11.8254 11.8533 11.8254V12.5133Z" fill="#414141"/>
  <path d="M11.8533 12.5133C11.6368 12.5133 11.4364 12.5333 11.2555 12.5701C11.0745 12.6068 10.9161 12.6669 10.7804 12.7437C10.6479 12.8238 10.5413 12.924 10.467 13.0442C10.3926 13.1644 10.3539 13.3114 10.3539 13.4783H10.2666V13.4416C10.2731 13.2379 10.3118 13.0409 10.3862 12.8539C10.4702 12.6569 10.5833 12.4799 10.7255 12.3263C10.8677 12.1727 11.0357 12.0525 11.2296 11.9623C11.4235 11.8722 11.6303 11.8254 11.8533 11.8254V12.5133Z" stroke="#414141"/>
  <path d="M10.4714 2.42952C10.4714 2.57776 10.3512 2.69794 10.203 2.69794C10.0547 2.69794 9.93453 2.57776 9.93453 2.42952C9.93453 2.28127 10.0547 2.16109 10.203 2.16109C10.3512 2.16109 10.4714 2.28127 10.4714 2.42952Z" stroke="#414141" stroke-width="0.08"/>
</svg>