<svg xmlns="http://www.w3.org/2000/svg" width="20" height="21" viewBox="0 0 20 21" fill="none">
  <path fill-rule="evenodd" clip-rule="evenodd" d="M5.94629 8.30493H10.2885V18.2991C10.2885 18.6455 10.0253 18.9293 9.70089 18.9293H6.53388C6.2095 18.9293 5.94629 18.6455 5.94629 18.2991V8.30493Z" stroke="#414141" stroke-width="0.32" stroke-miterlimit="2.61313" stroke-linecap="round" stroke-linejoin="round"/>
  <path d="M8.00521 14.6627C7.86023 14.6506 7.72619 14.6142 7.59488 14.5536C7.43349 14.4748 7.2885 14.3687 7.1654 14.2353C7.04231 14.1019 6.94383 13.9443 6.86723 13.7624C6.79611 13.5836 6.75781 13.3865 6.75781 13.1773C6.75781 12.9712 6.79611 12.7742 6.86997 12.5923C6.94383 12.4104 7.04231 12.2528 7.16814 12.1164C7.29124 11.9799 7.43622 11.8738 7.59762 11.7981C7.75901 11.7223 7.92861 11.6829 8.10642 11.6829C8.28423 11.6829 8.45657 11.7223 8.61797 11.7981C8.7821 11.8769 8.92708 11.983 9.05018 12.1164C9.17601 12.2528 9.27449 12.4104 9.34835 12.5923C9.42221 12.7742 9.46051 12.9682 9.46051 13.1773C9.46051 13.3865 9.42221 13.5805 9.34835 13.7624C9.27449 13.9443 9.17328 14.1019 9.05018 14.2353C8.92434 14.3687 8.7821 14.4748 8.61797 14.5536C8.46478 14.6233 8.30338 14.6627 8.13651 14.6658C8.13925 14.6658 8.05445 14.6688 8.00521 14.6627ZM8.10642 14.5839C8.24594 14.5839 8.3663 14.5475 8.46478 14.4778C8.56599 14.4081 8.64806 14.3081 8.71097 14.1838C8.77663 14.0595 8.82313 13.911 8.85322 13.7382C8.88331 13.5684 8.89972 13.3805 8.89972 13.1743C8.89972 12.9712 8.88331 12.7833 8.85322 12.6105C8.82587 12.4407 8.77936 12.2891 8.71371 12.1649C8.64806 12.0406 8.56599 11.9405 8.46751 11.8678C8.3663 11.795 8.24867 11.7586 8.10916 11.7586C7.96965 11.7586 7.84928 11.795 7.75081 11.8678C7.64959 11.9405 7.56753 12.0375 7.50461 12.1649C7.44169 12.2922 7.39519 12.4407 7.36236 12.6135C7.33227 12.7863 7.31586 12.9742 7.31586 13.1743C7.31586 13.3744 7.33227 13.5623 7.36236 13.7351C7.39245 13.9079 7.43896 14.0565 7.50461 14.1807C7.56753 14.305 7.64959 14.4051 7.75081 14.4748C7.84928 14.5506 7.96965 14.5839 8.10642 14.5839Z" fill="#414141"/>
  <path d="M8.00521 14.6627C7.86023 14.6506 7.72619 14.6142 7.59488 14.5536C7.43349 14.4748 7.2885 14.3687 7.1654 14.2353C7.04231 14.1019 6.94383 13.9443 6.86723 13.7624C6.79611 13.5836 6.75781 13.3865 6.75781 13.1773C6.75781 12.9712 6.79611 12.7742 6.86997 12.5923C6.94383 12.4104 7.04231 12.2528 7.16814 12.1164C7.29124 11.9799 7.43622 11.8738 7.59762 11.7981C7.75901 11.7223 7.92861 11.6829 8.10642 11.6829C8.28423 11.6829 8.45657 11.7223 8.61797 11.7981C8.7821 11.8769 8.92708 11.983 9.05018 12.1164C9.17601 12.2528 9.27449 12.4104 9.34835 12.5923C9.42221 12.7742 9.46051 12.9682 9.46051 13.1773C9.46051 13.3865 9.42221 13.5805 9.34835 13.7624C9.27449 13.9443 9.17328 14.1019 9.05018 14.2353C8.92434 14.3687 8.7821 14.4748 8.61797 14.5536C8.46478 14.6233 8.30338 14.6627 8.13651 14.6658C8.13925 14.6658 8.05445 14.6688 8.00521 14.6627ZM8.10642 14.5839C8.24594 14.5839 8.3663 14.5475 8.46478 14.4778C8.56599 14.4081 8.64806 14.3081 8.71097 14.1838C8.77663 14.0595 8.82313 13.911 8.85322 13.7382C8.88331 13.5684 8.89972 13.3805 8.89972 13.1743C8.89972 12.9712 8.88331 12.7833 8.85322 12.6105C8.82587 12.4407 8.77936 12.2891 8.71371 12.1649C8.64806 12.0406 8.56599 11.9405 8.46751 11.8678C8.3663 11.795 8.24867 11.7586 8.10916 11.7586C7.96965 11.7586 7.84928 11.795 7.75081 11.8678C7.64959 11.9405 7.56753 12.0375 7.50461 12.1649C7.44169 12.2922 7.39519 12.4407 7.36236 12.6135C7.33227 12.7863 7.31586 12.9742 7.31586 13.1743C7.31586 13.3744 7.33227 13.5623 7.36236 13.7351C7.39245 13.9079 7.43896 14.0565 7.50461 14.1807C7.56753 14.305 7.64959 14.4051 7.75081 14.4748C7.84928 14.5506 7.96965 14.5839 8.10642 14.5839Z" stroke="#414141"/>
  <path d="M9.45935 14.9809C9.27607 14.9809 9.10647 14.9991 8.95328 15.0325C8.80009 15.0658 8.66605 15.1204 8.55116 15.1901C8.439 15.2628 8.34873 15.3538 8.28581 15.4629C8.2229 15.572 8.19007 15.7054 8.19007 15.857H8.11621V15.8237C8.12168 15.6387 8.15451 15.4599 8.21743 15.2901C8.28855 15.1113 8.38429 14.9506 8.50465 14.8112C8.62502 14.6717 8.76726 14.5626 8.9314 14.4807C9.09553 14.3989 9.2706 14.3564 9.45935 14.3564V14.9809Z" fill="#414141"/>
  <path d="M9.45935 14.9809C9.27607 14.9809 9.10647 14.9991 8.95328 15.0325C8.80009 15.0658 8.66605 15.1204 8.55116 15.1901C8.439 15.2628 8.34873 15.3538 8.28581 15.4629C8.2229 15.572 8.19007 15.7054 8.19007 15.857H8.11621V15.8237C8.12168 15.6387 8.15451 15.4599 8.21743 15.2901C8.28855 15.1113 8.38429 14.9506 8.50465 14.8112C8.62502 14.6717 8.76726 14.5626 8.9314 14.4807C9.09553 14.3989 9.2706 14.3564 9.45935 14.3564V14.9809Z" stroke="#414141"/>
  <path d="M10.2899 7.39526H5.94629V8.30466H10.2899V7.39526Z" stroke="#414141" stroke-width="0.32" stroke-miterlimit="2.61313" stroke-linecap="round" stroke-linejoin="round"/>
  <path d="M9.8778 5.08667H6.35938V7.39526H9.8778V5.08667Z" stroke="#414141" stroke-width="0.32" stroke-miterlimit="2.61313" stroke-linecap="round" stroke-linejoin="round"/>
  <path d="M10.2708 2.69727H6.79297V5.08825H9.4421V3.56683H10.2708V2.69727Z" stroke="#414141" stroke-width="0.32" stroke-miterlimit="2.61313" stroke-linecap="round" stroke-linejoin="round"/>
  <path fill-rule="evenodd" clip-rule="evenodd" d="M14.1379 6.17039C14.1879 6.32739 14.2149 6.49541 14.2149 6.66894C14.2149 6.70061 14.2136 6.73229 14.2123 6.76259V6.76672C14.1661 7.56825 13.5433 8.20452 12.7831 8.20452C12.0241 8.20452 11.4026 7.56825 11.3551 6.76672V6.76259C11.3538 6.73229 11.3525 6.70061 11.3525 6.66894C11.3525 6.49541 11.3795 6.32739 11.4296 6.17039C11.6453 5.39227 12.2784 4.62655 12.7831 3.85669C13.289 4.62655 13.9221 5.39365 14.1379 6.17039Z" stroke="#414141" stroke-width="0.32" stroke-miterlimit="2.61313" stroke-linecap="round" stroke-linejoin="round"/>
  <path d="M13.0614 7.70474C12.3859 7.70474 11.8389 7.11805 11.8389 6.39502" stroke="#414141" stroke-width="0.32" stroke-miterlimit="2.61313" stroke-linecap="round" stroke-linejoin="round"/>
</svg>