<svg xmlns="http://www.w3.org/2000/svg" width="20" height="16" viewBox="0 0 20 16" fill="none">
  <path d="M0.580117 7.65942C0.580117 3.56053 3.75347 0.244424 7.65992 0.244424H12.3303C16.2368 0.244424 19.4101 3.56053 19.4101 7.65942C19.4101 11.7583 16.2368 15.0744 12.3303 15.0744H7.65992C3.75347 15.0744 0.580117 11.7583 0.580117 7.65942ZM1.37621 7.60387C1.37621 3.96521 4.19314 1.0222 7.65992 1.0222H12.3834C15.8502 1.0222 18.6671 3.96521 18.6671 7.60387C18.6671 11.2425 15.8502 14.1855 12.3834 14.1855H7.65992C4.19314 14.1855 1.37621 11.2425 1.37621 7.60387ZM7.65992 0.852202C4.09201 0.852202 1.20621 3.87873 1.20621 7.60387C1.20621 11.329 4.09201 14.3555 7.65992 14.3555H12.3834C15.9513 14.3555 18.8371 11.329 18.8371 7.60387C18.8371 3.87873 15.9513 0.852202 12.3834 0.852202H7.65992Z" stroke="#414141" stroke-width="0.17"/>
  <path d="M10.0474 8.26762H10.3764L10.3803 8.26361V6.91201H10.0358V7.91468C10.0126 7.96281 9.98159 7.9989 9.94288 8.03099C9.90417 8.06308 9.85771 8.07912 9.79965 8.07912C9.73384 8.07912 9.67965 8.05505 9.64481 8.01094C9.60997 7.96682 9.59062 7.90265 9.59062 7.82243V6.91201H9.2461V7.84249C9.2461 7.98286 9.2732 8.09516 9.33513 8.17939C9.39707 8.26361 9.4861 8.30773 9.60223 8.30773C9.6603 8.30773 9.71062 8.2957 9.75707 8.27564C9.80352 8.25559 9.8461 8.22751 9.88094 8.19543C9.91578 8.16334 9.94675 8.12725 9.97384 8.08714C10.0009 8.04703 10.0242 8.00693 10.0435 7.96682L10.0474 7.97083V8.26762Z" fill="#414141"/>
  <path d="M12.6642 6.89596H12.7222V7.04436H12.7455V6.89596H12.7996V6.87591H12.6642V6.89596Z" fill="#414141"/>
  <path d="M12.9738 6.92003V7.04035H12.9971V6.8719H12.9777L12.9119 6.99222L12.8422 6.8719H12.8229V7.04035H12.8461V6.92003L12.9042 7.02029H12.9158L12.9738 6.92003Z" fill="#414141"/>
  <path d="M11.1584 6.98821C11.1932 6.95612 11.2358 6.92805 11.2784 6.90398L11.2822 6.89596C11.3248 6.8719 11.3596 6.86388 11.41 6.86388V7.26495H11.3829C11.3713 7.2489 11.3519 7.23286 11.3287 7.21682L11.259 7.18072C11.2319 7.1727 11.2087 7.16468 11.1855 7.15666L11.1738 7.15461C11.1557 7.15139 11.1402 7.14864 11.1274 7.14864C11.1042 7.14864 11.0809 7.16067 11.0538 7.17671C11.0267 7.19676 11.0035 7.22083 10.9764 7.25291V8.26762H10.628V6.91602H10.9726V7.19275C10.9958 7.16468 11.0229 7.13259 11.0538 7.0965C11.0848 7.05639 11.1197 7.02029 11.1584 6.98821Z" fill="#414141"/>
  <path d="M8.68094 8.57243C8.79707 8.54837 8.92868 8.53634 9.06804 8.53634V8.09516C8.92094 8.09516 8.78546 8.12324 8.66159 8.1834C8.53772 8.24356 8.42933 8.31976 8.33642 8.42003C8.24352 8.51628 8.16997 8.63259 8.11578 8.76094C8.06933 8.88126 8.04223 9.0096 8.03836 9.14195V9.16602H8.09643C8.09643 9.05372 8.11965 8.96147 8.16997 8.88126C8.2203 8.80104 8.28997 8.73687 8.37513 8.68473C8.46029 8.63259 8.56094 8.5965 8.68094 8.57243Z" fill="#414141"/>
  <path fill-rule="evenodd" clip-rule="evenodd" d="M7.63965 8.22751C7.73643 8.27163 7.84481 8.29971 7.9532 8.30773L7.94933 8.30372C7.98804 8.30773 8.05384 8.30773 8.05384 8.30773C8.18159 8.30372 8.30546 8.27965 8.42159 8.22751C8.54546 8.17136 8.65384 8.09516 8.75062 7.9989C8.84739 7.90666 8.92094 7.79035 8.979 7.66201C9.03707 7.52965 9.06417 7.38928 9.06417 7.24088C9.06417 7.08848 9.03707 6.9481 8.979 6.81976C8.92094 6.69142 8.84739 6.57511 8.75062 6.47885C8.65772 6.38259 8.54546 6.30639 8.42159 6.25024C8.29772 6.19409 8.1661 6.16602 8.03062 6.16602C7.89513 6.16602 7.76352 6.19409 7.63965 6.25024C7.51578 6.30639 7.40352 6.38259 7.31062 6.47885C7.21384 6.57511 7.14029 6.69142 7.08223 6.81976C7.02417 6.95211 6.99707 7.09249 6.99707 7.24088C6.99707 7.39329 7.02417 7.53366 7.08223 7.66201C7.14029 7.79035 7.21771 7.90265 7.31062 7.9989C7.40352 8.09516 7.51578 8.17136 7.63965 8.22751ZM8.30546 8.17537C8.22804 8.22751 8.139 8.25158 8.03062 8.25158V8.24356C7.92223 8.24356 7.8332 8.21949 7.75578 8.16735C7.67836 8.11521 7.61642 8.04302 7.5661 7.95479C7.51578 7.86254 7.48094 7.75826 7.45772 7.63393C7.43449 7.5096 7.42288 7.37725 7.42288 7.23286C7.42288 7.08848 7.43449 6.95612 7.45772 6.83179C7.48094 6.70746 7.51578 6.60318 7.5661 6.51094C7.61642 6.4227 7.67836 6.35051 7.75578 6.29837C7.8332 6.24623 7.92223 6.22217 8.03062 6.22217C8.139 6.22217 8.22804 6.24623 8.30546 6.29837C8.38288 6.35051 8.44481 6.4227 8.49513 6.51094C8.54546 6.60318 8.5803 6.70746 8.60352 6.83179C8.62675 6.95612 8.63836 7.09249 8.63836 7.23687C8.63836 7.38527 8.62675 7.51762 8.60352 7.64195C8.5803 7.76628 8.54546 7.87457 8.49513 7.96281C8.44481 8.05505 8.38288 8.12324 8.30546 8.17537Z" fill="#414141"/>
  <path fill-rule="evenodd" clip-rule="evenodd" d="M12.4629 7.99088C12.5209 7.9588 12.5713 7.91869 12.6061 7.87457L12.6138 7.87056L12.6293 7.87858C12.5906 8.00292 12.5248 8.10719 12.4319 8.18741C12.339 8.26762 12.2151 8.30773 12.068 8.30773C11.9713 8.30773 11.8861 8.29168 11.8087 8.25559C11.7313 8.21949 11.6655 8.17136 11.6113 8.10719C11.5571 8.04302 11.5145 7.97083 11.4835 7.88661C11.4526 7.80238 11.4371 7.71013 11.4371 7.61388C11.4371 7.50158 11.4564 7.40131 11.4913 7.30906C11.5261 7.22083 11.5764 7.14062 11.6345 7.07644C11.6926 7.00826 11.7622 6.96013 11.8397 6.92404C11.9171 6.88794 11.9984 6.8719 12.0797 6.8719C12.1648 6.8719 12.2422 6.88794 12.3119 6.92404C12.3777 6.96013 12.4435 6.99623 12.4861 7.05639C12.6061 7.22484 12.61 7.3612 12.61 7.3612L11.8203 7.7342C11.8435 7.80238 11.8706 7.85853 11.9093 7.90265C11.9519 7.95078 11.9984 7.98687 12.0564 8.00693C12.1145 8.02698 12.1764 8.03901 12.2422 8.03901C12.3274 8.03901 12.4009 8.02297 12.4629 7.99088ZM11.8087 7.21281C11.7932 7.26896 11.7855 7.32912 11.7816 7.39329V7.44944C11.7816 7.54168 11.7893 7.61388 11.8087 7.68206L12.2809 7.44944V7.3612C12.2809 7.22484 12.2655 7.08045 12.2267 7.02029C12.188 6.96013 12.1338 6.92805 12.0642 6.92805C12.0216 6.92805 11.9829 6.94008 11.948 6.96414C11.9132 6.98821 11.8861 7.02029 11.8629 7.06441C11.8397 7.10853 11.8203 7.15666 11.8087 7.21281Z" fill="#414141"/>
  <circle cx="9.47146" cy="2.33767" r="0.19802" fill="#414141"/>
  <circle cx="11.1218" cy="2.37063" r="0.19802" fill="#414141"/>
  <circle cx="7.82204" cy="2.37063" r="0.19802" fill="#414141"/>
  <circle cx="12.7722" cy="2.53567" r="0.19802" fill="#414141"/>
  <circle cx="6.17165" cy="2.70071" r="0.19802" fill="#414141"/>
  <circle cx="4.81814" cy="3.62478" r="0.19802" fill="#414141"/>
  <circle cx="3.72927" cy="4.84597" r="0.19802" fill="#414141"/>
  <circle cx="3.06911" cy="6.36404" r="0.19802" fill="#414141"/>
  <circle cx="2.97048" cy="8.01418" r="0.19802" fill="#414141"/>
  <circle cx="14.2908" cy="3.19582" r="0.19802" fill="#414141"/>
  <circle cx="15.5779" cy="4.18581" r="0.19802" fill="#414141"/>
  <circle cx="16.3699" cy="5.605" r="0.19802" fill="#414141"/>
  <circle cx="16.7986" cy="7.18923" r="0.19802" fill="#414141"/>
  <circle cx="16.7" cy="8.77346" r="0.19802" fill="#414141"/>
  <circle cx="16.0398" cy="10.2586" r="0.19802" fill="#414141"/>
  <circle cx="14.9177" cy="11.5127" r="0.19802" fill="#414141"/>
  <circle cx="13.6306" cy="12.4038" r="0.19802" fill="#414141"/>
  <circle cx="11.947" cy="12.7337" r="0.19802" fill="#414141"/>
  <circle cx="10.198" cy="12.7998" r="0.19802" fill="#414141"/>
  <circle cx="8.54763" cy="12.7337" r="0.19802" fill="#414141"/>
  <circle cx="6.99685" cy="12.6018" r="0.19802" fill="#414141"/>
  <circle cx="5.5115" cy="11.9417" r="0.19802" fill="#414141"/>
  <circle cx="4.15896" cy="10.9185" r="0.19802" fill="#414141"/>
  <circle cx="3.30056" cy="9.53249" r="0.19802" fill="#414141"/>
  <circle cx="9.73116" cy="4.12325" r="0.135455" fill="#414141"/>
  <circle cx="10.8601" cy="4.12325" r="0.135455" fill="#414141"/>
  <circle cx="8.60225" cy="4.12325" r="0.135455" fill="#414141"/>
  <circle cx="11.989" cy="4.23604" r="0.135455" fill="#414141"/>
  <circle cx="7.47335" cy="4.34908" r="0.135455" fill="#414141"/>
  <circle cx="6.54854" cy="4.98116" r="0.135455" fill="#414141"/>
  <circle cx="5.80342" cy="5.81636" r="0.135455" fill="#414141"/>
  <circle cx="5.35128" cy="6.85494" r="0.135455" fill="#414141"/>
  <circle cx="5.28389" cy="7.98384" r="0.135455" fill="#414141"/>
  <circle cx="13.0271" cy="4.6877" r="0.135455" fill="#414141"/>
  <circle cx="13.9079" cy="5.36495" r="0.135455" fill="#414141"/>
  <circle cx="14.4499" cy="6.33565" r="0.135455" fill="#414141"/>
  <circle cx="14.7429" cy="7.41939" r="0.135455" fill="#414141"/>
  <circle cx="14.6755" cy="8.50289" r="0.135455" fill="#414141"/>
  <circle cx="14.2243" cy="9.519" r="0.135455" fill="#414141"/>
  <circle cx="13.4567" cy="10.3767" r="0.135455" fill="#414141"/>
  <circle cx="12.5759" cy="10.9863" r="0.135455" fill="#414141"/>
  <circle cx="11.4245" cy="11.2121" r="0.135455" fill="#414141"/>
  <circle cx="10.2507" cy="11.2121" r="0.135455" fill="#414141"/>
  <circle cx="9.09932" cy="11.2121" r="0.135455" fill="#414141"/>
  <circle cx="8.0378" cy="11.1218" r="0.135455" fill="#414141"/>
  <circle cx="7.02217" cy="10.6704" r="0.135455" fill="#414141"/>
  <circle cx="6.09639" cy="9.97042" r="0.135455" fill="#414141"/>
  <circle cx="5.50948" cy="9.02217" r="0.135455" fill="#414141"/>
</svg>