<svg xmlns="http://www.w3.org/2000/svg" width="19" height="21" viewBox="0 0 19 21" fill="none">
  <path d="M15.0642 10.41C15.1146 10.3812 15.165 10.3597 15.2226 10.3381C15.8487 10.1149 16.1294 9.6687 16.079 8.97056C16.0575 8.67547 16.0646 8.36598 16.0646 8.06369C16.0646 7.86936 16.0718 7.68223 16.0646 7.4879C16.0359 5.84691 15.3665 4.501 14.0638 3.49337C12.9482 2.62969 11.6455 2.42816 10.5155 2.34899C10.2276 2.33459 9.9325 2.5937 9.68779 2.83841C9.59422 2.93198 9.52945 3.06153 9.47187 3.18388C8.88168 2.18345 8.65137 2.19065 7.62934 2.43536L7.28387 2.51453C4.97352 3.02554 3.52685 4.42183 3.1166 6.54505C2.96545 7.32956 2.99424 8.15726 3.02303 8.95617C3.03023 9.1289 3.03743 9.30164 3.03743 9.46718C3.04462 9.72628 3.28933 9.9638 3.54844 10.1869C3.67079 10.2877 3.80754 10.3597 3.95869 10.4244L3.75716 10.5252C3.17418 10.8203 3.02303 11.1082 3.1022 11.7559C3.41169 14.1671 4.62804 16.0168 6.70088 17.2475C7.87405 17.9457 8.70175 18.2983 9.52945 18.2983C10.3571 18.2983 11.1776 17.9457 12.358 17.2475C14.2149 16.1463 15.3809 14.5629 15.8199 12.5405C16.115 11.173 16.1222 10.9138 15.0642 10.41ZM4.4625 10.6763C4.51289 10.6332 4.57046 10.5828 4.62085 10.5396L4.80798 10.3884L4.61365 10.2517C4.55607 10.2157 4.50569 10.1725 4.45531 10.1293C4.32575 10.0214 4.189 9.91341 4.02346 9.84864C3.6492 9.70469 3.51245 9.47438 3.53404 9.04253C3.54844 8.74024 3.54844 8.43796 3.54844 8.14286C3.54124 7.63905 3.53404 7.16402 3.62761 6.70339C4.00187 4.78889 5.23262 3.58693 7.37744 3.02554C7.51418 2.98955 7.65093 2.96076 7.78768 2.94637C8.03239 2.91038 8.20513 2.88159 8.33468 2.88159C8.65857 2.88159 8.74493 3.03274 9.03283 3.56534C9.112 3.70929 9.27034 3.87483 9.45027 3.91801C9.45747 3.91801 9.46467 3.91801 9.47187 3.92521L9.50066 3.97559L9.52225 3.93241C9.61581 3.91082 9.73097 3.84604 9.89651 3.58693C9.9397 3.52216 9.97568 3.44299 10.0045 3.36382C10.0405 3.27745 10.0764 3.19828 10.1124 3.16229C10.3859 2.91038 10.5011 2.88159 10.5371 2.88159C11.4727 2.96796 12.5451 3.11911 13.452 3.71649C14.7331 4.57297 15.4241 5.76054 15.5105 7.25039C15.5248 7.44472 15.5177 7.63905 15.5177 7.83338V8.29401H15.5248C15.5248 8.33719 15.5248 8.38038 15.5248 8.42356C15.5248 8.66107 15.5177 8.89859 15.532 9.1361C15.5536 9.45278 15.4313 9.63991 15.1218 9.78386C14.9419 9.87023 14.7835 9.98539 14.6324 10.1077C14.5676 10.1581 14.5028 10.2013 14.438 10.2517L14.2293 10.3956L14.4308 10.5468C14.4956 10.5972 14.5532 10.6403 14.618 10.6907C14.7619 10.8059 14.9131 10.9282 15.0858 11.0218C15.3737 11.173 15.4745 11.3457 15.4313 11.648C15.1506 13.8216 14.2149 15.3978 12.5595 16.463C11.8182 16.9452 11.0553 17.3267 10.2996 17.6002C9.87492 17.7513 9.31353 17.7729 8.88168 17.6434C7.83087 17.3339 6.83044 16.7941 5.92357 16.0384C4.60645 14.9516 3.85793 13.4833 3.62041 11.5616C3.59162 11.2953 3.68519 11.1514 4.03066 10.9786C4.1962 10.8995 4.32575 10.7843 4.4625 10.6763Z" fill="black"/>
  <path d="M11.3145 12.4971C10.9114 12.3028 10.4868 12.1805 10.0334 12.0581C9.83904 12.0005 9.64471 11.9501 9.45038 11.8854L9.4 11.8638L9.34242 11.8782C9.14809 11.9429 8.95376 12.0005 8.76663 12.0509C8.32039 12.1805 7.89575 12.3028 7.4927 12.5043C7.19761 12.6483 7.01767 12.8498 6.9385 13.0945C6.85933 13.368 6.91691 13.6847 7.11844 14.0158C7.58626 14.8003 8.43555 15.2681 9.3928 15.2753C9.4 15.2753 9.4072 15.2753 9.41439 15.2753C10.3716 15.2753 11.2209 14.8147 11.696 14.0374C11.9047 13.6991 11.9695 13.3752 11.8831 13.0945C11.8039 12.8498 11.6096 12.6411 11.3145 12.4971ZM7.59346 13.7567C7.50709 13.6199 7.42072 13.4184 7.47111 13.2601C7.4999 13.1521 7.60066 13.0657 7.7518 12.9938C8.11887 12.8282 8.50753 12.7131 8.91777 12.5979C9.07612 12.5547 9.24166 12.5043 9.4 12.454C9.57273 12.5043 9.73827 12.5475 9.89662 12.5907C10.2853 12.6915 10.6523 12.785 10.9906 12.9362C11.1993 13.0297 11.3289 13.1449 11.3649 13.2673C11.4009 13.404 11.3505 13.5839 11.1993 13.8143C10.8107 14.4044 10.1485 14.7571 9.41439 14.7571C9.4 14.7571 9.3856 14.7571 9.37841 14.7571C8.62988 14.7355 7.96772 14.3613 7.59346 13.7567Z" fill="black"/>
  <path d="M7.03968 9.63263C7.04687 9.63263 7.05407 9.63263 7.06127 9.63263H7.12605C7.21241 9.63263 7.36356 9.62543 7.50751 9.58225C8.01852 9.4455 8.56552 9.21518 8.73106 8.56742C8.86781 8.01322 8.65189 7.50221 8.11928 7.09196C7.27719 6.45139 6.37752 6.29305 5.44186 6.60974C4.90926 6.78967 4.54219 7.14954 4.45582 7.60297C4.35506 8.05641 4.54939 8.53863 4.97403 8.92009C5.51384 9.40951 6.17599 9.63263 7.03968 9.63263ZM8.21285 8.41627C8.14807 8.70417 7.93935 8.8913 7.54349 8.99926C7.39955 9.04244 7.2412 9.06404 7.06847 9.08563C6.99649 9.09283 6.92452 9.10722 6.85974 9.11442C6.17599 9.07123 5.65059 8.84812 5.26193 8.44506C5.03161 8.20035 4.93085 7.94125 4.98123 7.70374C5.03161 7.47342 5.21874 7.27909 5.52103 7.16393C5.79453 7.04878 6.07523 6.9912 6.34873 6.9912C6.85255 6.9912 7.35636 7.17833 7.83858 7.55979C8.15527 7.8045 8.27762 8.09239 8.21285 8.41627Z" fill="black"/>
  <path d="M10.9331 9.32337C11.185 9.46012 11.4513 9.53209 11.7176 9.61126C11.8327 9.64005 11.9479 9.67604 12.0559 9.71202L12.0919 9.72642L12.135 9.71922C12.9123 9.62565 13.7904 9.41693 14.3734 8.58923C14.5965 8.27255 14.6757 7.93427 14.6109 7.6032C14.539 7.26492 14.3086 6.96983 13.9632 6.7683C12.9339 6.16372 11.2066 6.55238 10.5372 7.53842C10.3141 7.8695 10.2349 8.23656 10.3213 8.57484C10.3933 8.88433 10.6164 9.15063 10.9331 9.32337ZM13.7257 7.24333C13.9272 7.37288 14.0495 7.54562 14.0783 7.72555C14.1143 7.92708 14.0351 8.1502 13.8624 8.36612C13.5385 8.77637 12.8764 9.07866 12.1278 9.15063C12.0343 9.12184 11.9335 9.09305 11.8327 9.06426C11.5952 8.99948 11.3721 8.93471 11.1778 8.83394C10.9979 8.74038 10.8827 8.60363 10.8395 8.43809C10.7963 8.26535 10.8395 8.05663 10.9619 7.8551C11.185 7.48804 11.66 7.19295 12.2286 7.07059C12.4229 7.02741 12.6173 7.00582 12.7972 7.00582C13.1571 7.00582 13.4809 7.09218 13.7257 7.24333Z" fill="black"/>
  <path d="M8.2832 9.93506L8.2904 10.2733C8.3048 10.7915 8.52072 11.1586 8.95256 11.3961C9.14689 11.5041 9.34122 11.5545 9.53554 11.5545C9.77306 11.5545 10.0034 11.4825 10.2121 11.3313C10.5936 11.065 10.7663 10.7196 10.7519 10.2589L10.7375 9.93506L10.4712 10.115C9.83064 10.5396 9.24765 10.5396 8.5639 10.115L8.2832 9.93506ZM9.21166 10.9211H9.83064C9.72987 10.9859 9.63631 11.0147 9.49956 11.0147C9.39879 11.0147 9.29803 10.9787 9.21166 10.9211Z" fill="black"/>
</svg>