<svg width="20" height="21" viewBox="0 0 20 21" fill="none" xmlns="http://www.w3.org/2000/svg">
<path d="M18.5112 5.42094V7.31008M2.21632 7.31008V5.42094M15.9886 5.79933L17.9447 5.5888M4.85281 5.79933L2.89879 5.60516M10.3711 16.477C10.1617 16.477 9.95809 16.4599 9.76632 16.4229C6.78939 15.8567 6.26127 13.8225 6.17276 12.9746C6.15211 12.7869 5.98984 12.6418 5.79217 12.6418H5.22569C5.16964 12.6418 5.11653 12.619 5.08113 12.5763L4.91886 12.3886C4.8569 12.3174 4.85985 12.215 4.92476 12.1496C4.98966 12.0813 5.09883 11.8992 5.09883 11.4468C5.09883 11.0969 4.4881 10.5762 3.42007 10.0186C3.15748 9.88204 3.04242 9.58615 3.14273 9.31871L3.46137 8.46234C3.53513 8.26318 3.73281 8.12946 3.95113 8.12946C3.97474 8.12946 3.99539 8.12946 4.01899 8.13231C5.58564 8.32577 8.30588 8.55338 9.10248 8.61882C9.12904 8.61882 9.14969 8.61028 9.16444 8.59606C9.17919 8.58183 9.18804 8.56192 9.18509 8.53916C9.18509 8.49932 9.14379 8.46803 9.09953 8.46803C7.04902 8.44527 2.74148 7.97298 2.13075 7.87625C1.7295 7.81081 1.44922 7.48647 1.44922 7.10523V5.52336C1.44922 4.92589 1.84752 4.88037 1.96848 4.88037C2.00389 4.88037 2.02749 4.88322 2.02749 4.88322C5.13423 5.39533 8.42095 5.45223 9.68961 5.45223C10.1204 5.45223 10.3682 5.44654 10.3682 5.44654C10.3711 5.44654 10.619 5.45223 11.0497 5.45223C12.3184 5.45223 15.6051 5.39818 18.7118 4.88322C18.7118 4.88322 18.7354 4.88037 18.7709 4.88037C18.8918 4.88037 19.2901 4.92589 19.2901 5.52336V7.10523C19.2901 7.48363 19.0098 7.80797 18.6263 7.87056C17.9979 7.96729 13.6815 8.44242 11.6339 8.46518C11.6103 8.46518 11.5896 8.47656 11.5749 8.49079C11.5601 8.50786 11.5542 8.52778 11.5572 8.55054C11.5631 8.58752 11.5985 8.61597 11.6398 8.61597C12.2092 8.57045 15.0917 8.33146 16.7233 8.12946C16.7469 8.12946 16.7675 8.12662 16.7912 8.12662C17.0095 8.12662 17.2042 8.26034 17.2809 8.45949L17.5996 9.31587C17.6999 9.58615 17.5848 9.87919 17.3222 10.0158C17.036 10.1665 16.7764 10.3173 16.5522 10.4624C16.5315 10.4738 15.2098 11.1652 14.7023 12.6048C14.6816 12.6674 14.6551 12.7271 14.6285 12.7869C14.602 12.8466 14.5754 12.9263 14.5725 12.969C14.5666 13.0344 14.5577 13.1027 14.543 13.1795L14.5282 13.2705C14.3453 14.2293 13.6431 15.9108 10.976 16.4201C10.7871 16.457 10.5865 16.4741 10.377 16.4741H10.3711V16.477Z" stroke="#414141" stroke-width="0.32135"/>
</svg>
