<svg xmlns="http://www.w3.org/2000/svg" width="20" height="21" viewBox="0 0 20 21" fill="none">
  <g clip-path="url(#clip0_28080_2429)">
    <path d="M9.29562 13.156C9.36004 13.214 9.47099 13.2037 9.52226 13.1357C9.54815 13.1014 9.55377 13.0492 9.53587 13.0115C9.52528 12.9892 9.50377 12.9658 9.48157 12.9521C9.44293 12.9284 9.39249 12.9242 9.34885 12.9385C9.32715 12.9456 9.30726 12.9572 9.29151 12.9725C9.27506 12.9884 9.26277 13.0072 9.25702 13.0284C9.24458 13.0741 9.25888 13.1229 9.29562 13.156Z" fill="black"/>
    <path d="M9.78292 13.5947C9.84735 13.6527 9.95829 13.6424 10.0096 13.5744C10.0355 13.5401 10.0411 13.4879 10.0232 13.4502C10.0126 13.428 9.99107 13.4045 9.96887 13.3908C9.93023 13.3671 9.87979 13.3629 9.83615 13.3772C9.81445 13.3843 9.79456 13.3959 9.77881 13.4112C9.76236 13.4271 9.75007 13.446 9.74432 13.4672C9.73189 13.5129 9.7462 13.5616 9.78292 13.5947Z" fill="black"/>
    <path d="M10.2712 14.0344C10.3356 14.0924 10.4466 14.0821 10.4978 14.0141C10.5237 13.9798 10.5294 13.9276 10.5115 13.8899C10.5009 13.8677 10.4794 13.8442 10.4572 13.8305C10.4185 13.8068 10.3681 13.8026 10.3244 13.8169C10.3027 13.824 10.2828 13.8356 10.2671 13.8509C10.2506 13.8668 10.2384 13.8857 10.2326 13.9069C10.2202 13.9526 10.2345 14.0013 10.2712 14.0344Z" fill="black"/>
    <path d="M7.73214 14.5632C7.79656 14.6212 7.90751 14.6109 7.95878 14.543C7.98467 14.5086 7.9903 14.4564 7.97239 14.4187C7.96181 14.3965 7.94029 14.373 7.91809 14.3593C7.87945 14.3356 7.82901 14.3314 7.78537 14.3457C7.76367 14.3529 7.74378 14.3645 7.72803 14.3797C7.71158 14.3956 7.69929 14.4145 7.69354 14.4357C7.68111 14.4814 7.6954 14.5301 7.73214 14.5632Z" fill="black"/>
    <path d="M8.04269 15.1621C8.10711 15.2201 8.21806 15.2098 8.26933 15.1418C8.29522 15.1075 8.30084 15.0553 8.28294 15.0176C8.27235 14.9953 8.25084 14.9719 8.22864 14.9582C8.19 14.9345 8.13956 14.9303 8.09592 14.9446C8.07422 14.9517 8.05433 14.9633 8.03858 14.9786C8.02213 14.9945 8.00984 15.0134 8.00409 15.0346C7.99165 15.0802 8.00596 15.129 8.04269 15.1621Z" fill="black"/>
    <path d="M8.76927 15.4573C8.75868 15.435 8.73717 15.4116 8.71497 15.3979C8.67633 15.3742 8.62589 15.37 8.58224 15.3843C8.56053 15.3914 8.54066 15.403 8.5249 15.4183C8.50846 15.4342 8.49616 15.453 8.4904 15.4742C8.47798 15.5199 8.49229 15.5687 8.52902 15.6018C8.59344 15.6597 8.70438 15.6494 8.75565 15.5815C8.78156 15.5472 8.7872 15.495 8.76927 15.4573Z" fill="black"/>
    <path d="M8.32101 13.3249C8.38543 13.3829 8.49638 13.3726 8.54765 13.3047C8.57354 13.2704 8.57918 13.2181 8.56126 13.1804C8.55067 13.1582 8.52916 13.1347 8.50697 13.1211C8.46833 13.0973 8.41789 13.0931 8.37424 13.1074C8.35254 13.1146 8.33265 13.1262 8.3169 13.1414C8.30045 13.1574 8.28816 13.1762 8.28241 13.1974C8.26997 13.2431 8.28428 13.2919 8.32101 13.3249Z" fill="black"/>
    <path d="M8.90477 13.6693C8.88833 13.6852 8.87603 13.704 8.87027 13.7252C8.85785 13.7709 8.87216 13.8197 8.90888 13.8527C8.97331 13.9107 9.08425 13.9004 9.13552 13.8325C9.16141 13.7982 9.16705 13.746 9.14914 13.7082C9.13855 13.686 9.11705 13.6625 9.09485 13.6489C9.05621 13.6251 9.00577 13.621 8.96213 13.6353C8.9404 13.6424 8.92051 13.654 8.90477 13.6693Z" fill="black"/>
    <path d="M9.49777 14.3825C9.56219 14.4405 9.67313 14.4302 9.7244 14.3623C9.7503 14.328 9.75594 14.2758 9.73802 14.238C9.72743 14.2158 9.70592 14.1923 9.68372 14.1787C9.64507 14.1549 9.59464 14.1507 9.55099 14.1651C9.5293 14.1722 9.50941 14.1838 9.49365 14.199C9.47721 14.215 9.46491 14.2338 9.45915 14.255C9.44673 14.3007 9.46102 14.3495 9.49777 14.3825Z" fill="black"/>
    <path d="M10.0847 14.9111C10.1491 14.9691 10.26 14.9588 10.3113 14.8909C10.3372 14.8565 10.3429 14.8043 10.3249 14.7666C10.3143 14.7444 10.2928 14.7209 10.2706 14.7072C10.232 14.6835 10.1816 14.6793 10.1379 14.6936C10.1162 14.7007 10.0963 14.7124 10.0806 14.7276C10.0641 14.7435 10.0518 14.7624 10.0461 14.7836C10.0336 14.8293 10.048 14.8781 10.0847 14.9111Z" fill="black"/>
    <path d="M7.74386 13.8459C7.80828 13.9039 7.91923 13.8936 7.9705 13.8257C7.99639 13.7914 8.00203 13.7391 7.98411 13.7014C7.97353 13.6792 7.95201 13.6557 7.92983 13.6421C7.89118 13.6183 7.84076 13.6141 7.79709 13.6284C7.77539 13.6356 7.7555 13.6472 7.73975 13.6624C7.7233 13.6783 7.71101 13.6972 7.70526 13.7184C7.69283 13.7641 7.70713 13.8129 7.74386 13.8459Z" fill="black"/>
    <path d="M8.56906 14.2295C8.55847 14.2072 8.53697 14.1838 8.51477 14.1701C8.47613 14.1464 8.42571 14.1422 8.38205 14.1565C8.36035 14.1636 8.34046 14.1752 8.32471 14.1905C8.30826 14.2064 8.29597 14.2253 8.2902 14.2465C8.27779 14.2921 8.29209 14.3409 8.32882 14.374C8.39324 14.432 8.50419 14.4217 8.55546 14.3537C8.58134 14.3194 8.58699 14.2672 8.56906 14.2295Z" fill="black"/>
    <path d="M8.91866 14.9035C8.98309 14.9615 9.09403 14.9512 9.1453 14.8833C9.17119 14.849 9.17683 14.7967 9.15892 14.759C9.14833 14.7368 9.12681 14.7133 9.10462 14.6997C9.06597 14.6759 9.01555 14.6717 8.97189 14.6861C8.9502 14.6932 8.9303 14.7048 8.91455 14.72C8.89811 14.736 8.88581 14.7548 8.88005 14.776C8.86763 14.8217 8.88192 14.8705 8.91866 14.9035Z" fill="black"/>
    <path d="M9.50558 15.4323C9.57 15.4903 9.68095 15.48 9.73222 15.4121C9.75811 15.3778 9.76375 15.3256 9.74583 15.2879C9.73525 15.2656 9.71373 15.2421 9.69153 15.2285C9.65289 15.2047 9.60246 15.2005 9.55881 15.2149C9.5371 15.222 9.51722 15.2336 9.50147 15.2488C9.48502 15.2648 9.47273 15.2836 9.46696 15.3048C9.45454 15.3505 9.46885 15.3993 9.50558 15.4323Z" fill="black"/>
    <path d="M1.70353 13.6215C2.26736 11.9828 3.79825 11.9747 4.49321 12.1755C7.59837 12.9087 10.8571 11.7622 12.0983 11.0973C13.743 10.4124 14.5164 11.7505 14.6532 12.3815C14.9206 13.4961 14.4709 13.9714 14.0153 14.363C10.3434 16.96 6.08189 16.6659 4.36212 16.1462C1.97144 15.6193 1.43011 14.407 1.70353 13.6215Z" stroke="black" stroke-width="0.316797"/>
    <path d="M12.3059 8.29545C12.2544 8.22779 12.1433 8.21953 12.079 8.27782C12.0465 8.30725 12.0303 8.35768 12.0402 8.39769C12.0461 8.42131 12.0624 8.44794 12.0814 8.46504C12.1146 8.49478 12.1633 8.50725 12.2091 8.5004C12.2319 8.49698 12.2538 8.48887 12.2724 8.47649C12.2919 8.46356 12.3078 8.44708 12.3178 8.42719C12.3393 8.38434 12.3353 8.33403 12.3059 8.29545Z" fill="black"/>
    <path d="M11.9182 7.783C11.8667 7.71534 11.7556 7.70708 11.6913 7.76537C11.6588 7.7948 11.6426 7.84522 11.6525 7.88524C11.6584 7.90886 11.6747 7.93549 11.6938 7.95258C11.7269 7.98233 11.7756 7.9948 11.8214 7.98794C11.8442 7.98453 11.8661 7.97642 11.8847 7.96404C11.9042 7.95111 11.9201 7.93463 11.9301 7.91474C11.9516 7.87188 11.9475 7.82157 11.9182 7.783Z" fill="black"/>
    <path d="M11.5276 7.26957C11.4761 7.20191 11.365 7.19365 11.3007 7.25194C11.2682 7.28138 11.252 7.33178 11.2619 7.37181C11.2677 7.39544 11.2841 7.42206 11.3031 7.43916C11.3363 7.4689 11.385 7.48137 11.4308 7.47452C11.4536 7.47112 11.4755 7.463 11.4941 7.45061C11.5135 7.43768 11.5295 7.4212 11.5395 7.40132C11.561 7.35846 11.5569 7.30815 11.5276 7.26957Z" fill="black"/>
    <path d="M14.1311 7.17118C14.0796 7.10352 13.9685 7.09526 13.9042 7.15356C13.8717 7.18299 13.8555 7.23341 13.8654 7.27342C13.8713 7.29705 13.8876 7.32367 13.9066 7.34077C13.9398 7.37051 13.9885 7.38298 14.0343 7.37613C14.0571 7.37272 14.079 7.36461 14.0976 7.35222C14.117 7.33929 14.133 7.32281 14.143 7.30292C14.1645 7.26007 14.1604 7.20976 14.1311 7.17118Z" fill="black"/>
    <path d="M13.9495 6.53129C13.898 6.46363 13.7868 6.45537 13.7225 6.51366C13.6901 6.54309 13.6739 6.59352 13.6838 6.63353C13.6896 6.65715 13.706 6.68378 13.725 6.70088C13.7581 6.73062 13.8068 6.74309 13.8527 6.73624C13.8755 6.73282 13.8974 6.72471 13.916 6.71233C13.9354 6.6994 13.9513 6.68292 13.9613 6.66303C13.9829 6.62017 13.9788 6.56986 13.9495 6.53129Z" fill="black"/>
    <path d="M13.2951 6.12108C13.3009 6.1447 13.3173 6.17133 13.3363 6.18842C13.3695 6.21817 13.4182 6.23064 13.464 6.22378C13.4868 6.22039 13.5087 6.21226 13.5273 6.19988C13.5467 6.18695 13.5627 6.17047 13.5727 6.15059C13.5942 6.10775 13.5901 6.05743 13.5608 6.01886C13.5093 5.9512 13.3982 5.94294 13.3339 6.00124C13.3014 6.03065 13.2852 6.08106 13.2951 6.12108Z" fill="black"/>
    <path d="M13.2991 8.29056C13.2476 8.2229 13.1364 8.21465 13.0722 8.27294C13.0397 8.30237 13.0235 8.35278 13.0334 8.39281C13.0392 8.41643 13.0556 8.44306 13.0746 8.46014C13.1077 8.48989 13.1564 8.50235 13.2023 8.49551C13.2251 8.4921 13.247 8.48399 13.2656 8.47161C13.285 8.45868 13.3009 8.44219 13.3109 8.42231C13.3325 8.37945 13.3284 8.32914 13.2991 8.29056Z" fill="black"/>
    <path d="M12.7959 7.85539C12.8153 7.84246 12.8312 7.82597 12.8412 7.8061C12.8628 7.76326 12.8587 7.71294 12.8293 7.67437C12.7779 7.60671 12.6667 7.59845 12.6024 7.65675C12.57 7.68618 12.5538 7.73658 12.5637 7.77661C12.5695 7.80023 12.5859 7.82685 12.6049 7.84394C12.638 7.87369 12.6867 7.88616 12.7326 7.8793C12.7554 7.87587 12.7773 7.86776 12.7959 7.85539Z" fill="black"/>
    <path d="M12.3596 7.05717C12.3081 6.98951 12.197 6.98125 12.1327 7.03954C12.1002 7.06897 12.084 7.11938 12.0939 7.15941C12.0998 7.18303 12.1161 7.20966 12.1352 7.22675C12.1683 7.2565 12.217 7.26897 12.2628 7.26211C12.2856 7.2587 12.3075 7.25059 12.3261 7.23821C12.3456 7.22528 12.3615 7.2088 12.3715 7.18892C12.393 7.14605 12.389 7.09575 12.3596 7.05717Z" fill="black"/>
    <path d="M11.8909 6.43973C11.8394 6.37207 11.7282 6.36381 11.664 6.42211C11.6315 6.45154 11.6153 6.50195 11.6252 6.54198C11.631 6.5656 11.6474 6.59223 11.6664 6.60932C11.6995 6.63907 11.7483 6.65154 11.7941 6.64468C11.8169 6.64129 11.8388 6.63316 11.8574 6.62078C11.8768 6.60785 11.8927 6.59136 11.9027 6.57149C11.9243 6.52862 11.9202 6.4783 11.8909 6.43973Z" fill="black"/>
    <path d="M13.9739 7.87455C13.9224 7.80689 13.8112 7.79863 13.747 7.85693C13.7145 7.88636 13.6983 7.93676 13.7082 7.97679C13.714 8.00042 13.7304 8.02704 13.7494 8.04412C13.7825 8.07387 13.8312 8.08635 13.8771 8.0795C13.8999 8.07609 13.9218 8.06798 13.9404 8.05559C13.9598 8.04266 13.9758 8.02618 13.9857 8.00629C14.0073 7.96344 14.0032 7.91312 13.9739 7.87455Z" fill="black"/>
    <path d="M13.2394 7.36059C13.2453 7.38422 13.2616 7.41083 13.2807 7.42793C13.3138 7.45767 13.3625 7.47015 13.4083 7.46329C13.4311 7.45988 13.453 7.45177 13.4716 7.43938C13.4911 7.42645 13.507 7.40997 13.517 7.39009C13.5385 7.34725 13.5345 7.29693 13.5051 7.25836C13.4536 7.1907 13.3425 7.18244 13.2782 7.24074C13.2458 7.27016 13.2295 7.32058 13.2394 7.36059Z" fill="black"/>
    <path d="M13.0354 6.64091C12.9839 6.57325 12.8728 6.56499 12.8085 6.62328C12.776 6.65271 12.7598 6.70312 12.7697 6.74315C12.7756 6.76677 12.7919 6.7934 12.8109 6.8105C12.8441 6.84024 12.8928 6.85272 12.9386 6.84586C12.9614 6.84244 12.9833 6.83433 13.0019 6.82195C13.0213 6.80902 13.0373 6.79254 13.0473 6.77266C13.0688 6.72979 13.0647 6.67949 13.0354 6.64091Z" fill="black"/>
    <path d="M12.5666 6.02347C12.5152 5.95581 12.404 5.94756 12.3397 6.00585C12.3073 6.03528 12.291 6.08569 12.301 6.12572C12.3068 6.14934 12.3232 6.17597 12.3422 6.19306C12.3753 6.22281 12.424 6.23529 12.4699 6.22842C12.4927 6.22503 12.5146 6.2169 12.5332 6.20452C12.5526 6.19159 12.5685 6.1751 12.5785 6.15523C12.6001 6.11236 12.596 6.06205 12.5666 6.02347Z" fill="black"/>
    <path d="M17.8858 9.07994C17.03 10.587 15.5238 10.3133 14.8776 9.98802C11.9604 8.69595 8.54636 9.2233 7.20399 9.64849C5.46133 10.0192 4.94741 8.56159 4.92902 7.91621C4.87122 6.77144 5.40074 6.38697 5.92057 6.08589C10.0076 4.20884 14.1423 5.28197 15.7371 6.10916C17.99 7.06698 18.299 8.35814 17.8858 9.07994Z" stroke="black" stroke-width="0.316797"/>
  </g>
  <defs>
    <clipPath id="clip0_28080_2429">
      <rect width="20" height="20" fill="white" transform="translate(0 0.668457)"/>
    </clipPath>
  </defs>
</svg>