<svg xmlns="http://www.w3.org/2000/svg" width="20" height="21" viewBox="0 0 20 21" fill="none">
  <path fill-rule="evenodd" clip-rule="evenodd" d="M8.54673 9.98437C8.54673 11.981 6.98751 13.5997 5.06412 13.5997C3.14072 13.5997 1.5815 11.981 1.5815 9.98437C1.5815 7.9877 3.14072 6.36908 5.06412 6.36908C6.98751 6.36908 8.54673 7.9877 8.54673 9.98437ZM8.23514 9.98437C8.23514 11.8024 6.81542 13.2762 5.06412 13.2762C3.31281 13.2762 1.89309 11.8024 1.89309 9.98437C1.89309 8.16634 3.31281 6.69254 5.06412 6.69254C6.81542 6.69254 8.23514 8.16634 8.23514 9.98437Z" fill="#414141"/>
  <path d="M13.7323 10.5484H14.0384L14.042 10.5447V9.27744H13.7215V10.2175C13.6999 10.2626 13.6711 10.2965 13.6351 10.3266C13.5991 10.3566 13.5559 10.3717 13.5019 10.3717C13.4407 10.3717 13.3903 10.3491 13.3579 10.3078C13.3255 10.2664 13.3075 10.2062 13.3075 10.131V9.27744H12.987V10.1498C12.987 10.2814 13.0122 10.3867 13.0698 10.4657C13.1274 10.5447 13.2102 10.586 13.3183 10.586C13.3723 10.586 13.4191 10.5747 13.4623 10.5559C13.5055 10.5371 13.5451 10.5108 13.5775 10.4807C13.6099 10.4506 13.6387 10.4168 13.6639 10.3792C13.6891 10.3416 13.7107 10.304 13.7287 10.2664L13.7323 10.2702V10.5484Z" fill="#414141"/>
  <path d="M16.1663 9.2624H16.2203V9.40153H16.2419V9.2624H16.2923V9.2436H16.1663V9.2624Z" fill="#414141"/>
  <path d="M16.4544 9.28496V9.39777H16.476V9.23984H16.458L16.3968 9.35265L16.332 9.23984H16.314V9.39777H16.3356V9.28496L16.3896 9.37897H16.4004L16.4544 9.28496Z" fill="#414141"/>
  <path d="M14.7657 9.34889C14.7981 9.31881 14.8377 9.29248 14.8773 9.26992L14.8809 9.2624C14.9205 9.23984 14.9529 9.23232 14.9997 9.23232V9.60835H14.9745C14.9637 9.59331 14.9457 9.57826 14.9241 9.56322L14.8593 9.52938C14.8341 9.52186 14.8125 9.51434 14.7909 9.50682L14.7801 9.5049C14.7632 9.50188 14.7488 9.4993 14.7369 9.4993C14.7153 9.4993 14.6937 9.51058 14.6685 9.52562C14.6433 9.54442 14.6217 9.56698 14.5965 9.59707V10.5484H14.2724V9.2812H14.5929V9.54066C14.6145 9.51434 14.6397 9.48426 14.6685 9.45042C14.6973 9.41281 14.7297 9.37897 14.7657 9.34889Z" fill="#414141"/>
  <path d="M12.4613 10.8342C12.5693 10.8116 12.6918 10.8004 12.8214 10.8004V10.3867C12.6846 10.3867 12.5585 10.413 12.4433 10.4694C12.3281 10.5259 12.2273 10.5973 12.1409 10.6913C12.0545 10.7816 11.986 10.8906 11.9356 11.0109C11.8924 11.1237 11.8672 11.2441 11.8636 11.3682V11.3907H11.9176C11.9176 11.2854 11.9392 11.1989 11.986 11.1237C12.0329 11.0485 12.0977 10.9884 12.1769 10.9395C12.2561 10.8906 12.3497 10.8568 12.4613 10.8342Z" fill="#414141"/>
  <path fill-rule="evenodd" clip-rule="evenodd" d="M11.4928 10.5108C11.5828 10.5522 11.6836 10.5785 11.7844 10.586L11.7808 10.5823C11.8168 10.586 11.878 10.586 11.878 10.586C11.9968 10.5823 12.1121 10.5597 12.2201 10.5108C12.3353 10.4582 12.4361 10.3867 12.5261 10.2965C12.6161 10.21 12.6846 10.1009 12.7386 9.98061C12.7926 9.85652 12.8178 9.72492 12.8178 9.58579C12.8178 9.44289 12.7926 9.31129 12.7386 9.19096C12.6846 9.07063 12.6161 8.96158 12.5261 8.87133C12.4397 8.78109 12.3353 8.70964 12.2201 8.657C12.1049 8.60435 11.9824 8.57803 11.8564 8.57803C11.7304 8.57803 11.608 8.60435 11.4928 8.657C11.3775 8.70964 11.2731 8.78109 11.1867 8.87133C11.0967 8.96158 11.0283 9.07063 10.9743 9.19096C10.9203 9.31505 10.8951 9.44666 10.8951 9.58579C10.8951 9.72868 10.9203 9.86028 10.9743 9.98061C11.0283 10.1009 11.1003 10.2062 11.1867 10.2965C11.2731 10.3867 11.3775 10.4582 11.4928 10.5108ZM12.1121 10.4619C12.0401 10.5108 11.9572 10.5334 11.8564 10.5334V10.5259C11.7556 10.5259 11.6728 10.5033 11.6008 10.4544C11.5288 10.4055 11.4712 10.3378 11.4244 10.2551C11.3775 10.1686 11.3451 10.0709 11.3235 9.95429C11.3019 9.83772 11.2911 9.71363 11.2911 9.57826C11.2911 9.44289 11.3019 9.31881 11.3235 9.20224C11.3451 9.08567 11.3775 8.9879 11.4244 8.90142C11.4712 8.81869 11.5288 8.75101 11.6008 8.70212C11.6728 8.65324 11.7556 8.63068 11.8564 8.63068C11.9572 8.63068 12.0401 8.65324 12.1121 8.70212C12.1841 8.75101 12.2417 8.81869 12.2885 8.90142C12.3353 8.9879 12.3677 9.08567 12.3893 9.20224C12.4109 9.31881 12.4217 9.44666 12.4217 9.58203C12.4217 9.72116 12.4109 9.84524 12.3893 9.96181C12.3677 10.0784 12.3353 10.1799 12.2885 10.2626C12.2417 10.3491 12.1841 10.413 12.1121 10.4619Z" fill="#414141"/>
  <path fill-rule="evenodd" clip-rule="evenodd" d="M15.9791 10.289C16.0331 10.2589 16.0799 10.2213 16.1123 10.1799L16.1195 10.1761L16.1339 10.1837C16.0979 10.3002 16.0367 10.398 15.9503 10.4732C15.8639 10.5484 15.7487 10.586 15.6118 10.586C15.5218 10.586 15.4426 10.571 15.3706 10.5371C15.2986 10.5033 15.2374 10.4582 15.187 10.398C15.1366 10.3378 15.097 10.2702 15.0681 10.1912C15.0393 10.1122 15.0249 10.0257 15.0249 9.93549C15.0249 9.8302 15.0429 9.7362 15.0753 9.64971C15.1078 9.56698 15.1546 9.49178 15.2086 9.43161C15.2626 9.36769 15.3274 9.32257 15.3994 9.28872C15.4714 9.25488 15.547 9.23984 15.6226 9.23984C15.7019 9.23984 15.7739 9.25488 15.8387 9.28872C15.8999 9.32257 15.9611 9.35641 16.0007 9.41281C16.1123 9.57074 16.1159 9.69859 16.1159 9.69859L15.3814 10.0483C15.403 10.1122 15.4282 10.1649 15.4642 10.2062C15.5038 10.2514 15.547 10.2852 15.601 10.304C15.655 10.3228 15.7127 10.3341 15.7739 10.3341C15.8531 10.3341 15.9215 10.319 15.9791 10.289ZM15.3706 9.55946C15.3562 9.61211 15.349 9.66851 15.3454 9.72868V9.78132C15.3454 9.86781 15.3526 9.93549 15.3706 9.99941L15.8099 9.78132V9.69859C15.8099 9.57074 15.7955 9.43537 15.7595 9.37897C15.7235 9.32257 15.673 9.29248 15.6082 9.29248C15.5686 9.29248 15.5326 9.30377 15.5002 9.32633C15.4678 9.34889 15.4426 9.37897 15.421 9.42033C15.3994 9.4617 15.3814 9.50682 15.3706 9.55946Z" fill="#414141"/>
  <path fill-rule="evenodd" clip-rule="evenodd" d="M7.27138 14.0115C7.64375 13.7911 7.98257 13.5166 8.27795 13.1984C11.0098 12.5848 12.7207 12.5951 15.1244 12.6097C15.5093 12.612 15.912 12.6144 16.3395 12.6144C17.341 12.6144 18.1064 12.3173 18.6238 11.8502C19.1415 11.3829 19.4016 10.7532 19.4016 10.1124V9.87634C19.4016 9.13978 19.0995 8.50195 18.5597 8.05168C18.0224 7.60352 17.2588 7.3479 16.3395 7.3479C16.074 7.3479 15.7522 7.35248 15.3901 7.35763C14.5244 7.36993 13.4287 7.38551 12.3231 7.34962C10.7496 7.29855 9.19463 7.14336 8.28224 6.74231L8.2298 6.71926C7.42145 5.8747 6.3016 5.35181 5.06412 5.35181C2.59952 5.35181 0.601562 7.42588 0.601562 9.98437C0.601562 11.5939 1.39224 13.0117 2.59237 13.842V14.9187C2.59237 15.1774 2.80959 15.377 3.05576 15.3492C3.52008 15.2968 4.43522 15.2024 5.07845 15.1926C5.64904 15.1838 6.38296 15.276 6.79111 15.3355C7.04165 15.3721 7.27138 15.1715 7.27138 14.9047V14.0115ZM9.20095 9.98406C9.2053 9.87062 9.20579 9.75732 9.20236 9.64456C9.03546 7.42355 7.24646 5.67526 5.06412 5.67526C2.7716 5.67526 0.91315 7.60452 0.91315 9.98437C0.91315 11.7143 1.89512 13.2061 3.31198 13.8919C4.00459 14.1351 4.55778 14.2552 5.07493 14.2567C5.70911 14.2584 6.30349 14.0817 7.04764 13.7073L7.27138 13.5947V13.6344C7.41089 13.5433 7.5448 13.4439 7.67247 13.3367L7.62046 13.3486L8.01708 12.9511C8.73067 12.236 9.15756 11.1162 9.20095 9.98406ZM3.19558 14.1925C3.76398 14.465 4.39695 14.6169 5.06412 14.6169C5.74192 14.6169 6.38443 14.4601 6.9598 14.1794V14.9047C6.9598 14.9708 6.90152 15.025 6.83446 15.0152C6.42513 14.9555 5.67052 14.86 5.07385 14.8692C4.41423 14.8793 3.4857 14.9753 3.02207 15.0277C2.95866 15.0348 2.90396 14.9832 2.90396 14.9187V14.0857C3.00348 14.1234 3.10061 14.159 3.19558 14.1925ZM9.52667 9.98437C9.52667 11.0415 9.18561 12.0158 8.61149 12.7954C11.1514 12.2618 12.84 12.2722 15.1286 12.2862C15.513 12.2885 15.9143 12.291 16.3395 12.291C17.2818 12.291 17.9696 12.0121 18.4193 11.6061C18.8688 11.2004 19.09 10.6598 19.09 10.1124V9.87634C19.09 9.23893 18.8316 8.69341 18.3645 8.30382C17.8949 7.91211 17.2054 7.67136 16.3395 7.67136C16.0805 7.67136 15.7631 7.67587 15.4042 7.68096C14.5365 7.69328 13.4262 7.70905 12.3133 7.67292C11.0307 7.63129 9.71875 7.52063 8.75096 7.24744C9.24492 7.92096 9.48573 8.7672 9.51346 9.62534C9.52221 9.74383 9.52667 9.86356 9.52667 9.98437Z" fill="#414141"/>
  <path fill-rule="evenodd" clip-rule="evenodd" d="M16.73 5.96337H11.7894C11.7843 5.96337 11.7794 5.96443 11.7747 5.96638C11.7717 5.96763 11.7689 5.96924 11.7662 5.97117C11.7533 5.98048 11.7444 5.99725 11.7444 6.01687V6.99822C12.3326 7.0102 12.9185 7.02651 13.5045 7.04283C14.4861 7.07016 15.4684 7.09751 16.4635 7.10455C16.5672 7.10528 16.6711 7.1058 16.7751 7.10607V6.01687C16.7751 5.99809 16.7665 5.98076 16.7533 5.97117C16.7469 5.96653 16.7395 5.9637 16.7314 5.9634L16.73 5.96337ZM16.4635 6.78109C15.4726 6.77406 14.4971 6.74689 13.5186 6.71963C13.0326 6.70609 12.5458 6.69253 12.056 6.68141V6.28683H16.4635V6.78109Z" fill="#414141"/>
  <path d="M16.7036 5.63991C16.7077 5.6425 16.7116 5.64511 16.7153 5.64772H11.7747C11.7784 5.64511 11.7823 5.64251 11.7864 5.63993C12.0466 5.47504 13.0493 5.3519 14.2443 5.35181H14.2457C15.4421 5.3519 16.4434 5.47503 16.7036 5.63991Z" fill="#414141"/>
</svg>