<svg xmlns="http://www.w3.org/2000/svg" width="20" height="21" viewBox="0 0 20 21" fill="none">
  <g clip-path="url(#clip0_28080_2636)">
    <path d="M11.0993 11.0745L11.0993 10.8412L11.3024 10.8412L11.3052 10.8384C11.2777 10.8247 11.2503 10.8082 11.2228 10.789C11.1954 10.7698 11.1707 10.7478 11.1487 10.7231C11.1267 10.6984 11.1075 10.6682 11.0938 10.6353C11.0801 10.6023 11.0718 10.5667 11.0718 10.5255C11.0718 10.4431 11.102 10.38 11.1597 10.3361C11.2173 10.2921 11.2942 10.2729 11.3903 10.2729L12.0272 10.2729L12.0272 10.5172L11.404 10.5172C11.3491 10.5172 11.3052 10.531 11.275 10.5557C11.2448 10.5804 11.2283 10.6188 11.2283 10.6655C11.2283 10.7067 11.2393 10.7396 11.2613 10.7671C11.2832 10.7945 11.3079 10.8165 11.3409 10.8329L12.0272 10.8329L12.0272 11.0773L11.102 11.0773L11.0993 11.0745ZM12.0381 12.7354L12.0381 12.6969L12.0519 12.6969L12.0519 12.793L12.0381 12.793L12.0381 12.7546L11.9366 12.7546L11.9366 12.7381L12.0381 12.7381L12.0381 12.7354ZM11.9366 12.9165L12.0217 12.9165L11.953 12.8754L11.953 12.8671L12.0217 12.8259L11.9393 12.8259L11.9393 12.8095L12.0546 12.8095L12.0546 12.8232L11.9723 12.8726L12.0546 12.9193L12.0546 12.933L11.9393 12.933L11.9393 12.9165L11.9366 12.9165ZM12.0327 11.7141C12.0162 11.6839 11.997 11.6538 11.975 11.629C11.953 11.6016 11.9283 11.5769 11.9009 11.5549C11.8762 11.533 11.8542 11.5137 11.835 11.4973L12.0244 11.4973L12.0244 11.253L11.4946 11.253L11.0993 11.253L11.0993 11.5L11.7938 11.5C11.8158 11.5192 11.8323 11.5357 11.846 11.5549C11.857 11.5741 11.8652 11.5906 11.8652 11.6071C11.8652 11.6181 11.8625 11.6318 11.8597 11.6483C11.8542 11.6647 11.8487 11.6812 11.8432 11.7004C11.835 11.7169 11.8268 11.7334 11.8185 11.7498C11.8076 11.7663 11.7966 11.78 11.7856 11.7883L11.7856 11.8075L12.0601 11.8075C12.0601 11.7718 12.0546 11.7471 12.0381 11.7169L12.0327 11.7141ZM10.9154 10.1466C10.9154 10.0478 10.9071 9.95449 10.8907 9.87213C10.8742 9.78703 10.8495 9.71565 10.8138 9.65526C10.7781 9.59487 10.7342 9.54545 10.6793 9.50977C10.6244 9.47408 10.5612 9.45761 10.4844 9.45761L10.4844 9.41643C10.4954 9.41643 10.5008 9.41643 10.5008 9.41643C10.5914 9.41918 10.6793 9.43839 10.7616 9.47133C10.8495 9.50977 10.9291 9.56193 10.995 9.62781C11.0636 9.69369 11.1158 9.77056 11.1569 9.8584C11.1981 9.94625 11.2173 10.0423 11.2173 10.1466L10.9126 10.1466L10.9154 10.1466ZM11.1103 9.41094C11.1103 9.48781 11.1267 9.55095 11.1624 9.60585C11.1981 9.66075 11.2448 9.70467 11.3079 9.74036C11.3683 9.77605 11.4424 9.80076 11.5275 9.81723C11.6126 9.8337 11.7032 9.84193 11.8048 9.84193C11.9036 9.84193 11.997 9.8337 12.0821 9.81723C12.1672 9.80076 12.2385 9.77605 12.3017 9.74036C12.3621 9.70467 12.4115 9.66075 12.4472 9.60585C12.4829 9.55095 12.4993 9.48781 12.4993 9.41094C12.4993 9.33408 12.4829 9.27094 12.4472 9.21603C12.4115 9.16113 12.3621 9.11721 12.3017 9.08152C12.2385 9.04583 12.1672 9.02113 12.0821 9.00465C11.997 8.98818 11.9064 8.97995 11.8076 8.97995C11.7087 8.97995 11.6181 8.98818 11.533 9.00465C11.4479 9.02113 11.3766 9.04583 11.3134 9.08152C11.253 9.11721 11.2036 9.16113 11.1679 9.21603C11.1322 9.27094 11.1158 9.33408 11.1158 9.41094L11.1103 9.41094ZM11.0718 9.35604C11.0773 9.27917 11.0965 9.20231 11.1267 9.13368C11.1652 9.04583 11.2173 8.96622 11.2832 8.90034C11.3491 8.83445 11.426 8.77955 11.5138 8.73837C11.6017 8.69719 11.6977 8.67798 11.8021 8.67798C11.9036 8.67798 11.9997 8.69719 12.0903 8.73837C12.1781 8.77955 12.2578 8.83171 12.3236 8.90034C12.3895 8.96622 12.4417 9.04583 12.4801 9.13368C12.5186 9.22152 12.5378 9.31486 12.5378 9.41094C12.5378 9.50702 12.5186 9.60036 12.4801 9.6882C12.4417 9.77605 12.3895 9.85566 12.3236 9.92154C12.2578 9.99017 12.1781 10.0423 12.0903 10.0835C12.0025 10.1247 11.9064 10.1439 11.8021 10.1439C11.7005 10.1439 11.6044 10.1247 11.5138 10.0835C11.426 10.0423 11.3464 9.99017 11.2832 9.92154C11.2173 9.85291 11.1652 9.77605 11.1267 9.6882C11.0911 9.60585 11.0746 9.518 11.0718 9.42741C11.0718 9.42741 11.0718 9.38074 11.0746 9.35329L11.0718 9.35604ZM11.6977 12.071C11.7417 12.0738 11.7828 12.0793 11.8213 12.0902C11.8597 12.0985 11.8927 12.1122 11.9228 12.1287C11.953 12.1451 11.975 12.1644 11.9915 12.1891C12.0079 12.2138 12.0162 12.2412 12.0162 12.2714C12.0162 12.3208 11.9942 12.3593 11.953 12.3867C11.9119 12.4142 11.813 12.4251 11.7197 12.4251L11.6593 12.4251L11.5001 12.0902C11.5468 12.0765 11.5962 12.071 11.6593 12.071L11.6977 12.071ZM11.3683 12.6557C11.3381 12.631 11.3107 12.5953 11.2887 12.5542C11.2668 12.5102 11.2558 12.4581 11.2558 12.3977C11.2558 12.351 11.264 12.3071 11.2777 12.2659C11.2915 12.2247 11.3162 12.1918 11.3491 12.1616C11.3793 12.1342 11.4177 12.1149 11.4644 12.0985L11.7197 12.6585C11.7197 12.6585 11.813 12.6557 11.9283 12.5706C11.9695 12.5404 11.9942 12.4938 12.0189 12.4471C12.0436 12.3977 12.0546 12.3428 12.0546 12.2824C12.0546 12.2247 12.0436 12.1671 12.0189 12.1122C11.9942 12.0573 11.9613 12.0079 11.9146 11.9667C11.8707 11.9255 11.8158 11.8898 11.7554 11.8651C11.6923 11.8404 11.6236 11.8267 11.5468 11.8267C11.4809 11.8267 11.4177 11.8377 11.3601 11.8596C11.3024 11.8816 11.253 11.9118 11.2091 11.9502C11.1652 11.9887 11.1322 12.0353 11.1075 12.0902C11.0828 12.1451 11.0718 12.2055 11.0718 12.2742C11.0718 12.3785 11.0993 12.4663 11.1542 12.5322C11.2091 12.5981 11.2805 12.6448 11.3656 12.6722L11.3711 12.6612L11.3683 12.6557Z" fill="#414141"/>
    <path fill-rule="evenodd" clip-rule="evenodd" d="M9.65575 10.1359L9.6585 10.1359C9.67222 10.1469 9.68595 10.1551 9.69693 10.1634C9.70791 10.1689 9.71889 10.1744 9.72987 10.1798C9.74085 10.1826 9.75458 10.1853 9.76556 10.1881C9.77928 10.1908 9.79301 10.1908 9.81223 10.1908L10.2295 10.1908C10.2432 10.1908 10.2542 10.1881 10.2624 10.1853C10.2734 10.1826 10.2817 10.1798 10.2899 10.1744C10.2981 10.1689 10.3064 10.1634 10.3146 10.1551C10.3228 10.1469 10.3311 10.1387 10.3393 10.1277L10.342 10.1277L10.342 10.2622L9.77654 10.5175L10.342 10.7673L10.342 10.8936L10.3393 10.8936C10.3311 10.8799 10.3201 10.8716 10.3118 10.8634C10.3036 10.8552 10.2926 10.8497 10.2844 10.8442C10.2734 10.8387 10.2624 10.8359 10.2515 10.8332C10.2377 10.8305 10.224 10.8305 10.2075 10.8305L9.80125 10.8305C9.78477 10.8305 9.77105 10.8305 9.76007 10.8332C9.74909 10.8332 9.73811 10.8359 9.72713 10.8387C9.71614 10.8414 9.70791 10.8442 9.69693 10.8497C9.68595 10.8552 9.67497 10.8606 9.66399 10.8689L9.66124 10.8689L9.66124 10.7179L9.66399 10.7179C9.67497 10.7261 9.68595 10.7316 9.69693 10.7371C9.70791 10.7426 9.71614 10.7454 9.72713 10.7481C9.73811 10.7508 9.74909 10.7536 9.76007 10.7536C9.77105 10.7536 9.78752 10.7563 9.80125 10.7563L10.2679 10.7563L9.67771 10.4955L9.67771 10.4791L10.2707 10.21L9.81223 10.2128C9.79575 10.2128 9.77928 10.2128 9.76556 10.2155C9.75183 10.2183 9.74085 10.221 9.72987 10.2265C9.71889 10.232 9.70791 10.2375 9.69693 10.2457C9.68595 10.254 9.67222 10.2649 9.6585 10.2787L9.65575 10.2787L9.65575 10.1359ZM10.2707 11.0528C10.2569 11.0528 10.246 11.0473 10.2377 11.0391C10.2295 11.0308 10.224 11.0199 10.224 11.0061C10.224 10.9924 10.2295 10.9842 10.2377 10.9732C10.246 10.965 10.2569 10.9595 10.2707 10.9595C10.2844 10.9595 10.2926 10.965 10.3036 10.9732C10.3118 10.9814 10.3173 10.9924 10.3173 11.0061C10.3173 11.0199 10.3118 11.0281 10.3036 11.0391C10.2954 11.0473 10.2844 11.0528 10.2707 11.0528ZM9.6585 10.9567C9.67771 10.965 9.69967 10.9705 9.72163 10.9732C9.7436 10.9759 9.7683 10.9787 9.80125 10.9787L9.97419 10.9787C9.99615 10.9787 10.0154 10.9732 10.0318 10.965C10.0456 10.9567 10.0593 10.9457 10.0675 10.9375L10.0703 10.9375L10.1197 11.0473L9.80125 11.0473C9.7683 11.0473 9.74085 11.0473 9.72163 11.0501C9.69967 11.0528 9.68046 11.0583 9.6585 11.0665L9.65575 11.0665L9.65575 10.9567L9.6585 10.9567ZM9.76007 11.5167C9.72438 11.503 9.69693 11.4838 9.67497 11.4536C9.65301 11.4234 9.64202 11.3877 9.64202 11.3411C9.64202 11.3109 9.64751 11.2834 9.6585 11.2587C9.66948 11.234 9.6832 11.212 9.70242 11.1928C9.72163 11.1736 9.74634 11.1599 9.77379 11.1516C9.80124 11.1407 9.83419 11.1379 9.86713 11.1379C9.90556 11.1379 9.9385 11.1434 9.9687 11.1571C9.9989 11.1709 10.0236 11.1873 10.0456 11.2093C10.0675 11.2312 10.084 11.256 10.095 11.2834C10.106 11.3109 10.1114 11.3411 10.1114 11.3713C10.1114 11.4014 10.1087 11.4289 10.1005 11.4481C10.095 11.4673 10.0867 11.4838 10.084 11.4948L9.98792 11.503L9.98517 11.4948C9.9989 11.4865 10.0126 11.4756 10.0263 11.4673C10.0401 11.4564 10.0511 11.4454 10.0593 11.4344C10.0675 11.4234 10.0758 11.4097 10.0813 11.396C10.0867 11.3822 10.0895 11.3685 10.0895 11.3548C10.0895 11.3081 10.073 11.2724 10.0373 11.245C10.0016 11.2175 9.95497 11.2038 9.89184 11.2038C9.83144 11.2038 9.78477 11.2175 9.74909 11.245C9.7134 11.2724 9.69693 11.3136 9.69693 11.3658C9.69693 11.3932 9.70242 11.4179 9.71065 11.4426C9.71889 11.4673 9.73536 11.4893 9.75732 11.5058L9.75458 11.5113L9.76007 11.5167ZM9.6585 11.6018C9.66948 11.6073 9.67771 11.6101 9.68869 11.6128C9.69967 11.6156 9.70791 11.6183 9.72163 11.6183C9.73262 11.6183 9.7436 11.6211 9.75732 11.6211C9.77105 11.6211 9.78477 11.6211 9.80125 11.6211L9.97694 11.6211C10.0016 11.6211 10.0209 11.6156 10.0346 11.6073C10.0483 11.5991 10.062 11.5881 10.0703 11.5799L10.073 11.5799L10.1224 11.6842L10.0099 11.6842L10.0099 11.6897C10.0209 11.7007 10.0318 11.7089 10.0456 11.7199C10.0593 11.7309 10.0703 11.7419 10.0813 11.7556C10.0922 11.7666 10.1005 11.7803 10.1087 11.794C10.1169 11.8077 10.1197 11.8215 10.1197 11.8379L10.0263 11.8379L10.0263 11.8352C10.0291 11.8324 10.0318 11.827 10.0346 11.8215C10.0373 11.816 10.0401 11.8077 10.0401 11.8022C10.0428 11.794 10.0428 11.7885 10.0456 11.7803C10.0456 11.7748 10.0483 11.7666 10.0483 11.7611C10.0483 11.7528 10.0428 11.7419 10.0318 11.7281C10.0209 11.7144 10.0071 11.7007 9.99066 11.6897L9.80673 11.6897C9.77379 11.6897 9.74634 11.6897 9.72713 11.6924C9.70516 11.6952 9.68595 11.7007 9.66399 11.7089L9.66124 11.7089L9.66124 11.5991L9.66399 11.5991L9.6585 11.6018ZM9.64202 12.1152C9.64202 12.0823 9.64752 12.0521 9.66124 12.0246C9.67497 11.9972 9.69144 11.9724 9.7134 11.9505C9.73536 11.9285 9.76007 11.9121 9.78752 11.9011C9.81497 11.8873 9.84517 11.8819 9.87811 11.8819C9.91105 11.8819 9.94125 11.8873 9.9687 11.9011C9.99615 11.9148 10.0236 11.9313 10.0428 11.9532C10.0648 11.9752 10.0813 11.9999 10.095 12.0273C10.1087 12.0548 10.1142 12.085 10.1142 12.1179C10.1142 12.1509 10.1087 12.1811 10.095 12.2085C10.0813 12.236 10.0648 12.2607 10.0428 12.2827C10.0209 12.3046 9.99615 12.3211 9.9687 12.3321C9.94125 12.3458 9.90831 12.3513 9.87811 12.3513C9.84517 12.3513 9.81497 12.3458 9.78752 12.3321C9.76007 12.3183 9.73536 12.3019 9.7134 12.2827C9.69144 12.2607 9.67497 12.236 9.66124 12.2085C9.64752 12.1811 9.64202 12.1509 9.64202 12.1179L9.64202 12.1152ZM9.6585 12.1152C9.6585 12.1426 9.66399 12.1646 9.67497 12.1838C9.68595 12.203 9.70242 12.2195 9.72163 12.2332C9.74085 12.247 9.76556 12.2552 9.79026 12.2634C9.81772 12.2689 9.84517 12.2717 9.87262 12.2717C9.90282 12.2717 9.93027 12.2689 9.95497 12.2607C9.98243 12.2552 10.0044 12.2442 10.0236 12.2305C10.0428 12.2168 10.0593 12.2003 10.073 12.1811C10.084 12.1619 10.0895 12.1399 10.0895 12.1124C10.0895 12.085 10.084 12.063 10.073 12.0438C10.062 12.0246 10.0456 12.0081 10.0236 11.9944C10.0044 11.9807 9.97968 11.9724 9.95497 11.9642C9.92752 11.9587 9.90007 11.9532 9.87262 11.9532C9.84242 11.9532 9.81497 11.956 9.79026 11.9615C9.76281 11.967 9.74085 11.9779 9.72163 11.9917C9.70242 12.0054 9.68595 12.0219 9.67497 12.0411C9.66399 12.0603 9.6585 12.0823 9.6585 12.1097L9.6585 12.1152ZM9.65575 12.5736C9.66673 12.5819 9.67771 12.5874 9.68869 12.5929C9.69967 12.5983 9.70791 12.6011 9.71889 12.6038C9.72987 12.6066 9.74085 12.6093 9.75183 12.6093C9.76281 12.6093 9.77654 12.6121 9.79301 12.6121L10.1966 12.6121C10.213 12.6121 10.2267 12.6121 10.2377 12.6093C10.2487 12.6093 10.2597 12.6066 10.2707 12.6038C10.2817 12.6011 10.2899 12.5983 10.3009 12.5929C10.3118 12.5874 10.3228 12.5819 10.3338 12.5736L10.3366 12.5736L10.3366 12.7246L10.3338 12.7246C10.3228 12.7164 10.3118 12.7109 10.3009 12.7054C10.2899 12.6999 10.2817 12.6972 10.2707 12.6944C10.2597 12.6917 10.2487 12.6889 10.2377 12.6889C10.2267 12.6889 10.213 12.6862 10.1966 12.6862L9.79301 12.6862C9.77654 12.6862 9.76281 12.6862 9.75183 12.6889C9.74085 12.6889 9.72987 12.6917 9.71889 12.6944C9.70791 12.6972 9.69967 12.6999 9.68869 12.7054C9.67771 12.7109 9.66673 12.7164 9.65575 12.7246L9.65301 12.7246L9.65301 12.5736L9.65575 12.5736ZM9.65301 12.9195L9.65301 12.8097L9.65575 12.8097C9.66673 12.8152 9.67497 12.818 9.68595 12.8207C9.69693 12.8235 9.70516 12.8262 9.71889 12.8262C9.72987 12.8262 9.74085 12.8289 9.75458 12.8289C9.7683 12.8289 9.78203 12.8289 9.7985 12.8289L9.97419 12.8289C9.9989 12.8289 10.0181 12.8235 10.0318 12.8152C10.0456 12.807 10.0593 12.796 10.0675 12.7878L10.0703 12.7878L10.1197 12.8921L10.0318 12.8921L10.0318 12.8948C10.0593 12.9168 10.0785 12.9415 10.0922 12.9689C10.106 12.9964 10.1142 13.0238 10.1142 13.0568C10.1142 13.1007 10.1032 13.1337 10.0785 13.1556C10.0538 13.1776 10.0209 13.1886 9.97968 13.1886L9.80124 13.1886C9.78477 13.1886 9.7683 13.1886 9.75732 13.1886C9.7436 13.1886 9.73262 13.1886 9.72163 13.1913C9.71065 13.1913 9.69967 13.194 9.68869 13.1968C9.67771 13.1995 9.66948 13.2023 9.6585 13.2078L9.65575 13.2078L9.65575 13.098L9.6585 13.098C9.67771 13.1062 9.69967 13.1117 9.72163 13.1144C9.7436 13.1172 9.7683 13.1172 9.80124 13.1172L9.96321 13.1172C9.97694 13.1172 9.99066 13.1144 10.0044 13.1117C10.0181 13.1089 10.0291 13.1035 10.0373 13.0952C10.0483 13.087 10.0538 13.0788 10.0593 13.065C10.0648 13.0513 10.0675 13.0376 10.0675 13.0211C10.0675 12.9991 10.062 12.9772 10.0538 12.9552C10.0456 12.9333 10.0318 12.9113 10.0126 12.8948L9.7985 12.8948C9.76556 12.8948 9.73811 12.8948 9.71889 12.8976C9.69693 12.9003 9.67771 12.9058 9.65575 12.914L9.65301 12.914L9.65301 12.9195ZM9.65575 13.3121C9.66948 13.3203 9.6832 13.3258 9.70242 13.3286C9.72163 13.3313 9.74909 13.3341 9.78477 13.3341L10.0813 13.3341L10.0813 13.2764L10.0977 13.2764L10.0977 13.3341L10.1773 13.3341C10.2103 13.3341 10.2377 13.3368 10.2624 13.345C10.2871 13.3533 10.3091 13.3643 10.3256 13.378C10.342 13.3917 10.3558 13.4082 10.3668 13.4274C10.375 13.4466 10.3805 13.4686 10.3805 13.4905C10.3805 13.5043 10.3777 13.518 10.375 13.529C10.3722 13.5399 10.3695 13.5482 10.3668 13.5537L10.2817 13.5646L10.2789 13.5592C10.2899 13.5537 10.2981 13.5454 10.3091 13.5372C10.3201 13.529 10.3283 13.5235 10.3366 13.5152C10.3448 13.507 10.3503 13.4988 10.3558 13.4933C10.3613 13.485 10.364 13.4768 10.364 13.4686C10.364 13.4494 10.353 13.4329 10.3283 13.4192C10.3036 13.4054 10.2679 13.3999 10.2185 13.3999L10.0977 13.3999L10.0977 13.5097L10.0813 13.5097L10.0813 13.3999L9.78477 13.3999C9.74909 13.3999 9.72163 13.4027 9.70242 13.4054C9.6832 13.4082 9.66948 13.4137 9.65575 13.4219L9.65301 13.4219L9.65301 13.3093L9.65575 13.3093L9.65575 13.3121ZM9.73811 13.8584C9.72438 13.8501 9.7134 13.8392 9.70242 13.8309C9.69144 13.82 9.68046 13.809 9.66948 13.798C9.66124 13.787 9.65301 13.7733 9.64751 13.7568C9.64202 13.7403 9.63928 13.7239 9.63928 13.7047C9.63928 13.6635 9.65301 13.6333 9.67771 13.6141C9.70242 13.5948 9.73811 13.5839 9.78203 13.5839L10.0154 13.5839C10.0346 13.5839 10.0511 13.5811 10.062 13.5729C10.0758 13.5646 10.084 13.5564 10.0922 13.5454L10.095 13.5454L10.095 13.6525L9.79575 13.6525C9.72713 13.6525 9.69144 13.6827 9.69144 13.7431C9.69144 13.7705 9.69693 13.7925 9.70791 13.8117C9.71889 13.8309 9.73262 13.8447 9.74909 13.8556L10.0126 13.8556C10.0483 13.8556 10.073 13.8419 10.0922 13.8145L10.095 13.8145L10.095 13.9243L9.77928 13.9243C9.76007 13.9243 9.7436 13.9243 9.73262 13.927C9.72163 13.9298 9.71065 13.9298 9.70242 13.9352C9.69418 13.938 9.68869 13.9435 9.6832 13.949C9.67771 13.9545 9.67497 13.96 9.66948 13.9682L9.66673 13.9682L9.63653 13.8639L9.73262 13.8639L9.73811 13.8584ZM10.0016 14.2949L9.9989 14.2894C10.0346 14.2702 10.0593 14.2482 10.073 14.2262C10.0867 14.2043 10.0922 14.1823 10.0922 14.1604C10.0922 14.1329 10.084 14.1109 10.0703 14.0945C10.0565 14.078 10.0373 14.0698 10.0154 14.0698C10.0016 14.0698 9.98792 14.0725 9.97968 14.0807C9.9687 14.0862 9.96047 14.0972 9.95497 14.1082C9.94674 14.1192 9.94125 14.1329 9.93301 14.1466C9.92752 14.1604 9.92203 14.1768 9.9138 14.1933C9.90831 14.2098 9.90007 14.2262 9.89184 14.2427C9.8836 14.2592 9.87536 14.2729 9.86438 14.2839C9.8534 14.2976 9.83968 14.3058 9.82321 14.3141C9.80674 14.3223 9.78752 14.3251 9.76556 14.3251C9.72163 14.3251 9.69144 14.3086 9.66673 14.2784C9.64477 14.2482 9.63379 14.207 9.63379 14.1549C9.63379 14.1274 9.63653 14.1027 9.64202 14.0807C9.64752 14.0588 9.65301 14.0396 9.66124 14.0231L9.7683 14.0149L9.77105 14.0203C9.72987 14.0396 9.69967 14.0615 9.6832 14.0835C9.66399 14.1054 9.65575 14.1329 9.65575 14.1658C9.65575 14.1988 9.66399 14.2262 9.6832 14.2427C9.70242 14.2592 9.72163 14.2674 9.7436 14.2674C9.75732 14.2674 9.7683 14.2647 9.77928 14.2592C9.79026 14.2537 9.7985 14.2455 9.80673 14.2372C9.81497 14.2262 9.82321 14.2153 9.8287 14.2015C9.83419 14.1878 9.83968 14.1741 9.84791 14.1576C9.8534 14.1411 9.86164 14.1274 9.86713 14.1109C9.87536 14.0945 9.8836 14.0807 9.89458 14.067C9.90556 14.0533 9.91929 14.0423 9.93301 14.0341C9.94948 14.0258 9.96596 14.0203 9.98792 14.0203C10.0099 14.0203 10.0291 14.0258 10.0456 14.0341C10.062 14.0423 10.073 14.056 10.084 14.0698C10.095 14.0835 10.1005 14.1027 10.1032 14.1192C10.106 14.1384 10.1087 14.1576 10.1087 14.1768C10.1087 14.196 10.106 14.218 10.1032 14.2372C10.1005 14.2564 10.095 14.2729 10.0895 14.2866L9.9989 14.2949L10.0016 14.2949ZM10.2679 14.4843C10.2542 14.4843 10.2432 14.4788 10.235 14.4706C10.2267 14.4623 10.2213 14.4513 10.2213 14.4376C10.2213 14.4239 10.2267 14.4157 10.235 14.4047C10.2432 14.3964 10.2542 14.3909 10.2679 14.3909C10.2817 14.3909 10.2899 14.3964 10.3009 14.4047C10.3091 14.4129 10.3146 14.4239 10.3146 14.4376C10.3146 14.4513 10.3091 14.4596 10.3009 14.4706C10.2926 14.4788 10.2817 14.4843 10.2679 14.4843ZM9.65575 14.3882C9.67497 14.3964 9.69693 14.4019 9.71889 14.4047C9.74085 14.4074 9.76556 14.4102 9.7985 14.4102L9.97145 14.4102C9.99341 14.4102 10.0126 14.4047 10.0291 14.3964C10.0428 14.3882 10.0565 14.3772 10.0648 14.369L10.0675 14.369L10.1169 14.4788L9.7985 14.4788C9.76556 14.4788 9.73811 14.4788 9.71889 14.4815C9.69693 14.4843 9.67771 14.4898 9.65575 14.498L9.65301 14.498L9.65301 14.3882L9.65575 14.3882ZM9.63928 14.8C9.63928 14.767 9.64477 14.7368 9.6585 14.7094C9.67222 14.6819 9.68869 14.6572 9.71065 14.6353C9.73262 14.6133 9.75732 14.5968 9.78477 14.5859C9.81223 14.5721 9.84242 14.5666 9.87536 14.5666C9.90831 14.5666 9.9385 14.5721 9.96596 14.5859C9.99341 14.5996 10.0209 14.6161 10.0401 14.638C10.062 14.66 10.0785 14.6847 10.0922 14.7121C10.106 14.7396 10.1114 14.7698 10.1114 14.8027C10.1114 14.8357 10.106 14.8659 10.0922 14.8933C10.0785 14.9208 10.062 14.9455 10.0401 14.9674C10.0181 14.9894 9.99341 15.0059 9.96596 15.0168C9.9385 15.0306 9.90556 15.0361 9.87536 15.0361C9.84242 15.0361 9.81223 15.0306 9.78477 15.0168C9.75732 15.0031 9.73262 14.9867 9.71065 14.9674C9.68869 14.9455 9.67222 14.9208 9.6585 14.8933C9.64477 14.8659 9.63928 14.8357 9.63928 14.8027L9.63928 14.8ZM9.65575 14.8C9.65575 14.8274 9.66124 14.8494 9.67222 14.8686C9.6832 14.8878 9.69967 14.9043 9.71889 14.918C9.73811 14.9317 9.76281 14.94 9.78752 14.9482C9.81497 14.9537 9.84242 14.9565 9.86987 14.9565C9.90007 14.9565 9.92752 14.9537 9.95223 14.9455C9.97968 14.94 10.0016 14.929 10.0209 14.9153C10.0401 14.9015 10.0565 14.8851 10.0703 14.8659C10.0813 14.8466 10.0867 14.8247 10.0867 14.7972C10.0867 14.7698 10.0813 14.7478 10.0703 14.7286C10.0593 14.7094 10.0428 14.6929 10.0209 14.6792C10.0016 14.6655 9.97694 14.6572 9.95223 14.649C9.92478 14.6435 9.89733 14.638 9.86987 14.638C9.83968 14.638 9.81223 14.6408 9.78752 14.6462C9.76007 14.6517 9.73811 14.6627 9.71889 14.6764C9.69967 14.6902 9.6832 14.7066 9.67222 14.7259C9.66124 14.7451 9.65575 14.767 9.65575 14.7945L9.65575 14.8ZM9.65301 15.22L9.65301 15.1102L9.65575 15.1102C9.66673 15.1157 9.67497 15.1184 9.68595 15.1212C9.69693 15.1239 9.70516 15.1267 9.71889 15.1267C9.72987 15.1267 9.74085 15.1294 9.75458 15.1294C9.7683 15.1294 9.78203 15.1294 9.7985 15.1294L9.97419 15.1294C9.9989 15.1294 10.0181 15.1239 10.0318 15.1157C10.0456 15.1074 10.0593 15.0965 10.0675 15.0882L10.0703 15.0882L10.1197 15.1925L10.0318 15.1925L10.0318 15.1953C10.0593 15.2172 10.0785 15.242 10.0922 15.2694C10.106 15.2969 10.1142 15.3243 10.1142 15.3572C10.1142 15.4012 10.1032 15.4341 10.0785 15.4561C10.0538 15.478 10.0209 15.489 9.97968 15.489L9.80124 15.489C9.78477 15.489 9.7683 15.489 9.75732 15.489C9.7436 15.489 9.73262 15.489 9.72163 15.4918C9.71065 15.4918 9.69967 15.4945 9.68869 15.4973C9.67771 15.5 9.66948 15.5027 9.6585 15.5082L9.65575 15.5082L9.65575 15.3984L9.6585 15.3984C9.67771 15.4067 9.69967 15.4122 9.72163 15.4149C9.7436 15.4176 9.7683 15.4176 9.80124 15.4176L9.96321 15.4176C9.97694 15.4176 9.99066 15.4149 10.0044 15.4122C10.0181 15.4094 10.0291 15.4039 10.0373 15.3957C10.0483 15.3874 10.0538 15.3792 10.0593 15.3655C10.0648 15.3518 10.0675 15.338 10.0675 15.3216C10.0675 15.2996 10.062 15.2776 10.0538 15.2557C10.0456 15.2337 10.0318 15.2118 10.0126 15.1953L9.7985 15.1953C9.76556 15.1953 9.73811 15.1953 9.71889 15.198C9.69693 15.2008 9.67771 15.2063 9.65575 15.2145L9.65301 15.2145L9.65301 15.22Z" fill="#414141"/>
    <path d="M11.0645 12.8289L11.0645 16.318" stroke="#414141" stroke-width="0.2"/>
    <path d="M10.3369 13.8281L13.333 13.8283" stroke="#414141" stroke-width="0.2"/>
    <path fill-rule="evenodd" clip-rule="evenodd" d="M11.7128 17.1853C9.84881 17.3912 6.80166 17.2402 6.66715 16.7351L6.66715 8.09328C6.66715 8.09328 6.6397 7.63483 7.31226 7.45365L7.86679 7.40698L9.89822 7.40698L11.9297 7.40698L12.4842 7.45365C13.1595 7.63483 13.1293 8.09328 13.1293 8.09328L13.1293 16.9333" stroke="#414141" stroke-width="0.32" stroke-miterlimit="2.61313"/>
    <path fill-rule="evenodd" clip-rule="evenodd" d="M6.68066 5.36725L6.68066 7.40143L9.89801 7.40143L13.1154 7.40143L13.1154 5.36725C12.764 5.25195 9.89801 5.25195 9.89801 5.25195C9.89801 5.25195 7.03205 5.25195 6.68066 5.36725Z" stroke="#414141" stroke-width="0.32" stroke-miterlimit="2.61313"/>
    <path fill-rule="evenodd" clip-rule="evenodd" d="M7.18757 5.30931C7.18757 4.83714 7.15737 4.1481 7.22326 3.48651C7.30836 2.62178 7.55268 1.80646 8.22799 1.57861L9.88608 1.57861L11.5442 1.57861C12.7411 1.98215 12.5846 4.22222 12.5846 5.30931C11.654 5.25441 9.89706 5.25441 9.89706 5.25441L9.88608 5.25441C9.74333 5.25441 8.07152 5.25715 7.18757 5.30931Z" stroke="#414141" stroke-width="0.32" stroke-miterlimit="2.61313"/>
    <path d="M7.18652 4.28831C8.71559 4.07968 11.0517 4.07968 12.5781 4.28831" stroke="#414141" stroke-width="0.32" stroke-miterlimit="2.61313"/>
    <path d="M8.00684 1.07349L8.00684 4.15358" stroke="#414141" stroke-width="0.32" stroke-miterlimit="2.61313" stroke-linecap="round" stroke-linejoin="round"/>
    <path d="M8.75879 1.07349L8.75879 4.15358" stroke="#414141" stroke-width="0.32" stroke-miterlimit="2.61313" stroke-linecap="round" stroke-linejoin="round"/>
    <path d="M9.51465 1.07349L9.51465 4.15358" stroke="#414141" stroke-width="0.32" stroke-miterlimit="2.61313" stroke-linecap="round" stroke-linejoin="round"/>
    <path d="M10.2695 1.07349L10.2695 4.15358" stroke="#414141" stroke-width="0.32" stroke-miterlimit="2.61313" stroke-linecap="round" stroke-linejoin="round"/>
    <path d="M11.0244 1.07349L11.0244 4.15358" stroke="#414141" stroke-width="0.32" stroke-miterlimit="2.61313" stroke-linecap="round" stroke-linejoin="round"/>
    <path d="M11.7764 1.07349L11.7764 4.15358" stroke="#414141" stroke-width="0.32" stroke-miterlimit="2.61313" stroke-linecap="round" stroke-linejoin="round"/>
  </g>
  <defs>
    <clipPath id="clip0_28080_2636">
      <rect width="20" height="20" fill="white" transform="translate(0 0.668457)"/>
    </clipPath>
  </defs>
</svg>