<svg width="30" height="30" viewBox="0 0 30 30" fill="none" xmlns="http://www.w3.org/2000/svg">
<g id="cancel_FILL0_wght200_GRAD0_opsz40 1">
<rect width="30" height="30" rx="15" fill="black" fill-opacity="0.35"/>
<path id="Vector" d="M8.56476 22.439L8.91831 22.7926L9.27186 22.439L14.9995 16.7114L20.7272 22.439L21.0807 22.7926L21.4343 22.439L22.4385 21.4348L22.7921 21.0812L22.4385 20.7277L16.7109 15L22.4385 9.27235L22.7921 8.9188L22.4385 8.56525L21.4343 7.561L21.0807 7.20745L20.7272 7.561L14.9995 13.2886L9.27186 7.561L8.91831 7.20745L8.56476 7.561L7.56051 8.56525L7.20696 8.9188L7.56051 9.27235L13.2881 15L7.56051 20.7277L7.20696 21.0812L7.56051 21.4348L8.56476 22.439Z" fill="white" stroke="white"/>
</g>
</svg>
