  <svg xmlns="http://www.w3.org/2000/svg" width="105" height="18" viewBox="0 0 105 18"
                                    fill="none">
                                    <path fill-rule="evenodd" clip-rule="evenodd"
                                        d="M74.224 1.07103L76.167 6.72083L82.2383 6.78986C82.7607 6.79584 82.977 7.44962 82.558 7.75561L77.6871 11.3159L79.4963 17.0082C79.6518 17.4981 79.0861 17.9016 78.6596 17.6049L73.7069 14.1554L68.7536 17.6043C68.3278 17.901 67.7614 17.4967 67.9168 17.0076L69.7261 11.3153L64.8552 7.75495C64.4362 7.44896 64.6525 6.79517 65.1749 6.7892L71.2461 6.72017L73.1892 1.07037C73.3568 0.584506 74.057 0.584506 74.224 1.07103Z"
                                        fill="#008763" />
                                    <path
                                        d="M95.4866 1.15234L95.4865 1.15217C95.3969 0.891104 95.015 0.890423 94.9247 1.15167C94.9246 1.15175 94.9246 1.15182 94.9246 1.1519L92.9816 6.80147L92.9242 6.96815L92.748 6.97015L86.6768 7.03918C86.3842 7.04253 86.2853 7.39503 86.5017 7.55305L86.5018 7.55312L91.3727 11.1134L91.5179 11.2196L91.4634 11.391L89.6541 17.0833C89.6541 17.0833 89.6541 17.0833 89.6541 17.0833C89.5758 17.3297 89.8668 17.5684 90.1097 17.3992L90.1097 17.3991L95.0631 13.9503L95.206 13.8508L95.3488 13.9503L100.301 17.3997L95.4866 1.15234ZM95.4866 1.15234L97.4297 6.80214L97.487 6.96881M95.4866 1.15234L97.487 6.96881M97.487 6.96881L97.6632 6.97082M97.487 6.96881L97.6632 6.97082M97.6632 6.97082L103.734 7.03985C104.027 7.04319 104.126 7.39569 103.91 7.55371L103.909 7.55378M97.6632 6.97082L103.909 7.55378M103.909 7.55378L99.0385 11.1141L98.8933 11.2203M103.909 7.55378L98.8933 11.2203M98.8933 11.2203L98.9478 11.3917M98.8933 11.2203L98.9478 11.3917M98.9478 11.3917L100.757 17.0838L98.9478 11.3917ZM95.723 1.07103L97.6661 6.72083L95.723 1.07103ZM100.757 17.084C100.835 17.3309 100.545 17.5692 100.302 17.3998L100.757 17.084Z"
                                        stroke="#C4C4C4" stroke-width="0.5" />
                                    <path fill-rule="evenodd" clip-rule="evenodd"
                                        d="M52.6785 1.07103L54.6216 6.72083L60.6929 6.78986C61.2153 6.79584 61.4316 7.44962 61.0126 7.75561L56.1416 11.3159L57.9509 17.0082C58.1064 17.4981 57.5407 17.9016 57.1142 17.6049L52.1615 14.1554L47.2081 17.6043C46.7824 17.901 46.216 17.4967 46.3714 17.0076L48.1807 11.3153L43.3098 7.75495C42.8908 7.44896 43.107 6.79517 43.6295 6.7892L49.7007 6.72017L51.6438 1.07037C51.8114 0.584506 52.5116 0.584506 52.6785 1.07103Z"
                                        fill="#008763" />
                                    <path fill-rule="evenodd" clip-rule="evenodd"
                                        d="M31.1341 1.07103L33.0772 6.72083L39.1484 6.78986C39.6709 6.79584 39.8872 7.44962 39.4681 7.75561L34.5972 11.3159L36.4065 17.0082C36.5619 17.4981 35.9962 17.9016 35.5698 17.6049L30.6171 14.1554L25.6637 17.6043C25.2379 17.901 24.6716 17.4967 24.827 17.0076L26.6363 11.3153L21.7654 7.75495C21.3463 7.44896 21.5626 6.79517 22.085 6.7892L28.1563 6.72017L30.0994 1.07037C30.267 0.584506 30.9672 0.584506 31.1341 1.07103Z"
                                        fill="#008763" />
                                    <path fill-rule="evenodd" clip-rule="evenodd"
                                        d="M9.58968 1.07103L11.5328 6.72083L17.604 6.78986C18.1264 6.79584 18.3427 7.44962 17.9237 7.75561L13.0528 11.3159L14.8621 17.0082C15.0175 17.4981 14.4518 17.9016 14.0253 17.6049L9.07265 14.1554L4.11928 17.6043C3.69349 17.901 3.12712 17.4967 3.28257 17.0076L5.09184 11.3153L0.22093 7.75495C-0.198102 7.44896 0.0181729 6.79517 0.540611 6.7892L6.61185 6.72017L8.55494 1.07037C8.72255 0.584506 9.42274 0.584506 9.58968 1.07103Z"
                                        fill="#008763" />
                                    <path fill-rule="evenodd" clip-rule="evenodd"
                                        d="M97.7115 6.72083L95.7684 1.07103C95.6014 0.584506 94.9013 0.584506 94.7337 1.07037L92.7906 6.72017L86.7193 6.7892C86.1969 6.79517 85.9806 7.44896 86.3996 7.75495L91.2706 11.3153L89.4613 17.0076C89.3058 17.4967 89.8722 17.901 90.298 17.6043L95.2514 14.1554L98.6 16.4877V6.73094L97.7115 6.72083Z"
                                        fill="#008763" />
                                </svg>