  <svg xmlns="http://www.w3.org/2000/svg" width="106" height="18" viewBox="0 0 106 18"
                                    fill="none">
                                    <g clip-path="url(#clip0_9725_1631)">
                                        <path fill-rule="evenodd" clip-rule="evenodd"
                                            d="M10.4884 1.07048L12.4299 6.71557L18.4961 6.78454C19.0181 6.79051 19.2342 7.44375 18.8155 7.74948L13.9486 11.3068L15.7564 16.9943C15.9117 17.4838 15.3465 17.887 14.9204 17.5905L9.97181 14.1439L5.02258 17.5899C4.59715 17.8863 4.03125 17.4824 4.18657 16.9937L5.99433 11.3061L1.12748 7.74882C0.708803 7.44309 0.924897 6.78984 1.4469 6.78387L7.51307 6.7149L9.45454 1.06982C9.62201 0.584364 10.3216 0.584364 10.4884 1.07048Z"
                                            fill="#008763" />
                                        <path fill-rule="evenodd" clip-rule="evenodd"
                                            d="M32.0153 1.07048L33.9567 6.71557L40.0229 6.78454C40.5449 6.79051 40.761 7.44375 40.3423 7.74948L35.4755 11.3068L37.2832 16.9943C37.4386 17.4838 36.8733 17.887 36.4472 17.5905L31.4987 14.1439L26.5494 17.5899C26.124 17.8863 25.5581 17.4824 25.7134 16.9937L27.5212 11.3061L22.6543 7.74882C22.2357 7.44309 22.4518 6.78984 22.9738 6.78387L29.0399 6.7149L30.9814 1.06982C31.1489 0.584364 31.8485 0.584364 32.0153 1.07048Z"
                                            fill="#008763" />
                                        <path fill-rule="evenodd" clip-rule="evenodd"
                                            d="M53.5416 1.07048L55.4831 6.71557L61.5493 6.78454C62.0713 6.79051 62.2874 7.44375 61.8687 7.74948L57.0018 11.3068L58.8096 16.9943C58.9649 17.4838 58.3997 17.887 57.9736 17.5905L53.025 14.1439L48.0758 17.5899C47.6504 17.8863 47.0845 17.4824 47.2398 16.9937L49.0476 11.3061L44.1807 7.74882C43.762 7.44309 43.9781 6.78984 44.5001 6.78387L50.5663 6.7149L52.5078 1.06982C52.6752 0.584364 53.3748 0.584364 53.5416 1.07048Z"
                                            fill="#008763" />
                                        <path fill-rule="evenodd" clip-rule="evenodd"
                                            d="M75.0685 1.07048L77.01 6.71557L83.0761 6.78454C83.5981 6.79051 83.8142 7.44375 83.3955 7.74948L78.5287 11.3068L80.3365 16.9943C80.4918 17.4838 79.9266 17.887 79.5004 17.5905L74.5519 14.1439L69.6027 17.5899C69.1772 17.8863 68.6113 17.4824 68.7666 16.9937L70.5744 11.3061L65.7076 7.74882C65.2889 7.44309 65.505 6.78984 66.027 6.78387L72.0931 6.7149L74.0346 1.06982C74.2021 0.584364 74.9017 0.584364 75.0685 1.07048Z"
                                            fill="#008763" />
                                        <path fill-rule="evenodd" clip-rule="evenodd"
                                            d="M96.5949 1.07048L98.5363 6.71557L104.602 6.78454C105.125 6.79051 105.341 7.44375 104.922 7.74948L100.055 11.3068L101.863 16.9943C102.018 17.4838 101.453 17.887 101.027 17.5905L96.0783 14.1439L91.129 17.5899C90.7036 17.8863 90.1377 17.4824 90.293 16.9937L92.1008 11.3061L87.2339 7.74882C86.8152 7.44309 87.0313 6.78984 87.5533 6.78388L93.6195 6.7149L95.561 1.06982C95.7285 0.584363 96.4281 0.584363 96.5949 1.07048Z"
                                            fill="#D9D9D9" />
                                        <path fill-rule="evenodd" clip-rule="evenodd"
                                            d="M102.867 6.7648L98.5363 6.71557L96.5949 1.07048C96.4281 0.584364 95.7285 0.584364 95.561 1.06982L93.6195 6.7149L87.5533 6.78387C87.0313 6.78984 86.8152 7.44309 87.2339 7.74882L92.1008 11.3061L90.293 16.9937C90.1377 17.4824 90.7036 17.8863 91.129 17.5899L96.0783 14.1439L101.027 17.5905C101.453 17.887 102.018 17.4838 101.863 16.9943L100.055 11.3068L102.867 9.25176V6.7648Z"
                                            fill="#008763" />
                                    </g>
                                    <defs>
                                        <clipPath id="clip0_9725_1631">
                                            <rect width="106" height="17" fill="white"
                                                transform="translate(0 0.705811)" />
                                        </clipPath>
                                    </defs>
                                </svg>