   <svg xmlns="http://www.w3.org/2000/svg" width="106" height="18" viewBox="0 0 106 18"
                                    fill="none">
                                    <g clip-path="url(#clip0_9725_1557)">
                                        <path fill-rule="evenodd" clip-rule="evenodd"
                                            d="M10.4884 1.07073L12.4299 6.71581L18.4961 6.78478C19.0181 6.79075 19.2342 7.444 18.8155 7.74973L13.9486 11.3071L15.7564 16.9946C15.9117 17.4841 15.3465 17.8873 14.9204 17.5908L9.97181 14.1442L5.02258 17.5902C4.59715 17.8866 4.03125 17.4827 4.18657 16.994L5.99433 11.3064L1.12748 7.74907C0.708803 7.44333 0.924897 6.79009 1.4469 6.78412L7.51307 6.71515L9.45454 1.07006C9.62201 0.584608 10.3216 0.584608 10.4884 1.07073Z"
                                            fill="#008763" />
                                        <path fill-rule="evenodd" clip-rule="evenodd"
                                            d="M32.0153 1.07073L33.9567 6.71581L40.0229 6.78478C40.5449 6.79075 40.761 7.444 40.3423 7.74973L35.4755 11.3071L37.2832 16.9946C37.4386 17.4841 36.8733 17.8873 36.4472 17.5908L31.4987 14.1442L26.5494 17.5902C26.124 17.8866 25.5581 17.4827 25.7134 16.994L27.5212 11.3064L22.6543 7.74907C22.2357 7.44333 22.4518 6.79009 22.9738 6.78412L29.0399 6.71515L30.9814 1.07006C31.1489 0.584608 31.8485 0.584608 32.0153 1.07073Z"
                                            fill="#008763" />
                                        <path fill-rule="evenodd" clip-rule="evenodd"
                                            d="M53.5416 1.07073L55.4831 6.71581L61.5493 6.78478C62.0713 6.79075 62.2874 7.444 61.8687 7.74973L57.0018 11.3071L58.8096 16.9946C58.9649 17.4841 58.3997 17.8873 57.9736 17.5908L53.025 14.1442L48.0758 17.5902C47.6504 17.8866 47.0845 17.4827 47.2398 16.994L49.0476 11.3064L44.1807 7.74907C43.762 7.44333 43.9781 6.79009 44.5001 6.78412L50.5663 6.71515L52.5078 1.07006C52.6752 0.584608 53.3748 0.584608 53.5416 1.07073Z"
                                            fill="#008763" />
                                        <path fill-rule="evenodd" clip-rule="evenodd"
                                            d="M75.0685 1.07073L77.01 6.71581L83.0761 6.78478C83.5981 6.79075 83.8142 7.444 83.3955 7.74973L78.5287 11.3071L80.3365 16.9946C80.4918 17.4841 79.9266 17.8873 79.5004 17.5908L74.5519 14.1442L69.6027 17.5902C69.1772 17.8866 68.6113 17.4827 68.7666 16.994L70.5744 11.3064L65.7076 7.74907C65.2889 7.44333 65.505 6.79009 66.027 6.78412L72.0931 6.71515L74.0346 1.07006C74.2021 0.584608 74.9017 0.584608 75.0685 1.07073Z"
                                            fill="#008763" />
                                        <path fill-rule="evenodd" clip-rule="evenodd"
                                            d="M96.5949 1.07073L98.5363 6.71581L104.602 6.78479C105.125 6.79075 105.341 7.444 104.922 7.74973L100.055 11.3071L101.863 16.9946C102.018 17.4841 101.453 17.8873 101.027 17.5908L96.0783 14.1442L91.129 17.5902C90.7036 17.8866 90.1377 17.4827 90.293 16.994L92.1008 11.3064L87.2339 7.74907C86.8152 7.44333 87.0313 6.79009 87.5533 6.78412L93.6195 6.71515L95.561 1.07006C95.7285 0.584608 96.4281 0.584608 96.5949 1.07073Z"
                                            fill="#D9D9D9" />
                                        <path fill-rule="evenodd" clip-rule="evenodd"
                                            d="M100.602 6.7393L98.5363 6.71581L96.5949 1.07073C96.4281 0.584608 95.7285 0.584608 95.561 1.07006L93.6195 6.71515L87.5533 6.78412C87.0313 6.79009 86.8152 7.44333 87.2339 7.74907L92.1008 11.3064L90.293 16.994C90.1377 17.4827 90.7036 17.8866 91.129 17.5902L96.0783 14.1442L100.602 17.295V13.0278L100.055 11.3071L100.602 10.9073V6.7393Z"
                                            fill="#008763" />
                                    </g>
                                    <defs>
                                        <clipPath id="clip0_9725_1557">
                                            <rect width="106" height="17" fill="white"
                                                transform="translate(0 0.706055)" />
                                        </clipPath>
                                    </defs>
                                </svg>