 <svg xmlns="http://www.w3.org/2000/svg" width="106" height="18" viewBox="0 0 106 18"
                                    fill="none">
                                    <g clip-path="url(#clip0_9725_1514)">
                                        <path fill-rule="evenodd" clip-rule="evenodd"
                                            d="M10.4884 1.02824L12.4299 6.67333L18.4961 6.7423C19.0181 6.74827 19.2342 7.40152 18.8155 7.70724L13.9486 11.2647L15.7564 16.9522C15.9117 17.4416 15.3465 17.8448 14.9204 17.5484L9.97181 14.1018L5.02258 17.5477C4.59715 17.8442 4.03125 17.4403 4.18657 16.9515L5.99433 11.264L1.12748 7.70658C0.708803 7.40086 0.924897 6.74761 1.4469 6.74164L7.51307 6.67266L9.45454 1.02758C9.62201 0.542127 10.3216 0.542128 10.4884 1.02824Z"
                                            fill="#008763" />
                                        <path fill-rule="evenodd" clip-rule="evenodd"
                                            d="M32.0153 1.02824L33.9567 6.67333L40.0229 6.7423C40.5449 6.74827 40.761 7.40152 40.3423 7.70724L35.4755 11.2647L37.2832 16.9522C37.4386 17.4416 36.8733 17.8448 36.4472 17.5484L31.4987 14.1018L26.5494 17.5477C26.124 17.8442 25.5581 17.4403 25.7134 16.9515L27.5212 11.264L22.6543 7.70658C22.2357 7.40086 22.4518 6.74761 22.9738 6.74164L29.0399 6.67266L30.9814 1.02758C31.1489 0.542127 31.8485 0.542128 32.0153 1.02824Z"
                                            fill="#008763" />
                                        <path fill-rule="evenodd" clip-rule="evenodd"
                                            d="M53.5416 1.02824L55.4831 6.67333L61.5493 6.7423C62.0713 6.74827 62.2874 7.40152 61.8687 7.70724L57.0018 11.2647L58.8096 16.9522C58.9649 17.4416 58.3997 17.8448 57.9736 17.5484L53.025 14.1018L48.0758 17.5477C47.6504 17.8442 47.0845 17.4403 47.2398 16.9515L49.0476 11.264L44.1807 7.70658C43.762 7.40086 43.9781 6.74761 44.5001 6.74164L50.5663 6.67266L52.5078 1.02758C52.6752 0.542127 53.3748 0.542128 53.5416 1.02824Z"
                                            fill="#008763" />
                                        <path fill-rule="evenodd" clip-rule="evenodd"
                                            d="M75.0685 1.02824L77.01 6.67333L83.0761 6.7423C83.5981 6.74827 83.8142 7.40152 83.3955 7.70724L78.5287 11.2647L80.3365 16.9522C80.4918 17.4416 79.9266 17.8448 79.5004 17.5484L74.5519 14.1018L69.6027 17.5477C69.1772 17.8442 68.6113 17.4403 68.7666 16.9515L70.5744 11.264L65.7076 7.70658C65.2889 7.40086 65.505 6.74761 66.027 6.74164L72.0931 6.67266L74.0346 1.02758C74.2021 0.542127 74.9017 0.542128 75.0685 1.02824Z"
                                            fill="#008763" />
                                        <path fill-rule="evenodd" clip-rule="evenodd"
                                            d="M96.5949 1.02824L98.5363 6.67333L104.602 6.7423C105.125 6.74827 105.341 7.40152 104.922 7.70724L100.055 11.2647L101.863 16.9522C102.018 17.4416 101.453 17.8448 101.027 17.5484L96.0783 14.1018L91.129 17.5477C90.7036 17.8442 90.1377 17.4403 90.293 16.9515L92.1008 11.264L87.2339 7.70658C86.8152 7.40086 87.0313 6.74761 87.5533 6.74164L93.6195 6.67266L95.561 1.02758C95.7285 0.542127 96.4281 0.542128 96.5949 1.02824Z"
                                            fill="#D9D9D9" />
                                        <path fill-rule="evenodd" clip-rule="evenodd"
                                            d="M96.0722 0.663574C95.8575 0.665689 95.644 0.787044 95.561 1.02755L93.6195 6.67264L87.5533 6.74161C87.0313 6.74758 86.8152 7.40082 87.2339 7.70655L92.1008 11.264L90.293 16.9515C90.1377 17.4403 90.7036 17.8441 91.129 17.5477L96.0722 14.106V0.663574Z"
                                            fill="#008763" />
                                    </g>
                                    <defs>
                                        <clipPath id="clip0_9725_1514">
                                            <rect width="106" height="17" fill="white"
                                                transform="translate(0 0.706055)" />
                                        </clipPath>
                                    </defs>
                                </svg>