 <svg xmlns="http://www.w3.org/2000/svg" width="106" height="18" viewBox="0 0 106 18"
                                    fill="none">
                                    <g clip-path="url(#clip0_9725_1536)">
                                        <path fill-rule="evenodd" clip-rule="evenodd"
                                            d="M75.069 1.07073L77.0105 6.71581L83.0766 6.78479C83.5986 6.79075 83.8147 7.444 83.396 7.74973L78.5292 11.3071L80.337 16.9946C80.4923 17.484 79.927 17.8873 79.5009 17.5908L74.5524 14.1442L69.6032 17.5902C69.1777 17.8866 68.6118 17.4827 68.7671 16.9939L70.5749 11.3064L65.7081 7.74907C65.2894 7.44333 65.5055 6.79009 66.0275 6.78412L72.0936 6.71515L74.0351 1.07006C74.2026 0.584608 74.9022 0.584608 75.069 1.07073Z"
                                            fill="#008763" />
                                        <path fill-rule="evenodd" clip-rule="evenodd"
                                            d="M96.5499 1.07073L98.4914 6.71581L104.558 6.78479C105.08 6.79075 105.296 7.444 104.877 7.74973L100.01 11.3071L101.818 16.9946C101.973 17.484 101.408 17.8873 100.982 17.5908L96.0333 14.1442L91.0841 17.5902C90.6587 17.8866 90.0928 17.4827 90.2481 16.9939L92.0559 11.3064L87.189 7.74907C86.7703 7.44333 86.9864 6.79009 87.5084 6.78412L93.5746 6.71515L95.5161 1.07006C95.6835 0.584608 96.3831 0.584608 96.5499 1.07073Z"
                                            fill="#D9D9D9" />
                                        <path fill-rule="evenodd" clip-rule="evenodd"
                                            d="M53.5416 1.07073L55.4831 6.71581L61.5493 6.78479C62.0713 6.79075 62.2874 7.444 61.8687 7.74973L57.0018 11.3071L58.8096 16.9946C58.9649 17.484 58.3997 17.8873 57.9736 17.5908L53.025 14.1442L48.0758 17.5902C47.6504 17.8866 47.0845 17.4827 47.2398 16.9939L49.0476 11.3064L44.1807 7.74907C43.762 7.44333 43.9781 6.79009 44.5001 6.78412L50.5663 6.71515L52.5078 1.07006C52.6752 0.584608 53.3748 0.584608 53.5416 1.07073Z"
                                            fill="#008763" />
                                        <path fill-rule="evenodd" clip-rule="evenodd"
                                            d="M32.0153 1.07073L33.9567 6.71581L40.0229 6.78479C40.5449 6.79075 40.761 7.444 40.3423 7.74973L35.4755 11.3071L37.2832 16.9946C37.4386 17.484 36.8733 17.8873 36.4472 17.5908L31.4987 14.1442L26.5494 17.5902C26.124 17.8866 25.5581 17.4827 25.7134 16.9939L27.5212 11.3064L22.6543 7.74907C22.2357 7.44333 22.4518 6.79009 22.9738 6.78412L29.0399 6.71515L30.9814 1.07006C31.1489 0.584608 31.8485 0.584608 32.0153 1.07073Z"
                                            fill="#008763" />
                                        <path fill-rule="evenodd" clip-rule="evenodd"
                                            d="M10.4884 1.07073L12.4299 6.71581L18.4961 6.78479C19.0181 6.79075 19.2342 7.444 18.8155 7.74973L13.9486 11.3071L15.7564 16.9946C15.9117 17.484 15.3465 17.8873 14.9204 17.5908L9.97181 14.1442L5.02258 17.5902C4.59715 17.8866 4.03125 17.4827 4.18657 16.9939L5.99433 11.3064L1.12748 7.74907C0.708803 7.44333 0.924897 6.79009 1.4469 6.78412L7.51307 6.71515L9.45454 1.07006C9.62201 0.584608 10.3216 0.584608 10.4884 1.07073Z"
                                            fill="#008763" />
                                        <path fill-rule="evenodd" clip-rule="evenodd"
                                            d="M98.5368 6.71581L96.5953 1.07073C96.4285 0.584608 95.7289 0.584608 95.5615 1.07006L93.62 6.71515L87.5538 6.78412C87.0318 6.79009 86.8157 7.44333 87.2344 7.74907L92.1013 11.3064L90.2935 16.9939C90.1382 17.4827 90.7041 17.8866 91.1295 17.5902L96.0788 14.1442L99.4248 16.4747V6.72591L98.5368 6.71581Z"
                                            fill="#008763" />
                                    </g>
                                    <defs>
                                        <clipPath id="clip0_9725_1536">
                                            <rect width="106" height="17" fill="white"
                                                transform="translate(0 0.706055)" />
                                        </clipPath>
                                    </defs>
                                </svg>