   <svg xmlns="http://www.w3.org/2000/svg" width="106" height="18" viewBox="0 0 106 18"
                                    fill="none">
                                    <g clip-path="url(#clip0_9725_1650)">
                                        <path fill-rule="evenodd" clip-rule="evenodd"
                                            d="M10.4884 1.08464L12.4299 6.72973L18.4961 6.7987C19.0181 6.80467 19.2342 7.45791 18.8155 7.76364L13.9486 11.321L15.7564 17.0085C15.9117 17.498 15.3465 17.9012 14.9204 17.6047L9.97181 14.1581L5.02258 17.6041C4.59715 17.9005 4.03125 17.4966 4.18657 17.0079L5.99433 11.3203L1.12748 7.76298C0.708803 7.45725 0.924897 6.80401 1.4469 6.79804L7.51307 6.72907L9.45454 1.08398C9.62201 0.598524 10.3216 0.598524 10.4884 1.08464Z"
                                            fill="#008763" />
                                        <path fill-rule="evenodd" clip-rule="evenodd"
                                            d="M32.0153 1.08464L33.9567 6.72973L40.0229 6.7987C40.5449 6.80467 40.761 7.45791 40.3423 7.76364L35.4755 11.321L37.2832 17.0085C37.4386 17.498 36.8733 17.9012 36.4472 17.6047L31.4987 14.1581L26.5494 17.6041C26.124 17.9005 25.5581 17.4966 25.7134 17.0079L27.5212 11.3203L22.6543 7.76298C22.2357 7.45725 22.4518 6.80401 22.9738 6.79804L29.0399 6.72907L30.9814 1.08398C31.1489 0.598524 31.8485 0.598524 32.0153 1.08464Z"
                                            fill="#008763" />
                                        <path fill-rule="evenodd" clip-rule="evenodd"
                                            d="M53.5416 1.08464L55.4831 6.72973L61.5493 6.7987C62.0713 6.80467 62.2874 7.45791 61.8687 7.76364L57.0018 11.321L58.8096 17.0085C58.9649 17.498 58.3997 17.9012 57.9736 17.6047L53.025 14.1581L48.0758 17.6041C47.6504 17.9005 47.0845 17.4966 47.2398 17.0079L49.0476 11.3203L44.1807 7.76298C43.762 7.45725 43.9781 6.80401 44.5001 6.79804L50.5663 6.72907L52.5078 1.08398C52.6752 0.598524 53.3748 0.598524 53.5416 1.08464Z"
                                            fill="#008763" />
                                        <path fill-rule="evenodd" clip-rule="evenodd"
                                            d="M75.0685 1.08464L77.01 6.72973L83.0761 6.7987C83.5981 6.80467 83.8142 7.45791 83.3955 7.76364L78.5287 11.321L80.3365 17.0085C80.4918 17.498 79.9266 17.9012 79.5004 17.6047L74.5519 14.1581L69.6027 17.6041C69.1772 17.9005 68.6113 17.4966 68.7666 17.0079L70.5744 11.3203L65.7076 7.76298C65.2889 7.45725 65.505 6.80401 66.027 6.79804L72.0931 6.72907L74.0346 1.08398C74.2021 0.598524 74.9017 0.598524 75.0685 1.08464Z"
                                            fill="#008763" />
                                        <path fill-rule="evenodd" clip-rule="evenodd"
                                            d="M96.5949 1.08464L98.5363 6.72973L104.602 6.7987C105.125 6.80467 105.341 7.45791 104.922 7.76364L100.055 11.321L101.863 17.0085C102.018 17.498 101.453 17.9012 101.027 17.6047L96.0783 14.1581L91.129 17.6041C90.7036 17.9005 90.1377 17.4966 90.293 17.0079L92.1008 11.3203L87.2339 7.76298C86.8152 7.45725 87.0313 6.80401 87.5533 6.79804L93.6195 6.72907L95.561 1.08398C95.7285 0.598524 96.4281 0.598524 96.5949 1.08464Z"
                                            fill="#D9D9D9" />
                                        <path fill-rule="evenodd" clip-rule="evenodd"
                                            d="M98.5813 6.72973L96.6398 1.08464C96.473 0.598524 95.7734 0.598524 95.6059 1.08398L93.6644 6.72907L87.5983 6.79804C87.0763 6.80401 86.8602 7.45725 87.2789 7.76298L92.1457 11.3203L90.3379 17.0079C90.1826 17.4966 90.7485 17.9005 91.174 17.6041L96.1232 14.1581L99.4694 16.4888V6.73983L98.5813 6.72973Z"
                                            fill="#008763" />
                                    </g>
                                    <defs>
                                        <clipPath id="clip0_9725_1650">
                                            <rect width="106" height="17" fill="white"
                                                transform="translate(0 0.705811)" />
                                        </clipPath>
                                    </defs>
                                </svg>