<svg xmlns="http://www.w3.org/2000/svg" width="36" height="35" viewBox="0 0 36 35"
                                fill="none">
                                <g opacity="0.8">
                                    <path
                                        d="M24.8284 18.9858C24.8284 23.7625 20.9681 27.5117 16.2053 27.5117C11.4286 27.5117 7.56836 23.6514 7.56836 18.8886C7.56836 14.7645 13.817 6.64131 16.2053 2.91992L22.3984 12.6677"
                                        stroke="black" stroke-width="1.5" stroke-miterlimit="2.61313"
                                        stroke-linecap="round" stroke-linejoin="round" />
                                    <path
                                        d="M26.8836 18.9306H21.1487L26.6475 10.8213L32.1602 18.9306H29.4385M29.3969 18.8889C29.3969 26.1651 23.4954 32.0804 16.2054 32.0804M16.2054 32.0804C8.91535 32.0804 3 26.1651 3 18.8889"
                                        stroke="black" stroke-width="1.5" stroke-miterlimit="2.61313"
                                        stroke-linecap="round" stroke-linejoin="round" />
                                    <path d="M3.41699 16.5137L3.66694 15.875" stroke="black" stroke-width="1.5"
                                        stroke-miterlimit="2.61313" stroke-linecap="round" stroke-linejoin="round" />
                                    <path d="M4.40234 14.0421L4.65229 13.4033" stroke="black" stroke-width="1.5"
                                        stroke-miterlimit="2.61313" stroke-linecap="round" stroke-linejoin="round" />
                                    <path
                                        d="M14.1363 21.0685C14.414 21.2906 14.9973 21.6794 15.8443 21.7627V22.3876C15.8443 22.5681 15.9415 22.6653 16.1498 22.6653H16.2331C16.4414 22.6653 16.5386 22.5542 16.5386 22.3459V21.7627C17.705 21.6239 18.3993 20.8046 18.3993 19.8187C18.3993 17.6109 14.9973 17.9025 14.9973 16.5139C14.9973 15.9724 15.511 15.5003 16.247 15.5003C16.8163 15.5003 17.2606 15.7363 17.4967 15.9029C17.6911 16.014 17.8438 16.0001 17.9549 15.8057L18.0799 15.5697C18.1771 15.3892 18.1632 15.2364 17.9966 15.1253C17.7328 14.9448 17.2467 14.6671 16.5386 14.6254V13.9867C16.5386 13.8062 16.4414 13.709 16.2331 13.709H16.1498C15.9415 13.709 15.8443 13.8201 15.8443 14.0284V14.6254C14.7473 14.7921 14.0252 15.5836 14.0252 16.5417C14.0252 18.6384 17.4273 18.4163 17.4273 19.8604C17.4273 20.513 16.8579 20.8741 16.2192 20.8741C15.5249 20.8741 14.9834 20.5408 14.7057 20.3325C14.5251 20.2214 14.3724 20.2214 14.2474 20.388L14.0947 20.6241C13.9558 20.7769 13.9697 20.9435 14.1363 21.0685Z"
                                        fill="black" stroke="black" stroke-width="0.5" />
                                </g>
                            </svg>