<svg width="36" height="36" viewBox="0 0 36 36" fill="none" xmlns="http://www.w3.org/2000/svg">
<g id="fi_9921021" clip-path="url(#clip0_29994_889)">
<g id="Group">
<g id="Group_2">
<path id="Vector" d="M28.8967 7.45378C26.0751 4.63225 22.3236 3.07837 18.3333 3.07837C14.343 3.07837 10.5916 4.63225 7.76995 7.45378C2.14438 13.0794 1.90772 22.1102 7.23135 28.0131C7.42098 28.2235 7.74527 28.2403 7.95541 28.0505C8.16568 27.861 8.18243 27.5367 7.9928 27.3265C7.80187 27.1148 7.61867 26.8987 7.44312 26.6786L8.69595 25.4259L11.3282 28.0585L10.13 29.2567C9.9435 29.1199 9.75921 28.9786 9.57785 28.8313C9.35787 28.6528 9.03515 28.6865 8.85666 28.9063C8.67817 29.1262 8.71181 29.449 8.93165 29.6275C11.5932 31.7879 14.9056 32.9559 18.3307 32.9559C18.5753 32.9559 18.821 32.9498 19.0665 32.9379C22.7768 32.7568 26.2679 31.2093 28.8968 28.5805C31.7182 25.7589 33.2722 22.0074 33.2722 18.0171C33.2722 14.0269 31.7182 10.2754 28.8967 7.45378ZM31.7642 14.4017L28.9709 11.6083L30.0564 10.5227C30.8332 11.7374 31.402 13.0474 31.7642 14.4017ZM17.4507 9.69898L18.7658 11.0141L17.4508 12.329L16.1357 11.0139L17.4507 9.69898ZM24.1634 12.3314L22.8484 13.6465L21.5333 12.3314L22.8483 11.0163L24.1634 12.3314ZM18.7658 19.1747L17.4509 20.4897L16.1358 19.1746L17.4507 17.8596L18.7658 19.1747ZM16.1357 15.0943L17.4507 13.7793L18.7658 15.0944L17.4508 16.4094L16.1357 15.0943ZM18.1759 17.1345L19.4909 15.8195L22.1232 18.4519L20.8083 19.7669L18.1759 17.1345ZM21.5334 16.4116L22.8484 15.0966L24.1635 16.4117L22.8485 17.7267L21.5334 16.4116ZM22.1232 14.3715L20.8082 15.6866L18.1758 13.0542L19.4909 11.7392L22.1232 14.3715ZM16.7256 13.0542L15.4106 14.3692L12.7783 11.7369L14.0933 10.4219L16.7256 13.0542ZM16.7256 17.1346L15.4106 18.4495L12.7783 15.8172L14.0933 14.5022L16.7256 17.1346ZM13.3682 17.8575L12.0533 19.1724L10.7382 17.8573L12.0531 16.5424L13.3682 17.8575ZM14.0934 18.5825L16.7256 21.2149L15.4106 22.5298L12.7783 19.8975L14.0934 18.5825ZM17.4507 21.94L18.7658 23.255L17.4509 24.57L16.1358 23.2549L17.4507 21.94ZM18.176 21.2148L19.491 19.8998L22.1233 22.5322L20.8083 23.8472L18.176 21.2148ZM21.5334 20.492L22.8484 19.1769L24.1635 20.492L22.8485 21.8071L21.5334 20.492ZM23.5735 18.4518L24.8886 17.1368L27.5208 19.7691L26.2059 21.0841L23.5735 18.4518ZM23.5735 14.3715L24.8886 13.0564L27.5208 15.6888L26.2059 17.0038L23.5735 14.3715ZM23.5735 10.2912L24.8885 8.97614L27.5208 11.6085L26.2058 12.9235L23.5735 10.2912ZM22.8484 9.56615L21.5333 8.25106L22.8483 6.93603L24.1634 8.25112L22.8484 9.56615ZM22.1232 10.2912L20.8082 11.6063L18.1759 8.97396L19.4909 7.65893L22.1232 10.2912ZM18.7658 6.93377L17.4508 8.2488L16.1357 6.9337L17.4507 5.61867L18.7658 6.93377ZM16.7256 8.97396L15.4106 10.2889L12.7782 7.65653L14.0933 6.3415L16.7256 8.97396ZM13.3682 9.69679L12.0532 11.0118L10.7381 9.69672L12.0531 8.38169L13.3682 9.69679ZM13.3682 13.7772L12.0533 15.0921L10.7382 13.777L12.0531 12.4621L13.3682 13.7772ZM11.328 15.8173L10.013 17.1322L7.38057 14.4998L8.6956 13.1848L11.328 15.8173ZM7.97065 16.5402L6.65576 17.8551L5.34066 16.54L6.65556 15.2251L7.97065 16.5402ZM7.97065 20.6205L6.65576 21.9354L5.34066 20.6203L6.65556 19.3055L7.97065 20.6205ZM7.38085 18.5802L8.69581 17.2652L11.328 19.8976L10.0131 21.2125L7.38085 18.5802ZM12.0531 20.6227L13.3682 21.9378L12.0533 23.2527L10.7383 21.9376L12.0531 20.6227ZM14.0934 22.6628L16.7256 25.2952L15.4107 26.6101L12.7784 23.9778L14.0934 22.6628ZM17.4507 26.0203L18.7658 27.3354L17.4509 28.6502L16.1358 27.3351L17.4507 26.0203ZM18.176 25.2951L19.491 23.9801L22.1233 26.6124L20.8083 27.9275L18.176 25.2951ZM21.5334 24.5723L22.8483 23.2573L24.1634 24.5724L22.8484 25.8874L21.5334 24.5723ZM23.5735 22.5321L24.8886 21.2171L27.5208 23.8495L26.2059 25.1645L23.5735 22.5321ZM26.9309 21.8092L28.246 20.4942L29.5611 21.8092L28.246 23.1243L26.9309 21.8092ZM26.9309 17.7289L28.2459 16.4139L29.561 17.729L28.246 19.044L26.9309 17.7289ZM28.246 14.9637L26.9309 13.6486L28.2459 12.3336L29.561 13.6487L28.246 14.9637ZM29.4623 9.66664L28.2458 10.8832L26.9309 9.56834L28.245 8.2542C28.6876 8.70346 29.0933 9.17555 29.4623 9.66664ZM24.3244 5.4598C25.452 5.99649 26.522 6.69287 27.4996 7.54969L26.2059 8.84332L23.5734 6.2108L24.3244 5.4598ZM23.3091 5.02497L22.8483 5.48578L21.9469 4.58433C22.4068 4.70724 22.8614 4.85428 23.3091 5.02497ZM20.1412 4.22886L22.1232 6.21087L20.8082 7.5259L17.4237 4.14136C18.3295 4.08271 19.24 4.11176 20.1412 4.22886ZM16.1203 4.28833L16.7256 4.89358L15.4105 6.20861L14.0012 4.79918C14.6956 4.57312 15.4043 4.40263 16.1203 4.28833ZM12.9437 5.1919L13.3682 5.61642L12.0531 6.93145L11.1954 6.07381C11.7609 5.73632 12.3452 5.44224 12.9437 5.1919ZM10.316 6.64509L11.3278 7.65688L10.013 8.97163L8.86479 7.8234C9.32752 7.39328 9.81232 7.00021 10.316 6.64509ZM8.13984 8.54869L11.328 11.737L10.013 13.0519L6.96119 10.0001C7.31721 9.49663 7.70959 9.01128 8.13984 8.54869ZM6.38868 10.8778L7.97052 12.4596L6.65549 13.7746L5.50418 12.6233C5.7556 12.0257 6.05044 11.4422 6.38868 10.8778ZM5.10981 13.6792L5.93054 14.4999L4.61557 15.8149L4.59616 15.7955C4.71182 15.0803 4.88238 14.3724 5.10981 13.6792ZM4.53224 19.8119C4.41603 18.9115 4.38814 18.0022 4.44823 17.0981L5.93047 18.5804L4.61557 19.8953L4.53224 19.8119ZM4.88963 21.6199L5.93033 22.6606L5.40882 23.1821C5.20408 22.6698 5.03072 22.1481 4.88963 21.6199ZM6.82809 25.8435C6.46271 25.3082 6.13855 24.7539 5.85664 24.1844L6.65549 23.3855L7.97086 24.7009L6.82809 25.8435ZM7.38085 22.6605L8.69588 21.3455L11.328 23.9779L10.0131 25.2928L7.38085 22.6605ZM10.7383 26.0179L12.0531 24.703L13.3682 26.0181L12.0533 27.333L10.7383 26.0179ZM12.7119 30.7545C12.1247 30.4939 11.5511 30.1891 10.9949 29.842L12.0534 28.7834L13.3682 30.0982L12.7119 30.7545ZM13.7508 31.1659L14.0934 30.8233L14.7423 31.4723C14.4091 31.383 14.0784 31.2806 13.7508 31.1659ZM12.7784 28.0581L14.0935 26.7431L16.7254 29.3753L15.4105 30.6902L12.7784 28.0581ZM16.5495 31.8291L16.1357 31.4153L17.4504 30.1006L19.2631 31.9126C18.3595 31.9737 17.4505 31.9454 16.5495 31.8291ZM20.5638 31.7632L18.176 29.3753L19.491 28.0603L22.6768 31.2461C21.9848 31.4745 21.2781 31.6466 20.5638 31.7632ZM21.5334 28.6525L22.8484 27.3375L24.1635 28.6526L22.8485 29.9675L21.5334 28.6525ZM23.731 30.8502L23.5736 30.6928L24.8886 29.3777L25.4747 29.9638C24.9109 30.3026 24.328 30.5978 23.731 30.8502ZM26.3517 29.3905L23.5735 26.6124L24.8886 25.2974L27.8018 28.2108C27.3395 28.641 26.8547 29.034 26.3517 29.3905ZM28.5271 27.4857L26.9309 25.8895L28.246 24.5745L29.7057 26.0342C29.3504 26.5379 28.9573 27.0229 28.5271 27.4857ZM30.2767 25.155L28.9711 23.8494L30.2862 22.5344L31.1588 23.407C30.9084 24.0054 30.6142 24.5896 30.2767 25.155ZM31.5516 22.3495L28.9711 19.7691L30.2861 18.4541L32.0625 20.2306C31.9482 20.9466 31.7776 21.6552 31.5516 22.3495ZM28.9711 15.6888L30.2861 14.3737L32.1221 16.2097C32.2393 17.1109 32.2683 18.0215 32.2096 18.9273L28.9711 15.6888Z" fill="black"/>
</g>
<g id="Group_3">
<path id="Vector_2" d="M18.3333 35.5171C13.6589 35.5171 9.26421 33.6967 5.9589 30.3915C2.65365 27.0861 0.833313 22.6915 0.833313 18.0171C0.833313 13.0408 2.96373 8.28311 6.67838 4.96413C6.88961 4.77539 7.21364 4.79377 7.40231 5.00487C7.59098 5.21603 7.57273 5.54012 7.36157 5.72879C3.86444 8.85343 1.8587 13.3324 1.8587 18.0171C1.8587 27.1012 9.24917 34.4917 18.3333 34.4917C27.4175 34.4917 34.8079 27.1012 34.8079 18.0171C34.8079 15.2641 34.1153 12.5395 32.8049 10.1379C32.6693 9.88935 32.7608 9.57797 33.0093 9.44228C33.2579 9.30672 33.5693 9.39826 33.705 9.64674C35.0974 12.1986 35.8333 15.093 35.8333 18.0171C35.8333 22.6915 34.013 27.0862 30.7077 30.3915C27.4023 33.6967 23.0077 35.5171 18.3333 35.5171Z" fill="black"/>
</g>
<g id="Group_4">
<path id="Vector_3" d="M32.0293 8.47979C31.8717 8.47979 31.7162 8.40733 31.6157 8.27068C28.5189 4.0577 23.5535 1.54248 18.3333 1.54248C15.0164 1.54248 11.8186 2.52412 9.08566 4.38138C8.85139 4.54045 8.53263 4.47968 8.37342 4.24555C8.21428 4.01128 8.27512 3.69245 8.50925 3.53331C11.413 1.56012 14.8101 0.51709 18.3333 0.51709C21.125 0.51709 23.9023 1.19084 26.3651 2.46567C28.7476 3.69888 30.8489 5.49625 32.4419 7.66338C32.6096 7.89156 32.5606 8.21244 32.3325 8.38013C32.241 8.44739 32.1347 8.47979 32.0293 8.47979Z" fill="black"/>
</g>
</g>
</g>
<defs>
<clipPath id="clip0_29994_889">
<rect width="35" height="35" fill="white" transform="translate(0.833313 0.51709)"/>
</clipPath>
</defs>
</svg>
