<svg width="24" height="24" viewBox="0 0 24 24" fill="none" xmlns="http://www.w3.org/2000/svg">
<g id="carbon:delivery">
<path id="Vector" d="M3 12H12V13.5H3V12ZM1.5 8.25H9V9.75H1.5V8.25Z" fill="#028763"/>
<path id="Vector_2" d="M22.4388 12.4545L20.1888 7.2045C20.131 7.06956 20.0349 6.95455 19.9124 6.87375C19.7899 6.79295 19.6463 6.74992 19.4995 6.75H17.2495V5.25C17.2495 5.05109 17.1705 4.86032 17.0299 4.71967C16.8892 4.57902 16.6984 4.5 16.4995 4.5H4.49952V6H15.7495V15.417C15.4078 15.6154 15.1087 15.8796 14.8695 16.1942C14.6303 16.5088 14.4558 16.8676 14.356 17.25H9.64302C9.46047 16.543 9.02635 15.9269 8.42201 15.517C7.81768 15.1072 7.08463 14.9319 6.36027 15.0239C5.63591 15.1159 4.96997 15.4689 4.48728 16.0168C4.00459 16.5647 3.73828 17.2698 3.73828 18C3.73828 18.7302 4.00459 19.4353 4.48728 19.9832C4.96997 20.5311 5.63591 20.8841 6.36027 20.9761C7.08463 21.0681 7.81768 20.8928 8.42201 20.483C9.02635 20.0731 9.46047 19.457 9.64302 18.75H14.356C14.5192 19.3937 14.8923 19.9646 15.4164 20.3724C15.9404 20.7802 16.5855 21.0016 17.2495 21.0016C17.9136 21.0016 18.5586 20.7802 19.0827 20.3724C19.6067 19.9646 19.9799 19.3937 20.143 18.75H21.7495C21.9484 18.75 22.1392 18.671 22.2799 18.5303C22.4205 18.3897 22.4995 18.1989 22.4995 18V12.75C22.4996 12.6484 22.4789 12.5479 22.4388 12.4545ZM6.74952 19.5C6.45285 19.5 6.16284 19.412 5.91616 19.2472C5.66949 19.0824 5.47723 18.8481 5.3637 18.574C5.25017 18.2999 5.22046 17.9983 5.27834 17.7074C5.33622 17.4164 5.47908 17.1491 5.68886 16.9393C5.89864 16.7296 6.16591 16.5867 6.45688 16.5288C6.74785 16.4709 7.04945 16.5006 7.32354 16.6142C7.59763 16.7277 7.8319 16.92 7.99672 17.1666C8.16155 17.4133 8.24952 17.7033 8.24952 18C8.24912 18.3977 8.09096 18.779 7.80974 19.0602C7.52852 19.3414 7.14722 19.4996 6.74952 19.5ZM17.2495 8.25H19.0045L20.6125 12H17.2495V8.25ZM17.2495 19.5C16.9528 19.5 16.6628 19.412 16.4162 19.2472C16.1695 19.0824 15.9772 18.8481 15.8637 18.574C15.7502 18.2999 15.7205 17.9983 15.7783 17.7074C15.8362 17.4164 15.9791 17.1491 16.1889 16.9393C16.3986 16.7296 16.6659 16.5867 16.9569 16.5288C17.2479 16.4709 17.5495 16.5006 17.8235 16.6142C18.0976 16.7277 18.3319 16.92 18.4967 17.1666C18.6615 17.4133 18.7495 17.7033 18.7495 18C18.7491 18.3977 18.591 18.779 18.3097 19.0602C18.0285 19.3414 17.6472 19.4996 17.2495 19.5ZM20.9995 17.25H20.143C19.9778 16.6076 19.6041 16.0381 19.0804 15.6309C18.5568 15.2238 17.9128 15.0018 17.2495 15V13.5H20.9995V17.25Z" fill="#028763"/>
</g>
</svg>
