<svg xmlns="http://www.w3.org/2000/svg" width="22" height="22" viewBox="0 0 22 22" fill="none">
  <path d="M1.21191 20.7803H21.1974" stroke="black" stroke-width="0.7" stroke-linecap="round"/>
  <path d="M13.8146 17.5937C13.0754 17.9663 12.2395 18.1752 11.3564 18.1752C8.33826 18.1752 5.89185 15.7308 5.89185 12.7127C5.89185 12.5865 5.89778 12.4603 5.90763 12.3341H5.90566C5.90566 12.3341 5.54686 9.98042 11.3564 1.52539C16.7381 9.35748 16.8248 11.9537 16.809 12.2947C14.956 12.6101 13.5465 14.2227 13.5465 16.1645C13.5465 16.6691 13.6411 17.1501 13.8146 17.5937Z" stroke="black" stroke-width="0.7" stroke-miterlimit="2.613" stroke-linecap="round" stroke-linejoin="round"/>
  <path d="M11.6839 15.6988C9.72636 15.6988 8.1394 14.1119 8.1394 12.1543" stroke="black" stroke-width="0.7" stroke-miterlimit="2.613" stroke-linecap="round" stroke-linejoin="round"/>
  <path d="M17.6184 14.5469V16.9312" stroke="black" stroke-width="0.7" stroke-linecap="round"/>
  <path d="M16.0298 16.1367L17.6194 17.7263L19.2089 16.1367" stroke="black" stroke-width="0.7" stroke-linecap="round"/>
  <path d="M17.5023 12.2754C19.5718 12.2754 21.2499 13.9536 21.2499 16.023C21.2499 18.0925 19.5718 19.7707 17.5023 19.7707C15.4328 19.7707 13.7566 18.0925 13.7566 16.023C13.7566 13.9536 15.4328 12.2754 17.5023 12.2754Z" stroke="black" stroke-width="0.7" stroke-miterlimit="2.613" stroke-linecap="round" stroke-linejoin="round"/>
  <path d="M4.0438 1.21973C5.72538 1.21973 7.08962 2.58199 7.08962 4.26357C7.08962 5.94516 5.72538 7.30934 4.0438 7.30934C2.36418 7.30934 1 5.94516 1 4.26357C1 2.58199 2.36418 1.21973 4.0438 1.21973Z" stroke="black" stroke-width="0.7" stroke-miterlimit="2.613" stroke-linecap="round" stroke-linejoin="round"/>
  <path d="M11.6839 15.6988C9.72636 15.6988 8.1394 14.1119 8.1394 12.1543" stroke="black" stroke-width="0.7" stroke-miterlimit="2.613" stroke-linecap="round" stroke-linejoin="round"/>
  <path fill-rule="evenodd" clip-rule="evenodd" d="M4.0438 1.25098C5.72538 1.25098 7.08962 2.61324 7.08962 4.29482C7.08962 5.97641 5.72538 7.34059 4.0438 7.34059C2.36418 7.34059 1 5.97641 1 4.29482C1 2.61324 2.36418 1.25098 4.0438 1.25098Z" stroke="black" stroke-width="0.7" stroke-miterlimit="2.613" stroke-linecap="round" stroke-linejoin="round"/>
  <path d="M4.1672 5.74728C3.28008 5.74728 2.56055 5.02775 2.56055 4.14062" stroke="black" stroke-width="0.7" stroke-miterlimit="2.613" stroke-linecap="round" stroke-linejoin="round"/>
</svg>