<svg xmlns="http://www.w3.org/2000/svg" width="17" height="21" viewBox="0 0 17 21" fill="none">
  <path fill-rule="evenodd" clip-rule="evenodd" d="M6.22003 8.63047L6.22004 8.31385V7.98541L6.22007 7.66768L6.22004 7.33924V7.02152L6.22743 6.71183L6.2692 6.37499C6.2896 6.23032 6.3973 5.82537 6.46836 5.75402C6.54283 5.47142 6.9605 4.99497 7.11426 4.8555C7.32429 4.66499 7.69986 4.36878 8.06577 4.27399C8.11314 4.23731 8.21568 4.21278 8.28074 4.2152C8.34645 4.15417 8.60565 4.13447 8.71169 4.12695L8.75953 4.13234C8.79688 4.1109 8.78314 4.11832 8.83981 4.11331C8.96372 4.10234 9.38411 4.10195 9.44912 4.15077C9.52016 4.14471 9.62535 4.1694 9.66387 4.1811C9.8486 4.21439 10.017 4.28092 10.1807 4.35295L10.2994 4.41365C10.3203 4.42935 10.3127 4.42279 10.3274 4.44027C10.479 4.45805 10.9484 4.87451 11.0282 4.95994C11.1239 5.06246 11.5065 5.50392 11.529 5.68275C11.6272 5.76579 11.7466 6.20446 11.7681 6.37445C11.7859 6.45095 11.8001 6.53001 11.79 6.60434C11.8459 6.68404 11.8175 6.90681 11.817 7.01616V7.3446V7.66232V7.99077L11.8171 8.30849L11.8169 8.63425L11.8164 9.00457L6.22367 9.00965L6.22003 8.63047ZM8.49223 2.02391C8.48802 2.02632 8.4824 2.02842 8.47886 2.02968L8.26613 2.06541C8.18951 2.07661 8.12229 2.08996 8.04607 2.1006C7.99024 2.11776 7.85444 2.15584 7.77689 2.15098L7.75413 2.16443C7.6676 2.20702 7.81013 2.14371 7.73042 2.17542C7.71665 2.1809 7.69748 2.18551 7.68077 2.19009C7.44836 2.25391 7.17653 2.37324 7.06477 2.40223C7.03247 2.43341 6.82915 2.51959 6.76682 2.55321C6.69359 2.59269 6.51948 2.7053 6.46702 2.71465C6.42937 2.76754 5.74287 3.17262 5.12664 3.94932L4.7655 4.4518C4.75995 4.49903 4.63997 4.70357 4.61193 4.75933C4.58824 4.80641 4.48242 5.04641 4.46643 5.06426L4.34493 5.40607L4.25826 5.71043C4.2144 5.96999 4.16466 6.18772 4.14071 6.46951C4.11702 6.74825 4.12396 7.02615 4.12264 7.30961C4.12132 7.59487 4.12209 7.88048 4.12209 8.16578C4.12208 8.33647 4.14443 8.88252 4.11462 9.0101L3.59298 9.02068C3.54511 9.04056 3.46544 9.04936 3.40346 9.07247C3.36825 9.0856 3.34003 9.09957 3.3116 9.11417C3.26007 9.14065 3.27149 9.14279 3.2252 9.14566C3.20798 9.16795 3.22027 9.15503 3.19842 9.1747L3.09747 9.2532C3.04903 9.29428 3.02525 9.31673 2.98359 9.36551C2.88577 9.48003 2.82614 9.60472 2.79463 9.63406L2.73464 9.8782L2.72266 10.247V10.5754V10.8932V11.2216V11.5393V11.8678V12.1855V12.5139V12.8317V13.1601V13.4778V13.8063V14.124V14.4524V14.7701V15.0986V15.4163V15.7448V16.0625L2.72332 16.3909C2.73095 16.5279 2.7552 16.6081 2.78129 16.7274C2.82618 16.797 2.85162 16.8785 2.90191 16.95C2.95324 17.0229 3.00793 17.0875 3.06796 17.1394C3.20806 17.2606 3.31492 17.3189 3.5295 17.3808L3.84859 17.4059H4.1769H4.4945H4.82281H5.14042H5.46873H5.78633H6.11464H6.43224H6.76055H7.07816H7.40647H7.72407H8.05239H8.36998H8.6983H9.0159H9.34421H9.66181H9.99013H10.3077H10.636H10.9536H11.282H11.5996H11.9279H12.2455H12.5738H12.8914H13.2197H13.5373H13.8656L14.1821 17.4058L14.5042 17.3812C14.7212 17.317 14.8425 17.25 14.9774 17.1314C15.0353 17.0806 15.0914 17.0117 15.1412 16.94C15.1832 16.8797 15.2287 16.7447 15.2743 16.6977L15.3137 16.3856L15.3145 16.0678V15.7394V15.4217V15.0932V14.7755V14.4471V14.1293V13.8009V13.4832V13.1547V12.837V12.5086V12.1908V11.8624V11.5447V11.2162V10.8985V10.5701V10.2523L15.3227 9.9831C15.2949 9.94173 15.2955 9.84246 15.2805 9.78467C15.2609 9.70879 15.2356 9.66276 15.2185 9.59327C15.1601 9.53676 15.1539 9.41873 14.8949 9.21593C14.8636 9.19142 14.8571 9.19417 14.8479 9.16991C14.6922 9.11052 14.6356 9.05054 14.4293 9.02105C14.2635 8.99736 14.0686 9.02734 13.917 9.00178C13.8734 8.19888 13.9552 7.23179 13.8881 6.36791L13.8689 6.12774C13.8223 6.05913 13.8075 5.85239 13.7857 5.7579C13.7567 5.63238 13.7205 5.52683 13.6915 5.40703C13.6663 5.34509 13.5982 5.17877 13.5958 5.10767C13.5415 5.05985 13.4626 4.8364 13.4255 4.75924C13.3724 4.6489 13.2857 4.52672 13.2465 4.4181C13.2141 4.40229 13.1165 4.22771 13.0831 4.18031C12.8158 3.80087 12.4332 3.37514 12.0715 3.09237L11.6092 2.74317L11.0989 2.46623C11.0636 2.44912 11.0442 2.4436 11.0101 2.42769C10.9935 2.41997 10.9797 2.41274 10.9665 2.40389C10.9444 2.38905 10.9505 2.39347 10.9359 2.37812C10.9271 2.3781 10.3432 2.18668 10.3265 2.17565L9.88845 2.07079C9.82915 2.07956 9.78933 2.06911 9.729 2.0571C9.63829 2.04942 9.33317 2.03709 9.27987 2.00586L9.0159 2.01115L8.6986 2.02113C8.63044 2.02424 8.55019 2.03989 8.49223 2.02391Z" fill="white"/>
</svg>