<svg xmlns="http://www.w3.org/2000/svg" width="18" height="18" viewBox="0 0 18 18" fill="none">
  <mask id="path-1-inside-1_12077_15287" fill="white">
    <path fill-rule="evenodd" clip-rule="evenodd" d="M12.7057 0H5.50566V5.29404L0 5.29404V12.494H5.50566V18H12.7057V12.494H18V5.29404L12.7057 5.29404V0Z"/>
  </mask>
  <path d="M5.50566 0V-0.7H4.80566V0H5.50566ZM12.7057 0H13.4057V-0.7H12.7057V0ZM5.50566 5.29404V5.99404H6.20566V5.29404H5.50566ZM0 5.29404L-6.06259e-08 4.59404H-0.7V5.29404H0ZM0 12.494H-0.7V13.194H0V12.494ZM5.50566 12.494H6.20566V11.794H5.50566V12.494ZM5.50566 18H4.80566V18.7H5.50566V18ZM12.7057 18V18.7H13.4057V18H12.7057ZM12.7057 12.494V11.794H12.0057V12.494H12.7057ZM18 12.494V13.194H18.7V12.494H18ZM18 5.29404H18.7V4.59404H18V5.29404ZM12.7057 5.29404H12.0057V5.99404H12.7057V5.29404ZM5.50566 0.7H12.7057V-0.7H5.50566V0.7ZM6.20566 5.29404V0H4.80566V5.29404H6.20566ZM6.06259e-08 5.99404L5.50566 5.99404V4.59404L-6.06259e-08 4.59404L6.06259e-08 5.99404ZM0.7 12.494V5.29404H-0.7V12.494H0.7ZM5.50566 11.794H0V13.194H5.50566V11.794ZM6.20566 18V12.494H4.80566V18H6.20566ZM12.7057 17.3H5.50566V18.7H12.7057V17.3ZM12.0057 12.494V18H13.4057V12.494H12.0057ZM18 11.794H12.7057V13.194H18V11.794ZM17.3 5.29404V12.494H18.7V5.29404H17.3ZM12.7057 5.99404L18 5.99404V4.59404L12.7057 4.59404V5.99404ZM12.0057 0V5.29404H13.4057V0H12.0057Z" fill="black" mask="url(#path-1-inside-1_12077_15287)"/>
</svg>