<!-- <svg width="14" height="18" viewBox="0 0 14 18" fill="none" xmlns="http://www.w3.org/2000/svg">
<path d="M11.7908 17.0005H1.82798C1.6751 17.0016 1.52728 16.933 1.41308 16.8077C1.29887 16.6825 1.22637 16.5096 1.20955 16.3224L0.720999 7.2901C0.718424 7.18918 0.732654 7.08869 0.762822 6.99482C0.792989 6.90094 0.838447 6.81567 0.896395 6.74428C0.954342 6.67289 1.02355 6.61689 1.09975 6.57972C1.17595 6.54256 1.25752 6.52502 1.33943 6.5282H12.3814C12.5454 6.5282 12.7027 6.60847 12.8187 6.75135C12.9347 6.89424 12.9999 7.08803 12.9999 7.2901L12.4093 16.33C12.391 16.5158 12.3179 16.6869 12.2038 16.8106C12.0898 16.9342 11.9428 17.0018 11.7908 17.0005V17.0005Z" stroke="white" stroke-linecap="round" stroke-linejoin="round"/>
<path d="M3.7666 8.99993V4.80949C3.7666 3.79915 4.09239 2.83019 4.67227 2.11577C5.25216 1.40135 6.03865 1 6.85873 1C7.67882 1 8.46532 1.40135 9.04521 2.11577C9.62509 2.83019 9.95087 3.79915 9.95087 4.80949V8.99993" stroke="white" stroke-linecap="round" stroke-linejoin="round"/>
</svg> -->

<svg xmlns="http://www.w3.org/2000/svg" width="15" height="20" viewBox="0 0 15 20" fill="none">
  <path d="M12.4948 4.75003H2.14976C1.99101 4.74847 1.83753 4.84192 1.71894 5.01231C1.60035 5.1827 1.52506 5.41797 1.5076 5.67271L1.00031 17.9631C0.997634 18.1004 1.01241 18.2371 1.04373 18.3649C1.07506 18.4926 1.12226 18.6086 1.18243 18.7058C1.2426 18.8029 1.31447 18.8791 1.39359 18.9297C1.47271 18.9803 1.55741 19.0041 1.64246 18.9998H13.1081C13.2784 18.9998 13.4418 18.8906 13.5622 18.6961C13.6826 18.5017 13.7503 18.238 13.7503 17.9631L13.137 5.66235C13.1181 5.40948 13.0421 5.17672 12.9237 5.00845C12.8053 4.84018 12.6526 4.74819 12.4948 4.75003V4.75003Z" stroke="white" stroke-linecap="round" stroke-linejoin="round"/>
  <path d="M4 7.75014V4.21435C4 3.36185 4.35559 2.54427 4.98854 1.94146C5.62149 1.33865 6.47994 1 7.37507 1C8.27019 1 9.12866 1.33865 9.76161 1.94146C10.3946 2.54427 10.7501 3.36185 10.7501 4.21435V7.75014" stroke="white" stroke-linecap="round" stroke-linejoin="round"/>
</svg>