<svg xmlns="http://www.w3.org/2000/svg" width="16" height="16" viewBox="0 0 16 16" fill="none">
  <g clip-path="url(#clip0_12488_3881)">
    <path d="M1.05575 2.31445C0.707626 2.31445 0.477051 2.54503 0.477051 2.89315V10.9949C0.477051 11.343 0.707626 11.5736 1.05575 11.5736H2.21314C2.32843 10.5903 3.19647 9.78326 4.23858 9.78326C5.28068 9.78326 6.14873 10.5903 6.26402 11.5736H8.5788C8.92693 11.5736 9.1575 11.343 9.1575 10.9949V2.89315C9.1575 2.54503 8.92693 2.31445 8.5788 2.31445H1.05575ZM6.77038 4.32181C6.86532 4.32181 6.96478 4.3625 7.02356 4.4484L7.36716 4.81008C7.48245 4.92537 7.48697 5.14238 7.31291 5.31644L4.47367 8.15567C4.29961 8.32973 4.06452 8.32973 3.94923 8.15567L2.32165 6.54617C2.14759 6.37211 2.14759 6.13702 2.32165 6.02173L2.68333 5.67813C2.85739 5.50407 3.0744 5.50407 3.18969 5.67813L4.23858 6.70893L6.49911 4.4484C6.58501 4.3625 6.67544 4.32181 6.77038 4.32181ZM10.3149 4.62924C9.96677 4.62924 9.7362 4.85981 9.7362 5.20794V10.9949C9.7362 11.2843 9.96677 11.5736 10.3149 11.5736C10.4302 10.5903 11.2982 9.78326 12.3403 9.78326C13.3824 9.78326 14.2505 10.5315 14.3658 11.5736H14.9445C15.2926 11.5736 15.5232 11.343 15.5232 10.9949V8.10142C15.5232 7.5815 15.053 6.94403 15.053 6.94403L13.7871 5.20794C13.4977 4.85981 13.3237 4.62924 12.919 4.62924H10.3149ZM11.4723 5.78663H12.8648C12.9801 5.78663 13.0999 5.89514 13.0999 5.89514L14.3115 7.57698C14.4268 7.75104 14.5466 7.93188 14.5466 8.04717H11.4723V5.78663ZM4.23858 10.5247C3.50391 10.5247 2.90034 11.1283 2.90034 11.8629C2.90034 12.5976 3.50391 13.2012 4.23858 13.2012C4.97325 13.2012 5.57682 12.5976 5.57682 11.8629C5.57682 11.1283 4.97325 10.5247 4.23858 10.5247ZM12.3403 10.5247C11.6057 10.5247 11.0021 11.1283 11.0021 11.8629C11.0021 12.5976 11.6057 13.2012 12.3403 13.2012C13.075 13.2012 13.6786 12.5976 13.6786 11.8629C13.6786 11.1283 13.075 10.5247 12.3403 10.5247Z" fill="white"/>
  </g>
  <defs>
    <clipPath id="clip0_12488_3881">
      <rect width="15.0461" height="15.0461" fill="white" transform="translate(0.476929)"/>
    </clipPath>
  </defs>
</svg>