<svg xmlns="http://www.w3.org/2000/svg" width="55" height="55" viewBox="0 0 48 49"
                                    fill="none">
                                    <path
                                        d="M24 44.6865C35.0457 44.6865 44 35.7322 44 24.6865C44 13.6408 35.0457 4.68652 24 4.68652C12.9543 4.68652 4 13.6408 4 24.6865C4 35.7322 12.9543 44.6865 24 44.6865Z"
                                        stroke="black" stroke-miterlimit="2.61313" stroke-linecap="round"
                                        stroke-linejoin="round" />
                                    <path
                                        d="M8.49707 12.0554C8.49707 12.0554 13.4664 15.7021 13.6553 18.0167C13.8443 20.3313 15.4503 20.7753 17.1697 20.9265C18.8891 21.0776 19.5788 20.9831 20.1362 22.1168C20.6936 23.26 20.0795 24.0252 19.7394 24.6582C19.4087 25.2911 18.6246 27.3506 21.6478 27.8325L23.2727 30.4494L22.3563 32.2066C22.3563 32.2066 23.0082 32.9529 24.3213 33.9543C25.6251 34.9652 26.7966 36.798 26.2014 37.4687C25.6062 38.1395 20.4479 40.6053 18.7758 43.9968"
                                        stroke="black" stroke-miterlimit="2.61313" stroke-linecap="round"
                                        stroke-linejoin="round" />
                                    <path d="M35.7343 40.8793C35.7343 40.8793 42.6403 22.6177 31.1807 12.5374"
                                        stroke="black" stroke-miterlimit="2.61313" stroke-linecap="round"
                                        stroke-linejoin="round" />
                                    <path
                                        d="M17.085 5.91479C25.597 13.416 27.2219 17.5445 28.2989 22.2965C29.6594 28.305 31.3977 32.5846 37.3589 34.2851"
                                        stroke="black" stroke-miterlimit="2.61313" stroke-linecap="round"
                                        stroke-linejoin="round" />
                                    <path d="M37.3584 34.2851C37.3584 34.2851 42.3844 32.2728 43.6598 28.3333"
                                        stroke="black" stroke-miterlimit="2.61313" stroke-linecap="round"
                                        stroke-linejoin="round" />
                                </svg>