 <svg xmlns="http://www.w3.org/2000/svg" width="55" height="55" viewBox="0 0 55 56"
                                    fill="none">
                                    <g clip-path="url(#clip0_11417_2620)">
                                        <path fill-rule="evenodd" clip-rule="evenodd"
                                            d="M27.5058 2.52588C41.6784 2.52588 53.1611 14.0086 53.1611 28.1918C53.1611 42.3645 41.6784 53.8472 27.5058 53.8472C13.3225 53.8472 1.83984 42.3645 1.83984 28.1918C1.83984 14.0086 13.3225 2.52588 27.5058 2.52588V2.52588Z"
                                            stroke="black" stroke-miterlimit="2.61313" stroke-linecap="round"
                                            stroke-linejoin="round" />
                                        <path fill-rule="evenodd" clip-rule="evenodd"
                                            d="M27.5057 15.3481C34.5867 15.3481 40.3387 21.1001 40.3387 28.1918C40.3387 35.2728 34.5867 41.0247 27.5057 41.0247C20.4141 41.0247 14.6621 35.2728 14.6621 28.1918C14.6621 21.1001 20.4141 15.3481 27.5057 15.3481V15.3481Z"
                                            stroke="black" stroke-miterlimit="2.61313" stroke-linecap="round"
                                            stroke-linejoin="round" />
                                        <path
                                            d="M11.3655 31.2538C11.2698 31.2007 11.1741 31.1688 11.089 31.1369C11.004 31.1156 10.9189 31.0944 10.8339 31.0731C10.7488 31.0625 10.6531 31.0518 10.5574 31.0518C10.4617 31.0518 10.3448 31.0518 10.2172 31.0625L7.71865 31.2219C7.59107 31.2219 7.47411 31.2326 7.37842 31.2538C7.28273 31.2645 7.18705 31.2857 7.10199 31.3176C7.01693 31.3389 6.94251 31.3708 6.85745 31.4027C6.78302 31.4452 6.69797 31.4877 6.60228 31.5515H6.58101C6.57038 31.3602 6.55975 31.2007 6.54912 31.0625C6.53849 30.9349 6.52785 30.7967 6.51722 30.6691C6.50659 30.5415 6.49596 30.4033 6.47469 30.2544C6.46406 30.1056 6.45343 29.9142 6.4428 29.7015C6.4109 29.2763 6.4428 28.8935 6.52785 28.5426C6.61291 28.2024 6.75113 27.9047 6.93187 27.6495C7.12325 27.405 7.36779 27.2136 7.65486 27.0648C7.94193 26.9266 8.28215 26.8415 8.67554 26.8096C9.06893 26.7883 9.40916 26.8309 9.71749 26.9372C10.0258 27.0329 10.2916 27.1924 10.5149 27.4156C10.7275 27.6389 10.9083 27.9047 11.0359 28.2449C11.1635 28.5745 11.2379 28.9573 11.2698 29.3932L11.3867 31.2538H11.3655ZM6.57038 29.7334L6.58101 29.7972C6.58101 29.8398 6.59165 29.8929 6.59165 29.9461C6.60228 30.0099 6.60228 30.0737 6.61291 30.1375C6.61291 30.2119 6.62354 30.2757 6.62354 30.3395L11.1741 30.0524L11.1316 29.4251C11.1103 29.0955 11.0465 28.8297 10.9296 28.6171C10.8232 28.4044 10.6744 28.2343 10.483 28.1067C10.281 27.9898 10.0471 27.9047 9.77065 27.8622C9.49422 27.8197 9.18589 27.8197 8.83503 27.8409C8.02698 27.8835 7.43158 28.0642 7.07009 28.3619C6.69797 28.6596 6.52785 29.1168 6.57038 29.7334ZM12.0247 22.7375L11.2379 26.1398H11.2273C11.1209 26.076 11.0359 26.0122 10.9615 25.9697C10.8764 25.9165 10.7913 25.874 10.7063 25.8315C10.6212 25.7889 10.5362 25.7464 10.4405 25.7145C10.3342 25.6826 10.2278 25.6507 10.1002 25.6188L7.80371 25.0872C7.67612 25.0553 7.55917 25.034 7.45285 25.0234C7.35716 25.0128 7.26147 25.0021 7.16578 25.0021C7.07009 25.0021 6.9744 25.0128 6.87871 25.0128C6.78302 25.0234 6.6767 25.0447 6.57038 25.0553H6.54912L7.28273 21.9295L8.51606 21.9614L8.52669 22.0251C8.40974 22.0889 8.29279 22.1634 8.14394 22.2378C8.00572 22.3122 7.8675 22.3866 7.73992 22.4717C7.61233 22.5461 7.49538 22.6312 7.38906 22.7162C7.29337 22.7907 7.22957 22.8757 7.20831 22.9501L6.93187 23.907L9.0583 24.3961L9.16462 23.9283C9.18589 23.8432 9.18589 23.7582 9.15399 23.6731C9.13273 23.5881 9.0902 23.503 9.03704 23.418C8.99451 23.3223 8.94135 23.2372 8.87755 23.1628C8.81376 23.0777 8.7606 22.9927 8.71807 22.9182L8.7287 22.8651L10.164 23.1947L10.1534 23.2585C10.079 23.301 10.0046 23.3542 9.90887 23.3967C9.82381 23.4392 9.73876 23.4924 9.6537 23.5455C9.56864 23.6093 9.48359 23.6731 9.41979 23.7369C9.356 23.8007 9.31347 23.8751 9.29221 23.9496L9.18589 24.428L11.3974 24.9384L11.5994 23.8858C11.6206 23.7688 11.61 23.6306 11.5569 23.4818C11.5037 23.3329 11.4293 23.1734 11.3336 23.0246C11.2485 22.8651 11.1422 22.7162 11.0252 22.578C10.9083 22.4292 10.802 22.291 10.7063 22.174L10.7382 22.1208L12.0247 22.7375ZM12.2267 22.0783C12.1629 21.972 12.0885 21.8869 12.0247 21.8231C11.9609 21.7487 11.8971 21.6849 11.8227 21.6211C11.7482 21.5573 11.6632 21.4935 11.5675 21.4404C11.4718 21.3766 11.3655 21.3128 11.2379 21.249L9.26031 20.1858C9.12209 20.1114 9.00514 20.0582 8.90945 20.0157C8.80313 19.9731 8.70744 19.9413 8.62238 19.9094C8.52669 19.8775 8.431 19.8668 8.33532 19.8456C8.23963 19.8349 8.13331 19.8243 8.01635 19.8243L8.00572 19.8137L8.86692 18.187C9.0264 17.8999 9.17525 17.6766 9.33474 17.5065C9.49422 17.3364 9.64307 17.2088 9.80255 17.1344C9.9514 17.0599 10.1109 17.028 10.2597 17.0387C10.4192 17.0493 10.5681 17.1025 10.7275 17.1769C10.9615 17.3045 11.1422 17.4852 11.2698 17.7191C11.3867 17.9424 11.4186 18.2295 11.3761 18.5697L13.0666 18.6122C13.2155 18.6122 13.3324 18.6122 13.4387 18.6122C13.5451 18.6016 13.6407 18.591 13.7152 18.5803C13.8002 18.5591 13.8853 18.5378 13.9597 18.5059C14.0235 18.4634 14.1086 18.4209 14.183 18.3677L14.2149 18.389L13.5876 19.5691L11.0359 19.4947L10.7913 19.9413L11.6844 20.4091C11.812 20.4729 11.9183 20.5367 12.0247 20.5792C12.1204 20.6217 12.216 20.6536 12.3117 20.6855C12.4074 20.7174 12.5031 20.7387 12.5988 20.7493C12.6945 20.7599 12.8008 20.7706 12.9284 20.7812H12.939L12.2479 22.0783H12.2267ZM8.88819 18.4315L8.80313 18.5803C8.77123 18.6548 8.73934 18.7292 8.69681 18.8142L10.685 19.8775L10.887 19.4841C10.9827 19.314 11.0252 19.1545 11.0252 19.0056C11.0252 18.8674 10.9933 18.7292 10.9296 18.6122C10.8658 18.4953 10.7701 18.3783 10.6531 18.2933C10.5468 18.1976 10.4192 18.1125 10.2704 18.0381C10.1428 17.9637 10.0152 17.9105 9.88761 17.8893C9.76002 17.8574 9.64307 17.8467 9.52611 17.8786C9.40916 17.8999 9.29221 17.953 9.18589 18.0381C9.07956 18.1338 8.98388 18.2614 8.88819 18.4315ZM14.2468 18.1976L14.2361 18.187C14.2149 18.0487 14.1936 17.9211 14.1617 17.8148C14.1405 17.6979 14.0979 17.6022 14.0554 17.5065C14.0129 17.4108 13.9597 17.3151 13.8853 17.2194C13.8215 17.1237 13.7258 17.0281 13.6301 16.9111L11.9396 15.1036C11.8546 15.0292 11.7801 14.976 11.7057 14.9229C11.6313 14.8697 11.5569 14.8378 11.4824 14.8059C11.408 14.774 11.3336 14.7528 11.2379 14.7421C11.1528 14.7315 11.0465 14.7209 10.9402 14.7209L10.9296 14.7102L11.9077 13.7959L15.4588 15.295L14.1511 11.7014L15.108 10.8083L15.1186 10.8189C15.108 10.9465 15.1186 11.0528 15.1186 11.1591C15.1292 11.2548 15.1505 11.3399 15.1824 11.4356C15.2143 11.5206 15.2675 11.6057 15.3206 11.6907C15.3844 11.7758 15.4588 11.8715 15.5545 11.9778L17.1706 13.7002C17.2663 13.8065 17.362 13.9022 17.4471 13.9766C17.5215 14.0511 17.6065 14.1148 17.681 14.168C17.766 14.2212 17.8511 14.2743 17.9361 14.3169C18.0212 14.3594 18.1169 14.4019 18.2338 14.4551H18.2445L17.16 15.4651V15.4545C17.1175 15.3375 17.0856 15.2419 17.043 15.1462C17.0111 15.0611 16.958 14.976 16.9154 14.891C16.8623 14.8059 16.7985 14.7209 16.7347 14.6358C16.6603 14.5508 16.5752 14.4551 16.4795 14.3488L14.5445 12.2755L16.0011 16.3582L15.8841 16.4645L11.8333 14.774L13.7471 16.7941C13.8534 16.9111 13.9491 16.9962 14.0448 17.0706C14.1298 17.145 14.2255 17.1982 14.3212 17.2513C14.4275 17.2939 14.5232 17.3257 14.6402 17.3576C14.7571 17.3895 14.8847 17.4108 15.0442 17.4321V17.4427L14.2468 18.1976ZM18.4784 10.0746L18.6697 12.1054L19.9456 11.4887L18.4784 10.0746ZM19.4672 13.9022L18.5315 14.3488L18.5209 14.3381C18.5953 14.1361 18.6272 13.9341 18.6378 13.7215C18.6378 13.5088 18.6378 13.2643 18.6166 12.9878L18.2551 9.09648L18.5847 8.937L21.4447 11.6907C21.6574 11.8927 21.8381 12.0522 21.9976 12.1692C22.1571 12.2861 22.3166 12.3712 22.476 12.435V12.4562L21.0301 13.1473V13.1367C21.0513 12.9878 21.0194 12.8177 20.945 12.6263C20.86 12.435 20.7217 12.2436 20.5197 12.0416L20.0519 11.5844L18.6804 12.2436L18.7123 12.6263C18.7335 12.8284 18.7654 12.9985 18.8186 13.1473C18.8718 13.2855 18.9249 13.4131 18.9993 13.5088C19.0631 13.6151 19.1376 13.6896 19.2226 13.7534C19.297 13.8171 19.3821 13.8597 19.4565 13.8809L19.4672 13.9022ZM25.0278 11.9778L23.5924 12.3074V12.2861C23.6137 12.1692 23.6349 12.0628 23.6456 11.9672C23.6562 11.8821 23.6668 11.7758 23.6668 11.6801C23.6668 11.5844 23.6562 11.4781 23.6349 11.3718C23.6243 11.2654 23.6031 11.1379 23.5712 10.9996L22.8056 7.68241L22.2847 7.83126C22.2102 7.86316 22.1252 7.92695 22.0508 8.0439C21.9657 8.16085 21.8913 8.29907 21.8169 8.45855C21.7318 8.61804 21.668 8.77752 21.5936 8.95826C21.5298 9.12838 21.466 9.28786 21.4128 9.42608H21.349L21.2746 7.90568L25.2085 7.00195L25.8039 8.40539L25.7401 8.43729C25.6338 8.33097 25.5062 8.22465 25.368 8.09706C25.2298 7.95885 25.0915 7.84189 24.9533 7.73557C24.8151 7.62925 24.6875 7.54419 24.5599 7.46977C24.443 7.39534 24.3367 7.37408 24.2516 7.38471L23.7306 7.46977L24.4855 10.787C24.5174 10.9252 24.5493 11.0528 24.5918 11.1591C24.6237 11.2548 24.6556 11.3611 24.6982 11.4462C24.7407 11.5312 24.7832 11.6163 24.8364 11.7014C24.8895 11.7758 24.9533 11.8608 25.0278 11.9565V11.9778ZM29.27 12.031C28.9404 12.0097 28.6214 11.914 28.3343 11.7651C28.0473 11.6163 27.7921 11.4143 27.5795 11.1804C27.3668 10.9358 27.2073 10.6594 27.0904 10.3404C26.9734 10.0321 26.9309 9.70251 26.9628 9.35165C26.9841 9.00079 27.0798 8.68183 27.2392 8.38413C27.4094 8.09706 27.6114 7.84189 27.8559 7.62925C28.1004 7.42724 28.3769 7.26776 28.6958 7.16144C29.0042 7.05511 29.3231 7.01259 29.6527 7.04448C29.993 7.06575 30.3013 7.16144 30.5884 7.31029C30.8861 7.45914 31.1306 7.66115 31.3539 7.90568C31.5665 8.15022 31.726 8.42666 31.843 8.74562C31.9599 9.05395 32.0024 9.38355 31.9705 9.73441C31.9386 10.0853 31.8536 10.4042 31.6835 10.7019C31.524 10.989 31.322 11.2442 31.0774 11.4462C30.8223 11.6482 30.5458 11.8077 30.2375 11.914C29.9185 12.0203 29.5996 12.0628 29.27 12.031ZM29.2806 11.9034C29.5358 11.9246 29.7591 11.8821 29.9611 11.7758C30.1524 11.6695 30.3226 11.5206 30.4501 11.3186C30.5884 11.1166 30.6947 10.872 30.7797 10.5956C30.8542 10.3085 30.9073 10.0002 30.9392 9.65999C30.9605 9.31976 30.9605 9.00079 30.9286 8.70309C30.8861 8.41603 30.8223 8.15022 30.7159 7.93758C30.6096 7.71431 30.4714 7.54419 30.3013 7.40597C30.1205 7.26776 29.9079 7.19333 29.6421 7.17207C29.3869 7.1508 29.1637 7.19333 28.9723 7.29965C28.7703 7.40597 28.6108 7.56546 28.4726 7.76747C28.345 7.96948 28.228 8.21402 28.1536 8.50108C28.0792 8.77752 28.026 9.09648 27.9941 9.42608C27.9729 9.76631 27.9729 10.0853 28.0048 10.3723C28.0473 10.67 28.1111 10.9252 28.2068 11.1485C28.3131 11.3611 28.4513 11.5419 28.632 11.6695C28.8022 11.8077 29.0254 11.8821 29.2806 11.9034ZM32.247 12.4881V12.4669C32.3427 12.3924 32.4171 12.318 32.4809 12.2436C32.5447 12.1692 32.6085 12.0947 32.6616 12.0203C32.7148 11.9353 32.7679 11.8502 32.8211 11.7439C32.8743 11.6482 32.9274 11.5312 32.9806 11.4037L33.8524 9.33039C33.9056 9.19217 33.9481 9.07522 33.9906 8.9689C34.0225 8.86258 34.0438 8.76689 34.0651 8.6712C34.0863 8.57551 34.097 8.47982 34.097 8.38413C34.1076 8.28844 34.097 8.18212 34.097 8.06517V8.0439L35.4579 8.61804V8.62867C35.3622 8.71373 35.2878 8.78815 35.224 8.85194C35.1495 8.92637 35.0964 9.00079 35.0432 9.07522C34.9901 9.16027 34.9369 9.24533 34.8837 9.34102C34.8306 9.43671 34.7774 9.55366 34.7243 9.69188L33.4059 12.8284L34.2352 13.1367C34.3521 13.1792 34.4904 13.1899 34.6498 13.1686C34.7987 13.1367 34.9582 13.0942 35.1283 13.0304C35.2878 12.9666 35.4472 12.8922 35.6067 12.8071C35.7768 12.722 35.9151 12.6263 36.0533 12.5413L36.0958 12.5838L35.2771 13.7534L32.247 12.4881ZM37.7119 15.6246C37.4567 15.412 37.2547 15.1674 37.0952 14.8697C36.9464 14.5827 36.8507 14.2743 36.8082 13.966C36.7763 13.647 36.7975 13.3174 36.8826 12.9985C36.9676 12.6795 37.1165 12.3818 37.3398 12.1054C37.5524 11.8289 37.8182 11.6269 38.1159 11.4674C38.4136 11.3186 38.7219 11.2335 39.0515 11.2016C39.3705 11.1697 39.6895 11.191 40.0084 11.2867C40.3168 11.3718 40.6038 11.5206 40.8696 11.7333C41.1248 11.9459 41.3268 12.1904 41.4863 12.4881C41.6351 12.7752 41.7308 13.0835 41.7734 13.4025C41.8053 13.7321 41.784 14.0511 41.6989 14.37C41.6139 14.6996 41.465 14.9973 41.2418 15.2631C41.0185 15.5396 40.7633 15.7522 40.4656 15.901C40.1679 16.0499 39.8596 16.135 39.53 16.1668C39.211 16.1987 38.8921 16.1668 38.5731 16.0712C38.2648 15.9861 37.9777 15.8373 37.7119 15.6246ZM37.7969 15.5183C37.999 15.6884 38.2116 15.7841 38.4242 15.8054C38.6475 15.8266 38.8708 15.7947 39.0941 15.7097C39.328 15.6246 39.5512 15.4864 39.7745 15.295C39.9978 15.1036 40.2211 14.8804 40.4337 14.6146C40.6464 14.3488 40.8271 14.0829 40.9653 13.8278C41.1035 13.562 41.1886 13.3174 41.2311 13.0729C41.2737 12.8284 41.2524 12.6051 41.1886 12.3924C41.1142 12.1904 40.9866 11.9991 40.7846 11.8396C40.5826 11.6695 40.3699 11.5844 40.1466 11.5525C39.934 11.5312 39.7107 11.5738 39.4768 11.6588C39.2535 11.7545 39.0303 11.8927 38.807 12.0841C38.5731 12.2649 38.3604 12.4988 38.1478 12.7539C37.9352 13.0197 37.7544 13.2855 37.6162 13.5407C37.478 13.8065 37.3929 14.0511 37.3504 14.2956C37.3079 14.5295 37.3185 14.7528 37.3929 14.9654C37.4673 15.1781 37.5949 15.3588 37.7969 15.5183ZM42.9216 21.047C42.8472 21.0151 42.7409 20.9726 42.6133 20.9194C42.4857 20.8662 42.3369 20.7918 42.188 20.6855C42.0392 20.5898 41.8797 20.4622 41.7202 20.3027C41.5607 20.1539 41.4119 19.9519 41.263 19.718C41.061 19.3884 40.9228 19.0482 40.859 18.7186C40.8058 18.3783 40.8058 18.0594 40.8803 17.751C40.9547 17.4427 41.0823 17.1556 41.2737 16.9005C41.465 16.6347 41.7202 16.4114 42.0179 16.22C42.3156 16.0393 42.6346 15.9223 42.9642 15.8585C43.2831 15.8054 43.6127 15.816 43.9211 15.901C44.24 15.9755 44.5483 16.135 44.8354 16.3476C45.1225 16.5709 45.3883 16.8686 45.6116 17.2301C45.8029 17.549 45.9412 17.8361 46.0262 18.1019C46.1113 18.3677 46.1857 18.591 46.2389 18.7824L45.3351 19.4947L45.282 19.4522C45.3989 19.1864 45.484 18.9525 45.5478 18.7398C45.6116 18.5378 45.6541 18.3358 45.6754 18.1657C45.686 17.9849 45.6754 17.8255 45.6435 17.6766C45.6116 17.5278 45.5478 17.3789 45.4627 17.2407C45.3032 16.9962 45.1331 16.8154 44.9205 16.7091C44.7078 16.5921 44.4739 16.539 44.2188 16.539C43.9742 16.539 43.7084 16.5921 43.4213 16.6878C43.1449 16.7835 42.8578 16.9324 42.5601 17.1025C42.2624 17.2939 42.0073 17.4852 41.7946 17.6766C41.582 17.8786 41.4225 18.0913 41.3162 18.3039C41.1992 18.5165 41.1461 18.7398 41.1567 18.9631C41.1567 19.197 41.2311 19.4203 41.38 19.6542C41.465 19.7924 41.5607 19.9094 41.667 20.005C41.7734 20.1007 41.8903 20.1752 42.0179 20.2071C42.1455 20.2496 42.2731 20.2602 42.4219 20.2496C42.5601 20.2283 42.709 20.1752 42.8472 20.0901C42.9535 20.0157 43.0492 19.9519 43.1236 19.8987C43.2087 19.8349 43.2725 19.7711 43.3363 19.7073C43.3894 19.6329 43.4426 19.5585 43.4958 19.4841C43.5383 19.399 43.5915 19.314 43.634 19.2076L43.6446 19.197L44.4101 20.441L44.3995 20.4516C44.2825 20.4622 44.1656 20.4729 44.0805 20.4941C43.9848 20.5154 43.8892 20.5367 43.7935 20.5685C43.6978 20.6004 43.6127 20.6536 43.5064 20.6961C43.4107 20.7493 43.3044 20.8131 43.1768 20.8875L42.9216 21.047ZM42.592 22.0889C42.709 22.0996 42.8153 22.1102 42.911 22.1102C43.0067 22.1208 43.1024 22.1102 43.1981 22.0996C43.2938 22.0889 43.4001 22.0783 43.5064 22.0464C43.6127 22.0252 43.7297 21.9933 43.8785 21.9401L46.0156 21.2596C46.1538 21.2065 46.2814 21.1639 46.3771 21.1214C46.4834 21.0789 46.5685 21.0364 46.6535 20.9832C46.7386 20.9407 46.8236 20.8875 46.898 20.8237C46.9725 20.7706 47.0469 20.6961 47.1426 20.6111H47.1532L47.5998 22.0145H47.5891C47.4722 22.0039 47.3659 21.9933 47.2702 21.9826C47.1745 21.9826 47.0788 21.9826 46.9831 21.9933C46.8874 22.0039 46.7811 22.0252 46.6748 22.0464C46.5684 22.0783 46.4515 22.1102 46.3133 22.1527L44.1656 22.8438C44.0274 22.8864 43.9104 22.9289 43.8041 22.9714C43.7084 23.0139 43.6127 23.0565 43.5277 23.1096C43.4426 23.1628 43.3575 23.2159 43.2831 23.2691C43.2087 23.3329 43.1343 23.3967 43.0386 23.4818L43.028 23.4924L42.5814 22.0889H42.592ZM47.1851 26.3843L47.1532 26.3205C47.5679 26.0122 47.8549 25.7251 48.0144 25.4593C48.1739 25.2042 48.2271 24.9596 48.1952 24.7257C48.1633 24.5237 48.0676 24.3642 47.9187 24.2579C47.7805 24.1516 47.5998 24.109 47.3871 24.1409C47.2489 24.1622 47.132 24.2154 47.0363 24.3004C46.9406 24.3855 46.8555 24.4812 46.7917 24.6088C46.7173 24.7257 46.6641 24.8533 46.6216 25.0021L46.4728 25.47C46.4196 25.6401 46.3558 25.8102 46.292 25.9803C46.2282 26.1504 46.1325 26.3099 46.0368 26.4587C45.9305 26.597 45.8029 26.7246 45.6541 26.8202C45.4946 26.9266 45.3032 26.9904 45.0799 27.0329C44.8248 27.0754 44.6015 27.0648 44.3995 27.001C44.2081 26.9372 44.038 26.8309 43.8998 26.6927C43.7616 26.5438 43.6552 26.3737 43.5702 26.1717C43.4851 25.9697 43.4213 25.757 43.3788 25.5231C43.3469 25.2786 43.3363 25.034 43.3469 24.7895C43.3575 24.545 43.3894 24.3111 43.432 24.0984L44.6653 23.7476L44.6972 23.8113C44.2506 24.1728 43.9317 24.4918 43.7509 24.7895C43.5596 25.0872 43.4958 25.3849 43.5383 25.6826C43.5702 25.8208 43.6127 25.9378 43.6659 26.0335C43.7297 26.1292 43.8041 26.2036 43.8998 26.2674C43.9848 26.3312 44.0805 26.3631 44.1869 26.3843C44.2932 26.4056 44.3995 26.4056 44.5058 26.3843C44.6547 26.3631 44.7823 26.3099 44.8886 26.2355C44.9949 26.161 45.0906 26.0654 45.165 25.9484C45.2394 25.8421 45.3032 25.7145 45.3564 25.5656C45.4095 25.4274 45.4521 25.2786 45.4946 25.1297C45.5478 24.949 45.6116 24.7789 45.6754 24.5981C45.7391 24.428 45.8242 24.2685 45.9199 24.1197C46.0156 23.9815 46.1325 23.8539 46.2708 23.7476C46.4196 23.6519 46.5897 23.5774 46.813 23.5455C47.0469 23.503 47.2489 23.5243 47.4297 23.5881C47.6104 23.6519 47.7593 23.7476 47.8868 23.8858C48.0144 24.0134 48.1207 24.1835 48.1952 24.3642C48.2696 24.5556 48.3334 24.7576 48.3653 24.9702C48.3972 25.151 48.4078 25.3424 48.4078 25.5231C48.3972 25.7039 48.3865 25.874 48.3546 26.0335L47.1851 26.3843ZM43.5489 30.3714L43.6659 28.9041H43.6765C43.7828 28.9679 43.8785 29.0105 43.9636 29.053C44.0486 29.0955 44.1443 29.1274 44.24 29.1593C44.3357 29.1912 44.4314 29.2125 44.5377 29.2231C44.644 29.2444 44.7716 29.255 44.9205 29.2656L48.3121 29.5314L48.3228 28.9892C48.3228 28.9148 48.2802 28.8084 48.1845 28.7021C48.0995 28.5852 47.9932 28.4682 47.8656 28.3513C47.738 28.2343 47.5998 28.1174 47.4509 28.0004C47.3021 27.8835 47.1745 27.7771 47.0575 27.6814L47.0894 27.6176L48.5567 28.0004L48.2483 32.03L46.7279 32.1788L46.7173 32.115C46.8449 32.03 46.9937 31.9449 47.1532 31.8599C47.3233 31.7642 47.4722 31.6685 47.621 31.5728C47.7593 31.4665 47.8868 31.3708 47.9932 31.2751C48.0888 31.1794 48.1526 31.0837 48.1633 31.0093L48.2377 30.4777L44.846 30.2119C44.6972 30.2013 44.5696 30.2013 44.4633 30.2013C44.357 30.2013 44.2506 30.2013 44.155 30.2119C44.0593 30.2332 43.9636 30.2438 43.8679 30.2757C43.7828 30.2969 43.6765 30.3288 43.5596 30.382L43.5489 30.3714Z"
                                            fill="black" />
                                        <path fill-rule="evenodd" clip-rule="evenodd"
                                            d="M33.8205 28.7978C34.0544 29.4782 34.182 30.2118 34.182 30.9667C34.182 31.1049 34.182 31.2432 34.1713 31.3814V31.392C33.9587 34.89 31.0561 37.6543 27.505 37.6543C23.9539 37.6543 21.0407 34.89 20.828 31.392V31.3814C20.8174 31.2432 20.8174 31.1049 20.8174 30.9667C20.8174 30.2118 20.945 29.4782 21.1789 28.7978C22.1783 25.4061 25.134 22.0676 27.505 18.7185C29.8653 22.0676 32.8211 25.4061 33.8205 28.7978Z"
                                            fill="black" />
                                        <path fill-rule="evenodd" clip-rule="evenodd"
                                            d="M22.2637 30.3926L24.0711 28.7765L26.8249 31.8279C26.8249 31.8279 30.6737 27.2986 36.4682 25.5125C36.4682 25.5125 30.057 30.6478 27.1119 34.9113C27.1119 34.9113 24.2838 32.0831 22.2637 30.3926Z"
                                            fill="white" />
                                        <path
                                            d="M12.6631 37.261L10.6643 37.6863L11.4192 38.8877L12.6631 37.261ZM8.9844 38.675L8.4209 37.8032L8.43153 37.7926C8.64417 37.8351 8.84618 37.8564 9.05883 37.8351C9.27147 37.8138 9.51601 37.7819 9.78181 37.7288L13.6094 36.9207L13.8008 37.2397L11.3979 40.3868C11.2171 40.6207 11.0789 40.8227 10.9832 40.9928C10.8876 41.163 10.8238 41.3331 10.7706 41.5032H10.76L9.9094 40.1529L9.92003 40.1423C10.0689 40.1423 10.2284 40.0998 10.4091 39.9934C10.6005 39.8977 10.7706 39.7383 10.9407 39.515L11.3447 38.994L10.5261 37.7075L10.1646 37.7819C9.96256 37.8245 9.79244 37.8776 9.65423 37.9521C9.51601 38.0159 9.39905 38.0903 9.30337 38.1647C9.21831 38.2498 9.14388 38.3242 9.09072 38.4199C9.03756 38.5049 9.00567 38.59 8.99503 38.675H8.9844ZM12.0571 42.8428C12.1634 42.8003 12.2591 42.7472 12.3442 42.7046C12.4292 42.6515 12.5143 42.5983 12.5887 42.5451C12.6631 42.4813 12.7482 42.4176 12.8226 42.3325C12.897 42.2581 12.9927 42.1624 13.0778 42.0561L14.5556 40.3549C14.6513 40.2486 14.7257 40.1423 14.8002 40.0572C14.864 39.9615 14.9171 39.8765 14.9597 39.7914C15.0128 39.717 15.0447 39.6213 15.0872 39.5363C15.1191 39.4512 15.151 39.3449 15.1829 39.2279L15.1936 39.2173L16.4907 40.3443C16.7671 40.5782 16.9691 40.8015 17.1073 41.0141C17.2562 41.2268 17.3306 41.4288 17.3625 41.6095C17.3944 41.8009 17.3838 41.971 17.3306 42.1305C17.2668 42.29 17.1818 42.4388 17.0648 42.577C16.9266 42.7365 16.7671 42.8641 16.5757 42.9492C16.395 43.0342 16.2036 43.0767 15.991 43.0661C15.7783 43.0661 15.5444 43.013 15.3105 42.896C15.066 42.7897 14.8214 42.6302 14.5556 42.3963L14.2579 42.1411L13.8008 42.6727C13.7051 42.779 13.6306 42.8747 13.5562 42.9704C13.4924 43.0555 13.4393 43.1405 13.3861 43.2256C13.3436 43.3107 13.301 43.4063 13.2691 43.4914C13.2373 43.5871 13.2054 43.6934 13.1628 43.8104V43.821L12.0465 42.8535L12.0571 42.8428ZM16.2674 40.3124C16.2355 40.2911 16.193 40.2592 16.1611 40.2273C16.1186 40.1954 16.0654 40.1635 16.0122 40.121L14.343 42.0454L14.5769 42.2474C14.7364 42.3857 14.8959 42.4707 15.0553 42.5026C15.2255 42.5345 15.3849 42.5345 15.5338 42.492C15.6826 42.4495 15.8315 42.3857 15.9697 42.29C16.0973 42.1943 16.2249 42.0773 16.3312 41.9497C16.6076 41.6414 16.7246 41.3437 16.6927 41.0673C16.6608 40.7908 16.5226 40.5357 16.2674 40.3124ZM16.3737 46.2664C16.4694 46.192 16.5545 46.1282 16.6183 46.0644C16.6927 46.0006 16.7565 45.9262 16.8203 45.8517C16.8841 45.7773 16.9479 45.6923 17.001 45.5966C17.0648 45.5009 17.118 45.3946 17.1924 45.267L18.2344 43.2788C18.2981 43.1405 18.3619 43.0236 18.4045 42.9279C18.447 42.8216 18.4789 42.7259 18.5108 42.6408C18.5321 42.5451 18.5533 42.4495 18.5639 42.3538C18.5746 42.2581 18.5852 42.1518 18.5852 42.0348L18.5958 42.0242L20.1162 42.8216C20.4458 42.9917 20.6904 43.1618 20.8818 43.3319C21.0625 43.5127 21.1901 43.6828 21.2645 43.8529C21.3283 44.0336 21.3602 44.2038 21.3389 44.3739C21.3177 44.544 21.2645 44.7035 21.1901 44.8629C21.0838 45.0543 20.9562 45.2138 20.7967 45.3308C20.6372 45.4583 20.4565 45.5434 20.2545 45.5859C20.0418 45.6285 19.8079 45.6285 19.5527 45.5753C19.2869 45.5328 19.0105 45.4264 18.7022 45.267L18.3513 45.0862L18.0323 45.6922C17.9685 45.8305 17.9048 45.9368 17.8622 46.0431C17.8197 46.1388 17.7772 46.2451 17.7559 46.3302C17.724 46.4259 17.7027 46.5216 17.6921 46.6172C17.6815 46.7236 17.6815 46.8299 17.6708 46.9468L17.6602 46.9575L16.3631 46.277L16.3737 46.2664ZM19.893 42.8428C19.8504 42.8322 19.8185 42.8109 19.7654 42.7897C19.7228 42.7684 19.6697 42.7365 19.5953 42.7046L18.4151 44.9693L18.6915 45.1075C18.8723 45.2032 19.053 45.2563 19.2125 45.2457C19.3826 45.2457 19.5315 45.2032 19.6697 45.1287C19.8185 45.0543 19.9355 44.9586 20.0524 44.831C20.1588 44.7141 20.2545 44.5759 20.3289 44.427C20.5203 44.0549 20.5734 43.7359 20.4777 43.4808C20.3927 43.215 20.1907 43.0023 19.893 42.8428ZM21.3815 48.5629C21.4559 48.4672 21.5197 48.3822 21.5622 48.2971C21.6154 48.2121 21.6579 48.127 21.6898 48.0313C21.7323 47.9463 21.7642 47.8506 21.7961 47.7443C21.8174 47.6379 21.8493 47.5103 21.8705 47.3721L22.2746 45.1606C22.3065 45.0118 22.3277 44.8842 22.3384 44.7779C22.349 44.6609 22.349 44.5652 22.349 44.4696C22.349 44.3739 22.3384 44.2782 22.3171 44.1825C22.3065 44.0868 22.2852 43.9805 22.2533 43.8635V43.8529L24.0608 44.1825C24.3797 44.2463 24.6455 44.3207 24.8582 44.4164C25.0708 44.5121 25.2303 44.6184 25.3472 44.746C25.4642 44.8736 25.5386 45.0118 25.5812 45.1606C25.613 45.3095 25.6237 45.469 25.5918 45.6497C25.5386 45.9049 25.4217 46.1282 25.2409 46.3195C25.0602 46.5109 24.805 46.6279 24.4648 46.681L24.9432 48.3078C24.9858 48.446 25.0176 48.5629 25.0495 48.6586C25.0921 48.7649 25.124 48.85 25.1665 48.9244C25.209 48.9988 25.2622 49.0626 25.3153 49.1158C25.3685 49.1796 25.4323 49.2434 25.5174 49.2965L25.5067 49.3391L24.1777 49.0945L23.476 46.6385L22.9869 46.5535L22.8062 47.5316C22.7743 47.6805 22.7636 47.7974 22.753 47.9144C22.7317 48.0207 22.7317 48.127 22.7317 48.2227C22.7317 48.329 22.7424 48.4247 22.7636 48.5098C22.7743 48.6055 22.8062 48.7118 22.8381 48.8287L22.8274 48.85L21.3815 48.5842V48.5629ZM23.8375 44.2782L23.6674 44.2463C23.5929 44.2357 23.5079 44.2144 23.4122 44.2038L23.0082 46.4152L23.4441 46.5003C23.6355 46.5322 23.8056 46.5322 23.9332 46.4897C24.0714 46.4471 24.1883 46.3727 24.284 46.277C24.3797 46.1707 24.4541 46.0537 24.5179 45.9155C24.5711 45.7773 24.6136 45.6285 24.6349 45.469C24.6668 45.3308 24.6774 45.1925 24.6668 45.065C24.6562 44.9267 24.6243 44.8098 24.5605 44.7141C24.5073 44.6078 24.4116 44.5121 24.2947 44.4377C24.1883 44.3632 24.0289 44.3101 23.8375 44.2782ZM29.5044 49.3391C29.1748 49.3816 28.8558 49.3603 28.5369 49.2646C28.2179 49.169 27.9309 49.0307 27.6757 48.8394C27.4205 48.648 27.2079 48.4034 27.0378 48.1164C26.857 47.8293 26.7507 47.521 26.7082 47.1701C26.6656 46.8193 26.6975 46.4897 26.7932 46.1707C26.8995 45.8517 27.0484 45.5647 27.2504 45.3095C27.4418 45.0543 27.6863 44.8417 27.9734 44.6822C28.2604 44.5121 28.5688 44.4164 28.8984 44.3739C29.228 44.3313 29.5469 44.3526 29.8659 44.4483C30.1742 44.544 30.4613 44.6822 30.7271 44.8842C30.9823 45.0756 31.1949 45.3201 31.3757 45.6072C31.5458 45.8943 31.6521 46.2026 31.6946 46.5535C31.7372 46.9043 31.7159 47.2339 31.6096 47.5529C31.5139 47.8718 31.365 48.1589 31.163 48.4141C30.9504 48.6586 30.7165 48.8713 30.4294 49.0307C30.1423 49.2009 29.834 49.2965 29.5044 49.3391ZM29.4938 49.2115C29.7489 49.1796 29.9616 49.0945 30.1317 48.9563C30.3018 48.8075 30.4294 48.6267 30.5251 48.4034C30.6208 48.1802 30.6739 47.925 30.6952 47.6273C30.7165 47.3402 30.7058 47.0213 30.6633 46.681C30.6208 46.3408 30.557 46.0325 30.4719 45.756C30.3762 45.469 30.2593 45.2351 30.1104 45.0437C29.9616 44.8417 29.7915 44.7035 29.5895 44.5971C29.3981 44.5015 29.1642 44.4696 28.909 44.5015C28.6538 44.5333 28.4412 44.6184 28.2711 44.7673C28.101 44.9055 27.9734 45.0862 27.8777 45.3201C27.782 45.5434 27.7288 45.7986 27.7076 46.0963C27.6863 46.394 27.6969 46.7023 27.7395 47.0425C27.782 47.3828 27.8458 47.6911 27.9415 47.9675C28.0372 48.244 28.1541 48.4885 28.2923 48.6799C28.4412 48.8713 28.6113 49.0201 28.8027 49.1158C29.0047 49.2115 29.228 49.2434 29.4938 49.2115ZM35.3414 47.8825L32.5771 45.0437C32.4814 44.9267 32.3857 44.831 32.3007 44.7566C32.2156 44.6716 32.1305 44.5971 32.0455 44.5333C31.9711 44.4696 31.886 44.4164 31.8116 44.3739C31.7372 44.3313 31.6521 44.2888 31.567 44.2569L31.5564 44.2463L33.0981 43.5658L33.1087 43.5871C33.0662 43.7359 33.0768 43.9061 33.1406 44.0974C33.2044 44.2994 33.3426 44.4908 33.534 44.7035L35.4797 46.7023L35.3414 44.1931C35.3308 44.0017 35.3095 43.8316 35.267 43.6828C35.2245 43.5339 35.1713 43.4063 35.1075 43.3C35.0437 43.1937 34.98 43.1086 34.9055 43.0449C34.8205 42.9811 34.746 42.9385 34.6716 42.9066L34.661 42.8854L35.6072 42.4813V42.492C35.5328 42.694 35.4903 42.896 35.4797 43.1086C35.4584 43.3107 35.4584 43.5552 35.4797 43.8104L35.6923 47.7336L35.3414 47.8825ZM41.8589 43.7678L39.1371 45.9581L39.1265 45.9474C39.0946 45.8411 39.0521 45.7348 39.0202 45.6497C38.9883 45.554 38.9564 45.469 38.9138 45.3839C38.8713 45.2989 38.8288 45.2138 38.765 45.1287C38.7118 45.0437 38.648 44.948 38.563 44.8523L37.0851 43.0023C37.0001 42.9066 36.9256 42.8109 36.8512 42.7472C36.7768 42.6727 36.7024 42.6089 36.6279 42.5451C36.5535 42.492 36.4791 42.4388 36.394 42.3857C36.3196 42.3325 36.2239 42.2793 36.1282 42.2262L36.1176 42.2155L38.6161 40.2061L39.573 40.9928L39.5411 41.046C39.4136 41.0247 39.2647 41.0035 39.1159 40.9822C38.9564 40.9503 38.7969 40.9291 38.648 40.9078C38.4992 40.8972 38.3503 40.8865 38.2228 40.8865C38.0952 40.8865 37.9995 40.9184 37.9357 40.961L37.1276 41.5457L38.4992 43.2469L38.8713 42.9385C38.9351 42.8854 38.9883 42.8109 39.0202 42.7259C39.0521 42.6408 39.0733 42.5558 39.0946 42.4601C39.1052 42.3538 39.1159 42.2581 39.1159 42.1518C39.1159 42.0454 39.1265 41.9497 39.1371 41.8647L39.1796 41.8328L40.1046 42.9811L40.0621 43.0236C39.9771 43.013 39.892 43.0023 39.7857 42.9811C39.69 42.9598 39.5837 42.9492 39.488 42.9385C39.3817 42.9279 39.286 42.9279 39.1903 42.9492C39.1052 42.9598 39.0202 42.9917 38.9564 43.0342L38.5842 43.3426L40.0089 45.1181L40.8064 44.4058C40.9021 44.3207 40.9765 44.2038 41.0296 44.0549C41.0828 43.9061 41.1147 43.7466 41.136 43.5658C41.1572 43.3851 41.1679 43.2043 41.1679 43.0236C41.1679 42.8322 41.1679 42.6621 41.1572 42.5026L41.221 42.4813L41.8589 43.7678ZM43.4112 42.1943C43.3581 42.088 43.3155 42.0029 43.273 41.9285C43.2199 41.8434 43.1773 41.7796 43.1135 41.7052C43.0604 41.6414 42.9966 41.5776 42.9222 41.5032C42.8477 41.4394 42.7627 41.365 42.6563 41.2906L40.6788 39.7702C40.5725 39.6957 40.4768 39.6319 40.3917 39.5788C40.3067 39.5256 40.2322 39.4725 40.1472 39.4406C40.0727 39.4087 39.9877 39.3768 39.9026 39.3555C39.8176 39.3236 39.7219 39.3023 39.6049 39.2917L39.5943 39.2811C39.7113 39.1322 39.8069 39.0046 39.892 38.8877C39.9664 38.7814 40.0515 38.675 40.1259 38.5687C40.2003 38.4624 40.2854 38.3455 40.3704 38.2285C40.4555 38.1115 40.5725 37.9627 40.7 37.7819C40.9658 37.4524 41.2316 37.1759 41.5293 36.9739C41.8164 36.7613 42.1141 36.6337 42.4118 36.5699C42.7201 36.5061 43.0285 36.5061 43.3474 36.5912C43.6558 36.6762 43.9747 36.8357 44.2831 37.0696C44.5914 37.3035 44.8253 37.5693 44.9954 37.8457C45.1549 38.1222 45.2506 38.4199 45.2719 38.7282C45.2931 39.0365 45.2506 39.3661 45.123 39.6957C45.0061 40.0253 44.8147 40.3762 44.5489 40.7164L43.4219 42.1943H43.4112ZM40.7851 37.8989L40.7426 37.9521C40.7213 37.984 40.6894 38.0265 40.6575 38.0796C40.615 38.1222 40.5831 38.1753 40.5406 38.2285C40.498 38.2923 40.4661 38.3455 40.4236 38.388L44.0492 41.1523L44.4319 40.6526C44.6233 40.3975 44.7509 40.1423 44.804 39.9084C44.8678 39.6745 44.8572 39.4512 44.7934 39.2279C44.7296 39.0153 44.602 38.792 44.4213 38.59C44.2405 38.3773 44.0066 38.1647 43.7302 37.9521C43.0816 37.4524 42.5288 37.1972 42.0503 37.1866C41.5719 37.1653 41.1572 37.4098 40.7851 37.8989Z"
                                            fill="black" />
                                    </g>
                                    <defs>
                                        <clipPath id="clip0_11417_2620">
                                            <rect width="55" height="55" fill="white"
                                                transform="translate(0 0.686523)" />
                                        </clipPath>
                                    </defs>
                                </svg>