<svg xmlns="http://www.w3.org/2000/svg" width="74" height="61" viewBox="0 0 73 61" fill="none">
                                    <path d="M1.28997 45.7257C0.853778 31.4116 1.82004 28.7161 4.79745 26.483C7.57146 24.4025 8.95856 23.709 15.8937 23.0154C22.8288 22.3219 28.7253 24.2545 29.0704 9.83869M46.2203 8.74756C46.4515 12.2151 45.4251 19.8808 56.1175 22.3219C66.6136 24.7183 69.2941 25.7895 71.3748 29.9506C72.1631 31.5271 72.62 43.4325 72.0652 47.3161" stroke="black" stroke-linecap="round"></path>
                                    <path d="M35.0482 16.6997C35.1807 18.4227 35.8924 23.4102 34.253 25.0496C32.2649 27.0377 23.5174 26.6401 21.5293 26.2425M42.6029 26.6401C42.6029 26.2425 43.1595 25.3677 45.3862 25.0496C47.6128 24.7315 51.0853 24.9171 52.5432 25.0496" stroke="black" stroke-linecap="round"></path>
                                    <path d="M13.2478 54.4733V45.3281C13.1153 46.6535 13.2477 51.2923 15.9634 53.678" stroke="black" stroke-linecap="round"></path>
                                    <path d="M61.0467 45.3281C61.893 48.6473 62.5701 56.1571 58.5078 59.6422" stroke="black" stroke-linecap="round"></path>
                                    <path d="M31.5039 35.7852C31.5039 35.7852 36.1302 40.5413 34.5615 47.0371" stroke="#333333" stroke-width="2" stroke-miterlimit="2.61313" stroke-linecap="round" stroke-linejoin="round" stroke-dasharray="0.01 4"></path>
                                    <path d="M43.2305 35.7852C43.2305 35.7852 38.6042 40.5413 40.1729 47.0371" stroke="#333333" stroke-width="2" stroke-miterlimit="2.61313" stroke-linecap="round" stroke-linejoin="round" stroke-dasharray="0.01 4"></path>
                                    <path d="M32.2041 9.57471C32.2041 9.57471 37.8799 13.0112 43.8556 10.02" stroke="#333333" stroke-width="2" stroke-miterlimit="2.61313" stroke-linecap="round" stroke-linejoin="round" stroke-dasharray="0.01 4"></path>
                                    <path d="M32.2041 5.59863C32.2041 5.59863 37.8799 9.03515 43.8556 6.04396" stroke="#333333" stroke-width="2" stroke-miterlimit="2.61313" stroke-linecap="round" stroke-linejoin="round" stroke-dasharray="0.01 4"></path>
                                </svg>