<svg xmlns="http://www.w3.org/2000/svg" width="74" height="61" viewBox="0 0 74 60" fill="none">
                                    <path d="M1.53997 45.1349C1.10378 30.8208 2.07004 28.1253 5.04745 25.8922C7.82146 23.8116 9.20856 23.1181 16.1437 22.4246C23.0788 21.7311 28.9753 23.6637 29.3204 9.24787M46.4703 8.15674C46.7015 11.6243 45.6751 19.2899 56.3675 21.7311C66.8636 24.1275 69.5441 25.1987 71.6248 29.3598C72.4131 30.9363 72.87 42.8417 72.3152 46.7253" stroke="black" stroke-linecap="round"></path>
                                    <path d="M35.2982 16.1089C35.4307 17.8319 36.1424 22.8194 34.503 24.4588C32.5149 26.4469 23.7674 26.0492 21.7793 25.6516M42.8529 26.0492C42.8529 25.6516 43.4095 24.7769 45.6362 24.4588C47.8628 24.1407 51.3353 24.3262 52.7932 24.4588" stroke="black" stroke-linecap="round"></path>
                                    <path d="M13.4978 53.8824V44.7373C13.3653 46.0627 13.4977 50.7015 16.2134 53.0872" stroke="black" stroke-linecap="round"></path>
                                    <path d="M61.2967 44.7373C62.143 48.0565 62.8201 55.5662 58.7578 59.0514" stroke="black" stroke-linecap="round"></path>
                                    <path fill-rule="evenodd" clip-rule="evenodd" d="M54.9395 9.96706C50.8251 9.96706 47.4904 13.9819 47.4904 18.9341C47.4904 13.9819 44.1558 9.96706 40.0414 9.96706C44.1558 9.96706 47.4904 5.95223 47.4904 1.00004C47.4904 5.95223 50.8251 9.96706 54.9395 9.96706Z" fill="white" stroke="#333333" stroke-miterlimit="2.61313" stroke-linecap="round" stroke-linejoin="round"></path>
                                    <path fill-rule="evenodd" clip-rule="evenodd" d="M61.8428 16.3047C59.6943 16.3047 57.9524 18.5361 57.9524 21.2817C57.9524 18.5361 56.2104 16.3047 54.062 16.3047C56.2104 16.3047 57.9524 14.0733 57.9524 11.3276C57.9524 14.0733 59.6943 16.3047 61.8428 16.3047Z" fill="white" stroke="#333333" stroke-miterlimit="2.61313" stroke-linecap="round" stroke-linejoin="round"></path>
                                    <path fill-rule="evenodd" clip-rule="evenodd" d="M18.0361 26.9119C16.0886 26.9119 14.5095 28.8579 14.5095 31.2524C14.5095 28.8579 12.9304 26.9119 10.9828 26.9119C12.9304 26.9119 14.5095 24.9659 14.5095 22.5714C14.5095 24.9659 16.0886 26.9119 18.0361 26.9119Z" fill="white" stroke="#333333" stroke-miterlimit="2.61313" stroke-linecap="round" stroke-linejoin="round"></path>
                                </svg>