 <svg xmlns="http://www.w3.org/2000/svg" width="55" height="55" viewBox="0 0 48 49"
                                    fill="none">
                                    <mask id="mask0_11417_2672" style="mask-type:alpha" maskUnits="userSpaceOnUse" x="9"
                                        y="8" width="38" height="31">
                                        <path
                                            d="M17.7624 13.4376C18.0172 12.7967 18.7432 12.4836 19.3841 12.7383L21.3182 13.5069C21.9591 13.7617 22.2722 14.4877 22.0175 15.1286L13.716 36.0169C13.4613 36.6578 12.7353 36.9709 12.0944 36.7162L10.1603 35.9475C9.51935 35.6928 9.20628 34.9668 9.46099 34.3259L17.7624 13.4376Z"
                                            fill="#C7E7DC" />
                                        <path fill-rule="evenodd" clip-rule="evenodd"
                                            d="M21.3653 17.3329L24.5136 18.5841L15.8357 34.1717L16.379 34.3877L15.5335 36.5152L13.9325 35.8789L23.325 19.0075L21.8314 18.414L20.4479 21.8954L19.6742 21.5879L21.3653 17.3329Z"
                                            fill="#C7E7DC" stroke="black" />
                                        <path
                                            d="M20.1837 13.2645V13.2645C21.6275 9.63157 25.743 7.85691 29.376 9.30073L30.2415 9.64471C34.3525 11.2785 36.3607 15.9356 34.7269 20.0466L30.4526 30.8017C29.4316 33.3706 30.6865 36.2807 33.2554 37.3017V37.3017C34.489 37.7919 35.8669 37.7721 37.0859 37.2464L45.8259 33.4777"
                                            stroke="black" />
                                    </mask>
                                    <g mask="url(#mask0_11417_2672)">
                                        <circle cx="23" cy="23.6865" r="20" fill="black" />
                                    </g>
                                    <circle cx="24" cy="24.6865" r="19.5" stroke="black" />
                                </svg>