 <svg xmlns="http://www.w3.org/2000/svg" width="55" height="55" viewBox="0 0 51 49"
                                    fill="none">
                                    <path
                                        d="M40.9195 22.4902H35.5103L43.3297 11.9231L50.2364 22.4902L45.552 22.4116C45.552 34.7139 35.5794 44.6866 23.277 44.6866C10.9746 44.6866 1 34.7139 1 22.4116"
                                        stroke="black" stroke-miterlimit="2.61313" stroke-linecap="round"
                                        stroke-linejoin="round" />
                                    <path
                                        d="M40.9958 22.5975C40.9958 32.3861 33.0614 40.1364 23.2728 40.1364C13.4842 40.1364 5.54785 32.2001 5.54785 22.4115C5.54785 12.6229 13.4842 4.68652 23.2728 4.68652C30.9829 4.68652 37.5425 9.60863 39.9815 16.4827"
                                        stroke="black" stroke-miterlimit="2.61313" stroke-linecap="round"
                                        stroke-linejoin="round" />
                                    <path
                                        d="M19.0603 18.5976C17.3173 17.6926 16.4448 16.289 16.4448 14.3888C16.4448 13.4473 16.6845 12.5902 17.1639 11.8137C17.6433 11.039 18.3661 10.4197 19.3345 9.95758C20.3008 9.49547 21.482 9.26538 22.876 9.26538C24.27 9.26538 25.4511 9.49547 26.4175 9.95758C27.3858 10.4197 28.1087 11.039 28.5881 11.8137C29.0674 12.5902 29.3071 13.4473 29.3071 14.3888C29.3071 15.3475 29.0713 16.1893 28.6015 16.9122C28.1298 17.6351 27.5028 18.1969 26.7186 18.5976C27.6773 19.0156 28.427 19.6273 28.9677 20.4288C29.5085 21.2303 29.7769 22.1794 29.7769 23.2781C29.7769 24.4631 29.4778 25.4947 28.8757 26.3748C28.2736 27.2549 27.451 27.9318 26.406 28.4016C25.3591 28.8713 24.1837 29.1072 22.876 29.1072C21.5683 29.1072 20.3967 28.8713 19.3594 28.4016C18.322 27.9318 17.5033 27.2549 16.9031 26.3748C16.301 25.4947 16 24.4631 16 23.2781C16 22.1794 16.2704 21.2265 16.8111 20.4154C17.3518 19.6043 18.1015 18.9984 19.0603 18.5976ZM25.7522 14.9123C25.7522 14.059 25.4952 13.3956 24.9814 12.9258C24.4656 12.4541 23.7657 12.2202 22.876 12.2202C22.0055 12.2202 21.3113 12.4541 20.7975 12.9258C20.2836 13.3956 20.0267 14.0667 20.0267 14.9391C20.0267 15.7234 20.2932 16.3504 20.8243 16.8201C21.3554 17.2918 22.04 17.5258 22.876 17.5258C23.712 17.5258 24.4004 17.2861 24.9411 16.8067C25.4818 16.3274 25.7522 15.6965 25.7522 14.9123ZM22.876 20.193C21.8827 20.193 21.0774 20.4461 20.4581 20.9503C19.8387 21.4566 19.53 22.1794 19.53 23.1209C19.53 23.9914 19.8311 24.7028 20.4312 25.2512C21.0333 25.7996 21.8482 26.0757 22.876 26.0757C23.9037 26.0757 24.7148 25.7957 25.3073 25.2378C25.8998 24.6798 26.197 23.9742 26.197 23.1209C26.197 22.1967 25.8921 21.4776 25.2805 20.9638C24.6707 20.4499 23.8692 20.193 22.876 20.193Z"
                                        fill="black" />
                                    <path
                                        d="M22.5625 31.2127L21.4772 34.9248H20.4648L19.7879 32.3324L19.1111 34.9248H18.0929L17 31.2127H17.951L18.6087 34.0409L19.3182 31.2127H20.3114L21.0074 34.0332L21.6632 31.2127H22.5625ZM25.4101 34.9248L24.1503 33.3449V34.9248H23.2127V29.9663H24.1503V32.7888L25.3967 31.2127H26.6162L24.9825 33.0764L26.6296 34.9248H25.4101ZM28.547 34.9862C28.2422 34.9862 27.9699 34.9306 27.7283 34.8213C27.4886 34.712 27.2968 34.5644 27.1569 34.3765C27.015 34.1885 26.9383 33.9815 26.9249 33.7533H27.8702C27.8874 33.8952 27.9584 34.0141 28.0811 34.108C28.2038 34.202 28.3572 34.248 28.5394 34.248C28.7177 34.248 28.8577 34.2135 28.9593 34.1406C29.059 34.0697 29.1088 33.9776 29.1088 33.8664C29.1088 33.7456 29.0475 33.6555 28.9248 33.596C28.8021 33.5347 28.6065 33.4695 28.338 33.3986C28.0619 33.3314 27.8357 33.2605 27.6592 33.1895C27.4828 33.1186 27.3294 33.0093 27.2029 32.8617C27.0763 32.714 27.0111 32.5146 27.0111 32.2653C27.0111 32.0602 27.0706 31.8723 27.1895 31.7016C27.3084 31.5329 27.4771 31.3986 27.6995 31.3009C27.92 31.2031 28.1808 31.1532 28.4799 31.1532C28.9209 31.1532 29.2737 31.2644 29.5384 31.4849C29.801 31.7054 29.9468 32.0046 29.9736 32.3785H29.0762C29.0628 32.2308 29.0015 32.1139 28.8922 32.0276C28.7829 31.9394 28.6352 31.8972 28.4531 31.8972C28.2824 31.8972 28.152 31.9279 28.06 31.9911C27.9699 32.0525 27.9239 32.1407 27.9239 32.2519C27.9239 32.3765 27.9852 32.4724 28.1118 32.5357C28.2364 32.6009 28.4301 32.668 28.6947 32.7351C28.9612 32.8022 29.1836 32.8713 29.3581 32.9422C29.5307 33.0131 29.6822 33.1244 29.8087 33.2739C29.9372 33.4235 30.0024 33.621 30.0062 33.8664C30.0062 34.0812 29.9487 34.2729 29.8298 34.4436C29.7109 34.6123 29.5422 34.7446 29.3198 34.8424C29.0993 34.9383 28.8404 34.9862 28.547 34.9862Z"
                                        fill="black" />
                                </svg>