<svg xmlns="http://www.w3.org/2000/svg" width="74" height="61" viewBox="0 0 75 65" fill="none">
                                    <g clip-path="url(#clip0_11417_2050)">
                                        <path d="M0.598474 42.7567C0.166951 28.5958 1.12287 25.9291 4.06841 23.72C6.81274 21.6617 8.18499 20.9756 15.0459 20.2895C21.9068 19.6034 27.7402 21.5153 28.0816 7.25377M45.048 6.17432C45.2767 9.60477 44.2612 17.1884 54.8392 19.6034C65.223 21.9741 67.8749 23.0339 69.9332 27.1504C70.7131 28.7101 71.1652 40.488 70.6163 44.3301" stroke="black" stroke-width="0.989298" stroke-linecap="round"></path>
                                        <path d="M33.9953 14.0415C34.1264 15.7461 34.8304 20.6802 33.2086 22.302C31.2418 24.2688 22.5879 23.8755 20.6211 23.4821M41.4691 23.8755C41.4691 23.4821 42.0198 22.6167 44.2226 22.302C46.4254 21.9874 49.8608 22.1709 51.3031 22.302" stroke="black" stroke-width="0.989298" stroke-linecap="round"></path>
                                        <path d="M12.4281 51.41V42.3628C12.297 43.674 12.428 48.2632 15.1146 50.6233" stroke="black" stroke-width="0.989298" stroke-linecap="round"></path>
                                        <path d="M59.7158 42.3628C60.5531 45.6465 61.2229 53.0758 57.2041 56.5237" stroke="black" stroke-width="0.989298" stroke-linecap="round"></path>
                                        <path fill-rule="evenodd" clip-rule="evenodd" d="M53.4258 7.9644C49.3554 7.9644 46.0565 11.9363 46.0565 16.8354C46.0565 11.9363 42.7575 7.9644 38.6872 7.9644C42.7575 7.9644 46.0565 3.99253 46.0565 -0.906654C46.0565 3.99253 49.3554 7.9644 53.4258 7.9644Z" fill="white" stroke="black" stroke-width="0.989298" stroke-miterlimit="2.61313" stroke-linecap="round" stroke-linejoin="round"></path>
                                        <path fill-rule="evenodd" clip-rule="evenodd" d="M60.9072 18.9639C58.7818 18.9639 57.0585 21.1714 57.0585 23.8877C57.0585 21.1714 55.3351 18.9639 53.2097 18.9639C55.3351 18.9639 57.0585 16.7564 57.0585 14.0401C57.0585 16.7564 58.7818 18.9639 60.9072 18.9639Z" fill="white" stroke="black" stroke-width="0.989298" stroke-miterlimit="2.61313" stroke-linecap="round" stroke-linejoin="round"></path>
                                        <path fill-rule="evenodd" clip-rule="evenodd" d="M53.8936 34.0687C51.9668 34.0687 50.4046 35.9939 50.4046 38.3628C50.4046 35.9939 48.8424 34.0687 46.9157 34.0687C48.8424 34.0687 50.4046 32.1436 50.4046 29.7747C50.4046 32.1436 51.9668 34.0687 53.8936 34.0687Z" fill="white" stroke="black" stroke-width="0.989298" stroke-miterlimit="2.61313" stroke-linecap="round" stroke-linejoin="round"></path>
                                        <path d="M36.6885 -0.906738L36.6885 64.3908" stroke="black" stroke-width="1.18716" stroke-miterlimit="2.61313" stroke-linecap="round" stroke-linejoin="round" stroke-dasharray="1.98 4.95"></path>
                                    </g>
                                    <defs>
                                        <clipPath id="clip0_11417_2050">
                                            <rect width="74" height="64.3044" fill="white" transform="translate(0.5 0.189453)"></rect>
                                        </clipPath>
                                    </defs>
                                </svg>