<svg xmlns="http://www.w3.org/2000/svg" width="55" height="55" viewBox="0 0 40 49"
                                    fill="none">
                                    <g clip-path="url(#clip0_11417_2640)">
                                        <path fill-rule="evenodd" clip-rule="evenodd"
                                            d="M0.613255 21.2711C0.613255 21.2711 -0.446349 45.2159 16.8153 37.3917C24.67 20.2103 0.613255 21.2711 0.613255 21.2711V21.2711Z"
                                            stroke="black" stroke-miterlimit="2.61313" stroke-linecap="round"
                                            stroke-linejoin="round" />
                                        <path d="M19.9999 40.5619L8.71387 29.3345" stroke="black"
                                            stroke-miterlimit="2.61313" stroke-linecap="round"
                                            stroke-linejoin="round" />
                                        <path fill-rule="evenodd" clip-rule="evenodd"
                                            d="M39.3876 21.2711C39.3876 21.2711 40.4472 45.2159 23.1855 37.3917C15.3247 20.2103 39.3876 21.2711 39.3876 21.2711V21.2711Z"
                                            stroke="black" stroke-miterlimit="2.61313" stroke-linecap="round"
                                            stroke-linejoin="round" />
                                        <path d="M31.286 29.3284L20 40.5619V48.1286" stroke="black"
                                            stroke-miterlimit="2.61313" stroke-linecap="round"
                                            stroke-linejoin="round" />
                                        <path fill-rule="evenodd" clip-rule="evenodd"
                                            d="M26.6349 14.3422C26.6472 14.4955 26.6533 14.6488 26.6533 14.8021C26.6533 18.4567 23.6717 21.4184 20 21.4184C16.3284 21.4184 13.3467 18.4567 13.3467 14.8021C13.3467 14.6488 13.3528 14.4955 13.3652 14.3422C13.3652 14.3422 12.9278 11.4909 20 1.24463C27.0414 11.448 26.6349 14.3177 26.6349 14.3422V14.3422Z"
                                            stroke="black" stroke-miterlimit="2.61313" stroke-linecap="round"
                                            stroke-linejoin="round" />
                                        <path d="M20.4012 18.42C18.0171 18.42 16.0889 16.4946 16.0889 14.1216"
                                            stroke="black" stroke-miterlimit="2.61313" stroke-linecap="round"
                                            stroke-linejoin="round" />
                                    </g>
                                    <defs>
                                        <clipPath id="clip0_11417_2640">
                                            <rect width="40" height="48" fill="white"
                                                transform="translate(0 0.686523)" />
                                        </clipPath>
                                    </defs>
                                </svg>