<svg xmlns="http://www.w3.org/2000/svg" width="74" height="61" viewBox="0 0 73 53" fill="none">
                                    <path d="M1.03997 37.9781C0.603778 23.664 1.57004 20.9685 4.54745 18.7354C7.32146 16.6549 8.70856 15.9614 15.6437 15.2679C22.5788 14.5744 28.4753 16.507 28.8204 2.09113M45.9703 1C46.2015 4.46757 45.1751 12.1332 55.8675 14.5744C66.3636 16.9707 69.0441 18.0419 71.1248 22.203C71.9131 23.7796 72.37 35.6849 71.8152 39.5686" stroke="black" stroke-linecap="round"></path>
                                    <path d="M34.7982 8.95215C34.9307 10.6751 35.6424 15.6626 34.003 17.302C32.0149 19.2901 23.2674 18.8925 21.2793 18.4949M42.3529 18.8925C42.3529 18.4949 42.9095 17.6201 45.1362 17.302C47.3628 16.984 50.8353 17.1695 52.2932 17.302" stroke="black" stroke-linecap="round"></path>
                                    <path d="M12.9978 46.7257V37.5806C12.8653 38.9059 12.9977 43.5448 15.7134 45.9305" stroke="black" stroke-linecap="round"></path>
                                    <path d="M60.7967 37.5806C61.643 40.8998 62.3201 48.4095 58.2578 51.8947" stroke="black" stroke-linecap="round"></path>
                                    <circle cx="24.3995" cy="26.0499" r="2.7833" fill="black" fill-opacity="0.3"></circle>
                                    <circle cx="32.352" cy="29.2304" r="1.19284" fill="black" fill-opacity="0.6"></circle>
                                    <circle cx="41.0991" cy="37.1831" r="1.19284" fill="black" fill-opacity="0.2"></circle>
                                    <circle cx="31.5571" cy="24.4594" r="1.19284" fill="black" fill-opacity="0.2"></circle>
                                    <circle cx="44.2807" cy="27.6401" r="1.19284" fill="black" fill-opacity="0.2"></circle>
                                    <circle cx="49.0519" cy="28.4352" r="0.397614" fill="black" fill-opacity="0.2"></circle>
                                    <circle cx="29.966" cy="32.4113" r="0.397614" fill="black" fill-opacity="0.2"></circle>
                                    <circle cx="51.437" cy="21.2783" r="1.19284" fill="black" fill-opacity="0.8"></circle>
                                </svg>