<svg xmlns="http://www.w3.org/2000/svg" width="93" height="16" viewBox="0 0 93 16" fill="none">
<path fill-rule="evenodd" clip-rule="evenodd" d="M8.46148 0.76198L10.176 5.7471L15.5329 5.80801C15.9939 5.81328 16.1848 6.39015 15.815 6.66014L11.5172 9.80161L13.1136 14.8242C13.2507 15.2564 12.7516 15.6125 12.3753 15.3507L8.00528 12.307L3.63466 15.3501C3.25896 15.6119 2.75922 15.2552 2.89638 14.8236L4.4928 9.80102L0.194939 6.65955C-0.174796 6.38956 0.0160349 5.81269 0.47701 5.80742L5.83398 5.74651L7.54848 0.761394C7.69637 0.332693 8.31418 0.332693 8.46148 0.76198Z" fill="#008763"/>
<path fill-rule="evenodd" clip-rule="evenodd" d="M27.4715 0.76198L29.186 5.7471L34.543 5.80801C35.0039 5.81328 35.1948 6.39015 34.825 6.66014L30.5272 9.80161L32.1236 14.8242C32.2607 15.2564 31.7616 15.6125 31.3853 15.3507L27.0153 12.307L22.6447 15.3501C22.269 15.6119 21.7692 15.2552 21.9064 14.8236L23.5028 9.80102L19.2049 6.65955C18.8352 6.38956 19.026 5.81269 19.487 5.80742L24.844 5.74651L26.5585 0.761394C26.7064 0.332693 27.3242 0.332693 27.4715 0.76198Z" fill="#008763"/>
<path fill-rule="evenodd" clip-rule="evenodd" d="M46.4815 0.76198L48.196 5.7471L53.553 5.80801C54.0139 5.81328 54.2048 6.39015 53.835 6.66014L49.5372 9.80161L51.1336 14.8242C51.2708 15.2564 50.7716 15.6125 50.3953 15.3507L46.0253 12.307L41.6547 15.3501C41.279 15.6119 40.7792 15.2552 40.9164 14.8236L42.5128 9.80102L38.215 6.65955C37.8452 6.38956 38.0361 5.81269 38.497 5.80742L43.854 5.74651L45.5685 0.761394C45.7164 0.332693 46.3342 0.332693 46.4815 0.76198Z" fill="#008763"/>
<path fill-rule="evenodd" clip-rule="evenodd" d="M65.4913 0.76198L67.2058 5.7471L72.5627 5.80801C73.0237 5.81328 73.2145 6.39015 72.8448 6.66014L68.5469 9.80161L70.1434 14.8242C70.2805 15.2564 69.7814 15.6125 69.4051 15.3507L65.0351 12.307L60.6644 15.3501C60.2887 15.6119 59.789 15.2552 59.9262 14.8236L61.5226 9.80102L57.2247 6.65955C56.855 6.38956 57.0458 5.81269 57.5068 5.80742L62.8638 5.74651L64.5783 0.761394C64.7262 0.332693 65.344 0.332693 65.4913 0.76198Z" fill="#008763"/>
<path fill-rule="evenodd" clip-rule="evenodd" d="M84.5014 0.761978L86.2158 5.7471L91.5723 5.80801C92.0342 5.81328 92.225 6.39015 91.8549 6.66014L87.5569 9.80166L89.1536 14.8242C89.2904 15.2564 88.7915 15.6125 88.4153 15.3507L84.0452 12.3071L79.6745 15.3501C79.2988 15.612 78.7991 15.2553 78.9362 14.8236L80.5327 9.80104L76.2347 6.65956C75.865 6.38957 76.0558 5.8127 76.5168 5.80743L81.8738 5.74651L83.5883 0.761395C83.7362 0.332693 84.3541 0.332693 84.5014 0.761978Z" fill="#D9D9D9"/>
<path fill-rule="evenodd" clip-rule="evenodd" d="M84.0398 0.439941C83.8502 0.441809 83.6616 0.548977 83.5883 0.761369L81.8738 5.74649L76.5168 5.8074C76.0558 5.81267 75.865 6.38954 76.2347 6.65953L80.5327 9.80104L78.9362 14.8236C78.7991 15.2553 79.2988 15.6119 79.6745 15.3501L84.0398 12.3108V0.439941Z" fill="#008763"/>
</svg>