<svg width="67" height="12" viewBox="0 0 67 12" fill="none"
                            xmlns="http://www.w3.org/2000/svg">
                            <path fill-rule="evenodd" clip-rule="evenodd"
                                d="M61.6338 1.10604L62.8521 4.64845L66.6588 4.69173C66.9863 4.69548 67.1219 5.1054 66.8592 5.29726L63.8052 7.52958L64.9396 11.0986C65.037 11.4058 64.6824 11.6588 64.415 11.4728L61.3096 9.30994L58.2039 11.4723C57.9369 11.6584 57.5818 11.4049 57.6793 11.0982L58.8137 7.52916L55.7596 5.29684C55.4969 5.10499 55.6325 4.69506 55.9601 4.69132L59.7667 4.64804L60.985 1.10562C61.0901 0.800987 61.5291 0.800987 61.6338 1.10604Z"
                                fill="#008763"></path>
                            <path fill-rule="evenodd" clip-rule="evenodd"
                                d="M47.7295 1.10604L48.9478 4.64845L52.7545 4.69173C53.082 4.69548 53.2176 5.1054 52.9549 5.29726L49.9009 7.52958L51.0353 11.0986C51.1327 11.4058 50.778 11.6588 50.5107 11.4728L47.4053 9.30994L44.2996 11.4723C44.0326 11.6584 43.6775 11.4049 43.775 11.0982L44.9094 7.52916L41.8553 5.29684C41.5926 5.10499 41.7282 4.69506 42.0558 4.69132L45.8624 4.64804L47.0807 1.10562C47.1858 0.800987 47.6248 0.800987 47.7295 1.10604Z"
                                fill="#008763"></path>
                            <path fill-rule="evenodd" clip-rule="evenodd"
                                d="M33.8218 1.10604L35.0401 4.64845L38.8468 4.69173C39.1743 4.69548 39.3099 5.1054 39.0472 5.29726L35.9931 7.52958L37.1276 11.0986C37.225 11.4058 36.8703 11.6588 36.6029 11.4728L33.4976 9.30994L30.3919 11.4723C30.1249 11.6584 29.7698 11.4049 29.8672 11.0982L31.0017 7.52916L27.9476 5.29684C27.6849 5.10499 27.8205 4.69506 28.148 4.69132L31.9547 4.64804L33.173 1.10562C33.2781 0.800987 33.7171 0.800987 33.8218 1.10604Z"
                                fill="#008763"></path>
                            <path fill-rule="evenodd" clip-rule="evenodd"
                                d="M19.917 1.10604L21.1353 4.64845L24.942 4.69173C25.2695 4.69548 25.4051 5.1054 25.1424 5.29726L22.0884 7.52958L23.2228 11.0986C23.3202 11.4058 22.9655 11.6588 22.6982 11.4728L19.5928 9.30994L16.4871 11.4723C16.2201 11.6584 15.865 11.4049 15.9625 11.0982L17.0969 7.52916L14.0428 5.29684C13.7801 5.10499 13.9157 4.69506 14.2433 4.69132L18.0499 4.64804L19.2682 1.10562C19.3733 0.800987 19.8123 0.800987 19.917 1.10604Z"
                                fill="#008763"></path>
                            <path fill-rule="evenodd" clip-rule="evenodd"
                                d="M6.01271 1.10604L7.23103 4.64845L11.0377 4.69173C11.3652 4.69548 11.5009 5.1054 11.2381 5.29726L8.18407 7.52958L9.31848 11.0986C9.41594 11.4058 9.06125 11.6588 8.79386 11.4728L5.68853 9.30994L2.58278 11.4723C2.31581 11.6584 1.9607 11.4049 2.05816 11.0982L3.19258 7.52916L0.138523 5.29684C-0.124209 5.10499 0.0113944 4.69506 0.338962 4.69132L4.14562 4.64804L5.36393 1.10562C5.46902 0.800987 5.90804 0.800987 6.01271 1.10604Z"
                                fill="#008763"></path>
                        </svg>