<svg xmlns="http://www.w3.org/2000/svg" width="94" height="16" viewBox="0 0 94 16" fill="none">
<g clip-path="url(#clip0_19052_6526)">
<path fill-rule="evenodd" clip-rule="evenodd" d="M66.2381 1.29174L67.9512 6.2727L73.3036 6.33356C73.7642 6.33882 73.9549 6.91522 73.5855 7.18498L69.2912 10.3238L70.8863 15.3422C71.0234 15.774 70.5246 16.1299 70.1486 15.8683L65.7823 12.8272L61.4153 15.8678C61.0399 16.1293 60.5406 15.7729 60.6776 15.3416L62.2727 10.3232L57.9785 7.1844C57.609 6.91462 57.7997 6.33824 58.2603 6.33297L63.6127 6.27211L65.3258 1.29116C65.4736 0.862812 66.0909 0.862812 66.2381 1.29174Z" fill="#008763"/>
<path fill-rule="evenodd" clip-rule="evenodd" d="M85.1915 1.29174L86.9046 6.2727L92.2574 6.33356C92.718 6.33882 92.9086 6.91522 92.5389 7.18498L88.2445 10.3238L89.8398 15.3422C89.9766 15.774 89.478 16.1299 89.1021 15.8683L84.7356 12.8272L80.3687 15.8678C79.9933 16.1293 79.494 15.7729 79.6311 15.3416L81.2262 10.3232L76.9318 7.1844C76.5624 6.91462 76.7531 6.33824 77.2137 6.33297L82.5662 6.27211L84.2793 1.29116C84.427 0.862812 85.0443 0.862812 85.1915 1.29174Z" fill="#D9D9D9"/>
<path fill-rule="evenodd" clip-rule="evenodd" d="M47.2435 1.29174L48.9566 6.2727L54.3091 6.33356C54.7697 6.33882 54.9603 6.91522 54.5909 7.18498L50.2966 10.3238L51.8917 15.3422C52.0287 15.774 51.53 16.1299 51.1541 15.8683L46.7876 12.8272L42.4207 15.8678C42.0454 16.1293 41.546 15.7729 41.6831 15.3416L43.2782 10.3232L38.9838 7.1844C38.6144 6.91462 38.8051 6.33824 39.2657 6.33297L44.6182 6.27211L46.3313 1.29116C46.479 0.862812 47.0963 0.862812 47.2435 1.29174Z" fill="#008763"/>
<path fill-rule="evenodd" clip-rule="evenodd" d="M28.2486 1.29174L29.9616 6.2727L35.3141 6.33356C35.7747 6.33882 35.9654 6.91522 35.596 7.18498L31.3017 10.3238L32.8968 15.3422C33.0339 15.774 32.5351 16.1299 32.1591 15.8683L27.7928 12.8272L23.4258 15.8678C23.0504 16.1293 22.5511 15.7729 22.6881 15.3416L24.2832 10.3232L19.9889 7.1844C19.6196 6.91462 19.8102 6.33824 20.2708 6.33297L25.6233 6.27211L27.3363 1.29116C27.4841 0.862812 28.1014 0.862812 28.2486 1.29174Z" fill="#008763"/>
<path fill-rule="evenodd" clip-rule="evenodd" d="M9.25397 1.29174L10.9671 6.2727L16.3196 6.33356C16.7802 6.33882 16.9708 6.91522 16.6014 7.18498L12.3071 10.3238L13.9022 15.3422C14.0392 15.774 13.5405 16.1299 13.1646 15.8683L8.79815 12.8272L4.43119 15.8678C4.05581 16.1293 3.55648 15.7729 3.69353 15.3416L5.28861 10.3232L0.994334 7.1844C0.624912 6.91462 0.815583 6.33824 1.27617 6.33297L6.62868 6.27211L8.34174 1.29116C8.48951 0.862812 9.10679 0.862812 9.25397 1.29174Z" fill="#008763"/>
<path fill-rule="evenodd" clip-rule="evenodd" d="M86.9424 6.2727L85.2293 1.29174C85.0821 0.862812 84.4648 0.862812 84.3171 1.29116L82.604 6.27211L77.2515 6.33297C76.7909 6.33824 76.6002 6.91462 76.9697 7.1844L81.264 10.3232L79.6689 15.3416C79.5319 15.7729 80.0312 16.1293 80.4065 15.8678L84.7736 12.8272L87.7259 14.8835V6.28161L86.9424 6.2727Z" fill="#008763"/>
</g>
<defs>
<clipPath id="clip0_19052_6526">
<rect width="93.5294" height="15" fill="white" transform="translate(0 0.969971)"/>
</clipPath>
</defs>
</svg>