<svg xmlns="http://www.w3.org/2000/svg" width="41" height="41" viewBox="0 0 41 41" fill="none">
  <path d="M38.263 25.5024C38.2331 25.3138 38.1617 25.1345 38.0541 24.9776C37.9464 24.8206 37.8053 24.6902 37.6411 24.5958C36.7387 24.0314 34.6678 23.5605 32.6691 24.5695C31.8361 24.9906 30.9974 25.4965 30.2164 25.982C30.1982 25.9457 30.178 25.9106 30.1557 25.8767C29.8925 25.4848 29.4008 25.2918 28.6863 25.2918C27.8013 25.2918 26.1642 26.1692 23.9515 27.4238C23.2827 27.825 22.5923 28.1882 21.8835 28.5117C21.4207 28.4561 20.9695 28.4122 20.4778 28.3654C19.7286 28.2923 18.8754 28.2134 17.7358 28.073C17.3433 27.9252 16.9695 27.7308 16.6222 27.4939C14.0721 25.9598 11.2555 24.9324 8.324 24.4671C3.7714 23.6746 1.8335 24.5695 1.73806 24.6192C1.66762 24.651 1.60419 24.6968 1.5515 24.7538C1.49881 24.8107 1.45793 24.8778 1.43126 24.951C1.40459 25.0242 1.39267 25.1021 1.39621 25.18C1.39974 25.2579 1.41866 25.3343 1.45185 25.4048C1.48503 25.4752 1.53181 25.5382 1.58944 25.5901C1.64707 25.6419 1.71438 25.6816 1.7874 25.7068C1.86043 25.732 1.93769 25.7421 2.01466 25.7366C2.09162 25.7312 2.16672 25.7102 2.23554 25.6749C2.2529 25.6749 3.9999 24.8999 8.12732 25.6194C10.9262 26.0643 13.6152 27.046 16.0495 28.5117C16.7264 28.9006 17.1718 29.1609 17.5854 29.2165C18.7423 29.3744 19.6101 29.4563 20.3708 29.5294C21.6187 29.6225 22.8582 29.8092 24.0788 30.088C26.2423 30.5822 27.6624 31.4654 28.0789 32.5708C28.1835 32.8526 28.2187 33.1559 28.1814 33.4544C28.1441 33.753 28.0355 34.0379 27.8649 34.2846L27.4282 34.577C26.5344 34.7642 24.5098 34.1764 23.3326 33.8342C22.5289 33.5588 21.7007 33.3629 20.8596 33.2493C18.3721 33.1553 15.8819 33.3406 13.4348 33.802C13.3589 33.8156 13.2863 33.8443 13.2215 33.8867C13.1567 33.929 13.1009 33.984 13.0574 34.0484C13.0139 34.1128 12.9836 34.1854 12.9683 34.2619C12.953 34.3383 12.9529 34.4171 12.9682 34.4936C12.9834 34.5701 13.0136 34.6427 13.0571 34.7072C13.1005 34.7717 13.1562 34.8267 13.221 34.8691C13.2858 34.9115 13.3583 34.9403 13.4342 34.9539C13.5102 34.9676 13.5881 34.9657 13.6633 34.9484C16.0166 34.5093 18.4102 34.3309 20.8017 34.4162C21.5521 34.5287 22.2915 34.7068 23.0115 34.9484C23.9371 35.2175 24.8742 35.4865 25.7274 35.6415C22.7946 37.4371 20.0844 38.8087 18.8118 38.8087C16.307 38.8087 5.8973 33.7026 2.09671 31.7374C1.96078 31.6721 1.80506 31.663 1.66261 31.712C1.52015 31.7609 1.40216 31.8641 1.33367 31.9995C1.26518 32.135 1.25158 32.2921 1.29576 32.4375C1.33994 32.5829 1.43842 32.7052 1.5703 32.7785C2.14877 33.0709 15.5202 39.9785 18.8147 39.9785C20.498 39.9785 24.18 38.0308 27.8562 35.662C28.1977 35.5741 28.502 35.3772 28.7239 35.1005C33.0712 32.2082 37.2044 28.8831 37.699 27.7045C37.8334 27.4131 37.9044 27.096 37.9072 26.7745C38.1764 26.4091 38.303 25.9562 38.263 25.5024ZM33.1869 25.6164C34.7517 24.8268 36.3685 25.1807 37.0337 25.5901C37.0524 25.602 37.0698 25.6157 37.0858 25.6311C36.4206 25.3942 35.3996 25.5404 34.0257 26.0727C33.0276 26.4625 32.0813 26.9763 31.2085 27.6022C30.3842 28.1461 29.259 28.8918 27.2054 30.0178C26.8817 29.8305 26.5453 29.6663 26.1989 29.5265C27.0348 29.1346 28.0269 28.6491 28.4463 28.4269C28.9611 28.1344 29.5627 27.7659 30.202 27.3653C31.1275 26.7862 32.1746 26.1282 33.1869 25.6164ZM24.5098 28.4415C25.8258 27.6987 28.0298 26.4587 28.6806 26.4587C28.8598 26.4371 29.0413 26.4676 29.2041 26.5464C29.1882 26.5296 29.178 26.5081 29.1752 26.485C29.1742 26.4763 29.1742 26.4674 29.1752 26.4587L29.3342 26.523C28.802 26.8564 28.3017 27.1664 27.888 27.4004C27.2633 27.7425 25.175 28.7164 24.5531 29.003L24.3362 28.9562L23.8156 28.8334L24.5098 28.4415ZM36.6346 27.2395C36.2586 28.1169 33.0191 30.7489 29.3458 33.2756C29.3537 32.8912 29.2878 32.5089 29.152 32.1497C28.9478 31.6282 28.6293 31.1603 28.2207 30.7811C30.0197 29.778 31.0552 29.0907 31.8304 28.5789C32.6363 27.9992 33.5108 27.5237 34.4335 27.1635C36.0561 26.5318 36.6722 26.6809 36.7474 26.7482C36.7614 26.9197 36.7252 27.0916 36.6433 27.2424L36.6346 27.2395Z" fill="black"/>
  <path d="M9.89526 14.316C9.94214 14.316 14.714 15.0285 16.6828 16.9973C18.6515 18.966 19.3578 23.7316 19.3578 23.7785C19.3578 23.9443 19.4236 24.1032 19.5408 24.2205C19.658 24.3377 19.817 24.4035 19.9828 24.4035C20.1485 24.4035 20.3075 24.3377 20.4247 24.2205C20.5419 24.1032 20.6078 23.9443 20.6078 23.7785C20.6078 23.7316 21.3203 18.9598 23.289 16.991C25.2578 15.0223 30.0234 14.316 30.0703 14.316C30.236 14.316 30.395 14.2502 30.5122 14.133C30.6294 14.0157 30.6953 13.8568 30.6953 13.691C30.6953 13.5253 30.6294 13.3663 30.5122 13.2491C30.395 13.1319 30.236 13.066 30.0703 13.066C30.0234 13.066 25.2515 12.3535 23.2828 10.3848C21.314 8.41602 20.6078 3.65039 20.6078 3.60352C20.6078 3.43776 20.5419 3.27878 20.4247 3.16157C20.3075 3.04436 20.1485 2.97852 19.9828 2.97852C19.817 2.97852 19.658 3.04436 19.5408 3.16157C19.4236 3.27878 19.3578 3.43776 19.3578 3.60352C19.3578 3.65039 18.6453 8.42227 16.6765 10.391C14.7078 12.3598 9.94214 13.066 9.89526 13.066C9.7295 13.066 9.57053 13.1319 9.45332 13.2491C9.33611 13.3663 9.27026 13.5253 9.27026 13.691C9.27026 13.8568 9.33611 14.0157 9.45332 14.133C9.57053 14.2502 9.7295 14.316 9.89526 14.316ZM17.5671 11.2816C18.7484 10.1004 19.5171 8.15664 19.9828 6.55977C20.4484 8.16602 21.2328 10.1004 22.3984 11.2816C23.564 12.4629 25.5234 13.2316 27.1203 13.6973C25.5109 14.1629 23.5796 14.9473 22.3984 16.1129C21.2171 17.2785 20.4484 19.2223 19.9828 20.8285C19.5171 19.2223 18.7328 17.2879 17.5671 16.1066C16.4015 14.9254 14.4421 14.1566 12.8453 13.691C14.4546 13.2254 16.3859 12.4566 17.5671 11.2754V11.2816Z" fill="black"/>
</svg>