<svg width="41" height="41" viewBox="0 0 41 41" fill="none" xmlns="http://www.w3.org/2000/svg">
<g id="fi_8537353">
<path id="Vector" d="M11.2513 14.9674C12.8062 15.188 14.3887 14.7843 15.6553 13.8244C18.2723 11.8478 18.7957 8.10768 16.8221 5.4869C15.8656 4.21682 14.4725 3.39588 12.8992 3.17549C11.3267 2.95518 9.7628 3.36104 8.49514 4.31846C5.87811 6.29502 5.35475 10.0353 7.32835 12.656C8.28483 13.926 9.67803 14.747 11.2512 14.9674H11.2513ZM8.96608 4.94182C10.0662 4.10807 11.4405 3.75752 12.7908 3.94916C14.1573 4.14065 15.3673 4.8537 16.198 5.9569C17.9129 8.23401 17.4582 11.4838 15.1844 13.201C14.0836 14.0325 12.7251 14.385 11.3598 14.1937C9.99335 14.0022 8.78327 13.2892 7.95249 12.186C6.23764 9.90885 6.69233 6.65916 8.96608 4.94182Z" fill="black"/>
<path id="Vector_2" d="M10.9746 16.9476C12.5169 17.1668 14.0806 16.9265 15.4756 16.2644L16.7766 17.992L12.7782 21.0119C12.6063 21.1419 12.572 21.3865 12.7017 21.5587L14.1703 23.5089C14.2934 23.6793 14.5526 23.7153 14.7178 23.5856L18.7152 20.5664L19.714 21.8926L15.7156 24.9125C15.5437 25.0424 15.5094 25.287 15.6391 25.4592L17.1077 27.4095C17.2309 27.5797 17.4896 27.6162 17.6552 27.4862L21.6527 24.467L22.9501 26.1899C20.5195 28.9644 20.2766 33.1663 22.581 36.2264C23.8573 37.9212 25.7193 39.0169 27.824 39.3119C29.9018 39.6072 32.0189 39.0694 33.7091 37.788C37.2066 35.1465 37.9061 30.1478 35.2684 26.6452C33.992 24.9504 32.13 23.8547 30.0253 23.5597C28.463 23.3408 26.9085 23.5833 25.5191 24.2457L24.2235 22.5253L28.2219 19.5054C28.3938 19.3755 28.4281 19.1309 28.2985 18.9587L26.8298 17.0084C26.7067 16.8381 26.4474 16.8018 26.2823 16.9317L22.2849 19.9509L21.2861 18.6247L25.2845 15.6048C25.4564 15.4749 25.4907 15.2303 25.361 15.0581L23.8924 13.1078C23.7693 12.9375 23.51 12.9013 23.3449 13.0311L19.3474 16.0503L18.046 14.3222C20.4803 11.5478 20.7249 7.3428 18.4191 4.281C17.1427 2.58623 15.2807 1.49045 13.176 1.19545C11.0723 0.900687 8.98235 1.44186 7.29103 2.71944C3.79353 5.361 3.09407 10.3596 5.73173 13.8622C7.00798 15.5569 8.87001 16.6527 10.9747 16.9477L10.9746 16.9476ZM29.917 24.3333C31.8148 24.5992 33.4938 25.5872 34.6444 27.1151C37.0233 30.274 36.3925 34.7822 33.2382 37.1645C31.7134 38.3161 29.8291 38.8039 27.9325 38.5382C26.0346 38.2722 24.3558 37.2843 23.2052 35.7564C20.8263 32.5974 21.457 28.0893 24.6113 25.707C26.1348 24.5519 28.0438 24.0671 29.917 24.3333V24.3333ZM18.9586 16.8326C19.0209 16.9155 19.1138 16.9701 19.2164 16.9845C19.319 16.9988 19.4233 16.9719 19.5061 16.9094L23.5035 13.8901L24.5023 15.2164L20.5039 18.2362C20.332 18.3662 20.2977 18.6108 20.4274 18.7829L21.896 20.7333C21.9584 20.8161 22.0512 20.8708 22.1538 20.8851C22.2567 20.8994 22.3607 20.8725 22.4435 20.81L26.4409 17.7908L27.4397 19.117L23.4413 22.1369C23.2694 22.2668 23.2351 22.5114 23.3648 22.6836L24.8236 24.6208C24.5897 24.7624 24.3616 24.9165 24.1404 25.0836C23.9154 25.2535 23.7021 25.4334 23.5004 25.6219L22.0414 23.6845C21.9791 23.6016 21.8863 23.547 21.7836 23.5326C21.6809 23.5184 21.5767 23.5453 21.4939 23.6078L17.4965 26.627L16.4977 25.3008L20.4961 22.2809C20.6681 22.151 20.7024 21.9064 20.5727 21.7342L19.104 19.7839C19.0417 19.7011 18.9488 19.6464 18.8462 19.632C18.7435 19.6177 18.6393 19.6447 18.5565 19.7072L14.5591 22.7264L13.5603 21.4001L17.5587 18.3802C17.7306 18.2503 17.7649 18.0057 17.6352 17.8335L16.1717 15.89C16.4076 15.7474 16.6374 15.5922 16.8597 15.4237C17.0831 15.2549 17.2949 15.0765 17.4953 14.8895L18.9586 16.8326ZM7.76181 3.34272C9.28532 2.18764 11.1943 1.7028 13.0675 1.96905C14.9653 2.23498 16.6443 3.22295 17.7949 4.75084C20.1738 7.90983 19.5431 12.418 16.3888 14.8003C14.864 15.9519 12.9796 16.4397 11.0831 16.174C9.18517 15.908 7.50634 14.9201 6.35571 13.3922C3.97681 10.2332 4.60759 5.72498 7.76181 3.34272Z" fill="black"/>
<path id="Vector_3" d="M24.1779 35.0202C25.1344 36.2903 26.5276 37.1112 28.1008 37.3316C29.6557 37.5522 31.2381 37.1486 32.5048 36.1887C35.1218 34.2121 35.6451 30.4719 33.6716 27.8512C32.7151 26.5811 31.3219 25.7601 29.7487 25.5397C28.1762 25.3194 26.6123 25.7253 25.3446 26.6827C22.7276 28.6593 22.2042 32.3995 24.1778 35.0202H24.1779ZM25.8155 27.3061C26.9156 26.4723 28.2899 26.1218 29.6403 26.3134C31.0067 26.5049 32.2167 27.218 33.0475 28.3212C34.7623 30.5983 34.3076 33.848 32.0339 35.5653C30.933 36.3968 29.5746 36.7493 28.2092 36.558C26.8428 36.3665 25.6327 35.6534 24.8019 34.5502C23.0871 32.2731 23.5418 29.0234 25.8155 27.3061Z" fill="black"/>
</g>
</svg>
