<svg xmlns="http://www.w3.org/2000/svg" width="167" height="30" viewBox="0 0 167 30" fill="none">
  <g clip-path="url(#clip0_23173_928)">
    <path d="M111.229 0.627686H105.895V10.6635C105.125 3.15727 102.348 0.627686 98.2787 0.627686C95.2267 0.627686 92.9446 2.13994 91.5423 6.09929C90.525 2.16743 87.6104 0.627686 82.7712 0.627686H77.4371V10.6635H77.2996C76.5297 3.15727 73.7527 0.627686 69.6834 0.627686C65.7515 0.627686 62.947 3.15727 62.0671 10.6635H61.9296V0.627686H55.0558L52.5262 15.6127H52.3887L50.2166 0.627686H43.0952V6.34675C42.4628 2.90981 40.4282 0.627686 36.6063 0.627686C32.3995 0.627686 30.1174 3.54221 29.7324 7.2266C28.5776 2.27742 26.048 0.627686 22.7486 0.627686C19.0642 0.627686 16.3971 2.79983 15.3798 9.01381C15.1323 4.55954 13.8675 0.627686 8.5059 0.627686C4.29909 0.627686 0.889648 4.44956 0.889648 15.2553C0.889648 24.5213 2.78684 29.8829 8.5059 29.8829C13.5926 29.8829 14.9948 25.8136 15.3798 21.7442C16.3971 27.8482 19.0642 29.8829 22.7486 29.8829C26.2955 29.8829 28.8526 27.8482 29.9799 22.1292C30.2273 25.8136 31.6296 29.8829 36.8538 29.8829C39.7683 29.8829 41.9404 28.6181 43.0952 26.446V29.7454H47.0271V8.38142H47.1646L50.7115 29.7454H53.626L57.1729 8.38142H57.3104V29.7454H62.0121V19.7096H62.1496C62.9195 27.2158 65.6965 29.7454 69.7659 29.7454C73.6977 29.7454 76.5023 27.2158 77.3821 19.7096H77.5196V29.7454H82.8537V18.0598H85.0259C87.6929 18.0598 89.4801 17.0425 90.6074 15.3928C90.6074 26.336 93.6594 29.7454 98.3612 29.7454C102.293 29.7454 105.098 27.2158 105.977 19.7096V29.7454H118.048V25.2911H111.312V0.627686H111.229ZM11.0905 18.6922C10.953 22.7616 10.5956 25.2911 8.80835 25.2911C7.15862 25.2911 6.63621 24.2738 6.63621 15.0078C6.63621 5.60437 7.79102 4.97197 8.91833 4.97197C10.1831 4.97197 10.8155 6.75918 10.8155 11.3234L15.2698 11.186C15.1323 12.4507 15.1323 13.7155 15.1323 15.2553C15.1323 16.6576 15.1323 17.9224 15.2698 19.0772L11.0905 18.6922ZM24.8107 18.1698C24.8107 24.2738 24.0409 25.4011 22.9135 25.4011C21.6487 25.4011 21.0163 24.1363 21.0163 18.1698V12.2033C21.0163 6.09929 21.7862 4.97197 22.9135 4.97197C24.1783 4.97197 24.8107 6.23677 24.8107 12.2033V18.1698ZM37.1287 25.4286C34.8466 25.4286 34.8466 22.6241 34.8466 21.1118H30.2823C30.5298 19.4621 30.6673 17.4274 30.6673 15.1453C30.6673 13.9905 30.6673 12.8632 30.5298 11.8458C32.8119 17.07 39.4383 18.5822 39.4383 22.7891C39.4383 23.7514 38.9159 25.4286 37.1287 25.4286ZM34.5991 7.50156C34.5991 5.98931 35.369 4.97197 36.6338 4.97197C38.8059 4.97197 38.8059 7.63904 38.8059 9.17879H43.2602V17.7024C40.7031 13.0831 34.5991 11.2959 34.5991 7.50156ZM71.718 18.1698C71.718 24.2738 70.9482 25.5386 69.8208 25.5386C68.5561 25.5386 67.9237 24.2738 67.9237 18.1698V12.2033C67.9237 6.09929 68.6935 4.83449 69.8208 4.83449C71.0856 4.83449 71.718 6.09929 71.718 12.2033V18.1698ZM83.2661 13.853H82.7712V5.08196H83.1562C84.9434 5.08196 86.5931 5.21943 86.5931 9.39875C86.5931 12.9732 85.4383 13.853 83.2661 13.853ZM100.176 18.1698C100.176 24.2738 99.406 25.5386 98.2787 25.5386C97.0139 25.5386 96.3815 24.2738 96.3815 18.1698V12.2033C96.3815 6.09929 97.1514 4.83449 98.2787 4.83449C99.5435 4.83449 100.176 6.09929 100.176 12.2033V18.1698ZM118.873 0.627686H124.207V29.7454H118.873V0.627686ZM139.467 0.627686H124.977V5.08196H129.541V29.7454H134.875V5.08196H139.439V0.627686M161.436 0.627686V15.9977H161.298L156.459 0.627686H151.235V26.061L148.046 0.655183H140.292L136.222 29.7729H140.677L141.447 23.284H145.818L146.588 29.7729H155.854V12.0933H155.992L161.711 29.7729H165.89V0.627686H161.436ZM142.134 19.0497L143.784 5.08196H143.921L145.433 19.0497H142.134Z" fill="black"/>
  </g>
  <defs>
    <clipPath id="clip0_23173_928">
      <rect width="165.404" height="29.2552" fill="white" transform="translate(0.892578 0.627686)"/>
    </clipPath>
  </defs>
</svg>