<svg xmlns="http://www.w3.org/2000/svg" width="142" height="26" viewBox="0 0 142 26" fill="none">
  <g clip-path="url(#clip0_20314_3531)">
    <g opacity="0.3">
      <path d="M94.4243 0.5H89.8591V9.08692C89.207 2.6738 86.8156 0.5 83.3374 0.5C80.7287 0.5 78.7722 1.80424 77.5766 5.17383C76.7068 1.80424 74.207 0.5 70.0765 0.5H65.5112V9.08692H65.4024C64.7503 2.6738 62.3591 0.5 58.8809 0.5C55.5113 0.5 53.1199 2.6738 52.3589 9.08692H52.2503V0.5H46.3807L44.2069 13.3261H44.0981L42.2504 0.5H36.1633V5.39127C35.6198 2.45637 33.8807 0.5 30.6197 0.5C27.0329 0.5 25.0763 2.99986 24.7503 6.15219C23.7719 1.91305 21.5981 0.5 18.772 0.5C15.6197 0.5 13.3371 2.34774 12.4675 7.67387C12.2503 3.86941 11.1633 0.5 6.59809 0.5C3.01107 0.5 0.0761719 3.76079 0.0761719 13C0.0761719 20.9348 1.70665 25.5 6.59809 25.5C10.9459 25.5 12.1415 22.0218 12.4675 18.5434C13.3371 23.7609 15.6197 25.5 18.772 25.5C21.8154 25.5 23.9894 23.7609 24.9675 18.8696C25.185 22.0218 26.3806 25.5 30.8372 25.5C33.3372 25.5 35.1851 24.413 36.1633 22.5651V25.3914H39.5329V7.13038H39.6415L42.685 25.3914H45.1851L48.2286 7.13038H48.3372V25.3914H52.3589V16.8043H52.4678C53.1199 23.2174 55.5111 25.3914 58.9895 25.3914C62.3591 25.3914 64.7503 23.2174 65.5112 16.8043H65.6199V25.3914H70.1851V15.3912H72.033C74.3156 15.3912 75.8373 14.5217 76.8156 13.1086C76.8156 22.4565 79.4243 25.3914 83.446 25.3914C86.8156 25.3914 89.207 23.2174 89.9678 16.8043V25.3914H100.294V21.5869H94.5331V0.5H94.4243ZM8.77189 15.9347C8.66326 19.4129 8.3372 21.5869 6.81535 21.5869C5.4023 21.5869 4.96761 20.7174 4.96761 12.7826C4.96761 4.73915 5.9458 4.19565 6.92416 4.19565C8.01114 4.19565 8.55446 5.71733 8.55446 9.63041L12.3589 9.52161C12.2503 10.6086 12.2503 11.6956 12.2503 13C12.2503 14.1956 12.2503 15.2826 12.3589 16.2608L8.77189 15.9347ZM20.5111 15.5C20.5111 20.7174 19.8588 21.6955 18.8807 21.6955C17.7937 21.6955 17.2502 20.6087 17.2502 15.5V10.3913C17.2502 5.17383 17.9023 4.19565 18.8807 4.19565C19.9677 4.19565 20.5111 5.28246 20.5111 10.3913V15.5ZM31.0546 21.6957C29.0981 21.6957 29.0981 19.3043 29.0981 17.9999H25.185C25.4024 16.5868 25.511 14.8477 25.511 12.8912C25.511 11.913 25.511 10.9347 25.4024 10.0651C27.3589 14.5217 33.0111 15.8261 33.0111 19.4129C33.0111 20.2827 32.5763 21.6957 31.0546 21.6957ZM28.8806 6.36945C28.8806 5.06521 29.5329 4.19565 30.6197 4.19565C32.4676 4.19565 32.4676 6.47825 32.4676 7.7825H36.2721V15.0652C34.0981 11.1521 28.8806 9.63041 28.8806 6.36945ZM60.62 15.5C60.62 20.7174 59.9677 21.8043 58.9895 21.8043C57.9025 21.8043 57.359 20.7174 57.359 15.5V10.3913C57.359 5.17383 58.0111 4.08685 58.9895 4.08685C60.0765 4.08685 60.62 5.17383 60.62 10.3913V15.5ZM70.5113 11.8044H70.0765V4.30428H70.4025C71.9244 4.30428 73.3374 4.41291 73.3374 7.99993C73.3374 11.0435 72.3591 11.8044 70.5113 11.8044ZM84.9679 15.5C84.9679 20.7174 84.3157 21.8043 83.3374 21.8043C82.2504 21.8043 81.7069 20.7174 81.7069 15.5V10.3913C81.7069 5.17383 82.359 4.08685 83.3374 4.08685C84.4244 4.08685 84.9679 5.17383 84.9679 10.3913V15.5ZM100.946 0.5H105.511V25.3914H100.946V0.5ZM118.555 0.5H106.164V4.30428H110.077V25.3914H114.642V4.30428H118.555V0.5ZM137.359 0.5V13.6521H137.251L133.12 0.5H128.664V22.239L125.946 0.5H119.316L115.837 25.3914H119.642L120.294 19.8478H123.99L124.642 25.3914H132.577V10.2825H132.685L137.577 25.3914H141.164V0.5H137.359ZM120.838 16.2608L122.251 4.30428H122.359L123.664 16.2608H120.838Z" fill="black"/>
    </g>
  </g>
  <defs>
    <clipPath id="clip0_20314_3531">
      <rect width="142" height="26" fill="white"/>
    </clipPath>
  </defs>
</svg>