<svg width="166" height="30" viewBox="0 0 166 30" fill="none" xmlns="http://www.w3.org/2000/svg">
<g clip-path="url(#clip0_21178_3394)">
<path d="M110.615 0H105.305V9.99055C104.538 2.51817 101.774 0 97.7228 0C94.6846 0 92.4127 1.50542 91.0168 5.4469C90.0041 1.53279 87.1027 0 82.2853 0H76.9753V9.99055H76.8384C76.072 2.51817 73.3075 0 69.2566 0C65.3425 0 62.5506 2.51817 61.6747 9.99055H61.5378V0H54.695L52.1768 14.9174H52.04L49.8777 0H42.7885V5.69324C42.1589 2.27182 40.1334 0 36.3288 0C32.141 0 29.8692 2.90136 29.486 6.56913C28.3364 1.64228 25.8182 0 22.5337 0C18.8659 0 16.2109 2.16234 15.1981 8.34826C14.9518 3.9141 13.6927 0 8.3553 0C4.16749 0 0.773438 3.80462 0.773438 14.5616C0.773438 23.7857 2.66206 29.1231 8.3553 29.1231C13.419 29.1231 14.8149 25.0722 15.1981 21.0212C16.2109 27.0976 18.8659 29.1231 22.5337 29.1231C26.0646 29.1231 28.6101 27.0976 29.7323 21.4044C29.9787 25.0722 31.3746 29.1231 36.5752 29.1231C39.4765 29.1231 41.6389 27.864 42.7885 25.7017V28.9863H46.7026V7.71873H46.8394L50.3703 28.9863H53.2717L56.8026 7.71873H56.9395V28.9863H61.62V18.9957H61.7568C62.5232 26.4681 65.2877 28.9863 69.3387 28.9863C73.2528 28.9863 76.0447 26.4681 76.9206 18.9957H77.0574V28.9863H82.3675V17.3534H84.5298C87.1848 17.3534 88.964 16.3407 90.0862 14.6984C90.0862 25.5922 93.1244 28.9863 97.8049 28.9863C101.719 28.9863 104.511 26.4681 105.387 18.9957V28.9863H117.403V24.5521H110.697V0H110.615ZM10.9282 17.983C10.7914 22.0339 10.4355 24.5521 8.65639 24.5521C7.01411 24.5521 6.49405 23.5394 6.49405 14.3152C6.49405 4.95421 7.64365 4.32467 8.76587 4.32467C10.025 4.32467 10.6545 6.10381 10.6545 10.6475L15.0887 10.5106C14.9518 11.7697 14.9518 13.0288 14.9518 14.5616C14.9518 15.9575 14.9518 17.2166 15.0887 18.3662L10.9282 17.983ZM24.5865 17.4629C24.5865 23.5394 23.8201 24.6616 22.6979 24.6616C21.4388 24.6616 20.8093 23.4025 20.8093 17.4629V11.5233C20.8093 5.4469 21.5757 4.32467 22.6979 4.32467C23.957 4.32467 24.5865 5.58376 24.5865 11.5233V17.4629ZM36.8489 24.689C34.5771 24.689 34.5771 21.8971 34.5771 20.3917H30.0334C30.2798 18.7494 30.4166 16.7239 30.4166 14.4521C30.4166 13.3025 30.4166 12.1803 30.2798 11.1675C32.5516 16.3681 39.1481 17.8735 39.1481 22.0613C39.1481 23.0193 38.628 24.689 36.8489 24.689ZM34.3307 6.84284C34.3307 5.33741 35.0971 4.32467 36.3562 4.32467C38.5185 4.32467 38.5185 6.9797 38.5185 8.51249H42.9527V16.9976C40.4072 12.3992 34.3307 10.6201 34.3307 6.84284ZM71.2821 17.4629C71.2821 23.5394 70.5157 24.7985 69.3934 24.7985C68.1343 24.7985 67.5048 23.5394 67.5048 17.4629V11.5233C67.5048 5.4469 68.2712 4.18781 69.3934 4.18781C70.6525 4.18781 71.2821 5.4469 71.2821 11.5233V17.4629ZM82.778 13.1656H82.2853V4.43416H82.6685C84.4477 4.43416 86.09 4.57102 86.09 8.73146C86.09 12.2897 84.9404 13.1656 82.778 13.1656ZM99.6114 17.4629C99.6114 23.5394 98.845 24.7985 97.7228 24.7985C96.4637 24.7985 95.8342 23.5394 95.8342 17.4629V11.5233C95.8342 5.4469 96.6006 4.18781 97.7228 4.18781C98.9819 4.18781 99.6114 5.4469 99.6114 11.5233V17.4629ZM118.224 0H123.534V28.9863H118.224V0ZM138.725 0H124.3V4.43416H128.844V28.9863H134.154V4.43416H138.698V0M160.595 0V15.3006H160.458L155.641 0H150.44V25.3185L147.265 0.027373H139.546L135.495 29.0136H139.929L140.696 22.554H145.048L145.814 29.0136H155.038V11.4139H155.175L160.868 29.0136H165.029V0H160.595ZM141.38 18.3388L143.022 4.43416H143.159L144.665 18.3388H141.38Z" fill="#C9C9C9"/>
</g>
<defs>
<clipPath id="clip0_21178_3394">
<rect width="164.658" height="29.1231" fill="white" transform="translate(0.773438)"/>
</clipPath>
</defs>
</svg>
