<svg width="130" height="24" viewBox="0 0 130 24" fill="none" xmlns="http://www.w3.org/2000/svg">
<g id="cosmopolitan" clip-path="url(#clip0_21107_5525)">
<path id="Vector" d="M86.8617 0.783203H82.6892V8.63338C82.087 2.76188 79.9148 0.783203 76.7317 0.783203C74.3444 0.783203 72.5593 1.96611 71.4624 5.06316C70.6666 1.98761 68.3869 0.783203 64.6016 0.783203H60.4291V8.63338H60.3216C59.7194 2.76188 57.5472 0.783203 54.3641 0.783203C51.2885 0.783203 49.0948 2.76188 48.4065 8.63338H48.299V0.783203H42.9222L40.9435 12.5047H40.836L39.1369 0.783203H33.5665V5.25673C33.0718 2.56831 31.4803 0.783203 28.4908 0.783203C25.2001 0.783203 23.415 3.06298 23.1139 5.94496C22.2106 2.07364 20.2319 0.783203 17.6511 0.783203C14.7691 0.783203 12.6829 2.48228 11.8871 7.34294C11.6935 3.85875 10.7042 0.783203 6.51026 0.783203C3.21964 0.783203 0.552734 3.77273 0.552734 12.2251C0.552734 19.4731 2.03674 23.667 6.51026 23.667C10.4891 23.667 11.586 20.4839 11.8871 17.3008C12.6829 22.0755 14.7691 23.667 17.6511 23.667C20.4255 23.667 22.4257 22.0755 23.3075 17.6019C23.5011 20.4839 24.5979 23.667 28.6843 23.667C30.9641 23.667 32.6632 22.6777 33.5665 20.9786V23.5595H36.642V6.84827H36.7496L39.524 23.5595H41.8038L44.5782 6.84827H44.6858V23.5595H48.3635V15.7093H48.4711C49.0733 21.5808 51.2455 23.5595 54.4286 23.5595C57.5042 23.5595 59.6979 21.5808 60.3861 15.7093H60.4937V23.5595H64.6661V14.4189H66.3652C68.4514 14.4189 69.8494 13.6231 70.7312 12.3326C70.7312 20.8926 73.1185 23.5595 76.7962 23.5595C79.8718 23.5595 82.0655 21.5808 82.7538 15.7093V23.5595H92.1955V20.0753H86.9262V0.783203H86.8617ZM8.53195 14.9135C8.42442 18.0966 8.14482 20.0753 6.74685 20.0753C5.45641 20.0753 5.04777 19.2795 5.04777 12.0315C5.04777 4.67603 5.95107 4.18136 6.83287 4.18136C7.82221 4.18136 8.31688 5.57934 8.31688 9.14956L11.8011 9.04202C11.6935 10.0314 11.6935 11.0207 11.6935 12.2251C11.6935 13.322 11.6935 14.3113 11.8011 15.2146L8.53195 14.9135ZM19.2641 14.5049C19.2641 19.2795 18.6619 20.1613 17.7801 20.1613C16.7908 20.1613 16.2961 19.172 16.2961 14.5049V9.83779C16.2961 5.06316 16.8983 4.18136 17.7801 4.18136C18.7694 4.18136 19.2641 5.1707 19.2641 9.83779V14.5049ZM28.8994 20.1828C27.1143 20.1828 27.1143 17.9891 27.1143 16.8062H23.5441C23.7376 15.5157 23.8452 13.9242 23.8452 12.1391C23.8452 11.2358 23.8452 10.354 23.7376 9.55819C25.5227 13.6446 30.706 14.8275 30.706 18.1181C30.706 18.8709 30.2974 20.1828 28.8994 20.1828ZM26.9207 6.16004C26.9207 4.97713 27.5229 4.18136 28.5123 4.18136C30.2113 4.18136 30.2113 6.26757 30.2113 7.47199H33.6955V14.1393C31.6954 10.526 26.9207 9.12805 26.9207 6.16004ZM55.9556 14.5049C55.9556 19.2795 55.3534 20.2689 54.4716 20.2689C53.4823 20.2689 52.9876 19.2795 52.9876 14.5049V9.83779C52.9876 5.06316 53.5898 4.07382 54.4716 4.07382C55.461 4.07382 55.9556 5.06316 55.9556 9.83779V14.5049ZM64.9887 11.1282H64.6016V4.26739H64.9027C66.3007 4.26739 67.5911 4.37493 67.5911 7.64404C67.5911 10.44 66.6878 11.1282 64.9887 11.1282ZM78.2157 14.5049C78.2157 19.2795 77.6135 20.2689 76.7317 20.2689C75.7424 20.2689 75.2477 19.2795 75.2477 14.5049V9.83779C75.2477 5.06316 75.8499 4.07382 76.7317 4.07382C77.721 4.07382 78.2157 5.06316 78.2157 9.83779V14.5049ZM92.8407 0.783203H97.0131V23.5595H92.8407V0.783203ZM108.95 0.783203H97.6153V4.26739H101.186V23.5595H105.358V4.26739H108.928V0.783203M126.134 0.783203V12.8058H126.026L122.241 0.783203H118.155V20.6775L115.66 0.804712H109.595L106.412 23.581H109.896L110.498 18.5052H113.918L114.52 23.581H121.768V9.75176H121.876L126.349 23.581H129.618V0.783203H126.134ZM111.036 15.1931L112.326 4.26739H112.434L113.617 15.1931H111.036Z" fill="#c9c9c9"/>
</g>
<defs>
<clipPath id="clip0_21107_5525">
<rect width="129.382" height="22.8838" fill="white" transform="translate(0.554688 0.783203)"/>
</clipPath>
</defs>
</svg>
