<svg width="19" height="19" viewBox="0 0 19 19" fill="none" xmlns="http://www.w3.org/2000/svg">
<path fill-rule="evenodd" clip-rule="evenodd" d="M9.48885 0.771973C14.4628 0.771973 18.5 4.78684 18.5 9.76082C18.5 14.7348 14.4628 18.772 9.48885 18.772C4.51487 18.772 0.5 14.7348 0.5 9.76082C0.5 4.78684 4.51487 0.771973 9.48885 0.771973ZM9.48885 8.69019L11.9201 6.25896C12.6338 5.54521 13.7268 6.61584 13.013 7.32959L10.5818 9.76082L13.013 12.192C13.7268 12.9058 12.6338 13.9987 11.9201 13.285L9.48885 10.8538L7.05762 13.285C6.34387 13.9987 5.27323 12.9058 5.98699 12.192L8.41822 9.76082L5.98699 7.32959C5.27323 6.61584 6.34387 5.54521 7.05762 6.25896L9.48885 8.69019Z" fill="#B7B7B7"/>
</svg>
