<svg xmlns="http://www.w3.org/2000/svg" width="40" height="40" viewBox="0 0 40 40" fill="none">
  <path d="M12.3 14.2812C12.3 17.0567 13.866 19.5 16.1443 20.7594C10.8292 22.296 6.925 27.1866 6.925 33C6.925 33.3852 7.23983 33.7 7.625 33.7C8.01017 33.7 8.325 33.3852 8.325 33C8.325 26.7602 13.4164 21.6687 19.6562 21.6687C25.8961 21.6687 30.9875 26.7602 30.9875 33C30.9875 33.3852 31.3023 33.7 31.6875 33.7C32.0727 33.7 32.3875 33.3852 32.3875 33C32.3875 27.1867 28.4833 22.2961 23.1682 20.7594C25.4464 19.5015 27.0125 17.0874 27.0125 14.2812C27.0125 10.2084 23.6975 6.925 19.6562 6.925C15.6148 6.925 12.3 10.2398 12.3 14.2812ZM13.7 14.2812C13.7 10.9792 16.3849 8.325 19.6562 8.325C22.9273 8.325 25.6125 11.0102 25.6125 14.2812C25.6125 17.5523 22.9273 20.2375 19.6562 20.2375C16.3849 20.2375 13.7 17.5833 13.7 14.2812Z" fill="black" stroke="black" stroke-width="0.15"/>
  <path d="M6.39402 12.3016L6.39404 12.3029C6.39403 13.8987 7.43684 15.1221 8.68657 15.1221C8.78878 15.1221 8.88729 15.1613 8.96032 15.2319C9.03343 15.3025 9.075 15.3989 9.075 15.5C9.075 15.6011 9.03343 15.6975 8.96032 15.7681C8.88729 15.8387 8.78878 15.8779 8.68657 15.8779C7.43724 15.8779 6.39403 17.1279 6.39403 18.6971V18.6984L6.39402 18.6984C6.39218 18.7997 6.34923 18.8958 6.27528 18.966C6.20141 19.0361 6.10252 19.075 6 19.075L6.39402 12.3016ZM6.39402 12.3016C6.39218 12.2003 6.34923 12.1042 6.27528 12.034C6.20141 11.9639 6.10252 11.925 6 11.925L6.39402 12.3016ZM5.72625 18.9652C5.79927 19.0358 5.89778 19.075 5.99999 19.075V11.925C5.89778 11.925 5.79927 11.9642 5.72625 12.0348C5.65313 12.1055 5.61157 12.2019 5.61157 12.3029C5.61157 13.872 4.56846 15.1221 3.31343 15.1221C3.21122 15.1221 3.11271 15.1613 3.03968 15.2319C2.96657 15.3025 2.925 15.3989 2.925 15.5C2.925 15.6011 2.96657 15.6975 3.03968 15.7681C3.11271 15.8387 3.21122 15.8779 3.31343 15.8779C4.56886 15.8779 5.61157 17.1015 5.61157 18.6971C5.61157 18.7981 5.65313 18.8945 5.72625 18.9652ZM6.00038 14.0617C6.28425 14.6551 6.74167 15.1552 7.31599 15.5C6.74167 15.8448 6.28425 16.3449 6.00038 16.9383C5.71922 16.3447 5.26325 15.8443 4.68968 15.5C5.26325 15.1557 5.71922 14.6553 6.00038 14.0617Z" fill="black" stroke="black" stroke-width="0.15"/>
  <path d="M30.9945 22.075L30.9945 22.075L30.9974 22.075C31.1396 22.0723 31.2735 22.0085 31.371 21.9001C31.4682 21.7918 31.5217 21.6474 31.5217 21.4982H31.5219L31.5214 21.492C31.4931 21.1512 31.5867 20.8125 31.7812 20.5469C31.9745 20.283 32.252 20.1124 32.5549 20.0679C32.6945 20.0663 32.8267 20.0049 32.9233 19.8992C33.0211 19.7923 33.075 19.6486 33.075 19.5C33.075 19.3514 33.0211 19.2077 32.9233 19.1008C32.8267 18.9951 32.6945 18.9337 32.5549 18.9321C32.2505 18.8876 31.9719 18.7159 31.7783 18.4501C31.5836 18.1827 31.4909 17.8418 31.5214 17.4996L31.5217 17.4996V17.493C31.5217 17.3444 31.4678 17.2007 31.37 17.0938C31.2721 16.9866 31.1377 16.925 30.996 16.925C30.8543 16.925 30.7199 16.9866 30.6219 17.0938C30.5242 17.2007 30.4703 17.3444 30.4703 17.493H30.4699L30.4706 17.5001C30.5032 17.8413 30.4124 18.1821 30.2189 18.4497C30.0266 18.7157 29.7488 18.8877 29.4451 18.9321C29.3055 18.9337 29.1733 18.9951 29.0767 19.1008C28.9789 19.2077 28.925 19.3514 28.925 19.5C28.925 19.6486 28.9789 19.7923 29.0767 19.8992C29.1733 20.0049 29.3055 20.0663 29.4451 20.0679C29.7473 20.1123 30.0239 20.2832 30.216 20.5473C30.4092 20.813 30.501 21.1517 30.4706 21.4915L30.4703 21.4915L30.4703 21.4982C30.4703 21.6474 30.5237 21.7918 30.621 21.9001C30.7184 22.0085 30.8524 22.0723 30.9945 22.075ZM31.243 19.5C31.154 19.5901 31.0714 19.6875 30.996 19.7912C30.9206 19.6875 30.838 19.5901 30.7489 19.5C30.838 19.4099 30.9206 19.3125 30.996 19.2088C31.0714 19.3125 31.154 19.4099 31.243 19.5Z" fill="black" stroke="black" stroke-width="0.15"/>
</svg>