<svg width="41" height="41" viewBox="0 0 41 41" fill="none" xmlns="http://www.w3.org/2000/svg">
<g id="deeply-hydrates 1" clip-path="url(#clip0_21479_1264)">
<g id="Layer_x0020_1" opacity="0.8">
<g id="_1529312038512">
<g id="Group">
<path id="Vector" d="M20.8055 29.205C17.784 29.205 15.3359 26.7555 15.3359 23.7354" stroke="black" stroke-width="1.3" stroke-miterlimit="2.61313" stroke-linecap="round" stroke-linejoin="round"/>
<path id="Vector_2" fill-rule="evenodd" clip-rule="evenodd" d="M16.4918 32.1263C17.6319 32.7025 18.9209 33.0271 20.2856 33.0271H20.2924H20.2991C21.6638 33.0271 22.9528 32.7025 24.0929 32.1263L24.0902 32.1209C26.8345 30.7305 28.7159 27.8821 28.7159 24.5954C28.7159 24.3993 28.7078 24.2045 28.6956 24.0125H28.6969C28.6969 24.0125 28.6996 23.9922 28.7024 23.9516L28.7159 23.9489C28.7416 23.4241 28.6063 19.4166 20.2991 7.3291L20.2924 7.33857L20.2856 7.3291C11.9797 19.4166 11.8445 23.4228 11.8688 23.9489L11.8824 23.9516C11.8851 23.9922 11.8878 24.0125 11.8878 24.0125H11.8891C11.8756 24.2045 11.8688 24.3993 11.8688 24.5954C11.8688 27.8821 13.7502 30.7305 16.4945 32.1209L16.4918 32.1263V32.1263Z" stroke="black" stroke-width="1.3" stroke-miterlimit="2.61313" stroke-linecap="round" stroke-linejoin="round"/>
</g>
<path id="Vector_3" d="M0.976562 20.1797H12.6583" stroke="black" stroke-width="1.3" stroke-miterlimit="2.61313" stroke-linecap="round" stroke-linejoin="round"/>
<path id="Vector_4" d="M27.7344 20.1797H39.4161" stroke="black" stroke-width="1.3" stroke-miterlimit="2.61313" stroke-linecap="round" stroke-linejoin="round"/>
<path id="Vector_5" d="M20.2891 39.989V36.9229" stroke="black" stroke-width="1.3" stroke-miterlimit="2.61313" stroke-linecap="round" stroke-linejoin="round"/>
<path id="Vector_6" d="M12.4531 37.889L13.9855 35.2354" stroke="black" stroke-width="1.3" stroke-miterlimit="2.61313" stroke-linecap="round" stroke-linejoin="round"/>
<path id="Vector_7" d="M6.72266 32.1545L9.37631 30.6221" stroke="black" stroke-width="1.3" stroke-miterlimit="2.61313" stroke-linecap="round" stroke-linejoin="round"/>
<path id="Vector_8" d="M32.8906 24.3223H35.9568" stroke="black" stroke-width="1.3" stroke-miterlimit="2.61313" stroke-linecap="round" stroke-linejoin="round"/>
<path id="Vector_9" d="M4.625 24.3223H7.68982" stroke="black" stroke-width="1.3" stroke-miterlimit="2.61313" stroke-linecap="round" stroke-linejoin="round"/>
<path id="Vector_10" d="M31.207 30.6221L33.8607 32.1545" stroke="black" stroke-width="1.3" stroke-miterlimit="2.61313" stroke-linecap="round" stroke-linejoin="round"/>
<path id="Vector_11" d="M26.5938 35.2354L28.1262 37.889" stroke="black" stroke-width="1.3" stroke-miterlimit="2.61313" stroke-linecap="round" stroke-linejoin="round"/>
</g>
</g>
</g>
<defs>
<clipPath id="clip0_21479_1264">
<rect width="40.9756" height="40" fill="white" transform="translate(0 0.5)"/>
</clipPath>
</defs>
</svg>
