<svg xmlns="http://www.w3.org/2000/svg" width="16" height="15" viewBox="0 0 16 15" fill="none">
  <g opacity="0.8">
    <path fill-rule="evenodd" clip-rule="evenodd" d="M8.27397 1.5V13.5C8.27397 13.5 3.124 12.1268 2.5 3.46819C2.5 3.46819 7.11067 2.43171 8.27397 1.50374V1.5Z" stroke="black" stroke-miterlimit="2.61313" stroke-linecap="round" stroke-linejoin="round"/>
    <path fill-rule="evenodd" clip-rule="evenodd" d="M8.27441 1.5V13.5C8.27441 13.5 13.4244 12.1268 14.0484 3.46819C14.0484 3.46819 9.43771 2.43171 8.27441 1.50374V1.5Z" stroke="black" stroke-miterlimit="2.61313" stroke-linecap="round" stroke-linejoin="round"/>
    <path d="M8.27395 10.4251C10.2018 10.4251 11.7647 8.90691 11.7647 7.03409C11.7647 5.16128 10.2018 3.64307 8.27395 3.64307C6.34605 3.64307 4.7832 5.16128 4.7832 7.03409C4.7832 8.90691 6.34605 10.4251 8.27395 10.4251Z" fill="white" stroke="black" stroke-miterlimit="2.61313" stroke-linecap="round" stroke-linejoin="round"/>
    <path fill-rule="evenodd" clip-rule="evenodd" d="M7.60067 9.0908C7.8026 9.19109 8.03143 9.24774 8.27373 9.24774C8.51602 9.24774 8.74482 9.19109 8.94674 9.0908C9.43579 8.8511 9.76782 8.35859 9.76782 7.7963C9.76782 7.76142 9.76782 7.7309 9.76336 7.69606C9.76336 7.69606 9.76336 7.69169 9.76336 7.68732H9.76782C9.77232 7.59582 9.74986 6.90714 8.27373 4.82373C6.80205 6.90714 6.7751 7.59582 6.7796 7.68732H6.7841C6.7841 7.69606 6.7841 7.69606 6.7841 7.69606C6.7796 7.7309 6.7796 7.76142 6.7796 7.7963C6.7796 8.36292 7.11163 8.85543 7.60067 9.0908Z" stroke="black" stroke-miterlimit="2.61313" stroke-linecap="round" stroke-linejoin="round"/>
  </g>
</svg>