<svg xmlns="http://www.w3.org/2000/svg" width="29" height="32" viewBox="0 0 29 32" fill="none">
  <g opacity="0.8">
    <g opacity="0.8">
      <path fill-rule="evenodd" clip-rule="evenodd" d="M13.7808 3.16699V28.5032C13.7808 28.5032 3.68909 25.6038 2.46631 7.32254C2.46631 7.32254 11.5013 5.13416 13.7808 3.17489V3.16699Z" fill="white" stroke="black" stroke-miterlimit="2.61313" stroke-linecap="round" stroke-linejoin="round"/>
      <path fill-rule="evenodd" clip-rule="evenodd" d="M13.7788 3.16699V28.5032C13.7788 28.5032 23.8705 25.6038 25.0933 7.32254C25.0933 7.32254 16.0583 5.13416 13.7788 3.17489V3.16699Z" fill="white" stroke="black" stroke-miterlimit="2.61313" stroke-linecap="round" stroke-linejoin="round"/>
      <path d="M13.7832 22.0112C17.5611 22.0112 20.6236 18.8057 20.6236 14.8515C20.6236 10.8974 17.5611 7.69189 13.7832 7.69189C10.0054 7.69189 6.94287 10.8974 6.94287 14.8515C6.94287 18.8057 10.0054 22.0112 13.7832 22.0112Z" fill="white" stroke="black" stroke-miterlimit="2.61313" stroke-linecap="round" stroke-linejoin="round"/>
      <path fill-rule="evenodd" clip-rule="evenodd" d="M12.4665 19.1954C12.8622 19.4071 13.3106 19.5267 13.7853 19.5267C14.2601 19.5267 14.7085 19.4071 15.1042 19.1954C16.0625 18.6892 16.7132 17.6494 16.7132 16.4622C16.7132 16.3886 16.7132 16.3242 16.7044 16.2506C16.7044 16.2506 16.7044 16.2414 16.7044 16.2322H16.7132C16.722 16.0389 16.678 14.5849 13.7853 10.186C10.9015 14.5849 10.8487 16.0389 10.8575 16.2322H10.8663C10.8663 16.2506 10.8663 16.2506 10.8663 16.2506C10.8575 16.3242 10.8575 16.3886 10.8575 16.4622C10.8575 17.6586 11.5081 18.6985 12.4665 19.1954Z" fill="white" stroke="black" stroke-miterlimit="2.61313" stroke-linecap="round" stroke-linejoin="round"/>
    </g>
  </g>
</svg>