<svg xmlns="http://www.w3.org/2000/svg" width="51" height="54" viewBox="0 0 51 54" fill="none">
  <g opacity="0.8">
    <path fill-rule="evenodd" clip-rule="evenodd" d="M24.5967 4.34473C25.1791 4.34473 25.6513 4.81693 25.6513 5.39941V48.5994C25.6513 48.9284 25.4978 49.2386 25.2362 49.4381C24.9745 49.6376 24.6348 49.7036 24.3175 49.6165L24.5967 48.5994C24.3175 49.6165 24.3166 49.6162 24.3157 49.616L24.3135 49.6154L24.3079 49.6138L24.2917 49.6092L24.2402 49.594C24.1973 49.5811 24.1378 49.5625 24.0626 49.5376C23.9121 49.4878 23.6989 49.4128 23.4313 49.3071C22.8961 49.0959 22.1429 48.7622 21.2389 48.2633C19.4304 47.2654 17.0191 45.607 14.5467 42.9497C9.58818 37.6205 4.45813 28.3554 3.35221 12.5586C3.31599 12.0412 3.66127 11.5743 4.16654 11.4574L4.21059 11.4471L4.34383 11.4158C4.46124 11.388 4.63464 11.3467 4.85718 11.2929C5.30229 11.1853 5.9437 11.0275 6.72649 10.8278C8.29286 10.428 10.4215 9.86089 12.6742 9.19075C14.9297 8.51979 17.2949 7.7499 19.3393 6.94575C21.3411 6.15838 22.9296 5.37783 23.828 4.67726C24.0203 4.47257 24.2936 4.34473 24.5967 4.34473ZM23.542 7.35159C22.5444 7.89514 21.3602 8.41753 20.1114 8.90874C17.9884 9.74379 15.5597 10.5331 13.2757 11.2126C10.9888 11.8929 8.83216 12.4674 7.24811 12.8716C6.55041 13.0497 5.96305 13.1949 5.5237 13.3018C6.72599 28.1262 11.5883 36.6735 16.091 41.5128C18.3938 43.9878 20.6215 45.5134 22.258 46.4165C22.7422 46.6836 23.1746 46.8963 23.542 47.0629V7.35159Z" fill="black"/>
    <path fill-rule="evenodd" clip-rule="evenodd" d="M25.3663 4.67727C25.174 4.47257 24.9007 4.34473 24.5977 4.34473C24.0152 4.34473 23.543 4.81693 23.543 5.39941V48.5994C23.543 48.9284 23.6965 49.2386 23.9582 49.4381C24.2198 49.6376 24.5596 49.7036 24.8768 49.6165L24.5977 48.5994C24.8768 49.6165 24.8777 49.6162 24.8786 49.616L24.8808 49.6154L24.8864 49.6138L24.9026 49.6092L24.9541 49.594C24.997 49.5811 25.0565 49.5625 25.1317 49.5376C25.2822 49.4878 25.4954 49.4128 25.763 49.3071C26.2982 49.0959 27.0514 48.7622 27.9554 48.2633C29.7639 47.2654 32.1752 45.607 34.6476 42.9497C39.6061 37.6205 44.7362 28.3554 45.8421 12.5586C45.8783 12.0412 45.533 11.5743 45.0278 11.4574L44.9837 11.4471L44.8505 11.4158C44.7331 11.388 44.5597 11.3467 44.3371 11.2929C43.892 11.1853 43.2506 11.0275 42.4678 10.8278C40.9014 10.428 38.7728 9.86089 36.5201 9.19075C34.2646 8.51979 31.8994 7.7499 29.855 6.94575C27.8532 6.15838 26.2647 5.37783 25.3663 4.67727ZM43.6706 13.3018C43.2313 13.1949 42.6439 13.0497 41.9462 12.8716C40.3622 12.4674 38.2055 11.8929 35.9186 11.2126C33.6346 10.5331 31.2059 9.74379 29.0829 8.90874C27.8341 8.41753 26.6499 7.89514 25.6523 7.35159V47.0629C26.0197 46.8963 26.4522 46.6836 26.9363 46.4165C28.5728 45.5134 30.8005 43.9878 33.1033 41.5128C37.606 36.6735 42.4683 28.1262 43.6706 13.3018Z" fill="black"/>
    <path d="M24.5963 37.5301C31.3384 37.5301 36.804 32.0645 36.804 25.3224C36.804 18.5803 31.3384 13.1147 24.5963 13.1147C17.8542 13.1147 12.3887 18.5803 12.3887 25.3224C12.3887 32.0645 17.8542 37.5301 24.5963 37.5301Z" fill="white"/>
    <path fill-rule="evenodd" clip-rule="evenodd" d="M24.5963 14.1694C18.4367 14.1694 13.4434 19.1628 13.4434 25.3224C13.4434 31.482 18.4367 36.4754 24.5963 36.4754C30.756 36.4754 35.7493 31.482 35.7493 25.3224C35.7493 19.1628 30.756 14.1694 24.5963 14.1694ZM11.334 25.3224C11.334 17.9978 17.2717 12.0601 24.5963 12.0601C31.9209 12.0601 37.8587 17.9978 37.8587 25.3224C37.8587 32.647 31.9209 38.5848 24.5963 38.5848C17.2717 38.5848 11.334 32.647 11.334 25.3224Z" fill="black"/>
  </g>
  <path d="M20.25 25.4305L23.5454 28.6875L30.375 21.9375" stroke="#2E2E2E" stroke-width="2.025"/>
</svg>