<svg width="35" height="36" viewBox="0 0 35 36" fill="none" xmlns="http://www.w3.org/2000/svg">
<circle cx="17.4832" cy="18.1346" r="17.4312" fill="white"/>
<path fill-rule="evenodd" clip-rule="evenodd" d="M17.7323 8.62646V28.701C17.7323 28.701 9.73642 26.4038 8.76758 11.919C8.76758 11.919 15.9262 10.1851 17.7323 8.63272V8.62646Z" fill="white" stroke="black" stroke-width="0.792327" stroke-miterlimit="2.61313" stroke-linecap="round" stroke-linejoin="round"/>
<path fill-rule="evenodd" clip-rule="evenodd" d="M17.7307 8.62646V28.701C17.7307 28.701 25.7266 26.4038 26.6955 11.919C26.6955 11.919 19.5368 10.1851 17.7307 8.63272V8.62646Z" fill="white" stroke="black" stroke-width="0.792327" stroke-miterlimit="2.61313" stroke-linecap="round" stroke-linejoin="round"/>
<path d="M17.7341 23.5575C20.7274 23.5575 23.154 21.0177 23.154 17.8847C23.154 14.7517 20.7274 12.2119 17.7341 12.2119C14.7409 12.2119 12.3143 14.7517 12.3143 17.8847C12.3143 21.0177 14.7409 23.5575 17.7341 23.5575Z" fill="white" stroke="black" stroke-width="0.792327" stroke-miterlimit="2.61313" stroke-linecap="round" stroke-linejoin="round"/>
<path fill-rule="evenodd" clip-rule="evenodd" d="M16.6911 21.3263C17.0046 21.494 17.3598 21.5888 17.736 21.5888C18.1122 21.5888 18.4675 21.494 18.781 21.3263C19.5403 20.9253 20.0558 20.1014 20.0558 19.1608C20.0558 19.1024 20.0558 19.0514 20.0489 18.9931C20.0489 18.9931 20.0489 18.9858 20.0489 18.9785H20.0558C20.0628 18.8254 20.028 17.6733 17.736 14.188C15.4511 17.6733 15.4093 18.8254 15.4162 18.9785H15.4232C15.4232 18.9931 15.4232 18.9931 15.4232 18.9931C15.4162 19.0514 15.4162 19.1024 15.4162 19.1608C15.4162 20.1087 15.9317 20.9326 16.6911 21.3263Z" fill="white" stroke="black" stroke-width="0.792327" stroke-miterlimit="2.61313" stroke-linecap="round" stroke-linejoin="round"/>
</svg>
