<svg width="36" height="36" viewBox="0 0 36 36" fill="none" xmlns="http://www.w3.org/2000/svg">
<g id="fi_7171410" clip-path="url(#clip0_28547_670)">
<g id="Group">
<path id="Vector" d="M31.1863 18.0662L22.7565 1.90516C22.3677 1.15946 21.6034 0.696289 20.7621 0.696289C19.5216 0.696289 18.5123 1.70553 18.5123 2.94605V5.85874C18.3441 5.83469 18.173 5.82211 17.9997 5.82211C17.8265 5.82211 17.6553 5.83469 17.4871 5.85874V2.94605C17.4871 1.70553 16.4779 0.696289 15.2373 0.696289C14.396 0.696289 13.6318 1.15946 13.2428 1.90516L4.81296 18.0664C3.71508 20.1733 3.13477 22.5475 3.13477 24.9321C3.13477 28.9514 4.72035 32.7193 7.59943 35.542C7.69914 35.6398 7.82872 35.6886 7.95823 35.6886C8.09109 35.6886 8.22389 35.6373 8.32428 35.5349C8.52248 35.3327 8.51927 35.0082 8.31711 34.81C5.6363 32.1817 4.15993 28.6736 4.15993 24.9321C4.15993 22.7118 4.70012 20.5014 5.72201 18.5404L14.1517 2.37927C14.3634 1.97351 14.7794 1.72145 15.2373 1.72145C15.9126 1.72145 16.4619 2.2708 16.4619 2.94605V6.16684C15.7688 6.49523 15.1872 7.04411 14.8175 7.7529C14.7952 7.79535 14.7734 7.83717 14.7527 7.87681L11.8703 13.4025C11.7393 13.6535 11.8367 13.9631 12.0877 14.094C12.3388 14.225 12.6484 14.1276 12.7792 13.8766C14.6383 10.3121 15.6828 8.30971 15.7239 8.23186C15.7247 8.23029 15.7256 8.22865 15.7264 8.22701C16.1705 7.37599 17.0415 6.84727 17.9997 6.84727C18.9577 6.84727 19.8292 7.37612 20.2739 8.22701C20.3368 8.3475 26.6401 20.4351 26.6401 20.4351C27.3691 21.8329 27.7387 23.3459 27.7387 24.932C27.7387 30.3021 23.3698 34.6711 17.9997 34.6711C12.6295 34.6711 8.26059 30.3021 8.26059 24.932C8.26059 23.3463 8.63006 21.8333 9.35854 20.4351L11.8311 15.6942C11.962 15.4431 11.8647 15.1335 11.6136 15.0027C11.3625 14.8717 11.0531 14.9691 10.9221 15.2201L8.44942 19.9612C7.65513 21.4855 7.23535 23.2044 7.23535 24.932C7.23535 30.8674 12.0642 35.6962 17.9996 35.6962C23.935 35.6962 28.7638 30.8674 28.7638 24.932C28.7638 23.2038 28.3438 21.4849 27.5489 19.961C27.5257 19.9163 21.1826 7.7525 21.1826 7.7525C20.8122 7.04397 20.2304 6.49516 19.5374 6.16684V2.94605C19.5374 2.2708 20.0867 1.72145 20.7621 1.72145C21.22 1.72145 21.636 1.97351 21.8476 2.37927L30.2772 18.5401C31.2992 20.5014 31.8394 22.7117 31.8394 24.9321C31.8394 28.6736 30.363 32.1817 27.6822 34.8099C27.4801 35.0081 27.4769 35.3326 27.6751 35.5348C27.7755 35.6372 27.9082 35.6886 28.0411 35.6886C28.1706 35.6886 28.3002 35.6398 28.3999 35.542C31.2789 32.7193 32.8645 28.9513 32.8645 24.9321C32.8646 22.5475 32.2842 20.1733 31.1863 18.0662Z" fill="black"/>
<path id="Vector_2" d="M17.9997 29.5453C20.5435 29.5453 22.613 27.4758 22.613 24.9321C22.613 22.3883 20.5435 20.3188 17.9997 20.3188C15.4559 20.3188 13.3865 22.3883 13.3865 24.9321C13.3865 27.4758 15.4559 29.5453 17.9997 29.5453ZM17.9997 21.344C19.9781 21.344 21.5878 22.9536 21.5878 24.9321C21.5878 26.9106 19.9781 28.5201 17.9997 28.5201C16.0212 28.5201 14.4116 26.9106 14.4116 24.9321C14.4116 22.9536 16.0212 21.344 17.9997 21.344Z" fill="black"/>
<path id="Vector_3" d="M17.9994 27.495C19.4127 27.495 20.5623 26.3453 20.5623 24.9321C20.5623 23.5188 19.4127 22.3691 17.9994 22.3691C16.5862 22.3691 15.4365 23.5188 15.4365 24.9321C15.4365 26.3453 16.5862 27.495 17.9994 27.495ZM17.9994 23.3943C18.8473 23.3943 19.5372 24.0841 19.5372 24.9321C19.5372 25.78 18.8473 26.4698 17.9994 26.4698C17.1515 26.4698 16.4617 25.78 16.4617 24.9321C16.4617 24.0841 17.1515 23.3943 17.9994 23.3943Z" fill="black"/>
<path id="Vector_4" d="M19.5374 17.7559C19.5374 16.908 18.8475 16.2182 17.9997 16.2182C17.1517 16.2182 16.4619 16.908 16.4619 17.7559C16.4619 18.6039 17.1517 19.2937 17.9997 19.2937C18.8475 19.2937 19.5374 18.6039 19.5374 17.7559ZM17.4871 17.7559C17.4871 17.4732 17.717 17.2433 17.9997 17.2433C18.2823 17.2433 18.5122 17.4732 18.5122 17.7559C18.5122 18.0386 18.2823 18.2685 17.9997 18.2685C17.717 18.2685 17.4871 18.0386 17.4871 17.7559Z" fill="black"/>
<path id="Vector_5" d="M12.5693 31.0934C12.3955 31.3169 12.4356 31.6388 12.6591 31.8127C14.201 33.012 16.0478 33.646 18.0001 33.646C22.805 33.646 26.714 29.7369 26.714 24.9321C26.714 23.5127 26.3834 22.1593 25.7315 20.9093L20.7045 11.269C20.6276 11.1214 20.4838 11.0204 20.3189 10.998C20.1533 10.9758 19.9884 11.0348 19.875 11.1565C19.3843 11.6831 18.7184 11.9731 18 11.9731C17.2819 11.9731 16.6161 11.6833 16.1255 11.1569C16.012 11.0352 15.8464 10.9762 15.6817 10.9985C15.5167 11.0209 15.373 11.1219 15.2961 11.2694C13.7805 14.1748 11.3791 18.7786 10.2682 20.9088C9.61651 22.1593 9.28613 23.513 9.28613 24.9321C9.28613 26.8844 9.92009 28.7313 11.1194 30.2731C11.2932 30.4966 11.6152 30.5367 11.8387 30.363C12.0622 30.1892 12.1024 29.8671 11.9286 29.6437C10.8706 28.2835 10.3113 26.6543 10.3113 24.9321C10.3113 23.6797 10.6026 22.4854 11.1772 21.3827C12.217 19.3889 14.3875 15.2278 15.9038 12.3208C16.5103 12.7567 17.2451 12.9983 18 12.9983C18.7552 12.9983 19.4901 12.7566 20.0967 12.3205L24.8224 21.3834C25.3973 22.4855 25.6888 23.6795 25.6888 24.9321C25.6888 29.1717 22.2396 32.6208 18 32.6208C16.2779 32.6208 14.6487 32.0615 13.2885 31.0035C13.0651 30.8297 12.743 30.87 12.5693 31.0934Z" fill="black"/>
<path id="Vector_6" d="M14.2382 19.2976C14.5213 19.2976 14.7508 19.0681 14.7508 18.785C14.7508 18.502 14.5213 18.2725 14.2382 18.2725C13.9551 18.2725 13.7256 18.502 13.7256 18.785C13.7256 19.0681 13.9551 19.2976 14.2382 19.2976Z" fill="black"/>
<path id="Vector_7" d="M21.7616 19.2976C22.0447 19.2976 22.2742 19.0681 22.2742 18.785C22.2742 18.5019 22.0447 18.2724 21.7616 18.2724C21.4785 18.2724 21.249 18.5019 21.249 18.785C21.249 19.0681 21.4785 19.2976 21.7616 19.2976Z" fill="black"/>
</g>
</g>
<defs>
<clipPath id="clip0_28547_670">
<rect width="35" height="35" fill="white" transform="translate(0.5 0.696289)"/>
</clipPath>
</defs>
</svg>
