<svg xmlns="http://www.w3.org/2000/svg" width="30" height="29" viewBox="0 0 30 29" fill="none">
  <path d="M17.3933 21.0381L17.3933 21.5094C17.3933 23.0843 16.1166 24.361 14.5417 24.361L9.23097 24.361C4.95617 24.361 1.49076 20.8956 1.49076 16.6208L1.49076 12.3653C1.49076 10.6997 2.15244 9.10223 3.33023 7.92444V7.92444C4.50803 6.74664 6.10546 6.08496 7.77112 6.08496L12.943 6.08496C13.9589 6.08496 14.7825 6.90852 14.7825 7.92444V7.92444C14.7825 8.94035 13.9589 9.76391 12.943 9.76391L10.6288 9.76391M14.7825 21.0381L16.8593 21.0381C17.8097 21.0381 18.5801 20.2677 18.5801 19.3173V19.3173V19.3173C18.5801 18.3669 17.8096 17.5965 16.8593 17.5965L15.7319 17.5965" stroke="black" stroke-width="1.5"/>
  <path d="M16.2075 13.7998L26.7696 13.7998C27.8838 13.7998 28.7871 12.8965 28.7871 11.7823V11.7823C28.7871 10.6681 27.8838 9.76483 26.7696 9.76483L12.6472 9.76482" stroke="black" stroke-width="1.5"/>
  <path d="M16.6202 17.5967L17.6324 17.5967C18.6811 17.5967 19.5313 16.7466 19.5313 15.6979V15.6979C19.5313 14.6492 18.6811 13.7991 17.6324 13.7991L15.2589 13.7991" stroke="black" stroke-width="1.5"/>
</svg>