<svg width="45" height="45" viewBox="0 0 45 45" fill="none" xmlns="http://www.w3.org/2000/svg">
<g clip-path="url(#clip0_27193_511)">
<path d="M6.44932 34.5357L8.08622 30.3447L13.8154 27.8302L17.9077 31.1829M14.6338 34.5357L20.1584 29.5065M21.9999 19.4482L19.5446 25.3156L21.9999 27.8302L20.1584 29.5065M21.9999 19.4482H26.0922M21.9999 19.4482L12.9969 11.0663M26.0922 19.4482L29.366 15.2573M26.0922 19.4482L34.2767 16.9337L33.4582 15.2573L35.0952 14.4191V9.38992L30.1844 3.52258M29.366 15.2573L28.5475 12.7427L29.366 11.0663M29.366 15.2573L21.1815 11.0663L25.2737 1.84619M41.6428 14.4191L37.5505 21.1246V27.8302L40.8243 33.6975M37.5505 23.6392L31.0029 29.5065L31.8213 32.8593M31.8213 32.8593L37.5505 33.6975M31.8213 32.8593L27.7291 36.2121M20.1584 29.5065L27.7291 36.2121M27.7291 36.2121L31.8213 42.0794M27.7291 36.2121L19.5446 38.7267L17.9077 42.9176M11.36 6.87535L12.9969 11.0663M12.9969 11.0663L8.08622 19.9839L10.5416 23.6392L2.35706 26.992" stroke="black" stroke-width="0.65"/>
</g>
<defs>
<clipPath id="clip0_27193_511">
<rect width="45" height="45" fill="white"/>
</clipPath>
</defs>
</svg>
