<svg width="36" height="36" viewBox="0 0 36 36" fill="none" xmlns="http://www.w3.org/2000/svg">
<circle cx="18.3028" cy="17.841" r="17.4312" fill="white"/>
<path d="M19.4083 10.4522C19.5635 10.297 19.5635 10.0453 19.4083 9.8901L16.8791 7.36087C16.7239 7.20566 16.4722 7.20566 16.317 7.36087C16.1618 7.51607 16.1618 7.76771 16.317 7.92292L18.5652 10.1711L16.317 12.4193C16.1618 12.5745 16.1618 12.8262 16.317 12.9814C16.4722 13.1366 16.7239 13.1366 16.8791 12.9814L19.4083 10.4522ZM9.63596 19.6179C9.63596 14.637 13.868 10.5686 19.1273 10.5686L19.1273 9.7737C13.4637 9.7737 8.84109 14.1642 8.84109 19.6179L9.63596 19.6179Z" fill="black"/>
<path d="M17.3245 24.915C17.1693 25.0702 17.1693 25.3219 17.3245 25.4771L19.8537 28.0063C20.0089 28.1615 20.2606 28.1615 20.4158 28.0063C20.571 27.8511 20.571 27.5995 20.4158 27.4443L18.1676 25.1961L20.4158 22.9478C20.571 22.7926 20.571 22.541 20.4158 22.3858C20.2606 22.2306 20.0089 22.2306 19.8537 22.3858L17.3245 24.915ZM27.0968 15.7493C27.0968 20.7302 22.8647 24.7986 17.6055 24.7986L17.6055 25.5935C23.2691 25.5935 27.8917 21.203 27.8917 15.7493L27.0968 15.7493Z" fill="black"/>
</svg>
