<svg width="36" height="36" viewBox="0 0 36 36" fill="none" xmlns="http://www.w3.org/2000/svg">
<circle cx="18.104" cy="18.3365" r="17.4312" fill="white"/>
<path d="M19.2096 10.9478C19.3648 10.7926 19.3648 10.5409 19.2096 10.3857L16.6803 7.85647C16.5251 7.70127 16.2735 7.70127 16.1183 7.85647C15.9631 8.01168 15.9631 8.26332 16.1183 8.41853L18.3665 10.6667L16.1183 12.9149C15.9631 13.0702 15.9631 13.3218 16.1183 13.477C16.2735 13.6322 16.5251 13.6322 16.6803 13.477L19.2096 10.9478ZM9.43723 20.1135C9.43723 15.1326 13.6693 11.0642 18.9285 11.0642L18.9285 10.2693C13.265 10.2693 8.64236 14.6598 8.64236 20.1135L9.43723 20.1135Z" fill="black"/>
<path d="M17.1258 25.4106C16.9706 25.5658 16.9706 25.8175 17.1258 25.9727L19.655 28.5019C19.8102 28.6571 20.0618 28.6571 20.217 28.5019C20.3723 28.3467 20.3723 28.0951 20.217 27.9399L17.9688 25.6917L20.217 23.4435C20.3723 23.2882 20.3723 23.0366 20.217 22.8814C20.0618 22.7262 19.8102 22.7262 19.655 22.8814L17.1258 25.4106ZM26.8981 16.2449C26.8981 21.2258 22.666 25.2942 17.4068 25.2942L17.4068 26.0891C23.0704 26.0891 27.693 21.6986 27.693 16.2449L26.8981 16.2449Z" fill="black"/>
</svg>
