<svg width="82" height="30" viewBox="0 0 82 30" fill="none" xmlns="http://www.w3.org/2000/svg">
<g id="elle" clip-path="url(#clip0_21178_3396)">
<g id="Group">
<path id="Vector" d="M30.1595 28.7591H28.7573V0.391004H30.9416V0.0134817H23.108V0.391004H25.2922V28.7591H23.108V29.1231H35.5527V21.4783H35.1887C35.1078 26.5209 33.0044 28.7591 30.1595 28.7591ZM53.2423 28.7591H51.8401V0.391004H54.0243V0.0134817H46.1907V0.391004H48.375V28.7591H46.1907V29.1231H58.6355V21.4783H58.2715C58.204 26.5209 56.0872 28.7591 53.2423 28.7591ZM6.95542 28.7591H5.79589V14.4941H6.29476C8.2363 14.4941 9.26101 16.557 9.26101 19.6986H9.5846V8.69649H9.26101C9.26101 11.3796 8.35765 14.1166 6.29476 14.1166H5.79589V0.391004H7.27901C9.5846 0.391004 12.1059 2.25165 12.1059 7.21337H12.4295V0.0134817H0.429688V0.391004H2.33078V28.7591H0.429688V29.1231H12.4699V21.5188H12.1464C12.1464 26.885 9.4228 28.7591 6.95542 28.7591ZM80.9902 21.5053C80.9902 26.885 78.2666 28.7456 75.7993 28.7456H74.6397V14.4807H75.1386C77.0801 14.4807 78.1048 16.5436 78.1048 19.6851H78.4419V8.683H78.1048C78.1048 11.3661 77.2015 14.1031 75.1386 14.1031H74.6397V0.37752H76.1228C78.4419 0.37752 80.9497 2.23817 80.9497 7.19988H81.2868V0H69.2735V0.37752H71.1746V28.7456H69.2735V29.1096H81.3138V21.5053H80.9902Z" fill="#C9C9C9"/>
</g>
</g>
<defs>
<clipPath id="clip0_21178_3396">
<rect width="80.6487" height="29.1231" fill="white" transform="translate(0.429688)"/>
</clipPath>
</defs>
</svg>
