<svg xmlns="http://www.w3.org/2000/svg" width="70" height="30" viewBox="0 0 70 30" fill="none">
  <g clip-path="url(#clip0_20314_3534)">
    <g opacity="0.3">
      <path fill-rule="evenodd" clip-rule="evenodd" d="M0.164062 28.5721H2.29141V1.39587H0.164062V0.982666H11.6581V8.3886H11.3088C11.3088 8.3886 11.2771 4.09761 9.87999 2.69906C8.67344 1.52301 7.68914 1.39587 5.6253 1.39587V14.396C5.6253 14.396 7.05412 14.4913 7.75265 13.7921C8.86395 12.7114 8.9592 11.3128 8.9592 9.37393H9.34022V19.863H8.9592C8.9592 17.9241 8.83219 16.5256 7.75265 15.4449C7.05412 14.7456 5.6253 14.841 5.6253 14.841V28.5404C7.68914 28.5404 8.9592 28.445 10.1658 27.2372C11.5946 25.8386 11.5946 21.5476 11.5946 21.5476H11.9438V28.9853H0.164062V28.5721ZM25.3113 28.5721V1.39587H27.2481V0.982666H19.85V1.36409H21.9774V28.6039H19.85V29.0171H31.6298V21.5794H31.2805C31.2805 21.5794 31.2488 25.8704 29.8517 27.2689C28.6451 28.445 27.3751 28.5721 25.3113 28.5721ZM44.235 1.39587V28.5721C46.2988 28.5721 47.5689 28.445 48.7754 27.2689C50.1725 25.8704 50.2042 21.5794 50.2042 21.5794H50.5535V29.0171H38.7737V28.6039H40.9011V1.36409H38.7737V0.982666H46.1718V1.39587H44.235ZM58.1738 28.5721H60.3012V1.39587H58.1738V0.982666H69.6678V8.3886H69.3186C69.3186 8.3886 69.2868 4.09761 67.8897 2.69906C66.6832 1.52301 65.6989 1.39587 63.635 1.39587V14.396C63.635 14.396 65.0639 14.4913 65.7624 13.7921C66.8737 12.7114 66.9689 11.3128 66.9689 9.37393H67.35V19.863H66.9689C66.9689 17.9241 66.8419 16.5256 65.7624 15.4449C65.0639 14.7456 63.635 14.841 63.635 14.841V28.5404C65.6989 28.5404 66.9689 28.445 68.1755 27.2372C69.6043 25.8386 69.6043 21.5476 69.6043 21.5476H69.9536V28.9853H58.1738V28.5721Z" fill="black"/>
    </g>
  </g>
  <defs>
    <clipPath id="clip0_20314_3534">
      <rect width="70" height="30" fill="white"/>
    </clipPath>
  </defs>
</svg>