<svg xmlns="http://www.w3.org/2000/svg" width="27" height="24" viewBox="0 0 27 24" fill="none">
  <path d="M0.664062 22.9073V9.92236L8.39916 15.6841M0.664062 22.9073H25.756M0.664062 22.9073C3.68481 20.0865 5.37842 18.5049 8.39916 15.6841M0.664062 22.9073L8.39916 15.6841M25.756 22.9073V9.92236L17.9037 15.6841M25.756 22.9073L17.9037 15.6841M8.39916 15.6841L13.1157 19.1973L17.9037 15.6841" stroke="white"/>
  <path d="M20.6616 13.6323V4.50623C20.6616 3.70686 20.0136 3.05884 19.2142 3.05884H6.6388C5.83943 3.05884 5.19141 3.70686 5.19141 4.50623V13.2613" stroke="white"/>
  <path d="M0.664062 9.73689L5.11344 6.3979M25.9446 9.73689L20.6621 5.94504M9.56282 3.05891L11.6072 1.5247C12.45 0.892221 13.6058 0.879968 14.4619 1.49444L16.6414 3.05891" stroke="white"/>
  <path fill-rule="evenodd" clip-rule="evenodd" d="M11.0713 8.68858C11.0713 8.31932 11.1042 7.92416 11.1701 7.60997C11.3216 6.86498 11.6642 6.12971 12.4252 5.8803C13.2389 5.6147 14.0295 6.0293 14.4051 6.7095C14.5368 6.94919 14.6818 7.29578 14.7213 7.57434C14.8333 8.37115 14.8663 9.18416 14.7049 9.97773C14.5764 10.6094 14.359 11.1308 13.8088 11.4871C13.6144 11.6135 13.374 11.6977 13.1302 11.7236C12.9457 11.743 12.7612 11.743 12.5833 11.7074C11.6115 11.5163 11.203 10.4118 11.1273 9.54046C11.1009 9.24894 11.0779 8.9801 11.0779 8.68534L11.0713 8.68858ZM9.7832 8.76956C9.7832 9.27809 9.8985 9.68945 10.0566 10.049C10.0764 10.0943 10.0995 10.1364 10.1225 10.1753C10.2082 10.3437 10.2345 10.3859 10.3399 10.5446C10.4355 10.6871 10.5771 10.8588 10.6957 10.9786C11.1108 11.3867 11.6478 11.688 12.2243 11.8078C12.781 11.9244 13.1302 11.9309 13.6869 11.7949C14.0658 11.7009 14.4677 11.5357 14.7872 11.3219C14.8663 11.2701 14.942 11.2118 15.0145 11.1535C15.0508 11.1244 15.0837 11.0985 15.1166 11.0628C15.1562 11.024 15.1858 11.0045 15.2254 10.9689C15.2616 10.9333 15.2814 10.9041 15.3176 10.8685C15.5218 10.6677 15.7491 10.2919 15.8546 10.0328C15.9633 9.76719 16.0687 9.3947 16.095 9.09346C16.1049 8.9801 16.1247 8.85377 16.1247 8.73069C16.1247 8.51043 16.0753 8.23835 16.0259 8.05372C15.983 7.88205 15.8908 7.63264 15.815 7.47716C15.6371 7.13058 15.4461 6.84231 15.1628 6.56051C15.0409 6.44066 14.8729 6.30138 14.7345 6.20745C14.3985 5.98395 14.0196 5.81876 13.621 5.73454C12.7843 5.55963 12.0892 5.67948 11.3678 6.06817C11.1668 6.17506 11.0713 6.25603 10.9066 6.38883C10.7748 6.49248 10.7122 6.56698 10.6068 6.67711L10.5178 6.78076C10.4585 6.85526 10.4025 6.92328 10.3498 7.00426C9.98415 7.54518 9.7832 8.10231 9.7832 8.76956Z" fill="#C7E7DC"/>
  <path fill-rule="evenodd" clip-rule="evenodd" d="M12.9705 14.2238C12.9705 14.3923 12.9409 14.3631 13.1253 14.3631C13.1747 14.3631 13.1517 14.2595 13.1682 14.1234C13.2143 13.7218 13.4284 13.3849 13.7414 13.1387C13.9357 12.9865 14.1564 12.8731 14.3969 12.7857C14.5419 12.7339 14.6802 12.6982 14.8384 12.6561C15.2666 12.5492 15.6883 12.533 16.133 12.533V11.2568C15.4182 11.2568 14.7033 11.5419 14.1597 11.9791C14.0642 12.0536 13.8962 12.2059 13.8171 12.2966C13.7974 12.3225 13.7941 12.329 13.771 12.3516C13.6755 12.4488 13.5174 12.6723 13.4416 12.7824C13.3889 12.8634 13.3461 12.9412 13.2999 13.0254C13.1187 13.3428 12.9771 13.8546 12.9771 14.2238H12.9705Z" fill="#C7E7DC"/>
</svg>