<svg width="30" height="25" viewBox="0 0 30 25" fill="none" xmlns="http://www.w3.org/2000/svg">
<g id="email">
<path id="Subtract" fill-rule="evenodd" clip-rule="evenodd" d="M1.35981 4.20328L12.1202 14.9636C13.6237 16.4671 16.0614 16.4671 17.5649 14.9636L28.698 3.8305C29.2024 4.52354 29.5 5.37682 29.5 6.29961V18.1996C29.5 20.5192 27.6196 22.3996 25.3 22.3996H5.00005C2.68045 22.3996 0.800049 20.5192 0.800049 18.1996V6.29961C0.800049 5.53612 1.00377 4.82022 1.35981 4.20328ZM2.82957 2.70319C3.46299 2.32009 4.20577 2.09961 5.00005 2.09961H25.3001C25.9321 2.09961 26.5316 2.23924 27.0693 2.48934L16.0799 13.4787C15.3965 14.1621 14.2885 14.1621 13.6051 13.4787L2.82957 2.70319Z" fill="black"/>
</g>
</svg>
