<svg xmlns="http://www.w3.org/2000/svg" width="69" height="61" viewBox="0 0 69 61" fill="none">
  <path d="M1 60.5V25.5L21.5 41.0303M1 60.5H67.5M1 60.5C9.00575 52.8966 13.4943 48.6337 21.5 41.0303M1 60.5L21.5 41.0303M67.5 60.5V25.5L46.6894 41.0303M67.5 60.5L46.6894 41.0303M21.5 41.0303L34 50.5L46.6894 41.0303" stroke="#414141" stroke-width="0.8"/>
  <path d="M54 35.5V10C54 8.34315 52.6569 7 51 7H16C14.3431 7 13 8.34315 13 10V34.5" stroke="#414141" stroke-width="0.8"/>
  <path d="M1 25L12.792 16M68 25L54 14.7794M24.584 7L30.7885 2.26456C32.5484 0.921347 34.9821 0.89542 36.7702 2.20083L43.344 7" stroke="#414141" stroke-width="0.8"/>
  <path fill-rule="evenodd" clip-rule="evenodd" d="M28.5812 22.1741C28.5812 21.1788 28.6685 20.1136 28.8431 19.2668C29.2447 17.2587 30.1527 15.2768 32.1695 14.6046C34.326 13.8887 36.4213 15.0062 37.4166 16.8396C37.7659 17.4857 38.15 18.4199 38.2548 19.1707C38.5516 21.3185 38.6389 23.5099 38.2111 25.6489C37.8706 27.3514 37.2944 28.757 35.8364 29.7174C35.3213 30.0579 34.6839 30.2849 34.0379 30.3547C33.5489 30.4071 33.06 30.4071 32.5886 30.3111C30.013 29.796 28.9304 26.8188 28.7296 24.4702C28.6598 23.6845 28.5986 22.9598 28.5986 22.1653L28.5812 22.1741ZM25.1675 22.3923C25.1675 23.7631 25.4731 24.8719 25.8921 25.841C25.9445 25.9632 26.0056 26.0767 26.0667 26.1815C26.2937 26.6355 26.3636 26.749 26.643 27.1768C26.8962 27.5609 27.2716 28.0236 27.5859 28.3467C28.6859 29.4467 30.1091 30.2587 31.6369 30.5817C33.1124 30.896 34.0379 30.9135 35.5133 30.5468C36.5174 30.2936 37.5825 29.8483 38.4294 29.2721C38.6389 29.1324 38.8397 28.9753 39.0318 28.8181C39.1279 28.7396 39.2152 28.6697 39.3025 28.5737C39.4072 28.4689 39.4858 28.4165 39.5906 28.3205C39.6866 28.2244 39.739 28.1459 39.835 28.0498C40.3763 27.5085 40.9788 26.4958 41.2581 25.7973C41.5463 25.0814 41.8256 24.0774 41.8955 23.2654C41.9217 22.9598 41.9741 22.6193 41.9741 22.2876C41.9741 21.6939 41.8431 20.9605 41.7121 20.4629C41.5986 20.0001 41.3542 19.3279 41.1534 18.9088C40.6819 17.9746 40.1755 17.1976 39.4247 16.438C39.1017 16.115 38.6564 15.7396 38.2897 15.4864C37.3992 14.8839 36.3951 14.4387 35.3387 14.2117C33.1211 13.7402 31.279 14.0633 29.3669 15.1109C28.8344 15.3991 28.5812 15.6173 28.1446 15.9753C27.7954 16.2547 27.6295 16.4555 27.3502 16.7523L27.1144 17.0317C26.9573 17.2325 26.8088 17.4158 26.6692 17.6341C25.7001 19.0921 25.1675 20.5938 25.1675 22.3923Z" fill="#C7E7DC"/>
  <path fill-rule="evenodd" clip-rule="evenodd" d="M33.6179 37.0945C33.6179 37.5485 33.5394 37.4699 34.0283 37.4699C34.1592 37.4699 34.0981 37.1905 34.1418 36.8238C34.264 35.7412 34.8315 34.8332 35.6609 34.1697C36.176 33.7594 36.761 33.4538 37.3983 33.2181C37.7825 33.0784 38.1492 32.9823 38.5682 32.8688C39.7032 32.5807 40.8207 32.5371 41.9994 32.5371V29.0972C40.1048 29.0972 38.2103 29.8655 36.7697 31.0441C36.5165 31.2449 36.0713 31.6553 35.8617 31.8997C35.8093 31.9696 35.8006 31.987 35.7395 32.0481C35.4863 32.3101 35.0672 32.9125 34.8664 33.2093C34.7267 33.4276 34.6132 33.6371 34.491 33.8641C34.0108 34.7197 33.6354 36.0992 33.6354 37.0945H33.6179Z" fill="#C7E7DC"/>
</svg>