<svg xmlns="http://www.w3.org/2000/svg" width="45" height="46" viewBox="0 0 45 46" fill="none">
                                            <path d="M41.0379 11.4471V15.6351M4.91441 15.6351V11.4471M35.4457 12.286L39.7821 11.8193M10.7591 12.286L6.42736 11.8555M22.9925 35.9568C22.5281 35.9568 22.0768 35.9189 21.6517 35.8369C15.0523 34.5818 13.8815 30.0722 13.6853 28.1926C13.6395 27.7764 13.2798 27.4547 12.8416 27.4547H11.5858C11.4615 27.4547 11.3438 27.4042 11.2653 27.3096L10.9056 26.8934C10.7682 26.7357 10.7747 26.5086 10.9186 26.3636C11.0625 26.2122 11.3045 25.8085 11.3045 24.8057C11.3045 24.0299 9.95064 22.8757 7.58296 21.6395C7.00085 21.3368 6.74577 20.6808 6.96815 20.0879L7.67452 18.1895C7.83804 17.748 8.27626 17.4516 8.76026 17.4516C8.81258 17.4516 8.85837 17.4516 8.91069 17.4579C12.3837 17.8867 18.4141 18.3913 20.1801 18.5364C20.2389 18.5364 20.2847 18.5175 20.3174 18.4859C20.3501 18.4544 20.3697 18.4102 20.3632 18.3598C20.3632 18.2715 20.2716 18.2021 20.1735 18.2021C15.6278 18.1516 6.07863 17.1047 4.72473 16.8902C3.83522 16.7452 3.21387 16.0261 3.21387 15.181V11.6742C3.21387 10.3497 4.09684 10.2488 4.365 10.2488C4.44349 10.2488 4.49582 10.2551 4.49582 10.2551C11.383 11.3904 18.6692 11.5165 21.4816 11.5165C22.4366 11.5165 22.986 11.5039 22.986 11.5039C22.9925 11.5039 23.5419 11.5165 24.4968 11.5165C27.3093 11.5165 34.5954 11.3967 41.4826 10.2551C41.4826 10.2551 41.535 10.2488 41.6135 10.2488C41.8816 10.2488 42.7646 10.3497 42.7646 11.6742V15.181C42.7646 16.0198 42.1432 16.7388 41.293 16.8776C39.8998 17.092 30.331 18.1453 25.7919 18.1958C25.7395 18.1958 25.6938 18.221 25.6611 18.2526C25.6283 18.2904 25.6153 18.3346 25.6218 18.385C25.6349 18.467 25.7134 18.5301 25.8049 18.5301C27.0673 18.4292 33.4574 17.8994 37.0743 17.4516C37.1266 17.4516 37.1724 17.4452 37.2248 17.4452C37.7088 17.4452 38.1404 17.7417 38.3105 18.1832L39.0169 20.0816C39.2392 20.6808 38.9842 21.3305 38.402 21.6332C37.7676 21.9675 37.192 22.3018 36.695 22.6234C36.6492 22.6487 33.719 24.1813 32.594 27.3727C32.5483 27.5115 32.4894 27.6439 32.4305 27.7764C32.3717 27.9088 32.3128 28.0854 32.3063 28.18C32.2932 28.3251 32.2735 28.4765 32.2408 28.6468L32.2081 28.8486C31.8026 30.9741 30.246 34.7016 24.3333 35.8306C23.9147 35.9126 23.47 35.9504 23.0056 35.9504H22.9925V35.9568Z" stroke="#414141" stroke-width="0.803374"/>
                                        </svg>