<svg xmlns="http://www.w3.org/2000/svg" width="45" height="45" viewBox="0 0 45 45"
                                        fill="none">
                                        <path fill-rule="evenodd" clip-rule="evenodd"
                                            d="M12.4931 33.867C6.73208 25.1673 4.87558 4.89563 22.325 4.6875C39.7744 4.89563 37.9179 25.1673 32.1486 33.867C26.5542 42.317 18.0958 42.317 12.4931 33.867Z"
                                            fill="#C7E7DC" stroke="#414141" stroke-miterlimit="2.61313"
                                            stroke-linecap="round" stroke-linejoin="round" />
                                        <path fill-rule="evenodd" clip-rule="evenodd"
                                            d="M21.2111 10.0094C21.2111 9.70384 21.2379 9.37685 21.2915 9.11686C21.4148 8.5004 21.6936 7.89198 22.3127 7.6856C22.9748 7.46582 23.618 7.80889 23.9236 8.37175C24.0308 8.57009 24.1487 8.85688 24.1809 9.08738C24.272 9.74673 24.2988 10.4195 24.1675 11.0761C24.0629 11.5988 23.886 12.0303 23.4384 12.3251C23.2803 12.4297 23.0846 12.4994 22.8863 12.5208C22.7362 12.5369 22.5861 12.5369 22.4414 12.5074C21.6507 12.3493 21.3183 11.4353 21.2567 10.7143C21.2353 10.4731 21.2165 10.2506 21.2165 10.0067L21.2111 10.0094ZM20.1631 10.0764C20.1631 10.4972 20.257 10.8376 20.3856 11.1351C20.4017 11.1726 20.4205 11.2075 20.4392 11.2396C20.5089 11.379 20.5303 11.4139 20.6161 11.5452C20.6938 11.6631 20.8091 11.8052 20.9056 11.9043C21.2433 12.2421 21.6802 12.4913 22.1492 12.5905C22.6022 12.687 22.8863 12.6923 23.3393 12.5798C23.6475 12.502 23.9745 12.3654 24.2345 12.1885C24.2988 12.1456 24.3605 12.0973 24.4194 12.0491C24.4489 12.025 24.4757 12.0035 24.5025 11.974C24.5347 11.9419 24.5588 11.9258 24.591 11.8963C24.6204 11.8668 24.6365 11.8427 24.666 11.8132C24.8322 11.647 25.0171 11.3361 25.1029 11.1217C25.1913 10.9019 25.2771 10.5937 25.2985 10.3444C25.3066 10.2506 25.3227 10.1461 25.3227 10.0442C25.3227 9.86198 25.2825 9.63684 25.2423 9.48406C25.2074 9.34201 25.1324 9.13563 25.0707 9.00697C24.926 8.72018 24.7705 8.48164 24.54 8.24846C24.4409 8.14929 24.3042 8.03403 24.1916 7.95631C23.9182 7.77137 23.61 7.63467 23.2857 7.56499C22.6049 7.42025 22.0393 7.51942 21.4524 7.84105C21.2889 7.9295 21.2111 7.99651 21.0771 8.1064C20.9699 8.19217 20.919 8.25382 20.8332 8.34495L20.7608 8.43071C20.7126 8.49236 20.667 8.54865 20.6242 8.61565C20.3266 9.06326 20.1631 9.52427 20.1631 10.0764Z"
                                            fill="#414141" />
                                        <path fill-rule="evenodd" clip-rule="evenodd"
                                            d="M22.7576 14.5899C22.7576 14.7293 22.7335 14.7051 22.8836 14.7051C22.9238 14.7051 22.905 14.6194 22.9184 14.5068C22.9559 14.1745 23.1301 13.8957 23.3848 13.692C23.5429 13.566 23.7225 13.4722 23.9181 13.3999C24.0361 13.357 24.1487 13.3275 24.2773 13.2926C24.6257 13.2042 24.9688 13.1908 25.3307 13.1908V12.1348C24.749 12.1348 24.1674 12.3706 23.7252 12.7325C23.6474 12.7941 23.5107 12.9201 23.4464 12.9951C23.4303 13.0166 23.4277 13.0219 23.4089 13.0407C23.3312 13.1211 23.2025 13.306 23.1409 13.3972C23.098 13.4642 23.0631 13.5285 23.0256 13.5982C22.8782 13.8609 22.763 14.2843 22.763 14.5899H22.7576Z"
                                            fill="#414141" />
                                        <path fill-rule="evenodd" clip-rule="evenodd"
                                            d="M24.223 18.6158C24.223 18.6158 24.223 16.9674 26.6873 16.2348C29.1515 15.5022 32.8978 15.7769 32.8728 17.6501C32.8478 19.5316 29.2764 21.0967 27.1535 21.0218C25.0306 20.9552 24.223 19.0737 24.223 18.6158Z"
                                            fill="white" stroke="#414141" stroke-miterlimit="2.61313"
                                            stroke-linecap="round" stroke-linejoin="round" />
                                        <path fill-rule="evenodd" clip-rule="evenodd"
                                            d="M22.3249 34.458C22.3249 34.458 17.4714 34.2249 16.1393 30.9032C16.1393 30.9032 17.6878 29.3464 19.4361 29.6628C21.1927 29.9875 21.559 30.2872 22.3249 30.2372C23.0908 30.2872 23.4571 29.9875 25.2054 29.6628C26.9536 29.3464 28.5104 30.9032 28.5104 30.9032C27.1784 34.2249 22.3249 34.458 22.3249 34.458Z"
                                            fill="white" stroke="#414141" stroke-miterlimit="2.61313"
                                            stroke-linecap="round" stroke-linejoin="round" />
                                        <path d="M18.6702 25.3086C21.6089 26.7155 23.0408 26.7155 25.9796 25.3086"
                                            stroke="#414141" stroke-miterlimit="2.61313" stroke-linecap="round"
                                            stroke-linejoin="round" />
                                        <path fill-rule="evenodd" clip-rule="evenodd"
                                            d="M20.4269 18.6158C20.4269 18.6158 20.4269 16.9674 17.9627 16.2348C15.4985 15.5022 11.7522 15.7769 11.7772 17.6501C11.8021 19.5316 15.3736 21.0967 17.4965 21.0218C19.6111 20.9552 20.4269 19.0737 20.4269 18.6158Z"
                                            fill="white" stroke="#414141" stroke-miterlimit="2.61313"
                                            stroke-linecap="round" stroke-linejoin="round" />
                                    </svg>