<svg xmlns="http://www.w3.org/2000/svg" width="45" height="45" viewBox="0 0 45 45" fill="none">
  <path d="M24.9734 27.3854L24.9734 26.8604L25.4305 26.8604L25.4367 26.8542C25.3749 26.8233 25.3131 26.7862 25.2514 26.743C25.1896 26.6998 25.134 26.6504 25.0846 26.5948C25.0352 26.5392 24.9919 26.4712 24.9611 26.3971C24.9302 26.323 24.9116 26.2427 24.9116 26.15C24.9116 25.9647 24.9796 25.8227 25.1093 25.7239C25.239 25.625 25.412 25.5818 25.6281 25.5818L27.0611 25.5818L27.0611 26.1315L25.659 26.1315C25.5355 26.1315 25.4367 26.1624 25.3687 26.218C25.3008 26.2736 25.2637 26.3601 25.2637 26.4651C25.2637 26.5577 25.2884 26.6318 25.3378 26.6936C25.3872 26.7554 25.4428 26.8048 25.517 26.8418L27.0611 26.8418L27.0611 27.3916L24.9796 27.3916L24.9734 27.3854ZM27.0858 31.1223L27.0858 31.0358L27.1167 31.0358L27.1167 31.252L27.0858 31.252L27.0858 31.1655L26.8573 31.1655L26.8573 31.1284L27.0858 31.1284L27.0858 31.1223ZM26.8573 31.5299L27.0488 31.5299L26.8944 31.4373L26.8944 31.4187L27.0488 31.3261L26.8635 31.3261L26.8635 31.289L27.1229 31.289L27.1229 31.3199L26.9376 31.4311L27.1229 31.5361L27.1229 31.567L26.8635 31.567L26.8635 31.5299L26.8573 31.5299ZM27.0735 28.8245C27.0364 28.7566 26.9932 28.6887 26.9438 28.6331C26.8944 28.5713 26.8388 28.5157 26.777 28.4663C26.7214 28.4169 26.672 28.3736 26.6288 28.3366L27.0549 28.3366L27.0549 27.7869L25.8629 27.7869L24.9734 27.7869L24.9734 28.3428L26.5361 28.3428C26.5855 28.386 26.6226 28.4231 26.6535 28.4663C26.6782 28.5095 26.6967 28.5466 26.6967 28.5836C26.6967 28.6084 26.6905 28.6392 26.6843 28.6763C26.672 28.7134 26.6596 28.7504 26.6473 28.7937C26.6288 28.8307 26.6102 28.8678 26.5917 28.9048C26.567 28.9419 26.5423 28.9728 26.5176 28.9913L26.5176 29.0345L27.1352 29.0345C27.1352 28.9542 27.1229 28.8987 27.0858 28.8307L27.0735 28.8245ZM24.5596 25.2977C24.5596 25.0753 24.541 24.8653 24.504 24.68C24.4669 24.4885 24.4113 24.3279 24.331 24.192C24.2507 24.0562 24.1519 23.945 24.0284 23.8647C23.9049 23.7844 23.7628 23.7473 23.5898 23.7473L23.5898 23.6547C23.6146 23.6547 23.6269 23.6547 23.6269 23.6547C23.8307 23.6609 24.0284 23.7041 24.2137 23.7782C24.4113 23.8647 24.5905 23.982 24.7387 24.1303C24.8931 24.2785 25.0105 24.4515 25.1031 24.6491C25.1958 24.8468 25.239 25.063 25.239 25.2977L24.5534 25.2977L24.5596 25.2977ZM24.9981 23.6423C24.9981 23.8153 25.0352 23.9573 25.1155 24.0809C25.1958 24.2044 25.3008 24.3032 25.4428 24.3835C25.5787 24.4638 25.7455 24.5194 25.937 24.5565C26.1284 24.5935 26.3323 24.6121 26.5608 24.6121C26.7832 24.6121 26.9932 24.5935 27.1847 24.5565C27.3761 24.5194 27.5367 24.4638 27.6788 24.3835C27.8147 24.3032 27.9259 24.2044 28.0061 24.0809C28.0864 23.9573 28.1235 23.8153 28.1235 23.6423C28.1235 23.4694 28.0864 23.3273 28.0061 23.2038C27.9259 23.0803 27.8147 22.9814 27.6788 22.9011C27.5367 22.8208 27.3761 22.7652 27.1847 22.7282C26.9932 22.6911 26.7893 22.6726 26.567 22.6726C26.3446 22.6726 26.1408 22.6911 25.9493 22.7282C25.7578 22.7652 25.5973 22.8208 25.4552 22.9011C25.3193 22.9814 25.2081 23.0803 25.1278 23.2038C25.0475 23.3273 25.0105 23.4694 25.0105 23.6423L24.9981 23.6423ZM24.9116 23.5188C24.924 23.3458 24.9672 23.1729 25.0352 23.0185C25.1217 22.8208 25.239 22.6417 25.3872 22.4935C25.5355 22.3452 25.7084 22.2217 25.9061 22.129C26.1037 22.0364 26.3199 21.9932 26.5546 21.9932C26.7832 21.9932 26.9994 22.0364 27.2032 22.129C27.4008 22.2217 27.58 22.3391 27.7282 22.4935C27.8764 22.6417 27.9938 22.8208 28.0803 23.0185C28.1667 23.2161 28.21 23.4261 28.21 23.6423C28.21 23.8585 28.1667 24.0685 28.0803 24.2662C27.9938 24.4638 27.8764 24.6429 27.7282 24.7912C27.58 24.9456 27.4008 25.063 27.2032 25.1556C27.0055 25.2483 26.7893 25.2915 26.5546 25.2915C26.3261 25.2915 26.1099 25.2483 25.9061 25.1556C25.7084 25.063 25.5293 24.9456 25.3872 24.7912C25.239 24.6368 25.1217 24.4638 25.0352 24.2662C24.9549 24.0809 24.9178 23.8832 24.9116 23.6794C24.9116 23.6794 24.9116 23.5744 24.9178 23.5126L24.9116 23.5188ZM26.3199 29.6275C26.4187 29.6337 26.5114 29.646 26.5979 29.6707C26.6843 29.6893 26.7585 29.7202 26.8264 29.7572C26.8943 29.7943 26.9438 29.8375 26.9808 29.8931C27.0179 29.9487 27.0364 30.0105 27.0364 30.0784C27.0364 30.1896 26.987 30.276 26.8944 30.3378C26.8017 30.3996 26.5793 30.4243 26.3693 30.4243L26.2334 30.4243L25.8752 29.6707C25.9802 29.6399 26.0914 29.6275 26.2334 29.6275L26.3199 29.6275ZM25.5787 30.9431C25.5108 30.8875 25.449 30.8072 25.3996 30.7146C25.3502 30.6158 25.3255 30.4984 25.3255 30.3625C25.3255 30.2575 25.344 30.1587 25.3749 30.066C25.4058 29.9734 25.4614 29.8993 25.5355 29.8313C25.6034 29.7696 25.6899 29.7263 25.7949 29.6893L26.3693 30.9493C26.3693 30.9493 26.5793 30.9431 26.8388 30.7517C26.9314 30.6837 26.987 30.5787 27.0426 30.4737C27.0982 30.3625 27.1229 30.239 27.1229 30.1031C27.1229 29.9734 27.0982 29.8437 27.0426 29.7202C26.987 29.5966 26.9129 29.4854 26.8079 29.3928C26.7091 29.3001 26.5855 29.2198 26.4496 29.1643C26.3076 29.1087 26.1532 29.0778 25.9802 29.0778C25.832 29.0778 25.6899 29.1025 25.5602 29.1519C25.4305 29.2013 25.3193 29.2693 25.2205 29.3557C25.1217 29.4422 25.0475 29.5472 24.9919 29.6707C24.9364 29.7943 24.9116 29.9302 24.9116 30.0846C24.9116 30.3193 24.9734 30.5169 25.0969 30.6652C25.2205 30.8134 25.3811 30.9184 25.5725 30.9802L25.5849 30.9555L25.5787 30.9431Z" fill="#414141"/>
  <path fill-rule="evenodd" clip-rule="evenodd" d="M21.7252 25.2734L21.7314 25.2734C21.7623 25.2981 21.7931 25.3166 21.8178 25.3352C21.8426 25.3475 21.8673 25.3599 21.892 25.3722C21.9167 25.3784 21.9476 25.3846 21.9723 25.3908C22.0031 25.3969 22.034 25.3969 22.0773 25.3969L23.0161 25.3969C23.047 25.3969 23.0717 25.3908 23.0902 25.3846C23.1149 25.3784 23.1335 25.3722 23.152 25.3599C23.1705 25.3475 23.1891 25.3352 23.2076 25.3167C23.2261 25.2981 23.2447 25.2796 23.2632 25.2549L23.2694 25.2549L23.2694 25.5575L21.997 26.132L23.2694 26.694L23.2694 26.9782L23.2632 26.9782C23.2446 26.9473 23.2199 26.9288 23.2014 26.9102C23.1829 26.8917 23.1582 26.8793 23.1396 26.867C23.1149 26.8546 23.0902 26.8485 23.0655 26.8423C23.0346 26.8361 23.0038 26.8361 22.9667 26.8361L22.0526 26.8361C22.0155 26.8361 21.9846 26.8361 21.9599 26.8423C21.9352 26.8423 21.9105 26.8485 21.8858 26.8546C21.8611 26.8608 21.8426 26.867 21.8178 26.8793C21.7931 26.8917 21.7684 26.904 21.7437 26.9226L21.7375 26.9226L21.7375 26.5829L21.7437 26.5829C21.7684 26.6014 21.7931 26.6137 21.8178 26.6261C21.8426 26.6385 21.8611 26.6446 21.8858 26.6508C21.9105 26.657 21.9352 26.6632 21.9599 26.6632C21.9846 26.6632 22.0217 26.6693 22.0526 26.6693L23.1026 26.6693L21.7746 26.0826L21.7746 26.0455L23.1088 25.4402L22.0773 25.4464C22.0402 25.4464 22.0031 25.4464 21.9723 25.4525C21.9414 25.4587 21.9167 25.4649 21.892 25.4772C21.8673 25.4896 21.8426 25.5019 21.8178 25.5205C21.7931 25.539 21.7623 25.5637 21.7314 25.5946L21.7252 25.5946L21.7252 25.2734ZM23.1088 27.3364C23.0779 27.3364 23.0532 27.3241 23.0346 27.3055C23.0161 27.287 23.0038 27.2623 23.0038 27.2314C23.0038 27.2005 23.0161 27.182 23.0346 27.1573C23.0532 27.1388 23.0779 27.1264 23.1088 27.1264C23.1396 27.1264 23.1582 27.1388 23.1829 27.1573C23.2014 27.1758 23.2138 27.2005 23.2138 27.2314C23.2138 27.2623 23.2014 27.2808 23.1829 27.3055C23.1644 27.3241 23.1396 27.3364 23.1088 27.3364ZM21.7314 27.1202C21.7746 27.1388 21.824 27.1511 21.8734 27.1573C21.9228 27.1635 21.9784 27.1696 22.0526 27.1696L22.4417 27.1696C22.4911 27.1696 22.5343 27.1573 22.5714 27.1388C22.6023 27.1202 22.6332 27.0955 22.6517 27.077L22.6579 27.077L22.769 27.3241L22.0526 27.3241C21.9784 27.3241 21.9167 27.3241 21.8734 27.3302C21.824 27.3364 21.7808 27.3488 21.7314 27.3673L21.7252 27.3673L21.7252 27.1202L21.7314 27.1202ZM21.9599 28.3803C21.8796 28.3494 21.8178 28.3061 21.7684 28.2382C21.719 28.1703 21.6943 28.09 21.6943 27.985C21.6943 27.917 21.7067 27.8553 21.7314 27.7997C21.7561 27.7441 21.787 27.6947 21.8302 27.6514C21.8734 27.6082 21.929 27.5773 21.9908 27.5588C22.0526 27.5341 22.1267 27.5279 22.2008 27.5279C22.2873 27.5279 22.3614 27.5402 22.4293 27.5711C22.4973 27.602 22.5529 27.6391 22.6023 27.6885C22.6517 27.7379 22.6888 27.7935 22.7135 27.8553C22.7382 27.917 22.7505 27.985 22.7505 28.0529C22.7505 28.1208 22.7443 28.1826 22.7258 28.2259C22.7135 28.2691 22.6949 28.3061 22.6888 28.3309L22.4726 28.3494L22.4664 28.3309C22.4973 28.3123 22.5282 28.2876 22.559 28.2691C22.5899 28.2444 22.6146 28.2197 22.6332 28.195C22.6517 28.1703 22.6702 28.1394 22.6826 28.1085C22.6949 28.0776 22.7011 28.0467 22.7011 28.0158C22.7011 27.9108 22.664 27.8305 22.5837 27.7688C22.5035 27.707 22.3984 27.6761 22.2564 27.6761C22.1205 27.6761 22.0155 27.707 21.9352 27.7688C21.8549 27.8305 21.8178 27.9232 21.8178 28.0406C21.8178 28.1023 21.8302 28.1579 21.8487 28.2135C21.8673 28.2691 21.9043 28.3185 21.9537 28.3556L21.9476 28.3679L21.9599 28.3803ZM21.7314 28.5717C21.7561 28.5841 21.7746 28.5903 21.7993 28.5965C21.824 28.6026 21.8426 28.6088 21.8734 28.6088C21.8981 28.6088 21.9228 28.615 21.9537 28.615C21.9846 28.615 22.0155 28.615 22.0526 28.615L22.4479 28.615C22.5035 28.615 22.5467 28.6026 22.5776 28.5841C22.6085 28.5656 22.6393 28.5409 22.6579 28.5223L22.664 28.5223L22.7752 28.757L22.522 28.757L22.522 28.7694C22.5467 28.7941 22.5714 28.8126 22.6023 28.8373C22.6332 28.862 22.6579 28.8868 22.6826 28.9176C22.7073 28.9423 22.7258 28.9732 22.7443 29.0041C22.7629 29.035 22.769 29.0659 22.769 29.1029L22.559 29.1029L22.559 29.0968C22.5652 29.0906 22.5714 29.0782 22.5776 29.0659C22.5837 29.0535 22.5899 29.035 22.5899 29.0226C22.5961 29.0041 22.5961 28.9918 22.6023 28.9732C22.6023 28.9609 22.6085 28.9423 22.6085 28.93C22.6085 28.9115 22.5961 28.8868 22.5714 28.8559C22.5467 28.825 22.5158 28.7941 22.4787 28.7694L22.0649 28.7694C21.9908 28.7694 21.929 28.7694 21.8858 28.7756C21.8364 28.7818 21.7931 28.7941 21.7437 28.8126L21.7375 28.8126L21.7375 28.5656L21.7437 28.5656L21.7314 28.5717ZM21.6943 29.7268C21.6943 29.6527 21.7067 29.5847 21.7375 29.5229C21.7684 29.4612 21.8055 29.4056 21.8549 29.3562C21.9043 29.3068 21.9599 29.2697 22.0217 29.245C22.0834 29.2141 22.1514 29.2018 22.2255 29.2018C22.2996 29.2018 22.3676 29.2141 22.4293 29.245C22.4911 29.2759 22.5529 29.3129 22.5961 29.3624C22.6455 29.4118 22.6826 29.4674 22.7135 29.5291C22.7443 29.5909 22.7567 29.6588 22.7567 29.733C22.7567 29.8071 22.7443 29.875 22.7135 29.9368C22.6826 29.9986 22.6455 30.0541 22.5961 30.1036C22.5467 30.153 22.4911 30.19 22.4293 30.2147C22.3676 30.2456 22.2934 30.258 22.2255 30.258C22.1514 30.258 22.0834 30.2456 22.0217 30.2147C21.9599 30.1838 21.9043 30.1468 21.8549 30.1036C21.8055 30.0541 21.7684 29.9986 21.7375 29.9368C21.7067 29.875 21.6943 29.8071 21.6943 29.733L21.6943 29.7268ZM21.7314 29.7268C21.7314 29.7885 21.7437 29.838 21.7684 29.8812C21.7931 29.9244 21.8302 29.9615 21.8734 29.9924C21.9167 30.0233 21.9723 30.0418 22.0278 30.0603C22.0896 30.0727 22.1514 30.0788 22.2131 30.0788C22.2811 30.0788 22.3429 30.0727 22.3984 30.0541C22.4602 30.0418 22.5096 30.0171 22.5529 29.9862C22.5961 29.9553 22.6332 29.9183 22.664 29.875C22.6888 29.8318 22.7011 29.7824 22.7011 29.7206C22.7011 29.6588 22.6888 29.6094 22.664 29.5662C22.6393 29.5229 22.6023 29.4859 22.5529 29.455C22.5096 29.4241 22.454 29.4056 22.3984 29.3871C22.3367 29.3747 22.2749 29.3624 22.2131 29.3624C22.1452 29.3624 22.0834 29.3685 22.0278 29.3809C21.9661 29.3932 21.9167 29.4179 21.8734 29.4488C21.8302 29.4797 21.7931 29.5168 21.7684 29.56C21.7437 29.6032 21.7314 29.6527 21.7314 29.7144L21.7314 29.7268ZM21.7252 30.7583C21.7499 30.7768 21.7746 30.7892 21.7993 30.8015C21.824 30.8139 21.8426 30.82 21.8673 30.8262C21.892 30.8324 21.9167 30.8386 21.9414 30.8386C21.9661 30.8386 21.997 30.8448 22.034 30.8448L22.942 30.8448C22.9791 30.8448 23.0099 30.8448 23.0346 30.8386C23.0593 30.8386 23.0841 30.8324 23.1088 30.8262C23.1335 30.82 23.152 30.8139 23.1767 30.8015C23.2014 30.7892 23.2261 30.7768 23.2508 30.7583L23.257 30.7583L23.257 31.098L23.2508 31.098C23.2261 31.0795 23.2014 31.0671 23.1767 31.0548C23.152 31.0424 23.1335 31.0362 23.1088 31.0301C23.0841 31.0239 23.0593 31.0177 23.0346 31.0177C23.0099 31.0177 22.9791 31.0115 22.942 31.0115L22.034 31.0115C21.997 31.0115 21.9661 31.0115 21.9414 31.0177C21.9167 31.0177 21.892 31.0239 21.8673 31.0301C21.8426 31.0362 21.824 31.0424 21.7993 31.0548C21.7746 31.0671 21.7499 31.0795 21.7252 31.098L21.719 31.098L21.719 30.7583L21.7252 30.7583ZM21.719 31.5365L21.719 31.2895L21.7252 31.2895C21.7499 31.3018 21.7684 31.308 21.7931 31.3142C21.8178 31.3204 21.8364 31.3265 21.8673 31.3265C21.892 31.3265 21.9167 31.3327 21.9476 31.3327C21.9784 31.3327 22.0093 31.3327 22.0464 31.3327L22.4417 31.3327C22.4973 31.3327 22.5405 31.3204 22.5714 31.3018C22.6023 31.2833 22.6332 31.2586 22.6517 31.2401L22.6579 31.2401L22.769 31.4748L22.5714 31.4748L22.5714 31.4809C22.6332 31.5304 22.6764 31.586 22.7073 31.6477C22.7382 31.7095 22.7567 31.7712 22.7567 31.8454C22.7567 31.9442 22.732 32.0183 22.6764 32.0677C22.6208 32.1171 22.5467 32.1418 22.454 32.1418L22.0526 32.1418C22.0155 32.1418 21.9784 32.1418 21.9537 32.1418C21.9228 32.1418 21.8981 32.1418 21.8734 32.148C21.8487 32.148 21.824 32.1542 21.7993 32.1604C21.7746 32.1666 21.7561 32.1727 21.7314 32.1851L21.7252 32.1851L21.7252 31.938L21.7314 31.938C21.7746 31.9565 21.824 31.9689 21.8734 31.9751C21.9228 31.9813 21.9784 31.9813 22.0526 31.9813L22.417 31.9813C22.4479 31.9813 22.4787 31.9751 22.5096 31.9689C22.5405 31.9627 22.5652 31.9504 22.5837 31.9318C22.6085 31.9133 22.6208 31.8948 22.6332 31.8639C22.6455 31.833 22.6517 31.8021 22.6517 31.7651C22.6517 31.7157 22.6393 31.6662 22.6208 31.6168C22.6023 31.5674 22.5714 31.518 22.5282 31.4809L22.0464 31.4809C21.9723 31.4809 21.9105 31.4809 21.8673 31.4871C21.8178 31.4933 21.7746 31.5057 21.7252 31.5242L21.719 31.5242L21.719 31.5365ZM21.7252 32.4198C21.7561 32.4383 21.787 32.4507 21.8302 32.4569C21.8734 32.463 21.9352 32.4692 22.0155 32.4692L22.6826 32.4692L22.6826 32.3395L22.7196 32.3395L22.7196 32.4692L22.8988 32.4692C22.9729 32.4692 23.0346 32.4754 23.0902 32.4939C23.1458 32.5124 23.1952 32.5372 23.2323 32.568C23.2694 32.5989 23.3002 32.636 23.3249 32.6792C23.3435 32.7225 23.3558 32.7719 23.3558 32.8213C23.3558 32.8522 23.3497 32.883 23.3435 32.9078C23.3373 32.9325 23.3311 32.951 23.3249 32.9633L23.1335 32.988L23.1273 32.9757C23.152 32.9633 23.1705 32.9448 23.1952 32.9263C23.2199 32.9078 23.2385 32.8954 23.257 32.8769C23.2755 32.8583 23.2879 32.8398 23.3002 32.8275C23.3126 32.8089 23.3188 32.7904 23.3188 32.7719C23.3188 32.7286 23.2941 32.6916 23.2385 32.6607C23.1829 32.6298 23.1026 32.6175 22.9914 32.6175L22.7196 32.6175L22.7196 32.8645L22.6826 32.8645L22.6826 32.6175L22.0155 32.6175C21.9352 32.6175 21.8734 32.6236 21.8302 32.6298C21.787 32.636 21.7561 32.6483 21.7252 32.6669L21.719 32.6669L21.719 32.4136L21.7252 32.4136L21.7252 32.4198ZM21.9105 33.649C21.8796 33.6304 21.8549 33.6057 21.8302 33.5872C21.8055 33.5625 21.7808 33.5378 21.7561 33.5131C21.7375 33.4884 21.719 33.4575 21.7067 33.4204C21.6943 33.3834 21.6881 33.3463 21.6881 33.3031C21.6881 33.2104 21.719 33.1425 21.7746 33.0992C21.8302 33.056 21.9105 33.0313 22.0093 33.0313L22.5343 33.0313C22.5776 33.0313 22.6146 33.0251 22.6393 33.0066C22.6702 32.988 22.6888 32.9695 22.7073 32.9448L22.7135 32.9448L22.7135 33.1857L22.0402 33.1857C21.8858 33.1857 21.8055 33.2536 21.8055 33.3895C21.8055 33.4513 21.8178 33.5007 21.8426 33.5439C21.8673 33.5872 21.8981 33.6181 21.9352 33.6428L22.5282 33.6428C22.6085 33.6428 22.664 33.6119 22.7073 33.5501L22.7135 33.5501L22.7135 33.7972L22.0031 33.7972C21.9599 33.7972 21.9228 33.7972 21.8981 33.8034C21.8734 33.8095 21.8487 33.8095 21.8302 33.8219C21.8117 33.8281 21.7993 33.8404 21.787 33.8528C21.7746 33.8651 21.7684 33.8775 21.7561 33.896L21.7499 33.896L21.682 33.6613L21.8981 33.6613L21.9105 33.649ZM22.5035 34.631L22.4973 34.6187C22.5776 34.5754 22.6332 34.526 22.664 34.4766C22.6949 34.4272 22.7073 34.3778 22.7073 34.3284C22.7073 34.2666 22.6888 34.2172 22.6579 34.1801C22.627 34.1431 22.5837 34.1246 22.5343 34.1246C22.5035 34.1246 22.4726 34.1307 22.454 34.1493C22.4293 34.1616 22.4108 34.1863 22.3984 34.211C22.3799 34.2357 22.3676 34.2666 22.349 34.2975C22.3367 34.3284 22.3243 34.3654 22.3058 34.4025C22.2934 34.4396 22.2749 34.4766 22.2564 34.5137C22.2379 34.5507 22.2193 34.5816 22.1946 34.6063C22.1699 34.6372 22.139 34.6557 22.102 34.6743C22.0649 34.6928 22.0217 34.699 21.9723 34.699C21.8734 34.699 21.8055 34.6619 21.7499 34.594C21.7005 34.526 21.6758 34.4334 21.6758 34.316C21.6758 34.2543 21.682 34.1987 21.6943 34.1493C21.7067 34.0998 21.719 34.0566 21.7375 34.0195L21.9784 34.001L21.9846 34.0134C21.892 34.0566 21.824 34.106 21.787 34.1554C21.7437 34.2048 21.7252 34.2666 21.7252 34.3407C21.7252 34.4149 21.7437 34.4766 21.787 34.5137C21.8302 34.5507 21.8734 34.5693 21.9228 34.5693C21.9537 34.5693 21.9784 34.5631 22.0031 34.5507C22.0279 34.5384 22.0464 34.5199 22.0649 34.5013C22.0834 34.4766 22.102 34.4519 22.1143 34.421C22.1267 34.3901 22.139 34.3593 22.1576 34.3222C22.1699 34.2851 22.1884 34.2543 22.2008 34.2172C22.2193 34.1801 22.2379 34.1493 22.2626 34.1184C22.2873 34.0875 22.3182 34.0628 22.349 34.0443C22.3861 34.0257 22.4232 34.0134 22.4726 34.0134C22.522 34.0134 22.5652 34.0257 22.6023 34.0443C22.6393 34.0628 22.664 34.0937 22.6888 34.1246C22.7135 34.1554 22.7258 34.1987 22.732 34.2357C22.7382 34.279 22.7443 34.3222 22.7443 34.3654C22.7443 34.4087 22.7382 34.4581 22.732 34.5013C22.7258 34.5446 22.7135 34.5816 22.7011 34.6125L22.4973 34.631L22.5035 34.631ZM23.1026 35.0572C23.0717 35.0572 23.047 35.0449 23.0285 35.0263C23.0099 35.0078 22.9976 34.9831 22.9976 34.9522C22.9976 34.9213 23.0099 34.9028 23.0285 34.8781C23.047 34.8596 23.0717 34.8472 23.1026 34.8472C23.1335 34.8472 23.152 34.8596 23.1767 34.8781C23.1952 34.8966 23.2076 34.9213 23.2076 34.9522C23.2076 34.9831 23.1952 35.0016 23.1767 35.0263C23.1582 35.0449 23.1335 35.0572 23.1026 35.0572ZM21.7252 34.841C21.7684 34.8596 21.8178 34.8719 21.8673 34.8781C21.9167 34.8843 21.9723 34.8905 22.0464 34.8905L22.4355 34.8905C22.4849 34.8905 22.5282 34.8781 22.5652 34.8596C22.5961 34.841 22.627 34.8163 22.6455 34.7978L22.6517 34.7978L22.7629 35.0449L22.0464 35.0449C21.9723 35.0449 21.9105 35.0449 21.8673 35.0511C21.8178 35.0572 21.7746 35.0696 21.7252 35.0881L21.719 35.0881L21.719 34.841L21.7252 34.841ZM21.6881 35.7675C21.6881 35.6934 21.7005 35.6255 21.7314 35.5637C21.7623 35.5019 21.7993 35.4464 21.8487 35.3969C21.8981 35.3475 21.9537 35.3105 22.0155 35.2858C22.0773 35.2549 22.1452 35.2425 22.2193 35.2425C22.2934 35.2425 22.3614 35.2549 22.4232 35.2858C22.4849 35.3166 22.5467 35.3537 22.5899 35.4031C22.6393 35.4525 22.6764 35.5081 22.7073 35.5699C22.7382 35.6317 22.7505 35.6996 22.7505 35.7737C22.7505 35.8478 22.7382 35.9158 22.7073 35.9775C22.6764 36.0393 22.6393 36.0949 22.5899 36.1443C22.5405 36.1937 22.4849 36.2308 22.4232 36.2555C22.3614 36.2864 22.2873 36.2987 22.2193 36.2987C22.1452 36.2987 22.0773 36.2864 22.0155 36.2555C21.9537 36.2246 21.8981 36.1876 21.8487 36.1443C21.7993 36.0949 21.7623 36.0393 21.7314 35.9775C21.7005 35.9158 21.6881 35.8478 21.6881 35.7737L21.6881 35.7675ZM21.7252 35.7675C21.7252 35.8293 21.7375 35.8787 21.7623 35.922C21.787 35.9652 21.824 36.0023 21.8673 36.0331C21.9105 36.064 21.9661 36.0826 22.0217 36.1011C22.0834 36.1134 22.1452 36.1196 22.207 36.1196C22.2749 36.1196 22.3367 36.1134 22.3923 36.0949C22.454 36.0826 22.5035 36.0578 22.5467 36.027C22.5899 35.9961 22.627 35.959 22.6579 35.9158C22.6826 35.8725 22.6949 35.8231 22.6949 35.7614C22.6949 35.6996 22.6826 35.6502 22.6579 35.6069C22.6332 35.5637 22.5961 35.5267 22.5467 35.4958C22.5035 35.4649 22.4479 35.4464 22.3923 35.4278C22.3305 35.4155 22.2687 35.4031 22.207 35.4031C22.139 35.4031 22.0773 35.4093 22.0217 35.4216C21.9599 35.434 21.9105 35.4587 21.8673 35.4896C21.824 35.5205 21.787 35.5575 21.7623 35.6008C21.7375 35.644 21.7252 35.6934 21.7252 35.7552L21.7252 35.7675ZM21.719 36.7126L21.719 36.4655L21.7252 36.4655C21.7499 36.4779 21.7684 36.484 21.7931 36.4902C21.8178 36.4964 21.8364 36.5026 21.8673 36.5026C21.892 36.5026 21.9167 36.5087 21.9476 36.5087C21.9784 36.5087 22.0093 36.5087 22.0464 36.5087L22.4417 36.5087C22.4973 36.5087 22.5405 36.4964 22.5714 36.4779C22.6023 36.4593 22.6332 36.4346 22.6517 36.4161L22.6579 36.4161L22.769 36.6508L22.5714 36.6508L22.5714 36.657C22.6332 36.7064 22.6764 36.762 22.7073 36.8237C22.7382 36.8855 22.7567 36.9473 22.7567 37.0214C22.7567 37.1202 22.732 37.1943 22.6764 37.2438C22.6208 37.2932 22.5467 37.3179 22.454 37.3179L22.0526 37.3179C22.0155 37.3179 21.9784 37.3179 21.9537 37.3179C21.9228 37.3179 21.8981 37.3179 21.8734 37.3241C21.8487 37.3241 21.824 37.3302 21.7993 37.3364C21.7746 37.3426 21.7561 37.3488 21.7314 37.3611L21.7252 37.3611L21.7252 37.1141L21.7314 37.1141C21.7746 37.1326 21.824 37.1449 21.8734 37.1511C21.9228 37.1573 21.9784 37.1573 22.0526 37.1573L22.417 37.1573C22.4479 37.1573 22.4787 37.1511 22.5096 37.1449C22.5405 37.1388 22.5652 37.1264 22.5837 37.1079C22.6085 37.0893 22.6208 37.0708 22.6332 37.0399C22.6455 37.009 22.6517 36.9782 22.6517 36.9411C22.6517 36.8917 22.6393 36.8423 22.6208 36.7929C22.6023 36.7435 22.5714 36.694 22.5282 36.657L22.0464 36.657C21.9723 36.657 21.9105 36.657 21.8673 36.6632C21.8178 36.6693 21.7746 36.6817 21.7252 36.7002L21.719 36.7002L21.719 36.7126Z" fill="#414141"/>
  <path d="M24.8945 31.3328L24.8945 39.1833" stroke="#414141" stroke-width="0.5"/>
  <path d="M23.2578 33.5811L29.999 33.5815" stroke="#414141" stroke-width="0.5"/>
  <path fill-rule="evenodd" clip-rule="evenodd" d="M26.353 41.1344C22.1591 41.5977 15.303 41.2579 15.0004 40.1214L15.0004 20.6773C15.0004 20.6773 14.9386 19.6458 16.4519 19.2382L17.6995 19.1332L22.2703 19.1332L26.841 19.1332L28.0887 19.2382C29.6081 19.6458 29.5402 20.6773 29.5402 20.6773L29.5402 40.5673" stroke="#414141" stroke-miterlimit="2.61313"/>
  <path fill-rule="evenodd" clip-rule="evenodd" d="M15.0312 14.5436L15.0312 19.1205L22.2703 19.1205L29.5093 19.1205L29.5093 14.5436C28.7187 14.2842 22.2703 14.2842 22.2703 14.2842C22.2703 14.2842 15.8219 14.2842 15.0312 14.5436Z" fill="#C7E7DC" stroke="#414141" stroke-miterlimit="2.61313"/>
  <path fill-rule="evenodd" clip-rule="evenodd" d="M16.1718 14.4135C16.1718 13.3511 16.1038 11.8008 16.2521 10.3122C16.4436 8.36654 16.9933 6.53207 18.5127 6.01941L22.2434 6.01941L25.9741 6.01941C28.6672 6.92738 28.3151 11.9675 28.3151 14.4135C26.2212 14.2899 22.2681 14.2899 22.2681 14.2899L22.2434 14.2899C21.9223 14.2899 18.1607 14.2961 16.1718 14.4135Z" fill="#C7E7DC" stroke="#414141" stroke-miterlimit="2.61313"/>
  <path d="M16.168 12.1161C19.6084 11.6467 24.8647 11.6467 28.2989 12.1161" stroke="#414141" stroke-miterlimit="2.61313"/>
  <path d="M18.0156 4.88306L18.0156 11.8133" stroke="#414141" stroke-miterlimit="2.61313" stroke-linecap="round" stroke-linejoin="round"/>
  <path d="M19.707 4.88306L19.707 11.8133" stroke="#414141" stroke-miterlimit="2.61313" stroke-linecap="round" stroke-linejoin="round"/>
  <path d="M21.4062 4.88306L21.4062 11.8133" stroke="#414141" stroke-miterlimit="2.61313" stroke-linecap="round" stroke-linejoin="round"/>
  <path d="M23.1055 4.88306L23.1055 11.8133" stroke="#414141" stroke-miterlimit="2.61313" stroke-linecap="round" stroke-linejoin="round"/>
  <path d="M24.8047 4.88306L24.8047 11.8133" stroke="#414141" stroke-miterlimit="2.61313" stroke-linecap="round" stroke-linejoin="round"/>
  <path d="M26.4961 4.88306L26.4961 11.8133" stroke="#414141" stroke-miterlimit="2.61313" stroke-linecap="round" stroke-linejoin="round"/>
</svg>