<svg xmlns="http://www.w3.org/2000/svg" width="45" height="45" viewBox="0 0 45 45"
                                        fill="none">
                                        <path fill-rule="evenodd" clip-rule="evenodd"
                                            d="M12.4931 33.867C6.73208 25.1673 4.87558 4.89563 22.325 4.6875C39.7744 4.89563 37.9179 25.1673 32.1486 33.867C26.5542 42.317 18.0958 42.317 12.4931 33.867V33.867Z"
                                            stroke="#414141" stroke-width="0.8" stroke-miterlimit="2.61313"
                                            stroke-linecap="round" stroke-linejoin="round" />
                                        <path fill-rule="evenodd" clip-rule="evenodd"
                                            d="M21.2111 10.0094C21.2111 9.70384 21.2379 9.37685 21.2915 9.11686C21.4148 8.5004 21.6935 7.89198 22.3127 7.6856C22.9747 7.46582 23.618 7.80889 23.9235 8.37175C24.0307 8.57009 24.1486 8.85688 24.1808 9.08738C24.2719 9.74673 24.2987 10.4195 24.1674 11.0761C24.0629 11.5988 23.886 12.0303 23.4384 12.3251C23.2802 12.4297 23.0846 12.4994 22.8862 12.5208C22.7361 12.5369 22.5861 12.5369 22.4413 12.5074C21.6506 12.3493 21.3183 11.4353 21.2566 10.7143C21.2352 10.4731 21.2164 10.2506 21.2164 10.0067L21.2111 10.0094ZM20.1631 10.0764C20.1631 10.4972 20.2569 10.8376 20.3855 11.1351C20.4016 11.1726 20.4204 11.2075 20.4392 11.2396C20.5088 11.379 20.5303 11.4139 20.6161 11.5452C20.6938 11.6631 20.809 11.8052 20.9055 11.9043C21.2432 12.2421 21.6801 12.4913 22.1492 12.5905C22.6021 12.687 22.8862 12.6923 23.3392 12.5798C23.6474 12.502 23.9744 12.3654 24.2344 12.1885C24.2987 12.1456 24.3604 12.0973 24.4194 12.0491C24.4488 12.025 24.4756 12.0035 24.5024 11.974C24.5346 11.9419 24.5587 11.9258 24.5909 11.8963C24.6204 11.8668 24.6365 11.8427 24.6659 11.8132C24.8321 11.647 25.0171 11.3361 25.1028 11.1217C25.1913 10.9019 25.277 10.5937 25.2985 10.3444C25.3065 10.2506 25.3226 10.1461 25.3226 10.0442C25.3226 9.86198 25.2824 9.63684 25.2422 9.48406C25.2074 9.34201 25.1323 9.13563 25.0707 9.00697C24.9259 8.72018 24.7705 8.48164 24.54 8.24846C24.4408 8.14929 24.3041 8.03403 24.1915 7.95631C23.9181 7.77137 23.6099 7.63467 23.2856 7.56499C22.6048 7.42025 22.0393 7.51942 21.4523 7.84105C21.2888 7.9295 21.2111 7.99651 21.0771 8.1064C20.9698 8.19217 20.9189 8.25382 20.8332 8.34495L20.7608 8.43071C20.7125 8.49236 20.667 8.54865 20.6241 8.61565C20.3266 9.06326 20.1631 9.52427 20.1631 10.0764Z"
                                            fill="#414141" />
                                        <path fill-rule="evenodd" clip-rule="evenodd"
                                            d="M22.7573 14.5899C22.7573 14.7293 22.7332 14.7051 22.8833 14.7051C22.9235 14.7051 22.9047 14.6194 22.9181 14.5068C22.9556 14.1745 23.1298 13.8957 23.3845 13.692C23.5426 13.566 23.7222 13.4722 23.9178 13.3999C24.0358 13.357 24.1483 13.3275 24.277 13.2926C24.6254 13.2042 24.9685 13.1908 25.3303 13.1908V12.1348C24.7487 12.1348 24.1671 12.3706 23.7249 12.7325C23.6471 12.7941 23.5104 12.9201 23.4461 12.9951C23.43 13.0166 23.4274 13.0219 23.4086 13.0407C23.3309 13.1211 23.2022 13.306 23.1406 13.3972C23.0977 13.4642 23.0628 13.5285 23.0253 13.5982C22.8779 13.8609 22.7626 14.2843 22.7626 14.5899H22.7573Z"
                                            fill="#414141" />
                                        <path fill-rule="evenodd" clip-rule="evenodd"
                                            d="M24.2231 18.6158C24.2231 18.6158 24.2231 16.9674 26.6874 16.2348C29.1516 15.5022 32.8979 15.7769 32.8729 17.6501C32.848 19.5316 29.2765 21.0967 27.1536 21.0218C25.0307 20.9552 24.2231 19.0737 24.2231 18.6158Z"
                                            fill="white" stroke="#414141" stroke-width="0.8" stroke-miterlimit="2.61313"
                                            stroke-linecap="round" stroke-linejoin="round" />
                                        <path fill-rule="evenodd" clip-rule="evenodd"
                                            d="M22.3247 34.458C22.3247 34.458 17.4712 34.2249 16.1392 30.9032C16.1392 30.9032 17.6876 29.3464 19.4359 29.6628C21.1925 29.9875 21.5588 30.2872 22.3247 30.2372C23.0906 30.2872 23.4569 29.9875 25.2052 29.6628C26.9535 29.3464 28.5103 30.9032 28.5103 30.9032C27.1782 34.2249 22.3247 34.458 22.3247 34.458Z"
                                            fill="white" stroke="#414141" stroke-width="0.8" stroke-miterlimit="2.61313"
                                            stroke-linecap="round" stroke-linejoin="round" />
                                        <path d="M18.6704 25.3086C21.6092 26.7155 23.0411 26.7155 25.9799 25.3086"
                                            stroke="#414141" stroke-width="0.8" stroke-miterlimit="2.61313"
                                            stroke-linecap="round" stroke-linejoin="round" />
                                        <path fill-rule="evenodd" clip-rule="evenodd"
                                            d="M20.4268 18.6158C20.4268 18.6158 20.4268 16.9674 17.9625 16.2348C15.4983 15.5022 11.752 15.7769 11.777 17.6501C11.802 19.5316 15.3734 21.0967 17.4963 21.0218C19.6109 20.9552 20.4268 19.0737 20.4268 18.6158Z"
                                            fill="white" stroke="#414141" stroke-width="0.8" stroke-miterlimit="2.61313"
                                            stroke-linecap="round" stroke-linejoin="round" />
                                    </svg>