<svg xmlns="http://www.w3.org/2000/svg" width="45" height="45" viewBox="0 0 45 45" fill="none">
  <path d="M9.29563 16.9279C13.393 16.8608 17.4905 16.7967 21.5909 16.7296C20.7965 20.9543 21.0287 26.4998 21.5909 29.2024L9.29563 28.937C5.96208 28.8669 3.23047 26.5242 3.23047 23.2512V22.6778C3.23047 19.4078 5.95903 16.9828 9.29563 16.9279Z" stroke="#414141" stroke-miterlimit="22.93"/>
  <path d="M21.5906 16.7295C22.0581 16.7478 25.2205 16.7417 25.4864 16.3787C25.6941 16.0919 25.6911 15.8845 25.6911 15.8845C25.6911 15.8845 28.4777 16.0218 30.9618 16.0889C32.3857 16.1285 34.2006 16.0096 35.5023 15.8876C35.5023 15.8876 35.5175 16.7356 36.2509 16.6929C37.6289 16.7508 37.6258 16.8637 37.6228 16.9674C37.6228 17.0223 37.6136 16.8332 37.7572 16.824L40.7791 16.9003C40.8861 16.9094 41.0358 17.0345 41.2069 17.7452C41.3841 18.4803 41.4758 19.8164 41.5735 21.2897C41.6683 21.4392 41.9921 21.4148 41.9952 21.6801C42.0105 22.9155 42.0502 24.1875 41.9494 25.5449C41.9402 25.6608 41.6927 25.7432 41.5613 25.7279C41.4483 27.0426 41.3413 28.0309 41.1488 28.6776C41.1488 28.6776 40.9288 29.1809 40.7272 29.1931C40.5255 29.2053 37.6686 29.2236 37.5342 29.2327C37.1431 29.2785 36.0186 29.4036 36.1195 29.9526C35.0653 30.6267 32.5995 30.4986 30.7082 30.52C27.1791 30.5596 25.6666 30.4895 25.0647 29.974C25.0647 29.974 24.8203 29.4188 24.3589 29.3792C23.8975 29.3395 21.5845 29.2266 21.5845 29.2266C21.5845 29.2266 21.0742 25.7432 21.0742 23.5378C21.0742 21.3324 21.0803 19.5388 21.5845 16.7264L21.5906 16.7295Z" fill="#C7E7DC" stroke="#414141" stroke-miterlimit="22.93"/>
  <path d="M37.7582 16.8241C37.7582 16.8241 38.0454 17.5135 38.1035 19.8195C38.1615 22.1256 38.1615 28.0249 37.691 29.2298H37.5352C37.5352 29.2298 38.1799 25.365 38.0546 21.8511C37.9293 18.3371 38.0179 18.8709 37.6177 16.9492C37.6177 16.9492 37.636 16.8089 37.7521 16.8211L37.7582 16.8241Z" stroke="#414141" stroke-miterlimit="22.93"/>
  <path d="M41.5759 21.2898C41.5759 21.2898 41.6462 21.4393 41.4568 21.4759C41.2673 21.5125 39.489 21.4698 39.2416 21.4698C38.9941 21.4698 38.5205 21.543 38.4685 22.089C38.4166 22.635 38.438 25.1607 38.438 25.1607C38.438 25.1607 38.4013 25.7585 39.1438 25.7494C39.8863 25.7433 41.411 25.7311 41.411 25.7311L41.5607 25.7433" stroke="#414141" stroke-miterlimit="22.93"/>
  <path d="M39.3693 22.2446H39.8642C40.1912 22.2446 40.4601 22.4917 40.4601 22.7967V24.6086C40.4601 24.9106 40.1912 25.1607 39.8642 25.1607H39.3693C39.0423 25.1607 38.7734 24.9137 38.7734 24.6086V22.7967C38.7734 22.4948 39.0423 22.2446 39.3693 22.2446Z" stroke="#414141" stroke-miterlimit="22.93"/>
  <path d="M25.2305 16.5095C25.2305 16.5095 26.5443 18.3672 29.5326 18.3916C32.5209 18.416 35.1394 17.2172 35.9583 16.6956" stroke="#414141" stroke-miterlimit="22.93"/>
  <path d="M24.7891 29.5892C24.7891 29.5892 26.0326 28.9883 27.8446 28.9883C29.6565 28.9883 35.685 29.0554 36.2013 29.6655" stroke="#414141" stroke-miterlimit="22.93"/>
  <mask id="path-8-inside-1_10384_9116" fill="white">
    <path fill-rule="evenodd" clip-rule="evenodd" d="M30.5616 11.9683C33.1985 11.9683 35.4046 12.2001 35.9271 12.5082H25.1992C25.7217 12.2001 27.9247 11.9683 30.5647 11.9683H30.5616Z"/>
  </mask>
  <path d="M35.9271 12.5082V13.5082H39.5918L36.435 11.6468L35.9271 12.5082ZM25.1992 12.5082L24.6913 11.6468L21.5345 13.5082H25.1992V12.5082ZM30.5616 12.9683C31.8539 12.9683 33.03 13.0252 33.9358 13.1175C34.3899 13.1638 34.7623 13.2176 35.0408 13.274C35.3566 13.3379 35.4457 13.3852 35.4191 13.3696L36.435 11.6468C36.1472 11.4771 35.7645 11.3799 35.4374 11.3137C35.0729 11.2399 34.631 11.178 34.1386 11.1278C33.1516 11.0272 31.9062 10.9683 30.5616 10.9683V12.9683ZM35.9271 11.5082H25.1992V13.5082H35.9271V11.5082ZM25.7071 13.3696C25.6807 13.3852 25.7698 13.3378 26.0852 13.2739C26.3634 13.2176 26.7354 13.1638 27.1893 13.1175C28.0947 13.0252 29.2708 12.9683 30.5647 12.9683V10.9683C29.2186 10.9683 27.9732 11.0272 26.9865 11.1278C26.4943 11.178 26.0526 11.24 25.6883 11.3137C25.3612 11.38 24.979 11.4771 24.6913 11.6468L25.7071 13.3696ZM30.5647 10.9683H30.5616V12.9683H30.5647V10.9683Z" fill="#414141" mask="url(#path-8-inside-1_10384_9116)"/>
  <path d="M25.5664 14.4915V13.584H35.4898V14.5005C32.1444 14.6843 28.8687 14.6194 25.5664 14.4915Z" stroke="#414141"/>
</svg>