<svg xmlns="http://www.w3.org/2000/svg" width="45" height="45" viewBox="0 0 45 45"
                                        fill="none">
                                        <path
                                            d="M21.6667 7H7.5C6.11929 7 5 7.74619 5 8.66667V35.3333C5 36.2538 6.11929 37 7.5 37H21.6667C23.0474 37 24.1667 36.2538 24.1667 35.3333V8.66667C24.1667 7.74619 23.0474 7 21.6667 7Z"
                                            stroke="#414141" stroke-width="0.8" stroke-miterlimit="2.61313"
                                            stroke-linecap="round" stroke-linejoin="round" />
                                        <path
                                            d="M19.375 10H9.625C8.72754 10 8 10.6888 8 11.5385V28.4615C8 29.3112 8.72754 30 9.625 30H19.375C20.2725 30 21 29.3112 21 28.4615V11.5385C21 10.6888 20.2725 10 19.375 10Z"
                                            stroke="#414141" stroke-width="0.8" stroke-miterlimit="2.61313"
                                            stroke-linecap="round" stroke-linejoin="round" />
                                        <path d="M13.3335 8.66675H15.8335" stroke="#414141" stroke-width="0.8"
                                            stroke-miterlimit="2.61313" stroke-linecap="round"
                                            stroke-linejoin="round" />
                                        <path
                                            d="M14.6 35.2C15.4837 35.2 16.2 34.4837 16.2 33.6C16.2 32.7163 15.4837 32 14.6 32C13.7163 32 13 32.7163 13 33.6C13 34.4837 13.7163 35.2 14.6 35.2Z"
                                            stroke="#414141" stroke-width="0.8" stroke-miterlimit="2.61313"
                                            stroke-linecap="round" stroke-linejoin="round" />
                                        <path
                                            d="M34.1667 14.5H25C22.2386 14.5 20 16.7386 20 19.5V28.6667C20 31.4281 22.2386 33.6667 25 33.6667H34.1667C36.9281 33.6667 39.1667 31.4281 39.1667 28.6667V19.5C39.1667 16.7386 36.9281 14.5 34.1667 14.5Z"
                                            fill="white" stroke="#414141" stroke-width="0.8" stroke-miterlimit="2.61313"
                                            stroke-linecap="round" stroke-linejoin="round" />
                                        <path fill-rule="evenodd" clip-rule="evenodd"
                                            d="M27.028 22.3005C27.028 21.7092 27.0799 21.0764 27.1836 20.5732C27.4222 19.3803 27.9617 18.2029 29.1598 17.8035C30.4409 17.3782 31.6858 18.0421 32.2771 19.1313C32.4845 19.5151 32.7128 20.0701 32.775 20.5162C32.9514 21.7921 33.0032 23.094 32.7491 24.3648C32.5468 25.3762 32.2045 26.2113 31.3383 26.7818C31.0322 26.9841 30.6536 27.119 30.2698 27.1605C29.9793 27.1916 29.6889 27.1916 29.4088 27.1345C27.8787 26.8285 27.2355 25.0598 27.1162 23.6646C27.0747 23.1978 27.0384 22.7673 27.0384 22.2953L27.028 22.3005ZM25 22.4301C25 23.2445 25.1815 23.9032 25.4305 24.4789C25.4616 24.5515 25.4979 24.619 25.5342 24.6812C25.6691 24.9509 25.7106 25.0183 25.8766 25.2725C26.027 25.5007 26.25 25.7756 26.4367 25.9675C27.0903 26.6211 27.9357 27.1034 28.8434 27.2953C29.72 27.4821 30.2698 27.4924 31.1464 27.2746C31.7428 27.1242 32.3756 26.8596 32.8787 26.5173C33.0032 26.4343 33.1225 26.341 33.2366 26.2476C33.2937 26.2009 33.3456 26.1594 33.3974 26.1024C33.4597 26.0401 33.5063 26.009 33.5686 25.952C33.6256 25.8949 33.6568 25.8482 33.7138 25.7912C34.0354 25.4696 34.3933 24.8679 34.5593 24.453C34.7304 24.0277 34.8964 23.4312 34.9379 22.9488C34.9535 22.7673 34.9846 22.565 34.9846 22.3679C34.9846 22.0152 34.9068 21.5795 34.829 21.2838C34.7615 21.0089 34.6163 20.6096 34.497 20.3606C34.2169 19.8056 33.9161 19.344 33.47 18.8927C33.2781 18.7008 33.0136 18.4778 32.7958 18.3274C32.2667 17.9695 31.6702 17.705 31.0426 17.5701C29.7252 17.29 28.6308 17.4819 27.4948 18.1043C27.1785 18.2755 27.028 18.4052 26.7687 18.6178C26.5612 18.7838 26.4627 18.9031 26.2967 19.0795L26.1567 19.2454C26.0633 19.3647 25.9751 19.4736 25.8921 19.6033C25.3164 20.4695 25 21.3616 25 22.4301Z"
                                            fill="#414141" />
                                        <path fill-rule="evenodd" clip-rule="evenodd"
                                            d="M30.0208 31.1644C30.0208 31.4341 29.9741 31.3875 30.2646 31.3875C30.3424 31.3875 30.3061 31.2215 30.332 31.0036C30.4047 30.3605 30.7418 29.8211 31.2345 29.4269C31.5406 29.1831 31.8881 29.0015 32.2667 28.8615C32.4949 28.7785 32.7128 28.7215 32.9617 28.654C33.636 28.4829 34.2999 28.4569 35.0002 28.4569V26.4133C33.8746 26.4133 32.7491 26.8698 31.8933 27.57C31.7428 27.6893 31.4783 27.9331 31.3538 28.0783C31.3227 28.1198 31.3175 28.1302 31.2812 28.1665C31.1308 28.3221 30.8818 28.68 30.7625 28.8563C30.6796 28.986 30.6121 29.1105 30.5395 29.2453C30.2542 29.7536 30.0312 30.5731 30.0312 31.1644H30.0208Z"
                                            fill="#414141" />
                                    </svg>