<svg xmlns="http://www.w3.org/2000/svg" width="46" height="44" viewBox="0 0 46 44" fill="none">
                                            <path fill-rule="evenodd" clip-rule="evenodd" d="M13.6602 17.0215H23.6357V38.4304C23.6357 39.1724 23.0311 39.7803 22.2858 39.7803H15.0101C14.2648 39.7803 13.6602 39.1724 13.6602 38.4304V17.0215Z" stroke="#414141" stroke-width="0.8" stroke-miterlimit="2.61313" stroke-linecap="round" stroke-linejoin="round"/>
                                            <path d="M18.3887 30.6407C18.0556 30.6148 17.7477 30.5368 17.446 30.407C17.0752 30.2381 16.7421 30.0109 16.4593 29.7251C16.1765 29.4394 15.9503 29.1017 15.7743 28.7121C15.6109 28.329 15.5229 27.9069 15.5229 27.4588C15.5229 27.0173 15.6109 26.5952 15.7806 26.2056C15.9503 25.8159 16.1765 25.4783 16.4656 25.186C16.7484 24.8938 17.0815 24.6665 17.4523 24.5042C17.8231 24.3419 18.2127 24.2574 18.6212 24.2574C19.0297 24.2574 19.4256 24.3419 19.7964 24.5042C20.1735 24.673 20.5065 24.9003 20.7893 25.186C21.0784 25.4783 21.3047 25.8159 21.4743 26.2056C21.644 26.5952 21.732 27.0108 21.732 27.4588C21.732 27.9069 21.644 28.3225 21.4743 28.7121C21.3047 29.1017 21.0721 29.4394 20.7893 29.7251C20.5003 30.0109 20.1735 30.2381 19.7964 30.407C19.4445 30.5563 19.0737 30.6407 18.6903 30.6472C18.6966 30.6472 18.5018 30.6537 18.3887 30.6407ZM18.6212 30.4719C18.9417 30.4719 19.2182 30.394 19.4445 30.2446C19.677 30.0953 19.8655 29.881 20.0101 29.6147C20.1609 29.3485 20.2677 29.0303 20.3369 28.6602C20.406 28.2965 20.4437 27.8939 20.4437 27.4523C20.4437 27.0173 20.406 26.6147 20.3369 26.2445C20.274 25.8809 20.1672 25.5562 20.0163 25.2899C19.8655 25.0237 19.677 24.8094 19.4507 24.6536C19.2182 24.4977 18.948 24.4198 18.6275 24.4198C18.307 24.4198 18.0305 24.4977 17.8042 24.6536C17.5717 24.8094 17.3832 25.0172 17.2386 25.2899C17.0941 25.5627 16.9872 25.8809 16.9118 26.251C16.8427 26.6212 16.805 27.0238 16.805 27.4523C16.805 27.8809 16.8427 28.2835 16.9118 28.6537C16.9809 29.0238 17.0878 29.342 17.2386 29.6083C17.3832 29.8745 17.5717 30.0888 17.8042 30.2381C18.0305 30.4005 18.307 30.4719 18.6212 30.4719Z" fill="#414141"/>
                                            <path d="M18.3887 30.6407C18.0556 30.6148 17.7477 30.5368 17.446 30.407C17.0752 30.2381 16.7421 30.0109 16.4593 29.7251C16.1765 29.4394 15.9503 29.1017 15.7743 28.7121C15.6109 28.329 15.5229 27.9069 15.5229 27.4588C15.5229 27.0173 15.6109 26.5952 15.7806 26.2056C15.9503 25.8159 16.1765 25.4783 16.4656 25.186C16.7484 24.8938 17.0815 24.6665 17.4523 24.5042C17.8231 24.3419 18.2127 24.2574 18.6212 24.2574C19.0297 24.2574 19.4256 24.3419 19.7964 24.5042C20.1735 24.673 20.5065 24.9003 20.7893 25.186C21.0784 25.4783 21.3047 25.8159 21.4743 26.2056C21.644 26.5952 21.732 27.0108 21.732 27.4588C21.732 27.9069 21.644 28.3225 21.4743 28.7121C21.3047 29.1017 21.0721 29.4394 20.7893 29.7251C20.5003 30.0109 20.1735 30.2381 19.7964 30.407C19.4445 30.5563 19.0737 30.6407 18.6903 30.6472C18.6966 30.6472 18.5018 30.6537 18.3887 30.6407ZM18.6212 30.4719C18.9417 30.4719 19.2182 30.394 19.4445 30.2446C19.677 30.0953 19.8655 29.881 20.0101 29.6147C20.1609 29.3485 20.2677 29.0303 20.3369 28.6602C20.406 28.2965 20.4437 27.8939 20.4437 27.4523C20.4437 27.0173 20.406 26.6147 20.3369 26.2445C20.274 25.8809 20.1672 25.5562 20.0163 25.2899C19.8655 25.0237 19.677 24.8094 19.4507 24.6536C19.2182 24.4977 18.948 24.4198 18.6275 24.4198C18.307 24.4198 18.0305 24.4977 17.8042 24.6536C17.5717 24.8094 17.3832 25.0172 17.2386 25.2899C17.0941 25.5627 16.9872 25.8809 16.9118 26.251C16.8427 26.6212 16.805 27.0238 16.805 27.4523C16.805 27.8809 16.8427 28.2835 16.9118 28.6537C16.9809 29.0238 17.0878 29.342 17.2386 29.6083C17.3832 29.8745 17.5717 30.0888 17.8042 30.2381C18.0305 30.4005 18.307 30.4719 18.6212 30.4719Z" stroke="#414141"/>
                                            <path d="M21.7317 31.3224C21.3106 31.3224 20.921 31.3614 20.569 31.4328C20.2171 31.5043 19.9092 31.6212 19.6452 31.7705C19.3876 31.9264 19.1802 32.1212 19.0356 32.3549C18.8911 32.5887 18.8157 32.8744 18.8157 33.1991H18.646V33.1277C18.6586 32.7316 18.734 32.3484 18.8785 31.9848C19.0419 31.6017 19.2619 31.2575 19.5384 30.9588C19.8149 30.6601 20.1417 30.4263 20.5188 30.251C20.8958 30.0757 21.298 29.9847 21.7317 29.9847V31.3224Z" fill="#414141"/>
                                            <path d="M21.7317 31.3224C21.3106 31.3224 20.921 31.3614 20.569 31.4328C20.2171 31.5043 19.9092 31.6212 19.6452 31.7705C19.3876 31.9264 19.1802 32.1212 19.0356 32.3549C18.8911 32.5887 18.8157 32.8744 18.8157 33.1991H18.646V33.1277C18.6586 32.7316 18.734 32.3484 18.8785 31.9848C19.0419 31.6017 19.2619 31.2575 19.5384 30.9588C19.8149 30.6601 20.1417 30.4263 20.5188 30.251C20.8958 30.0757 21.298 29.9847 21.7317 29.9847V31.3224Z" stroke="#414141"/>
                                            <path d="M23.639 15.0728H13.6602V17.0208H23.639V15.0728Z" stroke="#414141" stroke-width="0.8" stroke-miterlimit="2.61313" stroke-linecap="round" stroke-linejoin="round"/>
                                            <path d="M22.6905 10.1276H14.6074V15.0729H22.6905V10.1276Z" stroke="#414141" stroke-width="0.8" stroke-miterlimit="2.61313" stroke-linecap="round" stroke-linejoin="round"/>
                                            <path d="M23.5947 5.00916H15.605V10.131H21.691V6.87188H23.5947V5.00916Z" stroke="#414141" stroke-width="0.8" stroke-miterlimit="2.61313" stroke-linecap="round" stroke-linejoin="round"/>
                                            <path fill-rule="evenodd" clip-rule="evenodd" d="M32.477 12.4492C32.5921 12.7855 32.654 13.1454 32.654 13.5171C32.654 13.585 32.6511 13.6528 32.6481 13.7177V13.7266C32.5419 15.4436 31.1111 16.8065 29.3646 16.8065C27.6211 16.8065 26.1932 15.4436 26.084 13.7266V13.7177C26.0811 13.6528 26.0781 13.585 26.0781 13.5171C26.0781 13.1454 26.1401 12.7855 26.2551 12.4492C26.7508 10.7823 28.2052 9.14205 29.3646 7.49292C30.5269 9.14205 31.9814 10.7853 32.477 12.4492Z" stroke="#414141" stroke-width="0.8" stroke-miterlimit="2.61313" stroke-linecap="round" stroke-linejoin="round"/>
                                            <path d="M30.0043 15.7359C28.4526 15.7359 27.1958 14.4791 27.1958 12.9303" stroke="#414141" stroke-width="0.8" stroke-miterlimit="2.61313" stroke-linecap="round" stroke-linejoin="round"/>
                                        </svg>