<svg xmlns="http://www.w3.org/2000/svg" width="45" height="46" viewBox="0 0 45 46" fill="none">
  <g clip-path="url(#clip0_10384_21552)">
    <path fill-rule="evenodd" clip-rule="evenodd" d="M23.4375 6.68286H26.7572V27.6839H17.1917C16.8359 25.3673 14.8334 23.5919 12.4184 23.5919C9.99958 23.5919 8.00093 25.3673 7.6451 27.6839H5.96063C6.02877 27.3886 6.06284 27.7369 6.06284 26.7678C6.06284 25.795 5.12029 23.732 3.75 23.062V21.5592H23.4375V6.68286V6.68286Z" stroke="#414141" stroke-width="0.8" stroke-miterlimit="2.61313" stroke-linecap="round" stroke-linejoin="round"/>
    <path fill-rule="evenodd" clip-rule="evenodd" d="M12.4169 25.4543C14.056 25.4543 15.3846 26.783 15.3846 28.422C15.3846 30.0611 14.056 31.3897 12.4169 31.3897C10.7779 31.3897 9.44922 30.0611 9.44922 28.422C9.44922 26.783 10.7779 25.4543 12.4169 25.4543Z" stroke="#414141" stroke-width="0.8" stroke-miterlimit="2.61313" stroke-linecap="round" stroke-linejoin="round"/>
    <path fill-rule="evenodd" clip-rule="evenodd" d="M34.8075 25.4543C36.4466 25.4543 37.7752 26.783 37.7752 28.422C37.7752 30.0611 36.4466 31.3897 34.8075 31.3897C33.1685 31.3897 31.8398 30.0611 31.8398 28.422C31.8398 26.783 33.1685 25.4543 34.8075 25.4543Z" stroke="#414141" stroke-width="0.8" stroke-miterlimit="2.61313" stroke-linecap="round" stroke-linejoin="round"/>
    <path fill-rule="evenodd" clip-rule="evenodd" d="M28.3711 11.5811H35.9531L41.2526 18.6256V27.6838H39.587C39.2312 25.3672 37.2288 23.5919 34.8137 23.5919C32.3949 23.5919 30.3925 25.3672 30.0404 27.6838H28.3749V11.5811H28.3711ZM30.718 14.0226V19.3448H38.9019L34.897 14.0226H30.718Z" stroke="#414141" stroke-width="0.8" stroke-miterlimit="2.61313" stroke-linecap="round" stroke-linejoin="round"/>
    <path d="M21.6843 6.68286H3.97656V19.8482H21.6843V6.68286Z" stroke="#414141" stroke-width="0.8" stroke-miterlimit="2.61313" stroke-linecap="round" stroke-linejoin="round"/>
    <path fill-rule="evenodd" clip-rule="evenodd" d="M10.6676 11.7173C10.6676 11.2858 10.7054 10.824 10.7811 10.4568C10.9552 9.5862 11.3489 8.72693 12.2233 8.43546C13.1583 8.12506 14.0668 8.60958 14.4983 9.4045C14.6497 9.68462 14.8163 10.0896 14.8617 10.4152C14.9904 11.3464 15.0283 12.2965 14.8428 13.2239C14.6952 13.962 14.4453 14.5715 13.8132 14.9879C13.5898 15.1355 13.3135 15.2339 13.0334 15.2642C12.8214 15.2869 12.6094 15.2869 12.405 15.2453C11.2884 15.0219 10.819 13.7311 10.7319 12.7129C10.7016 12.3722 10.6751 12.058 10.6751 11.7136L10.6676 11.7173ZM9.1875 11.812C9.1875 12.4063 9.31999 12.887 9.50168 13.3072C9.52439 13.3602 9.55089 13.4094 9.57739 13.4548C9.67581 13.6516 9.70609 13.7009 9.82722 13.8863C9.93699 14.0529 10.0998 14.2535 10.236 14.3936C10.713 14.8705 11.33 15.2226 11.9924 15.3626C12.6321 15.4989 13.0334 15.5065 13.6731 15.3475C14.1084 15.2377 14.5702 15.0446 14.9374 14.7948C15.0283 14.7342 15.1153 14.6661 15.1986 14.598C15.2402 14.5639 15.2781 14.5336 15.3159 14.492C15.3614 14.4466 15.3954 14.4239 15.4409 14.3822C15.4825 14.3406 15.5052 14.3065 15.5469 14.2649C15.7815 14.0302 16.0427 13.5911 16.1639 13.2883C16.2888 12.9779 16.4099 12.5425 16.4402 12.1905C16.4515 12.058 16.4743 11.9104 16.4743 11.7666C16.4743 11.5091 16.4175 11.1912 16.3607 10.9754C16.3115 10.7748 16.2055 10.4833 16.1184 10.3016C15.914 9.8966 15.6945 9.5597 15.3689 9.23038C15.2289 9.09032 15.0358 8.92755 14.8768 8.81778C14.4907 8.55659 14.0554 8.36354 13.5974 8.26512C12.6359 8.06071 11.8372 8.20077 11.0082 8.65501C10.7773 8.77992 10.6676 8.87456 10.4783 9.02976C10.3269 9.15089 10.255 9.23795 10.1338 9.36665L10.0316 9.48778C9.96349 9.57484 9.89914 9.65434 9.83858 9.74897C9.4184 10.3811 9.1875 11.0322 9.1875 11.812Z" fill="#414141"/>
    <path fill-rule="evenodd" clip-rule="evenodd" d="M12.8536 18.1864C12.8536 18.3832 12.8195 18.3491 13.0315 18.3491C13.0883 18.3491 13.0618 18.228 13.0807 18.069C13.1337 17.5996 13.3797 17.206 13.7393 16.9183C13.9627 16.7404 14.2163 16.6079 14.4926 16.5057C14.6592 16.4451 14.8182 16.4035 14.9999 16.3543C15.492 16.2293 15.9765 16.2104 16.4875 16.2104V14.719C15.6661 14.719 14.8447 15.0521 14.2201 15.5631C14.1103 15.6502 13.9173 15.8281 13.8264 15.9341C13.8037 15.9644 13.7999 15.9719 13.7734 15.9984C13.6636 16.112 13.4819 16.3732 13.3949 16.5019C13.3343 16.5965 13.2851 16.6874 13.2321 16.7858C13.0239 17.1567 12.8611 17.7548 12.8611 18.1864H12.8536Z" fill="#414141"/>
  </g>
  <defs>
    <clipPath id="clip0_10384_21552">
      <rect width="45" height="45" fill="white" transform="translate(0 0.505615)"/>
    </clipPath>
  </defs>
</svg>