<svg xmlns="http://www.w3.org/2000/svg" width="45" height="45" viewBox="0 0 45 45" fill="none">
                                        <g clip-path="url(#clip0_8802_273)">
                                            <path fill-rule="evenodd" clip-rule="evenodd" d="M23.439 10.1484H26.7587V31.1494H17.1932C16.8373 28.8328 14.8349 27.0575 12.4199 27.0575C10.001 27.0575 8.00239 28.8328 7.64657 31.1494H5.9621C6.03023 30.8542 6.0643 31.2024 6.0643 30.2334C6.0643 29.2606 5.12175 27.1976 3.75146 26.5276V25.0248H23.439V10.1484V10.1484Z" stroke="#414141" stroke-width="0.8" stroke-miterlimit="2.61313" stroke-linecap="round" stroke-linejoin="round"></path>
                                            <path fill-rule="evenodd" clip-rule="evenodd" d="M12.4198 28.9199C14.0589 28.9199 15.3875 30.2486 15.3875 31.8876C15.3875 33.5267 14.0589 34.8553 12.4198 34.8553C10.7808 34.8553 9.45215 33.5267 9.45215 31.8876C9.45215 30.2486 10.7808 28.9199 12.4198 28.9199Z" stroke="#414141" stroke-width="0.8" stroke-miterlimit="2.61313" stroke-linecap="round" stroke-linejoin="round"></path>
                                            <path fill-rule="evenodd" clip-rule="evenodd" d="M34.81 28.9199C36.449 28.9199 37.7777 30.2486 37.7777 31.8876C37.7777 33.5267 36.449 34.8553 34.81 34.8553C33.1709 34.8553 31.8423 33.5267 31.8423 31.8876C31.8423 30.2486 33.1709 28.9199 34.81 28.9199Z" stroke="#414141" stroke-width="0.8" stroke-miterlimit="2.61313" stroke-linecap="round" stroke-linejoin="round"></path>
                                            <path fill-rule="evenodd" clip-rule="evenodd" d="M28.3711 15.0466H35.9531L41.2526 22.0911V31.1494H39.587C39.2312 28.8328 37.2288 27.0575 34.8137 27.0575C32.3949 27.0575 30.3925 28.8328 30.0404 31.1494H28.3749V15.0466H28.3711ZM30.718 17.4882V22.8103H38.9019L34.897 17.4882H30.718Z" stroke="#414141" stroke-width="0.8" stroke-miterlimit="2.61313" stroke-linecap="round" stroke-linejoin="round"></path>
                                            <path d="M21.6863 10.1484H3.97852V23.3138H21.6863V10.1484Z" fill="#C7E7DC" stroke="#414141" stroke-width="0.8" stroke-miterlimit="2.61313" stroke-linecap="round" stroke-linejoin="round"></path>
                                            <path fill-rule="evenodd" clip-rule="evenodd" d="M10.6671 15.1829C10.6671 14.7514 10.7049 14.2896 10.7806 13.9224C10.9548 13.0518 11.3484 12.1925 12.2228 11.901C13.1578 11.5906 14.0663 12.0752 14.4978 12.8701C14.6492 13.1502 14.8158 13.5552 14.8612 13.8808C14.9899 14.812 15.0278 15.7621 14.8423 16.6895C14.6947 17.4276 14.4448 18.0371 13.8127 18.4534C13.5894 18.6011 13.313 18.6995 13.0329 18.7298C12.8209 18.7525 12.6089 18.7525 12.4045 18.7108C11.2879 18.4875 10.8185 17.1967 10.7314 16.1785C10.7011 15.8378 10.6746 15.5236 10.6746 15.1791L10.6671 15.1829ZM9.18701 15.2775C9.18701 15.8718 9.3195 16.3526 9.50119 16.7728C9.52391 16.8257 9.5504 16.875 9.5769 16.9204C9.67532 17.1172 9.7056 17.1664 9.82673 17.3519C9.93651 17.5185 10.0993 17.7191 10.2355 17.8591C10.7125 18.3361 11.3295 18.6881 11.9919 18.8282C12.6317 18.9645 13.0329 18.972 13.6726 18.813C14.1079 18.7033 14.5697 18.5102 14.9369 18.2604C15.0278 18.1998 15.1148 18.1317 15.1981 18.0636C15.2398 18.0295 15.2776 17.9992 15.3155 17.9576C15.3609 17.9121 15.395 17.8894 15.4404 17.8478C15.482 17.8061 15.5047 17.7721 15.5464 17.7304C15.7811 17.4958 16.0422 17.0567 16.1634 16.7538C16.2883 16.4434 16.4094 16.0081 16.4397 15.6561C16.4511 15.5236 16.4738 15.376 16.4738 15.2321C16.4738 14.9747 16.417 14.6568 16.3602 14.441C16.311 14.2404 16.205 13.9489 16.118 13.7672C15.9135 13.3622 15.694 13.0253 15.3685 12.696C15.2284 12.5559 15.0353 12.3931 14.8764 12.2834C14.4903 12.0222 14.0549 11.8291 13.5969 11.7307C12.6354 11.5263 11.8367 11.6663 11.0078 12.1206C10.7768 12.2455 10.6671 12.3401 10.4778 12.4953C10.3264 12.6165 10.2545 12.7035 10.1333 12.8322L10.0311 12.9534C9.963 13.0404 9.89865 13.1199 9.83809 13.2145C9.41792 13.8467 9.18701 14.4978 9.18701 15.2775Z" fill="#414141"></path>
                                            <path fill-rule="evenodd" clip-rule="evenodd" d="M12.8511 21.6519C12.8511 21.8488 12.8171 21.8147 13.029 21.8147C13.0858 21.8147 13.0593 21.6936 13.0783 21.5346C13.1313 21.0652 13.3773 20.6715 13.7369 20.3838C13.9602 20.2059 14.2139 20.0734 14.4902 19.9712C14.6567 19.9107 14.8157 19.869 14.9974 19.8198C15.4895 19.6949 15.974 19.676 16.4851 19.676V18.1846C15.6636 18.1846 14.8422 18.5177 14.2176 19.0287C14.1079 19.1158 13.9148 19.2937 13.824 19.3997C13.8013 19.4299 13.7975 19.4375 13.771 19.464C13.6612 19.5776 13.4795 19.8388 13.3924 19.9675C13.3319 20.0621 13.2827 20.1529 13.2297 20.2514C13.0215 20.6223 12.8587 21.2204 12.8587 21.6519H12.8511Z" fill="#414141"></path>
                                        </g>
                                        <defs>
                                            <clipPath id="clip0_8802_273">
                                                <rect width="45" height="45" fill="white"></rect>
                                            </clipPath>
                                        </defs>
                                    </svg>