<svg xmlns="http://www.w3.org/2000/svg" width="45" height="45" viewBox="0 0 45 45" fill="none">
                                            <path d="M9.24153 17.4117C13.3143 17.345 17.387 17.2813 21.4628 17.2146C20.6732 21.4139 20.904 26.926 21.4628 29.6123L9.24153 29.3485C5.92806 29.2788 3.21289 26.9502 3.21289 23.6969V23.1269C3.21289 19.8767 5.92502 17.4663 9.24153 17.4117Z" stroke="#414141" stroke-width="0.803168" stroke-miterlimit="22.93"/>
                                            <path d="M21.4625 17.2146C21.9272 17.2328 25.0706 17.2267 25.3348 16.8659C25.5413 16.5809 25.5383 16.3748 25.5383 16.3748C25.5383 16.3748 28.3081 16.5112 30.7773 16.5779C32.1925 16.6173 33.9966 16.4991 35.2904 16.3778C35.2904 16.3778 35.3056 17.2207 36.0345 17.1782C37.4042 17.2358 37.4012 17.348 37.3981 17.4511C37.3981 17.5057 37.389 17.3177 37.5318 17.3086L40.5355 17.3844C40.6418 17.3935 40.7906 17.5178 40.9606 18.2243C41.1368 18.955 41.2279 20.2829 41.3251 21.7474C41.4192 21.896 41.7412 21.8717 41.7442 22.1355C41.7594 23.3634 41.7989 24.6277 41.6987 25.977C41.6895 26.0922 41.4435 26.174 41.3129 26.1589C41.2006 27.4657 41.0943 28.448 40.9029 29.0908C40.9029 29.0908 40.6843 29.5911 40.4838 29.6032C40.2834 29.6153 37.4437 29.6335 37.3101 29.6426C36.9213 29.6881 35.8037 29.8124 35.9039 30.3581C34.8561 31.0282 32.4051 30.9009 30.5252 30.9221C27.0173 30.9615 25.514 30.8918 24.9157 30.3794C24.9157 30.3794 24.6727 29.8276 24.2141 29.7881C23.7555 29.7487 21.4564 29.6365 21.4564 29.6365C21.4564 29.6365 20.9492 26.174 20.9492 23.9819C20.9492 21.7898 20.9553 20.007 21.4564 17.2116L21.4625 17.2146Z" stroke="#414141" stroke-width="0.803168" stroke-miterlimit="22.93"/>
                                            <path d="M37.5323 17.3085C37.5323 17.3085 37.8177 17.9937 37.8754 20.2858C37.9331 22.578 37.9332 28.4418 37.4654 29.6394H37.3105C37.3105 29.6394 37.9514 25.7979 37.8269 22.3051C37.7023 18.8123 37.7904 19.3429 37.3925 17.4328C37.3925 17.4328 37.4108 17.2933 37.5262 17.3054L37.5323 17.3085Z" stroke="#414141" stroke-width="0.803168" stroke-miterlimit="22.93"/>
                                            <path d="M41.3256 21.7476C41.3256 21.7476 41.3954 21.8961 41.2071 21.9325C41.0188 21.9689 39.2512 21.9264 39.0052 21.9264C38.7592 21.9264 38.2885 21.9992 38.2369 22.5419C38.1852 23.0847 38.2065 25.5951 38.2065 25.5951C38.2065 25.5951 38.17 26.1894 38.9081 26.1803C39.6461 26.1742 41.1616 26.1621 41.1616 26.1621L41.3104 26.1742" stroke="#414141" stroke-width="0.803168" stroke-miterlimit="22.93"/>
                                            <path d="M39.1328 22.6963H39.6248C39.9497 22.6963 40.217 22.9419 40.217 23.2451V25.0461C40.217 25.3462 39.9497 25.5948 39.6248 25.5948H39.1328C38.8078 25.5948 38.5405 25.3493 38.5405 25.0461V23.2451C38.5405 22.9449 38.8078 22.6963 39.1328 22.6963Z" stroke="#414141" stroke-width="0.803168" stroke-miterlimit="22.93"/>
                                            <path d="M25.0796 16.9961C25.0796 16.9961 26.3855 18.8426 29.3558 18.8668C32.3261 18.8911 34.9289 17.6995 35.7428 17.181" stroke="#414141" stroke-width="0.803168" stroke-miterlimit="22.93"/>
                                            <path d="M24.6426 29.9972C24.6426 29.9972 25.8787 29.3999 27.6797 29.3999C29.4807 29.3999 35.4729 29.4666 35.9861 30.073" stroke="#414141" stroke-width="0.803168" stroke-miterlimit="22.93"/>
                                            <mask id="path-8-inside-1_8763_8243" fill="white">
                                                <path fill-rule="evenodd" clip-rule="evenodd" d="M30.3789 12.4824C32.9999 12.4824 35.1927 12.7129 35.7121 13.0191H25.0488C25.5682 12.7129 27.7579 12.4824 30.382 12.4824H30.3789Z"/>
                                            </mask>
                                            <path d="M35.7121 13.0191V13.8222H38.6555L36.12 12.3272L35.7121 13.0191ZM25.0488 13.0191L24.6409 12.3272L22.1054 13.8222H25.0488V13.0191ZM30.3789 13.2856C31.6685 13.2856 32.8441 13.3424 33.7522 13.4349C34.2072 13.4813 34.5839 13.5356 34.869 13.5932C35.0115 13.6221 35.1221 13.65 35.2033 13.6752C35.2915 13.7025 35.3159 13.7179 35.3041 13.7109L36.12 12.3272C35.8639 12.1762 35.5116 12.0844 35.1876 12.0188C34.8335 11.9472 34.4008 11.8864 33.9151 11.8369C32.9417 11.7377 31.7104 11.6793 30.3789 11.6793V13.2856ZM35.7121 12.2159H25.0488V13.8222H35.7121V12.2159ZM25.4568 13.7109C25.4451 13.7178 25.4696 13.7025 25.5576 13.6752C25.6387 13.65 25.7493 13.6221 25.8916 13.5932C26.1764 13.5356 26.5528 13.4813 27.0076 13.4349C27.9153 13.3424 29.0909 13.2856 30.382 13.2856V11.6793C29.049 11.6793 27.8177 11.7377 26.8447 11.8369C26.3591 11.8864 25.9267 11.9472 25.5728 12.0188C25.2488 12.0845 24.8969 12.1763 24.6409 12.3272L25.4568 13.7109ZM30.382 11.6793H30.3789V13.2856H30.382V11.6793Z" fill="#414141" mask="url(#path-8-inside-1_8763_8243)"/>
                                            <path d="M25.3176 15.0824V13.9931H35.3721V15.0898C31.98 15.2806 28.6617 15.213 25.3176 15.0824Z" stroke="#414141" stroke-width="0.803168"/>
                                        </svg>