<svg xmlns="http://www.w3.org/2000/svg" width="72" height="57" viewBox="0 0 72 57" fill="none">
  <path fill-rule="evenodd" clip-rule="evenodd" d="M14.0206 4H58.9841C60.0955 4 61 4.90495 61 6.01667V50.9957C61 52.1074 60.0955 53.0169 58.9841 53.0169H14.0206C12.9092 53.0169 12 52.1074 12 50.9957V6.01667C12 4.90495 12.9092 4 14.0206 4Z" stroke="#C7E7DC" stroke-miterlimit="2.61313"/>
  <path fill-rule="evenodd" clip-rule="evenodd" d="M36.4897 12.2925C36.4897 12.2925 32.3473 12.0856 30.7354 16.4315C30.7354 16.4315 29.7297 18.972 31.3095 21.5721C32.8984 24.1677 35.5254 24.4433 36.4897 24.4479C37.3669 24.4617 40.8017 24.0344 42.0371 20.8508C42.7581 18.9765 42.4873 17.4468 42.4322 17.1987C42.3495 16.8174 42.2255 16.381 42.0142 15.9216C41.2611 14.2908 39.5987 12.4073 36.4897 12.2925ZM36.4666 12.5588C36.4666 12.5588 39.0935 12.4165 39.8604 15.9308C39.8604 15.9308 40.4435 18.9582 39.6077 21.6548C39.6077 21.6548 38.9191 24.1584 36.3657 24.1584C33.8124 24.1584 33.1923 21.2045 33.1004 20.8095C33.0132 20.419 32.4391 16.8174 33.5597 14.5204C33.5597 14.5204 34.3358 12.5588 36.4666 12.5588ZM42.5791 23.2259V25.7066C42.5791 25.7066 36.857 25.4264 36.857 29.2715H36.5402C36.5402 29.2715 36.2783 27.1491 38.354 25.0221C38.354 25.0221 40.0487 23.2259 42.5791 23.2259Z" fill="#C7E7DC"/>
  <path d="M25.2443 42.966C26.5761 42.966 27.6414 42.4286 28.3854 41.7946V38.634H25.1799V39.7825H27.1041V41.1928C26.6403 41.5374 25.9975 41.7625 25.2903 41.7625C23.7518 41.7625 22.7277 40.6231 22.7277 39.0704V39.0521C22.7277 37.6096 23.7839 36.3968 25.1707 36.3968C26.126 36.3968 26.6956 36.7092 27.2788 37.2007L28.1145 36.2038C27.343 35.5469 26.5347 35.1794 25.2259 35.1794C22.9573 35.1794 21.3408 36.9664 21.3408 39.0704V39.0934C21.3408 41.2893 22.893 42.966 25.2443 42.966ZM31.9079 42.9569C32.7896 42.9569 33.3176 42.4929 33.6849 41.9554V42.8375H34.9938V37.1594H33.6849V40.3613C33.6849 41.2433 33.1568 41.7625 32.4037 41.7625C31.6322 41.7625 31.1867 41.2663 31.1867 40.3843V37.1594H29.8871V40.7702C29.8871 42.0933 30.6312 42.9569 31.9079 42.9569ZM36.6379 36.2866H38.034V35.0507H36.6379V36.2866ZM36.6931 42.8375H37.9927V37.1594H36.6931V42.8375ZM42.0339 42.9569C42.9615 42.9569 43.5493 42.4837 43.9672 41.8911V42.8375H45.2714V34.9865H43.9672V38.0414C43.5631 37.5039 42.9707 37.0399 42.0339 37.0399C40.6791 37.0399 39.4025 38.1057 39.4025 39.9892V40.0076C39.4025 41.8911 40.7021 42.9569 42.0339 42.9569ZM42.3462 41.8267C41.4645 41.8267 40.7113 41.1055 40.7113 40.0076V39.9892C40.7113 38.8591 41.4553 38.17 42.3462 38.17C43.2188 38.17 43.9901 38.8912 43.9901 39.9892V40.0076C43.9901 41.0963 43.2188 41.8267 42.3462 41.8267ZM49.5056 42.966C50.5481 42.966 51.292 42.548 51.8293 41.9003L51.0625 41.225C50.6124 41.666 50.1622 41.9003 49.5285 41.9003C48.6881 41.9003 48.0313 41.3857 47.8936 40.4577H52.0634C52.0726 40.3291 52.0865 40.2143 52.0865 40.0948C52.0865 38.4594 51.1726 37.0399 49.3632 37.0399C47.7421 37.0399 46.5941 38.3721 46.5941 39.9984V40.0214C46.5941 41.7716 47.8615 42.966 49.5056 42.966ZM47.8799 39.5987C47.9993 38.7167 48.5595 38.1057 49.354 38.1057C50.2128 38.1057 50.7088 38.7627 50.7961 39.5987H47.8799Z" fill="#C7E7DC"/>
</svg>