<svg width="51" height="51" viewBox="0 0 51 51" fill="none" xmlns="http://www.w3.org/2000/svg">
<path fill-rule="evenodd" clip-rule="evenodd" d="M22.3287 16.8021C22.3287 21.7938 18.4307 25.8404 13.6222 25.8404C8.81372 25.8404 4.91567 21.7938 4.91567 16.8021C4.91567 11.8104 8.81372 7.76388 13.6222 7.76388C18.4307 7.76388 22.3287 11.8104 22.3287 16.8021ZM21.5498 16.8021C21.5498 21.3472 18.0005 25.0317 13.6222 25.0317C9.24393 25.0317 5.69464 21.3472 5.69464 16.8021C5.69464 12.257 9.24393 8.57253 13.6222 8.57253C18.0005 8.57253 21.5498 12.257 21.5498 16.8021Z" fill="black"/>
<path d="M35.2927 18.2122H36.0579L36.0669 18.2028V15.0348H35.2657V17.385C35.2117 17.4978 35.1397 17.5824 35.0497 17.6576C34.9597 17.7328 34.8517 17.7704 34.7166 17.7704C34.5636 17.7704 34.4376 17.714 34.3566 17.6106C34.2756 17.5072 34.2306 17.3568 34.2306 17.1687V15.0348H33.4294V17.2158C33.4294 17.5448 33.4924 17.808 33.6365 18.0054C33.7805 18.2028 33.9875 18.3062 34.2576 18.3062C34.3926 18.3062 34.5096 18.278 34.6176 18.231C34.7257 18.184 34.8247 18.1182 34.9057 18.043C34.9867 17.9678 35.0587 17.8832 35.1217 17.7892C35.1847 17.6952 35.2387 17.6012 35.2837 17.5072L35.2927 17.5166V18.2122Z" fill="black"/>
<path d="M41.3777 14.9972H41.5128V15.345H41.5668V14.9972H41.6928V14.9502H41.3777V14.9972Z" fill="black"/>
<path d="M42.0979 15.0536V15.3356H42.1519V14.9408H42.1069L41.9538 15.2228L41.7918 14.9408H41.7468V15.3356H41.8008V15.0536L41.9358 15.2886H41.9628L42.0979 15.0536Z" fill="black"/>
<path d="M37.8762 15.2134C37.9572 15.1382 38.0562 15.0724 38.1552 15.016L38.1642 14.9972C38.2632 14.9408 38.3442 14.922 38.4613 14.922V15.8621H38.3982C38.3712 15.8245 38.3262 15.7868 38.2722 15.7492L38.1102 15.6646C38.0472 15.6458 37.9932 15.627 37.9392 15.6082L37.9122 15.6034C37.87 15.5959 37.834 15.5894 37.8041 15.5894C37.7501 15.5894 37.6961 15.6176 37.6331 15.6552C37.5701 15.7022 37.5161 15.7586 37.4531 15.8339V18.2122H36.643V15.0442H37.4441V15.6928C37.4981 15.627 37.5611 15.5518 37.6331 15.4672C37.7051 15.3732 37.7861 15.2886 37.8762 15.2134Z" fill="black"/>
<path d="M32.1152 18.9267C32.3853 18.8703 32.6913 18.8421 33.0154 18.8421V17.808C32.6733 17.808 32.3583 17.8738 32.0702 18.0148C31.7822 18.1558 31.5301 18.3344 31.3141 18.5694C31.0981 18.7951 30.927 19.0677 30.801 19.3685C30.693 19.6505 30.63 19.9513 30.621 20.2616V20.318H30.756C30.756 20.0548 30.81 19.8385 30.927 19.6505C31.044 19.4625 31.2061 19.3121 31.4041 19.1899C31.6021 19.0677 31.8362 18.9831 32.1152 18.9267Z" fill="black"/>
<path fill-rule="evenodd" clip-rule="evenodd" d="M29.6938 18.1182C29.9189 18.2216 30.1709 18.2874 30.4229 18.3062L30.4139 18.2968C30.504 18.3062 30.657 18.3062 30.657 18.3062C30.954 18.2968 31.2421 18.2404 31.5121 18.1182C31.8002 17.9866 32.0522 17.808 32.2772 17.5824C32.5023 17.3662 32.6733 17.0935 32.8083 16.7927C32.9434 16.4825 33.0064 16.1535 33.0064 15.8056C33.0064 15.4484 32.9434 15.1194 32.8083 14.8186C32.6733 14.5178 32.5023 14.2451 32.2772 14.0195C32.0612 13.7939 31.8002 13.6153 31.5121 13.4837C31.2241 13.3521 30.918 13.2863 30.603 13.2863C30.2879 13.2863 29.9819 13.3521 29.6938 13.4837C29.4058 13.6153 29.1447 13.7939 28.9287 14.0195C28.7037 14.2451 28.5326 14.5178 28.3976 14.8186C28.2626 15.1288 28.1996 15.4578 28.1996 15.8056C28.1996 16.1629 28.2626 16.4919 28.3976 16.7927C28.5326 17.0935 28.7127 17.3568 28.9287 17.5824C29.1447 17.808 29.4058 17.9866 29.6938 18.1182ZM31.2421 17.996C31.062 18.1182 30.855 18.1746 30.603 18.1746V18.1558C30.3509 18.1558 30.1439 18.0994 29.9639 17.9772C29.7838 17.855 29.6398 17.6858 29.5228 17.479C29.4058 17.2628 29.3248 17.0183 29.2708 16.7269C29.2167 16.4355 29.1897 16.1253 29.1897 15.7868C29.1897 15.4484 29.2167 15.1382 29.2708 14.8468C29.3248 14.5554 29.4058 14.3109 29.5228 14.0947C29.6398 13.8879 29.7838 13.7187 29.9639 13.5965C30.1439 13.4743 30.3509 13.4179 30.603 13.4179C30.855 13.4179 31.062 13.4743 31.2421 13.5965C31.4221 13.7187 31.5661 13.8879 31.6831 14.0947C31.8002 14.3109 31.8812 14.5554 31.9352 14.8468C31.9892 15.1382 32.0162 15.4578 32.0162 15.7963C32.0162 16.1441 31.9892 16.4543 31.9352 16.7457C31.8812 17.0371 31.8002 17.291 31.6831 17.4978C31.5661 17.714 31.4221 17.8738 31.2421 17.996Z" fill="black"/>
<path fill-rule="evenodd" clip-rule="evenodd" d="M40.9097 17.5636C41.0447 17.4884 41.1617 17.3944 41.2427 17.291L41.2607 17.2816L41.2967 17.3004C41.2067 17.5918 41.0537 17.8362 40.8377 18.0242C40.6216 18.2122 40.3336 18.3062 39.9915 18.3062C39.7665 18.3062 39.5684 18.2686 39.3884 18.184C39.2084 18.0994 39.0554 17.9866 38.9293 17.8362C38.8033 17.6858 38.7043 17.5166 38.6323 17.3192C38.5603 17.1217 38.5243 16.9055 38.5243 16.6799C38.5243 16.4167 38.5693 16.1817 38.6503 15.9655C38.7313 15.7586 38.8483 15.5706 38.9833 15.4202C39.1184 15.2604 39.2804 15.1476 39.4604 15.063C39.6405 14.9784 39.8295 14.9408 40.0185 14.9408C40.2165 14.9408 40.3966 14.9784 40.5586 15.063C40.7116 15.1476 40.8647 15.2322 40.9637 15.3732C41.2427 15.768 41.2517 16.0877 41.2517 16.0877L39.4154 16.9619C39.4694 17.1217 39.5324 17.2534 39.6224 17.3568C39.7215 17.4696 39.8295 17.5542 39.9645 17.6012C40.0995 17.6482 40.2436 17.6764 40.3966 17.6764C40.5946 17.6764 40.7656 17.6388 40.9097 17.5636ZM39.3884 15.7398C39.3524 15.8715 39.3344 16.0125 39.3254 16.1629V16.2945C39.3254 16.5107 39.3434 16.6799 39.3884 16.8397L40.4866 16.2945V16.0877C40.4866 15.768 40.4506 15.4296 40.3606 15.2886C40.2706 15.1476 40.1445 15.0724 39.9825 15.0724C39.8835 15.0724 39.7935 15.1006 39.7125 15.157C39.6315 15.2134 39.5684 15.2886 39.5144 15.392C39.4604 15.4954 39.4154 15.6082 39.3884 15.7398Z" fill="black"/>
<path fill-rule="evenodd" clip-rule="evenodd" d="M19.1404 26.8699C20.0713 26.3189 20.9183 25.6327 21.6568 24.8372C28.4864 23.3031 32.7636 23.329 38.773 23.3654C39.7353 23.3712 40.742 23.3773 41.8106 23.3773C44.3144 23.3773 46.2278 22.6344 47.5214 21.4667C48.8156 20.2984 49.4658 18.7243 49.4658 17.1221V16.532C49.4658 14.6906 48.7106 13.096 47.3611 11.9704C46.018 10.85 44.1089 10.2109 41.8106 10.2109C41.1469 10.2109 40.3423 10.2224 39.4372 10.2353C37.2729 10.266 34.5335 10.305 31.7696 10.2152C27.8358 10.0876 23.9485 9.69959 21.6675 8.69697L21.5364 8.63935C19.5155 6.52794 16.7159 5.2207 13.6222 5.2207C7.4607 5.2207 2.46582 10.4059 2.46582 16.8021C2.46582 20.8259 4.44252 24.3704 7.44284 26.4462V29.1379C7.44284 29.7846 7.98589 30.2837 8.6013 30.2142C9.76213 30.0832 12.05 29.8473 13.658 29.8226C15.0845 29.8008 16.9193 30.0312 17.9397 30.18C18.566 30.2714 19.1404 29.77 19.1404 29.1029V26.8699ZM23.9643 16.8013C23.9752 16.5177 23.9764 16.2345 23.9678 15.9526C23.5506 10.4001 19.0781 6.02935 13.6222 6.02935C7.89091 6.02935 3.24479 10.8525 3.24479 16.8021C3.24479 21.1269 5.69971 24.8565 9.24186 26.571C10.9734 27.179 12.3564 27.4792 13.6493 27.4828C15.2347 27.4873 16.7206 27.0455 18.581 26.1095L19.1404 25.8281V25.9273C19.4891 25.6995 19.8239 25.4508 20.1431 25.1829L20.0131 25.2126L21.0046 24.219C22.7886 22.4312 23.8558 19.6317 23.9643 16.8013ZM8.95086 27.3225C10.3719 28.0036 11.9543 28.3835 13.6222 28.3835C15.3167 28.3835 16.923 27.9914 18.3614 27.2897V29.1029C18.3614 29.2682 18.2157 29.4037 18.0481 29.3792C17.0248 29.23 15.1382 28.9912 13.6465 29.0141C11.9975 29.0394 9.67615 29.2795 8.51708 29.4103C8.35856 29.4282 8.22181 29.2993 8.22181 29.1379V27.0554C8.47062 27.1497 8.71345 27.2387 8.95086 27.3225ZM24.7786 16.8021C24.7786 19.4448 23.9259 21.8808 22.4906 23.8297C28.8404 22.4958 33.062 22.5216 38.7833 22.5566C39.7444 22.5625 40.7477 22.5687 41.8106 22.5687C44.1664 22.5687 45.8858 21.8715 47.0102 20.8565C48.134 19.8421 48.6869 18.4908 48.6869 17.1221V16.532C48.6869 14.9385 48.0408 13.5747 46.8732 12.6007C45.6993 11.6215 43.9755 11.0196 41.8106 11.0196C41.1633 11.0196 40.3697 11.0309 39.4723 11.0436C37.3031 11.0744 34.5274 11.1138 31.7452 11.0235C28.5386 10.9194 25.2588 10.6428 22.8393 9.95979C24.0742 11.6436 24.6762 13.7592 24.7456 15.9045C24.7674 16.2008 24.7786 16.5001 24.7786 16.8021Z" fill="black"/>
<path fill-rule="evenodd" clip-rule="evenodd" d="M42.787 6.74962H30.4354C30.4227 6.74962 30.4103 6.75226 30.3987 6.75715C30.3913 6.76026 30.3842 6.76429 30.3775 6.76912C30.3453 6.79237 30.3229 6.83432 30.3229 6.88336V9.33673C31.7935 9.36668 33.2581 9.40746 34.7231 9.44826C37.1772 9.51658 39.6329 9.58496 42.1206 9.60256C42.3799 9.6044 42.6396 9.60568 42.8996 9.60635V6.88336C42.8996 6.8364 42.8781 6.79309 42.8452 6.76912C42.8293 6.7575 42.8107 6.75042 42.7905 6.74968L42.787 6.74962ZM42.1206 8.7939C39.6435 8.77634 37.2047 8.70841 34.7585 8.64027C33.5433 8.60642 32.3263 8.57252 31.1018 8.54472V7.55826H42.1206V8.7939Z" fill="black"/>
<path d="M42.721 5.94097C42.7312 5.94745 42.741 5.95395 42.7503 5.96047H30.3987C30.408 5.95396 30.4177 5.94747 30.4279 5.941C31.0785 5.52878 33.5851 5.22094 36.5727 5.2207H36.5762C39.5672 5.22094 42.0704 5.52876 42.721 5.94097Z" fill="black"/>
</svg>
