<svg xmlns="http://www.w3.org/2000/svg" width="71" height="57" viewBox="0 0 71 57" fill="none">
  <path d="M41.2179 54.3961C39.427 54.3961 37.4525 54.2592 35.2485 53.9853C29.3709 53.255 24.1362 51.7943 24.0443 51.7943H23.9984C21.7943 49.9684 22.4372 45.4038 22.6209 44.4908C16.6515 42.8932 16.5596 39.6523 16.5596 39.5154L16.7892 29.0623L8.15654 26.2779C4.62082 25.1368 4.71266 20.5265 4.75857 19.9331C4.20755 19.2027 4.02388 18.518 4.20755 17.8333C4.52898 16.6465 5.86062 15.9618 6.13613 15.8249C8.2943 12.447 11.9678 12.4927 11.9678 12.4927L14.9066 13.2687V9.16051C14.9984 5.60008 15.5494 5.3262 15.6872 5.23491C15.779 5.18926 15.8708 5.18926 15.9627 5.23491H16.5137L16.7433 4.41327H16.7892C21.5647 1.17238 31.6209 0.578979 31.7127 0.533333H31.8046L32.5393 1.53755L33.5954 1.44626V0.39639H34.8352C44.2485 -0.653478 53.2026 1.99402 53.2944 2.03966H53.4322V2.77001L54.8097 2.45048H54.8557C57.4271 3.59164 59.0342 4.96103 59.6771 6.51301C60.1363 7.69982 59.8608 8.5671 59.7689 8.79533L59.8608 10.0734V23.174C59.2179 24.3151 58.6669 24.9998 58.5291 25.1824L58.4373 38.8307C58.4373 40.7935 57.2434 42.3455 54.9016 43.3497C53.524 43.9431 52.1465 44.1713 51.5954 44.2626C52.6516 47.4122 52.3301 49.8771 50.723 51.566C48.9781 53.3919 45.7638 54.3048 41.126 54.3048M24.1821 51.4747C25.1464 51.7486 45.1209 57.1349 50.5852 51.4747C52.1465 49.8315 52.3761 47.4579 51.3199 44.3083L51.2281 44.08H51.4577C51.4577 44.08 58.2077 43.3497 58.1618 38.9676L58.2536 25.1824C58.2536 25.1824 58.8506 24.4521 59.5853 23.174V10.1647L59.4475 8.79533C59.4475 8.79533 60.7791 5.50879 54.8097 2.86129L53.1107 3.27211V2.40484C52.0087 2.08531 43.6515 -0.151367 34.8811 0.761561H33.9627V1.81143L32.4015 1.90272L31.6668 0.898504C30.6566 0.989797 21.5188 1.67449 17.0647 4.64151L16.7892 5.50879H15.8709H15.8249C15.8249 5.50879 15.3657 5.69138 15.3198 9.11486L15.228 13.6795L11.8759 12.8122C11.8759 12.8122 8.38614 12.8122 6.3198 16.0075L6.27388 16.0531C6.27388 16.0531 4.80449 16.6922 4.48306 17.8333C4.3453 18.4267 4.48306 19.0201 4.98816 19.7048V19.8418C4.98816 19.8874 4.66674 24.7259 8.15654 25.9127L17.0188 28.7885V28.9254L16.7892 39.4697C16.7892 39.4697 16.8811 42.665 22.7127 44.1713H22.8964V44.3539C22.8964 44.3996 21.8862 49.6032 24.0903 51.4291" fill="#C7E7DC"/>
  <path d="M41.2179 54.3961C39.427 54.3961 37.4525 54.2592 35.2485 53.9853C29.3709 53.255 24.1362 51.7943 24.0443 51.7943H23.9984C21.7943 49.9684 22.4372 45.4038 22.6209 44.4908C16.6515 42.8932 16.5596 39.6523 16.5596 39.5154L16.7892 29.0623L8.15654 26.2779C4.62082 25.1368 4.71266 20.5265 4.75857 19.9331C4.20755 19.2027 4.02388 18.518 4.20755 17.8333C4.52898 16.6465 5.86062 15.9618 6.13613 15.8249C8.2943 12.447 11.9678 12.4927 11.9678 12.4927L14.9066 13.2687V9.16051C14.9984 5.60008 15.5494 5.3262 15.6872 5.23491C15.779 5.18926 15.8708 5.18926 15.9627 5.23491H16.5137L16.7433 4.41327H16.7892C21.5647 1.17238 31.6209 0.578979 31.7127 0.533333H31.8046L32.5393 1.53755L33.5954 1.44626V0.39639H34.8352C44.2485 -0.653478 53.2026 1.99402 53.2944 2.03966H53.4322V2.77001L54.8097 2.45048H54.8557C57.4271 3.59164 59.0342 4.96103 59.6771 6.51301C60.1363 7.69982 59.8608 8.5671 59.7689 8.79533L59.8608 10.0734V23.174C59.2179 24.3151 58.6669 24.9998 58.5291 25.1824L58.4373 38.8307C58.4373 40.7935 57.2434 42.3455 54.9016 43.3497C53.524 43.9431 52.1465 44.1713 51.5954 44.2626C52.6516 47.4122 52.3301 49.8771 50.723 51.566C48.9781 53.3919 45.7638 54.3048 41.126 54.3048M24.1821 51.4747C25.1464 51.7486 45.1209 57.1349 50.5852 51.4747C52.1465 49.8315 52.3761 47.4579 51.3199 44.3082L51.2281 44.08H51.4577C51.4577 44.08 58.2077 43.3497 58.1618 38.9676L58.2536 25.1824C58.2536 25.1824 58.8506 24.4521 59.5853 23.174V10.1647L59.4475 8.79533C59.4475 8.79533 60.7791 5.50879 54.8097 2.86129L53.1107 3.27211V2.40484C52.0087 2.08531 43.6515 -0.151367 34.8811 0.761561H33.9627V1.81143L32.4015 1.90272L31.6668 0.898504C30.6566 0.989797 21.5188 1.67449 17.0647 4.64151L16.7892 5.50879H15.8709H15.8249C15.8249 5.50879 15.3657 5.69138 15.3198 9.11486L15.228 13.6795L11.8759 12.8122C11.8759 12.8122 8.38614 12.8122 6.3198 16.0075L6.27388 16.0531C6.27388 16.0531 4.80449 16.6922 4.48306 17.8333C4.3453 18.4267 4.48306 19.0201 4.98816 19.7048V19.8418C4.98816 19.8874 4.66674 24.7259 8.15654 25.9127L17.0188 28.7885V28.9254L16.7892 39.4697C16.7892 39.4697 16.8811 42.665 22.7127 44.1713H22.8964V44.3539C22.8964 44.3996 21.8862 49.6032 24.0903 51.4291" stroke="#C7E7DC" stroke-width="0.3"/>
  <path d="M24.8265 52.205L24 51.7941L24.1837 51.4746L24.9643 51.9311L24.8265 52.205Z" fill="#C7E7DC" stroke="#C7E7DC" stroke-width="0.3"/>
  <path d="M24.1926 50.13L24.0117 50.4479L24.8111 50.8973L24.9919 50.5794L24.1926 50.13Z" fill="#C7E7DC" stroke="#C7E7DC" stroke-width="0.3"/>
  <path d="M24.8265 49.6029L24 49.1464L24.1837 48.8269L24.9643 49.2834L24.8265 49.6029Z" fill="#C7E7DC" stroke="#C7E7DC" stroke-width="0.3"/>
  <path d="M24.8265 48.2795L24 47.8231L24.1837 47.5035L24.9643 47.96L24.8265 48.2795Z" fill="#C7E7DC" stroke="#C7E7DC" stroke-width="0.3"/>
  <path d="M24.8265 46.9554L24 46.499L24.1837 46.1794L24.9643 46.6359L24.8265 46.9554Z" fill="#C7E7DC" stroke="#C7E7DC" stroke-width="0.3"/>
  <path d="M15.5509 12.4011H15.1836V13.9531H15.5509V12.4011Z" fill="#C7E7DC" stroke="#C7E7DC" stroke-width="0.3"/>
  <path d="M15.9152 12.8124H15.5479V13.9992H15.9152V12.8124Z" fill="#C7E7DC" stroke="#C7E7DC" stroke-width="0.3"/>
  <path d="M16.7902 4.59583H16.4229V5.23487H16.7902V4.59583Z" fill="#C7E7DC" stroke="#C7E7DC" stroke-width="0.3"/>
  <path d="M4.66706 20.0695L4.5293 19.9326L4.80481 19.7043L4.94256 19.8413L4.66706 20.0695Z" fill="#C7E7DC" stroke="#C7E7DC" stroke-width="0.3"/>
  <path d="M17.34 13.9985H16.9727V14.455H17.34V13.9985Z" fill="#C7E7DC" stroke="#C7E7DC" stroke-width="0.3"/>
  <path d="M18.0763 14.4099H17.709V14.6838H18.0763V14.4099Z" fill="#C7E7DC" stroke="#C7E7DC" stroke-width="0.3"/>
  <path d="M20.4631 10.9866H20.0957V12.3103H20.4631V10.9866Z" fill="#C7E7DC" stroke="#C7E7DC" stroke-width="0.3"/>
  <path d="M20.508 15.4596H20.1406V15.5052H20.508V15.4596Z" fill="#C7E7DC" stroke="#C7E7DC" stroke-width="0.3"/>
  <path d="M21.3361 15.7333H20.9688V15.7789H21.3361V15.7333Z" fill="#C7E7DC" stroke="#C7E7DC" stroke-width="0.3"/>
  <path d="M21.1045 34.4943V30.2948H21.4718V34.4943H21.1045Z" fill="#C7E7DC" stroke="#C7E7DC" stroke-width="0.3"/>
  <path d="M21.4718 15.7789H21.1045V15.8246H21.4718V15.7789Z" fill="#C7E7DC" stroke="#C7E7DC" stroke-width="0.3"/>
  <path d="M21.4718 12.0361H21.1045V13.5425H21.4718V12.0361Z" fill="#C7E7DC" stroke="#C7E7DC" stroke-width="0.3"/>
  <path d="M21.5187 15.7788H21.1514V15.8245H21.5187V15.7788Z" fill="#C7E7DC" stroke="#C7E7DC" stroke-width="0.3"/>
  <path d="M21.84 11.4426H21.4727V12.7664H21.84V11.4426Z" fill="#C7E7DC" stroke="#C7E7DC" stroke-width="0.3"/>
  <path d="M22.8957 30.2948H22.5283V34.9051H22.8957V30.2948Z" fill="#C7E7DC" stroke="#C7E7DC" stroke-width="0.3"/>
  <path d="M22.8957 13.0402H22.5283V13.9531H22.8957V13.0402Z" fill="#C7E7DC" stroke="#C7E7DC" stroke-width="0.3"/>
  <path d="M22.9425 23.4021H22.5752V28.1037H22.9425V23.4021Z" fill="#C7E7DC" stroke="#C7E7DC" stroke-width="0.3"/>
  <path d="M23.0343 10.3015H22.667V11.1232H23.0343V10.3015Z" fill="#C7E7DC" stroke="#C7E7DC" stroke-width="0.3"/>
  <path d="M24.8254 16.6007H24.458V17.0115H24.8254V16.6007Z" fill="#C7E7DC" stroke="#C7E7DC" stroke-width="0.3"/>
  <path d="M22.8966 23.5388L22.6211 23.3106L26.4323 19.248L26.7078 19.4763L22.8966 23.5388Z" fill="#C7E7DC" stroke="#C7E7DC" stroke-width="0.3"/>
  <path d="M26.9217 19.42L26.2979 20.09L26.5674 20.338L27.1913 19.6681L26.9217 19.42Z" fill="#C7E7DC" stroke="#C7E7DC" stroke-width="0.3"/>
  <path d="M25.4679 16.7378H25.1006V17.6507H25.4679V16.7378Z" fill="#C7E7DC" stroke="#C7E7DC" stroke-width="0.3"/>
  <path d="M25.7433 24.3148H25.376V29.0164H25.7433V24.3148Z" fill="#C7E7DC" stroke="#C7E7DC" stroke-width="0.3"/>
  <path d="M26.1105 16.8287H25.7432V18.5633H26.1105V16.8287Z" fill="#C7E7DC" stroke="#C7E7DC" stroke-width="0.3"/>
  <path d="M25.6993 24.4517L25.4238 24.2234L28.5922 20.8456L28.8677 21.0738L25.6993 24.4517Z" fill="#C7E7DC" stroke="#C7E7DC" stroke-width="0.3"/>
  <path d="M23.03 29.5138L22.917 29.8612L24.6646 30.423L24.7777 30.0755L23.03 29.5138Z" fill="#C7E7DC" stroke="#C7E7DC" stroke-width="0.3"/>
  <path d="M22.8489 27.936L22.6738 28.2571L26.4685 30.3018L26.6436 29.9808L22.8489 27.936Z" fill="#C7E7DC" stroke="#C7E7DC" stroke-width="0.3"/>
  <path d="M26.4864 29.8174L26.3115 30.1385L26.9576 30.4863L27.1325 30.1651L26.4864 29.8174Z" fill="#C7E7DC" stroke="#C7E7DC" stroke-width="0.3"/>
  <path d="M28.0861 19.9785H27.7188V20.6632H28.0861V19.9785Z" fill="#C7E7DC" stroke="#C7E7DC" stroke-width="0.3"/>
  <path d="M28.9113 20.9369H28.5439V30.7509H28.9113V20.9369Z" fill="#C7E7DC" stroke="#C7E7DC" stroke-width="0.3"/>
  <path d="M21.335 34.6307L21.2432 34.3112L22.6666 33.946L22.7585 34.2656L21.335 34.6307Z" fill="#C7E7DC" stroke="#C7E7DC" stroke-width="0.3"/>
  <path d="M56.8979 31.9571L56.8643 32.3207L57.5044 32.3793L57.5381 32.0156L56.8979 31.9571Z" fill="#C7E7DC" stroke="#C7E7DC" stroke-width="0.3"/>
  <path d="M26.9836 30.5227L26.5244 30.3402L26.6162 30.0206L27.0754 30.1576L26.9836 30.5227Z" fill="#C7E7DC" stroke="#C7E7DC" stroke-width="0.3"/>
  <path d="M28.6817 30.8882L26.3398 30.1579L26.4317 29.8384L28.7735 30.5687L28.6817 30.8882Z" fill="#C7E7DC" stroke="#C7E7DC" stroke-width="0.3"/>
  <path d="M22.8663 27.9804L22.7529 28.3278L25.5482 29.2295L25.6616 28.8822L22.8663 27.9804Z" fill="#C7E7DC" stroke="#C7E7DC" stroke-width="0.3"/>
  <path d="M30.152 30.3402L28.6826 29.8837L28.7745 29.5186L30.2898 30.0207L30.152 30.3402Z" fill="#C7E7DC" stroke="#C7E7DC" stroke-width="0.3"/>
  <path d="M25.6428 28.8475L25.4678 29.1686L28.6166 30.8653L28.7916 30.5442L25.6428 28.8475Z" fill="#C7E7DC" stroke="#C7E7DC" stroke-width="0.3"/>
  <path d="M30.0148 17.3768H29.6475V20.2526H30.0148V17.3768Z" fill="#C7E7DC" stroke="#C7E7DC" stroke-width="0.3"/>
  <path d="M30.3351 17.4221H29.9678V20.7087H30.3351V17.4221Z" fill="#C7E7DC" stroke="#C7E7DC" stroke-width="0.3"/>
  <path d="M30.4269 20.7091H30.0596V30.1579H30.4269V20.7091Z" fill="#C7E7DC" stroke="#C7E7DC" stroke-width="0.3"/>
  <path d="M31.4826 17.5135H31.1152V21.3022H31.4826V17.5135Z" fill="#C7E7DC" stroke="#C7E7DC" stroke-width="0.3"/>
  <path d="M27.1671 30.477L26.8916 30.2031L27.0294 30.1118L27.2589 30.3401L27.1671 30.477Z" fill="#C7E7DC" stroke="#C7E7DC" stroke-width="0.3"/>
  <path d="M46.8758 46.456L46.5947 46.691L47.1859 47.3897L47.467 47.1546L46.8758 46.456Z" fill="#C7E7DC" stroke="#C7E7DC" stroke-width="0.3"/>
  <path d="M33.3664 22.3066H32.999V27.0082H33.3664V22.3066Z" fill="#C7E7DC" stroke="#C7E7DC" stroke-width="0.3"/>
  <path d="M33.9631 0.487427H33.5957V1.53729H33.9631V0.487427Z" fill="#C7E7DC" stroke="#C7E7DC" stroke-width="0.3"/>
  <path d="M30.336 30.2948L30.1064 30.0666L33.0452 26.917L33.3207 27.1452L30.336 30.2948Z" fill="#C7E7DC" stroke="#C7E7DC" stroke-width="0.3"/>
  <path d="M22.8234 23.2281L22.71 23.5754L25.5052 24.4772L25.6186 24.1299L22.8234 23.2281Z" fill="#C7E7DC" stroke="#C7E7DC" stroke-width="0.3"/>
  <path d="M35.7082 17.7418H35.3408V27.0993H35.7082V17.7418Z" fill="#C7E7DC" stroke="#C7E7DC" stroke-width="0.3"/>
  <path d="M35.755 17.7418H35.3877V26.7342H35.755V17.7418Z" fill="#C7E7DC" stroke="#C7E7DC" stroke-width="0.3"/>
  <path d="M37.2697 17.7419H36.9023V27.0995H37.2697V17.7419Z" fill="#C7E7DC" stroke="#C7E7DC" stroke-width="0.3"/>
  <path d="M35.7082 27.1449L35.3408 27.0537L35.3867 26.7341L35.7541 26.7798L35.7082 27.1449Z" fill="#C7E7DC" stroke="#C7E7DC" stroke-width="0.3"/>
  <path d="M28.6817 21.1198L26.3398 20.3438L26.4317 20.0243L28.7735 20.8003L28.6817 21.1198Z" fill="#C7E7DC" stroke="#C7E7DC" stroke-width="0.3"/>
  <path d="M27.809 20.1156L26.9365 19.6591L27.1202 19.3853L27.9926 19.8417L27.809 20.1156Z" fill="#C7E7DC" stroke="#C7E7DC" stroke-width="0.3"/>
  <path d="M30.3126 20.5541L30.1377 20.8752L33.0852 22.4622L33.2602 22.1411L30.3126 20.5541Z" fill="#C7E7DC" stroke="#C7E7DC" stroke-width="0.3"/>
  <path d="M42.6867 36.5939L42.2275 36.0005L42.503 35.8179L42.9622 36.4113L42.6867 36.5939Z" fill="#C7E7DC" stroke="#C7E7DC" stroke-width="0.3"/>
  <path d="M59.8145 20.4806H59.7227V20.8458H59.8145V20.4806Z" fill="#C7E7DC" stroke="#C7E7DC" stroke-width="0.3"/>
  <path d="M58.5206 22.1153L58.4854 22.4788L58.9881 22.527L59.0234 22.1635L58.5206 22.1153Z" fill="#C7E7DC" stroke="#C7E7DC" stroke-width="0.3"/>
  <path d="M55.816 23.6035L55.7471 23.9622L56.604 24.125L56.673 23.7663L55.816 23.6035Z" fill="#C7E7DC" stroke="#C7E7DC" stroke-width="0.3"/>
  <path d="M30.1514 20.8913L27.8555 20.1609L27.9473 19.7958L30.2892 20.5718L30.1514 20.8913Z" fill="#C7E7DC" stroke="#C7E7DC" stroke-width="0.3"/>
  <path d="M26.9836 19.7044L26.5244 19.5218L26.6162 19.2023L27.0754 19.3392L26.9836 19.7044Z" fill="#C7E7DC" stroke="#C7E7DC" stroke-width="0.3"/>
  <path d="M28.3162 19.4311L26.5713 18.8377L26.6631 18.5182L28.408 19.1116L28.3162 19.4311Z" fill="#C7E7DC" stroke="#C7E7DC" stroke-width="0.3"/>
  <path d="M24.1823 17.0118L22.7129 16.5097L22.8047 16.1902L24.2741 16.6467L24.1823 17.0118Z" fill="#C7E7DC" stroke="#C7E7DC" stroke-width="0.3"/>
  <path d="M12.2156 12.7352L12.1006 13.082L13.5834 13.5678L13.6983 13.221L12.2156 12.7352Z" fill="#C7E7DC" stroke="#C7E7DC" stroke-width="0.3"/>
  <path d="M40.9865 29.1536H40.6191V36.5939H40.9865V29.1536Z" fill="#C7E7DC" stroke="#C7E7DC" stroke-width="0.3"/>
  <path d="M40.9865 14.5922H40.6191V15.5964H40.9865V14.5922Z" fill="#C7E7DC" stroke="#C7E7DC" stroke-width="0.3"/>
  <path d="M41.2638 13.2688H40.8965V14.5925H41.2638V13.2688Z" fill="#C7E7DC" stroke="#C7E7DC" stroke-width="0.3"/>
  <path d="M41.5392 17.6505H41.1719V27.008H41.5392V17.6505Z" fill="#C7E7DC" stroke="#C7E7DC" stroke-width="0.3"/>
  <path d="M42.55 29.1078H42.1826V35.9091H42.55V29.1078Z" fill="#C7E7DC" stroke="#C7E7DC" stroke-width="0.3"/>
  <path d="M42.55 17.6047H42.1826V26.5971H42.55V17.6047Z" fill="#C7E7DC" stroke="#C7E7DC" stroke-width="0.3"/>
  <path d="M42.55 12.1732H42.1826V15.5511H42.55V12.1732Z" fill="#C7E7DC" stroke="#C7E7DC" stroke-width="0.3"/>
  <path d="M42.8713 17.5591H42.5039V26.5514H42.8713V17.5591Z" fill="#C7E7DC" stroke="#C7E7DC" stroke-width="0.3"/>
  <path d="M52.2659 24.8195L52.1543 25.1674L52.9417 25.417L53.0534 25.0691L52.2659 24.8195Z" fill="#C7E7DC" stroke="#C7E7DC" stroke-width="0.3"/>
  <path d="M48.2424 26.4605L47.6914 26.1409L47.8751 25.8214L48.4261 26.1409L48.2424 26.4605Z" fill="#C7E7DC" stroke="#C7E7DC" stroke-width="0.3"/>
  <path d="M42.7794 27.0083L42.5039 26.6888L42.8253 26.5062L43.0549 26.8257L42.7794 27.0083Z" fill="#C7E7DC" stroke="#C7E7DC" stroke-width="0.3"/>
  <path d="M43.0089 29.0623H42.6416V36.5026H43.0089V29.0623Z" fill="#C7E7DC" stroke="#C7E7DC" stroke-width="0.3"/>
  <path d="M43.0089 14.0901H42.6416V15.5051H43.0089V14.0901Z" fill="#C7E7DC" stroke="#C7E7DC" stroke-width="0.3"/>
  <path d="M43.1007 17.5591H42.7334V26.9166H43.1007V17.5591Z" fill="#C7E7DC" stroke="#C7E7DC" stroke-width="0.3"/>
  <path d="M43.2834 13.1317H42.916V14.4555H43.2834V13.1317Z" fill="#C7E7DC" stroke="#C7E7DC" stroke-width="0.3"/>
  <path d="M47.1418 17.1486H46.7744V26.5061H47.1418V17.1486Z" fill="#C7E7DC" stroke="#C7E7DC" stroke-width="0.3"/>
  <path d="M47.9679 17.0115H47.6006V26.0038H47.9679V17.0115Z" fill="#C7E7DC" stroke="#C7E7DC" stroke-width="0.3"/>
  <path d="M32.3099 1.71988L31.5752 0.715662L31.8507 0.533081L32.5854 1.49165L32.3099 1.71988Z" fill="#C7E7DC" stroke="#C7E7DC" stroke-width="0.3"/>
  <path d="M40.9417 13.36L40.207 12.4014L40.4825 12.1732L41.2172 13.1774L40.9417 13.36Z" fill="#C7E7DC" stroke="#C7E7DC" stroke-width="0.3"/>
  <path d="M48.5187 16.92H48.1514V26.2776H48.5187V16.92Z" fill="#C7E7DC" stroke="#C7E7DC" stroke-width="0.3"/>
  <path d="M6.05521 15.7891L5.87988 15.8435L5.98937 16.1921L6.16469 16.1377L6.05521 15.7891Z" fill="#C7E7DC" stroke="#C7E7DC" stroke-width="0.3"/>
  <path d="M21.2455 11.914L20.2256 12.1866L20.321 12.5393L21.3409 12.2667L21.2455 11.914Z" fill="#C7E7DC" stroke="#C7E7DC" stroke-width="0.3"/>
  <path d="M52.0538 3.59114L51.9619 3.27161L54.5334 2.58691L54.6252 2.95209L52.0538 3.59114Z" fill="#C7E7DC" stroke="#C7E7DC" stroke-width="0.3"/>
  <path d="M21.7032 11.6251L21.6113 11.2599L24.1828 10.6208L24.2746 10.9404L21.7032 11.6251Z" fill="#C7E7DC" stroke="#C7E7DC" stroke-width="0.3"/>
  <path d="M42.9763 13.9544L42.6787 14.1685L42.9748 14.5752L43.2724 14.3612L42.9763 13.9544Z" fill="#C7E7DC" stroke="#C7E7DC" stroke-width="0.3"/>
  <path d="M42.9622 13.2686L42.2275 12.2644L42.503 12.0361L43.2377 13.0404L42.9622 13.2686Z" fill="#C7E7DC" stroke="#C7E7DC" stroke-width="0.3"/>
  <path d="M34.3782 1.5828L33.6436 0.578577L33.9191 0.395996L34.6538 1.35457L34.3782 1.5828Z" fill="#C7E7DC" stroke="#C7E7DC" stroke-width="0.3"/>
  <path d="M52.0549 16.2358H51.6875V25.5934H52.0549V16.2358Z" fill="#C7E7DC" stroke="#C7E7DC" stroke-width="0.3"/>
  <path d="M52.422 16.1445H52.0547V25.0456H52.422V16.1445Z" fill="#C7E7DC" stroke="#C7E7DC" stroke-width="0.3"/>
  <path d="M53.2023 15.916H52.835V25.2735H53.2023V15.916Z" fill="#C7E7DC" stroke="#C7E7DC" stroke-width="0.3"/>
  <path d="M50.6309 3.13484L50.5391 2.81532L53.1105 2.13062L53.2023 2.49579L50.6309 3.13484Z" fill="#C7E7DC" stroke="#C7E7DC" stroke-width="0.3"/>
  <path d="M20.3252 11.1687L20.2334 10.8491L22.8048 10.1644L22.8967 10.484L20.3252 11.1687Z" fill="#C7E7DC" stroke="#C7E7DC" stroke-width="0.3"/>
  <path d="M58.8499 10.0733L58.207 10.0276L58.2529 9.66248L58.8958 9.70811L58.8499 10.0733Z" fill="#C7E7DC" stroke="#C7E7DC" stroke-width="0.3"/>
  <path d="M19.269 5.69116L15.9629 5.37164L16.0088 5.00647L19.269 5.32599V5.69116Z" fill="#C7E7DC" stroke="#C7E7DC" stroke-width="0.3"/>
  <path d="M58.2095 9.34302L54.9033 9.0235L54.9492 8.65833L58.2554 8.97785L58.2095 9.34302Z" fill="#C7E7DC" stroke="#C7E7DC" stroke-width="0.3"/>
  <path d="M53.3869 2.31348H53.0195V3.13511H53.3869V2.31348Z" fill="#C7E7DC" stroke="#C7E7DC" stroke-width="0.3"/>
  <path d="M55.7287 8.2478H55.3613V8.88686H55.7287V8.2478Z" fill="#C7E7DC" stroke="#C7E7DC" stroke-width="0.3"/>
  <path d="M58.8501 8.74964L55.5439 8.43012L55.5899 8.1106L58.896 8.38447L58.8501 8.74964Z" fill="#C7E7DC" stroke="#C7E7DC" stroke-width="0.3"/>
  <path d="M19.9106 5.0978L16.6045 4.77826L16.6504 4.45874L19.9565 4.73263L19.9106 5.0978Z" fill="#C7E7DC" stroke="#C7E7DC" stroke-width="0.3"/>
  <path d="M56.0021 14.9575H55.6348V24.315H56.0021V14.9575Z" fill="#C7E7DC" stroke="#C7E7DC" stroke-width="0.3"/>
  <path d="M56.8293 14.5922H56.4619V23.9497H56.8293V14.5922Z" fill="#C7E7DC" stroke="#C7E7DC" stroke-width="0.3"/>
  <path d="M57.1066 25.9579H56.7393V32.8048H57.1066V25.9579Z" fill="#C7E7DC" stroke="#C7E7DC" stroke-width="0.3"/>
  <path d="M57.1066 11.3055H56.7393V11.9446H57.1066V11.3055Z" fill="#C7E7DC" stroke="#C7E7DC" stroke-width="0.3"/>
  <path d="M57.7502 25.593H57.3828V32.2118H57.7502V25.593Z" fill="#C7E7DC" stroke="#C7E7DC" stroke-width="0.3"/>
  <path d="M57.7502 10.9407H57.3828V11.4884H57.7502V10.9407Z" fill="#C7E7DC" stroke="#C7E7DC" stroke-width="0.3"/>
  <path d="M58.4377 9.16028H58.0703V10.484H58.4377V9.16028Z" fill="#C7E7DC" stroke="#C7E7DC" stroke-width="0.3"/>
  <path d="M46.8204 47.8227L46.6367 47.5032L47.2337 47.1381L47.4173 47.4576L46.8204 47.8227Z" fill="#C7E7DC" stroke="#C7E7DC" stroke-width="0.3"/>
  <path d="M58.5294 10.1646H58.1621V10.621H58.5294V10.1646Z" fill="#C7E7DC" stroke="#C7E7DC" stroke-width="0.3"/>
  <path d="M58.6671 13.4509H58.2998V22.8084H58.6671V13.4509Z" fill="#C7E7DC" stroke="#C7E7DC" stroke-width="0.3"/>
  <path d="M59.0822 8.56689H58.7148V9.89065H59.0822V8.56689Z" fill="#C7E7DC" stroke="#C7E7DC" stroke-width="0.3"/>
  <path d="M59.174 12.9945H58.8066V22.352H59.174V12.9945Z" fill="#C7E7DC" stroke="#C7E7DC" stroke-width="0.3"/>
  <path d="M59.9533 11.762H59.5859V21.1195H59.9533V11.762Z" fill="#C7E7DC" stroke="#C7E7DC" stroke-width="0.3"/>
  <path d="M59.9972 11.3055H59.6299V20.6631H59.9972V11.3055Z" fill="#C7E7DC" stroke="#C7E7DC" stroke-width="0.3"/>
  <path d="M49.7579 47.9597L49.5742 47.6858L50.3548 47.2294L50.5385 47.5033L49.7579 47.9597Z" fill="#C7E7DC" stroke="#C7E7DC" stroke-width="0.3"/>
  <path d="M49.7579 49.2837L49.5742 49.0098L50.3548 48.5533L50.5385 48.8272L49.7579 49.2837Z" fill="#C7E7DC" stroke="#C7E7DC" stroke-width="0.3"/>
  <path d="M49.7579 50.6075L49.5742 50.3337L50.3548 49.8772L50.5385 50.1511L49.7579 50.6075Z" fill="#C7E7DC" stroke="#C7E7DC" stroke-width="0.3"/>
  <path d="M49.7579 51.9309L49.5742 51.6114L50.3548 51.2006L50.5385 51.4744L49.7579 51.9309Z" fill="#C7E7DC" stroke="#C7E7DC" stroke-width="0.3"/>
  <path d="M24.3203 3.13493L24.2285 2.81541H24.4122C24.4122 2.81541 24.6418 2.67847 24.7795 2.67847L24.8714 2.99799C24.8714 2.99799 24.6418 3.04364 24.504 3.08929H24.3203V3.13493Z" fill="#C7E7DC" stroke="#C7E7DC" stroke-width="0.3"/>
  <path d="M24.8702 52.3875C24.8702 52.3875 24.7783 52.3419 24.7324 52.2962L24.9161 51.9767C24.9161 51.9767 25.0079 52.0223 25.0539 52.068L24.8702 52.3419V52.3875Z" fill="#C7E7DC" stroke="#C7E7DC" stroke-width="0.3"/>
  <path d="M20.004 5.05218L19.8203 4.7783L19.9581 4.68701L20.1417 4.96089L20.004 5.05218Z" fill="#C7E7DC" stroke="#C7E7DC" stroke-width="0.3"/>
  <path d="M30.0147 20.8001L29.9229 20.7088L30.1984 20.4806L30.2902 20.5719L30.0147 20.8001Z" fill="#C7E7DC" stroke="#C7E7DC" stroke-width="0.3"/>
  <path d="M26.7549 30.4313L26.6631 30.1118L26.8008 30.4313C26.8008 30.4313 26.7549 30.4313 26.709 30.4313" fill="#C7E7DC"/>
  <path d="M26.7549 30.4313L26.6631 30.1118L26.8008 30.4313C26.8008 30.4313 26.7549 30.4313 26.709 30.4313" stroke="#C7E7DC" stroke-width="0.3"/>
  <path d="M14.219 13.7251C14.219 13.7251 13.8058 13.6338 13.5762 13.5882V13.223C13.8517 13.223 14.0813 13.3143 14.3109 13.36L14.219 13.6795V13.7251Z" fill="#C7E7DC" stroke="#C7E7DC" stroke-width="0.3"/>
  <path d="M23.3557 16.6923C23.3557 16.6923 22.9425 16.601 22.7588 16.5554V16.1902C23.0343 16.1902 23.2639 16.2815 23.4935 16.3271L23.4016 16.6467L23.3557 16.6923Z" fill="#C7E7DC" stroke="#C7E7DC" stroke-width="0.3"/>
  <path d="M23.9075 16.9202C23.9075 16.9202 23.5401 16.7376 23.3564 16.692L23.4483 16.3724C23.4483 16.3724 23.8615 16.555 24.0911 16.6463L23.9075 16.9658V16.9202Z" fill="#C7E7DC" stroke="#C7E7DC" stroke-width="0.3"/>
  <path d="M19.3136 5.691L19.084 5.46277L19.4054 5.5997C19.4054 5.5997 19.3595 5.691 19.3136 5.73664" fill="#C7E7DC"/>
  <path d="M19.3136 5.691L19.084 5.46277L19.4054 5.5997C19.4054 5.5997 19.3595 5.691 19.3136 5.73664" stroke="#C7E7DC" stroke-width="0.3"/>
  <path d="M19.2238 5.82794L18.9482 5.5997C18.9482 5.5997 18.9482 5.5997 18.9482 5.55405C18.9482 5.55405 18.9482 5.50841 18.9942 5.46277L19.2697 5.691C19.2697 5.691 19.2697 5.73665 19.2238 5.78229" fill="#C7E7DC"/>
  <path d="M19.2238 5.82794L18.9482 5.5997C18.9482 5.5997 18.9482 5.5997 18.9482 5.55405C18.9482 5.55405 18.9482 5.50841 18.9942 5.46277L19.2697 5.691C19.2697 5.691 19.2697 5.73665 19.2238 5.78229" stroke="#C7E7DC" stroke-width="0.3"/>
  <path d="M19.1769 5.91938L18.9014 5.69115C18.9014 5.69115 18.9014 5.6455 18.9473 5.59985L19.2228 5.82809C19.2228 5.82809 19.2228 5.82809 19.1769 5.87374" fill="#C7E7DC"/>
  <path d="M19.1769 5.91938L18.9014 5.69115C18.9014 5.69115 18.9014 5.6455 18.9473 5.59985L19.2228 5.82809C19.2228 5.82809 19.2228 5.82809 19.1769 5.87374" stroke="#C7E7DC" stroke-width="0.3"/>
  <path d="M23.9072 49.1921L24.0909 48.8726L24.1827 48.9639L23.9072 49.1921Z" fill="#C7E7DC" stroke="#C7E7DC" stroke-width="0.3"/>
  <path d="M23.9063 46.5449L23.8604 46.4992L24.1359 46.271L24.0899 46.3167L24.1359 46.271L24.0899 46.3167L23.9063 46.5449Z" fill="#C7E7DC" stroke="#C7E7DC" stroke-width="0.3"/>
  <path d="M23.9522 50.5161C23.9522 50.5161 23.9063 50.5161 23.8604 50.4248L24.0899 50.2422L23.9063 50.4704L23.9522 50.5161ZM23.9981 50.3335L24.1359 50.2422L24.044 50.3335H23.9981Z" fill="#C7E7DC" stroke="#C7E7DC" stroke-width="0.3"/>
  <path d="M19.13 6.01082L18.8086 5.91953C18.8086 5.91953 18.8086 5.82824 18.8545 5.78259L19.1759 5.91953V6.01082" fill="#C7E7DC"/>
  <path d="M19.13 6.01082L18.8086 5.91953C18.8086 5.91953 18.8086 5.82824 18.8545 5.78259L19.1759 5.91953V6.01082" stroke="#C7E7DC" stroke-width="0.3"/>
  <path d="M19.0392 6.14776L18.7637 5.91953C18.7637 5.91953 18.7637 5.82824 18.8555 5.78259L19.131 6.01082L18.9933 5.87389L19.131 5.96517C19.131 5.96517 19.131 6.05647 19.0851 6.05647" fill="#C7E7DC"/>
  <path d="M19.0392 6.14776L18.7637 5.91953C18.7637 5.91953 18.7637 5.82824 18.8555 5.78259L19.131 6.01082L18.9933 5.87389L19.131 5.96517C19.131 5.96517 19.131 6.05647 19.0851 6.05647" stroke="#C7E7DC" stroke-width="0.3"/>
  <path d="M18.9933 6.23909L18.6719 6.10215C18.6719 6.10215 18.7178 6.01086 18.7637 5.96521L19.0851 6.1478C19.0851 6.1478 19.0851 6.23909 19.0392 6.23909" fill="#C7E7DC"/>
  <path d="M18.9933 6.23909L18.6719 6.10215C18.6719 6.10215 18.7178 6.01086 18.7637 5.96521L19.0851 6.1478C19.0851 6.1478 19.0851 6.23909 19.0392 6.23909" stroke="#C7E7DC" stroke-width="0.3"/>
  <path d="M18.9465 6.33004H18.5791C18.5791 6.33004 18.5791 6.19311 18.5791 6.14746L18.9005 6.23876V6.33004" fill="#C7E7DC"/>
  <path d="M18.9465 6.33004H18.5791C18.5791 6.33004 18.5791 6.19311 18.5791 6.14746L18.9005 6.23876V6.33004" stroke="#C7E7DC" stroke-width="0.3"/>
  <path d="M18.9005 6.46724L18.5791 6.37595C18.5791 6.37595 18.5791 6.28466 18.625 6.23901L18.9465 6.37595C18.9465 6.37595 18.9465 6.4216 18.9465 6.46724" fill="#C7E7DC"/>
  <path d="M18.9005 6.46724L18.5791 6.37595C18.5791 6.37595 18.5791 6.28466 18.625 6.23901L18.9465 6.37595C18.9465 6.37595 18.9465 6.4216 18.9465 6.46724" stroke="#C7E7DC" stroke-width="0.3"/>
  <path d="M18.9005 6.55868L18.5791 6.46739C18.5791 6.46739 18.5791 6.37609 18.5791 6.33044L18.9005 6.42174V6.51303" fill="#C7E7DC"/>
  <path d="M18.9005 6.55868L18.5791 6.46739C18.5791 6.46739 18.5791 6.37609 18.5791 6.33044L18.9005 6.42174V6.51303" stroke="#C7E7DC" stroke-width="0.3"/>
  <path d="M18.8556 6.64999H18.4883C18.4883 6.64999 18.4883 6.51305 18.4883 6.46741L18.8097 6.60435C18.8097 6.60435 18.8097 6.60434 18.8097 6.64999" fill="#C7E7DC"/>
  <path d="M18.8556 6.64999H18.4883C18.4883 6.64999 18.4883 6.51305 18.4883 6.46741L18.8097 6.60435C18.8097 6.60435 18.8097 6.60434 18.8097 6.64999" stroke="#C7E7DC" stroke-width="0.3"/>
  <path d="M18.8556 6.83225H18.4883C18.4883 6.83225 18.4883 6.6953 18.4883 6.64966H18.8556C18.8556 6.64966 18.8556 6.7866 18.8556 6.83225Z" fill="#C7E7DC" stroke="#C7E7DC" stroke-width="0.3"/>
  <path d="M18.8556 6.83252H18.4883V6.92381H18.8556V6.83252Z" fill="#C7E7DC" stroke="#C7E7DC" stroke-width="0.3"/>
  <path d="M22.667 46.5905L22.6211 46.5449L22.7589 46.4992L22.9425 46.3167L22.9884 46.4079L22.667 46.5905Z" fill="#C7E7DC" stroke="#C7E7DC" stroke-width="0.3"/>
  <path d="M25.9273 17.0115C25.4681 16.9202 25.0549 16.8289 24.5957 16.7376V16.3724C25.1008 16.4637 25.56 16.555 25.9733 16.6463V17.0115H25.9273Z" fill="#C7E7DC" stroke="#C7E7DC" stroke-width="0.3"/>
  <path d="M21.2903 15.9616C21.2903 15.9616 21.1066 15.9159 21.0148 15.8703C20.9229 15.8703 20.8311 15.8246 20.7393 15.779L20.8311 15.4595C20.8311 15.4595 21.0148 15.5051 21.1066 15.5508C21.1984 15.5508 21.2903 15.5964 21.3821 15.6421L21.2903 15.9616Z" fill="#C7E7DC" stroke="#C7E7DC" stroke-width="0.3"/>
  <path d="M20.7385 15.7791C20.7385 15.7791 20.4171 15.6878 20.2334 15.5965L20.3252 15.277C20.3252 15.277 20.6467 15.4139 20.8303 15.4596L20.7385 15.7791Z" fill="#C7E7DC" stroke="#C7E7DC" stroke-width="0.3"/>
  <path d="M34.5146 1.67438V1.3092C34.5146 1.3092 34.6983 1.3092 34.7902 1.3092V1.67438C34.7902 1.67438 34.6065 1.67438 34.5146 1.67438Z" fill="#C7E7DC" stroke="#C7E7DC" stroke-width="0.3"/>
  <path d="M32.125 1.81109L32.0791 1.44592H32.4464L32.4924 1.76545L32.125 1.81109Z" fill="#C7E7DC" stroke="#C7E7DC" stroke-width="0.3"/>
  <path d="M50.5392 3.13495C50.5392 3.13495 50.4473 3.13495 50.3555 3.13495H50.3096L50.4014 2.76978H50.4473C50.4473 2.76978 50.5392 2.76978 50.5851 2.81542L50.4932 3.13495H50.5392Z" fill="#C7E7DC" stroke="#C7E7DC" stroke-width="0.3"/>
  <path d="M52.0997 3.68255V3.49997V3.6369C52.0537 3.6369 52.0078 3.63691 51.9619 3.59126L52.0997 3.27173C52.0997 3.27173 52.1915 3.27173 52.2374 3.27173V3.45432L52.1456 3.6369L52.0997 3.68255Z" fill="#C7E7DC" stroke="#C7E7DC" stroke-width="0.3"/>
  <path d="M50.5391 48.8268L50.3555 48.5073C50.3555 48.5073 50.5851 48.3704 50.6769 48.3247L50.8606 48.5986C50.8606 48.5986 50.631 48.7355 50.4932 48.7812" fill="#C7E7DC"/>
  <path d="M50.5391 48.8268L50.3555 48.5073C50.3555 48.5073 50.5851 48.3704 50.6769 48.3247L50.8606 48.5986C50.8606 48.5986 50.631 48.7355 50.4932 48.7812" stroke="#C7E7DC" stroke-width="0.3"/>
  <path d="M50.6309 50.2418L50.4473 49.9679C50.4473 49.9679 50.4932 49.9679 50.5391 49.9222L50.7228 50.1961C50.7228 50.1961 50.6309 50.2418 50.6309 50.2874" fill="#C7E7DC"/>
  <path d="M50.6309 50.2418L50.4473 49.9679C50.4473 49.9679 50.4932 49.9679 50.5391 49.9222L50.7228 50.1961C50.7228 50.1961 50.6309 50.2418 50.6309 50.2874" stroke="#C7E7DC" stroke-width="0.3"/>
  <path d="M58.1612 10.2562L58.1152 10.1192L58.3908 9.93665L58.4826 10.0279L58.1612 10.2562Z" fill="#C7E7DC" stroke="#C7E7DC" stroke-width="0.3"/>
  <path d="M56.3244 6.87802H55.957C55.957 6.87802 55.957 6.83238 55.957 6.78673L56.2785 6.69543C56.2785 6.69543 56.2785 6.78673 56.2785 6.83238" fill="#C7E7DC"/>
  <path d="M56.3244 6.87802H55.957C55.957 6.87802 55.957 6.83238 55.957 6.78673L56.2785 6.69543C56.2785 6.69543 56.2785 6.78673 56.2785 6.83238" stroke="#C7E7DC" stroke-width="0.3"/>
  <path d="M37.0857 17.9243H36.8102C36.351 17.9243 35.9377 17.9243 35.4785 17.9243V17.5591C35.9377 17.5591 36.351 17.5591 36.8102 17.5591H37.0857V17.9243Z" fill="#C7E7DC" stroke="#C7E7DC" stroke-width="0.3"/>
  <path d="M37.0857 27.2822C36.7183 27.2822 36.351 27.2822 35.9377 27.2822H35.4785V26.917H35.9377C36.3051 26.917 36.6724 26.917 37.0397 26.917V27.2822H37.0857Z" fill="#C7E7DC" stroke="#C7E7DC" stroke-width="0.3"/>
  <path d="M37.0866 26.9622C36.5815 26.9622 36.0764 26.9622 35.5713 26.9622V26.597C36.0764 26.597 36.5815 26.597 37.0866 26.597V26.9622Z" fill="#C7E7DC" stroke="#C7E7DC" stroke-width="0.3"/>
  <path d="M41.3545 27.1907V26.8255C41.8596 26.8255 42.3647 26.7799 42.8698 26.7343V27.0994C42.3647 27.0994 41.8596 27.1907 41.3545 27.1907Z" fill="#C7E7DC" stroke="#C7E7DC" stroke-width="0.3"/>
  <path d="M41.3545 17.8334V17.4682C41.8596 17.4682 42.3647 17.4226 42.8698 17.377V17.7421C42.3647 17.7421 41.8596 17.8334 41.3545 17.8334Z" fill="#C7E7DC" stroke="#C7E7DC" stroke-width="0.3"/>
  <path d="M41.3545 26.8256V26.4604H41.4923C41.8596 26.4604 42.2729 26.4148 42.6402 26.3691V26.7343C42.2729 26.7343 41.9055 26.78 41.4923 26.8256H41.3545Z" fill="#C7E7DC" stroke="#C7E7DC" stroke-width="0.3"/>
  <path d="M40.8037 36.8219V36.4568C41.4925 36.4568 42.1353 36.3655 42.8241 36.3198V36.685C42.1813 36.7307 41.4925 36.7763 40.8037 36.8219Z" fill="#C7E7DC" stroke="#C7E7DC" stroke-width="0.3"/>
  <path d="M31.2985 17.6963C30.7934 17.6963 30.2883 17.605 29.7832 17.5594V17.1942C30.2883 17.2399 30.7934 17.2855 31.2985 17.3311V17.6963Z" fill="#C7E7DC" stroke="#C7E7DC" stroke-width="0.3"/>
  <path d="M40.8037 36.1829V35.8177H40.9415C41.4007 35.8177 41.9058 35.7721 42.3649 35.7264V36.0916C41.9058 36.0916 41.4466 36.1373 40.9415 36.1829H40.8037Z" fill="#C7E7DC" stroke="#C7E7DC" stroke-width="0.3"/>
  <path d="M46.959 17.3308V16.9657C47.2804 16.92 47.6018 16.8744 47.9692 16.8287H48.2906L48.3365 17.1026H48.0151C47.6478 17.1939 47.2804 17.2852 46.959 17.3308Z" fill="#C7E7DC" stroke="#C7E7DC" stroke-width="0.3"/>
  <path d="M46.959 26.6884V26.3232C47.3723 26.2776 47.8314 26.1863 48.2906 26.095V26.4601C47.8774 26.5514 47.4182 26.5971 46.959 26.6884Z" fill="#C7E7DC" stroke="#C7E7DC" stroke-width="0.3"/>
  <path d="M46.959 26.2777V25.9126C47.1886 25.9126 47.4641 25.8213 47.7855 25.7756V26.1408C47.5559 26.1865 47.2804 26.2321 46.959 26.2777Z" fill="#C7E7DC" stroke="#C7E7DC" stroke-width="0.3"/>
  <path d="M51.918 16.3723L51.8262 16.0528C52.2394 15.9615 52.6068 15.8702 52.9741 15.7333L53.066 16.0528C52.6527 16.1441 52.2853 16.281 51.8721 16.3723" fill="#C7E7DC"/>
  <path d="M51.918 16.3723L51.8262 16.0528C52.2394 15.9615 52.6068 15.8702 52.9741 15.7333L53.066 16.0528C52.6527 16.1441 52.2853 16.281 51.8721 16.3723" stroke="#C7E7DC" stroke-width="0.3"/>
  <path d="M51.918 25.73L51.8262 25.4105C52.1935 25.3192 52.6068 25.2279 52.9741 25.0909L53.066 25.4105C52.6527 25.5018 52.2853 25.6387 51.8721 25.73" fill="#C7E7DC"/>
  <path d="M51.918 25.73L51.8262 25.4105C52.1935 25.3192 52.6068 25.2279 52.9741 25.0909L53.066 25.4105C52.6527 25.5018 52.2853 25.6387 51.8721 25.73" stroke="#C7E7DC" stroke-width="0.3"/>
  <path d="M51.918 25.2734L51.8262 24.9538C51.8262 24.9538 52.0558 24.8625 52.1935 24.8625L52.2853 25.1821C52.2853 25.1821 52.0558 25.2277 51.918 25.2734Z" fill="#C7E7DC" stroke="#C7E7DC" stroke-width="0.3"/>
  <path d="M4.52948 19.9326L4.39173 19.7044L4.20805 19.2936L4.11621 18.7458V18.6089L4.48356 18.5632V18.9741L4.5754 19.2936L4.80499 19.75L4.52948 19.9326Z" fill="#C7E7DC" stroke="#C7E7DC" stroke-width="0.3"/>
  <path d="M22.9416 29.8841L22.3906 29.6559L22.0232 29.382L21.7018 29.1081L21.2426 28.606L21.013 28.2408L20.7834 27.7844L20.462 26.9171L20.4161 26.6432L20.3242 26.0498V25.3651H20.6456L20.6916 26.0042L20.8293 26.9171L21.1048 27.6474L21.4263 28.2408L21.7936 28.7429L22.0691 29.0168L22.3906 29.2451L22.712 29.4277L23.0793 29.5646L22.9416 29.8841Z" fill="#C7E7DC" stroke="#C7E7DC" stroke-width="0.3"/>
  <path d="M22.2087 30.5231H21.7036L21.1067 30.4318L20.5557 30.2948L20.6475 29.9297L21.1985 30.0666L21.7036 30.1579H22.2547L22.8057 30.1122H23.0812L23.6322 29.9753L23.9077 29.8384L23.9996 30.2035H23.9536L23.724 30.2948L23.173 30.4318L22.5761 30.5231H22.2087Z" fill="#C7E7DC" stroke="#C7E7DC" stroke-width="0.3"/>
  <path d="M4.48356 18.5635H4.11621V18.3809L4.25397 17.6506L4.29989 17.468L4.62132 16.8289L5.03458 16.3268L5.40193 16.053L5.72336 15.916L5.86112 15.8704L5.99887 16.1899L5.72336 16.2812L5.40193 16.5094L5.12642 16.7376L4.80499 17.1941L4.62132 17.5593L4.5754 17.7419L4.39173 17.7875H4.5754L4.43764 18.3809L4.48356 18.5635Z" fill="#C7E7DC" stroke="#C7E7DC" stroke-width="0.3"/>
  <path d="M20.6456 25.365H20.3242V24.6803L20.4161 23.9043L20.5997 23.2653L20.8752 22.398L21.1508 21.7589L21.564 21.0742L21.9314 20.5265L22.4365 19.9331L22.8957 19.5223L23.4926 19.0658L24.1814 18.7006L24.6406 18.518L25.0997 18.4268L25.6967 18.3811L26.2477 18.4268L26.4314 18.4724L26.661 18.518L26.5691 18.8376L26.3395 18.7919L25.8804 18.7463H25.5589L24.962 18.7919L24.5487 18.9289L24.1355 19.1114L23.5385 19.431L22.8957 19.9787L22.3906 20.4808L22.2069 20.7547L21.7936 21.3481L21.3344 22.2154L21.1508 22.7175L20.8293 23.6761L20.7375 24.0869L20.6916 24.726L20.6456 25.365Z" fill="#C7E7DC" stroke="#C7E7DC" stroke-width="0.3"/>
  <path d="M12.1066 13.086L11.8311 13.0403L11.877 12.8578L11.9229 12.7208L12.1525 12.7665L12.1066 13.086Z" fill="#C7E7DC" stroke="#C7E7DC" stroke-width="0.3"/>
  <path d="M8.43333 26.3692L7.92822 26.1866L7.3772 25.8671L6.68843 25.4106L6.22924 24.9542L5.86189 24.5434L5.49455 23.9956L5.26495 23.4935L4.98944 22.9001L4.80576 22.3067L4.66801 21.3938L4.62209 21.0742L4.57617 20.1157L4.66801 19.431L4.8976 18.2442L5.08128 17.6051L5.54046 16.6009L5.99964 15.8249L6.18332 15.5054L6.78026 14.8207L7.23944 14.3186L7.69863 13.9534L8.20374 13.5882L8.75475 13.2687L9.25986 13.0405L9.8568 12.8579L10.4537 12.7209L11.0966 12.6753H11.3721L11.8772 12.7209V13.0405H11.3262H10.7293L10.2241 13.1318L9.62721 13.2687L9.16802 13.4969L8.66291 13.7252L8.15782 14.0447L7.69863 14.4099L7.23944 14.8207L6.8721 15.2315L6.45883 15.7336L5.99964 16.4639L5.67821 17.0573L5.44863 17.6964L5.17312 18.518L4.98944 19.4766L4.94352 20.1613L4.98944 21.0286L5.1272 21.9415L5.26495 22.4893L5.44863 23.0827L5.67821 23.5848L5.99964 24.0869L6.50475 24.7259L6.91802 25.1368L7.56087 25.5932L8.06598 25.8671L8.57108 26.0497L8.43333 26.3692Z" fill="#C7E7DC" stroke="#C7E7DC" stroke-width="0.3"/>
  <path d="M29.9226 20.7087L29.693 20.3435L29.5093 20.2066L29.096 19.8414L28.6828 19.5676L28.3154 19.4306L28.4073 19.1111L28.9583 19.2937L29.4175 19.6132L29.7848 19.9327L30.1062 20.2979L30.1981 20.4805L29.9226 20.7087Z" fill="#C7E7DC" stroke="#C7E7DC" stroke-width="0.3"/>
  <path d="M25.7426 30.6139L25.2834 30.5683L24.9161 30.5226L24.7324 30.477L24.8243 30.1118L25.1916 30.2031L25.559 30.2488H25.7426H26.11L26.661 30.1118L26.7988 30.4313L26.3855 30.5226L25.9722 30.6139H25.7426Z" fill="#C7E7DC" stroke="#C7E7DC" stroke-width="0.3"/>
  <path d="M55.8643 15.1403L55.7266 14.8207L56.5531 14.4099L56.7368 14.7294L55.8643 15.1403Z" fill="#C7E7DC" stroke="#C7E7DC" stroke-width="0.3"/>
  <path d="M58.6212 13.5421L58.3457 13.3139L58.8508 12.9031L59.1263 13.1313L58.6212 13.5421Z" fill="#C7E7DC" stroke="#C7E7DC" stroke-width="0.3"/>
  <path d="M59.9074 11.8533L59.7696 11.762H59.5859L59.6319 11.3512L59.9992 11.3055L59.9074 11.8077V11.8533Z" fill="#C7E7DC" stroke="#C7E7DC" stroke-width="0.3"/>
  <path d="M17.7532 14.5466L17.0645 14.1358L17.2481 13.8619L17.9369 14.2727L17.7532 14.5466Z" fill="#C7E7DC" stroke="#C7E7DC" stroke-width="0.3"/>
  <path d="M15.5959 12.9487L15.2285 12.4923L15.504 12.264L15.8255 12.7205L15.5959 12.9487Z" fill="#C7E7DC" stroke="#C7E7DC" stroke-width="0.3"/>
  <path d="M25.652 18.6094L25.3306 18.016L24.9173 17.5139L24.7796 17.377L24.4122 17.1031L24.1826 17.0118L24.3204 16.6923L24.5959 16.7836L24.8714 17.0118L25.0551 17.1031L25.3765 17.5139L25.652 17.8791L25.9275 18.4725L25.652 18.6094Z" fill="#C7E7DC" stroke="#C7E7DC" stroke-width="0.3"/>
  <path d="M59.9074 21.2112L59.7696 21.1199H59.5859L59.6319 20.6635H59.9992L59.9074 21.1656V21.2112Z" fill="#C7E7DC" stroke="#C7E7DC" stroke-width="0.3"/>
  <path d="M24.7346 30.4774L24.505 30.3861L23.9539 30.1122L23.4488 29.7014L23.1733 29.3818L22.806 28.8341L22.5305 28.3776L22.3468 27.8755L22.255 27.4647L22.1172 26.9169L22.0713 26.2779V25.9127H22.4386V26.2779L22.4846 26.8713L22.7142 27.7386L22.9897 28.4233L23.3111 28.971L23.5407 29.2905L23.7244 29.4275L24.1376 29.7927L24.6427 30.0665L24.8264 30.1122L24.7346 30.4774Z" fill="#C7E7DC" stroke="#C7E7DC" stroke-width="0.3"/>
  <path d="M22.4386 25.9127H22.0713L22.1172 24.9542L22.255 24.1325L22.4846 23.4935L22.806 22.6262L23.0815 22.0328L23.4948 21.3481L23.908 20.846L24.2295 20.4808L24.6427 20.07L25.2856 19.6135L25.9744 19.2484L26.4335 19.1114L26.8927 18.9745L27.4438 18.9288L27.9948 18.9745L28.408 19.1114L28.3162 19.4309L27.857 19.3397L27.4438 19.294L26.9387 19.3397L26.5254 19.4309L26.1121 19.5679L25.4693 19.8874L24.8723 20.3439L24.3672 20.846L23.9999 21.3024L23.5866 21.9415L23.2652 22.4893L22.8978 23.2652L22.7142 23.9043L22.5305 24.6803L22.4846 24.9998L22.4386 25.9127Z" fill="#C7E7DC" stroke="#C7E7DC" stroke-width="0.3"/>
  <path d="M20.5551 30.2948L20.1418 30.1122L19.9122 30.0209L19.3153 29.6101L18.902 29.1993L18.5806 28.8341L18.1673 28.1494L17.8918 27.6016L17.8 27.3734L17.5704 26.5061L17.4785 25.8214L17.4326 24.9998V24.3151L17.5245 23.7217L17.6163 22.9913L17.7541 22.4436L17.9836 21.7132L18.4428 20.6634L18.8561 19.933L19.453 19.0657L20.0959 18.3354L20.7847 17.742L21.2898 17.4225L22.0245 17.0117L22.5296 16.8291L23.0347 16.6921L23.3102 16.6465H23.7694H24.2745L24.2286 17.0117L23.7694 16.966L23.3102 17.0117L22.6214 17.1486L22.1622 17.3312L21.4734 17.6964L21.0143 18.0159L20.3714 18.5636L19.7285 19.294L19.0857 20.2069L18.7643 20.846L18.3051 21.8045L18.0755 22.7175L17.8918 23.4022L17.8 24.3151V24.9998L17.8459 25.7758L17.9377 26.4148L18.1673 27.2821L18.351 27.7386L18.6265 28.2407L19.0398 28.7884L19.1775 29.0167L19.5449 29.3362L19.8663 29.5644L20.2796 29.7927L20.6469 29.9296L20.5551 30.2948Z" fill="#C7E7DC" stroke="#C7E7DC" stroke-width="0.3"/>
  <path d="M8.43203 26.3691L8.01876 26.1865L7.78917 26.0952L7.37591 25.8213L7.00856 25.5018L6.77896 25.3192L6.31978 24.7258L6.04427 24.2237L5.81468 23.7216L5.631 23.1739L5.40141 22.2609L5.30957 21.6219V21.1198V20.3894L5.44733 19.4765L5.67692 18.5179L5.8606 17.7876L6.31978 16.7834L6.73304 16.053L7.10039 15.4596L7.55958 14.9119L8.01876 14.4097L8.43203 14.0446L8.93714 13.6794L9.39631 13.3599L9.90142 13.1316L10.4065 12.9034L10.9116 12.8121L11.4167 12.7208H11.6463L12.1514 12.7665L12.1055 13.086H11.6463L11.1871 13.1316L10.4984 13.2686L10.0392 13.4512L9.3504 13.8163L8.89122 14.1359L8.24835 14.6836L7.60549 15.3683L7.23815 15.9161L6.82488 16.6008L6.45753 17.2398L6.18202 17.9245L5.8606 19.157L5.72284 20.0699L5.67692 20.4351V21.1198V21.5762L5.76876 22.2153L5.95243 23.0826L6.22794 23.8585L6.45753 24.315L6.77896 24.7258L7.05448 25.091L7.60549 25.5475L7.97284 25.8213L8.56979 26.0496L8.43203 26.3691Z" fill="#C7E7DC" stroke="#C7E7DC" stroke-width="0.3"/>
  <path d="M55.8643 24.4974L55.7266 24.1779L56.599 23.7671L56.7368 24.0866L55.8643 24.4974Z" fill="#C7E7DC" stroke="#C7E7DC" stroke-width="0.3"/>
  <path d="M58.6212 22.9L58.3457 22.6718L58.8508 22.261L59.0804 22.4892L58.6212 22.9Z" fill="#C7E7DC" stroke="#C7E7DC" stroke-width="0.3"/>
  <path d="M37.499 12.538L35.2949 12.4924L33.4582 12.4011L31.6673 12.2641L29.2337 11.9902L28.4071 11.8533L26.5245 11.5338L24.7796 11.123L24.1826 10.9404L24.2745 10.6208L24.8714 10.7578L26.6163 11.1686L28.499 11.5338L30.0602 11.7164L31.6673 11.899L33.5041 12.0359L35.9837 12.1728H37.499L39.3816 12.1272H40.3459V12.4467L38.4633 12.538H37.499Z" fill="#C7E7DC" stroke="#C7E7DC" stroke-width="0.3"/>
  <path d="M42.4131 12.3098L42.3672 11.9903L44.8927 11.7164L47.556 11.3056L49.3468 10.9404L49.9437 10.7578L50.0356 11.123L48.3366 11.4882L47.6019 11.6707L44.9386 12.0816L42.4131 12.3098Z" fill="#C7E7DC" stroke="#C7E7DC" stroke-width="0.3"/>
  <path d="M51.5958 50.6985L51.3662 50.4702L51.7795 49.9681L51.9172 49.6486L52.0091 49.2834V48.9639L51.8713 48.5987L52.1927 48.4618L52.3305 48.8726L52.3764 49.0096V49.3291L52.3305 49.603L52.2387 49.7855L52.055 50.1964L51.8254 50.4702L51.5958 50.6985Z" fill="#C7E7DC" stroke="#C7E7DC" stroke-width="0.3"/>
  <path d="M50.5391 51.4748L50.3555 51.1553L51.182 50.6075L51.3657 50.4706L51.5953 50.6988L50.8606 51.2922L50.5391 51.4748Z" fill="#C7E7DC" stroke="#C7E7DC" stroke-width="0.3"/>
  <path d="M50.4942 50.1507L50.4023 49.8312L50.9074 49.5117L51.3207 49.1921L51.6421 48.827L51.8717 48.5075L51.9636 48.1423L52.0095 47.914L51.9636 47.5945L51.8717 47.275L52.1932 47.1381L52.285 47.3663L52.3309 47.5032L52.3768 47.914L52.3309 48.0966L52.2391 48.5075L52.1473 48.7357L51.8717 49.1008L51.5044 49.466L51.0452 49.8312L50.8156 49.9681L50.4942 50.1507Z" fill="#C7E7DC" stroke="#C7E7DC" stroke-width="0.3"/>
  <path d="M23.9987 51.7942L23.3559 51.3378L22.9885 51.0182L22.7589 50.6531L22.5752 50.3335L22.5293 50.1053L22.4834 49.8314V49.6945L22.5752 49.3293L22.713 49.1011L22.9885 49.2837L22.8967 49.4663V49.5575V49.6032L22.8507 49.7401V50.1053L22.8967 50.1966L23.1722 50.6531L23.4018 50.8813L23.5854 51.0639L24.1824 51.4747L23.9987 51.7942Z" fill="#C7E7DC" stroke="#C7E7DC" stroke-width="0.3"/>
  <path d="M23.9987 50.4703L23.3559 50.0138L22.9885 49.6943L22.7589 49.3291L22.5752 49.0096L22.5293 48.7813L22.4834 48.5075L22.5293 48.1423L22.713 47.8228L22.9885 47.9597L22.8507 48.2792V48.5075L22.8967 48.8726L23.1722 49.3291L23.4018 49.603L23.5854 49.7399L24.1824 50.1507L23.9987 50.4703Z" fill="#C7E7DC" stroke="#C7E7DC" stroke-width="0.3"/>
  <path d="M50.9064 48.6448L50.8145 48.5078L50.6309 48.4165L50.6768 48.3252L50.9064 48.1883L51.4574 47.6862L51.7329 47.4123L51.9166 47.0928L52.0084 46.8189V46.682L51.9625 46.2712L51.8707 45.9973L52.1921 45.8147V45.8603L52.3298 46.2255L52.3758 46.4081V46.682L52.2839 47.0928L52.1002 47.458L51.8707 47.7775L51.5033 48.1427L51.136 48.4622L50.9064 48.6448Z" fill="#C7E7DC" stroke="#C7E7DC" stroke-width="0.3"/>
  <path d="M50.5391 47.5036L50.3555 47.2297L50.6769 47.0015L51.182 46.6363L51.4575 46.4081L51.733 46.0429L51.9626 45.6777L52.0085 45.4038V45.0843L51.9167 44.7191L51.6871 44.354L51.9626 44.1714L52.1463 44.3996L52.284 44.7191L52.33 45.0387L52.3759 45.3125L52.33 45.4495L52.284 45.769L52.1463 46.0885L51.9626 46.3624L51.5953 46.7732L51.1361 47.1384L50.5391 47.5036Z" fill="#C7E7DC" stroke="#C7E7DC" stroke-width="0.3"/>
  <path d="M23.9987 49.1468L23.3559 48.6903L22.9885 48.3708L22.7589 48.0512L22.5752 47.6861L22.5293 47.4578L22.4834 47.184L22.5293 46.8644L22.6671 46.5449L22.713 46.4536L22.9885 46.6818L22.8967 46.8188V46.9101V46.9557L22.8507 47.184L22.8967 47.5948L23.1722 48.0056L23.4018 48.2795L23.7691 48.5533L24.1824 48.8272L23.9987 49.1468Z" fill="#C7E7DC" stroke="#C7E7DC" stroke-width="0.3"/>
  <path d="M53.111 2.49619L51.7793 2.13102L49.5753 1.62891L48.1518 1.40068L46.6824 1.17245L45.7181 1.0355L43.1926 0.807276L42.1824 0.715981L39.0599 0.579038H36.9936L34.8354 0.624686L33.7793 0.670333V0.305162L34.8354 0.259515L36.9936 0.213867L39.0599 0.259515L42.1824 0.35081L44.7997 0.579038L45.764 0.715981L47.2793 0.898571L49.6671 1.30939L51.8712 1.76585L53.2028 2.13102L53.111 2.49619Z" fill="#C7E7DC" stroke="#C7E7DC" stroke-width="0.3"/>
  <path d="M23.9986 47.8231L23.3098 47.321L22.9425 47.0015L22.667 46.5907L22.9884 46.4081L23.218 46.7733L23.5394 47.0928L24.1823 47.5036L23.9986 47.8231Z" fill="#C7E7DC" stroke="#C7E7DC" stroke-width="0.3"/>
  <path d="M22.6212 46.5448L22.5752 46.3166L22.4834 46.134V45.8601L22.5293 45.6319L22.713 45.1754L23.0344 45.3123L22.8507 45.7688V45.9514V46.134L22.9426 46.3622L22.6212 46.5448Z" fill="#C7E7DC" stroke="#C7E7DC" stroke-width="0.3"/>
  <path d="M16.7423 4.73254L16.5127 4.45865L16.7423 4.27607L17.6147 3.77396L18.3494 3.36314L18.9464 3.08927L19.9107 2.67845L21.1964 2.26763L22.4821 1.90246L23.125 1.71987L24.5484 1.44599L26.1097 1.12647L27.6709 0.898239L29.4617 0.670001L31.7117 0.441772L31.7576 0.806944L29.5076 0.989525L27.7168 1.21776L26.1556 1.44599L24.5944 1.76551L23.2168 2.08504L21.8852 2.45022L20.5535 2.86103L19.5433 3.2262L18.4872 3.68267L17.7525 4.04784L16.9719 4.54995L16.7423 4.73254Z" fill="#C7E7DC" stroke="#C7E7DC" stroke-width="0.3"/>
  <path d="M20.1868 12.4927L18.8552 11.9449L18.396 11.7623L17.7991 11.4428L16.8807 10.895L16.3756 10.5299L15.7786 9.93647L15.3654 9.43436L15.1817 8.97789L15.0439 8.56708V8.2019H15.3654L15.4113 8.52144L15.5031 8.88661L15.6868 9.25178L16.0541 9.70824L16.6052 10.256L17.3399 10.7581L18.1664 11.2602L18.5797 11.4428L19.6358 11.8993L20.3246 12.1731L20.1868 12.4927Z" fill="#C7E7DC" stroke="#C7E7DC" stroke-width="0.3"/>
  <path d="M15.3654 6.92351L15.0439 6.87786L15.0899 6.42139L15.2276 5.96493L15.4113 5.59975L15.8246 5.052L16.1001 5.32588L15.7327 5.78234L15.5031 6.19316L15.4113 6.60398L15.3654 6.92351Z" fill="#C7E7DC" stroke="#C7E7DC" stroke-width="0.3"/>
  <path d="M36.7644 14.8662L34.744 14.8205L32.6318 14.6836L30.0603 14.501L27.5348 14.1815L25.193 13.7707L23.5858 13.4511L22.3001 13.1316L21.6113 12.949L21.7032 12.5839L23.6777 13.1316L25.8358 13.5424L28.1777 13.9076L30.6113 14.1815L33.7338 14.4097L35.8001 14.501H37.8206L39.9787 14.4554L41.0808 14.4097V14.7749L38.9226 14.8205L36.7644 14.8662Z" fill="#C7E7DC" stroke="#C7E7DC" stroke-width="0.3"/>
  <path d="M43.0996 14.638V14.2729L44.4312 14.1816L46.2221 13.9534L48.6558 13.6338L50.9058 13.1774L52.3292 12.8122L53.569 12.4927L55.268 11.8536L56.3241 11.3972L57.3344 10.895L57.8854 10.5299L58.115 10.3473L58.3445 10.6212L57.7935 10.9863L57.2425 11.3515L56.5078 11.7167L55.4058 12.1731L54.2119 12.6296L53.6609 12.8122L52.3751 13.1774L50.9976 13.4969L49.5282 13.8164L48.0588 14.0446L46.268 14.3185L44.4312 14.5468L43.0996 14.638Z" fill="#C7E7DC" stroke="#C7E7DC" stroke-width="0.3"/>
  <path d="M23.9987 46.4993L23.4477 46.1342L22.8507 45.5408L22.6671 45.2213L22.5293 44.9017L22.4834 44.5822L22.5293 44.3083L22.5752 44.1714L22.8967 44.2627L22.8507 44.4909V44.5822L22.8967 44.9474L23.0344 45.1756L23.264 45.4951L23.6314 45.8603L24.1824 46.2255L23.9987 46.4993Z" fill="#C7E7DC" stroke="#C7E7DC" stroke-width="0.3"/>
  <path d="M50.0352 11.1231L49.9434 10.758L50.9536 10.4841L51.9179 10.1645L52.8821 9.79937L54.0301 9.20597L54.5811 8.88645L54.8107 8.70386L55.0403 8.97773L54.8107 9.16032L54.1219 9.57114L53.4332 9.93631L52.5148 10.3015L51.5964 10.621L50.5862 10.9405L50.0352 11.1231Z" fill="#C7E7DC" stroke="#C7E7DC" stroke-width="0.3"/>
  <path d="M37.4977 54.6697L35.2018 54.6241L32.9518 54.4415L30.8395 54.1676L29.2783 53.8937L28.1762 53.6199L27.0742 53.3003L26.0181 52.9352L25.2374 52.57L24.916 52.3874L25.0538 52.0679L25.7425 52.4331L26.2017 52.6156L27.166 52.9808L28.2681 53.3003L29.3701 53.5286L31.2528 53.8937L33.365 54.122L35.5232 54.2589L37.7732 54.3046L39.013 54.2589L41.263 54.1676L42.5028 54.0307L43.3752 53.8937L44.615 53.7112L46.0385 53.4373L47.0946 53.1634L48.1508 52.8439L49.2528 52.3418L49.8038 52.0679L50.263 51.7484L50.6304 51.4745L50.86 51.1549L51.0436 50.8354L51.0896 50.6985L51.411 50.8354L51.3651 50.9724L51.1814 51.3375L50.86 51.7027L50.4467 52.0679L49.7579 52.4787L49.161 52.7982L48.2426 53.1634L47.1865 53.4829L46.1304 53.7568L44.2477 54.122L43.4212 54.2589L42.1814 54.3958L41.263 54.4871L40.0232 54.5784L37.4977 54.6697Z" fill="#C7E7DC" stroke="#C7E7DC" stroke-width="0.3"/>
  <path d="M24.7327 52.2965L24.1357 51.84L24.3653 51.5662L24.9623 52.0226L24.7327 52.2965Z" fill="#C7E7DC" stroke="#C7E7DC" stroke-width="0.3"/>
  <path d="M55.6827 8.38438L55.4072 8.15615L55.7746 7.69969L55.8664 7.5171L55.9582 7.10628L56.0042 6.87805H56.3256L56.2797 7.28887L56.1879 7.65404L55.9123 8.11051L55.6827 8.38438Z" fill="#C7E7DC" stroke="#C7E7DC" stroke-width="0.3"/>
  <path d="M59.4475 6.87768L59.4015 6.37557L59.2638 6.05604L59.0801 5.69087L58.6209 5.14311L58.2077 4.82359L57.7485 4.45842L57.1974 4.13889L56.6464 3.81937L55.2229 3.18032L54.5342 2.90644L54.626 2.58691L55.3148 2.86079L56.8301 3.49985L57.9321 4.18454L58.6668 4.7323L59.0801 5.14311L59.3556 5.50828L59.5852 5.9191L59.7689 6.32992L59.8148 6.87768H59.4475Z" fill="#C7E7DC" stroke="#C7E7DC" stroke-width="0.3"/>
  <path d="M58.9903 10.0278L58.7148 9.75388L59.0822 9.38871L59.3118 8.88661L59.4495 8.47579V8.2019H59.8169L59.771 8.52144L59.6791 9.02354L59.3577 9.5713L58.9903 10.0278Z" fill="#C7E7DC" stroke="#C7E7DC" stroke-width="0.3"/>
  <path d="M22.8046 10.4841L22.2536 10.3015L21.3352 9.89072L20.5546 9.4799L19.8658 9.02343L19.4985 8.70391L19.1311 8.38438L18.7638 7.83662L18.626 7.56275L18.5342 7.24322L18.4883 6.87805H18.8556V7.15193L19.0393 7.56275L19.0852 7.74534L19.4066 8.15615L19.8658 8.56696L20.4169 8.97778L21.1516 9.3886L21.9322 9.79942L22.8965 10.1646L22.8046 10.4841Z" fill="#C7E7DC" stroke="#C7E7DC" stroke-width="0.3"/>
  <path d="M50.3574 3.08952L48.7502 2.6787L47.0053 2.35918L45.4441 2.13094L43.791 1.90271L41.3574 1.72012L38.5563 1.58319H37.592L35.7553 1.62884H34.791V1.30931L36.6737 1.26367L37.592 1.21802L39.5206 1.26367L41.4033 1.35495L43.837 1.58319L45.49 1.76577L47.4186 2.08529L49.2094 2.45047L50.4492 2.77L50.3574 3.08952Z" fill="#C7E7DC" stroke="#C7E7DC" stroke-width="0.3"/>
  <path d="M36.5334 50.3791H35.6151L33.3191 50.2422L31.6661 50.1052L30.2426 49.877L28.8191 49.6488L28.2222 49.5118L27.0283 49.1923L26.4314 48.9641L25.4212 48.5989L25.0997 48.4163L24.8242 48.2794L24.962 47.9598L25.2834 48.1424L26.1099 48.5076L26.661 48.6902L27.7171 49.0097L28.314 49.1467L29.5997 49.4205L31.0232 49.6488L32.4926 49.8313L34.7426 49.9683L35.6151 50.0139H36.5334L38.5079 49.9683L40.2528 49.877L41.7681 49.7401L44.11 49.4205L45.4875 49.1467L46.6814 48.8271L46.7733 49.1467L45.5794 49.4662L44.2018 49.7401L42.5947 49.9683L41.8141 50.1052L40.2988 50.2422L39.4263 50.2878L37.4518 50.3791H36.5334Z" fill="#C7E7DC" stroke="#C7E7DC" stroke-width="0.3"/>
  <path d="M56.0027 6.78676L55.9109 6.37595L55.8649 6.23901L55.5894 5.82819L55.2221 5.41737L54.7629 5.00656L54.12 4.59574L53.3853 4.23057L52.6506 3.86539L52.0996 3.6828L52.2374 3.36328L52.7884 3.54587L54.0282 4.13927L54.717 4.55009L55.3139 5.00656L55.7731 5.46302L56.0027 5.78255L56.1864 6.10207L56.2782 6.42159L56.3241 6.74112L56.0027 6.78676Z" fill="#C7E7DC" stroke="#C7E7DC" stroke-width="0.3"/>
  <path d="M36.3489 49.2836L33.9152 49.238L32.2162 49.0554L30.7009 48.9185L29.2774 48.6446L27.9917 48.3707L26.7978 48.0512L25.7876 47.686L25.2366 47.4121L24.6396 47.0926L24.8233 46.8187L25.3743 47.1383L26.4305 47.5491L26.8897 47.7317L28.0835 48.0512L28.6805 48.1881L29.3692 48.3251L30.7468 48.5533L32.2621 48.7359L33.9611 48.8728L35.4305 48.9185L36.3489 48.9641L38.3693 48.9185L40.1601 48.8272L41.6754 48.6902L43.2826 48.462L44.7979 48.1881L46.0836 47.9142L46.6805 47.7317L46.7724 48.0968L45.5326 48.4164L44.1091 48.6902L42.5479 48.9185L41.0325 49.101L39.2876 49.238L37.2672 49.2836H36.3489Z" fill="#C7E7DC" stroke="#C7E7DC" stroke-width="0.3"/>
  <path d="M24.6408 47.0924L24.4112 46.9555L24.503 46.7729L24.3653 46.9099L24.4112 46.7273L24.3193 46.9099L24.503 46.5903L24.8244 46.7729L24.6408 47.0924Z" fill="#C7E7DC" stroke="#C7E7DC" stroke-width="0.3"/>
  <path d="M24.2746 46.8644L23.9072 46.5449L24.1368 46.271L24.5042 46.5905L24.3664 46.7275L24.2746 46.8644Z" fill="#C7E7DC" stroke="#C7E7DC" stroke-width="0.3"/>
  <path d="M23.9054 46.5446L23.7217 46.3164L23.8135 46.1794L23.6758 46.2707L23.9513 46.0425L24.135 46.3164L23.9972 46.4076L23.9054 46.5446Z" fill="#C7E7DC" stroke="#C7E7DC" stroke-width="0.3"/>
  <path d="M37.1317 51.3834L35.0654 51.3378L33.045 51.2465L31.0705 51.0639L30.198 50.927L28.4531 50.6531L27.5347 50.4248L26.0194 50.014L25.0551 49.6489L24.0449 49.1468L24.1827 48.8272L25.1929 49.3293L26.3868 49.7402L27.8102 50.151L28.5449 50.2879L30.2898 50.6074L31.2541 50.6987L33.0909 50.8813L35.0654 51.0183H37.0858L39.1521 50.9726L41.1725 50.8357L43.147 50.6074L45.0297 50.2879L46.7746 49.9227L48.2899 49.4663L49.3001 49.0555L49.9889 48.7359L50.3562 48.5533L50.5399 48.8272L50.1725 49.0555L49.4378 49.375L48.9327 49.5576L48.1062 49.8771L46.5909 50.2879L44.8919 50.6531L43.0552 50.9726L41.1266 51.2008L39.1521 51.2921L37.1317 51.3834Z" fill="#C7E7DC" stroke="#C7E7DC" stroke-width="0.3"/>
  <path d="M36.0756 54.0306L35.0654 53.985L32.999 53.8937L31.0705 53.6655L29.2337 53.4372L27.5347 53.0721L26.0194 52.6156L25.5143 52.4787L24.7337 52.1591L24.0449 51.794L24.1827 51.4744L24.8715 51.8396L25.6521 52.1135L26.3868 52.3874L27.8102 52.7525L29.4633 53.1177L31.2082 53.3459L33.1368 53.5285L35.0654 53.6198L36.0756 53.6655H38.1419L40.1164 53.5285L42.1368 53.3916L43.147 53.2546L45.0297 52.9351L46.7746 52.5243L48.2899 52.0678L49.3001 51.7027L49.9889 51.3831L50.3562 51.1549L50.5399 51.4744L49.7593 51.8852L49.4378 52.0222L48.1062 52.5243L46.5909 52.9351L44.8919 53.3003L43.1011 53.6198L41.1725 53.8024L40.1623 53.8937L38.1419 53.985L36.0756 54.0306Z" fill="#C7E7DC" stroke="#C7E7DC" stroke-width="0.3"/>
  <path d="M37.0868 50.0595L35.0664 50.0138L34.0562 49.9682L32.0817 49.8312L30.199 49.603L29.2347 49.4661L27.5357 49.1009L26.8929 48.9183L26.0204 48.6901L25.5153 48.5075L24.7347 48.188L24 47.8228L24.1837 47.5033L25.1939 48.0054L25.6531 48.188L26.3878 48.4162L26.9847 48.5988L27.8572 48.827L29.4643 49.1465L31.2092 49.3748L32.1276 49.5117L34.1021 49.6486L36.0766 49.6943H37.0868H38.1429L40.1174 49.603L41.1735 49.5117L42.1378 49.4204L43.148 49.2835L45.0307 48.9639L45.8113 48.827L46.7756 48.5988L48.2909 48.1423L49.3011 47.7315L49.9899 47.412L50.3572 47.2294L50.5409 47.5033L50.1735 47.7315L49.4388 48.051L48.1072 48.5531L46.5919 48.9639L45.8572 49.1465L44.9388 49.3291L43.0562 49.6486L42.1837 49.7399L41.1276 49.8769L39.1531 50.0138L38.1429 50.0595H37.0868Z" fill="#C7E7DC" stroke="#C7E7DC" stroke-width="0.3"/>
  <path d="M46.7754 51.7942L46.6836 51.4746L47.7397 51.1095L48.7499 50.7443L49.5765 50.2878L49.7601 50.6074L48.8877 51.0638L47.8316 51.4746L46.7754 51.7942Z" fill="#C7E7DC" stroke="#C7E7DC" stroke-width="0.3"/>
  <path d="M37.0401 47.9597H35.1115L33.2289 47.8684L31.3921 47.6858L30.4279 47.5489L28.7289 47.2294L27.2136 46.8642L25.9278 46.4077L24.8717 45.9056L24.5962 45.7687L24.2289 45.4948L23.9074 45.2209L23.6778 44.947L23.586 44.8101L23.4482 44.4906L23.7697 44.3536L23.8615 44.6275L24.0452 44.8101L24.2748 45.084L24.5503 45.3122L24.7799 45.4948L25.3768 45.8143L26.0656 46.0882L26.8462 46.3621L27.6268 46.5903L29.0503 46.9555L30.6574 47.2294L31.4381 47.3206L33.2289 47.5032L35.1115 47.5945L36.1217 47.6402L38.0503 47.5945L40.2085 47.5032L41.9075 47.3206L43.7442 47.0924L45.4432 46.7273L46.683 46.4534L46.7748 46.7729L45.2595 47.1381L43.6065 47.4576L41.9534 47.6858L39.933 47.8684L38.0044 47.9597H37.0401Z" fill="#C7E7DC" stroke="#C7E7DC" stroke-width="0.3"/>
  <path d="M46.7754 50.4703L46.6836 50.1508L48.0152 49.6943L49.0254 49.2835L49.5765 48.964L49.7601 49.2835L49.1632 49.603L48.153 50.0595L46.7754 50.4703Z" fill="#C7E7DC" stroke="#C7E7DC" stroke-width="0.3"/>
  <path d="M36.1202 54.3048L34.2375 54.2592L32.4008 54.1222L30.61 53.894L29.0028 53.6201L27.4875 53.3006L26.7069 53.0267L26.2018 52.8898L25.4671 52.5703L24.8242 52.2507L24.962 51.9312L25.6508 52.2507L26.3395 52.5246L27.0283 52.7985L27.5793 52.9354L29.0487 53.3006L30.6559 53.5745L32.4467 53.7571L34.2834 53.894L36.1661 53.9853L38.0487 53.9397L39.9314 53.8484L41.8141 53.7114L42.7783 53.5745L44.5692 53.255L45.3039 53.118L46.7733 52.7529L47.6457 52.479L48.5641 52.1138L49.2529 51.7943L49.5743 51.6117L49.758 51.9312L48.7018 52.4333L48.2427 52.6159L47.462 52.8898L46.911 53.0724L45.3498 53.4832L43.6508 53.8027L42.7324 53.9397L40.8957 54.1222L39.9773 54.2135L38.0947 54.3048H36.1202Z" fill="#C7E7DC" stroke="#C7E7DC" stroke-width="0.3"/>
  <path d="M23.9074 51.6117H23.54V52.5703H23.9074V51.6117Z" fill="#C7E7DC" stroke="#C7E7DC" stroke-width="0.3"/>
  <path d="M51.2736 51.1093H50.9062V52.5699H51.2736V51.1093Z" fill="#C7E7DC" stroke="#C7E7DC" stroke-width="0.3"/>
  <path d="M37.4074 56.4958H36.9023L34.1931 56.4045L33.1829 56.3132L31.5758 56.1763L30.7033 56.0393L29.5094 55.8568L28.4533 55.6285L27.4431 55.4003L26.5247 55.1264L25.7441 54.8069L25.0553 54.4873L24.7339 54.2591L24.1829 53.894L24.0451 53.7114L23.8155 53.4375L23.7237 53.3005L23.54 52.7984V52.6158H23.9074V52.7984L24.0451 53.118L24.1829 53.3462L24.2747 53.4831L24.5043 53.6657L24.9176 53.9853L25.5145 54.3048L26.2033 54.6243L26.9839 54.8982L27.8564 55.1264L28.8666 55.3546L29.9227 55.5829L30.7492 55.7198L32.2646 55.9024L33.2288 55.9937L34.7901 56.085L37.9584 56.1763L40.6217 56.0393L42.5962 55.9024L44.0656 55.7198L45.2136 55.4916L46.3156 55.309L47.2799 55.0351L48.1523 54.7612L48.933 54.4873L49.5758 54.1678L49.8973 53.9853L50.4024 53.6201L50.7238 53.2549L50.8615 52.9354L50.9075 52.7528V52.6158H51.2748V52.8441L51.0911 53.2549L50.9534 53.5288L50.5401 53.9396L50.3564 54.1222L50.0809 54.2591L49.484 54.6243L48.7493 54.9438L47.9228 55.2177L47.0503 55.4916L46.0401 55.7198L44.984 55.9024L44.1574 56.0393L42.5962 56.2219L41.6319 56.3132L40.0707 56.4501L37.4074 56.4958Z" fill="#C7E7DC" stroke="#C7E7DC" stroke-width="0.3"/>
  <path d="M37.4074 56.3132L35.8003 56.2676L34.1472 56.2219L33.137 56.1306L31.4839 55.948L30.6115 55.8568L29.4176 55.6285L28.3615 55.4459L27.3513 55.1721L26.4329 54.8982L25.6523 54.5786L24.9635 54.2591L24.4125 53.9396L23.9992 53.5744L23.8155 53.3462L23.5859 52.981L23.54 52.7528V52.6158H23.9074V52.7528L23.9533 52.8897L24.137 53.1636L24.2288 53.3462L24.5962 53.6657L25.1472 53.9853L25.79 54.2591L26.8921 54.6699L27.7645 54.9438L28.7747 55.1721L29.8309 55.3546L30.6574 55.4916L32.1727 55.6742L33.1829 55.7655L34.7441 55.9024L35.8003 55.948H37.4074H39.0146L40.6676 55.8568L41.6778 55.7655L43.285 55.6285L45.3054 55.309L46.4074 55.0808L47.3717 54.8525L48.2442 54.5786L49.0248 54.2591L49.6677 53.9853L50.2187 53.6657L50.586 53.3005L50.8156 53.0267L50.9075 52.7528V52.6158H51.2748V52.8441L51.137 53.1636L50.9534 53.3918L50.8615 53.5744L50.6319 53.757L50.4024 53.9396L49.8513 54.2591L49.5758 54.4417L48.8411 54.7156L48.0605 54.9895L47.1421 55.2633L46.1319 55.4916L45.0299 55.7198L43.3309 55.948L41.6778 56.1306L40.0707 56.2219L39.0146 56.2676L37.4074 56.3132Z" fill="#C7E7DC" stroke="#C7E7DC" stroke-width="0.3"/>
  <path d="M46.7754 49.1464L46.6836 48.8268L47.7397 48.5073L48.7499 48.0965L49.5765 47.6857L49.7601 47.9595L48.8877 48.416L47.8316 48.8268L46.7754 49.1464Z" fill="#C7E7DC" stroke="#C7E7DC" stroke-width="0.3"/>
  <path d="M46.7754 48.097L46.6836 47.7318H46.7754L48.2448 47.2297L49.0714 46.8645L50.0356 46.3168L50.3571 46.0885L50.8622 45.4951L51.0458 45.2212L51.1377 44.9473V44.7191L51.505 44.7648L51.4591 45.0386L51.3673 45.4038L51.1377 45.7233L50.9081 45.9972L50.5867 46.3168L50.2193 46.5906L49.5305 47.0014L49.255 47.184L48.3826 47.5492L47.3724 47.9144L46.7754 48.097Z" fill="#C7E7DC" stroke="#C7E7DC" stroke-width="0.3"/>
  <path d="M36.0756 52.7073L35.0654 52.6616L33.045 52.5703L31.0705 52.3421L30.198 52.2508L29.2337 52.0682L27.5347 51.7487L26.0194 51.2922L25.5143 51.1553L24.7337 50.8358L24.0449 50.4706L24.1827 50.1511L24.8715 50.5162L25.6521 50.7901L26.3868 51.064L27.8102 51.4748L29.4633 51.7943L30.2898 51.9313L31.2541 52.0226L33.1368 52.2052L35.0654 52.3421H36.0756H38.1419L39.1521 52.2965L40.1164 52.2508L42.1368 52.0682L43.147 51.9313L45.0297 51.6118L46.7746 51.2009L48.2899 50.7445L49.3001 50.3793L49.9889 50.0598L50.3562 49.8315L50.5399 50.1511L49.7593 50.5619L48.9327 50.8814L48.1062 51.2009L46.5909 51.6118L44.9378 51.9769L43.1011 52.2965L42.1827 52.3877L40.1623 52.5703L39.1521 52.616L37.1317 52.7073H36.0756Z" fill="#C7E7DC" stroke="#C7E7DC" stroke-width="0.3"/>
  <path d="M50.6309 47.5949L50.4473 47.321L50.7687 46.9558L51.0442 47.2297L50.6309 47.5949Z" fill="#C7E7DC" stroke="#C7E7DC" stroke-width="0.3"/>
  <path d="M49.9435 48.1423L49.7139 47.8684L50.4486 47.3207L50.4945 47.4576L50.6782 47.5489V47.5946L49.9435 48.1423Z" fill="#C7E7DC" stroke="#C7E7DC" stroke-width="0.3"/>
  <path d="M46.7754 49.4204L46.6836 49.0552L47.6479 48.7813L48.704 48.3705L49.7142 47.8228L49.8979 48.1423L48.8418 48.69L47.7397 49.1008L46.7754 49.4204Z" fill="#C7E7DC" stroke="#C7E7DC" stroke-width="0.3"/>
  <path d="M57.0128 32.9424L56.7832 32.6228L57.4261 32.0751L57.6557 32.3033L57.2883 32.6685L57.0128 32.9424Z" fill="#C7E7DC" stroke="#C7E7DC" stroke-width="0.3"/>
  <path d="M50.6319 48.9181L50.4023 48.6442L50.7238 48.3247L50.9074 48.416L51.0452 48.5073L50.6319 48.9181Z" fill="#C7E7DC" stroke="#C7E7DC" stroke-width="0.3"/>
  <path d="M49.9434 49.4207L49.7598 49.1468L50.4026 48.6447L50.4945 48.7816L50.6781 48.8729L50.6322 48.9185L49.9434 49.4207Z" fill="#C7E7DC" stroke="#C7E7DC" stroke-width="0.3"/>
  <path d="M46.7754 50.7443L46.6836 50.3792L47.6479 50.1053L48.4285 49.7858L49.4846 49.2837L49.7601 49.1467L49.9438 49.4663L49.1632 49.8771L48.3826 50.1966L47.0969 50.6531L46.7754 50.7443Z" fill="#C7E7DC" stroke="#C7E7DC" stroke-width="0.3"/>
  <path d="M37.8206 13.5422L35.8001 13.4966H34.744L32.6318 13.4053L30.5654 13.2227L27.5348 12.8575L26.6624 12.7206L25.193 12.4924L22.9889 11.9902L22.3001 11.8077L21.6113 11.6251L21.7032 11.3055L22.3919 11.4881L23.6777 11.8077L25.2389 12.1272L26.7083 12.4011L28.1777 12.5836L30.6113 12.9032L33.7338 13.0858L35.8001 13.177H37.8206L39.9787 13.1314L41.0808 13.0858V13.4509L38.9226 13.5422H37.8206Z" fill="#C7E7DC" stroke="#C7E7DC" stroke-width="0.3"/>
  <path d="M36.3489 53.2547H35.4305L33.9152 53.1634L32.2162 53.0265L30.7009 52.8439L29.2774 52.6156L27.9917 52.3418L26.7978 52.0223L25.7876 51.6114L25.1907 51.3832L24.6396 51.0637L24.7774 50.7441L25.558 51.155L26.4305 51.5201L26.8897 51.6571L28.0835 51.9766L28.6805 52.1592L30.058 52.3874L31.4815 52.6156L32.2621 52.7069L34.558 52.8439L35.4305 52.8895H37.2672H38.3693L40.1601 52.7982L41.6754 52.6156L43.2826 52.4331L44.7979 52.1592L46.0836 51.8853L46.6805 51.7027L46.7724 52.0223L46.1754 52.2048L44.8897 52.4787L43.3285 52.7982L41.7213 52.9808L40.1601 53.1178L39.2876 53.2091L37.2672 53.2547H36.3489Z" fill="#C7E7DC" stroke="#C7E7DC" stroke-width="0.3"/>
  <path d="M24.596 51.0638L23.9991 50.5617L23.9072 50.5161L24.1827 50.2878L24.596 50.6074L24.8256 50.79L24.596 51.0638Z" fill="#C7E7DC" stroke="#C7E7DC" stroke-width="0.3"/>
  <path d="M23.9054 50.4701L23.8595 50.4245L23.6758 50.2419L23.9513 50.0137L23.9972 50.0593L23.8595 50.1963L23.9972 50.105L24.0431 50.1506L23.9513 50.2876L24.089 50.1506L24.135 50.2419L23.9513 50.3789L23.9054 50.4701Z" fill="#C7E7DC" stroke="#C7E7DC" stroke-width="0.3"/>
  <path d="M50.7706 50.1508L50.4951 49.9226L50.587 49.8313L50.7247 49.9226L50.587 49.7856L50.7706 49.8769L50.6329 49.74L50.7706 49.603L51.0461 49.8313L50.7706 50.1508Z" fill="#C7E7DC" stroke="#C7E7DC" stroke-width="0.3"/>
  <path d="M49.8975 50.7898L49.7139 50.4703L50.4026 49.9681L50.4945 50.1051L50.6782 50.1964L50.6322 50.242L49.8975 50.7898Z" fill="#C7E7DC" stroke="#C7E7DC" stroke-width="0.3"/>
  <path d="M46.7754 52.0227L46.6836 51.7032L47.6479 51.4293L48.704 51.0185L49.4387 50.6533L49.7142 50.4707L49.8979 50.7902L49.5765 50.9728L48.3826 51.5206L47.7397 51.7488L46.7754 52.0227Z" fill="#C7E7DC" stroke="#C7E7DC" stroke-width="0.3"/>
  <path d="M43.0996 13.3141V12.9489L45.3496 12.7663L47.1404 12.5381L48.6558 12.3099L50.9058 11.8534L52.3292 11.4882L53.569 11.1687L54.7629 10.7579L55.9568 10.2558L56.7374 9.8906L57.3344 9.57108L57.8854 9.20591L58.115 9.02332L58.3445 9.2972L57.7935 9.66237L57.2425 10.0275L56.5078 10.3927L55.4058 10.8948L54.2119 11.3056L53.6609 11.4882L52.3751 11.8534L50.3088 12.3555L48.7017 12.6294L46.268 12.9946L44.4312 13.2228L43.0996 13.3141Z" fill="#C7E7DC" stroke="#C7E7DC" stroke-width="0.3"/>
  <path d="M58.9903 8.70391L58.7148 8.47568L59.1281 7.97357L59.3118 7.56275L59.4495 7.01499V6.87805H59.8169V7.06063L59.725 7.5171L59.5873 7.79098L59.3577 8.24744L58.9903 8.70391Z" fill="#C7E7DC" stroke="#C7E7DC" stroke-width="0.3"/>
  <path d="M36.5334 49.0552L34.7426 49.0096L33.3191 48.9183L31.6661 48.7814L30.2426 48.5531L28.8651 48.3249L27.5793 48.0054L26.4314 47.6859L25.4212 47.275L25.0997 47.1381L24.8242 46.9555L24.962 46.636L25.2834 46.8186L26.1099 47.1837L26.661 47.3663L27.7171 47.6859L28.314 47.8684L29.5997 48.0967L31.0232 48.3249L32.4926 48.5075L34.7426 48.6444L36.5334 48.6901L38.5079 48.6444H39.3804L41.7681 48.4162L43.3294 48.188L44.11 48.0967L45.4875 47.8228L46.6814 47.5033L46.7733 47.8228L45.5794 48.1423L44.2018 48.4162L42.5947 48.6901L41.1712 48.827L39.4263 48.9639L37.4518 49.0552H36.5334Z" fill="#C7E7DC" stroke="#C7E7DC" stroke-width="0.3"/>
  <path d="M36.4888 48.7358L34.5603 48.6901L33.045 48.5988L31.3 48.4162L29.8307 48.2337L28.3613 47.9598L27.6725 47.8228L26.3868 47.4577L25.7439 47.2751L24.6878 46.8643L24.0449 46.4991L24.1827 46.1796L25.0092 46.5904L25.9735 47.0012L27.1215 47.3207L27.7643 47.4577L29.1419 47.7772L29.8766 47.8685L31.346 48.0967L33.0909 48.2337L34.5603 48.325L36.4888 48.3706H38.5552L40.4378 48.2337L42.045 48.0967L43.698 47.8685L44.5246 47.7315L45.994 47.4577L47.2797 47.1382L47.3715 47.4577L46.0858 47.7772L44.5705 48.0967L42.9174 48.325L41.4021 48.5075L39.5195 48.6445L37.4531 48.7358H36.4888Z" fill="#C7E7DC" stroke="#C7E7DC" stroke-width="0.3"/>
  <path d="M36.5334 53.0264L34.1457 52.9351L32.4467 52.7982L30.9773 52.6613L29.5538 52.433L28.2222 52.1592L27.5793 51.9766L26.4314 51.6114L25.4212 51.2462L25.0997 51.0636L24.8242 50.9267L24.962 50.6072L25.2834 50.7441L25.7426 50.9723L26.661 51.3375L27.7171 51.657L28.911 51.9309L30.2885 52.2048L31.712 52.3874L33.3191 52.5243L34.7426 52.6156L36.5334 52.6613L38.5079 52.6156L39.3804 52.57L41.1253 52.433L42.5488 52.2961L43.3294 52.1592L44.8447 51.8853L46.0845 51.6114L46.6814 51.4745L46.7733 51.794L45.5794 52.1135L44.1559 52.3874L43.3753 52.5243L41.1712 52.7982L39.4263 52.9351L37.4518 52.9808L36.5334 53.0264Z" fill="#C7E7DC" stroke="#C7E7DC" stroke-width="0.3"/>
  <path d="M22.6666 35.0877L21.2432 34.6313L21.335 34.3118L22.7585 34.7682L22.6666 35.0877Z" fill="#C7E7DC" stroke="#C7E7DC" stroke-width="0.3"/>
  <path d="M36.5334 51.7031L35.6151 51.6574L33.3191 51.5661L31.6661 51.3835L30.2426 51.201L28.8651 50.9727L27.5793 50.6532L26.4314 50.288L25.4212 49.9229L25.0997 49.7403L24.8242 49.6033L24.962 49.2838L25.2834 49.4664L25.7426 49.649L26.661 50.0142L27.7171 50.3337L28.911 50.6076L30.2885 50.8814L31.712 51.064L33.3191 51.201L34.7426 51.2923L35.661 51.3379H36.5334L38.5079 51.2923L40.2528 51.201L41.7681 51.064L42.5488 50.9727L44.11 50.7445L45.4875 50.425L46.6814 50.1511L46.7733 50.4706L45.5794 50.7902L44.2018 51.064L42.5947 51.2923L41.1712 51.4748L39.4263 51.6118L37.4518 51.7031H36.5334Z" fill="#C7E7DC" stroke="#C7E7DC" stroke-width="0.3"/>
  <path d="M20.1868 11.1689L18.8552 10.6212L17.7991 10.1191L17.4317 9.93649L16.8807 9.57131L16.1919 9.02355L15.7786 8.61273L15.6409 8.43015L15.2735 7.83674L15.0899 7.42593L15.0439 6.92382L15.3654 6.87817L15.4572 7.42593L15.549 7.69981L15.6868 7.92804L16.0541 8.43015L16.4215 8.74968L17.1103 9.29744L17.6154 9.61696L18.5797 10.1191L19.1766 10.393L20.3246 10.8494L20.1868 11.1689Z" fill="#C7E7DC" stroke="#C7E7DC" stroke-width="0.3"/>
  <path d="M36.3489 51.9309L34.558 51.8852L33.0887 51.7939L31.4356 51.657L30.0121 51.4287L28.6346 51.1549L27.3488 50.8353L26.2009 50.4702L25.7876 50.3332L24.9611 49.9224L24.6396 49.7398L24.8233 49.4659L25.0988 49.6029L25.9254 50.0137L26.9356 50.3789L27.5325 50.5158L28.7264 50.8353L30.058 51.0636L31.4815 51.2918L33.0887 51.4287L34.558 51.5657H36.3489H38.3693L40.1601 51.4744L41.7213 51.3374L43.2826 51.1092L44.1091 50.9723L45.4866 50.6984L46.0836 50.5615L46.6805 50.3789L46.7724 50.6984L46.1754 50.881L44.8897 51.2005L44.1091 51.3374L42.5479 51.5657L41.0785 51.7483L39.2876 51.8852L37.2672 51.9309H36.3489Z" fill="#C7E7DC" stroke="#C7E7DC" stroke-width="0.3"/>
  <path d="M24.6419 49.74L23.9991 49.2379L23.9072 49.1922L24.1827 48.964L24.6419 49.3292L24.8256 49.4661L24.6419 49.74Z" fill="#C7E7DC" stroke="#C7E7DC" stroke-width="0.3"/>
  <path d="M23.9513 49.1924L23.8595 49.1468L23.7217 48.9642L23.8595 48.8729L23.6758 48.9186L23.9513 48.6903L24.135 48.9186L23.9972 49.0098L23.9513 49.1924Z" fill="#C7E7DC" stroke="#C7E7DC" stroke-width="0.3"/>
  <path d="M20.1407 4.96105L19.957 4.68718L20.508 4.32201L21.105 4.00247L21.7938 3.68295L22.9417 3.22648L24.2275 2.81567L24.3193 3.1352L22.7581 3.6373L21.656 4.13942L20.9672 4.45894L20.4162 4.77846L20.1407 4.96105Z" fill="#C7E7DC" stroke="#C7E7DC" stroke-width="0.3"/>
  <path d="M36.3967 50.6075L34.0089 50.5619L32.31 50.4249L30.7947 50.2423L30.06 50.1054L28.6365 49.8315L27.3967 49.5576L26.2487 49.1924L25.2844 48.7816L24.6875 48.4621L24.8712 48.1426L25.6059 48.5534L26.5242 48.9186L27.5804 49.2381L28.7742 49.512L30.1059 49.7859L31.5294 49.9684L33.1365 50.151L34.6059 50.2423L36.3967 50.288L38.4171 50.2423L40.2079 50.151L42.5039 49.9228L44.111 49.6489L45.4886 49.375L46.6825 49.0555L46.7743 49.4207L46.1773 49.5576L44.8916 49.8771L43.3763 50.151L42.5498 50.2423L40.2079 50.4706L38.4171 50.6075H36.3967Z" fill="#C7E7DC" stroke="#C7E7DC" stroke-width="0.3"/>
  <path d="M24.6427 48.4163L24.2754 48.1881L24.4591 47.9142L24.8723 48.1424L24.6427 48.4163Z" fill="#C7E7DC" stroke="#C7E7DC" stroke-width="0.3"/>
  <path d="M24.2746 48.1878L24.1368 48.0965L23.9072 47.8683L24.1827 47.64L24.4123 47.8683L24.5042 47.9139L24.3664 48.0508L24.2746 48.1878Z" fill="#C7E7DC" stroke="#C7E7DC" stroke-width="0.3"/>
  <path d="M24.044 47.9144H23.8604V47.7318H24.044V47.5492H24.2277V47.7318H24.044V47.9144Z" fill="#C7E7DC" stroke="#C7E7DC" stroke-width="0.3"/>
  <path d="M23.9513 47.8687L23.6758 47.5491L23.9513 47.3666L23.8135 47.5035L23.9513 47.4122L24.0431 47.5035H24.089L23.9054 47.8687H23.9513Z" fill="#C7E7DC"/>
  <path d="M23.9972 47.5948H23.9513M23.9513 47.8687L23.6758 47.5491L23.9513 47.3666L23.8135 47.5035L23.9513 47.4122L24.0431 47.5035H24.089L23.9054 47.8687H23.9513Z" stroke="#C7E7DC" stroke-width="0.3"/>
  <path d="M24.8711 2.9979L24.7793 2.67838L26.065 2.35886L27.4885 2.08497L29.1416 1.81109L31.3456 1.53722L32.0803 1.44592L32.1263 1.81109L29.9222 2.03933L28.2691 2.26756L26.8456 2.54144L25.514 2.86096L24.8711 2.9979Z" fill="#C7E7DC" stroke="#C7E7DC" stroke-width="0.3"/>
  <path d="M15.2287 9.52539H14.8613V13.8162H15.2287V9.52539Z" fill="#C7E7DC" stroke="#C7E7DC" stroke-width="0.3"/>
  <path d="M15.3664 6.87817H14.999V8.20192H15.3664V6.87817Z" fill="#C7E7DC" stroke="#C7E7DC" stroke-width="0.3"/>
  <path d="M16.7902 28.8337H16.4229V39.8802H16.7902V28.8337Z" fill="#C7E7DC" stroke="#C7E7DC" stroke-width="0.3"/>
  <path d="M16.7902 10.4386H16.4229V10.6668H16.7902V10.4386Z" fill="#C7E7DC" stroke="#C7E7DC" stroke-width="0.3"/>
  <path d="M20.5551 30.2946L8.43262 26.369L8.52446 26.0494L20.6469 29.9294L20.5551 30.2946Z" fill="#C7E7DC" stroke="#C7E7DC" stroke-width="0.3"/>
  <path d="M23.3556 16.6918L14.2178 13.7248L14.3096 13.4053L23.4933 16.3266L23.3556 16.6918Z" fill="#C7E7DC" stroke="#C7E7DC" stroke-width="0.3"/>
  <path d="M51.5031 44.3994H51.1357V44.7646H51.5031V44.3994Z" fill="#C7E7DC" stroke="#C7E7DC" stroke-width="0.3"/>
  <path d="M58.4377 25.1366H58.0703V39.8804H58.4377V25.1366Z" fill="#C7E7DC" stroke="#C7E7DC" stroke-width="0.3"/>
  <path d="M58.4377 9.84521H58.0703V10.7125H58.4377V9.84521Z" fill="#C7E7DC" stroke="#C7E7DC" stroke-width="0.3"/>
  <path d="M59.8146 6.87817H59.4473V8.20192H59.8146V6.87817Z" fill="#C7E7DC" stroke="#C7E7DC" stroke-width="0.3"/>
  <path d="M59.9972 20.6635H59.6299V22.7175H59.9972V20.6635Z" fill="#C7E7DC" stroke="#C7E7DC" stroke-width="0.3"/>
  <path d="M59.9972 9.52539H59.6299V11.3056H59.9972V9.52539Z" fill="#C7E7DC" stroke="#C7E7DC" stroke-width="0.3"/>
  <path d="M27.4434 3.81975L27.3516 3.50022H27.5812C27.5812 3.50022 27.7648 3.40893 27.9026 3.36328L27.9944 3.6828C27.9944 3.6828 27.8107 3.72845 27.7189 3.7741H27.4893L27.4434 3.81975Z" fill="#C7E7DC" stroke="#C7E7DC" stroke-width="0.3"/>
  <path d="M19.4073 5.60017L19.1318 5.37194C19.1318 5.37194 19.1318 5.37194 19.1778 5.32629L19.4533 5.55452H19.4073V5.60017Z" fill="#C7E7DC" stroke="#C7E7DC" stroke-width="0.3"/>
  <path d="M18.8556 6.87805H18.4883V7.01499H18.8556V6.87805Z" fill="#C7E7DC" stroke="#C7E7DC" stroke-width="0.3"/>
  <path d="M22.6681 6.78662H22.3008V6.87792H22.6681V6.78662Z" fill="#C7E7DC" stroke="#C7E7DC" stroke-width="0.3"/>
  <path d="M24.4122 10.986C24.4122 10.986 24.3204 10.986 24.2745 10.986H24.1826L24.2745 10.6208H24.3663C24.3663 10.6208 24.4581 10.6665 24.504 10.6665L24.4122 10.986Z" fill="#C7E7DC" stroke="#C7E7DC" stroke-width="0.3"/>
  <path d="M24.1827 10.9404H24.1368C24.1368 10.9404 24.0908 10.9404 24.0449 10.9404L24.1368 10.6208C24.1368 10.6208 24.2286 10.6208 24.2745 10.6208H24.3204L24.2286 10.986L24.1827 10.9404Z" fill="#C7E7DC" stroke="#C7E7DC" stroke-width="0.3"/>
  <path d="M22.8048 10.4841C22.8048 10.4841 22.667 10.4384 22.6211 10.4384L22.7589 10.1189C22.7589 10.1189 22.8507 10.1189 22.8966 10.1645V10.3471L22.8048 10.5297V10.4841Z" fill="#C7E7DC" stroke="#C7E7DC" stroke-width="0.3"/>
  <path d="M54.9015 9.06915L54.6719 8.79527C54.6719 8.79527 54.7637 8.70398 54.8556 8.70398L55.0392 9.0235C55.0392 9.0235 54.9474 9.06915 54.9015 9.1148" fill="#C7E7DC"/>
  <path d="M54.9015 9.06915L54.6719 8.79527C54.6719 8.79527 54.7637 8.70398 54.8556 8.70398L55.0392 9.0235C55.0392 9.0235 54.9474 9.06915 54.9015 9.1148" stroke="#C7E7DC" stroke-width="0.3"/>
  <path d="M55.0861 8.9322L54.8105 8.70397L54.8565 8.65833L55.132 8.88656L55.0861 8.9322Z" fill="#C7E7DC" stroke="#C7E7DC" stroke-width="0.3"/>
  <path d="M55.6368 8.43012L55.3613 8.20188C55.3613 8.20188 55.3613 8.20189 55.4072 8.1106L55.6828 8.33882C55.6828 8.33882 55.6827 8.33883 55.6368 8.38447" fill="#C7E7DC"/>
  <path d="M55.6368 8.43012L55.3613 8.20188C55.3613 8.20188 55.3613 8.20189 55.4072 8.1106L55.6828 8.33882C55.6828 8.33882 55.6827 8.33883 55.6368 8.38447" stroke="#C7E7DC" stroke-width="0.3"/>
  <path d="M55.7296 8.33883L55.4541 8.15625L55.7755 8.29318C55.7755 8.29318 55.7755 8.29318 55.7296 8.33883Z" fill="#C7E7DC" stroke="#C7E7DC" stroke-width="0.3"/>
  <path d="M55.7736 8.24751L55.498 8.06493C55.498 8.06493 55.498 7.97363 55.544 7.97363L55.8654 8.11058C55.8654 8.11058 55.8195 8.20186 55.7736 8.24751Z" fill="#C7E7DC" stroke="#C7E7DC" stroke-width="0.3"/>
  <path d="M55.8663 8.15608L55.5908 7.92784C55.5908 7.92784 55.6367 7.88219 55.6827 7.83655L55.9582 8.01914C55.9582 8.01914 55.9123 8.11043 55.8663 8.15608Z" fill="#C7E7DC" stroke="#C7E7DC" stroke-width="0.3"/>
  <path d="M58.4367 10.7125L58.1152 10.5755C58.1152 10.5755 58.1152 10.4842 58.2071 10.4386L58.4826 10.6212C58.4826 10.6212 58.4826 10.6212 58.4826 10.6668" fill="#C7E7DC"/>
  <path d="M58.4367 10.7125L58.1152 10.5755C58.1152 10.5755 58.1152 10.4842 58.2071 10.4386L58.4826 10.6212C58.4826 10.6212 58.4826 10.6212 58.4826 10.6668" stroke="#C7E7DC" stroke-width="0.3"/>
  <path d="M55.9581 8.06453L55.6826 7.8363C55.6826 7.8363 55.6826 7.79065 55.7285 7.79065L56.004 7.92759C56.004 7.92759 56.004 8.01889 55.9581 8.06453Z" fill="#C7E7DC" stroke="#C7E7DC" stroke-width="0.3"/>
  <path d="M56.048 7.88204L55.7266 7.79075C55.7266 7.79075 55.7266 7.74511 55.7266 7.69946L56.0939 7.79075C56.0939 7.79075 56.0939 7.88204 56.048 7.88204Z" fill="#C7E7DC" stroke="#C7E7DC" stroke-width="0.3"/>
  <path d="M56.0949 7.79097L55.8193 7.60839C55.8193 7.60839 55.8193 7.60839 55.8193 7.56274L56.1408 7.65404C56.1408 7.69969 56.0949 7.74533 56.0949 7.79097Z" fill="#C7E7DC" stroke="#C7E7DC" stroke-width="0.3"/>
  <path d="M56.1408 7.69965L55.8193 7.51706C55.8193 7.51706 55.8193 7.42577 55.8653 7.38013L56.1408 7.56271C56.1408 7.56271 56.1408 7.654 56.0949 7.654" fill="#C7E7DC"/>
  <path d="M56.1408 7.69965L55.8193 7.51706C55.8193 7.51706 55.8193 7.42577 55.8653 7.38013L56.1408 7.56271C56.1408 7.56271 56.1408 7.654 56.0949 7.654" stroke="#C7E7DC" stroke-width="0.3"/>
  <path d="M56.2335 7.47141H55.8662V7.38013H56.2335V7.47141Z" fill="#C7E7DC" stroke="#C7E7DC" stroke-width="0.3"/>
  <path d="M56.2785 7.37998H55.9111V7.24304H56.2785V7.33434" fill="#C7E7DC"/>
  <path d="M56.2785 7.37998H55.9111V7.24304H56.2785V7.33434" stroke="#C7E7DC" stroke-width="0.3"/>
  <path d="M56.2785 7.24338H55.9111C55.9111 7.24338 55.9111 7.10644 55.9111 7.06079H56.2326C56.2326 7.06079 56.2326 7.19773 56.2326 7.24338" fill="#C7E7DC"/>
  <path d="M56.2785 7.24338H55.9111C55.9111 7.24338 55.9111 7.10644 55.9111 7.06079H56.2326C56.2326 7.06079 56.2326 7.19773 56.2326 7.24338" stroke="#C7E7DC" stroke-width="0.3"/>
  <path d="M56.3253 7.15219L56.0039 7.06089C56.0039 7.06089 56.0039 7.01525 56.0039 6.9696H56.3712C56.3712 6.9696 56.3712 7.10654 56.3712 7.15219" fill="#C7E7DC"/>
  <path d="M56.3253 7.15219L56.0039 7.06089C56.0039 7.06089 56.0039 7.01525 56.0039 6.9696H56.3712C56.3712 6.9696 56.3712 7.10654 56.3712 7.15219" stroke="#C7E7DC" stroke-width="0.3"/>
  <path d="M56.3253 7.01499L56.0039 6.87805H56.3712C56.3712 6.87805 56.3712 6.96935 56.3712 7.01499" fill="#C7E7DC"/>
  <path d="M56.3253 7.01499L56.0039 6.87805H56.3712C56.3712 6.87805 56.3712 6.96935 56.3712 7.01499" stroke="#C7E7DC" stroke-width="0.3"/>
  <path d="M52.5588 6.87805H52.1914V6.96935H52.5588V6.87805Z" fill="#C7E7DC" stroke="#C7E7DC" stroke-width="0.3"/>
  <path d="M40.0703 12.4927V12.1276C40.0703 12.1276 40.2081 12.1276 40.2999 12.1276H40.3458V12.4927H40.2999C40.2999 12.4927 40.1621 12.4927 40.0703 12.4927Z" fill="#C7E7DC" stroke="#C7E7DC" stroke-width="0.3"/>
  <path d="M40.3467 12.4468V12.0816C40.9895 12.0816 41.6783 11.9903 42.3671 11.9447V12.3099C41.7242 12.3555 41.0355 12.4012 40.3467 12.4468Z" fill="#C7E7DC" stroke="#C7E7DC" stroke-width="0.3"/>
  <path d="M42.4131 12.3099V11.9447C42.4131 11.9447 42.5509 11.9447 42.6427 11.9447H42.7345V12.2642H42.6427C42.6427 12.2642 42.459 12.2642 42.3672 12.2642" fill="#C7E7DC"/>
  <path d="M42.4131 12.3099V11.9447C42.4131 11.9447 42.5509 11.9447 42.6427 11.9447H42.7345V12.2642H42.6427C42.6427 12.2642 42.459 12.2642 42.3672 12.2642" stroke="#C7E7DC" stroke-width="0.3"/>
  <path d="M50.0352 11.123L49.9434 10.8034C49.9434 10.8034 50.2189 10.7122 50.4025 10.6665H50.5403L50.6321 10.986H50.4944C50.4944 10.986 50.1729 11.123 50.0352 11.1686" fill="#C7E7DC"/>
  <path d="M50.0352 11.123L49.9434 10.8034C49.9434 10.8034 50.2189 10.7122 50.4025 10.6665H50.5403L50.6321 10.986H50.4944C50.4944 10.986 50.1729 11.123 50.0352 11.1686" stroke="#C7E7DC" stroke-width="0.3"/>
  <path d="M46.958 10.3931L46.8662 10.0736C46.8662 10.0736 47.1876 9.98229 47.3713 9.93665L47.4631 10.2562C47.4631 10.2562 47.1417 10.3475 46.958 10.3931Z" fill="#C7E7DC" stroke="#C7E7DC" stroke-width="0.3"/>
  <path d="M44.4327 9.29732L44.3408 8.97778L45.1214 8.74955L45.8102 8.52133L46.4072 8.20179L46.9123 7.92792L47.2796 7.60839L47.601 7.19758L47.647 6.96935V6.87805H48.0143V7.01499L47.9225 7.38017L47.7388 7.60839L47.4633 7.92792L47.05 8.24744L46.5449 8.56696L45.948 8.7952L45.2133 9.06908L44.4327 9.29732Z" fill="#C7E7DC" stroke="#C7E7DC" stroke-width="0.3"/>
  <path d="M22.6681 6.87808H22.3008L22.3467 6.69549L22.4845 6.23903L22.6681 5.87386L22.9436 5.59998L23.2651 5.28045L23.6783 4.96093L23.9079 4.82399L24.7345 4.41317L25.2396 4.18494L26.2498 3.81977L27.3518 3.50024L27.4436 3.81977L27.3059 3.86542L26.2039 4.18494L25.2396 4.55011L24.3671 4.96093L23.6783 5.37175L23.1732 5.82821L22.9436 6.10209L22.76 6.37597L22.714 6.55856L22.6681 6.87808Z" fill="#C7E7DC" stroke="#C7E7DC" stroke-width="0.3"/>
  <path d="M52.1935 6.87813L52.1475 6.60425L52.0098 6.33037L51.872 6.05649L51.5965 5.78261L51.2751 5.46309L50.8618 5.1892L50.4026 4.91533L49.4384 4.45886L48.5659 4.18499L48.0149 4.0024L47.0506 3.72852L45.3516 3.36335L44.5251 3.22641L42.5506 2.95253L41.4485 2.86124L39.3363 2.7243H38.3261H37.0863H36.0761L33.9179 2.8156L32.7699 2.90688L30.7036 3.18077L28.821 3.50029L27.4434 3.81982L27.3516 3.50029L29.0505 3.08947L30.9332 2.76995L32.9536 2.54171L35.0659 2.40478L36.0302 2.35913H37.3159H38.3261L39.52 2.40478L41.6781 2.54171L43.7445 2.76995L44.6169 2.86124L45.719 3.08947L47.1424 3.409L48.1067 3.63723L49.071 3.95676L49.5761 4.13934L50.5863 4.59581L51.2292 5.00662L51.6424 5.32615L52.0098 5.64567L52.2394 6.01084L52.3312 6.14778L52.469 6.51296L52.5149 6.87813H52.1935Z" fill="#C7E7DC" stroke="#C7E7DC" stroke-width="0.3"/>
  <path d="M37.6815 10.0734H35.9825L34.4672 9.98213L32.9978 9.79954L31.6202 9.57131L30.3805 9.29744L29.2784 8.97791L28.36 8.56709L27.7631 8.24756L27.2121 7.7911L27.0284 7.56287L26.8447 7.15205V6.92382L27.1662 6.87817L27.2121 7.15205L27.3498 7.33464L27.6713 7.74546L28.2682 8.15628L28.4978 8.24756L29.0488 8.52145L30.059 8.84097L30.7019 9.02355L31.8958 9.29744L33.2274 9.48002L34.605 9.61696L36.258 9.70825L37.6815 9.7539L39.1509 9.70825L40.6662 9.61696L42.0897 9.43437L43.4213 9.20614L44.3856 8.97791L44.4315 9.29744L43.2376 9.57131L41.9519 9.79954L40.5284 9.93649L39.059 10.0734H37.6815Z" fill="#C7E7DC" stroke="#C7E7DC" stroke-width="0.3"/>
  <path d="M27.1662 6.92365L26.8447 6.878L26.8906 6.51283L27.0284 6.23896L27.1662 6.01072L27.5335 5.6912L27.9927 5.37167L28.5896 5.0978L29.2325 4.82391L30.0131 4.55004L30.3805 4.45874L30.4723 4.77826L29.3702 5.14343L28.4519 5.55425L27.9468 5.82814L27.5794 6.14766L27.3039 6.42154L27.2121 6.69541L27.1662 6.92365Z" fill="#C7E7DC" stroke="#C7E7DC" stroke-width="0.3"/>
  <path d="M48.0136 6.87836H47.6462V6.78706L47.5544 6.51319L47.2789 6.14802L47.0493 5.96543L46.7738 5.7372L46.085 5.37203L45.1666 5.0525L44.1564 4.73298L42.9166 4.50474L41.6309 4.27651L40.2074 4.13957L38.5543 4.04828L37.1768 4.00263L35.6615 4.04828L34.1921 4.18522L32.7686 4.32216L31.437 4.59604L30.4727 4.77862L30.3809 4.4591L31.5747 4.18522L32.9064 3.95699L34.2839 3.82005L35.7533 3.72875L37.1768 3.68311H38.8758L40.3911 3.7744L41.8605 3.95699L43.1921 4.18522L44.4778 4.4591L45.5799 4.77862L46.2227 5.0525L47.0952 5.55461L47.3707 5.7372L47.738 6.10237L47.8758 6.3306L48.0136 6.78706V6.87836Z" fill="#C7E7DC" stroke="#C7E7DC" stroke-width="0.3"/>
  <path d="M19.4532 5.55419L19.2236 5.32596L19.6369 4.91514L20.142 4.54997L20.7389 4.1848L21.3818 3.86528L21.7491 3.68269L22.943 3.22622L23.9992 2.9067L24.7798 2.67847L24.8716 2.99799L24.642 3.04364L23.5859 3.36316L22.3002 3.81963L21.8869 4.00221L20.8308 4.50432L20.2798 4.86949L19.7746 5.23466L19.4532 5.55419Z" fill="#C7E7DC" stroke="#C7E7DC" stroke-width="0.3"/>
  <path d="M18.8556 6.87828H18.4883L18.5801 6.33052L18.7179 5.96535L19.1311 5.37195L19.4066 5.60018L19.1311 6.011L18.9475 6.33052L18.8556 6.65004V6.87828Z" fill="#C7E7DC" stroke="#C7E7DC" stroke-width="0.3"/>
  <path d="M24.8711 2.9979L24.7793 2.67838L26.5242 2.26756L28.5905 1.90239L30.1518 1.67416L32.4477 1.44592L32.4936 1.76545L30.1518 1.99368L28.0395 2.31321L26.1569 2.67838L24.8711 2.9979Z" fill="#C7E7DC" stroke="#C7E7DC" stroke-width="0.3"/>
  <path d="M51.9626 3.59163L50.8606 3.22645L49.4371 2.86128L47.9677 2.54176L46.4524 2.26788L44.7993 2.03965L42.2279 1.76577L39.5187 1.62884L37.131 1.58319L35.1105 1.62884L33.4116 1.72012L32.4932 1.76577L32.4473 1.44625L35.1105 1.26367L37.8197 1.21802L39.5646 1.26367L42.2279 1.4006L44.8453 1.67448L46.4983 1.90271L48.1514 2.22224L49.529 2.54176L50.9524 2.90693L52.0545 3.2721L51.9626 3.59163Z" fill="#C7E7DC" stroke="#C7E7DC" stroke-width="0.3"/>
  <path d="M56.0047 6.8778L55.9588 6.60392L55.821 6.19311L55.5455 5.73664L55.27 5.46276L54.7649 5.0063L54.1221 4.59548L53.3414 4.18466L52.469 3.81949L51.918 3.59126L52.0557 3.27173L52.1476 3.31738L53.1118 3.68255L53.9843 4.13901L54.719 4.59548L55.3619 5.05195L55.6833 5.37147L55.9588 5.69099L56.1425 6.01052L56.3261 6.55828V6.8778H56.0047Z" fill="#C7E7DC" stroke="#C7E7DC" stroke-width="0.3"/>
  <path d="M47.5098 10.2559L47.3721 9.93636L49.0711 9.43425L49.6221 9.20602L50.4486 8.7952L51.1374 8.38438L51.5047 8.06486L51.918 7.65404L52.1017 7.19758L52.1476 7.10628L52.1935 6.87805H52.5149V7.15193L52.3772 7.5171L52.1476 7.88227L51.918 8.20179L51.5507 8.52133L50.9078 8.93214L50.4486 9.20602L49.5762 9.61684L48.6119 9.93636L47.5098 10.2559Z" fill="#C7E7DC" stroke="#C7E7DC" stroke-width="0.3"/>
  <path d="M37.4998 11.397L35.3416 11.3514L33.1835 11.2145L31.0712 10.9862L29.1426 10.6667L27.3518 10.3015L25.7906 9.79942L25.2855 9.61684L24.4589 9.25167L24.0916 9.02343L23.5865 8.74955L23.1732 8.43003L22.8518 8.11051L22.4845 7.60839L22.3926 7.4258L22.3467 7.24322L22.3008 6.9237L22.6681 6.87805L22.714 7.19758L22.8059 7.4258L23.2191 8.01921L23.5406 8.29309L23.9538 8.56696L24.2753 8.74955L24.9641 9.11473L25.4232 9.29732L26.2498 9.57119L27.4436 9.93636L29.51 10.3928L31.3926 10.7124L33.4131 10.8949L35.5253 11.0319L37.6376 11.0775L39.9335 10.9862L42.0917 10.8493L44.1121 10.5754L44.9386 10.4841L46.7294 10.1189L47.4182 9.93636L47.4641 10.3015L45.7651 10.6667L44.9845 10.8036L43.8825 10.9862L41.908 11.2145L39.7957 11.3514L38.7855 11.397H37.4998Z" fill="#C7E7DC" stroke="#C7E7DC" stroke-width="0.3"/>
  <path d="M22.575 10.4387L21.6107 10.0279L20.8301 9.6171L20.1413 9.20628L19.5444 8.74981L19.0852 8.29335L18.8556 7.97382L18.626 7.51736L18.5342 7.19783L18.4883 7.01525L18.8556 6.9696V7.15219L18.9934 7.51736L19.223 7.92818L19.5903 8.33899L20.0954 8.74981L20.6924 9.16063L21.1056 9.38886L21.8403 9.75403L22.7128 10.0736L22.6669 10.2561L22.575 10.4387Z" fill="#C7E7DC" stroke="#C7E7DC" stroke-width="0.3"/>
  <path d="M24.0445 10.8948L22.7588 10.484L22.8965 10.1644L24.1363 10.5752L24.0445 10.8948Z" fill="#C7E7DC" stroke="#C7E7DC" stroke-width="0.3"/>
  <path d="M37.2224 12.538L34.3754 12.4467L31.6663 12.2641L30.1509 12.0815L28.5438 11.899L26.7071 11.5338L25.0081 11.1686L24.4111 10.986L24.503 10.6665L26.1101 11.0773L27.855 11.3968L28.5897 11.5338L31.0234 11.8533L32.5846 11.9902L34.3754 12.1272L37.2224 12.1728L40.0693 12.1272V12.4924L37.2224 12.538Z" fill="#C7E7DC" stroke="#C7E7DC" stroke-width="0.3"/>
  <path d="M42.7334 12.3098V11.9446L45.1212 11.7164L46.912 11.4425L48.7028 11.0773L49.9426 10.7578L50.0344 11.123L48.3814 11.4882L46.6365 11.8077L45.1671 12.0359L42.7334 12.3098Z" fill="#C7E7DC" stroke="#C7E7DC" stroke-width="0.3"/>
  <path d="M52.1942 6.87813L52.1483 6.60425L52.0564 6.33037L51.8728 6.05649L51.6432 5.78261L51.3218 5.50873L50.9085 5.23485L50.3115 4.86968L49.9442 4.6871L49.0717 4.32193L48.1534 4.04804L47.2809 3.77417L45.5819 3.409L43.7911 3.13512L41.8166 2.90688L39.7503 2.76995L38.786 2.7243H37.5462H36.5819H35.4799L33.3676 2.86124L32.4492 2.95253L30.4748 3.18077L29.4186 3.409L28.6839 3.54594L27.9492 3.68287L27.9033 3.36335L28.5921 3.18077L29.6023 2.99818L30.4288 2.86124L32.4033 2.58736L33.5054 2.49606L35.5717 2.40478L36.5819 2.35913H37.7758H38.786L39.934 2.40478L42.0462 2.54171L44.0666 2.8156L45.9493 3.13512L47.6942 3.54594L49.2095 4.0024L50.0819 4.36757L50.8166 4.77839L51.2758 5.05227L51.6891 5.37179L52.0105 5.69132L52.2401 6.01084L52.4238 6.33037L52.5156 6.69554V6.87813H52.1942Z" fill="#C7E7DC" stroke="#C7E7DC" stroke-width="0.3"/>
  <path d="M55.1329 8.93225L54.9033 8.65837L55.4084 8.2019L55.638 8.47579L55.1329 8.93225Z" fill="#C7E7DC" stroke="#C7E7DC" stroke-width="0.3"/>
  <path d="M50.6309 10.9408L50.5391 10.6213L51.4115 10.3474L52.5136 9.93657L53.2023 9.61705L53.8911 9.29752L54.6717 8.79541L54.8554 9.06929L54.0748 9.61705L53.0646 10.0735L51.9166 10.53L51.0442 10.8039L50.6309 10.9408Z" fill="#C7E7DC" stroke="#C7E7DC" stroke-width="0.3"/>
  <path d="M15.1828 9.52558H14.8613V9.11476L15.045 8.61265L15.0909 8.52136L15.4124 8.70394L15.2746 9.02347L15.1828 9.52558Z" fill="#C7E7DC" stroke="#C7E7DC" stroke-width="0.3"/>
  <path d="M37.4073 15.8707H37.2695H35.8001L34.3766 15.825L32.9532 15.7337L31.4379 15.6424L30.0603 15.5055L28.545 15.3229L27.3511 15.1403L25.8358 14.9121L24.7797 14.6839L23.4021 14.3643L22.4838 14.0905L21.6572 13.8622L21.7491 13.497L22.5756 13.7709L23.8613 14.0905L24.8715 14.3187L26.2032 14.5926L27.397 14.8208L28.8205 15.0034L30.1062 15.1403L31.5756 15.2773L32.9991 15.4142L34.3766 15.4598L35.8001 15.5055L37.545 15.5511L38.9685 15.5055L40.4379 15.4598L41.8154 15.4142L43.3767 15.2773L46.2236 14.9577L47.4175 14.8208L48.8869 14.5469L49.943 14.3187L51.3665 13.9992L52.2389 13.7709L53.5247 13.3601L54.2594 13.1319L55.3614 12.6298L55.9124 12.3559L56.5553 11.9907L57.1522 11.5799L57.5655 11.2147L57.7951 10.9865L58.1624 10.53L58.4379 10.7126L58.0706 11.2147L57.6573 11.5799L57.1522 11.9907L56.5553 12.4015L56.0502 12.6754L55.4992 12.9493L55.04 13.1775L54.3512 13.4514L53.2032 13.8622L52.3308 14.0905L51.0451 14.4556L50.0349 14.6839L48.6573 14.9577L47.4634 15.1403L46.0399 15.3686L43.2389 15.6424L41.8614 15.7337L40.4379 15.825L37.4073 15.8707Z" fill="#C7E7DC" stroke="#C7E7DC" stroke-width="0.3"/>
  <path d="M58.5285 10.5754L58.207 10.4841L58.4366 9.84509L58.758 9.89074L58.6203 10.4385L58.5285 10.5754Z" fill="#C7E7DC" stroke="#C7E7DC" stroke-width="0.3"/>
  <path d="M59.9983 9.52558H59.6309L59.585 9.06911L59.4473 8.6583L59.7687 8.52136L59.9524 9.11476L59.9983 9.52558Z" fill="#C7E7DC" stroke="#C7E7DC" stroke-width="0.3"/>
  <path d="M37.5897 29.4272L35.2019 29.3815L33.8703 29.3359L32.5845 29.2902L31.2988 29.199L31.3447 28.8338L32.5845 28.9251L33.9162 29.0164L35.2019 29.062H37.5897L40.2529 29.0164L41.5386 28.9707L42.8244 28.8794L44.0642 28.7881L46.5438 28.5143L48.8856 28.1491L49.9417 27.9665L51.1356 27.6926L52.0081 27.51L53.156 27.1905L53.8907 26.9623L54.9469 26.5971L56.1407 26.1406L56.9673 25.7298L57.7479 25.2734L58.5285 24.68L58.8958 24.3148L59.1713 23.9953L59.4469 23.5844L59.5846 23.2649L59.6305 22.8998V22.7172H59.9979L59.952 23.128L59.906 23.3562L59.7224 23.767L59.355 24.3148L59.1713 24.543L58.6203 25.0451L58.2989 25.319L57.9315 25.5472L57.105 26.0037L56.2785 26.4145L54.7173 27.0536L54.0285 27.2818L52.9264 27.6013L52.0999 27.8296L50.9519 28.1034L49.9877 28.286L48.7938 28.5143L46.4979 28.8794L44.1101 29.1077L42.8703 29.2446L41.5846 29.3359L40.2529 29.3815L37.5897 29.4272Z" fill="#C7E7DC" stroke="#C7E7DC" stroke-width="0.3"/>
  <path d="M21.6098 13.8619L20.5077 13.4511L19.5435 13.0403L18.6251 12.6295L17.6149 11.9904L17.0639 11.4883L16.6047 11.0318L16.3751 10.6667L16.1914 10.3471L16.5128 10.2102L16.6506 10.4841L17.1098 11.0775L17.6149 11.534L18.2118 11.9448L18.9006 12.3556L19.773 12.7664L20.6455 13.1316L21.7475 13.4967L21.6098 13.8619Z" fill="#C7E7DC" stroke="#C7E7DC" stroke-width="0.3"/>
  <path d="M37.1322 16.2354L35.2495 16.1898L33.7342 16.1441L31.8515 16.0072L30.4281 15.9159L28.5913 15.6877L27.2597 15.5051L25.4689 15.2312L24.3209 15.003L22.6219 14.5921L21.6576 14.3639L20.7393 14.09L20.877 13.7249L21.7495 13.9987L23.3107 14.4096L24.3668 14.6378L26.0658 14.9573L27.3056 15.1855L29.0505 15.4138L30.4281 15.5507L32.2648 15.6877L33.7342 15.7789L35.5709 15.8702H37.1322H39.1985L40.7597 15.8246L42.5965 15.6877L44.0659 15.5964L45.9026 15.4138L47.1883 15.2312L48.9791 14.9573L50.173 14.7291L51.872 14.3183L52.8363 14.09L53.7087 13.8162L55.1322 13.3597L56.1424 12.9032L57.0149 12.4924L57.7496 12.0359L58.1628 11.7621L58.7139 11.3056L59.1271 10.8491L59.2649 10.6209L59.4026 10.3927L59.5404 10.1644L59.6322 9.70797V9.52539H59.9996V9.75362L59.9077 10.1644H59.8618V10.3014L59.724 10.5753L59.5863 10.8491L59.4026 11.0774L58.9434 11.5795L58.3465 12.0359L57.6577 12.4924L56.8771 12.9489L55.9587 13.3597L55.27 13.6792L53.8465 14.1357L52.9281 14.4096L51.321 14.8204L50.2189 15.0486L48.5659 15.3681L47.2801 15.5507L45.4893 15.7789L44.0659 15.9159L42.275 16.0528L40.7597 16.1441L38.6475 16.2354H37.1322Z" fill="#C7E7DC" stroke="#C7E7DC" stroke-width="0.3"/>
  <path d="M20.7389 14.09L19.4532 13.5879L17.9838 12.9489L17.2491 12.5837L16.3766 11.9903L15.9175 11.6251L15.5042 11.1687L15.1828 10.7122L15.0909 10.5296L14.9072 10.0731L14.8613 9.70797V9.52539H15.1828L15.2287 9.84491L15.3205 10.2101L15.5501 10.6209L15.7797 10.9404L16.193 11.3512L16.6062 11.7164L17.4328 12.2642L18.1215 12.6293L18.8562 12.9945L19.545 13.2684L20.8766 13.7249L20.7389 14.09Z" fill="#C7E7DC" stroke="#C7E7DC" stroke-width="0.3"/>
  <path d="M51.4581 44.5362L51.3662 44.2166L52.3305 43.9428L53.2948 43.6233L54.6264 43.1211L55.453 42.7103L56.0958 42.3451L56.9224 41.7974L57.2438 41.5235L57.6571 41.0214L57.8407 40.7475L58.0244 40.2911L58.0703 39.8802H58.4377V40.0172L58.3918 40.3823L58.1622 40.8845L57.9326 41.2496L57.6571 41.5692L57.3356 41.8887L56.6468 42.3908L55.5448 43.0755L54.7642 43.4407L53.8917 43.7602L52.9734 44.0797L51.4581 44.5362Z" fill="#C7E7DC" stroke="#C7E7DC" stroke-width="0.3"/>
  <path d="M37.5454 46.1338L36.1219 46.0881L34.5147 46.0425L33.1372 45.9969L31.53 45.8599L30.1984 45.7686L28.5913 45.5404L27.4433 45.4035L25.8821 45.0839L24.8259 44.9013L23.4025 44.5362L21.7035 44.0341L20.5096 43.6233L19.6371 43.2124L18.8565 42.8473L18.1678 42.3908L17.6167 41.98L17.1575 41.5235L16.928 41.2953L16.6524 40.8388L16.5606 40.6106L16.4688 40.3823L16.4229 39.8802H16.7902L16.8361 40.2911L16.882 40.4736L16.9739 40.6562L17.2035 41.067L17.5708 41.4779L18.03 41.8887L18.6269 42.2538L19.2698 42.6647L20.0504 43.0298L20.6474 43.3037L21.8412 43.7145L22.6219 43.9884L23.9535 44.3079L24.9178 44.5362L26.3412 44.8557L27.4892 45.0383L29.0045 45.2665L30.2443 45.4035L31.8056 45.5404L33.1372 45.6317L34.7443 45.723L36.1219 45.7686H37.729H39.3362L40.9433 45.6773L42.3209 45.5861L43.928 45.4491L45.2138 45.3122L46.775 45.1296L47.9229 44.947L49.4383 44.6731L50.4485 44.4449L51.3668 44.2166L51.4587 44.5362L50.4944 44.7644L49.0709 45.0839L47.9689 45.3122L46.4536 45.5404L45.2138 45.6773L43.6525 45.8599L42.3209 45.9512L40.7137 46.0425L39.3362 46.0881L37.5454 46.1338Z" fill="#C7E7DC" stroke="#C7E7DC" stroke-width="0.3"/>
</svg>