<svg xmlns="http://www.w3.org/2000/svg" width="71" height="57" viewBox="0 0 71 57" fill="none">
  <path d="M51.669 54.0483C50.3983 54.0483 48.9255 53.6726 47.2793 52.9502C45.5755 52.199 44.7668 50.6964 44.8246 48.4137C44.3625 47.8647 43.6983 46.8533 43.0629 45.8998C42.5431 45.1196 42.081 44.3972 41.7056 43.9349C38.2689 39.485 33.5038 39.0226 27.2081 42.4901C25.8797 44.9173 22.934 46.7666 19.324 47.489C17.8801 47.778 16.5805 47.7491 15.1654 47.6624C12.5662 47.5468 10.1693 46.2465 8.00329 43.8193C7.80114 43.617 7.59898 43.4725 7.33907 43.2992C6.70372 42.8657 5.89509 42.3456 4.91319 40.3518C4.50888 39.485 4.27784 38.6759 3.90241 37.3178C3.55586 36.1042 3.12267 34.4572 2.28516 31.9144C1.56318 29.6605 2.2274 27.06 4.10457 24.8061C6.79036 21.5987 12.4507 18.5358 20.3926 19.5471C20.3926 18.8537 20.1327 18.4202 19.7283 17.8134C19.093 16.8599 18.2555 15.5596 18.0245 12.41C18.0245 12.0632 17.9378 11.6298 17.8512 11.1675C17.649 9.98277 17.418 8.62469 17.8223 7.64225C18.0245 7.17992 18.2844 6.71759 18.6598 6.31305C18.7176 6.22637 18.7176 6.11079 18.6598 5.93742C18.602 5.73515 18.5443 5.47509 18.7753 5.33061C18.8331 5.27282 18.9197 5.21503 19.0064 5.12834C19.3529 4.83939 19.815 4.43485 20.2482 4.37706C20.4792 4.34817 20.6814 4.46375 20.7969 4.55043C20.9413 4.63712 21.0279 4.69491 21.1146 4.63712C22.1253 4.26148 23.1072 4.00142 24.6379 3.85694C24.6956 3.85694 24.7245 3.85694 24.7534 3.82805C24.7534 3.79915 24.7534 3.68357 24.7534 3.59688C24.7534 3.42351 24.6956 3.16346 24.9555 3.04788C25.2443 2.93229 26.515 3.04787 27.0926 3.16345C27.4103 3.22125 27.3814 3.48131 27.3814 3.68357C27.3814 3.94363 27.3814 4.03032 27.5547 4.08811C28.7387 4.29037 29.1719 4.49265 29.6918 4.72381C29.8362 4.7816 29.9805 4.83939 30.1538 4.92608C30.3849 5.01276 30.587 4.98387 30.7892 4.92608C31.0491 4.86829 31.309 4.81049 31.6267 5.04165C32.2043 5.44619 32.9263 6.77538 32.8974 7.64225C32.8974 8.22015 32.8396 9.1737 32.7819 9.95388C36.103 16.3976 41.6478 15.1839 44.3625 14.5482C44.3048 12.4389 45.1711 10.6763 46.9039 9.46266C48.7811 8.13347 51.3802 7.8734 53.2574 7.8734C53.9794 7.84451 54.7302 7.87341 55.4811 7.90231C60.6216 8.33574 64.7514 10.9363 65.3579 14.1148C65.6178 14.5482 66.3109 15.0973 67.004 15.6463C68.0725 16.4842 69.0833 17.2933 69.0256 17.9579C69.0256 18.0735 68.8812 18.1891 68.6501 18.3624C68.3902 18.5358 68.0437 18.7959 67.9859 19.0848C67.8993 19.4316 68.1014 19.576 68.2458 19.7205C68.3325 19.8072 68.448 19.865 68.4191 19.9806C68.4191 20.0962 68.3036 20.154 68.2169 20.2117C67.1773 20.8185 66.6574 21.0208 65.1268 21.5409L64.4048 21.801L64.3471 22.1188C64.0583 23.6214 63.7984 25.0662 62.6143 25.9908C60.7372 27.4645 58.1958 28.5625 54.7014 29.8628C53.4884 30.2962 52.6798 30.7875 52.16 31.3654C51.6401 31.9433 51.5535 32.579 51.8712 33.3014C52.1022 33.3014 52.3332 33.3303 52.5643 33.3591C52.5643 33.128 52.5643 32.9546 52.6798 32.8679C52.7375 32.8101 52.8531 32.7812 52.9686 32.8101C53.0552 32.8101 53.1996 32.839 53.3729 32.8679C53.7483 32.9257 54.2682 33.0124 54.788 33.128C54.9035 33.128 54.9901 33.2147 55.0479 33.3014C55.1345 33.4458 55.1057 33.6481 55.0479 33.8504C55.6833 34.0526 56.7807 34.4572 57.5893 35.064C57.5893 35.064 57.6759 35.0062 57.7048 34.9773C57.7626 34.8906 57.8492 34.8039 57.9647 34.8039C57.9936 34.8039 58.0514 34.8039 58.1091 34.8617C58.1958 34.9484 58.3113 35.0351 58.3979 35.0929C58.8022 35.4396 59.1777 35.7575 59.4953 36.2776C59.5531 36.3932 59.4953 36.5376 59.4087 36.6243C59.4087 36.6532 59.3509 36.711 59.3509 36.7399C60.1018 37.4623 60.7083 39.5428 60.4772 40.6119C60.044 42.519 59.6975 43.6748 59.4087 44.6284C59.1488 45.4663 58.9466 46.1598 58.7734 47.0267C58.4557 48.9338 58.1958 49.1649 57.3005 50.0607L57.0406 50.3208C56.7229 50.6386 56.5208 50.9565 56.3186 51.3032C56.1164 51.6499 55.8854 51.9967 55.5389 52.3723C54.4703 53.4993 53.1707 54.0483 51.5824 54.0483M34.659 39.9473C37.5181 39.9473 39.9151 41.2187 41.8789 43.7904C42.2543 44.2527 42.7164 45.004 43.2362 45.7842C43.8716 46.7666 44.5358 47.778 44.9979 48.2981V48.3848C44.9401 50.6097 45.7198 52.0256 47.3371 52.748C50.9181 54.3372 53.5751 54.1638 55.4233 52.199C55.741 51.8522 55.972 51.5055 56.1742 51.1587C56.4052 50.812 56.6074 50.4652 56.9251 50.1474L57.185 49.8873C58.0802 48.9916 58.2824 48.7893 58.6001 46.9689C58.7445 46.0731 58.9755 45.3796 59.2354 44.5417C59.5242 43.617 59.8997 42.4612 60.304 40.5541C60.535 39.5428 59.9285 37.5201 59.2065 36.8555C59.091 36.7399 59.2065 36.5954 59.2643 36.4799C59.2932 36.451 59.3509 36.3643 59.3509 36.3354C59.0621 35.8442 58.6867 35.5552 58.3113 35.2085C58.2246 35.1218 58.138 35.0351 58.0225 34.9773C58.0225 34.9773 57.9647 35.0351 57.9358 35.064C57.8492 35.1507 57.7048 35.324 57.5315 35.2085C56.694 34.5728 55.5389 34.1682 54.9613 33.9949H54.8457L54.8746 33.8504C54.9324 33.6481 54.9901 33.4458 54.9324 33.3591C54.9324 33.3591 54.9324 33.3014 54.8169 33.3014C54.297 33.1858 53.7772 33.0991 53.4018 33.0413C53.2285 33.0413 53.0841 32.9835 52.9975 32.9835C52.9397 32.9835 52.9108 32.9835 52.8819 32.9835C52.8242 33.0124 52.8242 33.2436 52.8531 33.4169V33.5325H52.7375C52.4488 33.5325 52.16 33.4747 51.8423 33.4747H51.7845V33.4169C51.4091 32.6079 51.4957 31.8566 52.0733 31.192C52.5932 30.5852 53.4595 30.094 54.7014 29.6317C58.1669 28.3603 60.7083 27.2622 62.5566 25.8175C63.6829 24.9217 63.9428 23.5347 64.2027 22.061L64.2893 21.6276L65.1268 21.3387C66.6574 20.8185 67.1773 20.6452 68.1592 20.0384C68.2458 19.9806 68.2458 19.9806 68.2458 19.9806C68.2458 19.9806 68.188 19.9517 68.1303 19.9228C67.957 19.7783 67.6682 19.5471 67.7837 19.0848C67.8704 18.7381 68.2458 18.4491 68.5346 18.2469C68.6501 18.1602 68.7945 18.0446 68.8234 18.0157C68.8523 17.4667 67.8126 16.6287 66.8885 15.8774C66.1376 15.2706 65.4445 14.7216 65.1846 14.2593C64.607 11.1386 60.535 8.5958 55.4811 8.16236C54.7591 8.10457 54.0082 8.07567 53.2863 8.13346C51.4669 8.13346 48.8966 8.39352 47.0772 9.69382C45.3733 10.8785 44.5358 12.6123 44.6224 14.6638V14.7505L44.478 14.7794C41.7345 15.4151 36.0164 16.7154 32.5797 10.0406V9.98277C32.6375 9.20259 32.6663 8.24904 32.6952 7.67114C32.6952 6.86207 32.0599 5.61957 31.5112 5.24393C31.2801 5.07055 31.1068 5.12834 30.8469 5.18614C30.6159 5.24393 30.3849 5.30172 30.0672 5.18614C29.8939 5.12834 29.7495 5.04166 29.5762 4.98387C29.0853 4.75271 28.6232 4.57933 27.4969 4.37706C27.1215 4.31927 27.1215 3.97253 27.1215 3.77026C27.1215 3.5391 27.1215 3.48131 27.006 3.45241C26.3417 3.33683 25.1866 3.25014 24.9844 3.33683C24.8689 3.36572 24.8689 3.45241 24.8978 3.65468C24.8978 3.77026 24.9555 3.94363 24.8689 4.03032C24.8111 4.08811 24.7245 4.1459 24.609 4.1459C23.1072 4.29038 22.1253 4.55044 21.1434 4.89718C20.9413 4.98387 20.768 4.89718 20.6525 4.7816C20.5081 4.69491 20.3926 4.60823 20.2482 4.63712C19.9016 4.69491 19.4396 5.07055 19.1219 5.33061C19.0352 5.4173 18.9486 5.47509 18.862 5.53288C18.7753 5.59067 18.8042 5.70625 18.862 5.90852C18.9197 6.11079 18.9486 6.31305 18.8042 6.48643C18.4576 6.86207 18.1689 7.2955 17.9956 7.72893C17.6201 8.65358 17.8512 9.98277 18.0245 11.1386C18.1111 11.6009 18.1689 12.0343 18.1977 12.3811C18.3999 15.5018 19.2374 16.7732 19.8727 17.6978C20.3059 18.3335 20.6236 18.8537 20.5658 19.6627V19.7783H20.4503C12.5374 18.7381 6.87699 21.7721 4.24896 24.9506C2.40068 27.1466 1.76533 29.6605 2.48732 31.8566C3.29594 34.3994 3.75801 36.0464 4.10457 37.26C4.48 38.6181 4.71104 39.4272 5.11535 40.2652C6.03949 42.2012 6.81924 42.7213 7.45458 43.1258C7.7145 43.2992 7.94553 43.4436 8.17657 43.6748C10.2848 46.0442 12.624 47.3156 15.1654 47.4312C16.5805 47.489 17.8512 47.5179 19.2663 47.2578C22.8184 46.5644 25.7064 44.7439 27.006 42.3456V42.3167C29.8362 40.7564 32.3487 39.9762 34.5724 39.9762" fill="#C7E7DC"/>
  <path d="M51.669 54.0483C50.3983 54.0483 48.9255 53.6726 47.2793 52.9502C45.5754 52.199 44.7668 50.6964 44.8246 48.4137C44.3625 47.8647 43.6983 46.8533 43.0629 45.8998C42.5431 45.1196 42.081 44.3972 41.7056 43.9349C38.2689 39.485 33.5038 39.0226 27.2081 42.4901C25.8797 44.9173 22.934 46.7666 19.324 47.489C17.8801 47.778 16.5805 47.7491 15.1654 47.6624C12.5662 47.5468 10.1693 46.2465 8.00329 43.8193C7.80114 43.617 7.59898 43.4725 7.33907 43.2992C6.70372 42.8657 5.89509 42.3456 4.91319 40.3518C4.50888 39.485 4.27784 38.6759 3.90241 37.3178C3.55586 36.1042 3.12267 34.4572 2.28516 31.9144C1.56318 29.6605 2.2274 27.06 4.10457 24.8061C6.79036 21.5987 12.4507 18.5358 20.3926 19.5471C20.3926 18.8537 20.1327 18.4202 19.7283 17.8134C19.093 16.8599 18.2555 15.5596 18.0245 12.41C18.0245 12.0632 17.9378 11.6298 17.8512 11.1675C17.649 9.98277 17.418 8.62469 17.8223 7.64225C18.0245 7.17992 18.2844 6.71759 18.6598 6.31305C18.7176 6.22637 18.7176 6.11079 18.6598 5.93742C18.602 5.73515 18.5443 5.47509 18.7753 5.33061C18.8331 5.27282 18.9197 5.21503 19.0064 5.12834C19.3529 4.83939 19.815 4.43485 20.2482 4.37706C20.4792 4.34817 20.6814 4.46375 20.7969 4.55043C20.9413 4.63712 21.0279 4.69491 21.1146 4.63712C22.1253 4.26148 23.1072 4.00142 24.6379 3.85694C24.6956 3.85694 24.7245 3.85694 24.7534 3.82805C24.7534 3.79915 24.7534 3.68357 24.7534 3.59688C24.7534 3.42351 24.6956 3.16346 24.9555 3.04788C25.2443 2.93229 26.515 3.04787 27.0926 3.16345C27.4103 3.22125 27.3814 3.48131 27.3814 3.68357C27.3814 3.94363 27.3814 4.03032 27.5547 4.08811C28.7387 4.29037 29.1719 4.49265 29.6918 4.72381C29.8362 4.7816 29.9805 4.83939 30.1538 4.92608C30.3849 5.01276 30.587 4.98387 30.7892 4.92608C31.0491 4.86829 31.309 4.81049 31.6267 5.04165C32.2043 5.44619 32.9263 6.77538 32.8974 7.64225C32.8974 8.22015 32.8396 9.1737 32.7819 9.95388C36.103 16.3976 41.6478 15.1839 44.3625 14.5482C44.3048 12.4389 45.1711 10.6763 46.9039 9.46266C48.7811 8.13347 51.3802 7.8734 53.2574 7.8734C53.9794 7.84451 54.7302 7.87341 55.4811 7.9023C60.6216 8.33574 64.7514 10.9363 65.3579 14.1148C65.6178 14.5482 66.3109 15.0973 67.004 15.6463C68.0725 16.4842 69.0833 17.2933 69.0256 17.9579C69.0256 18.0735 68.8812 18.1891 68.6501 18.3624C68.3902 18.5358 68.0437 18.7959 67.9859 19.0848C67.8993 19.4316 68.1014 19.576 68.2458 19.7205C68.3325 19.8072 68.448 19.865 68.4191 19.9806C68.4191 20.0962 68.3036 20.154 68.2169 20.2117C67.1773 20.8185 66.6574 21.0208 65.1268 21.5409L64.4048 21.801L64.3471 22.1188C64.0583 23.6214 63.7984 25.0662 62.6143 25.9908C60.7372 27.4645 58.1958 28.5625 54.7014 29.8628C53.4884 30.2962 52.6798 30.7875 52.16 31.3654C51.6401 31.9433 51.5535 32.579 51.8712 33.3014C52.1022 33.3014 52.3332 33.3303 52.5643 33.3592C52.5643 33.128 52.5643 32.9546 52.6798 32.8679C52.7375 32.8101 52.8531 32.7812 52.9686 32.8101C53.0552 32.8101 53.1996 32.839 53.3729 32.8679C53.7483 32.9257 54.2682 33.0124 54.788 33.128C54.9035 33.128 54.9901 33.2147 55.0479 33.3014C55.1345 33.4458 55.1057 33.6481 55.0479 33.8504C55.6833 34.0526 56.7807 34.4572 57.5893 35.064C57.5893 35.064 57.6759 35.0062 57.7048 34.9773C57.7626 34.8906 57.8492 34.8039 57.9647 34.8039C57.9936 34.8039 58.0514 34.8039 58.1091 34.8617C58.1958 34.9484 58.3113 35.0351 58.3979 35.0929C58.8022 35.4396 59.1777 35.7575 59.4953 36.2776C59.5531 36.3932 59.4953 36.5376 59.4087 36.6243C59.4087 36.6532 59.3509 36.711 59.3509 36.7399C60.1018 37.4623 60.7083 39.5428 60.4772 40.6119C60.044 42.519 59.6975 43.6748 59.4087 44.6284C59.1488 45.4663 58.9466 46.1598 58.7734 47.0267C58.4557 48.9338 58.1958 49.1649 57.3005 50.0607L57.0406 50.3208C56.7229 50.6386 56.5208 50.9565 56.3186 51.3032C56.1164 51.6499 55.8854 51.9967 55.5389 52.3723C54.4703 53.4993 53.1707 54.0483 51.5824 54.0483M34.659 39.9473C37.5181 39.9473 39.9151 41.2187 41.8789 43.7904C42.2543 44.2527 42.7164 45.004 43.2362 45.7842C43.8716 46.7666 44.5358 47.778 44.9979 48.2981V48.3848C44.9401 50.6097 45.7198 52.0256 47.3371 52.748C50.9181 54.3372 53.5751 54.1638 55.4233 52.199C55.741 51.8522 55.972 51.5055 56.1742 51.1587C56.4052 50.812 56.6074 50.4652 56.9251 50.1474L57.185 49.8873C58.0802 48.9916 58.2824 48.7893 58.6001 46.9689C58.7445 46.0731 58.9755 45.3796 59.2354 44.5417C59.5242 43.617 59.8997 42.4612 60.304 40.5541C60.535 39.5428 59.9285 37.5201 59.2065 36.8555C59.091 36.7399 59.2065 36.5954 59.2643 36.4799C59.2932 36.451 59.3509 36.3643 59.3509 36.3354C59.0621 35.8442 58.6867 35.5552 58.3113 35.2085C58.2246 35.1218 58.138 35.0351 58.0225 34.9773C58.0225 34.9773 57.9647 35.0351 57.9358 35.064C57.8492 35.1507 57.7048 35.324 57.5315 35.2085C56.694 34.5728 55.5389 34.1682 54.9613 33.9949H54.8457L54.8746 33.8504C54.9324 33.6481 54.9901 33.4458 54.9324 33.3592C54.9324 33.3592 54.9324 33.3014 54.8169 33.3014C54.297 33.1858 53.7772 33.0991 53.4018 33.0413C53.2285 33.0413 53.0841 32.9835 52.9975 32.9835C52.9397 32.9835 52.9108 32.9835 52.8819 32.9835C52.8242 33.0124 52.8242 33.2436 52.8531 33.4169V33.5325H52.7375C52.4488 33.5325 52.16 33.4747 51.8423 33.4747H51.7845V33.4169C51.4091 32.6079 51.4957 31.8566 52.0733 31.192C52.5932 30.5852 53.4595 30.094 54.7014 29.6317C58.1669 28.3603 60.7083 27.2622 62.5566 25.8175C63.6829 24.9217 63.9428 23.5347 64.2027 22.061L64.2893 21.6276L65.1268 21.3387C66.6574 20.8185 67.1773 20.6452 68.1592 20.0384C68.2458 19.9806 68.2458 19.9806 68.2458 19.9806C68.2458 19.9806 68.1881 19.9517 68.1303 19.9228C67.957 19.7783 67.6682 19.5471 67.7837 19.0848C67.8704 18.7381 68.2458 18.4491 68.5346 18.2469C68.6501 18.1602 68.7945 18.0446 68.8234 18.0157C68.8523 17.4667 67.8126 16.6287 66.8885 15.8774C66.1376 15.2706 65.4445 14.7216 65.1846 14.2593C64.607 11.1386 60.535 8.5958 55.4811 8.16236C54.7591 8.10457 54.0082 8.07567 53.2863 8.13346C51.4669 8.13346 48.8966 8.39352 47.0772 9.69382C45.3733 10.8785 44.5358 12.6123 44.6224 14.6638V14.7505L44.478 14.7794C41.7345 15.4151 36.0164 16.7154 32.5797 10.0406V9.98277C32.6375 9.20259 32.6663 8.24904 32.6952 7.67114C32.6952 6.86207 32.0599 5.61957 31.5112 5.24393C31.2801 5.07055 31.1068 5.12834 30.8469 5.18614C30.6159 5.24393 30.3849 5.30172 30.0672 5.18614C29.8939 5.12834 29.7495 5.04166 29.5762 4.98387C29.0853 4.75271 28.6232 4.57933 27.4969 4.37706C27.1215 4.31927 27.1215 3.97253 27.1215 3.77026C27.1215 3.5391 27.1215 3.48131 27.006 3.45241C26.3417 3.33683 25.1866 3.25014 24.9844 3.33683C24.8689 3.36572 24.8689 3.45241 24.8978 3.65468C24.8978 3.77026 24.9555 3.94363 24.8689 4.03032C24.8111 4.08811 24.7245 4.1459 24.609 4.1459C23.1072 4.29038 22.1253 4.55044 21.1434 4.89718C20.9413 4.98387 20.768 4.89718 20.6525 4.7816C20.5081 4.69491 20.3926 4.60823 20.2482 4.63712C19.9016 4.69491 19.4395 5.07055 19.1219 5.33061C19.0352 5.4173 18.9486 5.47509 18.862 5.53288C18.7753 5.59067 18.8042 5.70625 18.862 5.90852C18.9197 6.11079 18.9486 6.31305 18.8042 6.48643C18.4576 6.86207 18.1689 7.2955 17.9956 7.72893C17.6201 8.65358 17.8512 9.98277 18.0245 11.1386C18.1111 11.6009 18.1689 12.0343 18.1977 12.3811C18.3999 15.5018 19.2374 16.7732 19.8727 17.6978C20.3059 18.3335 20.6236 18.8537 20.5658 19.6627V19.7783H20.4503C12.5374 18.7381 6.87699 21.7721 4.24896 24.9506C2.40068 27.1466 1.76533 29.6605 2.48732 31.8566C3.29594 34.3994 3.75801 36.0464 4.10457 37.26C4.48 38.6181 4.71104 39.4272 5.11535 40.2652C6.03949 42.2012 6.81924 42.7213 7.45458 43.1258C7.7145 43.2992 7.94553 43.4436 8.17657 43.6748C10.2848 46.0442 12.624 47.3156 15.1654 47.4312C16.5805 47.489 17.8512 47.5179 19.2663 47.2578C22.8184 46.5644 25.7064 44.7439 27.006 42.3456V42.3167C29.8362 40.7564 32.3487 39.9762 34.5724 39.9762" stroke="#C7E7DC"/>
  <path d="M55.6839 19.6629C55.2796 19.6629 54.8464 19.6629 54.4132 19.6051C52.0451 19.4028 49.8503 18.6804 48.2619 17.5535C46.6447 16.4266 45.8072 15.0107 45.9516 13.5948C46.0671 12.179 47.1067 10.9076 48.8973 10.0696C50.6589 9.23163 52.9404 8.85598 55.3085 9.05825C57.6766 9.26052 59.8714 9.98291 61.4598 11.1098C63.0771 12.2368 63.8857 13.6526 63.7702 15.0685C63.6547 16.4844 62.615 17.7558 60.8245 18.5937C59.3805 19.2872 57.59 19.6629 55.6839 19.6629ZM54.0089 9.20273C52.1318 9.20273 50.3701 9.54947 48.955 10.243C47.2511 11.052 46.2403 12.2656 46.1248 13.5948C46.0093 14.924 46.8179 16.2821 48.3485 17.3801C49.908 18.4782 52.074 19.2005 54.3844 19.4028C56.7236 19.6051 58.9473 19.2583 60.6801 18.4204C62.384 17.6113 63.3947 16.3977 63.5103 15.0685C63.6258 13.7393 62.8172 12.3812 61.2865 11.2832C59.727 10.1852 57.5611 9.46278 55.2507 9.26051C54.8175 9.23162 54.4132 9.20273 54.0089 9.20273Z" fill="#C7E7DC" stroke="#C7E7DC"/>
  <path d="M55.6553 19.6627C55.251 19.6627 54.8178 19.6627 54.4135 19.6049C51.41 19.3449 48.6954 18.2469 47.1648 16.6287L47.0781 16.542L47.1648 16.4553C48.9553 15.1261 51.7855 14.4616 54.7889 14.7216C57.7924 14.9817 60.5071 16.0797 62.0377 17.6978L62.1243 17.7845L62.0377 17.8712C60.5071 19.027 58.1967 19.6627 55.6553 19.6627ZM47.3958 16.5709C48.8975 18.1024 51.5256 19.1426 54.4135 19.4027C57.3014 19.6338 60.045 19.027 61.8066 17.7845C60.3049 16.2531 57.6769 15.2128 54.7889 14.9528C51.901 14.7216 49.1574 15.3284 47.3958 16.5709Z" fill="#C7E7DC" stroke="#C7E7DC"/>
  <path d="M55.9431 20.8477C55.481 20.8477 54.99 20.8477 54.4991 20.7899C48.7232 20.2987 44.2469 17.0335 44.5357 13.4794H44.7667C44.4779 16.9468 48.8676 20.1253 54.528 20.5876C57.2715 20.8188 59.9284 20.3854 61.95 19.3451C63.9716 18.3338 65.1556 16.8601 65.3 15.2131C65.3 14.9819 65.3 14.4618 65.2422 14.1729H65.4444C65.5022 14.404 65.531 14.953 65.5022 15.242C65.3578 16.9757 64.1159 18.5072 62.0366 19.5474C60.3327 20.4143 58.1957 20.8766 55.9142 20.8766" fill="#C7E7DC"/>
  <path d="M55.9431 20.8477C55.481 20.8477 54.99 20.8477 54.4991 20.7899C48.7232 20.2987 44.2469 17.0335 44.5357 13.4794H44.7667C44.4779 16.9468 48.8676 20.1253 54.528 20.5876C57.2715 20.8188 59.9284 20.3854 61.95 19.3451C63.9716 18.3338 65.1556 16.8601 65.3 15.2131C65.3 14.9819 65.3 14.4618 65.2422 14.1729H65.4444C65.5022 14.404 65.531 14.953 65.5022 15.242C65.3578 16.9757 64.1159 18.5072 62.0366 19.5474C60.3327 20.4143 58.1957 20.8766 55.9142 20.8766" stroke="#C7E7DC"/>
  <path d="M64.5205 21.7432L64.3184 21.6855L65.3003 15.2996L65.5024 15.3285L64.5205 21.7432Z" fill="#C7E7DC" stroke="#C7E7DC"/>
  <path d="M68.583 17.0221L64.7002 19.3647L64.8195 19.5627L68.7023 17.2201L68.583 17.0221Z" fill="#C7E7DC" stroke="#C7E7DC"/>
  <path d="M45.0273 45.3798L44.7385 44.7441C42.948 40.8721 40.291 38.5027 36.8833 37.6936C31.8871 36.5089 26.3134 39.0228 23.8009 41.0166L22.2703 42.2302L23.6565 40.8432C24.3785 40.1208 25.216 39.4851 26.0246 38.8783C26.9776 38.156 27.9306 37.4047 28.7104 36.5667C30.472 34.6307 30.9341 31.4522 29.9522 28.0137C29.1436 25.153 27.1509 22.6969 23.8586 20.472H23.8009V20.3564C23.8298 20.1252 24.0319 18.1314 21.7793 15.5598L20.9707 14.6351L21.9237 15.3864C25.0427 17.8714 27.7863 17.2646 29.1436 16.6578C31.2807 15.7331 32.5225 13.9416 32.638 12.6991V12.2079L32.8402 12.6702C33.591 14.7507 35.3815 15.7909 36.7389 16.3399C39.2225 17.2935 42.3415 17.2646 44.3631 16.2243L44.5363 16.1377V16.3399C43.7277 22.1768 47.02 25.0374 50.3411 25.7887C51.9006 26.1355 53.3157 25.8176 54.6441 25.4998C54.9329 25.442 55.1928 25.3842 55.4816 25.3264L55.5394 25.5287C52.9402 26.1355 51.2075 27.2046 50.3122 28.7072C49.3881 30.2675 49.6191 32.0301 49.9657 33.2148V33.3593H49.879C49.879 33.3593 49.7924 33.446 49.7635 33.4749C49.7057 33.5616 49.6191 33.6483 49.5325 33.6194C49.5325 33.6194 49.4458 33.6194 49.417 33.5327C49.417 33.5327 49.2437 33.2149 49.157 33.2437C49.0704 33.2726 48.9838 33.3015 48.8682 33.3304C48.4351 33.4749 47.9441 33.6483 47.7419 33.8216C47.6842 33.8794 47.6842 33.995 47.6842 34.1106C47.6842 34.284 47.6842 34.4862 47.5109 34.6018C47.1355 34.8619 46.6156 35.6132 46.2113 36.1622C46.0958 36.3067 46.0092 36.4511 45.9225 36.5667C45.8937 36.5956 45.8359 36.6245 45.807 36.6245C45.7493 36.6245 45.6915 36.5667 45.6626 36.5089C45.3161 36.9712 45.2583 37.3469 45.1428 38.0115V38.1849C44.9695 39.1095 44.9406 39.3985 44.9406 40.0342C44.9406 40.4098 44.9118 40.8432 44.854 41.5945C44.7962 42.6925 44.7962 43.5883 44.9406 44.5996L45.0273 45.2931V45.3798ZM34.1686 37.1446C35.0927 37.1446 36.0169 37.2313 36.9122 37.4625C40.2333 38.2427 42.8324 40.4676 44.6518 44.0795C44.5941 43.2994 44.5941 42.5481 44.6518 41.6812C44.7096 40.9588 44.7096 40.4965 44.7385 40.1497C44.7385 39.4852 44.7674 39.1962 44.9406 38.2715V38.0982C45.085 37.4047 45.1428 36.9713 45.6049 36.3933V36.3356H45.7204C45.7781 36.3356 45.8359 36.3933 45.8648 36.4511C45.9225 36.3644 46.0092 36.2489 46.0958 36.1333C46.5001 35.5554 47.0488 34.833 47.4243 34.544C47.482 34.4862 47.482 34.3707 47.482 34.2262C47.482 34.0528 47.482 33.8794 47.6264 33.7639C47.8863 33.5616 48.3773 33.3882 48.8394 33.2148C48.926 33.186 49.0415 33.1571 49.1282 33.1282C49.3303 33.0704 49.5036 33.2726 49.6191 33.446C49.6191 33.446 49.6191 33.446 49.648 33.4171C49.7057 33.3593 49.7346 33.3015 49.7924 33.2726C49.4458 32.0301 49.2437 30.2675 50.1967 28.6783C50.832 27.5802 51.9295 26.7134 53.4312 26.0777C52.4782 26.2511 51.4674 26.3089 50.37 26.0777C46.9911 25.3264 43.6699 22.4658 44.3631 16.6C42.3126 17.5824 39.2225 17.5824 36.7389 16.6C35.4104 16.0799 33.7065 15.0685 32.869 13.1614C32.5514 14.4328 31.3095 16.051 29.3169 16.9178C28.0173 17.4669 25.4759 18.0737 22.5591 16.1088C24.1763 18.247 24.1186 19.9519 24.0897 20.3564C27.3819 22.5813 29.3746 25.0952 30.2121 27.9848C31.2229 31.4811 30.732 34.7463 28.9414 36.7401C28.1617 37.607 27.1798 38.3582 26.2268 39.0806C25.9091 39.3407 25.5625 39.5718 25.2449 39.8319C27.5263 38.4738 30.8764 37.1735 34.2552 37.1735" fill="#C7E7DC"/>
  <path d="M34.1686 37.1446C35.0927 37.1446 36.0169 37.2313 36.9122 37.4625C40.2333 38.2427 42.8324 40.4676 44.6518 44.0795C44.5941 43.2994 44.5941 42.5481 44.6518 41.6812C44.7096 40.9588 44.7096 40.4965 44.7385 40.1497C44.7385 39.4852 44.7674 39.1962 44.9406 38.2715V38.0982C45.085 37.4047 45.1428 36.9713 45.6049 36.3933V36.3356H45.7204C45.7781 36.3356 45.8359 36.3933 45.8648 36.4511C45.9225 36.3644 46.0092 36.2489 46.0958 36.1333C46.5001 35.5554 47.0488 34.833 47.4243 34.544C47.482 34.4862 47.482 34.3707 47.482 34.2262C47.482 34.0528 47.482 33.8794 47.6264 33.7639C47.8863 33.5616 48.3773 33.3882 48.8394 33.2148C48.926 33.186 49.0415 33.1571 49.1282 33.1282C49.3303 33.0704 49.5036 33.2726 49.6191 33.446C49.6191 33.446 49.6191 33.446 49.648 33.4171C49.7057 33.3593 49.7346 33.3015 49.7924 33.2726C49.4458 32.0301 49.2437 30.2675 50.1967 28.6783C50.832 27.5802 51.9295 26.7134 53.4312 26.0777C52.4782 26.2511 51.4674 26.3089 50.37 26.0777C46.9911 25.3264 43.6699 22.4658 44.3631 16.6C42.3126 17.5824 39.2225 17.5824 36.7389 16.6C35.4104 16.0799 33.7065 15.0685 32.869 13.1614C32.5514 14.4328 31.3095 16.051 29.3169 16.9178C28.0173 17.4669 25.4759 18.0737 22.5591 16.1088C24.1763 18.247 24.1186 19.9519 24.0897 20.3564C27.3819 22.5813 29.3746 25.0952 30.2121 27.9848C31.2229 31.4811 30.732 34.7463 28.9414 36.7401C28.1617 37.607 27.1798 38.3582 26.2268 39.0806C25.9091 39.3407 25.5625 39.5718 25.2449 39.8319C27.5263 38.4738 30.8764 37.1735 34.2552 37.1735M45.0273 45.3798L44.7385 44.7441C42.948 40.8721 40.2911 38.5027 36.8833 37.6936C31.8871 36.5089 26.3134 39.0228 23.8009 41.0166L22.2703 42.2302L23.6565 40.8432C24.3785 40.1208 25.216 39.4851 26.0246 38.8783C26.9776 38.156 27.9306 37.4047 28.7104 36.5667C30.472 34.6307 30.9341 31.4522 29.9522 28.0137C29.1436 25.153 27.1509 22.6969 23.8586 20.472H23.8009V20.3564C23.8298 20.1252 24.0319 18.1314 21.7793 15.5598L20.9707 14.6351L21.9237 15.3864C25.0427 17.8714 27.7863 17.2646 29.1436 16.6578C31.2807 15.7331 32.5225 13.9416 32.638 12.6991V12.2079L32.8402 12.6702C33.591 14.7507 35.3815 15.7909 36.7389 16.3399C39.2225 17.2935 42.3415 17.2646 44.3631 16.2243L44.5363 16.1377V16.3399C43.7277 22.1768 47.02 25.0374 50.3411 25.7887C51.9006 26.1355 53.3157 25.8176 54.6441 25.4998C54.9329 25.442 55.1928 25.3842 55.4816 25.3264L55.5394 25.5287C52.9402 26.1355 51.2075 27.2046 50.3122 28.7072C49.3881 30.2675 49.6191 32.0301 49.9657 33.2148V33.3593H49.879C49.879 33.3593 49.7924 33.446 49.7635 33.4749C49.7057 33.5616 49.6191 33.6483 49.5325 33.6194C49.5325 33.6194 49.4458 33.6194 49.417 33.5327C49.417 33.5327 49.2437 33.2149 49.157 33.2437C49.0704 33.2726 48.9838 33.3015 48.8682 33.3304C48.4351 33.4749 47.9441 33.6483 47.7419 33.8216C47.6842 33.8794 47.6842 33.995 47.6842 34.1106C47.6842 34.284 47.6842 34.4862 47.5109 34.6018C47.1355 34.8619 46.6156 35.6132 46.2113 36.1622C46.0958 36.3067 46.0092 36.4511 45.9225 36.5667C45.8937 36.5956 45.8359 36.6245 45.807 36.6245C45.7493 36.6245 45.6915 36.5667 45.6626 36.5089C45.3161 36.9712 45.2583 37.3469 45.1428 38.0115V38.1849C44.9695 39.1095 44.9406 39.3985 44.9406 40.0342C44.9406 40.4098 44.9118 40.8432 44.854 41.5945C44.7962 42.6925 44.7962 43.5883 44.9406 44.5996L45.0273 45.2931V45.3798Z" stroke="#C7E7DC"/>
  <path d="M51.872 33.3016C51.6987 33.3016 51.6698 33.2149 51.641 33.1572C51.641 33.1572 51.641 33.0994 51.6121 33.0994C51.0922 32.2903 51.1211 31.4234 51.2366 30.6433C51.2944 30.2098 51.4099 29.8342 51.5543 29.4874C52.1319 28.216 53.8647 27.0313 55.1354 26.2801C56.1461 25.6733 56.9259 25.3554 57.9367 25.0376C57.1569 25.2109 56.4061 25.3843 55.5108 25.6444L55.453 25.4421C57.0125 25.0087 58.1099 24.7775 59.6117 24.4596L61.7488 23.9973L59.9871 24.6041C59.525 24.7775 59.1207 24.8931 58.7164 25.0086C57.3591 25.4421 56.4349 25.7599 55.2509 26.4823C54.0091 27.2336 52.2763 28.3894 51.7565 29.603C51.6121 29.9209 51.4966 30.2965 51.4388 30.701C51.3233 31.4523 51.2944 32.2614 51.7854 33.0127C51.8142 33.0705 51.8142 33.0994 51.8431 33.1283V33.3594L51.872 33.3016Z" fill="#C7E7DC" stroke="#C7E7DC"/>
  <path d="M32.8385 12.7858H32.6074C32.6074 12.7858 32.6074 12.4102 32.6074 12.0634C32.6074 11.5144 32.6074 10.792 32.6074 9.92517H32.8385C32.8385 10.792 32.8385 11.5144 32.8385 12.0634C32.8385 12.4391 32.8385 12.6991 32.8385 12.7858Z" fill="#C7E7DC" stroke="#C7E7DC"/>
  <path d="M40.8395 16.1086C40.1463 16.1086 39.4532 16.0508 38.7313 15.9063C36.3631 15.4151 33.5041 13.9414 32.6377 11.283L32.8399 11.2252C33.6774 13.7969 36.4498 15.2417 38.7601 15.704C40.9261 16.1374 43.0343 15.8774 44.4494 15.0105L44.5649 15.1839C43.583 15.7907 42.2546 16.1086 40.8106 16.1086" fill="#C7E7DC"/>
  <path d="M40.8395 16.1086C40.1463 16.1086 39.4532 16.0508 38.7313 15.9063C36.3631 15.4151 33.5041 13.9414 32.6377 11.283L32.8399 11.2252C33.6774 13.7969 36.4498 15.2417 38.7601 15.704C40.9261 16.1374 43.0343 15.8774 44.4494 15.0105L44.5649 15.1839C43.583 15.7907 42.2546 16.1086 40.8106 16.1086" stroke="#C7E7DC"/>
  <path d="M44.5367 16.3977H44.3057L44.4789 14.6062H44.6811L44.5367 16.3977Z" fill="#C7E7DC" stroke="#C7E7DC"/>
  <path d="M23.8881 20.501C23.0795 20.212 20.798 19.7786 20.5381 19.7497V19.5186C20.8558 19.5186 23.1372 19.9809 23.9747 20.2987L23.8881 20.501Z" fill="#C7E7DC" stroke="#C7E7DC"/>
  <path d="M22.1257 19.9228H21.9235C22.299 17.7845 19.9886 13.9992 18.2559 13.2479L18.3425 13.0457C20.1908 13.8547 22.5589 17.6978 22.1546 19.9228" fill="#C7E7DC"/>
  <path d="M22.1257 19.9228H21.9235C22.299 17.7845 19.9886 13.9992 18.2559 13.2479L18.3425 13.0457C20.1908 13.8547 22.5589 17.6978 22.1546 19.9228" stroke="#C7E7DC"/>
  <path d="M21.8369 15.6462C20.5951 14.4615 19.9597 13.9992 18.2559 13.2479L18.3425 13.0457C20.0464 13.7969 20.7684 14.317 21.9813 15.5018L21.8369 15.6462Z" fill="#C7E7DC" stroke="#C7E7DC"/>
  <path d="M16.9567 46.0731C15.5127 46.0731 13.9821 45.9287 12.567 45.6397C10.3144 45.1774 8.26398 44.0505 7.54199 43.3859L7.68639 43.2125C8.40838 43.8482 10.4011 44.9751 12.6248 45.4086C14.7619 45.842 17.3032 45.9576 19.2093 45.6975C20.1623 45.553 21.3752 45.2063 22.7903 44.5995C23.5701 44.2816 26.1404 43.1258 27.1223 42.2878L27.2667 42.4612C26.2848 43.2992 23.8589 44.3683 22.877 44.8018C21.433 45.4086 20.2201 45.7842 19.2382 45.9287C18.5451 46.0154 17.7653 46.0731 16.9567 46.0731Z" fill="#C7E7DC" stroke="#C7E7DC"/>
  <path d="M14.0964 38.5893C8.58045 38.5893 4.10414 35.5264 2.45801 32.3768L2.66016 32.2612C4.24853 35.353 8.66709 38.3582 14.0964 38.3582C14.2986 38.3582 14.5007 38.3582 14.7029 38.3582C21.8072 38.0692 28.8827 33.3015 29.287 28.5337C29.3736 27.4935 29.0271 26.1354 28.334 24.7484L28.5361 24.6617C29.056 25.6731 29.6336 27.1756 29.518 28.5626C29.1137 33.417 21.9228 38.3004 14.7318 38.5893C14.5296 38.5893 14.3275 38.5893 14.1253 38.5893" fill="#C7E7DC"/>
  <path d="M14.0964 38.5893C8.58045 38.5893 4.10414 35.5264 2.45801 32.3768L2.66016 32.2612C4.24853 35.353 8.66709 38.3582 14.0964 38.3582C14.2986 38.3582 14.5007 38.3582 14.7029 38.3582C21.8072 38.0692 28.8827 33.3015 29.287 28.5337C29.3736 27.4935 29.0271 26.1354 28.334 24.7484L28.5361 24.6617C29.056 25.6731 29.6336 27.1756 29.518 28.5626C29.1137 33.417 21.9228 38.3004 14.7318 38.5893C14.5296 38.5893 14.3275 38.5893 14.1253 38.5893" stroke="#C7E7DC"/>
  <path d="M14.6746 36.3356C11.1224 36.3356 7.85901 35.2087 5.98184 33.2727C4.85554 32.1169 4.30683 30.7299 4.42235 29.2851C4.59563 27.0891 6.184 24.8641 8.78315 23.2171L16.3784 20.8188C19.9595 20.6165 23.2517 21.6856 25.1578 23.6505C26.3996 24.9219 26.9772 26.4534 26.8328 28.0715C26.6595 30.0075 25.591 31.8568 23.7427 33.3594H23.7138L15.5409 36.3067C15.2233 36.3067 14.9345 36.3067 14.6168 36.3067M8.92755 23.4482C6.41503 25.0664 4.85554 27.2046 4.68227 29.3429C4.56675 30.7299 5.08658 32.0302 6.15512 33.1571C8.11892 35.1798 11.7577 36.3356 15.5698 36.1333L23.6849 33.2438C25.4466 31.799 26.5151 30.0075 26.6595 28.1293C26.775 26.569 26.2263 25.0953 25.0423 23.8817C23.1651 21.9457 19.9595 20.9055 16.4362 21.1077L8.89867 23.4771L8.92755 23.4482Z" fill="#C7E7DC"/>
  <path d="M14.6746 36.3356C11.1224 36.3356 7.85901 35.2087 5.98184 33.2727C4.85554 32.1169 4.30683 30.7299 4.42235 29.2851C4.59563 27.0891 6.184 24.8641 8.78315 23.2171L16.3784 20.8188C19.9595 20.6165 23.2517 21.6856 25.1578 23.6505C26.3996 24.9219 26.9772 26.4534 26.8328 28.0715C26.6595 30.0075 25.591 31.8568 23.7427 33.3594H23.7138L15.5409 36.3067C15.2233 36.3067 14.9345 36.3067 14.6168 36.3067M8.92754 23.4482C6.41503 25.0664 4.85554 27.2046 4.68227 29.3429C4.56675 30.7299 5.08658 32.0302 6.15512 33.1571C8.11892 35.1798 11.7577 36.3356 15.5698 36.1333L23.6849 33.2438C25.4466 31.799 26.5151 30.0075 26.6595 28.1293C26.775 26.569 26.2263 25.0953 25.0423 23.8817C23.1651 21.9457 19.9595 20.9055 16.4362 21.1077L8.89867 23.4771L8.92754 23.4482Z" stroke="#C7E7DC"/>
  <path d="M14.6747 36.3357C11.1225 36.3357 7.85917 35.2088 6.01088 33.3017L5.95312 33.2439V33.1861C6.70399 31.6835 8.00357 30.2965 9.79409 29.1696L17.3605 26.7713C21.1437 26.569 24.5226 27.7248 26.3998 29.8631L26.4575 29.9209V29.9787C25.9377 31.2212 25.0136 32.4059 23.8006 33.3883H23.7717L15.5989 36.3357C15.2812 36.3357 14.9924 36.3357 14.6747 36.3357ZM6.21304 33.215C8.20572 35.2087 11.7868 36.3068 15.57 36.1045L23.6851 33.215C24.8403 32.2614 25.7067 31.1634 26.2265 29.9787C24.3782 27.9271 21.086 26.8291 17.4471 27.0025L9.90961 29.3719C8.20572 30.4699 6.93503 31.7991 6.24192 33.215" fill="#C7E7DC"/>
  <path d="M6.21304 33.215C8.20572 35.2087 11.7868 36.3068 15.57 36.1045L23.6851 33.215C24.8403 32.2614 25.7067 31.1634 26.2265 29.9787C24.3782 27.9271 21.086 26.8291 17.4471 27.0025L9.90961 29.3719C8.20572 30.4699 6.93503 31.7991 6.24192 33.215M14.6747 36.3357C11.1225 36.3357 7.85917 35.2088 6.01088 33.3017L5.95312 33.2439V33.1861C6.70399 31.6835 8.00357 30.2965 9.79409 29.1696L17.3605 26.7713C21.1437 26.569 24.5226 27.7248 26.3998 29.8631L26.4575 29.9209V29.9787C25.9377 31.2212 25.0136 32.4059 23.8006 33.3883H23.7717L15.5989 36.3357C15.2812 36.3357 14.9924 36.3357 14.6747 36.3357Z" stroke="#C7E7DC"/>
  <path d="M14.6751 36.3356C12.8269 36.3356 11.0363 36.0177 9.44797 35.4398H9.36133V35.2953C9.99668 32.9837 13.2312 30.8743 17.0144 30.2097C20.5666 29.6029 23.7144 30.412 24.8696 32.2324L24.9273 32.2902L24.8696 32.348C24.5519 32.6947 24.2054 33.0126 23.801 33.3304H23.7722L15.5993 36.2778C15.2816 36.2778 14.9928 36.2778 14.6751 36.2778M9.62124 35.2664C11.4118 35.931 13.4622 36.22 15.5704 36.1044L23.6855 33.2148C24.0321 32.9259 24.3498 32.6369 24.6674 32.3191C23.5411 30.6721 20.4222 29.8919 17.0721 30.4698C13.4044 31.0766 10.3144 33.0993 9.62124 35.2953" fill="#C7E7DC"/>
  <path d="M14.6751 36.3356C12.8269 36.3356 11.0363 36.0177 9.44797 35.4398H9.36133V35.2953C9.99668 32.9837 13.2312 30.8743 17.0144 30.2097C20.5666 29.6029 23.7144 30.412 24.8696 32.2324L24.9273 32.2902L24.8696 32.348C24.5519 32.6947 24.2054 33.0126 23.801 33.3304H23.7722L15.5993 36.2778C15.2816 36.2778 14.9928 36.2778 14.6751 36.2778M9.62124 35.2664C11.4118 35.931 13.4622 36.22 15.5704 36.1044L23.6855 33.2148C24.0321 32.9259 24.3498 32.6369 24.6674 32.3191C23.5411 30.6721 20.4222 29.8919 17.0721 30.4698C13.4044 31.0766 10.3144 33.0993 9.62124 35.2953" stroke="#C7E7DC"/>
  <path d="M53.4023 45.4374C53.229 45.4374 53.0269 45.4374 52.8536 45.4374C52.7959 45.4374 52.7381 45.4085 52.7092 45.3796C52.6515 45.293 52.6803 45.1485 52.7092 44.9751C52.7092 44.8595 52.767 44.6284 52.7092 44.5995C52.2183 44.3105 50.8032 44.166 50.6299 44.1949C50.6299 44.1949 50.5721 44.3683 50.5433 44.4839C50.4855 44.7151 50.4566 44.8306 50.37 44.8884C50.3411 44.8884 50.2833 44.8884 50.2545 44.8884C49.8213 44.7151 49.3592 44.5128 48.9549 44.2527C48.3195 43.8771 47.6842 43.5015 47.1355 43.0391C46.9044 42.8658 46.9911 42.6924 47.0489 42.5768C47.1066 42.4901 47.1066 42.4323 47.0489 42.3456C46.9911 42.2589 46.9045 42.1145 46.7601 41.9411C46.5001 41.5366 46.1536 41.0164 45.9514 40.8142C45.9514 40.8142 45.9514 40.8142 45.9225 40.8142C45.8648 40.872 45.7782 40.9298 45.6915 40.9009C45.6338 40.9009 45.576 40.8431 45.576 40.7564C45.5182 40.4963 45.4316 40.323 45.3738 40.1496C45.1428 39.5717 44.9695 39.196 45.3161 36.8844H45.5471C45.2294 39.1671 45.3738 39.5428 45.6049 40.0629C45.6626 40.2363 45.7493 40.4096 45.807 40.6697C45.807 40.6697 45.8359 40.6697 45.8648 40.6408C45.9803 40.5541 46.0669 40.6408 46.1536 40.6986C46.3846 40.9298 46.7312 41.4788 46.9911 41.8833C47.1066 42.0567 47.1932 42.2012 47.251 42.2878C47.3954 42.4901 47.3376 42.6635 47.2799 42.7502C47.2221 42.8368 47.2221 42.8657 47.2799 42.9524C47.8286 43.3859 48.4351 43.7615 49.0704 44.1372C49.4747 44.3683 49.879 44.5706 50.3122 44.744C50.3122 44.6862 50.37 44.5706 50.37 44.5128C50.4277 44.2816 50.4566 44.1371 50.5721 44.1083C50.7743 43.9927 52.3049 44.166 52.8536 44.5128C53.0558 44.6284 52.998 44.9173 52.9403 45.1196C52.9403 45.1774 52.9114 45.293 52.9114 45.3508C54.0088 45.4085 55.164 45.2641 56.2614 44.8884C56.2614 44.8884 56.2614 44.7151 56.2614 44.5995C56.2614 44.3683 56.2614 44.166 56.4058 44.0794C56.5213 44.0216 56.6946 43.906 56.9256 43.7904C57.2144 43.617 57.561 43.4437 57.8209 43.2992C57.8786 43.2992 57.9075 43.2414 57.9364 43.2125C57.9942 43.1547 58.0519 43.0969 58.1674 43.1258C58.4273 43.1258 58.4273 43.4437 58.4562 43.6459C58.4562 43.6459 58.4562 43.7037 58.4562 43.7326C58.745 43.5592 58.8605 43.4148 59.0338 43.2125C59.0916 43.1547 59.1493 43.068 59.236 42.9813C59.698 42.4901 59.958 42.0567 60.2756 41.2187L60.4778 41.3054C60.1312 42.1723 59.8424 42.6346 59.3804 43.1547C59.3226 43.2414 59.2649 43.2992 59.2071 43.357C59.0338 43.5592 58.8894 43.7326 58.514 43.9638C58.4273 43.9927 58.3696 43.9638 58.3696 43.9638C58.283 43.906 58.2541 43.7904 58.2541 43.6459C58.2541 43.5303 58.2541 43.3281 58.1674 43.3281C58.1674 43.3281 58.1674 43.3281 58.1097 43.357C58.0808 43.3859 58.023 43.4437 57.9364 43.4725C57.6765 43.5881 57.3588 43.7904 57.07 43.9349C56.839 44.0794 56.6368 44.166 56.5213 44.2238C56.5213 44.2527 56.5213 44.4261 56.5213 44.5417C56.5213 44.7729 56.5213 44.9751 56.3769 45.0329C55.4239 45.3796 54.442 45.5241 53.489 45.5241" fill="#C7E7DC"/>
  <path d="M53.4023 45.4374C53.229 45.4374 53.0269 45.4374 52.8536 45.4374C52.7959 45.4374 52.7381 45.4085 52.7092 45.3796C52.6515 45.293 52.6803 45.1485 52.7092 44.9751C52.7092 44.8595 52.767 44.6284 52.7092 44.5995C52.2183 44.3105 50.8032 44.166 50.6299 44.1949C50.6299 44.1949 50.5721 44.3683 50.5433 44.4839C50.4855 44.7151 50.4566 44.8306 50.37 44.8884C50.3411 44.8884 50.2833 44.8884 50.2545 44.8884C49.8213 44.7151 49.3592 44.5128 48.9549 44.2527C48.3195 43.8771 47.6842 43.5015 47.1355 43.0391C46.9044 42.8658 46.9911 42.6924 47.0489 42.5768C47.1066 42.4901 47.1066 42.4323 47.0489 42.3456C46.9911 42.2589 46.9045 42.1145 46.7601 41.9411C46.5001 41.5366 46.1536 41.0164 45.9514 40.8142C45.9514 40.8142 45.9514 40.8142 45.9225 40.8142C45.8648 40.872 45.7782 40.9298 45.6915 40.9009C45.6338 40.9009 45.576 40.8431 45.576 40.7564C45.5182 40.4963 45.4316 40.323 45.3738 40.1496C45.1428 39.5717 44.9695 39.196 45.3161 36.8844H45.5471C45.2294 39.1671 45.3738 39.5428 45.6049 40.0629C45.6626 40.2363 45.7493 40.4096 45.807 40.6697C45.807 40.6697 45.8359 40.6697 45.8648 40.6408C45.9803 40.5541 46.0669 40.6408 46.1536 40.6986C46.3846 40.9298 46.7312 41.4788 46.9911 41.8833C47.1066 42.0567 47.1932 42.2012 47.251 42.2878C47.3954 42.4901 47.3376 42.6635 47.2799 42.7502C47.2221 42.8368 47.2221 42.8657 47.2799 42.9524C47.8286 43.3859 48.4351 43.7615 49.0704 44.1372C49.4747 44.3683 49.879 44.5706 50.3122 44.744C50.3122 44.6862 50.37 44.5706 50.37 44.5128C50.4277 44.2816 50.4566 44.1371 50.5721 44.1083C50.7743 43.9927 52.3049 44.166 52.8536 44.5128C53.0558 44.6284 52.998 44.9173 52.9403 45.1196C52.9403 45.1774 52.9114 45.293 52.9114 45.3508C54.0088 45.4085 55.164 45.2641 56.2614 44.8884C56.2614 44.8884 56.2614 44.7151 56.2614 44.5995C56.2614 44.3683 56.2614 44.166 56.4058 44.0794C56.5213 44.0216 56.6946 43.906 56.9256 43.7904C57.2144 43.617 57.561 43.4437 57.8209 43.2992C57.8786 43.2992 57.9075 43.2414 57.9364 43.2125C57.9942 43.1547 58.0519 43.0969 58.1674 43.1258C58.4273 43.1258 58.4273 43.4437 58.4562 43.6459C58.4562 43.6459 58.4562 43.7037 58.4562 43.7326C58.745 43.5592 58.8605 43.4148 59.0338 43.2125C59.0916 43.1547 59.1493 43.068 59.236 42.9813C59.698 42.4901 59.958 42.0567 60.2756 41.2187L60.4778 41.3054C60.1312 42.1723 59.8424 42.6346 59.3804 43.1547C59.3226 43.2414 59.2649 43.2992 59.2071 43.357C59.0338 43.5592 58.8894 43.7326 58.514 43.9638C58.4273 43.9927 58.3696 43.9638 58.3696 43.9638C58.283 43.906 58.2541 43.7904 58.2541 43.6459C58.2541 43.5303 58.2541 43.3281 58.1674 43.3281C58.1674 43.3281 58.1674 43.3281 58.1097 43.357C58.0808 43.3859 58.023 43.4437 57.9364 43.4725C57.6765 43.5881 57.3588 43.7904 57.07 43.9349C56.839 44.0794 56.6368 44.166 56.5213 44.2238C56.5213 44.2527 56.5213 44.4261 56.5213 44.5417C56.5213 44.7728 56.5213 44.9751 56.3769 45.0329C55.4239 45.3796 54.442 45.5241 53.489 45.5241" stroke="#C7E7DC"/>
  <path d="M53.4306 45.0332C53.2573 45.0332 53.1129 45.0332 52.9974 44.9754H52.9108V44.7731C52.9396 44.3686 52.9396 44.2241 52.6797 44.1952C51.9 44.0507 51.5534 43.9641 50.5715 43.8485C50.5426 43.8485 50.456 44.0219 50.4271 44.1085C50.3405 44.2819 50.225 44.542 50.0228 44.4553C48.9543 44.0219 48.4056 43.5595 47.5969 42.7216C47.4525 42.5771 47.4814 42.4037 47.4814 42.2592C47.4814 42.1437 47.4814 42.0281 47.4237 41.9414L47.1637 41.6235C46.875 41.2479 46.5573 40.8723 46.2685 40.4677C46.2685 40.4677 46.1818 40.4677 46.1241 40.4677C45.9797 40.4677 45.8642 40.4677 45.8064 40.381C45.2866 39.6298 45.3155 37.9249 45.431 37.1447C45.431 37.0581 45.431 37.0003 45.431 36.9425C45.431 36.8269 45.431 36.7691 45.5754 36.6824C45.6909 36.5668 45.8353 36.6824 45.9219 36.7691C46.1818 36.0756 46.7883 35.3243 47.6836 34.5731C47.6836 34.5731 47.6836 34.3997 47.6836 34.3419C47.6836 34.1685 47.6258 33.9663 47.7991 33.8796H47.8569C48.29 33.6195 48.781 33.3883 49.0987 33.3883C49.3008 33.3883 49.3875 33.5617 49.4163 33.6773C49.4163 33.7062 49.4452 33.764 49.4741 33.764C50.2539 33.5039 51.3513 33.4172 52.853 33.5328C52.853 33.5039 52.853 33.4461 52.853 33.4172C52.853 33.2728 52.853 33.0994 52.9685 33.0416C53.2284 32.926 54.6724 33.3017 54.8746 33.3594C55.019 33.4172 54.9901 33.5617 54.9323 33.7929C54.9323 33.8507 54.9034 33.9374 54.9034 33.9952C55.8853 34.3419 56.8961 34.8042 57.5892 35.2954C57.6181 35.2954 57.7047 35.2377 57.7625 35.2088C57.9069 35.1221 58.0513 35.0354 58.1668 35.1221C58.6578 35.4977 58.9754 35.7867 59.2931 36.3068C59.3798 36.4224 59.2931 36.5379 59.2354 36.6246C59.1776 36.7402 59.1198 36.798 59.1487 36.8847C59.2354 37.1159 59.3509 37.4048 59.4664 37.6938C59.6108 38.0116 59.7552 38.3584 59.8418 38.6762C59.8996 38.9074 59.9573 39.0807 59.9573 39.2541C59.9573 39.3408 59.9573 39.3986 59.8996 39.4564C59.8996 39.4853 59.8996 39.5142 59.8996 39.5431C59.8996 39.7742 59.8418 40.0054 59.8129 40.2366C59.8129 40.381 59.7552 40.5255 59.7552 40.67C59.7552 40.7278 59.7552 40.8145 59.7552 40.9011C59.7552 41.0456 59.8129 41.1901 59.7552 41.3346C59.4953 42.057 59.0332 42.606 58.3401 43.0105C58.1957 43.0972 58.0802 43.0105 58.0513 43.0105C58.0224 43.0105 57.9935 42.9816 57.9647 43.0105C57.7625 43.0972 57.5603 43.2128 57.3582 43.3573C56.9828 43.5884 56.5784 43.8196 56.1164 43.9352C56.1164 43.9352 56.1164 44.1085 56.1164 44.1952C56.1164 44.3975 56.1164 44.6287 55.9142 44.6575C55.7987 44.6575 55.6254 44.7153 55.3944 44.7442C54.8168 44.8598 54.0371 45.0332 53.4595 45.0332M53.1418 44.7731C53.6616 44.8598 54.6724 44.6576 55.3366 44.5131C55.5388 44.4553 55.7409 44.4264 55.8565 44.4264C55.8565 44.4264 55.8565 44.253 55.8565 44.1663C55.8565 43.9641 55.8565 43.7329 56.0297 43.704C56.4629 43.5884 56.8384 43.3573 57.2138 43.155C57.4448 43.0105 57.647 42.8949 57.8491 42.8082C58.0224 42.7505 58.1091 42.8082 58.1668 42.8082C58.1668 42.8082 58.1668 42.8082 58.1957 42.8082C58.1957 42.8082 58.1957 42.8082 58.2246 42.8082C58.8599 42.4037 59.2931 41.9125 59.553 41.219C59.5819 41.1323 59.553 41.0167 59.553 40.9011C59.553 40.8145 59.5242 40.6989 59.5242 40.6122C59.5242 40.4677 59.553 40.3232 59.5819 40.1499C59.6108 39.9476 59.6685 39.7164 59.6685 39.4853C59.6685 39.4275 59.6685 39.3697 59.6974 39.3408C59.6974 39.3119 59.7263 39.283 59.6974 39.2541C59.6974 39.1096 59.6397 38.9363 59.5819 38.734C59.4953 38.4161 59.3509 38.0983 59.2065 37.7805C59.091 37.4915 58.9754 37.2025 58.8888 36.9714C58.831 36.7691 58.9177 36.6246 59.0043 36.509C59.0043 36.4802 59.0621 36.4224 59.0621 36.3935C58.7733 35.9023 58.4556 35.6422 57.9935 35.2954C57.9647 35.2954 57.878 35.3532 57.8203 35.3821C57.6759 35.4688 57.5315 35.5555 57.416 35.4688C56.7228 34.9776 55.7121 34.4864 54.7013 34.1685C54.5569 34.1107 54.6146 33.9663 54.6435 33.7062C54.6435 33.6484 54.6724 33.5617 54.6724 33.5039C54.1815 33.3595 53.1129 33.1283 52.9685 33.1861C52.9685 33.1861 52.9685 33.3017 52.9685 33.3306C52.9685 33.4461 52.9685 33.5617 52.9108 33.6484C52.9108 33.6484 52.853 33.7062 52.7664 33.7062C51.2935 33.5906 50.1961 33.6484 49.4452 33.9085C49.2431 33.9663 49.1853 33.7929 49.1275 33.7062C49.0698 33.5906 49.0409 33.5617 48.9832 33.5617C48.6944 33.5617 48.0879 33.8796 47.8569 34.0241H47.7991C47.7991 34.0241 47.7991 34.2263 47.7991 34.2841C47.7991 34.4575 47.8569 34.6308 47.7413 34.7175C46.8172 35.4688 46.2396 36.2201 46.0086 36.9136C46.0086 37.0003 45.9219 37.0003 45.893 37.0292C45.8064 37.0292 45.7487 37.0003 45.662 36.9425C45.662 36.9425 45.6043 36.8847 45.5754 36.8847C45.5465 36.8847 45.5465 36.9136 45.5465 36.9714C45.5465 37.0292 45.5465 37.087 45.5465 37.1736C45.4021 38.0116 45.4599 39.572 45.8642 40.2077C45.8931 40.2077 45.9797 40.2077 46.0086 40.2077C46.153 40.2077 46.2685 40.2077 46.3551 40.2943C46.6439 40.67 46.9327 41.0456 47.2504 41.4213L47.5103 41.7391C47.6258 41.8836 47.6258 42.0859 47.6258 42.2014C47.6258 42.3459 47.6258 42.4326 47.6836 42.4904C48.4922 43.3284 48.9832 43.7329 50.0228 44.1663C50.0228 44.1663 50.1095 44.0219 50.1383 43.9352C50.225 43.7329 50.3116 43.5595 50.5138 43.5595C51.4668 43.704 51.8422 43.7618 52.622 43.9352C53.084 44.0219 53.0552 44.3686 53.0263 44.7442" fill="#C7E7DC"/>
  <path d="M53.4306 45.0332C53.2573 45.0332 53.1129 45.0332 52.9974 44.9754H52.9108V44.7731C52.9396 44.3686 52.9396 44.2241 52.6797 44.1952C51.9 44.0507 51.5534 43.9641 50.5715 43.8485C50.5426 43.8485 50.456 44.0219 50.4271 44.1085C50.3405 44.2819 50.225 44.542 50.0228 44.4553C48.9543 44.0219 48.4056 43.5595 47.5969 42.7216C47.4525 42.5771 47.4814 42.4037 47.4814 42.2592C47.4814 42.1437 47.4814 42.0281 47.4237 41.9414L47.1637 41.6235C46.875 41.2479 46.5573 40.8723 46.2685 40.4677C46.2685 40.4677 46.1818 40.4677 46.1241 40.4677C45.9797 40.4677 45.8642 40.4677 45.8064 40.381C45.2866 39.6298 45.3155 37.9249 45.431 37.1447C45.431 37.0581 45.431 37.0003 45.431 36.9425C45.431 36.8269 45.431 36.7691 45.5754 36.6824C45.6909 36.5668 45.8353 36.6824 45.9219 36.7691C46.1818 36.0756 46.7883 35.3243 47.6836 34.5731C47.6836 34.5731 47.6836 34.3997 47.6836 34.3419C47.6836 34.1685 47.6258 33.9663 47.7991 33.8796H47.8569C48.29 33.6195 48.781 33.3883 49.0987 33.3883C49.3008 33.3883 49.3875 33.5617 49.4163 33.6773C49.4163 33.7062 49.4452 33.764 49.4741 33.764C50.2539 33.5039 51.3513 33.4172 52.853 33.5328C52.853 33.5039 52.853 33.4461 52.853 33.4172C52.853 33.2728 52.853 33.0994 52.9685 33.0416C53.2284 32.926 54.6724 33.3017 54.8746 33.3594C55.019 33.4172 54.9901 33.5617 54.9323 33.7929C54.9323 33.8507 54.9034 33.9374 54.9034 33.9952C55.8853 34.3419 56.8961 34.8042 57.5892 35.2954C57.6181 35.2954 57.7047 35.2377 57.7625 35.2088C57.9069 35.1221 58.0513 35.0354 58.1668 35.1221C58.6578 35.4977 58.9754 35.7867 59.2931 36.3068C59.3798 36.4224 59.2931 36.5379 59.2354 36.6246C59.1776 36.7402 59.1198 36.798 59.1487 36.8847C59.2354 37.1159 59.3509 37.4048 59.4664 37.6938C59.6108 38.0116 59.7552 38.3584 59.8418 38.6762C59.8996 38.9074 59.9573 39.0807 59.9573 39.2541C59.9573 39.3408 59.9573 39.3986 59.8996 39.4564C59.8996 39.4853 59.8996 39.5142 59.8996 39.5431C59.8996 39.7742 59.8418 40.0054 59.8129 40.2366C59.8129 40.381 59.7552 40.5255 59.7552 40.67C59.7552 40.7278 59.7552 40.8145 59.7552 40.9011C59.7552 41.0456 59.8129 41.1901 59.7552 41.3346C59.4953 42.057 59.0332 42.606 58.3401 43.0105C58.1957 43.0972 58.0802 43.0105 58.0513 43.0105C58.0224 43.0105 57.9935 42.9816 57.9647 43.0105C57.7625 43.0972 57.5603 43.2128 57.3582 43.3573C56.9828 43.5884 56.5784 43.8196 56.1164 43.9352C56.1164 43.9352 56.1164 44.1085 56.1164 44.1952C56.1164 44.3975 56.1164 44.6287 55.9142 44.6575C55.7987 44.6575 55.6254 44.7153 55.3944 44.7442C54.8168 44.8598 54.0371 45.0332 53.4595 45.0332M53.1418 44.7731C53.6616 44.8598 54.6724 44.6576 55.3366 44.5131C55.5388 44.4553 55.7409 44.4264 55.8565 44.4264C55.8565 44.4264 55.8565 44.253 55.8565 44.1663C55.8565 43.9641 55.8565 43.7329 56.0297 43.704C56.4629 43.5884 56.8384 43.3573 57.2138 43.155C57.4448 43.0105 57.647 42.8949 57.8491 42.8082C58.0224 42.7505 58.1091 42.8082 58.1668 42.8082C58.1668 42.8082 58.1668 42.8082 58.1957 42.8082C58.1957 42.8082 58.1957 42.8082 58.2246 42.8082C58.8599 42.4037 59.2931 41.9125 59.553 41.219C59.5819 41.1323 59.553 41.0167 59.553 40.9011C59.553 40.8145 59.5242 40.6989 59.5242 40.6122C59.5242 40.4677 59.553 40.3232 59.5819 40.1499C59.6108 39.9476 59.6685 39.7164 59.6685 39.4853C59.6685 39.4275 59.6685 39.3697 59.6974 39.3408C59.6974 39.3119 59.7263 39.283 59.6974 39.2541C59.6974 39.1096 59.6397 38.9363 59.5819 38.734C59.4953 38.4161 59.3509 38.0983 59.2065 37.7805C59.091 37.4915 58.9754 37.2025 58.8888 36.9714C58.831 36.7691 58.9177 36.6246 59.0043 36.509C59.0043 36.4802 59.0621 36.4224 59.0621 36.3935C58.7733 35.9023 58.4556 35.6422 57.9935 35.2954C57.9647 35.2954 57.878 35.3532 57.8203 35.3821C57.6759 35.4688 57.5315 35.5555 57.416 35.4688C56.7228 34.9776 55.7121 34.4864 54.7013 34.1685C54.5569 34.1107 54.6146 33.9663 54.6435 33.7062C54.6435 33.6484 54.6724 33.5617 54.6724 33.5039C54.1815 33.3595 53.1129 33.1283 52.9685 33.1861C52.9685 33.1861 52.9685 33.3017 52.9685 33.3306C52.9685 33.4461 52.9685 33.5617 52.9108 33.6484M52.9108 33.6484C52.9108 33.6484 52.853 33.7062 52.7664 33.7062C51.2935 33.5906 50.1961 33.6484 49.4452 33.9085C49.2431 33.9663 49.1853 33.7929 49.1275 33.7062C49.0698 33.5906 49.0409 33.5617 48.9832 33.5617C48.6944 33.5617 48.0879 33.8796 47.8569 34.0241H47.7991C47.7991 34.0241 47.7991 34.2263 47.7991 34.2841C47.7991 34.4575 47.8569 34.6308 47.7413 34.7175C46.8172 35.4688 46.2396 36.2201 46.0086 36.9136C46.0086 37.0003 45.9219 37.0003 45.893 37.0292C45.8064 37.0292 45.7487 37.0003 45.662 36.9425C45.662 36.9425 45.6043 36.8847 45.5754 36.8847C45.5465 36.8847 45.5465 36.9136 45.5465 36.9714C45.5465 37.0292 45.5465 37.087 45.5465 37.1736C45.4021 38.0116 45.4599 39.572 45.8642 40.2077C45.8931 40.2077 45.9797 40.2077 46.0086 40.2077C46.153 40.2077 46.2685 40.2077 46.3551 40.2943C46.6439 40.67 46.9327 41.0456 47.2504 41.4213L47.5103 41.7391C47.6258 41.8836 47.6258 42.0859 47.6258 42.2014C47.6258 42.3459 47.6258 42.4326 47.6836 42.4904C48.4922 43.3284 48.9832 43.7329 50.0228 44.1663C50.0228 44.1663 50.1095 44.0219 50.1383 43.9352C50.225 43.7329 50.3116 43.5595 50.5138 43.5595C51.4668 43.704 51.8422 43.7618 52.622 43.9352C53.084 44.0219 53.0552 44.3686 53.0263 44.7442M52.9108 33.6484V33.5328" stroke="#C7E7DC"/>
  <path d="M53.4306 45.0332C53.2574 45.0332 53.113 45.0332 52.9975 44.9754H52.9108V44.7731C52.9397 44.3686 52.9397 44.2241 52.6798 44.1952C51.9 44.0507 51.5535 43.9641 50.5716 43.8485C50.5427 43.8485 50.4561 44.0219 50.4272 44.1085C50.3405 44.2819 50.225 44.5131 50.0229 44.4553C48.9543 44.0219 48.4056 43.5595 47.597 42.7216C47.4526 42.5771 47.4815 42.4037 47.4815 42.2592C47.4815 42.1437 47.4815 42.0281 47.4237 41.9414L47.1349 41.5946C47.0194 41.4502 46.875 41.2768 46.7595 41.1323L46.6729 41.0456L46.7884 40.9878C48.1746 40.1788 50.3405 39.9187 52.5931 40.2655C54.9901 40.6411 57.1272 41.6235 58.3401 42.9238L58.4268 43.0394L58.3113 43.0972C58.3113 43.0972 58.0802 43.0972 58.0514 43.0972C58.0225 43.0972 57.9936 43.0683 57.9647 43.0972C57.7626 43.1839 57.5604 43.2995 57.3582 43.4439C56.9828 43.6751 56.5785 43.9063 56.1164 44.0219C56.1164 44.0219 56.1164 44.1952 56.1164 44.2819C56.1164 44.4842 56.1164 44.7153 55.9143 44.7442C55.7988 44.7442 55.5966 44.802 55.3944 44.8309C54.8169 44.9465 54.0371 45.1199 53.4595 45.1199M53.1418 44.7731C53.6617 44.8598 54.6725 44.6576 55.3367 44.5131C55.5388 44.4553 55.741 44.4264 55.8565 44.4264C55.8565 44.4264 55.8565 44.253 55.8565 44.1663C55.8565 43.9641 55.8565 43.7329 56.0298 43.704C56.463 43.5884 56.8384 43.3573 57.2138 43.155C57.4449 43.0105 57.647 42.8949 57.8492 42.8082C57.8781 42.8082 57.907 42.8082 57.9358 42.8082C56.7518 41.6524 54.7591 40.7856 52.5643 40.4388C50.4272 40.121 48.3479 40.3521 46.9905 41.0745C47.0772 41.1901 47.1927 41.3057 47.2793 41.4213L47.5681 41.768C47.6836 41.9125 47.6836 42.1148 47.6836 42.2592C47.6836 42.4037 47.6836 42.4904 47.7414 42.5482C48.55 43.3862 49.041 43.7907 50.0806 44.2241C50.0806 44.2241 50.1673 44.0796 50.1961 43.993C50.2828 43.7907 50.3694 43.6173 50.5716 43.6173C51.5246 43.7329 51.9 43.8196 52.6798 43.993C53.1418 44.0796 53.113 44.4264 53.0841 44.802" fill="#C7E7DC"/>
  <path d="M53.4306 45.0332C53.2574 45.0332 53.113 45.0332 52.9975 44.9754H52.9108V44.7731C52.9397 44.3686 52.9397 44.2241 52.6798 44.1952C51.9 44.0507 51.5535 43.9641 50.5716 43.8485C50.5427 43.8485 50.4561 44.0219 50.4272 44.1085C50.3405 44.2819 50.225 44.5131 50.0229 44.4553C48.9543 44.0219 48.4056 43.5595 47.597 42.7216C47.4526 42.5771 47.4815 42.4037 47.4815 42.2592C47.4815 42.1437 47.4815 42.0281 47.4237 41.9414L47.1349 41.5946C47.0194 41.4502 46.875 41.2768 46.7595 41.1323L46.6729 41.0456L46.7884 40.9878C48.1746 40.1788 50.3405 39.9187 52.5931 40.2655C54.9901 40.6411 57.1272 41.6235 58.3401 42.9238L58.4268 43.0394L58.3113 43.0972C58.3113 43.0972 58.0802 43.0972 58.0514 43.0972C58.0225 43.0972 57.9936 43.0683 57.9647 43.0972C57.7626 43.1839 57.5604 43.2995 57.3582 43.4439C56.9828 43.6751 56.5785 43.9063 56.1164 44.0219C56.1164 44.0219 56.1164 44.1952 56.1164 44.2819C56.1164 44.4842 56.1164 44.7153 55.9143 44.7442C55.7988 44.7442 55.5966 44.802 55.3944 44.8309C54.8169 44.9465 54.0371 45.1199 53.4595 45.1199M53.1418 44.7731C53.6617 44.8598 54.6725 44.6576 55.3367 44.5131C55.5388 44.4553 55.741 44.4264 55.8565 44.4264C55.8565 44.4264 55.8565 44.253 55.8565 44.1663C55.8565 43.9641 55.8565 43.7329 56.0298 43.704C56.463 43.5884 56.8384 43.3573 57.2138 43.155C57.4449 43.0105 57.647 42.8949 57.8492 42.8082C57.8781 42.8082 57.907 42.8082 57.9358 42.8082C56.7518 41.6524 54.7591 40.7856 52.5643 40.4388C50.4272 40.121 48.3479 40.3521 46.9905 41.0745C47.0772 41.1901 47.1927 41.3057 47.2793 41.4213L47.5681 41.768C47.6836 41.9125 47.6836 42.1148 47.6836 42.2592C47.6836 42.4037 47.6836 42.4904 47.7414 42.5482C48.55 43.3862 49.041 43.7907 50.0806 44.2241C50.0806 44.2241 50.1673 44.0796 50.1961 43.993C50.2828 43.7907 50.3694 43.6173 50.5716 43.6173C51.5246 43.7329 51.9 43.8196 52.6798 43.993C53.1418 44.0796 53.113 44.4264 53.0841 44.802" stroke="#C7E7DC"/>
  <path d="M68.093 19.5617L64.4502 21.1066L64.5404 21.3194L68.1831 19.7745L68.093 19.5617Z" fill="#C7E7DC" stroke="#C7E7DC"/>
  <path d="M26.1975 12.4681C26.1975 12.4681 25.9953 12.4392 25.9665 12.3814C25.8509 12.2658 25.9087 12.0924 25.9376 11.9479C25.9376 11.8902 25.9665 11.7457 25.9376 11.7457C25.9376 11.7457 25.9376 11.7457 25.8798 11.7457C25.5333 11.7457 25.2445 11.7457 25.0423 11.7457C24.4359 11.7457 24.1759 11.7457 23.4251 11.8035C23.3673 11.8035 23.3673 11.9191 23.3384 12.0346C23.3384 12.1502 23.3384 12.2947 23.2229 12.3525C23.194 12.3525 23.1363 12.4103 23.0496 12.3525C22.8186 12.2947 22.5876 12.2369 22.3565 12.1791C21.4035 11.9479 20.335 11.7168 19.5552 11.2545C19.2376 11.0522 19.2664 10.821 19.2953 10.6477C19.2953 10.5032 19.3242 10.3876 19.2087 10.2431L19.0354 10.0697C18.0246 9.1451 17.5625 8.71166 18.3423 6.80457L18.5444 6.89125C17.7936 8.68277 18.169 9.02952 19.1798 9.92527L19.3531 10.0986C19.5841 10.3009 19.5552 10.5321 19.5264 10.6766C19.5264 10.8499 19.4975 10.9366 19.6707 11.0522C20.4216 11.4856 21.4613 11.7457 22.4143 11.9479C22.6453 12.0057 22.9052 12.0635 23.1074 12.1213C23.1074 12.1213 23.1074 12.0057 23.1363 11.9479C23.1363 11.7746 23.194 11.5434 23.4251 11.5145C24.1759 11.4567 24.4359 11.4567 25.0712 11.4567C25.3022 11.4567 25.5622 11.4567 25.9087 11.4567C25.9087 11.4567 26.082 11.4856 26.1397 11.5434C26.2264 11.659 26.1975 11.8035 26.1397 11.9479C26.1397 12.0346 26.082 12.1502 26.1397 12.1791C26.1397 12.1791 26.1975 12.1791 26.2841 12.1791C27.6415 12.0057 28.941 11.5723 29.9518 10.9366C30.0962 10.8499 30.0673 10.7054 30.0385 10.5032C30.0096 10.3009 29.9518 10.0409 30.2117 9.89637C30.8182 9.54963 31.0781 9.28957 31.2803 9.08731C31.4247 8.94283 31.5691 8.79835 31.8001 8.68277C31.8868 8.62498 31.9445 8.68277 32.0023 8.68277C32.1178 8.74056 32.1467 8.94283 32.1755 9.1451C32.1755 9.1451 32.1755 9.20288 32.1755 9.23178C32.6954 8.62498 32.7531 8.22044 32.782 7.55584V7.44027H33.0131V7.55584C32.9553 8.27823 32.8975 8.74056 32.2622 9.46295C32.2044 9.54963 32.1178 9.54963 32.0889 9.52073C31.9734 9.49183 31.9734 9.34736 31.9445 9.17399C31.9445 9.0873 31.9156 8.91393 31.8868 8.88504C31.6846 9.00062 31.5691 9.11619 31.4247 9.26067C31.2225 9.46294 30.9626 9.723 30.3273 10.0986C30.2117 10.1564 30.2117 10.272 30.2695 10.4743C30.2984 10.7054 30.3561 10.9655 30.0962 11.1389C29.0854 11.7746 27.757 12.2369 26.3419 12.4103C26.313 12.4103 26.2841 12.4103 26.2553 12.4103" fill="#C7E7DC"/>
  <path d="M26.1975 12.4681C26.1975 12.4681 25.9953 12.4392 25.9665 12.3814C25.8509 12.2658 25.9087 12.0924 25.9376 11.9479C25.9376 11.8902 25.9665 11.7457 25.9376 11.7457C25.9376 11.7457 25.9376 11.7457 25.8798 11.7457C25.5333 11.7457 25.2445 11.7457 25.0423 11.7457C24.4359 11.7457 24.1759 11.7457 23.4251 11.8035C23.3673 11.8035 23.3673 11.9191 23.3384 12.0346C23.3384 12.1502 23.3384 12.2947 23.2229 12.3525C23.194 12.3525 23.1363 12.4103 23.0496 12.3525C22.8186 12.2947 22.5876 12.2369 22.3565 12.1791C21.4035 11.9479 20.335 11.7168 19.5552 11.2545C19.2376 11.0522 19.2664 10.821 19.2953 10.6477C19.2953 10.5032 19.3242 10.3876 19.2087 10.2431L19.0354 10.0697C18.0246 9.1451 17.5625 8.71166 18.3423 6.80457L18.5444 6.89125C17.7936 8.68277 18.169 9.02952 19.1798 9.92527L19.3531 10.0986C19.5841 10.3009 19.5552 10.5321 19.5264 10.6766C19.5264 10.8499 19.4975 10.9366 19.6707 11.0522C20.4216 11.4856 21.4613 11.7457 22.4143 11.9479C22.6453 12.0057 22.9052 12.0635 23.1074 12.1213C23.1074 12.1213 23.1074 12.0057 23.1363 11.9479C23.1363 11.7746 23.194 11.5434 23.4251 11.5145C24.1759 11.4567 24.4359 11.4567 25.0712 11.4567C25.3022 11.4567 25.5622 11.4567 25.9087 11.4567C25.9087 11.4567 26.082 11.4856 26.1397 11.5434C26.2264 11.659 26.1975 11.8035 26.1397 11.9479C26.1397 12.0346 26.082 12.1502 26.1397 12.1791C26.1397 12.1791 26.1975 12.1791 26.2841 12.1791C27.6415 12.0057 28.941 11.5723 29.9518 10.9366C30.0962 10.8499 30.0673 10.7054 30.0385 10.5032C30.0096 10.3009 29.9518 10.0409 30.2117 9.89637C30.8182 9.54963 31.0781 9.28957 31.2803 9.08731C31.4247 8.94283 31.5691 8.79835 31.8001 8.68277C31.8868 8.62498 31.9445 8.68277 32.0023 8.68277C32.1178 8.74056 32.1467 8.94283 32.1755 9.1451C32.1755 9.1451 32.1755 9.20288 32.1755 9.23178C32.6954 8.62498 32.7531 8.22044 32.782 7.55584V7.44027H33.0131V7.55584C32.9553 8.27823 32.8975 8.74056 32.2622 9.46295C32.2044 9.54963 32.1178 9.54963 32.0889 9.52073C31.9734 9.49183 31.9734 9.34736 31.9445 9.17399C31.9445 9.0873 31.9156 8.91393 31.8868 8.88504C31.6846 9.00062 31.5691 9.11619 31.4247 9.26067C31.2225 9.46294 30.9626 9.723 30.3273 10.0986C30.2117 10.1564 30.2117 10.272 30.2695 10.4743C30.2984 10.7054 30.3561 10.9655 30.0962 11.1389C29.0854 11.7746 27.757 12.2369 26.3419 12.4103C26.313 12.4103 26.2841 12.4103 26.2553 12.4103" stroke="#C7E7DC"/>
  <path d="M26.4867 12.0057C26.4867 12.0057 26.2845 11.9768 26.2557 11.919C26.1401 11.8034 26.1979 11.63 26.2268 11.4855C26.2268 11.4277 26.2557 11.2833 26.2268 11.2833C26.2268 11.2833 26.2268 11.2833 26.169 11.2833C25.6492 11.2833 25.2449 11.2833 24.8695 11.2833C24.2919 11.2833 23.8298 11.2833 23.2233 11.3122C23.1656 11.3122 23.1656 11.4277 23.1656 11.5433C23.1656 11.6589 23.1656 11.8034 23.05 11.8612C23.0212 11.8612 22.9634 11.919 22.8768 11.8612L22.588 11.8034C21.635 11.5722 20.7397 11.3411 19.8444 10.8209C19.5268 10.6187 19.5556 10.3875 19.5845 10.2141C19.5845 10.0697 19.6134 9.95408 19.4979 9.8385C18.747 9.14501 18.3716 8.596 18.5737 7.75803C18.6026 7.61356 18.6893 7.46908 18.8048 7.3246C19.0069 7.00675 19.2957 6.60221 19.0936 5.85093C19.0936 5.79314 19.0936 5.73535 19.1224 5.64866C19.2957 5.35971 20.0755 4.92628 20.3643 4.86849C20.5664 4.8107 20.6531 4.86849 20.7108 4.98407C20.7397 5.04186 20.7686 5.09965 20.9996 5.12855C21.3173 5.12855 22.1259 4.92628 22.9057 4.69512C23.2522 4.57954 23.5988 4.49285 23.9453 4.40616C24.0031 4.40616 24.0897 4.40616 24.2052 4.34837C24.4363 4.31947 25.1005 4.20389 25.1871 4.08831V3.97273C25.1871 3.71267 25.1871 3.42372 25.3893 3.36593C25.8514 3.25034 26.4001 3.30813 26.9199 3.36593C27.2087 3.42372 27.2087 3.65488 27.2087 3.79936C27.2087 3.97273 27.2087 4.11721 27.3531 4.23279C27.613 4.43506 28.1906 4.57954 28.7682 4.72401C29.4613 4.89739 30.1255 5.04186 30.4143 5.33081C30.5876 5.50419 30.6453 5.4464 30.7609 5.35971C30.8764 5.27302 31.0497 5.15744 31.2807 5.30192C31.685 5.53308 32.2915 6.42884 32.3204 7.00675C32.3204 7.15122 32.3204 7.9025 32.2915 8.19146C32.2626 8.39373 32.2048 8.59599 32.0604 8.59599C32.0604 8.59599 31.8872 8.50931 31.8583 8.39373C31.8583 8.30704 31.8294 8.27814 31.8005 8.27814C31.8005 8.27814 31.7428 8.27815 31.5695 8.42263C31.5695 8.42263 31.5406 8.45152 31.5117 8.48042C31.3096 8.596 31.1941 8.68268 31.0497 8.82716C30.8475 9.02943 30.6165 9.26059 29.9811 9.60734C29.8656 9.66513 29.8945 9.75181 29.9234 9.98297C29.9522 10.1852 30.01 10.4453 29.7501 10.6187L29.6346 10.6765C28.6527 11.2833 27.9596 11.7456 26.6022 11.919C26.5733 11.919 26.5445 11.919 26.5156 11.919M26.169 11.0232C26.169 11.0232 26.3423 11.0521 26.4001 11.1099C26.4867 11.2255 26.4578 11.37 26.4001 11.5144C26.4001 11.6011 26.3423 11.7167 26.4001 11.7456C26.4001 11.7456 26.4578 11.7456 26.5445 11.7456C27.8729 11.5722 28.5371 11.1388 29.4902 10.5609L29.6057 10.5031C29.6057 10.5031 29.7212 10.3297 29.6634 10.0986C29.6346 9.89629 29.5768 9.63623 29.8367 9.49175C30.4432 9.14501 30.6742 8.91385 30.8764 8.74048C31.0208 8.596 31.1363 8.48042 31.3962 8.36483C31.4828 8.27815 31.6561 8.10478 31.8294 8.16257C31.916 8.16257 31.9738 8.24925 32.0027 8.36483C32.0027 8.33594 32.0027 8.27815 32.0027 8.24925C32.0316 7.98919 32.0604 7.23791 32.0316 7.09343C32.0027 6.60221 31.4251 5.73535 31.0785 5.56198C30.963 5.50419 30.8764 5.56198 30.7897 5.59087C30.6742 5.67756 30.4721 5.82203 30.1544 5.53308C29.8945 5.30192 29.2303 5.12855 28.5949 4.98407C27.9596 4.83959 27.382 4.69512 27.0932 4.46395C26.8333 4.26169 26.8621 4.00162 26.8621 3.82825C26.8621 3.65488 26.8621 3.62598 26.7755 3.62598C26.2845 3.5393 25.7647 3.48151 25.3315 3.59709C25.3026 3.62598 25.3026 3.85715 25.3315 3.97273V4.08831C25.3315 4.34837 24.8406 4.43505 24.1763 4.55064C24.0608 4.55064 23.9742 4.57953 23.9164 4.57953C23.5988 4.66622 23.2522 4.7818 22.9057 4.86849C22.0681 5.12855 21.2884 5.35971 20.913 5.30192C20.6242 5.27302 20.5375 5.15744 20.4798 5.07075C20.4798 5.07075 20.4798 5.07075 20.4798 5.04186C20.4798 5.04186 20.4798 5.04186 20.3931 5.04186C20.0466 5.12854 19.2957 5.61977 19.2957 5.76424C19.5268 6.60221 19.2091 7.09343 18.978 7.41128C18.8914 7.55576 18.8048 7.67134 18.7759 7.78692C18.6026 8.50931 18.9203 8.97163 19.6423 9.63623C19.8733 9.8385 19.8444 10.0697 19.8156 10.2141C19.8156 10.3875 19.7867 10.4742 19.9599 10.5898C20.8263 11.081 21.6927 11.3122 22.6457 11.5433L22.9345 11.6011C22.9345 11.6011 22.9345 11.4855 22.9634 11.4277C22.9634 11.2544 23.0212 11.0232 23.2522 10.9943C23.8876 10.9365 24.3496 10.9654 24.9272 10.9943C25.3026 10.9943 25.707 10.9943 26.2268 10.9943L26.169 11.0232Z" fill="#C7E7DC"/>
  <path d="M26.4867 12.0057C26.4867 12.0057 26.2845 11.9768 26.2557 11.919C26.1401 11.8034 26.1979 11.63 26.2268 11.4855C26.2268 11.4277 26.2557 11.2833 26.2268 11.2833C26.2268 11.2833 26.2268 11.2833 26.169 11.2833C25.6492 11.2833 25.2449 11.2833 24.8695 11.2833C24.2919 11.2833 23.8298 11.2833 23.2233 11.3122C23.1656 11.3122 23.1656 11.4277 23.1656 11.5433C23.1656 11.6589 23.1656 11.8034 23.05 11.8612C23.0212 11.8612 22.9634 11.919 22.8768 11.8612L22.588 11.8034C21.635 11.5722 20.7397 11.3411 19.8444 10.8209C19.5268 10.6187 19.5556 10.3875 19.5845 10.2141C19.5845 10.0697 19.6134 9.95408 19.4979 9.8385C18.747 9.14501 18.3716 8.596 18.5737 7.75803C18.6026 7.61356 18.6893 7.46908 18.8048 7.3246C19.0069 7.00675 19.2957 6.60221 19.0936 5.85093C19.0936 5.79314 19.0936 5.73535 19.1224 5.64866C19.2957 5.35971 20.0755 4.92628 20.3643 4.86849C20.5664 4.8107 20.6531 4.86849 20.7108 4.98407C20.7397 5.04186 20.7686 5.09965 20.9996 5.12855C21.3173 5.12855 22.1259 4.92628 22.9057 4.69512C23.2522 4.57954 23.5988 4.49285 23.9453 4.40616C24.0031 4.40616 24.0897 4.40616 24.2052 4.34837C24.4363 4.31947 25.1005 4.20389 25.1871 4.08831V3.97273C25.1871 3.71267 25.1871 3.42372 25.3893 3.36593C25.8514 3.25034 26.4001 3.30813 26.9199 3.36593C27.2087 3.42372 27.2087 3.65488 27.2087 3.79936C27.2087 3.97273 27.2087 4.11721 27.3531 4.23279C27.613 4.43506 28.1906 4.57954 28.7682 4.72401C29.4613 4.89739 30.1255 5.04186 30.4143 5.33081C30.5876 5.50419 30.6453 5.4464 30.7609 5.35971C30.8764 5.27302 31.0497 5.15744 31.2807 5.30192C31.685 5.53308 32.2915 6.42884 32.3204 7.00675C32.3204 7.15122 32.3204 7.9025 32.2915 8.19146C32.2626 8.39373 32.2048 8.59599 32.0604 8.59599C32.0604 8.59599 31.8872 8.50931 31.8583 8.39373C31.8583 8.30704 31.8294 8.27814 31.8005 8.27814C31.8005 8.27814 31.7428 8.27815 31.5695 8.42263C31.5695 8.42263 31.5406 8.45152 31.5117 8.48042C31.3096 8.596 31.1941 8.68268 31.0497 8.82716C30.8475 9.02943 30.6165 9.26059 29.9811 9.60734C29.8656 9.66513 29.8945 9.75181 29.9234 9.98297C29.9522 10.1852 30.01 10.4453 29.7501 10.6187L29.6346 10.6765C28.6527 11.2833 27.9596 11.7456 26.6022 11.919C26.5733 11.919 26.5445 11.919 26.5156 11.919M26.169 11.0232C26.169 11.0232 26.3423 11.0521 26.4001 11.1099C26.4867 11.2255 26.4578 11.37 26.4001 11.5144C26.4001 11.6011 26.3423 11.7167 26.4001 11.7456C26.4001 11.7456 26.4578 11.7456 26.5445 11.7456C27.8729 11.5722 28.5371 11.1388 29.4902 10.5609L29.6057 10.5031C29.6057 10.5031 29.7212 10.3297 29.6634 10.0986C29.6346 9.89629 29.5768 9.63623 29.8367 9.49175C30.4432 9.14501 30.6742 8.91385 30.8764 8.74048C31.0208 8.596 31.1363 8.48042 31.3962 8.36483C31.4828 8.27815 31.6561 8.10478 31.8294 8.16257C31.916 8.16257 31.9738 8.24925 32.0027 8.36483C32.0027 8.33594 32.0027 8.27815 32.0027 8.24925C32.0316 7.98919 32.0604 7.23791 32.0316 7.09343C32.0027 6.60221 31.4251 5.73535 31.0785 5.56198C30.963 5.50419 30.8764 5.56198 30.7897 5.59087C30.6742 5.67756 30.4721 5.82203 30.1544 5.53308C29.8945 5.30192 29.2303 5.12855 28.5949 4.98407C27.9596 4.83959 27.382 4.69512 27.0932 4.46395C26.8333 4.26169 26.8621 4.00162 26.8621 3.82825C26.8621 3.65488 26.8621 3.62598 26.7755 3.62598C26.2845 3.5393 25.7647 3.48151 25.3315 3.59709C25.3026 3.62598 25.3026 3.85715 25.3315 3.97273V4.08831C25.3315 4.34837 24.8406 4.43505 24.1763 4.55064C24.0608 4.55064 23.9742 4.57953 23.9164 4.57953C23.5988 4.66622 23.2522 4.7818 22.9057 4.86849C22.0681 5.12855 21.2884 5.35971 20.913 5.30192C20.6242 5.27302 20.5375 5.15744 20.4798 5.07075C20.4798 5.07075 20.4798 5.07075 20.4798 5.04186C20.4798 5.04186 20.4798 5.04186 20.3931 5.04186C20.0466 5.12854 19.2957 5.61977 19.2957 5.76424C19.5268 6.60221 19.2091 7.09343 18.978 7.41128C18.8914 7.55576 18.8048 7.67134 18.7759 7.78692C18.6026 8.50931 18.9203 8.97163 19.6423 9.63623C19.8733 9.8385 19.8444 10.0697 19.8156 10.2141C19.8156 10.3875 19.7867 10.4742 19.9599 10.5898C20.8263 11.081 21.6927 11.3122 22.6457 11.5433L22.9345 11.6011C22.9345 11.6011 22.9345 11.4855 22.9634 11.4277C22.9634 11.2544 23.0212 11.0232 23.2522 10.9943C23.8876 10.9365 24.3496 10.9654 24.9272 10.9943C25.3026 10.9943 25.707 10.9943 26.2268 10.9943L26.169 11.0232Z" stroke="#C7E7DC"/>
</svg>