<svg xmlns="http://www.w3.org/2000/svg" width="71" height="57" viewBox="0 0 71 57" fill="none">
  <path d="M47.3225 17.7134C41.9334 16.6598 35.7454 16.8594 30.0934 18.0283C24.4498 19.1954 19.2808 21.3416 15.9648 24.2323C14.3041 25.6693 13.2404 27.1815 12.7865 28.7008C12.3289 30.2326 12.5022 31.7382 13.2569 33.1119C14.7472 35.8245 18.4497 37.9456 23.8119 38.9939C29.201 40.0474 35.389 39.8478 41.041 38.679C46.6846 37.5119 51.8536 35.3657 55.1696 32.475C56.8303 31.0381 57.894 29.5259 58.3479 28.0065C58.8055 26.4747 58.6322 24.9691 57.8775 23.5954C56.3873 20.8828 52.6847 18.7617 47.3225 17.7134ZM10.0068 22.3365C14.4135 18.2641 21.2768 15.2419 28.8487 13.6841C36.4148 12.1274 44.6309 12.0451 51.7099 13.7987C58.7851 15.5567 63.2533 18.7847 64.9048 22.4664C66.5316 26.0931 65.5012 30.3526 61.1275 34.4142C56.7208 38.4865 49.8575 41.5087 42.2857 43.0665C34.7196 44.6231 26.5035 44.7055 19.4245 42.9519C12.3494 41.1939 7.88111 37.9659 6.22961 34.2842C4.60282 30.6575 5.63323 26.3981 10.0068 22.3365Z" stroke="#C7E7DC"/>
</svg>