<svg width="40" height="30" viewBox="0 0 40 30" fill="none" xmlns="http://www.w3.org/2000/svg">
<path d="M1.25 25.625C7.55813 26.3917 13.9453 25.1029 19.4626 21.9502C24.9799 18.7974 29.3329 13.9489 31.875 8.125" stroke="black" stroke-width="1.25" stroke-linecap="round" stroke-linejoin="round"/>
<path d="M4.52539 25.8375C4.59414 25.8 4.65664 25.7562 4.72539 25.7125C6.08472 24.8117 7.07081 23.4481 7.50039 21.875" stroke="black" stroke-width="1.25" stroke-linecap="round" stroke-linejoin="round"/>
<path d="M5.16895 25.8375C7.12559 26.4513 8.82425 27.6951 10.0002 29.375" stroke="black" stroke-width="1.25" stroke-linecap="round" stroke-linejoin="round"/>
<path d="M11.875 27.5C11.875 27.5 13.75 28.75 19.375 28.125C26.86 27.2931 31.9937 22.8812 35.0625 17.5187C33.9122 17.0486 32.838 16.4104 31.875 15.625C33.5424 15.7916 35.2162 15.3765 36.6125 14.45C38.0688 11.1375 38.75 8.175 38.75 6.875C38.75 5 38.75 0.625 33.75 0.625C27.5 0.625 26.875 8.75 20 12.5C19.2437 12.8813 18.5562 13.25 17.9437 13.6125C17.2415 15.4902 16.6754 17.416 16.25 19.375C15.4724 18.2934 15.0212 17.0115 14.95 15.6813C11.6063 18.5 11.6875 20.8125 9.375 23.125" stroke="black" stroke-width="1.25" stroke-linecap="round" stroke-linejoin="round"/>
</svg>
