<svg xmlns="http://www.w3.org/2000/svg" width="56" height="60" viewBox="0 0 56 60" fill="none">
  <g opacity="0.8">
    <path d="M39.6184 25.5C39.6184 32.4141 38.2816 38.6193 36.1696 43.0546C34.0182 47.5725 31.2627 49.8913 28.5843 49.8913C25.9059 49.8913 23.1504 47.5725 20.999 43.0546C18.8869 38.6193 17.5501 32.4141 17.5501 25.5C17.5501 18.5859 18.8869 12.3807 20.999 7.94544C23.1504 3.4275 25.9059 1.1087 28.5843 1.1087C31.2627 1.1087 34.0182 3.4275 36.1696 7.94544C38.2816 12.3807 39.6184 18.5859 39.6184 25.5Z" stroke="black" stroke-width="2.21739"/>
    <path d="M23.0661 35.0553C17.0783 31.5982 12.3729 27.3379 9.58786 23.2912C6.75091 19.1691 6.12051 15.6233 7.45972 13.3038C8.79892 10.9842 12.1848 9.75727 17.1732 10.1531C22.0702 10.5416 28.1125 12.4865 34.1003 15.9436C40.0881 19.4006 44.7935 23.6609 47.5785 27.7076C50.4155 31.8298 51.0459 35.3755 49.7067 37.6951C48.3675 40.0146 44.9816 41.2416 39.9932 40.8458C35.0962 40.4572 29.0539 38.5123 23.0661 35.0553Z" stroke="black" stroke-width="2.21739"/>
    <path d="M23.0694 15.9452C29.0571 12.4882 35.0994 10.5433 39.9965 10.1547C44.9848 9.75893 48.3707 10.9858 49.7099 13.3054C51.0491 15.625 50.4187 19.1707 47.5818 23.2929C44.7967 27.3396 40.0913 31.5999 34.1035 35.0569C28.1157 38.514 22.0735 40.4588 17.1764 40.8474C12.188 41.2432 8.80216 40.0163 7.46295 37.6967C6.12374 35.3771 6.75414 31.8314 9.5911 27.7093C12.3761 23.6626 17.0816 19.4023 23.0694 15.9452Z" stroke="black" stroke-width="2.21739"/>
  </g>
</svg>