<svg width="36" height="36" viewBox="0 0 36 36" fill="none" xmlns="http://www.w3.org/2000/svg">
<g id="fi_6052471" clip-path="url(#clip0_29994_918)">
<g id="Group">
<path id="Vector" d="M12.7833 9.86456C14.0992 10.5242 15.8335 10.8876 17.6668 10.8876C19.5001 10.8876 21.2344 10.5242 22.5503 9.86456C24.0161 9.12963 24.8233 8.09761 24.8233 6.95867C24.8233 5.81974 24.0161 4.78771 22.5503 4.05278C21.2344 3.39312 19.5001 3.02979 17.6668 3.02979C15.8335 3.02979 14.0992 3.39312 12.7833 4.05278C11.3175 4.78771 10.5103 5.81974 10.5103 6.95867C10.5103 8.09761 11.3175 9.12963 12.7833 9.86456ZM17.6667 4.3969C21.0785 4.3969 23.456 5.747 23.456 6.95867C23.456 8.17034 21.0785 9.52037 17.6667 9.52037C14.255 9.52037 11.8774 8.17027 11.8774 6.9586C11.8774 5.74693 14.255 4.3969 17.6667 4.3969Z" fill="black"/>
<path id="Vector_2" d="M29.7578 6.21847C29.0845 2.9675 24.0161 0.51709 17.6667 0.51709C10.8436 0.51709 5.49875 3.34655 5.49875 6.95859C5.49875 7.11363 5.50934 7.26703 5.52869 7.41899L5.49882 26.873C5.49882 26.8733 5.49875 26.8735 5.49875 26.8738V29.2578C5.49875 31.801 7.22667 33.9887 9.70189 34.578L9.73409 34.5857C12.3297 35.2037 14.9986 35.5171 17.6667 35.5171C20.3349 35.5171 23.0037 35.2037 25.5982 34.586L25.6326 34.5779C28.1067 33.9888 29.8346 31.8011 29.8346 29.2578V26.9038V26.8739V6.53271C29.8347 6.41931 29.8067 6.3126 29.7578 6.21847ZM9.85242 3.49824C11.9283 2.45747 14.7035 1.88428 17.6667 1.88428C20.63 1.88428 23.4051 2.45747 25.481 3.49824C27.3789 4.4498 28.4675 5.71104 28.4675 6.95859C28.4675 8.20615 27.3789 9.46738 25.481 10.419C23.4051 11.4598 20.63 12.033 17.6667 12.033C14.7035 12.033 11.9283 11.4598 9.85242 10.419C8.13681 9.55885 7.08277 8.44562 6.89601 7.31823L6.89711 6.59301C7.0866 5.46768 8.13981 4.3569 9.85242 3.49824ZM23.8131 27.6377L23.802 12.5484C24.2924 12.3997 24.7603 12.2335 25.2027 12.0512L25.1813 27.3469C24.7271 27.4536 24.2711 27.5505 23.8131 27.6377ZM10.1415 27.3427L10.1306 12.0511C10.5627 12.2292 11.0194 12.3918 11.4973 12.5378L11.5084 27.634C11.0509 27.5467 10.5953 27.4496 10.1415 27.3427ZM12.8758 27.8651L12.8647 12.8966C13.3068 12.9945 13.7632 13.0789 14.2317 13.1494L14.2429 28.0371C13.7858 27.9894 13.33 27.9319 12.8758 27.8651ZM15.6102 28.1514L15.5991 13.3109C16.0463 13.3499 16.5024 13.3764 16.9663 13.3898L16.9775 28.2087C16.5206 28.1992 16.0649 28.1797 15.6102 28.1514ZM18.3446 28.209L18.3335 13.3909C18.8089 13.3779 19.276 13.3508 19.734 13.311L19.7128 28.1525C19.2578 28.1807 18.8017 28.1997 18.3446 28.209ZM21.1014 13.1494C21.5582 13.0807 22.0034 12.9988 22.4351 12.904L22.4461 27.8679C21.9922 27.9345 21.5368 27.9915 21.08 28.0391L21.1014 13.1494ZM8.76291 11.3907L8.77405 26.9895C8.13366 26.8093 7.49771 26.6094 6.86669 26.3898L6.89191 9.99758C7.39709 10.508 8.02736 10.9759 8.76291 11.3907ZM28.4675 29.2578C28.4675 31.1653 27.1715 32.806 25.317 33.2476L25.2826 33.2557C22.7907 33.8491 20.2283 34.1499 17.6667 34.1499C15.1051 34.1499 12.5428 33.8491 10.0497 33.2555L10.0175 33.2478C8.16189 32.806 6.86594 31.1653 6.86594 29.2578V27.8357C10.3538 28.9958 13.9826 29.5833 17.6668 29.5833C21.3514 29.5833 24.9798 28.9958 28.4675 27.8358V29.2578ZM28.4675 26.3911C27.8328 26.6119 27.1932 26.8132 26.549 26.9942L26.5707 11.4405C26.5707 11.4241 26.5694 11.408 26.5683 11.3919C27.3175 10.9696 27.9575 10.4924 28.4674 9.97119V26.3911H28.4675Z" fill="black"/>
</g>
</g>
<defs>
<clipPath id="clip0_29994_918">
<rect width="35" height="35" fill="white" transform="translate(0.166718 0.51709)"/>
</clipPath>
</defs>
</svg>
