<svg xmlns="http://www.w3.org/2000/svg" width="110" height="30" viewBox="0 0 110 30" fill="none">
  <g clip-path="url(#clip0_12341_1441)">
    <mask id="mask0_12341_1441" style="mask-type:luminance" maskUnits="userSpaceOnUse" x="0" y="0" width="110" height="30">
      <path d="M109.772 0H0V29.1231H109.772V0Z" fill="white"/>
    </mask>
    <g mask="url(#mask0_12341_1441)">
      <path fill-rule="evenodd" clip-rule="evenodd" d="M24.0022 24.0369C25.9913 26.4942 29.0633 28.2931 32.2751 28.2931C35.7052 28.2931 38.7979 26.3433 40.8456 23.6796C42.9338 20.9454 43.9582 17.4948 43.9582 14.0753C43.9582 10.505 42.8346 6.88606 40.5775 4.09202C38.6184 1.66645 35.5662 -0.153602 32.3842 -0.153602C28.9237 -0.153602 25.8117 1.76561 23.7434 4.44993C21.6459 7.18411 20.6314 10.6347 20.6314 14.0648C20.6314 17.6345 21.7356 21.2441 24.0022 24.0369ZM9.67468 0.433134H0V0.710659H2.54584L12.5385 28.0337L21.1289 0.710659H23.4359V0.433134H18.2158V0.710659H20.612L14.517 20.4772L7.2984 0.710659H9.67468V0.433134ZM65.137 9.45126V-0.0444708H64.9199C64.254 0.452494 63.4783 1.01928 62.6129 1.01928C61.9177 1.01928 61.2118 0.79104 60.5652 0.552238L59.9978 0.33339C59.2222 0.0247668 58.3972 -0.233398 57.5617 -0.233398C55.4242 -0.233398 53.4158 0.710657 51.7554 1.99385C48.0566 4.84715 46.3163 9.72937 46.3163 14.2935C46.3163 20.5371 50.075 28.0637 57.134 28.0637C58.6747 28.0637 60.0078 27.6171 61.4002 27.0005L62.0168 26.6626C62.7015 26.2846 63.4672 26.006 64.2534 26.006C65.3365 26.006 66.182 26.5928 66.7195 27.4875H66.9072V16.5103H69.0354V16.2227H59.9374V16.5103H62.4228V23.8492C62.4228 24.3362 62.4029 24.8126 62.1442 25.2404C61.1402 26.8814 59.1313 27.836 57.2425 27.836C54.8656 27.836 53.5831 26.713 52.6983 24.4259C51.4356 21.1648 51.1575 17.5758 51.1575 14.0953C51.1575 10.2076 51.6744 0.0159655 57.3616 0.0159655C59.8376 0.0159655 61.7369 2.18277 62.9297 4.11197C63.9337 5.76245 64.5104 7.58192 64.9181 9.45126H65.137ZM77.5559 0.433134H67.8518L67.8524 0.710659H70.5063V20.8151C70.5063 25.8071 75.3198 27.9246 79.6846 27.9246C83.5418 27.9246 87.6582 26.0054 87.6582 21.6712V0.710659H92.4713V27.2089H90.1942V27.4875H109.772V17.1968H109.553C109.504 18.1913 109.423 19.1952 109.255 20.1798C108.947 21.9399 108.061 23.5705 106.789 24.8231C105.297 26.2941 103.2 27.2089 101.091 27.2089H97.0249V13.7661C97.5119 13.7262 97.989 13.6963 98.4759 13.6963C101.569 13.6963 102.731 16.5202 103.159 19.1547H103.408V8.12817H103.159C103.01 11.0319 102.125 13.3783 98.7153 13.3783C98.148 13.3783 97.5806 13.3384 97.0249 13.2792V0.710659H99.7386C102.254 0.710659 104.701 0.90956 106.5 2.94788C108.279 4.96625 108.777 7.62122 109.065 10.2064H109.254V0.432548H84.2077V0.710659H87.2493V21.592C87.2493 24.8637 84.5551 27.0902 81.3532 27.0902C78.3809 27.0902 74.9807 25.0813 74.9807 21.7809V0.711246H77.5559V0.433134ZM32.5406 0.472145C37.8799 0.472145 39.2916 10.3358 39.2916 14.2833C39.2916 18.2309 37.8799 28.1033 32.5406 28.1038C27.1914 28.1038 25.789 18.2403 25.789 14.2833C25.789 10.3258 27.1814 0.472145 32.5406 0.472145Z" fill="white"/>
    </g>
  </g>
  <defs>
    <clipPath id="clip0_12341_1441">
      <rect width="109.772" height="29.1231" fill="white"/>
    </clipPath>
  </defs>
</svg>