<svg xmlns="http://www.w3.org/2000/svg" width="126" height="61" viewBox="0 0 126 61" fill="none">
  <path fill-rule="evenodd" clip-rule="evenodd" d="M13.2263 41.4642C15.2618 42.3357 17.3397 42.8586 19.5872 43.0329C20.3505 43.12 21.6651 43.0764 21.6227 43.0764C24.2094 43.0329 26.7114 42.4664 29.0861 41.4642C31.6305 40.3313 33.8356 38.8062 35.7863 36.889C37.6946 34.9718 39.2636 32.706 40.4086 30.0916C41.5535 27.4772 42.1472 24.6885 42.1472 21.6819C42.1472 18.6753 41.5535 15.8866 40.4086 13.2722C39.2636 10.6578 37.737 8.392 35.7863 6.43119C33.878 4.51396 31.6305 2.98889 29.0861 1.85599C26.5842 0.76665 23.9126 0.200195 21.1562 0.200195C18.3998 0.200195 15.7706 0.76665 13.2687 1.85599C10.7667 2.94532 8.51919 4.47039 6.61091 6.43119C4.66023 8.392 3.13361 10.6578 1.98865 13.2722C0.843685 15.8866 0.25 18.7189 0.25 21.6819C0.25 24.6885 0.843685 27.5207 1.94624 30.0916C3.13361 32.706 4.66023 34.9718 6.56851 36.889C8.47678 38.8062 10.7243 40.3313 13.2263 41.4642ZM26.7114 40.3749C25.1848 41.3771 23.3189 41.9 21.1562 41.9C19.0359 41.9 17.17 41.4206 15.6434 40.3313C14.0744 39.3291 12.8022 37.8912 11.8269 36.1047C10.8091 34.3182 10.0882 32.1831 9.62175 29.6994C9.15528 27.2157 8.90084 24.5142 8.90084 21.6383C8.90084 18.7625 9.15528 16.0609 9.62175 13.5772C10.1306 11.0936 10.8515 8.95845 11.8269 7.12837C12.8022 5.29829 14.0744 3.90394 15.6434 2.85817C17.17 1.81241 19.0359 1.28953 21.1986 1.28953C23.3613 1.28953 25.1848 1.81241 26.7538 2.85817C28.2804 3.90394 29.5526 5.34186 30.5704 7.12837C31.5881 8.91488 32.309 11.0935 32.7331 13.5337C33.1995 16.0173 33.454 18.7189 33.454 21.6383C33.454 24.6013 33.1995 27.3029 32.7331 29.743C32.2666 32.2267 31.5457 34.3618 30.5279 36.1483C29.5526 37.9348 28.2804 39.3727 26.7114 40.3749ZM113.729 34.3182C113.008 35.2332 112.033 35.974 110.803 36.6276C109.573 37.2812 108.089 37.5862 106.35 37.5862C104.993 37.5862 103.763 37.3683 102.576 36.9326C101.431 36.4969 100.456 35.7997 99.6077 34.8846C98.8444 34.0132 98.2507 32.8803 97.7842 31.5295L113.729 24.0784C113.729 24.0784 113.686 21.3333 111.227 17.9782C110.336 16.8017 109.064 16.0174 107.665 15.3202C106.265 14.623 104.696 14.2744 102.958 14.2744C101.262 14.2744 99.6501 14.623 98.0811 15.3637C96.512 16.0609 95.1126 17.1067 93.9253 18.4139C92.7379 19.7211 91.7626 21.2897 91.0416 23.1198C90.3207 24.9499 89.9391 26.9543 89.9391 29.2201C89.9391 31.1809 90.2359 33.011 90.8296 34.6668C91.4233 36.3661 92.2714 37.8476 93.4164 39.0677C94.5189 40.3313 95.8759 41.2899 97.445 42.0307C99.014 42.7279 100.753 43.12 102.703 43.12C105.714 43.12 108.174 42.2921 110.082 40.6799C111.99 39.0677 113.305 36.9762 114.068 34.5361L113.729 34.3182ZM97.0209 24.6885C97.1057 23.4248 97.2753 22.2484 97.5298 21.1154C97.7842 19.9825 98.1659 18.9803 98.6323 18.1524C99.0988 17.281 99.6501 16.6274 100.371 16.1481C101.049 15.6688 101.855 15.4073 102.746 15.4073C104.188 15.4073 105.248 16.0174 106.011 17.281C106.774 18.501 107.114 21.3769 107.114 24.0784V25.8214L97.5722 30.4837C97.2329 29.0894 97.0209 27.695 97.0209 25.8214V24.6885ZM68.6097 42.2483H61.9519V36.2787L61.9095 36.2352C61.5279 37.0195 61.0614 37.8038 60.5101 38.6317C59.9588 39.4596 59.3652 40.1568 58.6019 40.8104C57.881 41.464 57.0328 42.0304 56.0999 42.4226C55.167 42.8583 54.1068 43.0762 52.9618 43.0762C50.5871 43.0762 48.806 42.2483 47.5763 40.5489C46.3465 38.8496 45.7528 36.6273 45.7528 33.795V15.1021H52.7074V33.3593C52.7074 34.9715 53.0466 36.2352 53.7676 37.1502C54.4885 38.0652 55.5486 38.501 56.9056 38.501C58.093 38.501 59.0259 38.196 59.7892 37.5859C60.5525 36.9759 61.1886 36.1916 61.6551 35.233V15.1021H68.6097V42.2483ZM42.1454 47.608C39.3042 47.608 36.675 47.8694 34.3002 48.3487C31.9255 48.828 29.8476 49.6123 28.0665 50.6145C26.3279 51.6603 24.9285 52.9675 23.9532 54.5361C22.9778 56.1048 22.4689 58.022 22.4689 60.2007H21.324V59.7214C21.4088 57.0634 21.9177 54.4926 22.893 52.0525C23.9956 49.4816 25.4798 47.1722 27.3456 45.1679C29.2115 43.1635 31.4166 41.5948 33.961 40.4184C36.5054 39.2419 39.2193 38.6318 42.1454 38.6318V47.608ZM84.4237 16.5834C85.1446 15.8862 85.9503 15.3198 86.8408 14.8841C87.7314 14.4483 88.4523 14.2305 89.4276 14.274V22.3787H88.8763C88.6219 22.0301 88.2402 21.7251 87.7738 21.4201C87.3073 21.1586 86.8408 20.8972 86.3319 20.6793C85.8655 20.4615 85.3566 20.2872 84.8901 20.1564C84.4237 20.0257 84.042 19.9386 83.7028 19.9386C83.2787 19.9386 82.7698 20.1129 82.2186 20.4615C81.7097 20.81 81.1584 21.2893 80.6495 21.9429L80.6919 42.2482H73.6101V30.7012L73.6525 15.1019H80.6495V20.6793C81.0849 20.1947 81.5512 19.6463 82.0487 19.0614C82.1327 18.9627 82.2176 18.8628 82.3034 18.7621C82.9819 17.9778 83.6604 17.237 84.4237 16.5834Z" fill="white"/>
  <path d="M119.584 17.0752V17.8479H118.317V21.8483H117.363V17.8479H116.096V17.0752H119.584Z" fill="white"/>
  <path d="M125.75 17.0752V21.8483H124.796V18.7437L123.522 21.8483H122.799L121.518 18.7437V21.8483H120.564V17.0752H121.648L123.16 20.6243L124.673 17.0752H125.75Z" fill="white"/>
</svg>