<svg xmlns="http://www.w3.org/2000/svg" width="73" height="73" viewBox="0 0 73 73" fill="none">
  <circle cx="36.7406" cy="36.4506" r="35.4506" stroke="black" stroke-width="1.57923"/>
  <path d="M70.2938 24.4229C68.3947 28.2213 69.3556 36.3749 66.8288 38.9017C63.6704 42.0601 48.6677 40.4809 43.1404 38.9017C37.6131 37.3224 33.6651 34.9536 26.5585 33.3744C19.452 31.7951 18.6624 31.7951 17.8728 31.7951C17.0832 31.7951 13.9247 30.2159 13.1351 30.2159C12.3455 30.2159 10.7663 28.6367 8.39741 27.8471C6.02857 27.0575 6.02857 26.2678 5.23896 26.2678C4.60727 26.2678 3.92294 25.7414 3.65973 25.4782M70.2938 26.2678C70.0306 29.1631 67.7764 44.5869 65.2496 45.2186C62.0911 46.0082 58.9327 46.7978 57.3535 46.7978C55.7742 46.7978 52.6158 48.377 43.93 46.7978C35.2443 45.2186 32.8754 45.2186 28.1378 45.2186C23.4001 45.2186 19.452 45.2186 17.8728 45.2186C16.2936 45.2186 13.9247 45.2186 12.3455 45.2186C10.7663 45.2186 9.97664 44.429 6.81819 45.2186C4.29142 45.8503 3.13332 46.5346 2.87012 46.7978M42.4395 46.5314C39.0179 47.5842 28.7694 51.6934 24.9793 52.3251C20.2416 53.1147 20.2416 53.9043 17.8728 53.1147C15.5039 52.3251 15.5039 52.3251 13.9247 52.3251C12.3455 52.3251 10.7663 52.3251 9.18703 52.3251C7.92364 52.3251 7.08139 52.8515 6.81819 53.1147H5.23896M69.1977 50.3781C66.3024 51.1677 55.4584 53.4306 51.0366 54.6939C45.5093 56.2732 46.2989 57.0628 43.1404 57.0628C39.982 57.0628 36.0339 57.0628 32.0858 57.0628C28.1378 57.0628 26.5585 57.8524 24.1897 57.8524C22.2946 57.8524 17.0832 61.5373 14.7143 63.3797" stroke="black" stroke-width="1.57923"/>
</svg>