<svg xmlns="http://www.w3.org/2000/svg" width="74" height="73" viewBox="0 0 74 73" fill="none">
  <circle cx="36.8568" cy="36.2534" r="35.4506" stroke="black" stroke-width="1.57923"/>
  <path d="M8.75586 57.7779C11.4017 57.7779 12.7683 56.6584 13.9895 55.6588C15.0944 54.7392 16.0539 53.9796 18.0601 53.9796C20.0663 53.9796 21.0258 54.7392 22.1307 55.6588C23.3518 56.6584 24.7184 57.7779 27.3643 57.7779C30.0102 57.7779 31.3767 56.6584 32.5979 55.6588C33.7028 54.7392 34.6623 53.9796 36.6394 53.9796C38.6166 53.9796 39.6052 54.7392 40.681 55.6588C41.9021 56.6584 43.2687 57.7779 45.9146 57.7779C48.5605 57.7779 49.9271 56.6584 51.1482 55.6588C52.2531 54.7392 53.2126 53.9796 55.1897 53.9796C57.1669 53.9796 58.1264 54.7392 59.2313 55.6588C60.4524 56.6584 61.819 57.7779 64.4649 57.7779" stroke="black" stroke-width="1.26611"/>
  <path d="M2.4248 47.649L70.795 47.649" stroke="black" stroke-width="1.26611"/>
  <path d="M1.15918 41.3185H72.0616" stroke="black" stroke-width="1.26611"/>
  <path d="M27.9173 32.0884C29.6166 33.2762 33.5258 35.0957 35.5681 32.8717C37.6105 30.6477 41.2685 26.7151 42.8422 25.0268L39.0433 24.8542L43.2602 22.9699C45.1368 20.7229 48.959 15.3301 49.2353 11.7342C49.5806 7.23937 44.0844 7.73289 42.9306 9.21816C42.0075 10.4064 40.8794 11.8587 40.4306 12.4363L39.7811 10.741C39.4848 11.9662 38.5845 14.8128 37.3538 16.397C35.8154 18.3774 29.1653 20.3562 27.8389 24.0889C26.7777 27.0751 26.8172 29.1169 26.9695 29.7645M45.2105 13.3709C41.0218 19.7757 30.3797 32.9693 21.3202 34.5054" stroke="black" stroke-width="1.26611"/>
</svg>