<svg width="20" height="11" viewBox="0 0 20 11" fill="none" xmlns="http://www.w3.org/2000/svg">
<path fill-rule="evenodd" clip-rule="evenodd" d="M11.709 0.924805H12.8504V8.68634H9.77492C9.54664 7.77321 8.84173 7.08837 7.59748 7.08837C6.35322 7.08837 5.64831 7.77321 5.42003 8.68634H5.0889C5.0889 8.68634 5.0889 8.68634 5.0889 8.45806C5.0889 8.00149 4.63234 7.31665 4.17578 7.08837V0.924805L11.709 0.924805Z" fill="black"/>
<path d="M4.17578 5.9248H0.175781" stroke="black"/>
<path d="M5.17578 3.9248H1.17578" stroke="black"/>
<path fill-rule="evenodd" clip-rule="evenodd" d="M7.59843 8.12207C8.28327 8.12207 8.73983 8.57863 8.73983 9.26347C8.73983 9.94831 8.28327 10.4049 7.59843 10.4049C6.91359 10.4049 6.45703 9.94831 6.45703 9.26347C6.45703 8.57863 6.91359 8.12207 7.59843 8.12207Z" fill="black"/>
<path fill-rule="evenodd" clip-rule="evenodd" d="M16.7156 8.12207C17.4005 8.12207 17.857 8.57863 17.857 9.26347C17.857 9.94831 17.4005 10.4049 16.7156 10.4049C16.0308 10.4049 15.5742 9.94831 15.5742 9.26347C15.5742 8.57863 16.0308 8.12207 16.7156 8.12207Z" fill="black"/>
<path fill-rule="evenodd" clip-rule="evenodd" d="M14.3572 2.87158H17.0966L19.1511 5.38267V8.80687H18.7949C18.5666 7.89375 17.8617 7.20891 16.64 7.20891C15.3732 7.20891 14.6683 7.89375 14.44 8.80687H14.1289V2.87158H14.3572Z" fill="black"/>
</svg>
