<svg xmlns="http://www.w3.org/2000/svg" width="16" height="16" viewBox="0 0 16 16" fill="none">
  <g clip-path="url(#clip0_17475_2125)">
    <path d="M6.77668 2.03749C7.25662 1.45658 8.14696 1.45658 8.6269 2.03749L9.3469 2.90897C9.60082 3.2163 9.99076 3.37747 10.3875 3.33908L11.5145 3.23007C12.2663 3.15733 12.8976 3.7891 12.8243 4.54094L12.716 5.65187C12.6771 6.05058 12.8398 6.4424 13.1496 6.69636L14.0141 7.40508C14.5998 7.88514 14.5998 8.78106 14.0141 9.26112L13.1496 9.96984C12.8398 10.2238 12.6771 10.6156 12.716 11.0143L12.8243 12.1253C12.8976 12.8771 12.2663 13.5089 11.5145 13.4361L10.3875 13.3271C9.99076 13.2887 9.60082 13.4499 9.3469 13.7572L8.6269 14.6287C8.14696 15.2096 7.25662 15.2096 6.77668 14.6287L6.05667 13.7572C5.80276 13.4499 5.41281 13.2887 5.01602 13.3271L3.88914 13.4361C3.13724 13.5089 2.50596 12.8771 2.57926 12.1253L2.68757 11.0143C2.72644 10.6156 2.5638 10.2238 2.25399 9.96984L1.38945 9.26112C0.803779 8.78106 0.803779 7.88514 1.38945 7.40508L2.25399 6.69636C2.5638 6.4424 2.72644 6.05058 2.68757 5.65187L2.57926 4.54094C2.50596 3.7891 3.13724 3.15733 3.88914 3.23007L5.01602 3.33908C5.41281 3.37747 5.80276 3.2163 6.05667 2.90897L6.77668 2.03749Z" stroke="black" stroke-width="0.86"/>
    <path d="M5.37549 8.79648L6.74835 10.1639C7.00641 10.421 7.43205 10.3907 7.65111 10.0997L10.0283 6.94263" stroke="black" stroke-width="0.86" stroke-linecap="round"/>
  </g>
  <defs>
    <clipPath id="clip0_17475_2125">
      <rect width="15" height="15" fill="white" transform="translate(0.5 0.833008)"/>
    </clipPath>
  </defs>
</svg>