<svg xmlns="http://www.w3.org/2000/svg" width="73" height="73" viewBox="0 0 73 73" fill="none">
  <circle cx="36.4506" cy="36.2534" r="35.4506" stroke="black" stroke-width="1.57923"/>
  <path fill-rule="evenodd" clip-rule="evenodd" d="M59.6996 29.5414C57.8366 29.5414 56.3252 31.0518 56.3252 32.9158C56.3252 34.7798 57.8352 36.2902 59.6996 36.2902C61.5625 36.2902 63.074 34.7798 63.074 32.9158C63.074 31.0518 61.564 29.5414 59.6996 29.5414Z" fill="url(#paint0_radial_11716_1996)"/>
  <path fill-rule="evenodd" clip-rule="evenodd" d="M42.6341 15.9961C40.7712 15.9961 39.2598 17.5064 39.2598 19.3705C39.2598 21.2345 40.7698 22.7448 42.6341 22.7448C44.4971 22.7448 46.0085 21.2345 46.0085 19.3705C46.0085 17.5064 44.4985 15.9961 42.6341 15.9961Z" fill="url(#paint1_radial_11716_1996)"/>
  <path fill-rule="evenodd" clip-rule="evenodd" d="M16.0619 40.4509C14.1989 40.4509 12.6875 41.9613 12.6875 43.8253C12.6875 45.6893 14.1975 47.1997 16.0619 47.1997C17.9248 47.1997 19.4363 45.6893 19.4363 43.8253C19.4363 41.9613 17.9263 40.4509 16.0619 40.4509Z" fill="url(#paint2_radial_11716_1996)"/>
  <path fill-rule="evenodd" clip-rule="evenodd" d="M49.4717 32.9501C46.4794 32.9501 44.0518 35.3761 44.0518 38.3701C44.0518 41.364 46.4771 43.79 49.4717 43.79C52.4639 43.79 54.8916 41.364 54.8916 38.3701C54.8916 35.3761 52.4662 32.9501 49.4717 32.9501Z" fill="url(#paint3_radial_11716_1996)"/>
  <path fill-rule="evenodd" clip-rule="evenodd" d="M14.0166 19.9952C11.0243 19.9952 8.59668 22.4211 8.59668 25.4151C8.59668 28.409 11.022 30.835 14.0166 30.835C17.0088 30.835 19.4365 28.409 19.4365 25.4151C19.4365 22.4211 17.0111 19.9952 14.0166 19.9952Z" fill="url(#paint4_radial_11716_1996)"/>
  <path fill-rule="evenodd" clip-rule="evenodd" d="M33.3058 24.6013C27.6592 24.6013 23.0781 29.1791 23.0781 34.8289C23.0781 40.4787 27.6549 45.0566 33.3058 45.0566C38.9523 45.0566 43.5334 40.4787 43.5334 34.8289C43.5334 29.1791 38.9566 24.6013 33.3058 24.6013Z" fill="url(#paint5_radial_11716_1996)"/>
  <path fill-rule="evenodd" clip-rule="evenodd" d="M44.0538 45.9052C40.2894 45.9052 37.2354 48.9571 37.2354 52.7236C37.2354 56.4902 40.2865 59.5421 44.0538 59.5421C47.8181 59.5421 50.8722 56.4902 50.8722 52.7236C50.8722 48.9571 47.821 45.9052 44.0538 45.9052Z" fill="url(#paint6_radial_11716_1996)"/>
  <defs>
    <radialGradient id="paint0_radial_11716_1996" cx="0" cy="0" r="1" gradientUnits="userSpaceOnUse" gradientTransform="translate(59.6996 32.9158) rotate(90) scale(3.37438)">
      <stop/>
      <stop offset="1" stop-color="#D1D1D1" stop-opacity="0"/>
    </radialGradient>
    <radialGradient id="paint1_radial_11716_1996" cx="0" cy="0" r="1" gradientUnits="userSpaceOnUse" gradientTransform="translate(42.6341 19.3705) rotate(90) scale(3.37438)">
      <stop/>
      <stop offset="1" stop-color="#D1D1D1" stop-opacity="0"/>
    </radialGradient>
    <radialGradient id="paint2_radial_11716_1996" cx="0" cy="0" r="1" gradientUnits="userSpaceOnUse" gradientTransform="translate(16.0619 43.8253) rotate(90) scale(3.37438)">
      <stop/>
      <stop offset="1" stop-color="#D1D1D1" stop-opacity="0"/>
    </radialGradient>
    <radialGradient id="paint3_radial_11716_1996" cx="0" cy="0" r="1" gradientUnits="userSpaceOnUse" gradientTransform="translate(49.4717 38.3701) rotate(90) scale(5.41991)">
      <stop/>
      <stop offset="1" stop-color="#D1D1D1" stop-opacity="0"/>
    </radialGradient>
    <radialGradient id="paint4_radial_11716_1996" cx="0" cy="0" r="1" gradientUnits="userSpaceOnUse" gradientTransform="translate(14.0166 25.4151) rotate(90) scale(5.41991)">
      <stop/>
      <stop offset="1" stop-color="#D1D1D1" stop-opacity="0"/>
    </radialGradient>
    <radialGradient id="paint5_radial_11716_1996" cx="0" cy="0" r="1" gradientUnits="userSpaceOnUse" gradientTransform="translate(33.3058 34.8289) rotate(90) scale(10.2276)">
      <stop/>
      <stop offset="1" stop-color="#D1D1D1" stop-opacity="0"/>
    </radialGradient>
    <radialGradient id="paint6_radial_11716_1996" cx="0" cy="0" r="1" gradientUnits="userSpaceOnUse" gradientTransform="translate(44.0538 52.7236) rotate(90) scale(6.81842)">
      <stop/>
      <stop offset="1" stop-color="#D1D1D1" stop-opacity="0"/>
    </radialGradient>
  </defs>
</svg>