<svg xmlns="http://www.w3.org/2000/svg" width="73" height="73" viewBox="0 0 73 73" fill="none">
  <circle cx="36.4506" cy="36.4506" r="35.4506" stroke="black" stroke-width="1.57923"/>
  <path d="M55.9663 27.8469L52.8798 34.7131M23.1562 35.1848L35.5734 38.0089L44.5463 39.1075L51.3983 38.0089L52.8798 34.7131M47.9723 38.5582L51.3983 51.7413L49.6037 59.2942L46.504 66.435V70.4861M69.6965 47.5873L52.8798 34.7131" stroke="black" stroke-width="1.57923"/>
  <path d="M1.78906 30.2158L34.9528 27.8469H56.2724L71.2751 30.2158" stroke="black" stroke-width="1.57923"/>
  <path d="M15.2139 29.4261L23.3887 35.2918L20.2674 43.2214C21.5555 45.5387 24.3399 50.4992 25.1723 51.8027C26.2127 53.432 27.2532 54.9528 27.2532 55.3873C27.2532 55.7349 26.6586 59.515 26.3614 61.3616V66.2497C26.6586 67.1187 27.2532 68.9436 27.2532 69.2912C27.2532 69.6388 27.3899 70.3822 27.588 70.6356" stroke="black" stroke-width="1.57923"/>
  <path d="M14.4229 29.4262L18.2017 47.7357L25.4085 54.1674L18.8284 62.776L19.4551 65.7444L18.8284 67.3276M26.5052 60.2033L34.8087 63.7654L36.8454 63.4183M56.2724 65.7444L54.7057 64.8539C54.6535 63.6665 54.4864 61.2126 54.2357 60.8959C53.985 60.5793 47.76 61.5556 44.6788 62.0833L36.8454 63.4183M34.8087 27.8469L37.4721 34.5755L30.8919 38.3355L27.2885 41.9966L30.8919 47.7357L33.0853 58.719L36.8454 63.4183" stroke="black" stroke-width="1.57923"/>
  <path d="M4.79785 30.1204L13.6327 40.4979L8.38746 49.7673L5.3418 53.1145" stroke="black" stroke-width="1.57923"/>
</svg>