<svg xmlns="http://www.w3.org/2000/svg" width="42" height="36" viewBox="0 0 42 36" fill="none">
  <g opacity="0.8">
    <path fill-rule="evenodd" clip-rule="evenodd" d="M21.6116 6.36401H24.4315V25.5396H16.8332C16.2692 23.2836 14.5276 21.5917 11.4536 21.5917C8.37957 21.5917 6.63802 23.2836 6.07404 25.5396H5.25595C5.25595 25.5396 5.25595 25.5396 5.25595 24.9756C5.25595 23.8476 4.12797 22.1556 3 21.5917V6.36402L21.6116 6.36401Z" stroke="black" stroke-width="1.5" stroke-miterlimit="2.61313" stroke-linecap="round" stroke-linejoin="round"/>
    <path fill-rule="evenodd" clip-rule="evenodd" d="M11.4606 24.146C13.1525 24.146 14.2805 25.274 14.2805 26.9659C14.2805 28.6579 13.1525 29.7859 11.4606 29.7859C9.7686 29.7859 8.64062 28.6579 8.64062 26.9659C8.64062 25.274 9.7686 24.146 11.4606 24.146Z" stroke="black" stroke-width="1.5" stroke-miterlimit="2.61313" stroke-linecap="round" stroke-linejoin="round"/>
    <path fill-rule="evenodd" clip-rule="evenodd" d="M33.984 24.146C35.676 24.146 36.8039 25.274 36.8039 26.9659C36.8039 28.6579 35.676 29.7859 33.984 29.7859C32.292 29.7859 31.1641 28.6579 31.1641 26.9659C31.1641 25.274 32.292 24.146 33.984 24.146Z" stroke="black" stroke-width="1.5" stroke-miterlimit="2.61313" stroke-linecap="round" stroke-linejoin="round"/>
    <path fill-rule="evenodd" clip-rule="evenodd" d="M28.1577 11.1741H34.9256L40.0015 17.3779V25.8377H39.1214C38.5574 23.5818 36.8159 21.8898 33.7976 21.8898C30.6678 21.8898 28.9262 23.5818 28.3623 25.8377H27.5938V11.1741H28.1577Z" stroke="black" stroke-width="1.5" stroke-miterlimit="2.61313" stroke-linecap="round" stroke-linejoin="round"/>
    <path d="M40.0003 17.0378L28.1406 17.0378" stroke="black" stroke-width="1.5"/>
    <path d="M30.5117 11.108L30.5117 17.0378" stroke="black" stroke-width="1.5"/>
    <path d="M19.838 6.36401H3.23438V19.4097H19.838V6.36401Z" stroke="black" stroke-width="1.5" stroke-miterlimit="2.61313" stroke-linecap="round" stroke-linejoin="round"/>
    <path d="M12.1057 14.7186L12.1068 14.7185C12.4692 14.7122 12.8193 14.6323 13.1512 14.4915L13.1512 14.4915L13.1521 14.4911C13.5078 14.3318 13.8161 14.1173 14.0887 13.848L14.089 13.8476C14.3559 13.578 14.5753 13.2593 14.7353 12.8919C14.8956 12.5238 14.9787 12.1311 14.9787 11.7083C14.9787 11.2855 14.8956 10.8929 14.7353 10.5248C14.5754 10.1577 14.362 9.83894 14.0891 9.56305L14.089 9.56304C13.8219 9.29316 13.5075 9.07869 13.1521 8.91955L13.1517 8.91938C12.8012 8.76593 12.4268 8.68608 12.0405 8.68608C11.6542 8.68608 11.2856 8.76597 10.9352 8.91938C10.5854 9.07257 10.2708 9.28717 10.0035 9.56325C9.73069 9.83909 9.51729 10.1577 9.35744 10.5248C9.19711 10.8929 9.11406 11.2916 9.11406 11.7083C9.11406 12.131 9.19707 12.5295 9.35146 12.8915L9.35145 12.8915L9.35188 12.8925C9.51745 13.2591 9.73074 13.5777 9.99789 13.8476C10.265 14.1175 10.5793 14.3319 10.9287 14.491L10.9287 14.491L10.9297 14.4914C11.2144 14.614 11.5054 14.6877 11.8199 14.7123C11.8753 14.7186 11.9488 14.72 12.0063 14.72C12.0355 14.72 12.0612 14.7197 12.0793 14.7193L12.1002 14.7187L12.1057 14.7186ZM12.7779 14.2527L12.7773 14.253C12.5766 14.3855 12.3298 14.4557 12.0405 14.4557C11.7564 14.4557 11.5107 14.3912 11.3112 14.2481L11.3112 14.248L11.3091 14.2466C11.1014 14.1132 10.9317 13.9211 10.8009 13.68L10.8009 13.68L10.8004 13.6793C10.6638 13.4381 10.5661 13.1482 10.5027 12.8085C10.4391 12.468 10.4043 12.0973 10.4043 11.7023C10.4043 11.3075 10.4391 10.9369 10.5026 10.5965C10.5719 10.2565 10.6697 9.96602 10.8011 9.71809C10.9316 9.47189 11.1011 9.2853 11.3099 9.14538L11.3099 9.14538L11.3104 9.14502C11.5107 9.00704 11.7571 8.93681 12.0464 8.93681C12.3352 8.93681 12.576 9.00681 12.7826 9.14521C12.9854 9.28499 13.1555 9.47783 13.2923 9.71933C13.4289 9.96035 13.5265 10.256 13.5841 10.5894L13.5841 10.5894L13.5843 10.5901C13.6478 10.9305 13.6826 11.3013 13.6826 11.7023C13.6826 12.1094 13.6478 12.4801 13.5843 12.8143L13.5843 12.8145C13.5208 13.1543 13.4231 13.4441 13.2865 13.6853L13.2861 13.6861C13.1552 13.9271 12.9856 14.1192 12.7779 14.2527L12.7779 14.2527Z" fill="black" stroke="black" stroke-width="0.1" stroke-linecap="round" stroke-linejoin="round"/>
    <path d="M14.9273 15.3454C14.9549 15.3454 14.9773 15.323 14.9773 15.2954V14.0535C14.9773 14.0259 14.9549 14.0035 14.9273 14.0035C14.5174 14.0035 14.1368 14.0895 13.7801 14.2553C13.4245 14.4207 13.1157 14.6415 12.8543 14.9238C12.5935 15.2056 12.3862 15.53 12.2324 15.8908L12.2324 15.8908L12.2319 15.8919C12.0954 16.2353 12.0244 16.5967 12.0125 16.9699L12.0125 16.9699V16.9715V16.9715V16.9715V16.9715V16.9715V16.9715V16.9715V16.9715V16.9715V16.9715V16.9715V16.9715V16.9715V16.9715V16.9715V16.9715V16.9715V16.9716V16.9716V16.9716V16.9716V16.9716V16.9716V16.9716V16.9716V16.9717V16.9717V16.9717V16.9717V16.9717V16.9717V16.9718V16.9718V16.9718V16.9718V16.9718V16.9719V16.9719V16.9719V16.9719V16.9719V16.972V16.972V16.972V16.972V16.9721V16.9721V16.9721V16.9721V16.9722V16.9722V16.9722V16.9723V16.9723V16.9723V16.9723V16.9724V16.9724V16.9724V16.9725V16.9725V16.9725V16.9726V16.9726V16.9726V16.9727V16.9727V16.9728V16.9728V16.9728V16.9729V16.9729V16.973V16.973V16.973V16.9731V16.9731V16.9732V16.9732V16.9732V16.9733V16.9733V16.9734V16.9734V16.9735V16.9735V16.9736V16.9736V16.9737V16.9737V16.9738V16.9738V16.9739V16.9739V16.974V16.974V16.9741V16.9741V16.9742V16.9742V16.9743V16.9743V16.9744V16.9745V16.9745V16.9746V16.9746V16.9747V16.9747V16.9748V16.9749V16.9749V16.975V16.975V16.9751V16.9752V16.9752V16.9753V16.9754V16.9754V16.9755V16.9756V16.9756V16.9757V16.9758V16.9758V16.9759V16.976V16.976V16.9761V16.9762V16.9762V16.9763V16.9764V16.9765V16.9765V16.9766V16.9767V16.9767V16.9768V16.9769V16.977V16.977V16.9771V16.9772V16.9773V16.9774V16.9774V16.9775V16.9776V16.9777V16.9778V16.9778V16.9779V16.978V16.9781V16.9782V16.9783V16.9783V16.9784V16.9785V16.9786V16.9787V16.9788V16.9789V16.9789V16.979V16.9791V16.9792V16.9793V16.9794V16.9795V16.9796V16.9797V16.9798V16.9799V16.98V16.98V16.9801V16.9802V16.9803V16.9804V16.9805V16.9806V16.9807V16.9808V16.9809V16.981V16.9811V16.9812V16.9813V16.9814V16.9815V16.9816V16.9817V16.9818V16.9819V16.982V16.9821V16.9822V16.9824V16.9825V16.9826V16.9827V16.9828V16.9829V16.983V16.9831V16.9832V16.9833V16.9834V16.9835V16.9837V16.9838V16.9839V16.984V16.9841V16.9842V16.9843V16.9845V16.9846V16.9847V16.9848V16.9849V16.985V16.9852V16.9853V16.9854V16.9855V16.9856V16.9858V16.9859V16.986V16.9861V16.9862V16.9864V16.9865V16.9866V16.9867V16.9869V16.987V16.9871V16.9872V16.9874V16.9875V16.9876V16.9877V16.9879V16.988V16.9881V16.9883V16.9884V16.9885V16.9887V16.9888V16.9889V16.9891V16.9892V16.9893V16.9895V16.9896V16.9897V16.9899V16.99V16.9901V16.9903V16.9904V16.9906V16.9907V16.9908V16.991V16.9911V16.9913V16.9914V16.9915V16.9917V16.9918V16.992V16.9921V16.9923V16.9924V16.9925V16.9927V16.9928V16.993V16.9931V16.9933V16.9934V16.9936V16.9937V16.9939V16.994V16.9942V16.9943V16.9945V16.9946V16.9948V16.9949V16.9951V16.9952V16.9954V16.9955V16.9957V16.9959V16.996V16.9962V16.9963V16.9965V16.9966V16.9968V16.997V16.9971V16.9973V16.9974V16.9976V16.9978V16.9979V16.9981V16.9982V16.9984V16.9986V16.9987V16.9989V16.9991V16.9992V16.9994V16.9996V16.9997V16.9999V17.0001V17.0002V17.0004V17.0006V17.0007V17.0009V17.0011V17.0013V17.0014V17.0016V17.0018V17.0019V17.0021V17.0023V17.0025V17.0026V17.0028V17.003V17.0032V17.0033V17.0035V17.0037V17.0039V17.0041V17.0042V17.0044V17.0046V17.0048V17.005V17.0051V17.0053V17.0055V17.0057V17.0059V17.006V17.0062V17.0064V17.0066V17.0068V17.007V17.0072V17.0073V17.0075V17.0077V17.0079V17.0081V17.0083V17.0085V17.0087V17.0088V17.009V17.0092V17.0094V17.0096V17.0098V17.01V17.0102V17.0104V17.0106V17.0108V17.011V17.0112V17.0114V17.0116V17.0118V17.0119V17.0121V17.0123V17.0125V17.0127V17.0129V17.0131V17.0133V17.0135V17.0137V17.0139V17.0141V17.0144V17.0146V17.0148V17.015V17.0152V17.0154V17.0156V17.0158V17.016V17.0162V17.0164V17.0166V17.0168V17.017V17.0172V17.0174V17.0177V17.0179V17.0181V17.0183V17.0185V17.0187V17.0189V17.0191V17.0193V17.0196V17.0198V17.02V17.0202V17.0204V17.0206V17.0208V17.0211V17.0213V17.0215V17.0217V17.0219V17.0222V17.0224V17.0226V17.0228V17.023V17.0233V17.0235V17.0237V17.0239V17.0241V17.0244V17.0246V17.0248V17.025V17.0253V17.0255V17.0257V17.0259V17.0262V17.0264V17.0266V17.0268V17.0271V17.0273V17.0275V17.0278V17.028V17.0282V17.0285V17.0287V17.0289V17.0291V17.0294V17.0296V17.0298V17.0301V17.0303V17.0305V17.0308V17.031V17.0313V17.0315V17.0317V17.032V17.0322V17.0324V17.0327V17.0329V17.0332V17.0334V17.0336V17.0339V17.0341V17.0344V17.0346V17.0348V17.0351V17.0353V17.0356V17.0358V17.0361V17.0363V17.0365V17.0368V17.037V17.0373V17.0375V17.0378C12.0125 17.0654 12.0349 17.0878 12.0625 17.0878H12.22C12.2477 17.0878 12.27 17.0654 12.27 17.0378C12.27 16.7441 12.3382 16.4883 12.4668 16.2803C12.596 16.0712 12.7822 15.8958 13.0155 15.7546C13.2556 15.6188 13.5363 15.5122 13.8579 15.4469C14.181 15.3813 14.5394 15.3454 14.9273 15.3454Z" fill="black" stroke="black" stroke-width="0.1" stroke-linecap="round" stroke-linejoin="round"/>
  </g>
</svg>