<svg xmlns="http://www.w3.org/2000/svg" width="31" height="32" viewBox="0 0 31 32" fill="none">
  <g opacity="0.8">
    <rect x="4.08289" y="10.8769" width="22.8052" height="3.76103" stroke="black"/>
    <rect x="12.8182" y="10.8769" width="5.18934" height="3.76103" stroke="black"/>
    <rect x="14.0829" y="14.671" width="3" height="13" stroke="black"/>
    <rect x="14.0829" y="7.67102" width="3" height="3" stroke="black"/>
    <rect x="6.08286" y="14.671" width="19" height="13" stroke="black"/>
    <path d="M4.99279 9.93372C3.23138 7.55321 4.99279 4.9289 7.8698 5.18889C9.47279 5.33375 12.457 6.37713 13.4676 7.79126C13.8773 8.36465 13.7056 9.93372 13.7056 10.4098C11.0394 8.90405 5.13579 6.601 4.99279 9.93372Z" stroke="black"/>
    <path d="M25.8922 9.93372C27.6536 7.55321 25.8922 4.9289 23.0152 5.18889C21.4122 5.33375 18.4279 6.37713 17.4174 7.79126C17.0076 8.36465 17.1793 9.93372 17.1793 10.4098C19.8456 8.90405 25.7492 6.601 25.8922 9.93372Z" stroke="black"/>
  </g>
</svg>