<svg width="126" height="30" viewBox="0 0 126 30" fill="none" xmlns="http://www.w3.org/2000/svg">
<g id="glamour" clip-path="url(#clip0_21178_3399)">
<g id="Group 1000004023">
<path id="Vector" d="M29.4992 28.6479V23.5716H24.0698V0.441406H18.3906V28.6479H29.4992ZM42.6312 0.441406H36.6943L30.0729 28.6697H34.9949L36.3637 22.4896H42.2343L43.3381 28.6697H48.9445L42.6312 0.441406ZM37.0685 18.0978L39.2979 7.46026L41.5936 18.0541L37.0685 18.0978Z" fill="#C9C9C9"/>
<path id="Vector_2" d="M48.5945 0.441406H56.9822L60.1603 19.0909L63.9784 0.441406H71.6599V28.6479H66.0535V8.4461L61.4847 28.6406H58.019L53.4502 8.4097V28.6486H48.5938L48.5945 0.441406ZM121.516 16.6197C125.246 14.0597 125.268 11.2121 125.268 8.34344C125.268 2.45023 121.339 0.442135 117.345 0.442135H109.135V28.6486H114.631V17.8335H116.595L119.773 28.6704H125.556L121.516 16.6197ZM114.63 13.0229V4.92211C116.616 4.6134 119.596 4.67966 119.596 9.20332C119.596 11.3658 118.669 13.6396 114.63 13.0215" fill="#C9C9C9"/>
<path id="Vector_3" d="M12.6154 10.3726H17.1842C17.1842 10.3726 18.0448 -0.441776 9.32805 0.0212938C9.32805 0.0212938 0.720494 -0.265577 0.124911 13.1532C0.124911 13.1532 -1.02257 28.8233 8.04806 29.1102C8.04806 29.1102 12.6606 29.5296 14.3388 25.5353L15.0888 28.669H17.45V13.9032H9.1504V18.2514H12.5055C12.5055 18.2514 12.571 18.6708 12.571 19.7746C12.571 22.5777 11.2459 24.5858 9.1504 24.3652C7.60538 24.2109 5.7298 22.4226 5.7298 14.565C5.7298 14.565 5.266 4.96434 9.6142 4.96434C9.6142 4.92066 13.0799 4.69932 12.6161 10.3719M99.9499 29.1102C107.851 29.1102 107.873 22.7102 107.873 19.1571V0.440678H102.444V21.2089C102.444 22.4671 102.267 24.3426 99.7293 24.3426H99.2655C96.7273 24.3426 96.5511 22.4663 96.5511 21.2089V0.440678H91.1217V19.1564C91.1217 22.7095 91.1436 29.1095 99.0449 29.1095L99.9499 29.1102Z" fill="#C9C9C9"/>
<path id="Vector_4" d="M89.9987 14.5226C89.9987 28.6477 82.6267 29.0896 81.2142 29.0896C79.8017 29.0896 72.4297 28.6703 72.4297 14.5452C72.4297 0.420112 79.8024 0 81.2149 0C82.5983 0 89.9987 0.397541 89.9987 14.5226ZM78.5879 10.8144L78.5661 14.6988L78.5879 18.4507C78.5879 21.5626 79.2723 24.3213 81.1923 24.3213C83.0905 24.3213 83.7967 21.5619 83.7967 18.4507L83.8186 14.6988L83.7967 10.8144C83.7967 7.70254 83.1123 4.94378 81.1923 4.94378C79.2723 4.92194 78.5879 7.68142 78.5879 10.8144Z" fill="#C9C9C9"/>
</g>
</g>
<defs>
<clipPath id="clip0_21178_3399">
<rect width="125.453" height="29.1231" fill="white" transform="translate(0.078125)"/>
</clipPath>
</defs>
</svg>
