<svg xmlns="http://www.w3.org/2000/svg" width="126" height="30" viewBox="0 0 126 30" fill="none">
  <g clip-path="url(#clip0_20314_3537)">
    <g opacity="0.3">
      <path d="M29.611 26.8934H25.3564V0.953125H19.9453V28.463H25.4803H29.611V26.8934Z" fill="black"/>
      <path d="M37.088 0.953125L30.6855 28.463H32.3378L35.1053 16.5669H40.5577L42.8296 28.463H48.282L42.1687 0.953125H37.088ZM35.4771 14.9559L38.1207 3.67933L40.2686 14.9559H35.4771Z" fill="black"/>
      <path d="M63.9368 0.953125L59.5583 19.9127L55.6342 0.953125H51.2145L49.6035 0.994431V28.463H51.2145V4.75329L52.2058 8.67738L56.6669 28.463H58.98H59.2279L64.4324 6.28162V28.463H69.8848V0.953125H63.9368Z" fill="black"/>
      <path d="M77.1129 9.75134C77.1129 9.75134 77.0716 13.345 77.0716 14.7907C77.0716 16.2364 77.1129 19.6648 77.1129 19.6648C77.1129 23.7128 78.1042 26.8521 80.8304 26.8521C83.5566 26.8521 84.548 23.7128 84.548 19.6648C84.548 19.6648 84.5893 16.2364 84.5893 14.7907C84.5893 13.345 84.548 9.75134 84.548 9.75134C84.548 5.70333 83.5566 2.56407 80.8304 2.56407C78.1042 2.56407 77.1129 5.70333 77.1129 9.75134ZM90.0417 14.7081C90.0417 28.05 82.3174 28.463 80.8304 28.463C79.3434 28.463 71.6191 28.05 71.6191 14.7081C71.6191 1.36619 79.3434 0.953125 80.8304 0.953125C82.3174 0.953125 90.0417 1.36619 90.0417 14.7081Z" fill="black"/>
      <path d="M101.443 26.5629C105.656 26.5629 105.284 19.0452 105.284 19.0452C105.284 16.9799 105.284 1.11835 105.284 0.953125H106.854C106.854 1.11835 107.019 16.9799 107.019 19.0452C107.019 19.2931 107.019 19.5409 107.019 19.7887C106.978 22.1019 106.647 24.7868 105.036 26.5216C104.954 26.6456 104.83 26.7282 104.706 26.8521C102.888 28.4217 99.997 28.6283 97.7664 28.2978C95.4946 27.9674 93.388 26.7282 92.5206 24.3737C91.8597 22.5976 91.8184 20.6562 91.8184 18.7974V0.953125H97.2295V20.7388V20.7801C97.2295 20.8214 97.1469 26.5629 101.443 26.5629Z" fill="black"/>
      <path d="M120.94 16.1541C121.724 15.8236 122.468 15.4932 123.005 14.8323C124.698 12.8083 124.699 10.5778 124.699 8.59507C124.699 4.83621 122.922 2.27523 119.618 1.24257C119.577 1.24257 119.535 1.20126 119.494 1.20126C119.494 1.20126 119.494 1.20126 119.453 1.20126C119.411 1.20126 119.37 1.20126 119.329 1.15996C119.287 1.15996 119.246 1.15996 119.205 1.11865C119.205 1.11865 119.205 1.11865 119.163 1.11865C119.122 1.11865 119.081 1.11865 119.04 1.11865C118.998 1.11865 118.957 1.11865 118.916 1.11865C118.916 1.11865 118.916 1.11865 118.874 1.11865C118.833 1.11865 118.792 1.11865 118.75 1.11865C118.709 1.11865 118.668 1.11865 118.626 1.11865C118.626 1.11865 118.627 1.11865 118.585 1.11865C118.544 1.11865 118.503 1.11865 118.461 1.11865C118.42 1.11865 118.379 1.11865 118.337 1.11865C118.296 1.11865 118.255 1.11865 118.213 1.11865C118.172 1.11865 118.172 1.11865 118.131 1.11865C118.09 1.11865 118.09 1.11865 118.048 1.11865C118.048 1.11865 118.007 1.11865 117.966 1.11865C117.966 1.11865 117.924 1.11865 117.883 1.11865H117.842H117.8C117.8 1.11865 117.8 1.11865 117.759 1.11865H114.62H109.25V28.6286H114.702V16.5672H116.066L119.577 28.422V28.4633H125.318L120.94 16.1541ZM115.529 14.9562C115.446 14.9562 114.289 14.9562 114.289 14.9562C114.289 13.3866 114.289 2.60567 114.289 2.64698C114.744 2.64698 115.322 2.68829 115.818 2.7709C118.709 3.34919 119.783 6.32323 119.824 8.8429C119.824 10.1647 119.783 11.6104 119.287 12.8496C119.163 13.1801 118.916 13.5105 118.668 13.7996C118.42 14.0888 118.172 14.3779 117.842 14.5845C117.139 14.9562 116.272 14.9562 115.529 14.9562Z" fill="black"/>
      <path d="M16.1457 4.42284C16.8479 5.4968 17.6328 7.93387 17.6328 11.4036C16.2697 11.4036 14.0391 11.4036 12.8826 11.4036V11.1144C12.8826 9.99917 12.8826 9.79264 12.8826 9.79264C12.8826 5.70333 11.9738 2.60537 9.94981 2.60537C7.38883 2.60537 6.4801 5.70333 6.4801 9.79264V17.8473C6.4801 19.0039 6.4801 19.954 6.4801 19.954C6.4801 24.1259 7.55406 27.0586 10.1563 27.0586C12.7586 27.0586 13.5435 24.1259 13.5435 19.954V19.7474C13.5435 18.7974 13.5848 18.0126 13.5435 16.5669C12.263 16.5669 10.7346 16.5669 9.45414 16.5669C9.45414 16.1951 9.45414 15.3277 9.45414 14.9972C12.263 14.9972 15.1131 14.9972 17.9219 14.9972C17.9219 19.7474 17.9219 23.7541 17.9219 28.5043C16.8479 28.5043 15.6088 28.5043 14.5348 28.5043C14.4935 23.9193 14.5761 25.4477 14.4935 23.9194C14.2457 25.6129 13.3782 27.3478 11.8912 28.2978C10.2803 29.2892 8.13235 29.2478 6.43879 28.463C4.74524 27.6369 3.42344 26.1499 2.59732 24.4563C1.7712 22.7628 1.35813 20.8627 1.1103 18.9626C0.986379 17.393 0.903767 15.8233 0.986379 14.2124C1.1103 10.3709 1.93642 5.82725 4.95177 3.10105C6.27357 1.77925 8.04973 0.953125 10.0324 0.953125C11.8499 0.953125 13.5021 1.65533 14.7826 2.8119C14.7826 2.8119 14.7826 2.8119 14.8239 2.85321C15.2783 3.30758 15.774 3.80325 16.1457 4.42284Z" fill="black"/>
    </g>
  </g>
  <defs>
    <clipPath id="clip0_20314_3537">
      <rect width="126" height="30" fill="white"/>
    </clipPath>
  </defs>
</svg>