<svg xmlns="http://www.w3.org/2000/svg" width="61" height="29" viewBox="0 0 61 29" fill="none">
  <g clip-path="url(#clip0_18538_2557)">
    <path d="M28.8352 14.9915V22.0246H26.5664V4.63086H32.4652C33.902 4.63086 35.2633 5.16023 36.322 6.14336C37.3808 7.05086 37.9102 8.41211 37.9102 9.84898C37.9102 11.2859 37.3808 12.5715 36.322 13.5546C35.2633 14.5377 33.9777 15.0671 32.4652 15.0671L28.8352 14.9915ZM28.8352 6.74836V12.7984H32.6164C33.4483 12.7984 34.2802 12.4959 34.8095 11.8909C36.0195 10.7565 36.0195 8.86586 34.8852 7.73148L34.8095 7.65586C34.2045 7.05086 33.4483 6.67273 32.6164 6.74836H28.8352Z" fill="white"/>
    <path d="M43.1283 9.77344C44.792 9.77344 46.0777 10.2272 47.0608 11.1347C48.0439 12.0422 48.4977 13.2522 48.4977 14.7647V22.0247H46.3802V20.3609H46.3045C45.397 21.7222 44.1114 22.4028 42.5989 22.4028C41.3133 22.4028 40.1789 22.0247 39.2714 21.2684C38.4395 20.5122 37.9102 19.4534 37.9102 18.3191C37.9102 17.1091 38.3639 16.1259 39.2714 15.3697C40.1789 14.6134 41.4645 14.3109 42.977 14.3109C44.3383 14.3109 45.397 14.5378 46.2289 15.0672V14.5378C46.2289 13.7816 45.9264 13.0253 45.3214 12.5716C44.7164 12.0422 43.9602 11.7397 43.1283 11.7397C41.8427 11.7397 40.8595 12.2691 40.1789 13.3278L38.2127 12.1178C39.4227 10.5297 41.0108 9.77344 43.1283 9.77344ZM40.2545 18.3947C40.2545 18.9997 40.557 19.5291 41.0108 19.8316C41.5402 20.2097 42.1452 20.4366 42.7502 20.4366C43.6577 20.4366 44.5652 20.0584 45.2458 19.3778C46.002 18.6972 46.3802 17.8653 46.3802 16.9578C45.6995 16.4284 44.7164 16.1259 43.4308 16.1259C42.5233 16.1259 41.767 16.3528 41.162 16.8066C40.557 17.1847 40.2545 17.7141 40.2545 18.3947Z" fill="white"/>
    <path d="M60.7501 10.1514L53.2632 27.3182H50.9944L53.7926 21.3439L48.877 10.227H51.297L54.8513 18.7726H54.927L58.4057 10.227H60.7501V10.1514Z" fill="white"/>
    <path d="M19.8368 13.4794C19.8368 12.7988 19.7612 12.1181 19.6855 11.4375H10.2324V15.2944H15.6018C15.3749 16.5044 14.6943 17.6388 13.6355 18.3194V20.815H16.8874C18.778 19.0756 19.8368 16.5044 19.8368 13.4794Z" fill="#4285F4"/>
    <path d="M10.2323 23.2345C12.9548 23.2345 15.2236 22.327 16.8873 20.8145L13.6355 18.3188C12.728 18.9238 11.5936 19.302 10.2323 19.302C7.66109 19.302 5.39234 17.5626 4.63609 15.1426H1.30859V17.7138C3.04797 21.117 6.45109 23.2345 10.2323 23.2345Z" fill="#34A853"/>
    <path d="M4.63562 15.143C4.18187 13.933 4.18187 12.5717 4.63562 11.2861V8.71484H1.30812C-0.12875 11.513 -0.12875 14.8405 1.30812 17.7142L4.63562 15.143Z" fill="#FBBC04"/>
    <path d="M10.2329 7.20219C11.6698 7.20219 13.031 7.73157 14.0898 8.71469L16.9635 5.84094C15.1485 4.17719 12.7285 3.19407 10.3085 3.26969C6.52727 3.26969 3.04852 5.38719 1.38477 8.79032L4.71227 11.3616C5.39289 8.94157 7.66164 7.20219 10.2329 7.20219Z" fill="#EA4335"/>
  </g>
  <defs>
    <clipPath id="clip0_18538_2557">
      <rect width="60.5" height="28.8131" fill="white" transform="translate(0.25 0.09375)"/>
    </clipPath>
  </defs>
</svg>