<svg xmlns="http://www.w3.org/2000/svg" width="54" height="28" viewBox="0 0 54 28" fill="none">
  <path d="M43.6769 15.6685L42.954 14.6889H34.3363L37.841 19.7495C34.1949 20.4619 30.753 17.413 30.8002 13.8664C30.8526 10.2412 33.7758 7.52751 37.2752 7.55375C41.1152 7.57467 44.9447 11.7133 43.6769 15.6685ZM48.8475 21.8868C48.8475 21.8868 51.4041 18.5498 51.4145 14.2069C51.4355 5.67303 45.4581 0.130471 37.1181 0.114755C32.288 0.109516 28.1861 2.46694 25.6977 5.91399C26.7297 7.38087 27.3321 8.7953 27.5784 9.73303H23.7594C23.5655 10.3355 23.4136 10.9537 23.3036 11.5875H28.0184C28.1284 12.2843 28.1861 12.9967 28.1861 13.725C28.1861 16.6482 27.2693 19.3565 25.7082 21.5882C28.1389 25.0825 32.1675 27.618 37.1652 27.618C40.4813 27.618 42.823 26.2036 43.2474 25.9783L44.1275 27.136H52.6142L48.8475 21.8868Z" fill="#D9D9D9"/>
  <path d="M15.2885 18.0631H18.7985C18.7985 18.2203 17.0016 19.97 14.2984 19.97C11.3281 19.97 7.96484 17.623 7.89671 13.8669C7.82863 9.97453 11.1919 7.42329 14.2984 7.53326C16.8182 7.62237 17.7769 8.34526 19.1861 9.7283C19.1861 9.7283 21.2188 9.7283 23.2828 9.73357H27.5733C27.3271 8.79579 26.7246 7.38135 25.6926 5.91453C25.6036 5.79402 25.5197 5.6683 25.4254 5.54779C23.3614 2.79749 19.7729 0.0104962 14.1936 1.87377e-05C7.64004 -0.0104587 2.58467 4.37434 0.918754 9.73357C0.897804 9.79643 0.876848 9.86451 0.861129 9.92737C0.861129 9.93259 0.861129 9.93259 0.855892 9.93786C0.515376 11.1375 0.326782 12.4053 0.326782 13.7097C0.33726 14.9618 0.49966 16.1614 0.798267 17.293C1.85125 21.2063 4.58585 24.4333 8.19532 26.1674C8.22678 26.1831 8.25297 26.1936 8.28437 26.2093C8.30008 26.2197 8.32105 26.225 8.34202 26.2355C10.1598 27.0632 12.2029 27.5242 14.377 27.5399C18.9766 27.5032 23.0471 25.2506 25.5564 21.8035C25.6088 21.7302 25.656 21.6568 25.7083 21.5835C27.2695 19.3518 28.1862 16.6434 28.1862 13.7202C28.1862 12.992 28.1286 12.2795 28.0186 11.5828H15.2885V18.0631Z" fill="#D9D9D9"/>
</svg>