<svg width="62" height="33" viewBox="0 0 62 33" fill="none" xmlns="http://www.w3.org/2000/svg">
<g id="logo 1" clip-path="url(#clip0_31122_3266)">
<path id="Vector" d="M50.4459 18.1619L49.6197 17.0424H39.7709L43.7763 22.8259C39.6093 23.6401 35.6757 20.1557 35.7296 16.1024C35.7895 11.9593 39.1303 8.85796 43.1297 8.88795C47.5182 8.91186 51.8948 13.6417 50.4459 18.1619ZM56.3552 25.2686C56.3552 25.2686 59.2769 21.4549 59.2888 16.4915C59.3128 6.73855 52.4816 0.404202 42.9501 0.38624C37.43 0.380253 32.7421 3.07445 29.8982 7.01394C31.0777 8.69037 31.7662 10.3069 32.0476 11.3786H27.683C27.4615 12.0671 27.2879 12.7736 27.1621 13.498H32.5505C32.6762 14.2943 32.7421 15.1085 32.7421 15.9408C32.7421 19.2816 31.6943 22.3768 29.9102 24.9274C32.6882 28.9208 37.2923 31.8185 43.004 31.8185C46.7938 31.8185 49.4701 30.202 49.955 29.9446L50.9608 31.2677H60.6599L56.3552 25.2686Z" fill="black"/>
<path id="Vector_2" d="M18.0015 20.8986H22.0129C22.0129 21.0783 19.9593 23.078 16.87 23.078C13.4753 23.078 9.63156 20.3957 9.55369 16.103C9.47589 11.6546 13.3196 8.73889 16.87 8.86457C19.7497 8.96641 20.8454 9.79257 22.4559 11.3732C22.4559 11.3732 24.7789 11.3732 27.1378 11.3792H32.0412C31.7599 10.3075 31.0713 8.69095 29.8919 7.01459C29.7901 6.87687 29.6943 6.73318 29.5865 6.59546C27.2276 3.45226 23.1265 0.267123 16.7502 0.255148C9.26036 0.243174 3.48278 5.25437 1.57888 11.3792C1.55494 11.451 1.53099 11.5289 1.51303 11.6007C1.51303 11.6067 1.51303 11.6067 1.50704 11.6127C1.11788 12.9837 0.902344 14.4326 0.902344 15.9234C0.914318 17.3543 1.09992 18.7253 1.44118 20.0186C2.64459 24.4909 5.76985 28.179 9.89496 30.1607C9.93091 30.1786 9.96084 30.1906 9.99673 30.2086C10.0147 30.2206 10.0386 30.2266 10.0626 30.2386C12.1401 31.1845 14.4751 31.7114 16.9597 31.7293C22.2164 31.6874 26.8684 29.113 29.7362 25.1735C29.7961 25.0896 29.85 25.0058 29.9098 24.922C31.694 22.3715 32.7417 19.2762 32.7417 15.9354C32.7417 15.1031 32.6759 14.2889 32.5501 13.4926H18.0015V20.8986Z" fill="black"/>
</g>
<defs>
<clipPath id="clip0_31122_3266">
<rect width="60.8627" height="32" fill="white" transform="translate(0.529297 0.255127)"/>
</clipPath>
</defs>
</svg>
