<svg xmlns="http://www.w3.org/2000/svg" width="92" height="30" viewBox="0 0 92 30" fill="none">
  <g clip-path="url(#clip0_22600_1687)">
    <mask id="mask0_22600_1687" style="mask-type:luminance" maskUnits="userSpaceOnUse" x="0" y="0" width="13" height="30">
      <path d="M12.9147 0.81665H0.597656V29.8037H12.9147V0.81665Z" fill="white"/>
    </mask>
    <g mask="url(#mask0_22600_1687)">
      <path d="M7.38687 15.1989V15.5452H8.75955V24.4614C8.75955 27.2562 8.09176 29.3709 6.85511 29.3709C4.29524 29.3709 3.72638 19.7621 3.72638 15.1865C3.72638 11.6497 4.49311 1.10108 6.78091 1.10108C9.74887 1.10108 10.5156 9.70817 10.8 10.8212L10.9361 10.8088L10.528 1.02688H10.3672C10.3301 1.28658 10.2683 1.54627 10.1693 1.80597C9.82307 2.59743 9.01925 2.44903 8.59879 1.84307C8.01756 1.00215 7.51053 0.81665 6.78091 0.81665C2.45263 0.81665 0.597656 10.1286 0.597656 15.1989C0.597656 21.308 2.19294 29.7914 6.78091 29.8037C8.17832 29.8037 9.24184 27.7385 10.2435 27.7385C11.1463 27.7385 11.171 28.9381 11.3689 29.5193H11.5296V15.5452H12.9147V15.1989H7.38687Z" fill="black"/>
    </g>
    <path d="M70.305 29.0379V1.04011H69.1055V0.693848H74.2376V1.04011H73.0257L73.038 29.0379H74.2376V29.3841H69.1055V29.0379H70.305Z" fill="black"/>
    <path d="M19.6048 0.693848H25.4418C28.2366 0.693848 30.0421 3.88441 30.0421 7.70566C30.0421 11.5269 28.521 15.0637 26.1714 15.0637C25.8622 15.0637 25.887 15.2616 26.1714 15.2616C27.5812 15.2616 28.6323 16.9187 28.8549 17.3515C29.7206 19.1323 29.1146 27.3066 29.9803 28.1104C30.7099 28.7906 31.2417 27.727 31.3282 27.5663L31.4148 27.6281C31.4024 27.7023 30.7717 29.817 29.2012 29.817C27.8903 29.817 27.2349 28.1722 27.0494 27.1458C26.7402 25.464 26.8392 20.3319 26.6784 19.2931C26.53 18.3903 26.1343 15.7068 24.91 15.4718C24.4648 15.3853 24.0196 15.3482 23.5744 15.3729V29.1368H24.8111V29.4831H19.4316V29.1368H20.8043V1.04011H19.5924L19.6048 0.693848ZM23.7228 1.12668V14.8288C24.304 14.8288 25.2686 14.8906 26.2703 13.6168C27.1978 12.442 27.5688 9.47407 27.5688 7.2481C27.5688 4.88609 26.3569 1.11431 24.8111 1.11431L23.7228 1.12668Z" fill="black"/>
    <path d="M37.3369 29.0379L42.5803 0.693848L47.4404 29.0379H48.541V29.3841H43.4954V29.0379H44.5961L43.2234 21.1357H39.2043L37.7697 29.0502H39.1919V29.3965H36.125V29.0626L37.3369 29.0379ZM39.2785 20.7771H43.1739L41.2942 9.70903L39.2785 20.7771Z" fill="black"/>
    <path d="M80.1494 29.0379L85.4052 0.693848L90.2652 29.0379H91.3658V29.3841H86.3203V29.0379H87.4209L86.0482 21.1357H82.0168L80.5822 29.0502H82.0044V29.3965H78.9375V29.0626L80.1494 29.0379ZM82.091 20.7771H85.9864L84.1067 9.70903L82.091 20.7771Z" fill="black"/>
    <path d="M55.7382 29.0379H58.9906C60.5116 28.9761 62.379 27.5044 62.379 23.4235L62.3913 21.012H62.6758V29.3841H52.832L59.5099 1.04011H56.3936C54.4273 1.04011 53.3391 4.107 53.3391 6.92657C53.3391 7.65619 53.3143 9.05361 53.3143 9.05361H53.0299V0.693848H62.6016L55.7382 29.0379Z" fill="black"/>
  </g>
  <defs>
    <clipPath id="clip0_22600_1687">
      <rect width="90.7297" height="29.1231" fill="white" transform="translate(0.595703 0.693604)"/>
    </clipPath>
  </defs>
</svg>