<svg xmlns="http://www.w3.org/2000/svg" width="99" height="30" viewBox="0 0 99 30" fill="none">
  <g clip-path="url(#clip0_20314_3546)">
    <g opacity="0.3">
      <path d="M10.6094 0.22569C10.6106 0.220591 10.7697 0.227956 10.7697 0.227956L11.1964 10.3482L11.0528 10.3567C10.7553 9.20873 9.95328 0.308421 6.82409 0.308421C4.41911 0.308421 3.61188 11.222 3.61188 14.8786C3.61188 19.614 4.20577 29.5507 6.90539 29.5507C8.20677 29.5507 8.9131 27.3595 8.9131 24.4685V15.235H7.46873V14.8723H13.2981V15.235H11.8353V29.7037C11.8318 29.7026 11.6687 29.7083 11.6675 29.7054C11.4559 29.1031 11.4253 27.8644 10.4768 27.8644C9.42512 27.8644 8.29787 30.0046 6.8362 30.0001C2.00202 29.9854 0.318359 21.2086 0.318359 14.8808C0.318359 9.63881 2.2661 0.000732422 6.83216 0.000732422C7.59731 0.000732422 8.13585 0.19509 8.74646 1.06262C9.1939 1.69897 10.0403 1.84403 10.4024 1.02919C10.512 0.78327 10.5622 0.466515 10.6094 0.22569Z" fill="black"/>
      <path d="M76.1859 29.1742V0.755157H74.8926V0.408936H80.3991V0.755157H79.1L79.1092 29.1742H80.3991V29.5255H74.8926V29.1742H76.1859Z" fill="black"/>
      <path d="M60.1989 29.1718H63.6504C65.2689 29.1089 67.2512 27.6237 67.2512 23.481C67.2512 22.6905 67.261 21.8649 67.261 21.0376L67.5683 21.0393V29.5197L57.1152 29.526L64.2114 0.757343H60.9017C58.8087 0.757343 57.6538 3.8705 57.6538 6.73319C57.6538 7.46757 57.6313 8.88928 57.6313 8.88928L57.3395 8.89268V0.409424H67.4945L60.1989 29.1718Z" fill="black"/>
      <path d="M25.1534 0.76132V14.8787C25.7531 14.8753 26.746 14.9422 27.7775 13.635C28.7358 12.4201 29.1158 9.35734 29.1158 7.07489C29.1158 4.63944 27.8756 0.755086 26.283 0.755086L25.1534 0.76132ZM20.9616 0.411133L27.1202 0.412832C30.0689 0.412832 31.9809 3.63308 31.9809 7.4993C31.9809 11.3525 30.3722 14.9433 27.8923 14.9433C27.5607 14.9433 27.5913 15.1388 27.8923 15.1388C29.3782 15.1388 30.4939 16.8093 30.7193 17.2536C31.628 19.0498 31.0019 27.3149 31.9112 28.1315C32.678 28.8205 33.2414 27.7433 33.3417 27.5761L33.4351 27.643C33.4207 27.7189 32.7634 29.8501 31.1045 29.8501C29.7264 29.8501 29.0288 28.1859 28.8304 27.1438C28.5081 25.4461 28.613 20.2534 28.4372 19.2091C28.2838 18.2985 27.8675 15.5808 26.5667 15.3434C25.9866 15.2374 25.8038 15.2374 25.154 15.2414C25.1506 15.2414 25.1552 29.1684 25.1552 29.1684H26.4542V29.526H20.7852V29.1684H22.2411L22.2353 0.76132H20.9616V0.411133Z" fill="black"/>
      <path d="M41.8204 20.6604H45.9529L43.9619 9.2726L41.8204 20.6604ZM39.7574 29.1675L45.3273 0L50.4751 29.1681L51.6456 29.1715V29.5239L46.2902 29.5234V29.1658H47.463L46.0054 21.031H41.7391L40.2267 29.1726H41.7305V29.5217H38.4883V29.1754L39.7574 29.1675Z" fill="black"/>
      <path d="M89.1603 20.6604H93.2933L91.3018 9.2726L89.1603 20.6604ZM87.0978 29.1675L92.6671 0L97.8156 29.1681L98.9855 29.1715V29.5239L93.63 29.5234V29.1658H94.8028L93.3452 21.031H89.079L87.5666 29.1732H89.0703V29.5217H85.8281V29.176L87.0978 29.1675Z" fill="black"/>
    </g>
  </g>
  <defs>
    <clipPath id="clip0_20314_3546">
      <rect width="99" height="30" fill="white"/>
    </clipPath>
  </defs>
</svg>