<svg width="92" height="30" viewBox="0 0 92 30" fill="none" xmlns="http://www.w3.org/2000/svg">
<g id="grazia" clip-path="url(#clip0_21178_3405)">
<g id="Group 1000004024">
<g id="Clip path group">
<mask id="mask0_21178_3405" style="mask-type:luminance" maskUnits="userSpaceOnUse" x="0" y="0" width="13" height="30">
<g id="SVGID_2_">
<path id="Vector" d="M12.8483 0.123047H0.53125V29.1101H12.8483V0.123047Z" fill="white"/>
</g>
</mask>
<g mask="url(#mask0_21178_3405)">
<g id="Group">
<path id="_6604c" d="M7.32046 14.5053V14.8516H8.69314V23.7678C8.69314 26.5626 8.02535 28.6773 6.7887 28.6773C4.22884 28.6773 3.65998 19.0685 3.65998 14.4929C3.65998 10.9561 4.4267 0.407477 6.7145 0.407477C9.68246 0.407477 10.4492 9.01456 10.7336 10.1276L10.8696 10.1152L10.4616 0.333277H10.3008C10.2637 0.592974 10.2019 0.852671 10.1029 1.11237C9.75666 1.90382 8.95284 1.75543 8.53238 1.14947C7.95115 0.308545 7.44413 0.123047 6.7145 0.123047C2.38623 0.123047 0.53125 9.43502 0.53125 14.5053C0.53125 20.6143 2.12653 29.0978 6.7145 29.1101C8.11192 29.1101 9.17544 27.0449 10.1771 27.0449C11.0799 27.0449 11.1046 28.2445 11.3025 28.8257H11.4632V14.8516H12.8483V14.5053H7.32046Z" fill="#C9C9C9"/>
</g>
</g>
</g>
<path id="_6604d" d="M70.2386 28.344V0.346263H69.0391V0H74.1712V0.346263H72.9592L72.9716 28.344H74.1712V28.6903H69.0391V28.344H70.2386Z" fill="#C9C9C9"/>
<path id="_6604e" d="M19.5403 0H25.3773C28.1721 0 29.9777 3.19056 29.9777 7.01181C29.9777 10.8331 28.4566 14.3699 26.1069 14.3699C25.7978 14.3699 25.8225 14.5677 26.1069 14.5677C27.5167 14.5677 28.5679 16.2249 28.7905 16.6577C29.6561 18.4385 29.0502 26.6127 29.9158 27.4165C30.6454 28.0967 31.1772 27.0332 31.2638 26.8724L31.3503 26.9342C31.338 27.0084 30.7073 29.1231 29.1367 29.1231C27.8259 29.1231 27.1705 27.4784 26.985 26.452C26.6758 24.7701 26.7747 19.638 26.614 18.5992C26.4656 17.6965 26.0698 15.0129 24.8456 14.778C24.4004 14.6914 23.9552 14.6543 23.51 14.679V28.443H24.7466V28.7892H19.3672V28.443H20.7399V0.346263H19.528L19.5403 0ZM23.6584 0.432828V14.1349C24.2396 14.1349 25.2042 14.1967 26.2059 12.923C27.1334 11.7482 27.5043 8.78022 27.5043 6.55425C27.5043 4.19225 26.2924 0.42046 24.7466 0.42046L23.6584 0.432828Z" fill="#C9C9C9"/>
<path id="_6604f" d="M37.2666 28.344L42.51 0L47.37 28.344H48.4707V28.6903H43.4251V28.344H44.5257L43.1531 20.4418H39.134L37.6994 28.3564H39.1216V28.7027H36.0547V28.3688L37.2666 28.344ZM39.2081 20.0832H43.1036L41.2239 9.01518L39.2081 20.0832Z" fill="#C9C9C9"/>
<path id="_6604g" d="M80.0869 28.344L85.3427 0L90.2027 28.344H91.3033V28.6903H86.2578V28.344H87.3584L85.9857 20.4418H81.9543L80.5197 28.3564H81.9419V28.7027H78.875V28.3688L80.0869 28.344ZM82.0285 20.0832H85.9239L84.0442 9.01518L82.0285 20.0832Z" fill="#C9C9C9"/>
<path id="_6604h" d="M55.6718 28.344H58.9241C60.4452 28.2822 62.3126 26.8106 62.3126 22.7296L62.3249 20.3182H62.6094V28.6903H52.7656L59.4435 0.346263H56.3272C54.3609 0.346263 53.2727 3.41316 53.2727 6.23272C53.2727 6.96234 53.2479 8.35976 53.2479 8.35976H52.9635V0H62.5352L55.6718 28.344Z" fill="#C9C9C9"/>
</g>
</g>
<defs>
<clipPath id="clip0_21178_3405">
<rect width="90.7297" height="29.1231" fill="white" transform="translate(0.53125)"/>
</clipPath>
</defs>
</svg>
