  <svg xmlns="http://www.w3.org/2000/svg" width="85" height="85" viewBox="0 0 85 85"
                                        fill="none">
                                        <g clip-path="url(#clip0_6806_10786)">
                                            <path
                                                d="M31.636 30.566C32.4123 30.566 33.0416 29.9367 33.0416 29.1604C33.0416 28.3842 32.4123 27.7549 31.636 27.7549C30.8598 27.7549 30.2305 28.3842 30.2305 29.1604C30.2305 29.9367 30.8598 30.566 31.636 30.566Z"
                                                fill="black" />
                                            <path
                                                d="M30.673 29.0073C30.9691 29.0073 31.2092 28.7672 31.2092 28.4711C31.2092 28.1749 30.9691 27.9348 30.673 27.9348C30.3768 27.9348 30.1367 28.1749 30.1367 28.4711C30.1367 28.7672 30.3768 29.0073 30.673 29.0073Z"
                                                fill="white" />
                                            <path fill-rule="evenodd" clip-rule="evenodd"
                                                d="M37.2199 30.913C38.8005 30.6872 34.9338 28.3672 34.7475 28.2317C33.8895 27.6164 32.7548 27.2439 31.5468 27.1818C28.8035 27.0407 27.6463 28.1753 25.6875 29.7107C25.6875 29.7107 26.4157 29.6091 27.206 30.4784C27.9962 31.3533 31.0332 32.392 33.6693 31.7485C36.3111 31.1049 37.2256 30.9187 37.2256 30.9187L37.2199 30.913Z"
                                                stroke="black" stroke-width="0.75" stroke-miterlimit="2.61313"
                                                stroke-linecap="round" stroke-linejoin="round" />
                                            <mask id="mask0_6806_10786" style="mask-type:alpha"
                                                maskUnits="userSpaceOnUse" x="28" y="26" width="7" height="7">
                                                <path
                                                    d="M31.6378 31.7C33.0407 31.7 34.178 30.5627 34.178 29.1598C34.178 27.7569 33.0407 26.6196 31.6378 26.6196C30.2349 26.6196 29.0977 27.7569 29.0977 29.1598C29.0977 30.5627 30.2349 31.7 31.6378 31.7Z"
                                                    stroke="black" stroke-width="0.75" stroke-miterlimit="2.61313"
                                                    stroke-linecap="round" stroke-linejoin="round" />
                                            </mask>
                                            <g mask="url(#mask0_6806_10786)">
                                                <path fill-rule="evenodd" clip-rule="evenodd"
                                                    d="M37.2199 30.9125C38.8005 30.6867 34.9337 28.3667 34.7475 28.2312C33.8895 27.6159 32.7548 27.2434 31.5468 27.1813C28.8035 27.0402 27.6463 28.1748 25.6875 29.7102C25.6875 29.7102 26.4157 29.6086 27.206 30.4779C27.9962 31.3528 31.0332 32.3915 33.6693 31.748C36.3111 31.1045 37.2256 30.9182 37.2256 30.9182L37.2199 30.9125Z"
                                                    fill="black" stroke="black" stroke-width="0.75"
                                                    stroke-miterlimit="2.61313" stroke-linecap="round"
                                                    stroke-linejoin="round" />
                                            </g>
                                            <path d="M36.8528 29.9087C36.8528 29.9087 36.3617 30.4167 36.5649 31.0094"
                                                stroke="black" stroke-width="0.75" stroke-miterlimit="2.61313"
                                                stroke-linecap="round" stroke-linejoin="round" />
                                            <path
                                                d="M37.4459 29.1879C37.4459 29.1879 35.6565 26.072 31.4568 26.0268C27.257 25.9873 25.1797 28.5444 25.1797 28.5444"
                                                stroke="black" stroke-width="0.75" stroke-miterlimit="2.61313"
                                                stroke-linecap="round" stroke-linejoin="round" />
                                            <path fill-rule="evenodd" clip-rule="evenodd"
                                                d="M37.974 24.745C37.974 24.745 38.7247 23.7741 36.5627 22.6395C36.5627 22.6395 28.7051 20.3082 26.8762 20.534C25.0473 20.7598 22.1797 23.0572 22.1797 23.0572C22.1797 23.0572 25.3803 21.8266 29.0382 22.7975C32.696 23.7685 37.6014 25.1289 37.974 24.7394V24.745Z"
                                                stroke="black" stroke-width="0.75" stroke-miterlimit="2.61313"
                                                stroke-linecap="round" stroke-linejoin="round" />
                                            <path
                                                d="M44.2403 47.3361C44.2403 47.3361 43.213 47.3643 42.7953 46.8902C42.3776 46.416 41.3276 46.0039 40.4922 46.0604"
                                                stroke="black" stroke-width="0.75" stroke-miterlimit="2.61313"
                                                stroke-linecap="round" stroke-linejoin="round" />
                                            <path d="M39.3029 43.7339C39.3029 43.7339 37.9142 46.6466 40.7988 47.1208"
                                                stroke="black" stroke-width="0.75" stroke-miterlimit="2.61313"
                                                stroke-linecap="round" stroke-linejoin="round" />
                                            <path d="M39.8594 28.0752C39.8594 28.0752 42.3544 30.2936 41.8577 36.3957"
                                                stroke="black" stroke-width="0.75" stroke-miterlimit="2.61313"
                                                stroke-linecap="round" stroke-linejoin="round" />
                                            <path fill-rule="evenodd" clip-rule="evenodd"
                                                d="M44.395 52.9107C44.395 52.9107 42.3572 51.9115 40.9122 52.747C39.4671 53.5768 35.3633 55.6315 35.3633 55.6315C35.3633 55.6315 37.1922 61.2368 44.395 61.2368C51.5922 61.2368 53.4268 55.6315 53.4268 55.6315C53.4268 55.6315 49.323 53.5768 47.8779 52.747C46.4328 51.9172 44.395 52.9107 44.395 52.9107V52.9107Z"
                                                stroke="black" stroke-width="0.75" stroke-miterlimit="2.61313"
                                                stroke-linecap="round" stroke-linejoin="round" />
                                            <path
                                                d="M44.3947 56.3219C44.3947 56.3219 43.881 56.2937 43.2431 56.0284C42.6053 55.7631 39.4159 55.6389 37.8636 56.0002C36.3113 56.3614 35.8371 55.5034 34.1719 55.5034"
                                                stroke="black" stroke-width="0.75" stroke-miterlimit="2.61313"
                                                stroke-linecap="round" stroke-linejoin="round" />
                                            <path
                                                d="M15.4844 28.2393C15.4844 28.2393 18.8035 42.1877 20.576 49.4582C22.3541 56.7288 22.7944 57.9481 26.6781 61.6116C30.5617 65.2751 38.0129 72.1561 44.3916 72.1561"
                                                stroke="black" stroke-width="0.75" stroke-miterlimit="2.61313"
                                                stroke-linecap="round" stroke-linejoin="round" />
                                            <path
                                                d="M13.0854 26.3198C13.0854 26.3198 10.946 26.348 11.6686 29.4527C12.3911 32.5574 14.999 37.0563 15.3321 40.3811C15.6651 43.7116 16.9747 44.6938 19.3681 44.4793"
                                                stroke="black" stroke-width="0.75" stroke-miterlimit="2.61313"
                                                stroke-linecap="round" stroke-linejoin="round" />
                                            <path
                                                d="M13.6406 30.9542C13.6406 30.9542 13.9963 29.4583 14.7019 29.9551C15.4075 30.4518 16.8921 34.3919 16.8921 34.3919C16.8921 34.3919 15.9381 36.3902 16.4687 36.9998C16.9993 37.6095 18.021 38.8513 18.021 38.8513"
                                                stroke="black" stroke-width="0.75" stroke-miterlimit="2.61313"
                                                stroke-linecap="round" stroke-linejoin="round" />
                                            <path
                                                d="M57.1399 30.566C57.9162 30.566 58.5455 29.9367 58.5455 29.1604C58.5455 28.3842 57.9162 27.7549 57.1399 27.7549C56.3637 27.7549 55.7344 28.3842 55.7344 29.1604C55.7344 29.9367 56.3637 30.566 57.1399 30.566Z"
                                                fill="black" />
                                            <path
                                                d="M56.1847 29.0073C56.4809 29.0073 56.7209 28.7672 56.7209 28.4711C56.7209 28.1749 56.4809 27.9348 56.1847 27.9348C55.8885 27.9348 55.6484 28.1749 55.6484 28.4711C55.6484 28.7672 55.8885 29.0073 56.1847 29.0073Z"
                                                fill="white" />
                                            <path fill-rule="evenodd" clip-rule="evenodd"
                                                d="M51.5583 30.913C49.9778 30.6872 53.8445 28.3672 54.0308 28.2317C54.8888 27.6164 56.0234 27.2439 57.2314 27.1818C59.9748 27.0407 61.132 28.1753 63.0908 29.7107C63.0908 29.7107 62.3626 29.6091 61.5723 30.4784C60.782 31.3533 57.7451 32.392 55.109 31.7485C52.4672 31.1049 51.5527 30.9187 51.5527 30.9187L51.5583 30.913Z"
                                                stroke="black" stroke-width="0.75" stroke-miterlimit="2.61313"
                                                stroke-linecap="round" stroke-linejoin="round" />
                                            <mask id="mask1_6806_10786" style="mask-type:alpha"
                                                maskUnits="userSpaceOnUse" x="54" y="26" width="7" height="7">
                                                <path
                                                    d="M57.1417 31.7C58.5446 31.7 59.6819 30.5627 59.6819 29.1598C59.6819 27.7569 58.5446 26.6196 57.1417 26.6196C55.7388 26.6196 54.6016 27.7569 54.6016 29.1598C54.6016 30.5627 55.7388 31.7 57.1417 31.7Z"
                                                    stroke="black" stroke-width="0.75" stroke-miterlimit="2.61313"
                                                    stroke-linecap="round" stroke-linejoin="round" />
                                            </mask>
                                            <g mask="url(#mask1_6806_10786)">
                                                <path fill-rule="evenodd" clip-rule="evenodd"
                                                    d="M51.5544 30.9125C49.9739 30.6867 53.8406 28.3667 54.0269 28.2312C54.8849 27.6159 56.0195 27.2434 57.2275 27.1813C59.9709 27.0402 61.1281 28.1748 63.0869 29.7102C63.0869 29.7102 62.3587 29.6086 61.5684 30.4779C60.7781 31.3528 57.7412 32.3915 55.105 31.748C52.4633 31.1045 51.5488 30.9182 51.5488 30.9182L51.5544 30.9125Z"
                                                    fill="black" stroke="black" stroke-width="0.75"
                                                    stroke-miterlimit="2.61313" stroke-linecap="round"
                                                    stroke-linejoin="round" />
                                            </g>
                                            <path d="M51.9258 29.9087C51.9258 29.9087 52.4169 30.4167 52.2137 31.0094"
                                                stroke="black" stroke-width="0.75" stroke-miterlimit="2.61313"
                                                stroke-linecap="round" stroke-linejoin="round" />
                                            <path
                                                d="M51.3359 29.1879C51.3359 29.1879 53.1254 26.072 57.3251 26.0268C61.5249 25.9873 63.6022 28.5444 63.6022 28.5444"
                                                stroke="black" stroke-width="0.75" stroke-miterlimit="2.61313"
                                                stroke-linecap="round" stroke-linejoin="round" />
                                            <path fill-rule="evenodd" clip-rule="evenodd"
                                                d="M50.8136 24.745C50.8136 24.745 50.0629 23.7741 52.2248 22.6395C52.2248 22.6395 60.0824 20.3082 61.9114 20.534C63.7403 20.7598 66.6079 23.0572 66.6079 23.0572C66.6079 23.0572 63.4073 21.8266 59.7494 22.7975C56.0915 23.7685 51.1862 25.1289 50.8136 24.7394V24.745Z"
                                                stroke="black" stroke-width="0.75" stroke-miterlimit="2.61313"
                                                stroke-linecap="round" stroke-linejoin="round" />
                                            <path
                                                d="M44.5469 47.3361C44.5469 47.3361 45.5742 47.3643 45.992 46.8902C46.4097 46.416 47.4596 46.0039 48.295 46.0604"
                                                stroke="black" stroke-width="0.75" stroke-miterlimit="2.61313"
                                                stroke-linecap="round" stroke-linejoin="round" />
                                            <path d="M49.4724 43.7339C49.4724 43.7339 50.8611 46.6466 47.9766 47.1208"
                                                stroke="black" stroke-width="0.75" stroke-miterlimit="2.61313"
                                                stroke-linecap="round" stroke-linejoin="round" />
                                            <path d="M48.927 28.0752C48.927 28.0752 46.432 30.2936 46.9287 36.3957"
                                                stroke="black" stroke-width="0.75" stroke-miterlimit="2.61313"
                                                stroke-linecap="round" stroke-linejoin="round" />
                                            <path
                                                d="M44.3906 56.3222C44.3906 56.3222 44.9043 56.2939 45.5422 56.0286C46.18 55.7633 49.3694 55.6391 50.9217 56.0004C52.474 56.3617 52.9482 55.5037 54.6134 55.5037"
                                                stroke="black" stroke-width="0.75" stroke-miterlimit="2.61313"
                                                stroke-linecap="round" stroke-linejoin="round" />
                                            <path
                                                d="M73.3057 28.2393C73.3057 28.2393 69.9865 42.1877 68.214 49.4582C66.4359 56.7288 65.9956 57.9481 62.112 61.6116C58.2283 65.2751 50.7771 72.1561 44.3984 72.1561"
                                                stroke="black" stroke-width="0.75" stroke-miterlimit="2.61313"
                                                stroke-linecap="round" stroke-linejoin="round" />
                                            <path
                                                d="M75.6968 26.3198C75.6968 26.3198 77.8361 26.348 77.1136 29.4527C76.3911 32.5574 73.7832 37.0563 73.4501 40.3811C73.1171 43.7116 71.8075 44.6938 69.4141 44.4793"
                                                stroke="black" stroke-width="0.75" stroke-miterlimit="2.61313"
                                                stroke-linecap="round" stroke-linejoin="round" />
                                            <path
                                                d="M75.1499 30.9542C75.1499 30.9542 74.7943 29.4583 74.0887 29.9551C73.3831 30.4518 71.8985 34.3919 71.8985 34.3919C71.8985 34.3919 72.8525 36.3902 72.3219 36.9998C71.7912 37.6095 70.7695 38.8513 70.7695 38.8513"
                                                stroke="black" stroke-width="0.75" stroke-miterlimit="2.61313"
                                                stroke-linecap="round" stroke-linejoin="round" />
                                            <path
                                                d="M53.4869 37.5635C53.4135 37.4675 53.4305 37.3264 53.5264 37.253C53.6224 37.1796 53.7635 37.1966 53.8369 37.2925L53.4869 37.5635ZM79.4701 39.4884L79.7862 39.8045L78.4992 41.0068L77.2235 42.0455L75.959 42.9261L74.7059 43.6599L73.464 44.2526L72.2391 44.7155L71.0367 45.0542L69.8513 45.2743L68.6941 45.3872L67.5595 45.3985L66.4531 45.3195L65.3806 45.1558L64.3419 44.9187L63.3372 44.6195L62.3719 44.2583L61.4461 43.8518L60.5599 43.4059L59.7132 42.9261L58.9116 42.4237L58.1608 41.9044L57.4552 41.3794L56.8004 40.8601L56.2021 40.3464L55.6545 39.8553L55.1634 39.3868L54.7344 38.9578L54.3619 38.5683L54.0514 38.2296L53.8087 37.953L53.6337 37.7441L53.5264 37.6143L53.4869 37.5635L53.8369 37.2925L53.8708 37.3321L53.9724 37.4619L54.1417 37.6651L54.3788 37.936L54.678 38.2691L55.0392 38.6529L55.4626 39.0763L55.9424 39.5335L56.4787 40.019L57.0714 40.5214L57.7149 41.0351L58.4036 41.5487L59.143 42.0568L59.9277 42.5479L60.7518 43.0164L61.6211 43.4511L62.5243 43.8462L63.467 44.1962L64.4435 44.4897L65.454 44.7212L66.4926 44.8792L67.5595 44.9582L68.6546 44.9469L69.7779 44.8397L70.9238 44.6252L72.0923 44.2978L73.2777 43.8518L74.4857 43.2761L75.7106 42.5592L76.9469 41.6955L78.2 40.6794L79.4645 39.494L79.4701 39.4884ZM81.4627 37.8119L80.4975 40.719L78.5613 38.7828L81.4627 37.8119ZM79.4701 39.4884C79.5548 39.4037 79.6959 39.4037 79.7862 39.4884C79.8709 39.5731 79.8709 39.7142 79.7862 39.8045L79.4701 39.4884Z"
                                                fill="#008763" />
                                            <path
                                                d="M53.4869 37.5635C53.4135 37.4675 53.4305 37.3264 53.5264 37.253C53.6224 37.1796 53.7635 37.1966 53.8369 37.2925M53.4869 37.5635L53.8369 37.2925M53.4869 37.5635L53.5264 37.6143L53.6337 37.7441L53.8087 37.953L54.0514 38.2296L54.3619 38.5683L54.7344 38.9578L55.1634 39.3868L55.6545 39.8553L56.2021 40.3464L56.8004 40.8601L57.4552 41.3794L58.1608 41.9044L58.9116 42.4237L59.7132 42.9261L60.5599 43.4059L61.4461 43.8518L62.3719 44.2583L63.3372 44.6195L64.3419 44.9187L65.3806 45.1558L66.4531 45.3195L67.5595 45.3985L68.6941 45.3872L69.8513 45.2743L71.0367 45.0542L72.2391 44.7155L73.464 44.2526L74.7059 43.6599L75.959 42.9261L77.2235 42.0455L78.4992 41.0068L79.7862 39.8045M53.8369 37.2925L53.8708 37.3321L53.9724 37.4619L54.1417 37.6651L54.3788 37.936L54.678 38.2691L55.0392 38.6529L55.4626 39.0763L55.9424 39.5335L56.4787 40.019L57.0714 40.5214L57.7149 41.0351L58.4036 41.5487L59.143 42.0568L59.9277 42.5479L60.7518 43.0164L61.6211 43.4511L62.5243 43.8462L63.467 44.1962L64.4435 44.4897L65.454 44.7212L66.4926 44.8792L67.5595 44.9582L68.6546 44.9469L69.7779 44.8397L70.9238 44.6252L72.0923 44.2978L73.2777 43.8518L74.4857 43.2761L75.7106 42.5592L76.9469 41.6955L78.2 40.6794L79.4645 39.494L79.4701 39.4884M79.4701 39.4884L79.7862 39.8045M79.4701 39.4884C79.5548 39.4037 79.6959 39.4037 79.7862 39.4884C79.8709 39.5731 79.8709 39.7142 79.7862 39.8045M81.4627 37.8119L80.4975 40.719L78.5613 38.7828L81.4627 37.8119Z"
                                                stroke="#008763" />
                                            <path
                                                d="M34.9383 37.2925C35.0117 37.1966 35.1528 37.1796 35.2488 37.253C35.3448 37.3264 35.3617 37.4675 35.2883 37.5635L34.9383 37.2925ZM8.98902 39.8045L9.30513 39.4884L10.5696 40.6738L11.8227 41.6899L13.0589 42.5535L14.2839 43.2704L15.4919 43.8462L16.6773 44.2921L17.8458 44.6195L18.9917 44.834L20.115 44.9413L21.2101 44.9526L22.277 44.8736L23.3156 44.7155L24.326 44.4841L25.3026 44.1905L26.2453 43.8406L27.1485 43.4454L28.0178 43.0108L28.8419 42.5422L29.6266 42.0511L30.366 41.5431L31.0547 41.0294L31.6982 40.5157L32.2909 40.0134L32.8272 39.5279L33.307 39.0707L33.7303 38.6473L34.0916 38.2635L34.3908 37.9304L34.6279 37.6595L34.7972 37.4562L34.8988 37.3264L34.9327 37.2869L35.2827 37.5578L35.2432 37.6087L35.1359 37.7385L34.9609 37.9473L34.7182 38.2239L34.4077 38.5626L34.0352 38.9521L33.6062 39.3811L33.1151 39.8496L32.5675 40.3408L31.9692 40.8544L31.3144 41.3738L30.6088 41.8987L29.858 42.4181L29.0564 42.9204L28.2097 43.4003L27.3235 43.8462L26.3977 44.2526L25.4324 44.6139L24.4277 44.9131L23.389 45.1502L22.3165 45.3139L21.2101 45.3929L20.0755 45.3816L18.9183 45.2687L17.7329 45.0486L16.5305 44.7099L15.3056 44.247L14.0637 43.6543L12.8106 42.9204L11.5461 42.0399L10.2704 41.0012L8.98337 39.7988L8.98902 39.8045ZM7.3125 37.8062L10.2196 38.7771L8.28341 40.7133L7.3125 37.8062ZM8.98902 39.8045C8.90434 39.7198 8.90434 39.5787 8.98902 39.4884C9.07369 39.4037 9.21481 39.4037 9.30513 39.4884L8.98902 39.8045Z"
                                                fill="#008763" />
                                            <path
                                                d="M8.98902 39.8045L9.30513 39.4884M8.98902 39.8045L8.98337 39.7988L10.2704 41.0012L11.5461 42.0399L12.8106 42.9204L14.0637 43.6543L15.3056 44.247L16.5305 44.7099L17.7329 45.0486L18.9183 45.2687L20.0755 45.3816L21.2101 45.3929L22.3165 45.3139L23.389 45.1502L24.4277 44.9131L25.4324 44.6139L26.3977 44.2526L27.3235 43.8462L28.2097 43.4003L29.0564 42.9204L29.858 42.4181L30.6088 41.8987L31.3144 41.3738L31.9692 40.8544L32.5675 40.3408L33.1151 39.8496L33.6062 39.3811L34.0352 38.9521L34.4077 38.5626L34.7182 38.2239L34.9609 37.9473L35.1359 37.7385L35.2432 37.6087L35.2827 37.5578L34.9327 37.2869L34.8988 37.3264L34.7972 37.4562L34.6279 37.6595L34.3908 37.9304L34.0916 38.2635L33.7303 38.6473L33.307 39.0707L32.8272 39.5279L32.2909 40.0134L31.6982 40.5157L31.0547 41.0294L30.366 41.5431L29.6265 42.0511L28.8419 42.5422L28.0178 43.0108L27.1485 43.4454L26.2453 43.8406L25.3026 44.1905L24.326 44.4841L23.3156 44.7155L22.277 44.8736L21.2101 44.9526L20.115 44.9413L18.9917 44.834L17.8458 44.6195L16.6773 44.2921L15.4919 43.8462L14.2839 43.2704L13.0589 42.5535L11.8227 41.6899L10.5696 40.6738L9.30513 39.4884M8.98902 39.8045C8.90434 39.7198 8.90434 39.5787 8.98902 39.4884C9.07369 39.4037 9.21481 39.4037 9.30513 39.4884M34.9383 37.2925C35.0117 37.1966 35.1528 37.1796 35.2488 37.253C35.3448 37.3264 35.3617 37.4675 35.2883 37.5635L34.9383 37.2925ZM7.3125 37.8062L10.2196 38.7771L8.28341 40.7133L7.3125 37.8062Z"
                                                stroke="#008763" />
                                        </g>
                                        <defs>
                                            <clipPath id="clip0_6806_10786">
                                                <rect width="85" height="85" fill="white"
                                                    transform="translate(0 0.00244141)" />
                                            </clipPath>
                                        </defs>
                                    </svg>