  <svg xmlns="http://www.w3.org/2000/svg" width="85" height="85" viewBox="0 0 85 85"
                                        fill="none">
                                        <path
                                            d="M29.7533 30.5569C30.5275 30.5569 31.1551 29.9293 31.1551 29.1552C31.1551 28.381 30.5275 27.7534 29.7533 27.7534C28.9791 27.7534 28.3516 28.381 28.3516 29.1552C28.3516 29.9293 28.9791 30.5569 29.7533 30.5569Z"
                                            fill="black" />
                                        <path
                                            d="M28.7877 29.0004C29.0846 29.0004 29.3253 28.7596 29.3253 28.4627C29.3253 28.1658 29.0846 27.925 28.7877 27.925C28.4907 27.925 28.25 28.1658 28.25 28.4627C28.25 28.7596 28.4907 29.0004 28.7877 29.0004Z"
                                            fill="white" />
                                        <path fill-rule="evenodd" clip-rule="evenodd"
                                            d="M35.3335 30.9075C36.9119 30.6809 33.0484 28.3613 32.8603 28.2269C32.0039 27.6124 30.8671 27.2361 29.6574 27.1746C26.9153 27.0325 25.7593 28.1655 23.7969 29.7016C23.7969 29.7016 24.5227 29.5979 25.3138 30.4697C26.105 31.3415 29.1389 32.3822 31.7773 31.737C34.4156 31.0919 35.3335 30.9037 35.3335 30.9037V30.9075Z"
                                            stroke="black" stroke-width="0.75" stroke-miterlimit="2.61313"
                                            stroke-linecap="round" stroke-linejoin="round" />
                                        <mask id="mask0_6806_10629" style="mask-type:alpha" maskUnits="userSpaceOnUse"
                                            x="26" y="26" width="7" height="7">
                                            <path
                                                d="M29.7534 31.6928C31.1553 31.6928 32.2919 30.5562 32.2919 29.1542C32.2919 27.7523 31.1553 26.6157 29.7534 26.6157C28.3514 26.6157 27.2148 27.7523 27.2148 29.1542C27.2148 30.5562 28.3514 31.6928 29.7534 31.6928Z"
                                                stroke="black" stroke-width="0.75" stroke-miterlimit="2.61313"
                                                stroke-linecap="round" stroke-linejoin="round" />
                                        </mask>
                                        <g mask="url(#mask0_6806_10629)">
                                            <path fill-rule="evenodd" clip-rule="evenodd"
                                                d="M35.3335 30.9065C36.9119 30.68 33.0484 28.3603 32.8603 28.2259C32.0039 27.6115 30.8671 27.2351 29.6574 27.1737C26.9153 27.0316 25.7593 28.1645 23.7969 29.7006C23.7969 29.7006 24.5227 29.597 25.3138 30.4687C26.105 31.3405 29.1389 32.3813 31.7773 31.7361C34.4156 31.0909 35.3335 30.9027 35.3335 30.9027V30.9065Z"
                                                fill="black" stroke="black" stroke-width="0.75"
                                                stroke-miterlimit="2.61313" stroke-linecap="round"
                                                stroke-linejoin="round" />
                                        </g>
                                        <path d="M34.965 29.9009C34.965 29.9009 34.4772 30.4078 34.6769 30.9992"
                                            stroke="black" stroke-width="0.75" stroke-miterlimit="2.61313"
                                            stroke-linecap="round" stroke-linejoin="round" />
                                        <path
                                            d="M35.5632 29.1836C35.5632 29.1836 33.7774 26.0652 29.576 26.023C25.3784 25.9807 23.2969 28.5384 23.2969 28.5384"
                                            stroke="black" stroke-width="0.75" stroke-miterlimit="2.61313"
                                            stroke-linecap="round" stroke-linejoin="round" />
                                        <path fill-rule="evenodd" clip-rule="evenodd"
                                            d="M36.0847 24.7393C36.0847 24.7393 36.8336 23.7676 34.6714 22.6347C34.6714 22.6347 26.8139 20.3036 24.9859 20.5302C23.1579 20.7567 20.2891 23.0533 20.2891 23.0533C20.2891 23.0533 23.492 21.8244 27.1481 22.796C30.808 23.7676 35.7122 25.1271 36.0847 24.7354V24.7393Z"
                                            stroke="black" stroke-width="0.75" stroke-miterlimit="2.61313"
                                            stroke-linecap="round" stroke-linejoin="round" />
                                        <path
                                            d="M42.3576 47.3348C42.3576 47.3348 41.3322 47.3617 40.9136 46.8894C40.4989 46.417 39.4427 46.0022 38.6094 46.056"
                                            stroke="black" stroke-width="0.75" stroke-miterlimit="2.61313"
                                            stroke-linecap="round" stroke-linejoin="round" />
                                        <path d="M37.419 43.7271C37.419 43.7271 36.0326 46.6381 38.9168 47.1105"
                                            stroke="black" stroke-width="0.75" stroke-miterlimit="2.61313"
                                            stroke-linecap="round" stroke-linejoin="round" />
                                        <path d="M37.9688 28.0747C37.9688 28.0747 40.465 30.2945 39.9658 36.3969"
                                            stroke="black" stroke-width="0.75" stroke-miterlimit="2.61313"
                                            stroke-linecap="round" stroke-linejoin="round" />
                                        <path fill-rule="evenodd" clip-rule="evenodd"
                                            d="M42.5053 52.907C42.5053 52.907 40.4661 51.9085 39.0221 52.7419C37.5781 53.5752 33.4727 55.626 33.4727 55.626C33.4727 55.626 35.3045 61.2292 42.5015 61.2292C49.7023 61.2292 51.5303 55.626 51.5303 55.626C51.5303 55.626 47.4249 53.5714 45.9809 52.7419C44.5369 51.9085 42.4976 52.907 42.4976 52.907H42.5053Z"
                                            stroke="black" stroke-width="0.75" stroke-miterlimit="2.61313"
                                            stroke-linecap="round" stroke-linejoin="round" />
                                        <path
                                            d="M42.5044 56.318C42.5044 56.318 41.9898 56.2911 41.3523 56.0261C40.7148 55.7611 37.5234 55.6383 35.9719 55.9993C34.4165 56.3603 33.948 55.5 32.2812 55.5"
                                            stroke="black" stroke-width="0.75" stroke-miterlimit="2.61313"
                                            stroke-linecap="round" stroke-linejoin="round" />
                                        <path
                                            d="M13.5938 28.2305C13.5938 28.2305 16.9119 42.1827 18.6861 49.4488C20.4604 56.7187 20.9059 57.94 24.7886 61.5999C28.6712 65.2636 36.1255 72.1418 42.5044 72.1418"
                                            stroke="black" stroke-width="0.75" stroke-miterlimit="2.61313"
                                            stroke-linecap="round" stroke-linejoin="round" />
                                        <path
                                            d="M11.1949 26.3196C11.1949 26.3196 9.05576 26.3465 9.77776 29.4534C10.4998 32.5603 13.1074 37.0536 13.4415 40.3832C13.7756 43.7128 15.0814 44.6921 17.4816 44.4809"
                                            stroke="black" stroke-width="0.75" stroke-miterlimit="2.61313"
                                            stroke-linecap="round" stroke-linejoin="round" />
                                        <path
                                            d="M11.75 30.9456C11.75 30.9456 12.1033 29.4478 12.81 29.9471C13.5166 30.4464 14.999 34.3866 14.999 34.3866C14.999 34.3866 14.0466 36.3836 14.5765 36.9943C15.1065 37.6049 16.1319 38.8454 16.1319 38.8454"
                                            stroke="black" stroke-width="0.75" stroke-miterlimit="2.61313"
                                            stroke-linecap="round" stroke-linejoin="round" />
                                        <path
                                            d="M55.2611 30.5574C56.0353 30.5574 56.6629 29.9298 56.6629 29.1557C56.6629 28.3815 56.0353 27.7539 55.2611 27.7539C54.487 27.7539 53.8594 28.3815 53.8594 29.1557C53.8594 29.9298 54.487 30.5574 55.2611 30.5574Z"
                                            fill="black" />
                                        <path
                                            d="M54.2955 29.0006C54.5924 29.0006 54.8331 28.7599 54.8331 28.463C54.8331 28.166 54.5924 27.9253 54.2955 27.9253C53.9985 27.9253 53.7578 28.166 53.7578 28.463C53.7578 28.7599 53.9985 29.0006 54.2955 29.0006Z"
                                            fill="white" />
                                        <path fill-rule="evenodd" clip-rule="evenodd"
                                            d="M49.6749 30.9075C48.0964 30.6809 51.9599 28.3613 52.1481 28.2269C53.0045 27.6124 54.1413 27.2361 55.351 27.1746C58.0931 27.0325 59.249 28.1655 61.2115 29.7016C61.2115 29.7016 60.4856 29.5979 59.6945 30.4697C58.9034 31.3415 55.8695 32.3822 53.2311 31.737C50.5927 31.0919 49.6749 30.9037 49.6749 30.9037V30.9075Z"
                                            stroke="black" stroke-width="0.75" stroke-miterlimit="2.61313"
                                            stroke-linecap="round" stroke-linejoin="round" />
                                        <mask id="mask1_6806_10629" style="mask-type:alpha" maskUnits="userSpaceOnUse"
                                            x="52" y="26" width="7" height="7">
                                            <path
                                                d="M55.2573 31.6928C56.6593 31.6928 57.7958 30.5562 57.7958 29.1542C57.7958 27.7523 56.6593 26.6157 55.2573 26.6157C53.8553 26.6157 52.7188 27.7523 52.7188 29.1542C52.7188 30.5562 53.8553 31.6928 55.2573 31.6928Z"
                                                stroke="black" stroke-width="0.75" stroke-miterlimit="2.61313"
                                                stroke-linecap="round" stroke-linejoin="round" />
                                        </mask>
                                        <g mask="url(#mask1_6806_10629)">
                                            <path fill-rule="evenodd" clip-rule="evenodd"
                                                d="M49.671 30.9065C48.0925 30.68 51.956 28.3603 52.1442 28.2259C53.0006 27.6115 54.1374 27.2351 55.3471 27.1737C58.0891 27.0316 59.2451 28.1645 61.2076 29.7006C61.2076 29.7006 60.4817 29.597 59.6906 30.4687C58.8995 31.3405 55.8656 32.3813 53.2272 31.7361C50.5888 31.0909 49.671 30.9027 49.671 30.9027V30.9065Z"
                                                fill="black" stroke="black" stroke-width="0.75"
                                                stroke-miterlimit="2.61313" stroke-linecap="round"
                                                stroke-linejoin="round" />
                                        </g>
                                        <path d="M50.0391 29.9009C50.0391 29.9009 50.5268 30.4078 50.3271 30.9992"
                                            stroke="black" stroke-width="0.75" stroke-miterlimit="2.61313"
                                            stroke-linecap="round" stroke-linejoin="round" />
                                        <path
                                            d="M49.4453 29.1836C49.4453 29.1836 51.2311 26.0652 55.4325 26.023C59.6301 25.9807 61.7116 28.5384 61.7116 28.5384"
                                            stroke="black" stroke-width="0.75" stroke-miterlimit="2.61313"
                                            stroke-linecap="round" stroke-linejoin="round" />
                                        <path fill-rule="evenodd" clip-rule="evenodd"
                                            d="M48.9301 24.7393C48.9301 24.7393 48.1812 23.7676 50.3434 22.6347C50.3434 22.6347 58.2009 20.3036 60.0289 20.5302C61.8569 20.7567 64.7257 23.0533 64.7257 23.0533C64.7257 23.0533 61.5228 21.8244 57.8668 22.796C54.2068 23.7676 49.3026 25.1271 48.9301 24.7354V24.7393Z"
                                            stroke="black" stroke-width="0.75" stroke-miterlimit="2.61313"
                                            stroke-linecap="round" stroke-linejoin="round" />
                                        <path
                                            d="M42.6562 47.3348C42.6562 47.3348 43.6816 47.3617 44.1002 46.8894C44.515 46.417 45.5711 46.0022 46.4045 46.056"
                                            stroke="black" stroke-width="0.75" stroke-miterlimit="2.61313"
                                            stroke-linecap="round" stroke-linejoin="round" />
                                        <path d="M47.5954 43.7271C47.5954 43.7271 48.9818 46.6381 46.0977 47.1105"
                                            stroke="black" stroke-width="0.75" stroke-miterlimit="2.61313"
                                            stroke-linecap="round" stroke-linejoin="round" />
                                        <path d="M47.0357 28.0747C47.0357 28.0747 44.5394 30.2945 45.0387 36.3969"
                                            stroke="black" stroke-width="0.75" stroke-miterlimit="2.61313"
                                            stroke-linecap="round" stroke-linejoin="round" />
                                        <path
                                            d="M42.5078 56.3178C42.5078 56.3178 43.0224 56.2909 43.6599 56.0259C44.2974 55.7609 47.4888 55.638 49.0404 55.999C50.5957 56.36 51.0643 55.4998 52.731 55.4998"
                                            stroke="black" stroke-width="0.75" stroke-miterlimit="2.61313"
                                            stroke-linecap="round" stroke-linejoin="round" />
                                        <path
                                            d="M71.4107 28.2307C71.4107 28.2307 68.0925 42.183 66.3183 49.449C64.544 56.7189 64.0985 57.9402 60.2158 61.6001C56.3332 65.2639 48.8789 72.1421 42.5 72.1421"
                                            stroke="black" stroke-width="0.75" stroke-miterlimit="2.61313"
                                            stroke-linecap="round" stroke-linejoin="round" />
                                        <path
                                            d="M73.818 26.3198C73.818 26.3198 75.9571 26.3467 75.2351 29.4536C74.5131 32.5605 71.9055 37.0538 71.5714 40.3834C71.2372 43.7131 69.9315 44.6924 67.5312 44.4812"
                                            stroke="black" stroke-width="0.75" stroke-miterlimit="2.61313"
                                            stroke-linecap="round" stroke-linejoin="round" />
                                        <path
                                            d="M73.2608 30.9456C73.2608 30.9456 72.9075 29.4478 72.2009 29.9471C71.4942 30.4464 70.0118 34.3866 70.0118 34.3866C70.0118 34.3866 70.9643 36.3836 70.4343 36.9943C69.9043 37.6049 68.8789 38.8454 68.8789 38.8454"
                                            stroke="black" stroke-width="0.75" stroke-miterlimit="2.61313"
                                            stroke-linecap="round" stroke-linejoin="round" />
                                        <path
                                            d="M42.5024 37.8579C42.8015 37.8579 43.0439 37.6155 43.0439 37.3164C43.0439 37.0173 42.8015 36.7749 42.5024 36.7749C42.2034 36.7749 41.9609 37.0173 41.9609 37.3164C41.9609 37.6155 42.2034 37.8579 42.5024 37.8579Z"
                                            fill="#008763" stroke="#008763" />
                                        <path
                                            d="M38.936 40.9551C39.2351 40.9551 39.4775 40.7126 39.4775 40.4136C39.4775 40.1145 39.2351 39.8721 38.936 39.8721C38.637 39.8721 38.3945 40.1145 38.3945 40.4136C38.3945 40.7126 38.637 40.9551 38.936 40.9551Z"
                                            fill="#008763" stroke="#008763" />
                                        <path
                                            d="M36.4477 38.1614C36.7468 38.1614 36.9892 37.9189 36.9892 37.6199C36.9892 37.3208 36.7468 37.0784 36.4477 37.0784C36.1487 37.0784 35.9062 37.3208 35.9062 37.6199C35.9062 37.9189 36.1487 38.1614 36.4477 38.1614Z"
                                            fill="#008763" stroke="#008763" />
                                        <path
                                            d="M33.5532 40.3852C33.8523 40.3852 34.0947 40.1428 34.0947 39.8437C34.0947 39.5447 33.8523 39.3022 33.5532 39.3022C33.2542 39.3022 33.0117 39.5447 33.0117 39.8437C33.0117 40.1428 33.2542 40.3852 33.5532 40.3852Z"
                                            fill="#008763" stroke="#008763" />
                                        <path
                                            d="M31.2759 37.8882C31.5749 37.8882 31.8174 37.6457 31.8174 37.3467C31.8174 37.0476 31.5749 36.8052 31.2759 36.8052C30.9768 36.8052 30.7344 37.0476 30.7344 37.3467C30.7344 37.6457 30.9768 37.8882 31.2759 37.8882Z"
                                            fill="#008763" stroke="#008763" />
                                        <path
                                            d="M29.7759 41.2905C30.0749 41.2905 30.3174 41.0481 30.3174 40.749C30.3174 40.45 30.0749 40.2075 29.7759 40.2075C29.4768 40.2075 29.2344 40.45 29.2344 40.749C29.2344 41.0481 29.4768 41.2905 29.7759 41.2905Z"
                                            fill="#008763" stroke="#008763" />
                                        <path
                                            d="M27.0063 38.8413C27.3054 38.8413 27.5478 38.5989 27.5478 38.2998C27.5478 38.0007 27.3054 37.7583 27.0063 37.7583C26.7073 37.7583 26.4648 38.0007 26.4648 38.2998C26.4648 38.5989 26.7073 38.8413 27.0063 38.8413Z"
                                            fill="#008763" stroke="#008763" />
                                        <path
                                            d="M46.0649 40.9551C46.364 40.9551 46.6064 40.7126 46.6064 40.4136C46.6064 40.1145 46.364 39.8721 46.0649 39.8721C45.7659 39.8721 45.5234 40.1145 45.5234 40.4136C45.5234 40.7126 45.7659 40.9551 46.0649 40.9551Z"
                                            fill="#008763" stroke="#008763" />
                                        <path
                                            d="M48.5493 38.1616C48.8484 38.1616 49.0908 37.9192 49.0908 37.6201C49.0908 37.321 48.8484 37.0786 48.5493 37.0786C48.2502 37.0786 48.0078 37.321 48.0078 37.6201C48.0078 37.9192 48.2502 38.1616 48.5493 38.1616Z"
                                            fill="#008763" stroke="#008763" />
                                        <path
                                            d="M51.4517 40.385C51.7507 40.385 51.9932 40.1426 51.9932 39.8435C51.9932 39.5444 51.7507 39.302 51.4517 39.302C51.1526 39.302 50.9102 39.5444 50.9102 39.8435C50.9102 40.1426 51.1526 40.385 51.4517 40.385Z"
                                            fill="#008763" stroke="#008763" />
                                        <path
                                            d="M53.7212 37.8882C54.0202 37.8882 54.2627 37.6457 54.2627 37.3467C54.2627 37.0476 54.0202 36.8052 53.7212 36.8052C53.4221 36.8052 53.1797 37.0476 53.1797 37.3467C53.1797 37.6457 53.4221 37.8882 53.7212 37.8882Z"
                                            fill="#008763" stroke="#008763" />
                                        <path
                                            d="M55.2212 41.2905C55.5202 41.2905 55.7627 41.0481 55.7627 40.749C55.7627 40.45 55.5202 40.2075 55.2212 40.2075C54.9221 40.2075 54.6797 40.45 54.6797 40.749C54.6797 41.0481 54.9221 41.2905 55.2212 41.2905Z"
                                            fill="#008763" stroke="#008763" />
                                        <path
                                            d="M57.9985 38.8413C58.2976 38.8413 58.54 38.5989 58.54 38.2998C58.54 38.0007 58.2976 37.7583 57.9985 37.7583C57.6995 37.7583 57.457 38.0007 57.457 38.2998C57.457 38.5989 57.6995 38.8413 57.9985 38.8413Z"
                                            fill="#008763" stroke="#008763" />
                                    </svg>