<svg xmlns="http://www.w3.org/2000/svg" width="48" height="49" viewBox="0 0 48 49" fill="none">
  <mask id="mask0_24596_1440" style="mask-type:alpha" maskUnits="userSpaceOnUse" x="9" y="7" width="38" height="31">
    <path d="M17.7624 12.9478C18.0172 12.3069 18.7432 11.9938 19.3841 12.2485L21.3182 13.0172C21.9591 13.2719 22.2722 13.9979 22.0175 14.6389L13.716 35.5272C13.4613 36.1681 12.7353 36.4811 12.0944 36.2264L10.1603 35.4578C9.51935 35.2031 9.20628 34.477 9.46099 33.8361L17.7624 12.9478Z" fill="#C7E7DC"/>
    <path fill-rule="evenodd" clip-rule="evenodd" d="M21.3653 16.8431L24.5136 18.0943L15.8357 33.682L16.379 33.8979L15.5335 36.0254L13.9325 35.3892L23.325 18.5178L21.8314 17.9242L20.4479 21.4056L19.6742 21.0982L21.3653 16.8431Z" fill="#C7E7DC" stroke="black"/>
    <path d="M20.1837 12.7748V12.7748C21.6275 9.14182 25.743 7.36717 29.376 8.81098L30.2415 9.15497C34.3525 10.7888 36.3607 15.4458 34.7269 19.5568L30.4526 30.312C29.4316 32.8809 30.6865 35.791 33.2554 36.8119V36.8119C34.489 37.3022 35.8669 37.2823 37.0859 36.7567L45.8259 32.988" stroke="black"/>
  </mask>
  <g mask="url(#mask0_24596_1440)">
    <circle cx="23" cy="23.1968" r="20" fill="black"/>
  </g>
  <circle cx="24" cy="24.1968" r="19.5" stroke="black"/>
</svg>