<svg xmlns="http://www.w3.org/2000/svg" width="42" height="42" viewBox="0 0 42 42" fill="none">
  <path d="M38.65 12.1253L26.0238 5.2168C25.6864 5.03039 25.3073 4.93262 24.9219 4.93262C24.5364 4.93262 24.1573 5.03039 23.82 5.2168L11.1938 12.1282C10.8332 12.3255 10.5322 12.616 10.3222 12.9693C10.1122 13.3227 10.0009 13.7259 10 14.1369V27.8593C10.0009 28.2703 10.1122 28.6736 10.3222 29.0269C10.5322 29.3803 10.8332 29.6707 11.1938 29.868L23.82 36.7794C24.1573 36.9658 24.5364 37.0636 24.9219 37.0636C25.3073 37.0636 25.6864 36.9658 26.0238 36.7794L38.65 29.868C39.0106 29.6707 39.3116 29.3803 39.5216 29.0269C39.7315 28.6736 39.8428 28.2703 39.8438 27.8593V14.1384C39.8436 13.7266 39.7327 13.3225 39.5227 12.9683C39.3126 12.6141 39.0112 12.323 38.65 12.1253ZM24.9219 7.22551L36.449 13.5386L32.1776 15.8773L20.6491 9.56423L24.9219 7.22551ZM24.9219 19.8517L13.3947 13.5386L18.2587 10.8756L29.7858 17.1887L24.9219 19.8517ZM12.2957 15.5473L23.774 21.8289V34.138L12.2957 27.8608V15.5473ZM37.5481 27.855L26.0697 34.138V21.8346L30.6611 19.3223V24.4431C30.6611 24.7475 30.782 25.0394 30.9973 25.2547C31.2125 25.47 31.5045 25.5909 31.8089 25.5909C32.1133 25.5909 32.4053 25.47 32.6205 25.2547C32.8358 25.0394 32.9567 24.7475 32.9567 24.4431V18.0654L37.5481 15.5473V27.8536V27.855Z" fill="black"/>
  <path fill-rule="evenodd" clip-rule="evenodd" d="M5 23.5566L0 20.6699L5 17.5566V19.5566H15V21.5566L5 21.5566V23.5566Z" fill="black"/>
</svg>