<svg xmlns="http://www.w3.org/2000/svg" width="28" height="28" viewBox="0 0 28 28" fill="none">
                                            <path d="M18.5889 15.006C18.5889 17.942 16.2161 20.2465 13.2886 20.2465C10.3525 20.2465 7.97974 17.8738 7.97974 14.9462C7.97974 12.4113 11.8205 7.41827 13.2886 5.13086L17.0952 11.1225" stroke="white" stroke-width="0.584469" stroke-miterlimit="2.61313" stroke-linecap="round" stroke-linejoin="round"></path>
                                            <path d="M19.852 14.9718H16.327L19.7069 9.9873L23.0953 14.9718H21.4225M21.3969 14.9462C21.3969 19.4186 17.7694 23.0545 13.2885 23.0545M13.2885 23.0545C8.80758 23.0545 5.17163 19.4186 5.17163 14.9462" stroke="white" stroke-width="0.584469" stroke-miterlimit="2.61313" stroke-linecap="round" stroke-linejoin="round"></path>
                                            <path d="M5.42773 13.4869L5.58137 13.0942" stroke="white" stroke-width="0.584469" stroke-miterlimit="2.61313" stroke-linecap="round" stroke-linejoin="round"></path>
                                            <path d="M6.03369 11.9678L6.18732 11.5752" stroke="white" stroke-width="0.584469" stroke-miterlimit="2.61313" stroke-linecap="round" stroke-linejoin="round"></path>
                                            <path d="M12.0168 16.2863C12.1875 16.4229 12.546 16.6618 13.0666 16.7131V17.0971C13.0666 17.2081 13.1263 17.2678 13.2544 17.2678H13.3056C13.4336 17.2678 13.4934 17.1996 13.4934 17.0715V16.7131C14.2103 16.6277 14.6371 16.1241 14.6371 15.5181C14.6371 14.1611 12.546 14.3403 12.546 13.4868C12.546 13.1539 12.8618 12.8637 13.3141 12.8637C13.6641 12.8637 13.9372 13.0088 14.0823 13.1112C14.2018 13.1795 14.2957 13.171 14.3639 13.0515L14.4407 12.9064C14.5005 12.7954 14.492 12.7016 14.3895 12.6333C14.2274 12.5223 13.9286 12.3516 13.4934 12.326V11.9334C13.4934 11.8224 13.4336 11.7627 13.3056 11.7627H13.2544C13.1263 11.7627 13.0666 11.831 13.0666 11.959V12.326C12.3923 12.4284 11.9485 12.9149 11.9485 13.5039C11.9485 14.7927 14.0396 14.6561 14.0396 15.5437C14.0396 15.9449 13.6897 16.1668 13.297 16.1668C12.8703 16.1668 12.5374 15.962 12.3667 15.8339C12.2558 15.7657 12.1619 15.7657 12.0851 15.8681L11.9912 16.0132C11.9058 16.1071 11.9144 16.2095 12.0168 16.2863Z" fill="white"></path>
                                        </svg>