<svg width="22" height="25" viewBox="0 0 22 25" fill="none" xmlns="http://www.w3.org/2000/svg">
<path fill-rule="evenodd" clip-rule="evenodd" d="M18.0501 4.03553C17.6289 4.45673 16.4536 5.24894 15.2174 5.80056C14.6081 6.07247 14.0614 6.25014 13.6478 6.30982C13.589 6.3183 13.5377 6.32381 13.4932 6.32718C13.4506 6.27394 13.4045 6.22365 13.3552 6.17665C13.3586 6.13487 13.3639 6.0874 13.3716 6.03368C13.4313 5.62002 13.609 5.07331 13.8809 4.464C14.4325 3.22787 15.2247 2.0525 15.6459 1.6313C16.3098 0.967387 17.3862 0.967387 18.0501 1.6313C18.7141 2.29521 18.7141 3.37162 18.0501 4.03553ZM12.5515 5.77821C12.6673 4.14672 14.0055 1.66887 14.8445 0.829887C15.951 -0.276629 17.745 -0.276629 18.8516 0.829887C19.9581 1.9364 19.9581 3.73042 18.8516 4.83694C17.9689 5.71962 15.3919 7.27475 13.8238 7.30611V7.60488H19.7846C20.5058 7.60488 21.0904 8.18952 21.0904 8.91071V12.1137C21.0904 12.8349 20.5058 13.4195 19.7846 13.4195H19.4735V23.6939C19.4735 24.4151 18.8888 24.9997 18.1676 24.9997H2.89184C2.17065 24.9997 1.58601 24.4151 1.58601 23.6939V13.4195H1.30583C0.584643 13.4195 0 12.8349 0 12.1137V8.91072C0 8.18952 0.584641 7.60488 1.30583 7.60488H7.0236V7.27752C5.37022 7.0588 2.9389 5.65738 2.11845 4.83694C1.01193 3.73042 1.01193 1.9364 2.11845 0.829887C3.22497 -0.276629 5.01898 -0.276629 6.1255 0.829887C6.96127 1.66565 8.44515 4.12777 8.64448 5.75943H12.3126C12.3939 5.75943 12.4737 5.76585 12.5515 5.77821ZM8.17895 7.14326C8.24895 7.10353 8.31224 7.05602 8.36807 7.00019C8.39872 6.96954 8.4268 6.9367 8.45241 6.9018C8.47891 6.8959 8.50647 6.8928 8.53475 6.8928H12.3126C12.5213 6.8928 12.6904 7.06194 12.6904 7.27058L12.6904 23.3821C12.6904 23.5908 12.5213 23.7599 12.3126 23.7599H8.53475C8.3261 23.7599 8.15696 23.5908 8.15696 23.3821L8.15696 7.27058C8.15696 7.22591 8.16472 7.18305 8.17895 7.14326ZM7.6046 6.07953C7.60273 6.06478 7.60067 6.0495 7.59838 6.03368C7.53871 5.62002 7.36103 5.07331 7.08912 4.464C6.5375 3.22787 5.74529 2.0525 5.32409 1.6313C4.66018 0.967387 3.58377 0.967387 2.91986 1.6313C2.25595 2.29521 2.25595 3.37162 2.91986 4.03553C3.34106 4.45673 4.51643 5.24894 5.75256 5.80056C6.36187 6.07247 6.90858 6.25014 7.32224 6.30982C7.33648 6.31187 7.35028 6.31375 7.36365 6.31547C7.43493 6.22817 7.51578 6.14899 7.6046 6.07953ZM7.0236 8.73825H1.30583C1.21058 8.73825 1.13336 8.81546 1.13336 8.91072V12.1137C1.13336 12.209 1.21058 12.2862 1.30583 12.2862H7.0236L7.0236 8.73825ZM7.0236 13.4195H2.71937V23.6939C2.71937 23.7891 2.79659 23.8664 2.89184 23.8664H7.10285C7.05146 23.7143 7.0236 23.5515 7.0236 23.3821L7.0236 13.4195ZM13.7445 23.8664H18.1676C18.2629 23.8664 18.3401 23.7891 18.3401 23.6939V13.4195H13.8238L13.8238 23.3821C13.8238 23.5515 13.7959 23.7143 13.7445 23.8664ZM13.8238 12.2862H19.7846C19.8799 12.2862 19.9571 12.209 19.9571 12.1137V8.91071C19.9571 8.81546 19.8799 8.73825 19.7846 8.73825H13.8238V12.2862Z" fill="white"/>
</svg>
