<svg xmlns="http://www.w3.org/2000/svg" width="28" height="28" viewBox="0 0 28 28" fill="none">
                                            <path d="M13.9493 19.8001C13.2746 20.1401 12.512 20.3324 11.704 20.3324C8.9492 20.3324 6.71667 18.0989 6.71667 15.345C6.71667 15.228 6.72121 15.1138 6.72846 14.9995C6.72846 14.9995 6.3993 12.8504 11.704 5.13086C16.618 12.2818 16.6978 14.6513 16.6833 14.9623" stroke="white" stroke-width="0.584469" stroke-miterlimit="2.61313" stroke-linecap="round" stroke-linejoin="round"></path>
                                            <path d="M10.1471 18.2722C8.96278 17.7916 8.12762 16.63 8.12762 15.2734" stroke="white" stroke-width="0.584469" stroke-miterlimit="2.61313" stroke-linecap="round" stroke-linejoin="round"></path>
                                            <path fill-rule="evenodd" clip-rule="evenodd" d="M18.6276 12.9238H18.8412C19.1944 12.9275 19.3219 12.9627 19.6993 13.3037C20.5283 14.0537 21.6327 13.4177 22.1449 14.0998C22.2687 14.2648 22.3573 14.7005 22.4119 14.948C22.6049 15.8364 23.0516 15.7648 23.4715 16.05C23.7325 16.2271 23.838 16.4674 23.8611 16.7259V16.9626C23.8235 17.4468 23.5771 17.9467 23.5504 18.187C23.497 18.6615 23.7604 18.9734 23.7604 19.4406C23.7604 19.9916 23.2567 20.1433 22.9763 20.312C21.9908 20.9066 22.3695 21.0935 21.9143 21.8835C21.583 22.4612 20.9203 22.1821 20.2079 22.3046C19.834 22.369 19.794 22.5449 19.5634 22.7403C19.3352 22.9333 19.124 23.0267 18.9274 23.0546H18.6737C18.0972 22.9757 17.6603 22.3932 17.3314 22.3241C16.9988 22.2549 16.6663 22.3289 16.3094 22.2646C15.5934 22.136 15.5824 21.6238 15.3664 21.0802C15.12 20.46 14.6285 20.3617 14.2425 20.1105C13.4038 19.5656 14.1187 18.8763 14.0422 18.187C13.9755 17.5936 13.7303 17.687 13.7303 16.7405C13.7303 16.4322 13.9464 16.1628 14.1418 16.0366C14.5775 15.7526 14.9962 15.8194 15.1855 14.9201C15.5242 13.3097 15.9793 13.9469 17.2015 13.6592C17.9334 13.4869 18.0754 12.9238 18.6276 12.9238Z" fill="#121212" stroke="white" stroke-width="0.584469" stroke-miterlimit="2.61313"></path>
                                            <path d="M16.8475 17.9626L18.1665 19.1582L20.7439 16.8203" stroke="white" stroke-width="0.584469" stroke-miterlimit="2.61313" stroke-linecap="round" stroke-linejoin="round"></path>
                                        </svg>