<svg class="mi_icon" xmlns="http://www.w3.org/2000/svg" width="29" height="28" viewBox="0 0 29 28" fill="none">
                                            <path fill-rule="evenodd" clip-rule="evenodd" d="M14.4755 6.68945H16.1862V18.3218H11.5768C11.2347 16.9533 10.1782 15.9269 8.31346 15.9269C6.44868 15.9269 5.39222 16.9533 5.05009 18.3218H4.55381C4.55381 18.3218 4.55381 18.3218 4.55381 17.9797C4.55381 17.2954 3.86956 16.269 3.1853 15.9269V6.68945L14.4755 6.68945Z" stroke="white" stroke-width="0.584469" stroke-miterlimit="2.61313" stroke-linecap="round" stroke-linejoin="round"></path>
                                            <path fill-rule="evenodd" clip-rule="evenodd" d="M8.31715 17.2954C9.34353 17.2954 10.0278 17.9797 10.0278 19.0061C10.0278 20.0324 9.34353 20.7167 8.31715 20.7167C7.29076 20.7167 6.60651 20.0324 6.60651 19.0061C6.60651 17.9797 7.29076 17.2954 8.31715 17.2954Z" stroke="white" stroke-width="0.584469" stroke-miterlimit="2.61313" stroke-linecap="round" stroke-linejoin="round"></path>
                                            <path fill-rule="evenodd" clip-rule="evenodd" d="M21.9798 17.2954C23.0062 17.2954 23.6905 17.9797 23.6905 19.0061C23.6905 20.0324 23.0062 20.7167 21.9798 20.7167C20.9535 20.7167 20.2692 20.0324 20.2692 19.0061C20.2692 17.9797 20.9535 17.2954 21.9798 17.2954Z" stroke="white" stroke-width="0.584469" stroke-miterlimit="2.61313" stroke-linecap="round" stroke-linejoin="round"></path>
                                            <path fill-rule="evenodd" clip-rule="evenodd" d="M18.4457 9.42676H22.5512L25.6304 13.1902V18.3221H25.0965C24.7544 16.9536 23.6979 15.9272 21.867 15.9272C19.9683 15.9272 18.9119 16.9536 18.5697 18.3221H18.1035V9.42676H18.4457Z" stroke="white" stroke-width="0.584469" stroke-miterlimit="2.61313" stroke-linecap="round" stroke-linejoin="round"></path>
                                        </svg>