<svg width="27" height="23" viewBox="0 0 27 23" fill="none" xmlns="http://www.w3.org/2000/svg">
<path id="Vector" d="M0.980037 6.62869C1.0368 6.30638 1.07094 5.97841 1.14467 5.66177C1.76842 3.07781 3.33602 1.32575 5.83052 0.405606C6.82606 0.038677 7.86101 -0.0680919 8.91277 0.0513533C10.6318 0.244751 12.1017 0.958255 13.3167 2.1862C13.5258 2.39558 13.7349 2.61061 13.9496 2.81999C13.9553 2.82565 13.9666 2.83131 14.0344 2.89356C14.0627 2.83703 14.0854 2.76918 14.1307 2.72397C14.6852 2.15317 15.2455 1.58803 15.93 1.16434C16.8126 0.610722 17.7629 0.255074 18.7978 0.114374C20.2061 -0.0769773 21.5688 0.0992221 22.8465 0.716463C24.8082 1.66215 26.1418 3.18424 26.7116 5.29396C27.4054 7.87879 26.8441 10.214 25.0105 12.1751C23.8108 13.458 22.5263 14.6674 21.2814 15.9107C19.0462 18.1373 16.8166 20.3583 14.5814 22.5793C14.1683 22.9862 13.7725 22.9859 13.3712 22.5785C9.98038 19.1776 6.58955 15.7766 3.19307 12.3814C2.23233 11.4194 1.54314 10.2992 1.22167 8.97571C1.13143 8.60807 1.09209 8.22915 1.03013 7.86153C1.0245 7.82194 1.00756 7.77669 1.00193 7.7371C1.00217 7.36952 1.00241 7.00194 1.00265 6.63436L0.980037 6.62869ZM13.9942 21.1029C14.0395 21.0351 14.0735 20.9673 14.1301 20.9164C16.8916 18.1642 19.6587 15.4176 22.4202 12.6654C23.0144 12.072 23.6368 11.5012 24.1744 10.8626C25.2441 9.59087 25.6409 8.10384 25.4271 6.45807C25.2695 5.27605 24.7952 4.22955 23.9758 3.36944C22.6025 1.9378 20.9233 1.33726 18.9495 1.60176C17.8524 1.74808 16.885 2.19419 16.0589 2.92881C15.544 3.3922 15.0687 3.89519 14.5707 4.3812C14.1916 4.75419 13.7731 4.75391 13.4057 4.38044C13.0214 3.99564 12.6485 3.60519 12.2585 3.2317C10.727 1.73776 8.90636 1.21064 6.81933 1.67865C4.42687 2.21432 2.6045 4.4073 2.48414 6.85587C2.3982 8.56365 2.95142 10.0513 4.16647 11.2679C7.38776 14.4991 10.6147 17.7303 13.8416 20.9558C13.8812 20.9954 13.9208 21.0294 13.9999 21.1029L13.9942 21.1029Z" fill="#E03D42"/>
</svg>
