<svg width="15" height="16" viewBox="0 0 15 16" fill="none" xmlns="http://www.w3.org/2000/svg">
<g opacity="0.4">
<circle cx="7.5" cy="7.83203" r="7.5" fill="black"/>
<path d="M7.51229 6.16218C7.35928 6.16218 7.21254 6.22296 7.10435 6.33116C6.99615 6.43935 6.93537 6.58609 6.93537 6.7391V10.6622C6.93537 10.8152 6.99615 10.9619 7.10435 11.0701C7.21254 11.1783 7.35928 11.2391 7.51229 11.2391C7.6653 11.2391 7.81205 11.1783 7.92024 11.0701C8.02843 10.9619 8.08922 10.8152 8.08922 10.6622V6.7391C8.08922 6.58609 8.02843 6.43935 7.92024 6.33116C7.81205 6.22296 7.6653 6.16218 7.51229 6.16218ZM7.51229 3.7968C7.35611 3.80267 7.20811 3.86811 7.09867 3.9797C6.98923 4.09128 6.92667 4.24053 6.92383 4.3968V4.4891C6.92356 4.56438 6.93896 4.63888 6.96905 4.70788C6.99914 4.77687 7.04327 4.83885 7.09862 4.88986C7.15398 4.94087 7.21934 4.9798 7.29056 5.00417C7.36178 5.02854 7.43729 5.03782 7.51229 5.03141C7.66348 5.0257 7.80693 4.96308 7.91391 4.8561C8.02089 4.74912 8.08351 4.60567 8.08922 4.45449V4.31603C8.08967 4.2427 8.07459 4.17011 8.04497 4.10304C8.01534 4.03596 7.97185 3.97592 7.91734 3.92687C7.86284 3.87782 7.79857 3.84086 7.72875 3.81844C7.65894 3.79602 7.58517 3.78865 7.51229 3.7968Z" fill="white"/>
</g>
</svg>
