<svg width="71" height="57" viewBox="0 0 71 57" fill="none" xmlns="http://www.w3.org/2000/svg">
<path fill-rule="evenodd" clip-rule="evenodd" d="M13.0206 3.69727H57.9841C59.0955 3.69727 60 4.60222 60 5.71394V50.6929C60 51.8047 59.0955 52.7142 57.9841 52.7142H13.0206C11.9092 52.7142 11 51.8047 11 50.6929V5.71394C11 4.60222 11.9092 3.69727 13.0206 3.69727Z" stroke="#C7E7DC" stroke-miterlimit="2.61313"/>
<path fill-rule="evenodd" clip-rule="evenodd" d="M35.4917 11.9898C35.4917 11.9898 31.3493 11.783 29.7374 16.1288C29.7374 16.1288 28.7317 18.6694 30.3114 21.2695C31.9004 23.8651 34.5273 24.1407 35.4917 24.1453C36.3688 24.1591 39.8037 23.7318 41.039 20.5482C41.76 18.6739 41.4892 17.1442 41.4341 16.8961C41.3515 16.5148 41.2274 16.0784 41.0162 15.619C40.263 13.9881 38.6007 12.1047 35.4917 11.9898ZM35.4686 12.2562C35.4686 12.2562 38.0955 12.1138 38.8624 15.6282C38.8624 15.6282 39.4455 18.6555 38.6097 21.3522C38.6097 21.3522 37.921 23.8558 35.3677 23.8558C32.8144 23.8558 32.1942 20.9019 32.1024 20.5068C32.0151 20.1164 31.4411 16.5148 32.5616 14.2178C32.5616 14.2178 33.3378 12.2562 35.4686 12.2562ZM41.581 22.9232V25.404C41.581 25.404 35.859 25.1238 35.859 28.9689H35.5421C35.5421 28.9689 35.2803 26.8465 37.356 24.7195C37.356 24.7195 39.0506 22.9232 41.581 22.9232Z" fill="#C7E7DC"/>
<path d="M24.2433 42.6631C25.5751 42.6631 26.6404 42.1258 27.3844 41.4918V38.3311H24.179V39.4796H26.1031V40.89C25.6393 41.2345 24.9965 41.4596 24.2893 41.4596C22.7509 41.4596 21.7267 40.3203 21.7267 38.7675V38.7492C21.7267 37.3068 22.7829 36.094 24.1698 36.094C25.125 36.094 25.6946 36.4063 26.2778 36.8979L27.1135 35.9009C26.342 35.244 25.5337 34.8765 24.2249 34.8765C21.9563 34.8765 20.3398 36.6635 20.3398 38.7675V38.7905C20.3398 40.9864 21.8921 42.6631 24.2433 42.6631ZM30.9069 42.6541C31.7886 42.6541 32.3166 42.19 32.684 41.6525V42.5346H33.9928V36.8565H32.684V40.0584C32.684 40.9405 32.1558 41.4596 31.4027 41.4596C30.6312 41.4596 30.1858 40.9635 30.1858 40.0814V36.8565H28.8861V40.4674C28.8861 41.7904 29.6302 42.6541 30.9069 42.6541ZM35.6369 35.9837H37.033V34.7479H35.6369V35.9837ZM35.6921 42.5346H36.9917V36.8565H35.6921V42.5346ZM41.0329 42.6541C41.9605 42.6541 42.5483 42.1809 42.9662 41.5882V42.5346H44.2704V34.6836H42.9662V37.7385C42.5621 37.201 41.9697 36.7371 41.0329 36.7371C39.6782 36.7371 38.4015 37.8028 38.4015 39.6863V39.7047C38.4015 41.5882 39.7011 42.6541 41.0329 42.6541ZM41.3453 41.5239C40.4635 41.5239 39.7104 40.8026 39.7104 39.7047V39.6863C39.7104 38.5562 40.4543 37.8671 41.3453 37.8671C42.2178 37.8671 42.9891 38.5884 42.9891 39.6863V39.7047C42.9891 40.7935 42.2178 41.5239 41.3453 41.5239ZM48.5046 42.6631C49.5471 42.6631 50.2911 42.2452 50.8284 41.5974L50.0615 40.9222C49.6114 41.3632 49.1612 41.5974 48.5275 41.5974C47.6871 41.5974 47.0304 41.0829 46.8926 40.1549H51.0625C51.0717 40.0263 51.0856 39.9114 51.0856 39.792C51.0856 38.1565 50.1716 36.7371 48.3622 36.7371C46.7411 36.7371 45.5932 38.0693 45.5932 39.6955V39.7185C45.5932 41.4688 46.8606 42.6631 48.5046 42.6631ZM46.8789 39.2959C46.9983 38.4139 47.5586 37.8029 48.353 37.8029C49.2118 37.8029 49.7078 38.4598 49.7951 39.2959H46.8789Z" fill="#C7E7DC"/>
</svg>
