<svg width="71" height="57" viewBox="0 0 71 57" fill="none" xmlns="http://www.w3.org/2000/svg">
<path d="M42.2422 37.0388C42.2422 37.0388 42.5253 37.0388 42.7376 37.1096" stroke="#C7E7DC" stroke-width="0.7" stroke-linecap="round" stroke-linejoin="round"/>
<path d="M55.9727 24.8611L56.1142 33.4244" stroke="#C7E7DC" stroke-width="0.7" stroke-linecap="round" stroke-linejoin="round"/>
<path d="M56.6096 22.6619L55.9727 24.8557" stroke="#C7E7DC" stroke-width="0.7" stroke-linecap="round" stroke-linejoin="round"/>
<path d="M44.8638 38.0876C44.7222 38.8661 43.0945 39.1493 42.5991 39.2908C41.7499 39.5032 40.8299 39.5739 39.9098 39.7154C38.1406 39.9278 36.3005 39.9985 34.5312 39.9985" stroke="#C7E7DC" stroke-width="0.7" stroke-linecap="round" stroke-linejoin="round"/>
<path d="M33.6797 20.2605L33.7505 20.1189" stroke="#C7E7DC" stroke-width="0.7" stroke-linecap="round" stroke-linejoin="round"/>
<path d="M33.2578 20.7584V20.6169" stroke="#C7E7DC" stroke-width="0.7" stroke-linecap="round" stroke-linejoin="round"/>
<path d="M36.7969 20.2612C36.7969 20.2612 36.7969 20.0489 36.7969 20.1197" stroke="#C7E7DC" stroke-width="0.7" stroke-linecap="round" stroke-linejoin="round"/>
<path d="M50.0234 20.8972V20.7556" stroke="#C7E7DC" stroke-width="0.7" stroke-linecap="round" stroke-linejoin="round"/>
<path d="M19.7401 20.5486C19.7401 20.5486 19.5986 20.5486 19.457 20.5486" stroke="#C7E7DC" stroke-width="0.7" stroke-linecap="round" stroke-linejoin="round"/>
<path d="M19.8789 20.1896C19.8789 20.1896 19.8789 20.1897 19.8789 20.1189" stroke="#C7E7DC" stroke-width="0.7" stroke-linecap="round" stroke-linejoin="round"/>
<path d="M34.9535 17.9216C34.9535 17.9216 34.9536 17.9216 34.8828 17.9216" stroke="#C7E7DC" stroke-width="0.7" stroke-linecap="round" stroke-linejoin="round"/>
<path d="M36.5087 20.824C36.5087 20.824 36.438 20.824 36.3672 20.824" stroke="#C7E7DC" stroke-width="0.7" stroke-linecap="round" stroke-linejoin="round"/>
<path d="M36.5117 20.6169V20.7584" stroke="#C7E7DC" stroke-width="0.7" stroke-linecap="round" stroke-linejoin="round"/>
<path d="M35.1641 23.2339C35.1641 23.2339 35.1641 23.0216 35.1641 23.0923" stroke="#C7E7DC" stroke-width="0.7" stroke-linecap="round" stroke-linejoin="round"/>
<path d="M36.8603 23.5193L36.7188 23.6609" stroke="#C7E7DC" stroke-width="0.7" stroke-linecap="round" stroke-linejoin="round"/>
<path d="M37.1489 23.0232L37.0781 23.1648" stroke="#C7E7DC" stroke-width="0.7" stroke-linecap="round" stroke-linejoin="round"/>
<path d="M50.0234 20.9631V20.8923" stroke="#C7E7DC" stroke-width="0.7" stroke-linecap="round" stroke-linejoin="round"/>
<path d="M36.6523 20.1873C36.6523 20.1873 36.6523 20.1873 36.6523 20.2581" stroke="#C7E7DC" stroke-width="0.7" stroke-linecap="round" stroke-linejoin="round"/>
<path d="M35.0273 23.0916C35.0273 23.0916 35.0273 23.0916 35.0273 23.1624" stroke="#C7E7DC" stroke-width="0.7" stroke-linecap="round" stroke-linejoin="round"/>
<path d="M50.2383 20.7556C50.2383 20.7556 50.2383 20.7556 50.3091 20.7556" stroke="#C7E7DC" stroke-width="0.7" stroke-linecap="round" stroke-linejoin="round"/>
<path d="M33.6797 20.2605C33.6797 20.2605 33.6797 20.1897 33.6797 20.1189" stroke="#C7E7DC" stroke-width="0.7" stroke-linecap="round" stroke-linejoin="round"/>
<path d="M53.3555 19.9802C53.3555 19.9802 53.497 20.1926 53.497 20.3341" stroke="#C7E7DC" stroke-width="0.7" stroke-linecap="round" stroke-linejoin="round"/>
<path d="M31.9805 23.1624L32.0513 23.0916" stroke="#C7E7DC" stroke-width="0.7" stroke-linecap="round" stroke-linejoin="round"/>
<path d="M16.5547 20.7609C16.5547 20.7609 16.5547 20.6194 16.5547 20.5486" stroke="#C7E7DC" stroke-width="0.7" stroke-linecap="round" stroke-linejoin="round"/>
<path d="M50.0234 20.6853C50.0234 20.6853 50.165 20.6853 50.2357 20.6853" stroke="#C7E7DC" stroke-width="0.7" stroke-linecap="round" stroke-linejoin="round"/>
<path d="M33.3945 20.6853C33.3945 20.6853 33.3945 20.6853 33.3945 20.8269" stroke="#C7E7DC" stroke-width="0.7" stroke-linecap="round" stroke-linejoin="round"/>
<path d="M53.4922 20.3962C54.1999 20.6086 54.8368 20.8209 55.4738 21.104C56.0399 21.3871 56.8184 21.8117 56.6061 22.661" stroke="#C7E7DC" stroke-width="0.7" stroke-linecap="round" stroke-linejoin="round"/>
<path d="M53.2852 20.3279C53.2852 20.3279 53.4267 20.3279 53.4975 20.3279" stroke="#C7E7DC" stroke-width="0.7" stroke-linecap="round" stroke-linejoin="round"/>
<path d="M49.5301 22.389C49.5301 22.389 49.247 22.3889 49.1055 22.3181" stroke="#C7E7DC" stroke-width="0.7" stroke-linecap="round" stroke-linejoin="round"/>
<path d="M19.7383 20.5486V20.6902" stroke="#C7E7DC" stroke-width="0.7" stroke-linecap="round" stroke-linejoin="round"/>
<path d="M28.0898 37.3167C28.0898 37.3167 28.3729 37.2458 28.5852 37.2458" stroke="#C7E7DC" stroke-width="0.7" stroke-linecap="round" stroke-linejoin="round"/>
<path d="M14.4311 33.9209L14.2188 25.2869" stroke="#C7E7DC" stroke-width="0.7" stroke-linecap="round" stroke-linejoin="round"/>
<path d="M36.3672 21.322H36.5087" stroke="#C7E7DC" stroke-width="0.7" stroke-linecap="round" stroke-linejoin="round"/>
<path d="M19.5234 20.7556C19.5234 20.7556 19.5234 20.8971 19.5234 20.9679" stroke="#C7E7DC" stroke-width="0.7" stroke-linecap="round" stroke-linejoin="round"/>
<path d="M19.7383 20.6853V21.0392" stroke="#C7E7DC" stroke-width="0.7" stroke-linecap="round" stroke-linejoin="round"/>
<path d="M31.9805 23.1648C31.9805 23.1648 31.9805 23.094 31.9805 23.0232" stroke="#C7E7DC" stroke-width="0.7" stroke-linecap="round" stroke-linejoin="round"/>
<path d="M31.8398 23.1648C31.8398 23.1648 31.8398 23.094 31.8398 23.0232" stroke="#C7E7DC" stroke-width="0.7" stroke-linecap="round" stroke-linejoin="round"/>
<path d="M36.372 20.8269C36.372 20.8269 36.372 20.6853 36.2305 20.6853" stroke="#C7E7DC" stroke-width="0.7" stroke-linecap="round" stroke-linejoin="round"/>
<path d="M50.168 20.8972C50.168 20.8972 50.168 20.8264 50.168 20.7556" stroke="#C7E7DC" stroke-width="0.7" stroke-linecap="round" stroke-linejoin="round"/>
<path d="M32.0547 23.0918C32.0547 23.0918 32.1254 23.0918 32.1962 23.0918" stroke="#C7E7DC" stroke-width="0.7" stroke-linecap="round" stroke-linejoin="round"/>
<path d="M21.0145 22.5935C21.0145 22.5935 20.7314 22.5935 20.5898 22.6642" stroke="#C7E7DC" stroke-width="0.7" stroke-linecap="round" stroke-linejoin="round"/>
<path d="M33.1142 21.322H32.9727" stroke="#C7E7DC" stroke-width="0.7" stroke-linecap="round" stroke-linejoin="round"/>
<path d="M22.994 22.2478C22.994 22.2478 22.7817 22.2478 22.7109 22.2478" stroke="#C7E7DC" stroke-width="0.7" stroke-linecap="round" stroke-linejoin="round"/>
<path d="M33.2538 37.4608C29.9983 37.4608 26.8136 37.3193 23.5582 36.9654C21.9304 36.8239 20.3735 36.5408 18.7458 36.1869C17.9673 36.0454 17.1888 35.8331 16.4104 35.55C15.8442 35.3377 14.6411 34.913 14.5703 34.1345" stroke="#C7E7DC" stroke-width="0.7" stroke-linecap="round" stroke-linejoin="round"/>
<path d="M34.4598 39.8624C33.0444 39.8624 31.629 39.7917 30.2136 39.6501C29.6474 39.6501 26.6043 39.2963 26.1797 38.447" stroke="#C7E7DC" stroke-width="0.7" stroke-linecap="round" stroke-linejoin="round"/>
<path d="M54.0634 22.5935C54.0634 22.5935 53.9926 22.8765 53.9219 23.0888" stroke="#C7E7DC" stroke-width="0.7" stroke-linecap="round" stroke-linejoin="round"/>
<path d="M47.4823 21.9568C47.4823 21.9568 47.27 21.9568 47.1992 21.9568" stroke="#C7E7DC" stroke-width="0.7" stroke-linecap="round" stroke-linejoin="round"/>
<path d="M16.1963 23.5162C16.1963 23.5162 16.1255 23.2331 16.0547 23.0916" stroke="#C7E7DC" stroke-width="0.7" stroke-linecap="round" stroke-linejoin="round"/>
<path d="M13.5097 23.159C13.2266 22.3097 14.1467 21.7435 14.7836 21.4604" stroke="#C7E7DC" stroke-width="0.7" stroke-linecap="round" stroke-linejoin="round"/>
<path d="M53.2109 23.3036C53.5648 23.0913 53.9894 23.0205 54.131 22.5251" stroke="#C7E7DC" stroke-width="0.7" stroke-linecap="round" stroke-linejoin="round"/>
<path d="M16.0547 23.0916C18.107 25.6393 30.8458 25.8516 33.1104 25.8516" stroke="#C7E7DC" stroke-width="0.7" stroke-linecap="round" stroke-linejoin="round"/>
<path d="M14.2897 25.2825C14.0774 24.5748 13.7943 23.9379 13.582 23.2302" stroke="#C7E7DC" stroke-width="0.7" stroke-linecap="round" stroke-linejoin="round"/>
<path d="M56.1168 33.7068C55.7629 35.193 51.8705 35.8299 50.8797 36.0422C48.9689 36.4669 46.9873 36.6791 45.0765 36.8914C41.1841 37.3161 37.221 37.4576 33.2578 37.4576" stroke="#C7E7DC" stroke-width="0.7" stroke-linecap="round" stroke-linejoin="round"/>
<path d="M33.2538 37.4574C30.0691 37.4574 26.8136 37.3159 23.6289 36.9621C22.2843 36.8206 15.4903 36.1128 14.5703 34.3435" stroke="#C7E7DC" stroke-width="0.7" stroke-linecap="round" stroke-linejoin="round"/>
<path d="M44.793 36.8162L44.8638 37.9485" stroke="#C7E7DC" stroke-width="0.7" stroke-linecap="round" stroke-linejoin="round"/>
<path d="M25.9692 38.2419L25.8984 37.0388" stroke="#C7E7DC" stroke-width="0.7" stroke-linecap="round" stroke-linejoin="round"/>
<path d="M34.4573 39.8624C32.9711 39.8624 31.5557 39.7917 30.0696 39.6501C29.4326 39.6501 26.3895 39.2963 25.9648 38.447" stroke="#C7E7DC" stroke-width="0.7" stroke-linecap="round" stroke-linejoin="round"/>
<path d="M25.9648 38.3816C25.9648 38.3816 25.9648 38.3108 25.9648 38.24" stroke="#C7E7DC" stroke-width="0.7" stroke-linecap="round" stroke-linejoin="round"/>
<path d="M36.7969 20.1873L50.3141 20.2581" stroke="#C7E7DC" stroke-width="0.7" stroke-linecap="round" stroke-linejoin="round"/>
<path d="M20.0234 20.0486L33.5407 20.1193" stroke="#C7E7DC" stroke-width="0.7" stroke-linecap="round" stroke-linejoin="round"/>
<path d="M35.1641 23.2271C38.7026 23.2271 45.2843 22.8025 48.8228 21.5994" stroke="#C7E7DC" stroke-width="0.7" stroke-linecap="round" stroke-linejoin="round"/>
<path d="M19.7383 21.115C21.2245 22.8135 30.2123 23.1674 31.8401 23.1674" stroke="#C7E7DC" stroke-width="0.7" stroke-linecap="round" stroke-linejoin="round"/>
<path d="M19.9497 21.1855L19.8789 20.5486" stroke="#C7E7DC" stroke-width="0.7" stroke-linecap="round" stroke-linejoin="round"/>
<path d="M34.8828 17.9216V18.2755" stroke="#C7E7DC" stroke-width="0.7" stroke-linecap="round" stroke-linejoin="round"/>
<path d="M33.2578 21.1095V20.7556" stroke="#C7E7DC" stroke-width="0.7" stroke-linecap="round" stroke-linejoin="round"/>
<path d="M32.1273 23.0232C32.1273 23.0232 31.915 23.0232 31.7734 23.0232" stroke="#C7E7DC" stroke-width="0.7" stroke-linecap="round" stroke-linejoin="round"/>
<path d="M19.5282 20.7584C19.5282 20.7584 19.5283 20.6169 19.3867 20.6169" stroke="#C7E7DC" stroke-width="0.7" stroke-linecap="round" stroke-linejoin="round"/>
<path d="M33.3252 20.824C33.3252 20.824 33.2544 20.824 33.1836 20.824" stroke="#C7E7DC" stroke-width="0.7" stroke-linecap="round" stroke-linejoin="round"/>
<path d="M33.536 20.6853C33.536 20.6853 33.4653 20.6853 33.3945 20.6853" stroke="#C7E7DC" stroke-width="0.7" stroke-linecap="round" stroke-linejoin="round"/>
<path d="M33.543 20.1189C33.543 20.1189 33.8261 20.2604 33.8968 20.1189" stroke="#C7E7DC" stroke-width="0.7" stroke-linecap="round" stroke-linejoin="round"/>
<path d="M20.0209 20.0486C20.0209 20.0486 19.8794 20.0486 19.8086 20.0486" stroke="#C7E7DC" stroke-width="0.7" stroke-linecap="round" stroke-linejoin="round"/>
<path d="M50.5234 20.3288C50.5234 20.3288 50.5234 20.1873 50.665 20.1873" stroke="#C7E7DC" stroke-width="0.7" stroke-linecap="round" stroke-linejoin="round"/>
<path d="M50.3086 20.2556C50.3086 20.2556 50.4501 20.2556 50.5917 20.2556" stroke="#C7E7DC" stroke-width="0.7" stroke-linecap="round" stroke-linejoin="round"/>
<path d="M36.582 20.1189C36.582 20.1189 36.7236 20.1189 36.7943 20.1189" stroke="#C7E7DC" stroke-width="0.7" stroke-linecap="round" stroke-linejoin="round"/>
<path d="M36.5117 20.1189C36.5117 20.1189 36.5117 20.1189 36.5825 20.1189" stroke="#C7E7DC" stroke-width="0.7" stroke-linecap="round" stroke-linejoin="round"/>
<path d="M34.8828 23.0916C34.8828 23.0916 35.0243 23.0916 35.0951 23.0916" stroke="#C7E7DC" stroke-width="0.7" stroke-linecap="round" stroke-linejoin="round"/>
<path d="M16.6255 23.6548L16.5547 20.824" stroke="#C7E7DC" stroke-width="0.7" stroke-linecap="round" stroke-linejoin="round"/>
<path d="M53.4922 20.3962L53.563 23.1564" stroke="#C7E7DC" stroke-width="0.7" stroke-linecap="round" stroke-linejoin="round"/>
<path d="M32.0547 23.0915L33.3993 20.6853" stroke="#C7E7DC" stroke-width="0.7" stroke-linecap="round" stroke-linejoin="round"/>
<path d="M33.6797 20.1204L35.0243 17.7849" stroke="#C7E7DC" stroke-width="0.7" stroke-linecap="round" stroke-linejoin="round"/>
<path d="M16.6211 20.5433C16.7626 19.9771 17.1873 19.8356 17.6119 19.5525" stroke="#C7E7DC" stroke-width="0.7" stroke-linecap="round" stroke-linejoin="round"/>
<path d="M19.5234 20.7556C19.5234 20.7556 19.665 20.968 19.665 21.0388" stroke="#C7E7DC" stroke-width="0.7" stroke-linecap="round" stroke-linejoin="round"/>
<path d="M32.8984 26.4132C32.8984 26.4132 32.8984 26.2717 32.8984 26.2009" stroke="#C7E7DC" stroke-width="0.7" stroke-linecap="round" stroke-linejoin="round"/>
<path d="M56.1133 33.4177V33.5592" stroke="#C7E7DC" stroke-width="0.7" stroke-linecap="round" stroke-linejoin="round"/>
<path d="M14.4336 34.0554C14.4336 34.0554 14.4336 33.9846 14.4336 33.9138" stroke="#C7E7DC" stroke-width="0.7" stroke-linecap="round" stroke-linejoin="round"/>
<path d="M34.3828 37.4529L34.4535 39.7883" stroke="#C7E7DC" stroke-width="0.7" stroke-linecap="round" stroke-linejoin="round"/>
<path d="M16.0547 23.0939C16.0547 23.0939 16.0547 23.094 16.0547 23.0232" stroke="#C7E7DC" stroke-width="0.7" stroke-linecap="round" stroke-linejoin="round"/>
<path d="M33.04 28.476L32.8984 26.4236" stroke="#C7E7DC" stroke-width="0.7" stroke-linecap="round" stroke-linejoin="round"/>
<path d="M34.4609 39.8619C34.4609 39.8619 34.4609 39.7912 34.4609 39.7205" stroke="#C7E7DC" stroke-width="0.7" stroke-linecap="round" stroke-linejoin="round"/>
<path d="M16.5547 20.7556C16.5547 21.4633 17.687 21.888 18.1824 22.0295C18.8901 22.3126 19.5271 22.4542 20.2348 22.5957C21.6502 22.8788 23.0656 23.0911 24.481 23.2326C27.3826 23.5157 30.2135 23.6572 33.115 23.6572" stroke="#C7E7DC" stroke-width="0.7" stroke-linecap="round" stroke-linejoin="round"/>
<path d="M48.9648 21.4634C49.4602 21.3218 49.9556 21.1095 50.3802 20.7556" stroke="#C7E7DC" stroke-width="0.7" stroke-linecap="round" stroke-linejoin="round"/>
<path d="M19.3867 20.6169C19.3867 21.6077 21.5098 21.9615 22.1468 22.1031C23.2083 22.3861 24.2699 22.5277 25.3314 22.6692C27.4545 22.9523 29.6485 23.0939 31.7716 23.0939" stroke="#C7E7DC" stroke-width="0.7" stroke-linecap="round" stroke-linejoin="round"/>
<path d="M35.1641 23.0884C38.7734 23.0884 45.4258 22.6638 48.9643 21.4607" stroke="#C7E7DC" stroke-width="0.7" stroke-linecap="round" stroke-linejoin="round"/>
<path d="M33.1836 23.592C36.7221 23.592 40.2607 23.4504 43.7992 23.0965C45.5685 22.8842 47.3378 22.6719 49.0363 22.318C49.8855 22.1057 50.7348 21.8935 51.584 21.6104C52.1502 21.3981 53.7071 20.7611 53.2117 19.9119" stroke="#C7E7DC" stroke-width="0.7" stroke-linecap="round" stroke-linejoin="round"/>
<path d="M36.7937 17.2166C32.4767 17.2166 22.2149 17.4996 17.9687 19.4104C15.4917 20.472 16.9071 21.4628 19.0302 22.0997C20.5872 22.5244 22.1442 22.8075 23.7011 23.0198C26.8858 23.4444 29.9997 23.5152 33.1844 23.586" stroke="#C7E7DC" stroke-width="0.7" stroke-linecap="round" stroke-linejoin="round"/>
<path d="M36.5825 23.0178L36.5117 20.824" stroke="#C7E7DC" stroke-width="0.7" stroke-linecap="round" stroke-linejoin="round"/>
<path d="M36.3672 23.0886V20.824" stroke="#C7E7DC" stroke-width="0.7" stroke-linecap="round" stroke-linejoin="round"/>
<path d="M33.2554 20.756L19.7383 20.6853" stroke="#C7E7DC" stroke-width="0.7" stroke-linecap="round" stroke-linejoin="round"/>
<path d="M34.8823 17.9216C32.4053 17.9216 22.2143 18.2754 19.8789 20.1862" stroke="#C7E7DC" stroke-width="0.7" stroke-linecap="round" stroke-linejoin="round"/>
<path d="M50.5216 20.3278C50.4508 19.4078 48.3277 19.054 47.7615 18.9124C46.7 18.6293 45.6384 18.4878 44.5768 18.3462C42.4537 18.0632 40.3306 17.9924 38.1367 17.9216" stroke="#C7E7DC" stroke-width="0.7" stroke-linecap="round" stroke-linejoin="round"/>
<path d="M33.1836 23.7233C36.7221 23.7233 40.1899 23.5818 43.7285 23.228C45.4977 23.0157 47.1962 22.8033 48.9655 22.4495C49.8147 22.2372 50.664 22.0956 51.5132 21.7417C52.0086 21.5294 53.5656 21.1049 53.5656 20.2556" stroke="#C7E7DC" stroke-width="0.7" stroke-linecap="round" stroke-linejoin="round"/>
<path d="M33.2554 20.6194L19.7383 20.5486" stroke="#C7E7DC" stroke-width="0.7" stroke-linecap="round" stroke-linejoin="round"/>
<path d="M33.8242 20.1204L35.1689 17.7849" stroke="#C7E7DC" stroke-width="0.7" stroke-linecap="round" stroke-linejoin="round"/>
<path d="M32.125 23.0207L33.5404 20.6853" stroke="#C7E7DC" stroke-width="0.7" stroke-linecap="round" stroke-linejoin="round"/>
<path d="M44.8638 37.9509C44.8638 38.3756 44.0853 38.6586 43.873 38.7294C43.4483 38.871 43.0237 39.0125 42.5991 39.0833C41.7499 39.2956 40.8299 39.3663 39.9098 39.5079C38.1406 39.7202 36.3005 39.7909 34.5312 39.7909" stroke="#C7E7DC" stroke-width="0.7" stroke-linecap="round" stroke-linejoin="round"/>
<path d="M56.1133 33.5681C55.7595 34.9835 51.7963 35.6912 50.8763 35.9036C48.9654 36.3282 46.9839 36.5406 45.0023 36.7529C41.0392 37.1775 37.1468 37.3191 33.1836 37.3191" stroke="#C7E7DC" stroke-width="0.7" stroke-linecap="round" stroke-linejoin="round"/>
<path d="M55.9731 24.7927C55.5485 26.1374 51.5853 26.9158 50.6653 27.0573C48.7545 27.482 46.7729 27.6943 44.7913 27.9067C40.8282 28.3313 36.9358 28.4728 32.9727 28.4728" stroke="#C7E7DC" stroke-width="0.7" stroke-linecap="round" stroke-linejoin="round"/>
<path d="M53.0702 23.449C48.8947 25.5721 37.4298 25.9259 33.1836 25.8552" stroke="#C7E7DC" stroke-width="0.7" stroke-linecap="round" stroke-linejoin="round"/>
<path d="M48.8203 21.6075C48.8203 21.6075 49.3864 21.3952 49.6695 21.2537" stroke="#C7E7DC" stroke-width="0.7" stroke-linecap="round" stroke-linejoin="round"/>
<path d="M36.7969 17.2166C36.7969 17.2166 36.7969 17.2874 36.7969 17.3581" stroke="#C7E7DC" stroke-width="0.7" stroke-linecap="round" stroke-linejoin="round"/>
<path d="M34.4617 39.797C32.9755 39.797 31.4893 39.7262 30.0031 39.5846C29.2954 39.5139 28.517 39.3723 27.8093 39.2308C27.3847 39.16 25.9692 38.9477 25.8984 38.24" stroke="#C7E7DC" stroke-width="0.7" stroke-linecap="round" stroke-linejoin="round"/>
<path d="M33.2542 37.3084C29.9988 37.3084 26.7433 37.1668 23.5586 36.813C21.9309 36.6714 20.374 36.3883 18.7463 36.0345C17.9678 35.8222 14.7831 35.256 14.5 33.9822" stroke="#C7E7DC" stroke-width="0.7" stroke-linecap="round" stroke-linejoin="round"/>
<path d="M33.1831 25.852C29.9985 25.852 26.743 25.7104 23.5583 25.2858C21.9306 25.0735 20.3737 24.8612 18.8167 24.4366C17.3305 24.012 14.6412 23.0212 16.5521 21.8181" stroke="#C7E7DC" stroke-width="0.7" stroke-linecap="round" stroke-linejoin="round"/>
<path d="M53.4952 21.322C55.9722 22.7374 52.1505 23.8698 50.3813 24.2944C48.4705 24.719 46.6305 25.0021 44.6489 25.2144C40.8273 25.6391 36.9349 25.7806 33.1133 25.7806" stroke="#C7E7DC" stroke-width="0.7" stroke-linecap="round" stroke-linejoin="round"/>
<path d="M53.4962 20.3962C54.2746 20.6086 56.1854 20.9624 56.4685 22.0948C56.7516 23.1563 54.487 23.864 53.85 24.0763C51.5854 24.7841 49.3207 25.1379 46.9853 25.421C42.3144 25.9872 37.6435 26.1995 32.9727 26.1995" stroke="#C7E7DC" stroke-width="0.7" stroke-linecap="round" stroke-linejoin="round"/>
<path d="M32.9008 26.1997C28.9376 26.1997 24.9744 25.9874 21.082 25.492C19.1004 25.2089 17.1896 24.9259 15.2788 24.2181C14.4296 23.8643 13.0142 23.1566 13.8634 22.2366C14.6419 21.4581 15.5619 21.2457 16.4819 20.9626" stroke="#C7E7DC" stroke-width="0.7" stroke-linecap="round" stroke-linejoin="round"/>
<path d="M33.1863 25.9231C30.2847 25.9231 19.3152 25.64 16.4844 23.5876" stroke="#C7E7DC" stroke-width="0.7" stroke-linecap="round" stroke-linejoin="round"/>
<path d="M32.9029 26.4153C29.5767 26.4153 26.2504 26.2738 22.9242 25.92C21.2965 25.7784 19.598 25.4953 17.9703 25.1415C17.1211 24.9999 13.9363 24.2922 13.5117 23.1599" stroke="#C7E7DC" stroke-width="0.7" stroke-linecap="round" stroke-linejoin="round"/>
<path d="M33.2578 37.4557C33.2578 37.4557 33.2578 37.385 33.2578 37.3142" stroke="#C7E7DC" stroke-width="0.7" stroke-linecap="round" stroke-linejoin="round"/>
<path d="M33.1836 23.5876V23.7291" stroke="#C7E7DC" stroke-width="0.7" stroke-linecap="round" stroke-linejoin="round"/>
<path d="M48.9692 21.4607C48.9692 21.4607 48.9692 21.4607 48.8984 21.4607" stroke="#C7E7DC" stroke-width="0.7" stroke-linecap="round" stroke-linejoin="round"/>
<path d="M34.8832 17.7146C32.4062 17.7146 22.1445 18.0684 19.7383 19.9792" stroke="#C7E7DC" stroke-width="0.7" stroke-linecap="round" stroke-linejoin="round"/>
<path d="M36.5062 20.6115C36.5062 20.6115 36.2231 20.4699 36.1523 20.6115" stroke="#C7E7DC" stroke-width="0.7" stroke-linecap="round" stroke-linejoin="round"/>
<path d="M35.1689 17.7849C35.1689 17.7849 35.0981 17.7849 35.0273 17.7849" stroke="#C7E7DC" stroke-width="0.7" stroke-linecap="round" stroke-linejoin="round"/>
<path d="M37.8564 17.7849L36.5117 20.1204" stroke="#C7E7DC" stroke-width="0.7" stroke-linecap="round" stroke-linejoin="round"/>
<path d="M34.8828 17.9265V17.7849" stroke="#C7E7DC" stroke-width="0.7" stroke-linecap="round" stroke-linejoin="round"/>
<path d="M15.9905 23.0159C15.7782 22.4498 16.2028 22.2375 16.5567 22.0251" stroke="#C7E7DC" stroke-width="0.7" stroke-linecap="round" stroke-linejoin="round"/>
<path d="M33.0438 28.4711C29.7883 28.4711 26.6036 28.3295 23.3482 27.9757C21.7204 27.8341 20.1635 27.6218 18.5358 27.2679C17.7573 27.1264 14.6434 26.4187 14.2188 25.3572" stroke="#C7E7DC" stroke-width="0.7" stroke-linecap="round" stroke-linejoin="round"/>
<path d="M50.6661 20.1915C50.5953 19.2715 48.4722 18.8469 47.9061 18.7054C46.8445 18.4223 45.783 18.2807 44.7214 18.1392C42.5983 17.8561 40.4044 17.7146 38.2812 17.7146" stroke="#C7E7DC" stroke-width="0.7" stroke-linecap="round" stroke-linejoin="round"/>
<path d="M37.9926 17.9216L36.7188 20.1155" stroke="#C7E7DC" stroke-width="0.7" stroke-linecap="round" stroke-linejoin="round"/>
<path d="M38.0708 20.1862L38 17.9216" stroke="#C7E7DC" stroke-width="0.7" stroke-linecap="round" stroke-linejoin="round"/>
<path d="M50.0289 20.8947L36.5117 20.824" stroke="#C7E7DC" stroke-width="0.7" stroke-linecap="round" stroke-linejoin="round"/>
<path d="M36.3715 20.824L35.0977 23.0178" stroke="#C7E7DC" stroke-width="0.7" stroke-linecap="round" stroke-linejoin="round"/>
<path d="M38.207 20.1862V17.9216" stroke="#C7E7DC" stroke-width="0.7" stroke-linecap="round" stroke-linejoin="round"/>
<path d="M50.0289 20.6877L36.5117 20.6169" stroke="#C7E7DC" stroke-width="0.7" stroke-linecap="round" stroke-linejoin="round"/>
<path d="M36.2274 20.6853L34.8828 23.0207" stroke="#C7E7DC" stroke-width="0.7" stroke-linecap="round" stroke-linejoin="round"/>
<path d="M56.6101 22.6619C56.1855 24.0773 52.0807 24.8558 51.1607 24.9973C49.1791 25.4219 47.1268 25.705 45.1452 25.8465C41.1113 26.2711 37.0066 26.4127 32.9727 26.4127" stroke="#C7E7DC" stroke-width="0.7" stroke-linecap="round" stroke-linejoin="round"/>
<path d="M33.043 28.5369L33.2553 37.3125" stroke="#C7E7DC" stroke-width="0.7" stroke-linecap="round" stroke-linejoin="round"/>
<path d="M16.9042 20.1873C16.9042 20.1873 16.6919 20.3996 16.6211 20.5411" stroke="#C7E7DC" stroke-width="0.7" stroke-linecap="round" stroke-linejoin="round"/>
<path d="M33.2544 25.7787L33.1836 23.7263" stroke="#C7E7DC" stroke-width="0.7" stroke-linecap="round" stroke-linejoin="round"/>
<path d="M35.0951 17.7146C35.0951 17.7146 34.9536 17.7146 34.8828 17.7146" stroke="#C7E7DC" stroke-width="0.7" stroke-linecap="round" stroke-linejoin="round"/>
<path d="M38.2075 17.9216C38.2075 17.9216 38.2075 17.9216 38.1367 17.9216" stroke="#C7E7DC" stroke-width="0.7" stroke-linecap="round" stroke-linejoin="round"/>
<path d="M53.4922 21.5291C53.846 21.7414 54.1999 21.9537 54.1292 22.4491" stroke="#C7E7DC" stroke-width="0.7" stroke-linecap="round" stroke-linejoin="round"/>
<path d="M37.8516 17.7849C37.8516 17.7849 37.9931 17.7849 37.9931 17.9265" stroke="#C7E7DC" stroke-width="0.7" stroke-linecap="round" stroke-linejoin="round"/>
<path d="M33.4701 20.6169C33.4701 20.6169 33.3286 20.6169 33.2578 20.6169" stroke="#C7E7DC" stroke-width="0.7" stroke-linecap="round" stroke-linejoin="round"/>
<path d="M38.207 17.9265V17.7849" stroke="#C7E7DC" stroke-width="0.7" stroke-linecap="round" stroke-linejoin="round"/>
<path d="M53.2157 19.8351C52.2956 18.4197 46.4217 17.7827 45.2186 17.6412C42.3878 17.3581 39.6277 17.2166 36.7969 17.2166" stroke="#C7E7DC" stroke-width="0.7" stroke-linecap="round" stroke-linejoin="round"/>
<path d="M37.8516 17.7849C37.8516 17.7849 38.0639 17.7849 38.2054 17.7849" stroke="#C7E7DC" stroke-width="0.7" stroke-linecap="round" stroke-linejoin="round"/>
<path d="M16.5547 20.7609C16.5547 20.7609 16.5547 20.6194 16.5547 20.5486" stroke="#C7E7DC" stroke-width="0.7" stroke-linecap="round" stroke-linejoin="round"/>
<path d="M53.4922 20.3962C54.1999 20.6086 54.8368 20.8209 55.4738 21.104C56.0399 21.3871 56.8184 21.8117 56.6061 22.661" stroke="#C7E7DC" stroke-width="0.7" stroke-linecap="round" stroke-linejoin="round"/>
<path d="M53.2852 20.3279C53.2852 20.3279 53.4267 20.3279 53.4975 20.3279" stroke="#C7E7DC" stroke-width="0.7" stroke-linecap="round" stroke-linejoin="round"/>
<path d="M14.4311 33.9209L14.2188 25.2869" stroke="#C7E7DC" stroke-width="0.7" stroke-linecap="round" stroke-linejoin="round"/>
<path d="M34.4598 39.8624C33.0444 39.8624 31.629 39.7917 30.2136 39.6501C29.6474 39.6501 26.6043 39.2963 26.1797 38.447" stroke="#C7E7DC" stroke-width="0.7" stroke-linecap="round" stroke-linejoin="round"/>
<path d="M13.5097 23.159C13.2266 22.3097 14.1467 21.7435 14.7836 21.4604" stroke="#C7E7DC" stroke-width="0.7" stroke-linecap="round" stroke-linejoin="round"/>
<path d="M14.2897 25.2825C14.0774 24.5748 13.7943 23.9379 13.582 23.2302" stroke="#C7E7DC" stroke-width="0.7" stroke-linecap="round" stroke-linejoin="round"/>
<path d="M56.1168 33.7068C55.7629 35.193 51.8705 35.8299 50.8797 36.0422C48.9689 36.4669 46.9873 36.6791 45.0765 36.8914C41.1841 37.3161 37.221 37.4576 33.2578 37.4576" stroke="#C7E7DC" stroke-width="0.7" stroke-linecap="round" stroke-linejoin="round"/>
<path d="M44.793 36.8162L44.8638 37.9485" stroke="#C7E7DC" stroke-width="0.7" stroke-linecap="round" stroke-linejoin="round"/>
<path d="M25.9692 38.2419L25.8984 37.0388" stroke="#C7E7DC" stroke-width="0.7" stroke-linecap="round" stroke-linejoin="round"/>
<path d="M34.4573 39.8624C32.9711 39.8624 31.5557 39.7917 30.0696 39.6501C29.4326 39.6501 26.3895 39.2963 25.9648 38.447" stroke="#C7E7DC" stroke-width="0.7" stroke-linecap="round" stroke-linejoin="round"/>
<path d="M25.9648 38.3816C25.9648 38.3816 25.9648 38.3108 25.9648 38.24" stroke="#C7E7DC" stroke-width="0.7" stroke-linecap="round" stroke-linejoin="round"/>
<path d="M16.6211 20.5433C16.7626 19.9771 17.1873 19.8356 17.6119 19.5525" stroke="#C7E7DC" stroke-width="0.7" stroke-linecap="round" stroke-linejoin="round"/>
<path d="M44.8638 38.0876C44.7222 38.8661 43.0945 39.1493 42.5991 39.2908C41.7499 39.5032 40.8299 39.5739 39.9098 39.7154C38.1406 39.9278 36.3005 39.9985 34.5312 39.9985" stroke="#C7E7DC" stroke-width="0.7" stroke-linecap="round" stroke-linejoin="round"/>
<path d="M56.6096 22.6619L55.9727 24.8557" stroke="#C7E7DC" stroke-width="0.7" stroke-linecap="round" stroke-linejoin="round"/>
<path d="M55.9727 24.8611L56.1142 33.4244" stroke="#C7E7DC" stroke-width="0.7" stroke-linecap="round" stroke-linejoin="round"/>
<path d="M53.3555 19.9802C53.3555 19.9802 53.497 20.1926 53.497 20.3341" stroke="#C7E7DC" stroke-width="0.7" stroke-linecap="round" stroke-linejoin="round"/>
</svg>
