<svg width="71" height="58" viewBox="0 0 71 58" fill="none" xmlns="http://www.w3.org/2000/svg">
<path d="M53.8814 27.6204L53.582 32.178" stroke="#C7E7DC" stroke-width="0.7" stroke-linecap="round" stroke-linejoin="round"/>
<path d="M17.3835 25.1594L17.0508 29.6838" stroke="#C7E7DC" stroke-width="0.7" stroke-linecap="round" stroke-linejoin="round"/>
<path d="M45.9602 26.2871C44.1305 23.659 36.7452 22.8273 34.0172 22.8606C32.4869 22.7275 25.3344 23.16 25.1016 25.6883" stroke="#C7E7DC" stroke-width="0.7" stroke-linecap="round" stroke-linejoin="round"/>
<path d="M17.782 26.5899L17.5824 26.2572L17.4826 25.8913L17.3828 25.5253V25.1594" stroke="#C7E7DC" stroke-width="0.7" stroke-linecap="round" stroke-linejoin="round"/>
<path d="M46.1938 27.0867V26.8871L46.1273 26.6543L46.0607 26.4547L45.9609 26.2883" stroke="#C7E7DC" stroke-width="0.7" stroke-linecap="round" stroke-linejoin="round"/>
<path d="M53.8783 27.6205C53.346 31.9452 41.5694 32.6438 38.4422 32.4775C33.2525 32.4775 21.0101 31.0803 17.8164 26.5559" stroke="#C7E7DC" stroke-width="0.7" stroke-linecap="round" stroke-linejoin="round"/>
<path d="M43.4645 29.1803C39.1397 27.2841 32.0205 26.8183 27.4961 28.0825" stroke="#C7E7DC" stroke-width="0.7" stroke-linecap="round" stroke-linejoin="round"/>
<path d="M17.4833 31.1114L17.2837 30.7787L17.1506 30.4461L17.0841 30.0801L17.0508 29.6809" stroke="#C7E7DC" stroke-width="0.7" stroke-linecap="round" stroke-linejoin="round"/>
<path d="M25.3008 26.4895C27.064 29.1176 34.5824 29.9826 37.2438 29.916C38.8406 30.0158 45.8601 29.6499 46.1927 27.1216" stroke="#C7E7DC" stroke-width="0.7" stroke-linecap="round" stroke-linejoin="round"/>
<path d="M53.4805 26.1907L53.6468 26.5233L53.7799 26.8893L53.8797 27.2552V27.6212" stroke="#C7E7DC" stroke-width="0.7" stroke-linecap="round" stroke-linejoin="round"/>
<path d="M17.3828 25.1576C17.9151 20.8328 29.725 20.1342 32.8522 20.3005C37.9753 20.234 50.3509 21.6978 53.478 26.2222" stroke="#C7E7DC" stroke-width="0.7" stroke-linecap="round" stroke-linejoin="round"/>
<path d="M53.5796 32.179C53.014 36.537 41.2706 37.1691 38.1102 37.0693C32.9537 37.0693 20.6781 35.6721 17.4844 31.1477" stroke="#C7E7DC" stroke-width="0.7" stroke-linecap="round" stroke-linejoin="round"/>
<path d="M25.0703 25.6907V25.8903L25.1036 26.1231L25.1701 26.3228L25.3032 26.4891" stroke="#C7E7DC" stroke-width="0.7" stroke-linecap="round" stroke-linejoin="round"/>
</svg>
