<svg width="71" height="58" viewBox="0 0 71 58" fill="none" xmlns="http://www.w3.org/2000/svg">
<path d="M38.7539 22.7024C32.3373 25.6486 20.8523 26.1479 14.2109 23.7011" stroke="#C7E7DC" stroke-width="0.7" stroke-linecap="round" stroke-linejoin="round"/>
<path d="M8.26953 31.6887C8.26953 31.8385 8.26953 31.9634 8.26953 32.1132" stroke="#C7E7DC" stroke-width="0.7" stroke-linecap="round" stroke-linejoin="round"/>
<path d="M43.1257 28.4954C43.1756 29.9684 41.8773 31.1419 40.8536 31.841C39.6802 32.6399 38.4068 33.1892 37.0586 33.6636" stroke="#C7E7DC" stroke-width="0.7" stroke-linecap="round" stroke-linejoin="round"/>
<path d="M38.5071 16.535C38.557 17.7584 37.3087 18.6323 36.4598 19.1317C35.4361 19.7309 34.3875 20.1054 33.2639 20.4299C31.0169 21.0791 28.7698 21.3787 26.4478 21.4786C24.1258 21.5784 21.8538 21.4786 19.5568 21.0042C18.4083 20.7795 17.3347 20.4799 16.2611 19.9805C15.3872 19.5561 14.064 18.7821 14.014 17.5837C13.9391 16.1605 15.7118 15.1119 16.6856 14.6375C19.9313 13.0396 24.6751 12.5153 28.1456 12.5902C30.118 12.6401 32.0405 12.8149 33.963 13.3142C34.9118 13.5639 35.8356 13.8635 36.7094 14.3629C37.4585 14.7873 38.4572 15.5114 38.4821 16.535H38.5071Z" stroke="#C7E7DC" stroke-width="0.7" stroke-linecap="round" stroke-linejoin="round"/>
<path d="M8.19475 31.2919C8.11984 29.7439 9.31828 28.4955 10.3919 27.6965C9.34324 28.4955 8.11984 29.7688 8.19475 31.2919ZM8.19475 31.2919C8.31958 33.489 10.9412 34.9121 12.5391 35.5863C14.5365 36.4351 16.5838 36.9095 18.731 37.2341" stroke="#C7E7DC" stroke-width="0.7" stroke-linecap="round" stroke-linejoin="round"/>
<path d="M11.6673 13.4143C10.1443 14.1383 7.34796 15.7612 7.47279 18.0083C7.52273 18.8072 7.8473 19.3316 8.34665 19.9058C9.09567 20.7298 9.96954 21.2291 10.9433 21.7035C12.5662 22.4775 14.2639 22.9269 16.0117 23.2764C19.5321 23.9755 23.0025 24.1503 26.5729 24.0005C30.1432 23.8507 33.5887 23.3763 37.0342 22.3776C38.757 21.8782 40.3799 21.2791 41.9279 20.3802C42.8517 19.8309 43.7006 19.2567 44.3747 18.3578C44.8241 17.7586 45.0987 17.1844 45.0738 16.3854C45.0238 14.7625 43.5258 13.6889 42.3523 13.0398C41.029 12.2908 39.6309 11.8164 38.1578 11.4419C35.2116 10.6679 32.2655 10.3933 29.2444 10.3184M29.2444 10.3184C23.8764 10.1935 16.6358 10.9924 11.6424 13.4143C16.6358 10.9924 23.8764 10.2185 29.2444 10.3184Z" stroke="#C7E7DC" stroke-width="0.7" stroke-linecap="round" stroke-linejoin="round"/>
<path d="M37.1075 23.2293C33.662 24.228 30.2165 24.7024 26.6461 24.8522C23.0508 25.002 19.5803 24.8272 16.0599 24.1282C14.2872 23.7786 12.6144 23.3292 10.9915 22.5552C10.0178 22.1058 9.14393 21.5815 8.3949 20.7575C7.89556 20.1833 7.57098 19.659 7.52105 18.86H7.49609C7.54603 19.659 7.8706 20.1833 8.36995 20.7575C9.11897 21.5815 9.99284 22.0808 10.9666 22.5552C12.6144 23.3292 14.2872 23.7786 16.035 24.1282C19.5803 24.8522 23.0508 25.002 26.6211 24.8522C30.2165 24.7024 33.662 24.228 37.1075 23.2293ZM37.1075 23.2293C38.8302 22.73 40.4531 22.1307 42.0011 21.2069M37.1075 23.2293C38.8052 22.73 40.4531 22.1307 42.0011 21.2069M42.0011 21.2069C42.9249 20.6576 43.7738 20.0834 44.4229 19.1846M42.0011 21.2069C42.9249 20.6576 43.7488 20.0584 44.4229 19.1846M44.4229 19.1846C44.8723 18.5854 45.147 18.0111 45.122 17.2122" stroke="#C7E7DC" stroke-width="0.7" stroke-linecap="round" stroke-linejoin="round"/>
<path d="M45.1242 17.2362C45.1242 17.0864 45.1242 16.9366 45.0742 16.8118C45.0992 16.9616 45.1242 17.0864 45.1242 17.2362Z" stroke="#C7E7DC" stroke-width="0.7" stroke-linecap="round" stroke-linejoin="round"/>
<path d="M42.8516 20.679L43.1262 28.4938L42.8516 20.679Z" stroke="#C7E7DC" stroke-width="0.7" stroke-linecap="round" stroke-linejoin="round"/>
<path d="M42.4766 34.7133C43.7998 33.8894 45.6474 32.4163 45.5725 30.5188C45.6474 32.4163 43.7749 33.8894 42.4766 34.7133Z" stroke="#C7E7DC" stroke-width="0.7" stroke-linecap="round" stroke-linejoin="round"/>
<path d="M45.5469 29.6946L45.5968 30.5435L45.5469 29.6946Z" stroke="#C7E7DC" stroke-width="0.7" stroke-linecap="round" stroke-linejoin="round"/>
<path d="M41.3047 34.508C42.9026 33.7091 45.649 32.0113 45.5741 29.6893C45.5242 28.1413 44.176 26.9679 43.0524 26.2688" stroke="#C7E7DC" stroke-width="0.7" stroke-linecap="round" stroke-linejoin="round"/>
<path d="M14.4375 18.6292C14.9368 17.7803 15.9855 17.1312 16.8094 16.7317C19.9054 15.1837 24.3745 14.6594 27.7202 14.6594C30.1171 14.6594 36.3839 15.0839 38.2065 17.6056" stroke="#C7E7DC" stroke-width="0.7" stroke-linecap="round" stroke-linejoin="round"/>
<path d="M8.24915 32.1123L8.19922 31.2883L8.24915 32.1123Z" stroke="#C7E7DC" stroke-width="0.7" stroke-linecap="round" stroke-linejoin="round"/>
<path d="M7.54688 18.4348C7.54688 18.5846 7.54688 18.7095 7.54688 18.8593" stroke="#C7E7DC" stroke-width="0.7" stroke-linecap="round" stroke-linejoin="round"/>
<path d="M13.4643 36.7834C11.6916 36.1342 8.3959 34.6112 8.24609 32.1145C8.37093 34.6362 11.6916 36.1342 13.4643 36.7834ZM13.4643 36.7834C15.8112 37.6323 18.1831 38.0567 20.6549 38.3064" stroke="#C7E7DC" stroke-width="0.7" stroke-linecap="round" stroke-linejoin="round"/>
<path d="M7.52258 18.8599L7.47266 18.011L7.52258 18.8599Z" stroke="#C7E7DC" stroke-width="0.7" stroke-linecap="round" stroke-linejoin="round"/>
<path d="M45.0977 16.3879L45.1226 17.2368L45.0977 16.3879Z" stroke="#C7E7DC" stroke-width="0.7" stroke-linecap="round" stroke-linejoin="round"/>
<path d="M12.3408 32.5637C11.4919 31.9645 10.5931 31.0657 10.5182 29.8922C10.3684 27.2956 10.2436 24.699 10.0938 22.0774" stroke="#C7E7DC" stroke-width="0.7" stroke-linecap="round" stroke-linejoin="round"/>
<path d="M10.6445 22.3801L11.1189 31.4184C14.5145 34.739 18.2596 37.2358 22.554 39.2332C26.7985 41.2056 31.1927 42.5538 35.7118 43.7273C44.825 46.0992 53.9381 46.8482 63.2759 46.998C63.201 43.4527 63.1011 39.8823 63.0262 36.337C54.1378 36.2371 45.4741 35.6129 36.7605 33.5905C28.3464 31.6431 19.6578 28.8967 12.6669 23.229" stroke="#C7E7DC" stroke-width="0.7" stroke-linecap="round" stroke-linejoin="round"/>
</svg>
