<svg width="71" height="59" viewBox="0 0 71 59" fill="none" xmlns="http://www.w3.org/2000/svg">
<path d="M44.0198 5.48683C42.9252 3.02211 40.313 1.50052 39.3054 1.161C38.2979 0.834043 37.9371 1.55083 37.8874 1.94066C37.8874 2.05383 37.8749 2.22988 37.8625 2.44366L39.7035 7.68747C39.7781 7.90125 39.7408 8.14018 39.604 8.32881L36.4071 12.5037C36.2703 12.6798 36.0464 12.7804 35.8225 12.7678L31.1455 12.378C30.8967 12.3528 30.6728 12.2019 30.5857 11.963L28.3218 6.37966C28.0357 6.31679 27.7621 6.35452 27.5755 6.40482C27.0033 6.55572 25.7843 7.13416 26.033 11.6863C26.2694 16.1505 28.4711 17.1188 30.4364 18.7661C32.4018 20.4135 32.1406 21.6081 32.2277 23.6327C32.3147 25.6573 32.4142 50.3799 32.3645 52.8195C32.3023 55.2591 33.1481 58.3148 36.4818 58.0633C39.8154 57.8118 39.9025 54.2405 39.9149 53.1339C39.9149 52.0273 39.5044 24.6387 39.492 22.3752C39.4796 20.1117 40.2259 19.0931 40.7857 18.3009C41.3579 17.5086 42.5271 16.8547 44.0198 14.1636C45.5125 11.4726 45.1269 7.93897 44.0198 5.47425V5.48683Z" stroke="#C7E7DC" stroke-width="0.7" stroke-miterlimit="10"/>
</svg>
