<svg xmlns="http://www.w3.org/2000/svg" width="11" height="11" viewBox="0 0 11 11" fill="none">
  <path opacity="0.65" d="M5.5 0C2.46233 0 0 2.46233 0 5.5C0 8.53767 2.46233 11 5.5 11C8.53767 11 11 8.53767 11 5.5C11 2.46233 8.53767 0 5.5 0ZM5.5 2.15217C5.89624 2.15217 6.21739 2.47333 6.21739 2.86957C6.21739 3.2658 5.89624 3.58696 5.5 3.58696C5.10376 3.58696 4.78261 3.2658 4.78261 2.86957C4.78261 2.47333 5.10376 2.15217 5.5 2.15217ZM6.45652 8.6087H5.97826H5.02174H4.54348V8.13043H5.02174V5.02174H4.54348V4.54348H5.02174H5.97826V5.02174V8.13043H6.45652V8.6087Z" fill="black"/>
</svg>