<svg xmlns="http://www.w3.org/2000/svg" width="19" height="19" viewBox="0 0 19 19" fill="none">
  <path d="M9.6665 16.833C13.8086 16.833 17.1665 13.4751 17.1665 9.33301C17.1665 5.19087 13.8086 1.83301 9.6665 1.83301C5.52437 1.83301 2.1665 5.19087 2.1665 9.33301C2.1665 13.4751 5.52437 16.833 9.6665 16.833Z" stroke="black" stroke-width="1.5"/>
  <path d="M9.6665 13.083V8.58301V13.083Z" fill="black"/>
  <path d="M9.6665 13.083V8.58301" stroke="black" stroke-width="1.5" stroke-linecap="round"/>
  <mask id="path-4-inside-1_17475_4491" fill="white">
    <path d="M9.6665 5.58301C10.0807 5.58301 10.4165 5.91879 10.4165 6.33301C10.4165 6.74722 10.0807 7.08301 9.6665 7.08301C9.25229 7.08301 8.9165 6.74722 8.9165 6.33301C8.9165 5.91879 9.25229 5.58301 9.6665 5.58301Z"/>
  </mask>
  <path d="M9.6665 5.58301C10.0807 5.58301 10.4165 5.91879 10.4165 6.33301C10.4165 6.74722 10.0807 7.08301 9.6665 7.08301C9.25229 7.08301 8.9165 6.74722 8.9165 6.33301C8.9165 5.91879 9.25229 5.58301 9.6665 5.58301Z" fill="black"/>
  <path d="M8.9165 6.33301C8.9165 6.74722 9.25229 7.08301 9.6665 7.08301V4.08301C10.9091 4.08301 11.9165 5.09037 11.9165 6.33301H8.9165ZM9.6665 7.08301C10.0807 7.08301 10.4165 6.74722 10.4165 6.33301H7.4165C7.4165 5.09037 8.42386 4.08301 9.6665 4.08301V7.08301ZM10.4165 6.33301C10.4165 5.91879 10.0807 5.58301 9.6665 5.58301V8.58301C8.42386 8.58301 7.4165 7.57565 7.4165 6.33301H10.4165ZM9.6665 5.58301C9.25229 5.58301 8.9165 5.91879 8.9165 6.33301H11.9165C11.9165 7.57565 10.9091 8.58301 9.6665 8.58301V5.58301Z" fill="black" mask="url(#path-4-inside-1_17475_4491)"/>
</svg>