<svg xmlns="http://www.w3.org/2000/svg" width="79" height="79" viewBox="0 0 79 79" fill="none">
  <circle cx="39.4996" cy="39.9044" r="37.9779" fill="white" stroke="#EDE7DD" stroke-width="2.1099"/>
  <path d="M49.6408 58.5899L49.5007 58.7392L49.3221 58.8995C48.4601 59.6731 47.339 60.1541 46.0973 60.1938L45.8702 60.2011L45.655 60.1895C44.4319 60.1232 43.3286 59.6247 42.4891 58.8427L42.356 58.7186L42.1792 58.5234C41.4152 57.6801 40.9338 56.5763 40.8763 55.3607L40.8644 55.107L40.8717 54.9237C40.9203 53.7041 41.397 52.5966 42.1606 51.7491L42.3263 51.5652L42.4708 51.4298C43.3152 50.6384 44.423 50.1357 45.6501 50.0695L45.8557 50.0584L46.0942 50.0652C47.3393 50.1005 48.4686 50.5857 49.3297 51.3673L49.4968 51.519L49.6496 51.6827C50.4483 52.5388 50.9476 53.6732 51.0007 54.925L51.0103 55.1532L51.0008 55.3613C50.9433 56.6078 50.4398 57.7378 49.6408 58.5899ZM51.7139 49.3072L51.6396 49.1866C51.4608 48.8966 51.499 48.5169 51.7422 48.2738C52.0322 47.9837 52.497 47.9837 52.787 48.2738C53.0771 48.5638 53.0771 49.0286 52.787 49.3186L52.785 49.3206C52.5327 49.5758 52.1324 49.6044 51.8382 49.3955L51.7139 49.3072ZM45.899 46.9212L45.7465 46.8824C45.4285 46.8015 45.1962 46.5162 45.1962 46.1731C45.1962 45.7649 45.5256 45.4355 45.9337 45.4355C46.3419 45.4355 46.6713 45.7649 46.6713 46.1731C46.6713 46.5437 46.3996 46.8486 46.0366 46.9013L45.899 46.9212ZM40.1005 49.3595L39.9783 49.4331C39.6948 49.6037 39.3218 49.5649 39.0804 49.3235C38.7904 49.0334 38.7904 48.5687 39.0804 48.2786C39.3704 47.9886 39.8352 47.9886 40.1253 48.2786C40.383 48.5363 40.4086 48.9431 40.1934 49.234L40.1005 49.3595ZM51.711 60.9603L51.8365 60.8674C52.1273 60.6522 52.5342 60.6778 52.7919 60.9355C53.0819 61.2256 53.0819 61.6903 52.7919 61.9804C52.5018 62.2704 52.0371 62.2704 51.747 61.9804L51.7449 61.9783C51.5035 61.7397 51.465 61.3688 51.6374 61.0825L51.711 60.9603ZM37.7311 55.1543L37.7042 55.2789C37.6307 55.62 37.3327 55.8695 36.9797 55.8695C36.5716 55.8695 36.2422 55.5401 36.2422 55.1319C36.2422 54.7238 36.5716 54.3944 36.9797 54.3944C37.3351 54.3944 37.6378 54.654 37.7015 54.9955L37.7311 55.1543ZM40.1181 60.9076L40.2084 61.0335C40.4138 61.3199 40.3896 61.7209 40.1301 61.9804C39.8401 62.2704 39.3753 62.2704 39.0853 61.9804C38.7955 61.6907 38.7952 61.2266 39.0842 60.9365C39.3345 60.6901 39.7144 60.6563 39.9962 60.8317L40.1181 60.9076ZM45.9009 63.3372L46.0409 63.3577C46.4012 63.4104 46.6761 63.717 46.6761 64.0859C46.6761 64.494 46.3467 64.8234 45.9386 64.8234C45.5304 64.8234 45.201 64.494 45.201 64.0859C45.201 63.7459 45.4309 63.4611 45.7554 63.3755L45.9009 63.3372ZM54.144 55.1392L54.1708 54.9955C54.2347 54.6528 54.5335 54.3944 54.8925 54.3944H54.8974C55.3055 54.3944 55.6349 54.7238 55.6349 55.1319C55.6349 55.5401 55.3055 55.8695 54.8974 55.8695C54.5413 55.8695 54.2429 55.6174 54.1737 55.283L54.144 55.1392Z" stroke="black"/>
  <path d="M56.7085 42.7597L56.6151 42.7786L56.5024 42.7915C55.963 42.8532 55.4049 42.7329 54.9198 42.4112L54.8307 42.3521L54.7518 42.2894C54.3029 41.9326 54.017 41.4436 53.9084 40.9171L53.8915 40.8352L53.8767 40.7104C53.8137 40.1814 53.929 39.6296 54.237 39.1493L54.3021 39.0479L54.3535 38.9813C54.7029 38.5285 55.1849 38.2353 55.7058 38.1189L55.8206 38.0932L55.9117 38.0808C56.4494 38.0075 57.008 38.116 57.4942 38.4232L57.5756 38.4747L57.666 38.5429C58.1316 38.8938 58.4309 39.3845 58.5477 39.9164L58.5706 40.0203L58.5846 40.1249C58.6573 40.6678 58.5407 41.2362 58.221 41.7294L58.1627 41.8193L58.1031 41.8955C57.7428 42.3563 57.2443 42.6511 56.7085 42.7597ZM60.6476 39.6767L60.6491 39.6529C60.6536 39.5854 60.7034 39.5324 60.7641 39.5221L60.6806 39.0292L60.7641 39.5221C60.8411 39.5091 60.9118 39.5593 60.9249 39.6363L61.4178 39.5527L60.9249 39.6363C60.9379 39.7133 60.8877 39.784 60.8107 39.797L60.808 39.7975C60.7472 39.8081 60.6813 39.7734 60.6573 39.7046L60.6476 39.6767ZM58.8222 36.7749L58.8008 36.7497C58.761 36.7029 58.7572 36.6354 58.7941 36.5835C58.8387 36.5207 58.9247 36.5061 58.9875 36.5507C59.0503 36.5953 59.0649 36.6813 59.0203 36.7441C58.9811 36.7993 58.9078 36.8188 58.8432 36.7857L58.8222 36.7749ZM55.4707 36.0166L55.4451 36.0147C55.3831 36.01 55.3307 35.9627 55.3203 35.9011C55.3072 35.8241 55.3574 35.7534 55.4344 35.7403L55.3509 35.2474L55.4344 35.7403C55.5114 35.7273 55.5821 35.7775 55.5952 35.8545C55.6061 35.9191 55.5679 35.9848 55.5016 36.0065L55.4707 36.0166ZM56.9721 44.8539L57.0046 44.8533C57.0743 44.8519 57.1321 44.9014 57.1431 44.966C57.1561 45.043 57.1059 45.1136 57.0289 45.1267C56.9519 45.1397 56.8812 45.0895 56.8682 45.0126L56.8677 45.0096C56.8575 44.9517 56.8885 44.8904 56.9486 44.8641L56.9721 44.8539ZM52.5723 37.8463L52.5596 37.8579C52.5078 37.9053 52.434 37.9083 52.3816 37.8711C52.3188 37.8265 52.3043 37.7405 52.3489 37.6777C52.3935 37.6149 52.4795 37.6003 52.5423 37.6449C52.5946 37.6821 52.6144 37.7553 52.5869 37.8147L52.5723 37.8463ZM51.8149 41.1755L51.8151 41.2075C51.8154 41.2738 51.7678 41.3315 51.7007 41.3429L51.7842 41.8358L51.7007 41.3429C51.6237 41.3559 51.553 41.3057 51.54 41.2287L51.047 41.3123L51.54 41.2287C51.527 41.1522 51.5765 41.0819 51.6526 41.0682C51.7192 41.058 51.7813 41.0953 51.8049 41.1515L51.8149 41.1755ZM53.6326 44.0859L53.6497 44.1022C53.7019 44.1522 53.7075 44.2298 53.6693 44.2835C53.6247 44.3464 53.5387 44.3609 53.4758 44.3163C53.413 44.2717 53.3985 44.1857 53.4431 44.1229C53.4781 44.0735 53.5421 44.0519 53.6062 44.076L53.6326 44.0859ZM59.8852 43.0312L59.9052 43.0118C59.9532 42.9654 60.0268 42.96 60.0803 42.998L60.0823 42.9994C60.1451 43.044 60.1597 43.13 60.1151 43.1928C60.0705 43.2557 59.9845 43.2702 59.9216 43.2256C59.8668 43.1867 59.8484 43.1151 59.8739 43.057L59.8852 43.0312Z" stroke="black"/>
  <path d="M27.5292 35.7224L27.5147 35.8583C27.4511 36.1356 27.2957 36.3837 27.0656 36.5641L27.0656 36.564L27.0587 36.5695C26.83 36.7554 26.5467 36.8449 26.2631 36.8449C25.8758 36.8449 25.5046 36.6828 25.2489 36.3623C25.0343 36.0878 24.9396 35.7594 24.9766 35.4109C25.0132 35.075 25.1804 34.77 25.4504 34.5584C25.7238 34.3441 26.0507 34.2489 26.3979 34.2844C26.7399 34.3304 27.0455 34.5007 27.2557 34.7689C27.4712 35.0439 27.5663 35.373 27.5292 35.7224ZM25.2515 36.3505L25.2574 36.3582L25.2635 36.3658C25.6957 36.8977 26.4813 37.0028 27.0367 36.5692C27.3112 36.3612 27.481 36.0512 27.5148 35.7129C27.5489 35.3725 27.4443 35.0559 27.2542 34.8026C27.0463 34.5253 26.7346 34.3537 26.3944 34.3197L26.3696 34.3172H26.3446H26.3444H26.3443H26.3441H26.3439H26.3437H26.3435H26.3434H26.3432H26.343H26.3428H26.3427H26.3425H26.3423H26.3421H26.3419H26.3418H26.3416H26.3414H26.3412H26.341H26.3409H26.3407H26.3405H26.3403H26.3401H26.34H26.3398H26.3396H26.3394H26.3392H26.3391H26.3389H26.3387H26.3385H26.3384H26.3382H26.338H26.3378H26.3376H26.3375H26.3373H26.3371H26.3369H26.3367H26.3366H26.3364H26.3362H26.336H26.3358H26.3357H26.3355H26.3353H26.3351H26.3349H26.3348H26.3346H26.3344H26.3342H26.3341H26.3339H26.3337H26.3335H26.3333H26.3332H26.333H26.3328H26.3326H26.3324H26.3323H26.3321H26.3319H26.3317H26.3315H26.3314H26.3312H26.331H26.3308H26.3306H26.3305H26.3303H26.3301H26.3299H26.3298H26.3296H26.3294H26.3292H26.329H26.3289H26.3287H26.3285H26.3283H26.3281H26.328H26.3278H26.3276H26.3274H26.3272H26.3271H26.3269H26.3267H26.3265H26.3263H26.3262H26.326H26.3258H26.3256H26.3255H26.3253H26.3251H26.3249H26.3247H26.3246H26.3244H26.3242H26.324H26.3238H26.3237H26.3235H26.3233H26.3231H26.3229H26.3228H26.3226H26.3224H26.3222H26.322H26.3219H26.3217H26.3215H26.3213H26.3212H26.321H26.3208H26.3206H26.3204H26.3203H26.3201H26.3199H26.3197H26.3195H26.3194H26.3192H26.319H26.3188H26.3186H26.3185H26.3183H26.3181H26.3179H26.3177H26.3176H26.3174H26.3172H26.317H26.3169H26.3167H26.3165H26.3163H26.3161H26.316H26.3158H26.3156H26.3154H26.3152H26.3151H26.3149H26.3147H26.3145H26.3143H26.3142H26.314H26.3138H26.3136H26.3134H26.3133H26.3131H26.3129H26.3127H26.3126H26.3124H26.3122H26.312H26.3118H26.3117H26.3115H26.3113H26.3111H26.3109H26.3108H26.3106H26.3104H26.3102H26.31H26.3099H26.3097H26.3095H26.3093H26.3091H26.309H26.3088H26.3086H26.3084H26.3083H26.3081H26.3079H26.3077H26.3075H26.3074H26.3072H26.307H26.3068H26.3066H26.3065H26.3063H26.3061H26.3059H26.3057H26.3056H26.3054H26.3052H26.305H26.3048H26.3047H26.3045H26.3043H26.3041H26.304H26.3038H26.3036H26.3034H26.3032H26.3031H26.3029H26.3027H26.3025H26.3023H26.3022H26.302H26.3018H26.3016H26.3014H26.3013H26.3011H26.3009H26.3007H26.3005H26.3004H26.3002H26.3H26.2998H26.2997H26.2995H26.2993H26.2991H26.2989H26.2988H26.2986H26.2984H26.2982H26.298H26.2979H26.2977H26.2975H26.2973H26.2971H26.297H26.2968H26.2966H26.2964H26.2962H26.2961H26.2959H26.2957H26.2955H26.2954H26.2952H26.295H26.2948H26.2946H26.2945H26.2943H26.2941H26.2939H26.2937H26.2936H26.2934H26.2932H26.293H26.2928H26.2927H26.2925H26.2923H26.2921H26.2919H26.2918H26.2916H26.2914H26.2912H26.2911H26.2909H26.2907H26.2905H26.2903H26.2902H26.29H26.2898H26.2896H26.2894H26.2893H26.2891H26.2889H26.2887H26.2885H26.2884H26.2882H26.288H26.2878H26.2876H26.2875H26.2873H26.2871H26.2869H26.2868H26.2866H26.2864H26.2862H26.286H26.2859H26.2857H26.2855H26.2853H26.2851H26.285H26.2848H26.2846H26.2844H26.2842H26.2841H26.2839H26.2837H26.2835H26.2833H26.2832H26.283H26.2828H26.2826H26.2825H26.2823H26.2821H26.2819H26.2817H26.2816H26.2814H26.2812H26.281H26.2808H26.2807H26.2805H26.2803H26.2801H26.2799H26.2798H26.2796H26.2794H26.2792H26.279H26.2789H26.2787H26.2785H26.2783H26.2782H26.278H26.2778H26.2776H26.2774H26.2773H26.2771H26.2769H26.2767H26.2765H26.2764H26.2762H26.276H26.2758H26.2756H26.2755H26.2753H26.2751H26.2749H26.2747H26.2746H26.2744H26.2742H26.274H26.2739H26.2737H26.2735H26.2733H26.2731H26.273H26.2728H26.2726H26.2724H26.2722H26.2721H26.2719H26.2717H26.2715H26.2713H26.2712H26.271H26.2708H26.2706H26.2704H26.2703H26.2701H26.2699H26.2697H26.2696H26.2694H26.2692H26.269H26.2688H26.2687H26.2685H26.2683H26.2681H26.2679H26.2678H26.2676H26.2674H26.2672H26.267H26.2669H26.2667H26.2665H26.2663H26.2661H26.266H26.2658H26.2656H26.2654H26.2653H26.2651H26.2649H26.2647H26.2645H26.2644H26.2642H26.264H26.2638H26.2636H26.2635H26.2633H26.2631H26.2629H26.2627H26.2626H26.2624H26.2622H26.262H26.2618H26.2617H26.2615H26.2613H26.2611H26.261H26.2608H26.2606H26.2604H26.2602H26.2601H26.2599H26.2597H26.2595H26.2593H26.2592H26.259H26.2588H26.2586H26.2584H26.2583H26.2581H26.2579H26.2577H26.2575H26.2574H26.2572H26.257H26.2568H26.2567H26.2565H26.2563H26.2561H26.2559H26.2558H26.2556H26.2554H26.2552H26.255H26.2549H26.2547H26.2545H26.2543H26.2541H26.254H26.2538H26.2536H26.2534H26.2532H26.2531H26.2529C25.9909 34.3172 25.7006 34.3927 25.4623 34.589C25.1918 34.7969 25.0245 35.1046 24.9909 35.4401C24.9569 35.7806 25.0615 36.0971 25.2515 36.3505Z" stroke="black"/>
  <path d="M33.0032 32.9436C33.1428 33.1285 33.1112 33.3841 32.9362 33.5259C32.7513 33.6655 32.4956 33.6339 32.3539 33.4589C32.2143 33.274 32.2459 33.0184 32.4209 32.8766C32.6058 32.737 32.8614 32.7686 33.0032 32.9436Z" stroke="black"/>
  <path d="M37.0635 27.8496L37.0635 27.8495L37.0583 27.8537C36.4403 28.3511 35.525 28.2461 35.0339 27.619L35.034 27.6189L35.0298 27.6137C34.5323 26.9957 34.6374 26.0805 35.2645 25.5893L35.2645 25.5894L35.2697 25.5852C35.8878 25.0878 36.803 25.1928 37.2941 25.8199L37.2941 25.82L37.2983 25.8252C37.7957 26.4432 37.6907 27.3584 37.0635 27.8496Z" stroke="black"/>
  <mask id="path-7-inside-1_13317_6342" fill="white">
    <path d="M44.2726 26.3369C44.2522 26.0515 44.0076 25.8578 43.7222 25.868L41.7959 26.0311C41.7551 25.8578 41.7041 25.6947 41.643 25.5317L43.4164 24.4615C43.6611 24.3188 43.7324 24.0028 43.5897 23.7582C43.447 23.5136 43.1311 23.4422 42.8864 23.5849L41.2251 24.5838C41.1436 24.4411 41.062 24.2882 40.9703 24.1557L42.2239 22.7899C42.4176 22.5861 42.3972 22.2599 42.1934 22.0663C41.9895 21.8828 41.6634 21.893 41.4697 22.0968L40.3384 23.3301C40.0835 23.0345 39.7982 22.7695 39.4924 22.5351L40.2364 20.7514C40.3485 20.4966 40.2262 20.1909 39.9612 20.0889C39.6962 19.9768 39.4007 20.0991 39.2987 20.3641L38.626 21.9643C38.361 21.8114 38.0757 21.6891 37.7903 21.577L37.9228 19.5895C37.9432 19.3041 37.7291 19.0697 37.4437 19.0493C37.1685 19.0289 36.9239 19.243 36.9035 19.5182L36.7812 21.2916C36.4653 21.2305 36.1493 21.1795 35.8333 21.1591L35.4766 19.2226C35.4256 18.9474 35.1606 18.7639 34.8854 18.8149C34.6103 18.8659 34.4268 19.1309 34.4778 19.4061L34.8141 21.1897C34.4676 21.2305 34.121 21.2916 33.7847 21.3834L32.9387 19.7934C32.8062 19.5487 32.5004 19.4468 32.2456 19.5793C32.001 19.7118 31.8991 20.0176 32.0316 20.2724L32.8062 21.7299C32.8062 21.7299 32.7756 21.7401 32.7553 21.7503C32.4189 21.9032 32.1029 22.107 31.8074 22.3109L30.9308 21.2203C30.7576 21.0063 30.4314 20.9655 30.2174 21.1489C30.0033 21.3222 29.9625 21.6484 30.146 21.8624L31.0327 22.953C30.7474 23.2282 30.4824 23.5238 30.2479 23.8499L29.1777 22.8307C28.9739 22.637 28.6477 22.6472 28.4541 22.8511C28.2604 23.0549 28.2706 23.3811 28.4745 23.5747L29.7077 24.7468C29.5956 24.9609 29.4733 25.1749 29.3918 25.3992C29.351 25.5113 29.2899 25.6234 29.2491 25.7253L28.4031 24.6857C28.2298 24.4717 27.9037 24.4309 27.6897 24.6143C27.4756 24.7876 27.4348 25.1138 27.6183 25.3278L28.7191 26.6834C28.4643 27.0401 28.1483 27.3663 27.812 27.6415L27.0475 25.8884C26.9354 25.6336 26.6398 25.5113 26.3748 25.6234C26.12 25.7355 25.9977 26.0413 26.1098 26.2961L26.9456 28.2224C26.5991 28.4059 26.2321 28.5588 25.8448 28.6709L25.2843 26.8872C25.2027 26.6222 24.9173 26.4694 24.6421 26.5509C24.3771 26.6324 24.2243 26.9178 24.3058 27.193L24.8358 28.8747C24.3771 28.9461 23.9491 29.0582 23.5312 29.2111L22.7362 27.7944C22.5935 27.5497 22.2877 27.458 22.0431 27.6007C21.7985 27.7434 21.7067 28.0492 21.8494 28.2938L22.6037 29.6392C22.1144 29.9144 21.666 30.2609 21.2685 30.6584L19.9435 29.6392C19.7192 29.4659 19.4033 29.5067 19.23 29.7309C19.0567 29.9551 19.0975 30.2711 19.3217 30.4444L20.5958 31.433C20.2798 31.8509 20.025 32.3096 19.8212 32.7988L17.7012 32.6459C17.426 32.6255 17.1813 32.8396 17.161 33.1148C17.1406 33.4001 17.3546 33.6448 17.6298 33.6651L19.495 33.7976C19.3727 34.2971 19.3115 34.8169 19.3115 35.3469L16.6819 35.9788C16.4067 36.0502 16.2436 36.3254 16.3048 36.5904C16.366 36.8248 16.5698 36.9777 16.8042 36.9777C16.845 36.9777 16.8858 36.9777 16.9265 36.9675L19.4135 36.3661C19.4746 36.7432 19.5663 37.1102 19.6989 37.4669L17.4463 38.6288C17.1915 38.7613 17.0998 39.0671 17.2221 39.3117C17.3138 39.485 17.4871 39.5869 17.6808 39.5869C17.7623 39.5869 17.8438 39.5665 17.9152 39.5257L20.1167 38.3944C20.3104 38.7511 20.5346 39.0773 20.7894 39.3932L19.0058 41.0648C18.8019 41.2584 18.7917 41.5744 18.9854 41.7884C19.0873 41.9006 19.2198 41.9515 19.3523 41.9515C19.4746 41.9515 19.6071 41.9108 19.6989 41.8088L21.4927 40.1271C21.5946 40.2188 21.6965 40.3106 21.8087 40.4023C21.9412 40.5042 22.0839 40.5858 22.2164 40.6775L21.0646 42.9198C20.9321 43.1746 21.034 43.4804 21.2889 43.6027C21.3602 43.6435 21.4417 43.6638 21.5233 43.6638C21.7067 43.6638 21.8902 43.5619 21.9819 43.3886L23.1133 41.1871C23.3171 41.2788 23.521 41.3808 23.735 41.4623L23.6535 43.9288C23.6535 44.2142 23.8675 44.4487 24.1427 44.4588H24.1631C24.4383 44.4588 24.6625 44.2448 24.6727 43.9696L24.7543 41.7171C25.0906 41.7783 25.4371 41.7986 25.7837 41.7986L25.906 43.8677C25.9264 44.1429 26.1506 44.3467 26.4156 44.3467C26.4156 44.3467 26.436 44.3467 26.4462 44.3467C26.7316 44.3263 26.9456 44.0919 26.9252 43.8065L26.8029 41.7273C27.1495 41.6865 27.4858 41.6356 27.8222 41.5744L28.24 43.6944C28.291 43.939 28.505 44.1021 28.7395 44.1021C28.77 44.1021 28.8006 44.1021 28.8414 44.1021C29.1166 44.0511 29.3 43.776 29.2389 43.5008L28.8108 41.3604C29.0554 41.2992 29.2898 41.2381 29.5345 41.1667L30.1664 43.3173C30.2275 43.5415 30.4314 43.6842 30.6556 43.6842C30.7066 43.6842 30.7474 43.6842 30.7983 43.6638C31.0735 43.5823 31.2264 43.3071 31.1449 43.0319L30.5129 40.8609C30.8799 40.7284 31.2468 40.5959 31.6035 40.4431L32.5718 42.5223C32.6533 42.7058 32.847 42.8179 33.0304 42.8179C33.1018 42.8179 33.1731 42.8077 33.2445 42.7669C33.4993 42.6446 33.6114 42.349 33.4891 42.0942L32.5208 40.0252C32.8266 39.8723 33.112 39.7194 33.4076 39.5563L34.6918 41.4215C34.7937 41.5642 34.9466 41.6458 35.1097 41.6458C35.2116 41.6458 35.3135 41.6152 35.3951 41.554C35.6295 41.3909 35.6804 41.075 35.5276 40.8406L34.2841 39.0263C34.5185 38.8734 34.7529 38.7206 34.9874 38.5575L36.4347 40.229C36.5366 40.3411 36.6793 40.4023 36.822 40.4023C36.9443 40.4023 37.0564 40.3615 37.1583 40.28C37.3724 40.0965 37.3928 39.7704 37.2093 39.5563L35.813 37.9459C36.0372 37.7727 36.241 37.579 36.4551 37.3955L37.7393 38.8734C37.8412 38.9856 37.9839 39.0467 38.1266 39.0467C38.2489 39.0467 38.361 39.0059 38.463 38.9244C38.677 38.7409 38.6974 38.4148 38.5139 38.2007L37.2093 36.6923C37.4233 36.4884 37.6272 36.2846 37.8208 36.0604L39.3701 37.4261C39.4618 37.5077 39.5841 37.5484 39.7064 37.5484C39.8491 37.5484 39.9918 37.4873 40.0937 37.3752C40.2772 37.1611 40.2568 36.8452 40.0428 36.6515L38.4935 35.2857C38.7789 34.9392 39.0439 34.5927 39.3089 34.2257L40.848 35.3978C40.9397 35.4692 41.0518 35.4998 41.1537 35.4998C41.3066 35.4998 41.4595 35.4284 41.5614 35.2959C41.7347 35.0717 41.6837 34.7557 41.4595 34.5825L39.8695 33.3798C40.0734 33.0638 40.2568 32.7376 40.4403 32.4115L42.0507 33.4103C42.1322 33.4613 42.2239 33.4919 42.3157 33.4919C42.4889 33.4919 42.652 33.4103 42.7437 33.2473C42.8966 33.0128 42.8151 32.6969 42.5807 32.544L40.8989 31.4942C41.0518 31.1782 41.1945 30.8623 41.327 30.5361L43.1412 31.1273C43.1922 31.1476 43.2432 31.1476 43.3043 31.1476C43.5184 31.1476 43.7222 31.0151 43.7936 30.8011C43.8853 30.5361 43.7324 30.2507 43.4674 30.159L41.6939 29.578C41.7857 29.2926 41.857 29.0072 41.8978 28.7219L43.6101 28.9257C43.6101 28.9257 43.6509 28.9257 43.6713 28.9257C43.9261 28.9257 44.1503 28.7321 44.1809 28.4772C44.2114 28.2021 44.0178 27.9472 43.7324 27.9167L41.9895 27.7128C41.9895 27.4886 41.9895 27.2644 41.9589 27.0401L43.8038 26.8872C44.0789 26.8669 44.293 26.612 44.2726 26.3369ZM23.0725 38.8123C22.1348 38.0784 21.5437 37.0184 21.401 35.8361C21.1054 33.39 22.8585 31.168 25.2944 30.8724C28.0566 30.5361 30.36 28.7117 31.3181 26.1126C31.7258 24.9915 32.5514 24.1047 33.6318 23.6053C34.2229 23.3301 34.8651 23.1874 35.5072 23.1874C36.027 23.1874 36.5468 23.2791 37.0462 23.4626C37.8208 23.748 38.4935 24.2372 39.0032 24.8793C39.9714 26.1126 40.2364 27.723 39.6962 29.1907C37.5762 34.9596 32.4699 39.0059 26.3646 39.7296C25.1823 39.8723 24.0102 39.5461 23.0827 38.8123H23.0725Z"/>
  </mask>
  <path d="M44.2726 26.3369C44.2522 26.0515 44.0076 25.8578 43.7222 25.868L41.7959 26.0311C41.7551 25.8578 41.7041 25.6947 41.643 25.5317L43.4164 24.4615C43.6611 24.3188 43.7324 24.0028 43.5897 23.7582C43.447 23.5136 43.1311 23.4422 42.8864 23.5849L41.2251 24.5838C41.1436 24.4411 41.062 24.2882 40.9703 24.1557L42.2239 22.7899C42.4176 22.5861 42.3972 22.2599 42.1934 22.0663C41.9895 21.8828 41.6634 21.893 41.4697 22.0968L40.3384 23.3301C40.0835 23.0345 39.7982 22.7695 39.4924 22.5351L40.2364 20.7514C40.3485 20.4966 40.2262 20.1909 39.9612 20.0889C39.6962 19.9768 39.4007 20.0991 39.2987 20.3641L38.626 21.9643C38.361 21.8114 38.0757 21.6891 37.7903 21.577L37.9228 19.5895C37.9432 19.3041 37.7291 19.0697 37.4437 19.0493C37.1685 19.0289 36.9239 19.243 36.9035 19.5182L36.7812 21.2916C36.4653 21.2305 36.1493 21.1795 35.8333 21.1591L35.4766 19.2226C35.4256 18.9474 35.1606 18.7639 34.8854 18.8149C34.6103 18.8659 34.4268 19.1309 34.4778 19.4061L34.8141 21.1897C34.4676 21.2305 34.121 21.2916 33.7847 21.3834L32.9387 19.7934C32.8062 19.5487 32.5004 19.4468 32.2456 19.5793C32.001 19.7118 31.8991 20.0176 32.0316 20.2724L32.8062 21.7299C32.8062 21.7299 32.7756 21.7401 32.7553 21.7503C32.4189 21.9032 32.1029 22.107 31.8074 22.3109L30.9308 21.2203C30.7576 21.0063 30.4314 20.9655 30.2174 21.1489C30.0033 21.3222 29.9625 21.6484 30.146 21.8624L31.0327 22.953C30.7474 23.2282 30.4824 23.5238 30.2479 23.8499L29.1777 22.8307C28.9739 22.637 28.6477 22.6472 28.4541 22.8511C28.2604 23.0549 28.2706 23.3811 28.4745 23.5747L29.7077 24.7468C29.5956 24.9609 29.4733 25.1749 29.3918 25.3992C29.351 25.5113 29.2899 25.6234 29.2491 25.7253L28.4031 24.6857C28.2298 24.4717 27.9037 24.4309 27.6897 24.6143C27.4756 24.7876 27.4348 25.1138 27.6183 25.3278L28.7191 26.6834C28.4643 27.0401 28.1483 27.3663 27.812 27.6415L27.0475 25.8884C26.9354 25.6336 26.6398 25.5113 26.3748 25.6234C26.12 25.7355 25.9977 26.0413 26.1098 26.2961L26.9456 28.2224C26.5991 28.4059 26.2321 28.5588 25.8448 28.6709L25.2843 26.8872C25.2027 26.6222 24.9173 26.4694 24.6421 26.5509C24.3771 26.6324 24.2243 26.9178 24.3058 27.193L24.8358 28.8747C24.3771 28.9461 23.9491 29.0582 23.5312 29.2111L22.7362 27.7944C22.5935 27.5497 22.2877 27.458 22.0431 27.6007C21.7985 27.7434 21.7067 28.0492 21.8494 28.2938L22.6037 29.6392C22.1144 29.9144 21.666 30.2609 21.2685 30.6584L19.9435 29.6392C19.7192 29.4659 19.4033 29.5067 19.23 29.7309C19.0567 29.9551 19.0975 30.2711 19.3217 30.4444L20.5958 31.433C20.2798 31.8509 20.025 32.3096 19.8212 32.7988L17.7012 32.6459C17.426 32.6255 17.1813 32.8396 17.161 33.1148C17.1406 33.4001 17.3546 33.6448 17.6298 33.6651L19.495 33.7976C19.3727 34.2971 19.3115 34.8169 19.3115 35.3469L16.6819 35.9788C16.4067 36.0502 16.2436 36.3254 16.3048 36.5904C16.366 36.8248 16.5698 36.9777 16.8042 36.9777C16.845 36.9777 16.8858 36.9777 16.9265 36.9675L19.4135 36.3661C19.4746 36.7432 19.5663 37.1102 19.6989 37.4669L17.4463 38.6288C17.1915 38.7613 17.0998 39.0671 17.2221 39.3117C17.3138 39.485 17.4871 39.5869 17.6808 39.5869C17.7623 39.5869 17.8438 39.5665 17.9152 39.5257L20.1167 38.3944C20.3104 38.7511 20.5346 39.0773 20.7894 39.3932L19.0058 41.0648C18.8019 41.2584 18.7917 41.5744 18.9854 41.7884C19.0873 41.9006 19.2198 41.9515 19.3523 41.9515C19.4746 41.9515 19.6071 41.9108 19.6989 41.8088L21.4927 40.1271C21.5946 40.2188 21.6965 40.3106 21.8087 40.4023C21.9412 40.5042 22.0839 40.5858 22.2164 40.6775L21.0646 42.9198C20.9321 43.1746 21.034 43.4804 21.2889 43.6027C21.3602 43.6435 21.4417 43.6638 21.5233 43.6638C21.7067 43.6638 21.8902 43.5619 21.9819 43.3886L23.1133 41.1871C23.3171 41.2788 23.521 41.3808 23.735 41.4623L23.6535 43.9288C23.6535 44.2142 23.8675 44.4487 24.1427 44.4588H24.1631C24.4383 44.4588 24.6625 44.2448 24.6727 43.9696L24.7543 41.7171C25.0906 41.7783 25.4371 41.7986 25.7837 41.7986L25.906 43.8677C25.9264 44.1429 26.1506 44.3467 26.4156 44.3467C26.4156 44.3467 26.436 44.3467 26.4462 44.3467C26.7316 44.3263 26.9456 44.0919 26.9252 43.8065L26.8029 41.7273C27.1495 41.6865 27.4858 41.6356 27.8222 41.5744L28.24 43.6944C28.291 43.939 28.505 44.1021 28.7395 44.1021C28.77 44.1021 28.8006 44.1021 28.8414 44.1021C29.1166 44.0511 29.3 43.776 29.2389 43.5008L28.8108 41.3604C29.0554 41.2992 29.2898 41.2381 29.5345 41.1667L30.1664 43.3173C30.2275 43.5415 30.4314 43.6842 30.6556 43.6842C30.7066 43.6842 30.7474 43.6842 30.7983 43.6638C31.0735 43.5823 31.2264 43.3071 31.1449 43.0319L30.5129 40.8609C30.8799 40.7284 31.2468 40.5959 31.6035 40.4431L32.5718 42.5223C32.6533 42.7058 32.847 42.8179 33.0304 42.8179C33.1018 42.8179 33.1731 42.8077 33.2445 42.7669C33.4993 42.6446 33.6114 42.349 33.4891 42.0942L32.5208 40.0252C32.8266 39.8723 33.112 39.7194 33.4076 39.5563L34.6918 41.4215C34.7937 41.5642 34.9466 41.6458 35.1097 41.6458C35.2116 41.6458 35.3135 41.6152 35.3951 41.554C35.6295 41.3909 35.6804 41.075 35.5276 40.8406L34.2841 39.0263C34.5185 38.8734 34.7529 38.7206 34.9874 38.5575L36.4347 40.229C36.5366 40.3411 36.6793 40.4023 36.822 40.4023C36.9443 40.4023 37.0564 40.3615 37.1583 40.28C37.3724 40.0965 37.3928 39.7704 37.2093 39.5563L35.813 37.9459C36.0372 37.7727 36.241 37.579 36.4551 37.3955L37.7393 38.8734C37.8412 38.9856 37.9839 39.0467 38.1266 39.0467C38.2489 39.0467 38.361 39.0059 38.463 38.9244C38.677 38.7409 38.6974 38.4148 38.5139 38.2007L37.2093 36.6923C37.4233 36.4884 37.6272 36.2846 37.8208 36.0604L39.3701 37.4261C39.4618 37.5077 39.5841 37.5484 39.7064 37.5484C39.8491 37.5484 39.9918 37.4873 40.0937 37.3752C40.2772 37.1611 40.2568 36.8452 40.0428 36.6515L38.4935 35.2857C38.7789 34.9392 39.0439 34.5927 39.3089 34.2257L40.848 35.3978C40.9397 35.4692 41.0518 35.4998 41.1537 35.4998C41.3066 35.4998 41.4595 35.4284 41.5614 35.2959C41.7347 35.0717 41.6837 34.7557 41.4595 34.5825L39.8695 33.3798C40.0734 33.0638 40.2568 32.7376 40.4403 32.4115L42.0507 33.4103C42.1322 33.4613 42.2239 33.4919 42.3157 33.4919C42.4889 33.4919 42.652 33.4103 42.7437 33.2473C42.8966 33.0128 42.8151 32.6969 42.5807 32.544L40.8989 31.4942C41.0518 31.1782 41.1945 30.8623 41.327 30.5361L43.1412 31.1273C43.1922 31.1476 43.2432 31.1476 43.3043 31.1476C43.5184 31.1476 43.7222 31.0151 43.7936 30.8011C43.8853 30.5361 43.7324 30.2507 43.4674 30.159L41.6939 29.578C41.7857 29.2926 41.857 29.0072 41.8978 28.7219L43.6101 28.9257C43.6101 28.9257 43.6509 28.9257 43.6713 28.9257C43.9261 28.9257 44.1503 28.7321 44.1809 28.4772C44.2114 28.2021 44.0178 27.9472 43.7324 27.9167L41.9895 27.7128C41.9895 27.4886 41.9895 27.2644 41.9589 27.0401L43.8038 26.8872C44.0789 26.8669 44.293 26.612 44.2726 26.3369ZM23.0725 38.8123C22.1348 38.0784 21.5437 37.0184 21.401 35.8361C21.1054 33.39 22.8585 31.168 25.2944 30.8724C28.0566 30.5361 30.36 28.7117 31.3181 26.1126C31.7258 24.9915 32.5514 24.1047 33.6318 23.6053C34.2229 23.3301 34.8651 23.1874 35.5072 23.1874C36.027 23.1874 36.5468 23.2791 37.0462 23.4626C37.8208 23.748 38.4935 24.2372 39.0032 24.8793C39.9714 26.1126 40.2364 27.723 39.6962 29.1907C37.5762 34.9596 32.4699 39.0059 26.3646 39.7296C25.1823 39.8723 24.0102 39.5461 23.0827 38.8123H23.0725Z" stroke="black" stroke-width="2" mask="url(#path-7-inside-1_13317_6342)"/>
</svg>