<svg xmlns="http://www.w3.org/2000/svg" width="79" height="79" viewBox="0 0 79 79" fill="none">
  <circle cx="39.4996" cy="39.9044" r="37.9779" fill="white" stroke="#EDE7DD" stroke-width="2.1099"/>
  <path d="M39.499 31.8117C39.499 30.35 41.0611 29.6191 41.5818 29.4364C42.0102 29.2537 42.8835 29.4364 43.6646 29.4364C44.4456 29.4364 46.0077 30.1673 46.0077 31.4463C46.0077 32.7253 44.706 34.0043 43.1439 34.0043C41.5818 34.0043 39.499 33.2734 39.499 31.8117Z" stroke="black" stroke-width="0.929811"/>
  <path d="M20.2878 34.2029C17.8667 30.3837 21.2966 25.6098 23.3142 23.7002C24.1968 23.191 27.6267 22.4781 34.2847 23.7002C38.0676 26.3736 35.4196 26.5646 34.2847 31.7204C33.1498 36.8763 33.1498 35.7306 30.5017 37.8311C27.8537 39.9317 23.3142 38.9769 20.2878 34.2029Z" stroke="black" stroke-width="1.05495"/>
  <path d="M21.3591 33.6938C19.3411 30.4748 22.2 26.4512 23.8817 24.8417C24.6174 24.4125 27.4762 23.8116 33.0258 24.8417C36.1789 27.095 33.9717 27.2559 33.0258 31.6015C32.0798 35.947 32.0798 34.9813 29.8726 36.7518C27.6654 38.5222 23.8817 37.7174 21.3591 33.6938Z" stroke="black" stroke-width="1.05495"/>
  <ellipse cx="28.9894" cy="30.7659" rx="1.13488" ry="1.14575" fill="black"/>
  <ellipse cx="28.2316" cy="33.8213" rx="1.13488" ry="1.14575" fill="black"/>
  <ellipse cx="24.4493" cy="33.4397" rx="1.13488" ry="1.14575" fill="black"/>
  <ellipse cx="24.0704" cy="30.3835" rx="1.13488" ry="1.14575" fill="black"/>
  <ellipse cx="26.7189" cy="27.7102" rx="1.13488" ry="1.14575" fill="black"/>
  <ellipse cx="31.257" cy="27.7102" rx="1.13488" ry="1.14575" fill="black"/>
  <path d="M45.6987 46.7931C43.0086 42.0753 46.8196 36.1781 49.0613 33.8192C50.0421 33.1901 50.903 33.8083 58.3008 35.318C62.5041 38.6205 62.5118 37.3575 61.2508 43.7265C59.9898 50.0956 59.9898 48.6802 57.0475 51.275C54.1052 53.8698 49.0613 52.6904 45.6987 46.7931Z" stroke="black" stroke-width="1.05495"/>
  <path d="M46.4935 46.4113C44.2069 42.1428 47.4462 36.8072 49.3517 34.673C50.1854 34.1039 50.614 34.4188 56.9021 35.7847C60.4749 38.7727 60.7846 37.8744 59.7128 43.6368C58.6409 49.3993 58.6409 48.1187 56.14 50.4664C53.639 52.814 49.3517 51.7469 46.4935 46.4113Z" stroke="black" stroke-width="1.05495"/>
  <ellipse cx="52.4396" cy="44.3936" rx="1.13488" ry="1.14575" fill="black"/>
  <ellipse cx="50.5734" cy="37.8635" rx="1.13488" ry="1.14575" fill="black"/>
  <ellipse cx="55.2374" cy="46.2598" rx="1.13488" ry="1.14575" fill="black"/>
  <ellipse cx="49.7677" cy="47.1309" rx="1.13488" ry="1.14575" fill="black"/>
  <ellipse cx="49.3898" cy="44.0759" rx="1.13488" ry="1.14575" fill="black"/>
  <ellipse cx="52.0372" cy="41.4028" rx="1.13488" ry="1.14575" fill="black"/>
  <ellipse cx="56.5763" cy="41.4028" rx="1.13488" ry="1.14575" fill="black"/>
  <path d="M28.9897 50.4542C28.5678 47.0783 31.6271 46.2344 33.2095 46.2344L35.8465 50.4542C36.0223 52.0366 36.2685 55.5179 35.8465 56.7838C35.319 58.3663 33.2095 59.9487 28.9897 50.4542Z" stroke="black" stroke-width="1.05495"/>
  <path d="M18.4062 45.6408C18.3438 44.428 18.7965 44.1248 19.0307 44.1248L19.4209 45.6408C19.4469 46.2093 19.4833 47.46 19.4209 47.9148C19.3428 48.4833 19.0307 49.0518 18.4062 45.6408Z" stroke="black" stroke-width="1.05495"/>
  <path d="M25.79 43.4483C25.7276 43.1451 26.1803 43.0693 26.4144 43.0693L26.8046 43.4483C26.8307 43.5905 26.8671 43.9031 26.8046 44.0168C26.7266 44.159 26.4144 44.3011 25.79 43.4483Z" stroke="black" stroke-width="1.05495"/>
</svg>