<svg xmlns="http://www.w3.org/2000/svg" width="80" height="80"
                                            viewBox="0 0 80 80" fill="none">
                                            <path
                                                d="M46.4014 43.8767C46.4014 41.1501 48.4464 39.7867 49.128 39.4459C49.6889 39.1051 50.8322 39.4459 51.8547 39.4459C52.8772 39.4459 54.9221 40.8092 54.9221 43.1951C54.9221 45.5809 53.218 47.9667 51.173 47.9667C49.128 47.9667 46.4014 46.6034 46.4014 43.8767Z"
                                                stroke="black" />
                                            <path
                                                d="M28.086 44.0286C31.2401 43.407 33.2918 45.5038 33.8442 46.2286C34.3686 46.8112 34.2397 48.235 34.4769 49.4389C34.7142 50.6427 33.6117 53.3612 30.8518 53.9052C28.0919 54.4491 24.9366 52.9867 24.4621 50.579C23.9875 48.1714 24.9319 44.6503 28.086 44.0286Z"
                                                stroke="black" />
                                            <path
                                                d="M35.1533 48.5593C35.1533 45.7731 37.7709 44.38 38.6434 44.0317C39.3613 43.6835 40.8247 44.0317 42.1335 44.0317C43.4423 44.0317 46.0599 45.4248 46.0599 47.8627C46.0599 50.3006 43.8786 52.7386 41.261 52.7386C38.6434 52.7386 35.1533 51.3455 35.1533 48.5593Z"
                                                stroke="black" />
                                            <path
                                                d="M43.3326 59.5552C40.8786 59.0099 41.174 56.1469 41.6284 54.7836C41.7296 54.4428 42.651 53.4203 43.3326 52.7386C44.0141 52.0569 46.0593 51.7161 48.1043 51.0344C50.1493 50.3528 51.8534 48.6486 55.6026 47.6262C59.3517 46.6037 60.7151 50.6936 61.0559 52.057C61.3967 53.4203 59.6926 56.1469 57.3067 56.8286C54.9209 57.5102 54.2393 58.8736 53.2168 59.5552C52.1943 60.2369 46.4001 60.2369 43.3326 59.5552Z"
                                                stroke="black" />
                                            <path
                                                d="M32.4027 35.9676C30.0424 36.8713 28.4738 34.0961 27.9846 32.5955C27.8521 32.2274 27.9619 30.7707 28.0904 29.7611C28.2189 28.7516 29.6828 27.2743 30.931 25.4868C32.1792 23.6993 32.5006 21.1753 34.9326 18.1051C37.3647 15.0349 40.4868 19.9948 41.6291 21.0416C42.7715 22.0884 43.6818 23.5294 42.1537 25.5114C40.6257 27.4933 40.3333 28.5571 39.9248 29.7611C39.5164 30.9652 35.353 34.8379 32.4027 35.9676Z"
                                                stroke="black" />
                                            <path
                                                d="M34.6878 44.2503C31.2601 44.996 30.6519 42.2439 30.7762 40.7746C30.791 40.4136 31.6502 39.018 32.3118 38.0535C32.9735 37.089 35.553 35.7446 38.0135 34.0904C40.4739 32.4362 42.1283 30.025 46.7184 27.1988C51.3085 24.3727 54.5328 27.4011 55.4577 28.4681C56.3826 29.535 55.0846 32.8758 52.1744 34.7024C49.2642 36.529 44.9235 36.7718 43.8121 37.9087C42.7007 39.0456 38.9725 43.3182 34.6878 44.2503Z"
                                                stroke="black" />
                                            <circle cx="39.9996" cy="39.9826" r="37.9779" stroke="#EDE7DD"
                                                stroke-width="2.1099" />
                                        </svg>