<svg xmlns="http://www.w3.org/2000/svg" width="79" height="79" viewBox="0 0 79 79" fill="none">
  <circle cx="39.4996" cy="39.9044" r="37.9779" fill="white" stroke="#EDE7DD" stroke-width="2.1099"/>
  <path d="M50.991 62.3119C52.6131 64.2679 54.693 61.9453 55.318 59.1162L54.6981 56.1416C53.4873 53.785 50.2477 47.8659 46.9754 43.0421C42.885 37.0124 31.7244 24.8993 31.5358 23.994C31.3471 23.0887 27.5158 23.4823 25.5057 21.6071C23.4956 19.732 23.0217 25.2285 24.5416 30.5793C26.0615 35.9302 26.789 36.1834 29.4135 40.3595C32.038 44.5356 35.0558 46.0658 37.0337 50.3767C39.0116 54.6875 49.3689 60.3559 50.991 62.3119Z" stroke="black" stroke-width="0.929811"/>
  <path d="M50.7862 60.8643C52.0713 62.4181 53.7165 60.5751 54.2097 58.3294L53.7175 55.9674C52.7579 54.0958 50.1904 49.3948 47.5976 45.5634C44.3567 40.7741 35.8142 31.0143 35.3662 30.4325C30.4747 24.081 27.524 24.4933 25.9319 23.0036C24.3398 21.5138 23.7453 30.234 27.8455 35.4244C30.5834 38.8902 31.615 40.1077 33.6947 43.4246C35.7743 46.7414 38.1639 47.9579 39.7317 51.3814C41.2996 54.8049 49.5012 59.3106 50.7862 60.8643Z" stroke="black" stroke-width="0.929811" stroke-dasharray="1.86 1.86"/>
  <path d="M50.5217 58.7659C47.7428 54.7119 41.5435 46.117 38.9784 44.1686C35.772 41.733 33.8267 41.4637 32.5063 38.3653C31.4499 35.8866 28.29 29.573 26.8421 26.7261" stroke="black" stroke-width="0.929811" stroke-dasharray="1.86 1.86"/>
  <path d="M27.24 24.7543C29.702 29.0081 35.8832 34.2107 38.2924 36.3488C41.304 39.0215 41.4236 42.3085 45.6 46.1612C47.5805 47.9881 50.3989 53.7507 51.6257 56.6997" stroke="black" stroke-width="0.929811" stroke-dasharray="1.86 1.86"/>
</svg>