<svg xmlns="http://www.w3.org/2000/svg" width="79" height="79" viewBox="0 0 79 79" fill="none">
  <circle cx="39.4996" cy="39.9044" r="37.9779" fill="white" stroke="#EDE7DD" stroke-width="2.1099"/>
  <path d="M26.8406 23.0707H33.6978L36.3138 23.0254V29.3551L38.9725 37.84L45.8297 47.862V54.7192H42.1374L36.3352 51.0269L33.6978 42.0598H26.8406L23.6758 37.84L26.8406 33.6202V23.0707Z" stroke="black"/>
  <path d="M20.5105 49.3993V39.9048L24.7303 45.1795H30.0051V49.3993H26.3128L24.7303 51.5092L20.5105 54.6741L17.3457 51.5092L20.5105 49.3993Z" stroke="black"/>
  <path d="M52.16 36.7401L54.7973 34.6302L56.3797 32.5203H61.6545V36.7401L58.4896 37.2675L59.0171 39.9049L52.16 42.0148L48.9951 38.8499L52.16 36.7401Z" stroke="black"/>
  <path d="M45.8289 27.2452L48.4663 25.1353L50.0487 23.0254L52.6861 25.1353L55.3234 27.2452L52.1586 27.7727L52.6861 30.41L47.4113 28.8276L42.6641 29.3551L45.8289 27.2452Z" stroke="black"/>
  <path d="M42.6641 33.5749L44.2465 30.9375L46.8839 31.465H49.5212L52.1586 33.5749L51.1036 35.6848L49.5212 36.7397L44.2465 35.1573L44.774 33.5749H42.6641Z" stroke="black"/>
</svg>