<svg width="35" height="35" viewBox="0 0 35 35" fill="none" xmlns="http://www.w3.org/2000/svg">
<path fill-rule="evenodd" clip-rule="evenodd" d="M6 0C2.68629 0 0 2.68629 0 6V28.71C0 32.0237 2.68629 34.71 6 34.71H28.71C32.0237 34.71 34.71 32.0237 34.71 28.71V6C34.71 2.68629 32.0237 0 28.71 0H6ZM30.1513 7.88608C30.1513 7.01846 29.4423 6.30859 28.5757 6.30859C27.709 6.30859 27 7.01846 27 7.88608C27 8.7537 27.709 9.46357 28.5757 9.46357C29.4423 9.46357 30.1513 8.7537 30.1513 7.88608ZM17.5 8C22.7423 8 27 12.2577 27 17.5C27 22.7423 22.7423 27 17.5 27C12.2577 27 8 22.7423 8 17.5C8 12.2577 12.2577 8 17.5 8ZM11 17.5C11 13.9178 13.9178 11 17.5 11C21.0822 11 24 13.9178 24 17.5C24 21.0822 21.0822 24 17.5 24C13.9178 24 11 21.0822 11 17.5Z" fill="white"/>
</svg>
