<svg xmlns="http://www.w3.org/2000/svg" width="40" height="40" viewBox="0 0 40 40" fill="none">
  <g clip-path="url(#clip0_27485_5117)">
    <path d="M14.8187 15.5593C14.3293 15.2278 13.7681 15.0176 13.1814 14.9459C12.5946 14.8743 11.9993 14.9433 11.4445 15.1472C10.8897 15.3512 10.3914 15.6843 9.9908 16.1189C9.59019 16.5535 9.29877 17.0773 9.14062 17.6468C9.02352 18.073 8.9925 18.5183 9.04938 18.9567C9.10625 19.3951 9.24988 19.8177 9.47187 20.1999C9.73375 20.6509 10.099 21.0333 10.5375 21.3156C10.6767 21.4036 10.8451 21.4331 11.0059 21.3976C11.1668 21.3622 11.3071 21.2647 11.3965 21.1264C11.4859 20.988 11.517 20.8199 11.4831 20.6587C11.4492 20.4976 11.3531 20.3563 11.2156 20.2656C10.9418 20.0904 10.7136 19.8526 10.55 19.5718C10.4116 19.332 10.3223 19.067 10.2874 18.7922C10.2525 18.5175 10.2727 18.2386 10.3469 17.9718C10.4523 17.5963 10.6451 17.2511 10.9093 16.9643C11.1735 16.6774 11.5018 16.4571 11.8674 16.3212C12.233 16.1853 12.6255 16.1378 13.0129 16.1824C13.4004 16.227 13.7718 16.3626 14.0969 16.5781C14.2003 16.6523 14.2965 16.736 14.3844 16.8281C14.4412 16.8874 14.5092 16.9349 14.5844 16.9679C14.6596 17.001 14.7406 17.0189 14.8227 17.0206C14.9048 17.0223 14.9865 17.0079 15.063 16.9781C15.1395 16.9482 15.2094 16.9036 15.2687 16.8468C15.328 16.79 15.3756 16.722 15.4086 16.6468C15.4416 16.5716 15.4595 16.4906 15.4613 16.4085C15.463 16.3264 15.4486 16.2447 15.4188 16.1682C15.3889 16.0916 15.3443 16.0217 15.2875 15.9624C15.144 15.8139 14.9871 15.6789 14.8187 15.5593Z" fill="black"/>
    <path d="M39.9037 33.8178C39.0443 32.4709 31.4818 20.6241 30.4318 19.5959L30.2131 19.3803C29.2225 18.4053 28.1037 17.2991 26.5881 17.2991H26.5631C25.4912 17.2991 23.3006 17.4584 22.3412 17.5303L15.8225 0.402195C15.7636 0.247951 15.6461 0.123258 15.4957 0.0553399C15.3452 -0.0125778 15.174 -0.018202 15.0194 0.0396952L2.90372 4.58657C2.8267 4.61539 2.75612 4.65913 2.69603 4.71529C2.63594 4.77144 2.58752 4.8389 2.55356 4.9138C2.51959 4.9887 2.50074 5.06957 2.49809 5.15177C2.49544 5.23397 2.50903 5.31589 2.5381 5.39282L3.92872 8.03571C3.98757 8.1907 4.3488 7.93104 4.5 7.99902C4.34501 8.05787 4.6512 8.06701 4.5 7.99902C4.43202 8.15022 4.65499 7.94018 4.5 7.99902C4.56798 7.84782 5.05885 7.57564 5 7.42065L3.92872 5.53657L14.8662 1.4272L22.3662 21.1522H22.3412C22.3305 21.0683 22.3028 20.9876 22.26 20.9147L12.3756 3.90219C12.2926 3.75977 12.1568 3.65589 11.9976 3.61316C11.8384 3.57043 11.6687 3.59233 11.5256 3.67407L0.313099 10.1116C0.241743 10.1527 0.17921 10.2074 0.129094 10.2728C0.0789773 10.3381 0.0422651 10.4127 0.0210666 10.4923C-0.00013187 10.5718 -0.00539873 10.6548 0.00556866 10.7364C0.016536 10.818 0.0435215 10.8967 0.0849745 10.9678L12.8506 32.8772C12.8692 32.9059 12.8901 32.9331 12.9131 32.9584C12.9258 32.9758 12.9394 32.9925 12.9537 33.0084C12.9763 33.0289 13.0003 33.0477 13.0256 33.0647C13.0652 33.1014 13.1137 33.1273 13.1662 33.1397C13.236 33.1743 13.3135 33.1904 13.3912 33.1866C13.4451 33.1862 13.4986 33.1788 13.5506 33.1647L13.5975 33.1459C13.6331 33.1345 13.6676 33.1198 13.7006 33.1022L16.3944 31.5397C16.3027 31.975 16.347 32.4279 16.5215 32.8371C16.6959 33.2462 16.9919 33.5919 17.3694 33.8272C17.8319 34.1397 21.6318 36.1491 22.7225 36.1491C23.4006 36.1491 24.7318 35.5741 25.5068 35.2116C26.168 36.4388 27.0926 37.5045 28.2142 38.3322C29.3358 39.1599 30.6267 39.7291 31.9943 39.9991H32.085C32.167 40.005 32.2495 39.9948 32.3276 39.9688C32.4057 39.9429 32.4779 39.9019 32.5402 39.8481C32.6024 39.7942 32.6535 39.7287 32.6904 39.6551C32.7273 39.5816 32.7493 39.5015 32.7553 39.4194C32.7612 39.3373 32.751 39.2549 32.7251 39.1768C32.6991 39.0987 32.6581 39.0264 32.6043 38.9642C32.5504 38.9019 32.4849 38.8509 32.4113 38.814C32.3378 38.7771 32.2577 38.755 32.1756 38.7491C30.9845 38.5096 29.8617 38.0079 28.8887 37.2803C27.9158 36.5527 27.1171 35.6176 26.5506 34.5428C26.3066 34.0495 26.0917 33.5424 25.9068 33.0241C25.4631 31.8647 25.0068 30.6678 24.2193 29.9834C23.8037 29.6209 22.2756 28.4209 20.51 27.0209L17.985 25.0209C17.1162 24.3334 14.4756 22.2366 13.9662 21.7366C13.7838 21.5805 13.6346 21.3895 13.5272 21.1748C13.4199 20.9601 13.3566 20.7261 13.3412 20.4866C13.3807 20.0049 13.6046 19.5571 13.9662 19.2366C14.4943 18.7022 15.3162 18.7334 16.4037 19.3241L26.8756 24.9991C26.9659 25.0478 27.0668 25.0736 27.1693 25.0741C27.3098 25.0777 27.4474 25.0338 27.5599 24.9496C27.6724 24.8654 27.7533 24.7457 27.7894 24.6099C27.8255 24.4741 27.8148 24.3301 27.759 24.2011C27.7032 24.0721 27.6056 23.9657 27.4818 23.8991L24.0631 22.0553C24.0565 22.0213 24.0471 21.9878 24.035 21.9553L22.8131 18.7491C23.8725 18.6741 25.6756 18.5553 26.5787 18.5491C27.5787 18.5491 28.4287 19.3866 29.3256 20.2709L29.5475 20.4897C30.2662 21.1928 35.485 29.2397 38.8381 34.4897C38.8807 34.5621 38.9374 34.6251 39.0049 34.675C39.0724 34.725 39.1493 34.7608 39.2309 34.7804C39.3126 34.8 39.3973 34.8029 39.4801 34.7891C39.5629 34.7752 39.6421 34.7447 39.7129 34.6996C39.7837 34.6544 39.8446 34.5954 39.8921 34.5262C39.9396 34.457 39.9727 34.3789 39.9893 34.2966C40.006 34.2143 40.0059 34.1295 39.989 34.0472C39.9721 33.965 39.9389 33.8869 39.8912 33.8178H39.9037ZM24.3912 32.5678C24.5162 32.8803 24.6381 33.1928 24.7537 33.4803C24.835 33.6928 24.9131 33.8959 24.9944 34.1053C24.0725 34.5334 23.06 34.9272 22.7225 34.9303C22.1225 34.9147 18.8162 33.3084 18.0537 32.8116C17.8454 32.6886 17.6926 32.4899 17.6274 32.2569C17.5622 32.024 17.5895 31.7748 17.7037 31.5616C17.7594 31.416 17.8465 31.2845 17.9589 31.1765C18.0713 31.0684 18.2061 30.9865 18.3537 30.9366C18.7725 31.2491 19.26 31.5616 19.71 31.8366C20.0756 32.0647 20.4193 32.2803 20.61 32.4272C20.9475 32.6928 21.5693 32.7772 22.2225 32.7772C22.9504 32.7701 23.6762 32.6979 24.3912 32.5616V32.5678ZM23.81 31.4147C23.0631 31.5334 21.6819 31.6303 21.3787 31.4584C21.135 31.2678 20.7818 31.0491 20.3725 30.7897C19.9631 30.5303 19.5194 30.2553 19.1475 29.9803L20.9381 28.9491C22.1568 29.9116 23.1256 30.6709 23.4131 30.9366C23.5672 31.0762 23.7018 31.236 23.8131 31.4116L23.81 31.4147ZM13.0756 18.3678C12.7761 18.6422 12.5347 18.9738 12.3656 19.3431C12.1965 19.7124 12.1032 20.1118 12.0912 20.5178C12.1083 20.9213 12.2072 21.3172 12.3818 21.6813C12.5563 22.0455 12.803 22.3705 13.1068 22.6366C13.4912 23.0116 14.76 24.0522 17.2225 26.0053L19.7506 28.0053L19.8881 28.1116L13.6162 31.7147L1.48185 10.8834L11.61 5.06782L20.3318 20.0397L16.9975 18.2334C14.96 17.1303 13.7506 17.6959 13.0756 18.3678Z" fill="black"/>
  </g>
  <defs>
    <clipPath id="clip0_27485_5117">
      <rect width="40" height="40" fill="white"/>
    </clipPath>
  </defs>
</svg>