<svg width="36" height="36" viewBox="0 0 36 36" fill="none" xmlns="http://www.w3.org/2000/svg">
<path fill-rule="evenodd" clip-rule="evenodd" d="M24.7207 28.2382C24.7207 27.1672 24.7891 26.0943 24.9106 25.0305C25.4083 20.6699 26.7701 16.3309 28.4783 12.3015C28.6484 11.9001 29.1155 11.7102 29.5169 11.8803C29.9174 12.0504 30.1073 12.5175 29.9381 12.9189C28.2974 16.807 26.9654 21.0047 26.4847 25.2105C26.3704 26.2141 26.3029 27.2275 26.3047 28.2373C26.3056 28.6756 25.951 29.0311 25.5127 29.0311C25.0762 29.0302 24.7207 28.6756 24.7207 28.2382ZM9.6957 28.2382C9.6957 27.2275 9.62999 26.215 9.51569 25.2105C9.03508 21.0029 7.71114 16.807 6.0623 12.9198C5.89219 12.5184 6.083 12.0504 6.48351 11.8812C6.88492 11.7111 7.35293 11.9019 7.52214 12.3033C9.22228 16.3318 10.5921 20.6744 11.0898 25.0323C11.2113 26.0961 11.2779 27.169 11.2797 28.24C11.2806 28.6774 10.9251 29.032 10.4877 29.032C10.0503 29.0302 9.6957 28.6756 9.6957 28.2382Z" fill="black"/>
<path fill-rule="evenodd" clip-rule="evenodd" d="M6.41061 6.51709C6.76882 7.18041 7.34663 8.29014 8.00905 9.71938H27.9914C28.6538 8.29014 29.2316 7.17951 29.5898 6.51709H6.41061Z" fill="black"/>
<path fill-rule="evenodd" clip-rule="evenodd" d="M8.42756 10.6409C8.74437 11.3528 9.07288 12.1268 9.39959 12.9494C9.57689 13.3958 9.7587 13.8693 9.9414 14.3634H26.059C26.2417 13.8684 26.4235 13.3958 26.6008 12.9494C26.9285 12.1259 27.257 11.3528 27.5729 10.6409H8.42756Z" fill="black"/>
<path fill-rule="evenodd" clip-rule="evenodd" d="M25.7287 15.2859H10.2726C10.6758 16.4388 11.0718 17.6917 11.4256 19.0093H24.5749C24.9295 17.6908 25.3255 16.4379 25.7287 15.2859Z" fill="black"/>
<path fill-rule="evenodd" clip-rule="evenodd" d="M11.6641 19.9302C11.962 21.1335 12.2194 22.3836 12.412 23.6536H23.5894C23.782 22.3836 24.0394 21.1344 24.3373 19.9302H11.6641Z" fill="black"/>
<path fill-rule="evenodd" clip-rule="evenodd" d="M23.4625 24.5742H12.5389C12.6712 25.6362 12.754 26.7091 12.7729 27.7765H15.2084H15.2102H15.212H20.7885H20.7903H20.7921H23.2267C23.2474 26.7091 23.3302 25.6371 23.4625 24.5742Z" fill="black"/>
<g clip-path="url(#clip0_29994_902)">
<path d="M30.75 30.2671L29.5 31.5171M29.5 31.5171L28.25 30.2671M29.5 31.5171V25.5171" stroke="black" stroke-width="1.5" stroke-linecap="round" stroke-linejoin="round"/>
</g>
<defs>
<clipPath id="clip0_29994_902">
<rect width="8" height="8" fill="white" transform="translate(25.5 24.5171)"/>
</clipPath>
</defs>
</svg>
