<svg xmlns="http://www.w3.org/2000/svg" width="28" height="29" viewBox="0 0 28 29" fill="none">
  <path d="M7.68359 21.0811H8.43359V20.3311H7.68359V21.0811ZM7.68359 25.8702H6.93359V28.0965L8.28072 26.324L7.68359 25.8702ZM11.3233 21.0811V20.3311H10.9513L10.7262 20.6273L11.3233 21.0811ZM4.75 7.44956C4.75 6.43945 5.56885 5.62061 6.57895 5.62061V4.12061C4.74042 4.12061 3.25 5.61103 3.25 7.44956H4.75ZM4.75 18.5022V7.44956H3.25V18.5022H4.75ZM6.57895 20.3311C5.56885 20.3311 4.75 19.5123 4.75 18.5022H3.25C3.25 20.3407 4.74042 21.8311 6.57895 21.8311V20.3311ZM7.68359 20.3311H6.57895V21.8311H7.68359V20.3311ZM8.43359 25.8702V21.0811H6.93359V25.8702H8.43359ZM10.7262 20.6273L7.08647 25.4164L8.28072 26.324L11.9204 21.5349L10.7262 20.6273ZM22.4211 20.3311H11.3233V21.8311H22.4211V20.3311ZM24.25 18.5022C24.25 19.5123 23.4312 20.3311 22.4211 20.3311V21.8311C24.2596 21.8311 25.75 20.3407 25.75 18.5022H24.25ZM24.25 7.44955V18.5022H25.75V7.44955H24.25ZM22.4211 5.62061C23.4312 5.62061 24.25 6.43945 24.25 7.44955H25.75C25.75 5.61103 24.2596 4.12061 22.4211 4.12061V5.62061ZM6.57895 5.62061H22.4211V4.12061H6.57895V5.62061Z" fill="black"/>
</svg>