<svg xmlns="http://www.w3.org/2000/svg" width="50" height="50" viewBox="0 0 50 50" fill="none">
  <g clip-path="url(#clip0_13671_1454)">
    <path d="M16.171 16.1086C16.6688 16.1086 17.0724 15.705 17.0724 15.2071C17.0724 14.7093 16.6688 14.3057 16.171 14.3057C15.6731 14.3057 15.2695 14.7093 15.2695 15.2071C15.2695 15.705 15.6731 16.1086 16.171 16.1086Z" fill="black"/>
    <path d="M15.5499 15.1114C15.7419 15.1114 15.8976 14.9557 15.8976 14.7637C15.8976 14.5717 15.7419 14.416 15.5499 14.416C15.3578 14.416 15.2021 14.5717 15.2021 14.7637C15.2021 14.9557 15.3578 15.1114 15.5499 15.1114Z" fill="white"/>
    <path fill-rule="evenodd" clip-rule="evenodd" d="M19.7708 16.336C20.7881 16.1879 18.2963 14.6941 18.1804 14.6104C17.6266 14.2176 16.899 13.9729 16.1199 13.9343C14.3556 13.8442 13.6087 14.5718 12.3467 15.5634C12.3467 15.5634 12.8167 15.499 13.3254 16.0592C13.8341 16.6194 15.7915 17.289 17.4914 16.8769C19.1913 16.4648 19.7837 16.3425 19.7837 16.3425L19.7708 16.336Z" stroke="black" stroke-width="0.899083" stroke-miterlimit="2.61313" stroke-linecap="round" stroke-linejoin="round"/>
    <mask id="mask0_13671_1454" style="mask-type:alpha" maskUnits="userSpaceOnUse" x="14" y="13" width="5" height="5">
      <path d="M16.1716 16.8428C17.0749 16.8428 17.8071 16.1105 17.8071 15.2073C17.8071 14.304 17.0749 13.5718 16.1716 13.5718C15.2684 13.5718 14.5361 14.304 14.5361 15.2073C14.5361 16.1105 15.2684 16.8428 16.1716 16.8428Z" stroke="black" stroke-width="0.899083" stroke-miterlimit="2.61313" stroke-linecap="round" stroke-linejoin="round"/>
    </mask>
    <g mask="url(#mask0_13671_1454)">
      <path fill-rule="evenodd" clip-rule="evenodd" d="M19.7698 16.3355C20.7872 16.1875 18.2953 14.6936 18.1794 14.6099C17.6256 14.2171 16.898 13.9725 16.1189 13.9338C14.3547 13.8437 13.6077 14.5713 12.3457 15.5629C12.3457 15.5629 12.8157 15.4985 13.3244 16.0587C13.8331 16.6189 15.7905 17.2885 17.4904 16.8764C19.1903 16.4643 19.7827 16.342 19.7827 16.342L19.7698 16.3355Z" fill="black" stroke="black" stroke-width="0.899083" stroke-miterlimit="2.61313" stroke-linecap="round" stroke-linejoin="round"/>
    </g>
    <path d="M19.5331 15.6904C19.5331 15.6904 19.2175 16.0188 19.3463 16.3987" stroke="black" stroke-width="0.899083" stroke-miterlimit="2.61313" stroke-linecap="round" stroke-linejoin="round"/>
    <path d="M19.9094 15.2279C19.9094 15.2279 18.7568 13.2189 16.0525 13.1932C13.3481 13.1674 12.0088 14.8158 12.0088 14.8158" stroke="black" stroke-width="0.899083" stroke-miterlimit="2.61313" stroke-linecap="round" stroke-linejoin="round"/>
    <path fill-rule="evenodd" clip-rule="evenodd" d="M20.2536 12.3616C20.2536 12.3616 20.7365 11.737 19.3457 11.0094C19.3457 11.0094 14.2847 9.50916 13.1064 9.65726C11.9281 9.80535 10.0801 11.2799 10.0801 11.2799C10.0801 11.2799 12.1405 10.4879 14.4972 11.1125C16.8539 11.737 20.0154 12.6127 20.2536 12.3616V12.3616Z" stroke="black" stroke-width="0.899083" stroke-miterlimit="2.61313" stroke-linecap="round" stroke-linejoin="round"/>
    <path d="M24.2939 26.9157C24.2939 26.9157 23.6307 26.935 23.3667 26.6324C23.0963 26.3297 22.4202 26.0593 21.8857 26.0979" stroke="black" stroke-width="0.899083" stroke-miterlimit="2.61313" stroke-linecap="round" stroke-linejoin="round"/>
    <path d="M21.1175 24.5957C21.1175 24.5957 20.2225 26.4694 22.0833 26.7785" stroke="black" stroke-width="0.899083" stroke-miterlimit="2.61313" stroke-linecap="round" stroke-linejoin="round"/>
    <path d="M21.4668 14.5122C21.4668 14.5122 23.0765 15.9417 22.7546 19.8759" stroke="black" stroke-width="0.899083" stroke-miterlimit="2.61313" stroke-linecap="round" stroke-linejoin="round"/>
    <path fill-rule="evenodd" clip-rule="evenodd" d="M24.3915 30.5062C24.3915 30.5062 23.078 29.8623 22.1508 30.3967C21.2236 30.9311 18.5771 32.2576 18.5771 32.2576C18.5771 32.2576 19.7555 35.8698 24.3915 35.8698C29.0276 35.8698 30.2059 32.2576 30.2059 32.2576C30.2059 32.2576 27.5595 30.9376 26.6323 30.3967C25.7051 29.8623 24.3915 30.5062 24.3915 30.5062V30.5062Z" stroke="black" stroke-width="0.899083" stroke-miterlimit="2.61313" stroke-linecap="round" stroke-linejoin="round"/>
    <path d="M24.3863 32.7028C24.3863 32.7028 24.0579 32.6835 23.6458 32.5161C23.2337 32.3487 21.1797 32.2649 20.1816 32.4968C19.1836 32.7286 18.8745 32.1748 17.8057 32.1748" stroke="black" stroke-width="0.899083" stroke-miterlimit="2.61313" stroke-linecap="round" stroke-linejoin="round"/>
    <path d="M5.76855 14.6152C5.76855 14.6152 7.90629 23.604 9.04598 28.2851C10.1921 32.9662 10.4754 33.7518 12.9737 36.1085C15.4785 38.4651 20.2755 42.9016 24.3836 42.9016" stroke="black" stroke-width="0.899083" stroke-miterlimit="2.61313" stroke-linecap="round" stroke-linejoin="round"/>
    <path d="M4.22255 13.3789C4.22255 13.3789 2.84462 13.3982 3.30822 15.4007C3.77183 17.4033 5.45239 20.2943 5.66488 22.4385C5.87736 24.5827 6.72087 25.2137 8.26621 25.0785" stroke="black" stroke-width="0.899083" stroke-miterlimit="2.61313" stroke-linecap="round" stroke-linejoin="round"/>
    <path d="M4.57324 16.36C4.57324 16.36 4.79861 15.3941 5.25577 15.7161C5.71294 16.038 6.6659 18.575 6.6659 18.575C6.6659 18.575 6.0542 19.8628 6.39546 20.2556C6.73673 20.6483 7.3935 21.4468 7.3935 21.4468" stroke="black" stroke-width="0.899083" stroke-miterlimit="2.61313" stroke-linecap="round" stroke-linejoin="round"/>
    <path d="M32.6114 16.1086C33.1093 16.1086 33.5129 15.705 33.5129 15.2071C33.5129 14.7093 33.1093 14.3057 32.6114 14.3057C32.1136 14.3057 31.71 14.7093 31.71 15.2071C31.71 15.705 32.1136 16.1086 32.6114 16.1086Z" fill="black"/>
    <path d="M31.9854 15.1119C32.1774 15.1119 32.3331 14.9562 32.3331 14.7642C32.3331 14.5722 32.1774 14.4165 31.9854 14.4165C31.7934 14.4165 31.6377 14.5722 31.6377 14.7642C31.6377 14.9562 31.7934 15.1119 31.9854 15.1119Z" fill="white"/>
    <path fill-rule="evenodd" clip-rule="evenodd" d="M29.0013 16.336C27.984 16.1879 30.4759 14.6941 30.5918 14.6104C31.1455 14.2176 31.8731 13.9729 32.6522 13.9343C34.4165 13.8442 35.1634 14.5718 36.4255 15.5634C36.4255 15.5634 35.9554 15.499 35.4467 16.0592C34.9381 16.6194 32.9806 17.289 31.2807 16.8769C29.5808 16.4648 28.9885 16.3425 28.9885 16.3425L29.0013 16.336Z" stroke="black" stroke-width="0.899083" stroke-miterlimit="2.61313" stroke-linecap="round" stroke-linejoin="round"/>
    <mask id="mask1_13671_1454" style="mask-type:alpha" maskUnits="userSpaceOnUse" x="30" y="13" width="5" height="5">
      <path d="M32.6023 16.8428C33.5056 16.8428 34.2378 16.1105 34.2378 15.2073C34.2378 14.304 33.5056 13.5718 32.6023 13.5718C31.699 13.5718 30.9668 14.304 30.9668 15.2073C30.9668 16.1105 31.699 16.8428 32.6023 16.8428Z" stroke="black" stroke-width="0.899083" stroke-miterlimit="2.61313" stroke-linecap="round" stroke-linejoin="round"/>
    </mask>
    <g mask="url(#mask1_13671_1454)">
      <path fill-rule="evenodd" clip-rule="evenodd" d="M28.9965 16.3355C27.9791 16.1875 30.471 14.6936 30.5869 14.6099C31.1406 14.2171 31.8682 13.9725 32.6473 13.9338C34.4116 13.8437 35.1585 14.5713 36.4206 15.5629C36.4206 15.5629 35.9505 15.4985 35.4418 16.0587C34.9332 16.6189 32.9757 17.2885 31.2758 16.8764C29.576 16.4643 28.9836 16.342 28.9836 16.342L28.9965 16.3355Z" fill="black" stroke="black" stroke-width="0.899083" stroke-miterlimit="2.61313" stroke-linecap="round" stroke-linejoin="round"/>
    </g>
    <path d="M29.2354 15.6904C29.2354 15.6904 29.5509 16.0188 29.4221 16.3987" stroke="black" stroke-width="0.899083" stroke-miterlimit="2.61313" stroke-linecap="round" stroke-linejoin="round"/>
    <path d="M28.8496 15.2279C28.8496 15.2279 30.0022 13.2189 32.7065 13.1932C35.4109 13.1674 36.7502 14.8158 36.7502 14.8158" stroke="black" stroke-width="0.899083" stroke-miterlimit="2.61313" stroke-linecap="round" stroke-linejoin="round"/>
    <path fill-rule="evenodd" clip-rule="evenodd" d="M28.5157 12.3616C28.5157 12.3616 28.0328 11.737 29.4236 11.0094C29.4236 11.0094 34.4846 9.50916 35.6629 9.65726C36.8412 9.80535 38.6892 11.2799 38.6892 11.2799C38.6892 11.2799 36.6288 10.4879 34.2721 11.1125C31.9154 11.737 28.7539 12.6127 28.5157 12.3616V12.3616Z" stroke="black" stroke-width="0.899083" stroke-miterlimit="2.61313" stroke-linecap="round" stroke-linejoin="round"/>
    <path d="M24.4805 26.9157C24.4805 26.9157 25.1437 26.935 25.4077 26.6324C25.6781 26.3297 26.3542 26.0593 26.8886 26.0979" stroke="black" stroke-width="0.899083" stroke-miterlimit="2.61313" stroke-linecap="round" stroke-linejoin="round"/>
    <path d="M27.6592 24.5957C27.6592 24.5957 28.5542 26.4694 26.6934 26.7785" stroke="black" stroke-width="0.899083" stroke-miterlimit="2.61313" stroke-linecap="round" stroke-linejoin="round"/>
    <path d="M27.3011 14.5122C27.3011 14.5122 25.6913 15.9417 26.0133 19.8759" stroke="black" stroke-width="0.899083" stroke-miterlimit="2.61313" stroke-linecap="round" stroke-linejoin="round"/>
    <path d="M24.3838 32.7028C24.3838 32.7028 24.7122 32.6835 25.1243 32.5161C25.5364 32.3487 27.5904 32.2649 28.5884 32.4968C29.5865 32.7286 29.8955 32.1748 30.9644 32.1748" stroke="black" stroke-width="0.899083" stroke-miterlimit="2.61313" stroke-linecap="round" stroke-linejoin="round"/>
    <path d="M43.0027 14.6152C43.0027 14.6152 40.865 23.604 39.7253 28.2851C38.5791 32.9662 38.2958 33.7518 35.7975 36.1085C33.2928 38.4651 28.4957 42.9016 24.3877 42.9016" stroke="black" stroke-width="0.899083" stroke-miterlimit="2.61313" stroke-linecap="round" stroke-linejoin="round"/>
    <path d="M44.5495 13.3789C44.5495 13.3789 45.9275 13.3982 45.4639 15.4007C45.0002 17.4033 43.3197 20.2943 43.1072 22.4385C42.8947 24.5827 42.0512 25.2137 40.5059 25.0785" stroke="black" stroke-width="0.899083" stroke-miterlimit="2.61313" stroke-linecap="round" stroke-linejoin="round"/>
    <path d="M44.1894 16.36C44.1894 16.36 43.964 15.3941 43.5069 15.7161C43.0497 16.038 42.0967 18.575 42.0967 18.575C42.0967 18.575 42.7084 19.8628 42.3672 20.2556C42.0259 20.6483 41.3691 21.4468 41.3691 21.4468" stroke="black" stroke-width="0.899083" stroke-miterlimit="2.61313" stroke-linecap="round" stroke-linejoin="round"/>
    <path fill-rule="evenodd" clip-rule="evenodd" d="M49.1357 36.298C48.3447 38.0162 46.6303 40.5716 46.1237 40.4253L38.6539 35.9333C38.6539 35.9333 38.2433 35.7187 38.4363 35.0432L38.6842 34.5396L39.7402 32.7836L40.7961 31.0277L41.1247 30.5726C41.6323 30.0831 42.0129 30.3475 42.0129 30.3475L49.6541 34.9425" stroke="black" stroke-width="0.899083" stroke-miterlimit="2.61313"/>
    <path d="M43.5386 33.6512L43.3369 33.5299L43.4425 33.3543L43.4416 33.3505C43.4155 33.3671 43.387 33.3823 43.3561 33.396C43.3252 33.4098 43.2934 33.4197 43.2606 33.4259C43.2278 33.432 43.1917 33.4329 43.1561 33.4277C43.1205 33.4224 43.0854 33.411 43.0498 33.3896C42.9786 33.3467 42.9397 33.2878 42.9317 33.2152C42.9237 33.1425 42.9471 33.0661 42.997 32.983L43.3281 32.4325L43.5393 32.5595L43.2153 33.0982C43.1868 33.1456 43.1758 33.1907 43.1815 33.2297C43.1872 33.2686 43.2118 33.3028 43.2521 33.3271C43.2877 33.3485 43.3219 33.3561 43.3571 33.3514C43.3922 33.3467 43.424 33.3367 43.4554 33.3168L43.8121 32.7236L44.0233 32.8506L43.5424 33.6503L43.5386 33.6512ZM45.4623 33.703L45.429 33.683L45.4362 33.6712L45.5192 33.7211L45.5121 33.733L45.4789 33.713L45.4261 33.8008L45.4118 33.7922L45.4646 33.7044L45.4623 33.703ZM45.5661 33.885L45.6103 33.8114L45.5391 33.8493L45.5319 33.8451L45.532 33.7643L45.4892 33.8355L45.475 33.827L45.5349 33.7273L45.5468 33.7344L45.5467 33.8313L45.6298 33.7844L45.6417 33.7915L45.5817 33.8912L45.5675 33.8826L45.5661 33.885ZM44.5767 33.1769C44.542 33.1755 44.5059 33.1764 44.4732 33.1825C44.438 33.1872 44.4038 33.1957 44.3706 33.2081C44.3387 33.218 44.3107 33.227 44.2865 33.235L44.385 33.0713L44.1738 32.9443L43.8984 33.4023L43.6929 33.744L43.9064 33.8724L44.2675 33.2721C44.2955 33.2631 44.3183 33.2574 44.342 33.2555C44.3644 33.256 44.3829 33.2574 44.3971 33.266C44.4066 33.2717 44.417 33.2812 44.4298 33.2922C44.4412 33.3055 44.4526 33.3188 44.4664 33.3335C44.4763 33.3492 44.4863 33.3649 44.4962 33.3806C44.5048 33.3986 44.5109 33.4152 44.5123 33.429L44.5289 33.439L44.6716 33.2017C44.6408 33.1832 44.6166 33.1751 44.5819 33.1736L44.5767 33.1769ZM42.641 33.3279C42.5556 33.2765 42.4706 33.2351 42.3909 33.2066C42.3087 33.1766 42.2342 33.1608 42.1634 33.1603C42.0927 33.1597 42.0272 33.172 41.9678 33.2009C41.9084 33.2298 41.8613 33.2758 41.8214 33.3423L41.7858 33.3209C41.7915 33.3114 41.7943 33.3066 41.7943 33.3066C41.8438 33.2297 41.9061 33.1638 41.9774 33.1097C42.0562 33.0538 42.1427 33.0121 42.2339 32.9894C42.3265 32.9643 42.4201 32.9592 42.5174 32.9692C42.6148 32.9793 42.7078 33.0126 42.798 33.0669L42.6396 33.3303L42.641 33.3279ZM42.1064 32.777C42.1728 32.8169 42.236 32.8355 42.302 32.8332C42.368 32.8309 42.4302 32.8134 42.4939 32.7774C42.5561 32.7437 42.616 32.6925 42.6745 32.6275C42.7329 32.5625 42.7871 32.4885 42.8399 32.4007C42.8913 32.3153 42.9327 32.2303 42.9627 32.1482C42.9927 32.0661 43.0085 31.9915 43.0104 31.9184C43.011 31.8476 42.9987 31.7821 42.9698 31.7227C42.9409 31.6633 42.8949 31.6163 42.8284 31.5763C42.762 31.5363 42.6988 31.5178 42.6328 31.5201C42.5668 31.5224 42.5032 31.5423 42.4409 31.5759C42.3773 31.6119 42.3188 31.6608 42.2603 31.7258C42.2019 31.7908 42.1476 31.8648 42.0963 31.9502C42.0449 32.0357 42.0049 32.1183 41.9749 32.2004C41.9449 32.2825 41.9292 32.357 41.9272 32.4302C41.9267 32.5009 41.939 32.5665 41.9679 32.6258C41.9968 32.6852 42.0428 32.7323 42.1092 32.7722L42.1064 32.777ZM42.0389 32.7817C41.9753 32.737 41.9189 32.6804 41.8753 32.6186C41.8193 32.5397 41.7776 32.4533 41.7549 32.3621C41.7322 32.2709 41.7247 32.1759 41.7348 32.0786C41.7448 31.9812 41.7782 31.8882 41.8324 31.798C41.8852 31.7102 41.9518 31.6372 42.0344 31.5803C42.1157 31.5257 42.2022 31.484 42.2957 31.4628C42.3869 31.44 42.4829 31.4363 42.5788 31.4488C42.6747 31.4612 42.7653 31.4931 42.8484 31.5431C42.9314 31.593 43.0021 31.6582 43.0581 31.737C43.114 31.8159 43.1557 31.9024 43.1784 31.9936C43.2035 32.0862 43.2072 32.1821 43.1972 32.2795C43.1871 32.3768 43.1538 32.4698 43.0995 32.56C43.0467 32.6478 42.9802 32.7209 42.8975 32.7778C42.8162 32.8323 42.7298 32.874 42.6376 32.8929C42.5441 32.9142 42.4505 32.9193 42.3546 32.9069C42.2649 32.8949 42.1804 32.8635 42.1006 32.8188C42.1006 32.8188 42.0603 32.7945 42.038 32.7779L42.0389 32.7817ZM44.7111 33.6519C44.7363 33.6154 44.7624 33.5826 44.7919 33.5551C44.819 33.5262 44.848 33.5048 44.8779 33.4873C44.9079 33.4698 44.9359 33.4608 44.9658 33.4594C44.9957 33.458 45.0237 33.4651 45.0498 33.4808C45.0925 33.5065 45.1144 33.5455 45.1167 33.5953C45.119 33.6452 45.0771 33.7363 45.0286 33.817L44.9972 33.8692L44.625 33.8328C44.6373 33.7853 44.6583 33.7397 44.6911 33.6851L44.7111 33.6519ZM45.0453 34.2406C45.0082 34.2539 44.9631 34.259 44.9161 34.2566C44.8667 34.2528 44.8159 34.2352 44.7637 34.2038C44.7234 34.1795 44.6897 34.1496 44.6612 34.1163C44.6328 34.083 44.6171 34.0445 44.6082 34.0004C44.6001 33.96 44.6035 33.9168 44.6135 33.8679L45.2303 33.9383C45.2303 33.9383 45.2764 33.8562 45.2628 33.7123C45.2581 33.661 45.2306 33.6154 45.2031 33.5698C45.1733 33.5227 45.1315 33.4847 45.0793 33.4533C45.0295 33.4233 44.9739 33.4029 44.9136 33.3957C44.8533 33.3885 44.7935 33.3913 44.7336 33.4102C44.6752 33.4268 44.6158 33.4557 44.5631 33.4951C44.5089 33.5368 44.4614 33.589 44.4214 33.6554C44.3872 33.7124 44.3638 33.7727 44.3529 33.8339C44.3419 33.8952 44.3423 33.9536 44.3527 34.0115C44.3631 34.0694 44.3863 34.1222 44.4209 34.1721C44.4555 34.222 44.502 34.2629 44.5613 34.2985C44.6515 34.3528 44.7417 34.3747 44.8272 34.3615C44.9127 34.3483 44.9901 34.3108 45.0581 34.2515L45.0514 34.2411L45.0453 34.2406Z" fill="black"/>
    <path fill-rule="evenodd" clip-rule="evenodd" d="M41.9765 34.4111L41.978 34.4087C41.9946 34.4025 42.0088 34.395 42.0217 34.3898C42.0321 34.3831 42.0426 34.3765 42.053 34.3698C42.0611 34.3618 42.0706 34.3513 42.0787 34.3433C42.0882 34.3328 42.0953 34.321 42.1053 34.3044L42.3222 33.9437C42.3294 33.9318 42.3327 33.9209 42.3346 33.9124C42.3379 33.9014 42.3399 33.8929 42.3394 33.8829C42.3389 33.8729 42.3385 33.863 42.3356 33.8516C42.3328 33.8402 42.3299 33.8288 42.3247 33.8159L42.3262 33.8136L42.4424 33.8835L42.3692 34.505L42.8791 34.1461L42.9882 34.2117L42.9868 34.2141C42.9706 34.2141 42.9578 34.2193 42.9464 34.2221C42.935 34.2249 42.9246 34.2316 42.9155 34.2358C42.9051 34.2425 42.897 34.2505 42.8889 34.2586C42.8794 34.269 42.8723 34.2809 42.8637 34.2951L42.6525 34.6463C42.644 34.6606 42.6368 34.6724 42.6335 34.6834C42.6278 34.6928 42.6244 34.7038 42.6211 34.7147C42.6178 34.7256 42.6159 34.7342 42.6149 34.7465C42.6139 34.7588 42.613 34.7712 42.6144 34.785L42.613 34.7873L42.4825 34.7088L42.4839 34.7065C42.4967 34.7013 42.5072 34.6946 42.5176 34.688C42.5281 34.6814 42.5347 34.6757 42.5428 34.6676C42.5509 34.6595 42.559 34.6515 42.5647 34.642C42.5704 34.6325 42.5813 34.6197 42.5884 34.6078L42.831 34.2044L42.2988 34.579L42.2846 34.5705L42.3602 33.9181L42.1243 34.3158C42.1158 34.33 42.1072 34.3443 42.1024 34.3575C42.0977 34.3708 42.0943 34.3818 42.0934 34.3941C42.0924 34.4064 42.0915 34.4188 42.0929 34.4326C42.0943 34.4463 42.0966 34.4639 42.1014 34.4829L42.0999 34.4853L41.9765 34.4111ZM43.0887 34.3562C43.0816 34.368 43.0711 34.3747 43.0597 34.3775C43.0483 34.3803 43.036 34.3794 43.0241 34.3722C43.0123 34.3651 43.008 34.3561 43.0028 34.3432C43 34.3318 43.0009 34.3195 43.0081 34.3076C43.0152 34.2958 43.0242 34.2915 43.037 34.2863C43.0484 34.2835 43.0608 34.2844 43.0727 34.2916C43.0845 34.2987 43.0888 34.3077 43.094 34.3205C43.0968 34.3319 43.0959 34.3443 43.0887 34.3562ZM42.6875 34.8354C42.7046 34.823 42.7207 34.8069 42.7345 34.7894C42.7483 34.7718 42.7635 34.7519 42.7807 34.7234L42.8706 34.5739C42.882 34.5549 42.8872 34.5355 42.8887 34.5169C42.8887 34.5008 42.8863 34.4832 42.8835 34.4718L42.8849 34.4694L43.0055 34.4838L42.84 34.7591C42.8229 34.7875 42.8086 34.8113 42.801 34.8293C42.7919 34.8497 42.7867 34.8692 42.7824 34.8924L42.781 34.8948L42.686 34.8377L42.6875 34.8354ZM43.2243 35.0387C43.1939 35.0624 43.163 35.0761 43.1255 35.0794C43.088 35.0827 43.0515 35.0736 43.0111 35.0494C42.985 35.0337 42.9641 35.0147 42.9485 34.9923C42.9328 34.97 42.921 34.9467 42.9144 34.9201C42.9077 34.8935 42.9087 34.865 42.9159 34.837C42.9207 34.8076 42.9354 34.7777 42.9525 34.7492C42.9725 34.716 42.9944 34.6904 43.0219 34.6714C43.0495 34.6524 43.0766 34.6396 43.107 34.6321C43.1374 34.6245 43.1673 34.6231 43.1967 34.6279C43.2262 34.6327 43.2551 34.6436 43.2812 34.6593C43.3073 34.675 43.3296 34.6917 43.342 34.7088C43.3557 34.7235 43.3657 34.7392 43.3737 34.7473L43.3309 34.8346L43.3224 34.8327C43.3224 34.8165 43.32 34.799 43.32 34.7828C43.3177 34.7652 43.3139 34.75 43.3087 34.7372C43.3035 34.7244 43.2959 34.7101 43.2869 34.6983C43.2779 34.6864 43.2674 34.6769 43.2556 34.6697C43.2152 34.6455 43.1758 34.6412 43.1335 34.6577C43.0913 34.6743 43.0551 34.7075 43.0223 34.7621C42.9909 34.8143 42.9785 34.8618 42.9837 34.9069C42.9889 34.952 43.0159 34.9877 43.061 35.0148C43.0847 35.029 43.1089 35.0371 43.1346 35.0429C43.1602 35.0486 43.1878 35.0458 43.2134 35.0353L43.2167 35.0406L43.2243 35.0387ZM43.2451 35.1707C43.2556 35.1641 43.2622 35.1584 43.2703 35.1503C43.2784 35.1422 43.285 35.1366 43.2922 35.1247C43.2979 35.1152 43.3059 35.1071 43.3131 35.0953C43.3202 35.0834 43.3273 35.0715 43.3359 35.0573L43.4272 34.9054C43.4401 34.8841 43.4453 34.8646 43.4453 34.8485C43.4454 34.8323 43.443 34.8148 43.4402 34.8034L43.4416 34.801L43.5574 34.8125L43.4989 34.9098L43.5037 34.9126C43.5189 34.9089 43.5317 34.9036 43.5483 34.8975C43.565 34.8913 43.5802 34.8875 43.5977 34.8852C43.6129 34.8814 43.6291 34.8814 43.6452 34.8814C43.6614 34.8815 43.6747 34.8862 43.6889 34.8948L43.6404 34.9755L43.638 34.974C43.6371 34.9702 43.6337 34.965 43.6304 34.9598C43.6271 34.9545 43.6214 34.9479 43.6167 34.945C43.611 34.9384 43.6062 34.9355 43.6005 34.9289C43.5958 34.926 43.5901 34.9194 43.5854 34.9165C43.5782 34.9122 43.5659 34.9113 43.5483 34.9136C43.5307 34.916 43.5117 34.9207 43.4937 34.9292L43.3981 35.0882C43.381 35.1167 43.3667 35.1404 43.3591 35.1585C43.35 35.1789 43.3448 35.1983 43.3405 35.2216L43.3391 35.224L43.2442 35.1669L43.2456 35.1645L43.2451 35.1707ZM43.6803 35.4518C43.6518 35.4347 43.6285 35.4142 43.612 35.3881C43.5954 35.3619 43.5826 35.3349 43.575 35.3045C43.5674 35.2741 43.566 35.2442 43.5708 35.2147C43.5732 35.1839 43.5842 35.1549 43.6013 35.1264C43.6184 35.0979 43.6389 35.0747 43.665 35.0581C43.6911 35.0415 43.7196 35.0263 43.7486 35.0211C43.779 35.0136 43.8089 35.0122 43.8398 35.0146C43.8706 35.017 43.8996 35.0279 43.9281 35.0451C43.9566 35.0622 43.9798 35.0826 43.9964 35.1088C44.013 35.1349 44.0258 35.162 44.0334 35.1924C44.0409 35.2228 44.0423 35.2527 44.0375 35.2821C44.0351 35.313 44.0228 35.3443 44.0071 35.3704C43.9899 35.3989 43.9695 35.4222 43.9434 35.4387C43.9172 35.4553 43.8901 35.4681 43.8621 35.4771C43.8317 35.4847 43.8018 35.4861 43.7709 35.4837C43.7401 35.4813 43.7111 35.4703 43.6826 35.4532L43.6803 35.4518ZM43.6888 35.4375C43.7126 35.4518 43.7344 35.4585 43.7567 35.459C43.779 35.4595 43.8018 35.4538 43.8237 35.4443C43.8455 35.4349 43.8655 35.4178 43.8855 35.4007C43.9045 35.3798 43.9211 35.3575 43.9354 35.3338C43.9511 35.3077 43.963 35.2825 43.9687 35.2569C43.9782 35.2303 43.9802 35.2056 43.9783 35.1819C43.9764 35.1581 43.9707 35.1353 43.9613 35.1135C43.9503 35.094 43.9342 35.0778 43.9105 35.0636C43.8868 35.0493 43.8649 35.0426 43.8426 35.0421C43.8203 35.0416 43.7975 35.0473 43.7742 35.0592C43.7524 35.0686 43.7324 35.0857 43.7124 35.1028C43.6934 35.1237 43.6744 35.1445 43.6601 35.1683C43.6444 35.1944 43.6325 35.2195 43.6244 35.2437C43.6149 35.2703 43.613 35.295 43.6149 35.3188C43.6167 35.3425 43.6224 35.3653 43.6333 35.3848C43.6442 35.4043 43.6604 35.4204 43.6841 35.4347L43.6888 35.4375ZM44.0837 35.6782C44.0965 35.673 44.107 35.6664 44.1174 35.6597C44.1279 35.6531 44.1345 35.6474 44.1426 35.6393C44.1507 35.6313 44.1588 35.6232 44.1645 35.6137C44.1702 35.6042 44.1797 35.5938 44.1882 35.5796L44.398 35.2307C44.4066 35.2165 44.4137 35.2046 44.417 35.1937C44.4228 35.1842 44.4261 35.1733 44.4294 35.1624C44.4328 35.1515 44.4347 35.1429 44.4356 35.1306C44.4366 35.1182 44.4375 35.1059 44.4361 35.0921L44.4376 35.0897L44.5681 35.1682L44.5666 35.1706C44.5538 35.1758 44.5434 35.1824 44.5329 35.1891C44.5225 35.1957 44.5158 35.2014 44.5077 35.2095C44.4996 35.2175 44.4916 35.2256 44.4859 35.2351C44.4801 35.2446 44.4706 35.255 44.4621 35.2693L44.2523 35.6181C44.2438 35.6323 44.2366 35.6442 44.2333 35.6551C44.2276 35.6646 44.2242 35.6755 44.2209 35.6864C44.2176 35.6974 44.2157 35.7059 44.2147 35.7182C44.2137 35.7306 44.2128 35.7429 44.2142 35.7567L44.2128 35.7591L44.0823 35.6806L44.0837 35.6782ZM44.3812 35.8604L44.2863 35.8033L44.2877 35.8009C44.2982 35.7943 44.3049 35.7886 44.3129 35.7805C44.321 35.7725 44.3277 35.7668 44.3348 35.7549C44.3405 35.7454 44.3486 35.7374 44.3557 35.7255C44.3629 35.7136 44.37 35.7018 44.3786 35.6875L44.4699 35.5357C44.4827 35.5143 44.488 35.4949 44.488 35.4787C44.488 35.4626 44.4856 35.445 44.4828 35.4336L44.4842 35.4312L44.6001 35.4427L44.5544 35.5187L44.5568 35.5201C44.5901 35.5078 44.6214 35.504 44.6523 35.5064C44.6831 35.5088 44.7111 35.516 44.7396 35.5331C44.7776 35.5559 44.8003 35.5825 44.8065 35.6153C44.8126 35.6481 44.805 35.6823 44.7836 35.7179L44.6908 35.8721C44.6823 35.8863 44.6737 35.9006 44.668 35.9101C44.6609 35.9219 44.6552 35.9314 44.6518 35.9423C44.6461 35.9518 44.6428 35.9627 44.6395 35.9737C44.6361 35.9846 44.6342 35.9931 44.6332 36.0055L44.6318 36.0079L44.5369 35.9508L44.5383 35.9484C44.5554 35.9361 44.5716 35.9199 44.5854 35.9024C44.5992 35.8848 44.612 35.8635 44.6291 35.835L44.7133 35.695C44.7205 35.6831 44.7252 35.6698 44.73 35.6565C44.7348 35.6433 44.7357 35.6309 44.7329 35.6195C44.7315 35.6057 44.7272 35.5967 44.7182 35.5848C44.7092 35.573 44.6987 35.5634 44.6845 35.5549C44.6655 35.5435 44.6437 35.5368 44.6204 35.5325C44.5972 35.5282 44.571 35.5287 44.5468 35.5367L44.4355 35.7218C44.4184 35.7503 44.4041 35.774 44.3965 35.792C44.3875 35.8124 44.3822 35.8319 44.3779 35.8552L44.3765 35.8575L44.3812 35.8604ZM44.722 36.0621C44.7362 36.0545 44.7481 36.0455 44.7605 36.0303C44.7728 36.0151 44.7895 35.9928 44.808 35.962L44.9622 35.7057L44.9123 35.6757L44.9209 35.6615L44.9707 35.6915L45.0121 35.6226C45.0292 35.5942 45.0459 35.5719 45.0658 35.5548C45.0858 35.5377 45.1067 35.5244 45.1271 35.5173C45.1475 35.5102 45.1689 35.5069 45.1912 35.5074C45.2121 35.5103 45.234 35.517 45.2529 35.5284C45.2648 35.5355 45.2752 35.545 45.2833 35.5531C45.2914 35.5612 45.2971 35.5678 45.3004 35.5731L45.2656 35.6523L45.2595 35.6519C45.2604 35.6395 45.2576 35.6281 45.2562 35.6143C45.2548 35.6006 45.2543 35.5906 45.2515 35.5792C45.2486 35.5678 45.2444 35.5588 45.2425 35.5512C45.2382 35.5421 45.2325 35.5355 45.2254 35.5312C45.2088 35.5212 45.1888 35.5221 45.1641 35.5364C45.1394 35.5506 45.1161 35.5786 45.0905 35.6213L45.0277 35.7257L45.1226 35.7828L45.114 35.797L45.0191 35.7399L44.865 35.9962C44.8464 36.0271 44.8345 36.0522 44.8269 36.0703C44.8193 36.0883 44.8169 36.103 44.8169 36.1192L44.8155 36.1215L44.7182 36.063L44.7196 36.0606L44.722 36.0621ZM45.237 36.2749C45.2228 36.2824 45.2076 36.2862 45.1947 36.2914C45.1795 36.2952 45.1643 36.299 45.1491 36.3028C45.1354 36.3042 45.1192 36.3042 45.1021 36.3004C45.085 36.2965 45.0694 36.2904 45.0528 36.2804C45.0172 36.259 44.9982 36.2314 44.9944 36.2001C44.9907 36.1687 44.9997 36.1322 45.0225 36.0942L45.1438 35.8925C45.1538 35.8759 45.16 35.8602 45.1586 35.8464C45.1586 35.8303 45.1558 35.8189 45.1506 35.8061L45.152 35.8037L45.2445 35.8594L45.089 36.118C45.0533 36.1773 45.0609 36.2239 45.1131 36.2553C45.1368 36.2695 45.1587 36.2762 45.181 36.2767C45.2033 36.2772 45.2223 36.2725 45.2403 36.2639L45.3773 36.0361C45.3959 36.0053 45.3969 35.9768 45.3831 35.9459L45.3845 35.9435L45.4795 36.0006L45.3154 36.2735C45.3054 36.2901 45.2968 36.3044 45.2935 36.3153C45.2901 36.3262 45.2844 36.3357 45.2849 36.3457C45.283 36.3542 45.2849 36.3618 45.2868 36.3694C45.2887 36.377 45.292 36.3822 45.2962 36.3913L45.2948 36.3936L45.189 36.3655L45.2389 36.2825L45.237 36.2749ZM45.7513 36.2739L45.7451 36.2735C45.7471 36.2326 45.7409 36.1999 45.7291 36.1766C45.7172 36.1533 45.7011 36.1371 45.6821 36.1257C45.6584 36.1114 45.6351 36.1071 45.6137 36.1105C45.5924 36.1138 45.5753 36.1261 45.5638 36.1451C45.5567 36.1569 45.5519 36.1702 45.5548 36.1816C45.5538 36.194 45.559 36.2068 45.5657 36.2172C45.5709 36.2301 45.5799 36.242 45.5875 36.2562C45.5965 36.2681 45.6079 36.2814 45.6178 36.2971C45.6292 36.3104 45.6392 36.3261 45.6491 36.3417C45.6591 36.3574 45.6667 36.3717 45.6704 36.3869C45.6766 36.4035 45.6766 36.4197 45.6751 36.4382C45.6737 36.4567 45.6661 36.4747 45.6547 36.4937C45.6318 36.5317 45.6019 36.5492 45.563 36.5549C45.5254 36.5582 45.4841 36.5462 45.4391 36.5191C45.4153 36.5049 45.3954 36.4897 45.3793 36.4735C45.3631 36.4573 45.3494 36.4426 45.3394 36.4269L45.388 36.3301L45.3941 36.3306C45.3893 36.3762 45.3926 36.4137 45.403 36.4393C45.412 36.4673 45.4315 36.4887 45.46 36.5059C45.4884 36.523 45.5164 36.5301 45.5407 36.5221C45.5649 36.514 45.582 36.5017 45.5934 36.4827C45.6006 36.4709 45.6039 36.4599 45.6049 36.4476C45.6058 36.4353 45.603 36.4239 45.6001 36.4125C45.5949 36.3996 45.5897 36.3868 45.5807 36.3749C45.5717 36.363 45.5627 36.3512 45.5527 36.3355C45.5413 36.3222 45.5338 36.3079 45.5224 36.2946C45.5124 36.2789 45.5048 36.2647 45.4987 36.248C45.4925 36.2314 45.4902 36.2138 45.4902 36.1977C45.4916 36.1792 45.4954 36.1621 45.5069 36.1431C45.5183 36.1241 45.533 36.1104 45.5487 36.1004C45.5644 36.0905 45.5819 36.0881 45.5995 36.0857C45.6171 36.0834 45.6366 36.0886 45.6522 36.0948C45.6703 36.1024 45.6883 36.1101 45.7049 36.12C45.7215 36.13 45.7391 36.1438 45.7543 36.1562C45.7694 36.1685 45.7808 36.1818 45.7898 36.1937L45.7499 36.2763L45.7513 36.2739ZM46.0534 36.1422C46.0463 36.1541 46.0358 36.1607 46.0244 36.1636C46.013 36.1664 46.0007 36.1654 45.9888 36.1583C45.977 36.1512 45.9727 36.1422 45.9675 36.1293C45.9647 36.1179 45.9656 36.1056 45.9728 36.0937C45.9799 36.0818 45.9889 36.0776 46.0017 36.0724C46.0131 36.0695 46.0255 36.0705 46.0374 36.0776C46.0492 36.0848 46.0535 36.0938 46.0587 36.1066C46.0615 36.118 46.0606 36.1304 46.0534 36.1422ZM45.6522 36.6214C45.6693 36.6091 45.6854 36.593 45.6992 36.5754C45.713 36.5579 45.7282 36.5379 45.7454 36.5095L45.8353 36.36C45.8467 36.341 45.8519 36.3215 45.8534 36.303C45.8534 36.2869 45.851 36.2693 45.8482 36.2579L45.8496 36.2555L45.9702 36.2699L45.8047 36.5451C45.7876 36.5736 45.7733 36.5973 45.7657 36.6154C45.7566 36.6358 45.7514 36.6553 45.7471 36.6785L45.7457 36.6809L45.6507 36.6238L45.6522 36.6214ZM45.9995 36.8497C45.9711 36.8326 45.9478 36.8122 45.9312 36.786C45.9146 36.7599 45.9018 36.7328 45.8943 36.7024C45.8867 36.672 45.8853 36.6421 45.8901 36.6127C45.8925 36.5818 45.9034 36.5528 45.9206 36.5244C45.9377 36.4959 45.9581 36.4726 45.9843 36.456C46.0104 36.4395 46.0389 36.4243 46.0679 36.4191C46.0983 36.4115 46.1282 36.4101 46.1591 36.4125C46.1899 36.4149 46.2189 36.4259 46.2474 36.443C46.2758 36.4601 46.2991 36.4806 46.3157 36.5067C46.3323 36.5328 46.3451 36.5599 46.3526 36.5903C46.3602 36.6207 46.3616 36.6506 46.3568 36.6801C46.3544 36.7109 46.342 36.7423 46.3263 36.7684C46.3092 36.7969 46.2888 36.8201 46.2626 36.8367C46.2365 36.8533 46.2094 36.8661 46.1814 36.8751C46.151 36.8826 46.1211 36.884 46.0902 36.8816C46.0593 36.8792 46.0304 36.8683 46.0019 36.8512L45.9995 36.8497ZM46.0081 36.8355C46.0318 36.8498 46.0537 36.8564 46.076 36.8569C46.0983 36.8574 46.1211 36.8517 46.143 36.8423C46.1648 36.8328 46.1848 36.8157 46.2047 36.7986C46.2237 36.7778 46.2404 36.7555 46.2547 36.7317C46.2704 36.7056 46.2823 36.6805 46.288 36.6548C46.2975 36.6283 46.2994 36.6036 46.2975 36.5798C46.2957 36.5561 46.29 36.5333 46.2805 36.5114C46.2696 36.4919 46.2535 36.4758 46.2298 36.4615C46.206 36.4472 46.1842 36.4406 46.1619 36.4401C46.1396 36.4396 46.1168 36.4453 46.0935 36.4571C46.0716 36.4666 46.0517 36.4837 46.0317 36.5007C46.0127 36.5216 45.9937 36.5425 45.9794 36.5662C45.9637 36.5923 45.9518 36.6175 45.9437 36.6417C45.9342 36.6683 45.9323 36.693 45.9341 36.7167C45.936 36.7404 45.9417 36.7632 45.9526 36.7827C45.9635 36.8022 45.9796 36.8184 46.0034 36.8326L46.0081 36.8355ZM46.3697 37.0562L46.2748 36.9991L46.2762 36.9967C46.2867 36.9901 46.2933 36.9844 46.3014 36.9763C46.3095 36.9683 46.3162 36.9626 46.3233 36.9507C46.329 36.9412 46.3371 36.9332 46.3442 36.9213C46.3514 36.9094 46.3585 36.8976 46.3671 36.8833L46.4584 36.7315C46.4712 36.7101 46.4765 36.6906 46.4765 36.6745C46.4765 36.6584 46.4741 36.6408 46.4713 36.6294L46.4727 36.627L46.5886 36.6385L46.5429 36.7145L46.5453 36.7159C46.5785 36.7036 46.6099 36.6998 46.6408 36.7022C46.6716 36.7046 46.6996 36.7118 46.7281 36.7289C46.7661 36.7517 46.7888 36.7783 46.795 36.8111C46.8011 36.8439 46.7935 36.8781 46.7721 36.9137L46.6793 37.0679C46.6708 37.0821 46.6622 37.0964 46.6565 37.1059C46.6494 37.1177 46.6437 37.1272 46.6403 37.1381C46.6346 37.1476 46.6313 37.1585 46.6279 37.1695C46.6246 37.1804 46.6227 37.1889 46.6217 37.2013L46.6203 37.2036L46.5254 37.1466L46.5268 37.1442C46.5439 37.1319 46.5601 37.1157 46.5739 37.0982C46.5877 37.0806 46.6005 37.0593 46.6176 37.0308L46.7018 36.8908C46.709 36.8789 46.7137 36.8656 46.7185 36.8523C46.7232 36.8391 46.7242 36.8267 46.7214 36.8153C46.72 36.8015 46.7157 36.7925 46.7067 36.7806C46.6977 36.7687 46.6872 36.7592 46.673 36.7507C46.654 36.7393 46.6322 36.7326 46.6089 36.7283C46.5856 36.724 46.5595 36.7244 46.5353 36.7325L46.424 36.9176C46.4069 36.9461 46.3926 36.9698 46.385 36.9878C46.376 37.0082 46.3707 37.0277 46.3664 37.051L46.365 37.0533L46.3697 37.0562Z" fill="black"/>
    <path d="M45.0352 34.5938L48.0511 36.4074" stroke="black" stroke-width="0.53945"/>
    <path d="M45.5202 35.7419L46.8485 33.1865" stroke="black" stroke-width="0.53945"/>
    <path fill-rule="evenodd" clip-rule="evenodd" d="M36.3038 34.5048L38.0621 35.5621L39.7345 32.7811L41.4069 30.0001L39.6486 28.9427C39.3663 29.1865 37.8765 31.6638 37.8765 31.6638C37.8765 31.6638 36.3868 34.1411 36.3038 34.5048Z" fill="white" stroke="black" stroke-width="0.899083" stroke-miterlimit="2.61313"/>
    <path fill-rule="evenodd" clip-rule="evenodd" d="M36.5204 34.0353C36.1122 33.7899 35.5009 33.4578 34.9633 33.057C34.2601 32.5339 33.6823 31.8989 33.8364 31.1968L34.6983 29.7635L35.5602 28.3303C36.5311 27.5055 38.3861 28.8051 39.3258 29.3702C38.7946 30.1461 37.8813 31.6647 37.8813 31.6647L37.8756 31.6742C37.8014 31.7976 36.9348 33.2441 36.5204 34.0353Z" stroke="black" stroke-width="0.899083" stroke-miterlimit="2.61313"/>
    <path d="M35.6362 33.5071C36.2507 32.077 37.4651 30.0576 38.4388 28.8467" stroke="black" stroke-width="0.899083" stroke-miterlimit="2.61313"/>
    <path d="M33.2822 31.1265L35.9446 32.7275" stroke="black" stroke-width="0.899083" stroke-miterlimit="2.61313" stroke-linecap="round" stroke-linejoin="round"/>
    <path d="M33.6729 30.4766L36.3352 32.0776" stroke="black" stroke-width="0.899083" stroke-miterlimit="2.61313" stroke-linecap="round" stroke-linejoin="round"/>
    <path d="M34.0625 29.8237L36.7249 31.4248" stroke="black" stroke-width="0.899083" stroke-miterlimit="2.61313" stroke-linecap="round" stroke-linejoin="round"/>
    <path d="M34.458 29.1714L37.1204 30.7724" stroke="black" stroke-width="0.899083" stroke-miterlimit="2.61313" stroke-linecap="round" stroke-linejoin="round"/>
    <path d="M34.8486 28.519L37.511 30.1201" stroke="black" stroke-width="0.899083" stroke-miterlimit="2.61313" stroke-linecap="round" stroke-linejoin="round"/>
    <path d="M35.2402 27.8687L37.9026 29.4697" stroke="black" stroke-width="0.899083" stroke-miterlimit="2.61313" stroke-linecap="round" stroke-linejoin="round"/>
  </g>
  <defs>
    <clipPath id="clip0_13671_1454">
      <rect width="50" height="50" fill="white"/>
    </clipPath>
  </defs>
</svg>