<svg xmlns="http://www.w3.org/2000/svg" width="50" height="50" viewBox="0 0 50 50" fill="none">
  <path d="M31.5098 45.8551C36.1913 45.8551 39.9865 42.06 39.9865 37.3785C39.9865 32.697 36.1913 28.9019 31.5098 28.9019C26.8283 28.9019 23.0332 32.697 23.0332 37.3785C23.0332 42.06 26.8283 45.8551 31.5098 45.8551Z" fill="white" stroke="black" stroke-width="0.899083" stroke-miterlimit="2.61313" stroke-linecap="round" stroke-linejoin="round"/>
  <path d="M31.7607 31.1826V37.448H37.8637" stroke="black" stroke-width="0.899083" stroke-miterlimit="2.61313" stroke-linecap="round" stroke-linejoin="round"/>
  <path d="M24.3771 41.6083C20.1357 42.0768 13.2019 41.7332 12.8959 40.5838V20.9196C12.8959 20.9196 12.8334 19.8764 14.3638 19.4641L15.6256 19.3579H20.2481H24.8706L26.1324 19.4641C27.6691 19.8764 27.6004 20.9196 27.6004 20.9196V30.0646" stroke="black" stroke-width="0.899083" stroke-miterlimit="2.61313"/>
  <path d="M22.9842 27.7028V27.1718H23.4464L23.4527 27.1656C23.3902 27.1343 23.3278 27.0969 23.2653 27.0531C23.2028 27.0094 23.1466 26.9594 23.0966 26.9032C23.0467 26.847 23.0029 26.7783 22.9717 26.7033C22.9405 26.6284 22.9217 26.5472 22.9217 26.4535C22.9217 26.2661 22.9904 26.1224 23.1216 26.0225C23.2528 25.9225 23.4277 25.8788 23.6463 25.8788H25.0955V26.4347H23.6776C23.5526 26.4347 23.4527 26.466 23.384 26.5222C23.3153 26.5784 23.2778 26.6659 23.2778 26.772C23.2778 26.8657 23.3028 26.9407 23.3527 27.0032C23.4027 27.0656 23.4589 27.1156 23.5339 27.1531H25.0955V27.709H22.9904L22.9842 27.7028ZM25.1205 31.482V31.3945H25.1518V31.6132H25.1205V31.5257H24.8894V31.4882H25.1205V31.482ZM24.8894 31.8943H25.0831L24.9269 31.8006V31.7818L25.0831 31.6881H24.8957V31.6506H25.158V31.6819L24.9706 31.7943L25.158 31.9005V31.9317H24.8957V31.8943H24.8894ZM25.108 29.1582C25.0706 29.0895 25.0268 29.0208 24.9769 28.9646C24.9269 28.9021 24.8707 28.8459 24.8082 28.7959C24.752 28.746 24.702 28.7022 24.6583 28.6648H25.0893V28.1088H23.8837H22.9842V28.671H24.5646C24.6146 28.7147 24.652 28.7522 24.6833 28.7959C24.7083 28.8397 24.727 28.8771 24.727 28.9146C24.727 28.9396 24.7208 28.9708 24.7145 29.0083C24.702 29.0458 24.6895 29.0833 24.677 29.127C24.6583 29.1645 24.6395 29.202 24.6208 29.2395C24.5958 29.2769 24.5708 29.3082 24.5458 29.3269V29.3706H25.1705C25.1705 29.2894 25.158 29.2332 25.1205 29.1645L25.108 29.1582ZM22.5657 25.5914C22.5657 25.3666 22.5469 25.1542 22.5095 24.9668C22.472 24.7731 22.4158 24.6107 22.3346 24.4733C22.2533 24.3359 22.1534 24.2234 22.0285 24.1422C21.9035 24.061 21.7599 24.0235 21.585 24.0235V23.9298C21.6099 23.9298 21.6224 23.9298 21.6224 23.9298C21.8286 23.9361 22.0285 23.9798 22.2159 24.0548C22.4158 24.1422 22.5969 24.2609 22.7468 24.4108C22.903 24.5608 23.0217 24.7357 23.1154 24.9355C23.2091 25.1354 23.2528 25.3541 23.2528 25.5914H22.5594H22.5657ZM23.0092 23.9174C23.0092 24.0923 23.0467 24.2359 23.1279 24.3609C23.2091 24.4858 23.3153 24.5857 23.4589 24.6669C23.5964 24.7481 23.765 24.8044 23.9587 24.8418C24.1523 24.8793 24.3584 24.8981 24.5896 24.8981C24.8144 24.8981 25.0268 24.8793 25.2205 24.8418C25.4141 24.8044 25.5765 24.7481 25.7202 24.6669C25.8576 24.5857 25.9701 24.4858 26.0513 24.3609C26.1325 24.2359 26.17 24.0923 26.17 23.9174C26.17 23.7424 26.1325 23.5988 26.0513 23.4738C25.9701 23.3489 25.8576 23.249 25.7202 23.1678C25.5765 23.0866 25.4141 23.0303 25.2205 22.9929C25.0268 22.9554 24.8207 22.9366 24.5958 22.9366C24.3709 22.9366 24.1648 22.9554 23.9712 22.9929C23.7775 23.0303 23.6151 23.0866 23.4714 23.1678C23.334 23.249 23.2216 23.3489 23.1404 23.4738C23.0592 23.5988 23.0217 23.7424 23.0217 23.9174H23.0092ZM22.9217 23.7924C22.9342 23.6175 22.978 23.4426 23.0467 23.2864C23.1341 23.0866 23.2528 22.9054 23.4027 22.7555C23.5526 22.6056 23.7275 22.4806 23.9274 22.3869C24.1273 22.2932 24.346 22.2495 24.5833 22.2495C24.8145 22.2495 25.0331 22.2932 25.2392 22.3869C25.4391 22.4806 25.6203 22.5993 25.7702 22.7555C25.9201 22.9054 26.0388 23.0866 26.1262 23.2864C26.2137 23.4863 26.2574 23.6987 26.2574 23.9174C26.2574 24.136 26.2137 24.3484 26.1262 24.5483C26.0388 24.7482 25.9201 24.9293 25.7702 25.0792C25.6203 25.2354 25.4391 25.3541 25.2392 25.4478C25.0393 25.5415 24.8207 25.5852 24.5833 25.5852C24.3522 25.5852 24.1336 25.5415 23.9274 25.4478C23.7275 25.3541 23.5464 25.2354 23.4027 25.0792C23.2528 24.9231 23.1341 24.7482 23.0467 24.5483C22.9655 24.3609 22.928 24.161 22.9217 23.9548C22.9217 23.9548 22.9217 23.8486 22.928 23.7862L22.9217 23.7924ZM24.346 29.9703C24.4459 29.9766 24.5396 29.989 24.6271 30.014C24.7145 30.0328 24.7895 30.064 24.8582 30.1015C24.9269 30.139 24.9769 30.1827 25.0143 30.2389C25.0518 30.2951 25.0706 30.3576 25.0706 30.4263C25.0706 30.5387 25.0206 30.6262 24.9269 30.6887C24.8332 30.7511 24.6083 30.7761 24.3959 30.7761H24.2585L23.8962 30.014C24.0024 29.9828 24.1148 29.9703 24.2585 29.9703H24.346ZM23.5964 31.3008C23.5277 31.2446 23.4652 31.1634 23.4152 31.0697C23.3652 30.9698 23.3403 30.8511 23.3403 30.7136C23.3403 30.6075 23.359 30.5075 23.3902 30.4138C23.4215 30.3201 23.4777 30.2452 23.5526 30.1764C23.6213 30.114 23.7088 30.0703 23.815 30.0328L24.3959 31.3071C24.3959 31.3071 24.6083 31.3008 24.8707 31.1072C24.9644 31.0385 25.0206 30.9323 25.0768 30.8261C25.133 30.7136 25.158 30.5887 25.158 30.4513C25.158 30.3201 25.133 30.1889 25.0768 30.064C25.0206 29.9391 24.9456 29.8266 24.8394 29.7329C24.7395 29.6392 24.6146 29.558 24.4771 29.5018C24.3335 29.4456 24.1773 29.4144 24.0024 29.4144C23.8525 29.4144 23.7088 29.4393 23.5776 29.4893C23.4464 29.5393 23.334 29.608 23.2341 29.6955C23.1341 29.7829 23.0592 29.8891 23.0029 30.014C22.9467 30.139 22.9217 30.2764 22.9217 30.4326C22.9217 30.6699 22.9842 30.8698 23.1091 31.0197C23.2341 31.1697 23.3965 31.2758 23.5901 31.3383L23.6026 31.3133L23.5964 31.3008Z" fill="black"/>
  <path fill-rule="evenodd" clip-rule="evenodd" d="M19.6965 25.5666H19.7027C19.7339 25.5916 19.7652 25.6103 19.7902 25.6291C19.8151 25.6416 19.8401 25.654 19.8651 25.6665C19.8901 25.6728 19.9213 25.679 19.9463 25.6853C19.9776 25.6915 20.0088 25.6915 20.0525 25.6915H21.002C21.0332 25.6915 21.0582 25.6853 21.077 25.679C21.1019 25.6728 21.1207 25.6665 21.1394 25.654C21.1582 25.6416 21.1769 25.6291 21.1956 25.6103C21.2144 25.5916 21.2331 25.5728 21.2519 25.5479H21.2581V25.8539L19.9713 26.4349L21.2581 27.0033V27.2907H21.2519C21.2331 27.2594 21.2081 27.2407 21.1894 27.2219C21.1707 27.2032 21.1457 27.1907 21.1269 27.1782C21.1019 27.1657 21.077 27.1595 21.052 27.1532C21.0207 27.147 20.9895 27.147 20.952 27.147H20.0275C19.99 27.147 19.9588 27.147 19.9338 27.1532C19.9088 27.1532 19.8839 27.1595 19.8589 27.1657C19.8339 27.172 19.8151 27.1782 19.7902 27.1907C19.7652 27.2032 19.7402 27.2157 19.7152 27.2344H19.709V26.8909H19.7152C19.7402 26.9096 19.7652 26.9221 19.7902 26.9346C19.8151 26.9471 19.8339 26.9533 19.8589 26.9596C19.8839 26.9658 19.9088 26.9721 19.9338 26.9721C19.9588 26.9721 19.9963 26.9783 20.0275 26.9783H21.0894L19.7464 26.3849V26.3474L21.0957 25.7352L20.0525 25.7415C20.015 25.7415 19.9776 25.7415 19.9463 25.7477C19.9151 25.754 19.8901 25.7602 19.8651 25.7727C19.8401 25.7852 19.8151 25.7977 19.7902 25.8165C19.7652 25.8352 19.7339 25.8602 19.7027 25.8914H19.6965V25.5666ZM21.0957 27.653C21.0645 27.653 21.0395 27.6405 21.0207 27.6217C21.002 27.603 20.9895 27.578 20.9895 27.5468C20.9895 27.5155 21.002 27.4968 21.0207 27.4718C21.0395 27.4531 21.0645 27.4406 21.0957 27.4406C21.1269 27.4406 21.1457 27.4531 21.1707 27.4718C21.1894 27.4905 21.2019 27.5155 21.2019 27.5468C21.2019 27.578 21.1894 27.5967 21.1707 27.6217C21.1519 27.6405 21.1269 27.653 21.0957 27.653ZM19.7027 27.4343C19.7464 27.4531 19.7964 27.4656 19.8464 27.4718C19.8963 27.4781 19.9526 27.4843 20.0275 27.4843H20.4211C20.471 27.4843 20.5148 27.4718 20.5522 27.4531C20.5835 27.4343 20.6147 27.4093 20.6334 27.3906H20.6397L20.7521 27.6405H20.0275C19.9526 27.6405 19.8901 27.6405 19.8464 27.6467C19.7964 27.653 19.7527 27.6654 19.7027 27.6842H19.6965V27.4343H19.7027ZM19.9338 28.7086C19.8526 28.6774 19.7902 28.6337 19.7402 28.565C19.6902 28.4962 19.6652 28.415 19.6652 28.3088C19.6652 28.2401 19.6777 28.1777 19.7027 28.1214C19.7277 28.0652 19.7589 28.0153 19.8026 27.9715C19.8464 27.9278 19.9026 27.8966 19.9651 27.8778C20.0275 27.8528 20.1025 27.8466 20.1774 27.8466C20.2649 27.8466 20.3399 27.8591 20.4086 27.8903C20.4773 27.9216 20.5335 27.959 20.5835 28.009C20.6334 28.059 20.6709 28.1152 20.6959 28.1777C20.7209 28.2401 20.7334 28.3088 20.7334 28.3776C20.7334 28.4463 20.7271 28.5087 20.7084 28.5525C20.6959 28.5962 20.6772 28.6337 20.6709 28.6587L20.4523 28.6774L20.446 28.6587C20.4773 28.6399 20.5085 28.6149 20.5397 28.5962C20.571 28.5712 20.596 28.5462 20.6147 28.5212C20.6334 28.4962 20.6522 28.465 20.6647 28.4338C20.6772 28.4025 20.6834 28.3713 20.6834 28.3401C20.6834 28.2339 20.6459 28.1527 20.5647 28.0902C20.4835 28.0277 20.3773 27.9965 20.2337 27.9965C20.0962 27.9965 19.99 28.0277 19.9088 28.0902C19.8276 28.1527 19.7902 28.2464 19.7902 28.3651C19.7902 28.4275 19.8026 28.4838 19.8214 28.54C19.8401 28.5962 19.8776 28.6462 19.9276 28.6836L19.9213 28.6961L19.9338 28.7086ZM19.7027 28.9023C19.7277 28.9148 19.7464 28.921 19.7714 28.9273C19.7964 28.9335 19.8151 28.9398 19.8464 28.9398C19.8714 28.9398 19.8963 28.946 19.9276 28.946C19.9588 28.946 19.99 28.946 20.0275 28.946H20.4273C20.4835 28.946 20.5273 28.9335 20.5585 28.9148C20.5897 28.896 20.621 28.871 20.6397 28.8523H20.6459L20.7584 29.0897H20.5023V29.1022C20.5273 29.1271 20.5522 29.1459 20.5835 29.1709C20.6147 29.1959 20.6397 29.2208 20.6647 29.2521C20.6897 29.2771 20.7084 29.3083 20.7271 29.3395C20.7459 29.3708 20.7521 29.402 20.7521 29.4395H20.5397V29.4332C20.546 29.427 20.5522 29.4145 20.5585 29.402C20.5647 29.3895 20.571 29.3708 20.571 29.3583C20.5772 29.3395 20.5772 29.327 20.5835 29.3083C20.5835 29.2958 20.5897 29.2771 20.5897 29.2646C20.5897 29.2458 20.5772 29.2209 20.5522 29.1896C20.5273 29.1584 20.496 29.1271 20.4585 29.1022H20.04C19.9651 29.1022 19.9026 29.1022 19.8589 29.1084C19.8089 29.1147 19.7652 29.1272 19.7152 29.1459H19.709V28.896H19.7152L19.7027 28.9023ZM19.6652 30.0704C19.6652 29.9954 19.6777 29.9267 19.709 29.8642C19.7402 29.8018 19.7777 29.7456 19.8276 29.6956C19.8776 29.6456 19.9338 29.6081 19.9963 29.5832C20.0588 29.5519 20.1275 29.5394 20.2024 29.5394C20.2774 29.5394 20.3461 29.5519 20.4086 29.5832C20.471 29.6144 20.5335 29.6519 20.5772 29.7018C20.6272 29.7518 20.6647 29.808 20.6959 29.8705C20.7271 29.933 20.7396 30.0017 20.7396 30.0766C20.7396 30.1516 20.7271 30.2203 20.6959 30.2828C20.6647 30.3452 20.6272 30.4015 20.5772 30.4514C20.5273 30.5014 20.471 30.5389 20.4086 30.5639C20.3461 30.5951 20.2711 30.6076 20.2024 30.6076C20.1275 30.6076 20.0588 30.5951 19.9963 30.5639C19.9338 30.5326 19.8776 30.4952 19.8276 30.4514C19.7777 30.4015 19.7402 30.3452 19.709 30.2828C19.6777 30.2203 19.6652 30.1516 19.6652 30.0766V30.0704ZM19.7027 30.0704C19.7027 30.1329 19.7152 30.1828 19.7402 30.2266C19.7652 30.2703 19.8026 30.3078 19.8464 30.339C19.8901 30.3702 19.9463 30.389 20.0025 30.4077C20.065 30.4202 20.1275 30.4264 20.1899 30.4264C20.2587 30.4264 20.3211 30.4202 20.3773 30.4015C20.4398 30.389 20.4898 30.364 20.5335 30.3327C20.5772 30.3015 20.6147 30.264 20.6459 30.2203C20.6709 30.1766 20.6834 30.1266 20.6834 30.0641C20.6834 30.0017 20.6709 29.9517 20.6459 29.908C20.621 29.8642 20.5835 29.8268 20.5335 29.7955C20.4898 29.7643 20.4336 29.7456 20.3773 29.7268C20.3149 29.7143 20.2524 29.7018 20.1899 29.7018C20.1212 29.7018 20.0588 29.7081 20.0025 29.7206C19.9401 29.7331 19.8901 29.7581 19.8464 29.7893C19.8026 29.8205 19.7652 29.858 19.7402 29.9017C19.7152 29.9455 19.7027 29.9954 19.7027 30.0579V30.0704ZM19.6965 31.1136C19.7214 31.1323 19.7464 31.1448 19.7714 31.1573C19.7964 31.1698 19.8151 31.176 19.8401 31.1823C19.8651 31.1885 19.8901 31.1948 19.9151 31.1948C19.9401 31.1948 19.9713 31.201 20.0088 31.201H20.927C20.9645 31.201 20.9957 31.201 21.0207 31.1948C21.0457 31.1948 21.0707 31.1885 21.0957 31.1823C21.1207 31.176 21.1394 31.1698 21.1644 31.1573C21.1894 31.1448 21.2144 31.1323 21.2394 31.1136H21.2456V31.4571H21.2394C21.2144 31.4384 21.1894 31.4259 21.1644 31.4134C21.1394 31.4009 21.1207 31.3947 21.0957 31.3884C21.0707 31.3822 21.0457 31.3759 21.0207 31.3759C20.9957 31.3759 20.9645 31.3697 20.927 31.3697H20.0088C19.9713 31.3697 19.9401 31.3697 19.9151 31.3759C19.8901 31.3759 19.8651 31.3822 19.8401 31.3884C19.8151 31.3947 19.7964 31.4009 19.7714 31.4134C19.7464 31.4259 19.7214 31.4384 19.6965 31.4571H19.6902V31.1136H19.6965ZM19.6902 31.9006V31.6508H19.6965C19.7214 31.6633 19.7402 31.6695 19.7652 31.6758C19.7902 31.682 19.8089 31.6883 19.8401 31.6883C19.8651 31.6883 19.8901 31.6945 19.9213 31.6945C19.9526 31.6945 19.9838 31.6945 20.0213 31.6945H20.4211C20.4773 31.6945 20.521 31.682 20.5522 31.6633C20.5835 31.6445 20.6147 31.6195 20.6334 31.6008H20.6397L20.7521 31.8382H20.5522V31.8444C20.6147 31.8944 20.6584 31.9506 20.6897 32.0131C20.7209 32.0755 20.7396 32.138 20.7396 32.213C20.7396 32.3129 20.7147 32.3879 20.6584 32.4378C20.6022 32.4878 20.5273 32.5128 20.4336 32.5128H20.0275C19.99 32.5128 19.9526 32.5128 19.9276 32.5128C19.8963 32.5128 19.8714 32.5128 19.8464 32.5191C19.8214 32.5191 19.7964 32.5253 19.7714 32.5315C19.7464 32.5378 19.7277 32.544 19.7027 32.5565H19.6965V32.3067H19.7027C19.7464 32.3254 19.7964 32.3379 19.8464 32.3441C19.8963 32.3504 19.9526 32.3504 20.0275 32.3504H20.3961C20.4273 32.3504 20.4585 32.3441 20.4898 32.3379C20.521 32.3317 20.546 32.3192 20.5647 32.3004C20.5897 32.2817 20.6022 32.2629 20.6147 32.2317C20.6272 32.2005 20.6334 32.1692 20.6334 32.1318C20.6334 32.0818 20.621 32.0318 20.6022 31.9818C20.5835 31.9319 20.5522 31.8819 20.5085 31.8444H20.0213C19.9463 31.8444 19.8839 31.8444 19.8401 31.8507C19.7902 31.8569 19.7464 31.8694 19.6965 31.8881H19.6902V31.9006ZM19.6965 32.7939C19.7277 32.8126 19.7589 32.8251 19.8026 32.8314C19.8464 32.8376 19.9088 32.8439 19.99 32.8439H20.6647V32.7127H20.7022V32.8439H20.8833C20.9583 32.8439 21.0207 32.8501 21.077 32.8689C21.1332 32.8876 21.1831 32.9126 21.2206 32.9438C21.2581 32.9751 21.2893 33.0125 21.3143 33.0563C21.3331 33.1 21.3456 33.15 21.3456 33.1999C21.3456 33.2312 21.3393 33.2624 21.3331 33.2874C21.3268 33.3124 21.3206 33.3311 21.3143 33.3436L21.1207 33.3686L21.1144 33.3561C21.1394 33.3436 21.1582 33.3249 21.1831 33.3061C21.2081 33.2874 21.2269 33.2749 21.2456 33.2562C21.2644 33.2374 21.2768 33.2187 21.2893 33.2062C21.3018 33.1874 21.3081 33.1687 21.3081 33.15C21.3081 33.1062 21.2831 33.0688 21.2269 33.0375C21.1707 33.0063 21.0894 32.9938 20.977 32.9938H20.7022V33.2437H20.6647V32.9938H19.99C19.9088 32.9938 19.8464 33 19.8026 33.0063C19.7589 33.0125 19.7277 33.025 19.6965 33.0438H19.6902V32.7877H19.6965V32.7939ZM19.8839 34.037C19.8526 34.0182 19.8276 33.9932 19.8026 33.9745C19.7777 33.9495 19.7527 33.9245 19.7277 33.8995C19.7089 33.8746 19.6902 33.8433 19.6777 33.8059C19.6652 33.7684 19.659 33.7309 19.659 33.6872C19.659 33.5935 19.6902 33.5248 19.7464 33.481C19.8026 33.4373 19.8839 33.4123 19.9838 33.4123H20.5148C20.5585 33.4123 20.596 33.4061 20.621 33.3873C20.6522 33.3686 20.6709 33.3498 20.6897 33.3249H20.6959V33.5685H20.015C19.8589 33.5685 19.7777 33.6372 19.7777 33.7746C19.7777 33.8371 19.7902 33.8871 19.8151 33.9308C19.8401 33.9745 19.8714 34.0057 19.9088 34.0307H20.5085C20.5897 34.0307 20.6459 33.9995 20.6897 33.937H20.6959V34.1869H19.9776C19.9338 34.1869 19.8963 34.1869 19.8714 34.1931C19.8464 34.1994 19.8214 34.1994 19.8026 34.2119C19.7839 34.2181 19.7714 34.2306 19.7589 34.2431C19.7464 34.2556 19.7402 34.2681 19.7277 34.2868H19.7214L19.6527 34.0495H19.8714L19.8839 34.037ZM20.4835 35.0302L20.4773 35.0177C20.5585 34.974 20.6147 34.924 20.6459 34.874C20.6772 34.824 20.6897 34.7741 20.6897 34.7241C20.6897 34.6616 20.6709 34.6117 20.6397 34.5742C20.6085 34.5367 20.5647 34.518 20.5148 34.518C20.4835 34.518 20.4523 34.5242 20.4336 34.5429C20.4086 34.5554 20.3898 34.5804 20.3773 34.6054C20.3586 34.6304 20.3461 34.6616 20.3274 34.6929C20.3149 34.7241 20.3024 34.7616 20.2836 34.7991C20.2711 34.8365 20.2524 34.874 20.2337 34.9115C20.2149 34.949 20.1962 34.9802 20.1712 35.0052C20.1462 35.0364 20.115 35.0552 20.0775 35.0739C20.04 35.0926 19.9963 35.0989 19.9463 35.0989C19.8464 35.0989 19.7777 35.0614 19.7214 34.9927C19.6715 34.924 19.6465 34.8303 19.6465 34.7116C19.6465 34.6491 19.6527 34.5929 19.6652 34.5429C19.6777 34.493 19.6902 34.4492 19.709 34.4118L19.9526 34.393L19.9588 34.4055C19.8651 34.4493 19.7964 34.4992 19.7589 34.5492C19.7152 34.5992 19.6965 34.6616 19.6965 34.7366C19.6965 34.8116 19.7152 34.874 19.7589 34.9115C19.8026 34.949 19.8464 34.9677 19.8963 34.9677C19.9276 34.9677 19.9526 34.9615 19.9776 34.949C20.0025 34.9365 20.0213 34.9177 20.04 34.899C20.0588 34.874 20.0775 34.849 20.09 34.8178C20.1025 34.7866 20.115 34.7553 20.1337 34.7179C20.1462 34.6804 20.165 34.6491 20.1774 34.6117C20.1962 34.5742 20.2149 34.543 20.2399 34.5117C20.2649 34.4805 20.2961 34.4555 20.3274 34.4368C20.3648 34.418 20.4023 34.4055 20.4523 34.4055C20.5023 34.4055 20.546 34.418 20.5835 34.4368C20.621 34.4555 20.6459 34.4867 20.6709 34.518C20.6959 34.5492 20.7084 34.5929 20.7147 34.6304C20.7209 34.6741 20.7271 34.7179 20.7271 34.7616C20.7271 34.8053 20.7209 34.8553 20.7147 34.899C20.7084 34.9427 20.6959 34.9802 20.6834 35.0114L20.4773 35.0302H20.4835ZM21.0894 35.4612C21.0582 35.4612 21.0332 35.4487 21.0145 35.43C20.9957 35.4112 20.9833 35.3862 20.9833 35.355C20.9833 35.3238 20.9957 35.305 21.0145 35.28C21.0332 35.2613 21.0582 35.2488 21.0894 35.2488C21.1207 35.2488 21.1394 35.2613 21.1644 35.28C21.1831 35.2988 21.1956 35.3238 21.1956 35.355C21.1956 35.3862 21.1831 35.405 21.1644 35.43C21.1457 35.4487 21.1207 35.4612 21.0894 35.4612ZM19.6965 35.2426C19.7402 35.2613 19.7902 35.2738 19.8401 35.28C19.8901 35.2863 19.9463 35.2925 20.0213 35.2925H20.4148C20.4648 35.2925 20.5085 35.28 20.546 35.2613C20.5772 35.2426 20.6085 35.2176 20.6272 35.1988H20.6334L20.7459 35.4487H20.0213C19.9463 35.4487 19.8839 35.4487 19.8401 35.455C19.7902 35.4612 19.7464 35.4737 19.6965 35.4924H19.6902V35.2426H19.6965ZM19.659 36.1796C19.659 36.1046 19.6715 36.0359 19.7027 35.9734C19.7339 35.911 19.7714 35.8547 19.8214 35.8048C19.8714 35.7548 19.9276 35.7173 19.99 35.6923C20.0525 35.6611 20.1212 35.6486 20.1962 35.6486C20.2711 35.6486 20.3399 35.6611 20.4023 35.6923C20.4648 35.7236 20.5273 35.761 20.571 35.811C20.621 35.861 20.6584 35.9172 20.6897 35.9797C20.7209 36.0421 20.7334 36.1108 20.7334 36.1858C20.7334 36.2608 20.7209 36.3295 20.6897 36.3919C20.6584 36.4544 20.621 36.5106 20.571 36.5606C20.521 36.6106 20.4648 36.6481 20.4023 36.673C20.3399 36.7043 20.2649 36.7168 20.1962 36.7168C20.1212 36.7168 20.0525 36.7043 19.99 36.673C19.9276 36.6418 19.8714 36.6043 19.8214 36.5606C19.7714 36.5106 19.7339 36.4544 19.7027 36.3919C19.6715 36.3295 19.659 36.2608 19.659 36.1858V36.1796ZM19.6965 36.1796C19.6965 36.242 19.7089 36.292 19.7339 36.3357C19.7589 36.3794 19.7964 36.4169 19.8401 36.4482C19.8839 36.4794 19.9401 36.4981 19.9963 36.5169C20.0588 36.5294 20.1212 36.5356 20.1837 36.5356C20.2524 36.5356 20.3149 36.5294 20.3711 36.5106C20.4336 36.4981 20.4835 36.4731 20.5273 36.4419C20.571 36.4107 20.6085 36.3732 20.6397 36.3295C20.6647 36.2858 20.6772 36.2358 20.6772 36.1733C20.6772 36.1108 20.6647 36.0609 20.6397 36.0171C20.6147 35.9734 20.5772 35.9359 20.5273 35.9047C20.4835 35.8735 20.4273 35.8547 20.3711 35.836C20.3086 35.8235 20.2462 35.811 20.1837 35.811C20.115 35.811 20.0525 35.8173 19.9963 35.8297C19.9338 35.8422 19.8839 35.8672 19.8401 35.8985C19.7964 35.9297 19.7589 35.9672 19.7339 36.0109C19.7089 36.0546 19.6965 36.1046 19.6965 36.1671V36.1796ZM19.6902 37.1353V36.8854H19.6965C19.7214 36.8979 19.7402 36.9042 19.7652 36.9104C19.7902 36.9167 19.8089 36.9229 19.8401 36.9229C19.8651 36.9229 19.8901 36.9291 19.9213 36.9291C19.9526 36.9291 19.9838 36.9291 20.0213 36.9291H20.4211C20.4773 36.9291 20.521 36.9167 20.5522 36.8979C20.5835 36.8792 20.6147 36.8542 20.6334 36.8354H20.6397L20.7521 37.0728H20.5522V37.0791C20.6147 37.129 20.6584 37.1853 20.6897 37.2477C20.7209 37.3102 20.7396 37.3727 20.7396 37.4476C20.7396 37.5476 20.7147 37.6225 20.6584 37.6725C20.6022 37.7225 20.5273 37.7475 20.4336 37.7475H20.0275C19.99 37.7475 19.9526 37.7475 19.9276 37.7475C19.8963 37.7475 19.8714 37.7475 19.8464 37.7537C19.8214 37.7537 19.7964 37.7599 19.7714 37.7662C19.7464 37.7724 19.7277 37.7787 19.7027 37.7912H19.6965V37.5413H19.7027C19.7464 37.5601 19.7964 37.5725 19.8464 37.5788C19.8963 37.585 19.9526 37.585 20.0275 37.585H20.3961C20.4273 37.585 20.4585 37.5788 20.4898 37.5725C20.521 37.5663 20.546 37.5538 20.5647 37.5351C20.5897 37.5163 20.6022 37.4976 20.6147 37.4664C20.6272 37.4351 20.6334 37.4039 20.6334 37.3664C20.6334 37.3164 20.621 37.2665 20.6022 37.2165C20.5835 37.1665 20.5522 37.1165 20.5085 37.0791H20.0213C19.9463 37.0791 19.8839 37.0791 19.8401 37.0853C19.7902 37.0916 19.7464 37.1041 19.6965 37.1228H19.6902V37.1353Z" fill="black"/>
  <path fill-rule="evenodd" clip-rule="evenodd" d="M12.9297 14.7165V19.3452H20.2507H27.5717V14.7165C26.7721 14.4541 20.2507 14.4541 20.2507 14.4541C20.2507 14.4541 13.7293 14.4541 12.9297 14.7165Z" stroke="black" stroke-width="0.899083" stroke-miterlimit="2.61313"/>
  <path fill-rule="evenodd" clip-rule="evenodd" d="M14.0831 14.5853C14.0831 13.5109 14.0144 11.943 14.1643 10.4376C14.3579 8.4699 14.9139 6.61466 16.4506 6.09619H20.2235H23.9964C26.72 7.01444 26.3639 12.1117 26.3639 14.5853C24.2463 14.4604 20.2485 14.4604 20.2485 14.4604H20.2235C19.8987 14.4604 16.0945 14.4666 14.0831 14.5853Z" stroke="black" stroke-width="0.899083" stroke-miterlimit="2.61313"/>
  <path d="M14.0771 12.2613C17.5565 11.7866 22.8724 11.7866 26.3455 12.2613" stroke="black" stroke-width="0.899083" stroke-miterlimit="2.61313"/>
  <path d="M14.752 7.66602H25.5269" stroke="black" stroke-width="0.899083" stroke-miterlimit="2.61313"/>
  <path d="M15.9434 4.94727V11.9559" stroke="black" stroke-width="0.899083" stroke-miterlimit="2.61313" stroke-linecap="round" stroke-linejoin="round"/>
  <path d="M17.6553 4.94727V11.9559" stroke="black" stroke-width="0.899083" stroke-miterlimit="2.61313" stroke-linecap="round" stroke-linejoin="round"/>
  <path d="M19.3779 4.94727V11.9559" stroke="black" stroke-width="0.899083" stroke-miterlimit="2.61313" stroke-linecap="round" stroke-linejoin="round"/>
  <path d="M21.0889 4.94727V11.9559" stroke="black" stroke-width="0.899083" stroke-miterlimit="2.61313" stroke-linecap="round" stroke-linejoin="round"/>
  <path d="M22.8105 4.94727V11.9559" stroke="black" stroke-width="0.899083" stroke-miterlimit="2.61313" stroke-linecap="round" stroke-linejoin="round"/>
  <path d="M24.5186 4.94727V11.9559" stroke="black" stroke-width="0.899083" stroke-miterlimit="2.61313" stroke-linecap="round" stroke-linejoin="round"/>
</svg>