<svg xmlns="http://www.w3.org/2000/svg" width="50" height="50" viewBox="0 0 50 50" fill="none">
  <path d="M29.8929 37.7965C28.5296 38.489 26.9859 38.8785 25.3485 38.8785C19.7727 38.8785 15.25 34.3558 15.25 28.78C15.25 28.542 15.2572 28.3111 15.2716 28.0803C15.2716 28.0803 14.608 23.7307 25.3485 8.09961C35.2956 22.5766 35.4615 27.3806 35.4327 28.0082" stroke="black" stroke-width="1.0789" stroke-miterlimit="2.61313" stroke-linecap="round" stroke-linejoin="round"/>
  <path d="M25.9608 34.2986C22.3397 34.2986 19.4111 31.3629 19.4111 27.749" stroke="black" stroke-width="1.0789" stroke-miterlimit="2.61313" stroke-linecap="round" stroke-linejoin="round"/>
  <path d="M11.8295 18.8401C14.9368 18.8401 17.4558 16.3211 17.4558 13.2137C17.4558 10.1064 14.9368 7.5874 11.8295 7.5874C8.72212 7.5874 6.20312 10.1064 6.20312 13.2137C6.20312 16.3211 8.72212 18.8401 11.8295 18.8401Z" stroke="black" stroke-width="1.0789" stroke-miterlimit="2.61313" stroke-linecap="round" stroke-linejoin="round"/>
  <path d="M12.0597 15.9543C10.4223 15.9543 9.08789 14.627 9.08789 12.9824" stroke="black" stroke-width="1.0789" stroke-miterlimit="2.61313" stroke-linecap="round" stroke-linejoin="round"/>
  <path d="M36.6569 42.4129C40.6646 42.4129 43.9134 39.1641 43.9134 35.1564C43.9134 31.1488 40.6646 27.8999 36.6569 27.8999C32.6492 27.8999 29.4004 31.1488 29.4004 35.1564C29.4004 39.1641 32.6492 42.4129 36.6569 42.4129Z" stroke="black" stroke-width="1.0789" stroke-miterlimit="2.61313" stroke-linecap="round" stroke-linejoin="round"/>
  <path fill-rule="evenodd" clip-rule="evenodd" d="M36.3333 32.3859V31.9603C36.3333 31.7727 36.4343 31.6646 36.6218 31.6646H36.6795C36.8526 31.6646 36.9608 31.7511 36.9608 31.9242V32.3642C37.3575 32.3931 37.7326 32.5301 38.0572 32.7537C38.2087 32.8547 38.2159 32.999 38.1438 33.1505L38.0428 33.338C37.9418 33.5111 37.7903 33.5256 37.6316 33.4246C37.3503 33.2443 37.033 33.1288 36.6939 33.1288C36.2611 33.1288 35.7706 33.3813 35.7706 33.8646C35.7706 34.8744 38.389 34.6797 38.389 36.4037C38.389 37.2548 37.7687 37.8247 36.9608 37.9329V38.344C36.9608 38.5243 36.867 38.6398 36.6795 38.6398H36.6218C36.4487 38.6398 36.3333 38.5532 36.3333 38.3729V37.9329C35.8572 37.8824 35.4172 37.6948 35.0421 37.3991C34.8978 37.2837 34.8834 37.1322 34.9988 36.9879L35.1214 36.8148C35.2369 36.6561 35.3811 36.6561 35.5398 36.7571C35.8644 37.0024 36.2611 37.161 36.6723 37.161C37.1267 37.161 37.5595 36.9158 37.5595 36.4181C37.5595 35.3577 34.9411 35.5164 34.9411 33.8718C34.9411 33.0639 35.5759 32.4941 36.3405 32.3642L36.3333 32.3859Z" fill="black"/>
  <path d="M41.6849 37.2554C40.8625 39.2246 38.9222 40.6023 36.6572 40.6023" stroke="black" stroke-width="1.0789" stroke-miterlimit="2.61313" stroke-linecap="round" stroke-linejoin="round"/>
  <path d="M40.1543 30.9795C40.6592 31.4051 41.0848 31.9172 41.4166 32.4943" stroke="black" stroke-width="1.0789" stroke-miterlimit="2.61313" stroke-linecap="round" stroke-linejoin="round"/>
</svg>