<svg xmlns="http://www.w3.org/2000/svg" width="50" height="50" viewBox="0 0 50 50" fill="none">
  <path d="M17.4034 16.1086C17.9013 16.1086 18.3049 15.705 18.3049 15.2071C18.3049 14.7093 17.9013 14.3057 17.4034 14.3057C16.9055 14.3057 16.502 14.7093 16.502 15.2071C16.502 15.705 16.9055 16.1086 17.4034 16.1086Z" fill="black"/>
  <path d="M16.7832 15.1119C16.9753 15.1119 17.131 14.9562 17.131 14.7642C17.131 14.5722 16.9753 14.4165 16.7832 14.4165C16.5912 14.4165 16.4355 14.5722 16.4355 14.7642C16.4355 14.9562 16.5912 15.1119 16.7832 15.1119Z" fill="white"/>
  <path fill-rule="evenodd" clip-rule="evenodd" d="M20.9993 16.3355C22.0167 16.1875 19.5248 14.6936 19.4089 14.6099C18.8551 14.2171 18.1275 13.9725 17.3484 13.9338C15.5841 13.8437 14.8372 14.5713 13.5752 15.5629C13.5752 15.5629 14.0452 15.4985 14.5539 16.0587C15.0626 16.6189 17.02 17.2885 18.7199 16.8764C20.4198 16.4643 21.0122 16.342 21.0122 16.342L20.9993 16.3355Z" stroke="black" stroke-width="0.899083" stroke-miterlimit="2.61313" stroke-linecap="round" stroke-linejoin="round"/>
  <mask id="mask0_13671_1519" style="mask-type:alpha" maskUnits="userSpaceOnUse" x="15" y="13" width="5" height="5">
    <path d="M17.4001 16.8423C18.3034 16.8423 19.0356 16.11 19.0356 15.2068C19.0356 14.3035 18.3034 13.5713 17.4001 13.5713C16.4969 13.5713 15.7646 14.3035 15.7646 15.2068C15.7646 16.11 16.4969 16.8423 17.4001 16.8423Z" stroke="black" stroke-width="0.899083" stroke-miterlimit="2.61313" stroke-linecap="round" stroke-linejoin="round"/>
  </mask>
  <g mask="url(#mask0_13671_1519)">
    <path fill-rule="evenodd" clip-rule="evenodd" d="M20.9944 16.3341C22.0118 16.186 19.5199 14.6921 19.404 14.6084C18.8503 14.2157 18.1227 13.971 17.3435 13.9324C15.5793 13.8422 14.8323 14.5698 13.5703 15.5614C13.5703 15.5614 14.0404 15.497 14.549 16.0572C15.0577 16.6174 17.0152 17.287 18.715 16.875C20.4149 16.4629 21.0073 16.3405 21.0073 16.3405L20.9944 16.3341Z" fill="black" stroke="black" stroke-width="0.899083" stroke-miterlimit="2.61313" stroke-linecap="round" stroke-linejoin="round"/>
  </g>
  <path d="M20.7625 15.6899C20.7625 15.6899 20.447 16.0183 20.5758 16.3982" stroke="black" stroke-width="0.899083" stroke-miterlimit="2.61313" stroke-linecap="round" stroke-linejoin="round"/>
  <path d="M21.1438 15.2274C21.1438 15.2274 19.9912 13.2184 17.2868 13.1927C14.5825 13.1669 13.2432 14.8153 13.2432 14.8153" stroke="black" stroke-width="0.899083" stroke-miterlimit="2.61313" stroke-linecap="round" stroke-linejoin="round"/>
  <path fill-rule="evenodd" clip-rule="evenodd" d="M21.4831 12.3611C21.4831 12.3611 21.966 11.7365 20.5752 11.0089C20.5752 11.0089 15.5142 9.50867 14.3359 9.65677C13.1576 9.80486 11.3096 11.2794 11.3096 11.2794C11.3096 11.2794 13.37 10.4874 15.7267 11.112C18.0833 11.7365 21.2449 12.6122 21.4831 12.3611V12.3611Z" stroke="black" stroke-width="0.899083" stroke-miterlimit="2.61313" stroke-linecap="round" stroke-linejoin="round"/>
  <path d="M25.5234 26.9142C25.5234 26.9142 24.8602 26.9335 24.5962 26.6309C24.3258 26.3283 23.6497 26.0578 23.1152 26.0965" stroke="black" stroke-width="0.899083" stroke-miterlimit="2.61313" stroke-linecap="round" stroke-linejoin="round"/>
  <path d="M22.347 24.5952C22.347 24.5952 21.452 26.4689 23.3128 26.778" stroke="black" stroke-width="0.899083" stroke-miterlimit="2.61313" stroke-linecap="round" stroke-linejoin="round"/>
  <path d="M22.6953 14.5117C22.6953 14.5117 24.305 15.9412 23.9831 19.8754" stroke="black" stroke-width="0.899083" stroke-miterlimit="2.61313" stroke-linecap="round" stroke-linejoin="round"/>
  <path fill-rule="evenodd" clip-rule="evenodd" d="M25.6249 30.5052C25.6249 30.5052 24.3114 29.8613 23.3842 30.3957C22.457 30.9302 19.8105 32.2566 19.8105 32.2566C19.8105 32.2566 20.9889 35.8688 25.6249 35.8688C30.261 35.8688 31.4393 32.2566 31.4393 32.2566C31.4393 32.2566 28.7929 30.9366 27.8657 30.3957C26.9385 29.8613 25.6249 30.5052 25.6249 30.5052V30.5052Z" stroke="black" stroke-width="0.899083" stroke-miterlimit="2.61313" stroke-linecap="round" stroke-linejoin="round"/>
  <path d="M25.6206 32.7023C25.6206 32.7023 25.2923 32.683 24.8802 32.5156C24.4681 32.3482 22.414 32.2645 21.416 32.4963C20.418 32.7281 20.1089 32.1743 19.04 32.1743" stroke="black" stroke-width="0.899083" stroke-miterlimit="2.61313" stroke-linecap="round" stroke-linejoin="round"/>
  <path d="M6.99805 14.6143C6.99805 14.6143 9.13578 23.603 10.2755 28.2842C11.4216 32.9653 11.7049 33.7508 14.2032 36.1075C16.708 38.4641 21.505 42.9006 25.6131 42.9006" stroke="black" stroke-width="0.899083" stroke-miterlimit="2.61313" stroke-linecap="round" stroke-linejoin="round"/>
  <path d="M33.839 16.1081C34.3368 16.1081 34.7404 15.7045 34.7404 15.2066C34.7404 14.7088 34.3368 14.3052 33.839 14.3052C33.3411 14.3052 32.9375 14.7088 32.9375 15.2066C32.9375 15.7045 33.3411 16.1081 33.839 16.1081Z" fill="black"/>
  <path d="M33.2129 15.1114C33.405 15.1114 33.5606 14.9557 33.5606 14.7637C33.5606 14.5717 33.405 14.416 33.2129 14.416C33.0209 14.416 32.8652 14.5717 32.8652 14.7637C32.8652 14.9557 33.0209 15.1114 33.2129 15.1114Z" fill="white"/>
  <path fill-rule="evenodd" clip-rule="evenodd" d="M30.2357 16.3346C29.2184 16.1865 31.7102 14.6926 31.8261 14.6089C32.3799 14.2162 33.1075 13.9715 33.8866 13.9328C35.6509 13.8427 36.3978 14.5703 37.6598 15.5619C37.6598 15.5619 37.1898 15.4975 36.6811 16.0577C36.1724 16.6179 34.215 17.2875 32.5151 16.8754C30.8152 16.4634 30.2228 16.341 30.2228 16.341L30.2357 16.3346Z" stroke="black" stroke-width="0.899083" stroke-miterlimit="2.61313" stroke-linecap="round" stroke-linejoin="round"/>
  <mask id="mask1_13671_1519" style="mask-type:alpha" maskUnits="userSpaceOnUse" x="31" y="13" width="5" height="5">
    <path d="M33.8367 16.8423C34.7399 16.8423 35.4722 16.11 35.4722 15.2068C35.4722 14.3035 34.7399 13.5713 33.8367 13.5713C32.9334 13.5713 32.2012 14.3035 32.2012 15.2068C32.2012 16.11 32.9334 16.8423 33.8367 16.8423Z" stroke="black" stroke-width="0.899083" stroke-miterlimit="2.61313" stroke-linecap="round" stroke-linejoin="round"/>
  </mask>
  <g mask="url(#mask1_13671_1519)">
    <path fill-rule="evenodd" clip-rule="evenodd" d="M30.2318 16.3346C29.2145 16.1865 31.7063 14.6926 31.8222 14.6089C32.376 14.2162 33.1036 13.9715 33.8827 13.9328C35.647 13.8427 36.3939 14.5703 37.6559 15.5619C37.6559 15.5619 37.1859 15.4975 36.6772 16.0577C36.1685 16.6179 34.2111 17.2875 32.5112 16.8754C30.8113 16.4634 30.2189 16.341 30.2189 16.341L30.2318 16.3346Z" fill="black" stroke="black" stroke-width="0.899083" stroke-miterlimit="2.61313" stroke-linecap="round" stroke-linejoin="round"/>
  </g>
  <path d="M30.4697 15.6899C30.4697 15.6899 30.7852 16.0183 30.6565 16.3982" stroke="black" stroke-width="0.899083" stroke-miterlimit="2.61313" stroke-linecap="round" stroke-linejoin="round"/>
  <path d="M30.084 15.2274C30.084 15.2274 31.2366 13.2184 33.9409 13.1927C36.6453 13.1669 37.9846 14.8153 37.9846 14.8153" stroke="black" stroke-width="0.899083" stroke-miterlimit="2.61313" stroke-linecap="round" stroke-linejoin="round"/>
  <path fill-rule="evenodd" clip-rule="evenodd" d="M29.7501 12.3611C29.7501 12.3611 29.2671 11.7365 30.658 11.0089C30.658 11.0089 35.719 9.50867 36.8973 9.65677C38.0756 9.80486 39.9236 11.2794 39.9236 11.2794C39.9236 11.2794 37.8631 10.4874 35.5065 11.112C33.1498 11.7365 29.9883 12.6122 29.7501 12.3611V12.3611Z" stroke="black" stroke-width="0.899083" stroke-miterlimit="2.61313" stroke-linecap="round" stroke-linejoin="round"/>
  <path d="M25.7148 26.9142C25.7148 26.9142 26.3781 26.9335 26.6421 26.6309C26.9125 26.3283 27.5886 26.0578 28.123 26.0965" stroke="black" stroke-width="0.899083" stroke-miterlimit="2.61313" stroke-linecap="round" stroke-linejoin="round"/>
  <path d="M28.8936 24.5952C28.8936 24.5952 29.7886 26.4689 27.9277 26.778" stroke="black" stroke-width="0.899083" stroke-miterlimit="2.61313" stroke-linecap="round" stroke-linejoin="round"/>
  <path d="M28.5354 14.5107C28.5354 14.5107 26.9257 15.9402 27.2476 19.8744" stroke="black" stroke-width="0.899083" stroke-miterlimit="2.61313" stroke-linecap="round" stroke-linejoin="round"/>
  <path d="M25.6182 32.7018C25.6182 32.7018 25.9466 32.6825 26.3586 32.5151C26.7707 32.3477 28.8248 32.264 29.8228 32.4958C30.8208 32.7276 31.1299 32.1738 32.1988 32.1738" stroke="black" stroke-width="0.899083" stroke-miterlimit="2.61313" stroke-linecap="round" stroke-linejoin="round"/>
  <path d="M44.2381 14.6143C44.2381 14.6143 42.1003 23.603 40.9606 28.2842C39.8145 32.9653 39.5312 33.7508 37.0329 36.1075C34.5281 38.4641 29.7311 42.9006 25.623 42.9006" stroke="black" stroke-width="0.899083" stroke-miterlimit="2.61313" stroke-linecap="round" stroke-linejoin="round"/>
  <path d="M45.7829 13.3779C45.7829 13.3779 47.1609 13.3972 46.6973 15.3998C46.2336 17.4023 44.5531 20.2934 44.3406 22.4375C44.1281 24.5817 43.2846 25.2127 41.7393 25.0775" stroke="black" stroke-width="0.899083" stroke-miterlimit="2.61313" stroke-linecap="round" stroke-linejoin="round"/>
  <path d="M45.4238 16.359C45.4238 16.359 45.1984 15.3932 44.7413 15.7151C44.2841 16.0371 43.3311 18.574 43.3311 18.574C43.3311 18.574 43.9428 19.8618 43.6016 20.2546C43.2603 20.6474 42.6035 21.4458 42.6035 21.4458" stroke="black" stroke-width="0.899083" stroke-miterlimit="2.61313" stroke-linecap="round" stroke-linejoin="round"/>
  <path d="M2.5006 13.2001L7.00781 8.69287L8.97221 10.6573L4.46499 15.1645L2.5006 13.2001Z" stroke="black" stroke-width="0.899083" stroke-miterlimit="2.61313" stroke-linecap="round" stroke-linejoin="round"/>
  <path fill-rule="evenodd" clip-rule="evenodd" d="M1.70726 7.89986C1.03735 8.56977 1.09525 9.71937 1.83132 10.4554L3.53918 12.1633L5.9707 9.73177L4.26284 8.02392C3.52677 7.28784 2.37717 7.23409 1.70726 7.89986Z" stroke="black" stroke-width="0.899083" stroke-miterlimit="2.61313" stroke-linecap="round" stroke-linejoin="round"/>
  <path fill-rule="evenodd" clip-rule="evenodd" d="M11.9547 19.0695L12.4013 19.5161C12.5171 19.6319 12.6825 19.6484 12.7735 19.5574L13.3648 18.9661C13.4558 18.8751 13.4351 18.7056 13.3234 18.5939L12.8768 18.1473C12.8727 17.8082 12.7197 17.4402 12.4302 17.1466L7.45553 12.1719L5.97924 13.6482L10.9539 18.6229C11.2475 18.9165 11.6156 19.0695 11.9547 19.0695V19.0695Z" stroke="black" stroke-width="0.899083" stroke-miterlimit="2.61313" stroke-linecap="round" stroke-linejoin="round"/>
  <path fill-rule="evenodd" clip-rule="evenodd" d="M12.0465 24.5153C12.0424 24.5484 12.0424 24.5856 12.0424 24.6187C12.0424 25.4582 12.7247 26.1405 13.5642 26.1405C14.4036 26.1405 15.0859 25.4582 15.0859 24.6187C15.0859 24.5815 15.0859 24.5484 15.0818 24.5153C15.0818 24.5153 15.181 23.862 13.5642 21.5049C11.9514 23.8496 12.0465 24.5071 12.0465 24.5153Z" stroke="black" stroke-width="0.899083" stroke-miterlimit="2.61313" stroke-linecap="round" stroke-linejoin="round"/>
</svg>