<svg xmlns="http://www.w3.org/2000/svg" width="50" height="50" viewBox="0 0 50 50" fill="none">
  <g clip-path="url(#clip0_13671_1397)">
    <path d="M17.4063 16.1096C17.9042 16.1096 18.3078 15.706 18.3078 15.2081C18.3078 14.7102 17.9042 14.3066 17.4063 14.3066C16.9085 14.3066 16.5049 14.7102 16.5049 15.2081C16.5049 15.706 16.9085 16.1096 17.4063 16.1096Z" fill="black"/>
    <path d="M16.7862 15.1124C16.9782 15.1124 17.1339 14.9567 17.1339 14.7647C17.1339 14.5727 16.9782 14.417 16.7862 14.417C16.5941 14.417 16.4385 14.5727 16.4385 14.7647C16.4385 14.9567 16.5941 15.1124 16.7862 15.1124Z" fill="white"/>
    <path fill-rule="evenodd" clip-rule="evenodd" d="M21.0081 16.3365C22.0255 16.1884 19.5336 14.6946 19.4177 14.6109C18.8639 14.2181 18.1363 13.9734 17.3572 13.9348C15.5929 13.8446 14.846 14.5723 13.584 15.5639C13.584 15.5639 14.054 15.4995 14.5627 16.0597C15.0714 16.6198 17.0288 17.2895 18.7287 16.8774C20.4286 16.4653 21.021 16.343 21.021 16.343L21.0081 16.3365Z" stroke="black" stroke-width="0.899083" stroke-miterlimit="2.61313" stroke-linecap="round" stroke-linejoin="round"/>
    <mask id="mask0_13671_1397" style="mask-type:alpha" maskUnits="userSpaceOnUse" x="15" y="13" width="5" height="5">
      <path d="M17.408 16.8437C18.3112 16.8437 19.0434 16.1115 19.0434 15.2082C19.0434 14.305 18.3112 13.5728 17.408 13.5728C16.5047 13.5728 15.7725 14.305 15.7725 15.2082C15.7725 16.1115 16.5047 16.8437 17.408 16.8437Z" stroke="black" stroke-width="0.899083" stroke-miterlimit="2.61313" stroke-linecap="round" stroke-linejoin="round"/>
    </mask>
    <g mask="url(#mask0_13671_1397)">
      <path fill-rule="evenodd" clip-rule="evenodd" d="M21.0071 16.3355C22.0245 16.1875 19.5326 14.6936 19.4167 14.6099C18.863 14.2171 18.1353 13.9725 17.3562 13.9338C15.592 13.8437 14.845 14.5713 13.583 15.5629C13.583 15.5629 14.0531 15.4985 14.5617 16.0587C15.0704 16.6189 17.0278 17.2885 18.7277 16.8764C20.4276 16.4643 21.02 16.342 21.02 16.342L21.0071 16.3355Z" fill="black" stroke="black" stroke-width="0.899083" stroke-miterlimit="2.61313" stroke-linecap="round" stroke-linejoin="round"/>
    </g>
    <path d="M20.7694 15.6914C20.7694 15.6914 20.4539 16.0198 20.5826 16.3997" stroke="black" stroke-width="0.899083" stroke-miterlimit="2.61313" stroke-linecap="round" stroke-linejoin="round"/>
    <path d="M21.1457 15.2288C21.1457 15.2288 19.9931 13.2199 17.2888 13.1941C14.5844 13.1684 13.2451 14.8168 13.2451 14.8168" stroke="black" stroke-width="0.899083" stroke-miterlimit="2.61313" stroke-linecap="round" stroke-linejoin="round"/>
    <path fill-rule="evenodd" clip-rule="evenodd" d="M21.49 12.3626C21.49 12.3626 21.9729 11.738 20.5821 11.0104C20.5821 11.0104 15.521 9.51014 14.3427 9.65823C13.1644 9.80633 11.3164 11.2808 11.3164 11.2808C11.3164 11.2808 13.3769 10.4889 15.7335 11.1134C18.0902 11.738 21.2517 12.6137 21.49 12.3626V12.3626Z" stroke="black" stroke-width="0.899083" stroke-miterlimit="2.61313" stroke-linecap="round" stroke-linejoin="round"/>
    <path d="M25.5302 26.9157C25.5302 26.9157 24.867 26.935 24.603 26.6324C24.3326 26.3297 23.6565 26.0593 23.1221 26.0979" stroke="black" stroke-width="0.899083" stroke-miterlimit="2.61313" stroke-linecap="round" stroke-linejoin="round"/>
    <path d="M22.3538 24.5967C22.3538 24.5967 21.4588 26.4704 23.3197 26.7795" stroke="black" stroke-width="0.899083" stroke-miterlimit="2.61313" stroke-linecap="round" stroke-linejoin="round"/>
    <path d="M22.7031 14.5127C22.7031 14.5127 24.3129 15.9421 23.9909 19.8763" stroke="black" stroke-width="0.899083" stroke-miterlimit="2.61313" stroke-linecap="round" stroke-linejoin="round"/>
    <path fill-rule="evenodd" clip-rule="evenodd" d="M25.6278 30.5066C25.6278 30.5066 24.3143 29.8628 23.3871 30.3972C22.4599 30.9316 19.8135 32.258 19.8135 32.258C19.8135 32.258 20.9918 35.8703 25.6278 35.8703C30.2639 35.8703 31.4422 32.258 31.4422 32.258C31.4422 32.258 28.7958 30.9381 27.8686 30.3972C26.9414 29.8628 25.6278 30.5066 25.6278 30.5066V30.5066Z" stroke="black" stroke-width="0.899083" stroke-miterlimit="2.61313" stroke-linecap="round" stroke-linejoin="round"/>
    <path d="M25.6236 32.7038C25.6236 32.7038 25.2952 32.6845 24.8831 32.517C24.471 32.3496 22.417 32.2659 21.4189 32.4977C20.4209 32.7295 20.1118 32.1758 19.043 32.1758" stroke="black" stroke-width="0.899083" stroke-miterlimit="2.61313" stroke-linecap="round" stroke-linejoin="round"/>
    <path d="M7.00586 14.6162C7.00586 14.6162 9.14359 23.605 10.2833 28.2861C11.4294 32.9672 11.7127 33.7528 14.211 36.1094C16.7158 38.4661 21.5128 42.9025 25.6209 42.9025" stroke="black" stroke-width="0.899083" stroke-miterlimit="2.61313" stroke-linecap="round" stroke-linejoin="round"/>
    <path d="M5.45888 13.3794C5.45888 13.3794 4.08095 13.3987 4.54455 15.4012C5.00816 17.4037 6.68872 20.2948 6.90121 22.439C7.11369 24.5832 7.95719 25.2142 9.50254 25.079" stroke="black" stroke-width="0.899083" stroke-miterlimit="2.61313" stroke-linecap="round" stroke-linejoin="round"/>
    <path d="M5.80957 16.3605C5.80957 16.3605 6.03493 15.3946 6.4921 15.7166C6.94926 16.0385 7.90223 18.5755 7.90223 18.5755C7.90223 18.5755 7.29053 19.8633 7.63179 20.256C7.97306 20.6488 8.62983 21.4472 8.62983 21.4472" stroke="black" stroke-width="0.899083" stroke-miterlimit="2.61313" stroke-linecap="round" stroke-linejoin="round"/>
    <path d="M33.8458 16.11C34.3436 16.11 34.7472 15.7064 34.7472 15.2086C34.7472 14.7107 34.3436 14.3071 33.8458 14.3071C33.3479 14.3071 32.9443 14.7107 32.9443 15.2086C32.9443 15.7064 33.3479 16.11 33.8458 16.11Z" fill="black"/>
    <path d="M33.2198 15.1134C33.4118 15.1134 33.5675 14.9577 33.5675 14.7657C33.5675 14.5736 33.4118 14.418 33.2198 14.418C33.0277 14.418 32.8721 14.5736 32.8721 14.7657C32.8721 14.9577 33.0277 15.1134 33.2198 15.1134Z" fill="white"/>
    <path fill-rule="evenodd" clip-rule="evenodd" d="M30.2377 16.3365C29.2203 16.1884 31.7122 14.6946 31.8281 14.6109C32.3818 14.2181 33.1094 13.9734 33.8886 13.9348C35.6528 13.8446 36.3997 14.5723 37.6618 15.5639C37.6618 15.5639 37.1917 15.4995 36.6831 16.0597C36.1744 16.6198 34.2169 17.2895 32.5171 16.8774C30.8172 16.4653 30.2248 16.343 30.2248 16.343L30.2377 16.3365Z" stroke="black" stroke-width="0.899083" stroke-miterlimit="2.61313" stroke-linecap="round" stroke-linejoin="round"/>
    <mask id="mask1_13671_1397" style="mask-type:alpha" maskUnits="userSpaceOnUse" x="31" y="13" width="5" height="5">
      <path d="M33.8386 16.8437C34.7419 16.8437 35.4741 16.1115 35.4741 15.2082C35.4741 14.305 34.7419 13.5728 33.8386 13.5728C32.9354 13.5728 32.2031 14.305 32.2031 15.2082C32.2031 16.1115 32.9354 16.8437 33.8386 16.8437Z" stroke="black" stroke-width="0.899083" stroke-miterlimit="2.61313" stroke-linecap="round" stroke-linejoin="round"/>
    </mask>
    <g mask="url(#mask1_13671_1397)">
      <path fill-rule="evenodd" clip-rule="evenodd" d="M30.2338 16.3355C29.2164 16.1875 31.7083 14.6936 31.8242 14.6099C32.3779 14.2171 33.1055 13.9725 33.8846 13.9338C35.6489 13.8437 36.3958 14.5713 37.6579 15.5629C37.6579 15.5629 37.1878 15.4985 36.6792 16.0587C36.1705 16.6189 34.213 17.2885 32.5131 16.8764C30.8133 16.4643 30.2209 16.342 30.2209 16.342L30.2338 16.3355Z" fill="black" stroke="black" stroke-width="0.899083" stroke-miterlimit="2.61313" stroke-linecap="round" stroke-linejoin="round"/>
    </g>
    <path d="M30.4717 15.6914C30.4717 15.6914 30.7872 16.0198 30.6584 16.3997" stroke="black" stroke-width="0.899083" stroke-miterlimit="2.61313" stroke-linecap="round" stroke-linejoin="round"/>
    <path d="M30.0859 15.2288C30.0859 15.2288 31.2385 13.2199 33.9429 13.1941C36.6472 13.1684 37.9865 14.8168 37.9865 14.8168" stroke="black" stroke-width="0.899083" stroke-miterlimit="2.61313" stroke-linecap="round" stroke-linejoin="round"/>
    <path fill-rule="evenodd" clip-rule="evenodd" d="M29.752 12.3626C29.752 12.3626 29.2691 11.738 30.6599 11.0104C30.6599 11.0104 35.7209 9.51014 36.8992 9.65823C38.0776 9.80633 39.9256 11.2808 39.9256 11.2808C39.9256 11.2808 37.8651 10.4889 35.5084 11.1134C33.1518 11.738 29.9903 12.6137 29.752 12.3626V12.3626Z" stroke="black" stroke-width="0.899083" stroke-miterlimit="2.61313" stroke-linecap="round" stroke-linejoin="round"/>
    <path d="M25.7168 26.9157C25.7168 26.9157 26.38 26.935 26.644 26.6324C26.9144 26.3297 27.5905 26.0593 28.125 26.0979" stroke="black" stroke-width="0.899083" stroke-miterlimit="2.61313" stroke-linecap="round" stroke-linejoin="round"/>
    <path d="M28.8955 24.5967C28.8955 24.5967 29.7905 26.4704 27.9297 26.7795" stroke="black" stroke-width="0.899083" stroke-miterlimit="2.61313" stroke-linecap="round" stroke-linejoin="round"/>
    <path d="M28.5374 14.5127C28.5374 14.5127 26.9277 15.9421 27.2496 19.8763" stroke="black" stroke-width="0.899083" stroke-miterlimit="2.61313" stroke-linecap="round" stroke-linejoin="round"/>
    <path d="M25.6201 32.7038C25.6201 32.7038 25.9485 32.6845 26.3606 32.517C26.7727 32.3496 28.8267 32.2659 29.8248 32.4977C30.8228 32.7295 31.1319 32.1758 32.2007 32.1758" stroke="black" stroke-width="0.899083" stroke-miterlimit="2.61313" stroke-linecap="round" stroke-linejoin="round"/>
    <path d="M44.239 14.6162C44.239 14.6162 42.1013 23.605 40.9616 28.2861C39.8155 32.9672 39.5322 33.7528 37.0338 36.1094C34.5291 38.4661 29.7321 42.9025 25.624 42.9025" stroke="black" stroke-width="0.899083" stroke-miterlimit="2.61313" stroke-linecap="round" stroke-linejoin="round"/>
    <path d="M45.7849 13.3794C45.7849 13.3794 47.1628 13.3987 46.6992 15.4012C46.2356 17.4037 44.555 20.2948 44.3426 22.439C44.1301 24.5832 43.2866 25.2142 41.7412 25.079" stroke="black" stroke-width="0.899083" stroke-miterlimit="2.61313" stroke-linecap="round" stroke-linejoin="round"/>
    <path d="M45.4257 16.3605C45.4257 16.3605 45.2004 15.3946 44.7432 15.7166C44.286 16.0385 43.3331 18.5755 43.3331 18.5755C43.3331 18.5755 43.9448 19.8633 43.6035 20.256C43.2622 20.6488 42.6055 21.4472 42.6055 21.4472" stroke="black" stroke-width="0.899083" stroke-miterlimit="2.61313" stroke-linecap="round" stroke-linejoin="round"/>
    <path fill-rule="evenodd" clip-rule="evenodd" d="M7.27148 35.7486C10.4652 35.7486 13.0537 32.6321 13.0537 28.7881C13.0537 32.6321 15.6421 35.7486 18.8358 35.7486C15.6421 35.7486 13.0537 38.8651 13.0537 42.7091C13.0537 38.8651 10.4652 35.7486 7.27148 35.7486Z" fill="white" stroke="black" stroke-width="0.899083" stroke-miterlimit="2.61313" stroke-linecap="round" stroke-linejoin="round"/>
    <path fill-rule="evenodd" clip-rule="evenodd" d="M0.496094 30.8297C2.16378 30.8297 3.51596 29.0976 3.51596 26.9663C3.51596 29.0976 4.86814 30.8297 6.53583 30.8297C4.86814 30.8297 3.51596 32.5618 3.51596 34.6931C3.51596 32.5618 2.16378 30.8297 0.496094 30.8297Z" fill="white" stroke="black" stroke-width="0.899083" stroke-miterlimit="2.61313" stroke-linecap="round" stroke-linejoin="round"/>
    <path fill-rule="evenodd" clip-rule="evenodd" d="M35.9131 22.5958C37.4249 22.5958 38.6506 21.0853 38.6506 19.2266C38.6506 21.0853 39.8764 22.5958 41.3881 22.5958C39.8764 22.5958 38.6506 24.1064 38.6506 25.9651C38.6506 24.1064 37.4249 22.5958 35.9131 22.5958Z" fill="white" stroke="black" stroke-width="0.899083" stroke-miterlimit="2.61313" stroke-linecap="round" stroke-linejoin="round"/>
  </g>
  <defs>
    <clipPath id="clip0_13671_1397">
      <rect width="50" height="50" fill="white"/>
    </clipPath>
  </defs>
</svg>