<svg xmlns="http://www.w3.org/2000/svg" width="71" height="70" viewBox="0 0 71 70" fill="none">
  <g opacity="0.8" clip-path="url(#clip0_16666_3507)">
    <rect width="70" height="70" transform="translate(0.5)" fill="white"/>
    <path d="M1 8H18.6155C23.0338 8 26.6155 11.5817 26.6155 16V51.4349H1V8Z" stroke="black" stroke-width="2"/>
    <path d="M38.866 51.4349H29.9563V16C29.9563 11.5817 33.538 8 37.9563 8H55.5718V29.7175" stroke="black" stroke-width="2" stroke-linecap="round"/>
    <path d="M54.5435 35.3156V35.3156C56.3465 33.9033 58.953 34.2201 60.3652 36.0232L62.9747 39.3547C66.8797 44.3404 66.0037 51.5478 61.018 55.4528L58.2601 57.613C56.6236 58.8947 54.5451 59.4739 52.4816 59.2231V59.2231C50.4181 58.9723 48.5388 57.912 47.2571 56.2756L43.2773 51.1945C42.4955 50.1964 42.6709 48.7535 43.669 47.9718V47.9718C44.6671 47.19 46.1099 47.3654 46.8917 48.3635L48.6725 50.637M56.5526 37.8806L54.9545 35.8402C54.2231 34.9065 52.8734 34.7425 51.9397 35.4738V35.4738V35.4738C51.006 36.2051 50.8419 37.5549 51.5732 38.4886L52.4408 39.5962" stroke="black" stroke-width="2"/>
    <path d="M48.3438 42.0523L40.2161 31.6755C39.3586 30.5808 37.7762 30.3884 36.6815 31.2458V31.2458C35.5868 32.1033 35.3944 33.6857 36.2519 34.7804L47.1192 48.6551" stroke="black" stroke-width="2"/>
    <path d="M51.7586 38.7272L50.9797 37.7327C50.1727 36.7024 48.6833 36.5214 47.6531 37.3283V37.3283C46.6228 38.1353 46.4417 39.6247 47.2487 40.655L49.0752 42.9869" stroke="black" stroke-width="2"/>
  </g>
  <defs>
    <clipPath id="clip0_16666_3507">
      <rect width="70" height="70" fill="white" transform="translate(0.5)"/>
    </clipPath>
  </defs>
</svg>