<svg width="46" height="45" viewBox="0 0 46 45" fill="none" xmlns="http://www.w3.org/2000/svg">
<g id="Frame 1000008407">
<g id="Group 1000004025">
<path id="Vector 182" d="M10.4954 6.04511H17.3526L19.9686 5.99973V12.3294L22.6273 20.8144L29.4845 30.8364V37.6935H25.7921L19.9899 34.0012L17.3526 25.0342H10.4954L7.33057 20.8144L10.4954 16.5946V6.04511Z" stroke="black"/>
<path id="Vector 183" d="M4.16509 32.3737V22.8792L8.38488 28.1539H13.6596V32.3737H9.9673L8.38488 34.4836L4.16509 37.6484L1.00024 34.4836L4.16509 32.3737Z" stroke="black"/>
<path id="Vector 184" d="M35.814 19.7144L38.4514 17.6045L40.0338 15.4946H45.3085V19.7144L42.1437 20.2419L42.6712 22.8793L35.814 24.9892L32.6492 21.8243L35.814 19.7144Z" stroke="black"/>
<path id="Vector 185" d="M29.4837 10.2195L32.1211 8.10965L33.7035 5.99976L36.3408 8.10965L38.9782 10.2195L35.8134 10.747L36.3408 13.3844L31.0661 11.802L26.3188 12.3294L29.4837 10.2195Z" stroke="black"/>
<path id="Vector 186" d="M26.3188 16.5492L27.9013 13.9119L30.5386 14.4393H33.176L35.8134 16.5492L34.7584 18.6591L33.176 19.7141L27.9013 18.1317L28.4287 16.5492H26.3188Z" stroke="black"/>
</g>
</g>
</svg>
