<svg xmlns="http://www.w3.org/2000/svg" width="72" height="57" viewBox="0 0 83 57" fill="none">
  <path d="M28.0398 11.6865C28.8632 11.6865 29.5307 11.019 29.5307 10.1955C29.5307 9.37211 28.8632 8.70459 28.0398 8.70459C27.2163 8.70459 26.5488 9.37211 26.5488 10.1955C26.5488 11.019 27.2163 11.6865 28.0398 11.6865Z" fill="black"/>
  <path d="M27.0165 10.0374C27.3341 10.0374 27.5916 9.77989 27.5916 9.46228C27.5916 9.14468 27.3341 8.88721 27.0165 8.88721C26.6989 8.88721 26.4414 9.14468 26.4414 9.46228C26.4414 9.77989 26.6989 10.0374 27.0165 10.0374Z" fill="white"/>
  <path fill-rule="evenodd" clip-rule="evenodd" d="M33.986 12.0624C35.6686 11.8175 31.5472 9.34677 31.3555 9.20833C30.4397 8.5587 29.2363 8.15402 27.9477 8.09012C25.0297 7.94103 23.7943 9.14443 21.707 10.7845C21.707 10.7845 22.4845 10.678 23.3258 11.6045C24.1671 12.531 27.4046 13.6386 30.216 12.957C33.0275 12.2754 34.0073 12.0731 34.0073 12.0731L33.986 12.0624Z" stroke="black" stroke-miterlimit="2.61313" stroke-linecap="round" stroke-linejoin="round"/>
  <mask id="mask0_11532_803" style="mask-type:alpha" maskUnits="userSpaceOnUse" x="24" y="6" width="8" height="8">
    <path d="M28.037 12.9017C29.5309 12.9017 30.742 11.6906 30.742 10.1967C30.742 8.70276 29.5309 7.4917 28.037 7.4917C26.5431 7.4917 25.332 8.70276 25.332 10.1967C25.332 11.6906 26.5431 12.9017 28.037 12.9017Z" stroke="black" stroke-miterlimit="2.61313" stroke-linecap="round" stroke-linejoin="round"/>
  </mask>
  <g mask="url(#mask0_11532_803)">
    <path fill-rule="evenodd" clip-rule="evenodd" d="M33.984 12.0614C35.6667 11.8165 31.5453 9.34579 31.3536 9.20735C30.4377 8.55773 29.2343 8.15304 27.9457 8.08914C25.0277 7.94005 23.7924 9.14345 21.7051 10.7835C21.7051 10.7835 22.4825 10.677 23.3238 11.6035C24.1651 12.53 27.4026 13.6376 30.2141 12.956C33.0256 12.2744 34.0053 12.0721 34.0053 12.0721L33.984 12.0614Z" fill="black" stroke="black" stroke-miterlimit="2.61313" stroke-linecap="round" stroke-linejoin="round"/>
  </g>
  <path d="M33.5982 10.9961C33.5982 10.9961 33.0764 11.5392 33.2894 12.1675" stroke="black" stroke-miterlimit="2.61313" stroke-linecap="round" stroke-linejoin="round"/>
  <path d="M34.2272 10.2295C34.2272 10.2295 32.3209 6.90686 27.8481 6.86426C23.3753 6.82167 21.1602 9.54795 21.1602 9.54795" stroke="black" stroke-miterlimit="2.61313" stroke-linecap="round" stroke-linejoin="round"/>
  <path fill-rule="evenodd" clip-rule="evenodd" d="M34.7853 5.48982C34.7853 5.48982 35.584 4.45682 33.2837 3.25342C33.2837 3.25342 24.9132 0.77207 22.9643 1.01701C21.0154 1.26195 17.959 3.7007 17.959 3.7007C17.959 3.7007 21.3668 2.3908 25.2646 3.42381C29.1623 4.45682 34.3913 5.90516 34.7853 5.48982V5.48982Z" stroke="black" stroke-miterlimit="2.61313" stroke-linecap="round" stroke-linejoin="round"/>
  <path d="M41.4673 29.5608C41.4673 29.5608 40.3704 29.5927 39.9338 29.0922C39.4865 28.5916 38.3683 28.1444 37.4844 28.2083" stroke="black" stroke-miterlimit="2.61313" stroke-linecap="round" stroke-linejoin="round"/>
  <path d="M36.2133 25.7241C36.2133 25.7241 34.733 28.8231 37.8107 29.3343" stroke="black" stroke-miterlimit="2.61313" stroke-linecap="round" stroke-linejoin="round"/>
  <path d="M36.7949 9.04541C36.7949 9.04541 39.4573 11.4096 38.9248 17.9165" stroke="black" stroke-miterlimit="2.61313" stroke-linecap="round" stroke-linejoin="round"/>
  <path fill-rule="evenodd" clip-rule="evenodd" d="M41.6322 35.4997C41.6322 35.4997 39.4597 34.4347 37.9261 35.3186C36.3926 36.2025 32.0156 38.3963 32.0156 38.3963C32.0156 38.3963 33.9645 44.3707 41.6322 44.3707C49.2999 44.3707 51.2487 38.3963 51.2487 38.3963C51.2487 38.3963 46.8718 36.2132 45.3382 35.3186C43.8047 34.4347 41.6322 35.4997 41.6322 35.4997V35.4997Z" stroke="black" stroke-miterlimit="2.61313" stroke-linecap="round" stroke-linejoin="round"/>
  <path d="M41.626 39.1316C41.626 39.1316 41.0829 39.0996 40.4013 38.8227C39.7198 38.5458 36.3226 38.4074 34.6719 38.7908C33.0212 39.1742 32.51 38.2583 30.7422 38.2583" stroke="black" stroke-miterlimit="2.61313" stroke-linecap="round" stroke-linejoin="round"/>
  <path d="M10.8281 9.2168C10.8281 9.2168 14.3638 24.0836 16.2488 31.8258C18.1444 39.5681 18.613 40.8673 22.745 44.7651C26.8877 48.6628 34.8216 56.0003 41.616 56.0003" stroke="black" stroke-miterlimit="2.61313" stroke-linecap="round" stroke-linejoin="round"/>
  <path d="M8.27538 7.17188C8.27538 7.17188 5.99637 7.20382 6.76314 10.5158C7.52991 13.8279 10.3094 18.6095 10.6609 22.1558C11.0123 25.7021 12.4074 26.7458 14.9633 26.5221" stroke="black" stroke-miterlimit="2.61313" stroke-linecap="round" stroke-linejoin="round"/>
  <path d="M8.85938 12.1018C8.85938 12.1018 9.23211 10.5044 9.98823 11.0369C10.7443 11.5694 12.3205 15.7653 12.3205 15.7653C12.3205 15.7653 11.3088 17.8952 11.8732 18.5448C12.4376 19.1945 13.5239 20.515 13.5239 20.515" stroke="black" stroke-miterlimit="2.61313" stroke-linecap="round" stroke-linejoin="round"/>
  <path d="M55.2136 11.6865C56.037 11.6865 56.7045 11.019 56.7045 10.1955C56.7045 9.37211 56.037 8.70459 55.2136 8.70459C54.3902 8.70459 53.7227 9.37211 53.7227 10.1955C53.7227 11.019 54.3902 11.6865 55.2136 11.6865Z" fill="black"/>
  <path d="M54.1825 10.0374C54.5001 10.0374 54.7576 9.77989 54.7576 9.46228C54.7576 9.14468 54.5001 8.88721 54.1825 8.88721C53.8649 8.88721 53.6074 9.14468 53.6074 9.46228C53.6074 9.77989 53.8649 10.0374 54.1825 10.0374Z" fill="white"/>
  <path fill-rule="evenodd" clip-rule="evenodd" d="M49.2582 12.0624C47.5756 11.8175 51.697 9.34677 51.8887 9.20833C52.8045 8.5587 54.0079 8.15402 55.2965 8.09012C58.2145 7.94103 59.4499 9.14443 61.5372 10.7845C61.5372 10.7845 60.7598 10.678 59.9185 11.6045C59.0771 12.531 55.8397 13.6386 53.0282 12.957C50.2167 12.2754 49.2369 12.0731 49.2369 12.0731L49.2582 12.0624Z" stroke="black" stroke-miterlimit="2.61313" stroke-linecap="round" stroke-linejoin="round"/>
  <mask id="mask1_11532_803" style="mask-type:alpha" maskUnits="userSpaceOnUse" x="52" y="6" width="7" height="8">
    <path d="M55.2148 12.9017C56.7087 12.9017 57.9197 11.6906 57.9197 10.1967C57.9197 8.70276 56.7087 7.4917 55.2148 7.4917C53.7208 7.4917 52.5098 8.70276 52.5098 10.1967C52.5098 11.6906 53.7208 12.9017 55.2148 12.9017Z" stroke="black" stroke-miterlimit="2.61313" stroke-linecap="round" stroke-linejoin="round"/>
  </mask>
  <g mask="url(#mask1_11532_803)">
    <path fill-rule="evenodd" clip-rule="evenodd" d="M49.2563 12.0624C47.5737 11.8175 51.695 9.34677 51.8867 9.20833C52.8026 8.5587 54.006 8.15402 55.2946 8.09012C58.2126 7.94103 59.4479 9.14443 61.5352 10.7845C61.5352 10.7845 60.7578 10.678 59.9165 11.6045C59.0752 12.531 55.8377 13.6385 53.0262 12.957C50.2147 12.2754 49.235 12.0731 49.235 12.0731L49.2563 12.0624Z" fill="black" stroke="black" stroke-miterlimit="2.61313" stroke-linecap="round" stroke-linejoin="round"/>
  </g>
  <path d="M49.6504 10.9961C49.6504 10.9961 50.1722 11.5392 49.9592 12.1675" stroke="black" stroke-miterlimit="2.61313" stroke-linecap="round" stroke-linejoin="round"/>
  <path d="M49.0137 10.2295C49.0137 10.2295 50.9199 6.90686 55.3928 6.86426C59.8656 6.82167 62.0807 9.54795 62.0807 9.54795" stroke="black" stroke-miterlimit="2.61313" stroke-linecap="round" stroke-linejoin="round"/>
  <path fill-rule="evenodd" clip-rule="evenodd" d="M48.4584 5.48982C48.4584 5.48982 47.6597 4.45682 49.96 3.25342C49.96 3.25342 58.3305 0.77207 60.2794 1.01701C62.2283 1.26195 65.2847 3.7007 65.2847 3.7007C65.2847 3.7007 61.8768 2.3908 57.9791 3.42381C54.0813 4.45682 48.8524 5.90516 48.4584 5.48982V5.48982Z" stroke="black" stroke-miterlimit="2.61313" stroke-linecap="round" stroke-linejoin="round"/>
  <path d="M41.7793 29.5608C41.7793 29.5608 42.8762 29.5927 43.3128 29.0922C43.7601 28.5916 44.8783 28.1444 45.7622 28.2083" stroke="black" stroke-miterlimit="2.61313" stroke-linecap="round" stroke-linejoin="round"/>
  <path d="M47.0427 25.7241C47.0427 25.7241 48.523 28.8231 45.4453 29.3343" stroke="black" stroke-miterlimit="2.61313" stroke-linecap="round" stroke-linejoin="round"/>
  <path d="M46.4484 9.04541C46.4484 9.04541 43.786 11.4096 44.3185 17.9165" stroke="black" stroke-miterlimit="2.61313" stroke-linecap="round" stroke-linejoin="round"/>
  <path d="M41.623 39.1316C41.623 39.1316 42.1662 39.0996 42.8477 38.8227C43.5293 38.5458 46.9265 38.4074 48.5772 38.7908C50.2279 39.1742 50.7391 38.2583 52.5069 38.2583" stroke="black" stroke-miterlimit="2.61313" stroke-linecap="round" stroke-linejoin="round"/>
  <path d="M72.4187 9.2168C72.4187 9.2168 68.8831 24.0836 66.9981 31.8258C65.1025 39.5681 64.6339 40.8673 60.5019 44.7651C56.3592 48.6628 48.4253 56.0003 41.6309 56.0003" stroke="black" stroke-miterlimit="2.61313" stroke-linecap="round" stroke-linejoin="round"/>
  <path d="M74.9731 7.17188C74.9731 7.17188 77.2521 7.20382 76.4853 10.5158C75.7186 13.8279 72.939 18.6095 72.5876 22.1558C72.2361 25.7021 70.8411 26.7458 68.2852 26.5221" stroke="black" stroke-miterlimit="2.61313" stroke-linecap="round" stroke-linejoin="round"/>
  <path d="M74.3833 12.1018C74.3833 12.1018 74.0105 10.5044 73.2544 11.0369C72.4983 11.5694 70.9222 15.7653 70.9222 15.7653C70.9222 15.7653 71.9339 17.8952 71.3694 18.5448C70.805 19.1945 69.7188 20.515 69.7188 20.515" stroke="black" stroke-miterlimit="2.61313" stroke-linecap="round" stroke-linejoin="round"/>
  <path d="M51.4105 20.4502C51.3312 20.3465 51.3495 20.1939 51.4532 20.1146C51.557 20.0353 51.7095 20.0536 51.7888 20.1573L51.4105 20.4502ZM79.4983 22.531L79.84 22.8728L78.4488 24.1725L77.0697 25.2953L75.7028 26.2472L74.3482 27.0405L73.0057 27.6812L71.6816 28.1816L70.3818 28.5477L69.1004 28.7857L67.8495 28.9077L66.623 28.9199L65.427 28.8345L64.2676 28.6575L63.1448 28.4012L62.0586 28.0778L61.0152 27.6873L60.0144 27.2479L59.0564 26.7659L58.1411 26.2472L57.2746 25.7041L56.463 25.1427L55.7003 24.5752L54.9924 24.0138L54.3456 23.4586L53.7537 22.9277L53.2228 22.4212L52.7591 21.9574L52.3563 21.5364L52.0207 21.1703L51.7583 20.8713L51.5692 20.6455L51.4532 20.5052L51.4105 20.4502L51.7888 20.1573L51.8255 20.2L51.9353 20.3404L52.1184 20.5601L52.3746 20.853L52.6981 21.213L53.0886 21.6279L53.5462 22.0856L54.0649 22.5799L54.6446 23.1046L55.2853 23.6477L55.981 24.203L56.7254 24.7583L57.5248 25.3075L58.373 25.8384L59.2639 26.3448L60.2036 26.8147L61.1799 27.2418L62.199 27.6202L63.2546 27.9375L64.3469 28.1877L65.4697 28.3585L66.623 28.4439L67.8068 28.4317L69.0211 28.3158L70.2598 28.0839L71.5229 27.73L72.8044 27.2479L74.1102 26.6255L75.4343 25.8506L76.7707 24.9169L78.1254 23.8186L79.4922 22.5371L79.4983 22.531ZM81.6524 20.7187L80.6089 23.8613L78.5159 21.7683L81.6524 20.7187ZM79.4983 22.531C79.5899 22.4395 79.7424 22.4395 79.84 22.531C79.9316 22.6226 79.9316 22.7751 79.84 22.8728L79.4983 22.531Z" fill="black"/>
  <path d="M51.4105 20.4502C51.3312 20.3465 51.3495 20.1939 51.4532 20.1146C51.557 20.0353 51.7095 20.0536 51.7888 20.1573M51.4105 20.4502L51.7888 20.1573M51.4105 20.4502L51.4532 20.5052L51.5692 20.6455L51.7583 20.8713L52.0207 21.1703L52.3563 21.5364L52.7591 21.9574L53.2228 22.4212L53.7537 22.9277L54.3456 23.4586L54.9924 24.0138L55.7003 24.5752L56.463 25.1427L57.2746 25.7041L58.1411 26.2472L59.0564 26.7659L60.0144 27.2479L61.0152 27.6873L62.0586 28.0778L63.1448 28.4012L64.2676 28.6575L65.427 28.8345L66.623 28.9199L67.8495 28.9077L69.1004 28.7857L70.3818 28.5477L71.6816 28.1816L73.0057 27.6812L74.3482 27.0405L75.7028 26.2472L77.0697 25.2953L78.4488 24.1725L79.84 22.8728M51.7888 20.1573L51.8255 20.2L51.9353 20.3404L52.1184 20.5601L52.3746 20.853L52.6981 21.213L53.0886 21.6279L53.5462 22.0856L54.0649 22.5799L54.6446 23.1046L55.2853 23.6477L55.981 24.203L56.7254 24.7583L57.5248 25.3075L58.373 25.8384L59.2639 26.3448L60.2036 26.8147L61.1799 27.2418L62.199 27.6202L63.2546 27.9375L64.3469 28.1877L65.4697 28.3585L66.623 28.4439L67.8068 28.4317L69.0211 28.3158L70.2598 28.0839L71.5229 27.73L72.8044 27.2479L74.1102 26.6255L75.4343 25.8506L76.7707 24.9169L78.1254 23.8186L79.4922 22.5371L79.4983 22.531M79.4983 22.531L79.84 22.8728M79.4983 22.531C79.5899 22.4395 79.7424 22.4395 79.84 22.531C79.9316 22.6226 79.9316 22.7751 79.84 22.8728M81.6524 20.7187L80.6089 23.8613L78.5159 21.7683L81.6524 20.7187Z" stroke="black"/>
  <path d="M31.3635 20.1573C31.4428 20.0536 31.5954 20.0353 31.6991 20.1146C31.8029 20.1939 31.8212 20.3465 31.7418 20.4502L31.3635 20.1573ZM3.31231 22.8728L3.65403 22.531L5.02089 23.8125L6.37555 24.9108L7.7119 25.8445L9.03605 26.6194L10.3419 27.2418L11.6233 27.7239L12.8865 28.0778L14.1252 28.3097L15.3395 28.4256L16.5233 28.4378L17.6766 28.3524L18.7994 28.1816L19.8916 27.9314L20.9473 27.6141L21.9663 27.2357L22.9427 26.8086L23.8824 26.3387L24.7733 25.8323L25.6215 25.3014L26.4208 24.7522L27.1653 24.1969L27.8609 23.6416L28.5016 23.0985L29.0813 22.5738L29.6 22.0795L30.0577 21.6218L30.4482 21.2069L30.7716 20.8469L31.0279 20.554L31.211 20.3343L31.3208 20.194L31.3574 20.1512L31.7357 20.4441L31.693 20.4991L31.5771 20.6394L31.3879 20.8652L31.1255 21.1642L30.7899 21.5303L30.3872 21.9513L29.9234 22.4151L29.3925 22.9216L28.8006 23.4525L28.1538 24.0077L27.446 24.5691L26.6832 25.1366L25.8717 25.698L25.0052 26.2411L24.0898 26.7598L23.1318 27.2418L22.1311 27.6812L21.0876 28.0717L20.0015 28.3951L18.8787 28.6514L17.7193 28.8284L16.5233 28.9138L15.2968 28.9016L14.0458 28.7796L12.7644 28.5416L11.4647 28.1754L10.1405 27.6751L8.79807 27.0344L7.44341 26.2411L6.07655 25.2892L4.69748 24.1664L3.30621 22.8667L3.31231 22.8728ZM1.5 20.7126L4.64256 21.7622L2.54956 23.8552L1.5 20.7126ZM3.31231 22.8728C3.22078 22.7812 3.22078 22.6287 3.31231 22.531C3.40384 22.4395 3.5564 22.4395 3.65403 22.531L3.31231 22.8728Z" fill="black"/>
  <path d="M3.31231 22.8728L3.65403 22.531M3.31231 22.8728L3.30621 22.8667L4.69748 24.1664L6.07655 25.2892L7.44341 26.2411L8.79807 27.0344L10.1405 27.6751L11.4647 28.1754L12.7644 28.5416L14.0458 28.7796L15.2968 28.9016L16.5233 28.9138L17.7193 28.8284L18.8787 28.6514L20.0015 28.3951L21.0876 28.0717L22.1311 27.6812L23.1318 27.2418L24.0898 26.7598L25.0052 26.2411L25.8716 25.698L26.6832 25.1366L27.446 24.5691L28.1538 24.0077L28.8006 23.4525L29.3925 22.9216L29.9234 22.4151L30.3872 21.9513L30.7899 21.5303L31.1255 21.1642L31.3879 20.8652L31.5771 20.6394L31.693 20.4991L31.7357 20.4441L31.3574 20.1512L31.3208 20.194L31.211 20.3343L31.0279 20.554L30.7716 20.8469L30.4482 21.2069L30.0577 21.6218L29.6 22.0795L29.0813 22.5738L28.5016 23.0985L27.8609 23.6416L27.1653 24.1969L26.4208 24.7522L25.6215 25.3014L24.7733 25.8323L23.8824 26.3387L22.9427 26.8086L21.9663 27.2357L20.9473 27.6141L19.8916 27.9314L18.7994 28.1816L17.6766 28.3524L16.5233 28.4378L15.3395 28.4256L14.1252 28.3097L12.8865 28.0778L11.6233 27.7239L10.3419 27.2418L9.03605 26.6194L7.7119 25.8445L6.37555 24.9108L5.02089 23.8125L3.65403 22.531M3.31231 22.8728C3.22078 22.7812 3.22078 22.6287 3.31231 22.531C3.40384 22.4395 3.5564 22.4395 3.65403 22.531M31.3635 20.1573C31.4428 20.0536 31.5954 20.0353 31.6991 20.1146C31.8029 20.1939 31.8212 20.3465 31.7418 20.4502L31.3635 20.1573ZM1.5 20.7126L4.64256 21.7622L2.54956 23.8552L1.5 20.7126Z" stroke="black"/>
</svg>