<svg xmlns="http://www.w3.org/2000/svg" width="72" height="57" viewBox="0 0 71 55" fill="none">
  <path d="M23.9511 11.2332C24.7395 11.2332 25.3787 10.594 25.3787 9.80557C25.3787 9.01711 24.7395 8.37793 23.9511 8.37793C23.1626 8.37793 22.5234 9.01711 22.5234 9.80557C22.5234 10.594 23.1626 11.2332 23.9511 11.2332Z" fill="black"/>
  <path d="M22.9706 9.65405C23.2747 9.65405 23.5212 9.40751 23.5212 9.10339C23.5212 8.79927 23.2747 8.55273 22.9706 8.55273C22.6665 8.55273 22.4199 8.79927 22.4199 9.10339C22.4199 9.40751 22.6665 9.65405 22.9706 9.65405Z" fill="white"/>
  <path fill-rule="evenodd" clip-rule="evenodd" d="M29.6482 11.5929C31.2594 11.3584 27.313 8.99259 27.1295 8.86003C26.2525 8.23798 25.1002 7.85048 23.8663 7.7893C21.0722 7.64653 19.8893 8.79884 17.8906 10.3692C17.8906 10.3692 18.635 10.2673 19.4406 11.1544C20.2462 12.0416 23.3462 13.1022 26.0384 12.4495C28.7305 11.7969 29.6686 11.6031 29.6686 11.6031L29.6482 11.5929Z" stroke="black" stroke-miterlimit="2.61313" stroke-linecap="round" stroke-linejoin="round"/>
  <mask id="mask0_11532_562" style="mask-type:alpha" maskUnits="userSpaceOnUse" x="20" y="6" width="8" height="7">
    <path d="M23.9534 12.3961C25.3839 12.3961 26.5436 11.2365 26.5436 9.80596C26.5436 8.37546 25.3839 7.21582 23.9534 7.21582C22.5229 7.21582 21.3633 8.37546 21.3633 9.80596C21.3633 11.2365 22.5229 12.3961 23.9534 12.3961Z" stroke="black" stroke-miterlimit="2.61313" stroke-linecap="round" stroke-linejoin="round"/>
  </mask>
  <g mask="url(#mask0_11532_562)">
    <path fill-rule="evenodd" clip-rule="evenodd" d="M29.6502 11.592C31.2614 11.3574 27.315 8.99162 27.1314 8.85905C26.2545 8.23701 25.1021 7.84951 23.8683 7.78832C21.0742 7.64556 19.8913 8.79786 17.8926 10.3683C17.8926 10.3683 18.637 10.2663 19.4426 11.1535C20.2482 12.0406 23.3482 13.1012 26.0403 12.4485C28.7324 11.7959 29.6706 11.6022 29.6706 11.6022L29.6502 11.592Z" fill="black" stroke="black" stroke-miterlimit="2.61313" stroke-linecap="round" stroke-linejoin="round"/>
  </g>
  <path d="M29.2763 10.5713C29.2763 10.5713 28.7766 11.0914 28.9806 11.693" stroke="black" stroke-miterlimit="2.61313" stroke-linecap="round" stroke-linejoin="round"/>
  <path d="M29.8775 9.83808C29.8775 9.83808 28.0521 6.6565 23.7692 6.61571C19.4863 6.57492 17.3652 9.18545 17.3652 9.18545" stroke="black" stroke-miterlimit="2.61313" stroke-linecap="round" stroke-linejoin="round"/>
  <path fill-rule="evenodd" clip-rule="evenodd" d="M30.4127 5.2992C30.4127 5.2992 31.1775 4.31005 28.9749 3.15774C28.9749 3.15774 20.9597 0.781748 19.0936 1.01629C17.2274 1.25083 14.3008 3.58603 14.3008 3.58603C14.3008 3.58603 17.564 2.33175 21.2962 3.3209C25.0285 4.31005 30.0354 5.69689 30.4127 5.2992V5.2992Z" stroke="black" stroke-miterlimit="2.61313" stroke-linecap="round" stroke-linejoin="round"/>
  <path d="M36.8119 28.3478C36.8119 28.3478 35.7615 28.3784 35.3435 27.8991C34.9152 27.4198 33.8444 26.9915 32.998 27.0527" stroke="black" stroke-miterlimit="2.61313" stroke-linecap="round" stroke-linejoin="round"/>
  <path d="M31.7782 24.6738C31.7782 24.6738 30.3608 27.6413 33.3079 28.1307" stroke="black" stroke-miterlimit="2.61313" stroke-linecap="round" stroke-linejoin="round"/>
  <path d="M32.3379 8.7041C32.3379 8.7041 34.8872 10.9679 34.3774 17.1985" stroke="black" stroke-miterlimit="2.61313" stroke-linecap="round" stroke-linejoin="round"/>
  <path fill-rule="evenodd" clip-rule="evenodd" d="M36.97 34.0347C36.97 34.0347 34.8897 33.015 33.4213 33.8613C31.9529 34.7077 27.7617 36.8084 27.7617 36.8084C27.7617 36.8084 29.6278 42.5291 36.97 42.5291C44.3121 42.5291 46.1782 36.8084 46.1782 36.8084C46.1782 36.8084 41.9871 34.7179 40.5187 33.8613C39.0502 33.015 36.97 34.0347 36.97 34.0347V34.0347Z" stroke="black" stroke-miterlimit="2.61313" stroke-linecap="round" stroke-linejoin="round"/>
  <path d="M36.9647 37.5129C36.9647 37.5129 36.4446 37.4824 35.792 37.2172C35.1394 36.9521 31.8864 36.8195 30.3058 37.1866C28.7252 37.5537 28.2357 36.6768 26.543 36.6768" stroke="black" stroke-miterlimit="2.61313" stroke-linecap="round" stroke-linejoin="round"/>
  <path d="M7.47461 8.86719C7.47461 8.86719 10.8601 23.1028 12.6651 30.5163C14.4802 37.9298 14.9289 39.1739 18.8855 42.9061C22.8523 46.6384 30.4494 53.6644 36.9553 53.6644" stroke="black" stroke-miterlimit="2.61313" stroke-linecap="round" stroke-linejoin="round"/>
  <path d="M5.0287 6.90918C5.0287 6.90918 2.84645 6.93977 3.58067 10.1112C4.31488 13.2826 6.9764 17.8612 7.31291 21.2569C7.64943 24.6527 8.98529 25.652 11.4327 25.4379" stroke="black" stroke-miterlimit="2.61313" stroke-linecap="round" stroke-linejoin="round"/>
  <path d="M5.58789 11.6306C5.58789 11.6306 5.9448 10.101 6.66881 10.6109C7.39283 11.1208 8.90205 15.1385 8.90205 15.1385C8.90205 15.1385 7.93329 17.178 8.47376 17.8001C9.01422 18.4221 10.0544 19.6866 10.0544 19.6866" stroke="black" stroke-miterlimit="2.61313" stroke-linecap="round" stroke-linejoin="round"/>
  <path d="M49.9784 11.2332C50.7669 11.2332 51.4061 10.594 51.4061 9.80557C51.4061 9.01711 50.7669 8.37793 49.9784 8.37793C49.19 8.37793 48.5508 9.01711 48.5508 9.80557C48.5508 10.594 49.19 11.2332 49.9784 11.2332Z" fill="black"/>
  <path d="M48.9901 9.65405C49.2942 9.65405 49.5408 9.40751 49.5408 9.10339C49.5408 8.79927 49.2942 8.55273 48.9901 8.55273C48.686 8.55273 48.4395 8.79927 48.4395 9.10339C48.4395 9.40751 48.686 9.65405 48.9901 9.65405Z" fill="white"/>
  <path fill-rule="evenodd" clip-rule="evenodd" d="M44.2743 11.5929C42.6632 11.3584 46.6095 8.99259 46.7931 8.86003C47.6701 8.23798 48.8224 7.85048 50.0563 7.7893C52.8504 7.64653 54.0333 8.79884 56.032 10.3692C56.032 10.3692 55.2875 10.2673 54.4819 11.1544C53.6764 12.0416 50.5763 13.1022 47.8842 12.4495C45.1921 11.7969 44.2539 11.6031 44.2539 11.6031L44.2743 11.5929Z" stroke="black" stroke-miterlimit="2.61313" stroke-linecap="round" stroke-linejoin="round"/>
  <mask id="mask1_11532_562" style="mask-type:alpha" maskUnits="userSpaceOnUse" x="46" y="6" width="8" height="7">
    <path d="M49.9769 12.3961C51.4074 12.3961 52.567 11.2365 52.567 9.80596C52.567 8.37546 51.4074 7.21582 49.9769 7.21582C48.5464 7.21582 47.3867 8.37546 47.3867 9.80596C47.3867 11.2365 48.5464 12.3961 49.9769 12.3961Z" stroke="black" stroke-miterlimit="2.61313" stroke-linecap="round" stroke-linejoin="round"/>
  </mask>
  <g mask="url(#mask1_11532_562)">
    <path fill-rule="evenodd" clip-rule="evenodd" d="M44.2704 11.592C42.6592 11.3574 46.6056 8.99162 46.7892 8.85905C47.6662 8.23701 48.8185 7.84951 50.0524 7.78832C52.8465 7.64556 54.0294 8.79786 56.028 10.3683C56.028 10.3683 55.2836 10.2663 54.478 11.1535C53.6724 12.0406 50.5724 13.1012 47.8803 12.4485C45.1882 11.7959 44.25 11.6022 44.25 11.6022L44.2704 11.592Z" fill="black" stroke="black" stroke-miterlimit="2.61313" stroke-linecap="round" stroke-linejoin="round"/>
  </g>
  <path d="M44.6504 10.5713C44.6504 10.5713 45.1501 11.0914 44.9461 11.693" stroke="black" stroke-miterlimit="2.61313" stroke-linecap="round" stroke-linejoin="round"/>
  <path d="M44.0391 9.83808C44.0391 9.83808 45.8644 6.6565 50.1473 6.61571C54.4302 6.57492 56.5513 9.18545 56.5513 9.18545" stroke="black" stroke-miterlimit="2.61313" stroke-linecap="round" stroke-linejoin="round"/>
  <path fill-rule="evenodd" clip-rule="evenodd" d="M43.5074 5.2992C43.5074 5.2992 42.7426 4.31005 44.9452 3.15774C44.9452 3.15774 52.9604 0.781748 54.8265 1.01629C56.6926 1.25083 59.6193 3.58603 59.6193 3.58603C59.6193 3.58603 56.3561 2.33175 52.6238 3.3209C48.8916 4.31005 43.8847 5.69689 43.5074 5.2992V5.2992Z" stroke="black" stroke-miterlimit="2.61313" stroke-linecap="round" stroke-linejoin="round"/>
  <path d="M37.1133 28.3478C37.1133 28.3478 38.1636 28.3784 38.5817 27.8991C39.01 27.4198 40.0807 26.9915 40.9271 27.0527" stroke="black" stroke-miterlimit="2.61313" stroke-linecap="round" stroke-linejoin="round"/>
  <path d="M42.1527 24.6738C42.1527 24.6738 43.5701 27.6413 40.623 28.1307" stroke="black" stroke-miterlimit="2.61313" stroke-linecap="round" stroke-linejoin="round"/>
  <path d="M41.5835 8.7041C41.5835 8.7041 39.0341 10.9679 39.544 17.1985" stroke="black" stroke-miterlimit="2.61313" stroke-linecap="round" stroke-linejoin="round"/>
  <path d="M36.9629 37.5129C36.9629 37.5129 37.483 37.4824 38.1356 37.2172C38.7882 36.9521 42.0412 36.8195 43.6218 37.1866C45.2024 37.5537 45.6919 36.6768 47.3846 36.6768" stroke="black" stroke-miterlimit="2.61313" stroke-linecap="round" stroke-linejoin="round"/>
  <path d="M66.4514 8.86719C66.4514 8.86719 63.0659 23.1028 61.2609 30.5163C59.4458 37.9298 58.9971 39.1739 55.0405 42.9061C51.0737 46.6384 43.4766 53.6644 36.9707 53.6644" stroke="black" stroke-miterlimit="2.61313" stroke-linecap="round" stroke-linejoin="round"/>
  <path d="M68.8981 6.90918C68.8981 6.90918 71.0804 6.93977 70.3461 10.1112C69.6119 13.2826 66.9504 17.8612 66.6139 21.2569C66.2774 24.6527 64.9415 25.652 62.4941 25.4379" stroke="black" stroke-miterlimit="2.61313" stroke-linecap="round" stroke-linejoin="round"/>
  <path d="M68.3317 11.6306C68.3317 11.6306 67.9748 10.101 67.2508 10.6109C66.5268 11.1208 65.0175 15.1385 65.0175 15.1385C65.0175 15.1385 65.9863 17.178 65.4458 17.8001C64.9054 18.4221 63.8652 19.6866 63.8652 19.6866" stroke="black" stroke-miterlimit="2.61313" stroke-linecap="round" stroke-linejoin="round"/>
  <path fill-rule="evenodd" clip-rule="evenodd" d="M8.98438 42.3359C14.0423 42.3359 18.1416 37.4004 18.1416 31.3125C18.1416 37.4004 22.241 42.3359 27.2989 42.3359C22.241 42.3359 18.1416 47.2714 18.1416 53.3593C18.1416 47.2714 14.0423 42.3359 8.98438 42.3359Z" fill="white" stroke="black" stroke-miterlimit="2.61313" stroke-linecap="round" stroke-linejoin="round"/>
  <path fill-rule="evenodd" clip-rule="evenodd" d="M0.5 34.5442C3.14113 34.5442 5.28258 31.8011 5.28258 28.4258C5.28258 31.8011 7.42404 34.5442 10.0652 34.5442C7.42404 34.5442 5.28258 37.2873 5.28258 40.6627C5.28258 37.2873 3.14113 34.5442 0.5 34.5442Z" fill="white" stroke="black" stroke-miterlimit="2.61313" stroke-linecap="round" stroke-linejoin="round"/>
  <path fill-rule="evenodd" clip-rule="evenodd" d="M54.3535 21.5049C56.7477 21.5049 58.6889 19.1126 58.6889 16.1689C58.6889 19.1126 60.6302 21.5049 63.0244 21.5049C60.6302 21.5049 58.6889 23.8971 58.6889 26.8408C58.6889 23.8971 56.7477 21.5049 54.3535 21.5049Z" fill="white" stroke="black" stroke-miterlimit="2.61313" stroke-linecap="round" stroke-linejoin="round"/>
</svg>