<svg xmlns="http://www.w3.org/2000/svg" width="72" height="57" viewBox="0 0 72 57" fill="none">
  <path d="M22.4317 11.6885C23.2568 11.6885 23.9258 11.0195 23.9258 10.1943C23.9258 9.36915 23.2568 8.7002 22.4317 8.7002C21.6065 8.7002 20.9375 9.36915 20.9375 10.1943C20.9375 11.0195 21.6065 11.6885 22.4317 11.6885Z" fill="black"/>
  <path d="M21.395 10.0322C21.7124 10.0322 21.9697 9.77487 21.9697 9.45749C21.9697 9.1401 21.7124 8.88281 21.395 8.88281C21.0776 8.88281 20.8203 9.1401 20.8203 9.45749C20.8203 9.77487 21.0776 10.0322 21.395 10.0322Z" fill="white"/>
  <path fill-rule="evenodd" clip-rule="evenodd" d="M28.3704 12.0626C30.0539 11.8192 25.9365 9.35147 25.7337 9.20949C24.821 8.55369 23.6108 8.1548 22.3262 8.08719C19.4055 7.93169 18.175 9.14188 16.0859 10.778C16.0859 10.778 16.8634 10.6698 17.7018 11.5961C18.5401 12.5223 21.7718 13.6311 24.5843 12.9482C27.3968 12.2654 28.3704 12.0626 28.3704 12.0626Z" stroke="black" stroke-miterlimit="2.61313" stroke-linecap="round" stroke-linejoin="round"/>
  <mask id="mask0_11529_1508" style="mask-type:alpha" maskUnits="userSpaceOnUse" x="19" y="6" width="7" height="8">
    <path d="M22.429 12.9018C23.9225 12.9018 25.1333 11.6911 25.1333 10.1975C25.1333 8.70394 23.9225 7.49316 22.429 7.49316C20.9354 7.49316 19.7246 8.70394 19.7246 10.1975C19.7246 11.6911 20.9354 12.9018 22.429 12.9018Z" stroke="black" stroke-miterlimit="2.61313" stroke-linecap="round" stroke-linejoin="round"/>
  </mask>
  <g mask="url(#mask0_11529_1508)">
    <path fill-rule="evenodd" clip-rule="evenodd" d="M28.3724 12.0631C30.0558 11.8197 25.9384 9.35196 25.7356 9.20998C24.8229 8.55418 23.6127 8.15529 22.3282 8.08768C19.4075 7.93218 18.177 9.14237 16.0879 10.7785C16.0879 10.7785 16.8654 10.6703 17.7037 11.5966C18.5421 12.5228 21.7738 13.6316 24.5863 12.9487C27.3988 12.2659 28.3724 12.0631 28.3724 12.0631Z" fill="black" stroke="black" stroke-miterlimit="2.61313" stroke-linecap="round" stroke-linejoin="round"/>
  </g>
  <path d="M27.9779 10.9893C27.9779 10.9893 27.4573 11.5301 27.6669 12.1589" stroke="black" stroke-miterlimit="2.61313" stroke-linecap="round" stroke-linejoin="round"/>
  <path d="M28.6147 10.2245C28.6147 10.2245 26.7081 6.90487 22.2392 6.85754C17.7703 6.81022 15.5527 9.53484 15.5527 9.53484" stroke="black" stroke-miterlimit="2.61313" stroke-linecap="round" stroke-linejoin="round"/>
  <path fill-rule="evenodd" clip-rule="evenodd" d="M29.1687 5.49249C29.1687 5.49249 29.9664 4.45808 27.661 3.25465C27.661 3.25465 19.2978 0.773412 17.3507 1.0168C15.4036 1.26019 12.3477 3.70086 12.3477 3.70086C12.3477 3.70086 15.7551 2.38926 19.6494 3.42367C23.5436 4.45808 28.7698 5.9049 29.1687 5.49249V5.49249Z" stroke="black" stroke-miterlimit="2.61313" stroke-linecap="round" stroke-linejoin="round"/>
  <path d="M35.8424 29.5461C35.8424 29.5461 34.7472 29.5732 34.3077 29.0729C33.8615 28.5726 32.7392 28.1264 31.8535 28.1872" stroke="black" stroke-miterlimit="2.61313" stroke-linecap="round" stroke-linejoin="round"/>
  <path d="M30.5764 25.7056C30.5764 25.7056 29.1025 28.8088 32.1719 29.3091" stroke="black" stroke-miterlimit="2.61313" stroke-linecap="round" stroke-linejoin="round"/>
  <path d="M31.1699 9.04199C31.1699 9.04199 33.8269 11.4083 33.2996 17.9055" stroke="black" stroke-miterlimit="2.61313" stroke-linecap="round" stroke-linejoin="round"/>
  <path fill-rule="evenodd" clip-rule="evenodd" d="M36.0006 35.4841C36.0006 35.4841 33.8304 34.4226 32.2957 35.3083C30.761 36.1939 26.3867 38.3777 26.3867 38.3777C26.3867 38.3777 28.3338 44.3475 36.0006 44.3475C43.6675 44.3475 45.6146 38.3777 45.6146 38.3777C45.6146 38.3777 41.2403 36.1939 39.7056 35.3083C38.1709 34.4226 36.0006 35.4841 36.0006 35.4841Z" stroke="black" stroke-miterlimit="2.61313" stroke-linecap="round" stroke-linejoin="round"/>
  <path d="M36.01 39.1212C36.01 39.1212 35.4623 39.0941 34.7863 38.8102C34.1102 38.5262 30.7095 38.3978 29.0531 38.7831C27.3966 39.1685 26.8963 38.249 25.125 38.249" stroke="black" stroke-miterlimit="2.61313" stroke-linecap="round" stroke-linejoin="round"/>
  <path d="M5.21875 9.21143C5.21875 9.21143 8.74791 24.065 10.641 31.8062C12.534 39.5474 13.0005 40.8455 17.1381 44.7465C21.2758 48.6475 29.2062 55.9695 36.0009 55.9695" stroke="black" stroke-miterlimit="2.61313" stroke-linecap="round" stroke-linejoin="round"/>
  <path d="M2.66686 7.17725C2.66686 7.17725 0.388451 7.20429 1.15919 10.5171C1.92993 13.8232 4.70187 18.6098 5.0602 22.1525C5.41176 25.6952 6.81126 26.7432 9.3601 26.5133" stroke="black" stroke-miterlimit="2.61313" stroke-linecap="round" stroke-linejoin="round"/>
  <path d="M3.25781 12.1064C3.25781 12.1064 3.63642 10.5108 4.38687 11.0449C5.13733 11.579 6.71937 15.7708 6.71937 15.7708C6.71937 15.7708 5.70524 17.9004 6.26639 18.5495C6.82754 19.1985 7.9228 20.5169 7.9228 20.5169" stroke="black" stroke-miterlimit="2.61313" stroke-linecap="round" stroke-linejoin="round"/>
  <path d="M49.5801 11.6885C50.4053 11.6885 51.0742 11.0195 51.0742 10.1943C51.0742 9.36915 50.4053 8.7002 49.5801 8.7002C48.7549 8.7002 48.0859 9.36915 48.0859 10.1943C48.0859 11.0195 48.7549 11.6885 49.5801 11.6885Z" fill="black"/>
  <path d="M48.5434 10.0322C48.8608 10.0322 49.1181 9.77487 49.1181 9.45749C49.1181 9.1401 48.8608 8.88281 48.5434 8.88281C48.226 8.88281 47.9688 9.1401 47.9688 9.45749C47.9688 9.77487 48.226 10.0322 48.5434 10.0322Z" fill="white"/>
  <path fill-rule="evenodd" clip-rule="evenodd" d="M43.6358 12.0626C41.9523 11.8192 46.0697 9.35147 46.2725 9.20949C47.1852 8.55369 48.3954 8.1548 49.68 8.08719C52.6007 7.93169 53.8312 9.14188 55.9203 10.778C55.9203 10.778 55.1428 10.6698 54.3044 11.5961C53.4661 12.5223 50.2344 13.6311 47.4219 12.9482C44.6094 12.2654 43.6358 12.0626 43.6358 12.0626V12.0626Z" stroke="black" stroke-miterlimit="2.61313" stroke-linecap="round" stroke-linejoin="round"/>
  <mask id="mask1_11529_1508" style="mask-type:alpha" maskUnits="userSpaceOnUse" x="46" y="6" width="7" height="8">
    <path d="M49.5774 12.9018C51.0709 12.9018 52.2817 11.6911 52.2817 10.1975C52.2817 8.70394 51.0709 7.49316 49.5774 7.49316C48.0838 7.49316 46.873 8.70394 46.873 10.1975C46.873 11.6911 48.0838 12.9018 49.5774 12.9018Z" stroke="black" stroke-miterlimit="2.61313" stroke-linecap="round" stroke-linejoin="round"/>
  </mask>
  <g mask="url(#mask1_11529_1508)">
    <path fill-rule="evenodd" clip-rule="evenodd" d="M43.6377 12.0631C41.9543 11.8197 46.0717 9.35196 46.2745 9.20998C47.1872 8.55418 48.3974 8.15529 49.6819 8.08768C52.6026 7.93218 53.8331 9.14237 55.9222 10.7785C55.9222 10.7785 55.1447 10.6703 54.3064 11.5966C53.468 12.5228 50.2363 13.6316 47.4238 12.9487C44.6113 12.2659 43.6377 12.0631 43.6377 12.0631Z" fill="black" stroke="black" stroke-miterlimit="2.61313" stroke-linecap="round" stroke-linejoin="round"/>
  </g>
  <path d="M44.0312 10.9893C44.0312 10.9893 44.5518 11.5301 44.3423 12.1589" stroke="black" stroke-miterlimit="2.61313" stroke-linecap="round" stroke-linejoin="round"/>
  <path d="M43.3984 10.2245C43.3984 10.2245 45.305 6.90487 49.7739 6.85754C54.2428 6.81022 56.4604 9.53484 56.4604 9.53484" stroke="black" stroke-miterlimit="2.61313" stroke-linecap="round" stroke-linejoin="round"/>
  <path fill-rule="evenodd" clip-rule="evenodd" d="M42.8346 5.49249C42.8346 5.49249 42.0369 4.45808 44.3423 3.25465C44.3423 3.25465 52.7055 0.773412 54.6526 1.0168C56.5997 1.26019 59.6556 3.70086 59.6556 3.70086C59.6556 3.70086 56.2482 2.38926 52.3539 3.42367C48.4597 4.45808 43.2335 5.9049 42.8346 5.49249V5.49249Z" stroke="black" stroke-miterlimit="2.61313" stroke-linecap="round" stroke-linejoin="round"/>
  <path d="M36.1543 29.5461C36.1543 29.5461 37.2496 29.5732 37.689 29.0729C38.1352 28.5726 39.2575 28.1264 40.1432 28.1872" stroke="black" stroke-miterlimit="2.61313" stroke-linecap="round" stroke-linejoin="round"/>
  <path d="M41.4237 25.7056C41.4237 25.7056 42.8975 28.8088 39.8281 29.3091" stroke="black" stroke-miterlimit="2.61313" stroke-linecap="round" stroke-linejoin="round"/>
  <path d="M40.8298 9.04199C40.8298 9.04199 38.1728 11.4083 38.7001 17.9055" stroke="black" stroke-miterlimit="2.61313" stroke-linecap="round" stroke-linejoin="round"/>
  <path d="M36.0059 39.1212C36.0059 39.1212 36.5535 39.0941 37.2296 38.8102C37.9057 38.5262 41.3064 38.3978 42.9628 38.7831C44.6192 39.1685 45.1195 38.249 46.8908 38.249" stroke="black" stroke-miterlimit="2.61313" stroke-linecap="round" stroke-linejoin="round"/>
  <path d="M66.7724 9.21143C66.7724 9.21143 63.2432 24.065 61.3502 31.8062C59.4572 39.5474 58.9907 40.8455 54.853 44.7465C50.7154 48.6475 42.7849 55.9695 35.9902 55.9695" stroke="black" stroke-miterlimit="2.61313" stroke-linecap="round" stroke-linejoin="round"/>
  <path d="M69.3319 7.17725C69.3319 7.17725 71.6103 7.20429 70.8396 10.5171C70.0689 13.8232 67.2969 18.6098 66.9386 22.1525C66.587 25.6952 65.1875 26.7432 62.6387 26.5133" stroke="black" stroke-miterlimit="2.61313" stroke-linecap="round" stroke-linejoin="round"/>
  <path d="M68.7509 12.1064C68.7509 12.1064 68.3723 10.5108 67.6219 11.0449C66.8714 11.579 65.2894 15.7708 65.2894 15.7708C65.2894 15.7708 66.3035 17.9004 65.7423 18.5495C65.1812 19.1985 64.0859 20.5169 64.0859 20.5169" stroke="black" stroke-miterlimit="2.61313" stroke-linecap="round" stroke-linejoin="round"/>
  <path d="M36.1722 20.2532C36.4907 20.2532 36.7488 19.9951 36.7488 19.6766C36.7488 19.3582 36.4907 19.1001 36.1722 19.1001C35.8538 19.1001 35.5957 19.3582 35.5957 19.6766C35.5957 19.9951 35.8538 20.2532 36.1722 20.2532Z" fill="black" stroke="black"/>
  <path d="M32.3754 23.5505C32.6938 23.5505 32.9519 23.2924 32.9519 22.974C32.9519 22.6556 32.6938 22.3975 32.3754 22.3975C32.057 22.3975 31.7988 22.6556 31.7988 22.974C31.7988 23.2924 32.057 23.5505 32.3754 23.5505Z" fill="black" stroke="black"/>
  <path d="M29.7269 20.5764C30.0453 20.5764 30.3035 20.3183 30.3035 19.9999C30.3035 19.6815 30.0453 19.4233 29.7269 19.4233C29.4085 19.4233 29.1504 19.6815 29.1504 19.9999C29.1504 20.3183 29.4085 20.5764 29.7269 20.5764Z" fill="black" stroke="black"/>
  <path d="M26.6449 22.9436C26.9633 22.9436 27.2214 22.6855 27.2214 22.3671C27.2214 22.0487 26.9633 21.7905 26.6449 21.7905C26.3265 21.7905 26.0684 22.0487 26.0684 22.3671C26.0684 22.6855 26.3265 22.9436 26.6449 22.9436Z" fill="black" stroke="black"/>
  <path d="M24.2191 20.2854C24.5375 20.2854 24.7957 20.0273 24.7957 19.7089C24.7957 19.3904 24.5375 19.1323 24.2191 19.1323C23.9007 19.1323 23.6426 19.3904 23.6426 19.7089C23.6426 20.0273 23.9007 20.2854 24.2191 20.2854Z" fill="black" stroke="black"/>
  <path d="M22.6234 23.908C22.9418 23.908 23.2 23.6498 23.2 23.3314C23.2 23.013 22.9418 22.7549 22.6234 22.7549C22.305 22.7549 22.0469 23.013 22.0469 23.3314C22.0469 23.6498 22.305 23.908 22.6234 23.908Z" fill="black" stroke="black"/>
  <path d="M19.6742 21.3005C19.9926 21.3005 20.2507 21.0424 20.2507 20.724C20.2507 20.4056 19.9926 20.1475 19.6742 20.1475C19.3558 20.1475 19.0977 20.4056 19.0977 20.724C19.0977 21.0424 19.3558 21.3005 19.6742 21.3005Z" fill="black" stroke="black"/>
  <path d="M39.9672 23.5505C40.2856 23.5505 40.5437 23.2924 40.5437 22.974C40.5437 22.6556 40.2856 22.3975 39.9672 22.3975C39.6487 22.3975 39.3906 22.6556 39.3906 22.974C39.3906 23.2924 39.6487 23.5505 39.9672 23.5505Z" fill="black" stroke="black"/>
  <path d="M42.6097 20.5764C42.9282 20.5764 43.1863 20.3183 43.1863 19.9999C43.1863 19.6815 42.9282 19.4233 42.6097 19.4233C42.2913 19.4233 42.0332 19.6815 42.0332 19.9999C42.0332 20.3183 42.2913 20.5764 42.6097 20.5764Z" fill="black" stroke="black"/>
  <path d="M45.7015 22.9436C46.02 22.9436 46.2781 22.6855 46.2781 22.3671C46.2781 22.0487 46.02 21.7905 45.7015 21.7905C45.3831 21.7905 45.125 22.0487 45.125 22.3671C45.125 22.6855 45.3831 22.9436 45.7015 22.9436Z" fill="black" stroke="black"/>
  <path d="M48.1195 20.2854C48.4379 20.2854 48.696 20.0273 48.696 19.7089C48.696 19.3904 48.4379 19.1323 48.1195 19.1323C47.8011 19.1323 47.543 19.3904 47.543 19.7089C47.543 20.0273 47.8011 20.2854 48.1195 20.2854Z" fill="black" stroke="black"/>
  <path d="M49.7133 23.908C50.0317 23.908 50.2898 23.6498 50.2898 23.3314C50.2898 23.013 50.0317 22.7549 49.7133 22.7549C49.3948 22.7549 49.1367 23.013 49.1367 23.3314C49.1367 23.6498 49.3948 23.908 49.7133 23.908Z" fill="black" stroke="black"/>
  <path d="M52.6722 21.3005C52.9907 21.3005 53.2488 21.0424 53.2488 20.724C53.2488 20.4056 52.9907 20.1475 52.6722 20.1475C52.3538 20.1475 52.0957 20.4056 52.0957 20.724C52.0957 21.0424 52.3538 21.3005 52.6722 21.3005Z" fill="black" stroke="black"/>
</svg>