<svg xmlns="http://www.w3.org/2000/svg" width="72" height="57" viewBox="0 0 77 65" fill="none">
  <path d="M27.3952 17.0408C28.2142 17.0408 28.8782 16.3768 28.8782 15.5578C28.8782 14.7387 28.2142 14.0747 27.3952 14.0747C26.5761 14.0747 25.9121 14.7387 25.9121 15.5578C25.9121 16.3768 26.5761 17.0408 27.3952 17.0408Z" fill="black"/>
  <path d="M26.3787 15.4004C26.6946 15.4004 26.9507 15.1443 26.9507 14.8284C26.9507 14.5125 26.6946 14.2563 26.3787 14.2563C26.0627 14.2563 25.8066 14.5125 25.8066 14.8284C25.8066 15.1443 26.0627 15.4004 26.3787 15.4004Z" fill="white"/>
  <path fill-rule="evenodd" clip-rule="evenodd" d="M33.3135 17.4129C34.9872 17.1692 30.8877 14.7116 30.697 14.5739C29.786 13.9277 28.589 13.5252 27.3072 13.4616C24.4047 13.3133 23.1759 14.5104 21.0996 16.1417C21.0996 16.1417 21.8729 16.0358 22.7098 16.9574C23.5466 17.879 26.767 18.9807 29.5636 18.3027C32.3601 17.6248 33.3347 17.4235 33.3347 17.4235L33.3135 17.4129Z" stroke="black" stroke-miterlimit="2.61313" stroke-linecap="round" stroke-linejoin="round"/>
  <mask id="mask0_11532_893" style="mask-type:alpha" maskUnits="userSpaceOnUse" x="24" y="12" width="7" height="7">
    <path d="M27.3957 18.2475C28.8818 18.2475 30.0864 17.0429 30.0864 15.5569C30.0864 14.0709 28.8818 12.8662 27.3957 12.8662C25.9097 12.8662 24.7051 14.0709 24.7051 15.5569C24.7051 17.0429 25.9097 18.2475 27.3957 18.2475Z" stroke="black" stroke-miterlimit="2.61313" stroke-linecap="round" stroke-linejoin="round"/>
  </mask>
  <g mask="url(#mask0_11532_893)">
    <path fill-rule="evenodd" clip-rule="evenodd" d="M33.3135 17.4119C34.9872 17.1683 30.8877 14.7107 30.697 14.5729C29.786 13.9268 28.589 13.5242 27.3072 13.4607C24.4047 13.3124 23.1759 14.5094 21.0996 16.1407C21.0996 16.1407 21.8729 16.0348 22.7098 16.9564C23.5466 17.878 26.767 18.9797 29.5636 18.3017C32.3601 17.6238 33.3347 17.4225 33.3347 17.4225L33.3135 17.4119Z" fill="black" stroke="black" stroke-miterlimit="2.61313" stroke-linecap="round" stroke-linejoin="round"/>
  </g>
  <path d="M32.9264 16.3521C32.9264 16.3521 32.4073 16.8923 32.6192 17.5173" stroke="black" stroke-miterlimit="2.61313" stroke-linecap="round" stroke-linejoin="round"/>
  <path d="M33.5506 15.5906C33.5506 15.5906 31.6544 12.2855 27.2052 12.2432C22.7561 12.2008 20.5527 14.9126 20.5527 14.9126" stroke="black" stroke-miterlimit="2.61313" stroke-linecap="round" stroke-linejoin="round"/>
  <path fill-rule="evenodd" clip-rule="evenodd" d="M34.1063 10.8752C34.1063 10.8752 34.9008 9.84769 32.6127 8.65066C32.6127 8.65066 24.2865 6.18246 22.3479 6.4261C20.4094 6.66974 17.3691 9.09558 17.3691 9.09558C17.3691 9.09558 20.759 7.79262 24.6361 8.82015C28.5132 9.84769 33.7144 11.2884 34.1063 10.8752V10.8752Z" stroke="black" stroke-miterlimit="2.61313" stroke-linecap="round" stroke-linejoin="round"/>
  <path d="M40.7548 34.8182C40.7548 34.8182 39.6637 34.85 39.2294 34.3521C38.7845 33.8542 37.6722 33.4093 36.793 33.4729" stroke="black" stroke-miterlimit="2.61313" stroke-linecap="round" stroke-linejoin="round"/>
  <path d="M35.5278 31.0015C35.5278 31.0015 34.0553 34.0841 37.1168 34.5925" stroke="black" stroke-miterlimit="2.61313" stroke-linecap="round" stroke-linejoin="round"/>
  <path d="M36.1055 14.4126C36.1055 14.4126 38.7538 16.7643 38.2241 23.2367" stroke="black" stroke-miterlimit="2.61313" stroke-linecap="round" stroke-linejoin="round"/>
  <path fill-rule="evenodd" clip-rule="evenodd" d="M40.9172 40.7254C40.9172 40.7254 38.7562 39.666 37.2308 40.5453C35.7054 41.4245 31.3516 43.6067 31.3516 43.6067C31.3516 43.6067 33.2901 49.5495 40.9172 49.5495C48.5443 49.5495 50.4828 43.6067 50.4828 43.6067C50.4828 43.6067 46.129 41.4351 44.6036 40.5453C43.0782 39.666 40.9172 40.7254 40.9172 40.7254V40.7254Z" stroke="black" stroke-miterlimit="2.61313" stroke-linecap="round" stroke-linejoin="round"/>
  <path d="M40.9121 44.3393C40.9121 44.3393 40.3719 44.3076 39.6939 44.0321C39.016 43.7567 35.6368 43.619 33.9948 44.0004C32.3529 44.3817 31.8444 43.4707 30.0859 43.4707" stroke="black" stroke-miterlimit="2.61313" stroke-linecap="round" stroke-linejoin="round"/>
  <path d="M10.2773 14.5815C10.2773 14.5815 13.7943 29.3696 15.6693 37.0708C17.5548 44.7721 18.0209 46.0644 22.1311 49.9415C26.2518 53.8186 34.1437 61.1173 40.9022 61.1173" stroke="black" stroke-miterlimit="2.61313" stroke-linecap="round" stroke-linejoin="round"/>
  <path d="M7.73724 12.5479C7.73724 12.5479 5.4703 12.5796 6.23301 15.8741C6.99572 19.1686 9.76053 23.9249 10.1101 27.4524C10.4597 30.98 11.8474 32.0181 14.3897 31.7956" stroke="black" stroke-miterlimit="2.61313" stroke-linecap="round" stroke-linejoin="round"/>
  <path d="M8.31836 17.4521C8.31836 17.4521 8.68912 15.8631 9.44123 16.3928C10.1933 16.9224 11.7611 21.0961 11.7611 21.0961C11.7611 21.0961 10.7548 23.2148 11.3162 23.8609C11.8777 24.5071 12.9582 25.8207 12.9582 25.8207" stroke="black" stroke-miterlimit="2.61313" stroke-linecap="round" stroke-linejoin="round"/>
  <path d="M54.4303 17.0408C55.2494 17.0408 55.9134 16.3768 55.9134 15.5578C55.9134 14.7387 55.2494 14.0747 54.4303 14.0747C53.6112 14.0747 52.9473 14.7387 52.9473 15.5578C52.9473 16.3768 53.6112 17.0408 54.4303 17.0408Z" fill="black"/>
  <path d="M53.4041 15.4004C53.72 15.4004 53.9761 15.1443 53.9761 14.8284C53.9761 14.5125 53.72 14.2563 53.4041 14.2563C53.0881 14.2563 52.832 14.5125 52.832 14.8284C52.832 15.1443 53.0881 15.4004 53.4041 15.4004Z" fill="white"/>
  <path fill-rule="evenodd" clip-rule="evenodd" d="M48.5061 17.4129C46.8324 17.1692 50.9319 14.7116 51.1226 14.5739C52.0336 13.9277 53.2307 13.5252 54.5124 13.4616C57.415 13.3133 58.6438 14.5104 60.72 16.1417C60.72 16.1417 59.9467 16.0358 59.1099 16.9574C58.273 17.879 55.0527 18.9807 52.2561 18.3027C49.4595 17.6248 48.4849 17.4235 48.4849 17.4235L48.5061 17.4129Z" stroke="black" stroke-miterlimit="2.61313" stroke-linecap="round" stroke-linejoin="round"/>
  <mask id="mask1_11532_893" style="mask-type:alpha" maskUnits="userSpaceOnUse" x="51" y="12" width="7" height="7">
    <path d="M54.4329 18.2475C55.9189 18.2475 57.1235 17.0429 57.1235 15.5569C57.1235 14.0709 55.9189 12.8662 54.4329 12.8662C52.9468 12.8662 51.7422 14.0709 51.7422 15.5569C51.7422 17.0429 52.9468 18.2475 54.4329 18.2475Z" stroke="black" stroke-miterlimit="2.61313" stroke-linecap="round" stroke-linejoin="round"/>
  </mask>
  <g mask="url(#mask1_11532_893)">
    <path fill-rule="evenodd" clip-rule="evenodd" d="M48.5061 17.4119C46.8324 17.1683 50.9319 14.7107 51.1226 14.5729C52.0336 13.9268 53.2307 13.5242 54.5124 13.4607C57.415 13.3124 58.6438 14.5094 60.72 16.1407C60.72 16.1407 59.9467 16.0348 59.1099 16.9564C58.273 17.878 55.0527 18.9797 52.2561 18.3017C49.4595 17.6238 48.4849 17.4225 48.4849 17.4225L48.5061 17.4119Z" fill="black" stroke="black" stroke-miterlimit="2.61313" stroke-linecap="round" stroke-linejoin="round"/>
  </g>
  <path d="M48.9004 16.3525C48.9004 16.3525 49.4195 16.8928 49.2076 17.5178" stroke="black" stroke-miterlimit="2.61313" stroke-linecap="round" stroke-linejoin="round"/>
  <path d="M48.2617 15.5906C48.2617 15.5906 50.1579 12.2855 54.607 12.2432C59.0561 12.2008 61.2595 14.9126 61.2595 14.9126" stroke="black" stroke-miterlimit="2.61313" stroke-linecap="round" stroke-linejoin="round"/>
  <path fill-rule="evenodd" clip-rule="evenodd" d="M47.7096 10.8752C47.7096 10.8752 46.9151 9.84769 49.2033 8.65066C49.2033 8.65066 57.5295 6.18246 59.468 6.4261C61.4066 6.66974 64.4468 9.09558 64.4468 9.09558C64.4468 9.09558 61.057 7.79262 57.1799 8.82015C53.3028 9.84769 48.1016 11.2884 47.7096 10.8752V10.8752Z" stroke="black" stroke-miterlimit="2.61313" stroke-linecap="round" stroke-linejoin="round"/>
  <path d="M41.0684 34.8182C41.0684 34.8182 42.1595 34.85 42.5938 34.3521C43.0387 33.8542 44.151 33.4093 45.0302 33.4729" stroke="black" stroke-miterlimit="2.61313" stroke-linecap="round" stroke-linejoin="round"/>
  <path d="M46.3058 31.002C46.3058 31.002 47.7782 34.0846 44.7168 34.593" stroke="black" stroke-miterlimit="2.61313" stroke-linecap="round" stroke-linejoin="round"/>
  <path d="M45.7121 14.4126C45.7121 14.4126 43.0638 16.7643 43.5935 23.2367" stroke="black" stroke-miterlimit="2.61313" stroke-linecap="round" stroke-linejoin="round"/>
  <path d="M40.9121 44.3393C40.9121 44.3393 41.4524 44.3076 42.1303 44.0321C42.8083 43.7567 46.1875 43.619 47.8294 44.0004C49.4714 44.3817 49.9799 43.4707 51.7383 43.4707" stroke="black" stroke-miterlimit="2.61313" stroke-linecap="round" stroke-linejoin="round"/>
  <path d="M71.5448 14.5815C71.5448 14.5815 68.0278 29.3696 66.1528 37.0708C64.2673 44.7721 63.8012 46.0644 59.691 49.9415C55.5703 53.8186 47.6784 61.1173 40.9199 61.1173" stroke="black" stroke-miterlimit="2.61313" stroke-linecap="round" stroke-linejoin="round"/>
  <path d="M74.0881 12.5483C74.0881 12.5483 76.355 12.5801 75.5923 15.8746C74.8296 19.1691 72.0648 23.9254 71.7152 27.4529C71.3656 30.9804 69.9779 32.0186 67.4355 31.7961" stroke="black" stroke-miterlimit="2.61313" stroke-linecap="round" stroke-linejoin="round"/>
  <path d="M73.4992 17.4521C73.4992 17.4521 73.1284 15.8631 72.3763 16.3928C71.6242 16.9224 70.0564 21.0961 70.0564 21.0961C70.0564 21.0961 71.0628 23.2148 70.5013 23.8609C69.9399 24.5071 68.8594 25.8207 68.8594 25.8207" stroke="black" stroke-miterlimit="2.61313" stroke-linecap="round" stroke-linejoin="round"/>
  <path d="M40.6055 1L40.6055 63.9633" stroke="black" stroke-width="1.2" stroke-miterlimit="2.61313" stroke-linecap="round" stroke-linejoin="round" stroke-dasharray="2 5"/>
  <path fill-rule="evenodd" clip-rule="evenodd" d="M12.1465 48.962C17.4007 48.962 21.6591 43.8349 21.6591 37.5107C21.6591 43.8349 25.9176 48.962 31.1718 48.962C25.9176 48.962 21.6591 54.0891 21.6591 60.4132C21.6591 54.0891 17.4007 48.962 12.1465 48.962Z" fill="white" stroke="black" stroke-miterlimit="2.61313" stroke-linecap="round" stroke-linejoin="round"/>
  <path fill-rule="evenodd" clip-rule="evenodd" d="M1 40.8686C3.74363 40.8686 5.96819 38.019 5.96819 34.5127C5.96819 38.019 8.19276 40.8686 10.9364 40.8686C8.19276 40.8686 5.96819 43.7182 5.96819 47.2245C5.96819 43.7182 3.74363 40.8686 1 40.8686Z" fill="white" stroke="black" stroke-miterlimit="2.61313" stroke-linecap="round" stroke-linejoin="round"/>
</svg>