<svg xmlns="http://www.w3.org/2000/svg" width="72" height="57" viewBox="0 0 72 57" fill="none">
  <path d="M22.4217 11.6803C23.2446 11.6803 23.9117 11.0132 23.9117 10.1902C23.9117 9.36732 23.2446 8.7002 22.4217 8.7002C21.5988 8.7002 20.9316 9.36732 20.9316 10.1902C20.9316 11.0132 21.5988 11.6803 22.4217 11.6803Z" fill="black"/>
  <path d="M21.397 10.0313C21.7144 10.0313 21.9717 9.77398 21.9717 9.45657C21.9717 9.13915 21.7144 8.88184 21.397 8.88184C21.0796 8.88184 20.8223 9.13915 20.8223 9.45657C20.8223 9.77398 21.0796 10.0313 21.397 10.0313Z" fill="white"/>
  <path fill-rule="evenodd" clip-rule="evenodd" d="M28.3673 12.0566C30.049 11.8118 25.93 9.3426 25.7385 9.20424C24.8232 8.555 23.6205 8.15056 22.3326 8.0867C19.4164 7.93769 18.1818 9.14038 16.0957 10.7794C16.0957 10.7794 16.8727 10.673 17.7135 11.599C18.5543 12.5249 21.7898 13.6318 24.5996 12.9507C27.4095 12.2695 28.3886 12.0673 28.3886 12.0673L28.3673 12.0566Z" stroke="black" stroke-miterlimit="2.61313" stroke-linecap="round" stroke-linejoin="round"/>
  <mask id="mask0_11532_712" style="mask-type:alpha" maskUnits="userSpaceOnUse" x="19" y="6" width="7" height="8">
    <path d="M22.4182 12.895C23.9113 12.895 25.1216 11.6847 25.1216 10.1917C25.1216 8.69862 23.9113 7.48828 22.4182 7.48828C20.9252 7.48828 19.7148 8.69862 19.7148 10.1917C19.7148 11.6847 20.9252 12.895 22.4182 12.895Z" stroke="black" stroke-miterlimit="2.61313" stroke-linecap="round" stroke-linejoin="round"/>
  </mask>
  <g mask="url(#mask0_11532_712)">
    <path fill-rule="evenodd" clip-rule="evenodd" d="M28.3634 12.0556C30.0451 11.8109 25.9261 9.34162 25.7346 9.20326C24.8192 8.55402 23.6166 8.14958 22.3287 8.08572C19.4125 7.93671 18.1779 9.1394 16.0918 10.7785C16.0918 10.7785 16.8688 10.672 17.7096 11.598C18.5504 12.5239 21.7859 13.6308 24.5957 12.9497C27.4055 12.2685 28.3847 12.0663 28.3847 12.0663L28.3634 12.0556Z" fill="black" stroke="black" stroke-miterlimit="2.61313" stroke-linecap="round" stroke-linejoin="round"/>
  </g>
  <path d="M27.9769 10.9902C27.9769 10.9902 27.4554 11.533 27.6682 12.161" stroke="black" stroke-miterlimit="2.61313" stroke-linecap="round" stroke-linejoin="round"/>
  <path d="M28.6042 10.2241C28.6042 10.2241 26.699 6.90342 22.2289 6.86085C17.7587 6.81827 15.5449 9.54293 15.5449 9.54293" stroke="black" stroke-miterlimit="2.61313" stroke-linecap="round" stroke-linejoin="round"/>
  <path fill-rule="evenodd" clip-rule="evenodd" d="M29.164 5.48715C29.164 5.48715 29.9622 4.45476 27.6633 3.25208C27.6633 3.25208 19.2977 0.772206 17.35 1.017C15.4023 1.26179 12.3477 3.69909 12.3477 3.69909C12.3477 3.69909 15.7535 2.38998 19.6489 3.42237C23.5443 4.45476 28.7702 5.90224 29.164 5.48715V5.48715Z" stroke="black" stroke-miterlimit="2.61313" stroke-linecap="round" stroke-linejoin="round"/>
  <path d="M35.8419 29.5433C35.8419 29.5433 34.7456 29.5753 34.3093 29.075C33.8623 28.5748 32.7447 28.1278 31.8613 28.1917" stroke="black" stroke-miterlimit="2.61313" stroke-linecap="round" stroke-linejoin="round"/>
  <path d="M30.5881 25.709C30.5881 25.709 29.1087 28.8062 32.1845 29.317" stroke="black" stroke-miterlimit="2.61313" stroke-linecap="round" stroke-linejoin="round"/>
  <path d="M31.1719 9.04102C31.1719 9.04102 33.8327 11.4038 33.3005 17.9068" stroke="black" stroke-miterlimit="2.61313" stroke-linecap="round" stroke-linejoin="round"/>
  <path fill-rule="evenodd" clip-rule="evenodd" d="M36.0054 35.4788C36.0054 35.4788 33.8341 34.4145 32.3015 35.2979C30.7689 36.1813 26.3945 38.3738 26.3945 38.3738C26.3945 38.3738 28.3422 44.3446 36.0054 44.3446C43.6685 44.3446 45.6162 38.3738 45.6162 38.3738C45.6162 38.3738 41.2418 36.1919 39.7092 35.2979C38.1766 34.4145 36.0054 35.4788 36.0054 35.4788V35.4788Z" stroke="black" stroke-miterlimit="2.61313" stroke-linecap="round" stroke-linejoin="round"/>
  <path d="M36.0004 39.1091C36.0004 39.1091 35.4576 39.0771 34.7765 38.8004C34.0953 38.5237 30.7001 38.3853 29.0504 38.7685C27.4007 39.1516 26.8898 38.2363 25.123 38.2363" stroke="black" stroke-miterlimit="2.61313" stroke-linecap="round" stroke-linejoin="round"/>
  <path d="M5.22266 9.21191C5.22266 9.21191 8.75621 24.0699 10.6401 31.8075C12.5346 39.5451 13.0029 40.8436 17.1324 44.739C21.2726 48.6344 29.2018 55.9676 35.9922 55.9676" stroke="black" stroke-miterlimit="2.61313" stroke-linecap="round" stroke-linejoin="round"/>
  <path d="M2.66892 7.16797C2.66892 7.16797 0.391266 7.1999 1.15758 10.5099C1.92389 13.82 4.70177 18.5988 5.053 22.143C5.40422 25.6872 6.79849 26.7302 9.35286 26.5067" stroke="black" stroke-miterlimit="2.61313" stroke-linecap="round" stroke-linejoin="round"/>
  <path d="M3.25195 12.0948C3.25195 12.0948 3.62447 10.4983 4.38013 11.0305C5.1358 11.5626 6.711 15.7561 6.711 15.7561C6.711 15.7561 5.69989 17.8847 6.26398 18.534C6.82808 19.1832 7.91368 20.503 7.91368 20.503" stroke="black" stroke-miterlimit="2.61313" stroke-linecap="round" stroke-linejoin="round"/>
  <path d="M49.5819 11.6803C50.4048 11.6803 51.0719 11.0132 51.0719 10.1902C51.0719 9.36732 50.4048 8.7002 49.5819 8.7002C48.7589 8.7002 48.0918 9.36732 48.0918 10.1902C48.0918 11.0132 48.7589 11.6803 49.5819 11.6803Z" fill="black"/>
  <path d="M48.5513 10.0313C48.8687 10.0313 49.126 9.77398 49.126 9.45657C49.126 9.13915 48.8687 8.88184 48.5513 8.88184C48.2339 8.88184 47.9766 9.13915 47.9766 9.45657C47.9766 9.77398 48.2339 10.0313 48.5513 10.0313Z" fill="white"/>
  <path fill-rule="evenodd" clip-rule="evenodd" d="M43.6271 12.0566C41.9455 11.8118 46.0644 9.3426 46.256 9.20424C47.1713 8.555 48.374 8.15056 49.6619 8.0867C52.5781 7.93769 53.8127 9.14038 55.8988 10.7794C55.8988 10.7794 55.1218 10.673 54.281 11.599C53.4402 12.5249 50.2047 13.6318 47.3948 12.9507C44.585 12.2695 43.6059 12.0673 43.6059 12.0673L43.6271 12.0566Z" stroke="black" stroke-miterlimit="2.61313" stroke-linecap="round" stroke-linejoin="round"/>
  <mask id="mask1_11532_712" style="mask-type:alpha" maskUnits="userSpaceOnUse" x="46" y="6" width="7" height="8">
    <path d="M49.5823 12.895C51.0753 12.895 52.2857 11.6847 52.2857 10.1917C52.2857 8.69862 51.0753 7.48828 49.5823 7.48828C48.0893 7.48828 46.8789 8.69862 46.8789 10.1917C46.8789 11.6847 48.0893 12.895 49.5823 12.895Z" stroke="black" stroke-miterlimit="2.61313" stroke-linecap="round" stroke-linejoin="round"/>
  </mask>
  <g mask="url(#mask1_11532_712)">
    <path fill-rule="evenodd" clip-rule="evenodd" d="M43.6271 12.0556C41.9455 11.8109 46.0644 9.34162 46.256 9.20326C47.1713 8.55402 48.374 8.14958 49.6619 8.08572C52.5781 7.93671 53.8127 9.1394 55.8988 10.7785C55.8988 10.7785 55.1218 10.672 54.281 11.598C53.4402 12.5239 50.2047 13.6308 47.3948 12.9497C44.585 12.2685 43.6059 12.0663 43.6059 12.0663L43.6271 12.0556Z" fill="black" stroke="black" stroke-miterlimit="2.61313" stroke-linecap="round" stroke-linejoin="round"/>
  </g>
  <path d="M44.0195 10.9902C44.0195 10.9902 44.5411 11.533 44.3282 12.161" stroke="black" stroke-miterlimit="2.61313" stroke-linecap="round" stroke-linejoin="round"/>
  <path d="M43.3848 10.2241C43.3848 10.2241 45.2899 6.90342 49.7601 6.86085C54.2302 6.81827 56.444 9.54293 56.444 9.54293" stroke="black" stroke-miterlimit="2.61313" stroke-linecap="round" stroke-linejoin="round"/>
  <path fill-rule="evenodd" clip-rule="evenodd" d="M42.8294 5.48715C42.8294 5.48715 42.0311 4.45476 44.3301 3.25208C44.3301 3.25208 52.6957 0.772206 54.6434 1.017C56.5911 1.26179 59.6457 3.69909 59.6457 3.69909C59.6457 3.69909 56.2398 2.38998 52.3444 3.42237C48.449 4.45476 43.2232 5.90224 42.8294 5.48715V5.48715Z" stroke="black" stroke-miterlimit="2.61313" stroke-linecap="round" stroke-linejoin="round"/>
  <path d="M36.1543 29.5433C36.1543 29.5433 37.2505 29.5753 37.6869 29.075C38.1339 28.5748 39.2515 28.1278 40.1349 28.1917" stroke="black" stroke-miterlimit="2.61313" stroke-linecap="round" stroke-linejoin="round"/>
  <path d="M41.4148 25.709C41.4148 25.709 42.8942 28.8062 39.8184 29.317" stroke="black" stroke-miterlimit="2.61313" stroke-linecap="round" stroke-linejoin="round"/>
  <path d="M40.8201 9.04102C40.8201 9.04102 38.1593 11.4038 38.6915 17.9068" stroke="black" stroke-miterlimit="2.61313" stroke-linecap="round" stroke-linejoin="round"/>
  <path d="M35.998 39.1091C35.998 39.1091 36.5409 39.0771 37.222 38.8004C37.9032 38.5237 41.2984 38.3853 42.9481 38.7685C44.5978 39.1516 45.1086 38.2363 46.8754 38.2363" stroke="black" stroke-miterlimit="2.61313" stroke-linecap="round" stroke-linejoin="round"/>
  <path d="M66.7754 9.21191C66.7754 9.21191 63.2419 24.0699 61.358 31.8075C59.4635 39.5451 58.9952 40.8436 54.8656 44.739C50.7254 48.6344 42.7962 55.9676 36.0059 55.9676" stroke="black" stroke-miterlimit="2.61313" stroke-linecap="round" stroke-linejoin="round"/>
  <path d="M69.3285 7.16797C69.3285 7.16797 71.6061 7.1999 70.8398 10.5099C70.0735 13.82 67.2956 18.5988 66.9444 22.143C66.5932 25.6872 65.1989 26.7302 62.6445 26.5067" stroke="black" stroke-miterlimit="2.61313" stroke-linecap="round" stroke-linejoin="round"/>
  <path d="M68.7379 12.0948C68.7379 12.0948 68.3654 10.4983 67.6097 11.0305C66.8541 11.5626 65.2789 15.7561 65.2789 15.7561C65.2789 15.7561 66.29 17.8847 65.7259 18.534C65.1618 19.1832 64.0762 20.503 64.0762 20.503" stroke="black" stroke-miterlimit="2.61313" stroke-linecap="round" stroke-linejoin="round"/>
  <path fill-rule="evenodd" clip-rule="evenodd" d="M53.2401 10.8711C46.4803 10.8711 40.9961 16.3515 40.9961 23.1151C40.9961 29.8788 46.4752 35.3591 53.2401 35.3591C59.9999 35.3591 65.4842 29.8788 65.4842 23.1151C65.4842 16.3515 60.0051 10.8711 53.2401 10.8711Z" fill="url(#paint0_radial_11532_712)"/>
  <path fill-rule="evenodd" clip-rule="evenodd" d="M18.3475 10.8711C11.5878 10.8711 6.10352 16.3515 6.10352 23.1151C6.10352 29.8788 11.5826 35.3591 18.3475 35.3591C25.1073 35.3591 30.5916 29.8788 30.5916 23.1151C30.5916 16.3515 25.1125 10.8711 18.3475 10.8711Z" fill="url(#paint1_radial_11532_712)"/>
  <defs>
    <radialGradient id="paint0_radial_11532_712" cx="0" cy="0" r="1" gradientUnits="userSpaceOnUse" gradientTransform="translate(53.2401 23.1151) rotate(90) scale(12.244)">
      <stop stop-opacity="0.32"/>
      <stop offset="1" stop-opacity="0"/>
    </radialGradient>
    <radialGradient id="paint1_radial_11532_712" cx="0" cy="0" r="1" gradientUnits="userSpaceOnUse" gradientTransform="translate(18.3475 23.1151) rotate(90) scale(12.244)">
      <stop stop-opacity="0.32"/>
      <stop offset="1" stop-opacity="0"/>
    </radialGradient>
  </defs>
</svg>