<svg xmlns="http://www.w3.org/2000/svg" width="72" height="57" viewBox="0 0 72 60" fill="none">
  <path d="M22.4297 14.8423C23.2549 14.8423 23.9238 14.1733 23.9238 13.3482C23.9238 12.523 23.2549 11.854 22.4297 11.854C21.6045 11.854 20.9355 12.523 20.9355 13.3482C20.9355 14.1733 21.6045 14.8423 22.4297 14.8423Z" fill="black"/>
  <path d="M21.395 13.186C21.7124 13.186 21.9697 12.9287 21.9697 12.6113C21.9697 12.2939 21.7124 12.0366 21.395 12.0366C21.0776 12.0366 20.8203 12.2939 20.8203 12.6113C20.8203 12.9287 21.0776 13.186 21.395 13.186Z" fill="white"/>
  <path fill-rule="evenodd" clip-rule="evenodd" d="M28.3704 15.2144C30.0539 14.971 25.9365 12.5033 25.7337 12.3613C24.821 11.7055 23.6108 11.3067 22.3262 11.239C19.4055 11.0835 18.175 12.2937 16.0859 13.9299C16.0859 13.9299 16.8634 13.8217 17.7018 14.7479C18.5401 15.6742 21.7718 16.7829 24.5843 16.1001C27.3968 15.4173 28.3704 15.2144 28.3704 15.2144Z" stroke="black" stroke-miterlimit="2.61313" stroke-linecap="round" stroke-linejoin="round"/>
  <mask id="mask0_11529_1463" style="mask-type:alpha" maskUnits="userSpaceOnUse" x="19" y="10" width="7" height="7">
    <path d="M22.429 16.0527C23.9225 16.0527 25.1333 14.8419 25.1333 13.3484C25.1333 11.8548 23.9225 10.644 22.429 10.644C20.9354 10.644 19.7246 11.8548 19.7246 13.3484C19.7246 14.8419 20.9354 16.0527 22.429 16.0527Z" stroke="black" stroke-miterlimit="2.61313" stroke-linecap="round" stroke-linejoin="round"/>
  </mask>
  <g mask="url(#mask0_11529_1463)">
    <path fill-rule="evenodd" clip-rule="evenodd" d="M28.3724 15.2144C30.0558 14.971 25.9384 12.5033 25.7356 12.3613C24.8229 11.7055 23.6127 11.3067 22.3282 11.239C19.4075 11.0835 18.177 12.2937 16.0879 13.9299C16.0879 13.9299 16.8654 13.8217 17.7037 14.7479C18.5421 15.6742 21.7738 16.7829 24.5863 16.1001C27.3988 15.4173 28.3724 15.2144 28.3724 15.2144Z" fill="black" stroke="black" stroke-miterlimit="2.61313" stroke-linecap="round" stroke-linejoin="round"/>
  </g>
  <path d="M27.976 14.1421C27.976 14.1421 27.4554 14.683 27.665 15.3117" stroke="black" stroke-miterlimit="2.61313" stroke-linecap="round" stroke-linejoin="round"/>
  <path d="M28.6147 13.3763C28.6147 13.3763 26.7081 10.0567 22.2392 10.0094C17.7703 9.96207 15.5527 12.6867 15.5527 12.6867" stroke="black" stroke-miterlimit="2.61313" stroke-linecap="round" stroke-linejoin="round"/>
  <path fill-rule="evenodd" clip-rule="evenodd" d="M29.1687 8.64483C29.1687 8.64483 29.9664 7.61042 27.661 6.40699C27.661 6.40699 19.2978 3.92576 17.3507 4.16915C15.4036 4.41254 12.3477 6.85321 12.3477 6.85321C12.3477 6.85321 15.7551 5.5416 19.6494 6.57601C23.5436 7.61042 28.7698 9.05724 29.1687 8.64483V8.64483Z" stroke="black" stroke-miterlimit="2.61313" stroke-linecap="round" stroke-linejoin="round"/>
  <path d="M35.8424 32.6985C35.8424 32.6985 34.7472 32.7255 34.3077 32.2252C33.8615 31.7249 32.7392 31.2787 31.8535 31.3396" stroke="black" stroke-miterlimit="2.61313" stroke-linecap="round" stroke-linejoin="round"/>
  <path d="M30.5783 28.8584C30.5783 28.8584 29.1045 31.9616 32.1739 32.4619" stroke="black" stroke-miterlimit="2.61313" stroke-linecap="round" stroke-linejoin="round"/>
  <path d="M31.1699 12.1938C31.1699 12.1938 33.8269 14.5601 33.2996 21.0573" stroke="black" stroke-miterlimit="2.61313" stroke-linecap="round" stroke-linejoin="round"/>
  <path fill-rule="evenodd" clip-rule="evenodd" d="M36.0006 38.6359C36.0006 38.6359 33.8304 37.5745 32.2957 38.4601C30.761 39.3458 26.3867 41.5296 26.3867 41.5296C26.3867 41.5296 28.3338 47.4994 36.0006 47.4994C43.6675 47.4994 45.6146 41.5296 45.6146 41.5296C45.6146 41.5296 41.2403 39.3458 39.7056 38.4601C38.1709 37.5745 36.0006 38.6359 36.0006 38.6359Z" stroke="black" stroke-miterlimit="2.61313" stroke-linecap="round" stroke-linejoin="round"/>
  <path d="M36.008 42.2735C36.008 42.2735 35.4604 42.2465 34.7843 41.9625C34.1082 41.6786 30.7075 41.5501 29.0511 41.9355C27.3947 42.3209 26.8944 41.4014 25.123 41.4014" stroke="black" stroke-miterlimit="2.61313" stroke-linecap="round" stroke-linejoin="round"/>
  <path d="M5.21875 12.3638C5.21875 12.3638 8.74791 27.2174 10.641 34.9585C12.534 42.6997 13.0005 43.9978 17.1381 47.8988C21.2758 51.7998 29.2062 59.1218 36.0009 59.1218" stroke="black" stroke-miterlimit="2.61313" stroke-linecap="round" stroke-linejoin="round"/>
  <path d="M2.66686 10.3291C2.66686 10.3291 0.388451 10.3561 1.15919 13.669C1.92993 16.975 4.70187 21.7617 5.0602 25.3044C5.41176 28.8471 6.81126 29.895 9.3601 29.6651" stroke="black" stroke-miterlimit="2.61313" stroke-linecap="round" stroke-linejoin="round"/>
  <path d="M3.25781 15.2587C3.25781 15.2587 3.63642 13.6632 4.38687 14.1973C5.13733 14.7314 6.71937 18.9231 6.71937 18.9231C6.71937 18.9231 5.70524 21.0528 6.26639 21.7018C6.82754 22.3508 7.9228 23.6692 7.9228 23.6692" stroke="black" stroke-miterlimit="2.61313" stroke-linecap="round" stroke-linejoin="round"/>
  <path d="M49.5781 14.8423C50.4033 14.8423 51.0723 14.1733 51.0723 13.3482C51.0723 12.523 50.4033 11.854 49.5781 11.854C48.7529 11.854 48.084 12.523 48.084 13.3482C48.084 14.1733 48.7529 14.8423 49.5781 14.8423Z" fill="black"/>
  <path d="M48.5434 13.186C48.8608 13.186 49.1181 12.9287 49.1181 12.6113C49.1181 12.2939 48.8608 12.0366 48.5434 12.0366C48.226 12.0366 47.9688 12.2939 47.9688 12.6113C47.9688 12.9287 48.226 13.186 48.5434 13.186Z" fill="white"/>
  <path fill-rule="evenodd" clip-rule="evenodd" d="M43.6377 15.2144C41.9543 14.971 46.0716 12.5033 46.2745 12.3613C47.1872 11.7055 48.3974 11.3067 49.6819 11.239C52.6026 11.0835 53.8331 12.2937 55.9222 13.9299C55.9222 13.9299 55.1447 13.8217 54.3064 14.7479C53.468 15.6742 50.2363 16.7829 47.4238 16.1001C44.6113 15.4173 43.6377 15.2144 43.6377 15.2144V15.2144Z" stroke="black" stroke-miterlimit="2.61313" stroke-linecap="round" stroke-linejoin="round"/>
  <mask id="mask1_11529_1463" style="mask-type:alpha" maskUnits="userSpaceOnUse" x="46" y="10" width="7" height="7">
    <path d="M49.5774 16.0527C51.0709 16.0527 52.2817 14.8419 52.2817 13.3484C52.2817 11.8548 51.0709 10.644 49.5774 10.644C48.0838 10.644 46.873 11.8548 46.873 13.3484C46.873 14.8419 48.0838 16.0527 49.5774 16.0527Z" stroke="black" stroke-miterlimit="2.61313" stroke-linecap="round" stroke-linejoin="round"/>
  </mask>
  <g mask="url(#mask1_11529_1463)">
    <path fill-rule="evenodd" clip-rule="evenodd" d="M43.6377 15.2144C41.9543 14.971 46.0717 12.5033 46.2745 12.3613C47.1872 11.7055 48.3974 11.3067 49.6819 11.239C52.6026 11.0835 53.8331 12.2937 55.9222 13.9299C55.9222 13.9299 55.1447 13.8217 54.3064 14.7479C53.468 15.6742 50.2363 16.7829 47.4238 16.1001C44.6113 15.4173 43.6377 15.2144 43.6377 15.2144Z" fill="black" stroke="black" stroke-miterlimit="2.61313" stroke-linecap="round" stroke-linejoin="round"/>
  </g>
  <path d="M44.0312 14.1421C44.0312 14.1421 44.5518 14.683 44.3423 15.3117" stroke="black" stroke-miterlimit="2.61313" stroke-linecap="round" stroke-linejoin="round"/>
  <path d="M43.3984 13.3763C43.3984 13.3763 45.305 10.0567 49.7739 10.0094C54.2428 9.96207 56.4604 12.6867 56.4604 12.6867" stroke="black" stroke-miterlimit="2.61313" stroke-linecap="round" stroke-linejoin="round"/>
  <path fill-rule="evenodd" clip-rule="evenodd" d="M42.8346 8.64483C42.8346 8.64483 42.0369 7.61042 44.3423 6.40699C44.3423 6.40699 52.7055 3.92576 54.6526 4.16915C56.5997 4.41254 59.6556 6.85321 59.6556 6.85321C59.6556 6.85321 56.2482 5.5416 52.3539 6.57601C48.4597 7.61042 43.2335 9.05724 42.8346 8.64483V8.64483Z" stroke="black" stroke-miterlimit="2.61313" stroke-linecap="round" stroke-linejoin="round"/>
  <path d="M36.1562 32.6985C36.1562 32.6985 37.2515 32.7255 37.691 32.2252C38.1372 31.7249 39.2595 31.2787 40.1451 31.3396" stroke="black" stroke-miterlimit="2.61313" stroke-linecap="round" stroke-linejoin="round"/>
  <path d="M41.4237 28.8584C41.4237 28.8584 42.8975 31.9616 39.8281 32.4619" stroke="black" stroke-miterlimit="2.61313" stroke-linecap="round" stroke-linejoin="round"/>
  <path d="M40.8317 12.1938C40.8317 12.1938 38.1747 14.5601 38.7021 21.0573" stroke="black" stroke-miterlimit="2.61313" stroke-linecap="round" stroke-linejoin="round"/>
  <path d="M36.0059 42.2735C36.0059 42.2735 36.5535 42.2465 37.2296 41.9625C37.9057 41.6786 41.3064 41.5501 42.9628 41.9355C44.6192 42.3209 45.1195 41.4014 46.8908 41.4014" stroke="black" stroke-miterlimit="2.61313" stroke-linecap="round" stroke-linejoin="round"/>
  <path d="M66.7724 12.3638C66.7724 12.3638 63.2432 27.2174 61.3502 34.9585C59.4572 42.6997 58.9907 43.9978 54.853 47.8988C50.7154 51.7998 42.7849 59.1218 35.9902 59.1218" stroke="black" stroke-miterlimit="2.61313" stroke-linecap="round" stroke-linejoin="round"/>
  <path d="M69.3339 10.3291C69.3339 10.3291 71.6123 10.3561 70.8415 13.669C70.0708 16.975 67.2989 21.7617 66.9405 25.3044C66.589 28.8471 65.1895 29.895 62.6406 29.6651" stroke="black" stroke-miterlimit="2.61313" stroke-linecap="round" stroke-linejoin="round"/>
  <path d="M68.7509 15.2587C68.7509 15.2587 68.3723 13.6632 67.6219 14.1973C66.8714 14.7314 65.2894 18.9231 65.2894 18.9231C65.2894 18.9231 66.3035 21.0528 65.7423 21.7018C65.1812 22.3508 64.0859 23.6692 64.0859 23.6692" stroke="black" stroke-miterlimit="2.61313" stroke-linecap="round" stroke-linejoin="round"/>
  <path d="M23.4609 1H48.1583" stroke="black" stroke-width="2" stroke-miterlimit="2.61313" stroke-linecap="round" stroke-linejoin="round" stroke-dasharray="0.01 4"/>
  <path d="M44.2441 28.1313C44.2441 28.1313 52.2896 30.5112 54.5815 38.6445" stroke="black" stroke-width="2" stroke-miterlimit="2.61313" stroke-linecap="round" stroke-linejoin="round" stroke-dasharray="0.01 4"/>
  <path d="M27.517 28.1313C27.517 28.1313 19.4716 30.5112 17.1797 38.6445" stroke="black" stroke-width="2" stroke-miterlimit="2.61313" stroke-linecap="round" stroke-linejoin="round" stroke-dasharray="0.01 4"/>
  <path d="M43.7285 18.2085C43.7285 18.2085 48.691 22.2244 57.5545 20.5748" stroke="black" stroke-width="2" stroke-miterlimit="2.61313" stroke-linecap="round" stroke-linejoin="round" stroke-dasharray="0.01 4"/>
  <path d="M27.8982 18.2085C27.8982 18.2085 22.9357 22.2244 14.0723 20.5748" stroke="black" stroke-width="2" stroke-miterlimit="2.61313" stroke-linecap="round" stroke-linejoin="round" stroke-dasharray="0.01 4"/>
</svg>