<svg width="106" height="17" viewBox="0 0 167 28" fill="none" xmlns="http://www.w3.org/2000/svg">
                  <path fill-rule="evenodd" clip-rule="evenodd"
                    d="M152.176 0.590137L155.317 9.72538L165.134 9.837C165.979 9.84665 166.329 10.9038 165.651 11.3985L157.775 17.1553L160.701 26.3592C160.952 27.1512 160.037 27.8038 159.348 27.324L151.34 21.7465L143.33 27.323C142.642 27.8027 141.726 27.1491 141.978 26.3581L144.903 17.1542L137.027 11.3975C136.35 10.9027 136.699 9.84558 137.544 9.83592L147.361 9.72431L150.503 0.589063C150.774 -0.196533 151.906 -0.196533 152.176 0.590137Z"
                    fill="#C7E7DC"></path>
                  <path fill-rule="evenodd" clip-rule="evenodd"
                    d="M118.257 0.590137L121.398 9.72538L131.215 9.837C132.06 9.84665 132.41 10.9038 131.732 11.3985L123.856 17.1553L126.782 26.3592C127.033 27.1512 126.118 27.8038 125.429 27.324L117.421 21.7465L109.412 27.323C108.723 27.8027 107.807 27.1491 108.059 26.3581L110.984 17.1542L103.108 11.3975C102.431 10.9027 102.78 9.84558 103.625 9.83592L113.442 9.72431L116.584 0.589063C116.855 -0.196533 117.987 -0.196533 118.257 0.590137Z"
                    fill="#C7E7DC"></path>
                  <path fill-rule="evenodd" clip-rule="evenodd"
                    d="M84.3367 0.590137L87.4786 9.72538L97.2952 9.837C98.14 9.84665 98.4897 10.9038 97.8121 11.3985L89.9363 17.1553L92.8617 26.3592C93.1131 27.1512 92.1984 27.8038 91.5088 27.324L83.5007 21.7465L75.4916 27.323C74.8031 27.8027 73.8873 27.1491 74.1387 26.3581L77.0641 17.1542L69.1883 11.3975C68.5107 10.9027 68.8604 9.84558 69.7052 9.83592L79.5218 9.72431L82.6637 0.589063C82.9347 -0.196533 84.0668 -0.196533 84.3367 0.590137Z"
                    fill="#C7E7DC"></path>
                  <path fill-rule="evenodd" clip-rule="evenodd"
                    d="M50.4178 0.590137L53.5596 9.72538L63.3763 9.837C64.221 9.84665 64.5707 10.9038 63.8932 11.3985L56.0173 17.1553L58.9428 26.3592C59.1941 27.1512 58.2794 27.8038 57.5899 27.324L49.5818 21.7465L41.5726 27.323C40.8842 27.8027 39.9684 27.1491 40.2197 26.3581L43.1452 17.1542L35.2693 11.3975C34.5918 10.9027 34.9415 9.84558 35.7862 9.83592L45.6029 9.72431L48.7447 0.589063C49.0157 -0.196533 50.1479 -0.196533 50.4178 0.590137Z"
                    fill="#C7E7DC"></path>
                  <path fill-rule="evenodd" clip-rule="evenodd"
                    d="M16.4979 0.590137L19.6397 9.72538L29.4564 9.837C30.3011 9.84665 30.6508 10.9038 29.9733 11.3985L22.0974 17.1553L25.0228 26.3592C25.2742 27.1512 24.3595 27.8038 23.67 27.324L15.6619 21.7465L7.65271 27.323C6.96425 27.8027 6.04847 27.1491 6.29982 26.3581L9.22526 17.1542L1.34941 11.3975C0.671874 10.9027 1.02157 9.84558 1.86631 9.83592L11.683 9.72431L14.8248 0.589063C15.0958 -0.196533 16.228 -0.196533 16.4979 0.590137Z"
                    fill="#C7E7DC"></path>
                </svg>