<svg width="46" height="47" viewBox="0 0 46 47" fill="none" xmlns="http://www.w3.org/2000/svg">
<circle cx="23" cy="23.5" r="22.5" stroke="black" stroke-width="0.775263"/>
<path d="M44.2929 15.8672C43.0876 18.2779 43.6974 23.4529 42.0937 25.0566C40.0891 27.0613 30.5671 26.059 27.059 25.0566C23.5509 24.0543 21.0451 22.5509 16.5347 21.5485C12.0243 20.5462 11.5231 20.5462 11.022 20.5462C10.5208 20.5462 8.5162 19.5439 8.01505 19.5439C7.51389 19.5439 6.51157 18.5416 5.0081 18.0404C3.50463 17.5393 3.50463 17.0381 3.00347 17.0381C2.60255 17.0381 2.16821 16.704 2.00116 16.537M44.2929 17.0381C44.1259 18.8757 42.6951 28.665 41.0914 29.0659C39.0868 29.5671 37.0822 30.0682 36.0799 30.0682C35.0775 30.0682 33.0729 31.0705 27.5602 30.0682C22.0475 29.0659 20.544 29.0659 17.537 29.0659C14.5301 29.0659 12.0243 29.0659 11.022 29.0659C10.0197 29.0659 8.5162 29.0659 7.51389 29.0659C6.51157 29.0659 6.01042 28.5647 4.00579 29.0659C2.40208 29.4668 1.66705 29.9012 1.5 30.0682M26.6142 29.8991C24.4425 30.5674 17.938 33.1754 15.5324 33.5763C12.5255 34.0775 12.5255 34.5786 11.022 34.0775C9.51852 33.5763 9.51852 33.5763 8.5162 33.5763C7.51389 33.5763 6.51157 33.5763 5.50926 33.5763C4.70741 33.5763 4.17284 33.9104 4.00579 34.0775H3.00347M43.5972 32.3406C41.7596 32.8417 34.8771 34.2779 32.0706 35.0798C28.5625 36.0821 29.0637 36.5833 27.059 36.5833C25.0544 36.5833 22.5486 36.5833 20.0428 36.5833C17.537 36.5833 16.5347 37.0844 15.0312 37.0844C13.8285 37.0844 10.5208 39.4232 9.01736 40.5925" stroke="black" stroke-width="0.775263"/>
</svg>
