<svg xmlns="http://www.w3.org/2000/svg" width="31" height="26" viewBox="0 0 31 26" fill="none">
  <path d="M7.6073 19.1334L7.43827 19.0686L7.26693 19.1271L3.32003 20.473L3.65783 16.7063L3.67663 16.4968L3.53995 16.3368C2.16257 14.725 1.2207 12.5788 1.2207 10.4217C1.2207 5.24181 5.86418 0.961914 11.6968 0.961914C17.5294 0.961914 22.1729 5.24181 22.1729 10.4217C22.1729 15.6016 17.5294 19.8815 11.6968 19.8815C10.2442 19.8815 8.86251 19.6147 7.6073 19.1334Z" stroke="white"/>
  <path d="M27.8656 20.7714L27.8468 20.5619L27.9835 20.4019C29.3609 18.7901 30.3027 16.6439 30.3027 14.4868C30.3027 10.7394 27.8803 7.46996 24.3261 5.94162C25.5077 9.69128 24.8092 13.5523 23.9422 15.5029C21.6679 20.6203 16.9689 22.0989 13.874 22.2716C15.5619 23.3263 17.6119 23.9466 19.8266 23.9466C21.2792 23.9466 22.6609 23.6798 23.9161 23.1985L24.0852 23.1337L24.2565 23.1922L28.2034 24.5381L27.8656 20.7714Z" stroke="white"/>
  <circle cx="6.20994" cy="10.8281" r="1.42283" fill="#C7E7DC"/>
  <circle cx="11.9013" cy="10.8281" r="1.42283" fill="#C7E7DC"/>
  <circle cx="17.5927" cy="10.8281" r="1.42283" fill="#C7E7DC"/>
</svg>