<svg xmlns="http://www.w3.org/2000/svg" width="74" height="61" viewBox="0 0 74 61" fill="none">
  <path d="M16.6432 46.7049L16.508 46.653L16.3709 46.6998L5.45337 50.4228L6.3984 39.8854L6.41343 39.7178L6.30409 39.5898C2.81215 35.5034 0.4 30.0389 0.4 24.5C0.4 11.2256 12.2718 0.4 27 0.4C41.7282 0.4 53.6 11.2256 53.6 24.5C53.6 37.7744 41.7282 48.6 27 48.6C23.3249 48.6 19.8253 47.9249 16.6432 46.7049Z" stroke="#414141" stroke-width="0.8"/>
  <path d="M67.6016 49.8853L67.5866 49.7177L67.6959 49.5897C71.1878 45.5034 73.6 40.0388 73.6 34.5C73.6 24.3089 66.6098 15.5672 56.6923 12.0499C60.3198 21.5506 58.5605 31.7237 56.3655 36.6625C50.2608 50.3982 36.816 53.1597 29.7444 52.841C34.3869 56.43 40.4113 58.5999 47 58.5999C50.6751 58.5999 54.1747 57.9248 57.3568 56.7048L57.492 56.653L57.6291 56.6997L68.5466 60.4227L67.6016 49.8853Z" stroke="#414141" stroke-width="0.8"/>
  <circle cx="13.5" cy="25.5" r="3.5" fill="#C7E7DC"/>
  <circle cx="27.5" cy="25.5" r="3.5" fill="#C7E7DC"/>
  <circle cx="41.5" cy="25.5" r="3.5" fill="#C7E7DC"/>
</svg>