<svg xmlns="http://www.w3.org/2000/svg" width="55" height="51" viewBox="0 0 55 51" fill="none">
  <path fill-rule="evenodd" clip-rule="evenodd" d="M16.4383 19.8848H28.0804V44.8703C28.0804 45.7362 27.3747 46.4457 26.505 46.4457H18.0137C17.144 46.4457 16.4383 45.7362 16.4383 44.8703V19.8848Z" stroke="#414141" stroke-width="0.8" stroke-miterlimit="2.61313" stroke-linecap="round" stroke-linejoin="round"/>
  <path d="M21.9573 35.7793C21.5686 35.749 21.2092 35.658 20.8572 35.5065C20.4244 35.3094 20.0357 35.0442 19.7057 34.7107C19.3756 34.3773 19.1116 33.9832 18.9062 33.5285C18.7155 33.0813 18.6129 32.5887 18.6129 32.0658C18.6129 31.5505 18.7155 31.0579 18.9136 30.6032C19.1116 30.1484 19.3756 29.7544 19.713 29.4133C20.0431 29.0723 20.4318 28.807 20.8645 28.6176C21.2972 28.4281 21.752 28.3296 22.2287 28.3296C22.7054 28.3296 23.1675 28.4281 23.6002 28.6176C24.0403 28.8146 24.429 29.0799 24.7591 29.4133C25.0964 29.7544 25.3605 30.1484 25.5585 30.6032C25.7565 31.0579 25.8592 31.5429 25.8592 32.0658C25.8592 32.5887 25.7565 33.0738 25.5585 33.5285C25.3605 33.9832 25.0891 34.3773 24.7591 34.7107C24.4217 35.0442 24.0403 35.3094 23.6002 35.5065C23.1895 35.6808 22.7568 35.7793 22.3094 35.7869C22.3167 35.7869 22.0893 35.7945 21.9573 35.7793ZM22.2287 35.5823C22.6027 35.5823 22.9255 35.4913 23.1895 35.317C23.4609 35.1427 23.6809 34.8926 23.8496 34.5819C24.0256 34.2712 24.1503 33.8998 24.231 33.4678C24.3117 33.0434 24.3557 32.5736 24.3557 32.0582C24.3557 31.5505 24.3117 31.0806 24.231 30.6486C24.1576 30.2242 24.0329 29.8453 23.8569 29.5346C23.6809 29.2239 23.4609 28.9738 23.1968 28.7919C22.9255 28.61 22.6101 28.5191 22.236 28.5191C21.862 28.5191 21.5393 28.61 21.2752 28.7919C21.0039 28.9738 20.7838 29.2163 20.6151 29.5346C20.4464 29.8529 20.3218 30.2242 20.2337 30.6562C20.1531 31.0882 20.1091 31.558 20.1091 32.0582C20.1091 32.5584 20.1531 33.0283 20.2337 33.4603C20.3144 33.8922 20.4391 34.2636 20.6151 34.5743C20.7838 34.885 21.0039 35.1351 21.2752 35.3094C21.5393 35.4989 21.862 35.5823 22.2287 35.5823Z" fill="#414141"/>
  <path d="M21.9573 35.7793C21.5686 35.749 21.2092 35.658 20.8572 35.5065C20.4244 35.3094 20.0357 35.0442 19.7057 34.7107C19.3756 34.3773 19.1116 33.9832 18.9062 33.5285C18.7155 33.0813 18.6129 32.5887 18.6129 32.0658C18.6129 31.5505 18.7155 31.0579 18.9136 30.6032C19.1116 30.1484 19.3756 29.7544 19.713 29.4133C20.0431 29.0723 20.4318 28.807 20.8645 28.6176C21.2972 28.4281 21.752 28.3296 22.2287 28.3296C22.7054 28.3296 23.1675 28.4281 23.6002 28.6176C24.0403 28.8146 24.429 29.0799 24.7591 29.4133C25.0964 29.7544 25.3605 30.1484 25.5585 30.6032C25.7565 31.0579 25.8592 31.5429 25.8592 32.0658C25.8592 32.5887 25.7565 33.0738 25.5585 33.5285C25.3605 33.9832 25.0891 34.3773 24.7591 34.7107C24.4217 35.0442 24.0403 35.3094 23.6002 35.5065C23.1895 35.6808 22.7568 35.7793 22.3094 35.7869C22.3167 35.7869 22.0893 35.7945 21.9573 35.7793ZM22.2287 35.5823C22.6027 35.5823 22.9255 35.4913 23.1895 35.317C23.4609 35.1427 23.6809 34.8926 23.8496 34.5819C24.0256 34.2712 24.1503 33.8998 24.231 33.4678C24.3117 33.0434 24.3557 32.5736 24.3557 32.0582C24.3557 31.5505 24.3117 31.0806 24.231 30.6486C24.1576 30.2242 24.0329 29.8453 23.8569 29.5346C23.6809 29.2239 23.4609 28.9738 23.1968 28.7919C22.9255 28.61 22.6101 28.5191 22.236 28.5191C21.862 28.5191 21.5393 28.61 21.2752 28.7919C21.0039 28.9738 20.7838 29.2163 20.6151 29.5346C20.4464 29.8529 20.3218 30.2242 20.2337 30.6562C20.1531 31.0882 20.1091 31.558 20.1091 32.0582C20.1091 32.5584 20.1531 33.0283 20.2337 33.4603C20.3144 33.8922 20.4391 34.2636 20.6151 34.5743C20.7838 34.885 21.0039 35.1351 21.2752 35.3094C21.5393 35.4989 21.862 35.5823 22.2287 35.5823Z" stroke="#414141"/>
  <path d="M25.8565 36.5749C25.3651 36.5749 24.9104 36.6203 24.4997 36.7037C24.089 36.7871 23.7296 36.9235 23.4215 37.0978C23.1208 37.2797 22.8788 37.507 22.7101 37.7798C22.5414 38.0527 22.4534 38.3861 22.4534 38.7651H22.2554V38.6817C22.27 38.2194 22.3581 37.7723 22.5267 37.3479C22.7174 36.9007 22.9741 36.4991 23.2969 36.1505C23.6196 35.8018 24.001 35.529 24.441 35.3244C24.8811 35.1198 25.3505 35.0137 25.8565 35.0137V36.5749Z" fill="#414141"/>
  <path d="M25.8565 36.5749C25.3651 36.5749 24.9104 36.6203 24.4997 36.7037C24.089 36.7871 23.7296 36.9235 23.4215 37.0978C23.1208 37.2797 22.8788 37.507 22.7101 37.7798C22.5414 38.0527 22.4534 38.3861 22.4534 38.7651H22.2554V38.6817C22.27 38.2194 22.3581 37.7723 22.5267 37.3479C22.7174 36.9007 22.9741 36.4991 23.2969 36.1505C23.6196 35.8018 24.001 35.529 24.441 35.3244C24.8811 35.1198 25.3505 35.0137 25.8565 35.0137V36.5749Z" stroke="#414141"/>
  <path d="M28.0842 17.6108H16.4383V19.8843H28.0842V17.6108Z" stroke="#414141" stroke-width="0.8" stroke-miterlimit="2.61313" stroke-linecap="round" stroke-linejoin="round"/>
  <path d="M26.9795 11.8394H17.5461V17.6108H26.9795V11.8394Z" stroke="#414141" stroke-width="0.8" stroke-miterlimit="2.61313" stroke-linecap="round" stroke-linejoin="round"/>
  <path d="M28.0331 5.86572H18.7086V11.8432H25.8113V8.03964H28.0331V5.86572Z" stroke="#414141" stroke-width="0.8" stroke-miterlimit="2.61313" stroke-linecap="round" stroke-linejoin="round"/>
  <path fill-rule="evenodd" clip-rule="evenodd" d="M38.3989 14.5484C38.5332 14.9409 38.6055 15.361 38.6055 15.7948C38.6055 15.874 38.602 15.9532 38.5986 16.0289V16.0392C38.4747 18.0431 36.8048 19.6337 34.7665 19.6337C32.7317 19.6337 31.0653 18.0431 30.9379 16.0392V16.0289C30.9345 15.9532 30.931 15.874 30.931 15.7948C30.931 15.361 31.0033 14.9409 31.1376 14.5484C31.716 12.6031 33.4134 10.6888 34.7665 8.76416C36.1231 10.6888 37.8205 12.6066 38.3989 14.5484Z" stroke="#414141" stroke-width="0.8" stroke-miterlimit="2.61313" stroke-linecap="round" stroke-linejoin="round"/>
  <path d="M35.5126 18.3842C33.7016 18.3842 32.2349 16.9174 32.2349 15.1099" stroke="#414141" stroke-width="0.8" stroke-miterlimit="2.61313" stroke-linecap="round" stroke-linejoin="round"/>
</svg>