<svg xmlns="http://www.w3.org/2000/svg" width="24" height="24" viewBox="0 0 24 24" fill="none">
  <g clip-path="url(#clip0_27849_3487)">
    <mask id="path-1-outside-1_27849_3487" maskUnits="userSpaceOnUse" x="0.5" y="-0.391602" width="23" height="24" fill="black">
      <rect fill="white" x="0.5" y="-0.391602" width="23" height="24"/>
      <path fill-rule="evenodd" clip-rule="evenodd" d="M12.7939 0.686867C12.7301 0.729992 12.4985 0.93568 12.279 1.1439C12.0597 1.35212 11.6812 1.70176 11.4381 1.9209C11.1949 2.14004 10.7589 2.53552 10.4691 2.7998C9.96051 3.26368 9.93482 3.28027 9.72594 3.28027C9.44966 3.28027 9.27951 3.43004 9.27951 3.67318C9.27951 3.91102 9.4491 4.03004 9.78974 4.03112C10.4513 4.03327 11.4046 4.24571 11.9198 4.50577C12.5419 4.81984 12.9511 5.3206 13.121 5.97559C13.2013 6.28515 13.1805 6.47734 13.0452 6.67955C12.8779 6.92945 12.4674 7.40527 12.4191 7.40527C12.3834 7.40527 12.1174 7.25565 10.6389 6.40384C10.3424 6.23302 10.0554 6.09315 10.0012 6.09301C9.85663 6.09268 9.65451 6.29968 9.65451 6.44813C9.65451 6.57362 9.65451 6.57362 9.32568 6.54123C9.00243 6.5094 8.99441 6.51127 8.85215 6.65354C8.7359 6.76979 8.71335 6.82341 8.73744 6.92598C8.78905 7.14596 8.95312 7.24815 9.30965 7.28255C9.60848 7.31138 10.2386 7.26052 10.4133 7.19344C10.4587 7.17605 10.619 7.23877 10.8103 7.34874C11.977 8.01976 11.883 7.94373 11.7091 8.07559C11.2006 8.46127 10.4865 8.79544 9.84224 8.94934C9.35802 9.06498 9.21477 9.15137 9.02141 9.44433C8.94843 9.55496 8.92851 9.66521 8.92827 9.96085C8.92799 10.2995 8.94229 10.3599 9.07265 10.5702C9.15224 10.6986 9.30927 10.9594 9.42154 11.1496C9.70222 11.6251 9.95329 11.725 10.1713 11.4479C10.2902 11.2966 10.2881 11.1719 10.1631 10.9678C10.0593 10.7985 10.0054 10.7047 9.7588 10.2646C9.58429 9.9533 9.59488 9.7628 9.78899 9.72226C10.1601 9.64477 10.9002 9.38476 11.2483 9.20959C12.2064 8.72743 13.2335 7.78927 13.78 6.89715C13.928 6.65569 13.9324 6.63399 13.9054 6.28449C13.8464 5.5194 13.5092 4.82012 12.9636 4.33135C12.61 4.01462 11.8866 3.64866 11.342 3.5109C11.1229 3.45549 10.9374 3.40463 10.9299 3.39793C10.9223 3.39118 11.2387 3.09559 11.633 2.74102C12.0273 2.38646 12.5766 1.87777 12.8537 1.61063C13.2784 1.20127 13.3576 1.10237 13.3576 0.981711C13.3576 0.80893 13.1755 0.608398 13.0186 0.608398C12.9587 0.608398 12.8576 0.643695 12.7939 0.686867ZM2.73243 3.53827C2.56663 3.60798 2.52951 3.6842 2.52951 3.95494C2.52951 4.21168 2.65804 4.3584 2.8829 4.3584C3.11577 4.3584 3.23263 4.2242 3.23263 3.95687C3.23263 3.83916 3.21196 3.70426 3.18674 3.6571C3.1154 3.52374 2.90057 3.46754 2.73243 3.53827ZM1.59201 4.63965C1.46858 4.76307 1.46948 5.01296 1.59383 5.14641C1.71993 5.28179 2.09324 5.29023 2.25243 5.16132C2.40294 5.03944 2.40294 4.75548 2.25243 4.6336C2.09943 4.50971 1.71848 4.51318 1.59201 4.63965ZM3.51388 4.63965C3.39046 4.76307 3.39135 5.01296 3.51571 5.14641C3.61991 5.2583 3.95901 5.29004 4.12143 5.20313C4.32604 5.09363 4.33063 4.70377 4.1286 4.59563C3.96787 4.50962 3.61893 4.5346 3.51388 4.63965ZM8.32194 5.00818C7.16863 6.32255 6.36088 7.58569 5.88974 8.81152C5.77579 9.10801 5.52285 9.84629 5.32762 10.4521C4.36504 13.4395 4.06152 14.859 4.09987 16.1943C4.12096 16.9287 4.1999 17.2743 4.47702 17.8456C4.86233 18.64 5.59368 19.2622 6.86137 19.8739C7.44468 20.1554 7.44468 20.1554 7.53632 20.4014C7.90143 21.3817 8.18718 22.3913 8.2334 22.8644C8.25669 23.1032 8.2844 23.1769 8.37876 23.2511C8.59447 23.4208 8.8596 23.3515 8.94632 23.1028C9.03154 22.8583 8.83776 21.9244 8.48877 20.8978C8.35082 20.4919 8.35082 20.4919 8.49876 20.5533C8.85604 20.7017 10.3301 21.1865 10.4239 21.1865C10.6983 21.1865 10.8468 20.7847 10.6527 20.5675C10.6134 20.5235 10.378 20.4204 10.1296 20.3384C7.09827 19.337 5.78694 18.63 5.22599 17.6943C4.93729 17.2128 4.86243 16.8992 4.8456 16.1006C4.82048 14.9064 5.07332 13.6762 5.84277 11.249C6.7964 8.24077 7.16957 7.52307 8.77532 5.60893C9.1184 5.19994 9.27951 4.97082 9.27951 4.89193C9.27951 4.72032 9.0824 4.5459 8.88848 4.5459C8.74344 4.5459 8.68748 4.5916 8.32194 5.00818ZM2.73576 5.45659C2.56527 5.53079 2.52951 5.60518 2.52951 5.88568C2.52951 6.14274 2.64918 6.28027 2.87291 6.28027C3.09158 6.28027 3.23263 6.11977 3.23263 5.87091C3.23263 5.61287 3.1986 5.53932 3.04176 5.45823C2.88599 5.37765 2.91665 5.37784 2.73576 5.45659ZM16.8618 6.94051C16.4764 6.99694 15.9267 7.19794 15.8279 7.31846C15.7035 7.47034 15.7387 7.72299 15.9011 7.84374C16.0191 7.93145 16.0482 7.93463 16.2292 7.8796C16.9816 7.6509 17.0849 7.63248 17.4841 7.65577C17.9602 7.68357 18.2976 7.80066 18.5889 8.03944C19.1879 8.53027 19.8193 9.73763 20.2449 11.2061C20.3238 11.4781 20.4219 11.7197 20.4668 11.7526C20.5936 11.8453 20.8446 11.8246 20.9571 11.712C21.0425 11.6266 21.0526 11.5775 21.0278 11.3667C20.9907 11.0512 20.6824 10.109 20.4161 9.4974C19.7281 7.91729 18.9703 7.14549 17.9241 6.95907C17.5134 6.88585 17.2646 6.88154 16.8618 6.94051ZM14.5982 9.55927C14.5457 9.58051 14.4758 9.63043 14.4428 9.67023C14.3719 9.75573 14.3576 9.98518 14.4171 10.0831C14.4664 10.1641 14.9698 10.6286 15.2998 10.8975C15.4263 11.0006 15.6166 11.1588 15.7226 11.249C15.8286 11.3393 16.1076 11.557 16.3427 11.733C16.7701 12.0529 16.7701 12.0529 16.6546 12.3372C16.4956 12.7285 16.497 12.9703 16.6593 13.1099C16.7984 13.2295 16.8574 13.2393 17.0348 13.1718C17.1566 13.1255 17.1756 13.0933 17.317 12.6929C17.3947 12.4727 17.3947 12.4727 17.6474 12.6343C17.7863 12.7232 17.9196 12.7959 17.9436 12.7959C17.9676 12.7959 17.9549 12.8856 17.9153 12.9951C17.8194 13.2608 17.782 14.0196 17.856 14.1984C17.9532 14.4329 18.3181 14.4988 18.4747 14.3101C18.509 14.2688 18.5373 14.0769 18.5432 13.8459C18.5577 13.2795 18.5893 13.1645 18.7211 13.1976C18.8777 13.2369 19.1233 13.0167 19.1233 12.8369C19.1233 12.6587 19.0143 12.5611 18.4904 12.2696C17.9676 11.9787 17.2642 11.5152 16.7358 11.1135C16.2444 10.7399 15.2986 9.94613 15.1389 9.77321C15.024 9.64885 14.8052 9.51174 14.7311 9.5176C14.7104 9.51924 14.6506 9.53799 14.5982 9.55927ZM7.09771 12.161C6.79752 12.4611 7.13071 12.8543 7.87326 13.076C8.13107 13.153 8.13107 13.153 8.20691 13.5221C8.29949 13.9729 8.38541 14.0615 8.72971 14.0615C8.95607 14.0615 8.97787 14.0733 9.22973 14.3311C9.37457 14.4793 9.58644 14.7166 9.70058 14.8584C10.2833 15.5825 11.0513 16.0774 11.7143 16.1559C11.9174 16.1799 11.9573 16.1693 12.0646 16.0619C12.3186 15.8079 12.1674 15.5282 11.7079 15.4018C11.1343 15.2441 10.7203 14.9476 10.2404 14.3509C9.68423 13.6593 9.41413 13.432 9.04265 13.343C8.94552 13.3198 8.9114 13.2692 8.86162 13.075C8.77448 12.735 8.5393 12.5027 8.17794 12.3997C8.02326 12.3556 7.79994 12.258 7.68163 12.1827C7.41824 12.0151 7.24982 12.0088 7.09771 12.161ZM6.71615 14.1546C6.58822 14.2074 6.51388 14.3423 6.51388 14.5215C6.51388 14.6334 6.5736 14.7113 6.83029 14.9345C7.00433 15.0857 7.1699 15.2307 7.19826 15.2566C7.53801 15.5671 8.38026 16.2558 8.48071 16.3053C8.74096 16.4337 9.0313 16.1683 8.94805 15.878C8.92569 15.8001 8.90146 15.732 8.89424 15.7268C8.88698 15.7216 8.46712 15.3669 7.96115 14.9386C7.45513 14.5104 6.99107 14.1493 6.9299 14.1361C6.86868 14.1231 6.77249 14.1313 6.71615 14.1546ZM21.0622 16.7414C20.8364 16.8507 20.7839 17.2733 20.9727 17.4621C21.2133 17.7027 21.6076 17.5294 21.6076 17.1831C21.6076 16.9636 21.5282 16.8018 21.3893 16.7386C21.2531 16.6765 21.1951 16.677 21.0622 16.7414ZM19.9634 17.8548C19.8816 17.9366 19.8264 18.0413 19.8264 18.1148C19.8264 18.446 20.361 18.6038 20.6021 18.3437C20.9656 17.9514 20.3432 17.475 19.9634 17.8548ZM21.9869 17.7677C21.7311 17.8726 21.6704 18.1598 21.8633 18.3527C22.1092 18.5986 22.6389 18.4404 22.6389 18.1209C22.6389 17.8482 22.2734 17.6502 21.9869 17.7677ZM20.9946 18.7454C20.7216 19.0184 20.8734 19.499 21.2326 19.499C21.4348 19.499 21.6076 19.3173 21.6076 19.1049C21.6076 18.8855 21.5282 18.7237 21.3893 18.6604C21.2149 18.581 21.1438 18.5963 20.9946 18.7454ZM16.217 19.4376C16.0413 19.5046 15.9826 19.6074 15.9841 19.8461C15.986 20.1371 16.0601 20.2447 16.2842 20.281C16.5361 20.3219 16.6858 20.1691 16.6858 19.871C16.6858 19.7288 16.6566 19.6155 16.6037 19.5531C16.5157 19.4491 16.3313 19.3939 16.217 19.4376ZM15.153 20.4816C14.9951 20.5488 14.894 20.7779 14.9534 20.934C15.0234 21.1181 15.1333 21.1833 15.3768 21.185C15.5416 21.1862 15.6149 21.1614 15.6932 21.0781C15.8241 20.9387 15.8301 20.6702 15.705 20.557C15.5984 20.4605 15.2986 20.4196 15.153 20.4816ZM17.0608 20.4972C16.8164 20.6208 16.7859 20.9569 17.004 21.1226C17.1309 21.219 17.4517 21.2009 17.5935 21.0893C17.7939 20.9317 17.7586 20.6253 17.5261 20.5051C17.3641 20.4213 17.2157 20.4188 17.0608 20.4972ZM16.1061 21.4243C16.0007 21.5072 15.9826 21.5575 15.9826 21.7677C15.9826 22.0585 16.1093 22.2178 16.3408 22.2178C16.5545 22.2178 16.6858 22.0508 16.6858 21.779C16.6858 21.3928 16.3823 21.2071 16.1061 21.4243Z"/>
    </mask>
    <path fill-rule="evenodd" clip-rule="evenodd" d="M12.7939 0.686867C12.7301 0.729992 12.4985 0.93568 12.279 1.1439C12.0597 1.35212 11.6812 1.70176 11.4381 1.9209C11.1949 2.14004 10.7589 2.53552 10.4691 2.7998C9.96051 3.26368 9.93482 3.28027 9.72594 3.28027C9.44966 3.28027 9.27951 3.43004 9.27951 3.67318C9.27951 3.91102 9.4491 4.03004 9.78974 4.03112C10.4513 4.03327 11.4046 4.24571 11.9198 4.50577C12.5419 4.81984 12.9511 5.3206 13.121 5.97559C13.2013 6.28515 13.1805 6.47734 13.0452 6.67955C12.8779 6.92945 12.4674 7.40527 12.4191 7.40527C12.3834 7.40527 12.1174 7.25565 10.6389 6.40384C10.3424 6.23302 10.0554 6.09315 10.0012 6.09301C9.85663 6.09268 9.65451 6.29968 9.65451 6.44813C9.65451 6.57362 9.65451 6.57362 9.32568 6.54123C9.00243 6.5094 8.99441 6.51127 8.85215 6.65354C8.7359 6.76979 8.71335 6.82341 8.73744 6.92598C8.78905 7.14596 8.95312 7.24815 9.30965 7.28255C9.60848 7.31138 10.2386 7.26052 10.4133 7.19344C10.4587 7.17605 10.619 7.23877 10.8103 7.34874C11.977 8.01976 11.883 7.94373 11.7091 8.07559C11.2006 8.46127 10.4865 8.79544 9.84224 8.94934C9.35802 9.06498 9.21477 9.15137 9.02141 9.44433C8.94843 9.55496 8.92851 9.66521 8.92827 9.96085C8.92799 10.2995 8.94229 10.3599 9.07265 10.5702C9.15224 10.6986 9.30927 10.9594 9.42154 11.1496C9.70222 11.6251 9.95329 11.725 10.1713 11.4479C10.2902 11.2966 10.2881 11.1719 10.1631 10.9678C10.0593 10.7985 10.0054 10.7047 9.7588 10.2646C9.58429 9.9533 9.59488 9.7628 9.78899 9.72226C10.1601 9.64477 10.9002 9.38476 11.2483 9.20959C12.2064 8.72743 13.2335 7.78927 13.78 6.89715C13.928 6.65569 13.9324 6.63399 13.9054 6.28449C13.8464 5.5194 13.5092 4.82012 12.9636 4.33135C12.61 4.01462 11.8866 3.64866 11.342 3.5109C11.1229 3.45549 10.9374 3.40463 10.9299 3.39793C10.9223 3.39118 11.2387 3.09559 11.633 2.74102C12.0273 2.38646 12.5766 1.87777 12.8537 1.61063C13.2784 1.20127 13.3576 1.10237 13.3576 0.981711C13.3576 0.80893 13.1755 0.608398 13.0186 0.608398C12.9587 0.608398 12.8576 0.643695 12.7939 0.686867ZM2.73243 3.53827C2.56663 3.60798 2.52951 3.6842 2.52951 3.95494C2.52951 4.21168 2.65804 4.3584 2.8829 4.3584C3.11577 4.3584 3.23263 4.2242 3.23263 3.95687C3.23263 3.83916 3.21196 3.70426 3.18674 3.6571C3.1154 3.52374 2.90057 3.46754 2.73243 3.53827ZM1.59201 4.63965C1.46858 4.76307 1.46948 5.01296 1.59383 5.14641C1.71993 5.28179 2.09324 5.29023 2.25243 5.16132C2.40294 5.03944 2.40294 4.75548 2.25243 4.6336C2.09943 4.50971 1.71848 4.51318 1.59201 4.63965ZM3.51388 4.63965C3.39046 4.76307 3.39135 5.01296 3.51571 5.14641C3.61991 5.2583 3.95901 5.29004 4.12143 5.20313C4.32604 5.09363 4.33063 4.70377 4.1286 4.59563C3.96787 4.50962 3.61893 4.5346 3.51388 4.63965ZM8.32194 5.00818C7.16863 6.32255 6.36088 7.58569 5.88974 8.81152C5.77579 9.10801 5.52285 9.84629 5.32762 10.4521C4.36504 13.4395 4.06152 14.859 4.09987 16.1943C4.12096 16.9287 4.1999 17.2743 4.47702 17.8456C4.86233 18.64 5.59368 19.2622 6.86137 19.8739C7.44468 20.1554 7.44468 20.1554 7.53632 20.4014C7.90143 21.3817 8.18718 22.3913 8.2334 22.8644C8.25669 23.1032 8.2844 23.1769 8.37876 23.2511C8.59447 23.4208 8.8596 23.3515 8.94632 23.1028C9.03154 22.8583 8.83776 21.9244 8.48877 20.8978C8.35082 20.4919 8.35082 20.4919 8.49876 20.5533C8.85604 20.7017 10.3301 21.1865 10.4239 21.1865C10.6983 21.1865 10.8468 20.7847 10.6527 20.5675C10.6134 20.5235 10.378 20.4204 10.1296 20.3384C7.09827 19.337 5.78694 18.63 5.22599 17.6943C4.93729 17.2128 4.86243 16.8992 4.8456 16.1006C4.82048 14.9064 5.07332 13.6762 5.84277 11.249C6.7964 8.24077 7.16957 7.52307 8.77532 5.60893C9.1184 5.19994 9.27951 4.97082 9.27951 4.89193C9.27951 4.72032 9.0824 4.5459 8.88848 4.5459C8.74344 4.5459 8.68748 4.5916 8.32194 5.00818ZM2.73576 5.45659C2.56527 5.53079 2.52951 5.60518 2.52951 5.88568C2.52951 6.14274 2.64918 6.28027 2.87291 6.28027C3.09158 6.28027 3.23263 6.11977 3.23263 5.87091C3.23263 5.61287 3.1986 5.53932 3.04176 5.45823C2.88599 5.37765 2.91665 5.37784 2.73576 5.45659ZM16.8618 6.94051C16.4764 6.99694 15.9267 7.19794 15.8279 7.31846C15.7035 7.47034 15.7387 7.72299 15.9011 7.84374C16.0191 7.93145 16.0482 7.93463 16.2292 7.8796C16.9816 7.6509 17.0849 7.63248 17.4841 7.65577C17.9602 7.68357 18.2976 7.80066 18.5889 8.03944C19.1879 8.53027 19.8193 9.73763 20.2449 11.2061C20.3238 11.4781 20.4219 11.7197 20.4668 11.7526C20.5936 11.8453 20.8446 11.8246 20.9571 11.712C21.0425 11.6266 21.0526 11.5775 21.0278 11.3667C20.9907 11.0512 20.6824 10.109 20.4161 9.4974C19.7281 7.91729 18.9703 7.14549 17.9241 6.95907C17.5134 6.88585 17.2646 6.88154 16.8618 6.94051ZM14.5982 9.55927C14.5457 9.58051 14.4758 9.63043 14.4428 9.67023C14.3719 9.75573 14.3576 9.98518 14.4171 10.0831C14.4664 10.1641 14.9698 10.6286 15.2998 10.8975C15.4263 11.0006 15.6166 11.1588 15.7226 11.249C15.8286 11.3393 16.1076 11.557 16.3427 11.733C16.7701 12.0529 16.7701 12.0529 16.6546 12.3372C16.4956 12.7285 16.497 12.9703 16.6593 13.1099C16.7984 13.2295 16.8574 13.2393 17.0348 13.1718C17.1566 13.1255 17.1756 13.0933 17.317 12.6929C17.3947 12.4727 17.3947 12.4727 17.6474 12.6343C17.7863 12.7232 17.9196 12.7959 17.9436 12.7959C17.9676 12.7959 17.9549 12.8856 17.9153 12.9951C17.8194 13.2608 17.782 14.0196 17.856 14.1984C17.9532 14.4329 18.3181 14.4988 18.4747 14.3101C18.509 14.2688 18.5373 14.0769 18.5432 13.8459C18.5577 13.2795 18.5893 13.1645 18.7211 13.1976C18.8777 13.2369 19.1233 13.0167 19.1233 12.8369C19.1233 12.6587 19.0143 12.5611 18.4904 12.2696C17.9676 11.9787 17.2642 11.5152 16.7358 11.1135C16.2444 10.7399 15.2986 9.94613 15.1389 9.77321C15.024 9.64885 14.8052 9.51174 14.7311 9.5176C14.7104 9.51924 14.6506 9.53799 14.5982 9.55927ZM7.09771 12.161C6.79752 12.4611 7.13071 12.8543 7.87326 13.076C8.13107 13.153 8.13107 13.153 8.20691 13.5221C8.29949 13.9729 8.38541 14.0615 8.72971 14.0615C8.95607 14.0615 8.97787 14.0733 9.22973 14.3311C9.37457 14.4793 9.58644 14.7166 9.70058 14.8584C10.2833 15.5825 11.0513 16.0774 11.7143 16.1559C11.9174 16.1799 11.9573 16.1693 12.0646 16.0619C12.3186 15.8079 12.1674 15.5282 11.7079 15.4018C11.1343 15.2441 10.7203 14.9476 10.2404 14.3509C9.68423 13.6593 9.41413 13.432 9.04265 13.343C8.94552 13.3198 8.9114 13.2692 8.86162 13.075C8.77448 12.735 8.5393 12.5027 8.17794 12.3997C8.02326 12.3556 7.79994 12.258 7.68163 12.1827C7.41824 12.0151 7.24982 12.0088 7.09771 12.161ZM6.71615 14.1546C6.58822 14.2074 6.51388 14.3423 6.51388 14.5215C6.51388 14.6334 6.5736 14.7113 6.83029 14.9345C7.00433 15.0857 7.1699 15.2307 7.19826 15.2566C7.53801 15.5671 8.38026 16.2558 8.48071 16.3053C8.74096 16.4337 9.0313 16.1683 8.94805 15.878C8.92569 15.8001 8.90146 15.732 8.89424 15.7268C8.88698 15.7216 8.46712 15.3669 7.96115 14.9386C7.45513 14.5104 6.99107 14.1493 6.9299 14.1361C6.86868 14.1231 6.77249 14.1313 6.71615 14.1546ZM21.0622 16.7414C20.8364 16.8507 20.7839 17.2733 20.9727 17.4621C21.2133 17.7027 21.6076 17.5294 21.6076 17.1831C21.6076 16.9636 21.5282 16.8018 21.3893 16.7386C21.2531 16.6765 21.1951 16.677 21.0622 16.7414ZM19.9634 17.8548C19.8816 17.9366 19.8264 18.0413 19.8264 18.1148C19.8264 18.446 20.361 18.6038 20.6021 18.3437C20.9656 17.9514 20.3432 17.475 19.9634 17.8548ZM21.9869 17.7677C21.7311 17.8726 21.6704 18.1598 21.8633 18.3527C22.1092 18.5986 22.6389 18.4404 22.6389 18.1209C22.6389 17.8482 22.2734 17.6502 21.9869 17.7677ZM20.9946 18.7454C20.7216 19.0184 20.8734 19.499 21.2326 19.499C21.4348 19.499 21.6076 19.3173 21.6076 19.1049C21.6076 18.8855 21.5282 18.7237 21.3893 18.6604C21.2149 18.581 21.1438 18.5963 20.9946 18.7454ZM16.217 19.4376C16.0413 19.5046 15.9826 19.6074 15.9841 19.8461C15.986 20.1371 16.0601 20.2447 16.2842 20.281C16.5361 20.3219 16.6858 20.1691 16.6858 19.871C16.6858 19.7288 16.6566 19.6155 16.6037 19.5531C16.5157 19.4491 16.3313 19.3939 16.217 19.4376ZM15.153 20.4816C14.9951 20.5488 14.894 20.7779 14.9534 20.934C15.0234 21.1181 15.1333 21.1833 15.3768 21.185C15.5416 21.1862 15.6149 21.1614 15.6932 21.0781C15.8241 20.9387 15.8301 20.6702 15.705 20.557C15.5984 20.4605 15.2986 20.4196 15.153 20.4816ZM17.0608 20.4972C16.8164 20.6208 16.7859 20.9569 17.004 21.1226C17.1309 21.219 17.4517 21.2009 17.5935 21.0893C17.7939 20.9317 17.7586 20.6253 17.5261 20.5051C17.3641 20.4213 17.2157 20.4188 17.0608 20.4972ZM16.1061 21.4243C16.0007 21.5072 15.9826 21.5575 15.9826 21.7677C15.9826 22.0585 16.1093 22.2178 16.3408 22.2178C16.5545 22.2178 16.6858 22.0508 16.6858 21.779C16.6858 21.3928 16.3823 21.2071 16.1061 21.4243Z" fill="black"/>
    <path fill-rule="evenodd" clip-rule="evenodd" d="M12.7939 0.686867C12.7301 0.729992 12.4985 0.93568 12.279 1.1439C12.0597 1.35212 11.6812 1.70176 11.4381 1.9209C11.1949 2.14004 10.7589 2.53552 10.4691 2.7998C9.96051 3.26368 9.93482 3.28027 9.72594 3.28027C9.44966 3.28027 9.27951 3.43004 9.27951 3.67318C9.27951 3.91102 9.4491 4.03004 9.78974 4.03112C10.4513 4.03327 11.4046 4.24571 11.9198 4.50577C12.5419 4.81984 12.9511 5.3206 13.121 5.97559C13.2013 6.28515 13.1805 6.47734 13.0452 6.67955C12.8779 6.92945 12.4674 7.40527 12.4191 7.40527C12.3834 7.40527 12.1174 7.25565 10.6389 6.40384C10.3424 6.23302 10.0554 6.09315 10.0012 6.09301C9.85663 6.09268 9.65451 6.29968 9.65451 6.44813C9.65451 6.57362 9.65451 6.57362 9.32568 6.54123C9.00243 6.5094 8.99441 6.51127 8.85215 6.65354C8.7359 6.76979 8.71335 6.82341 8.73744 6.92598C8.78905 7.14596 8.95312 7.24815 9.30965 7.28255C9.60848 7.31138 10.2386 7.26052 10.4133 7.19344C10.4587 7.17605 10.619 7.23877 10.8103 7.34874C11.977 8.01976 11.883 7.94373 11.7091 8.07559C11.2006 8.46127 10.4865 8.79544 9.84224 8.94934C9.35802 9.06498 9.21477 9.15137 9.02141 9.44433C8.94843 9.55496 8.92851 9.66521 8.92827 9.96085C8.92799 10.2995 8.94229 10.3599 9.07265 10.5702C9.15224 10.6986 9.30927 10.9594 9.42154 11.1496C9.70222 11.6251 9.95329 11.725 10.1713 11.4479C10.2902 11.2966 10.2881 11.1719 10.1631 10.9678C10.0593 10.7985 10.0054 10.7047 9.7588 10.2646C9.58429 9.9533 9.59488 9.7628 9.78899 9.72226C10.1601 9.64477 10.9002 9.38476 11.2483 9.20959C12.2064 8.72743 13.2335 7.78927 13.78 6.89715C13.928 6.65569 13.9324 6.63399 13.9054 6.28449C13.8464 5.5194 13.5092 4.82012 12.9636 4.33135C12.61 4.01462 11.8866 3.64866 11.342 3.5109C11.1229 3.45549 10.9374 3.40463 10.9299 3.39793C10.9223 3.39118 11.2387 3.09559 11.633 2.74102C12.0273 2.38646 12.5766 1.87777 12.8537 1.61063C13.2784 1.20127 13.3576 1.10237 13.3576 0.981711C13.3576 0.80893 13.1755 0.608398 13.0186 0.608398C12.9587 0.608398 12.8576 0.643695 12.7939 0.686867ZM2.73243 3.53827C2.56663 3.60798 2.52951 3.6842 2.52951 3.95494C2.52951 4.21168 2.65804 4.3584 2.8829 4.3584C3.11577 4.3584 3.23263 4.2242 3.23263 3.95687C3.23263 3.83916 3.21196 3.70426 3.18674 3.6571C3.1154 3.52374 2.90057 3.46754 2.73243 3.53827ZM1.59201 4.63965C1.46858 4.76307 1.46948 5.01296 1.59383 5.14641C1.71993 5.28179 2.09324 5.29023 2.25243 5.16132C2.40294 5.03944 2.40294 4.75548 2.25243 4.6336C2.09943 4.50971 1.71848 4.51318 1.59201 4.63965ZM3.51388 4.63965C3.39046 4.76307 3.39135 5.01296 3.51571 5.14641C3.61991 5.2583 3.95901 5.29004 4.12143 5.20313C4.32604 5.09363 4.33063 4.70377 4.1286 4.59563C3.96787 4.50962 3.61893 4.5346 3.51388 4.63965ZM8.32194 5.00818C7.16863 6.32255 6.36088 7.58569 5.88974 8.81152C5.77579 9.10801 5.52285 9.84629 5.32762 10.4521C4.36504 13.4395 4.06152 14.859 4.09987 16.1943C4.12096 16.9287 4.1999 17.2743 4.47702 17.8456C4.86233 18.64 5.59368 19.2622 6.86137 19.8739C7.44468 20.1554 7.44468 20.1554 7.53632 20.4014C7.90143 21.3817 8.18718 22.3913 8.2334 22.8644C8.25669 23.1032 8.2844 23.1769 8.37876 23.2511C8.59447 23.4208 8.8596 23.3515 8.94632 23.1028C9.03154 22.8583 8.83776 21.9244 8.48877 20.8978C8.35082 20.4919 8.35082 20.4919 8.49876 20.5533C8.85604 20.7017 10.3301 21.1865 10.4239 21.1865C10.6983 21.1865 10.8468 20.7847 10.6527 20.5675C10.6134 20.5235 10.378 20.4204 10.1296 20.3384C7.09827 19.337 5.78694 18.63 5.22599 17.6943C4.93729 17.2128 4.86243 16.8992 4.8456 16.1006C4.82048 14.9064 5.07332 13.6762 5.84277 11.249C6.7964 8.24077 7.16957 7.52307 8.77532 5.60893C9.1184 5.19994 9.27951 4.97082 9.27951 4.89193C9.27951 4.72032 9.0824 4.5459 8.88848 4.5459C8.74344 4.5459 8.68748 4.5916 8.32194 5.00818ZM2.73576 5.45659C2.56527 5.53079 2.52951 5.60518 2.52951 5.88568C2.52951 6.14274 2.64918 6.28027 2.87291 6.28027C3.09158 6.28027 3.23263 6.11977 3.23263 5.87091C3.23263 5.61287 3.1986 5.53932 3.04176 5.45823C2.88599 5.37765 2.91665 5.37784 2.73576 5.45659ZM16.8618 6.94051C16.4764 6.99694 15.9267 7.19794 15.8279 7.31846C15.7035 7.47034 15.7387 7.72299 15.9011 7.84374C16.0191 7.93145 16.0482 7.93463 16.2292 7.8796C16.9816 7.6509 17.0849 7.63248 17.4841 7.65577C17.9602 7.68357 18.2976 7.80066 18.5889 8.03944C19.1879 8.53027 19.8193 9.73763 20.2449 11.2061C20.3238 11.4781 20.4219 11.7197 20.4668 11.7526C20.5936 11.8453 20.8446 11.8246 20.9571 11.712C21.0425 11.6266 21.0526 11.5775 21.0278 11.3667C20.9907 11.0512 20.6824 10.109 20.4161 9.4974C19.7281 7.91729 18.9703 7.14549 17.9241 6.95907C17.5134 6.88585 17.2646 6.88154 16.8618 6.94051ZM14.5982 9.55927C14.5457 9.58051 14.4758 9.63043 14.4428 9.67023C14.3719 9.75573 14.3576 9.98518 14.4171 10.0831C14.4664 10.1641 14.9698 10.6286 15.2998 10.8975C15.4263 11.0006 15.6166 11.1588 15.7226 11.249C15.8286 11.3393 16.1076 11.557 16.3427 11.733C16.7701 12.0529 16.7701 12.0529 16.6546 12.3372C16.4956 12.7285 16.497 12.9703 16.6593 13.1099C16.7984 13.2295 16.8574 13.2393 17.0348 13.1718C17.1566 13.1255 17.1756 13.0933 17.317 12.6929C17.3947 12.4727 17.3947 12.4727 17.6474 12.6343C17.7863 12.7232 17.9196 12.7959 17.9436 12.7959C17.9676 12.7959 17.9549 12.8856 17.9153 12.9951C17.8194 13.2608 17.782 14.0196 17.856 14.1984C17.9532 14.4329 18.3181 14.4988 18.4747 14.3101C18.509 14.2688 18.5373 14.0769 18.5432 13.8459C18.5577 13.2795 18.5893 13.1645 18.7211 13.1976C18.8777 13.2369 19.1233 13.0167 19.1233 12.8369C19.1233 12.6587 19.0143 12.5611 18.4904 12.2696C17.9676 11.9787 17.2642 11.5152 16.7358 11.1135C16.2444 10.7399 15.2986 9.94613 15.1389 9.77321C15.024 9.64885 14.8052 9.51174 14.7311 9.5176C14.7104 9.51924 14.6506 9.53799 14.5982 9.55927ZM7.09771 12.161C6.79752 12.4611 7.13071 12.8543 7.87326 13.076C8.13107 13.153 8.13107 13.153 8.20691 13.5221C8.29949 13.9729 8.38541 14.0615 8.72971 14.0615C8.95607 14.0615 8.97787 14.0733 9.22973 14.3311C9.37457 14.4793 9.58644 14.7166 9.70058 14.8584C10.2833 15.5825 11.0513 16.0774 11.7143 16.1559C11.9174 16.1799 11.9573 16.1693 12.0646 16.0619C12.3186 15.8079 12.1674 15.5282 11.7079 15.4018C11.1343 15.2441 10.7203 14.9476 10.2404 14.3509C9.68423 13.6593 9.41413 13.432 9.04265 13.343C8.94552 13.3198 8.9114 13.2692 8.86162 13.075C8.77448 12.735 8.5393 12.5027 8.17794 12.3997C8.02326 12.3556 7.79994 12.258 7.68163 12.1827C7.41824 12.0151 7.24982 12.0088 7.09771 12.161ZM6.71615 14.1546C6.58822 14.2074 6.51388 14.3423 6.51388 14.5215C6.51388 14.6334 6.5736 14.7113 6.83029 14.9345C7.00433 15.0857 7.1699 15.2307 7.19826 15.2566C7.53801 15.5671 8.38026 16.2558 8.48071 16.3053C8.74096 16.4337 9.0313 16.1683 8.94805 15.878C8.92569 15.8001 8.90146 15.732 8.89424 15.7268C8.88698 15.7216 8.46712 15.3669 7.96115 14.9386C7.45513 14.5104 6.99107 14.1493 6.9299 14.1361C6.86868 14.1231 6.77249 14.1313 6.71615 14.1546ZM21.0622 16.7414C20.8364 16.8507 20.7839 17.2733 20.9727 17.4621C21.2133 17.7027 21.6076 17.5294 21.6076 17.1831C21.6076 16.9636 21.5282 16.8018 21.3893 16.7386C21.2531 16.6765 21.1951 16.677 21.0622 16.7414ZM19.9634 17.8548C19.8816 17.9366 19.8264 18.0413 19.8264 18.1148C19.8264 18.446 20.361 18.6038 20.6021 18.3437C20.9656 17.9514 20.3432 17.475 19.9634 17.8548ZM21.9869 17.7677C21.7311 17.8726 21.6704 18.1598 21.8633 18.3527C22.1092 18.5986 22.6389 18.4404 22.6389 18.1209C22.6389 17.8482 22.2734 17.6502 21.9869 17.7677ZM20.9946 18.7454C20.7216 19.0184 20.8734 19.499 21.2326 19.499C21.4348 19.499 21.6076 19.3173 21.6076 19.1049C21.6076 18.8855 21.5282 18.7237 21.3893 18.6604C21.2149 18.581 21.1438 18.5963 20.9946 18.7454ZM16.217 19.4376C16.0413 19.5046 15.9826 19.6074 15.9841 19.8461C15.986 20.1371 16.0601 20.2447 16.2842 20.281C16.5361 20.3219 16.6858 20.1691 16.6858 19.871C16.6858 19.7288 16.6566 19.6155 16.6037 19.5531C16.5157 19.4491 16.3313 19.3939 16.217 19.4376ZM15.153 20.4816C14.9951 20.5488 14.894 20.7779 14.9534 20.934C15.0234 21.1181 15.1333 21.1833 15.3768 21.185C15.5416 21.1862 15.6149 21.1614 15.6932 21.0781C15.8241 20.9387 15.8301 20.6702 15.705 20.557C15.5984 20.4605 15.2986 20.4196 15.153 20.4816ZM17.0608 20.4972C16.8164 20.6208 16.7859 20.9569 17.004 21.1226C17.1309 21.219 17.4517 21.2009 17.5935 21.0893C17.7939 20.9317 17.7586 20.6253 17.5261 20.5051C17.3641 20.4213 17.2157 20.4188 17.0608 20.4972ZM16.1061 21.4243C16.0007 21.5072 15.9826 21.5575 15.9826 21.7677C15.9826 22.0585 16.1093 22.2178 16.3408 22.2178C16.5545 22.2178 16.6858 22.0508 16.6858 21.779C16.6858 21.3928 16.3823 21.2071 16.1061 21.4243Z" stroke="black" stroke-width="0.4" mask="url(#path-1-outside-1_27849_3487)"/>
  </g>
  <defs>
    <clipPath id="clip0_27849_3487">
      <rect width="24" height="24" fill="white" transform="translate(0 -0.000976562)"/>
    </clipPath>
  </defs>
</svg>