<svg xmlns="http://www.w3.org/2000/svg" width="21" height="24" viewBox="0 0 21 24" fill="none">
  <path fill-rule="evenodd" clip-rule="evenodd" d="M1.75566 0.28302C0.761294 1.38553 0.00167932 3.50596 0.000356219 5.18274C5.08871e-05 5.60239 0.013231 5.65426 0.181723 5.8946C0.363447 6.1538 0.363447 6.1538 1.63714 6.1538C2.91083 6.1538 2.91083 6.1538 3.08385 5.89214C3.23626 5.66165 3.25688 5.58277 3.25688 5.2303C3.25688 4.87783 3.23626 4.79894 3.08385 4.56845C2.91083 4.30679 2.91083 4.30679 2.139 4.30679C1.24616 4.30679 1.29217 4.38522 1.61958 3.42177C1.75546 3.02197 1.93764 2.67951 2.32622 2.0937C2.81791 1.35228 2.84977 1.2854 2.84977 0.993193C2.84977 0.372292 2.61914 -0.00411218 2.24048 -0.00095688C2.05656 0.00058229 1.95881 0.057839 1.75566 0.28302ZM5.82675 0.28302C4.83239 1.38553 4.07277 3.50596 4.07145 5.18274C4.07115 5.60239 4.08432 5.65426 4.25282 5.8946C4.43454 6.1538 4.43454 6.1538 5.70823 6.1538C6.98193 6.1538 6.98193 6.1538 7.15495 5.89214C7.30736 5.66165 7.32797 5.58277 7.32797 5.2303C7.32797 4.87783 7.30736 4.79894 7.15495 4.56845C6.98193 4.30679 6.98193 4.30679 6.2101 4.30679C5.31726 4.30679 5.36326 4.38522 5.69068 3.42177C5.82655 3.02197 6.00873 2.67951 6.39732 2.0937C6.889 1.35228 6.92086 1.2854 6.92086 0.993193C6.92086 0.372292 6.69023 -0.00411218 6.31157 -0.00095688C6.12766 0.00058229 6.0299 0.057839 5.82675 0.28302ZM9.12943 4.56845C8.97676 4.79933 8.95641 4.87744 8.95641 5.23276C8.95641 5.59477 8.97473 5.66157 9.13813 5.8946C9.31985 6.1538 9.31985 6.1538 14.6646 6.1538C20.0094 6.1538 20.0094 6.1538 20.1824 5.89214C20.3349 5.66165 20.3555 5.58277 20.3555 5.2303C20.3555 4.87783 20.3349 4.79894 20.1824 4.56845C20.0094 4.30679 20.0094 4.30679 14.6559 4.30679C9.30245 4.30679 9.30245 4.30679 9.12943 4.56845ZM0.173022 8.87813C0.0203555 9.109 0 9.18712 0 9.54243C0 9.90445 0.0183199 9.97125 0.181723 10.2043C0.363447 10.4635 0.363446 10.4635 10.1864 10.4635C20.0094 10.4635 20.0094 10.4635 20.1824 10.2018C20.3349 9.97132 20.3555 9.89244 20.3555 9.53997C20.3555 9.1875 20.3349 9.10862 20.1824 8.87813C20.0094 8.61647 20.0094 8.61647 10.1777 8.61647C0.346043 8.61647 0.346043 8.61647 0.173022 8.87813ZM0.173022 13.1878C0.0203555 13.4187 0 13.4968 0 13.8521C0 14.2141 0.0183199 14.2809 0.181723 14.514C0.363447 14.7731 0.363446 14.7731 10.1864 14.7731C20.0094 14.7731 20.0094 14.7731 20.1824 14.5115C20.3349 14.281 20.3555 14.2021 20.3555 13.8496C20.3555 13.4972 20.3349 13.4183 20.1824 13.1878C20.0094 12.9261 20.0094 12.9261 10.1777 12.9261C0.346043 12.9261 0.346043 12.9261 0.173022 13.1878ZM0.173022 17.4975C0.0203555 17.7284 0 17.8065 0 18.1618C0 18.5238 0.0183199 18.5906 0.181723 18.8236C0.363447 19.0828 0.363447 19.0828 5.70823 19.0828C11.053 19.0828 11.053 19.0828 11.226 18.8212C11.3785 18.5907 11.3991 18.5118 11.3991 18.1593C11.3991 17.8069 11.3785 17.728 11.226 17.4975C11.053 17.2358 11.053 17.2358 5.69953 17.2358C0.346043 17.2358 0.346043 17.2358 0.173022 17.4975ZM13.2005 17.4975C13.0479 17.7284 13.0275 17.8065 13.0275 18.1618C13.0275 18.5238 13.0458 18.5906 13.2092 18.8236C13.3909 19.0828 13.3909 19.0828 14.1541 19.0828C15.037 19.0828 14.992 19.0049 14.6648 19.9678C14.5289 20.3676 14.3467 20.7101 13.9582 21.2959C13.4346 22.0853 13.4346 22.0853 13.4346 22.4772C13.4346 22.823 13.4557 22.9011 13.6138 23.1402C13.7832 23.3964 13.8081 23.4094 14.0681 23.3768C14.3128 23.3461 14.3829 23.2931 14.7045 22.8951C15.5966 21.7914 16.2828 19.7557 16.284 18.2093C16.2843 17.7996 16.2688 17.7356 16.1114 17.4975C15.9383 17.2358 15.9383 17.2358 14.6559 17.2358C13.3735 17.2358 13.3735 17.2358 13.2005 17.4975ZM17.2716 17.4975C17.1189 17.7284 17.0986 17.8065 17.0986 18.1618C17.0986 18.5238 17.1169 18.5906 17.2803 18.8236C17.462 19.0828 17.462 19.0828 18.2252 19.0828C19.1081 19.0828 19.0631 19.0049 18.7359 19.9678C18.6 20.3676 18.4178 20.7101 18.0292 21.2959C17.5057 22.0853 17.5057 22.0853 17.5057 22.4772C17.5057 22.823 17.5268 22.9011 17.6849 23.1402C17.8543 23.3964 17.8792 23.4094 18.1392 23.3768C18.3839 23.3461 18.454 23.2931 18.7756 22.8951C19.6677 21.7914 20.3539 19.7557 20.3551 18.2093C20.3554 17.7996 20.3399 17.7356 20.1824 17.4975C20.0094 17.2358 20.0094 17.2358 18.727 17.2358C17.4446 17.2358 17.4446 17.2358 17.2716 17.4975Z" fill="black"/>
</svg>