<svg xmlns="http://www.w3.org/2000/svg" width="51" height="51" viewBox="0 0 51 51" fill="none">
  <path fill-rule="evenodd" clip-rule="evenodd" d="M21.8629 25.2626C21.8629 30.2543 17.9649 34.3008 13.1564 34.3008C8.3479 34.3008 4.44985 30.2543 4.44985 25.2626C4.44985 20.2709 8.3479 16.2243 13.1564 16.2243C17.9649 16.2243 21.8629 20.2709 21.8629 25.2626ZM21.0839 25.2626C21.0839 29.8076 17.5347 33.4922 13.1564 33.4922C8.77811 33.4922 5.22881 29.8076 5.22881 25.2626C5.22881 20.7175 8.77811 17.033 13.1564 17.033C17.5347 17.033 21.0839 20.7175 21.0839 25.2626Z" fill="#414141"/>
  <path d="M34.8269 26.6727H35.592L35.601 26.6633V23.4952H34.7999V25.8454C34.7459 25.9582 34.6739 26.0428 34.5839 26.118C34.4939 26.1932 34.3858 26.2308 34.2508 26.2308C34.0978 26.2308 33.9718 26.1744 33.8908 26.071C33.8098 25.9676 33.7647 25.8172 33.7647 25.6292V23.4952H32.9636V25.6762C32.9636 26.0052 33.0266 26.2684 33.1707 26.4659C33.3147 26.6633 33.5217 26.7667 33.7918 26.7667C33.9268 26.7667 34.0438 26.7385 34.1518 26.6915C34.2598 26.6445 34.3588 26.5787 34.4399 26.5035C34.5209 26.4283 34.5929 26.3436 34.6559 26.2496C34.7189 26.1556 34.7729 26.0616 34.8179 25.9676L34.8269 25.977V26.6727Z" fill="#414141"/>
  <path d="M40.9119 23.4576H41.0469V23.8055H41.1009V23.4576H41.227V23.4106H40.9119V23.4576Z" fill="#414141"/>
  <path d="M41.632 23.514V23.7961H41.686V23.4012H41.641L41.488 23.6833L41.326 23.4012H41.281V23.7961H41.335V23.514L41.47 23.7491H41.497L41.632 23.514Z" fill="#414141"/>
  <path d="M37.4103 23.6739C37.4914 23.5986 37.5904 23.5328 37.6894 23.4764L37.6984 23.4576C37.7974 23.4012 37.8784 23.3824 37.9954 23.3824V24.3225H37.9324C37.9054 24.2849 37.8604 24.2473 37.8064 24.2097L37.6444 24.1251C37.5814 24.1063 37.5274 24.0875 37.4734 24.0687L37.4464 24.0639C37.4042 24.0563 37.3682 24.0499 37.3383 24.0499C37.2843 24.0499 37.2303 24.0781 37.1673 24.1157C37.1043 24.1627 37.0503 24.2191 36.9873 24.2943V26.6727H36.1771V23.5046H36.9783V24.1533C37.0323 24.0875 37.0953 24.0123 37.1673 23.9277C37.2393 23.8337 37.3203 23.7491 37.4103 23.6739Z" fill="#414141"/>
  <path d="M31.6494 27.3871C31.9194 27.3307 32.2255 27.3025 32.5495 27.3025V26.2684C32.2075 26.2684 31.8924 26.3342 31.6044 26.4753C31.3163 26.6163 31.0643 26.7949 30.8483 27.0299C30.6322 27.2555 30.4612 27.5281 30.3352 27.829C30.2272 28.111 30.1642 28.4118 30.1552 28.722V28.7784H30.2902C30.2902 28.5152 30.3442 28.299 30.4612 28.111C30.5782 27.923 30.7403 27.7725 30.9383 27.6503C31.1363 27.5281 31.3704 27.4435 31.6494 27.3871Z" fill="#414141"/>
  <path fill-rule="evenodd" clip-rule="evenodd" d="M29.228 26.5787C29.453 26.6821 29.7051 26.7479 29.9571 26.7667L29.9481 26.7573C30.0381 26.7667 30.1912 26.7667 30.1912 26.7667C30.4882 26.7573 30.7763 26.7009 31.0463 26.5787C31.3344 26.4471 31.5864 26.2684 31.8114 26.0428C32.0365 25.8266 32.2075 25.554 32.3425 25.2532C32.4775 24.9429 32.5405 24.6139 32.5405 24.2661C32.5405 23.9089 32.4775 23.5799 32.3425 23.279C32.2075 22.9782 32.0365 22.7056 31.8114 22.48C31.5954 22.2544 31.3344 22.0757 31.0463 21.9441C30.7583 21.8125 30.4522 21.7467 30.1372 21.7467C29.8221 21.7467 29.5161 21.8125 29.228 21.9441C28.94 22.0757 28.6789 22.2544 28.4629 22.48C28.2378 22.7056 28.0668 22.9782 27.9318 23.279C27.7968 23.5893 27.7338 23.9183 27.7338 24.2661C27.7338 24.6233 27.7968 24.9523 27.9318 25.2532C28.0668 25.554 28.2468 25.8172 28.4629 26.0428C28.6789 26.2684 28.94 26.4471 29.228 26.5787ZM30.7763 26.4565C30.5962 26.5787 30.3892 26.6351 30.1372 26.6351V26.6163C29.8851 26.6163 29.6781 26.5599 29.4981 26.4377C29.318 26.3154 29.174 26.1462 29.057 25.9394C28.94 25.7232 28.8589 25.4788 28.8049 25.1874C28.7509 24.8959 28.7239 24.5857 28.7239 24.2473C28.7239 23.9089 28.7509 23.5987 28.8049 23.3072C28.8589 23.0158 28.94 22.7714 29.057 22.5552C29.174 22.3484 29.318 22.1792 29.4981 22.0569C29.6781 21.9347 29.8851 21.8783 30.1372 21.8783C30.3892 21.8783 30.5962 21.9347 30.7763 22.0569C30.9563 22.1792 31.1003 22.3484 31.2173 22.5552C31.3344 22.7714 31.4154 23.0158 31.4694 23.3072C31.5234 23.5987 31.5504 23.9183 31.5504 24.2567C31.5504 24.6045 31.5234 24.9147 31.4694 25.2062C31.4154 25.4976 31.3344 25.7514 31.2173 25.9582C31.1003 26.1744 30.9563 26.3342 30.7763 26.4565Z" fill="#414141"/>
  <path fill-rule="evenodd" clip-rule="evenodd" d="M40.4438 26.024C40.5789 25.9488 40.6959 25.8548 40.7769 25.7514L40.7949 25.742L40.8309 25.7608C40.7409 26.0522 40.5879 26.2966 40.3718 26.4847C40.1558 26.6727 39.8677 26.7667 39.5257 26.7667C39.3007 26.7667 39.1026 26.7291 38.9226 26.6445C38.7426 26.5599 38.5895 26.4471 38.4635 26.2966C38.3375 26.1462 38.2385 25.977 38.1665 25.7796C38.0945 25.5822 38.0584 25.366 38.0584 25.1404C38.0584 24.8771 38.1035 24.6421 38.1845 24.4259C38.2655 24.2191 38.3825 24.0311 38.5175 23.8807C38.6525 23.7209 38.8146 23.6081 38.9946 23.5234C39.1746 23.4388 39.3637 23.4012 39.5527 23.4012C39.7507 23.4012 39.9308 23.4388 40.0928 23.5234C40.2458 23.6081 40.3988 23.6927 40.4978 23.8337C40.7769 24.2285 40.7859 24.5481 40.7859 24.5481L38.9496 25.4224C39.0036 25.5822 39.0666 25.7138 39.1566 25.8172C39.2556 25.93 39.3637 26.0146 39.4987 26.0616C39.6337 26.1086 39.7777 26.1368 39.9308 26.1368C40.1288 26.1368 40.2998 26.0992 40.4438 26.024ZM38.9226 24.2003C38.8866 24.3319 38.8686 24.4729 38.8596 24.6233V24.7549C38.8596 24.9711 38.8776 25.1404 38.9226 25.3002L40.0208 24.7549V24.5481C40.0208 24.2285 39.9848 23.8901 39.8947 23.7491C39.8047 23.6081 39.6787 23.5328 39.5167 23.5328C39.4177 23.5328 39.3277 23.561 39.2466 23.6175C39.1656 23.6739 39.1026 23.7491 39.0486 23.8525C38.9946 23.9559 38.9496 24.0687 38.9226 24.2003Z" fill="#414141"/>
  <path fill-rule="evenodd" clip-rule="evenodd" d="M18.6746 35.3304C19.6055 34.7794 20.4525 34.0932 21.191 33.2976C28.0205 31.7636 32.2977 31.7895 38.3072 31.8258C39.2695 31.8317 40.2761 31.8378 41.3448 31.8378C43.8486 31.8378 45.762 31.0949 47.0556 29.9271C48.3498 28.7588 49 27.1847 49 25.5826V24.9925C49 23.1511 48.2448 21.5565 46.8953 20.4308C45.5522 19.3104 43.6431 18.6714 41.3448 18.6714C40.6811 18.6714 39.8765 18.6828 38.9714 18.6957C36.807 18.7265 34.0677 18.7654 31.3037 18.6757C27.37 18.548 23.4827 18.16 21.2017 17.1574L21.0706 17.0998C19.0497 14.9884 16.2501 13.6812 13.1564 13.6812C6.99488 13.6812 2 18.8663 2 25.2626C2 29.2863 3.9767 32.8308 6.97702 34.9067V37.5983C6.97702 38.2451 7.52007 38.7442 8.13548 38.6747C9.29631 38.5436 11.5842 38.3077 13.1922 38.2831C14.6187 38.2612 16.4535 38.4916 17.4739 38.6405C18.1002 38.7318 18.6746 38.2304 18.6746 37.5634V35.3304ZM23.4985 25.2618C23.5093 24.9782 23.5106 24.6949 23.502 24.413C23.0847 18.8605 18.6122 14.4898 13.1564 14.4898C7.42509 14.4898 2.77897 19.3129 2.77897 25.2626C2.77897 29.5873 5.23389 33.3169 8.77604 35.0314C10.5076 35.6395 11.8906 35.9397 13.1834 35.9433C14.7689 35.9477 16.2548 35.506 18.1152 34.5699L18.6746 34.2885V34.3877C19.0233 34.16 19.3581 33.9113 19.6773 33.6433L19.5472 33.6731L20.5388 32.6794C22.3228 30.8917 23.39 28.0922 23.4985 25.2618ZM8.48504 35.7829C9.90604 36.464 11.4885 36.844 13.1564 36.844C14.8509 36.844 16.4572 36.4518 17.8956 35.7501V37.5634C17.8956 37.7286 17.7499 37.8641 17.5823 37.8397C16.5589 37.6904 14.6724 37.4517 13.1807 37.4745C11.5317 37.4998 9.21033 37.7399 8.05126 37.8708C7.89274 37.8887 7.75599 37.7597 7.75599 37.5983V35.5159C8.0048 35.6101 8.24763 35.6992 8.48504 35.7829ZM24.3128 25.2626C24.3128 27.9053 23.4601 30.3412 22.0248 32.2902C28.3746 30.9562 32.5962 30.9821 38.3175 31.0171C39.2785 31.023 40.2819 31.0291 41.3448 31.0291C43.7006 31.0291 45.42 30.332 46.5444 29.3169C47.6681 28.3025 48.221 26.9512 48.221 25.5826V24.9925C48.221 23.399 47.575 22.0352 46.4074 21.0612C45.2334 20.0819 43.5097 19.48 41.3448 19.48C40.6975 19.48 39.9039 19.4913 39.0065 19.504C36.8373 19.5348 34.0616 19.5743 31.2794 19.4839C28.0727 19.3799 24.793 19.1032 22.3735 18.4202C23.6084 20.104 24.2104 22.2196 24.2798 24.365C24.3016 24.6612 24.3128 24.9605 24.3128 25.2626Z" fill="#414141"/>
  <path fill-rule="evenodd" clip-rule="evenodd" d="M42.3212 15.2101H29.9696C29.9569 15.2101 29.9445 15.2127 29.9329 15.2176C29.9254 15.2207 29.9183 15.2247 29.9117 15.2296C29.8795 15.2528 29.857 15.2948 29.857 15.3438V17.7972C31.3277 17.8271 32.7922 17.8679 34.2573 17.9087C36.7114 17.977 39.167 18.0454 41.6548 18.063C41.9141 18.0648 42.1737 18.0661 42.4338 18.0668V15.3438C42.4338 15.2968 42.4123 15.2535 42.3794 15.2296C42.3634 15.2179 42.3448 15.2109 42.3247 15.2101L42.3212 15.2101ZM41.6548 17.2544C39.1776 17.2368 36.7389 17.1689 34.2926 17.1007C33.0775 17.0669 31.8605 17.033 30.636 17.0052V16.0187H41.6548V17.2544Z" fill="#414141"/>
  <path d="M42.2552 14.4014C42.2654 14.4079 42.2752 14.4144 42.2845 14.4209H29.9329C29.9422 14.4144 29.9519 14.4079 29.9621 14.4015C30.6127 13.9892 33.1193 13.6814 36.1069 13.6812H36.1104C39.1014 13.6814 41.6046 13.9892 42.2552 14.4014Z" fill="#414141"/>
</svg>