<svg xmlns="http://www.w3.org/2000/svg" width="51" height="51" viewBox="0 0 51 51" fill="none">
  <path d="M28.2443 26.8092L28.2443 26.2259L28.7521 26.2259L28.759 26.219C28.6904 26.1847 28.6217 26.1435 28.5531 26.0955C28.4845 26.0474 28.4227 25.9925 28.3678 25.9308C28.3129 25.869 28.2649 25.7935 28.2305 25.7112C28.1962 25.6288 28.1756 25.5396 28.1756 25.4366C28.1756 25.2307 28.2511 25.0729 28.3953 24.9631C28.5394 24.8533 28.7315 24.8052 28.9717 24.8052L30.5639 24.8052L30.5639 25.416L29.0061 25.416C28.8688 25.416 28.759 25.4504 28.6835 25.5121C28.608 25.5739 28.5668 25.67 28.5668 25.7866C28.5668 25.8896 28.5943 25.9719 28.6492 26.0406C28.7041 26.1092 28.7659 26.1641 28.8482 26.2053L30.5639 26.2053L30.5639 26.8161L28.2511 26.8161L28.2443 26.8092ZM30.5914 30.9613L30.5914 30.8652L30.6257 30.8652L30.6257 31.1054L30.5914 31.1054L30.5914 31.0093L30.3375 31.0093L30.3375 30.9682L30.5914 30.9682L30.5914 30.9613ZM30.3375 31.4143L30.5502 31.4143L30.3786 31.3113L30.3786 31.2907L30.5502 31.1878L30.3443 31.1878L30.3443 31.1466L30.6326 31.1466L30.6326 31.1809L30.4267 31.3044L30.6326 31.4211L30.6326 31.4554L30.3443 31.4554L30.3443 31.4143L30.3375 31.4143ZM30.5777 28.4083C30.5365 28.3328 30.4885 28.2573 30.4335 28.1955C30.3786 28.1269 30.3169 28.0651 30.2482 28.0102C30.1865 27.9553 30.1316 27.9073 30.0835 27.8661L30.5571 27.8661L30.5571 27.2553L29.2325 27.2553L28.2443 27.2553L28.2443 27.873L29.9806 27.873C30.0355 27.921 30.0767 27.9622 30.111 28.0102C30.1384 28.0583 30.159 28.0995 30.159 28.1406C30.159 28.1681 30.1522 28.2024 30.1453 28.2436C30.1316 28.2848 30.1179 28.3259 30.1041 28.374C30.0835 28.4151 30.0629 28.4563 30.0424 28.4975C30.0149 28.5387 29.9875 28.573 29.96 28.5936L29.96 28.6416L30.6463 28.6416C30.6463 28.5524 30.6326 28.4906 30.5914 28.4151L30.5777 28.4083ZM27.7845 24.4895C27.7845 24.2425 27.7639 24.0091 27.7227 23.8033C27.6815 23.5905 27.6197 23.4121 27.5305 23.2611C27.4413 23.1101 27.3315 22.9866 27.1942 22.8973C27.057 22.8081 26.8991 22.7669 26.707 22.7669L26.707 22.664C26.7344 22.664 26.7481 22.664 26.7481 22.664C26.9746 22.6709 27.1942 22.7189 27.4001 22.8013C27.6197 22.8973 27.8188 23.0277 27.9835 23.1924C28.1551 23.3572 28.2854 23.5493 28.3884 23.7689C28.4913 23.9886 28.5394 24.2288 28.5394 24.4895L27.7776 24.4895L27.7845 24.4895ZM28.2717 22.6503C28.2717 22.8424 28.3129 23.0003 28.4021 23.1375C28.4913 23.2748 28.608 23.3846 28.7659 23.4738C28.9168 23.563 29.1021 23.6248 29.3149 23.666C29.5276 23.7072 29.7541 23.7278 30.008 23.7278C30.2551 23.7278 30.4885 23.7072 30.7012 23.666C30.914 23.6248 31.0924 23.563 31.2502 23.4738C31.4012 23.3846 31.5248 23.2748 31.614 23.1375C31.7032 23.0003 31.7444 22.8424 31.7444 22.6503C31.7444 22.4581 31.7032 22.3003 31.614 22.163C31.5248 22.0257 31.4012 21.9159 31.2502 21.8267C31.0924 21.7375 30.914 21.6757 30.7012 21.6346C30.4885 21.5934 30.262 21.5728 30.0149 21.5728C29.7678 21.5728 29.5414 21.5934 29.3286 21.6346C29.1159 21.6757 28.9374 21.7375 28.7796 21.8267C28.6286 21.9159 28.5051 22.0257 28.4158 22.163C28.3266 22.3003 28.2854 22.4581 28.2854 22.6503L28.2717 22.6503ZM28.1756 22.513C28.1894 22.3209 28.2374 22.1287 28.3129 21.9571C28.409 21.7375 28.5394 21.5385 28.7041 21.3738C28.8688 21.2091 29.061 21.0718 29.2806 20.9689C29.5002 20.8659 29.7404 20.8179 30.0012 20.8179C30.2551 20.8179 30.4953 20.8659 30.7218 20.9689C30.9414 21.0718 31.1404 21.2022 31.3051 21.3738C31.4699 21.5385 31.6002 21.7375 31.6963 21.9571C31.7924 22.1767 31.8405 22.4101 31.8405 22.6503C31.8405 22.8905 31.7924 23.1238 31.6963 23.3434C31.6002 23.563 31.4699 23.7621 31.3051 23.9268C31.1404 24.0984 30.9414 24.2288 30.7218 24.3317C30.5022 24.4346 30.262 24.4827 30.0012 24.4827C29.7473 24.4827 29.5071 24.4346 29.2806 24.3317C29.061 24.2288 28.8619 24.0984 28.7041 23.9268C28.5394 23.7552 28.409 23.563 28.3129 23.3434C28.2237 23.1375 28.1825 22.9179 28.1756 22.6915C28.1756 22.6915 28.1756 22.5748 28.1825 22.5062L28.1756 22.513ZM29.7404 29.3005C29.8502 29.3073 29.9531 29.3211 30.0492 29.3485C30.1453 29.3691 30.2277 29.4034 30.3032 29.4446C30.3786 29.4858 30.4335 29.5338 30.4747 29.5956C30.5159 29.6573 30.5365 29.726 30.5365 29.8015C30.5365 29.925 30.4816 30.0211 30.3786 30.0897C30.2757 30.1583 30.0286 30.1858 29.7953 30.1858L29.6443 30.1858L29.2463 29.3485C29.3629 29.3142 29.4865 29.3005 29.6443 29.3005L29.7404 29.3005ZM28.9168 30.7623C28.8413 30.7005 28.7727 30.6113 28.7178 30.5083C28.6629 30.3985 28.6355 30.2681 28.6355 30.1172C28.6355 30.0005 28.656 29.8907 28.6904 29.7877C28.7247 29.6848 28.7864 29.6024 28.8688 29.5269C28.9443 29.4583 29.0404 29.4103 29.157 29.3691L29.7953 30.7691C29.7953 30.7691 30.0286 30.7623 30.3169 30.5495C30.4198 30.474 30.4816 30.3574 30.5434 30.2407C30.6051 30.1172 30.6326 29.9799 30.6326 29.8289C30.6326 29.6848 30.6051 29.5407 30.5434 29.4034C30.4816 29.2662 30.3992 29.1426 30.2826 29.0397C30.1728 28.9367 30.0355 28.8475 29.8845 28.7857C29.7267 28.724 29.5551 28.6897 29.3629 28.6897C29.1982 28.6897 29.0404 28.7171 28.8962 28.772C28.7521 28.8269 28.6286 28.9024 28.5188 28.9985C28.409 29.0946 28.3266 29.2113 28.2649 29.3485C28.2031 29.4858 28.1756 29.6368 28.1756 29.8083C28.1756 30.0691 28.2443 30.2887 28.3815 30.4534C28.5188 30.6182 28.6972 30.7348 28.91 30.8035L28.9237 30.776L28.9168 30.7623Z" fill="#414141"/>
  <path fill-rule="evenodd" clip-rule="evenodd" d="M24.6351 24.4625L24.642 24.4625C24.6763 24.4899 24.7106 24.5105 24.7381 24.5311C24.7655 24.5448 24.793 24.5586 24.8204 24.5723C24.8479 24.5792 24.8822 24.586 24.9097 24.5929C24.944 24.5997 24.9783 24.5997 25.0263 24.5997L26.0695 24.5997C26.1038 24.5997 26.1313 24.5929 26.1518 24.586C26.1793 24.5792 26.1999 24.5723 26.2205 24.5586C26.2411 24.5448 26.2617 24.5311 26.2822 24.5105C26.3028 24.4899 26.3234 24.4693 26.344 24.4419L26.3509 24.4419L26.3509 24.7782L24.9371 25.4164L26.3509 26.041L26.3509 26.3567L26.344 26.3567C26.3234 26.3223 26.296 26.3018 26.2754 26.2812C26.2548 26.2606 26.2273 26.2468 26.2067 26.2331C26.1793 26.2194 26.1518 26.2125 26.1244 26.2057C26.0901 26.1988 26.0558 26.1988 26.0146 26.1988L24.9989 26.1988C24.9577 26.1988 24.9234 26.1988 24.8959 26.2057C24.8685 26.2057 24.841 26.2125 24.8136 26.2194C24.7861 26.2263 24.7655 26.2331 24.7381 26.2468C24.7106 26.2606 24.6832 26.2743 24.6557 26.2949L24.6489 26.2949L24.6489 25.9174L24.6557 25.9174C24.6832 25.938 24.7106 25.9517 24.7381 25.9655C24.7655 25.9792 24.7861 25.9861 24.8136 25.9929C24.841 25.9998 24.8685 26.0066 24.8959 26.0066C24.9234 26.0066 24.9646 26.0135 24.9989 26.0135L26.1656 26.0135L24.69 25.3615L24.69 25.3204L26.1724 24.6478L25.0263 24.6546C24.9851 24.6546 24.944 24.6546 24.9097 24.6615C24.8753 24.6684 24.8479 24.6752 24.8204 24.689C24.793 24.7027 24.7655 24.7164 24.7381 24.737C24.7106 24.7576 24.6763 24.785 24.642 24.8194L24.6351 24.8194L24.6351 24.4625ZM26.1724 26.7547C26.1381 26.7547 26.1107 26.741 26.0901 26.7204C26.0695 26.6998 26.0558 26.6724 26.0558 26.638C26.0558 26.6037 26.0695 26.5831 26.0901 26.5557C26.1107 26.5351 26.1381 26.5214 26.1724 26.5214C26.2067 26.5214 26.2273 26.5351 26.2548 26.5557C26.2754 26.5763 26.2891 26.6037 26.2891 26.638C26.2891 26.6724 26.2754 26.6929 26.2548 26.7204C26.2342 26.741 26.2067 26.7547 26.1724 26.7547ZM24.642 26.5145C24.69 26.5351 24.7449 26.5488 24.7998 26.5557C24.8547 26.5625 24.9165 26.5694 24.9989 26.5694L25.4312 26.5694C25.4861 26.5694 25.5342 26.5557 25.5754 26.5351C25.6097 26.5145 25.644 26.4871 25.6646 26.4665L25.6714 26.4665L25.795 26.741L24.9989 26.741C24.9165 26.741 24.8479 26.741 24.7998 26.7478C24.7449 26.7547 24.6969 26.7684 24.642 26.789L24.6351 26.789L24.6351 26.5145L24.642 26.5145ZM24.8959 27.9145C24.8067 27.8802 24.7381 27.8322 24.6832 27.7567C24.6283 27.6812 24.6008 27.592 24.6008 27.4753C24.6008 27.3998 24.6145 27.3312 24.642 27.2694C24.6694 27.2077 24.7038 27.1528 24.7518 27.1047C24.7998 27.0567 24.8616 27.0224 24.9302 27.0018C24.9989 26.9743 25.0812 26.9675 25.1636 26.9675C25.2597 26.9675 25.342 26.9812 25.4175 27.0155C25.493 27.0498 25.5548 27.091 25.6097 27.1459C25.6646 27.2008 25.7058 27.2626 25.7332 27.3312C25.7607 27.3998 25.7744 27.4753 25.7744 27.5508C25.7744 27.6263 25.7675 27.6949 25.7469 27.743C25.7332 27.791 25.7126 27.8322 25.7058 27.8596L25.4655 27.8802L25.4587 27.8596C25.493 27.8391 25.5273 27.8116 25.5616 27.791C25.5959 27.7636 25.6234 27.7361 25.644 27.7087C25.6646 27.6812 25.6852 27.6469 25.6989 27.6126C25.7126 27.5783 25.7195 27.5439 25.7195 27.5096C25.7195 27.393 25.6783 27.3037 25.5891 27.2351C25.4999 27.1665 25.3832 27.1322 25.2253 27.1322C25.0744 27.1322 24.9577 27.1665 24.8685 27.2351C24.7793 27.3037 24.7381 27.4067 24.7381 27.5371C24.7381 27.6057 24.7518 27.6675 24.7724 27.7292C24.793 27.791 24.8342 27.8459 24.8891 27.8871L24.8822 27.9008L24.8959 27.9145ZM24.642 28.1273C24.6694 28.141 24.69 28.1479 24.7175 28.1547C24.7449 28.1616 24.7655 28.1685 24.7998 28.1685C24.8273 28.1685 24.8547 28.1753 24.8891 28.1753C24.9234 28.1753 24.9577 28.1753 24.9989 28.1753L25.4381 28.1753C25.4999 28.1753 25.5479 28.1616 25.5822 28.141C25.6165 28.1204 25.6508 28.093 25.6714 28.0724L25.6783 28.0724L25.8018 28.3332L25.5205 28.3332L25.5205 28.3469C25.5479 28.3744 25.5754 28.3949 25.6097 28.4224C25.644 28.4499 25.6714 28.4773 25.6989 28.5116C25.7263 28.5391 25.7469 28.5734 25.7675 28.6077C25.7881 28.642 25.795 28.6763 25.795 28.7175L25.5616 28.7175L25.5616 28.7106C25.5685 28.7038 25.5754 28.6901 25.5822 28.6763C25.5891 28.6626 25.5959 28.642 25.5959 28.6283C25.6028 28.6077 25.6028 28.594 25.6097 28.5734C25.6097 28.5597 25.6165 28.5391 25.6165 28.5253C25.6165 28.5048 25.6028 28.4773 25.5754 28.443C25.5479 28.4087 25.5136 28.3744 25.4724 28.3469L25.0126 28.3469C24.9302 28.3469 24.8616 28.3469 24.8136 28.3538C24.7587 28.3606 24.7106 28.3744 24.6557 28.395L24.6489 28.395L24.6489 28.1204L24.6557 28.1204L24.642 28.1273ZM24.6008 29.4107C24.6008 29.3283 24.6145 29.2528 24.6489 29.1842C24.6832 29.1156 24.7244 29.0538 24.7793 28.9989C24.8342 28.944 24.8959 28.9028 24.9646 28.8754C25.0332 28.841 25.1087 28.8273 25.191 28.8273C25.2734 28.8273 25.3489 28.841 25.4175 28.8754C25.4861 28.9097 25.5548 28.9508 25.6028 29.0058C25.6577 29.0607 25.6989 29.1224 25.7332 29.1911C25.7675 29.2597 25.7812 29.3352 25.7812 29.4175C25.7812 29.4999 25.7675 29.5754 25.7332 29.644C25.6989 29.7126 25.6577 29.7744 25.6028 29.8293C25.5479 29.8842 25.4861 29.9254 25.4175 29.9528C25.3489 29.9872 25.2665 30.0009 25.191 30.0009C25.1087 30.0009 25.0332 29.9872 24.9646 29.9528C24.8959 29.9185 24.8342 29.8773 24.7793 29.8293C24.7244 29.7744 24.6832 29.7126 24.6489 29.644C24.6145 29.5754 24.6008 29.4999 24.6008 29.4175L24.6008 29.4107ZM24.642 29.4107C24.642 29.4793 24.6557 29.5342 24.6832 29.5822C24.7106 29.6303 24.7518 29.6715 24.7998 29.7058C24.8479 29.7401 24.9097 29.7607 24.9714 29.7813C25.04 29.795 25.1087 29.8019 25.1773 29.8019C25.2528 29.8019 25.3214 29.795 25.3832 29.7744C25.4518 29.7607 25.5067 29.7332 25.5548 29.6989C25.6028 29.6646 25.644 29.6234 25.6783 29.5754C25.7058 29.5273 25.7195 29.4724 25.7195 29.4038C25.7195 29.3352 25.7058 29.2803 25.6783 29.2322C25.6509 29.1842 25.6097 29.143 25.5548 29.1087C25.5067 29.0744 25.445 29.0538 25.3832 29.0332C25.3146 29.0195 25.2459 29.0058 25.1773 29.0058C25.1018 29.0058 25.0332 29.0126 24.9714 29.0263C24.9028 29.0401 24.8479 29.0675 24.7998 29.1018C24.7518 29.1361 24.7106 29.1773 24.6832 29.2254C24.6557 29.2734 24.642 29.3283 24.642 29.3969L24.642 29.4107ZM24.6351 30.5568C24.6626 30.5774 24.69 30.5911 24.7175 30.6048C24.7449 30.6185 24.7655 30.6254 24.793 30.6323C24.8204 30.6391 24.8479 30.646 24.8753 30.646C24.9028 30.646 24.9371 30.6529 24.9783 30.6529L25.9871 30.6529C26.0283 30.6529 26.0626 30.6529 26.0901 30.646C26.1175 30.646 26.145 30.6391 26.1724 30.6323C26.1999 30.6254 26.2205 30.6185 26.2479 30.6048C26.2754 30.5911 26.3028 30.5774 26.3303 30.5568L26.3371 30.5568L26.3371 30.9342L26.3303 30.9342C26.3028 30.9137 26.2754 30.8999 26.2479 30.8862C26.2205 30.8725 26.1999 30.8656 26.1724 30.8587C26.145 30.8519 26.1175 30.845 26.0901 30.845C26.0626 30.845 26.0283 30.8382 25.9871 30.8382L24.9783 30.8382C24.9371 30.8382 24.9028 30.8382 24.8753 30.845C24.8479 30.845 24.8204 30.8519 24.793 30.8587C24.7655 30.8656 24.7449 30.8725 24.7175 30.8862C24.69 30.8999 24.6626 30.9137 24.6351 30.9342L24.6283 30.9342L24.6283 30.5568L24.6351 30.5568ZM24.6283 31.4215L24.6283 31.147L24.6351 31.147C24.6626 31.1607 24.6832 31.1676 24.7106 31.1744C24.7381 31.1813 24.7587 31.1882 24.793 31.1882C24.8204 31.1882 24.8479 31.195 24.8822 31.195C24.9165 31.195 24.9508 31.195 24.992 31.195L25.4312 31.195C25.493 31.195 25.541 31.1813 25.5754 31.1607C25.6097 31.1401 25.644 31.1127 25.6646 31.0921L25.6714 31.0921L25.795 31.3529L25.5754 31.3529L25.5754 31.3597C25.644 31.4146 25.692 31.4764 25.7263 31.545C25.7607 31.6137 25.7812 31.6823 25.7812 31.7647C25.7812 31.8745 25.7538 31.9568 25.692 32.0117C25.6303 32.0666 25.5479 32.0941 25.445 32.0941L24.9989 32.0941C24.9577 32.0941 24.9165 32.0941 24.8891 32.0941C24.8547 32.0941 24.8273 32.0941 24.7998 32.1009C24.7724 32.1009 24.7449 32.1078 24.7175 32.1147C24.69 32.1215 24.6694 32.1284 24.642 32.1421L24.6351 32.1421L24.6351 31.8676L24.642 31.8676C24.69 31.8882 24.7449 31.9019 24.7998 31.9088C24.8547 31.9156 24.9165 31.9156 24.9989 31.9156L25.4038 31.9156C25.4381 31.9156 25.4724 31.9088 25.5067 31.9019C25.541 31.8951 25.5685 31.8813 25.5891 31.8607C25.6165 31.8401 25.6303 31.8196 25.644 31.7852C25.6577 31.7509 25.6646 31.7166 25.6646 31.6754C25.6646 31.6205 25.6509 31.5656 25.6303 31.5107C25.6097 31.4558 25.5754 31.4009 25.5273 31.3597L24.992 31.3597C24.9097 31.3597 24.841 31.3597 24.793 31.3666C24.7381 31.3735 24.69 31.3872 24.6351 31.4078L24.6283 31.4078L24.6283 31.4215ZM24.6351 32.4029C24.6694 32.4235 24.7038 32.4372 24.7518 32.4441C24.7998 32.451 24.8685 32.4578 24.9577 32.4578L25.6989 32.4578L25.6989 32.3137L25.7401 32.3137L25.7401 32.4578L25.9391 32.4578C26.0214 32.4578 26.0901 32.4647 26.1518 32.4853C26.2136 32.5059 26.2685 32.5333 26.3097 32.5676C26.3509 32.6019 26.3852 32.6431 26.4126 32.6912C26.4332 32.7392 26.447 32.7941 26.447 32.849C26.447 32.8833 26.4401 32.9176 26.4332 32.9451C26.4264 32.9725 26.4195 32.9931 26.4126 33.0068L26.1999 33.0343L26.193 33.0206C26.2205 33.0068 26.2411 32.9863 26.2685 32.9657C26.296 32.9451 26.3166 32.9314 26.3371 32.9108C26.3577 32.8902 26.3715 32.8696 26.3852 32.8559C26.3989 32.8353 26.4058 32.8147 26.4058 32.7941C26.4058 32.7461 26.3783 32.7049 26.3166 32.6706C26.2548 32.6363 26.1656 32.6225 26.042 32.6225L25.7401 32.6225L25.7401 32.897L25.6989 32.897L25.6989 32.6225L24.9577 32.6225C24.8685 32.6225 24.7998 32.6294 24.7518 32.6362C24.7038 32.6431 24.6694 32.6568 24.6351 32.6774L24.6283 32.6774L24.6283 32.396L24.6351 32.396L24.6351 32.4029ZM24.841 33.7686C24.8067 33.748 24.7793 33.7206 24.7518 33.7C24.7244 33.6726 24.6969 33.6451 24.6694 33.6177C24.6489 33.5902 24.6283 33.5559 24.6145 33.5147C24.6008 33.4735 24.594 33.4324 24.594 33.3843C24.594 33.2814 24.6283 33.2059 24.69 33.1578C24.7518 33.1098 24.841 33.0823 24.9508 33.0823L25.5342 33.0823C25.5822 33.0823 25.6234 33.0755 25.6508 33.0549C25.6852 33.0343 25.7058 33.0137 25.7263 32.9863L25.7332 32.9863L25.7332 33.2539L24.9851 33.2539C24.8136 33.2539 24.7244 33.3294 24.7244 33.4804C24.7244 33.549 24.7381 33.6039 24.7655 33.652C24.793 33.7 24.8273 33.7343 24.8685 33.7618L25.5273 33.7618C25.6165 33.7618 25.6783 33.7275 25.7263 33.6588L25.7332 33.6588L25.7332 33.9333L24.944 33.9333C24.8959 33.9333 24.8547 33.9333 24.8273 33.9402C24.7998 33.9471 24.7724 33.9471 24.7518 33.9608C24.7312 33.9677 24.7175 33.9814 24.7038 33.9951C24.69 34.0088 24.6832 34.0226 24.6694 34.0432L24.6626 34.0432L24.5871 33.7824L24.8273 33.7824L24.841 33.7686ZM25.4999 34.8598L25.493 34.8461C25.5822 34.7981 25.644 34.7432 25.6783 34.6883C25.7126 34.6334 25.7263 34.5785 25.7263 34.5236C25.7263 34.4549 25.7058 34.4 25.6714 34.3588C25.6371 34.3177 25.5891 34.2971 25.5342 34.2971C25.4999 34.2971 25.4656 34.3039 25.445 34.3245C25.4175 34.3383 25.3969 34.3657 25.3832 34.3932C25.3626 34.4206 25.3489 34.4549 25.3283 34.4892C25.3146 34.5236 25.3008 34.5647 25.2803 34.6059C25.2665 34.6471 25.2459 34.6883 25.2253 34.7294C25.2048 34.7706 25.1842 34.8049 25.1567 34.8324C25.1293 34.8667 25.095 34.8873 25.0538 34.9079C25.0126 34.9285 24.9646 34.9353 24.9097 34.9353C24.7998 34.9353 24.7244 34.8942 24.6626 34.8187C24.6077 34.7432 24.5802 34.6402 24.5802 34.5098C24.5802 34.4412 24.5871 34.3794 24.6008 34.3245C24.6145 34.2696 24.6283 34.2216 24.6489 34.1804L24.9165 34.1598L24.9234 34.1735C24.8204 34.2216 24.7449 34.2765 24.7038 34.3314C24.6557 34.3863 24.6351 34.4549 24.6351 34.5373C24.6351 34.6196 24.6557 34.6883 24.7038 34.7294C24.7518 34.7706 24.7998 34.7912 24.8547 34.7912C24.8891 34.7912 24.9165 34.7844 24.944 34.7706C24.9714 34.7569 24.992 34.7363 25.0126 34.7157C25.0332 34.6883 25.0538 34.6608 25.0675 34.6265C25.0812 34.5922 25.095 34.5579 25.1155 34.5167C25.1293 34.4755 25.1499 34.4412 25.1636 34.4C25.1842 34.3589 25.2048 34.3245 25.2322 34.2902C25.2597 34.2559 25.294 34.2285 25.3283 34.2079C25.3695 34.1873 25.4106 34.1735 25.4655 34.1735C25.5205 34.1735 25.5685 34.1873 25.6097 34.2079C25.6508 34.2285 25.6783 34.2628 25.7058 34.2971C25.7332 34.3314 25.7469 34.3794 25.7538 34.4206C25.7607 34.4687 25.7675 34.5167 25.7675 34.5647C25.7675 34.6128 25.7607 34.6677 25.7538 34.7157C25.7469 34.7638 25.7332 34.8049 25.7195 34.8393L25.493 34.8598L25.4999 34.8598ZM26.1656 35.3334C26.1313 35.3334 26.1038 35.3197 26.0832 35.2991C26.0626 35.2785 26.0489 35.251 26.0489 35.2167C26.0489 35.1824 26.0626 35.1618 26.0832 35.1344C26.1038 35.1138 26.1313 35.1 26.1656 35.1C26.1999 35.1 26.2205 35.1138 26.2479 35.1344C26.2685 35.155 26.2822 35.1824 26.2822 35.2167C26.2822 35.251 26.2685 35.2716 26.2479 35.2991C26.2273 35.3197 26.1999 35.3334 26.1656 35.3334ZM24.6351 35.0932C24.6832 35.1138 24.7381 35.1275 24.793 35.1344C24.8479 35.1412 24.9097 35.1481 24.992 35.1481L25.4244 35.1481C25.4793 35.1481 25.5273 35.1344 25.5685 35.1138C25.6028 35.0932 25.6371 35.0657 25.6577 35.0451L25.6646 35.0451L25.7881 35.3197L24.992 35.3197C24.9097 35.3197 24.841 35.3197 24.793 35.3265C24.7381 35.3334 24.69 35.3471 24.6351 35.3677L24.6283 35.3677L24.6283 35.0932L24.6351 35.0932ZM24.594 36.1226C24.594 36.0403 24.6077 35.9648 24.642 35.8961C24.6763 35.8275 24.7175 35.7658 24.7724 35.7109C24.8273 35.6559 24.8891 35.6148 24.9577 35.5873C25.0263 35.553 25.1018 35.5393 25.1842 35.5393C25.2665 35.5393 25.342 35.553 25.4106 35.5873C25.4793 35.6216 25.5479 35.6628 25.5959 35.7177C25.6508 35.7726 25.692 35.8344 25.7263 35.903C25.7607 35.9716 25.7744 36.0471 25.7744 36.1295C25.7744 36.2118 25.7607 36.2873 25.7263 36.356C25.692 36.4246 25.6508 36.4864 25.5959 36.5413C25.541 36.5962 25.4793 36.6373 25.4106 36.6648C25.342 36.6991 25.2597 36.7128 25.1842 36.7128C25.1018 36.7128 25.0263 36.6991 24.9577 36.6648C24.8891 36.6305 24.8273 36.5893 24.7724 36.5413C24.7175 36.4864 24.6763 36.4246 24.642 36.356C24.6077 36.2873 24.594 36.2118 24.594 36.1295L24.594 36.1226ZM24.6351 36.1226C24.6351 36.1913 24.6489 36.2462 24.6763 36.2942C24.7038 36.3422 24.7449 36.3834 24.793 36.4177C24.841 36.452 24.9028 36.4726 24.9646 36.4932C25.0332 36.507 25.1018 36.5138 25.1704 36.5138C25.2459 36.5138 25.3146 36.507 25.3763 36.4864C25.445 36.4726 25.4999 36.4452 25.5479 36.4109C25.5959 36.3766 25.6371 36.3354 25.6714 36.2873C25.6989 36.2393 25.7126 36.1844 25.7126 36.1158C25.7126 36.0471 25.6989 35.9922 25.6714 35.9442C25.644 35.8962 25.6028 35.855 25.5479 35.8207C25.4999 35.7863 25.4381 35.7658 25.3763 35.7452C25.3077 35.7314 25.2391 35.7177 25.1704 35.7177C25.095 35.7177 25.0263 35.7246 24.9646 35.7383C24.8959 35.752 24.841 35.7795 24.793 35.8138C24.7449 35.8481 24.7038 35.8893 24.6763 35.9373C24.6489 35.9854 24.6351 36.0403 24.6351 36.1089L24.6351 36.1226ZM24.6283 37.1727L24.6283 36.8981L24.6351 36.8981C24.6626 36.9119 24.6832 36.9187 24.7106 36.9256C24.7381 36.9325 24.7587 36.9393 24.793 36.9393C24.8204 36.9393 24.8479 36.9462 24.8822 36.9462C24.9165 36.9462 24.9508 36.9462 24.992 36.9462L25.4312 36.9462C25.493 36.9462 25.541 36.9325 25.5754 36.9119C25.6097 36.8913 25.644 36.8638 25.6646 36.8432L25.6714 36.8432L25.795 37.104L25.5754 37.104L25.5754 37.1109C25.644 37.1658 25.692 37.2276 25.7263 37.2962C25.7607 37.3648 25.7812 37.4334 25.7812 37.5158C25.7812 37.6256 25.7538 37.708 25.692 37.7629C25.6303 37.8178 25.5479 37.8452 25.445 37.8452L24.9989 37.8452C24.9577 37.8452 24.9165 37.8452 24.8891 37.8452C24.8547 37.8452 24.8273 37.8452 24.7998 37.8521C24.7724 37.8521 24.7449 37.859 24.7175 37.8658C24.69 37.8727 24.6694 37.8795 24.642 37.8933L24.6351 37.8933L24.6351 37.6187L24.642 37.6187C24.69 37.6393 24.7449 37.6531 24.7998 37.6599C24.8547 37.6668 24.9165 37.6668 24.9989 37.6668L25.4038 37.6668C25.4381 37.6668 25.4724 37.6599 25.5067 37.6531C25.541 37.6462 25.5685 37.6325 25.5891 37.6119C25.6165 37.5913 25.6303 37.5707 25.644 37.5364C25.6577 37.5021 25.6646 37.4678 25.6646 37.4266C25.6646 37.3717 25.6509 37.3168 25.6303 37.2619C25.6097 37.207 25.5754 37.1521 25.5273 37.1109L24.992 37.1109C24.9097 37.1109 24.841 37.1109 24.793 37.1178C24.7381 37.1246 24.69 37.1383 24.6351 37.1589L24.6283 37.1589L24.6283 37.1727Z" fill="#414141"/>
  <path d="M28.1566 31.1953L28.1566 39.9181" stroke="#414141" stroke-width="0.5"/>
  <path d="M26.338 33.6934L33.8283 33.6939" stroke="#414141" stroke-width="0.5"/>
  <path fill-rule="evenodd" clip-rule="evenodd" d="M29.7772 42.0859C25.1172 42.6007 17.4994 42.2232 17.1631 40.9604L17.1631 19.3559C17.1631 19.3559 17.0944 18.2098 18.7759 17.7568L20.1622 17.6401L25.2408 17.6401L30.3193 17.6401L31.7057 17.7568C33.3939 18.2098 33.3185 19.3559 33.3185 19.3559L33.3185 41.4558" stroke="#414141" stroke-width="0.8" stroke-miterlimit="2.61313"/>
  <path fill-rule="evenodd" clip-rule="evenodd" d="M17.1974 12.5407L17.1974 17.6261L25.2408 17.6261L33.2841 17.6261L33.2841 12.5407C32.4057 12.2524 25.2408 12.2524 25.2408 12.2524C25.2408 12.2524 18.0758 12.2524 17.1974 12.5407Z" stroke="#414141" stroke-width="0.8" stroke-miterlimit="2.61313"/>
  <path fill-rule="evenodd" clip-rule="evenodd" d="M18.4647 12.3961C18.4647 11.2157 18.3892 9.49305 18.5539 7.83908C18.7667 5.67725 19.3775 3.63896 21.0657 3.06934L25.211 3.06934L29.3562 3.06934C32.3484 4.07819 31.9572 9.67835 31.9572 12.3961C29.6307 12.2588 25.2384 12.2588 25.2384 12.2588L25.211 12.2588C24.8541 12.2588 20.6746 12.2657 18.4647 12.3961Z" stroke="#414141" stroke-width="0.8" stroke-miterlimit="2.61313"/>
  <path d="M18.4604 9.84334C22.2831 9.32175 28.1234 9.32175 31.9392 9.84334" stroke="#414141" stroke-width="0.8" stroke-miterlimit="2.61313"/>
  <path d="M20.5134 1.80664L20.5134 9.50686" stroke="#414141" stroke-width="0.8" stroke-miterlimit="2.61313" stroke-linecap="round" stroke-linejoin="round"/>
  <path d="M22.3926 1.80664L22.3926 9.50686" stroke="#414141" stroke-width="0.8" stroke-miterlimit="2.61313" stroke-linecap="round" stroke-linejoin="round"/>
  <path d="M24.2807 1.80664L24.2807 9.50686" stroke="#414141" stroke-width="0.8" stroke-miterlimit="2.61313" stroke-linecap="round" stroke-linejoin="round"/>
  <path d="M26.1688 1.80664L26.1688 9.50686" stroke="#414141" stroke-width="0.8" stroke-miterlimit="2.61313" stroke-linecap="round" stroke-linejoin="round"/>
  <path d="M28.0568 1.80664L28.0568 9.50686" stroke="#414141" stroke-width="0.8" stroke-miterlimit="2.61313" stroke-linecap="round" stroke-linejoin="round"/>
  <path d="M29.9361 1.80664L29.9361 9.50686" stroke="#414141" stroke-width="0.8" stroke-miterlimit="2.61313" stroke-linecap="round" stroke-linejoin="round"/>
</svg>