<svg xmlns="http://www.w3.org/2000/svg" width="51" height="51" viewBox="0 0 51 51" fill="none">
  <path fill-rule="evenodd" clip-rule="evenodd" d="M14.3772 34.011C7.97613 24.3446 5.91335 1.82061 25.3016 1.58936C44.6898 1.82061 42.6271 24.3446 36.2167 34.011C30.0007 43.3999 20.6025 43.3999 14.3772 34.011V34.011Z" stroke="#414141" stroke-miterlimit="2.61313" stroke-linecap="round" stroke-linejoin="round"/>
  <path fill-rule="evenodd" clip-rule="evenodd" d="M24.065 7.50257C24.065 7.16307 24.0948 6.79974 24.1543 6.51087C24.2913 5.82591 24.601 5.14989 25.289 4.92058C26.0246 4.67637 26.7393 5.05757 27.0788 5.68296C27.1979 5.90334 27.329 6.222 27.3647 6.47811C27.466 7.21072 27.4957 7.95822 27.3498 8.68785C27.2337 9.26857 27.0371 9.74804 26.5398 10.0756C26.3641 10.1918 26.1467 10.2692 25.9263 10.293C25.7595 10.3109 25.5927 10.3109 25.4319 10.2781C24.5534 10.1024 24.1841 9.08691 24.1156 8.28581C24.0918 8.01778 24.0709 7.7706 24.0709 7.49959L24.065 7.50257ZM22.9006 7.57702C22.9006 8.04458 23.0048 8.4228 23.1477 8.75336C23.1656 8.79506 23.1865 8.83377 23.2073 8.86951C23.2847 9.02437 23.3086 9.06308 23.4039 9.20901C23.4902 9.34005 23.6183 9.49788 23.7255 9.60807C24.1007 9.98331 24.5862 10.2603 25.1073 10.3705C25.6106 10.4777 25.9263 10.4836 26.4296 10.3585C26.7721 10.2722 27.1354 10.1203 27.4243 9.92375C27.4957 9.8761 27.5642 9.82249 27.6297 9.76889C27.6625 9.74209 27.6923 9.71826 27.7221 9.6855C27.7578 9.64977 27.7846 9.6319 27.8203 9.59914C27.8531 9.56638 27.871 9.53958 27.9037 9.50682C28.0884 9.32218 28.2939 8.97672 28.3892 8.73847C28.4874 8.49427 28.5827 8.15179 28.6066 7.87483C28.6155 7.7706 28.6334 7.65445 28.6334 7.54129C28.6334 7.33878 28.5887 7.08862 28.544 6.91887C28.5053 6.76103 28.4219 6.53172 28.3534 6.38877C28.1926 6.07011 28.0199 5.80507 27.7638 5.54597C27.6536 5.43578 27.5017 5.30773 27.3766 5.22136C27.0728 5.01587 26.7304 4.86399 26.37 4.78656C25.6136 4.62575 24.9852 4.73594 24.333 5.0933C24.1514 5.19158 24.065 5.26603 23.9161 5.38813C23.797 5.48343 23.7404 5.55193 23.6451 5.65318L23.5647 5.74848C23.5111 5.81698 23.4604 5.87952 23.4128 5.95397C23.0822 6.45131 22.9006 6.96354 22.9006 7.57702Z" fill="#414141"/>
  <path fill-rule="evenodd" clip-rule="evenodd" d="M25.7841 12.5922C25.7841 12.747 25.7573 12.7202 25.9241 12.7202C25.9687 12.7202 25.9479 12.6249 25.9628 12.4999C26.0045 12.1306 26.198 11.8209 26.481 11.5945C26.6567 11.4546 26.8562 11.3503 27.0736 11.2699C27.2046 11.2223 27.3297 11.1895 27.4727 11.1508C27.8598 11.0525 28.241 11.0376 28.643 11.0376V9.86426C27.9968 9.86426 27.3506 10.1263 26.8592 10.5284C26.7728 10.5969 26.6209 10.7368 26.5495 10.8202C26.5316 10.844 26.5286 10.85 26.5078 10.8708C26.4214 10.9602 26.2784 11.1657 26.21 11.2669C26.1623 11.3414 26.1236 11.4129 26.0819 11.4903C25.9181 11.7821 25.79 12.2527 25.79 12.5922H25.7841Z" fill="#414141"/>
  <path fill-rule="evenodd" clip-rule="evenodd" d="M27.4101 17.0651C27.4101 17.0651 27.4101 15.2336 30.1481 14.4195C32.8862 13.6055 37.0487 13.9108 37.021 15.9921C36.9932 18.0826 33.0249 19.8216 30.6661 19.7384C28.3074 19.6644 27.4101 17.5738 27.4101 17.0651Z" fill="white" stroke="#414141" stroke-miterlimit="2.61313" stroke-linecap="round" stroke-linejoin="round"/>
  <path fill-rule="evenodd" clip-rule="evenodd" d="M25.3029 34.6677C25.3029 34.6677 19.9101 34.4087 18.4301 30.7179C18.4301 30.7179 20.1506 28.9881 22.0931 29.3396C24.0449 29.7004 24.4519 30.0334 25.3029 29.9779C26.1539 30.0334 26.5609 29.7004 28.5034 29.3396C30.446 28.9881 32.1757 30.7179 32.1757 30.7179C30.6957 34.4087 25.3029 34.6677 25.3029 34.6677Z" fill="white" stroke="#414141" stroke-miterlimit="2.61313" stroke-linecap="round" stroke-linejoin="round"/>
  <path d="M21.2426 24.5015C24.5079 26.0647 26.0989 26.0647 29.3642 24.5015" stroke="#414141" stroke-miterlimit="2.61313" stroke-linecap="round" stroke-linejoin="round"/>
  <path fill-rule="evenodd" clip-rule="evenodd" d="M23.193 17.0651C23.193 17.0651 23.193 15.2336 20.455 14.4195C17.7169 13.6055 13.5544 13.9108 13.5821 15.9921C13.6099 18.0826 17.5782 19.8216 19.9369 19.7384C22.2865 19.6644 23.193 17.5738 23.193 17.0651Z" fill="white" stroke="#414141" stroke-miterlimit="2.61313" stroke-linecap="round" stroke-linejoin="round"/>
</svg>