<svg xmlns="http://www.w3.org/2000/svg" width="51" height="51" viewBox="0 0 51 51" fill="none">
  <g clip-path="url(#clip0_27501_558)">
    <path d="M21.9264 30.0876C22.0714 30.2325 22.321 30.2068 22.4364 30.0369C22.4946 29.9512 22.5073 29.8206 22.467 29.7263C22.4432 29.6707 22.3948 29.612 22.3448 29.5779C22.2579 29.5185 22.1444 29.5081 22.0462 29.5439C21.9974 29.5617 21.9526 29.5907 21.9172 29.6288C21.8802 29.6686 21.8525 29.7157 21.8396 29.7688C21.8116 29.883 21.8438 30.0049 21.9264 30.0876Z" fill="black"/>
    <path d="M23.0225 31.1847C23.1675 31.3297 23.4171 31.304 23.5324 31.1341C23.5907 31.0484 23.6034 30.9177 23.5631 30.8235C23.5392 30.7679 23.4908 30.7092 23.4409 30.6751C23.3539 30.6157 23.2405 30.6052 23.1423 30.6411C23.0934 30.6589 23.0487 30.6879 23.0132 30.726C22.9762 30.7658 22.9486 30.8129 22.9356 30.8659C22.9077 30.9802 22.9399 31.1021 23.0225 31.1847Z" fill="black"/>
    <path d="M24.123 32.2839C24.268 32.4288 24.5176 32.4031 24.633 32.2332C24.6912 32.1475 24.7039 32.0169 24.6636 31.9226C24.6398 31.867 24.5914 31.8083 24.5414 31.7742C24.4545 31.7148 24.341 31.7044 24.2428 31.7402C24.1939 31.758 24.1492 31.787 24.1138 31.8251C24.0768 31.8649 24.0491 31.912 24.0361 31.965C24.0082 32.0793 24.0404 32.2012 24.123 32.2839Z" fill="black"/>
    <path d="M18.4084 33.6052C18.5534 33.7501 18.803 33.7244 18.9184 33.5545C18.9766 33.4688 18.9893 33.3382 18.949 33.2439C18.9252 33.1883 18.8768 33.1296 18.8268 33.0955C18.7399 33.0361 18.6264 33.0256 18.5282 33.0615C18.4794 33.0793 18.4346 33.1083 18.3992 33.1464C18.3622 33.1862 18.3345 33.2333 18.3216 33.2863C18.2936 33.4006 18.3258 33.5225 18.4084 33.6052Z" fill="black"/>
    <path d="M19.1067 35.1027C19.2517 35.2477 19.5013 35.2219 19.6167 35.0521C19.6749 34.9663 19.6876 34.8357 19.6473 34.7415C19.6235 34.6858 19.5751 34.6272 19.5251 34.5931C19.4382 34.5337 19.3247 34.5232 19.2265 34.559C19.1777 34.5768 19.1329 34.6058 19.0975 34.644C19.0605 34.6838 19.0328 34.7309 19.0199 34.7839C18.9919 34.8981 19.0241 35.0201 19.1067 35.1027Z" fill="black"/>
    <path d="M20.7434 35.8406C20.7195 35.785 20.6711 35.7263 20.6212 35.6922C20.5342 35.6328 20.4208 35.6223 20.3226 35.6581C20.2737 35.6759 20.229 35.705 20.1935 35.7431C20.1565 35.7829 20.1289 35.83 20.1159 35.883C20.088 35.9972 20.1202 36.1191 20.2028 36.2018C20.3478 36.3467 20.5974 36.321 20.7127 36.1511C20.771 36.0654 20.7837 35.9348 20.7434 35.8406Z" fill="black"/>
    <path d="M19.7344 30.5099C19.8793 30.6549 20.1289 30.6292 20.2443 30.4593C20.3025 30.3735 20.3152 30.243 20.2749 30.1487C20.2511 30.0931 20.2027 30.0344 20.1528 30.0003C20.0658 29.9409 19.9523 29.9305 19.8541 29.9662C19.8053 29.9841 19.7605 30.0131 19.7251 30.0512C19.6881 30.091 19.6604 30.1381 19.6475 30.1911C19.6195 30.3054 19.6517 30.4273 19.7344 30.5099Z" fill="black"/>
    <path d="M21.0465 31.3711C21.0095 31.4109 20.9819 31.458 20.9689 31.5109C20.941 31.6251 20.9732 31.7471 21.0558 31.8297C21.2007 31.9747 21.4504 31.949 21.5657 31.7791C21.624 31.6933 21.6367 31.5628 21.5964 31.4685C21.5725 31.4129 21.5242 31.3542 21.4742 31.3201C21.3873 31.2607 21.2738 31.2503 21.1756 31.2861C21.1267 31.3039 21.082 31.333 21.0465 31.3711Z" fill="black"/>
    <path d="M22.3817 33.154C22.5266 33.2989 22.7763 33.2732 22.8916 33.1034C22.9499 33.0176 22.9626 32.887 22.9223 32.7927C22.8984 32.7371 22.85 32.6785 22.8001 32.6443C22.7131 32.5849 22.5997 32.5745 22.5015 32.6103C22.4526 32.6281 22.4079 32.6571 22.3724 32.6952C22.3354 32.7351 22.3078 32.7822 22.2948 32.8351C22.2669 32.9494 22.299 33.0713 22.3817 33.154Z" fill="black"/>
    <path d="M23.7032 34.4753C23.8481 34.6202 24.0977 34.5945 24.2131 34.4246C24.2714 34.3389 24.284 34.2083 24.2437 34.114C24.2199 34.0584 24.1715 33.9997 24.1216 33.9656C24.0346 33.9062 23.9211 33.8958 23.8229 33.9316C23.7741 33.9494 23.7294 33.9784 23.6939 34.0165C23.6569 34.0563 23.6292 34.1034 23.6163 34.1564C23.5883 34.2707 23.6205 34.3926 23.7032 34.4753Z" fill="black"/>
    <path d="M18.435 31.8127C18.5799 31.9576 18.8296 31.9319 18.9449 31.762C19.0032 31.6763 19.0159 31.5457 18.9755 31.4514C18.9517 31.3958 18.9033 31.3371 18.8534 31.303C18.7665 31.2437 18.653 31.2332 18.5547 31.269C18.5059 31.2868 18.4612 31.3158 18.4257 31.3539C18.3887 31.3937 18.3611 31.4408 18.3481 31.4939C18.3201 31.6081 18.3523 31.73 18.435 31.8127Z" fill="black"/>
    <path d="M20.2925 32.7712C20.2687 32.7156 20.2203 32.657 20.1704 32.6228C20.0834 32.5635 19.97 32.553 19.8718 32.5888C19.8229 32.6066 19.7782 32.6356 19.7427 32.6738C19.7057 32.7136 19.6781 32.7607 19.6651 32.8136C19.6372 32.9278 19.6694 33.0498 19.752 33.1324C19.8969 33.2774 20.1466 33.2517 20.2619 33.0818C20.3202 32.9961 20.3329 32.8655 20.2925 32.7712Z" fill="black"/>
    <path d="M21.0779 34.4567C21.2229 34.6017 21.4725 34.5759 21.5879 34.4061C21.6461 34.3203 21.6588 34.1897 21.6185 34.0955C21.5947 34.0399 21.5463 33.9812 21.4963 33.9471C21.4094 33.8877 21.2959 33.8772 21.1977 33.913C21.1489 33.9308 21.1041 33.9598 21.0687 33.998C21.0317 34.0378 21.004 34.0849 20.991 34.1379C20.9631 34.2521 20.9953 34.374 21.0779 34.4567Z" fill="black"/>
    <path d="M22.3993 35.7785C22.5443 35.9234 22.7939 35.8977 22.9093 35.7279C22.9675 35.6421 22.9802 35.5115 22.9399 35.4173C22.9161 35.3616 22.8677 35.303 22.8177 35.2688C22.7308 35.2095 22.6173 35.199 22.5191 35.2348C22.4702 35.2526 22.4255 35.2816 22.3901 35.3198C22.3531 35.3596 22.3254 35.4067 22.3124 35.4596C22.2845 35.5739 22.3167 35.6959 22.3993 35.7785Z" fill="black"/>
    <path d="M5.04983 31.2514C6.45941 27.1545 10.2866 27.1343 12.0241 27.6363C19.787 29.4695 27.9338 26.6032 31.0368 24.941C35.1486 23.2285 37.0819 26.5738 37.424 28.1513C38.0926 30.9378 36.9682 32.1261 35.8293 33.1051C26.6496 39.5975 15.9957 38.8623 11.6963 37.5632C5.71963 36.2458 4.36628 33.2152 5.04983 31.2514Z" stroke="black" stroke-width="0.791993"/>
    <path d="M28.7028 17.9361C28.587 17.767 28.3369 17.7463 28.1923 17.8921C28.1192 17.9656 28.0827 18.0917 28.105 18.1917C28.1182 18.2508 28.155 18.3174 28.1978 18.3601C28.2723 18.4345 28.3819 18.4656 28.485 18.4485C28.5363 18.44 28.5856 18.4197 28.6275 18.3887C28.6712 18.3564 28.707 18.3152 28.7295 18.2655C28.778 18.1583 28.7688 18.0326 28.7028 17.9361Z" fill="black"/>
    <path d="M27.8277 16.6554C27.7119 16.4862 27.4618 16.4656 27.3172 16.6113C27.2442 16.6849 27.2077 16.8109 27.2299 16.911C27.2431 16.97 27.2799 17.0366 27.3227 17.0793C27.3973 17.1537 27.5069 17.1849 27.61 17.1677C27.6613 17.1592 27.7106 17.1389 27.7524 17.108C27.7961 17.0756 27.832 17.0344 27.8545 16.9847C27.903 16.8776 27.8938 16.7518 27.8277 16.6554Z" fill="black"/>
    <path d="M26.9482 15.3717C26.8324 15.2025 26.5823 15.1819 26.4377 15.3276C26.3646 15.4012 26.3281 15.5272 26.3504 15.6273C26.3636 15.6863 26.4004 15.7529 26.4432 15.7956C26.5177 15.87 26.6274 15.9012 26.7305 15.884C26.7818 15.8756 26.8311 15.8552 26.8729 15.8243C26.9166 15.792 26.9525 15.7508 26.975 15.7011C27.0234 15.5939 27.0143 15.4681 26.9482 15.3717Z" fill="black"/>
    <path d="M32.8086 15.1256C32.6928 14.9564 32.4427 14.9358 32.2981 15.0815C32.225 15.1551 32.1886 15.2812 32.2108 15.3812C32.224 15.4402 32.2608 15.5068 32.3036 15.5496C32.3782 15.6239 32.4878 15.6551 32.5909 15.638C32.6421 15.6294 32.6915 15.6092 32.7333 15.5782C32.777 15.5459 32.8129 15.5047 32.8354 15.4549C32.8839 15.3478 32.8747 15.222 32.8086 15.1256Z" fill="black"/>
    <path d="M32.3976 13.5255C32.2818 13.3563 32.0317 13.3357 31.8871 13.4814C31.814 13.555 31.7776 13.6811 31.7998 13.7811C31.813 13.8402 31.8498 13.9067 31.8926 13.9495C31.9671 14.0238 32.0768 14.055 32.1799 14.0379C32.2311 14.0293 32.2805 14.0091 32.3223 13.9781C32.366 13.9458 32.4019 13.9046 32.4243 13.8548C32.4729 13.7477 32.4636 13.6219 32.3976 13.5255Z" fill="black"/>
    <path d="M30.9247 12.4998C30.9379 12.5589 30.9747 12.6255 31.0175 12.6682C31.092 12.7426 31.2016 12.7737 31.3048 12.7566C31.356 12.7481 31.4053 12.7278 31.4472 12.6968C31.4909 12.6645 31.5267 12.6233 31.5492 12.5736C31.5977 12.4665 31.5885 12.3407 31.5225 12.2443C31.4067 12.0751 31.1566 12.0545 31.0119 12.2002C30.9389 12.2738 30.9024 12.3998 30.9247 12.4998Z" fill="black"/>
    <path d="M30.9347 17.9239C30.8189 17.7548 30.5688 17.7341 30.4242 17.8799C30.3511 17.9534 30.3147 18.0795 30.3369 18.1795C30.3501 18.2386 30.3869 18.3052 30.4297 18.3479C30.5042 18.4222 30.6138 18.4534 30.717 18.4363C30.7682 18.4278 30.8176 18.4075 30.8594 18.3765C30.9031 18.3442 30.939 18.303 30.9614 18.2533C31.01 18.1461 31.0008 18.0203 30.9347 17.9239Z" fill="black"/>
    <path d="M29.8031 16.836C29.8468 16.8037 29.8827 16.7624 29.9052 16.7128C29.9537 16.6056 29.9444 16.4799 29.8784 16.3834C29.7626 16.2143 29.5125 16.1936 29.3679 16.3394C29.2948 16.4129 29.2583 16.539 29.2806 16.639C29.2938 16.6981 29.3306 16.7646 29.3734 16.8074C29.4479 16.8817 29.5575 16.9129 29.6606 16.8958C29.712 16.8872 29.7613 16.8669 29.8031 16.836Z" fill="black"/>
    <path d="M28.8221 14.8404C28.7063 14.6713 28.4562 14.6506 28.3116 14.7964C28.2385 14.8699 28.202 14.996 28.2243 15.096C28.2375 15.1551 28.2743 15.2217 28.3171 15.2644C28.3916 15.3388 28.5013 15.3699 28.6044 15.3528C28.6556 15.3443 28.705 15.324 28.7468 15.293C28.7905 15.2607 28.8264 15.2195 28.8489 15.1698C28.8974 15.0626 28.8882 14.9369 28.8221 14.8404Z" fill="black"/>
    <path d="M27.7659 13.297C27.65 13.1278 27.3999 13.1072 27.2553 13.2529C27.1823 13.3265 27.1458 13.4525 27.1681 13.5526C27.1812 13.6116 27.218 13.6782 27.2608 13.7209C27.3354 13.7953 27.445 13.8265 27.5481 13.8093C27.5994 13.8008 27.6487 13.7805 27.6905 13.7496C27.7342 13.7172 27.7701 13.676 27.7926 13.6264C27.8411 13.5192 27.8319 13.3934 27.7659 13.297Z" fill="black"/>
    <path d="M32.4551 16.8839C32.3393 16.7147 32.0892 16.6941 31.9445 16.8398C31.8715 16.9134 31.835 17.0394 31.8573 17.1395C31.8704 17.1986 31.9072 17.2651 31.95 17.3078C32.0246 17.3822 32.1341 17.4134 32.2373 17.3963C32.2886 17.3877 32.3379 17.3675 32.3798 17.3365C32.4234 17.3042 32.4593 17.263 32.4818 17.2132C32.5303 17.1061 32.5211 16.9803 32.4551 16.8839Z" fill="black"/>
    <path d="M30.801 15.5985C30.8142 15.6576 30.851 15.7241 30.8938 15.7668C30.9683 15.8412 31.0779 15.8724 31.181 15.8552C31.2323 15.8467 31.2816 15.8264 31.3235 15.7955C31.3672 15.7631 31.403 15.7219 31.4255 15.6723C31.474 15.5651 31.4648 15.4394 31.3988 15.3429C31.283 15.1738 31.0329 15.1531 30.8882 15.2989C30.8152 15.3724 30.7787 15.4985 30.801 15.5985Z" fill="black"/>
    <path d="M30.3425 13.7999C30.2267 13.6307 29.9766 13.6101 29.832 13.7558C29.7589 13.8294 29.7224 13.9554 29.7447 14.0555C29.7579 14.1146 29.7947 14.1811 29.8375 14.2239C29.912 14.2982 30.0216 14.3294 30.1248 14.3123C30.176 14.3037 30.2253 14.2835 30.2672 14.2525C30.3109 14.2202 30.3468 14.179 30.3692 14.1293C30.4177 14.0221 30.4086 13.8964 30.3425 13.7999Z" fill="black"/>
    <path d="M29.2862 12.2564C29.1704 12.0873 28.9203 12.0666 28.7756 12.2124C28.7026 12.286 28.6661 12.412 28.6884 12.512C28.7015 12.5711 28.7383 12.6377 28.7812 12.6804C28.8557 12.7548 28.9653 12.786 29.0684 12.7688C29.1197 12.7603 29.169 12.74 29.2109 12.7091C29.2546 12.6767 29.2904 12.6355 29.3129 12.5858C29.3614 12.4787 29.3522 12.3529 29.2862 12.2564Z" fill="black"/>
    <path d="M45.5061 19.8974C43.3668 23.6649 39.6012 22.9807 37.9858 22.1676C30.6928 18.9374 22.1576 20.2558 18.8017 21.3187C14.4451 22.2454 13.1603 18.6015 13.1143 16.988C12.9698 14.1261 14.2936 13.1649 15.5932 12.4122C25.8108 7.7196 36.1474 10.4024 40.1344 12.4704C45.7667 14.865 46.5393 18.0929 45.5061 19.8974Z" stroke="black" stroke-width="0.791993"/>
  </g>
  <defs>
    <clipPath id="clip0_27501_558">
      <rect width="50" height="50" fill="white" transform="translate(0.49707 0.793457)"/>
    </clipPath>
  </defs>
</svg>