<svg xmlns="http://www.w3.org/2000/svg" width="51" height="51" viewBox="0 0 51 51" fill="none">
  <path d="M46.7749 12.6747V17.3975M6.03768 17.3975V12.6747M40.4685 13.6207L45.3587 13.0943M12.6289 13.6207L7.74387 13.1352M26.4247 40.3147C25.9011 40.3147 25.3921 40.272 24.9127 40.1796C17.4704 38.7641 16.1501 33.6785 15.9288 31.5589C15.8772 31.0895 15.4715 30.7267 14.9773 30.7267H13.5611C13.421 30.7267 13.2882 30.6698 13.1997 30.5632L12.794 30.0937C12.6391 29.9159 12.6465 29.6598 12.8088 29.4962C12.971 29.3255 13.244 28.8703 13.244 27.7394C13.244 26.8645 11.7171 25.5629 9.04705 24.1688C8.3906 23.8274 8.10294 23.0877 8.35372 22.4191L9.15032 20.2782C9.33471 19.7803 9.8289 19.446 10.3747 19.446C10.4337 19.446 10.4854 19.446 10.5444 19.4531C14.461 19.9367 21.2616 20.5058 23.2531 20.6694C23.3195 20.6694 23.3711 20.648 23.408 20.6125C23.4449 20.5769 23.467 20.5271 23.4596 20.4702C23.4596 20.3706 23.3564 20.2924 23.2457 20.2924C18.1194 20.2355 7.35059 19.0548 5.82377 18.8129C4.82065 18.6493 4.11993 17.8385 4.11993 16.8854V12.9307C4.11993 11.437 5.11568 11.3232 5.4181 11.3232C5.50661 11.3232 5.56562 11.3304 5.56562 11.3304C13.3325 12.6106 21.5493 12.7529 24.7209 12.7529C25.7978 12.7529 26.4174 12.7387 26.4174 12.7387C26.4247 12.7387 27.0443 12.7529 28.1212 12.7529C31.2929 12.7529 39.5096 12.6178 47.2765 11.3304C47.2765 11.3304 47.3355 11.3232 47.424 11.3232C47.7264 11.3232 48.7222 11.437 48.7222 12.9307V16.8854C48.7222 17.8314 48.0215 18.6422 47.0626 18.7987C45.4915 19.0405 34.7005 20.2284 29.5816 20.2853C29.5226 20.2853 29.471 20.3137 29.4341 20.3493C29.3972 20.392 29.3825 20.4418 29.3899 20.4987C29.4046 20.5911 29.4931 20.6622 29.5964 20.6622C31.0199 20.5484 38.2262 19.951 42.3051 19.446C42.3641 19.446 42.4158 19.4389 42.4748 19.4389C43.0206 19.4389 43.5074 19.7732 43.6992 20.271L44.4958 22.412C44.7465 23.0877 44.4589 23.8203 43.8024 24.1617C43.087 24.5387 42.4379 24.9157 41.8773 25.2784C41.8257 25.3069 38.5213 27.0352 37.2526 30.6343C37.201 30.7908 37.1346 30.9401 37.0682 31.0895C37.0018 31.2389 36.9354 31.438 36.9281 31.5447C36.9133 31.7083 36.8912 31.879 36.8543 32.0711L36.8174 32.2987C36.3601 34.6956 34.6046 38.8993 27.9368 40.1724C27.4648 40.2649 26.9632 40.3076 26.4395 40.3076H26.4247V40.3147Z" stroke="#414141" stroke-width="0.803374"/>
</svg>