<svg xmlns="http://www.w3.org/2000/svg" width="24" height="24" viewBox="0 0 24 24" fill="none">
  <g clip-path="url(#clip0_27849_3492)">
    <path d="M21 23.25H5.25C4.95444 23.25 4.66178 23.1918 4.38873 23.0787C4.11568 22.9655 3.8676 22.7997 3.65866 22.5907C3.44971 22.3816 3.284 22.1335 3.17098 21.8604C3.05797 21.5873 2.99987 21.2946 3 20.999M3 20.999C3 20.4023 3.23705 19.83 3.65901 19.408C4.08097 18.9861 4.65326 18.749 5.25 18.749H19.5C19.8978 18.749 20.2794 18.591 20.5607 18.3097C20.842 18.0284 21 17.6468 21 17.249V2.24902C21 1.8512 20.842 1.46967 20.5607 1.18836C20.2794 0.907059 19.8978 0.749023 19.5 0.749023H4.957C4.69992 0.749023 4.44536 0.799676 4.20786 0.898087C3.97036 0.996498 3.75458 1.14074 3.57284 1.32257C3.3911 1.5044 3.24697 1.72026 3.14868 1.9578C3.05039 2.19535 2.99987 2.44994 3 2.70702V20.999Z" stroke="black" stroke-width="1.5" stroke-linecap="round" stroke-linejoin="round"/>
    <path d="M19.5 18.75V23.25" stroke="black" stroke-width="1.5" stroke-linecap="round" stroke-linejoin="round"/>
    <path d="M12.091 12.9869L12.0926 12.9867C12.6483 12.9771 13.1851 12.8546 13.694 12.6387C14.2394 12.3944 14.7135 12.0649 15.1315 11.652C15.5407 11.2386 15.8776 10.7494 16.1229 10.186C16.3687 9.62164 16.4961 9.01952 16.4961 8.37124C16.4961 7.72297 16.3687 7.121 16.1229 6.55659C15.8777 5.99372 15.5505 5.50497 15.1321 5.08195C14.7225 4.66815 14.2403 4.33929 13.6954 4.09528C13.158 3.86 12.5833 3.7373 11.991 3.7373C11.3987 3.7373 10.8335 3.8598 10.2962 4.09502C9.75989 4.32991 9.27752 4.65895 8.86767 5.08226C8.44938 5.5052 8.12217 5.99372 7.87708 6.55659C7.63125 7.121 7.50391 7.73232 7.50391 8.37124C7.50391 9.01936 7.63118 9.63038 7.86791 10.1854L7.86855 10.187C8.12242 10.7491 8.44946 11.2376 8.85907 11.6514C9.26863 12.0652 9.75054 12.394 10.2863 12.6379L10.2878 12.6385C10.7243 12.8265 11.1705 12.9395 11.6527 12.9772C11.7377 12.9869 11.8504 12.989 11.9385 12.989C11.9833 12.989 12.0227 12.9886 12.0505 12.988L12.0825 12.9871L12.091 12.9869ZM13.1216 12.2725C12.8139 12.4757 12.4346 12.5838 11.991 12.5838C11.5554 12.5838 11.1786 12.4849 10.8728 12.2655L10.8695 12.2632C10.5511 12.0586 10.2909 11.7641 10.0903 11.3944C9.88087 11.0246 9.7303 10.579 9.63309 10.0582C9.53557 9.53608 9.48222 8.96769 9.48222 8.36204C9.48222 7.7567 9.53557 7.18846 9.63294 6.66653C9.7392 6.14521 9.88915 5.69982 10.0906 5.31967C10.2907 4.94218 10.5506 4.65608 10.8708 4.44154C11.1779 4.22998 11.5564 4.12175 12 4.12175C12.4428 4.12175 12.8121 4.22908 13.1288 4.44128C13.4398 4.65561 13.7006 4.95129 13.9104 5.32158C14.1198 5.69113 14.2695 6.14445 14.3578 6.65564C14.4551 7.17758 14.5088 7.74719 14.5088 8.36204C14.5088 8.98624 14.4554 9.55463 14.3581 10.0671C14.2607 10.5881 14.1109 11.0327 13.9015 11.4026C13.7008 11.7721 13.4401 12.0678 13.1216 12.2725Z" fill="black" stroke="black" stroke-width="0.0875" stroke-linecap="round" stroke-linejoin="round"/>
    <path d="M16.4185 13.9472C16.4608 13.9472 16.4951 13.9128 16.4951 13.8705V11.9663C16.4951 11.924 16.4608 11.8896 16.4185 11.8896C15.79 11.8896 15.2064 12.0215 14.6595 12.2757C14.1142 12.5293 13.6407 12.8679 13.2399 13.3007C12.8401 13.7328 12.5222 14.2302 12.2864 14.7834L12.2856 14.7851C12.0763 15.3116 11.9675 15.8658 11.9492 16.438V16.4405V16.4421V16.4438V16.4454V16.447V16.4486V16.4503V16.4518V16.4535V16.455V16.4567V16.4582V16.4599V16.4615V16.4633V16.465V16.4665V16.4682V16.4697V16.4714V16.473V16.4748V16.4766V16.4783V16.48V16.4817V16.4835V16.4851V16.4869V16.4887V16.4904V16.4923V16.494V16.4956V16.4975V16.4992V16.501V16.5027V16.5045V16.5062V16.5081V16.5099V16.5116V16.5134V16.5151V16.5168V16.5185V16.5202V16.5219V16.5236V16.5252V16.5271V16.5288V16.5306V16.5324V16.5343V16.5361V16.538V16.5398V16.5416C11.9492 16.584 11.9836 16.6188 12.0259 16.6188H12.2674C12.3098 16.6188 12.344 16.5844 12.344 16.5421C12.344 16.0918 12.4486 15.6996 12.6458 15.3806C12.8439 15.06 13.1294 14.7911 13.4871 14.5746C13.8553 14.3664 14.2856 14.2029 14.7788 14.1028C15.2742 14.0022 15.8237 13.9472 16.4185 13.9472Z" fill="black" stroke="black" stroke-width="0.0875" stroke-linecap="round" stroke-linejoin="round"/>
  </g>
  <defs>
    <clipPath id="clip0_27849_3492">
      <rect width="24" height="24" fill="white" transform="translate(0 -0.000976562)"/>
    </clipPath>
  </defs>
</svg>