<svg width="22" height="22" viewBox="0 0 22 22" fill="none" xmlns="http://www.w3.org/2000/svg">
<path d="M11 0C4.9381 0 0 4.9381 0 11C0 17.0619 4.9381 22 11 22C17.0619 22 22 17.0619 22 11C22 4.9381 17.0619 0 11 0ZM11 1.69231C16.1496 1.69231 20.3077 5.85036 20.3077 11C20.3077 13.2674 19.5012 15.3365 18.1659 16.9495C17.4387 14.887 15.8654 13.2278 13.8558 12.4081C14.6953 11.6346 15.2308 10.5306 15.2308 9.30769C15.2308 6.98077 13.3269 5.07692 11 5.07692C8.67308 5.07692 6.76923 6.98077 6.76923 9.30769C6.76923 10.5306 7.30469 11.6346 8.14423 12.4081C6.13461 13.2278 4.56791 14.887 3.84074 16.9495C2.4988 15.3365 1.69231 13.2674 1.69231 11C1.69231 5.85036 5.85036 1.69231 11 1.69231ZM11 6.76923C12.4147 6.76923 13.5385 7.89303 13.5385 9.30769C13.5385 10.7224 12.4147 11.8462 11 11.8462C9.58534 11.8462 8.46154 10.7224 8.46154 9.30769C8.46154 7.89303 9.58534 6.76923 11 6.76923ZM11 13.5385C13.8756 13.5385 16.2356 15.5811 16.7843 18.2915C15.1911 19.5541 13.1881 20.3077 11 20.3077C8.8119 20.3077 6.8089 19.5541 5.22236 18.2915C5.76442 15.5811 8.1244 13.5385 11 13.5385Z" fill="white"/>
</svg>
