<svg width="14" height="18" viewBox="0 0 14 18" fill="none" xmlns="http://www.w3.org/2000/svg">
<path d="M3.86914 4.1028C3.86914 3.27989 4.19572 2.49066 4.77702 1.90877C5.35833 1.32689 6.14675 1 6.96884 1C7.79093 1 8.57936 1.32689 9.16066 1.90877C9.74197 2.49066 10.0685 3.27989 10.0685 4.1028C10.0685 5.81621 8.68056 7.68354 6.96884 7.68354C5.25713 7.68354 3.86914 5.81621 3.86914 4.1028Z" stroke="white" stroke-miterlimit="10"/>
<path d="M6.96879 16.9996C9.28254 17.0016 11.5056 16.099 13.1642 14.4841C12.7109 12.2401 10.113 10.5186 6.96879 10.5186C3.82458 10.5186 1.22261 12.2401 0.773438 14.4841C2.43151 16.0997 4.65488 17.0025 6.96879 16.9996V16.9996Z" stroke="white" stroke-miterlimit="10"/>
</svg>
