<svg xmlns="http://www.w3.org/2000/svg" width="28" height="26" viewBox="0 0 28 28" fill="none">
  <path fill-rule="evenodd" clip-rule="evenodd" d="M14.0653 6.60254V22.6025C14.0653 22.6025 7.1987 20.7716 6.3667 9.2268C6.3667 9.2268 12.5143 7.84482 14.0653 6.60753V6.60254Z" stroke="white" stroke-width="0.7" stroke-miterlimit="2.61313" stroke-linecap="round" stroke-linejoin="round"/>
  <path fill-rule="evenodd" clip-rule="evenodd" d="M14.0649 6.60254V22.6025C14.0649 22.6025 20.9315 20.7716 21.7635 9.2268C21.7635 9.2268 15.616 7.84482 14.0649 6.60753V6.60254Z" stroke="white" stroke-width="0.7" stroke-miterlimit="2.61313" stroke-linecap="round" stroke-linejoin="round"/>
  <path d="M14.0655 18.5027C16.636 18.5027 18.7198 16.4784 18.7198 13.9813C18.7198 11.4842 16.636 9.45996 14.0655 9.45996C11.4949 9.45996 9.41113 11.4842 9.41113 13.9813C9.41113 16.4784 11.4949 18.5027 14.0655 18.5027Z" fill="#121212" stroke="white" stroke-width="0.7" stroke-miterlimit="2.61313" stroke-linecap="round" stroke-linejoin="round"/>
  <path fill-rule="evenodd" clip-rule="evenodd" d="M13.1674 16.7236C13.4367 16.8573 13.7418 16.9329 14.0648 16.9329C14.3879 16.9329 14.693 16.8573 14.9622 16.7236C15.6143 16.404 16.057 15.7473 16.057 14.9976C16.057 14.9511 16.057 14.9104 16.051 14.864C16.051 14.864 16.051 14.8581 16.051 14.8523H16.057C16.063 14.7303 16.033 13.8121 14.0648 11.0342C12.1026 13.8121 12.0667 14.7303 12.0727 14.8523H12.0787C12.0787 14.864 12.0787 14.864 12.0787 14.864C12.0727 14.9104 12.0727 14.9511 12.0727 14.9976C12.0727 15.7531 12.5154 16.4098 13.1674 16.7236Z" stroke="white" stroke-width="0.7" stroke-miterlimit="2.61313" stroke-linecap="round" stroke-linejoin="round"/>
</svg>