<svg xmlns="http://www.w3.org/2000/svg" width="22" height="26" viewBox="0 0 22 21" fill="none">
  <path d="M9.33861 13.9786C9.68826 14.2583 10.4227 14.7478 11.4891 14.8527V15.6395C11.4891 15.8667 11.6115 15.9891 11.8738 15.9891H11.9787C12.2409 15.9891 12.3633 15.8492 12.3633 15.587V14.8527C13.8319 14.6779 14.7061 13.6463 14.7061 12.405C14.7061 9.62522 10.4227 9.99236 10.4227 8.244C10.4227 7.56221 11.0695 6.9678 11.9962 6.9678C12.713 6.9678 13.2724 7.26494 13.5696 7.4747C13.8144 7.61459 14.0067 7.59709 14.1465 7.35232L14.3039 7.05518C14.4263 6.82791 14.4088 6.63553 14.199 6.49564C13.8669 6.26838 13.2549 5.91873 12.3633 5.86623V5.06205C12.3633 4.83479 12.2409 4.7124 11.9787 4.7124H11.8738C11.6115 4.7124 11.4891 4.85229 11.4891 5.11455V5.86623C10.1079 6.07611 9.19873 7.07268 9.19873 8.27901C9.19873 10.9189 13.4823 10.6393 13.4823 12.4575C13.4823 13.2792 12.7653 13.7339 11.9612 13.7339C11.087 13.7339 10.4052 13.3142 10.0555 13.0519C9.82815 12.912 9.63588 12.9121 9.4785 13.1218L9.28624 13.4191C9.11135 13.6115 9.12885 13.8212 9.33861 13.9786Z" fill="white"/>
  <path d="M2.55664 10.3777C2.55664 15.593 6.78447 19.8208 11.9998 19.8208C17.215 19.8208 21.4429 15.593 21.4429 10.3777C21.4429 5.1624 17.215 0.93457 11.9998 0.93457" stroke="white" stroke-width="0.8"/>
  <path d="M2.57496 10.9681L2.24014 10.9887L2.57496 10.9681ZM2.55664 8.01709L0.640731 11.3836L4.5142 11.3596L2.55664 8.01709ZM11.9999 19.4855C7.16121 19.4855 3.2036 15.712 2.90978 10.9474L2.24014 10.9887C2.55563 16.1049 6.80451 20.1564 11.9999 20.1564V19.4855Z" fill="white"/>
  <path d="M12 0.93457C7.7767 0.93457 3.76436 4.1436 2.55689 7.96777" stroke="white" stroke-width="0.524154" stroke-dasharray="0.67 0.67"/>
</svg>