<svg xmlns="http://www.w3.org/2000/svg" width="29" height="26" viewBox="0 0 29 29" fill="none">
  <path fill-rule="evenodd" clip-rule="evenodd" d="M14.4904 7.56738H16.2011V19.1997H11.5917C11.2496 17.8312 10.1931 16.8048 8.32836 16.8048C6.46357 16.8048 5.40711 17.8312 5.06498 19.1997H4.56871C4.56871 19.1997 4.56871 19.1997 4.56871 18.8576C4.56871 18.1734 3.88445 17.147 3.2002 16.8048V7.56738L14.4904 7.56738Z" stroke="white" stroke-width="0.584469" stroke-miterlimit="2.61313" stroke-linecap="round" stroke-linejoin="round"/>
  <path fill-rule="evenodd" clip-rule="evenodd" d="M8.33222 18.1733C9.35861 18.1733 10.0429 18.8576 10.0429 19.884C10.0429 20.9104 9.35861 21.5946 8.33222 21.5946C7.30584 21.5946 6.62158 20.9104 6.62158 19.884C6.62158 18.8576 7.30584 18.1733 8.33222 18.1733Z" stroke="white" stroke-width="0.584469" stroke-miterlimit="2.61313" stroke-linecap="round" stroke-linejoin="round"/>
  <path fill-rule="evenodd" clip-rule="evenodd" d="M21.9948 18.1733C23.0212 18.1733 23.7055 18.8576 23.7055 19.884C23.7055 20.9104 23.0212 21.5946 21.9948 21.5946C20.9684 21.5946 20.2842 20.9104 20.2842 19.884C20.2842 18.8576 20.9684 18.1733 21.9948 18.1733Z" stroke="white" stroke-width="0.584469" stroke-miterlimit="2.61313" stroke-linecap="round" stroke-linejoin="round"/>
  <path fill-rule="evenodd" clip-rule="evenodd" d="M18.4608 10.3047H22.5663L25.6455 14.0681V19.2H25.1116C24.7695 17.8315 23.713 16.8051 21.8821 16.8051C19.9834 16.8051 18.927 17.8315 18.5848 19.2H18.1187V10.3047H18.4608Z" stroke="white" stroke-width="0.584469" stroke-miterlimit="2.61313" stroke-linecap="round" stroke-linejoin="round"/>
</svg>