<svg width="48" height="47" viewBox="0 0 48 47" fill="none" xmlns="http://www.w3.org/2000/svg">
<g id="Group 1000004028">
<g id="Group 1000004040">
<g id="Group 1000004037">
<path id="Polygon 2" d="M13.3668 25.6707L23.6337 19.8316L33.9007 25.6707V37.3396L23.6337 43.1788L13.3668 37.3396V25.6707Z" stroke="black" stroke-width="0.733046"/>
<circle id="Ellipse 137" cx="23.8179" cy="43.6006" r="2.3824" fill="black" stroke="black" stroke-width="0.366523"/>
<circle id="Ellipse 138" cx="34.0807" cy="37.7361" r="2.3824" fill="black" stroke="black" stroke-width="0.366523"/>
<circle id="Ellipse 139" cx="34.0807" cy="25.2742" r="2.3824" fill="black" stroke="black" stroke-width="0.366523"/>
<circle id="Ellipse 140" cx="23.8179" cy="20.1428" r="2.3824" fill="black" stroke="black" stroke-width="0.366523"/>
<circle id="Ellipse 141" cx="13.9209" cy="25.2742" r="2.3824" fill="black" stroke="black" stroke-width="0.366523"/>
<circle id="Ellipse 142" cx="13.1889" cy="37.7361" r="2.3824" fill="black" stroke="black" stroke-width="0.366523"/>
</g>
<g id="Group 1000004038">
<path id="Polygon 2_2" d="M23.9953 8.44369L34.2623 2.60451L44.5293 8.44369V20.1125L34.2623 25.9517L23.9953 20.1125V8.44369Z" stroke="black" stroke-width="0.733046"/>
<circle id="Ellipse 138_2" cx="44.708" cy="20.5095" r="2.3824" fill="black" stroke="black" stroke-width="0.366523"/>
<circle id="Ellipse 139_2" cx="44.708" cy="8.0471" r="2.3824" fill="black" stroke="black" stroke-width="0.366523"/>
<circle id="Ellipse 140_2" cx="34.4452" cy="2.91624" r="2.3824" fill="black" stroke="black" stroke-width="0.366523"/>
<circle id="Ellipse 141_2" cx="24.5494" cy="8.0471" r="2.3824" fill="black" stroke="black" stroke-width="0.366523"/>
</g>
<g id="Group 1000004039">
<path id="Polygon 2_3" d="M23.6377 8.23049L13.0042 2.18286L2.37073 8.23049" stroke="black" stroke-width="0.733046"/>
<circle id="Ellipse 140_3" cx="13.1875" cy="2.91624" r="2.3824" fill="black" stroke="black" stroke-width="0.366523"/>
<circle id="Ellipse 141_3" cx="3.29173" cy="8.0471" r="2.3824" fill="black" stroke="black" stroke-width="0.366523"/>
</g>
</g>
</g>
</svg>
