<svg width="156" height="30" viewBox="0 0 156 30" fill="none" xmlns="http://www.w3.org/2000/svg">
<path d="M56.2053 11.7523V28.5712H62.3048V8.48193L56.2053 11.7523Z" fill="#D9D9D9"/>
<path d="M62.4335 3.28849C62.1999 2.63961 61.7067 1.99073 61.1098 1.57545C59.7082 0.744887 57.7356 0.978477 56.6455 2.1205C55.8409 2.8732 55.4515 4.14501 55.6592 5.3649C55.8149 6.50693 56.7493 7.41536 57.5279 7.77873C58.8257 8.29784 60.7464 8.19402 61.9144 6.74053C62.5892 5.90996 62.8228 4.45647 62.4335 3.28849Z" fill="#D9D9D9"/>
<path d="M25.7847 11.7522C25.4733 10.5064 24.4091 9.41627 23.1892 9.13076C20.3861 8.42997 17.8165 9.52009 16.363 11.9858L16.2332 12.2194L16.1294 11.9599C15.4027 10.1171 14.2347 9.10481 12.6774 8.94908C10.0819 8.5338 8.08333 9.54605 6.16265 12.1416L5.92905 12.479V8.66357C5.56568 8.84526 0.0372314 11.6744 0.0372314 11.6744V28.5712H5.92905V15.9051C5.92905 14.9188 6.91535 14.0363 7.90164 14.0882C8.81007 14.1142 9.74446 14.9966 9.74446 15.9051C9.74446 15.9051 9.74446 28.3116 9.74446 28.5452H15.8958C15.8958 28.3116 15.8958 15.9051 15.8958 15.9051C15.8958 14.8928 16.96 14.0363 17.9722 14.0882C18.8807 14.1401 19.7632 14.9966 19.7632 15.9051V28.5452H25.9664V13.9065C25.9664 13.3355 25.9664 12.453 25.7847 11.7522Z" fill="#D9D9D9"/>
<path d="M43.0456 26.208C42.5265 26.1561 42.3707 25.04 42.3707 25.04L41.2547 18.3695L40.9951 17.0718C40.7096 15.6962 40.45 14.2427 39.905 12.919C38.166 8.92186 33.2345 8.24703 29.5748 9.33714C28.9779 9.51883 28.4328 9.80433 28.4328 9.80433V12.296C29.9382 11.6471 31.3917 11.5952 32.5856 12.1663C34.117 12.919 34.5582 14.8137 34.6361 15.5923C34.6361 15.6183 34.7659 16.4748 34.7659 16.4748C32.975 16.7344 30.7688 17.1756 29.1336 18.3436C27.3167 19.6413 26.3564 21.7178 26.564 23.872C26.6419 26.182 28.4069 27.9989 30.1199 28.6478C32.404 29.4524 35.5445 29.3226 37.4133 27.1683L37.6469 26.9088L38.166 27.4279C39.5157 28.8554 41.0211 28.8035 42.7341 28.7516L43.6425 28.7256V26.2859C43.6685 26.2859 43.0715 26.208 43.0456 26.208ZM35.2071 19.4077L36.3232 24.8064C33.4681 28.1287 28.7183 22.3147 35.2071 19.4077Z" fill="#D9D9D9"/>
<path d="M54.7256 8.50789C52.0263 8.50789 50.5728 11.6225 50.5468 11.6744L50.2873 12.2714V11.8821V8.48193L44.2916 11.7523V28.6231H50.3132V17.8258L50.3392 17.4105C50.3911 16.528 50.443 15.5937 50.8583 14.815C51.7667 13.076 53.8431 13.102 55.2966 13.3096L56.3608 8.76744C56.3608 8.7934 55.6859 8.50789 54.7256 8.50789Z" fill="#D9D9D9"/>
<path d="M140.612 8.7934C140.612 8.7934 139.937 8.50789 138.977 8.50789C136.277 8.50789 134.824 11.6225 134.798 11.6744L134.538 12.2714V11.8821V8.48193L128.543 11.7523V28.6231H134.564V17.8258L134.59 17.4105C134.642 16.528 134.694 15.5937 135.109 14.815C136.018 13.076 138.094 13.102 139.548 13.3096L140.612 8.7934Z" fill="#D9D9D9"/>
<path d="M127.97 3.08293C127.736 2.43405 127.243 1.78517 126.646 1.36988C125.244 0.539318 123.272 0.772916 122.182 1.91494C121.377 2.66764 120.988 3.93945 121.195 5.15934C121.351 6.30137 122.286 7.20979 123.064 7.57317C124.362 8.09227 126.283 7.98845 127.451 6.53496C128.125 5.70439 128.333 4.27686 127.97 3.08293Z" fill="#D9D9D9"/>
<path d="M148.916 26.0522C146.528 25.8706 145.412 21.4841 145.412 21.4841L155.768 18.1359C155.768 18.1359 155.561 13.6197 153.069 11.154C150.785 8.89589 147.307 8.247 144.115 9.54476C142.22 10.2715 140.455 12.2441 139.65 14.5801C138.067 18.9924 139.001 23.9239 142.012 26.8569C144.789 29.5043 149.098 29.4524 152.187 28.518L153.744 27.8432V25.04C153.744 25.04 151.875 26.2599 148.916 26.0522ZM145.257 18.6291C145.101 16.7343 145.334 14.7098 145.776 13.7755C146.243 12.8411 146.762 12.4517 147.411 12.3739C150.162 12.0365 150.448 17.0718 150.448 17.0718L145.257 18.6291Z" fill="#D9D9D9"/>
<path d="M121.715 11.7523V28.5712H127.814V8.48193L121.715 11.7523Z" fill="#D9D9D9"/>
<path d="M77.2033 11.1291C74.9193 8.87098 71.4413 8.2221 68.2488 9.51986C66.3541 10.2466 64.5891 12.2192 63.7845 14.5552C62.2012 18.9675 63.1356 23.899 66.1464 26.832C68.9236 29.4794 73.2322 29.4275 76.3208 28.4931L77.8782 27.8182V25.0151C77.8782 25.0151 75.9834 26.235 73.0505 26.0014C70.6626 25.8197 69.5465 21.4333 69.5465 21.4333L79.9027 18.0851C79.9027 18.111 79.695 13.5948 77.2033 11.1291ZM69.3908 18.6561C69.2351 16.7354 69.4687 14.7109 69.9099 13.7765C70.3771 12.8421 70.8962 12.4528 71.5451 12.3749C74.2963 12.0375 74.5818 17.0728 74.5818 17.0728L69.3908 18.6561Z" fill="#D9D9D9"/>
<path d="M92.8024 25.3792C91.1932 24.5486 89.8695 23.3287 89.6878 19.8248C89.4801 15.7498 90.3107 12.8688 92.4909 12.0382C94.1521 11.4153 96.4102 12.7909 96.4102 12.7909L96.4361 9.49462C96.4361 9.49462 93.3215 7.98922 89.8176 9.10529C86.651 10.1175 84.6265 12.5833 83.8998 16.6063C83.3807 19.5393 83.796 22.7837 85.2495 25.3273C86.9106 28.0785 90.1031 29.506 93.7108 29.0388C94.6971 28.9091 96.7476 28.2862 96.7476 28.2862L96.7216 25.2234C96.7216 25.1975 94.4635 26.2357 92.8024 25.3792Z" fill="#D9D9D9"/>
<path d="M120.47 26.001C119.951 25.9491 119.796 24.833 119.796 24.833L118.68 18.1625L118.42 16.8648C118.135 15.4891 117.875 14.0356 117.33 12.7119C115.591 8.71483 110.659 8.03999 107 9.13011C106.403 9.3118 105.858 9.59731 105.858 9.59731V12.089C107.363 11.4401 108.817 11.3882 110.011 11.9592C111.542 12.7119 111.983 14.6066 112.061 15.3853C112.061 15.4113 112.191 16.2678 112.191 16.2678C110.4 16.5273 108.194 16.9686 106.559 18.1366C104.742 19.4343 103.781 21.5107 103.989 23.665C104.067 25.975 105.832 27.7919 107.545 28.4408C109.829 29.2454 112.969 29.1156 114.838 26.9613L115.072 26.7018L115.591 27.2209C116.941 28.6484 118.446 28.5965 120.159 28.5446L121.067 28.5186V26.0788C121.093 26.1048 120.496 26.001 120.47 26.001ZM112.632 19.2267L113.748 24.6253C110.893 27.9476 106.143 22.1337 112.632 19.2267Z" fill="#D9D9D9"/>
<path d="M97.3435 28.5185H103.339V2.43359L97.3435 5.65203V28.5185Z" fill="#D9D9D9"/>
</svg>
