<svg width="24" height="25" viewBox="0 0 24 25" fill="none" xmlns="http://www.w3.org/2000/svg">
<path d="M2 6.77197C2.6 7.27197 3.2 7.77197 4.5 7.77197C7 7.77197 7 5.77197 9.5 5.77197C12.1 5.77197 11.9 7.77197 14.5 7.77197C17 7.77197 17 5.77197 19.5 5.77197C20.8 5.77197 21.4 6.27197 22 6.77197" stroke="black" stroke-linecap="round" stroke-linejoin="round"/>
<path d="M2 12.772C2.6 13.272 3.2 13.772 4.5 13.772C7 13.772 7 11.772 9.5 11.772C12.1 11.772 11.9 13.772 14.5 13.772C17 13.772 17 11.772 19.5 11.772C20.8 11.772 21.4 12.272 22 12.772" stroke="black" stroke-linecap="round" stroke-linejoin="round"/>
<path d="M2 18.772C2.6 19.272 3.2 19.772 4.5 19.772C7 19.772 7 17.772 9.5 17.772C12.1 17.772 11.9 19.772 14.5 19.772C17 19.772 17 17.772 19.5 17.772C20.8 17.772 21.4 18.272 22 18.772" stroke="black" stroke-linecap="round" stroke-linejoin="round"/>
</svg>
