<svg width="22" height="23" viewBox="0 0 22 23" fill="none" xmlns="http://www.w3.org/2000/svg">
<path d="M17.1552 12.8591C16.7656 11.6418 15.9351 10.4951 14.6665 9.48031C12.8331 8.01364 11.4581 5.81364 10.9998 3.52197C10.8321 4.34353 10.5598 5.14019 10.1895 5.89247" stroke="black" stroke-linecap="round" stroke-linejoin="round"/>
<path d="M1.83203 2.60522L20.1654 20.9386" stroke="black" stroke-linecap="round" stroke-linejoin="round"/>
<path d="M8.06078 8.83594C7.82837 9.06234 7.58517 9.2774 7.33203 9.48035C5.4987 10.947 4.58203 12.6887 4.58203 14.522C4.58189 15.9608 5.06529 17.3579 5.9546 18.4889C6.84392 19.6199 8.08754 20.4192 9.48574 20.7584C10.8839 21.0977 12.3556 20.9571 13.6643 20.3594C14.9731 19.7617 16.043 18.7415 16.7022 17.4627" stroke="black" stroke-linecap="round" stroke-linejoin="round"/>
</svg>
