<svg width="24" height="25" viewBox="0 0 24 25" fill="none" xmlns="http://www.w3.org/2000/svg">
<path d="M17.5002 19.772H9.00016C7.70202 19.7716 6.42955 19.4103 5.32494 18.7284C4.22032 18.0465 3.32708 17.0709 2.74503 15.9106C2.16298 14.7503 1.91505 13.4509 2.02895 12.1578C2.14285 10.8647 2.61409 9.62868 3.39001 8.58795C4.16593 7.54723 5.21596 6.74277 6.42276 6.26446C7.62957 5.78615 8.9456 5.65285 10.2238 5.87944C11.502 6.10603 12.692 6.68359 13.6609 7.54758C14.6297 8.41157 15.3393 9.52795 15.7102 10.772H17.5002C18.6936 10.772 19.8382 11.2461 20.6821 12.09C21.5261 12.9339 22.0002 14.0785 22.0002 15.272C22.0002 16.4654 21.5261 17.61 20.6821 18.454C19.8382 19.2979 18.6936 19.772 17.5002 19.772Z" stroke="black" stroke-linecap="round" stroke-linejoin="round"/>
</svg>
