<svg width="36" height="36" viewBox="0 0 36 36" fill="none" xmlns="http://www.w3.org/2000/svg">
<g id="fi_7171365" clip-path="url(#clip0_28547_684)">
<g id="Group">
<path id="Vector" d="M28.6692 15.5031L30.9998 13.1725C31.484 12.6883 31.7506 12.0445 31.7506 11.3599C31.7506 10.6752 31.484 10.0314 30.9998 9.54723L26.6495 5.19684C26.1653 4.71265 25.5215 4.44605 24.8367 4.44605C24.1519 4.44605 23.5082 4.71265 23.024 5.19684L20.6934 7.52742C20.2093 8.01161 19.9426 8.65535 19.9426 9.34011C19.9426 9.46288 19.9516 9.58429 19.9684 9.70371C19.1971 9.59447 18.3852 9.83571 17.7933 10.4276L15.4626 12.7583C14.9785 13.2425 14.7119 13.8862 14.7119 14.5709C14.7119 14.6933 14.7207 14.8142 14.7375 14.9333C14.6184 14.9165 14.4974 14.9076 14.375 14.9076C13.6903 14.9076 13.0466 15.1743 12.5624 15.6585L10.2318 17.9891C9.74767 18.4733 9.481 19.1171 9.481 19.8018C9.481 19.9241 9.48988 20.0451 9.50663 20.1641C9.38755 20.1474 9.26655 20.1385 9.14419 20.1385C8.45943 20.1385 7.81569 20.4052 7.3315 20.8894L5.00086 23.22C4.51674 23.7042 4.25007 24.3479 4.25 25.0326C4.25 25.7173 4.51667 26.361 5.00079 26.8452L9.35118 31.1956C9.83537 31.6798 10.4791 31.9464 11.1639 31.9464C11.8487 31.9464 12.4924 31.6797 12.9766 31.1956L15.3073 28.8649C15.7914 28.3807 16.0581 27.737 16.0581 27.0523C16.0581 26.9299 16.0492 26.8089 16.0324 26.6898C16.1515 26.7066 16.2724 26.7155 16.3948 26.7155C17.0796 26.7155 17.7233 26.4489 18.2075 25.9647L20.5381 23.6341C21.0222 23.1499 21.2889 22.5061 21.2889 21.8214C21.2889 21.699 21.28 21.5781 21.2633 21.459C21.3824 21.4757 21.5034 21.4846 21.6257 21.4846C22.3105 21.4846 22.9542 21.218 23.4384 20.7338L25.7691 18.4031C26.2532 17.9189 26.5198 17.2752 26.5198 16.5904C26.5198 16.4681 26.511 16.3471 26.4942 16.2281C26.6133 16.2448 26.7343 16.2537 26.8567 16.2537C27.5413 16.254 28.185 15.9873 28.6692 15.5031ZM21.4186 8.25251L23.7492 5.92186C24.0491 5.62204 24.4429 5.47213 24.8368 5.47213C25.2307 5.47213 25.6245 5.62204 25.9244 5.92193L30.2748 10.2723C30.8745 10.872 30.8745 11.8478 30.2748 12.4475L27.9441 14.7782C27.3445 15.3779 26.3685 15.3778 25.769 14.7782L21.4185 10.4278C21.1281 10.1373 20.968 9.75108 20.968 9.34024C20.968 8.92927 21.1281 8.54304 21.4186 8.25251ZM20.693 11.1523C20.6934 11.1527 25.0438 15.5031 25.0438 15.5031C25.6435 16.1028 25.6435 17.0786 25.0438 17.6783L22.7132 20.009C22.1135 20.6086 21.1377 20.6087 20.5381 20.009L16.1877 15.6586C15.588 15.0588 15.588 14.0831 16.1877 13.4834L18.5183 11.1527C19.1179 10.5533 20.0932 10.5531 20.693 11.1523ZM19.813 22.9092L17.4823 25.2398C16.8827 25.8395 15.9068 25.8395 15.3073 25.2398L10.9569 20.8895C10.3571 20.2898 10.3572 19.314 10.9569 18.7143L13.2875 16.3836C13.8872 15.7839 14.8631 15.784 15.4626 16.3836L19.813 20.734C20.4127 21.3337 20.4127 22.3095 19.813 22.9092ZM12.2515 30.4707C11.6518 31.0704 10.6758 31.0703 10.0763 30.4707L5.72595 26.1203C5.12623 25.5206 5.12623 24.5448 5.72595 23.9451L8.05659 21.6144C8.65617 21.0147 9.63214 21.0148 10.2317 21.6144L14.5821 25.9648C15.1818 26.5645 15.1818 27.5402 14.5821 28.14L12.2515 30.4707Z" fill="black"/>
<path id="Vector_2" d="M24.8881 22.1842L27.2188 19.8535C27.7224 19.3499 28.1026 18.7356 28.3286 18.0633C29.0009 17.8371 29.6152 17.4571 30.119 16.9533L35.3499 11.7224C35.5501 11.5222 35.5501 11.1976 35.3499 10.9974L25.1991 0.846473C24.9989 0.646248 24.6743 0.646248 24.474 0.846473L22.2988 3.02167C22.0986 3.22189 22.0986 3.54646 22.2988 3.74669C22.499 3.94691 22.8236 3.94691 23.0239 3.74669L24.8366 1.934L34.2624 11.3598L29.394 16.2282C28.9487 16.6734 28.3924 16.9945 27.7853 17.1565C27.6079 17.2038 27.4694 17.3423 27.4221 17.5196C27.2601 18.1268 26.9391 18.6831 26.4938 19.1284L24.1631 21.459C23.7179 21.9042 23.1616 22.2253 22.5545 22.3873C22.3771 22.4346 22.2386 22.5732 22.1913 22.7505C22.0293 23.3576 21.7083 23.9139 21.263 24.3592L18.9323 26.6899C18.4871 27.1351 17.9308 27.4561 17.3236 27.6182C17.1462 27.6655 17.0078 27.8041 16.9605 27.9813C16.7984 28.5885 16.4775 29.1447 16.0321 29.5901L14.4265 31.1956C14.2263 31.3959 14.2263 31.7205 14.4265 31.9207C14.5267 32.0207 14.6579 32.0708 14.7891 32.0708C14.9203 32.0708 15.0515 32.0207 15.1517 31.9207L16.7572 30.3151C17.2609 29.8114 17.6411 29.1971 17.8671 28.5248C18.5394 28.2986 19.1537 27.9186 19.6575 27.4148L21.9882 25.0842C22.4918 24.5804 22.872 23.9662 23.0981 23.2938C23.77 23.0679 24.3844 22.6878 24.8881 22.1842Z" fill="black"/>
<path id="Vector_3" d="M13.7013 32.6459C13.5011 32.4457 13.1765 32.4456 12.9762 32.6459L11.1635 34.4586L1.73771 25.0328L6.60613 20.1644C7.05143 19.7191 7.60767 19.3981 8.21483 19.2361C8.39223 19.1888 8.53072 19.0502 8.57796 18.8729C8.73997 18.2658 9.06099 17.7095 9.50628 17.2642L11.837 14.9336C12.2822 14.4883 12.8385 14.1673 13.4456 14.0052C13.623 13.9579 13.7614 13.8194 13.8088 13.6421C13.9709 13.0349 14.2918 12.4786 14.7372 12.0333L17.0679 9.70264C17.5131 9.25734 18.0694 8.9364 18.6766 8.77432C18.8539 8.72701 18.9924 8.58845 19.0397 8.41112C19.2018 7.80396 19.5228 7.24765 19.9681 6.80235L21.5737 5.1968C21.7739 4.99657 21.7739 4.67193 21.5737 4.47171C21.3734 4.27148 21.0488 4.27148 20.8486 4.47171L19.243 6.07727C18.7394 6.58101 18.3592 7.19528 18.1332 7.8676C17.4608 8.09373 16.8466 8.47381 16.3428 8.97748L14.0122 11.3081C13.5085 11.8119 13.1284 12.4261 12.9023 13.0985C12.2301 13.3245 11.6157 13.7047 11.112 14.2083L8.78126 16.539C8.27752 17.0427 7.89744 17.657 7.67144 18.3293C6.99913 18.5554 6.38485 18.9355 5.88111 19.4392L0.650254 24.6701C0.554004 24.7664 0.5 24.8967 0.5 25.0328C0.5 25.1687 0.554004 25.2992 0.650117 25.3953L10.8009 35.5462C10.9011 35.6463 11.0323 35.6964 11.1635 35.6964C11.2947 35.6964 11.4259 35.6463 11.5261 35.5462L13.7013 33.371C13.9015 33.1708 13.9015 32.8461 13.7013 32.6459Z" fill="black"/>
<path id="Vector_4" d="M9.14355 22.1895C8.86041 22.1895 8.63086 22.419 8.63086 22.7022C8.63086 22.9853 8.86041 23.2149 9.14355 23.2149C9.4267 23.2149 9.65625 22.9853 9.65625 22.7022C9.65625 22.419 9.4267 22.1895 9.14355 22.1895Z" fill="black"/>
<path id="Vector_5" d="M11.1631 28.8704C10.8799 28.8704 10.6504 29.0999 10.6504 29.3831C10.6504 29.6662 10.8799 29.8958 11.1631 29.8958C11.4462 29.8958 11.6758 29.6662 11.6758 29.3831C11.6758 29.0999 11.4463 28.8704 11.1631 28.8704Z" fill="black"/>
<path id="Vector_6" d="M17.2754 15.0837C17.5585 15.0837 17.7881 14.8542 17.7881 14.5711C17.7881 14.2879 17.5585 14.0584 17.2754 14.0584C16.9922 14.0584 16.7627 14.2879 16.7627 14.5711C16.7627 14.8542 16.9922 15.0837 17.2754 15.0837Z" fill="black"/>
<path id="Vector_7" d="M19.6055 12.753C19.8886 12.753 20.1182 12.5235 20.1182 12.2403C20.1182 11.9572 19.8886 11.7276 19.6055 11.7276C19.3223 11.7276 19.0928 11.9572 19.0928 12.2403C19.0928 12.5235 19.3223 12.753 19.6055 12.753Z" fill="black"/>
<path id="Vector_8" d="M29.1865 11.8726C29.4697 11.8726 29.6992 11.643 29.6992 11.3599C29.6992 11.0767 29.4697 10.8472 29.1865 10.8472C28.9034 10.8472 28.6738 11.0767 28.6738 11.3599C28.6738 11.643 28.9034 11.8726 29.1865 11.8726Z" fill="black"/>
<path id="Vector_9" d="M19.5279 16.6685C20.1276 17.2682 21.1034 17.2682 21.7031 16.6685C22.3028 16.0687 22.3028 15.093 21.7031 14.4933C21.1034 13.8936 20.1276 13.8936 19.5279 14.4933C18.9282 15.093 18.9282 16.0687 19.5279 16.6685ZM20.978 15.2184C21.1779 15.4182 21.1779 15.7435 20.978 15.9434C20.7781 16.1434 20.4529 16.1433 20.2529 15.9434C20.053 15.7436 20.053 15.4183 20.2529 15.2184C20.4529 15.0184 20.7781 15.0184 20.978 15.2184Z" fill="black"/>
<path id="Vector_10" d="M24.7584 11.4375C25.3581 12.0372 26.3339 12.0372 26.9336 11.4375C27.5333 10.8378 27.5333 9.86201 26.9336 9.2623C26.3339 8.66258 25.3581 8.66258 24.7584 9.2623C24.1587 9.86201 24.1587 10.8378 24.7584 11.4375ZM26.2085 9.98738C26.4084 10.1873 26.4084 10.5125 26.2085 10.7125C26.0086 10.9124 25.6834 10.9124 25.4834 10.7125C25.2835 10.5126 25.2835 10.1873 25.4834 9.98738C25.6833 9.78743 26.0086 9.7875 26.2085 9.98738Z" fill="black"/>
<path id="Vector_11" d="M16.4726 19.7242C15.8729 19.1245 14.8972 19.1245 14.2974 19.7242C13.6977 20.3239 13.6977 21.2997 14.2974 21.8994C14.8972 22.4991 15.8729 22.4991 16.4726 21.8994C17.0724 21.2997 17.0723 20.3239 16.4726 19.7242ZM15.0225 21.1743C14.8226 20.9744 14.8226 20.6492 15.0225 20.4492C15.2224 20.2493 15.5477 20.2493 15.7476 20.4492C15.9476 20.6491 15.9475 20.9744 15.7476 21.1743C15.5477 21.3743 15.2224 21.3743 15.0225 21.1743Z" fill="black"/>
<path id="Vector_12" d="M11.2412 24.9551C10.6415 24.3553 9.66572 24.3553 9.066 24.9551C8.46628 25.5548 8.46628 26.5305 9.066 27.1302C9.66572 27.73 10.6415 27.73 11.2412 27.1302C11.8409 26.5305 11.8409 25.5547 11.2412 24.9551ZM9.79109 26.4052C9.5912 26.2053 9.5912 25.88 9.79109 25.6801C9.99097 25.4801 10.3162 25.4802 10.5162 25.6801C10.7161 25.88 10.7161 26.2052 10.5162 26.4052C10.3162 26.605 9.99104 26.605 9.79109 26.4052Z" fill="black"/>
</g>
</g>
<defs>
<clipPath id="clip0_28547_684">
<rect width="35" height="35" fill="white" transform="translate(0.5 0.696289)"/>
</clipPath>
</defs>
</svg>
