<svg xmlns="http://www.w3.org/2000/svg" width="112" height="112" viewBox="0 0 112 112"
                                    fill="none">
                                    <path
                                        d="M69.766 100.519C79.7591 100.519 87.8601 92.4178 87.8601 82.4247C87.8601 72.4316 79.7591 64.3306 69.766 64.3306C59.7729 64.3306 51.6719 72.4316 51.6719 82.4247C51.6719 92.4178 59.7729 100.519 69.766 100.519Z"
                                        fill="white" stroke="black" stroke-width="1.2" stroke-miterlimit="2.61313"
                                        stroke-linecap="round" stroke-linejoin="round" />
                                    <path d="M70.3125 69.1982V82.5722H83.3397" stroke="black" stroke-width="1.2"
                                        stroke-miterlimit="2.61313" stroke-linecap="round" stroke-linejoin="round" />
                                    <path
                                        d="M54.5476 91.4529C45.4938 92.4529 30.6932 91.7196 30.0398 89.2661V47.291C30.0398 47.291 29.9065 45.0642 33.1733 44.1842L35.8667 43.9575H45.7338H55.6009L58.2944 44.1842C61.5745 45.0642 61.4278 47.291 61.4278 47.291V66.8118"
                                        stroke="black" stroke-width="1.2" stroke-miterlimit="2.61313" />
                                    <path
                                        d="M51.5727 61.7714V60.638H52.5594L52.5728 60.6246C52.4394 60.558 52.3061 60.478 52.1728 60.3846C52.0394 60.2913 51.9194 60.1846 51.8127 60.0646C51.7061 59.9446 51.6127 59.7979 51.5461 59.6379C51.4794 59.4779 51.4394 59.3046 51.4394 59.1046C51.4394 58.7046 51.5861 58.3979 51.8661 58.1845C52.1461 57.9712 52.5194 57.8779 52.9861 57.8779H56.0796V59.0646H53.0528C52.7861 59.0646 52.5728 59.1312 52.4261 59.2513C52.2794 59.3713 52.1994 59.5579 52.1994 59.7846C52.1994 59.9846 52.2528 60.1446 52.3594 60.278C52.4661 60.4113 52.5861 60.518 52.7461 60.598H56.0796V61.7847H51.5861L51.5727 61.7714ZM56.1329 69.8384V69.6517H56.1996V70.1184H56.1329V69.9317H55.6396V69.8517H56.1329V69.8384ZM55.6396 70.7184H56.0529L55.7196 70.5184V70.4784L56.0529 70.2784H55.6529V70.1984H56.2129V70.2651L55.8129 70.5051L56.2129 70.7317V70.7984H55.6529V70.7184H55.6396ZM56.1063 64.8782C56.0263 64.7315 55.9329 64.5848 55.8263 64.4648C55.7196 64.3315 55.5996 64.2115 55.4662 64.1048C55.3462 63.9981 55.2396 63.9048 55.1462 63.8248H56.0663V62.6381H53.4928H51.5727V63.8381H54.9462C55.0529 63.9315 55.1329 64.0115 55.1996 64.1048C55.2529 64.1981 55.2929 64.2781 55.2929 64.3581C55.2929 64.4115 55.2796 64.4781 55.2662 64.5581C55.2396 64.6382 55.2129 64.7182 55.1862 64.8115C55.1462 64.8915 55.1062 64.9715 55.0662 65.0515C55.0129 65.1315 54.9595 65.1982 54.9062 65.2382V65.3315H56.2396C56.2396 65.1582 56.2129 65.0382 56.1329 64.8915L56.1063 64.8782ZM50.6794 57.2645C50.6794 56.7845 50.6394 56.3311 50.5594 55.9311C50.4794 55.5178 50.3593 55.1711 50.186 54.8777C50.0127 54.5844 49.7993 54.3444 49.5326 54.171C49.266 53.9977 48.9593 53.9177 48.5859 53.9177V53.7177C48.6393 53.7177 48.6659 53.7177 48.6659 53.7177C49.106 53.731 49.5326 53.8244 49.9327 53.9844C50.3593 54.171 50.746 54.4244 51.066 54.7444C51.3994 55.0644 51.6527 55.4378 51.8527 55.8644C52.0528 56.2911 52.1461 56.7578 52.1461 57.2645H50.666H50.6794ZM51.6261 53.691C51.6261 54.0644 51.7061 54.371 51.8794 54.6377C52.0528 54.9044 52.2794 55.1177 52.5861 55.2911C52.8795 55.4644 53.2395 55.5844 53.6528 55.6644C54.0662 55.7444 54.5062 55.7844 54.9995 55.7844C55.4796 55.7844 55.9329 55.7444 56.3463 55.6644C56.7596 55.5844 57.1063 55.4644 57.413 55.2911C57.7063 55.1177 57.9463 54.9044 58.1197 54.6377C58.293 54.371 58.373 54.0644 58.373 53.691C58.373 53.3177 58.293 53.011 58.1197 52.7443C57.9463 52.4776 57.7063 52.2643 57.413 52.0909C57.1063 51.9176 56.7596 51.7976 56.3463 51.7176C55.9329 51.6376 55.4929 51.5976 55.0129 51.5976C54.5329 51.5976 54.0928 51.6376 53.6795 51.7176C53.2661 51.7976 52.9195 51.9176 52.6128 52.0909C52.3194 52.2643 52.0794 52.4776 51.9061 52.7443C51.7327 53.011 51.6527 53.3177 51.6527 53.691H51.6261ZM51.4394 53.4243C51.4661 53.051 51.5594 52.6776 51.7061 52.3443C51.8927 51.9176 52.1461 51.5309 52.4661 51.2109C52.7861 50.8909 53.1595 50.6242 53.5862 50.4242C54.0128 50.2242 54.4795 50.1309 54.9862 50.1309C55.4796 50.1309 55.9463 50.2242 56.3863 50.4242C56.813 50.6242 57.1996 50.8776 57.5197 51.2109C57.8397 51.5309 58.093 51.9176 58.2797 52.3443C58.4664 52.771 58.5597 53.2243 58.5597 53.691C58.5597 54.1577 58.4664 54.6111 58.2797 55.0377C58.093 55.4644 57.8397 55.8511 57.5197 56.1711C57.1996 56.5045 56.813 56.7578 56.3863 56.9578C55.9596 57.1578 55.4929 57.2512 54.9862 57.2512C54.4929 57.2512 54.0262 57.1578 53.5862 56.9578C53.1595 56.7578 52.7728 56.5045 52.4661 56.1711C52.1461 55.8378 51.8927 55.4644 51.7061 55.0377C51.5327 54.6377 51.4527 54.211 51.4394 53.771C51.4394 53.771 51.4394 53.5443 51.4527 53.411L51.4394 53.4243ZM54.4795 66.6116C54.6929 66.6249 54.8929 66.6516 55.0795 66.7049C55.2662 66.7449 55.4262 66.8116 55.5729 66.8916C55.7196 66.9716 55.8262 67.0649 55.9063 67.1849C55.9863 67.3049 56.0263 67.4383 56.0263 67.5849C56.0263 67.825 55.9196 68.0116 55.7196 68.145C55.5196 68.2783 55.0395 68.3316 54.5862 68.3316H54.2928L53.5195 66.7049C53.7462 66.6382 53.9862 66.6116 54.2928 66.6116H54.4795ZM52.8795 69.4517C52.7328 69.3317 52.5994 69.1583 52.4928 68.9583C52.3861 68.745 52.3328 68.4916 52.3328 68.1983C52.3328 67.9716 52.3728 67.7583 52.4394 67.5583C52.5061 67.3583 52.6261 67.1983 52.7861 67.0516C52.9328 66.9182 53.1195 66.8249 53.3461 66.7449L54.5862 69.465C54.5862 69.465 55.0395 69.4517 55.5996 69.0383C55.7996 68.8917 55.9196 68.665 56.0396 68.4383C56.1596 68.1983 56.2129 67.9316 56.2129 67.6383C56.2129 67.3583 56.1596 67.0783 56.0396 66.8116C55.9196 66.5449 55.7596 66.3049 55.5329 66.1049C55.3196 65.9049 55.0529 65.7315 54.7595 65.6115C54.4529 65.4915 54.1195 65.4248 53.7462 65.4248C53.4261 65.4248 53.1195 65.4782 52.8395 65.5849C52.5594 65.6915 52.3194 65.8382 52.1061 66.0249C51.8927 66.2115 51.7327 66.4382 51.6127 66.7049C51.4927 66.9716 51.4394 67.2649 51.4394 67.5983C51.4394 68.105 51.5727 68.5317 51.8394 68.8517C52.1061 69.1717 52.4528 69.3984 52.8661 69.5317L52.8928 69.4784L52.8795 69.4517Z"
                                        fill="black" />
                                    <path fill-rule="evenodd" clip-rule="evenodd"
                                        d="M44.5598 57.2114H44.5731C44.6398 57.2647 44.7065 57.3047 44.7598 57.3447C44.8131 57.3714 44.8665 57.3981 44.9198 57.4247C44.9731 57.4381 45.0398 57.4514 45.0932 57.4647C45.1598 57.4781 45.2265 57.4781 45.3198 57.4781H47.3466C47.4133 57.4781 47.4666 57.4647 47.5066 57.4514C47.5599 57.4381 47.5999 57.4247 47.6399 57.3981C47.6799 57.3714 47.7199 57.3447 47.7599 57.3047C47.7999 57.2647 47.8399 57.2247 47.8799 57.1714H47.8933V57.8248L45.1465 59.0648L47.8933 60.2782V60.8915H47.8799C47.8399 60.8249 47.7866 60.7849 47.7466 60.7449C47.7066 60.7049 47.6533 60.6782 47.6133 60.6515C47.5599 60.6249 47.5066 60.6115 47.4533 60.5982C47.3866 60.5849 47.3199 60.5849 47.2399 60.5849H45.2665C45.1865 60.5849 45.1198 60.5849 45.0665 60.5982C45.0131 60.5982 44.9598 60.6115 44.9065 60.6249C44.8531 60.6382 44.8131 60.6515 44.7598 60.6782C44.7065 60.7049 44.6531 60.7315 44.5998 60.7715H44.5865V60.0382H44.5998C44.6531 60.0782 44.7065 60.1048 44.7598 60.1315C44.8131 60.1582 44.8531 60.1715 44.9065 60.1849C44.9598 60.1982 45.0131 60.2115 45.0665 60.2115C45.1198 60.2115 45.1998 60.2249 45.2665 60.2249H47.5333L44.6665 58.9581V58.8781L47.5466 57.5714L45.3198 57.5847C45.2398 57.5847 45.1598 57.5847 45.0932 57.5981C45.0265 57.6114 44.9731 57.6247 44.9198 57.6514C44.8665 57.6781 44.8131 57.7047 44.7598 57.7447C44.7065 57.7847 44.6398 57.8381 44.5731 57.9048H44.5598V57.2114ZM47.5466 61.6649C47.4799 61.6649 47.4266 61.6382 47.3866 61.5982C47.3466 61.5582 47.3199 61.5049 47.3199 61.4382C47.3199 61.3716 47.3466 61.3316 47.3866 61.2782C47.4266 61.2382 47.4799 61.2116 47.5466 61.2116C47.6133 61.2116 47.6533 61.2382 47.7066 61.2782C47.7466 61.3182 47.7733 61.3716 47.7733 61.4382C47.7733 61.5049 47.7466 61.5449 47.7066 61.5982C47.6666 61.6382 47.6133 61.6649 47.5466 61.6649ZM44.5731 61.1982C44.6665 61.2382 44.7731 61.2649 44.8798 61.2782C44.9865 61.2916 45.1065 61.3049 45.2665 61.3049H46.1065C46.2132 61.3049 46.3065 61.2782 46.3865 61.2382C46.4532 61.1982 46.5199 61.1449 46.5599 61.1049H46.5732L46.8132 61.6382H45.2665C45.1065 61.6382 44.9731 61.6382 44.8798 61.6516C44.7731 61.6649 44.6798 61.6916 44.5731 61.7316H44.5598V61.1982H44.5731ZM45.0665 63.9183C44.8931 63.8517 44.7598 63.7583 44.6531 63.6117C44.5465 63.465 44.4931 63.2917 44.4931 63.065C44.4931 62.9183 44.5198 62.785 44.5731 62.665C44.6265 62.545 44.6931 62.4383 44.7865 62.3449C44.8798 62.2516 44.9998 62.1849 45.1332 62.1449C45.2665 62.0916 45.4265 62.0783 45.5865 62.0783C45.7732 62.0783 45.9332 62.1049 46.0799 62.1716C46.2265 62.2383 46.3465 62.3183 46.4532 62.4249C46.5599 62.5316 46.6399 62.6516 46.6932 62.785C46.7466 62.9183 46.7732 63.065 46.7732 63.2116C46.7732 63.3583 46.7599 63.4917 46.7199 63.585C46.6932 63.6783 46.6532 63.7583 46.6399 63.8117L46.1732 63.8517L46.1599 63.8117C46.2265 63.7717 46.2932 63.7183 46.3599 63.6783C46.4265 63.625 46.4799 63.5717 46.5199 63.5183C46.5599 63.465 46.5999 63.3983 46.6266 63.3317C46.6532 63.265 46.6666 63.1983 46.6666 63.1316C46.6666 62.905 46.5865 62.7316 46.4132 62.5983C46.2399 62.4649 46.0132 62.3983 45.7065 62.3983C45.4132 62.3983 45.1865 62.4649 45.0131 62.5983C44.8398 62.7316 44.7598 62.9316 44.7598 63.185C44.7598 63.3183 44.7865 63.4383 44.8265 63.5583C44.8665 63.6783 44.9465 63.785 45.0531 63.865L45.0398 63.8917L45.0665 63.9183ZM44.5731 64.3317C44.6265 64.3584 44.6665 64.3717 44.7198 64.385C44.7731 64.3984 44.8131 64.4117 44.8798 64.4117C44.9331 64.4117 44.9865 64.425 45.0531 64.425C45.1198 64.425 45.1865 64.425 45.2665 64.425H46.1199C46.2399 64.425 46.3332 64.3984 46.3999 64.3584C46.4665 64.3184 46.5332 64.265 46.5732 64.225H46.5866L46.8266 64.7317H46.2799V64.7584C46.3332 64.8117 46.3865 64.8517 46.4532 64.9051C46.5199 64.9584 46.5732 65.0117 46.6266 65.0784C46.6799 65.1317 46.7199 65.1984 46.7599 65.2651C46.7999 65.3317 46.8132 65.3984 46.8132 65.4784H46.3599V65.4651C46.3732 65.4517 46.3865 65.4251 46.3999 65.3984C46.4132 65.3717 46.4265 65.3317 46.4265 65.3051C46.4399 65.2651 46.4399 65.2384 46.4532 65.1984C46.4532 65.1717 46.4665 65.1317 46.4665 65.1051C46.4665 65.0651 46.4399 65.0117 46.3865 64.9451C46.3332 64.8784 46.2665 64.8117 46.1865 64.7584H45.2932C45.1332 64.7584 44.9998 64.7584 44.9065 64.7717C44.7998 64.785 44.7065 64.8117 44.5998 64.8517H44.5865V64.3184H44.5998L44.5731 64.3317ZM44.4931 66.8251C44.4931 66.6651 44.5198 66.5185 44.5865 66.3851C44.6531 66.2518 44.7331 66.1318 44.8398 66.0251C44.9465 65.9184 45.0665 65.8384 45.1998 65.7851C45.3332 65.7184 45.4798 65.6918 45.6398 65.6918C45.7998 65.6918 45.9465 65.7184 46.0799 65.7851C46.2132 65.8518 46.3465 65.9318 46.4399 66.0384C46.5465 66.1451 46.6266 66.2651 46.6932 66.3985C46.7599 66.5318 46.7866 66.6785 46.7866 66.8385C46.7866 66.9985 46.7599 67.1452 46.6932 67.2785C46.6266 67.4118 46.5465 67.5318 46.4399 67.6385C46.3332 67.7452 46.2132 67.8252 46.0799 67.8785C45.9465 67.9452 45.7865 67.9719 45.6398 67.9719C45.4798 67.9719 45.3332 67.9452 45.1998 67.8785C45.0665 67.8118 44.9465 67.7318 44.8398 67.6385C44.7331 67.5318 44.6531 67.4118 44.5865 67.2785C44.5198 67.1452 44.4931 66.9985 44.4931 66.8385V66.8251ZM44.5731 66.8251C44.5731 66.9585 44.5998 67.0651 44.6531 67.1585C44.7065 67.2518 44.7865 67.3318 44.8798 67.3985C44.9731 67.4652 45.0932 67.5052 45.2132 67.5452C45.3465 67.5718 45.4798 67.5852 45.6132 67.5852C45.7598 67.5852 45.8932 67.5718 46.0132 67.5318C46.1465 67.5052 46.2532 67.4518 46.3465 67.3852C46.4399 67.3185 46.5199 67.2385 46.5866 67.1451C46.6399 67.0518 46.6666 66.9451 46.6666 66.8118C46.6666 66.6785 46.6399 66.5718 46.5866 66.4785C46.5332 66.3851 46.4532 66.3051 46.3465 66.2384C46.2532 66.1718 46.1332 66.1318 46.0132 66.0918C45.8799 66.0651 45.7465 66.0384 45.6132 66.0384C45.4665 66.0384 45.3332 66.0518 45.2132 66.0784C45.0798 66.1051 44.9731 66.1584 44.8798 66.2251C44.7865 66.2918 44.7065 66.3718 44.6531 66.4651C44.5998 66.5585 44.5731 66.6651 44.5731 66.7985V66.8251ZM44.5598 69.0519C44.6131 69.0919 44.6665 69.1186 44.7198 69.1452C44.7731 69.1719 44.8131 69.1852 44.8665 69.1986C44.9198 69.2119 44.9731 69.2252 45.0265 69.2252C45.0798 69.2252 45.1465 69.2386 45.2265 69.2386H47.1866C47.2666 69.2386 47.3332 69.2386 47.3866 69.2252C47.4399 69.2252 47.4933 69.2119 47.5466 69.1986C47.5999 69.1852 47.6399 69.1719 47.6933 69.1452C47.7466 69.1186 47.7999 69.0919 47.8533 69.0519H47.8666V69.7853H47.8533C47.7999 69.7453 47.7466 69.7186 47.6933 69.6919C47.6399 69.6653 47.5999 69.6519 47.5466 69.6386C47.4933 69.6253 47.4399 69.6119 47.3866 69.6119C47.3332 69.6119 47.2666 69.5986 47.1866 69.5986H45.2265C45.1465 69.5986 45.0798 69.5986 45.0265 69.6119C44.9731 69.6119 44.9198 69.6253 44.8665 69.6386C44.8131 69.6519 44.7731 69.6653 44.7198 69.6919C44.6665 69.7186 44.6131 69.7453 44.5598 69.7853H44.5465V69.0519H44.5598ZM44.5465 70.732V70.1986H44.5598C44.6131 70.2253 44.6531 70.2386 44.7065 70.252C44.7598 70.2653 44.7998 70.2786 44.8665 70.2786C44.9198 70.2786 44.9731 70.292 45.0398 70.292C45.1065 70.292 45.1732 70.292 45.2532 70.292H46.1065C46.2265 70.292 46.3199 70.2653 46.3865 70.2253C46.4532 70.1853 46.5199 70.1319 46.5599 70.0919H46.5732L46.8132 70.5986H46.3865V70.612C46.5199 70.7186 46.6132 70.8386 46.6799 70.972C46.7466 71.1053 46.7866 71.2387 46.7866 71.3987C46.7866 71.612 46.7332 71.772 46.6132 71.8787C46.4932 71.9854 46.3332 72.0387 46.1332 72.0387H45.2665C45.1865 72.0387 45.1065 72.0387 45.0531 72.0387C44.9865 72.0387 44.9331 72.0387 44.8798 72.052C44.8265 72.052 44.7731 72.0654 44.7198 72.0787C44.6665 72.092 44.6265 72.1054 44.5731 72.132H44.5598V71.5987H44.5731C44.6665 71.6387 44.7731 71.6653 44.8798 71.6787C44.9865 71.692 45.1065 71.692 45.2665 71.692H46.0532C46.1199 71.692 46.1865 71.6787 46.2532 71.6653C46.3199 71.652 46.3732 71.6253 46.4132 71.5853C46.4665 71.5453 46.4932 71.5053 46.5199 71.4387C46.5465 71.372 46.5599 71.3053 46.5599 71.2253C46.5599 71.1187 46.5332 71.012 46.4932 70.9053C46.4532 70.7986 46.3865 70.692 46.2932 70.612H45.2532C45.0932 70.612 44.9598 70.612 44.8665 70.6253C44.7598 70.6386 44.6665 70.6653 44.5598 70.7053H44.5465V70.732ZM44.5598 72.6387C44.6265 72.6787 44.6931 72.7054 44.7865 72.7187C44.8798 72.7321 45.0131 72.7454 45.1865 72.7454H46.6266V72.4654H46.7066V72.7454H47.0932C47.2532 72.7454 47.3866 72.7587 47.5066 72.7987C47.6266 72.8387 47.7333 72.8921 47.8133 72.9587C47.8933 73.0254 47.9599 73.1054 48.0133 73.1987C48.0533 73.2921 48.0799 73.3988 48.0799 73.5054C48.0799 73.5721 48.0666 73.6388 48.0533 73.6921C48.0399 73.7454 48.0266 73.7854 48.0133 73.8121L47.5999 73.8654L47.5866 73.8388C47.6399 73.8121 47.6799 73.7721 47.7333 73.7321C47.7866 73.6921 47.8266 73.6654 47.8666 73.6254C47.9066 73.5854 47.9333 73.5454 47.9599 73.5188C47.9866 73.4788 47.9999 73.4388 47.9999 73.3988C47.9999 73.3054 47.9466 73.2254 47.8266 73.1587C47.7066 73.0921 47.5333 73.0654 47.2932 73.0654H46.7066V73.5988H46.6266V73.0654H45.1865C45.0131 73.0654 44.8798 73.0787 44.7865 73.0921C44.6931 73.1054 44.6265 73.1321 44.5598 73.1721H44.5465V72.6254H44.5598V72.6387ZM44.9598 75.2922C44.8931 75.2522 44.8398 75.1988 44.7865 75.1588C44.7331 75.1055 44.6798 75.0522 44.6265 74.9988C44.5865 74.9455 44.5465 74.8788 44.5198 74.7988C44.4931 74.7188 44.4798 74.6388 44.4798 74.5455C44.4798 74.3455 44.5465 74.1988 44.6665 74.1055C44.7865 74.0121 44.9598 73.9588 45.1732 73.9588H46.3065C46.3999 73.9588 46.4799 73.9454 46.5332 73.9054C46.5999 73.8654 46.6399 73.8254 46.6799 73.7721H46.6932V74.2921H45.2398C44.9065 74.2921 44.7331 74.4388 44.7331 74.7321C44.7331 74.8655 44.7598 74.9722 44.8131 75.0655C44.8665 75.1588 44.9331 75.2255 45.0131 75.2788H46.2932C46.4665 75.2788 46.5866 75.2122 46.6799 75.0788H46.6932V75.6122H45.1598C45.0665 75.6122 44.9865 75.6122 44.9331 75.6255C44.8798 75.6388 44.8265 75.6388 44.7865 75.6655C44.7465 75.6789 44.7198 75.7055 44.6931 75.7322C44.6665 75.7589 44.6531 75.7855 44.6265 75.8255H44.6131L44.4665 75.3188H44.9331L44.9598 75.2922ZM46.2399 77.4123L46.2265 77.3856C46.3999 77.2923 46.5199 77.1856 46.5866 77.0789C46.6532 76.9722 46.6799 76.8656 46.6799 76.7589C46.6799 76.6256 46.6399 76.5189 46.5732 76.4389C46.5065 76.3589 46.4132 76.3189 46.3065 76.3189C46.2399 76.3189 46.1732 76.3322 46.1332 76.3722C46.0799 76.3989 46.0399 76.4522 46.0132 76.5056C45.9732 76.5589 45.9465 76.6256 45.9065 76.6922C45.8799 76.7589 45.8532 76.8389 45.8132 76.9189C45.7865 76.9989 45.7465 77.0789 45.7065 77.1589C45.6665 77.2389 45.6265 77.3056 45.5732 77.3589C45.5198 77.4256 45.4532 77.4656 45.3732 77.5056C45.2932 77.5456 45.1998 77.5589 45.0932 77.5589C44.8798 77.5589 44.7331 77.4789 44.6131 77.3323C44.5065 77.1856 44.4531 76.9856 44.4531 76.7322C44.4531 76.5989 44.4665 76.4789 44.4931 76.3722C44.5198 76.2655 44.5465 76.1722 44.5865 76.0922L45.1065 76.0522L45.1198 76.0789C44.9198 76.1722 44.7731 76.2789 44.6931 76.3855C44.5998 76.4922 44.5598 76.6256 44.5598 76.7856C44.5598 76.9456 44.5998 77.0789 44.6931 77.1589C44.7865 77.2389 44.8798 77.2789 44.9865 77.2789C45.0532 77.2789 45.1065 77.2656 45.1598 77.2389C45.2132 77.2122 45.2532 77.1723 45.2932 77.1322C45.3332 77.0789 45.3732 77.0256 45.3998 76.9589C45.4265 76.8922 45.4532 76.8256 45.4932 76.7456C45.5198 76.6656 45.5598 76.5989 45.5865 76.5189C45.6265 76.4389 45.6665 76.3722 45.7198 76.3055C45.7732 76.2389 45.8399 76.1855 45.9065 76.1455C45.9865 76.1055 46.0665 76.0789 46.1732 76.0789C46.2799 76.0789 46.3732 76.1055 46.4532 76.1455C46.5332 76.1855 46.5865 76.2522 46.6399 76.3189C46.6932 76.3855 46.7199 76.4789 46.7332 76.5589C46.7466 76.6522 46.7599 76.7456 46.7599 76.8389C46.7599 76.9322 46.7466 77.0389 46.7332 77.1322C46.7199 77.2256 46.6932 77.3056 46.6666 77.3723L46.2265 77.4123H46.2399ZM47.5333 78.3323C47.4666 78.3323 47.4133 78.3056 47.3733 78.2656C47.3332 78.2256 47.3066 78.1723 47.3066 78.1056C47.3066 78.039 47.3332 77.999 47.3733 77.9456C47.4133 77.9056 47.4666 77.8789 47.5333 77.8789C47.5999 77.8789 47.6399 77.9056 47.6933 77.9456C47.7333 77.9856 47.7599 78.039 47.7599 78.1056C47.7599 78.1723 47.7333 78.2123 47.6933 78.2656C47.6533 78.3056 47.5999 78.3323 47.5333 78.3323ZM44.5598 77.8656C44.6531 77.9056 44.7598 77.9323 44.8665 77.9456C44.9731 77.959 45.0932 77.9723 45.2532 77.9723H46.0932C46.1999 77.9723 46.2932 77.9456 46.3732 77.9056C46.4399 77.8656 46.5065 77.8123 46.5465 77.7723H46.5599L46.7999 78.3056H45.2532C45.0932 78.3056 44.9598 78.3056 44.8665 78.319C44.7598 78.3323 44.6665 78.359 44.5598 78.399H44.5465V77.8656H44.5598ZM44.4798 79.8657C44.4798 79.7057 44.5065 79.559 44.5731 79.4257C44.6398 79.2923 44.7198 79.1723 44.8265 79.0657C44.9331 78.959 45.0531 78.879 45.1865 78.8257C45.3198 78.759 45.4665 78.7323 45.6265 78.7323C45.7865 78.7323 45.9332 78.759 46.0665 78.8257C46.1999 78.8923 46.3332 78.9723 46.4265 79.079C46.5332 79.1857 46.6132 79.3057 46.6799 79.439C46.7466 79.5724 46.7732 79.719 46.7732 79.879C46.7732 80.039 46.7466 80.1857 46.6799 80.3191C46.6132 80.4524 46.5332 80.5724 46.4265 80.6791C46.3199 80.7857 46.1999 80.8657 46.0665 80.9191C45.9332 80.9857 45.7732 81.0124 45.6265 81.0124C45.4665 81.0124 45.3198 80.9857 45.1865 80.9191C45.0531 80.8524 44.9331 80.7724 44.8265 80.6791C44.7198 80.5724 44.6398 80.4524 44.5731 80.3191C44.5065 80.1857 44.4798 80.039 44.4798 79.879V79.8657ZM44.5598 79.8657C44.5598 79.999 44.5865 80.1057 44.6398 80.199C44.6931 80.2924 44.7731 80.3724 44.8665 80.4391C44.9598 80.5057 45.0798 80.5457 45.1998 80.5857C45.3332 80.6124 45.4665 80.6257 45.5998 80.6257C45.7465 80.6257 45.8799 80.6124 45.9999 80.5724C46.1332 80.5457 46.2399 80.4924 46.3332 80.4257C46.4265 80.3591 46.5065 80.2791 46.5732 80.1857C46.6266 80.0924 46.6532 79.9857 46.6532 79.8524C46.6532 79.719 46.6266 79.6124 46.5732 79.519C46.5199 79.4257 46.4399 79.3457 46.3332 79.279C46.2399 79.2123 46.1199 79.1723 45.9999 79.1323C45.8665 79.1057 45.7332 79.079 45.5998 79.079C45.4532 79.079 45.3198 79.0923 45.1998 79.119C45.0665 79.1457 44.9598 79.199 44.8665 79.2657C44.7731 79.3323 44.6931 79.4123 44.6398 79.5057C44.5865 79.599 44.5598 79.7057 44.5598 79.839V79.8657ZM44.5465 81.9058V81.3724H44.5598C44.6131 81.3991 44.6531 81.4124 44.7065 81.4258C44.7598 81.4391 44.7998 81.4524 44.8665 81.4524C44.9198 81.4524 44.9731 81.4658 45.0398 81.4658C45.1065 81.4658 45.1732 81.4658 45.2532 81.4658H46.1065C46.2265 81.4658 46.3199 81.4391 46.3865 81.3991C46.4532 81.3591 46.5199 81.3058 46.5599 81.2658H46.5732L46.8132 81.7724H46.3865V81.7858C46.5199 81.8925 46.6132 82.0125 46.6799 82.1458C46.7466 82.2791 46.7866 82.4125 46.7866 82.5725C46.7866 82.7858 46.7332 82.9458 46.6132 83.0525C46.4932 83.1592 46.3332 83.2125 46.1332 83.2125H45.2665C45.1865 83.2125 45.1065 83.2125 45.0531 83.2125C44.9865 83.2125 44.9331 83.2125 44.8798 83.2258C44.8265 83.2258 44.7731 83.2392 44.7198 83.2525C44.6665 83.2658 44.6265 83.2792 44.5731 83.3059H44.5598V82.7725H44.5731C44.6665 82.8125 44.7731 82.8392 44.8798 82.8525C44.9865 82.8658 45.1065 82.8658 45.2665 82.8658H46.0532C46.1199 82.8658 46.1865 82.8525 46.2532 82.8392C46.3199 82.8258 46.3732 82.7992 46.4132 82.7592C46.4665 82.7192 46.4932 82.6792 46.5199 82.6125C46.5465 82.5458 46.5599 82.4791 46.5599 82.3991C46.5599 82.2925 46.5332 82.1858 46.4932 82.0791C46.4532 81.9725 46.3865 81.8658 46.2932 81.7858H45.2532C45.0932 81.7858 44.9598 81.7858 44.8665 81.7991C44.7598 81.8125 44.6665 81.8391 44.5598 81.8791H44.5465V81.9058Z"
                                        fill="black" />
                                    <path fill-rule="evenodd" clip-rule="evenodd"
                                        d="M30.1094 34.0503V43.9307H45.7367H61.3641V34.0503C59.6573 33.4902 45.7367 33.4902 45.7367 33.4902C45.7367 33.4902 31.8161 33.4902 30.1094 34.0503Z"
                                        stroke="black" stroke-width="1.2" stroke-miterlimit="2.61313" />
                                    <path fill-rule="evenodd" clip-rule="evenodd"
                                        d="M32.5726 33.7702C32.5726 31.4768 32.4259 28.13 32.746 24.9165C33.1593 20.7163 34.346 16.7561 37.6262 15.6494H45.6798H53.7335C59.5471 17.6095 58.7871 28.49 58.7871 33.7702C54.2669 33.5035 45.7332 33.5035 45.7332 33.5035H45.6798C44.9865 33.5035 36.8661 33.5169 32.5726 33.7702Z"
                                        stroke="black" stroke-width="1.2" stroke-miterlimit="2.61313" />
                                    <path d="M32.5625 28.8098C39.9895 27.7965 51.3366 27.7965 58.7503 28.8098"
                                        stroke="black" stroke-width="1.2" stroke-miterlimit="2.61313" />
                                    <path d="M34 19H57" stroke="black" stroke-width="1.2" stroke-miterlimit="2.61313" />
                                    <path d="M36.5469 13.1963V28.1569" stroke="black" stroke-width="1.2"
                                        stroke-miterlimit="2.61313" stroke-linecap="round" stroke-linejoin="round" />
                                    <path d="M40.2031 13.1963V28.1569" stroke="black" stroke-width="1.2"
                                        stroke-miterlimit="2.61313" stroke-linecap="round" stroke-linejoin="round" />
                                    <path d="M43.8672 13.1963V28.1569" stroke="black" stroke-width="1.2"
                                        stroke-miterlimit="2.61313" stroke-linecap="round" stroke-linejoin="round" />
                                    <path d="M47.5312 13.1963V28.1569" stroke="black" stroke-width="1.2"
                                        stroke-miterlimit="2.61313" stroke-linecap="round" stroke-linejoin="round" />
                                    <path d="M51.2031 13.1963V28.1569" stroke="black" stroke-width="1.2"
                                        stroke-miterlimit="2.61313" stroke-linecap="round" stroke-linejoin="round" />
                                    <path d="M54.8516 13.1963V28.1569" stroke="black" stroke-width="1.2"
                                        stroke-miterlimit="2.61313" stroke-linecap="round" stroke-linejoin="round" />
                                </svg>