<svg xmlns="http://www.w3.org/2000/svg" width="120" height="115" viewBox="0 0 120 115"
                                    fill="none">
                                    <g clip-path="url(#clip0_7871_19674)">
                                        <path
                                            d="M43.4211 38.017C44.5123 38.017 45.3969 37.1324 45.3969 36.0412C45.3969 34.95 44.5123 34.0654 43.4211 34.0654C42.3299 34.0654 41.4453 34.95 41.4453 36.0412C41.4453 37.1324 42.3299 38.017 43.4211 38.017Z"
                                            fill="black" />
                                        <path
                                            d="M42.0668 35.8318C42.4877 35.8318 42.8289 35.4906 42.8289 35.0697C42.8289 34.6488 42.4877 34.3076 42.0668 34.3076C41.6459 34.3076 41.3047 34.6488 41.3047 35.0697C41.3047 35.4906 41.6459 35.8318 42.0668 35.8318Z"
                                            fill="white" />
                                        <path fill-rule="evenodd" clip-rule="evenodd"
                                            d="M51.311 38.514C53.5408 38.1894 48.0792 34.9152 47.8251 34.7318C46.6115 33.8709 45.0167 33.3346 43.3091 33.2499C39.4422 33.0524 37.8051 34.6471 35.0391 36.8205C35.0391 36.8205 36.0693 36.6793 37.1842 37.9071C38.2991 39.1349 42.5893 40.6027 46.3151 39.6994C50.0408 38.7962 51.3392 38.5281 51.3392 38.5281L51.311 38.514Z"
                                            stroke="black" stroke-width="1.2" stroke-miterlimit="2.61313"
                                            stroke-linecap="round" stroke-linejoin="round" />
                                        <mask id="mask0_7871_19674" style="mask-type:alpha" maskUnits="userSpaceOnUse"
                                            x="39" y="31" width="9" height="10">
                                            <path
                                                d="M43.4284 39.6263C45.4081 39.6263 47.013 38.0214 47.013 36.0416C47.013 34.0619 45.4081 32.457 43.4284 32.457C41.4486 32.457 39.8438 34.0619 39.8438 36.0416C39.8438 38.0214 41.4486 39.6263 43.4284 39.6263Z"
                                                stroke="black" stroke-width="1.2" stroke-miterlimit="2.61313"
                                                stroke-linecap="round" stroke-linejoin="round" />
                                        </mask>
                                        <g mask="url(#mask0_7871_19674)">
                                            <path fill-rule="evenodd" clip-rule="evenodd"
                                                d="M51.311 38.5135C53.5408 38.1889 48.0792 34.9147 47.8251 34.7313C46.6115 33.8704 45.0167 33.3341 43.3091 33.2495C39.4422 33.0519 37.8051 34.6466 35.0391 36.82C35.0391 36.82 36.0693 36.6788 37.1842 37.9066C38.2991 39.1344 42.5893 40.6022 46.3151 39.6989C50.0408 38.7957 51.3392 38.5276 51.3392 38.5276L51.311 38.5135Z"
                                                fill="black" stroke="black" stroke-width="1.2"
                                                stroke-miterlimit="2.61313" stroke-linecap="round"
                                                stroke-linejoin="round" />
                                        </g>
                                        <path d="M50.7895 37.1006C50.7895 37.1006 50.098 37.8203 50.3802 38.653"
                                            stroke="black" stroke-width="1.2" stroke-miterlimit="2.61313"
                                            stroke-linecap="round" stroke-linejoin="round" />
                                        <path
                                            d="M51.6288 36.0857C51.6288 36.0857 49.1026 31.6826 43.1753 31.6261C37.2479 31.5697 34.3125 35.1825 34.3125 35.1825"
                                            stroke="black" stroke-width="1.2" stroke-miterlimit="2.61313"
                                            stroke-linecap="round" stroke-linejoin="round" />
                                        <path fill-rule="evenodd" clip-rule="evenodd"
                                            d="M52.3683 29.8043C52.3683 29.8043 53.4268 28.4354 50.3784 26.8407C50.3784 26.8407 39.2859 23.5524 36.7033 23.877C34.1206 24.2016 30.0703 27.4334 30.0703 27.4334C30.0703 27.4334 34.5864 25.6976 39.7516 27.0665C44.9168 28.4354 51.8462 30.3547 52.3683 29.8043V29.8043Z"
                                            stroke="black" stroke-width="1.2" stroke-miterlimit="2.61313"
                                            stroke-linecap="round" stroke-linejoin="round" />
                                        <path
                                            d="M61.2235 61.7018C61.2235 61.7018 59.7698 61.7441 59.1912 61.0808C58.5985 60.4175 57.1167 59.8248 55.9453 59.9095"
                                            stroke="black" stroke-width="1.2" stroke-miterlimit="2.61313"
                                            stroke-linecap="round" stroke-linejoin="round" />
                                        <path d="M54.2528 56.6187C54.2528 56.6187 52.2912 60.7254 56.3697 61.4028"
                                            stroke="black" stroke-width="1.2" stroke-miterlimit="2.61313"
                                            stroke-linecap="round" stroke-linejoin="round" />
                                        <path d="M55.0312 34.5171C55.0312 34.5171 58.5594 37.6501 57.8538 46.2729"
                                            stroke="black" stroke-width="1.2" stroke-miterlimit="2.61313"
                                            stroke-linecap="round" stroke-linejoin="round" />
                                        <path fill-rule="evenodd" clip-rule="evenodd"
                                            d="M61.4391 69.572C61.4391 69.572 58.5601 68.1608 56.5278 69.3321C54.4956 70.5035 48.6953 73.4107 48.6953 73.4107C48.6953 73.4107 51.2779 81.3279 61.4391 81.3279C71.6002 81.3279 74.1828 73.4107 74.1828 73.4107C74.1828 73.4107 68.3825 70.5176 66.3503 69.3321C64.318 68.1608 61.4391 69.572 61.4391 69.572V69.572Z"
                                            stroke="black" stroke-width="1.2" stroke-miterlimit="2.61313"
                                            stroke-linecap="round" stroke-linejoin="round" />
                                        <path
                                            d="M61.4388 74.3867C61.4388 74.3867 60.719 74.3444 59.8158 73.9775C58.9126 73.6105 54.4107 73.4271 52.2232 73.9351C50.0357 74.4432 49.3583 73.2295 47.0156 73.2295"
                                            stroke="black" stroke-width="1.2" stroke-miterlimit="2.61313"
                                            stroke-linecap="round" stroke-linejoin="round" />
                                        <path
                                            d="M20.6172 34.7427C20.6172 34.7427 25.3026 54.444 27.8005 64.7039C30.3126 74.9638 30.9335 76.6855 36.4093 81.8508C41.8991 87.016 52.413 96.7396 61.4169 96.7396"
                                            stroke="black" stroke-width="1.2" stroke-miterlimit="2.61313"
                                            stroke-linecap="round" stroke-linejoin="round" />
                                        <path
                                            d="M17.2364 32.0332C17.2364 32.0332 14.2163 32.0755 15.2324 36.4646C16.2485 40.8536 19.9319 47.1902 20.3976 51.8897C20.8633 56.5892 22.7121 57.9723 26.0991 57.6759"
                                            stroke="black" stroke-width="1.2" stroke-miterlimit="2.61313"
                                            stroke-linecap="round" stroke-linejoin="round" />
                                        <path
                                            d="M18.0078 38.567C18.0078 38.567 18.5018 36.4501 19.5038 37.1557C20.5058 37.8614 22.5944 43.4218 22.5944 43.4218C22.5944 43.4218 21.2537 46.2443 22.0017 47.1052C22.7497 47.966 24.1892 49.716 24.1892 49.716"
                                            stroke="black" stroke-width="1.2" stroke-miterlimit="2.61313"
                                            stroke-linecap="round" stroke-linejoin="round" />
                                        <path
                                            d="M79.4445 38.017C80.5357 38.017 81.4203 37.1324 81.4203 36.0412C81.4203 34.95 80.5357 34.0654 79.4445 34.0654C78.3533 34.0654 77.4688 34.95 77.4688 36.0412C77.4688 37.1324 78.3533 38.017 79.4445 38.017Z"
                                            fill="black" />
                                        <path
                                            d="M78.0746 35.8318C78.4955 35.8318 78.8367 35.4906 78.8367 35.0697C78.8367 34.6488 78.4955 34.3076 78.0746 34.3076C77.6537 34.3076 77.3125 34.6488 77.3125 35.0697C77.3125 35.4906 77.6537 35.8318 78.0746 35.8318Z"
                                            fill="white" />
                                        <path fill-rule="evenodd" clip-rule="evenodd"
                                            d="M71.5494 38.514C69.3196 38.1894 74.7812 34.9152 75.0352 34.7318C76.2489 33.8709 77.8436 33.3346 79.5513 33.2499C83.4181 33.0524 85.0552 34.6471 87.8213 36.8205C87.8213 36.8205 86.7911 36.6793 85.6762 37.9071C84.5613 39.1349 80.271 40.6027 76.5453 39.6994C72.8195 38.7962 71.5211 38.5281 71.5211 38.5281L71.5494 38.514Z"
                                            stroke="black" stroke-width="1.2" stroke-miterlimit="2.61313"
                                            stroke-linecap="round" stroke-linejoin="round" />
                                        <mask id="mask1_7871_19674" style="mask-type:alpha" maskUnits="userSpaceOnUse"
                                            x="75" y="31" width="9" height="10">
                                            <path
                                                d="M79.444 39.6263C81.4237 39.6263 83.0286 38.0214 83.0286 36.0416C83.0286 34.0619 81.4237 32.457 79.444 32.457C77.4643 32.457 75.8594 34.0619 75.8594 36.0416C75.8594 38.0214 77.4643 39.6263 79.444 39.6263Z"
                                                stroke="black" stroke-width="1.2" stroke-miterlimit="2.61313"
                                                stroke-linecap="round" stroke-linejoin="round" />
                                        </mask>
                                        <g mask="url(#mask1_7871_19674)">
                                            <path fill-rule="evenodd" clip-rule="evenodd"
                                                d="M71.5494 38.514C69.3196 38.1894 74.7812 34.9152 75.0352 34.7318C76.2489 33.8709 77.8436 33.3346 79.5513 33.2499C83.4181 33.0524 85.0552 34.6471 87.8213 36.8204C87.8213 36.8204 86.7911 36.6793 85.6762 37.9071C84.5613 39.1349 80.271 40.6026 76.5453 39.6994C72.8195 38.7962 71.5211 38.5281 71.5211 38.5281L71.5494 38.514Z"
                                                fill="black" stroke="black" stroke-width="1.2"
                                                stroke-miterlimit="2.61313" stroke-linecap="round"
                                                stroke-linejoin="round" />
                                        </g>
                                        <path d="M72.0703 37.1006C72.0703 37.1006 72.7618 37.8203 72.4796 38.653"
                                            stroke="black" stroke-width="1.2" stroke-miterlimit="2.61313"
                                            stroke-linecap="round" stroke-linejoin="round" />
                                        <path
                                            d="M71.2188 36.0857C71.2188 36.0857 73.7449 31.6826 79.6722 31.6261C85.5995 31.5697 88.535 35.1825 88.535 35.1825"
                                            stroke="black" stroke-width="1.2" stroke-miterlimit="2.61313"
                                            stroke-linecap="round" stroke-linejoin="round" />
                                        <path fill-rule="evenodd" clip-rule="evenodd"
                                            d="M70.4903 29.8043C70.4903 29.8043 69.4318 28.4354 72.4802 26.8407C72.4802 26.8407 83.5727 23.5524 86.1553 23.877C88.738 24.2016 92.7883 27.4334 92.7883 27.4334C92.7883 27.4334 88.2722 25.6976 83.107 27.0665C77.9418 28.4354 71.0125 30.3547 70.4903 29.8043V29.8043Z"
                                            stroke="black" stroke-width="1.2" stroke-miterlimit="2.61313"
                                            stroke-linecap="round" stroke-linejoin="round" />
                                        <path
                                            d="M61.6406 61.7018C61.6406 61.7018 63.0942 61.7441 63.6728 61.0808C64.2656 60.4175 65.7474 59.8248 66.9188 59.9095"
                                            stroke="black" stroke-width="1.2" stroke-miterlimit="2.61313"
                                            stroke-linecap="round" stroke-linejoin="round" />
                                        <path d="M68.6169 56.6187C68.6169 56.6187 70.5786 60.7254 66.5 61.4028"
                                            stroke="black" stroke-width="1.2" stroke-miterlimit="2.61313"
                                            stroke-linecap="round" stroke-linejoin="round" />
                                        <path d="M67.8299 34.5171C67.8299 34.5171 64.3017 37.6501 65.0074 46.2729"
                                            stroke="black" stroke-width="1.2" stroke-miterlimit="2.61313"
                                            stroke-linecap="round" stroke-linejoin="round" />
                                        <path
                                            d="M61.4297 74.3867C61.4297 74.3867 62.1494 74.3444 63.0526 73.9775C63.9559 73.6105 68.4578 73.4271 70.6453 73.9351C72.8327 74.4432 73.5101 73.2295 75.8528 73.2295"
                                            stroke="black" stroke-width="1.2" stroke-miterlimit="2.61313"
                                            stroke-linecap="round" stroke-linejoin="round" />
                                        <path
                                            d="M102.237 34.7432C102.237 34.7432 97.5518 54.4444 95.0539 64.7044C92.5418 74.9643 91.9209 76.686 86.4451 81.8513C80.9553 87.0165 70.4414 96.7401 61.4375 96.7401"
                                            stroke="black" stroke-width="1.2" stroke-miterlimit="2.61313"
                                            stroke-linecap="round" stroke-linejoin="round" />
                                        <path
                                            d="M105.628 32.0332C105.628 32.0332 108.648 32.0755 107.632 36.4646C106.616 40.8536 102.933 47.1902 102.467 51.8897C102.001 56.5892 100.153 57.9723 96.7656 57.6759"
                                            stroke="black" stroke-width="1.2" stroke-miterlimit="2.61313"
                                            stroke-linecap="round" stroke-linejoin="round" />
                                        <path
                                            d="M104.845 38.567C104.845 38.567 104.351 36.4501 103.349 37.1557C102.347 37.8614 100.259 43.4218 100.259 43.4218C100.259 43.4218 101.599 46.2443 100.852 47.1052C100.104 47.966 98.6641 49.716 98.6641 49.716"
                                            stroke="black" stroke-width="1.2" stroke-miterlimit="2.61313"
                                            stroke-linecap="round" stroke-linejoin="round" />
                                        <path fill-rule="evenodd" clip-rule="evenodd"
                                            d="M21.2188 81.0605C28.2186 81.0605 33.8919 74.23 33.8919 65.8047C33.8919 74.23 39.5652 81.0605 46.5651 81.0605C39.5652 81.0605 33.8919 87.891 33.8919 96.3163C33.8919 87.891 28.2186 81.0605 21.2188 81.0605Z"
                                            fill="white" stroke="black" stroke-width="1.2" stroke-miterlimit="2.61313"
                                            stroke-linecap="round" stroke-linejoin="round" />
                                        <path fill-rule="evenodd" clip-rule="evenodd"
                                            d="M6.36719 70.2791C10.0224 70.2791 12.986 66.4828 12.986 61.8115C12.986 66.4828 15.9497 70.2791 19.6049 70.2791C15.9497 70.2791 12.986 74.0754 12.986 78.7467C12.986 74.0754 10.0224 70.2791 6.36719 70.2791Z"
                                            fill="white" stroke="black" stroke-width="1.2" stroke-miterlimit="2.61313"
                                            stroke-linecap="round" stroke-linejoin="round" />
                                        <path fill-rule="evenodd" clip-rule="evenodd"
                                            d="M84 52.2323C87.3134 52.2323 90 48.9215 90 44.8477C90 48.9215 92.6866 52.2323 96 52.2323C92.6866 52.2323 90 55.543 90 59.6169C90 55.543 87.3134 52.2323 84 52.2323Z"
                                            fill="white" stroke="black" stroke-width="1.2" stroke-miterlimit="2.61313"
                                            stroke-linecap="round" stroke-linejoin="round" />
                                    </g>
                                    <defs>
                                        <clipPath id="clip0_7871_19674">
                                            <rect width="120" height="115" fill="white" />
                                        </clipPath>
                                    </defs>
                                </svg>