<svg xmlns="http://www.w3.org/2000/svg" width="112" height="113" viewBox="0 0 112 113" fill="none">
  <path d="M66.319 84.0245C63.4089 85.5027 60.1139 86.3341 56.6187 86.3341C44.7166 86.3341 35.0625 76.68 35.0625 64.7779C35.0625 64.2698 35.0779 63.777 35.1087 63.2843C35.1087 63.2843 33.6921 53.9998 56.6187 20.6338C77.8516 51.5362 78.2057 61.7908 78.1442 63.1304" stroke="black" stroke-width="1.2" stroke-miterlimit="2.61313" stroke-linecap="round" stroke-linejoin="round"/>
  <path d="M57.9339 76.5569C50.2044 76.5569 43.9531 70.2902 43.9531 62.5762" stroke="black" stroke-width="1.2" stroke-miterlimit="2.61313" stroke-linecap="round" stroke-linejoin="round"/>
  <path d="M27.7599 43.5598C34.3928 43.5598 39.7698 38.1828 39.7698 31.5499C39.7698 24.9171 34.3928 19.54 27.7599 19.54C21.127 19.54 15.75 24.9171 15.75 31.5499C15.75 38.1828 21.127 43.5598 27.7599 43.5598Z" stroke="black" stroke-width="1.2" stroke-miterlimit="2.61313" stroke-linecap="round" stroke-linejoin="round"/>
  <path d="M28.2499 37.4013C24.7548 37.4013 21.9062 34.5682 21.9062 31.0576" stroke="black" stroke-width="1.2" stroke-miterlimit="2.61313" stroke-linecap="round" stroke-linejoin="round"/>
  <path d="M80.7553 93.8788C89.31 93.8788 96.245 86.9438 96.245 78.3891C96.245 69.8344 89.31 62.8994 80.7553 62.8994C72.2006 62.8994 65.2656 69.8344 65.2656 78.3891C65.2656 86.9438 72.2006 93.8788 80.7553 93.8788Z" stroke="black" stroke-width="1.2" stroke-miterlimit="2.61313" stroke-linecap="round" stroke-linejoin="round"/>
  <path fill-rule="evenodd" clip-rule="evenodd" d="M80.0674 72.4763V71.5678C80.0674 71.1675 80.283 70.9365 80.6833 70.9365H80.8065C81.176 70.9365 81.407 71.1213 81.407 71.4908V72.4301C82.2538 72.4917 83.0545 72.7842 83.7474 73.2615C84.0707 73.4771 84.0861 73.785 83.9321 74.1084L83.7166 74.5087C83.501 74.8782 83.1777 74.909 82.8389 74.6935C82.2384 74.3085 81.561 74.0622 80.8373 74.0622C79.9135 74.0622 78.8664 74.6011 78.8664 75.6327C78.8664 77.7883 84.4557 77.3726 84.4557 81.0526C84.4557 82.8694 83.1315 84.0858 81.407 84.3168V85.1944C81.407 85.5794 81.2068 85.8257 80.8065 85.8257H80.6833C80.3138 85.8257 80.0674 85.641 80.0674 85.256V84.3168C79.0512 84.209 78.112 83.8087 77.3113 83.1774C77.0034 82.931 76.9726 82.6077 77.2189 82.2997L77.4807 81.9302C77.727 81.5915 78.035 81.5915 78.3737 81.807C79.0666 82.3305 79.9135 82.6693 80.7911 82.6693C81.7611 82.6693 82.685 82.1458 82.685 81.0833C82.685 78.8199 77.0957 79.1587 77.0957 75.6481C77.0957 73.9236 78.4507 72.7072 80.0828 72.4301L80.0674 72.4763Z" fill="black"/>
  <path d="M91.4897 82.8691C89.7344 87.0726 85.5926 90.0135 80.7578 90.0135" stroke="black" stroke-width="1.2" stroke-miterlimit="2.61313" stroke-linecap="round" stroke-linejoin="round"/>
  <path d="M88.2266 69.4736C89.3044 70.3821 90.2128 71.4753 90.9211 72.7071" stroke="black" stroke-width="1.2" stroke-miterlimit="2.61313" stroke-linecap="round" stroke-linejoin="round"/>
</svg>