<svg xmlns="http://www.w3.org/2000/svg" width="120" height="116" viewBox="0 0 120 116" fill="none">
  <path d="M31.7177 58.0504L31.1805 47.8421C32.4341 43.723 40.2107 31.4017 41.93 30.1122C44.0791 28.5004 31.7217 37.0968 30.6472 44.0814C29.5726 51.066 19.8911 15.6055 53.7501 8.08372C58.2261 7.18825 67.8228 7.33153 70.4017 15.0683C72.9806 22.8051 73.2672 26.5302 73.0881 27.4256M74.6999 14.5309C75.9536 17.5755 77.7087 24.4168 74.6999 27.4256C70.939 31.1865 82.2218 25.2765 80.0727 17.2173C78.3534 10.77 74.3418 9.87453 72.5508 10.2327C75.9536 10.0536 83.0914 11.4775 87.5946 15.6055C94.0419 21.5155 101.564 29.0374 98.8774 41.3948C96.7283 51.2807 95.8329 54.8267 95.6538 55.364M81.6845 26.8883C84.9082 24.5601 90.0661 18.8292 84.9082 14.5309M67.7153 30.1122C67.7153 25.9931 67.0706 17.2175 64.4917 15.0683C61.268 12.3818 72.5508 18.2923 70.4017 30.1122M45.1497 11.8446C45.5079 17.7546 49.6628 29.8971 63.4171 31.1865" stroke="black" stroke-width="1.07456"/>
  <path d="M58.7109 57.8184C58.7109 57.8184 60.5936 59.4902 60.2171 64.0914V66.9666" stroke="black" stroke-width="1.07456" stroke-miterlimit="2.61313" stroke-linecap="round" stroke-linejoin="round"/>
  <path d="M67.5859 57.8184C67.5859 57.8184 65.7033 59.4902 66.0798 64.0914V66.9666" stroke="black" stroke-width="1.07456" stroke-miterlimit="2.61313" stroke-linecap="round" stroke-linejoin="round"/>
  <path d="M63.2192 79.2231C63.2192 79.2231 62.0314 79.2577 61.5586 78.7157C61.0743 78.1737 59.8634 77.6894 58.9062 77.7586" stroke="black" stroke-width="1.07456" stroke-miterlimit="2.61313" stroke-linecap="round" stroke-linejoin="round"/>
  <path d="M55.9635 75.0693C55.9635 75.0693 54.3605 78.4251 57.6933 78.9787" stroke="black" stroke-width="1.07456" stroke-miterlimit="2.61313" stroke-linecap="round" stroke-linejoin="round"/>
  <path d="M63.5625 79.2231C63.5625 79.2231 64.7503 79.2577 65.2231 78.7157C65.7074 78.1737 66.9183 77.6894 67.8755 77.7586" stroke="black" stroke-width="1.07456" stroke-miterlimit="2.61313" stroke-linecap="round" stroke-linejoin="round"/>
  <path d="M70.8157 75.0693C70.8157 75.0693 72.4187 78.4251 69.0859 78.9787" stroke="black" stroke-width="1.07456" stroke-miterlimit="2.61313" stroke-linecap="round" stroke-linejoin="round"/>
  <path d="M61.8516 86.0469C62.2001 86.2211 63.1062 86.4651 63.9426 86.0469" stroke="black" stroke-width="1.07456" stroke-linecap="round"/>
  <path fill-rule="evenodd" clip-rule="evenodd" d="M62.7126 88.0155C62.7126 88.0155 60.4954 87.1965 58.9304 87.8763C57.3653 88.556 52.8984 90.2432 52.8984 90.2432C52.8984 90.2432 54.8873 94.8379 62.7126 94.8379C70.5378 94.8379 72.5267 90.2432 72.5267 90.2432C72.5267 90.2432 68.0598 88.5642 66.4948 87.8763C64.9297 87.1965 62.7126 88.0155 62.7126 88.0155V88.0155Z" stroke="black" stroke-width="1.07456" stroke-miterlimit="2.61313" stroke-linecap="round" stroke-linejoin="round"/>
  <path d="M92.6956 61.4775C92.5243 64.3983 91.8736 70.8971 90.6406 73.5258C89.0994 76.8117 89.6131 87.7647 89.0994 89.4077C88.5856 91.0506 82.4207 101.456 72.1458 105.837C70.9471 106.385 67.4194 107.48 62.8984 107.48" stroke="black" stroke-width="1.07456" stroke-linecap="round"/>
  <path d="M33.102 61.4775C33.2762 64.3983 33.9384 70.8971 35.193 73.5258C36.7613 76.8117 36.2385 87.7647 36.7613 89.4077C37.284 91.0506 43.5571 101.456 54.0123 105.837C55.232 106.385 58.8216 107.48 63.4219 107.48" stroke="black" stroke-width="1.07456" stroke-linecap="round"/>
  <path d="M51.9219 89.9678C53.988 90.14 58.4302 90.4843 59.6699 90.4843" stroke="black" stroke-width="1.07456" stroke-linecap="round"/>
  <path d="M73.1016 89.9678C71.0354 90.14 66.5932 90.4843 65.3536 90.4843" stroke="black" stroke-width="1.07456" stroke-linecap="round"/>
  <path d="M90.0859 77.442C90.8701 77.7905 92.6997 78.2784 93.7452 77.442C95.0521 76.3965 97.8154 65.5292 98.3382 63.9609" stroke="black" stroke-width="1.07456" stroke-linecap="round"/>
  <path d="M93.2252 61.498C93.8351 62.3693 94.5321 62.8049 94.5321 64.6346C94.5321 65.226 93.1381 67.2484 92.1797 68.2939" stroke="black" stroke-width="1.07456" stroke-linecap="round"/>
  <path d="M35.4766 77.442C34.6924 77.7905 32.8628 78.2784 31.8173 77.442C30.5104 76.3965 27.9402 65.5292 27.4174 63.9609" stroke="black" stroke-width="1.07456" stroke-linecap="round"/>
  <path d="M32.3373 61.498C31.7274 62.3693 31.0304 62.8049 31.0304 64.6346C31.0304 65.226 32.4244 67.2484 33.3828 68.2939" stroke="black" stroke-width="1.07456" stroke-linecap="round"/>
  <path d="M87.9223 54.3612C86.8318 53.816 83.0152 52.1803 80.8343 52.1803C78.6533 52.1803 71.5653 55.4517 71.02 55.4517C70.4748 55.4517 68.8371 55.9969 68.2918 54.9064C67.8556 54.0341 68.2954 52.7255 69.3823 52.1803C72.4726 51.2715 78.9805 49.4541 80.289 49.4541C81.9247 49.4541 84.1057 49.9993 86.2866 51.635C88.0314 52.9436 89.1945 54.7247 89.558 55.4517" stroke="black" stroke-width="1.07456" stroke-linecap="round"/>
  <path d="M38.3902 54.3612C39.4807 53.816 43.2973 52.1803 45.4782 52.1803C47.6592 52.1803 54.7472 55.4517 55.2925 55.4517C55.8377 55.4517 57.4754 55.9969 58.0207 54.9064C58.4569 54.0341 58.0171 52.7255 56.9302 52.1803C53.8399 51.2715 47.332 49.4541 46.0235 49.4541C44.3878 49.4541 42.2068 49.9993 40.0259 51.635C38.2811 52.9436 37.118 54.7247 36.7545 55.4517" stroke="black" stroke-width="1.07456" stroke-linecap="round"/>
  <path d="M70.7422 59.0353C71.4392 58.3383 73.2514 56.8397 74.9242 56.4215C77.0153 55.8987 79.629 55.8987 81.1973 56.9443C82.7656 57.9898 85.3794 60.0807 85.9021 60.0807" stroke="black" stroke-width="1.07456"/>
  <path d="M77.0335 60.7642C77.9883 60.7642 78.7623 59.9902 78.7623 59.0354C78.7623 58.0807 77.9883 57.3066 77.0335 57.3066C76.0787 57.3066 75.3047 58.0807 75.3047 59.0354C75.3047 59.9902 76.0787 60.7642 77.0335 60.7642Z" fill="black"/>
  <path d="M75.8309 58.8522C76.1992 58.8522 76.4977 58.5536 76.4977 58.1854C76.4977 57.8171 76.1992 57.5186 75.8309 57.5186C75.4626 57.5186 75.1641 57.8171 75.1641 58.1854C75.1641 58.5536 75.4626 58.8522 75.8309 58.8522Z" fill="white"/>
  <path fill-rule="evenodd" clip-rule="evenodd" d="M71.1407 60.7405C69.476 60.5393 73.5533 58.5095 73.743 58.3957C74.649 57.862 75.8396 57.5295 77.1144 57.4771C80.0012 57.3546 81.2233 58.3432 83.2883 59.6906C83.2883 59.6906 82.5192 59.6031 81.6869 60.3643C80.8546 61.1255 77.6517 62.0354 74.8703 61.4754C72.0889 60.9155 71.1196 60.7492 71.1196 60.7492L71.1407 60.7405Z" stroke="black" stroke-width="1.07456" stroke-miterlimit="2.61313" stroke-linecap="round" stroke-linejoin="round"/>
  <path d="M71.7891 59.5576C71.7891 59.5576 72.3235 60.1138 72.1053 60.7573" stroke="black" stroke-width="1.07456" stroke-miterlimit="2.61313" stroke-linecap="round" stroke-linejoin="round"/>
  <path d="M74.405 57.9893C74.0565 58.8605 73.7777 60.8121 75.4505 61.6486" stroke="black" stroke-width="0.644733"/>
  <path d="M79.8868 57.4293C80.3561 58.2419 80.9106 60.1338 79.3742 61.2004" stroke="black" stroke-width="0.644733"/>
  <path d="M55.5781 59.2072C54.8811 58.5101 53.0689 57.0116 51.3961 56.5934C49.305 56.0706 46.6913 56.0706 45.123 57.1161C43.5547 58.1616 40.9409 60.2526 40.4182 60.2526" stroke="black" stroke-width="1.07456"/>
  <path d="M49.2946 60.9351C48.3398 60.9351 47.5658 60.1611 47.5658 59.2063C47.5658 58.2516 48.3398 57.4775 49.2946 57.4775C50.2494 57.4775 51.0234 58.2516 51.0234 59.2063C51.0234 60.1611 50.2494 60.9351 49.2946 60.9351Z" fill="black"/>
  <path d="M50.4972 59.0231C50.129 59.0231 49.8304 58.7245 49.8304 58.3563C49.8304 57.988 50.129 57.6895 50.4972 57.6895C50.8655 57.6895 51.1641 57.988 51.1641 58.3563C51.1641 58.7245 50.8655 59.0231 50.4972 59.0231Z" fill="white"/>
  <path fill-rule="evenodd" clip-rule="evenodd" d="M55.1797 60.9124C56.8443 60.7111 52.767 58.6813 52.5773 58.5676C51.6713 58.0339 50.4807 57.7014 49.2059 57.6489C46.3191 57.5264 45.097 58.5151 43.032 59.8625C43.032 59.8625 43.8011 59.775 44.6334 60.5362C45.4657 61.2973 48.6686 62.2072 51.45 61.6473C54.2314 61.0874 55.2007 60.9211 55.2007 60.9211L55.1797 60.9124Z" stroke="black" stroke-width="1.07456" stroke-miterlimit="2.61313" stroke-linecap="round" stroke-linejoin="round"/>
  <path d="M54.5312 59.7295C54.5312 59.7295 53.9969 60.2857 54.215 60.9291" stroke="black" stroke-width="1.07456" stroke-miterlimit="2.61313" stroke-linecap="round" stroke-linejoin="round"/>
  <path d="M51.9153 58.1611C52.2638 59.0324 52.5426 60.984 50.8698 61.8204" stroke="black" stroke-width="0.644733"/>
  <path d="M46.4335 57.6012C45.9642 58.4138 45.4098 60.3057 46.9461 61.3723" stroke="black" stroke-width="0.644733"/>
  <path d="M88.6619 35.4851C89.3783 34.5896 91.5632 34.1956 94.572 39.7833C97.5807 45.371 97.6165 47.8424 97.2583 48.3796M26.875 44.6187L31.1732 58.0506" stroke="black" stroke-width="1.07456"/>
  <path d="M61.2628 33.3355C58.7555 33.6937 52.7738 33.6579 48.9054 30.6491C45.037 27.6404 40.8462 27.9627 39.2344 28.5" stroke="black" stroke-width="1.07456"/>
  <path d="M80.0625 31.1864C81.6743 31.7237 85.6502 31.9386 88.6589 28.5" stroke="black" stroke-width="1.07456"/>
  <path fill-rule="evenodd" clip-rule="evenodd" d="M109.516 91.3124C107.783 95.0783 104.025 100.679 102.915 100.359L86.5426 90.513C86.5426 90.513 85.6428 90.0427 86.0658 88.5621L86.6091 87.4584L88.9235 83.6098L91.2379 79.7611L91.9581 78.7637C93.0707 77.6907 93.9049 78.2703 93.9049 78.2703L110.653 88.3416" fill="white"/>
  <path d="M109.516 91.3124C107.783 95.0783 104.025 100.679 102.915 100.359L86.5426 90.513C86.5426 90.513 85.6428 90.0427 86.0658 88.5621L86.6091 87.4584L88.9235 83.6098L91.2379 79.7611L91.9581 78.7637C93.0707 77.6907 93.9049 78.2703 93.9049 78.2703L110.653 88.3416L109.516 91.3124Z" stroke="black" stroke-miterlimit="2.61313"/>
  <path d="M97.2409 85.5048L96.7988 85.239L97.0303 84.8541L97.0282 84.8458C96.9709 84.8822 96.9084 84.9154 96.8408 84.9455C96.7731 84.9756 96.7033 84.9974 96.6315 85.0109C96.5597 85.0243 96.4806 85.0263 96.4025 85.0148C96.3245 85.0033 96.2475 84.9782 96.1695 84.9313C96.0134 84.8375 95.9282 84.7084 95.9107 84.5491C95.8932 84.3898 95.9443 84.2223 96.0538 84.0403L96.7794 82.8337L97.2423 83.112L96.5323 84.2926C96.4697 84.3967 96.4457 84.4955 96.4581 84.5809C96.4705 84.6662 96.5246 84.7412 96.613 84.7944C96.691 84.8413 96.7659 84.858 96.8429 84.8477C96.92 84.8374 96.9897 84.8156 97.0585 84.7719L97.8404 83.4717L98.3032 83.7501L97.2492 85.5028L97.2409 85.5048ZM101.457 85.6183L101.384 85.5745L101.4 85.5485L101.582 85.658L101.566 85.684L101.493 85.6402L101.378 85.8326L101.347 85.8139L101.462 85.6214L101.457 85.6183ZM101.685 86.0172L101.782 85.8559L101.625 85.9391L101.61 85.9297L101.61 85.7527L101.516 85.9088L101.485 85.89L101.616 85.6716L101.642 85.6872L101.642 85.8995L101.824 85.7967L101.85 85.8123L101.719 86.0307L101.688 86.012L101.685 86.0172ZM99.5161 84.4653C99.4401 84.4621 99.361 84.4641 99.2892 84.4775C99.2121 84.4879 99.1372 84.5065 99.0643 84.5335C98.9946 84.5553 98.9331 84.575 98.88 84.5927L99.0958 84.2338L98.633 83.9554L98.0293 84.9592L97.579 85.7081L98.047 85.9896L98.8383 84.6738C98.8997 84.6541 98.9497 84.6416 99.0018 84.6375C99.0507 84.6386 99.0913 84.6418 99.1225 84.6605C99.1433 84.6731 99.1661 84.6939 99.1942 84.7179C99.2192 84.747 99.2441 84.7762 99.2743 84.8085C99.2961 84.8429 99.3179 84.8772 99.3397 84.9116C99.3584 84.9512 99.3719 84.9876 99.375 85.0178L99.4114 85.0397L99.7242 84.5196C99.6566 84.4789 99.6035 84.4612 99.5275 84.458L99.5161 84.4653ZM95.2735 84.7962C95.0862 84.6836 94.9 84.5928 94.7252 84.5302C94.5453 84.4645 94.3819 84.43 94.2268 84.4288C94.0717 84.4276 93.9281 84.4545 93.7979 84.5178C93.6677 84.5812 93.5646 84.6821 93.477 84.8277L93.399 84.7808C93.4115 84.76 93.4178 84.7496 93.4178 84.7496C93.5262 84.5811 93.6627 84.4365 93.8189 84.318C93.9918 84.1954 94.1813 84.104 94.3812 84.0542C94.5842 83.9993 94.7893 83.988 95.0026 84.0101C95.216 84.0322 95.4199 84.1052 95.6175 84.2241L95.2703 84.8014L95.2735 84.7962ZM94.1017 83.5887C94.2473 83.6763 94.3857 83.717 94.5304 83.712C94.6751 83.7069 94.8114 83.6685 94.951 83.5896C95.0874 83.5158 95.2187 83.4035 95.3468 83.2611C95.475 83.1186 95.5938 82.9564 95.7095 82.7639C95.8221 82.5767 95.9128 82.3905 95.9786 82.2105C96.0443 82.0305 96.0789 81.8671 96.0832 81.7069C96.0844 81.5518 96.0575 81.4081 95.9941 81.278C95.9307 81.1478 95.8299 81.0447 95.6843 80.9571C95.5386 80.8695 95.4002 80.8288 95.2556 80.8339C95.1109 80.8389 94.9714 80.8825 94.835 80.9562C94.6954 81.0352 94.5673 81.1423 94.4391 81.2847C94.311 81.4272 94.1922 81.5894 94.0796 81.7767C93.967 81.9639 93.8794 82.1449 93.8136 82.3249C93.7479 82.5049 93.7134 82.6683 93.709 82.8286C93.7079 82.9836 93.7348 83.1273 93.7981 83.2574C93.8615 83.3876 93.9623 83.4907 94.108 83.5783L94.1017 83.5887ZM93.9539 83.599C93.8145 83.501 93.6908 83.377 93.5952 83.2416C93.4725 83.0687 93.3811 82.8792 93.3314 82.6793C93.2816 82.4795 93.2652 82.2713 93.2873 82.0579C93.3093 81.8446 93.3824 81.6407 93.5012 81.443C93.617 81.2506 93.7628 81.0905 93.944 80.9658C94.1221 80.8463 94.3117 80.7549 94.5167 80.7082C94.7166 80.6585 94.9269 80.6503 95.1371 80.6776C95.3473 80.7049 95.546 80.7748 95.728 80.8843C95.9101 80.9937 96.065 81.1365 96.1877 81.3094C96.3103 81.4823 96.4017 81.6718 96.4514 81.8717C96.5064 82.0747 96.5145 82.2849 96.4925 82.4983C96.4704 82.7116 96.3973 82.9155 96.2785 83.1132C96.1628 83.3056 96.0169 83.4657 95.8357 83.5905C95.6576 83.71 95.4681 83.8014 95.2661 83.8428C95.061 83.8894 94.856 83.9007 94.6458 83.8734C94.4491 83.8472 94.2639 83.7783 94.0891 83.6803C94.0891 83.6803 94.0007 83.6271 93.9518 83.5907L93.9539 83.599ZM99.8106 85.5064C99.8659 85.4263 99.9232 85.3545 99.9878 85.2942C100.047 85.2308 100.111 85.184 100.176 85.1456C100.242 85.1071 100.303 85.0874 100.369 85.0843C100.434 85.0813 100.496 85.097 100.553 85.1314C100.647 85.1877 100.694 85.2731 100.7 85.3823C100.705 85.4916 100.613 85.6914 100.507 85.8682L100.438 85.9826L99.6218 85.9027C99.649 85.7987 99.6949 85.6988 99.7668 85.5792L99.8106 85.5064ZM100.543 86.7966C100.462 86.8257 100.363 86.837 100.26 86.8317C100.152 86.8233 100.04 86.7847 99.926 86.7159C99.8376 86.6627 99.7637 86.5971 99.7014 86.5241C99.639 86.4512 99.6047 86.3669 99.585 86.2701C99.5674 86.1816 99.5748 86.0869 99.5968 85.9797L100.949 86.134C100.949 86.134 101.05 85.9541 101.02 85.6387C101.01 85.5263 100.949 85.4263 100.889 85.3263C100.824 85.2232 100.732 85.1399 100.618 85.0711C100.508 85.0054 100.387 84.9605 100.255 84.9448C100.122 84.929 99.9913 84.9351 99.8601 84.9766C99.732 85.0129 99.6019 85.0763 99.4862 85.1626C99.3675 85.254 99.2633 85.3684 99.1757 85.514C99.1007 85.6389 99.0495 85.771 99.0255 85.9052C99.0014 86.0395 99.0023 86.1675 99.0251 86.2945C99.0478 86.4215 99.0987 86.5371 99.1746 86.6464C99.2505 86.7558 99.3524 86.8454 99.4824 86.9236C99.68 87.0424 99.8777 87.0905 100.065 87.0616C100.252 87.0326 100.422 86.9505 100.571 86.8206L100.557 86.7977L100.543 86.7966Z" fill="black"/>
  <path fill-rule="evenodd" clip-rule="evenodd" d="M93.8219 87.1709L93.825 87.1657C93.8614 87.1522 93.8927 87.1356 93.9208 87.1242C93.9437 87.1096 93.9666 87.0951 93.9895 87.0805C94.0072 87.0628 94.0281 87.04 94.0458 87.0223C94.0666 86.9994 94.0823 86.9734 94.1042 86.937L94.5796 86.1465C94.5952 86.1205 94.6025 86.0965 94.6067 86.0778C94.614 86.0539 94.6182 86.0352 94.6172 86.0133C94.6161 85.9914 94.6151 85.9696 94.6089 85.9446C94.6027 85.9196 94.5965 85.8946 94.585 85.8665L94.5882 85.8613L94.843 86.0146L94.6824 87.3768L95.8 86.59L96.0392 86.7339L96.0361 86.7391C96.0007 86.7391 95.9726 86.7505 95.9476 86.7567C95.9226 86.7629 95.8997 86.7775 95.8799 86.7868C95.857 86.8014 95.8393 86.819 95.8216 86.8367C95.8007 86.8596 95.7851 86.8856 95.7663 86.9168L95.3034 87.6865C95.2847 87.7177 95.269 87.7437 95.2617 87.7677C95.2492 87.7885 95.2419 87.8124 95.2346 87.8363C95.2273 87.8603 95.2231 87.879 95.221 87.9061C95.2189 87.9331 95.2168 87.9602 95.2199 87.9904L95.2168 87.9956L94.9307 87.8235L94.9338 87.8183C94.9619 87.8069 94.9849 87.7924 95.0078 87.7778C95.0307 87.7633 95.0453 87.7508 95.063 87.7331C95.0807 87.7155 95.0984 87.6978 95.1109 87.677C95.1234 87.6562 95.1474 87.6281 95.163 87.6021L95.6947 86.7179L94.5282 87.539L94.497 87.5202L94.6629 86.0904L94.1458 86.962C94.127 86.9932 94.1082 87.0244 94.0978 87.0536C94.0874 87.0827 94.0801 87.1066 94.0779 87.1337C94.0758 87.1607 94.0737 87.1878 94.0768 87.218C94.0799 87.2482 94.0851 87.2867 94.0954 87.3283L94.0923 87.3335L93.8219 87.1709ZM96.2595 87.0505C96.2439 87.0765 96.221 87.0911 96.196 87.0973C96.171 87.1035 96.144 87.1014 96.1179 87.0858C96.0919 87.0701 96.0826 87.0503 96.0712 87.0222C96.065 86.9972 96.0671 86.9702 96.0827 86.9442C96.0983 86.9182 96.1181 86.9088 96.1462 86.8974C96.1712 86.8912 96.1983 86.8933 96.2243 86.9089C96.2503 86.9246 96.2596 86.9444 96.2711 86.9725C96.2773 86.9975 96.2752 87.0245 96.2595 87.0505ZM95.3801 88.1008C95.4175 88.0738 95.453 88.0385 95.4832 88C95.5134 87.9615 95.5468 87.9178 95.5843 87.8554L95.7813 87.5278C95.8064 87.4862 95.8178 87.4435 95.821 87.4029C95.821 87.3675 95.8159 87.329 95.8097 87.304L95.8128 87.2988L96.0771 87.3303L95.7143 87.9336C95.6768 87.996 95.6455 88.048 95.6288 88.0876C95.609 88.1323 95.5975 88.175 95.5881 88.2259L95.585 88.2311L95.3769 88.106L95.3801 88.1008ZM96.5567 88.5464C96.4901 88.5984 96.4224 88.6285 96.3402 88.6357C96.2579 88.6429 96.1778 88.6231 96.0894 88.5699C96.0322 88.5355 95.9864 88.4938 95.9521 88.4449C95.9178 88.3959 95.8919 88.3449 95.8774 88.2866C95.8629 88.2283 95.865 88.1659 95.8807 88.1045C95.8911 88.0399 95.9235 87.9744 95.961 87.912C96.0048 87.8392 96.0527 87.783 96.1131 87.7415C96.1735 87.6999 96.2329 87.6718 96.2995 87.6553C96.3661 87.6387 96.4317 87.6356 96.4962 87.6461C96.5608 87.6566 96.6242 87.6806 96.6814 87.715C96.7386 87.7494 96.7875 87.7858 96.8145 87.8233C96.8447 87.8556 96.8665 87.89 96.8842 87.9077L96.7903 88.0991L96.7716 88.0949C96.7716 88.0596 96.7665 88.021 96.7665 87.9857C96.7613 87.9471 96.753 87.9138 96.7416 87.8857C96.7302 87.8576 96.7136 87.8264 96.6938 87.8003C96.6741 87.7743 96.6512 87.7534 96.6252 87.7378C96.5368 87.6846 96.4504 87.6752 96.3577 87.7115C96.2651 87.7479 96.1859 87.8206 96.114 87.9403C96.0452 88.0547 96.018 88.1587 96.0294 88.2576C96.0407 88.3565 96.0999 88.4346 96.1988 88.494C96.2508 88.5253 96.3038 88.5431 96.36 88.5556C96.4162 88.5682 96.4766 88.562 96.5328 88.5391L96.5401 88.5506L96.5567 88.5464ZM96.6022 88.8358C96.6252 88.8213 96.6397 88.8088 96.6575 88.7911C96.6752 88.7734 96.6898 88.761 96.7054 88.735C96.7179 88.7142 96.7356 88.6965 96.7512 88.6705C96.7669 88.6445 96.7825 88.6185 96.8013 88.5873L97.0015 88.2544C97.0296 88.2076 97.0411 88.1649 97.0411 88.1296C97.0412 88.0942 97.036 88.0557 97.0298 88.0307L97.0329 88.0255L97.2868 88.0507L97.1586 88.2639L97.169 88.2702C97.2023 88.2619 97.2304 88.2505 97.2669 88.237C97.3033 88.2235 97.3366 88.2152 97.3751 88.21C97.4085 88.2017 97.4438 88.2018 97.4792 88.2018C97.5146 88.2018 97.5437 88.2123 97.575 88.231L97.4686 88.4079L97.4634 88.4048C97.4613 88.3964 97.4541 88.385 97.4468 88.3735C97.4395 88.3621 97.427 88.3475 97.4166 88.3412C97.4042 88.3266 97.3938 88.3204 97.3813 88.3058C97.3709 88.2995 97.3584 88.285 97.348 88.2787C97.3324 88.2693 97.3054 88.2672 97.2668 88.2724C97.2283 88.2775 97.1867 88.2879 97.1471 88.3066L96.9376 88.6551C96.9 88.7175 96.8688 88.7695 96.8521 88.809C96.8322 88.8537 96.8208 88.8964 96.8113 88.9474L96.8082 88.9526L96.6002 88.8275L96.6033 88.8223L96.6022 88.8358ZM97.556 89.4519C97.4936 89.4143 97.4427 89.3695 97.4063 89.3123C97.3699 89.255 97.3419 89.1956 97.3253 89.129C97.3087 89.0624 97.3057 88.9968 97.3161 88.9323C97.3214 88.8646 97.3454 88.8012 97.3829 88.7388C97.4205 88.6764 97.4653 88.6254 97.5226 88.589C97.5798 88.5527 97.6423 88.5194 97.7058 88.508C97.7724 88.4914 97.838 88.4884 97.9057 88.4937C97.9733 88.4989 98.0368 88.5229 98.0992 88.5605C98.1616 88.598 98.2125 88.6428 98.2489 88.7001C98.2853 88.7574 98.3133 88.8167 98.3299 88.8833C98.3465 88.95 98.3496 89.0155 98.3391 89.0801C98.3338 89.1477 98.3067 89.2164 98.2723 89.2736C98.2348 89.336 98.1899 89.3869 98.1327 89.4233C98.0754 89.4597 98.016 89.4877 97.9546 89.5074C97.888 89.524 97.8224 89.5271 97.7548 89.5218C97.6871 89.5165 97.6237 89.4925 97.5612 89.455L97.556 89.4519ZM97.5748 89.4207C97.6268 89.452 97.6747 89.4666 97.7236 89.4677C97.7725 89.4687 97.8225 89.4563 97.8704 89.4355C97.9183 89.4148 97.962 89.3773 98.0058 89.3399C98.0475 89.2942 98.0839 89.2453 98.1152 89.1933C98.1496 89.1361 98.1757 89.0809 98.1882 89.0247C98.2091 88.9665 98.2133 88.9124 98.2092 88.8603C98.2051 88.8083 98.1927 88.7583 98.1719 88.7104C98.148 88.6677 98.1126 88.6323 98.0606 88.601C98.0086 88.5697 97.9608 88.5551 97.9118 88.554C97.8629 88.5529 97.813 88.5654 97.7619 88.5914C97.714 88.6121 97.6703 88.6495 97.6265 88.687C97.5849 88.7327 97.5432 88.7785 97.5119 88.8305C97.4775 88.8877 97.4514 88.9428 97.4337 88.9959C97.4128 89.0542 97.4086 89.1083 97.4127 89.1603C97.4168 89.2124 97.4293 89.2623 97.4532 89.305C97.477 89.3477 97.5124 89.3831 97.5644 89.4144L97.5748 89.4207ZM98.4402 89.9482C98.4683 89.9368 98.4912 89.9222 98.5142 89.9077C98.5371 89.8931 98.5517 89.8806 98.5694 89.863C98.5871 89.8453 98.6048 89.8276 98.6173 89.8068C98.6298 89.786 98.6506 89.7631 98.6694 89.7319L99.1292 88.9674C99.1479 88.9362 99.1636 88.9102 99.1709 88.8863C99.1834 88.8655 99.1907 88.8415 99.198 88.8176C99.2053 88.7937 99.2095 88.7749 99.2116 88.7479C99.2137 88.7208 99.2158 88.6938 99.2127 88.6636L99.2159 88.6584L99.5019 88.8304L99.4988 88.8356C99.4707 88.847 99.4478 88.8616 99.4248 88.8761C99.4019 88.8907 99.3873 88.9031 99.3696 88.9208C99.3519 88.9385 99.3342 88.9562 99.3217 88.977C99.3092 88.9978 99.2884 89.0206 99.2696 89.0518L98.8098 89.8164C98.7911 89.8476 98.7754 89.8736 98.7681 89.8975C98.7556 89.9183 98.7483 89.9422 98.741 89.9662C98.7337 89.9901 98.7295 90.0088 98.7274 90.0359C98.7253 90.063 98.7232 90.09 98.7263 90.1202L98.7231 90.1254L98.4371 89.9534L98.4402 89.9482ZM99.0924 90.3475L98.8844 90.2224L98.8875 90.2172C98.9104 90.2026 98.925 90.1901 98.9427 90.1725C98.9604 90.1548 98.975 90.1423 98.9906 90.1163C99.0031 90.0955 99.0209 90.0778 99.0365 90.0518C99.0521 90.0258 99.0678 89.9998 99.0865 89.9686L99.2867 89.6357C99.3148 89.5889 99.3263 89.5463 99.3264 89.5109C99.3264 89.4755 99.3212 89.437 99.315 89.412L99.3181 89.4068L99.5721 89.432L99.472 89.5985L99.4772 89.6016C99.5501 89.5746 99.6188 89.5663 99.6864 89.5716C99.7541 89.5769 99.8155 89.5926 99.8779 89.6301C99.9611 89.6801 100.011 89.7385 100.024 89.8103C100.038 89.8821 100.021 89.957 99.9743 90.0351L99.771 90.3731C99.7522 90.4043 99.7334 90.4355 99.7209 90.4563C99.7053 90.4823 99.6928 90.5031 99.6855 90.5271C99.673 90.5479 99.6657 90.5718 99.6583 90.5957C99.651 90.6197 99.6469 90.6384 99.6447 90.6654L99.6416 90.6706L99.4336 90.5455L99.4367 90.5403C99.4742 90.5133 99.5096 90.478 99.5398 90.4395C99.5701 90.401 99.5982 90.3542 99.6357 90.2918L99.8203 89.9849C99.8359 89.9589 99.8463 89.9298 99.8568 89.9007C99.8672 89.8715 99.8693 89.8445 99.8631 89.8195C99.86 89.7893 99.8507 89.7695 99.8309 89.7435C99.8112 89.7175 99.7883 89.6966 99.7571 89.6778C99.7155 89.6528 99.6676 89.6382 99.6166 89.6288C99.5656 89.6194 99.5084 89.6204 99.4553 89.638L99.2114 90.0437C99.1738 90.1061 99.1425 90.1581 99.1259 90.1976C99.106 90.2423 99.0945 90.285 99.0851 90.336L99.082 90.3412L99.0924 90.3475ZM99.8392 90.7895C99.8705 90.7729 99.8965 90.7531 99.9236 90.7198C99.9507 90.6866 99.9872 90.6377 100.028 90.5701L100.366 90.0084L100.256 89.9427L100.275 89.9115L100.384 89.9772L100.475 89.8264C100.513 89.7639 100.549 89.7151 100.593 89.6776C100.637 89.6402 100.682 89.6111 100.727 89.5956C100.772 89.58 100.819 89.5727 100.868 89.5738C100.914 89.5801 100.961 89.5947 101.003 89.6198C101.029 89.6354 101.052 89.6562 101.07 89.674C101.087 89.6917 101.1 89.7062 101.107 89.7177L101.031 89.8914L101.017 89.8904C101.019 89.8633 101.013 89.8383 101.01 89.8082C101.007 89.778 101.006 89.7561 101 89.7311C100.994 89.7061 100.984 89.6864 100.98 89.6697C100.971 89.6499 100.958 89.6353 100.943 89.6259C100.906 89.6041 100.862 89.6061 100.808 89.6373C100.754 89.6684 100.703 89.7298 100.647 89.8234L100.509 90.0522L100.717 90.1773L100.698 90.2085L100.49 90.0834L100.153 90.6451C100.112 90.7127 100.086 90.7679 100.069 90.8074C100.053 90.847 100.047 90.8792 100.047 90.9146L100.044 90.9198L99.8309 90.7916L99.834 90.7864L99.8392 90.7895ZM100.968 91.2559C100.937 91.2725 100.903 91.2808 100.875 91.2922C100.842 91.3005 100.809 91.3088 100.775 91.3171C100.745 91.3202 100.71 91.3201 100.672 91.3118C100.635 91.3034 100.601 91.2898 100.564 91.2679C100.486 91.221 100.445 91.1606 100.436 91.0919C100.428 91.0232 100.448 90.9431 100.498 90.8599L100.764 90.4178C100.786 90.3814 100.799 90.3471 100.796 90.3169C100.796 90.2815 100.79 90.2565 100.779 90.2284L100.782 90.2232L100.985 90.3452L100.644 90.9121C100.565 91.0421 100.582 91.1441 100.696 91.2129C100.748 91.2442 100.796 91.2588 100.845 91.2599C100.894 91.261 100.936 91.2506 100.975 91.2319L101.276 90.7326C101.316 90.665 101.318 90.6026 101.288 90.5349L101.291 90.5297L101.499 90.6548L101.14 91.2529C101.118 91.2893 101.099 91.3205 101.092 91.3444C101.084 91.3684 101.072 91.3892 101.073 91.411C101.069 91.4298 101.073 91.4464 101.077 91.4631C101.081 91.4797 101.089 91.4912 101.098 91.511L101.095 91.5162L100.863 91.4545L100.972 91.2725L100.968 91.2559ZM102.095 91.2539L102.082 91.2528C102.086 91.1633 102.072 91.0915 102.047 91.0404C102.021 90.9894 101.985 90.954 101.944 90.929C101.892 90.8977 101.841 90.8883 101.794 90.8955C101.747 90.9028 101.709 90.9298 101.684 90.9714C101.669 90.9974 101.658 91.0265 101.665 91.0515C101.662 91.0786 101.674 91.1067 101.688 91.1296C101.7 91.1577 101.72 91.1837 101.736 91.215C101.756 91.241 101.781 91.2702 101.803 91.3046C101.828 91.3337 101.849 91.3681 101.871 91.4025C101.893 91.4368 101.91 91.4681 101.918 91.5014C101.932 91.5378 101.931 91.5732 101.928 91.6138C101.925 91.6544 101.908 91.6939 101.883 91.7355C101.833 91.8187 101.768 91.8572 101.682 91.8696C101.6 91.8768 101.51 91.8507 101.411 91.7913C101.359 91.76 101.315 91.7266 101.28 91.6912C101.244 91.6558 101.214 91.6235 101.193 91.5891L101.299 91.3769L101.312 91.378C101.302 91.4779 101.309 91.5601 101.332 91.6163C101.352 91.6778 101.394 91.7246 101.457 91.7622C101.519 91.7997 101.581 91.8154 101.634 91.7977C101.687 91.7801 101.724 91.7531 101.749 91.7115C101.765 91.6855 101.772 91.6615 101.774 91.6345C101.776 91.6074 101.77 91.5824 101.764 91.5574C101.753 91.5293 101.741 91.5012 101.721 91.4752C101.702 91.4491 101.682 91.4231 101.66 91.3887C101.635 91.3596 101.618 91.3283 101.594 91.2992C101.572 91.2648 101.555 91.2335 101.542 91.1971C101.528 91.1607 101.523 91.1221 101.523 91.0868C101.526 91.0462 101.534 91.0087 101.559 90.9671C101.585 90.9255 101.617 90.8953 101.651 90.8735C101.686 90.8517 101.724 90.8465 101.763 90.8414C101.801 90.8362 101.844 90.8477 101.878 90.8613C101.918 90.878 101.957 90.8946 101.994 90.9165C102.03 90.9384 102.068 90.9687 102.102 90.9957C102.135 91.0228 102.16 91.052 102.18 91.078L102.092 91.2591L102.095 91.2539ZM102.757 90.9652C102.742 90.9912 102.719 91.0057 102.694 91.0119C102.669 91.0182 102.642 91.0161 102.616 91.0004C102.59 90.9848 102.581 90.965 102.569 90.9369C102.563 90.9119 102.565 90.8848 102.581 90.8588C102.596 90.8328 102.616 90.8235 102.644 90.8121C102.669 90.8058 102.696 90.808 102.722 90.8236C102.748 90.8392 102.758 90.859 102.769 90.8871C102.775 90.9121 102.773 90.9392 102.757 90.9652ZM101.878 92.0155C101.915 91.9885 101.951 91.9531 101.981 91.9146C102.011 91.8762 102.045 91.8325 102.082 91.7701L102.279 91.4424C102.304 91.4008 102.316 91.3582 102.319 91.3176C102.319 91.2822 102.314 91.2437 102.308 91.2187L102.311 91.2135L102.575 91.245L102.212 91.8483C102.175 91.9107 102.143 91.9627 102.127 92.0022C102.107 92.047 102.095 92.0896 102.086 92.1406L102.083 92.1458L101.875 92.0207L101.878 92.0155ZM102.639 92.5158C102.577 92.4783 102.526 92.4335 102.49 92.3762C102.453 92.3189 102.425 92.2596 102.409 92.193C102.392 92.1263 102.389 92.0608 102.399 91.9962C102.405 91.9286 102.429 91.8651 102.466 91.8027C102.504 91.7403 102.549 91.6894 102.606 91.653C102.663 91.6166 102.726 91.5834 102.789 91.572C102.856 91.5554 102.921 91.5523 102.989 91.5576C103.057 91.5629 103.12 91.5869 103.182 91.6244C103.245 91.662 103.296 91.7068 103.332 91.764C103.369 91.8213 103.397 91.8807 103.413 91.9473C103.43 92.0139 103.433 92.0795 103.422 92.144C103.417 92.2117 103.39 92.2803 103.356 92.3375C103.318 92.3999 103.273 92.4509 103.216 92.4873C103.159 92.5236 103.099 92.5517 103.038 92.5714C102.971 92.588 102.906 92.591 102.838 92.5858C102.77 92.5805 102.707 92.5565 102.645 92.519L102.639 92.5158ZM102.658 92.4846C102.71 92.5159 102.758 92.5305 102.807 92.5316C102.856 92.5327 102.906 92.5203 102.954 92.4995C103.002 92.4787 103.045 92.4413 103.089 92.4039C103.131 92.3581 103.167 92.3092 103.199 92.2572C103.233 92.2 103.259 92.1449 103.272 92.0887C103.292 92.0304 103.297 91.9763 103.293 91.9243C103.288 91.8722 103.276 91.8223 103.255 91.7744C103.231 91.7317 103.196 91.6963 103.144 91.665C103.092 91.6337 103.044 91.6191 102.995 91.618C102.946 91.6169 102.896 91.6293 102.845 91.6553C102.797 91.6761 102.754 91.7135 102.71 91.7509C102.668 91.7967 102.626 91.8424 102.595 91.8944C102.561 91.9517 102.535 92.0068 102.517 92.0599C102.496 92.1181 102.492 92.1722 102.496 92.2243C102.5 92.2763 102.513 92.3263 102.536 92.369C102.56 92.4117 102.596 92.4471 102.648 92.4784L102.658 92.4846ZM103.451 92.9684L103.243 92.8433L103.246 92.8381C103.269 92.8235 103.283 92.811 103.301 92.7934C103.319 92.7757 103.333 92.7632 103.349 92.7372C103.361 92.7164 103.379 92.6987 103.395 92.6727C103.41 92.6467 103.426 92.6207 103.445 92.5895L103.645 92.2566C103.673 92.2098 103.685 92.1672 103.685 92.1318C103.685 92.0964 103.68 92.0579 103.673 92.0329L103.676 92.0277L103.93 92.0529L103.83 92.2194L103.835 92.2225C103.908 92.1955 103.977 92.1872 104.045 92.1925C104.112 92.1978 104.174 92.2135 104.236 92.251C104.319 92.301 104.369 92.3594 104.383 92.4312C104.396 92.503 104.379 92.5779 104.333 92.656L104.129 92.994C104.111 93.0252 104.092 93.0564 104.079 93.0772C104.064 93.1032 104.051 93.124 104.044 93.148C104.031 93.1688 104.024 93.1927 104.017 93.2166C104.009 93.2406 104.005 93.2593 104.003 93.2863L104 93.2915L103.792 93.1664L103.795 93.1612C103.833 93.1342 103.868 93.0989 103.898 93.0604C103.928 93.0219 103.957 92.9751 103.994 92.9127L104.179 92.6058C104.194 92.5798 104.205 92.5507 104.215 92.5216C104.226 92.4924 104.228 92.4654 104.221 92.4404C104.218 92.4102 104.209 92.3904 104.189 92.3644C104.169 92.3384 104.147 92.3175 104.115 92.2987C104.074 92.2737 104.026 92.2591 103.975 92.2497C103.924 92.2403 103.867 92.2413 103.814 92.2589L103.57 92.6646C103.532 92.727 103.501 92.779 103.484 92.8185C103.464 92.8632 103.453 92.9059 103.443 92.9569L103.44 92.9621L103.451 92.9684Z" fill="black"/>
  <path d="M100.531 87.5713L107.142 91.5464" stroke="black" stroke-width="0.5"/>
  <path d="M101.593 90.0874L104.505 84.4866" stroke="black" stroke-width="0.5"/>
  <path fill-rule="evenodd" clip-rule="evenodd" d="M81.3903 87.3814L85.2441 89.6989L88.9096 83.6035L92.5751 77.5081L88.7213 75.1906C88.1026 75.7249 84.8374 81.1546 84.8374 81.1546C84.8374 81.1546 81.5722 86.5843 81.3903 87.3814Z" fill="white" stroke="black" stroke-miterlimit="2.61313"/>
  <path fill-rule="evenodd" clip-rule="evenodd" d="M81.8649 86.3535C80.9703 85.8155 79.6305 85.0877 78.4522 84.2092C76.9109 83.0628 75.6446 81.671 75.9823 80.132L77.8713 76.9907L79.7604 73.8494C81.8885 72.0416 85.9541 74.8901 88.0137 76.1286C86.8494 77.8292 84.8478 81.1577 84.8478 81.1577L84.8353 81.1785C84.6726 81.449 82.7731 84.6194 81.8649 86.3535Z" stroke="black" stroke-miterlimit="2.61313"/>
  <path d="M79.9214 85.1949C81.2682 82.0603 83.9298 77.6344 86.064 74.9804" stroke="black" stroke-miterlimit="2.61313"/>
  <path d="M74.7656 79.9775L80.601 83.4867" stroke="black" stroke-miterlimit="2.61313" stroke-linecap="round" stroke-linejoin="round"/>
  <path d="M75.625 78.5527L81.4603 82.0619" stroke="black" stroke-miterlimit="2.61313" stroke-linecap="round" stroke-linejoin="round"/>
  <path d="M76.4844 77.1221L82.3197 80.6312" stroke="black" stroke-miterlimit="2.61313" stroke-linecap="round" stroke-linejoin="round"/>
  <path d="M77.3438 75.6924L83.1791 79.2015" stroke="black" stroke-miterlimit="2.61313" stroke-linecap="round" stroke-linejoin="round"/>
  <path d="M78.2031 74.2617L84.0385 77.7708" stroke="black" stroke-miterlimit="2.61313" stroke-linecap="round" stroke-linejoin="round"/>
  <path d="M79.0625 72.8369L84.8978 76.346" stroke="black" stroke-miterlimit="2.61313" stroke-linecap="round" stroke-linejoin="round"/>
</svg>