<svg xmlns="http://www.w3.org/2000/svg" width="121" height="116" viewBox="0 0 121 116" fill="none">
  <path d="M32.2177 58.0504L31.6805 47.8421C32.9341 43.723 40.7107 31.4017 42.43 30.1122C44.5791 28.5004 32.2217 37.0968 31.1472 44.0814C30.0726 51.066 20.3911 15.6055 54.2501 8.08372C58.7261 7.18825 68.3228 7.33153 70.9017 15.0683C73.4806 22.8051 73.7672 26.5302 73.5881 27.4256M75.1999 14.5309C76.4536 17.5755 78.2087 24.4168 75.1999 27.4256C71.439 31.1865 82.7218 25.2765 80.5727 17.2173C78.8534 10.77 74.8418 9.87453 73.0508 10.2327C76.4536 10.0536 83.5914 11.4775 88.0946 15.6055C94.5419 21.5155 102.064 29.0374 99.3774 41.3948C97.2283 51.2807 96.3329 54.8267 96.1538 55.364M82.1845 26.8883C85.4082 24.5601 90.5661 18.8292 85.4082 14.5309M68.2153 30.1122C68.2153 25.9931 67.5706 17.2175 64.9917 15.0683C61.768 12.3818 73.0508 18.2923 70.9017 30.1122M45.6497 11.8446C46.0079 17.7546 50.1628 29.8971 63.9171 31.1865" stroke="black" stroke-width="1.07456"/>
  <path d="M59.2109 57.8184C59.2109 57.8184 61.0936 59.4902 60.7171 64.0914V66.9666" stroke="black" stroke-width="1.07456" stroke-miterlimit="2.61313" stroke-linecap="round" stroke-linejoin="round"/>
  <path d="M68.0859 57.8184C68.0859 57.8184 66.2033 59.4902 66.5798 64.0914V66.9666" stroke="black" stroke-width="1.07456" stroke-miterlimit="2.61313" stroke-linecap="round" stroke-linejoin="round"/>
  <path d="M63.7192 79.2231C63.7192 79.2231 62.5314 79.2577 62.0586 78.7157C61.5743 78.1737 60.3634 77.6894 59.4062 77.7586" stroke="black" stroke-width="1.07456" stroke-miterlimit="2.61313" stroke-linecap="round" stroke-linejoin="round"/>
  <path d="M56.4635 75.0693C56.4635 75.0693 54.8605 78.4251 58.1933 78.9787" stroke="black" stroke-width="1.07456" stroke-miterlimit="2.61313" stroke-linecap="round" stroke-linejoin="round"/>
  <path d="M64.0625 79.2231C64.0625 79.2231 65.2503 79.2577 65.7231 78.7157C66.2074 78.1737 67.4183 77.6894 68.3755 77.7586" stroke="black" stroke-width="1.07456" stroke-miterlimit="2.61313" stroke-linecap="round" stroke-linejoin="round"/>
  <path d="M71.3157 75.0693C71.3157 75.0693 72.9187 78.4251 69.5859 78.9787" stroke="black" stroke-width="1.07456" stroke-miterlimit="2.61313" stroke-linecap="round" stroke-linejoin="round"/>
  <path d="M62.3516 86.0469C62.7001 86.2211 63.6062 86.4651 64.4426 86.0469" stroke="black" stroke-width="1.07456" stroke-linecap="round"/>
  <path fill-rule="evenodd" clip-rule="evenodd" d="M63.2126 88.0155C63.2126 88.0155 60.9954 87.1965 59.4304 87.8763C57.8653 88.556 53.3984 90.2432 53.3984 90.2432C53.3984 90.2432 55.3873 94.8379 63.2126 94.8379C71.0378 94.8379 73.0267 90.2432 73.0267 90.2432C73.0267 90.2432 68.5598 88.5642 66.9948 87.8763C65.4297 87.1965 63.2126 88.0155 63.2126 88.0155V88.0155Z" stroke="black" stroke-width="1.07456" stroke-miterlimit="2.61313" stroke-linecap="round" stroke-linejoin="round"/>
  <path d="M93.1956 61.4775C93.0243 64.3983 92.3736 70.8971 91.1406 73.5258C89.5994 76.8117 90.1131 87.7647 89.5994 89.4077C89.0856 91.0506 82.9207 101.456 72.6458 105.837C71.4471 106.385 67.9194 107.48 63.3984 107.48" stroke="black" stroke-width="1.07456" stroke-linecap="round"/>
  <path d="M33.602 61.4775C33.7762 64.3983 34.4384 70.8971 35.693 73.5258C37.2613 76.8117 36.7385 87.7647 37.2613 89.4077C37.784 91.0506 44.0571 101.456 54.5123 105.837C55.732 106.385 59.3216 107.48 63.9219 107.48" stroke="black" stroke-width="1.07456" stroke-linecap="round"/>
  <path d="M52.4219 89.9678C54.488 90.14 58.9302 90.4843 60.1699 90.4843" stroke="black" stroke-width="1.07456" stroke-linecap="round"/>
  <path d="M73.6016 89.9678C71.5354 90.14 67.0932 90.4843 65.8536 90.4843" stroke="black" stroke-width="1.07456" stroke-linecap="round"/>
  <path d="M90.5859 77.442C91.3701 77.7905 93.1997 78.2784 94.2452 77.442C95.5521 76.3965 98.3154 65.5292 98.8382 63.9609" stroke="black" stroke-width="1.07456" stroke-linecap="round"/>
  <path d="M93.7252 61.498C94.3351 62.3693 95.0321 62.8049 95.0321 64.6346C95.0321 65.226 93.6381 67.2484 92.6797 68.2939" stroke="black" stroke-width="1.07456" stroke-linecap="round"/>
  <path d="M35.9766 77.442C35.1924 77.7905 33.3628 78.2784 32.3173 77.442C31.0104 76.3965 28.4402 65.5292 27.9174 63.9609" stroke="black" stroke-width="1.07456" stroke-linecap="round"/>
  <path d="M32.8373 61.498C32.2274 62.3693 31.5304 62.8049 31.5304 64.6346C31.5304 65.226 32.9244 67.2484 33.8828 68.2939" stroke="black" stroke-width="1.07456" stroke-linecap="round"/>
  <path d="M88.4223 54.3612C87.3318 53.816 83.5152 52.1803 81.3343 52.1803C79.1533 52.1803 72.0653 55.4517 71.52 55.4517C70.9748 55.4517 69.3371 55.9969 68.7918 54.9064C68.3556 54.0341 68.7954 52.7255 69.8823 52.1803C72.9726 51.2715 79.4805 49.4541 80.789 49.4541C82.4247 49.4541 84.6057 49.9993 86.7866 51.635C88.5314 52.9436 89.6945 54.7247 90.058 55.4517" stroke="black" stroke-width="1.07456" stroke-linecap="round"/>
  <path d="M38.8902 54.3612C39.9807 53.816 43.7973 52.1803 45.9782 52.1803C48.1592 52.1803 55.2472 55.4517 55.7925 55.4517C56.3377 55.4517 57.9754 55.9969 58.5207 54.9064C58.9569 54.0341 58.5171 52.7255 57.4302 52.1803C54.3399 51.2715 47.832 49.4541 46.5235 49.4541C44.8878 49.4541 42.7068 49.9993 40.5259 51.635C38.7811 52.9436 37.618 54.7247 37.2545 55.4517" stroke="black" stroke-width="1.07456" stroke-linecap="round"/>
  <path d="M71.2422 59.0353C71.9392 58.3383 73.7514 56.8397 75.4242 56.4215C77.5153 55.8987 80.129 55.8987 81.6973 56.9443C83.2656 57.9898 85.8794 60.0807 86.4021 60.0807" stroke="black" stroke-width="1.07456"/>
  <path d="M77.5335 60.7642C78.4883 60.7642 79.2623 59.9902 79.2623 59.0354C79.2623 58.0807 78.4883 57.3066 77.5335 57.3066C76.5787 57.3066 75.8047 58.0807 75.8047 59.0354C75.8047 59.9902 76.5787 60.7642 77.5335 60.7642Z" fill="black"/>
  <path d="M76.3309 58.8522C76.6992 58.8522 76.9977 58.5536 76.9977 58.1854C76.9977 57.8171 76.6992 57.5186 76.3309 57.5186C75.9626 57.5186 75.6641 57.8171 75.6641 58.1854C75.6641 58.5536 75.9626 58.8522 76.3309 58.8522Z" fill="white"/>
  <path fill-rule="evenodd" clip-rule="evenodd" d="M71.6407 60.7405C69.976 60.5393 74.0533 58.5095 74.243 58.3957C75.149 57.862 76.3396 57.5295 77.6144 57.4771C80.5012 57.3546 81.7233 58.3432 83.7883 59.6906C83.7883 59.6906 83.0192 59.6031 82.1869 60.3643C81.3546 61.1255 78.1517 62.0354 75.3703 61.4754C72.5889 60.9155 71.6196 60.7492 71.6196 60.7492L71.6407 60.7405Z" stroke="black" stroke-width="1.07456" stroke-miterlimit="2.61313" stroke-linecap="round" stroke-linejoin="round"/>
  <path d="M72.2891 59.5576C72.2891 59.5576 72.8235 60.1138 72.6053 60.7573" stroke="black" stroke-width="1.07456" stroke-miterlimit="2.61313" stroke-linecap="round" stroke-linejoin="round"/>
  <path d="M74.905 57.9893C74.5565 58.8605 74.2777 60.8121 75.9505 61.6486" stroke="black" stroke-width="0.644733"/>
  <path d="M80.3868 57.4293C80.8561 58.2419 81.4106 60.1338 79.8742 61.2004" stroke="black" stroke-width="0.644733"/>
  <path d="M56.0781 59.2072C55.3811 58.5101 53.5689 57.0116 51.8961 56.5934C49.805 56.0706 47.1913 56.0706 45.623 57.1161C44.0547 58.1616 41.4409 60.2526 40.9182 60.2526" stroke="black" stroke-width="1.07456"/>
  <path d="M49.7946 60.9351C48.8398 60.9351 48.0658 60.1611 48.0658 59.2063C48.0658 58.2516 48.8398 57.4775 49.7946 57.4775C50.7494 57.4775 51.5234 58.2516 51.5234 59.2063C51.5234 60.1611 50.7494 60.9351 49.7946 60.9351Z" fill="black"/>
  <path d="M50.9972 59.0231C50.629 59.0231 50.3304 58.7245 50.3304 58.3563C50.3304 57.988 50.629 57.6895 50.9972 57.6895C51.3655 57.6895 51.6641 57.988 51.6641 58.3563C51.6641 58.7245 51.3655 59.0231 50.9972 59.0231Z" fill="white"/>
  <path fill-rule="evenodd" clip-rule="evenodd" d="M55.6797 60.9124C57.3443 60.7111 53.267 58.6813 53.0773 58.5676C52.1713 58.0339 50.9807 57.7014 49.7059 57.6489C46.8191 57.5264 45.597 58.5151 43.532 59.8625C43.532 59.8625 44.3011 59.775 45.1334 60.5362C45.9657 61.2973 49.1686 62.2072 51.95 61.6473C54.7314 61.0874 55.7007 60.9211 55.7007 60.9211L55.6797 60.9124Z" stroke="black" stroke-width="1.07456" stroke-miterlimit="2.61313" stroke-linecap="round" stroke-linejoin="round"/>
  <path d="M55.0312 59.7295C55.0312 59.7295 54.4969 60.2857 54.715 60.9291" stroke="black" stroke-width="1.07456" stroke-miterlimit="2.61313" stroke-linecap="round" stroke-linejoin="round"/>
  <path d="M52.4153 58.1611C52.7638 59.0324 53.0426 60.984 51.3698 61.8204" stroke="black" stroke-width="0.644733"/>
  <path d="M46.9335 57.6012C46.4642 58.4138 45.9098 60.3057 47.4461 61.3723" stroke="black" stroke-width="0.644733"/>
  <path d="M89.1619 35.4851C89.8783 34.5896 92.0632 34.1956 95.072 39.7833C98.0807 45.371 98.1165 47.8424 97.7583 48.3796M27.375 44.6187L31.6732 58.0506" stroke="black" stroke-width="1.07456"/>
  <path d="M61.7628 33.3355C59.2555 33.6937 53.2738 33.6579 49.4054 30.6491C45.537 27.6404 41.3462 27.9627 39.7344 28.5" stroke="black" stroke-width="1.07456"/>
  <path d="M80.5625 31.1864C82.1743 31.7237 86.1502 31.9386 89.1589 28.5" stroke="black" stroke-width="1.07456"/>
  <path d="M19.2619 63.3465L29.1406 53.4678L33.4461 57.7733L23.5674 67.652L19.2619 63.3465Z" fill="white" stroke="black" stroke-width="1.2" stroke-miterlimit="2.61313" stroke-linecap="round" stroke-linejoin="round"/>
  <path fill-rule="evenodd" clip-rule="evenodd" d="M17.5227 51.7299C16.0544 53.1981 16.1813 55.7178 17.7946 57.3311L21.5379 61.0743L26.8672 55.745L23.124 52.0018C21.5107 50.3885 18.991 50.2706 17.5227 51.7299Z" stroke="black" stroke-width="1.2" stroke-miterlimit="2.61313" stroke-linecap="round" stroke-linejoin="round"/>
  <path fill-rule="evenodd" clip-rule="evenodd" d="M39.9874 76.2107L40.9662 77.1895C41.22 77.4433 41.5825 77.4796 41.7819 77.2802L43.078 75.9841C43.2774 75.7847 43.2321 75.4131 42.9874 75.1684L42.0085 74.1895C41.9995 73.4463 41.6641 72.6397 41.0297 71.9961L30.1263 61.0928L26.8906 64.3284L37.794 75.2318C38.4375 75.8753 39.2442 76.2107 39.9874 76.2107Z" fill="white" stroke="black" stroke-width="1.2" stroke-miterlimit="2.61313" stroke-linecap="round" stroke-linejoin="round"/>
  <path fill-rule="evenodd" clip-rule="evenodd" d="M40.1821 88.147C40.173 88.2196 40.173 88.3011 40.173 88.3736C40.173 90.2135 41.6685 91.709 43.5084 91.709C45.3483 91.709 46.8438 90.2135 46.8438 88.3736C46.8438 88.2921 46.8437 88.2196 46.8347 88.147C46.8347 88.147 47.0522 86.715 43.5084 81.5488C39.9736 86.6878 40.1821 88.1289 40.1821 88.147Z" stroke="black" stroke-width="1.2" stroke-miterlimit="2.61313" stroke-linecap="round" stroke-linejoin="round"/>
</svg>