<svg xmlns="http://www.w3.org/2000/svg" width="121" height="116" viewBox="0 0 121 116" fill="none">
  <path d="M43.9211 38.3764C45.0123 38.3764 45.8969 37.4918 45.8969 36.4006C45.8969 35.3094 45.0123 34.4248 43.9211 34.4248C42.8299 34.4248 41.9453 35.3094 41.9453 36.4006C41.9453 37.4918 42.8299 38.3764 43.9211 38.3764Z" fill="black"/>
  <path d="M42.5668 36.1913C42.9877 36.1913 43.3289 35.8501 43.3289 35.4292C43.3289 35.0083 42.9877 34.6671 42.5668 34.6671C42.1459 34.6671 41.8047 35.0083 41.8047 35.4292C41.8047 35.8501 42.1459 36.1913 42.5668 36.1913Z" fill="white"/>
  <path fill-rule="evenodd" clip-rule="evenodd" d="M51.811 38.8733C54.0408 38.5488 48.5792 35.2746 48.3251 35.0911C47.1115 34.2303 45.5167 33.694 43.8091 33.6093C39.9422 33.4117 38.3051 35.0065 35.5391 37.1798C35.5391 37.1798 36.5693 37.0387 37.6842 38.2665C38.7991 39.4943 43.0893 40.962 46.8151 40.0588C50.5408 39.1556 51.8392 38.8875 51.8392 38.8875L51.811 38.8733Z" stroke="black" stroke-width="1.2" stroke-miterlimit="2.61313" stroke-linecap="round" stroke-linejoin="round"/>
  <mask id="mask0_406_24349" style="mask-type:alpha" maskUnits="userSpaceOnUse" x="39" y="32" width="10" height="9">
    <path d="M43.9284 39.9866C45.9081 39.9866 47.513 38.3817 47.513 36.402C47.513 34.4223 45.9081 32.8174 43.9284 32.8174C41.9486 32.8174 40.3438 34.4223 40.3438 36.402C40.3438 38.3817 41.9486 39.9866 43.9284 39.9866Z" stroke="black" stroke-width="1.2" stroke-miterlimit="2.61313" stroke-linecap="round" stroke-linejoin="round"/>
  </mask>
  <g mask="url(#mask0_406_24349)">
    <path fill-rule="evenodd" clip-rule="evenodd" d="M51.811 38.8733C54.0408 38.5488 48.5792 35.2746 48.3251 35.0911C47.1115 34.2303 45.5167 33.694 43.8091 33.6093C39.9422 33.4117 38.3051 35.0065 35.5391 37.1798C35.5391 37.1798 36.5693 37.0387 37.6842 38.2665C38.7991 39.4943 43.0893 40.962 46.8151 40.0588C50.5408 39.1556 51.8392 38.8875 51.8392 38.8875L51.811 38.8733Z" fill="black" stroke="black" stroke-width="1.2" stroke-miterlimit="2.61313" stroke-linecap="round" stroke-linejoin="round"/>
  </g>
  <path d="M51.2895 37.46C51.2895 37.46 50.598 38.1797 50.8802 39.0124" stroke="black" stroke-width="1.2" stroke-miterlimit="2.61313" stroke-linecap="round" stroke-linejoin="round"/>
  <path d="M52.1288 36.4456C52.1288 36.4456 49.6026 32.0425 43.6753 31.986C37.7479 31.9296 34.8125 35.5424 34.8125 35.5424" stroke="black" stroke-width="1.2" stroke-miterlimit="2.61313" stroke-linecap="round" stroke-linejoin="round"/>
  <path fill-rule="evenodd" clip-rule="evenodd" d="M52.8683 30.1637C52.8683 30.1637 53.9268 28.7948 50.8784 27.2001C50.8784 27.2001 39.7859 23.9118 37.2033 24.2364C34.6206 24.561 30.5703 27.7928 30.5703 27.7928C30.5703 27.7928 35.0864 26.0569 40.2516 27.4259C45.4168 28.7948 52.3462 30.7141 52.8683 30.1637V30.1637Z" stroke="black" stroke-width="1.2" stroke-miterlimit="2.61313" stroke-linecap="round" stroke-linejoin="round"/>
  <path d="M61.7235 62.0611C61.7235 62.0611 60.2698 62.1035 59.6912 61.4402C59.0985 60.7769 57.6167 60.1842 56.4453 60.2688" stroke="black" stroke-width="1.2" stroke-miterlimit="2.61313" stroke-linecap="round" stroke-linejoin="round"/>
  <path d="M54.7528 56.9775C54.7528 56.9775 52.7912 61.0843 56.8697 61.7617" stroke="black" stroke-width="1.2" stroke-miterlimit="2.61313" stroke-linecap="round" stroke-linejoin="round"/>
  <path d="M55.5312 34.876C55.5312 34.876 59.0594 38.009 58.3538 46.6318" stroke="black" stroke-width="1.2" stroke-miterlimit="2.61313" stroke-linecap="round" stroke-linejoin="round"/>
  <path fill-rule="evenodd" clip-rule="evenodd" d="M61.9391 69.9324C61.9391 69.9324 59.0601 68.5211 57.0278 69.6925C54.9956 70.8638 49.1953 73.771 49.1953 73.771C49.1953 73.771 51.7779 81.6882 61.9391 81.6882C72.1002 81.6882 74.6828 73.771 74.6828 73.771C74.6828 73.771 68.8825 70.8779 66.8503 69.6925C64.818 68.5211 61.9391 69.9324 61.9391 69.9324V69.9324Z" stroke="black" stroke-width="1.2" stroke-miterlimit="2.61313" stroke-linecap="round" stroke-linejoin="round"/>
  <path d="M61.9388 74.7461C61.9388 74.7461 61.219 74.7038 60.3158 74.3368C59.4126 73.9699 54.9107 73.7864 52.7232 74.2945C50.5357 74.8026 49.8583 73.5889 47.5156 73.5889" stroke="black" stroke-width="1.2" stroke-miterlimit="2.61313" stroke-linecap="round" stroke-linejoin="round"/>
  <path d="M21.1172 35.1025C21.1172 35.1025 25.8026 54.8038 28.3005 65.0637C30.8126 75.3236 31.4335 77.0454 36.9093 82.2106C42.3991 87.3759 52.913 97.0995 61.9169 97.0995" stroke="black" stroke-width="1.2" stroke-miterlimit="2.61313" stroke-linecap="round" stroke-linejoin="round"/>
  <path d="M17.7364 32.3916C17.7364 32.3916 14.7163 32.4339 15.7324 36.823C16.7485 41.212 20.4319 47.5486 20.8976 52.2481C21.3633 56.9476 23.2121 58.3307 26.5991 58.0343" stroke="black" stroke-width="1.2" stroke-miterlimit="2.61313" stroke-linecap="round" stroke-linejoin="round"/>
  <path d="M18.5078 38.9273C18.5078 38.9273 19.0018 36.8104 20.0038 37.5161C21.0058 38.2217 23.0944 43.7821 23.0944 43.7821C23.0944 43.7821 21.7537 46.6046 22.5017 47.4655C23.2497 48.3264 24.6892 50.0763 24.6892 50.0763" stroke="black" stroke-width="1.2" stroke-miterlimit="2.61313" stroke-linecap="round" stroke-linejoin="round"/>
  <path d="M79.9445 38.3764C81.0357 38.3764 81.9203 37.4918 81.9203 36.4006C81.9203 35.3094 81.0357 34.4248 79.9445 34.4248C78.8533 34.4248 77.9688 35.3094 77.9688 36.4006C77.9688 37.4918 78.8533 38.3764 79.9445 38.3764Z" fill="black"/>
  <path d="M78.5746 36.1913C78.9955 36.1913 79.3367 35.8501 79.3367 35.4292C79.3367 35.0083 78.9955 34.6671 78.5746 34.6671C78.1537 34.6671 77.8125 35.0083 77.8125 35.4292C77.8125 35.8501 78.1537 36.1913 78.5746 36.1913Z" fill="white"/>
  <path fill-rule="evenodd" clip-rule="evenodd" d="M72.0494 38.8733C69.8196 38.5488 75.2812 35.2746 75.5352 35.0911C76.7489 34.2303 78.3436 33.694 80.0513 33.6093C83.9181 33.4117 85.5552 35.0065 88.3213 37.1798C88.3213 37.1798 87.2911 37.0387 86.1762 38.2665C85.0613 39.4943 80.771 40.962 77.0453 40.0588C73.3195 39.1556 72.0211 38.8875 72.0211 38.8875L72.0494 38.8733Z" stroke="black" stroke-width="1.2" stroke-miterlimit="2.61313" stroke-linecap="round" stroke-linejoin="round"/>
  <mask id="mask1_406_24349" style="mask-type:alpha" maskUnits="userSpaceOnUse" x="75" y="32" width="10" height="9">
    <path d="M79.944 39.9866C81.9237 39.9866 83.5286 38.3817 83.5286 36.402C83.5286 34.4223 81.9237 32.8174 79.944 32.8174C77.9643 32.8174 76.3594 34.4223 76.3594 36.402C76.3594 38.3817 77.9643 39.9866 79.944 39.9866Z" stroke="black" stroke-width="1.2" stroke-miterlimit="2.61313" stroke-linecap="round" stroke-linejoin="round"/>
  </mask>
  <g mask="url(#mask1_406_24349)">
    <path fill-rule="evenodd" clip-rule="evenodd" d="M72.0494 38.8733C69.8196 38.5488 75.2812 35.2746 75.5352 35.0911C76.7489 34.2303 78.3436 33.694 80.0513 33.6093C83.9181 33.4117 85.5552 35.0065 88.3213 37.1798C88.3213 37.1798 87.2911 37.0387 86.1762 38.2665C85.0613 39.4943 80.771 40.962 77.0453 40.0588C73.3195 39.1556 72.0211 38.8875 72.0211 38.8875L72.0494 38.8733Z" fill="black" stroke="black" stroke-width="1.2" stroke-miterlimit="2.61313" stroke-linecap="round" stroke-linejoin="round"/>
  </g>
  <path d="M72.5703 37.46C72.5703 37.46 73.2618 38.1797 72.9796 39.0124" stroke="black" stroke-width="1.2" stroke-miterlimit="2.61313" stroke-linecap="round" stroke-linejoin="round"/>
  <path d="M71.7188 36.4456C71.7188 36.4456 74.2449 32.0425 80.1722 31.986C86.0995 31.9296 89.035 35.5424 89.035 35.5424" stroke="black" stroke-width="1.2" stroke-miterlimit="2.61313" stroke-linecap="round" stroke-linejoin="round"/>
  <path fill-rule="evenodd" clip-rule="evenodd" d="M70.9903 30.1637C70.9903 30.1637 69.9318 28.7948 72.9802 27.2001C72.9802 27.2001 84.0727 23.9118 86.6553 24.2364C89.238 24.561 93.2883 27.7928 93.2883 27.7928C93.2883 27.7928 88.7722 26.0569 83.607 27.4259C78.4418 28.7948 71.5125 30.7141 70.9903 30.1637V30.1637Z" stroke="black" stroke-width="1.2" stroke-miterlimit="2.61313" stroke-linecap="round" stroke-linejoin="round"/>
  <path d="M62.1406 62.0611C62.1406 62.0611 63.5942 62.1035 64.1728 61.4402C64.7656 60.7769 66.2474 60.1842 67.4188 60.2688" stroke="black" stroke-width="1.2" stroke-miterlimit="2.61313" stroke-linecap="round" stroke-linejoin="round"/>
  <path d="M69.1169 56.9775C69.1169 56.9775 71.0786 61.0843 67 61.7617" stroke="black" stroke-width="1.2" stroke-miterlimit="2.61313" stroke-linecap="round" stroke-linejoin="round"/>
  <path d="M68.3299 34.876C68.3299 34.876 64.8017 38.009 65.5074 46.6318" stroke="black" stroke-width="1.2" stroke-miterlimit="2.61313" stroke-linecap="round" stroke-linejoin="round"/>
  <path d="M61.9297 74.7461C61.9297 74.7461 62.6494 74.7038 63.5526 74.3368C64.4559 73.9699 68.9578 73.7864 71.1453 74.2945C73.3327 74.8026 74.0101 73.5889 76.3528 73.5889" stroke="black" stroke-width="1.2" stroke-miterlimit="2.61313" stroke-linecap="round" stroke-linejoin="round"/>
  <path d="M102.737 35.1025C102.737 35.1025 98.0518 54.8038 95.5539 65.0637C93.0418 75.3236 92.4209 77.0454 86.9451 82.2106C81.4553 87.3759 70.9414 97.0995 61.9375 97.0995" stroke="black" stroke-width="1.2" stroke-miterlimit="2.61313" stroke-linecap="round" stroke-linejoin="round"/>
  <path d="M106.128 32.3916C106.128 32.3916 109.148 32.4339 108.132 36.823C107.116 41.212 103.433 47.5486 102.967 52.2481C102.501 56.9476 100.653 58.3307 97.2656 58.0343" stroke="black" stroke-width="1.2" stroke-miterlimit="2.61313" stroke-linecap="round" stroke-linejoin="round"/>
  <path d="M105.345 38.9273C105.345 38.9273 104.851 36.8104 103.849 37.5161C102.847 38.2217 100.759 43.7821 100.759 43.7821C100.759 43.7821 102.099 46.6046 101.352 47.4655C100.604 48.3264 99.1641 50.0763 99.1641 50.0763" stroke="black" stroke-width="1.2" stroke-miterlimit="2.61313" stroke-linecap="round" stroke-linejoin="round"/>
  <path fill-rule="evenodd" clip-rule="evenodd" d="M116.18 82.6268C114.447 86.3928 110.689 91.9937 109.579 91.6731L93.2066 81.8275C93.2066 81.8275 92.3068 81.3572 92.7298 79.8766L93.2732 78.7728L95.5876 74.9242L97.902 71.0756L98.6222 70.0782C99.7348 69.0052 100.569 69.5847 100.569 69.5847L117.317 79.6561" stroke="black" stroke-miterlimit="2.61313"/>
  <path d="M103.905 76.8222L103.463 76.5564L103.694 76.1715L103.692 76.1632C103.635 76.1995 103.573 76.2328 103.505 76.2629C103.437 76.293 103.367 76.3148 103.296 76.3283C103.224 76.3417 103.145 76.3437 103.067 76.3322C102.989 76.3207 102.912 76.2956 102.834 76.2487C102.678 76.1549 102.592 76.0257 102.575 75.8665C102.557 75.7072 102.608 75.5397 102.718 75.3577L103.443 74.1511L103.906 74.4294L103.196 75.61C103.134 75.714 103.11 75.8129 103.122 75.8982C103.135 75.9836 103.189 76.0586 103.277 76.1118C103.355 76.1587 103.43 76.1754 103.507 76.1651C103.584 76.1547 103.654 76.133 103.723 76.0893L104.504 74.7891L104.967 75.0675L103.913 76.8201L103.905 76.8222ZM108.121 76.9357L108.048 76.8919L108.064 76.8659L108.246 76.9754L108.23 77.0014L108.158 76.9576L108.042 77.15L108.011 77.1313L108.126 76.9388L108.121 76.9357ZM108.349 77.3346L108.446 77.1733L108.289 77.2564L108.274 77.2471L108.274 77.0701L108.18 77.2261L108.149 77.2074L108.28 76.9889L108.306 77.0046L108.306 77.2169L108.488 77.114L108.514 77.1297L108.383 77.3481L108.352 77.3294L108.349 77.3346ZM106.18 75.7826C106.104 75.7795 106.025 75.7815 105.953 75.7949C105.876 75.8052 105.801 75.8239 105.728 75.8509C105.659 75.8727 105.597 75.8924 105.544 75.91L105.76 75.5512L105.297 75.2728L104.693 76.2766L104.243 77.0255L104.711 77.307L105.502 75.9912C105.564 75.9715 105.614 75.959 105.666 75.9549C105.715 75.956 105.755 75.9592 105.787 75.9779C105.807 75.9904 105.83 76.0113 105.858 76.0352C105.883 76.0644 105.908 76.0936 105.938 76.1259C105.96 76.1602 105.982 76.1946 106.004 76.229C106.022 76.2685 106.036 76.305 106.039 76.3352L106.075 76.3571L106.388 75.837C106.321 75.7963 106.268 75.7786 106.192 75.7754L106.18 75.7826ZM101.938 76.1136C101.75 76.001 101.564 75.9102 101.389 75.8476C101.209 75.7819 101.046 75.7473 100.891 75.7461C100.736 75.745 100.592 75.7719 100.462 75.8352C100.332 75.8986 100.229 75.9994 100.141 76.1451L100.063 76.0982C100.076 76.0773 100.082 76.0669 100.082 76.0669C100.19 75.8984 100.327 75.7539 100.483 75.6354C100.656 75.5128 100.845 75.4214 101.045 75.3716C101.248 75.3167 101.453 75.3054 101.667 75.3275C101.88 75.3496 102.084 75.4226 102.282 75.5415L101.934 76.1188L101.938 76.1136ZM100.766 74.9061C100.911 74.9937 101.05 75.0344 101.194 75.0293C101.339 75.0243 101.476 74.9859 101.615 74.907C101.751 74.8332 101.883 74.7209 102.011 74.5785C102.139 74.436 102.258 74.2738 102.374 74.0813C102.486 73.8941 102.577 73.7079 102.643 73.5279C102.708 73.3479 102.743 73.1845 102.747 73.0242C102.748 72.8692 102.722 72.7255 102.658 72.5954C102.595 72.4652 102.494 72.362 102.348 72.2745C102.203 72.1869 102.064 72.1462 101.92 72.1512C101.775 72.1563 101.635 72.1999 101.499 72.2736C101.359 72.3526 101.231 72.4597 101.103 72.6021C100.975 72.7446 100.856 72.9068 100.744 73.0941C100.631 73.2813 100.543 73.4623 100.478 73.6423C100.412 73.8223 100.377 73.9857 100.373 74.1459C100.372 74.301 100.399 74.4447 100.462 74.5748C100.526 74.705 100.626 74.8081 100.772 74.8957L100.766 74.9061ZM100.618 74.9164C100.479 74.8184 100.355 74.6944 100.259 74.559C100.137 74.3861 100.045 74.1966 99.9955 73.9967C99.9457 73.7968 99.9292 73.5887 99.9513 73.3753C99.9734 73.162 100.046 72.9581 100.165 72.7604C100.281 72.568 100.427 72.4079 100.608 72.2832C100.786 72.1636 100.976 72.0722 101.181 72.0256C101.381 71.9758 101.591 71.9677 101.801 71.995C102.011 72.0223 102.21 72.0922 102.392 72.2017C102.574 72.3111 102.729 72.4539 102.852 72.6268C102.974 72.7997 103.066 72.9892 103.116 73.1891C103.17 73.3921 103.179 73.6023 103.157 73.8157C103.134 74.029 103.061 74.2329 102.943 74.4306C102.827 74.623 102.681 74.7831 102.5 74.9078C102.322 75.0273 102.132 75.1187 101.93 75.1602C101.725 75.2068 101.52 75.2181 101.31 75.1908C101.113 75.1646 100.928 75.0957 100.753 74.9977C100.753 74.9977 100.665 74.9445 100.616 74.908L100.618 74.9164ZM106.475 76.8237C106.53 76.7437 106.587 76.6719 106.652 76.6116C106.711 76.5482 106.775 76.5014 106.84 76.4629C106.906 76.4245 106.967 76.4048 107.033 76.4017C107.099 76.3987 107.16 76.4143 107.217 76.4488C107.311 76.505 107.359 76.5904 107.364 76.6997C107.369 76.809 107.277 77.0088 107.171 77.1856L107.102 77.3L106.286 77.2201C106.313 77.116 106.359 77.0162 106.431 76.8965L106.475 76.8237ZM107.207 78.114C107.126 78.1431 107.027 78.1544 106.924 78.1491C106.816 78.1407 106.704 78.1021 106.59 78.0333C106.502 77.9801 106.428 77.9144 106.365 77.8415C106.303 77.7686 106.269 77.6843 106.249 77.5875C106.232 77.499 106.239 77.4043 106.261 77.2971L107.613 77.4514C107.613 77.4514 107.714 77.2715 107.684 76.9561C107.674 76.8437 107.613 76.7437 107.553 76.6437C107.488 76.5406 107.396 76.4573 107.282 76.3884C107.173 76.3228 107.051 76.2779 106.919 76.2621C106.786 76.2464 106.655 76.2525 106.524 76.294C106.396 76.3303 106.266 76.3937 106.15 76.4799C106.032 76.5714 105.927 76.6858 105.84 76.8314C105.765 76.9562 105.714 77.0884 105.69 77.2226C105.665 77.3569 105.666 77.4849 105.689 77.6119C105.712 77.7389 105.763 77.8544 105.839 77.9638C105.915 78.0732 106.016 78.1628 106.146 78.241C106.344 78.3598 106.542 78.4079 106.729 78.3789C106.917 78.35 107.086 78.2679 107.235 78.138L107.221 78.1151L107.207 78.114Z" fill="black"/>
  <path fill-rule="evenodd" clip-rule="evenodd" d="M100.486 78.4883L100.489 78.4831C100.526 78.4696 100.557 78.453 100.585 78.4415C100.608 78.427 100.631 78.4124 100.654 78.3979C100.671 78.3802 100.692 78.3574 100.71 78.3397C100.731 78.3168 100.746 78.2908 100.768 78.2544L101.244 77.4639C101.259 77.4379 101.267 77.4139 101.271 77.3952C101.278 77.3713 101.282 77.3525 101.281 77.3307C101.28 77.3088 101.279 77.287 101.273 77.262C101.267 77.237 101.261 77.212 101.249 77.1839L101.252 77.1787L101.507 77.3319L101.346 78.6942L102.464 77.9074L102.703 78.0513L102.7 78.0565C102.665 78.0564 102.637 78.0679 102.612 78.0741C102.587 78.0803 102.564 78.0949 102.544 78.1042C102.521 78.1188 102.503 78.1364 102.486 78.1541C102.465 78.177 102.449 78.203 102.43 78.2342L101.968 79.0039C101.949 79.0351 101.933 79.0611 101.926 79.0851C101.913 79.1059 101.906 79.1298 101.899 79.1537C101.891 79.1776 101.887 79.1964 101.885 79.2234C101.883 79.2505 101.881 79.2776 101.884 79.3077L101.881 79.3129L101.595 79.1409L101.598 79.1357C101.626 79.1243 101.649 79.1098 101.672 79.0952C101.695 79.0807 101.709 79.0682 101.727 79.0505C101.745 79.0328 101.762 79.0152 101.775 78.9944C101.787 78.9736 101.811 78.9455 101.827 78.9195L102.359 78.0353L101.192 78.8564L101.161 78.8376L101.327 77.4077L100.81 78.2794C100.791 78.3106 100.772 78.3418 100.762 78.3709C100.751 78.4001 100.744 78.424 100.742 78.4511C100.74 78.4781 100.738 78.5052 100.741 78.5354C100.744 78.5656 100.749 78.6041 100.76 78.6457L100.756 78.6509L100.486 78.4883ZM102.924 78.3679C102.908 78.3939 102.885 78.4085 102.86 78.4147C102.835 78.4209 102.808 78.4188 102.782 78.4031C102.756 78.3875 102.747 78.3677 102.735 78.3396C102.729 78.3146 102.731 78.2876 102.747 78.2616C102.762 78.2356 102.782 78.2262 102.81 78.2148C102.835 78.2086 102.862 78.2107 102.888 78.2263C102.914 78.242 102.924 78.2617 102.935 78.2899C102.941 78.3148 102.939 78.3419 102.924 78.3679ZM102.044 79.4182C102.082 79.3912 102.117 79.3559 102.147 79.3174C102.177 79.2789 102.211 79.2352 102.248 79.1728L102.445 78.8451C102.47 78.8035 102.482 78.7609 102.485 78.7203C102.485 78.6849 102.48 78.6464 102.474 78.6214L102.477 78.6162L102.741 78.6477L102.378 79.251C102.341 79.3134 102.31 79.3654 102.293 79.4049C102.273 79.4497 102.262 79.4923 102.252 79.5433L102.249 79.5485L102.041 79.4234L102.044 79.4182ZM103.221 79.8638C103.154 79.9158 103.086 79.9459 103.004 79.9531C102.922 79.9603 102.842 79.9405 102.753 79.8873C102.696 79.8529 102.651 79.8112 102.616 79.7623C102.582 79.7133 102.556 79.6623 102.541 79.604C102.527 79.5457 102.529 79.4832 102.545 79.4218C102.555 79.3573 102.588 79.2918 102.625 79.2294C102.669 79.1566 102.717 79.1004 102.777 79.0588C102.838 79.0173 102.897 78.9892 102.964 78.9726C103.03 78.9561 103.096 78.953 103.16 78.9635C103.225 78.9739 103.288 78.9979 103.345 79.0323C103.403 79.0668 103.452 79.1032 103.479 79.1407C103.509 79.173 103.531 79.2074 103.548 79.2251L103.454 79.4165L103.436 79.4123C103.436 79.3769 103.431 79.3384 103.431 79.303C103.425 79.2645 103.417 79.2312 103.406 79.2031C103.394 79.175 103.378 79.1437 103.358 79.1177C103.338 79.0917 103.315 79.0708 103.289 79.0552C103.201 79.002 103.114 78.9926 103.022 79.0289C102.929 79.0652 102.85 79.138 102.778 79.2576C102.709 79.3721 102.682 79.4761 102.693 79.575C102.705 79.6739 102.764 79.752 102.863 79.8114C102.915 79.8427 102.968 79.8604 103.024 79.873C103.08 79.8855 103.141 79.8794 103.197 79.8565L103.204 79.868L103.221 79.8638ZM103.266 80.1532C103.289 80.1387 103.304 80.1262 103.322 80.1085C103.339 80.0908 103.354 80.0784 103.369 80.0523C103.382 80.0315 103.4 80.0139 103.415 79.9879C103.431 79.9619 103.447 79.9359 103.465 79.9047L103.666 79.5718C103.694 79.525 103.705 79.4823 103.705 79.4469C103.705 79.4116 103.7 79.373 103.694 79.3481L103.697 79.3429L103.951 79.3681L103.823 79.5813L103.833 79.5876C103.866 79.5793 103.894 79.5679 103.931 79.5544C103.967 79.5409 104.001 79.5326 104.039 79.5274C104.073 79.5191 104.108 79.5192 104.143 79.5192C104.179 79.5192 104.208 79.5297 104.239 79.5484L104.133 79.7253L104.127 79.7221C104.125 79.7138 104.118 79.7024 104.111 79.6909C104.104 79.6794 104.091 79.6649 104.081 79.6586C104.068 79.644 104.058 79.6378 104.045 79.6232C104.035 79.6169 104.022 79.6023 104.012 79.5961C103.996 79.5867 103.969 79.5846 103.931 79.5898C103.892 79.5949 103.851 79.6053 103.811 79.624L103.602 79.9724C103.564 80.0348 103.533 80.0869 103.516 80.1264C103.496 80.1711 103.485 80.2138 103.475 80.2648L103.472 80.27L103.264 80.1449L103.267 80.1397L103.266 80.1532ZM104.22 80.7693C104.158 80.7317 104.107 80.6869 104.07 80.6296C104.034 80.5724 104.006 80.513 103.989 80.4464C103.973 80.3798 103.97 80.3142 103.98 80.2497C103.985 80.182 104.009 80.1186 104.047 80.0561C104.085 79.9937 104.129 79.9428 104.187 79.9064C104.244 79.87 104.306 79.8368 104.37 79.8254C104.437 79.8088 104.502 79.8058 104.57 79.811C104.637 79.8163 104.701 79.8403 104.763 79.8778C104.826 79.9154 104.877 79.9602 104.913 80.0175C104.949 80.0747 104.977 80.1341 104.994 80.2007C105.011 80.2673 105.014 80.3329 105.003 80.3974C104.998 80.4651 104.971 80.5338 104.936 80.591C104.899 80.6534 104.854 80.7043 104.797 80.7407C104.739 80.7771 104.68 80.8051 104.619 80.8248C104.552 80.8414 104.486 80.8445 104.419 80.8392C104.351 80.8339 104.288 80.8099 104.225 80.7724L104.22 80.7693ZM104.239 80.7381C104.291 80.7693 104.339 80.784 104.388 80.785C104.437 80.7861 104.487 80.7737 104.534 80.7529C104.582 80.7322 104.626 80.6947 104.67 80.6573C104.712 80.6116 104.748 80.5627 104.779 80.5107C104.814 80.4535 104.84 80.3983 104.852 80.3421C104.873 80.2839 104.877 80.2297 104.873 80.1777C104.869 80.1257 104.857 80.0757 104.836 80.0278C104.812 79.9851 104.777 79.9497 104.725 79.9184C104.673 79.8871 104.625 79.8725 104.576 79.8714C104.527 79.8703 104.477 79.8828 104.426 79.9087C104.378 79.9295 104.334 79.9669 104.291 80.0044C104.249 80.0501 104.207 80.0959 104.176 80.1479C104.142 80.2051 104.115 80.2602 104.098 80.3133C104.077 80.3715 104.073 80.4257 104.077 80.4777C104.081 80.5297 104.093 80.5797 104.117 80.6224C104.141 80.6651 104.176 80.7005 104.228 80.7318L104.239 80.7381ZM105.104 81.2656C105.132 81.2541 105.155 81.2396 105.178 81.225C105.201 81.2105 105.216 81.198 105.233 81.1803C105.251 81.1627 105.269 81.145 105.281 81.1242C105.294 81.1034 105.315 81.0805 105.333 81.0493L105.793 80.2848C105.812 80.2536 105.828 80.2276 105.835 80.2036C105.847 80.1828 105.855 80.1589 105.862 80.135C105.869 80.111 105.874 80.0923 105.876 80.0653C105.878 80.0382 105.88 80.0111 105.877 79.981L105.88 79.9758L106.166 80.1478L106.163 80.153C106.135 80.1644 106.112 80.1789 106.089 80.1935C106.066 80.208 106.051 80.2205 106.034 80.2382C106.016 80.2559 105.998 80.2735 105.986 80.2943C105.973 80.3151 105.952 80.338 105.934 80.3692L105.474 81.1338C105.455 81.165 105.439 81.191 105.432 81.2149C105.42 81.2357 105.412 81.2596 105.405 81.2836C105.398 81.3075 105.394 81.3262 105.391 81.3533C105.389 81.3803 105.387 81.4074 105.39 81.4376L105.387 81.4428L105.101 81.2708L105.104 81.2656ZM105.756 81.6648L105.548 81.5397L105.552 81.5345C105.574 81.52 105.589 81.5075 105.607 81.4898C105.624 81.4722 105.639 81.4597 105.655 81.4337C105.667 81.4129 105.685 81.3952 105.701 81.3692C105.716 81.3432 105.732 81.3172 105.751 81.286L105.951 80.9531C105.979 80.9063 105.99 80.8637 105.99 80.8283C105.99 80.7929 105.985 80.7544 105.979 80.7294L105.982 80.7242L106.236 80.7494L106.136 80.9158L106.141 80.919C106.214 80.892 106.283 80.8837 106.35 80.889C106.418 80.8943 106.48 80.9099 106.542 80.9475C106.625 80.9975 106.675 81.0558 106.689 81.1277C106.702 81.1995 106.685 81.2744 106.638 81.3524L106.435 81.6905C106.416 81.7217 106.398 81.7529 106.385 81.7737C106.369 81.7997 106.357 81.8205 106.35 81.8444C106.337 81.8652 106.33 81.8892 106.322 81.9131C106.315 81.937 106.311 81.9558 106.309 81.9828L106.306 81.988L106.098 81.8629L106.101 81.8577C106.138 81.8307 106.174 81.7954 106.204 81.7569C106.234 81.7184 106.262 81.6716 106.3 81.6092L106.484 81.3023C106.5 81.2763 106.51 81.2472 106.521 81.2181C106.531 81.1889 106.533 81.1619 106.527 81.1369C106.524 81.1067 106.515 81.0869 106.495 81.0609C106.475 81.0348 106.452 81.014 106.421 80.9952C106.38 80.9702 106.332 80.9556 106.281 80.9462C106.23 80.9368 106.172 80.9377 106.119 80.9554L105.875 81.361C105.838 81.4235 105.807 81.4755 105.79 81.515C105.77 81.5597 105.759 81.6024 105.749 81.6534L105.746 81.6586L105.756 81.6648ZM106.503 82.1069C106.535 82.0903 106.561 82.0705 106.588 82.0372C106.615 82.004 106.651 81.9551 106.692 81.8875L107.03 81.3258L106.92 81.2601L106.939 81.2289L107.048 81.2946L107.139 81.1437C107.177 81.0813 107.213 81.0324 107.257 80.995C107.301 80.9576 107.346 80.9285 107.391 80.9129C107.436 80.8974 107.483 80.8901 107.532 80.8912C107.578 80.8975 107.625 80.9121 107.667 80.9371C107.693 80.9528 107.716 80.9736 107.734 80.9913C107.751 81.009 107.764 81.0236 107.771 81.0351L107.695 81.2088L107.681 81.2078C107.683 81.1807 107.677 81.1557 107.674 81.1255C107.671 81.0954 107.67 81.0735 107.664 81.0485C107.658 81.0235 107.648 81.0037 107.644 80.9871C107.635 80.9673 107.622 80.9527 107.607 80.9433C107.57 80.9214 107.527 80.9235 107.472 80.9546C107.418 80.9858 107.367 81.0472 107.311 81.1408L107.173 81.3696L107.381 81.4947L107.363 81.5259L107.155 81.4008L106.817 81.9625C106.776 82.0301 106.75 82.0853 106.733 82.1248C106.717 82.1643 106.711 82.1966 106.711 82.232L106.708 82.2372L106.495 82.109L106.498 82.1037L106.503 82.1069ZM107.632 82.5732C107.601 82.5899 107.568 82.5982 107.539 82.6096C107.506 82.6179 107.473 82.6262 107.439 82.6345C107.409 82.6375 107.374 82.6375 107.336 82.6291C107.299 82.6208 107.265 82.6072 107.228 82.5853C107.15 82.5384 107.109 82.478 107.1 82.4093C107.092 82.3406 107.112 82.2605 107.162 82.1773L107.428 81.7352C107.45 81.6988 107.463 81.6645 107.46 81.6343C107.46 81.5989 107.454 81.5739 107.443 81.5458L107.446 81.5406L107.649 81.6626L107.308 82.2295C107.23 82.3595 107.246 82.4615 107.361 82.5303C107.413 82.5616 107.46 82.5762 107.509 82.5773C107.558 82.5784 107.6 82.568 107.639 82.5493L107.94 82.05C107.98 81.9824 107.982 81.92 107.952 81.8523L107.955 81.8471L108.164 81.9722L107.804 82.5703C107.782 82.6067 107.763 82.6379 107.756 82.6618C107.749 82.6858 107.736 82.7066 107.737 82.7284C107.733 82.7472 107.737 82.7638 107.741 82.7805C107.745 82.7971 107.753 82.8086 107.762 82.8284L107.759 82.8336L107.527 82.7719L107.636 82.5899L107.632 82.5732ZM108.759 82.5712L108.746 82.5702C108.75 82.4807 108.737 82.4089 108.711 82.3578C108.685 82.3068 108.649 82.2714 108.608 82.2464C108.556 82.2151 108.505 82.2057 108.458 82.2129C108.411 82.2201 108.373 82.2472 108.348 82.2888C108.333 82.3148 108.322 82.3439 108.329 82.3689C108.326 82.396 108.338 82.4241 108.352 82.447C108.364 82.4751 108.384 82.5011 108.4 82.5324C108.42 82.5584 108.445 82.5876 108.467 82.6219C108.492 82.6511 108.514 82.6855 108.535 82.7199C108.557 82.7542 108.574 82.7855 108.582 82.8188C108.596 82.8552 108.596 82.8906 108.592 82.9312C108.589 82.9718 108.573 83.0113 108.548 83.0529C108.497 83.1361 108.432 83.1746 108.347 83.187C108.264 83.1942 108.174 83.1681 108.075 83.1086C108.023 83.0774 107.979 83.044 107.944 83.0086C107.909 82.9732 107.878 82.9409 107.857 82.9065L107.963 82.6943L107.976 82.6954C107.966 82.7953 107.973 82.8775 107.996 82.9337C108.016 82.9951 108.058 83.042 108.121 83.0796C108.183 83.1171 108.245 83.1328 108.298 83.1151C108.351 83.0975 108.388 83.0705 108.413 83.0288C108.429 83.0028 108.436 82.9789 108.438 82.9518C108.44 82.9248 108.434 82.8998 108.428 82.8748C108.417 82.8467 108.405 82.8186 108.385 82.7926C108.366 82.7665 108.346 82.7405 108.324 82.7061C108.299 82.6769 108.283 82.6457 108.258 82.6165C108.236 82.5822 108.219 82.5509 108.206 82.5145C108.192 82.478 108.187 82.4395 108.187 82.4041C108.19 82.3636 108.199 82.3261 108.224 82.2845C108.249 82.2429 108.281 82.2127 108.315 82.1909C108.35 82.1691 108.388 82.1639 108.427 82.1588C108.465 82.1536 108.508 82.1651 108.542 82.1786C108.582 82.1953 108.621 82.212 108.658 82.2339C108.694 82.2558 108.733 82.286 108.766 82.3131C108.799 82.3402 108.824 82.3694 108.844 82.3954L108.756 82.5764L108.759 82.5712ZM109.422 82.2826C109.406 82.3086 109.383 82.3231 109.358 82.3293C109.333 82.3356 109.306 82.3334 109.28 82.3178C109.254 82.3022 109.245 82.2824 109.233 82.2543C109.227 82.2293 109.229 82.2022 109.245 82.1762C109.26 82.1502 109.28 82.1409 109.308 82.1295C109.333 82.1232 109.36 82.1253 109.386 82.141C109.412 82.1566 109.422 82.1764 109.433 82.2045C109.439 82.2295 109.437 82.2566 109.422 82.2826ZM108.542 83.3329C108.58 83.3059 108.615 83.2705 108.645 83.232C108.675 83.1936 108.709 83.1499 108.746 83.0875L108.943 82.7598C108.968 82.7182 108.98 82.6755 108.983 82.635C108.983 82.5996 108.978 82.5611 108.972 82.5361L108.975 82.5309L109.239 82.5624L108.876 83.1656C108.839 83.2281 108.807 83.2801 108.791 83.3196C108.771 83.3643 108.759 83.407 108.75 83.458L108.747 83.4632L108.539 83.3381L108.542 83.3329ZM109.303 83.8332C109.241 83.7957 109.19 83.7509 109.154 83.6936C109.117 83.6363 109.089 83.577 109.073 83.5103C109.056 83.4437 109.053 83.3781 109.063 83.3136C109.069 83.246 109.093 83.1825 109.13 83.1201C109.168 83.0577 109.213 83.0067 109.27 82.9704C109.327 82.934 109.39 82.9008 109.453 82.8894C109.52 82.8728 109.585 82.8697 109.653 82.875C109.721 82.8803 109.784 82.9043 109.847 82.9418C109.909 82.9793 109.96 83.0241 109.996 83.0814C110.033 83.1387 110.061 83.1981 110.077 83.2647C110.094 83.3313 110.097 83.3969 110.086 83.4614C110.081 83.529 110.054 83.5977 110.02 83.6549C109.982 83.7173 109.937 83.7683 109.88 83.8047C109.823 83.841 109.763 83.8691 109.702 83.8888C109.635 83.9054 109.57 83.9084 109.502 83.9032C109.434 83.8979 109.371 83.8739 109.309 83.8364L109.303 83.8332ZM109.322 83.802C109.374 83.8333 109.422 83.8479 109.471 83.849C109.52 83.8501 109.57 83.8377 109.618 83.8169C109.666 83.7961 109.709 83.7587 109.753 83.7213C109.795 83.6755 109.831 83.6266 109.863 83.5746C109.897 83.5174 109.923 83.4623 109.936 83.4061C109.956 83.3478 109.961 83.2937 109.957 83.2417C109.952 83.1896 109.94 83.1397 109.919 83.0918C109.895 83.0491 109.86 83.0136 109.808 82.9824C109.756 82.9511 109.708 82.9365 109.659 82.9354C109.61 82.9343 109.56 82.9467 109.509 82.9727C109.461 82.9935 109.418 83.0309 109.374 83.0683C109.332 83.1141 109.291 83.1598 109.259 83.2118C109.225 83.269 109.199 83.3242 109.181 83.3772C109.16 83.4355 109.156 83.4896 109.16 83.5417C109.164 83.5937 109.177 83.6437 109.201 83.6864C109.224 83.7291 109.26 83.7645 109.312 83.7958L109.322 83.802ZM110.115 84.2857L109.907 84.1606L109.91 84.1554C109.933 84.1409 109.947 84.1284 109.965 84.1107C109.983 84.0931 109.997 84.0806 110.013 84.0546C110.026 84.0338 110.043 84.0161 110.059 83.9901C110.074 83.9641 110.09 83.9381 110.109 83.9069L110.309 83.574C110.337 83.5272 110.349 83.4846 110.349 83.4492C110.349 83.4138 110.344 83.3753 110.337 83.3503L110.341 83.3451L110.594 83.3703L110.494 83.5367L110.5 83.5399C110.572 83.5129 110.641 83.5046 110.709 83.5099C110.776 83.5152 110.838 83.5308 110.9 83.5684C110.983 83.6184 111.033 83.6767 111.047 83.7486C111.06 83.8204 111.044 83.8953 110.997 83.9733L110.793 84.3114C110.775 84.3426 110.756 84.3738 110.743 84.3946C110.728 84.4206 110.715 84.4414 110.708 84.4653C110.695 84.4861 110.688 84.5101 110.681 84.534C110.673 84.5579 110.669 84.5767 110.667 84.6037L110.664 84.6089L110.456 84.4838L110.459 84.4786C110.497 84.4516 110.532 84.4163 110.562 84.3778C110.592 84.3393 110.621 84.2925 110.658 84.2301L110.843 83.9232C110.858 83.8972 110.869 83.8681 110.879 83.839C110.89 83.8098 110.892 83.7828 110.885 83.7578C110.882 83.7276 110.873 83.7078 110.853 83.6818C110.834 83.6557 110.811 83.6349 110.779 83.6161C110.738 83.5911 110.69 83.5765 110.639 83.5671C110.588 83.5577 110.531 83.5586 110.478 83.5763L110.234 83.9819C110.196 84.0444 110.165 84.0964 110.148 84.1359C110.128 84.1806 110.117 84.2233 110.107 84.2743L110.104 84.2795L110.115 84.2857Z" fill="black"/>
  <path d="M107.195 78.8877L113.806 82.8628" stroke="black" stroke-width="0.5"/>
  <path d="M108.257 81.4038L111.169 75.803" stroke="black" stroke-width="0.5"/>
  <path fill-rule="evenodd" clip-rule="evenodd" d="M88.0544 78.6948L91.9082 81.0124L95.5737 74.917L99.2392 68.8216L95.3854 66.5041C94.7666 67.0384 91.5014 72.4681 91.5014 72.4681C91.5014 72.4681 88.2363 77.8978 88.0544 78.6948Z" fill="white" stroke="black" stroke-miterlimit="2.61313"/>
  <path fill-rule="evenodd" clip-rule="evenodd" d="M88.5289 77.6679C87.6344 77.13 86.2946 76.4022 85.1162 75.5236C83.5749 74.3772 82.3086 72.9855 82.6463 71.4465L84.5354 68.3052L86.4244 65.1638C88.5526 63.356 92.6182 66.2046 94.6777 67.4431C93.5135 69.1436 91.5118 72.4722 91.5118 72.4722L91.4993 72.493C91.3367 72.7634 89.4372 75.9338 88.5289 77.6679Z" stroke="black" stroke-miterlimit="2.61313"/>
  <path d="M86.5855 76.5093C87.9323 73.3748 90.5939 68.9488 92.7281 66.2949" stroke="black" stroke-miterlimit="2.61313"/>
  <path d="M81.4297 71.292L87.265 74.8011" stroke="black" stroke-miterlimit="2.61313" stroke-linecap="round" stroke-linejoin="round"/>
  <path d="M82.2891 69.8662L88.1244 73.3753" stroke="black" stroke-miterlimit="2.61313" stroke-linecap="round" stroke-linejoin="round"/>
  <path d="M83.1484 68.4365L88.9838 71.9457" stroke="black" stroke-miterlimit="2.61313" stroke-linecap="round" stroke-linejoin="round"/>
  <path d="M84.0078 67.0068L89.8432 70.516" stroke="black" stroke-miterlimit="2.61313" stroke-linecap="round" stroke-linejoin="round"/>
  <path d="M84.8672 65.5771L90.7025 69.0863" stroke="black" stroke-miterlimit="2.61313" stroke-linecap="round" stroke-linejoin="round"/>
  <path d="M85.7266 64.1514L91.5619 67.6605" stroke="black" stroke-miterlimit="2.61313" stroke-linecap="round" stroke-linejoin="round"/>
</svg>