<svg xmlns="http://www.w3.org/2000/svg" width="121" height="116" viewBox="0 0 121 116" fill="none">
  <path d="M43.9211 38.3768C45.0123 38.3768 45.8969 37.4923 45.8969 36.4011C45.8969 35.3099 45.0123 34.4253 43.9211 34.4253C42.8299 34.4253 41.9453 35.3099 41.9453 36.4011C41.9453 37.4923 42.8299 38.3768 43.9211 38.3768Z" fill="black"/>
  <path d="M42.5668 36.1916C42.9877 36.1916 43.3289 35.8504 43.3289 35.4296C43.3289 35.0087 42.9877 34.6675 42.5668 34.6675C42.1459 34.6675 41.8047 35.0087 41.8047 35.4296C41.8047 35.8504 42.1459 36.1916 42.5668 36.1916Z" fill="white"/>
  <path fill-rule="evenodd" clip-rule="evenodd" d="M51.8032 38.8738C54.033 38.5492 48.5714 35.2751 48.3173 35.0916C47.1036 34.2308 45.5089 33.6945 43.8013 33.6098C39.9344 33.4122 38.2973 35.007 35.5312 37.1803C35.5312 37.1803 36.5615 37.0392 37.6764 38.267C38.7913 39.4948 43.0815 40.9625 46.8073 40.0593C50.533 39.1561 51.8314 38.8879 51.8314 38.8879L51.8032 38.8738Z" stroke="black" stroke-width="1.2" stroke-miterlimit="2.61313" stroke-linecap="round" stroke-linejoin="round"/>
  <mask id="mask0_11391_13937" style="mask-type:alpha" maskUnits="userSpaceOnUse" x="39" y="32" width="10" height="9">
    <path d="M43.9206 39.9861C45.9003 39.9861 47.5052 38.3812 47.5052 36.4015C47.5052 34.4218 45.9003 32.8169 43.9206 32.8169C41.9408 32.8169 40.3359 34.4218 40.3359 36.4015C40.3359 38.3812 41.9408 39.9861 43.9206 39.9861Z" stroke="black" stroke-width="1.2" stroke-miterlimit="2.61313" stroke-linecap="round" stroke-linejoin="round"/>
  </mask>
  <g mask="url(#mask0_11391_13937)">
    <path fill-rule="evenodd" clip-rule="evenodd" d="M51.8032 38.8733C54.033 38.5488 48.5714 35.2746 48.3173 35.0911C47.1036 34.2303 45.5089 33.694 43.8013 33.6093C39.9344 33.4117 38.2973 35.0065 35.5312 37.1798C35.5312 37.1798 36.5615 37.0387 37.6764 38.2665C38.7913 39.4943 43.0815 40.962 46.8073 40.0588C50.533 39.1556 51.8314 38.8875 51.8314 38.8875L51.8032 38.8733Z" fill="black" stroke="black" stroke-width="1.2" stroke-miterlimit="2.61313" stroke-linecap="round" stroke-linejoin="round"/>
  </g>
  <path d="M51.2895 37.4604C51.2895 37.4604 50.598 38.1802 50.8802 39.0128" stroke="black" stroke-width="1.2" stroke-miterlimit="2.61313" stroke-linecap="round" stroke-linejoin="round"/>
  <path d="M52.1288 36.4456C52.1288 36.4456 49.6026 32.0425 43.6753 31.986C37.7479 31.9296 34.8125 35.5424 34.8125 35.5424" stroke="black" stroke-width="1.2" stroke-miterlimit="2.61313" stroke-linecap="round" stroke-linejoin="round"/>
  <path fill-rule="evenodd" clip-rule="evenodd" d="M52.8683 30.1642C52.8683 30.1642 53.9268 28.7953 50.8784 27.2006C50.8784 27.2006 39.7859 23.9123 37.2033 24.2369C34.6206 24.5615 30.5703 27.7933 30.5703 27.7933C30.5703 27.7933 35.0864 26.0574 40.2516 27.4264C45.4168 28.7953 52.3462 30.7146 52.8683 30.1642V30.1642Z" stroke="black" stroke-width="1.2" stroke-miterlimit="2.61313" stroke-linecap="round" stroke-linejoin="round"/>
  <path d="M61.7156 62.0616C61.7156 62.0616 60.262 62.104 59.6834 61.4407C59.0907 60.7774 57.6089 60.1846 56.4375 60.2693" stroke="black" stroke-width="1.2" stroke-miterlimit="2.61313" stroke-linecap="round" stroke-linejoin="round"/>
  <path d="M54.7528 56.9785C54.7528 56.9785 52.7912 61.0853 56.8697 61.7627" stroke="black" stroke-width="1.2" stroke-miterlimit="2.61313" stroke-linecap="round" stroke-linejoin="round"/>
  <path d="M55.5312 34.877C55.5312 34.877 59.0594 38.01 58.3538 46.6328" stroke="black" stroke-width="1.2" stroke-miterlimit="2.61313" stroke-linecap="round" stroke-linejoin="round"/>
  <path fill-rule="evenodd" clip-rule="evenodd" d="M61.9391 69.9319C61.9391 69.9319 59.0601 68.5206 57.0278 69.692C54.9956 70.8633 49.1953 73.7705 49.1953 73.7705C49.1953 73.7705 51.7779 81.6877 61.9391 81.6877C72.1002 81.6877 74.6828 73.7705 74.6828 73.7705C74.6828 73.7705 68.8825 70.8774 66.8503 69.692C64.818 68.5206 61.9391 69.9319 61.9391 69.9319V69.9319Z" stroke="black" stroke-width="1.2" stroke-miterlimit="2.61313" stroke-linecap="round" stroke-linejoin="round"/>
  <path d="M61.931 74.7466C61.931 74.7466 61.2112 74.7043 60.308 74.3373C59.4048 73.9704 54.9028 73.7869 52.7154 74.295C50.5279 74.803 49.8505 73.5894 47.5078 73.5894" stroke="black" stroke-width="1.2" stroke-miterlimit="2.61313" stroke-linecap="round" stroke-linejoin="round"/>
  <path d="M21.1172 35.1025C21.1172 35.1025 25.8026 54.8038 28.3005 65.0637C30.8126 75.3236 31.4335 77.0454 36.9093 82.2106C42.3991 87.3759 52.913 97.0995 61.9169 97.0995" stroke="black" stroke-width="1.2" stroke-miterlimit="2.61313" stroke-linecap="round" stroke-linejoin="round"/>
  <path d="M79.9445 38.3768C81.0357 38.3768 81.9203 37.4923 81.9203 36.4011C81.9203 35.3099 81.0357 34.4253 79.9445 34.4253C78.8533 34.4253 77.9688 35.3099 77.9688 36.4011C77.9688 37.4923 78.8533 38.3768 79.9445 38.3768Z" fill="black"/>
  <path d="M78.5746 36.1916C78.9955 36.1916 79.3367 35.8504 79.3367 35.4296C79.3367 35.0087 78.9955 34.6675 78.5746 34.6675C78.1537 34.6675 77.8125 35.0087 77.8125 35.4296C77.8125 35.8504 78.1537 36.1916 78.5746 36.1916Z" fill="white"/>
  <path fill-rule="evenodd" clip-rule="evenodd" d="M72.0494 38.8738C69.8196 38.5492 75.2812 35.2751 75.5352 35.0916C76.7489 34.2308 78.3436 33.6945 80.0513 33.6098C83.9181 33.4122 85.5552 35.007 88.3213 37.1803C88.3213 37.1803 87.2911 37.0392 86.1762 38.267C85.0613 39.4948 80.771 40.9625 77.0453 40.0593C73.3195 39.1561 72.0211 38.8879 72.0211 38.8879L72.0494 38.8738Z" stroke="black" stroke-width="1.2" stroke-miterlimit="2.61313" stroke-linecap="round" stroke-linejoin="round"/>
  <mask id="mask1_11391_13937" style="mask-type:alpha" maskUnits="userSpaceOnUse" x="75" y="32" width="10" height="9">
    <path d="M79.944 39.9861C81.9237 39.9861 83.5286 38.3812 83.5286 36.4015C83.5286 34.4218 81.9237 32.8169 79.944 32.8169C77.9643 32.8169 76.3594 34.4218 76.3594 36.4015C76.3594 38.3812 77.9643 39.9861 79.944 39.9861Z" stroke="black" stroke-width="1.2" stroke-miterlimit="2.61313" stroke-linecap="round" stroke-linejoin="round"/>
  </mask>
  <g mask="url(#mask1_11391_13937)">
    <path fill-rule="evenodd" clip-rule="evenodd" d="M72.0494 38.8738C69.8196 38.5492 75.2812 35.2751 75.5352 35.0916C76.7489 34.2308 78.3436 33.6945 80.0513 33.6098C83.9181 33.4122 85.5552 35.007 88.3213 37.1803C88.3213 37.1803 87.2911 37.0392 86.1762 38.267C85.0613 39.4948 80.771 40.9625 77.0453 40.0593C73.3195 39.1561 72.0211 38.8879 72.0211 38.8879L72.0494 38.8738Z" fill="black" stroke="black" stroke-width="1.2" stroke-miterlimit="2.61313" stroke-linecap="round" stroke-linejoin="round"/>
  </g>
  <path d="M72.5703 37.4604C72.5703 37.4604 73.2618 38.1802 72.9796 39.0128" stroke="black" stroke-width="1.2" stroke-miterlimit="2.61313" stroke-linecap="round" stroke-linejoin="round"/>
  <path d="M71.7188 36.4456C71.7188 36.4456 74.2449 32.0425 80.1722 31.986C86.0995 31.9296 89.035 35.5424 89.035 35.5424" stroke="black" stroke-width="1.2" stroke-miterlimit="2.61313" stroke-linecap="round" stroke-linejoin="round"/>
  <path fill-rule="evenodd" clip-rule="evenodd" d="M70.9903 30.1642C70.9903 30.1642 69.9318 28.7953 72.9802 27.2006C72.9802 27.2006 84.0727 23.9123 86.6553 24.2369C89.238 24.5615 93.2883 27.7933 93.2883 27.7933C93.2883 27.7933 88.7722 26.0574 83.607 27.4264C78.4418 28.7953 71.5125 30.7146 70.9903 30.1642V30.1642Z" stroke="black" stroke-width="1.2" stroke-miterlimit="2.61313" stroke-linecap="round" stroke-linejoin="round"/>
  <path d="M62.1406 62.0616C62.1406 62.0616 63.5942 62.104 64.1728 61.4407C64.7656 60.7774 66.2474 60.1846 67.4188 60.2693" stroke="black" stroke-width="1.2" stroke-miterlimit="2.61313" stroke-linecap="round" stroke-linejoin="round"/>
  <path d="M69.1169 56.9785C69.1169 56.9785 71.0786 61.0853 67 61.7627" stroke="black" stroke-width="1.2" stroke-miterlimit="2.61313" stroke-linecap="round" stroke-linejoin="round"/>
  <path d="M68.3299 34.877C68.3299 34.877 64.8017 38.01 65.5074 46.6328" stroke="black" stroke-width="1.2" stroke-miterlimit="2.61313" stroke-linecap="round" stroke-linejoin="round"/>
  <path d="M61.9297 74.7466C61.9297 74.7466 62.6494 74.7043 63.5526 74.3373C64.4559 73.9704 68.9578 73.7869 71.1453 74.295C73.3327 74.803 74.0101 73.5894 76.3528 73.5894" stroke="black" stroke-width="1.2" stroke-miterlimit="2.61313" stroke-linecap="round" stroke-linejoin="round"/>
  <path d="M102.737 35.103C102.737 35.103 98.0518 54.8043 95.5539 65.0642C93.0418 75.3241 92.4209 77.0459 86.9451 82.2111C81.4553 87.3764 70.9414 97.1 61.9375 97.1" stroke="black" stroke-width="1.2" stroke-miterlimit="2.61313" stroke-linecap="round" stroke-linejoin="round"/>
  <path d="M106.128 32.3931C106.128 32.3931 109.148 32.4354 108.132 36.8244C107.116 41.2135 103.433 47.5501 102.967 52.2496C102.501 56.9491 100.653 58.3322 97.2656 58.0358" stroke="black" stroke-width="1.2" stroke-miterlimit="2.61313" stroke-linecap="round" stroke-linejoin="round"/>
  <path d="M105.345 38.9269C105.345 38.9269 104.851 36.81 103.849 37.5156C102.847 38.2212 100.759 43.7816 100.759 43.7816C100.759 43.7816 102.099 46.6041 101.352 47.465C100.604 48.3259 99.1641 50.0759 99.1641 50.0759" stroke="black" stroke-width="1.2" stroke-miterlimit="2.61313" stroke-linecap="round" stroke-linejoin="round"/>
  <path d="M11.2619 32.0028L21.1406 22.124L25.4461 26.4295L15.5674 36.3083L11.2619 32.0028Z" stroke="black" stroke-width="1.2" stroke-miterlimit="2.61313" stroke-linecap="round" stroke-linejoin="round"/>
  <path fill-rule="evenodd" clip-rule="evenodd" d="M9.52273 20.3856C8.05444 21.8539 8.18133 24.3736 9.79463 25.9869L13.5379 29.7301L18.8672 24.4007L15.124 20.6575C13.5107 19.0442 10.991 18.9264 9.52273 20.3856Z" stroke="black" stroke-width="1.2" stroke-miterlimit="2.61313" stroke-linecap="round" stroke-linejoin="round"/>
  <path fill-rule="evenodd" clip-rule="evenodd" d="M31.9874 44.8664L32.9662 45.8453C33.22 46.0991 33.5825 46.1353 33.7819 45.9359L35.078 44.6398C35.2774 44.4404 35.2321 44.0688 34.9874 43.8241L34.0085 42.8453C33.9995 42.1021 33.6641 41.2954 33.0297 40.6519L22.1263 29.7485L18.8906 32.9842L29.794 43.8876C30.4375 44.5311 31.2442 44.8664 31.9874 44.8664V44.8664Z" stroke="black" stroke-width="1.2" stroke-miterlimit="2.61313" stroke-linecap="round" stroke-linejoin="round"/>
  <path fill-rule="evenodd" clip-rule="evenodd" d="M32.1821 56.8028C32.173 56.8753 32.173 56.9569 32.173 57.0294C32.173 58.8693 33.6685 60.3648 35.5084 60.3648C37.3483 60.3648 38.8438 58.8693 38.8438 57.0294C38.8438 56.9478 38.8437 56.8753 38.8347 56.8028C38.8347 56.8028 39.0522 55.3708 35.5084 50.2046C31.9736 55.3436 32.1821 56.7847 32.1821 56.8028Z" stroke="black" stroke-width="1.2" stroke-miterlimit="2.61313" stroke-linecap="round" stroke-linejoin="round"/>
</svg>