<svg xmlns="http://www.w3.org/2000/svg" width="80" height="80" viewBox="0 0 80 80" fill="none">
  <circle cx="40.0001" cy="40.0016" r="37.9779" stroke="#EDE7DD" stroke-width="2.1099"/>
  <circle cx="39.967" cy="39.9685" r="27.9997" stroke="black" stroke-width="1.24731"/>
  <path d="M13.2153 33.1733C22.2549 42.5859 45.6371 55.7634 66.8498 33.1733" stroke="black" stroke-width="1.24731"/>
  <path d="M15.0864 26.9365C23.2851 19.4065 45.1159 8.24082 64.3553 26.3129" stroke="black" stroke-width="1.24731"/>
  <path d="M18.2036 48.1411C25.3511 57.5536 43.8394 70.7312 60.6123 48.1411" stroke="black" stroke-width="1.24731"/>
  <circle cx="40.0321" cy="31.3021" r="13.7205" stroke="black" stroke-width="1.24731"/>
  <path fill-rule="evenodd" clip-rule="evenodd" d="M45.8056 23.8539C43.1477 24.0804 41.0611 26.3095 41.0611 29.026C41.0611 31.893 43.3852 34.2171 46.2522 34.2171C47.4301 34.2171 48.5164 33.8247 49.3875 33.1636C48.5559 37.5262 44.7213 40.8238 40.1165 40.8238C34.9039 40.8238 30.6782 36.5981 30.6782 31.3855C30.6782 26.1729 34.9039 21.9473 40.1165 21.9473C42.253 21.9473 44.2237 22.6572 45.8056 23.8539Z" fill="black"/>
</svg>