<svg xmlns="http://www.w3.org/2000/svg" width="80" height="79" viewBox="0 0 80 79" fill="none">
  <circle cx="40.0001" cy="39.0328" r="37.9779" stroke="#EDE7DD" stroke-width="2.1099"/>
  <circle cx="39.967" cy="38.9997" r="27.9997" stroke="black" stroke-width="1.24731"/>
  <path d="M66 29C66.2079 32.3262 65.7272 38.9398 63.7315 40.9355C61.2369 43.4302 49.3874 42.1829 45.0218 40.9355C40.6562 39.6882 37.5379 37.8173 31.925 36.5699C26.3121 35.3226 25.6885 35.3226 25.0648 35.3226C24.4412 35.3226 21.9465 34.0753 21.3229 34.0753C20.6992 34.0753 19.4519 32.828 17.5809 32.2043C15.71 31.5807 15.71 30.957 15.0863 30.957C14.5874 30.957 14.0469 30.5413 13.839 30.3334M65.2768 36.8617C65.0689 39.1484 64.4799 45.4259 62.4842 45.9248C59.9896 46.5485 57.495 47.1721 56.2477 47.1721C55.0003 47.1721 52.5057 48.4194 45.6455 47.1721C38.7853 45.9248 36.9143 45.9248 33.1723 45.9248C29.4304 45.9248 26.3121 45.9248 25.0648 45.9248C23.8175 45.9248 21.9465 45.9248 20.6992 45.9248C19.4519 45.9248 18.8282 45.3011 16.3336 45.9248C14.3379 46.4237 13.4232 46.9642 13.2153 47.1721M42.5272 48.4194C39.8247 49.251 33.6713 51.0388 30.6777 51.5377C26.9358 52.1614 26.9358 52.785 25.0648 52.1614C23.1938 51.5377 23.1938 51.5377 21.9465 51.5377C20.6992 51.5377 19.4519 51.5377 18.2046 51.5377C17.2067 51.5377 16.5415 51.9535 16.3336 52.1614H15.0863M62.4842 50.2904C60.1975 50.914 54.7509 52.4108 51.2584 53.4087C46.8928 54.656 47.5165 55.2796 45.0218 55.2796C42.5272 55.2796 39.4089 55.2796 36.2906 55.2796C33.1724 55.2796 31.925 55.9033 30.0541 55.9033C28.5573 55.9033 24.4412 58.8137 22.5702 60.2689" stroke="black" stroke-width="1.24731"/>
</svg>