<svg xmlns="http://www.w3.org/2000/svg" width="113" height="112" viewBox="0 0 113 112" fill="none">
  <path d="M70.266 100.519C80.2591 100.519 88.3601 92.4178 88.3601 82.4247C88.3601 72.4316 80.2591 64.3306 70.266 64.3306C60.2729 64.3306 52.1719 72.4316 52.1719 82.4247C52.1719 92.4178 60.2729 100.519 70.266 100.519Z" fill="white" stroke="black" stroke-width="1.2" stroke-miterlimit="2.61313" stroke-linecap="round" stroke-linejoin="round"/>
  <path d="M70.8125 69.1982V82.5722H83.8397" stroke="black" stroke-width="1.2" stroke-miterlimit="2.61313" stroke-linecap="round" stroke-linejoin="round"/>
  <path d="M55.0476 91.4529C45.9938 92.4529 31.1932 91.7196 30.5398 89.2661V47.291C30.5398 47.291 30.4065 45.0642 33.6733 44.1842L36.3667 43.9575H46.2338H56.1009L58.7944 44.1842C62.0745 45.0642 61.9278 47.291 61.9278 47.291V66.8118" stroke="black" stroke-width="1.2" stroke-miterlimit="2.61313"/>
  <path d="M52.0727 61.7714V60.638H53.0594L53.0728 60.6246C52.9394 60.558 52.8061 60.478 52.6728 60.3846C52.5394 60.2913 52.4194 60.1846 52.3127 60.0646C52.2061 59.9446 52.1127 59.7979 52.0461 59.6379C51.9794 59.4779 51.9394 59.3046 51.9394 59.1046C51.9394 58.7046 52.0861 58.3979 52.3661 58.1845C52.6461 57.9712 53.0194 57.8779 53.4861 57.8779H56.5796V59.0646H53.5528C53.2861 59.0646 53.0728 59.1312 52.9261 59.2513C52.7794 59.3713 52.6994 59.5579 52.6994 59.7846C52.6994 59.9846 52.7528 60.1446 52.8594 60.278C52.9661 60.4113 53.0861 60.518 53.2461 60.598H56.5796V61.7847H52.0861L52.0727 61.7714ZM56.6329 69.8384V69.6517H56.6996V70.1184H56.6329V69.9317H56.1396V69.8517H56.6329V69.8384ZM56.1396 70.7184H56.5529L56.2196 70.5184V70.4784L56.5529 70.2784H56.1529V70.1984H56.7129V70.2651L56.3129 70.5051L56.7129 70.7317V70.7984H56.1529V70.7184H56.1396ZM56.6063 64.8782C56.5263 64.7315 56.4329 64.5848 56.3263 64.4648C56.2196 64.3315 56.0996 64.2115 55.9662 64.1048C55.8462 63.9981 55.7396 63.9048 55.6462 63.8248H56.5663V62.6381H53.9928H52.0727V63.8381H55.4462C55.5529 63.9315 55.6329 64.0115 55.6996 64.1048C55.7529 64.1981 55.7929 64.2781 55.7929 64.3581C55.7929 64.4115 55.7796 64.4781 55.7662 64.5581C55.7396 64.6382 55.7129 64.7182 55.6862 64.8115C55.6462 64.8915 55.6062 64.9715 55.5662 65.0515C55.5129 65.1315 55.4595 65.1982 55.4062 65.2382V65.3315H56.7396C56.7396 65.1582 56.7129 65.0382 56.6329 64.8915L56.6063 64.8782ZM51.1794 57.2645C51.1794 56.7845 51.1394 56.3311 51.0594 55.9311C50.9794 55.5178 50.8593 55.1711 50.686 54.8777C50.5127 54.5844 50.2993 54.3444 50.0326 54.171C49.766 53.9977 49.4593 53.9177 49.0859 53.9177V53.7177C49.1393 53.7177 49.1659 53.7177 49.1659 53.7177C49.606 53.731 50.0326 53.8244 50.4327 53.9844C50.8593 54.171 51.246 54.4244 51.566 54.7444C51.8994 55.0644 52.1527 55.4378 52.3527 55.8644C52.5528 56.2911 52.6461 56.7578 52.6461 57.2645H51.166H51.1794ZM52.1261 53.691C52.1261 54.0644 52.2061 54.371 52.3794 54.6377C52.5528 54.9044 52.7794 55.1177 53.0861 55.2911C53.3795 55.4644 53.7395 55.5844 54.1528 55.6644C54.5662 55.7444 55.0062 55.7844 55.4995 55.7844C55.9796 55.7844 56.4329 55.7444 56.8463 55.6644C57.2596 55.5844 57.6063 55.4644 57.913 55.2911C58.2063 55.1177 58.4463 54.9044 58.6197 54.6377C58.793 54.371 58.873 54.0644 58.873 53.691C58.873 53.3177 58.793 53.011 58.6197 52.7443C58.4463 52.4776 58.2063 52.2643 57.913 52.0909C57.6063 51.9176 57.2596 51.7976 56.8463 51.7176C56.4329 51.6376 55.9929 51.5976 55.5129 51.5976C55.0329 51.5976 54.5928 51.6376 54.1795 51.7176C53.7661 51.7976 53.4195 51.9176 53.1128 52.0909C52.8194 52.2643 52.5794 52.4776 52.4061 52.7443C52.2327 53.011 52.1527 53.3177 52.1527 53.691H52.1261ZM51.9394 53.4243C51.9661 53.051 52.0594 52.6776 52.2061 52.3443C52.3927 51.9176 52.6461 51.5309 52.9661 51.2109C53.2861 50.8909 53.6595 50.6242 54.0862 50.4242C54.5128 50.2242 54.9795 50.1309 55.4862 50.1309C55.9796 50.1309 56.4463 50.2242 56.8863 50.4242C57.313 50.6242 57.6996 50.8776 58.0197 51.2109C58.3397 51.5309 58.593 51.9176 58.7797 52.3443C58.9664 52.771 59.0597 53.2243 59.0597 53.691C59.0597 54.1577 58.9664 54.6111 58.7797 55.0377C58.593 55.4644 58.3397 55.8511 58.0197 56.1711C57.6996 56.5045 57.313 56.7578 56.8863 56.9578C56.4596 57.1578 55.9929 57.2512 55.4862 57.2512C54.9929 57.2512 54.5262 57.1578 54.0862 56.9578C53.6595 56.7578 53.2728 56.5045 52.9661 56.1711C52.6461 55.8378 52.3927 55.4644 52.2061 55.0377C52.0327 54.6377 51.9527 54.211 51.9394 53.771C51.9394 53.771 51.9394 53.5443 51.9527 53.411L51.9394 53.4243ZM54.9795 66.6116C55.1929 66.6249 55.3929 66.6516 55.5795 66.7049C55.7662 66.7449 55.9262 66.8116 56.0729 66.8916C56.2196 66.9716 56.3262 67.0649 56.4063 67.1849C56.4863 67.3049 56.5263 67.4383 56.5263 67.5849C56.5263 67.825 56.4196 68.0116 56.2196 68.145C56.0196 68.2783 55.5395 68.3316 55.0862 68.3316H54.7928L54.0195 66.7049C54.2462 66.6382 54.4862 66.6116 54.7928 66.6116H54.9795ZM53.3795 69.4517C53.2328 69.3317 53.0994 69.1583 52.9928 68.9583C52.8861 68.745 52.8328 68.4916 52.8328 68.1983C52.8328 67.9716 52.8728 67.7583 52.9394 67.5583C53.0061 67.3583 53.1261 67.1983 53.2861 67.0516C53.4328 66.9182 53.6195 66.8249 53.8461 66.7449L55.0862 69.465C55.0862 69.465 55.5395 69.4517 56.0996 69.0383C56.2996 68.8917 56.4196 68.665 56.5396 68.4383C56.6596 68.1983 56.7129 67.9316 56.7129 67.6383C56.7129 67.3583 56.6596 67.0783 56.5396 66.8116C56.4196 66.5449 56.2596 66.3049 56.0329 66.1049C55.8196 65.9049 55.5529 65.7315 55.2595 65.6115C54.9529 65.4915 54.6195 65.4248 54.2462 65.4248C53.9261 65.4248 53.6195 65.4782 53.3395 65.5849C53.0594 65.6915 52.8194 65.8382 52.6061 66.0249C52.3927 66.2115 52.2327 66.4382 52.1127 66.7049C51.9927 66.9716 51.9394 67.2649 51.9394 67.5983C51.9394 68.105 52.0727 68.5317 52.3394 68.8517C52.6061 69.1717 52.9528 69.3984 53.3661 69.5317L53.3928 69.4784L53.3795 69.4517Z" fill="black"/>
  <path fill-rule="evenodd" clip-rule="evenodd" d="M45.0598 57.2114H45.0731C45.1398 57.2647 45.2065 57.3047 45.2598 57.3447C45.3131 57.3714 45.3665 57.3981 45.4198 57.4247C45.4731 57.4381 45.5398 57.4514 45.5932 57.4647C45.6598 57.4781 45.7265 57.4781 45.8198 57.4781H47.8466C47.9133 57.4781 47.9666 57.4647 48.0066 57.4514C48.0599 57.4381 48.0999 57.4247 48.1399 57.3981C48.1799 57.3714 48.2199 57.3447 48.2599 57.3047C48.2999 57.2647 48.3399 57.2247 48.3799 57.1714H48.3933V57.8248L45.6465 59.0648L48.3933 60.2782V60.8915H48.3799C48.3399 60.8249 48.2866 60.7849 48.2466 60.7449C48.2066 60.7049 48.1533 60.6782 48.1133 60.6515C48.0599 60.6249 48.0066 60.6115 47.9533 60.5982C47.8866 60.5849 47.8199 60.5849 47.7399 60.5849H45.7665C45.6865 60.5849 45.6198 60.5849 45.5665 60.5982C45.5131 60.5982 45.4598 60.6115 45.4065 60.6249C45.3531 60.6382 45.3131 60.6515 45.2598 60.6782C45.2065 60.7049 45.1531 60.7315 45.0998 60.7715H45.0865V60.0382H45.0998C45.1531 60.0782 45.2065 60.1048 45.2598 60.1315C45.3131 60.1582 45.3531 60.1715 45.4065 60.1849C45.4598 60.1982 45.5131 60.2115 45.5665 60.2115C45.6198 60.2115 45.6998 60.2249 45.7665 60.2249H48.0333L45.1665 58.9581V58.8781L48.0466 57.5714L45.8198 57.5847C45.7398 57.5847 45.6598 57.5847 45.5932 57.5981C45.5265 57.6114 45.4731 57.6247 45.4198 57.6514C45.3665 57.6781 45.3131 57.7047 45.2598 57.7447C45.2065 57.7847 45.1398 57.8381 45.0731 57.9048H45.0598V57.2114ZM48.0466 61.6649C47.9799 61.6649 47.9266 61.6382 47.8866 61.5982C47.8466 61.5582 47.8199 61.5049 47.8199 61.4382C47.8199 61.3716 47.8466 61.3316 47.8866 61.2782C47.9266 61.2382 47.9799 61.2116 48.0466 61.2116C48.1133 61.2116 48.1533 61.2382 48.2066 61.2782C48.2466 61.3182 48.2733 61.3716 48.2733 61.4382C48.2733 61.5049 48.2466 61.5449 48.2066 61.5982C48.1666 61.6382 48.1133 61.6649 48.0466 61.6649ZM45.0731 61.1982C45.1665 61.2382 45.2731 61.2649 45.3798 61.2782C45.4865 61.2916 45.6065 61.3049 45.7665 61.3049H46.6065C46.7132 61.3049 46.8065 61.2782 46.8865 61.2382C46.9532 61.1982 47.0199 61.1449 47.0599 61.1049H47.0732L47.3132 61.6382H45.7665C45.6065 61.6382 45.4731 61.6382 45.3798 61.6516C45.2731 61.6649 45.1798 61.6916 45.0731 61.7316H45.0598V61.1982H45.0731ZM45.5665 63.9183C45.3931 63.8517 45.2598 63.7583 45.1531 63.6117C45.0465 63.465 44.9931 63.2917 44.9931 63.065C44.9931 62.9183 45.0198 62.785 45.0731 62.665C45.1265 62.545 45.1931 62.4383 45.2865 62.3449C45.3798 62.2516 45.4998 62.1849 45.6332 62.1449C45.7665 62.0916 45.9265 62.0783 46.0865 62.0783C46.2732 62.0783 46.4332 62.1049 46.5799 62.1716C46.7265 62.2383 46.8465 62.3183 46.9532 62.4249C47.0599 62.5316 47.1399 62.6516 47.1932 62.785C47.2466 62.9183 47.2732 63.065 47.2732 63.2116C47.2732 63.3583 47.2599 63.4917 47.2199 63.585C47.1932 63.6783 47.1532 63.7583 47.1399 63.8117L46.6732 63.8517L46.6599 63.8117C46.7265 63.7717 46.7932 63.7183 46.8599 63.6783C46.9265 63.625 46.9799 63.5717 47.0199 63.5183C47.0599 63.465 47.0999 63.3983 47.1266 63.3317C47.1532 63.265 47.1666 63.1983 47.1666 63.1316C47.1666 62.905 47.0865 62.7316 46.9132 62.5983C46.7399 62.4649 46.5132 62.3983 46.2065 62.3983C45.9132 62.3983 45.6865 62.4649 45.5131 62.5983C45.3398 62.7316 45.2598 62.9316 45.2598 63.185C45.2598 63.3183 45.2865 63.4383 45.3265 63.5583C45.3665 63.6783 45.4465 63.785 45.5531 63.865L45.5398 63.8917L45.5665 63.9183ZM45.0731 64.3317C45.1265 64.3584 45.1665 64.3717 45.2198 64.385C45.2731 64.3984 45.3131 64.4117 45.3798 64.4117C45.4331 64.4117 45.4865 64.425 45.5531 64.425C45.6198 64.425 45.6865 64.425 45.7665 64.425H46.6199C46.7399 64.425 46.8332 64.3984 46.8999 64.3584C46.9665 64.3184 47.0332 64.265 47.0732 64.225H47.0866L47.3266 64.7317H46.7799V64.7584C46.8332 64.8117 46.8865 64.8517 46.9532 64.9051C47.0199 64.9584 47.0732 65.0117 47.1266 65.0784C47.1799 65.1317 47.2199 65.1984 47.2599 65.2651C47.2999 65.3317 47.3132 65.3984 47.3132 65.4784H46.8599V65.4651C46.8732 65.4517 46.8865 65.4251 46.8999 65.3984C46.9132 65.3717 46.9265 65.3317 46.9265 65.3051C46.9399 65.2651 46.9399 65.2384 46.9532 65.1984C46.9532 65.1717 46.9665 65.1317 46.9665 65.1051C46.9665 65.0651 46.9399 65.0117 46.8865 64.9451C46.8332 64.8784 46.7665 64.8117 46.6865 64.7584H45.7932C45.6332 64.7584 45.4998 64.7584 45.4065 64.7717C45.2998 64.785 45.2065 64.8117 45.0998 64.8517H45.0865V64.3184H45.0998L45.0731 64.3317ZM44.9931 66.8251C44.9931 66.6651 45.0198 66.5185 45.0865 66.3851C45.1531 66.2518 45.2331 66.1318 45.3398 66.0251C45.4465 65.9184 45.5665 65.8384 45.6998 65.7851C45.8332 65.7184 45.9798 65.6918 46.1398 65.6918C46.2998 65.6918 46.4465 65.7184 46.5799 65.7851C46.7132 65.8518 46.8465 65.9318 46.9399 66.0384C47.0465 66.1451 47.1266 66.2651 47.1932 66.3985C47.2599 66.5318 47.2866 66.6785 47.2866 66.8385C47.2866 66.9985 47.2599 67.1452 47.1932 67.2785C47.1266 67.4118 47.0465 67.5318 46.9399 67.6385C46.8332 67.7452 46.7132 67.8252 46.5799 67.8785C46.4465 67.9452 46.2865 67.9719 46.1398 67.9719C45.9798 67.9719 45.8332 67.9452 45.6998 67.8785C45.5665 67.8118 45.4465 67.7318 45.3398 67.6385C45.2331 67.5318 45.1531 67.4118 45.0865 67.2785C45.0198 67.1452 44.9931 66.9985 44.9931 66.8385V66.8251ZM45.0731 66.8251C45.0731 66.9585 45.0998 67.0651 45.1531 67.1585C45.2065 67.2518 45.2865 67.3318 45.3798 67.3985C45.4731 67.4652 45.5932 67.5052 45.7132 67.5452C45.8465 67.5718 45.9798 67.5852 46.1132 67.5852C46.2598 67.5852 46.3932 67.5718 46.5132 67.5318C46.6465 67.5052 46.7532 67.4518 46.8465 67.3852C46.9399 67.3185 47.0199 67.2385 47.0866 67.1451C47.1399 67.0518 47.1666 66.9451 47.1666 66.8118C47.1666 66.6785 47.1399 66.5718 47.0866 66.4785C47.0332 66.3851 46.9532 66.3051 46.8465 66.2384C46.7532 66.1718 46.6332 66.1318 46.5132 66.0918C46.3799 66.0651 46.2465 66.0384 46.1132 66.0384C45.9665 66.0384 45.8332 66.0518 45.7132 66.0784C45.5798 66.1051 45.4731 66.1584 45.3798 66.2251C45.2865 66.2918 45.2065 66.3718 45.1531 66.4651C45.0998 66.5585 45.0731 66.6651 45.0731 66.7985V66.8251ZM45.0598 69.0519C45.1131 69.0919 45.1665 69.1186 45.2198 69.1452C45.2731 69.1719 45.3131 69.1852 45.3665 69.1986C45.4198 69.2119 45.4731 69.2252 45.5265 69.2252C45.5798 69.2252 45.6465 69.2386 45.7265 69.2386H47.6866C47.7666 69.2386 47.8332 69.2386 47.8866 69.2252C47.9399 69.2252 47.9933 69.2119 48.0466 69.1986C48.0999 69.1852 48.1399 69.1719 48.1933 69.1452C48.2466 69.1186 48.2999 69.0919 48.3533 69.0519H48.3666V69.7853H48.3533C48.2999 69.7453 48.2466 69.7186 48.1933 69.6919C48.1399 69.6653 48.0999 69.6519 48.0466 69.6386C47.9933 69.6253 47.9399 69.6119 47.8866 69.6119C47.8332 69.6119 47.7666 69.5986 47.6866 69.5986H45.7265C45.6465 69.5986 45.5798 69.5986 45.5265 69.6119C45.4731 69.6119 45.4198 69.6253 45.3665 69.6386C45.3131 69.6519 45.2731 69.6653 45.2198 69.6919C45.1665 69.7186 45.1131 69.7453 45.0598 69.7853H45.0465V69.0519H45.0598ZM45.0465 70.732V70.1986H45.0598C45.1131 70.2253 45.1531 70.2386 45.2065 70.252C45.2598 70.2653 45.2998 70.2786 45.3665 70.2786C45.4198 70.2786 45.4731 70.292 45.5398 70.292C45.6065 70.292 45.6732 70.292 45.7532 70.292H46.6065C46.7265 70.292 46.8199 70.2653 46.8865 70.2253C46.9532 70.1853 47.0199 70.1319 47.0599 70.0919H47.0732L47.3132 70.5986H46.8865V70.612C47.0199 70.7186 47.1132 70.8386 47.1799 70.972C47.2466 71.1053 47.2866 71.2387 47.2866 71.3987C47.2866 71.612 47.2332 71.772 47.1132 71.8787C46.9932 71.9854 46.8332 72.0387 46.6332 72.0387H45.7665C45.6865 72.0387 45.6065 72.0387 45.5531 72.0387C45.4865 72.0387 45.4331 72.0387 45.3798 72.052C45.3265 72.052 45.2731 72.0654 45.2198 72.0787C45.1665 72.092 45.1265 72.1054 45.0731 72.132H45.0598V71.5987H45.0731C45.1665 71.6387 45.2731 71.6653 45.3798 71.6787C45.4865 71.692 45.6065 71.692 45.7665 71.692H46.5532C46.6199 71.692 46.6865 71.6787 46.7532 71.6653C46.8199 71.652 46.8732 71.6253 46.9132 71.5853C46.9665 71.5453 46.9932 71.5053 47.0199 71.4387C47.0465 71.372 47.0599 71.3053 47.0599 71.2253C47.0599 71.1187 47.0332 71.012 46.9932 70.9053C46.9532 70.7986 46.8865 70.692 46.7932 70.612H45.7532C45.5932 70.612 45.4598 70.612 45.3665 70.6253C45.2598 70.6386 45.1665 70.6653 45.0598 70.7053H45.0465V70.732ZM45.0598 72.6387C45.1265 72.6787 45.1931 72.7054 45.2865 72.7187C45.3798 72.7321 45.5131 72.7454 45.6865 72.7454H47.1266V72.4654H47.2066V72.7454H47.5932C47.7532 72.7454 47.8866 72.7587 48.0066 72.7987C48.1266 72.8387 48.2333 72.8921 48.3133 72.9587C48.3933 73.0254 48.4599 73.1054 48.5133 73.1987C48.5533 73.2921 48.5799 73.3988 48.5799 73.5054C48.5799 73.5721 48.5666 73.6388 48.5533 73.6921C48.5399 73.7454 48.5266 73.7854 48.5133 73.8121L48.0999 73.8654L48.0866 73.8388C48.1399 73.8121 48.1799 73.7721 48.2333 73.7321C48.2866 73.6921 48.3266 73.6654 48.3666 73.6254C48.4066 73.5854 48.4333 73.5454 48.4599 73.5188C48.4866 73.4788 48.4999 73.4388 48.4999 73.3988C48.4999 73.3054 48.4466 73.2254 48.3266 73.1587C48.2066 73.0921 48.0333 73.0654 47.7932 73.0654H47.2066V73.5988H47.1266V73.0654H45.6865C45.5131 73.0654 45.3798 73.0787 45.2865 73.0921C45.1931 73.1054 45.1265 73.1321 45.0598 73.1721H45.0465V72.6254H45.0598V72.6387ZM45.4598 75.2922C45.3931 75.2522 45.3398 75.1988 45.2865 75.1588C45.2331 75.1055 45.1798 75.0522 45.1265 74.9988C45.0865 74.9455 45.0465 74.8788 45.0198 74.7988C44.9931 74.7188 44.9798 74.6388 44.9798 74.5455C44.9798 74.3455 45.0465 74.1988 45.1665 74.1055C45.2865 74.0121 45.4598 73.9588 45.6732 73.9588H46.8065C46.8999 73.9588 46.9799 73.9454 47.0332 73.9054C47.0999 73.8654 47.1399 73.8254 47.1799 73.7721H47.1932V74.2921H45.7398C45.4065 74.2921 45.2331 74.4388 45.2331 74.7321C45.2331 74.8655 45.2598 74.9722 45.3131 75.0655C45.3665 75.1588 45.4331 75.2255 45.5131 75.2788H46.7932C46.9665 75.2788 47.0866 75.2122 47.1799 75.0788H47.1932V75.6122H45.6598C45.5665 75.6122 45.4865 75.6122 45.4331 75.6255C45.3798 75.6388 45.3265 75.6388 45.2865 75.6655C45.2465 75.6789 45.2198 75.7055 45.1931 75.7322C45.1665 75.7589 45.1531 75.7855 45.1265 75.8255H45.1131L44.9665 75.3188H45.4331L45.4598 75.2922ZM46.7399 77.4123L46.7265 77.3856C46.8999 77.2923 47.0199 77.1856 47.0866 77.0789C47.1532 76.9722 47.1799 76.8656 47.1799 76.7589C47.1799 76.6256 47.1399 76.5189 47.0732 76.4389C47.0065 76.3589 46.9132 76.3189 46.8065 76.3189C46.7399 76.3189 46.6732 76.3322 46.6332 76.3722C46.5799 76.3989 46.5399 76.4522 46.5132 76.5056C46.4732 76.5589 46.4465 76.6256 46.4065 76.6922C46.3799 76.7589 46.3532 76.8389 46.3132 76.9189C46.2865 76.9989 46.2465 77.0789 46.2065 77.1589C46.1665 77.2389 46.1265 77.3056 46.0732 77.3589C46.0198 77.4256 45.9532 77.4656 45.8732 77.5056C45.7932 77.5456 45.6998 77.5589 45.5932 77.5589C45.3798 77.5589 45.2331 77.4789 45.1131 77.3323C45.0065 77.1856 44.9531 76.9856 44.9531 76.7322C44.9531 76.5989 44.9665 76.4789 44.9931 76.3722C45.0198 76.2655 45.0465 76.1722 45.0865 76.0922L45.6065 76.0522L45.6198 76.0789C45.4198 76.1722 45.2731 76.2789 45.1931 76.3855C45.0998 76.4922 45.0598 76.6256 45.0598 76.7856C45.0598 76.9456 45.0998 77.0789 45.1931 77.1589C45.2865 77.2389 45.3798 77.2789 45.4865 77.2789C45.5532 77.2789 45.6065 77.2656 45.6598 77.2389C45.7132 77.2122 45.7532 77.1723 45.7932 77.1322C45.8332 77.0789 45.8732 77.0256 45.8998 76.9589C45.9265 76.8922 45.9532 76.8256 45.9932 76.7456C46.0198 76.6656 46.0598 76.5989 46.0865 76.5189C46.1265 76.4389 46.1665 76.3722 46.2198 76.3055C46.2732 76.2389 46.3399 76.1855 46.4065 76.1455C46.4865 76.1055 46.5665 76.0789 46.6732 76.0789C46.7799 76.0789 46.8732 76.1055 46.9532 76.1455C47.0332 76.1855 47.0865 76.2522 47.1399 76.3189C47.1932 76.3855 47.2199 76.4789 47.2332 76.5589C47.2466 76.6522 47.2599 76.7456 47.2599 76.8389C47.2599 76.9322 47.2466 77.0389 47.2332 77.1322C47.2199 77.2256 47.1932 77.3056 47.1666 77.3723L46.7265 77.4123H46.7399ZM48.0333 78.3323C47.9666 78.3323 47.9133 78.3056 47.8733 78.2656C47.8332 78.2256 47.8066 78.1723 47.8066 78.1056C47.8066 78.039 47.8332 77.999 47.8733 77.9456C47.9133 77.9056 47.9666 77.8789 48.0333 77.8789C48.0999 77.8789 48.1399 77.9056 48.1933 77.9456C48.2333 77.9856 48.2599 78.039 48.2599 78.1056C48.2599 78.1723 48.2333 78.2123 48.1933 78.2656C48.1533 78.3056 48.0999 78.3323 48.0333 78.3323ZM45.0598 77.8656C45.1531 77.9056 45.2598 77.9323 45.3665 77.9456C45.4731 77.959 45.5932 77.9723 45.7532 77.9723H46.5932C46.6999 77.9723 46.7932 77.9456 46.8732 77.9056C46.9399 77.8656 47.0065 77.8123 47.0465 77.7723H47.0599L47.2999 78.3056H45.7532C45.5932 78.3056 45.4598 78.3056 45.3665 78.319C45.2598 78.3323 45.1665 78.359 45.0598 78.399H45.0465V77.8656H45.0598ZM44.9798 79.8657C44.9798 79.7057 45.0065 79.559 45.0731 79.4257C45.1398 79.2923 45.2198 79.1723 45.3265 79.0657C45.4331 78.959 45.5531 78.879 45.6865 78.8257C45.8198 78.759 45.9665 78.7323 46.1265 78.7323C46.2865 78.7323 46.4332 78.759 46.5665 78.8257C46.6999 78.8923 46.8332 78.9723 46.9265 79.079C47.0332 79.1857 47.1132 79.3057 47.1799 79.439C47.2466 79.5724 47.2732 79.719 47.2732 79.879C47.2732 80.039 47.2466 80.1857 47.1799 80.3191C47.1132 80.4524 47.0332 80.5724 46.9265 80.6791C46.8199 80.7857 46.6999 80.8657 46.5665 80.9191C46.4332 80.9857 46.2732 81.0124 46.1265 81.0124C45.9665 81.0124 45.8198 80.9857 45.6865 80.9191C45.5531 80.8524 45.4331 80.7724 45.3265 80.6791C45.2198 80.5724 45.1398 80.4524 45.0731 80.3191C45.0065 80.1857 44.9798 80.039 44.9798 79.879V79.8657ZM45.0598 79.8657C45.0598 79.999 45.0865 80.1057 45.1398 80.199C45.1931 80.2924 45.2731 80.3724 45.3665 80.4391C45.4598 80.5057 45.5798 80.5457 45.6998 80.5857C45.8332 80.6124 45.9665 80.6257 46.0998 80.6257C46.2465 80.6257 46.3799 80.6124 46.4999 80.5724C46.6332 80.5457 46.7399 80.4924 46.8332 80.4257C46.9265 80.3591 47.0065 80.2791 47.0732 80.1857C47.1266 80.0924 47.1532 79.9857 47.1532 79.8524C47.1532 79.719 47.1266 79.6124 47.0732 79.519C47.0199 79.4257 46.9399 79.3457 46.8332 79.279C46.7399 79.2123 46.6199 79.1723 46.4999 79.1323C46.3665 79.1057 46.2332 79.079 46.0998 79.079C45.9532 79.079 45.8198 79.0923 45.6998 79.119C45.5665 79.1457 45.4598 79.199 45.3665 79.2657C45.2731 79.3323 45.1931 79.4123 45.1398 79.5057C45.0865 79.599 45.0598 79.7057 45.0598 79.839V79.8657ZM45.0465 81.9058V81.3724H45.0598C45.1131 81.3991 45.1531 81.4124 45.2065 81.4258C45.2598 81.4391 45.2998 81.4524 45.3665 81.4524C45.4198 81.4524 45.4731 81.4658 45.5398 81.4658C45.6065 81.4658 45.6732 81.4658 45.7532 81.4658H46.6065C46.7265 81.4658 46.8199 81.4391 46.8865 81.3991C46.9532 81.3591 47.0199 81.3058 47.0599 81.2658H47.0732L47.3132 81.7724H46.8865V81.7858C47.0199 81.8925 47.1132 82.0125 47.1799 82.1458C47.2466 82.2791 47.2866 82.4125 47.2866 82.5725C47.2866 82.7858 47.2332 82.9458 47.1132 83.0525C46.9932 83.1592 46.8332 83.2125 46.6332 83.2125H45.7665C45.6865 83.2125 45.6065 83.2125 45.5531 83.2125C45.4865 83.2125 45.4331 83.2125 45.3798 83.2258C45.3265 83.2258 45.2731 83.2392 45.2198 83.2525C45.1665 83.2658 45.1265 83.2792 45.0731 83.3059H45.0598V82.7725H45.0731C45.1665 82.8125 45.2731 82.8392 45.3798 82.8525C45.4865 82.8658 45.6065 82.8658 45.7665 82.8658H46.5532C46.6199 82.8658 46.6865 82.8525 46.7532 82.8392C46.8199 82.8258 46.8732 82.7992 46.9132 82.7592C46.9665 82.7192 46.9932 82.6792 47.0199 82.6125C47.0465 82.5458 47.0599 82.4791 47.0599 82.3991C47.0599 82.2925 47.0332 82.1858 46.9932 82.0791C46.9532 81.9725 46.8865 81.8658 46.7932 81.7858H45.7532C45.5932 81.7858 45.4598 81.7858 45.3665 81.7991C45.2598 81.8125 45.1665 81.8391 45.0598 81.8791H45.0465V81.9058Z" fill="black"/>
  <path fill-rule="evenodd" clip-rule="evenodd" d="M30.6094 34.0503V43.9307H46.2367H61.8641V34.0503C60.1573 33.4902 46.2367 33.4902 46.2367 33.4902C46.2367 33.4902 32.3161 33.4902 30.6094 34.0503Z" stroke="black" stroke-width="1.2" stroke-miterlimit="2.61313"/>
  <path fill-rule="evenodd" clip-rule="evenodd" d="M33.0726 33.7702C33.0726 31.4768 32.9259 28.13 33.246 24.9165C33.6593 20.7163 34.846 16.7561 38.1262 15.6494H46.1798H54.2335C60.0471 17.6095 59.2871 28.49 59.2871 33.7702C54.7669 33.5035 46.2332 33.5035 46.2332 33.5035H46.1798C45.4865 33.5035 37.3661 33.5169 33.0726 33.7702Z" stroke="black" stroke-width="1.2" stroke-miterlimit="2.61313"/>
  <path d="M33.0625 28.8098C40.4895 27.7965 51.8366 27.7965 59.2503 28.8098" stroke="black" stroke-width="1.2" stroke-miterlimit="2.61313"/>
  <path d="M34.5 19H57.5" stroke="black" stroke-width="1.2" stroke-miterlimit="2.61313"/>
  <path d="M37.0469 13.1963V28.1569" stroke="black" stroke-width="1.2" stroke-miterlimit="2.61313" stroke-linecap="round" stroke-linejoin="round"/>
  <path d="M40.7031 13.1963V28.1569" stroke="black" stroke-width="1.2" stroke-miterlimit="2.61313" stroke-linecap="round" stroke-linejoin="round"/>
  <path d="M44.3672 13.1963V28.1569" stroke="black" stroke-width="1.2" stroke-miterlimit="2.61313" stroke-linecap="round" stroke-linejoin="round"/>
  <path d="M48.0312 13.1963V28.1569" stroke="black" stroke-width="1.2" stroke-miterlimit="2.61313" stroke-linecap="round" stroke-linejoin="round"/>
  <path d="M51.7031 13.1963V28.1569" stroke="black" stroke-width="1.2" stroke-miterlimit="2.61313" stroke-linecap="round" stroke-linejoin="round"/>
  <path d="M55.3516 13.1963V28.1569" stroke="black" stroke-width="1.2" stroke-miterlimit="2.61313" stroke-linecap="round" stroke-linejoin="round"/>
</svg>