<svg width="70" height="60" viewBox="0 0 70 60" fill="none" xmlns="http://www.w3.org/2000/svg">
<g id="Frame 1667">
<g id="Group 1000003910">
<g id="Group 1000003909">
<circle id="Ellipse 107" cx="17.5727" cy="39.1586" r="2.99065" fill="black"/>
<circle id="Ellipse 109" cx="36.6384" cy="39.1586" r="2.99065" fill="black"/>
<circle id="Ellipse 112" cx="28.0405" cy="47.0092" r="2.99065" fill="black"/>
<circle id="Ellipse 111" cx="55.7035" cy="39.1586" r="2.99065" fill="black"/>
<circle id="Ellipse 113" cx="47.1047" cy="47.0092" r="2.99065" fill="black"/>
</g>
<path id="Vector" d="M7.86108 26.627C10.3732 26.627 11.6707 25.854 12.8302 25.1638C13.8792 24.5289 14.7902 24.0044 16.695 24.0044C18.5998 24.0044 19.5108 24.5289 20.5598 25.1638C21.7193 25.854 23.0168 26.627 25.5289 26.627C28.0411 26.627 29.3386 25.854 30.498 25.1638C31.5471 24.5289 32.4581 24.0044 34.3353 24.0044C36.2125 24.0044 37.1511 24.5289 38.1725 25.1638C39.332 25.854 40.6295 26.627 43.1416 26.627C45.6538 26.627 46.9512 25.854 48.1107 25.1638C49.1597 24.5289 50.0707 24.0044 51.9479 24.0044C53.8251 24.0044 54.7361 24.5289 55.7852 25.1638C56.9446 25.854 58.2421 26.627 60.7543 26.627" stroke="black"/>
<path id="Vector 150" d="M6.25391 17.8506H63.824" stroke="black"/>
<path id="Vector 151" d="M6.25391 10H63.824" stroke="black"/>
</g>
</g>
</svg>
