<svg xmlns="http://www.w3.org/2000/svg" width="121" height="115" viewBox="0 0 121 115" fill="none">
  <g clip-path="url(#clip0_11494_7644)">
    <path d="M43.9211 38.017C45.0123 38.017 45.8969 37.1324 45.8969 36.0412C45.8969 34.95 45.0123 34.0654 43.9211 34.0654C42.8299 34.0654 41.9453 34.95 41.9453 36.0412C41.9453 37.1324 42.8299 38.017 43.9211 38.017Z" fill="black"/>
    <path d="M42.5668 35.8318C42.9877 35.8318 43.3289 35.4906 43.3289 35.0697C43.3289 34.6488 42.9877 34.3076 42.5668 34.3076C42.1459 34.3076 41.8047 34.6488 41.8047 35.0697C41.8047 35.4906 42.1459 35.8318 42.5668 35.8318Z" fill="white"/>
    <path fill-rule="evenodd" clip-rule="evenodd" d="M51.811 38.514C54.0408 38.1894 48.5792 34.9152 48.3251 34.7318C47.1115 33.8709 45.5167 33.3346 43.8091 33.2499C39.9422 33.0524 38.3051 34.6471 35.5391 36.8205C35.5391 36.8205 36.5693 36.6793 37.6842 37.9071C38.7991 39.1349 43.0893 40.6027 46.8151 39.6994C50.5408 38.7962 51.8392 38.5281 51.8392 38.5281L51.811 38.514Z" stroke="black" stroke-width="1.2" stroke-miterlimit="2.61313" stroke-linecap="round" stroke-linejoin="round"/>
    <mask id="mask0_11494_7644" style="mask-type:alpha" maskUnits="userSpaceOnUse" x="39" y="31" width="10" height="10">
      <path d="M43.9284 39.6263C45.9081 39.6263 47.513 38.0214 47.513 36.0416C47.513 34.0619 45.9081 32.457 43.9284 32.457C41.9486 32.457 40.3438 34.0619 40.3438 36.0416C40.3438 38.0214 41.9486 39.6263 43.9284 39.6263Z" stroke="black" stroke-width="1.2" stroke-miterlimit="2.61313" stroke-linecap="round" stroke-linejoin="round"/>
    </mask>
    <g mask="url(#mask0_11494_7644)">
      <path fill-rule="evenodd" clip-rule="evenodd" d="M51.811 38.5135C54.0408 38.1889 48.5792 34.9147 48.3251 34.7313C47.1115 33.8704 45.5167 33.3341 43.8091 33.2495C39.9422 33.0519 38.3051 34.6466 35.5391 36.82C35.5391 36.82 36.5693 36.6788 37.6842 37.9066C38.7991 39.1344 43.0893 40.6022 46.8151 39.6989C50.5408 38.7957 51.8392 38.5276 51.8392 38.5276L51.811 38.5135Z" fill="black" stroke="black" stroke-width="1.2" stroke-miterlimit="2.61313" stroke-linecap="round" stroke-linejoin="round"/>
    </g>
    <path d="M51.2895 37.1006C51.2895 37.1006 50.598 37.8203 50.8802 38.653" stroke="black" stroke-width="1.2" stroke-miterlimit="2.61313" stroke-linecap="round" stroke-linejoin="round"/>
    <path d="M52.1288 36.0857C52.1288 36.0857 49.6026 31.6826 43.6753 31.6261C37.7479 31.5697 34.8125 35.1825 34.8125 35.1825" stroke="black" stroke-width="1.2" stroke-miterlimit="2.61313" stroke-linecap="round" stroke-linejoin="round"/>
    <path fill-rule="evenodd" clip-rule="evenodd" d="M52.8683 29.8043C52.8683 29.8043 53.9268 28.4354 50.8784 26.8407C50.8784 26.8407 39.7859 23.5524 37.2033 23.877C34.6206 24.2016 30.5703 27.4334 30.5703 27.4334C30.5703 27.4334 35.0864 25.6976 40.2516 27.0665C45.4168 28.4354 52.3462 30.3547 52.8683 29.8043V29.8043Z" stroke="black" stroke-width="1.2" stroke-miterlimit="2.61313" stroke-linecap="round" stroke-linejoin="round"/>
    <path d="M61.7235 61.7018C61.7235 61.7018 60.2698 61.7441 59.6912 61.0808C59.0985 60.4175 57.6167 59.8248 56.4453 59.9095" stroke="black" stroke-width="1.2" stroke-miterlimit="2.61313" stroke-linecap="round" stroke-linejoin="round"/>
    <path d="M54.7528 56.6187C54.7528 56.6187 52.7912 60.7254 56.8697 61.4028" stroke="black" stroke-width="1.2" stroke-miterlimit="2.61313" stroke-linecap="round" stroke-linejoin="round"/>
    <path d="M55.5312 34.5171C55.5312 34.5171 59.0594 37.6501 58.3538 46.2729" stroke="black" stroke-width="1.2" stroke-miterlimit="2.61313" stroke-linecap="round" stroke-linejoin="round"/>
    <path fill-rule="evenodd" clip-rule="evenodd" d="M61.9391 69.572C61.9391 69.572 59.0601 68.1608 57.0278 69.3321C54.9956 70.5035 49.1953 73.4107 49.1953 73.4107C49.1953 73.4107 51.7779 81.3279 61.9391 81.3279C72.1002 81.3279 74.6828 73.4107 74.6828 73.4107C74.6828 73.4107 68.8825 70.5176 66.8503 69.3321C64.818 68.1608 61.9391 69.572 61.9391 69.572V69.572Z" stroke="black" stroke-width="1.2" stroke-miterlimit="2.61313" stroke-linecap="round" stroke-linejoin="round"/>
    <path d="M61.9388 74.3867C61.9388 74.3867 61.219 74.3444 60.3158 73.9775C59.4126 73.6105 54.9107 73.4271 52.7232 73.9351C50.5357 74.4432 49.8583 73.2295 47.5156 73.2295" stroke="black" stroke-width="1.2" stroke-miterlimit="2.61313" stroke-linecap="round" stroke-linejoin="round"/>
    <path d="M21.1172 34.7427C21.1172 34.7427 25.8026 54.444 28.3005 64.7039C30.8126 74.9638 31.4335 76.6855 36.9093 81.8508C42.3991 87.016 52.913 96.7396 61.9169 96.7396" stroke="black" stroke-width="1.2" stroke-miterlimit="2.61313" stroke-linecap="round" stroke-linejoin="round"/>
    <path d="M17.7364 32.0332C17.7364 32.0332 14.7163 32.0755 15.7324 36.4646C16.7485 40.8536 20.4319 47.1902 20.8976 51.8897C21.3633 56.5892 23.2121 57.9723 26.5991 57.6759" stroke="black" stroke-width="1.2" stroke-miterlimit="2.61313" stroke-linecap="round" stroke-linejoin="round"/>
    <path d="M18.5078 38.567C18.5078 38.567 19.0018 36.4501 20.0038 37.1557C21.0058 37.8614 23.0944 43.4218 23.0944 43.4218C23.0944 43.4218 21.7537 46.2443 22.5017 47.1052C23.2497 47.966 24.6892 49.716 24.6892 49.716" stroke="black" stroke-width="1.2" stroke-miterlimit="2.61313" stroke-linecap="round" stroke-linejoin="round"/>
    <path d="M79.9445 38.017C81.0357 38.017 81.9203 37.1324 81.9203 36.0412C81.9203 34.95 81.0357 34.0654 79.9445 34.0654C78.8533 34.0654 77.9688 34.95 77.9688 36.0412C77.9688 37.1324 78.8533 38.017 79.9445 38.017Z" fill="black"/>
    <path d="M78.5746 35.8318C78.9955 35.8318 79.3367 35.4906 79.3367 35.0697C79.3367 34.6488 78.9955 34.3076 78.5746 34.3076C78.1537 34.3076 77.8125 34.6488 77.8125 35.0697C77.8125 35.4906 78.1537 35.8318 78.5746 35.8318Z" fill="white"/>
    <path fill-rule="evenodd" clip-rule="evenodd" d="M72.0494 38.514C69.8196 38.1894 75.2812 34.9152 75.5352 34.7318C76.7489 33.8709 78.3436 33.3346 80.0513 33.2499C83.9181 33.0524 85.5552 34.6471 88.3213 36.8205C88.3213 36.8205 87.2911 36.6793 86.1762 37.9071C85.0613 39.1349 80.771 40.6027 77.0453 39.6994C73.3195 38.7962 72.0211 38.5281 72.0211 38.5281L72.0494 38.514Z" stroke="black" stroke-width="1.2" stroke-miterlimit="2.61313" stroke-linecap="round" stroke-linejoin="round"/>
    <mask id="mask1_11494_7644" style="mask-type:alpha" maskUnits="userSpaceOnUse" x="75" y="31" width="10" height="10">
      <path d="M79.944 39.6263C81.9237 39.6263 83.5286 38.0214 83.5286 36.0416C83.5286 34.0619 81.9237 32.457 79.944 32.457C77.9643 32.457 76.3594 34.0619 76.3594 36.0416C76.3594 38.0214 77.9643 39.6263 79.944 39.6263Z" stroke="black" stroke-width="1.2" stroke-miterlimit="2.61313" stroke-linecap="round" stroke-linejoin="round"/>
    </mask>
    <g mask="url(#mask1_11494_7644)">
      <path fill-rule="evenodd" clip-rule="evenodd" d="M72.0494 38.514C69.8196 38.1894 75.2812 34.9152 75.5352 34.7318C76.7489 33.8709 78.3436 33.3346 80.0513 33.2499C83.9181 33.0524 85.5552 34.6471 88.3213 36.8204C88.3213 36.8204 87.2911 36.6793 86.1762 37.9071C85.0613 39.1349 80.771 40.6026 77.0453 39.6994C73.3195 38.7962 72.0211 38.5281 72.0211 38.5281L72.0494 38.514Z" fill="black" stroke="black" stroke-width="1.2" stroke-miterlimit="2.61313" stroke-linecap="round" stroke-linejoin="round"/>
    </g>
    <path d="M72.5703 37.1006C72.5703 37.1006 73.2618 37.8203 72.9796 38.653" stroke="black" stroke-width="1.2" stroke-miterlimit="2.61313" stroke-linecap="round" stroke-linejoin="round"/>
    <path d="M71.7188 36.0857C71.7188 36.0857 74.2449 31.6826 80.1722 31.6261C86.0995 31.5697 89.035 35.1825 89.035 35.1825" stroke="black" stroke-width="1.2" stroke-miterlimit="2.61313" stroke-linecap="round" stroke-linejoin="round"/>
    <path fill-rule="evenodd" clip-rule="evenodd" d="M70.9903 29.8043C70.9903 29.8043 69.9318 28.4354 72.9802 26.8407C72.9802 26.8407 84.0727 23.5524 86.6553 23.877C89.238 24.2016 93.2883 27.4334 93.2883 27.4334C93.2883 27.4334 88.7722 25.6976 83.607 27.0665C78.4418 28.4354 71.5125 30.3547 70.9903 29.8043V29.8043Z" stroke="black" stroke-width="1.2" stroke-miterlimit="2.61313" stroke-linecap="round" stroke-linejoin="round"/>
    <path d="M62.1406 61.7018C62.1406 61.7018 63.5942 61.7441 64.1728 61.0808C64.7656 60.4175 66.2474 59.8248 67.4188 59.9095" stroke="black" stroke-width="1.2" stroke-miterlimit="2.61313" stroke-linecap="round" stroke-linejoin="round"/>
    <path d="M69.1169 56.6187C69.1169 56.6187 71.0786 60.7254 67 61.4028" stroke="black" stroke-width="1.2" stroke-miterlimit="2.61313" stroke-linecap="round" stroke-linejoin="round"/>
    <path d="M68.3299 34.5171C68.3299 34.5171 64.8017 37.6501 65.5074 46.2729" stroke="black" stroke-width="1.2" stroke-miterlimit="2.61313" stroke-linecap="round" stroke-linejoin="round"/>
    <path d="M61.9297 74.3867C61.9297 74.3867 62.6494 74.3444 63.5526 73.9775C64.4559 73.6105 68.9578 73.4271 71.1453 73.9351C73.3327 74.4432 74.0101 73.2295 76.3528 73.2295" stroke="black" stroke-width="1.2" stroke-miterlimit="2.61313" stroke-linecap="round" stroke-linejoin="round"/>
    <path d="M102.737 34.7432C102.737 34.7432 98.0518 54.4444 95.5539 64.7044C93.0418 74.9643 92.4209 76.686 86.9451 81.8513C81.4553 87.0165 70.9414 96.7401 61.9375 96.7401" stroke="black" stroke-width="1.2" stroke-miterlimit="2.61313" stroke-linecap="round" stroke-linejoin="round"/>
    <path d="M106.128 32.0332C106.128 32.0332 109.148 32.0755 108.132 36.4646C107.116 40.8536 103.433 47.1902 102.967 51.8897C102.501 56.5892 100.653 57.9723 97.2656 57.6759" stroke="black" stroke-width="1.2" stroke-miterlimit="2.61313" stroke-linecap="round" stroke-linejoin="round"/>
    <path d="M105.345 38.567C105.345 38.567 104.851 36.4501 103.849 37.1557C102.847 37.8614 100.759 43.4218 100.759 43.4218C100.759 43.4218 102.099 46.2443 101.352 47.1052C100.604 47.966 99.1641 49.716 99.1641 49.716" stroke="black" stroke-width="1.2" stroke-miterlimit="2.61313" stroke-linecap="round" stroke-linejoin="round"/>
    <path fill-rule="evenodd" clip-rule="evenodd" d="M21.7188 81.0605C28.7186 81.0605 34.3919 74.23 34.3919 65.8047C34.3919 74.23 40.0652 81.0605 47.0651 81.0605C40.0652 81.0605 34.3919 87.891 34.3919 96.3163C34.3919 87.891 28.7186 81.0605 21.7188 81.0605Z" fill="white" stroke="black" stroke-width="1.2" stroke-miterlimit="2.61313" stroke-linecap="round" stroke-linejoin="round"/>
    <path fill-rule="evenodd" clip-rule="evenodd" d="M6.86719 70.2791C10.5224 70.2791 13.486 66.4828 13.486 61.8115C13.486 66.4828 16.4497 70.2791 20.1049 70.2791C16.4497 70.2791 13.486 74.0754 13.486 78.7467C13.486 74.0754 10.5224 70.2791 6.86719 70.2791Z" fill="white" stroke="black" stroke-width="1.2" stroke-miterlimit="2.61313" stroke-linecap="round" stroke-linejoin="round"/>
    <path fill-rule="evenodd" clip-rule="evenodd" d="M84.5 52.2323C87.8134 52.2323 90.5 48.9215 90.5 44.8477C90.5 48.9215 93.1866 52.2323 96.5 52.2323C93.1866 52.2323 90.5 55.543 90.5 59.6169C90.5 55.543 87.8134 52.2323 84.5 52.2323Z" fill="white" stroke="black" stroke-width="1.2" stroke-miterlimit="2.61313" stroke-linecap="round" stroke-linejoin="round"/>
  </g>
  <defs>
    <clipPath id="clip0_11494_7644">
      <rect width="120" height="115" fill="white" transform="translate(0.5)"/>
    </clipPath>
  </defs>
</svg>