<svg xmlns="http://www.w3.org/2000/svg" width="121" height="115" viewBox="0 0 121 115" fill="none">
  <path d="M43.9211 38.0126C45.0123 38.0126 45.8969 37.128 45.8969 36.0368C45.8969 34.9456 45.0123 34.061 43.9211 34.061C42.8299 34.061 41.9453 34.9456 41.9453 36.0368C41.9453 37.128 42.8299 38.0126 43.9211 38.0126Z" fill="black"/>
  <path d="M42.5668 35.8274C42.9877 35.8274 43.3289 35.4862 43.3289 35.0653C43.3289 34.6444 42.9877 34.3032 42.5668 34.3032C42.1459 34.3032 41.8047 34.6444 41.8047 35.0653C41.8047 35.4862 42.1459 35.8274 42.5668 35.8274Z" fill="white"/>
  <path fill-rule="evenodd" clip-rule="evenodd" d="M51.811 38.5101C54.0408 38.1855 48.5792 34.9113 48.3251 34.7279C47.1115 33.867 45.5167 33.3307 43.8091 33.246C39.9422 33.0485 38.3051 34.6432 35.5391 36.8165C35.5391 36.8165 36.5693 36.6754 37.6842 37.9032C38.7991 39.131 43.0893 40.5987 46.8151 39.6955C50.5408 38.7923 51.8392 38.5242 51.8392 38.5242L51.811 38.5101Z" stroke="black" stroke-width="1.2" stroke-miterlimit="2.61313" stroke-linecap="round" stroke-linejoin="round"/>
  <mask id="mask0_11494_7700" style="mask-type:alpha" maskUnits="userSpaceOnUse" x="39" y="31" width="10" height="10">
    <path d="M43.9284 39.6224C45.9081 39.6224 47.513 38.0175 47.513 36.0377C47.513 34.058 45.9081 32.4531 43.9284 32.4531C41.9486 32.4531 40.3438 34.058 40.3438 36.0377C40.3438 38.0175 41.9486 39.6224 43.9284 39.6224Z" stroke="black" stroke-width="1.2" stroke-miterlimit="2.61313" stroke-linecap="round" stroke-linejoin="round"/>
  </mask>
  <g mask="url(#mask0_11494_7700)">
    <path fill-rule="evenodd" clip-rule="evenodd" d="M51.811 38.5096C54.0408 38.185 48.5792 34.9108 48.3251 34.7274C47.1115 33.8665 45.5167 33.3302 43.8091 33.2455C39.9422 33.048 38.3051 34.6427 35.5391 36.8161C35.5391 36.8161 36.5693 36.6749 37.6842 37.9027C38.7991 39.1305 43.0893 40.5983 46.8151 39.695C50.5408 38.7918 51.8392 38.5237 51.8392 38.5237L51.811 38.5096Z" fill="black" stroke="black" stroke-width="1.2" stroke-miterlimit="2.61313" stroke-linecap="round" stroke-linejoin="round"/>
  </g>
  <path d="M51.2895 37.0962C51.2895 37.0962 50.598 37.8159 50.8802 38.6486" stroke="black" stroke-width="1.2" stroke-miterlimit="2.61313" stroke-linecap="round" stroke-linejoin="round"/>
  <path d="M52.1288 36.0813C52.1288 36.0813 49.6026 31.6782 43.6753 31.6217C37.7479 31.5653 34.8125 35.1781 34.8125 35.1781" stroke="black" stroke-width="1.2" stroke-miterlimit="2.61313" stroke-linecap="round" stroke-linejoin="round"/>
  <path fill-rule="evenodd" clip-rule="evenodd" d="M52.8683 29.8C52.8683 29.8 53.9268 28.431 50.8784 26.8363C50.8784 26.8363 39.7859 23.548 37.2033 23.8726C34.6206 24.1972 30.5703 27.429 30.5703 27.429C30.5703 27.429 35.0864 25.6932 40.2516 27.0621C45.4168 28.431 52.3462 30.3503 52.8683 29.8V29.8Z" stroke="black" stroke-width="1.2" stroke-miterlimit="2.61313" stroke-linecap="round" stroke-linejoin="round"/>
  <path d="M61.7235 61.6974C61.7235 61.6974 60.2698 61.7397 59.6912 61.0764C59.0985 60.4131 57.6167 59.8204 56.4453 59.9051" stroke="black" stroke-width="1.2" stroke-miterlimit="2.61313" stroke-linecap="round" stroke-linejoin="round"/>
  <path d="M54.7528 56.6143C54.7528 56.6143 52.7912 60.721 56.8697 61.3984" stroke="black" stroke-width="1.2" stroke-miterlimit="2.61313" stroke-linecap="round" stroke-linejoin="round"/>
  <path d="M55.5312 34.5127C55.5312 34.5127 59.0594 37.6457 58.3538 46.2685" stroke="black" stroke-width="1.2" stroke-miterlimit="2.61313" stroke-linecap="round" stroke-linejoin="round"/>
  <path fill-rule="evenodd" clip-rule="evenodd" d="M61.9391 69.5681C61.9391 69.5681 59.0601 68.1569 57.0278 69.3282C54.9956 70.4996 49.1953 73.4068 49.1953 73.4068C49.1953 73.4068 51.7779 81.324 61.9391 81.324C72.1002 81.324 74.6828 73.4068 74.6828 73.4068C74.6828 73.4068 68.8825 70.5137 66.8503 69.3282C64.818 68.1569 61.9391 69.5681 61.9391 69.5681V69.5681Z" stroke="black" stroke-width="1.2" stroke-miterlimit="2.61313" stroke-linecap="round" stroke-linejoin="round"/>
  <path d="M61.9388 74.3823C61.9388 74.3823 61.219 74.34 60.3158 73.9731C59.4126 73.6061 54.9107 73.4227 52.7232 73.9307C50.5357 74.4388 49.8583 73.2251 47.5156 73.2251" stroke="black" stroke-width="1.2" stroke-miterlimit="2.61313" stroke-linecap="round" stroke-linejoin="round"/>
  <path d="M21.1172 34.7383C21.1172 34.7383 25.8026 54.4396 28.3005 64.6995C30.8126 74.9594 31.4335 76.6811 36.9093 81.8464C42.3991 87.0116 52.913 96.7352 61.9169 96.7352" stroke="black" stroke-width="1.2" stroke-miterlimit="2.61313" stroke-linecap="round" stroke-linejoin="round"/>
  <path d="M17.7364 32.0288C17.7364 32.0288 14.7163 32.0711 15.7324 36.4602C16.7485 40.8492 20.4319 47.1858 20.8976 51.8853C21.3633 56.5849 23.2121 57.9679 26.5991 57.6715" stroke="black" stroke-width="1.2" stroke-miterlimit="2.61313" stroke-linecap="round" stroke-linejoin="round"/>
  <path d="M18.5078 38.5631C18.5078 38.5631 19.0018 36.4462 20.0038 37.1518C21.0058 37.8575 23.0944 43.4178 23.0944 43.4178C23.0944 43.4178 21.7537 46.2404 22.5017 47.1012C23.2497 47.9621 24.6892 49.7121 24.6892 49.7121" stroke="black" stroke-width="1.2" stroke-miterlimit="2.61313" stroke-linecap="round" stroke-linejoin="round"/>
  <path d="M79.9445 38.0126C81.0357 38.0126 81.9203 37.128 81.9203 36.0368C81.9203 34.9456 81.0357 34.061 79.9445 34.061C78.8533 34.061 77.9688 34.9456 77.9688 36.0368C77.9688 37.128 78.8533 38.0126 79.9445 38.0126Z" fill="black"/>
  <path d="M78.5746 35.8274C78.9955 35.8274 79.3367 35.4862 79.3367 35.0653C79.3367 34.6444 78.9955 34.3032 78.5746 34.3032C78.1537 34.3032 77.8125 34.6444 77.8125 35.0653C77.8125 35.4862 78.1537 35.8274 78.5746 35.8274Z" fill="white"/>
  <path fill-rule="evenodd" clip-rule="evenodd" d="M72.0494 38.5101C69.8196 38.1855 75.2812 34.9113 75.5352 34.7279C76.7489 33.867 78.3436 33.3307 80.0513 33.246C83.9181 33.0485 85.5552 34.6432 88.3213 36.8165C88.3213 36.8165 87.2911 36.6754 86.1762 37.9032C85.0613 39.131 80.771 40.5987 77.0453 39.6955C73.3195 38.7923 72.0211 38.5242 72.0211 38.5242L72.0494 38.5101Z" stroke="black" stroke-width="1.2" stroke-miterlimit="2.61313" stroke-linecap="round" stroke-linejoin="round"/>
  <mask id="mask1_11494_7700" style="mask-type:alpha" maskUnits="userSpaceOnUse" x="75" y="31" width="10" height="10">
    <path d="M79.944 39.6219C81.9237 39.6219 83.5286 38.017 83.5286 36.0373C83.5286 34.0575 81.9237 32.4526 79.944 32.4526C77.9643 32.4526 76.3594 34.0575 76.3594 36.0373C76.3594 38.017 77.9643 39.6219 79.944 39.6219Z" stroke="black" stroke-width="1.2" stroke-miterlimit="2.61313" stroke-linecap="round" stroke-linejoin="round"/>
  </mask>
  <g mask="url(#mask1_11494_7700)">
    <path fill-rule="evenodd" clip-rule="evenodd" d="M72.0494 38.5091C69.8196 38.1845 75.2812 34.9104 75.5352 34.7269C76.7489 33.866 78.3436 33.3297 80.0513 33.2451C83.9181 33.0475 85.5552 34.6422 88.3213 36.8156C88.3213 36.8156 87.2911 36.6744 86.1762 37.9022C85.0613 39.13 80.771 40.5978 77.0453 39.6946C73.3195 38.7913 72.0211 38.5232 72.0211 38.5232L72.0494 38.5091Z" fill="black" stroke="black" stroke-width="1.2" stroke-miterlimit="2.61313" stroke-linecap="round" stroke-linejoin="round"/>
  </g>
  <path d="M72.5703 37.0962C72.5703 37.0962 73.2618 37.8159 72.9796 38.6486" stroke="black" stroke-width="1.2" stroke-miterlimit="2.61313" stroke-linecap="round" stroke-linejoin="round"/>
  <path d="M71.7188 36.0813C71.7188 36.0813 74.2449 31.6782 80.1722 31.6217C86.0995 31.5653 89.035 35.1781 89.035 35.1781" stroke="black" stroke-width="1.2" stroke-miterlimit="2.61313" stroke-linecap="round" stroke-linejoin="round"/>
  <path fill-rule="evenodd" clip-rule="evenodd" d="M70.9903 29.8C70.9903 29.8 69.9318 28.431 72.9802 26.8363C72.9802 26.8363 84.0727 23.548 86.6553 23.8726C89.238 24.1972 93.2883 27.429 93.2883 27.429C93.2883 27.429 88.7722 25.6932 83.607 27.0621C78.4418 28.431 71.5125 30.3503 70.9903 29.8V29.8Z" stroke="black" stroke-width="1.2" stroke-miterlimit="2.61313" stroke-linecap="round" stroke-linejoin="round"/>
  <path d="M62.1406 61.6974C62.1406 61.6974 63.5942 61.7397 64.1728 61.0764C64.7656 60.4131 66.2474 59.8204 67.4188 59.9051" stroke="black" stroke-width="1.2" stroke-miterlimit="2.61313" stroke-linecap="round" stroke-linejoin="round"/>
  <path d="M69.1169 56.6143C69.1169 56.6143 71.0786 60.721 67 61.3984" stroke="black" stroke-width="1.2" stroke-miterlimit="2.61313" stroke-linecap="round" stroke-linejoin="round"/>
  <path d="M68.3299 34.5127C68.3299 34.5127 64.8017 37.6457 65.5074 46.2685" stroke="black" stroke-width="1.2" stroke-miterlimit="2.61313" stroke-linecap="round" stroke-linejoin="round"/>
  <path d="M61.9297 74.3823C61.9297 74.3823 62.6494 74.34 63.5526 73.9731C64.4559 73.6061 68.9578 73.4227 71.1453 73.9307C73.3327 74.4388 74.0101 73.2251 76.3528 73.2251" stroke="black" stroke-width="1.2" stroke-miterlimit="2.61313" stroke-linecap="round" stroke-linejoin="round"/>
  <path d="M102.737 34.7383C102.737 34.7383 98.0518 54.4396 95.5539 64.6995C93.0418 74.9594 92.4209 76.6811 86.9451 81.8464C81.4553 87.0116 70.9414 96.7352 61.9375 96.7352" stroke="black" stroke-width="1.2" stroke-miterlimit="2.61313" stroke-linecap="round" stroke-linejoin="round"/>
  <path d="M106.128 32.0288C106.128 32.0288 109.148 32.0711 108.132 36.4602C107.116 40.8492 103.433 47.1858 102.967 51.8853C102.501 56.5849 100.653 57.9679 97.2656 57.6715" stroke="black" stroke-width="1.2" stroke-miterlimit="2.61313" stroke-linecap="round" stroke-linejoin="round"/>
  <path d="M105.345 38.5626C105.345 38.5626 104.851 36.4457 103.849 37.1513C102.847 37.857 100.759 43.4174 100.759 43.4174C100.759 43.4174 102.099 46.2399 101.352 47.1008C100.604 47.9616 99.1641 49.7116 99.1641 49.7116" stroke="black" stroke-width="1.2" stroke-miterlimit="2.61313" stroke-linecap="round" stroke-linejoin="round"/>
  <path fill-rule="evenodd" clip-rule="evenodd" d="M116.18 82.2631C114.447 86.029 110.689 91.6299 109.579 91.3093L93.2066 81.4637C93.2066 81.4637 92.3068 80.9934 92.7298 79.5128L93.2732 78.4091L95.5876 74.5604L97.902 70.7118L98.6222 69.7144C99.7348 68.6414 100.569 69.2209 100.569 69.2209L117.317 79.2923" stroke="black" stroke-miterlimit="2.61313"/>
  <path d="M103.905 76.4589L103.463 76.1931L103.694 75.8082L103.692 75.7999C103.635 75.8363 103.573 75.8695 103.505 75.8996C103.437 75.9297 103.367 75.9515 103.296 75.965C103.224 75.9784 103.145 75.9804 103.067 75.9689C102.989 75.9574 102.912 75.9323 102.834 75.8854C102.678 75.7916 102.592 75.6625 102.575 75.5032C102.557 75.3439 102.608 75.1764 102.718 74.9944L103.443 73.7878L103.906 74.0662L103.196 75.2467C103.134 75.3508 103.11 75.4496 103.122 75.535C103.135 75.6203 103.189 75.6953 103.277 75.7485C103.355 75.7954 103.43 75.8121 103.507 75.8018C103.584 75.7915 103.654 75.7697 103.723 75.726L104.504 74.4258L104.967 74.7042L103.913 76.4569L103.905 76.4589ZM108.121 76.5724L108.048 76.5286L108.064 76.5026L108.246 76.6121L108.23 76.6381L108.158 76.5943L108.042 76.7867L108.011 76.768L108.126 76.5755L108.121 76.5724ZM108.349 76.9713L108.446 76.81L108.289 76.8932L108.274 76.8838L108.274 76.7068L108.18 76.8629L108.149 76.8441L108.28 76.6257L108.306 76.6413L108.306 76.8536L108.488 76.7508L108.514 76.7664L108.383 76.9848L108.352 76.9661L108.349 76.9713ZM106.18 75.4194C106.104 75.4162 106.025 75.4182 105.953 75.4316C105.876 75.442 105.801 75.4606 105.728 75.4876C105.659 75.5094 105.597 75.5291 105.544 75.5468L105.76 75.1879L105.297 74.9095L104.693 75.9133L104.243 76.6622L104.711 76.9437L105.502 75.6279C105.564 75.6082 105.614 75.5957 105.666 75.5916C105.715 75.5927 105.755 75.5959 105.787 75.6146C105.807 75.6272 105.83 75.648 105.858 75.672C105.883 75.7011 105.908 75.7303 105.938 75.7626C105.96 75.797 105.982 75.8313 106.004 75.8657C106.022 75.9053 106.036 75.9417 106.039 75.9719L106.075 75.9938L106.388 75.4737C106.321 75.433 106.268 75.4153 106.192 75.4121L106.18 75.4194ZM101.938 75.7503C101.75 75.6377 101.564 75.5469 101.389 75.4843C101.209 75.4186 101.046 75.3841 100.891 75.3829C100.736 75.3817 100.592 75.4086 100.462 75.4719C100.332 75.5353 100.229 75.6362 100.141 75.7818L100.063 75.7349C100.076 75.7141 100.082 75.7037 100.082 75.7037C100.19 75.5352 100.327 75.3906 100.483 75.2721C100.656 75.1495 100.845 75.0581 101.045 75.0083C101.248 74.9534 101.453 74.9421 101.667 74.9642C101.88 74.9863 102.084 75.0593 102.282 75.1782L101.934 75.7555L101.938 75.7503ZM100.766 74.5428C100.911 74.6304 101.05 74.6711 101.194 74.6661C101.339 74.661 101.476 74.6226 101.615 74.5437C101.751 74.4699 101.883 74.3576 102.011 74.2152C102.139 74.0727 102.258 73.9105 102.374 73.718C102.486 73.5308 102.577 73.3446 102.643 73.1646C102.708 72.9846 102.743 72.8212 102.747 72.661C102.748 72.5059 102.722 72.3622 102.658 72.2321C102.595 72.1019 102.494 71.9988 102.348 71.9112C102.203 71.8236 102.064 71.7829 101.92 71.788C101.775 71.793 101.635 71.8366 101.499 71.9103C101.359 71.9893 101.231 72.0964 101.103 72.2388C100.975 72.3813 100.856 72.5436 100.744 72.7308C100.631 72.918 100.543 73.099 100.478 73.279C100.412 73.459 100.377 73.6224 100.373 73.7827C100.372 73.9377 100.399 74.0814 100.462 74.2115C100.526 74.3417 100.626 74.4448 100.772 74.5324L100.766 74.5428ZM100.618 74.5531C100.479 74.4551 100.355 74.3311 100.259 74.1957C100.137 74.0228 100.045 73.8333 99.9955 73.6334C99.9457 73.4336 99.9292 73.2254 99.9513 73.012C99.9734 72.7987 100.046 72.5948 100.165 72.3972C100.281 72.2047 100.427 72.0446 100.608 71.9199C100.786 71.8004 100.976 71.709 101.181 71.6623C101.381 71.6126 101.591 71.6044 101.801 71.6317C102.011 71.659 102.21 71.7289 102.392 71.8384C102.574 71.9478 102.729 72.0906 102.852 72.2635C102.974 72.4364 103.066 72.6259 103.116 72.8258C103.17 73.0288 103.179 73.239 103.157 73.4524C103.134 73.6657 103.061 73.8696 102.943 74.0673C102.827 74.2597 102.681 74.4198 102.5 74.5446C102.322 74.6641 102.132 74.7555 101.93 74.7969C101.725 74.8435 101.52 74.8548 101.31 74.8275C101.113 74.8013 100.928 74.7324 100.753 74.6344C100.753 74.6344 100.665 74.5812 100.616 74.5448L100.618 74.5531ZM106.475 76.4605C106.53 76.3804 106.587 76.3086 106.652 76.2483C106.711 76.1849 106.775 76.1381 106.84 76.0997C106.906 76.0612 106.967 76.0415 107.033 76.0385C107.099 76.0354 107.16 76.0511 107.217 76.0855C107.311 76.1418 107.359 76.2272 107.364 76.3364C107.369 76.4457 107.277 76.6455 107.171 76.8223L107.102 76.9367L106.286 76.8568C106.313 76.7528 106.359 76.6529 106.431 76.5333L106.475 76.4605ZM107.207 77.7507C107.126 77.7798 107.027 77.7911 106.924 77.7858C106.816 77.7774 106.704 77.7388 106.59 77.67C106.502 77.6168 106.428 77.5512 106.365 77.4782C106.303 77.4053 106.269 77.321 106.249 77.2242C106.232 77.1357 106.239 77.041 106.261 76.9338L107.613 77.0881C107.613 77.0881 107.714 76.9082 107.684 76.5928C107.674 76.4804 107.613 76.3804 107.553 76.2804C107.488 76.1773 107.396 76.094 107.282 76.0252C107.173 75.9595 107.051 75.9146 106.919 75.8989C106.786 75.8831 106.655 75.8892 106.524 75.9307C106.396 75.967 106.266 76.0304 106.15 76.1167C106.032 76.2081 105.927 76.3225 105.84 76.4681C105.765 76.593 105.714 76.7251 105.69 76.8593C105.665 76.9936 105.666 77.1216 105.689 77.2486C105.712 77.3756 105.763 77.4912 105.839 77.6005C105.915 77.7099 106.016 77.7995 106.146 77.8777C106.344 77.9965 106.542 78.0446 106.729 78.0157C106.917 77.9867 107.086 77.9046 107.235 77.7747L107.221 77.7518L107.207 77.7507Z" fill="black"/>
  <path fill-rule="evenodd" clip-rule="evenodd" d="M100.486 78.125L100.489 78.1198C100.526 78.1063 100.557 78.0897 100.585 78.0783C100.608 78.0637 100.631 78.0492 100.654 78.0346C100.671 78.0169 100.692 77.9941 100.71 77.9764C100.731 77.9535 100.746 77.9275 100.768 77.8911L101.244 77.1006C101.259 77.0746 101.267 77.0506 101.271 77.0319C101.278 77.008 101.282 76.9893 101.281 76.9674C101.28 76.9455 101.279 76.9237 101.273 76.8987C101.267 76.8737 101.261 76.8487 101.249 76.8206L101.252 76.8154L101.507 76.9687L101.346 78.3309L102.464 77.5441L102.703 77.688L102.7 77.6932C102.665 77.6932 102.637 77.7046 102.612 77.7108C102.587 77.717 102.564 77.7316 102.544 77.7409C102.521 77.7555 102.503 77.7731 102.486 77.7908C102.465 77.8137 102.449 77.8397 102.43 77.8709L101.968 78.6406C101.949 78.6718 101.933 78.6978 101.926 78.7218C101.913 78.7426 101.906 78.7665 101.899 78.7904C101.891 78.8144 101.887 78.8331 101.885 78.8602C101.883 78.8872 101.881 78.9143 101.884 78.9445L101.881 78.9497L101.595 78.7776L101.598 78.7724C101.626 78.761 101.649 78.7465 101.672 78.7319C101.695 78.7174 101.709 78.7049 101.727 78.6872C101.745 78.6696 101.762 78.6519 101.775 78.6311C101.787 78.6103 101.811 78.5822 101.827 78.5562L102.359 77.672L101.192 78.4931L101.161 78.4743L101.327 77.0445L100.81 77.9161C100.791 77.9473 100.772 77.9785 100.762 78.0077C100.751 78.0368 100.744 78.0607 100.742 78.0878C100.74 78.1148 100.738 78.1419 100.741 78.1721C100.744 78.2023 100.749 78.2408 100.76 78.2824L100.756 78.2876L100.486 78.125ZM102.924 78.0046C102.908 78.0306 102.885 78.0452 102.86 78.0514C102.835 78.0576 102.808 78.0555 102.782 78.0399C102.756 78.0242 102.747 78.0044 102.735 77.9763C102.729 77.9513 102.731 77.9243 102.747 77.8983C102.762 77.8723 102.782 77.8629 102.81 77.8515C102.835 77.8453 102.862 77.8474 102.888 77.863C102.914 77.8787 102.924 77.8985 102.935 77.9266C102.941 77.9516 102.939 77.9786 102.924 78.0046ZM102.044 79.0549C102.082 79.0279 102.117 78.9926 102.147 78.9541C102.177 78.9156 102.211 78.8719 102.248 78.8095L102.445 78.4819C102.47 78.4403 102.482 78.3976 102.485 78.357C102.485 78.3216 102.48 78.2831 102.474 78.2581L102.477 78.2529L102.741 78.2844L102.378 78.8877C102.341 78.9501 102.31 79.0021 102.293 79.0417C102.273 79.0864 102.262 79.1291 102.252 79.18L102.249 79.1852L102.041 79.0601L102.044 79.0549ZM103.221 79.5005C103.154 79.5525 103.086 79.5826 103.004 79.5898C102.922 79.597 102.842 79.5772 102.753 79.524C102.696 79.4896 102.651 79.4479 102.616 79.399C102.582 79.35 102.556 79.299 102.541 79.2407C102.527 79.1824 102.529 79.12 102.545 79.0586C102.555 78.994 102.588 78.9285 102.625 78.8661C102.669 78.7933 102.717 78.7371 102.777 78.6956C102.838 78.654 102.897 78.6259 102.964 78.6094C103.03 78.5928 103.096 78.5897 103.16 78.6002C103.225 78.6107 103.288 78.6347 103.345 78.6691C103.403 78.7035 103.452 78.7399 103.479 78.7774C103.509 78.8097 103.531 78.8441 103.548 78.8618L103.454 79.0532L103.436 79.049C103.436 79.0137 103.431 78.9751 103.431 78.9398C103.425 78.9012 103.417 78.8679 103.406 78.8398C103.394 78.8117 103.378 78.7805 103.358 78.7544C103.338 78.7284 103.315 78.7075 103.289 78.6919C103.201 78.6387 103.114 78.6293 103.022 78.6656C102.929 78.702 102.85 78.7747 102.778 78.8944C102.709 79.0088 102.682 79.1128 102.693 79.2117C102.705 79.3106 102.764 79.3887 102.863 79.4481C102.915 79.4794 102.968 79.4972 103.024 79.5097C103.08 79.5223 103.141 79.5161 103.197 79.4932L103.204 79.5047L103.221 79.5005ZM103.266 79.7899C103.289 79.7754 103.304 79.7629 103.322 79.7452C103.339 79.7275 103.354 79.7151 103.369 79.6891C103.382 79.6683 103.4 79.6506 103.415 79.6246C103.431 79.5986 103.447 79.5726 103.465 79.5414L103.666 79.2085C103.694 79.1617 103.705 79.119 103.705 79.0837C103.705 79.0483 103.7 79.0098 103.694 78.9848L103.697 78.9796L103.951 79.0048L103.823 79.218L103.833 79.2243C103.866 79.216 103.894 79.2046 103.931 79.1911C103.967 79.1776 104.001 79.1693 104.039 79.1641C104.073 79.1558 104.108 79.1559 104.143 79.1559C104.179 79.1559 104.208 79.1664 104.239 79.1852L104.133 79.362L104.127 79.3589C104.125 79.3505 104.118 79.3391 104.111 79.3276C104.104 79.3162 104.091 79.3016 104.081 79.2953C104.068 79.2807 104.058 79.2745 104.045 79.2599C104.035 79.2536 104.022 79.2391 104.012 79.2328C103.996 79.2234 103.969 79.2213 103.931 79.2265C103.892 79.2316 103.851 79.242 103.811 79.2607L103.602 79.6092C103.564 79.6716 103.533 79.7236 103.516 79.7631C103.496 79.8078 103.485 79.8505 103.475 79.9015L103.472 79.9067L103.264 79.7816L103.267 79.7764L103.266 79.7899ZM104.22 80.406C104.158 80.3685 104.107 80.3236 104.07 80.2664C104.034 80.2091 104.006 80.1497 103.989 80.0831C103.973 80.0165 103.97 79.9509 103.98 79.8864C103.985 79.8187 104.009 79.7553 104.047 79.6929C104.085 79.6305 104.129 79.5795 104.187 79.5431C104.244 79.5068 104.306 79.4735 104.37 79.4621C104.437 79.4455 104.502 79.4425 104.57 79.4478C104.637 79.453 104.701 79.477 104.763 79.5146C104.826 79.5521 104.877 79.5969 104.913 79.6542C104.949 79.7115 104.977 79.7708 104.994 79.8374C105.011 79.9041 105.014 79.9696 105.003 80.0342C104.998 80.1018 104.971 80.1705 104.936 80.2277C104.899 80.2901 104.854 80.341 104.797 80.3774C104.739 80.4138 104.68 80.4418 104.619 80.4615C104.552 80.4781 104.486 80.4812 104.419 80.4759C104.351 80.4706 104.288 80.4466 104.225 80.4091L104.22 80.406ZM104.239 80.3748C104.291 80.4061 104.339 80.4207 104.388 80.4218C104.437 80.4229 104.487 80.4104 104.534 80.3896C104.582 80.3689 104.626 80.3314 104.67 80.294C104.712 80.2483 104.748 80.1994 104.779 80.1474C104.814 80.0902 104.84 80.035 104.852 79.9788C104.873 79.9206 104.877 79.8665 104.873 79.8144C104.869 79.7624 104.857 79.7124 104.836 79.6645C104.812 79.6218 104.777 79.5864 104.725 79.5551C104.673 79.5238 104.625 79.5092 104.576 79.5081C104.527 79.507 104.477 79.5195 104.426 79.5455C104.378 79.5662 104.334 79.6036 104.291 79.6411C104.249 79.6868 104.207 79.7326 104.176 79.7846C104.142 79.8418 104.115 79.8969 104.098 79.95C104.077 80.0083 104.073 80.0624 104.077 80.1144C104.081 80.1665 104.093 80.2164 104.117 80.2591C104.141 80.3018 104.176 80.3372 104.228 80.3685L104.239 80.3748ZM105.104 80.9023C105.132 80.8909 105.155 80.8763 105.178 80.8618C105.201 80.8472 105.216 80.8347 105.233 80.8171C105.251 80.7994 105.269 80.7817 105.281 80.7609C105.294 80.7401 105.315 80.7172 105.333 80.686L105.793 79.9215C105.812 79.8903 105.828 79.8643 105.835 79.8404C105.847 79.8196 105.855 79.7956 105.862 79.7717C105.869 79.7478 105.874 79.729 105.876 79.702C105.878 79.6749 105.88 79.6479 105.877 79.6177L105.88 79.6125L106.166 79.7845L106.163 79.7897C106.135 79.8011 106.112 79.8157 106.089 79.8302C106.066 79.8448 106.051 79.8572 106.034 79.8749C106.016 79.8926 105.998 79.9103 105.986 79.9311C105.973 79.9519 105.952 79.9747 105.934 80.0059L105.474 80.7705C105.455 80.8017 105.439 80.8277 105.432 80.8516C105.42 80.8724 105.412 80.8963 105.405 80.9203C105.398 80.9442 105.394 80.9629 105.391 80.99C105.389 81.0171 105.387 81.0441 105.39 81.0743L105.387 81.0795L105.101 80.9075L105.104 80.9023ZM105.756 81.3016L105.548 81.1765L105.552 81.1713C105.574 81.1567 105.589 81.1442 105.607 81.1266C105.624 81.1089 105.639 81.0964 105.655 81.0704C105.667 81.0496 105.685 81.0319 105.701 81.0059C105.716 80.9799 105.732 80.9539 105.751 80.9227L105.951 80.5898C105.979 80.543 105.99 80.5004 105.99 80.465C105.99 80.4296 105.985 80.3911 105.979 80.3661L105.982 80.3609L106.236 80.3861L106.136 80.5526L106.141 80.5557C106.214 80.5287 106.283 80.5204 106.35 80.5257C106.418 80.531 106.48 80.5467 106.542 80.5842C106.625 80.6342 106.675 80.6926 106.689 80.7644C106.702 80.8362 106.685 80.9111 106.638 80.9892L106.435 81.3272C106.416 81.3584 106.398 81.3896 106.385 81.4104C106.369 81.4364 106.357 81.4572 106.35 81.4812C106.337 81.502 106.33 81.5259 106.322 81.5498C106.315 81.5738 106.311 81.5925 106.309 81.6195L106.306 81.6247L106.098 81.4996L106.101 81.4944C106.138 81.4674 106.174 81.4321 106.204 81.3936C106.234 81.3551 106.262 81.3083 106.3 81.2459L106.484 80.939C106.5 80.913 106.51 80.8839 106.521 80.8548C106.531 80.8256 106.533 80.7986 106.527 80.7736C106.524 80.7434 106.515 80.7236 106.495 80.6976C106.475 80.6716 106.452 80.6507 106.421 80.6319C106.38 80.6069 106.332 80.5923 106.281 80.5829C106.23 80.5735 106.172 80.5745 106.119 80.5921L105.875 80.9978C105.838 81.0602 105.807 81.1122 105.79 81.1517C105.77 81.1964 105.759 81.2391 105.749 81.2901L105.746 81.2953L105.756 81.3016ZM106.503 81.7436C106.535 81.727 106.561 81.7072 106.588 81.6739C106.615 81.6407 106.651 81.5918 106.692 81.5242L107.03 80.9625L106.92 80.8968L106.939 80.8656L107.048 80.9313L107.139 80.7805C107.177 80.718 107.213 80.6692 107.257 80.6317C107.301 80.5943 107.346 80.5652 107.391 80.5497C107.436 80.5341 107.483 80.5268 107.532 80.5279C107.578 80.5342 107.625 80.5488 107.667 80.5739C107.693 80.5895 107.716 80.6103 107.734 80.6281C107.751 80.6458 107.764 80.6603 107.771 80.6718L107.695 80.8455L107.681 80.8445C107.683 80.8174 107.677 80.7924 107.674 80.7623C107.671 80.7321 107.67 80.7102 107.664 80.6852C107.658 80.6602 107.648 80.6405 107.644 80.6238C107.635 80.604 107.622 80.5894 107.607 80.5801C107.57 80.5582 107.527 80.5602 107.472 80.5914C107.418 80.6225 107.367 80.6839 107.311 80.7775L107.173 81.0063L107.381 81.1314L107.363 81.1627L107.155 81.0375L106.817 81.5992C106.776 81.6669 106.75 81.722 106.733 81.7615C106.717 81.8011 106.711 81.8333 106.711 81.8687L106.708 81.8739L106.495 81.7457L106.498 81.7405L106.503 81.7436ZM107.632 82.21C107.601 82.2266 107.568 82.2349 107.539 82.2463C107.506 82.2546 107.473 82.2629 107.439 82.2712C107.409 82.2743 107.374 82.2742 107.336 82.2659C107.299 82.2575 107.265 82.2439 107.228 82.222C107.15 82.1751 107.109 82.1147 107.1 82.046C107.092 81.9773 107.112 81.8972 107.162 81.814L107.428 81.3719C107.45 81.3355 107.463 81.3012 107.46 81.271C107.46 81.2356 107.454 81.2106 107.443 81.1825L107.446 81.1773L107.649 81.2993L107.308 81.8662C107.23 81.9962 107.246 82.0982 107.361 82.167C107.413 82.1983 107.46 82.2129 107.509 82.214C107.558 82.2151 107.6 82.2047 107.639 82.186L107.94 81.6867C107.98 81.6191 107.982 81.5567 107.952 81.489L107.955 81.4838L108.164 81.6089L107.804 82.207C107.782 82.2434 107.763 82.2746 107.756 82.2985C107.749 82.3225 107.736 82.3433 107.737 82.3651C107.733 82.3839 107.737 82.4005 107.741 82.4172C107.745 82.4338 107.753 82.4453 107.762 82.4651L107.759 82.4703L107.527 82.4086L107.636 82.2266L107.632 82.21ZM108.759 82.208L108.746 82.2069C108.75 82.1174 108.737 82.0456 108.711 81.9945C108.685 81.9435 108.649 81.9081 108.608 81.8831C108.556 81.8518 108.505 81.8424 108.458 81.8496C108.411 81.8569 108.373 81.8839 108.348 81.9255C108.333 81.9515 108.322 81.9806 108.329 82.0056C108.326 82.0327 108.338 82.0608 108.352 82.0837C108.364 82.1118 108.384 82.1379 108.4 82.1691C108.42 82.1951 108.445 82.2243 108.467 82.2587C108.492 82.2878 108.514 82.3222 108.535 82.3566C108.557 82.3909 108.574 82.4222 108.582 82.4555C108.596 82.4919 108.596 82.5273 108.592 82.5679C108.589 82.6085 108.573 82.648 108.548 82.6896C108.497 82.7728 108.432 82.8113 108.347 82.8237C108.264 82.8309 108.174 82.8048 108.075 82.7454C108.023 82.7141 107.979 82.6807 107.944 82.6453C107.909 82.6099 107.878 82.5776 107.857 82.5432L107.963 82.331L107.976 82.3321C107.966 82.432 107.973 82.5142 107.996 82.5704C108.016 82.6319 108.058 82.6787 108.121 82.7163C108.183 82.7538 108.245 82.7695 108.298 82.7518C108.351 82.7342 108.388 82.7072 108.413 82.6656C108.429 82.6396 108.436 82.6156 108.438 82.5886C108.44 82.5615 108.434 82.5365 108.428 82.5115C108.417 82.4834 108.405 82.4553 108.385 82.4293C108.366 82.4032 108.346 82.3772 108.324 82.3428C108.299 82.3137 108.283 82.2824 108.258 82.2533C108.236 82.2189 108.219 82.1876 108.206 82.1512C108.192 82.1148 108.187 82.0762 108.187 82.0409C108.19 82.0003 108.199 81.9628 108.224 81.9212C108.249 81.8796 108.281 81.8494 108.315 81.8276C108.35 81.8058 108.388 81.8006 108.427 81.7955C108.465 81.7903 108.508 81.8018 108.542 81.8154C108.582 81.8321 108.621 81.8487 108.658 81.8706C108.694 81.8925 108.733 81.9228 108.766 81.9498C108.799 81.9769 108.824 82.0061 108.844 82.0321L108.756 82.2132L108.759 82.208ZM109.422 81.9193C109.406 81.9453 109.383 81.9598 109.358 81.9661C109.333 81.9723 109.306 81.9702 109.28 81.9545C109.254 81.9389 109.245 81.9191 109.233 81.891C109.227 81.866 109.229 81.8389 109.245 81.8129C109.26 81.7869 109.28 81.7776 109.308 81.7662C109.333 81.76 109.36 81.7621 109.386 81.7777C109.412 81.7933 109.422 81.8131 109.433 81.8412C109.439 81.8662 109.437 81.8933 109.422 81.9193ZM108.542 82.9696C108.58 82.9426 108.615 82.9072 108.645 82.8687C108.675 82.8303 108.709 82.7866 108.746 82.7242L108.943 82.3965C108.968 82.3549 108.98 82.3123 108.983 82.2717C108.983 82.2363 108.978 82.1978 108.972 82.1728L108.975 82.1676L109.239 82.1991L108.876 82.8024C108.839 82.8648 108.807 82.9168 108.791 82.9563C108.771 83.0011 108.759 83.0437 108.75 83.0947L108.747 83.0999L108.539 82.9748L108.542 82.9696ZM109.303 83.4699C109.241 83.4324 109.19 83.3876 109.154 83.3303C109.117 83.273 109.089 83.2137 109.073 83.1471C109.056 83.0804 109.053 83.0149 109.063 82.9503C109.069 82.8827 109.093 82.8192 109.13 82.7568C109.168 82.6944 109.213 82.6435 109.27 82.6071C109.327 82.5707 109.39 82.5375 109.453 82.5261C109.52 82.5095 109.585 82.5064 109.653 82.5117C109.721 82.517 109.784 82.541 109.847 82.5785C109.909 82.6161 109.96 82.6609 109.996 82.7181C110.033 82.7754 110.061 82.8348 110.077 82.9014C110.094 82.968 110.097 83.0336 110.086 83.0981C110.081 83.1658 110.054 83.2344 110.02 83.2916C109.982 83.3541 109.937 83.405 109.88 83.4414C109.823 83.4777 109.763 83.5058 109.702 83.5255C109.635 83.5421 109.57 83.5451 109.502 83.5399C109.434 83.5346 109.371 83.5106 109.309 83.4731L109.303 83.4699ZM109.322 83.4387C109.374 83.47 109.422 83.4846 109.471 83.4857C109.52 83.4868 109.57 83.4744 109.618 83.4536C109.666 83.4328 109.709 83.3954 109.753 83.358C109.795 83.3122 109.831 83.2634 109.863 83.2113C109.897 83.1541 109.923 83.099 109.936 83.0428C109.956 82.9845 109.961 82.9304 109.957 82.8784C109.952 82.8263 109.94 82.7764 109.919 82.7285C109.895 82.6858 109.86 82.6504 109.808 82.6191C109.756 82.5878 109.708 82.5732 109.659 82.5721C109.61 82.571 109.56 82.5834 109.509 82.6094C109.461 82.6302 109.418 82.6676 109.374 82.705C109.332 82.7508 109.291 82.7965 109.259 82.8485C109.225 82.9058 109.199 82.9609 109.181 83.014C109.16 83.0722 109.156 83.1263 109.16 83.1784C109.164 83.2304 109.177 83.2804 109.201 83.3231C109.224 83.3658 109.26 83.4012 109.312 83.4325L109.322 83.4387ZM110.115 83.9225L109.907 83.7974L109.91 83.7922C109.933 83.7776 109.947 83.7651 109.965 83.7475C109.983 83.7298 109.997 83.7173 110.013 83.6913C110.026 83.6705 110.043 83.6528 110.059 83.6268C110.074 83.6008 110.09 83.5748 110.109 83.5436L110.309 83.2107C110.337 83.1639 110.349 83.1213 110.349 83.0859C110.349 83.0505 110.344 83.012 110.337 82.987L110.341 82.9818L110.594 83.007L110.494 83.1735L110.5 83.1766C110.572 83.1496 110.641 83.1413 110.709 83.1466C110.776 83.1519 110.838 83.1676 110.9 83.2051C110.983 83.2551 111.033 83.3135 111.047 83.3853C111.06 83.4571 111.044 83.532 110.997 83.6101L110.793 83.9481C110.775 83.9793 110.756 84.0105 110.743 84.0313C110.728 84.0573 110.715 84.0781 110.708 84.1021C110.695 84.1229 110.688 84.1468 110.681 84.1707C110.673 84.1947 110.669 84.2134 110.667 84.2404L110.664 84.2456L110.456 84.1205L110.459 84.1153C110.497 84.0883 110.532 84.053 110.562 84.0145C110.592 83.976 110.621 83.9292 110.658 83.8668L110.843 83.5599C110.858 83.5339 110.869 83.5048 110.879 83.4757C110.89 83.4465 110.892 83.4195 110.885 83.3945C110.882 83.3643 110.873 83.3445 110.853 83.3185C110.834 83.2925 110.811 83.2716 110.779 83.2528C110.738 83.2278 110.69 83.2132 110.639 83.2038C110.588 83.1944 110.531 83.1954 110.478 83.213L110.234 83.6187C110.196 83.6811 110.165 83.7331 110.148 83.7726C110.128 83.8173 110.117 83.86 110.107 83.911L110.104 83.9162L110.115 83.9225Z" fill="black"/>
  <path d="M107.195 78.5249L113.806 82.5" stroke="black" stroke-width="0.5"/>
  <path d="M108.257 81.0415L111.169 75.4407" stroke="black" stroke-width="0.5"/>
  <path fill-rule="evenodd" clip-rule="evenodd" d="M88.0544 78.332L91.9082 80.6496L95.5737 74.5542L99.2392 68.4588L95.3854 66.1413C94.7666 66.6756 91.5014 72.1053 91.5014 72.1053C91.5014 72.1053 88.2363 77.535 88.0544 78.332Z" fill="white" stroke="black" stroke-miterlimit="2.61313"/>
  <path fill-rule="evenodd" clip-rule="evenodd" d="M88.5289 77.3042C87.6344 76.7662 86.2946 76.0384 85.1162 75.1599C83.5749 74.0134 82.3086 72.6217 82.6463 71.0827L84.5354 67.9414L86.4244 64.8001C88.5526 62.9923 92.6182 65.8408 94.6777 67.0793C93.5135 68.7799 91.5118 72.1084 91.5118 72.1084L91.4993 72.1292C91.3367 72.3996 89.4372 75.5701 88.5289 77.3042Z" stroke="black" stroke-miterlimit="2.61313"/>
  <path d="M86.5855 76.146C87.9323 73.0115 90.5939 68.5856 92.7281 65.9316" stroke="black" stroke-miterlimit="2.61313"/>
  <path d="M81.4297 70.9282L87.265 74.4374" stroke="black" stroke-miterlimit="2.61313" stroke-linecap="round" stroke-linejoin="round"/>
  <path d="M82.2891 69.5034L88.1244 73.0125" stroke="black" stroke-miterlimit="2.61313" stroke-linecap="round" stroke-linejoin="round"/>
  <path d="M83.1484 68.0732L88.9838 71.5824" stroke="black" stroke-miterlimit="2.61313" stroke-linecap="round" stroke-linejoin="round"/>
  <path d="M84.0078 66.6431L89.8432 70.1522" stroke="black" stroke-miterlimit="2.61313" stroke-linecap="round" stroke-linejoin="round"/>
  <path d="M84.8672 65.2129L90.7025 68.722" stroke="black" stroke-miterlimit="2.61313" stroke-linecap="round" stroke-linejoin="round"/>
  <path d="M85.7266 63.7876L91.5619 67.2967" stroke="black" stroke-miterlimit="2.61313" stroke-linecap="round" stroke-linejoin="round"/>
</svg>