<svg xmlns="http://www.w3.org/2000/svg" width="113" height="112" viewBox="0 0 113 112" fill="none">
  <path d="M66.819 83.315C63.9089 84.7932 60.6139 85.6246 57.1187 85.6246C45.2166 85.6246 35.5625 75.9705 35.5625 64.0684C35.5625 63.5603 35.5779 63.0676 35.6087 62.5749C35.6087 62.5749 34.1921 53.2903 57.1187 19.9243C78.3516 50.8267 78.7057 61.0813 78.6442 62.4209" stroke="black" stroke-width="1.2" stroke-miterlimit="2.61313" stroke-linecap="round" stroke-linejoin="round"/>
  <path d="M58.4339 75.8475C50.7044 75.8475 44.4531 69.5808 44.4531 61.8667" stroke="black" stroke-width="1.2" stroke-miterlimit="2.61313" stroke-linecap="round" stroke-linejoin="round"/>
  <path d="M28.2599 42.8509C34.8928 42.8509 40.2698 37.4738 40.2698 30.841C40.2698 24.2081 34.8928 18.8311 28.2599 18.8311C21.627 18.8311 16.25 24.2081 16.25 30.841C16.25 37.4738 21.627 42.8509 28.2599 42.8509Z" stroke="black" stroke-width="1.2" stroke-miterlimit="2.61313" stroke-linecap="round" stroke-linejoin="round"/>
  <path d="M28.7499 36.6918C25.2548 36.6918 22.4062 33.8587 22.4062 30.3481" stroke="black" stroke-width="1.2" stroke-miterlimit="2.61313" stroke-linecap="round" stroke-linejoin="round"/>
  <path d="M81.2553 93.1693C89.81 93.1693 96.745 86.2344 96.745 77.6796C96.745 69.1249 89.81 62.1899 81.2553 62.1899C72.7006 62.1899 65.7656 69.1249 65.7656 77.6796C65.7656 86.2344 72.7006 93.1693 81.2553 93.1693Z" stroke="black" stroke-width="1.2" stroke-miterlimit="2.61313" stroke-linecap="round" stroke-linejoin="round"/>
  <path fill-rule="evenodd" clip-rule="evenodd" d="M80.5674 71.7673V70.8588C80.5674 70.4585 80.783 70.2275 81.1833 70.2275H81.3065C81.676 70.2275 81.907 70.4123 81.907 70.7818V71.7211C82.7538 71.7827 83.5545 72.0752 84.2474 72.5525C84.5707 72.7681 84.5861 73.076 84.4321 73.3994L84.2166 73.7997C84.001 74.1692 83.6777 74.2 83.3389 73.9845C82.7384 73.5995 82.061 73.3532 81.3373 73.3532C80.4135 73.3532 79.3664 73.8921 79.3664 74.9237C79.3664 77.0793 84.9557 76.6636 84.9557 80.3436C84.9557 82.1605 83.6315 83.3768 81.907 83.6078V84.4854C81.907 84.8704 81.7068 85.1167 81.3065 85.1167H81.1833C80.8138 85.1167 80.5674 84.932 80.5674 84.547V83.6078C79.5512 83.5 78.612 83.0997 77.8113 82.4684C77.5034 82.222 77.4726 81.8987 77.7189 81.5908L77.9807 81.2212C78.227 80.8825 78.535 80.8825 78.8737 81.098C79.5666 81.6215 80.4135 81.9603 81.2911 81.9603C82.2611 81.9603 83.185 81.4368 83.185 80.3744C83.185 78.111 77.5957 78.4497 77.5957 74.9391C77.5957 73.2146 78.9507 71.9982 80.5828 71.7211L80.5674 71.7673Z" fill="black"/>
  <path d="M91.9897 82.1602C90.2344 86.3636 86.0926 89.3045 81.2578 89.3045" stroke="black" stroke-width="1.2" stroke-miterlimit="2.61313" stroke-linecap="round" stroke-linejoin="round"/>
  <path d="M88.7266 68.7646C89.8044 69.6731 90.7128 70.7663 91.4211 71.9981" stroke="black" stroke-width="1.2" stroke-miterlimit="2.61313" stroke-linecap="round" stroke-linejoin="round"/>
</svg>