<svg xmlns="http://www.w3.org/2000/svg" width="120" height="115" viewBox="0 0 106 105" fill="none">
  <path d="M55.4799 72.4213C47.8045 72.4213 41.5859 66.1992 41.5859 58.5273" stroke="black" stroke-width="1.3" stroke-miterlimit="2.61313" stroke-linecap="round" stroke-linejoin="round"/>
  <path fill-rule="evenodd" clip-rule="evenodd" d="M44.5228 79.842C47.4191 81.3056 50.6933 82.1302 54.1599 82.1302H54.1771H54.1942C57.6608 82.1302 60.9351 81.3056 63.8314 79.842L63.8245 79.8283C70.7955 76.2964 75.5746 69.0608 75.5746 60.7121C75.5746 60.2139 75.5539 59.7192 75.523 59.2313H75.5265C75.5265 59.2313 75.5333 59.1798 75.5402 59.0767L75.5746 59.0698C75.6398 57.7368 75.2963 47.5568 54.1942 16.8521L54.1771 16.8761L54.1599 16.8521C33.0613 47.5568 32.7177 57.7334 32.7796 59.0698L32.8139 59.0767C32.8208 59.1798 32.8277 59.2313 32.8277 59.2313H32.8311C32.7967 59.7192 32.7796 60.2139 32.7796 60.7121C32.7796 69.0608 37.5586 76.2964 44.5296 79.8283L44.5228 79.842V79.842Z" stroke="black" stroke-width="1.3" stroke-miterlimit="2.61313" stroke-linecap="round" stroke-linejoin="round"/>
  <path d="M5.11133 49.4951H34.7854" stroke="black" stroke-width="1.3" stroke-miterlimit="2.61313" stroke-linecap="round" stroke-linejoin="round"/>
  <path d="M73.082 49.4951H102.756" stroke="black" stroke-width="1.3" stroke-miterlimit="2.61313" stroke-linecap="round" stroke-linejoin="round"/>
  <path d="M54.1699 99.8151V92.0264" stroke="black" stroke-width="1.3" stroke-miterlimit="2.61313" stroke-linecap="round" stroke-linejoin="round"/>
  <path d="M34.2637 94.4806L38.1563 87.7397" stroke="black" stroke-width="1.3" stroke-miterlimit="2.61313" stroke-linecap="round" stroke-linejoin="round"/>
  <path d="M19.707 79.9136L26.4479 76.021" stroke="black" stroke-width="1.3" stroke-miterlimit="2.61313" stroke-linecap="round" stroke-linejoin="round"/>
  <path d="M86.1797 60.0181H93.9684" stroke="black" stroke-width="1.3" stroke-miterlimit="2.61313" stroke-linecap="round" stroke-linejoin="round"/>
  <path d="M14.3789 60.0181H22.1642" stroke="black" stroke-width="1.3" stroke-miterlimit="2.61313" stroke-linecap="round" stroke-linejoin="round"/>
  <path d="M81.9023 76.021L88.6432 79.9136" stroke="black" stroke-width="1.3" stroke-miterlimit="2.61313" stroke-linecap="round" stroke-linejoin="round"/>
  <path d="M70.1836 87.7397L74.0762 94.4806" stroke="black" stroke-width="1.3" stroke-miterlimit="2.61313" stroke-linecap="round" stroke-linejoin="round"/>
</svg>