<svg width="70" height="60" viewBox="0 0 70 60" fill="none" xmlns="http://www.w3.org/2000/svg">
<g id="Fade pigmentation and prevent dark spots 2">
<g id="_1967538039760">
<g id="Group">
<g id="Group_2">
<g id="Group_3">
<path id="Vector" d="M23.7677 14.0344C24.4521 14.0344 25.0069 13.4722 25.0069 12.7787C25.0069 12.0852 24.4521 11.5229 23.7677 11.5229C23.0833 11.5229 22.5284 12.0852 22.5284 12.7787C22.5284 13.4722 23.0833 14.0344 23.7677 14.0344Z" fill="black"/>
<path id="Vector_2" d="M22.9136 12.6388C23.1759 12.6388 23.3886 12.4234 23.3886 12.1576C23.3886 11.8917 23.1759 11.6763 22.9136 11.6763C22.6513 11.6763 22.4386 11.8917 22.4386 12.1576C22.4386 12.4234 22.6513 12.6388 22.9136 12.6388Z" fill="white"/>
</g>
</g>
<path id="Vector_3" fill-rule="evenodd" clip-rule="evenodd" d="M28.6862 14.3413C30.0809 14.14 26.6697 12.0661 26.5056 11.9436C25.75 11.3967 24.7482 11.0598 23.6817 11.0029C21.2636 10.8761 20.2403 11.8868 18.5088 13.265C18.5088 13.265 19.1522 13.1731 19.8474 13.9519C20.5425 14.7307 23.2197 15.6627 25.5513 15.0851C27.8787 14.5076 28.6862 14.3413 28.6862 14.3413V14.3413Z" stroke="black" stroke-miterlimit="2.61313" stroke-linecap="round" stroke-linejoin="round"/>
<g id="Mask Group">
<mask id="mask0_28547_380" style="mask-type:alpha" maskUnits="userSpaceOnUse" x="21" y="10" width="6" height="6">
<path id="Vector_4" d="M23.7636 15.045C25.0013 15.045 26.0046 14.0283 26.0046 12.7742C26.0046 11.5201 25.0013 10.5034 23.7636 10.5034C22.5259 10.5034 21.5226 11.5201 21.5226 12.7742C21.5226 14.0283 22.5259 15.045 23.7636 15.045Z" stroke="black" stroke-miterlimit="2.61313" stroke-linecap="round" stroke-linejoin="round"/>
</mask>
<g mask="url(#mask0_28547_380)">
<path id="Vector_5" fill-rule="evenodd" clip-rule="evenodd" d="M28.6856 14.3411C30.0803 14.1398 26.6691 12.0659 26.505 11.9434C25.7494 11.3965 24.7476 11.0596 23.6811 11.0027C21.263 10.8758 20.2397 11.8865 18.5082 13.2647C18.5082 13.2647 19.1516 13.1729 19.8467 13.9517C20.5419 14.7305 23.2191 15.6624 25.5507 15.0849C27.8781 14.5073 28.6856 14.3411 28.6856 14.3411Z" fill="black" stroke="black" stroke-miterlimit="2.61313" stroke-linecap="round" stroke-linejoin="round"/>
</g>
</g>
<path id="Vector_6" d="M28.3605 13.4414C28.3605 13.4414 27.9276 13.8921 28.1051 14.4215" stroke="black" stroke-miterlimit="2.61313" stroke-linecap="round" stroke-linejoin="round"/>
<path id="Vector_7" d="M28.8892 12.8015C28.8892 12.8015 27.3132 10.0144 23.6084 9.97501C19.9036 9.94001 18.0685 12.2239 18.0685 12.2239" stroke="black" stroke-miterlimit="2.61313" stroke-linecap="round" stroke-linejoin="round"/>
<path id="Vector_8" fill-rule="evenodd" clip-rule="evenodd" d="M29.3497 8.82628C29.3497 8.82628 30.0103 7.95997 28.1018 6.9449C28.1018 6.9449 21.1715 4.86224 19.5566 5.06351C17.9417 5.26477 15.4114 7.32117 15.4114 7.32117C15.4114 7.32117 18.2353 6.22297 21.4608 7.08928C24.6863 7.9556 29.0172 9.17194 29.3454 8.82628H29.3497Z" stroke="black" stroke-miterlimit="2.61313" stroke-linecap="round" stroke-linejoin="round"/>
<path id="Vector_9" d="M34.8834 29.0251C34.8834 29.0251 33.9767 29.0513 33.6096 28.6269C33.2426 28.2069 32.3143 27.835 31.5802 27.8831" stroke="black" stroke-miterlimit="2.61313" stroke-linecap="round" stroke-linejoin="round"/>
<path id="Vector_10" d="M30.525 25.8003C30.525 25.8003 29.303 28.4036 31.8463 28.8237" stroke="black" stroke-miterlimit="2.61313" stroke-linecap="round" stroke-linejoin="round"/>
<path id="Vector_11" d="M31.0157 11.8081C31.0157 11.8081 33.2179 13.7901 32.7775 19.2462" stroke="black" stroke-miterlimit="2.61313" stroke-linecap="round" stroke-linejoin="round"/>
<path id="Vector_12" fill-rule="evenodd" clip-rule="evenodd" d="M35.0107 34.0082C35.0107 34.0082 33.2101 33.1156 31.9406 33.8595C30.6668 34.6033 27.0441 36.4365 27.0441 36.4365C27.0441 36.4365 28.659 41.4463 35.0107 41.4463C41.3624 41.4463 42.9773 36.4365 42.9773 36.4365C42.9773 36.4365 39.3545 34.6033 38.0807 33.8595C36.8069 33.1156 35.0107 34.0082 35.0107 34.0082Z" stroke="black" stroke-miterlimit="2.61313" stroke-linecap="round" stroke-linejoin="round"/>
<path id="Vector_13" d="M35.0105 37.0549C35.0105 37.0549 34.5572 37.0287 33.9958 36.7968C33.4345 36.5605 30.6192 36.4511 29.2461 36.7705C27.8773 37.0943 27.4585 36.3242 25.9904 36.3242" stroke="black" stroke-miterlimit="2.61313" stroke-linecap="round" stroke-linejoin="round"/>
<path id="Vector_14" d="M9.51282 11.9487C9.51282 11.9487 12.4404 24.4184 14.0035 30.9158C15.5709 37.4131 15.9595 38.5026 19.3879 41.7797C22.8164 45.0524 29.3883 51.2041 35.0189 51.2041" stroke="black" stroke-miterlimit="2.61313" stroke-linecap="round" stroke-linejoin="round"/>
<path id="Vector_15" d="M7.39477 10.2322C7.39477 10.2322 5.50783 10.2584 6.14689 13.0324C6.78162 15.8107 9.08309 19.8273 9.37671 22.8025C9.67033 25.7777 10.8232 26.6571 12.939 26.4646" stroke="black" stroke-miterlimit="2.61313" stroke-linecap="round" stroke-linejoin="round"/>
<path id="Vector_16" d="M7.87891 14.3755C7.87891 14.3755 8.1898 13.0366 8.81158 13.4829C9.43337 13.9292 10.7417 17.4513 10.7417 17.4513C10.7417 17.4513 9.8997 19.2365 10.366 19.7834C10.8324 20.3303 11.7391 21.4373 11.7391 21.4373" stroke="black" stroke-miterlimit="2.61313" stroke-linecap="round" stroke-linejoin="round"/>
<g id="Group_4">
<g id="_1967538042112">
<path id="Vector_17" d="M46.2696 14.0344C46.9541 14.0344 47.5089 13.4722 47.5089 12.7787C47.5089 12.0852 46.9541 11.5229 46.2696 11.5229C45.5852 11.5229 45.0304 12.0852 45.0304 12.7787C45.0304 13.4722 45.5852 14.0344 46.2696 14.0344Z" fill="black"/>
<path id="Vector_18" d="M45.4155 12.6388C45.6779 12.6388 45.8905 12.4234 45.8905 12.1576C45.8905 11.8917 45.6779 11.6763 45.4155 11.6763C45.1532 11.6763 44.9406 11.8917 44.9406 12.1576C44.9406 12.4234 45.1532 12.6388 45.4155 12.6388Z" fill="white"/>
</g>
</g>
<path id="Vector_19" fill-rule="evenodd" clip-rule="evenodd" d="M41.343 14.3413C39.9483 14.14 43.3595 12.0661 43.5235 11.9436C44.2792 11.3967 45.281 11.0598 46.3475 11.0029C48.7655 10.8761 49.7889 11.8868 51.5204 13.265C51.5204 13.265 50.877 13.1731 50.1818 13.9519C49.4866 14.7307 46.8095 15.6627 44.4778 15.0851C42.1504 14.5076 41.343 14.3413 41.343 14.3413V14.3413Z" stroke="black" stroke-miterlimit="2.61313" stroke-linecap="round" stroke-linejoin="round"/>
<g id="Mask Group_2">
<mask id="mask1_28547_380" style="mask-type:alpha" maskUnits="userSpaceOnUse" x="43" y="10" width="7" height="6">
<path id="Vector_20" d="M46.2655 15.045C47.5032 15.045 48.5066 14.0283 48.5066 12.7742C48.5066 11.5201 47.5032 10.5034 46.2655 10.5034C45.0279 10.5034 44.0245 11.5201 44.0245 12.7742C44.0245 14.0283 45.0279 15.045 46.2655 15.045Z" stroke="black" stroke-miterlimit="2.61313" stroke-linecap="round" stroke-linejoin="round"/>
</mask>
<g mask="url(#mask1_28547_380)">
<path id="Vector_21" fill-rule="evenodd" clip-rule="evenodd" d="M41.3421 14.3413C39.9474 14.14 43.3586 12.0661 43.5227 11.9436C44.2783 11.3967 45.2801 11.0598 46.3466 11.0029C48.7647 10.8761 49.788 11.8868 51.5195 13.265C51.5195 13.265 50.8761 13.1731 50.181 13.9519C49.4858 14.7307 46.8086 15.6627 44.477 15.0851C42.1496 14.5076 41.3421 14.3413 41.3421 14.3413Z" fill="black" stroke="black" stroke-miterlimit="2.61313" stroke-linecap="round" stroke-linejoin="round"/>
</g>
</g>
<path id="Vector_22" d="M41.6632 13.4414C41.6632 13.4414 42.0962 13.8921 41.9186 14.4215" stroke="black" stroke-miterlimit="2.61313" stroke-linecap="round" stroke-linejoin="round"/>
<path id="Vector_23" d="M41.1407 12.8015C41.1407 12.8015 42.7168 10.0144 46.4216 9.97501C50.1264 9.94001 51.9615 12.2239 51.9615 12.2239" stroke="black" stroke-miterlimit="2.61313" stroke-linecap="round" stroke-linejoin="round"/>
<path id="Vector_24" fill-rule="evenodd" clip-rule="evenodd" d="M40.679 8.82628C40.679 8.82628 40.0184 7.95997 41.9269 6.9449C41.9269 6.9449 48.8572 4.86224 50.4721 5.06351C52.087 5.26477 54.6174 7.32117 54.6174 7.32117C54.6174 7.32117 51.7934 6.22297 48.5679 7.08928C45.3424 7.9556 41.0115 9.17194 40.6834 8.82628H40.679Z" stroke="black" stroke-miterlimit="2.61313" stroke-linecap="round" stroke-linejoin="round"/>
<path id="Vector_25" d="M35.1458 29.0251C35.1458 29.0251 36.0525 29.0513 36.4195 28.6269C36.7866 28.2069 37.7149 27.835 38.449 27.8831" stroke="black" stroke-miterlimit="2.61313" stroke-linecap="round" stroke-linejoin="round"/>
<path id="Vector_26" d="M39.5032 25.8C39.5032 25.8 40.7252 28.4034 38.1819 28.8234" stroke="black" stroke-miterlimit="2.61313" stroke-linecap="round" stroke-linejoin="round"/>
<path id="Vector_27" d="M39.0175 11.8079C39.0175 11.8079 36.8153 13.7899 37.2557 19.2459" stroke="black" stroke-miterlimit="2.61313" stroke-linecap="round" stroke-linejoin="round"/>
<path id="Vector_28" d="M35.0138 37.0549C35.0138 37.0549 35.4672 37.0287 36.0285 36.7968C36.5898 36.5605 39.4051 36.4511 40.7782 36.7705C42.147 37.0943 42.5659 36.3242 44.034 36.3242" stroke="black" stroke-miterlimit="2.61313" stroke-linecap="round" stroke-linejoin="round"/>
<path id="Vector_29" d="M60.5199 11.9487C60.5199 11.9487 57.5923 24.4184 56.0292 30.9158C54.4618 37.4131 54.0732 38.5026 50.6447 41.7797C47.2163 45.0524 40.6444 51.2041 35.0138 51.2041" stroke="black" stroke-miterlimit="2.61313" stroke-linecap="round" stroke-linejoin="round"/>
<path id="Vector_30" d="M62.6352 10.2324C62.6352 10.2324 64.5221 10.2587 63.8831 13.0326C63.2483 15.811 60.9469 19.8275 60.6532 22.8027C60.3596 25.778 59.2067 26.6574 57.0909 26.4649" stroke="black" stroke-miterlimit="2.61313" stroke-linecap="round" stroke-linejoin="round"/>
<path id="Vector_31" d="M62.1477 14.3755C62.1477 14.3755 61.8368 13.0366 61.215 13.4829C60.5933 13.9292 59.2849 17.4513 59.2849 17.4513C59.2849 17.4513 60.1269 19.2365 59.6606 19.7834C59.1942 20.3303 58.2875 21.4373 58.2875 21.4373" stroke="black" stroke-miterlimit="2.61313" stroke-linecap="round" stroke-linejoin="round"/>
</g>
<g id="Group_5">
<path id="Vector_32" fill-rule="evenodd" clip-rule="evenodd" d="M49.4092 14.5781C43.8183 14.5781 39.2823 19.1229 39.2823 24.732C39.2823 30.341 43.814 34.8858 49.4092 34.8858C55.0001 34.8858 59.536 30.341 59.536 24.732C59.536 19.1229 55.0044 14.5781 49.4092 14.5781Z" fill="url(#paint0_radial_28547_380)"/>
<path id="Vector_33" fill-rule="evenodd" clip-rule="evenodd" d="M20.916 14.5781C15.3251 14.5781 10.7892 19.1229 10.7892 24.732C10.7892 30.341 15.3208 34.8858 20.916 34.8858C26.5069 34.8858 31.0429 30.341 31.0429 24.732C31.0429 19.1229 26.5112 14.5781 20.916 14.5781Z" fill="url(#paint1_radial_28547_380)"/>
</g>
</g>
</g>
<defs>
<radialGradient id="paint0_radial_28547_380" cx="0" cy="0" r="1" gradientUnits="userSpaceOnUse" gradientTransform="translate(49.4092 24.732) rotate(90) scale(10.1538 10.1268)">
<stop stop-opacity="0.3"/>
<stop offset="1" stop-color="#D1D1D1" stop-opacity="0"/>
</radialGradient>
<radialGradient id="paint1_radial_28547_380" cx="0" cy="0" r="1" gradientUnits="userSpaceOnUse" gradientTransform="translate(20.916 24.732) rotate(90) scale(10.1538 10.1268)">
<stop stop-opacity="0.3"/>
<stop offset="1" stop-color="#D1D1D1" stop-opacity="0"/>
</radialGradient>
</defs>
</svg>
