<svg xmlns="http://www.w3.org/2000/svg" width="120" height="115" viewBox="0 0 120 115" fill="none">
  <path d="M43.4211 38.0121C44.5123 38.0121 45.3969 37.1275 45.3969 36.0363C45.3969 34.9451 44.5123 34.0605 43.4211 34.0605C42.3299 34.0605 41.4453 34.9451 41.4453 36.0363C41.4453 37.1275 42.3299 38.0121 43.4211 38.0121Z" fill="black"/>
  <path d="M42.0668 35.8269C42.4877 35.8269 42.8289 35.4857 42.8289 35.0648C42.8289 34.6439 42.4877 34.3027 42.0668 34.3027C41.6459 34.3027 41.3047 34.6439 41.3047 35.0648C41.3047 35.4857 41.6459 35.8269 42.0668 35.8269Z" fill="white"/>
  <path fill-rule="evenodd" clip-rule="evenodd" d="M51.3032 38.5091C53.533 38.1845 48.0714 34.9104 47.8173 34.7269C46.6036 33.866 45.0089 33.3297 43.3013 33.2451C39.4344 33.0475 37.7973 34.6422 35.0312 36.8156C35.0312 36.8156 36.0615 36.6744 37.1764 37.9022C38.2913 39.13 42.5815 40.5978 46.3073 39.6946C50.033 38.7913 51.3314 38.5232 51.3314 38.5232L51.3032 38.5091Z" stroke="black" stroke-width="1.2" stroke-miterlimit="2.61313" stroke-linecap="round" stroke-linejoin="round"/>
  <mask id="mask0_11494_7811" style="mask-type:alpha" maskUnits="userSpaceOnUse" x="39" y="31" width="9" height="10">
    <path d="M43.4206 39.6214C45.4003 39.6214 47.0052 38.0165 47.0052 36.0368C47.0052 34.057 45.4003 32.4521 43.4206 32.4521C41.4408 32.4521 39.8359 34.057 39.8359 36.0368C39.8359 38.0165 41.4408 39.6214 43.4206 39.6214Z" stroke="black" stroke-width="1.2" stroke-miterlimit="2.61313" stroke-linecap="round" stroke-linejoin="round"/>
  </mask>
  <g mask="url(#mask0_11494_7811)">
    <path fill-rule="evenodd" clip-rule="evenodd" d="M51.3032 38.5086C53.533 38.184 48.0714 34.9099 47.8173 34.7264C46.6036 33.8655 45.0089 33.3292 43.3013 33.2446C39.4344 33.047 37.7973 34.6417 35.0312 36.8151C35.0312 36.8151 36.0615 36.674 37.1764 37.9018C38.2913 39.1296 42.5815 40.5973 46.3073 39.6941C50.033 38.7909 51.3314 38.5227 51.3314 38.5227L51.3032 38.5086Z" fill="black" stroke="black" stroke-width="1.2" stroke-miterlimit="2.61313" stroke-linecap="round" stroke-linejoin="round"/>
  </g>
  <path d="M50.7895 37.0957C50.7895 37.0957 50.098 37.8155 50.3802 38.6481" stroke="black" stroke-width="1.2" stroke-miterlimit="2.61313" stroke-linecap="round" stroke-linejoin="round"/>
  <path d="M51.6288 36.0809C51.6288 36.0809 49.1026 31.6777 43.1753 31.6213C37.2479 31.5648 34.3125 35.1776 34.3125 35.1776" stroke="black" stroke-width="1.2" stroke-miterlimit="2.61313" stroke-linecap="round" stroke-linejoin="round"/>
  <path fill-rule="evenodd" clip-rule="evenodd" d="M52.3683 29.7995C52.3683 29.7995 53.4268 28.4305 50.3784 26.8358C50.3784 26.8358 39.2859 23.5476 36.7033 23.8722C34.1206 24.1967 30.0703 27.4285 30.0703 27.4285C30.0703 27.4285 34.5864 25.6927 39.7516 27.0616C44.9168 28.4305 51.8462 30.3499 52.3683 29.7995V29.7995Z" stroke="black" stroke-width="1.2" stroke-miterlimit="2.61313" stroke-linecap="round" stroke-linejoin="round"/>
  <path d="M61.2156 61.6969C61.2156 61.6969 59.762 61.7392 59.1834 61.0759C58.5907 60.4126 57.1089 59.8199 55.9375 59.9046" stroke="black" stroke-width="1.2" stroke-miterlimit="2.61313" stroke-linecap="round" stroke-linejoin="round"/>
  <path d="M54.2528 56.6138C54.2528 56.6138 52.2912 60.7206 56.3697 61.398" stroke="black" stroke-width="1.2" stroke-miterlimit="2.61313" stroke-linecap="round" stroke-linejoin="round"/>
  <path d="M55.0312 34.5122C55.0312 34.5122 58.5594 37.6452 57.8538 46.2681" stroke="black" stroke-width="1.2" stroke-miterlimit="2.61313" stroke-linecap="round" stroke-linejoin="round"/>
  <path fill-rule="evenodd" clip-rule="evenodd" d="M61.4391 69.5672C61.4391 69.5672 58.5601 68.1559 56.5278 69.3272C54.4956 70.4986 48.6953 73.4058 48.6953 73.4058C48.6953 73.4058 51.2779 81.323 61.4391 81.323C71.6002 81.323 74.1828 73.4058 74.1828 73.4058C74.1828 73.4058 68.3825 70.5127 66.3503 69.3272C64.318 68.1559 61.4391 69.5672 61.4391 69.5672V69.5672Z" stroke="black" stroke-width="1.2" stroke-miterlimit="2.61313" stroke-linecap="round" stroke-linejoin="round"/>
  <path d="M61.431 74.3818C61.431 74.3818 60.7112 74.3395 59.808 73.9726C58.9048 73.6056 54.4028 73.4222 52.2154 73.9302C50.0279 74.4383 49.3505 73.2246 47.0078 73.2246" stroke="black" stroke-width="1.2" stroke-miterlimit="2.61313" stroke-linecap="round" stroke-linejoin="round"/>
  <path d="M20.6172 34.7378C20.6172 34.7378 25.3026 54.4391 27.8005 64.699C30.3126 74.9589 30.9335 76.6806 36.4093 81.8459C41.8991 87.0111 52.413 96.7347 61.4169 96.7347" stroke="black" stroke-width="1.2" stroke-miterlimit="2.61313" stroke-linecap="round" stroke-linejoin="round"/>
  <path d="M79.4445 38.0121C80.5357 38.0121 81.4203 37.1275 81.4203 36.0363C81.4203 34.9451 80.5357 34.0605 79.4445 34.0605C78.3533 34.0605 77.4688 34.9451 77.4688 36.0363C77.4688 37.1275 78.3533 38.0121 79.4445 38.0121Z" fill="black"/>
  <path d="M78.0746 35.8269C78.4955 35.8269 78.8367 35.4857 78.8367 35.0648C78.8367 34.6439 78.4955 34.3027 78.0746 34.3027C77.6537 34.3027 77.3125 34.6439 77.3125 35.0648C77.3125 35.4857 77.6537 35.8269 78.0746 35.8269Z" fill="white"/>
  <path fill-rule="evenodd" clip-rule="evenodd" d="M71.5494 38.5091C69.3196 38.1845 74.7812 34.9104 75.0352 34.7269C76.2489 33.866 77.8436 33.3297 79.5513 33.2451C83.4181 33.0475 85.0552 34.6422 87.8213 36.8156C87.8213 36.8156 86.7911 36.6744 85.6762 37.9022C84.5613 39.13 80.271 40.5978 76.5453 39.6946C72.8195 38.7913 71.5211 38.5232 71.5211 38.5232L71.5494 38.5091Z" stroke="black" stroke-width="1.2" stroke-miterlimit="2.61313" stroke-linecap="round" stroke-linejoin="round"/>
  <mask id="mask1_11494_7811" style="mask-type:alpha" maskUnits="userSpaceOnUse" x="75" y="31" width="9" height="10">
    <path d="M79.444 39.6214C81.4237 39.6214 83.0286 38.0165 83.0286 36.0368C83.0286 34.057 81.4237 32.4521 79.444 32.4521C77.4643 32.4521 75.8594 34.057 75.8594 36.0368C75.8594 38.0165 77.4643 39.6214 79.444 39.6214Z" stroke="black" stroke-width="1.2" stroke-miterlimit="2.61313" stroke-linecap="round" stroke-linejoin="round"/>
  </mask>
  <g mask="url(#mask1_11494_7811)">
    <path fill-rule="evenodd" clip-rule="evenodd" d="M71.5494 38.5091C69.3196 38.1845 74.7812 34.9104 75.0352 34.7269C76.2489 33.866 77.8436 33.3297 79.5513 33.2451C83.4181 33.0475 85.0552 34.6422 87.8213 36.8156C87.8213 36.8156 86.7911 36.6744 85.6762 37.9022C84.5613 39.13 80.271 40.5978 76.5453 39.6946C72.8195 38.7913 71.5211 38.5232 71.5211 38.5232L71.5494 38.5091Z" fill="black" stroke="black" stroke-width="1.2" stroke-miterlimit="2.61313" stroke-linecap="round" stroke-linejoin="round"/>
  </g>
  <path d="M72.0703 37.0957C72.0703 37.0957 72.7618 37.8155 72.4796 38.6481" stroke="black" stroke-width="1.2" stroke-miterlimit="2.61313" stroke-linecap="round" stroke-linejoin="round"/>
  <path d="M71.2188 36.0809C71.2188 36.0809 73.7449 31.6777 79.6722 31.6213C85.5995 31.5648 88.535 35.1776 88.535 35.1776" stroke="black" stroke-width="1.2" stroke-miterlimit="2.61313" stroke-linecap="round" stroke-linejoin="round"/>
  <path fill-rule="evenodd" clip-rule="evenodd" d="M70.4903 29.7995C70.4903 29.7995 69.4318 28.4305 72.4802 26.8358C72.4802 26.8358 83.5727 23.5476 86.1553 23.8722C88.738 24.1967 92.7883 27.4285 92.7883 27.4285C92.7883 27.4285 88.2722 25.6927 83.107 27.0616C77.9418 28.4305 71.0125 30.3499 70.4903 29.7995V29.7995Z" stroke="black" stroke-width="1.2" stroke-miterlimit="2.61313" stroke-linecap="round" stroke-linejoin="round"/>
  <path d="M61.6406 61.6969C61.6406 61.6969 63.0942 61.7392 63.6728 61.0759C64.2656 60.4126 65.7474 59.8199 66.9188 59.9046" stroke="black" stroke-width="1.2" stroke-miterlimit="2.61313" stroke-linecap="round" stroke-linejoin="round"/>
  <path d="M68.6169 56.6138C68.6169 56.6138 70.5786 60.7206 66.5 61.398" stroke="black" stroke-width="1.2" stroke-miterlimit="2.61313" stroke-linecap="round" stroke-linejoin="round"/>
  <path d="M67.8299 34.5122C67.8299 34.5122 64.3017 37.6452 65.0074 46.2681" stroke="black" stroke-width="1.2" stroke-miterlimit="2.61313" stroke-linecap="round" stroke-linejoin="round"/>
  <path d="M61.4297 74.3818C61.4297 74.3818 62.1494 74.3395 63.0526 73.9726C63.9559 73.6056 68.4578 73.4222 70.6453 73.9302C72.8327 74.4383 73.5101 73.2246 75.8528 73.2246" stroke="black" stroke-width="1.2" stroke-miterlimit="2.61313" stroke-linecap="round" stroke-linejoin="round"/>
  <path d="M102.237 34.7383C102.237 34.7383 97.5518 54.4396 95.0539 64.6995C92.5418 74.9594 91.9209 76.6811 86.4451 81.8464C80.9553 87.0116 70.4414 96.7352 61.4375 96.7352" stroke="black" stroke-width="1.2" stroke-miterlimit="2.61313" stroke-linecap="round" stroke-linejoin="round"/>
  <path d="M105.628 32.0283C105.628 32.0283 108.648 32.0707 107.632 36.4597C106.616 40.8487 102.933 47.1853 102.467 51.8848C102.001 56.5844 100.153 57.9674 96.7656 57.671" stroke="black" stroke-width="1.2" stroke-miterlimit="2.61313" stroke-linecap="round" stroke-linejoin="round"/>
  <path d="M104.845 38.5621C104.845 38.5621 104.351 36.4452 103.349 37.1508C102.347 37.8565 100.259 43.4169 100.259 43.4169C100.259 43.4169 101.599 46.2394 100.852 47.1003C100.104 47.9611 98.6641 49.7111 98.6641 49.7111" stroke="black" stroke-width="1.2" stroke-miterlimit="2.61313" stroke-linecap="round" stroke-linejoin="round"/>
  <path d="M10.7619 31.638L20.6406 21.7593L24.9461 26.0648L15.0674 35.9435L10.7619 31.638Z" stroke="black" stroke-width="1.2" stroke-miterlimit="2.61313" stroke-linecap="round" stroke-linejoin="round"/>
  <path fill-rule="evenodd" clip-rule="evenodd" d="M9.02273 20.0209C7.55444 21.4892 7.68133 24.0088 9.29463 25.6221L13.0379 29.3653L18.3672 24.036L14.624 20.2928C13.0107 18.6795 10.491 18.5617 9.02273 20.0209Z" stroke="black" stroke-width="1.2" stroke-miterlimit="2.61313" stroke-linecap="round" stroke-linejoin="round"/>
  <path fill-rule="evenodd" clip-rule="evenodd" d="M31.4874 44.5017L32.4662 45.4805C32.72 45.7343 33.0825 45.7706 33.2819 45.5712L34.578 44.2751C34.7774 44.0757 34.7321 43.7041 34.4874 43.4594L33.5085 42.4805C33.4995 41.7373 33.1641 40.9307 32.5297 40.2872L21.6263 29.3838L18.3906 32.6195L29.294 43.5228C29.9375 44.1663 30.7442 44.5017 31.4874 44.5017V44.5017Z" stroke="black" stroke-width="1.2" stroke-miterlimit="2.61313" stroke-linecap="round" stroke-linejoin="round"/>
  <path fill-rule="evenodd" clip-rule="evenodd" d="M31.6821 56.4381C31.673 56.5106 31.673 56.5921 31.673 56.6647C31.673 58.5045 33.1685 60 35.0084 60C36.8483 60 38.3438 58.5045 38.3438 56.6647C38.3438 56.5831 38.3437 56.5106 38.3347 56.4381C38.3347 56.4381 38.5522 55.006 35.0084 49.8398C31.4736 54.9788 31.6821 56.4199 31.6821 56.4381Z" stroke="black" stroke-width="1.2" stroke-miterlimit="2.61313" stroke-linecap="round" stroke-linejoin="round"/>
</svg>