<svg width="70" height="60" viewBox="0 0 70 60" fill="none" xmlns="http://www.w3.org/2000/svg">
<g id="Frame 1668">
<g id="Layer_x0020_1">
<g id="_1967533551664">
<g id="Group">
<g id="_1967533574368">
<path id="Vector" d="M23.7552 14.9148C24.4381 14.9148 24.9917 14.356 24.9917 13.6666C24.9917 12.9773 24.4381 12.4185 23.7552 12.4185C23.0724 12.4185 22.5188 12.9773 22.5188 13.6666C22.5188 14.356 23.0724 14.9148 23.7552 14.9148Z" fill="black"/>
<path id="Vector_2" d="M22.9032 13.5283C23.1651 13.5283 23.3775 13.3139 23.3775 13.0495C23.3775 12.7851 23.1651 12.5708 22.9032 12.5708C22.6413 12.5708 22.429 12.7851 22.429 13.0495C22.429 13.3139 22.6413 13.5283 22.9032 13.5283Z" fill="white"/>
</g>
</g>
<path id="Vector_3" fill-rule="evenodd" clip-rule="evenodd" d="M28.6751 15.2276C30.0674 15.0259 26.6596 12.9604 26.4936 12.8408C25.7382 12.2936 24.7355 11.9585 23.6684 11.9038C21.2497 11.7773 20.23 12.786 18.499 14.1539C18.499 14.1539 19.1393 14.0616 19.8371 14.8378C20.5349 15.6141 23.2111 16.5408 25.5383 15.9663C27.8655 15.3918 28.6751 15.2242 28.6751 15.2242V15.2276Z" stroke="black" stroke-miterlimit="2.61313" stroke-linecap="round" stroke-linejoin="round"/>
<g id="Mask Group">
<mask id="mask0_28547_324" style="mask-type:alpha" maskUnits="userSpaceOnUse" x="21" y="10" width="6" height="7">
<path id="Vector_4" d="M23.7518 15.926C24.9885 15.926 25.991 14.914 25.991 13.6656C25.991 12.4173 24.9885 11.4053 23.7518 11.4053C22.5152 11.4053 21.5127 12.4173 21.5127 13.6656C21.5127 14.914 22.5152 15.926 23.7518 15.926Z" stroke="black" stroke-miterlimit="2.61313" stroke-linecap="round" stroke-linejoin="round"/>
</mask>
<g mask="url(#mask0_28547_324)">
<path id="Vector_5" fill-rule="evenodd" clip-rule="evenodd" d="M28.6742 15.2257C30.0664 15.0239 26.6586 12.9585 26.4926 12.8388C25.7372 12.2917 24.7345 11.9565 23.6674 11.9018C21.2487 11.7753 20.2291 12.7841 18.498 14.1519C18.498 14.1519 19.1383 14.0596 19.8361 14.8358C20.5339 15.6121 23.2101 16.5388 25.5373 15.9643C27.8646 15.3898 28.6742 15.2223 28.6742 15.2223V15.2257Z" fill="black" stroke="black" stroke-miterlimit="2.61313" stroke-linecap="round" stroke-linejoin="round"/>
</g>
</g>
<path id="Vector_6" d="M28.347 14.3306C28.347 14.3306 27.9157 14.782 28.0923 15.3086" stroke="black" stroke-miterlimit="2.61313" stroke-linecap="round" stroke-linejoin="round"/>
<path id="Vector_7" d="M28.8781 13.6927C28.8781 13.6927 27.3029 10.916 23.597 10.8784C19.8944 10.8408 18.0583 13.1182 18.0583 13.1182" stroke="black" stroke-miterlimit="2.61313" stroke-linecap="round" stroke-linejoin="round"/>
<path id="Vector_8" fill-rule="evenodd" clip-rule="evenodd" d="M29.334 9.73484C29.334 9.73484 29.9946 8.86968 28.0874 7.8609C28.0874 7.8609 21.1565 5.7852 19.5441 5.98695C17.9316 6.18871 15.4011 8.23363 15.4011 8.23363C15.4011 8.23363 18.2263 7.13936 21.4512 8.00452C24.6796 8.86968 29.0054 10.0802 29.334 9.73142V9.73484Z" stroke="black" stroke-miterlimit="2.61313" stroke-linecap="round" stroke-linejoin="round"/>
<path id="Vector_9" d="M34.8668 29.8548C34.8668 29.8548 33.9623 29.8788 33.5931 29.4582C33.2272 29.0375 32.2956 28.6682 31.5605 28.7161" stroke="black" stroke-miterlimit="2.61313" stroke-linecap="round" stroke-linejoin="round"/>
<path id="Vector_10" d="M30.5135 26.6421C30.5135 26.6421 29.2906 29.2342 31.8347 29.6548" stroke="black" stroke-miterlimit="2.61313" stroke-linecap="round" stroke-linejoin="round"/>
<path id="Vector_11" d="M30.9961 12.7061C30.9961 12.7061 33.198 14.6826 32.7576 20.1163" stroke="black" stroke-miterlimit="2.61313" stroke-linecap="round" stroke-linejoin="round"/>
<path id="Vector_12" fill-rule="evenodd" clip-rule="evenodd" d="M35.0009 34.8166C35.0009 34.8166 33.2021 33.9275 31.9284 34.6696C30.6547 35.4116 27.0334 37.2377 27.0334 37.2377C27.0334 37.2377 28.6493 42.2269 34.9975 42.2269C41.3491 42.2269 42.9616 37.2377 42.9616 37.2377C42.9616 37.2377 39.3403 35.4082 38.0666 34.6696C36.7929 33.9275 34.9941 34.8166 34.9941 34.8166H35.0009Z" stroke="black" stroke-miterlimit="2.61313" stroke-linecap="round" stroke-linejoin="round"/>
<path id="Vector_13" d="M34.9981 37.8526C34.9981 37.8526 34.5441 37.8287 33.9818 37.5928C33.4195 37.3568 30.6044 37.2474 29.2359 37.5688C27.8639 37.8903 27.4507 37.1243 25.9805 37.1243" stroke="black" stroke-miterlimit="2.61313" stroke-linecap="round" stroke-linejoin="round"/>
<path id="Vector_14" d="M9.49707 12.8438C9.49707 12.8438 12.4239 25.2672 13.9889 31.7371C15.554 38.2104 15.9469 39.2978 19.3717 42.5567C22.7965 45.819 29.3717 51.9436 34.9984 51.9436" stroke="black" stroke-miterlimit="2.61313" stroke-linecap="round" stroke-linejoin="round"/>
<path id="Vector_15" d="M7.38227 11.1421C7.38227 11.1421 5.49542 11.166 6.13227 13.9325C6.76913 16.699 9.06926 20.6999 9.36397 23.6647C9.65869 26.6295 10.8104 27.5015 12.9276 27.3134" stroke="black" stroke-miterlimit="2.61313" stroke-linecap="round" stroke-linejoin="round"/>
<path id="Vector_16" d="M7.87207 15.2616C7.87207 15.2616 8.18372 13.9279 8.80703 14.3725C9.43033 14.817 10.7379 18.3255 10.7379 18.3255C10.7379 18.3255 9.89781 20.1037 10.3653 20.6474C10.8328 21.1912 11.7372 22.2957 11.7372 22.2957" stroke="black" stroke-miterlimit="2.61313" stroke-linecap="round" stroke-linejoin="round"/>
<g id="Group_2">
<g id="Group_3">
<path id="Vector_17" d="M46.2531 14.9148C46.9359 14.9148 47.4895 14.356 47.4895 13.6666C47.4895 12.9773 46.9359 12.4185 46.2531 12.4185C45.5702 12.4185 45.0166 12.9773 45.0166 13.6666C45.0166 14.356 45.5702 14.9148 46.2531 14.9148Z" fill="black"/>
<path id="Vector_18" d="M45.401 13.5283C45.6629 13.5283 45.8753 13.3139 45.8753 13.0495C45.8753 12.7851 45.6629 12.5708 45.401 12.5708C45.1391 12.5708 44.9268 12.7851 44.9268 13.0495C44.9268 13.3139 45.1391 13.5283 45.401 13.5283Z" fill="white"/>
</g>
</g>
<path id="Vector_19" fill-rule="evenodd" clip-rule="evenodd" d="M41.3227 15.2276C39.9304 15.0259 43.3382 12.9604 43.5042 12.8408C44.2596 12.2936 45.2624 11.9585 46.3294 11.9038C48.7481 11.7773 49.7678 12.786 51.4988 14.1539C51.4988 14.1539 50.8585 14.0616 50.1607 14.8378C49.4629 15.6141 46.7867 16.5408 44.4595 15.9663C42.1323 15.3918 41.3227 15.2242 41.3227 15.2242V15.2276Z" stroke="black" stroke-miterlimit="2.61313" stroke-linecap="round" stroke-linejoin="round"/>
<g id="Mask Group_2">
<mask id="mask1_28547_324" style="mask-type:alpha" maskUnits="userSpaceOnUse" x="43" y="10" width="6" height="7">
<path id="Vector_20" d="M46.2499 15.926C47.4865 15.926 48.4891 14.914 48.4891 13.6656C48.4891 12.4173 47.4865 11.4053 46.2499 11.4053C45.0132 11.4053 44.0107 12.4173 44.0107 13.6656C44.0107 14.914 45.0132 15.926 46.2499 15.926Z" stroke="black" stroke-miterlimit="2.61313" stroke-linecap="round" stroke-linejoin="round"/>
</mask>
<g mask="url(#mask1_28547_324)">
<path id="Vector_21" fill-rule="evenodd" clip-rule="evenodd" d="M41.3224 15.2257C39.9302 15.0239 43.338 12.9585 43.504 12.8388C44.2594 12.2917 45.2621 11.9565 46.3292 11.9018C48.7479 11.7753 49.7675 12.7841 51.4985 14.1519C51.4985 14.1519 50.8583 14.0596 50.1605 14.8358C49.4626 15.6121 46.7865 16.5388 44.4593 15.9643C42.132 15.3898 41.3224 15.2223 41.3224 15.2223V15.2257Z" fill="black" stroke="black" stroke-miterlimit="2.61313" stroke-linecap="round" stroke-linejoin="round"/>
</g>
</g>
<path id="Vector_22" d="M41.6436 14.3306C41.6436 14.3306 42.0749 14.782 41.8983 15.3086" stroke="black" stroke-miterlimit="2.61313" stroke-linecap="round" stroke-linejoin="round"/>
<path id="Vector_23" d="M41.1211 13.6927C41.1211 13.6927 42.6963 10.916 46.4022 10.8784C50.1048 10.8408 51.9408 13.1182 51.9408 13.1182" stroke="black" stroke-miterlimit="2.61313" stroke-linecap="round" stroke-linejoin="round"/>
<path id="Vector_24" fill-rule="evenodd" clip-rule="evenodd" d="M40.6653 9.73484C40.6653 9.73484 40.0047 8.86968 41.9119 7.8609C41.9119 7.8609 48.8428 5.7852 50.4553 5.98695C52.0677 6.18871 54.5982 8.23363 54.5982 8.23363C54.5982 8.23363 51.773 7.13936 48.5481 8.00452C45.3198 8.86968 40.9939 10.0802 40.6653 9.73142V9.73484Z" stroke="black" stroke-miterlimit="2.61313" stroke-linecap="round" stroke-linejoin="round"/>
<path id="Vector_25" d="M35.1321 29.8548C35.1321 29.8548 36.0365 29.8788 36.4058 29.4582C36.7716 29.0375 37.7032 28.6682 38.4383 28.7161" stroke="black" stroke-miterlimit="2.61313" stroke-linecap="round" stroke-linejoin="round"/>
<path id="Vector_26" d="M39.4891 26.6423C39.4891 26.6423 40.712 29.2344 38.168 29.655" stroke="black" stroke-miterlimit="2.61313" stroke-linecap="round" stroke-linejoin="round"/>
<path id="Vector_27" d="M38.9965 12.7061C38.9965 12.7061 36.7946 14.6826 37.235 20.1163" stroke="black" stroke-miterlimit="2.61313" stroke-linecap="round" stroke-linejoin="round"/>
<path id="Vector_28" d="M35.002 37.8529C35.002 37.8529 35.4559 37.829 36.0182 37.593C36.5805 37.357 39.3956 37.2476 40.7641 37.5691C42.1361 37.8905 42.5494 37.1245 44.0195 37.1245" stroke="black" stroke-miterlimit="2.61313" stroke-linecap="round" stroke-linejoin="round"/>
<path id="Vector_29" d="M60.4962 12.844C60.4962 12.844 57.5693 25.2674 56.0043 31.7373C54.4393 38.2107 54.0463 39.2981 50.6215 42.557C47.1967 45.8193 40.6216 51.9438 34.9949 51.9438" stroke="black" stroke-miterlimit="2.61313" stroke-linecap="round" stroke-linejoin="round"/>
<path id="Vector_30" d="M62.6184 11.1421C62.6184 11.1421 64.5052 11.166 63.8684 13.9325C63.2315 16.699 60.9314 20.6999 60.6367 23.6647C60.342 26.6295 59.1902 27.5015 57.073 27.3134" stroke="black" stroke-miterlimit="2.61313" stroke-linecap="round" stroke-linejoin="round"/>
<path id="Vector_31" d="M62.1279 15.2616C62.1279 15.2616 61.8162 13.9279 61.1929 14.3725C60.5696 14.817 59.262 18.3255 59.262 18.3255C59.262 18.3255 60.1021 20.1037 59.6346 20.6474C59.1672 21.1912 58.2627 22.2957 58.2627 22.2957" stroke="black" stroke-miterlimit="2.61313" stroke-linecap="round" stroke-linejoin="round"/>
</g>
<g id="Group 1982">
<path id="Vector_32" d="M35.2442 22.5586C35.508 22.5586 35.7219 22.3427 35.7219 22.0764C35.7219 21.8101 35.508 21.5942 35.2442 21.5942C34.9804 21.5942 34.7666 21.8101 34.7666 22.0764C34.7666 22.3427 34.9804 22.5586 35.2442 22.5586Z" fill="black" stroke="black"/>
<path id="Vector_33" d="M32.098 25.3161C32.3618 25.3161 32.5756 25.1003 32.5756 24.834C32.5756 24.5677 32.3618 24.3518 32.098 24.3518C31.8342 24.3518 31.6204 24.5677 31.6204 24.834C31.6204 25.1003 31.8342 25.3161 32.098 25.3161Z" fill="black" stroke="black"/>
<path id="Vector_34" d="M29.9034 22.8291C30.1672 22.8291 30.3811 22.6132 30.3811 22.3469C30.3811 22.0806 30.1672 21.8647 29.9034 21.8647C29.6396 21.8647 29.4258 22.0806 29.4258 22.3469C29.4258 22.6132 29.6396 22.8291 29.9034 22.8291Z" fill="black" stroke="black"/>
<path id="Vector_35" d="M27.3509 24.8086C27.6147 24.8086 27.8286 24.5927 27.8286 24.3264C27.8286 24.0601 27.6147 23.8442 27.3509 23.8442C27.0871 23.8442 26.8733 24.0601 26.8733 24.3264C26.8733 24.5927 27.0871 24.8086 27.3509 24.8086Z" fill="black" stroke="black"/>
<path id="Vector_36" d="M25.3409 22.5864C25.6047 22.5864 25.8186 22.3705 25.8186 22.1042C25.8186 21.8379 25.6047 21.6221 25.3409 21.6221C25.0771 21.6221 24.8633 21.8379 24.8633 22.1042C24.8633 22.3705 25.0771 22.5864 25.3409 22.5864Z" fill="black" stroke="black"/>
<path id="Vector_37" d="M24.0196 25.6152C24.2834 25.6152 24.4973 25.3993 24.4973 25.133C24.4973 24.8668 24.2834 24.6509 24.0196 24.6509C23.7558 24.6509 23.542 24.8668 23.542 25.133C23.542 25.3993 23.7558 25.6152 24.0196 25.6152Z" fill="black" stroke="black"/>
<path id="Vector_38" d="M21.5763 23.4348C21.8401 23.4348 22.0539 23.2189 22.0539 22.9526C22.0539 22.6863 21.8401 22.4705 21.5763 22.4705C21.3125 22.4705 21.0986 22.6863 21.0986 22.9526C21.0986 23.2189 21.3125 23.4348 21.5763 23.4348Z" fill="black" stroke="black"/>
<path id="Vector_39" d="M38.39 25.3161C38.6538 25.3161 38.8676 25.1003 38.8676 24.834C38.8676 24.5677 38.6538 24.3518 38.39 24.3518C38.1262 24.3518 37.9124 24.5677 37.9124 24.834C37.9124 25.1003 38.1262 25.3161 38.39 25.3161Z" fill="black" stroke="black"/>
<path id="Vector_40" d="M40.5782 22.8291C40.842 22.8291 41.0559 22.6132 41.0559 22.3469C41.0559 22.0806 40.842 21.8647 40.5782 21.8647C40.3144 21.8647 40.1006 22.0806 40.1006 22.3469C40.1006 22.6132 40.3144 22.8291 40.5782 22.8291Z" fill="black" stroke="black"/>
<path id="Vector_41" d="M43.1388 24.8086C43.4026 24.8086 43.6164 24.5927 43.6164 24.3264C43.6164 24.0601 43.4026 23.8442 43.1388 23.8442C42.875 23.8442 42.6611 24.0601 42.6611 24.3264C42.6611 24.5927 42.875 24.8086 43.1388 24.8086Z" fill="black" stroke="black"/>
<path id="Vector_42" d="M45.1417 22.5864C45.4055 22.5864 45.6193 22.3705 45.6193 22.1042C45.6193 21.8379 45.4055 21.6221 45.1417 21.6221C44.8779 21.6221 44.6641 21.8379 44.6641 22.1042C44.6641 22.3705 44.8779 22.5864 45.1417 22.5864Z" fill="black" stroke="black"/>
<path id="Vector_43" d="M46.461 25.6152C46.7248 25.6152 46.9387 25.3993 46.9387 25.133C46.9387 24.8668 46.7248 24.6509 46.461 24.6509C46.1972 24.6509 45.9834 24.8668 45.9834 25.133C45.9834 25.3993 46.1972 25.6152 46.461 25.6152Z" fill="black" stroke="black"/>
<path id="Vector_44" d="M48.9112 23.4345C49.175 23.4345 49.3889 23.2187 49.3889 22.9524C49.3889 22.6861 49.175 22.4702 48.9112 22.4702C48.6474 22.4702 48.4336 22.6861 48.4336 22.9524C48.4336 23.2187 48.6474 23.4345 48.9112 23.4345Z" fill="black" stroke="black"/>
</g>
</g>
</g>
</svg>
