<svg width="70" height="60" viewBox="0 0 70 60" fill="none" xmlns="http://www.w3.org/2000/svg">
<g id="Even skin tone 2">
<g id="Layer_x0020_1">
<g id="Group">
<g id="Group_2">
<g id="Group_3">
<g id="_1967660406928">
<path id="Vector" d="M23.9363 15.8641C24.6254 15.8641 25.1841 15.304 25.1841 14.613C25.1841 13.922 24.6254 13.3618 23.9363 13.3618C23.2471 13.3618 22.6885 13.922 22.6885 14.613C22.6885 15.304 23.2471 15.8641 23.9363 15.8641Z" fill="black"/>
<path id="Vector_2" d="M23.0799 14.4803C23.3457 14.4803 23.5612 14.2642 23.5612 13.9977C23.5612 13.7312 23.3457 13.5151 23.0799 13.5151C22.8141 13.5151 22.5986 13.7312 22.5986 13.9977C22.5986 14.2642 22.8141 14.4803 23.0799 14.4803Z" fill="white"/>
</g>
</g>
<g id="Group_4">
<path id="Vector_3" fill-rule="evenodd" clip-rule="evenodd" d="M28.9173 16.1784C30.3255 15.9728 26.8762 13.8995 26.7158 13.7833C25.9493 13.2382 24.9421 12.8986 23.8636 12.8449C21.4215 12.7198 20.3876 13.7297 18.6406 15.1059C18.6406 15.1059 19.2913 15.0166 19.9954 15.7941C20.6995 16.5716 23.4091 17.501 25.7621 16.929C28.1151 16.3571 28.9351 16.1873 28.9351 16.1873L28.9173 16.1784Z" stroke="black" stroke-miterlimit="2.61313" stroke-linecap="round" stroke-linejoin="round"/>
<g id="Mask Group">
<mask id="mask0_28547_262" style="mask-type:alpha" maskUnits="userSpaceOnUse" x="21" y="11" width="6" height="7">
<path id="Vector_4" d="M23.9387 16.8841C25.189 16.8841 26.2026 15.8678 26.2026 14.6142C26.2026 13.3605 25.189 12.3442 23.9387 12.3442C22.6884 12.3442 21.6748 13.3605 21.6748 14.6142C21.6748 15.8678 22.6884 16.8841 23.9387 16.8841Z" stroke="black" stroke-miterlimit="2.61313" stroke-linecap="round" stroke-linejoin="round"/>
</mask>
<g mask="url(#mask0_28547_262)">
<path id="Vector_5" fill-rule="evenodd" clip-rule="evenodd" d="M28.919 16.1793C30.3272 15.9738 26.8779 13.9005 26.7175 13.7843C25.951 13.2391 24.9438 12.8995 23.8653 12.8459C21.4232 12.7208 20.3893 13.7307 18.6423 15.1069C18.6423 15.1069 19.293 15.0176 19.9971 15.7951C20.7012 16.5725 23.4108 17.502 25.7638 16.93C28.1168 16.3581 28.9368 16.1883 28.9368 16.1883L28.919 16.1793Z" fill="black" stroke="black" stroke-miterlimit="2.61313" stroke-linecap="round" stroke-linejoin="round"/>
</g>
</g>
<path id="Vector_6" d="M28.5921 15.2839C28.5921 15.2839 28.1542 15.7397 28.3329 16.267" stroke="black" stroke-miterlimit="2.61313" stroke-linecap="round" stroke-linejoin="round"/>
<path id="Vector_7" d="M29.1179 14.6413C29.1179 14.6413 27.5224 11.8531 23.779 11.8173C20.0355 11.7816 18.1816 14.0694 18.1816 14.0694" stroke="black" stroke-miterlimit="2.61313" stroke-linecap="round" stroke-linejoin="round"/>
<path id="Vector_8" fill-rule="evenodd" clip-rule="evenodd" d="M29.5864 10.6637C29.5864 10.6637 30.2549 9.79683 28.3297 8.78698C28.3297 8.78698 21.3241 6.70473 19.693 6.91027C18.0619 7.11582 15.5039 9.16233 15.5039 9.16233C15.5039 9.16233 18.3561 8.06311 21.6182 8.92997C24.8804 9.79683 29.2566 11.0122 29.5864 10.6637V10.6637Z" stroke="black" stroke-miterlimit="2.61313" stroke-linecap="round" stroke-linejoin="round"/>
<path id="Vector_9" d="M35.177 30.8625C35.177 30.8625 34.2589 30.8893 33.8935 30.4693C33.5191 30.0493 32.5833 29.6739 31.8435 29.7275" stroke="black" stroke-miterlimit="2.61313" stroke-linecap="round" stroke-linejoin="round"/>
<path id="Vector_10" d="M30.7783 27.6436C30.7783 27.6436 29.5394 30.2441 32.1152 30.6731" stroke="black" stroke-miterlimit="2.61313" stroke-linecap="round" stroke-linejoin="round"/>
<path id="Vector_11" d="M31.2666 13.6477C31.2666 13.6477 33.4948 15.6317 33.0492 21.092" stroke="black" stroke-miterlimit="2.61313" stroke-linecap="round" stroke-linejoin="round"/>
<path id="Vector_12" fill-rule="evenodd" clip-rule="evenodd" d="M35.3162 35.8467C35.3162 35.8467 33.498 34.9531 32.2145 35.6948C30.9311 36.4366 27.2678 38.2775 27.2678 38.2775C27.2678 38.2775 28.8989 43.291 35.3162 43.291C41.7336 43.291 43.3646 38.2775 43.3646 38.2775C43.3646 38.2775 39.7014 36.4455 38.4179 35.6948C37.1345 34.9531 35.3162 35.8467 35.3162 35.8467V35.8467Z" stroke="black" stroke-miterlimit="2.61313" stroke-linecap="round" stroke-linejoin="round"/>
<path id="Vector_13" d="M35.3114 38.8954C35.3114 38.8954 34.8569 38.8686 34.2865 38.6362C33.716 38.4039 30.8728 38.2877 29.4913 38.6094C28.1098 38.9312 27.6819 38.1626 26.2024 38.1626" stroke="black" stroke-miterlimit="2.61313" stroke-linecap="round" stroke-linejoin="round"/>
<path id="Vector_14" d="M9.53418 13.791C9.53418 13.791 12.4933 26.2667 14.0709 32.7637C15.6574 39.2607 16.0496 40.351 19.5078 43.6219C22.9749 46.8927 29.6151 53.0501 35.3016 53.0501" stroke="black" stroke-miterlimit="2.61313" stroke-linecap="round" stroke-linejoin="round"/>
<path id="Vector_15" d="M7.39858 12.075C7.39858 12.075 5.4912 12.1018 6.13294 14.8811C6.77467 17.6604 9.10096 21.673 9.39508 24.6489C9.68921 27.6249 10.8568 28.5007 12.9959 28.313" stroke="black" stroke-miterlimit="2.61313" stroke-linecap="round" stroke-linejoin="round"/>
<path id="Vector_16" d="M7.88672 16.2129C7.88672 16.2129 8.19867 14.8724 8.83149 15.3192C9.46431 15.7661 10.7834 19.2871 10.7834 19.2871C10.7834 19.2871 9.9367 21.0745 10.4091 21.6196C10.8815 22.1648 11.7906 23.2729 11.7906 23.2729" stroke="black" stroke-miterlimit="2.61313" stroke-linecap="round" stroke-linejoin="round"/>
</g>
<g id="Group_5">
<g id="Group_6">
<path id="Vector_17" d="M46.6853 15.8644C47.3745 15.8644 47.9331 15.3042 47.9331 14.6132C47.9331 13.9222 47.3745 13.3621 46.6853 13.3621C45.9962 13.3621 45.4375 13.9222 45.4375 14.6132C45.4375 15.3042 45.9962 15.8644 46.6853 15.8644Z" fill="black"/>
<path id="Vector_18" d="M45.8211 14.4805C46.087 14.4805 46.3024 14.2645 46.3024 13.998C46.3024 13.7314 46.087 13.5154 45.8211 13.5154C45.5553 13.5154 45.3398 13.7314 45.3398 13.998C45.3398 14.2645 45.5553 14.4805 45.8211 14.4805Z" fill="white"/>
</g>
</g>
<g id="Group_7">
<path id="Vector_19" fill-rule="evenodd" clip-rule="evenodd" d="M41.6984 16.1784C40.2902 15.9728 43.7395 13.8995 43.8999 13.7833C44.6664 13.2382 45.6736 12.8986 46.7521 12.8449C49.1942 12.7198 50.2281 13.7297 51.9751 15.1059C51.9751 15.1059 51.3244 15.0166 50.6203 15.7941C49.9162 16.5716 47.2066 17.501 44.8536 16.929C42.5006 16.3571 41.6806 16.1873 41.6806 16.1873L41.6984 16.1784Z" stroke="black" stroke-miterlimit="2.61313" stroke-linecap="round" stroke-linejoin="round"/>
<g id="Mask Group_2">
<mask id="mask1_28547_262" style="mask-type:alpha" maskUnits="userSpaceOnUse" x="43" y="11" width="7" height="7">
<path id="Vector_20" d="M46.6858 16.8841C47.9361 16.8841 48.9497 15.8678 48.9497 14.6142C48.9497 13.3605 47.9361 12.3442 46.6858 12.3442C45.4355 12.3442 44.4219 13.3605 44.4219 14.6142C44.4219 15.8678 45.4355 16.8841 46.6858 16.8841Z" stroke="black" stroke-miterlimit="2.61313" stroke-linecap="round" stroke-linejoin="round"/>
</mask>
<g mask="url(#mask1_28547_262)">
<path id="Vector_21" fill-rule="evenodd" clip-rule="evenodd" d="M41.6977 16.1793C40.2894 15.9738 43.7388 13.9005 43.8992 13.7843C44.6657 13.2391 45.6729 12.8995 46.7513 12.8459C49.1935 12.7208 50.2274 13.7307 51.9743 15.1069C51.9743 15.1069 51.3237 15.0176 50.6196 15.7951C49.9154 16.5725 47.2059 17.502 44.8529 16.93C42.4999 16.3581 41.6799 16.1883 41.6799 16.1883L41.6977 16.1793Z" fill="black" stroke="black" stroke-miterlimit="2.61313" stroke-linecap="round" stroke-linejoin="round"/>
</g>
</g>
<path id="Vector_22" d="M42.0283 15.2837C42.0283 15.2837 42.4662 15.7395 42.2875 16.2667" stroke="black" stroke-miterlimit="2.61313" stroke-linecap="round" stroke-linejoin="round"/>
<path id="Vector_23" d="M41.4922 14.6413C41.4922 14.6413 43.0876 11.8531 46.8311 11.8173C50.5745 11.7816 52.4284 14.0694 52.4284 14.0694" stroke="black" stroke-miterlimit="2.61313" stroke-linecap="round" stroke-linejoin="round"/>
<path id="Vector_24" fill-rule="evenodd" clip-rule="evenodd" d="M41.0283 10.6637C41.0283 10.6637 40.3598 9.79683 42.285 8.78698C42.285 8.78698 49.2906 6.70473 50.9217 6.91027C52.5528 7.11582 55.1108 9.16233 55.1108 9.16233C55.1108 9.16233 52.2586 8.06311 48.9965 8.92997C45.7343 9.79683 41.3581 11.0122 41.0283 10.6637V10.6637Z" stroke="black" stroke-miterlimit="2.61313" stroke-linecap="round" stroke-linejoin="round"/>
<path id="Vector_25" d="M35.4424 30.8623C35.4424 30.8623 36.3604 30.8891 36.7258 30.469C37.1002 30.049 38.0361 29.6737 38.7758 29.7273" stroke="black" stroke-miterlimit="2.61313" stroke-linecap="round" stroke-linejoin="round"/>
<path id="Vector_26" d="M39.8455 27.6438C39.8455 27.6438 41.0844 30.2444 38.5085 30.6734" stroke="black" stroke-miterlimit="2.61313" stroke-linecap="round" stroke-linejoin="round"/>
<path id="Vector_27" d="M39.3493 13.6479C39.3493 13.6479 37.1211 15.6319 37.5667 21.0923" stroke="black" stroke-miterlimit="2.61313" stroke-linecap="round" stroke-linejoin="round"/>
<path id="Vector_28" d="M35.3086 38.8952C35.3086 38.8952 35.7632 38.8684 36.3336 38.636C36.904 38.4036 39.7473 38.2875 41.1288 38.6092C42.5103 38.9309 42.9381 38.1624 44.4176 38.1624" stroke="black" stroke-miterlimit="2.61313" stroke-linecap="round" stroke-linejoin="round"/>
<path id="Vector_29" d="M61.0831 13.791C61.0831 13.791 58.124 26.2667 56.5464 32.7637C54.9599 39.2607 54.5677 40.351 51.1094 43.6219C47.6423 46.8927 41.0021 53.0501 35.3157 53.0501" stroke="black" stroke-miterlimit="2.61313" stroke-linecap="round" stroke-linejoin="round"/>
<path id="Vector_30" d="M63.2223 12.0747C63.2223 12.0747 65.1297 12.1015 64.488 14.8808C63.8463 17.6602 61.52 21.6728 61.2258 24.6487C60.9317 27.6246 59.7641 28.5004 57.625 28.3128" stroke="black" stroke-miterlimit="2.61313" stroke-linecap="round" stroke-linejoin="round"/>
<path id="Vector_31" d="M62.7262 16.2129C62.7262 16.2129 62.4142 14.8724 61.7814 15.3192C61.1486 15.7661 59.8294 19.2871 59.8294 19.2871C59.8294 19.2871 60.6762 21.0745 60.2038 21.6196C59.7314 22.1648 58.8223 23.2729 58.8223 23.2729" stroke="black" stroke-miterlimit="2.61313" stroke-linecap="round" stroke-linejoin="round"/>
</g>
</g>
</g>
<g id="Group_8">
<g id="Group_9">
<g id="Group_10">
<path id="Vector_32" fill-rule="evenodd" clip-rule="evenodd" d="M15.3799 47.7383C19.8007 47.7383 23.3837 43.4129 23.3837 38.0776C23.3837 43.4129 26.9667 47.7383 31.3876 47.7383C26.9667 47.7383 23.3837 52.0636 23.3837 57.3989C23.3837 52.0636 19.8007 47.7383 15.3799 47.7383Z" fill="white" stroke="black" stroke-miterlimit="2.61313" stroke-linecap="round" stroke-linejoin="round"/>
<path id="Vector_33" fill-rule="evenodd" clip-rule="evenodd" d="M6.00098 40.9104C8.30944 40.9104 10.1812 38.5064 10.1812 35.5483C10.1812 38.5064 12.0529 40.9104 14.3613 40.9104C12.0529 40.9104 10.1812 43.3144 10.1812 46.2724C10.1812 43.3144 8.30944 40.9104 6.00098 40.9104Z" fill="white" stroke="black" stroke-miterlimit="2.61313" stroke-linecap="round" stroke-linejoin="round"/>
<path id="Vector_34" fill-rule="evenodd" clip-rule="evenodd" d="M55.0322 29.4829C57.1249 29.4829 58.8216 27.3864 58.8216 24.8066C58.8216 27.3864 60.5183 29.4829 62.6109 29.4829C60.5183 29.4829 58.8216 31.5794 58.8216 34.1591C58.8216 31.5794 57.1249 29.4829 55.0322 29.4829Z" fill="white" stroke="black" stroke-miterlimit="2.61313" stroke-linecap="round" stroke-linejoin="round"/>
</g>
</g>
</g>
</g>
</g>
</svg>
