<svg width="70" height="60" viewBox="0 0 70 60" fill="none" xmlns="http://www.w3.org/2000/svg">
<g id="Frame 1667">
<g id="Group 1000003910">
<path id="Vector" d="M7.86108 46.4219C10.3732 46.4219 11.6707 45.6489 12.8302 44.9588C13.8792 44.3238 14.7902 43.7993 16.695 43.7993C18.5998 43.7993 19.5108 44.3238 20.5598 44.9588C21.7193 45.6489 23.0168 46.4219 25.5289 46.4219C28.0411 46.4219 29.3386 45.6489 30.498 44.9588C31.5471 44.3238 32.4581 43.7993 34.3353 43.7993C36.2125 43.7993 37.1511 44.3238 38.1725 44.9588C39.332 45.6489 40.6295 46.4219 43.1416 46.4219C45.6538 46.4219 46.9512 45.6489 48.1107 44.9588C49.1597 44.3238 50.0707 43.7993 51.9479 43.7993C53.8251 43.7993 54.7361 44.3238 55.7852 44.9588C56.9446 45.6489 58.2421 46.4219 60.7543 46.4219" stroke="black"/>
<path id="Vector 150" d="M8.47656 38.7266H66.0467" stroke="black"/>
<path id="Vector 151" d="M8.47656 30.876H66.0467" stroke="black"/>
</g>
<g id="Group 1000004004">
<path id="Ellipse 113" d="M23.9761 16.4433C23.9761 18.7097 21.9668 20.6161 19.3992 20.6161C16.8316 20.6161 14.8223 18.7097 14.8223 16.4433C14.8223 15.8877 15.0012 15.1435 15.3288 14.2573C15.6529 13.3802 16.1071 12.404 16.6236 11.3971C17.3772 9.92796 18.2476 8.42282 19.0197 7.08761C19.1442 6.87232 19.2661 6.66144 19.3846 6.45585C19.6059 6.85716 19.8609 7.30814 20.1335 7.79002C20.1781 7.86892 20.2232 7.94865 20.2687 8.02913C20.8015 8.97177 21.3946 10.0268 21.9493 11.0869C22.5046 12.1481 23.0163 13.2046 23.3881 14.1493C23.7655 15.1085 23.9761 15.8977 23.9761 16.4433Z" stroke="black"/>
<path id="Ellipse 115" d="M53.5142 17.3662C53.5142 19.6325 51.5049 21.539 48.9373 21.539C46.3697 21.539 44.3604 19.6325 44.3604 17.3662C44.3604 16.8105 44.5393 16.0664 44.8669 15.1801C45.191 14.3031 45.6452 13.3269 46.1617 12.3199C46.9153 10.8508 47.7857 9.34567 48.5578 8.01046C48.6823 7.79517 48.8042 7.58429 48.9227 7.3787C49.144 7.78001 49.399 8.231 49.6715 8.71287C49.7162 8.79177 49.7613 8.8715 49.8067 8.95198C50.3396 9.89462 50.9327 10.9497 51.4874 12.0097C52.0427 13.071 52.5544 14.1275 52.9262 15.0722C53.3036 16.0313 53.5142 16.8205 53.5142 17.3662Z" stroke="black"/>
<path id="Ellipse 114" d="M36.0687 12.7335C36.0687 14.1434 34.8519 15.3332 33.2917 15.3332C31.7314 15.3332 30.5146 14.1434 30.5146 12.7335C30.5146 12.3927 30.6227 11.9199 30.8321 11.3376C31.0383 10.7643 31.3284 10.1231 31.6603 9.45804C32.1448 8.48748 32.7033 7.49489 33.2011 6.61019C33.2273 6.56354 33.2534 6.51719 33.2793 6.47116C33.3823 6.66017 33.4929 6.86111 33.6079 7.07023C33.6369 7.12291 33.6662 7.17612 33.6957 7.22979C34.0397 7.85509 34.4214 8.55289 34.7781 9.25344C35.1354 9.95522 35.4628 10.6502 35.6998 11.2692C35.9421 11.9021 36.0687 12.4024 36.0687 12.7335Z" stroke="black"/>
</g>
</g>
</svg>
