<svg xmlns="http://www.w3.org/2000/svg" width="46" height="70" viewBox="0 0 46 70" fill="none">
  <path d="M27.6997 35.1791C27.4582 35.2379 27.2548 34.9968 27.3537 34.7689C27.5286 34.3625 27.8328 33.8536 28.2967 33.6979C29.1047 33.4283 33.8959 31.9775 35.0252 32.2471C35.9625 32.4693 37.531 33.6181 38.0387 34.0036C38.0786 34.034 38.0501 34.0948 38.0025 34.0853C37.5862 33.9998 36.5538 33.8118 35.2419 33.7625C33.8236 33.7093 29.2663 34.7936 27.7016 35.1791H27.6997Z" stroke="#C7E7DC" stroke-width="1.5" stroke-linecap="round" stroke-linejoin="round"/>
  <path d="M18.5991 35.1791C18.8406 35.2379 19.044 34.9968 18.9451 34.7689C18.7702 34.3625 18.466 33.8536 18.0021 33.6979C17.1941 33.4283 12.403 31.9775 11.2736 32.2471C10.3363 32.4693 8.76779 33.6181 8.26015 34.0036C8.22023 34.034 8.24875 34.0948 8.29628 34.0853C8.71265 33.9998 9.74502 33.8118 11.0569 33.7625C12.4752 33.7093 17.0325 34.7936 18.5972 35.1791H18.5991Z" stroke="#C7E7DC" stroke-width="1.5" stroke-linecap="round" stroke-linejoin="round"/>
  <path d="M26.0533 37.6575C26.0533 37.6575 24.9145 39.264 24.8479 40.2685C24.7814 41.273 24.8479 43.0789 24.8479 43.0789" stroke="#C7E7DC" stroke-width="1.5" stroke-linecap="round" stroke-linejoin="round"/>
  <path d="M18.8104 48.6274C18.8104 48.6274 18.3408 50.1675 19.0785 50.6346C19.8162 51.1017 20.1109 50.9688 20.1109 50.9688" stroke="#C7E7DC" stroke-width="1.5" stroke-linecap="round" stroke-linejoin="round"/>
  <path d="M27.6657 48.6274C27.6657 48.6274 28.1353 50.1675 27.3976 50.6346C26.6599 51.1017 26.3652 50.9688 26.3652 50.9688" stroke="#C7E7DC" stroke-width="1.5" stroke-linecap="round" stroke-linejoin="round"/>
  <path d="M20.8281 50.5604C20.8281 50.5604 21.3243 50.4769 22.0963 51.0295C22.8682 51.582 24.0697 51.5441 24.6895 51.0295C25.4025 50.4351 25.6649 50.5566 25.6649 50.5566" stroke="#C7E7DC" stroke-width="1.5" stroke-linecap="round" stroke-linejoin="round"/>
  <path d="M16.3477 56.8459C16.3477 56.8459 20.6616 56.9181 21.7282 57.1213C22.7948 57.3245 24.3918 57.2903 24.8177 57.1213C25.2436 56.9523 29.664 56.8459 29.664 56.8459" stroke="#C7E7DC" stroke-width="1.5" stroke-linecap="round" stroke-linejoin="round"/>
  <path d="M18.3193 56.2079C18.3193 56.2079 21.0894 54.9318 21.7815 54.8254C22.4736 54.7191 23.0059 55.1976 23.4337 55.1976C23.8615 55.1976 24.3919 54.6887 24.8178 54.8103C25.2437 54.9318 28.1735 56.4224 28.1735 56.4224" stroke="#C7E7DC" stroke-width="1.5" stroke-linecap="round" stroke-linejoin="round"/>
  <path d="M17.7305 57.9092C17.7305 57.9092 20.5576 59.5878 23.2612 59.5878C25.9647 59.5878 27.3907 58.7637 28.3413 57.9092" stroke="#C7E7DC" stroke-width="1.5" stroke-linecap="round" stroke-linejoin="round"/>
  <path d="M27.5381 39.161C27.5381 39.161 29.2796 38.1336 30.1371 37.6589C31.293 37.0171 33.0384 36.8044 34.3807 37.6589C35.1773 38.1659 35.5784 38.4337 35.7724 38.5666C35.8579 38.6255 35.8617 38.7489 35.78 38.8135C35.318 39.1743 33.9605 40.1883 33.0384 40.3687C31.9128 40.589 29.8766 40.5453 28.7074 39.8522" stroke="#C7E7DC" stroke-width="1.5" stroke-linecap="round" stroke-linejoin="round"/>
  <path d="M29.6892 37.9344C29.6322 38.1091 29.6664 38.0275 29.6664 38.2212C29.6664 39.2238 30.4802 40.0384 31.4859 40.0384C32.4917 40.0384 33.3054 39.2257 33.3054 38.2212C33.3054 37.7863 33.2294 37.4901 32.9746 37.1768" stroke="#C7E7DC" stroke-width="1.5" stroke-linecap="round" stroke-linejoin="round"/>
  <path d="M31.5452 37.3325C31.5205 37.3325 31.4938 37.3344 31.4691 37.3363C31.5167 37.4351 31.5452 37.5433 31.5452 37.6591C31.5452 38.0731 31.2106 38.4073 30.7961 38.4073C30.6972 38.4073 30.6022 38.3864 30.5166 38.3522C30.5166 38.356 30.5166 38.3579 30.5166 38.3617C30.5166 38.9295 30.9767 39.391 31.5471 39.391C32.1174 39.391 32.5775 38.9314 32.5775 38.3617C32.5775 37.7921 32.1174 37.3325 31.5471 37.3325H31.5452Z" fill="#C7E7DC" stroke="#C7E7DC" stroke-width="1.5" stroke-linecap="round" stroke-linejoin="round"/>
  <path d="M27.5381 38.1719C27.5381 38.1719 30.5135 36.2407 32.4281 36.2407C34.3426 36.2407 36.2914 37.8548 36.2914 37.8548" stroke="#C7E7DC" stroke-width="1.5" stroke-linecap="round" stroke-linejoin="round"/>
  <path d="M18.6642 39.1539C18.6642 39.1539 16.9226 38.1266 16.0652 37.6518C14.9092 37.01 13.1639 36.7973 11.8216 37.6518C11.025 38.1588 10.6238 38.4266 10.4299 38.5595C10.3443 38.6184 10.3405 38.7418 10.4223 38.8064C10.8843 39.1672 12.2418 40.1812 13.1639 40.3616C14.2894 40.5819 16.3256 40.5382 17.4949 39.8451" stroke="#C7E7DC" stroke-width="1.5" stroke-linecap="round" stroke-linejoin="round"/>
  <path d="M16.5126 37.9271C16.5697 38.1018 16.5355 38.0202 16.5355 38.2138C16.5355 39.2165 15.7217 40.0311 14.716 40.0311C13.7102 40.0311 12.8965 39.2184 12.8965 38.2138C12.8965 37.779 12.9725 37.4828 13.2273 37.1694" stroke="#C7E7DC" stroke-width="1.5" stroke-linecap="round" stroke-linejoin="round"/>
  <path d="M14.6574 37.3247C14.6821 37.3247 14.7087 37.3266 14.7334 37.3285C14.6859 37.4272 14.6574 37.5355 14.6574 37.6513C14.6574 38.0653 14.992 38.3995 15.4065 38.3995C15.5053 38.3995 15.6004 38.3786 15.6859 38.3444C15.6859 38.3482 15.6859 38.3501 15.6859 38.3539C15.6859 38.9217 15.2258 39.3831 14.6555 39.3831C14.0851 39.3831 13.625 38.9236 13.625 38.3539C13.625 37.7842 14.0851 37.3247 14.6555 37.3247H14.6574Z" fill="#C7E7DC" stroke="#C7E7DC" stroke-width="1.5" stroke-linecap="round" stroke-linejoin="round"/>
  <path d="M18.6635 38.1661C18.6635 38.1661 15.688 36.2349 13.7735 36.2349C11.8589 36.2349 9.91016 37.849 9.91016 37.849" stroke="#C7E7DC" stroke-width="1.5" stroke-linecap="round" stroke-linejoin="round"/>
  <path d="M42.3566 39.3665L38.4191 55.6745C38.1377 56.8423 37.6396 57.9513 36.9399 58.9273C35.9247 60.3439 34.2059 62.3948 31.7381 64.2006C27.447 67.3415 22.673 72.2426 14.7676 64.8083C7.43074 57.9076 8.37756 58.3519 7.76916 56.3638C7.16077 54.3756 3.71191 39.3665 3.71191 39.3665" stroke="#C7E7DC" stroke-width="1.5" stroke-linecap="round" stroke-linejoin="round"/>
  <path d="M44.2497 37.002C44.2497 37.002 45.687 37.8432 44.7802 41.1283C43.8733 44.4135 42.7363 44.5635 42.5481 45.7731C42.3599 46.9827 41.7001 48.8418 39.873 49.4988" stroke="#C7E7DC" stroke-width="1.5" stroke-linecap="round" stroke-linejoin="round"/>
  <path d="M44.0217 40.1488C44.0217 40.1488 42.2611 39.5924 41.4873 42.7978" stroke="#C7E7DC" stroke-width="1.5" stroke-linecap="round" stroke-linejoin="round"/>
  <path d="M41.8891 43.0503C41.8891 43.0503 43.0659 44.0036 40.6152 46.4152" stroke="#C7E7DC" stroke-width="1.5" stroke-linecap="round" stroke-linejoin="round"/>
  <path d="M1.75052 37.002C1.75052 37.002 0.313185 37.8432 1.22008 41.1283C2.12887 44.4116 3.26391 44.5635 3.45214 45.7731C3.64036 46.9827 4.30009 48.8418 6.12718 49.4988" stroke="#C7E7DC" stroke-width="1.5" stroke-linecap="round" stroke-linejoin="round"/>
  <path d="M1.97754 40.1488C1.97754 40.1488 3.73809 39.5924 4.51189 42.7978" stroke="#C7E7DC" stroke-width="1.5" stroke-linecap="round" stroke-linejoin="round"/>
  <path d="M4.10961 43.0503C4.10961 43.0503 2.93274 44.0036 5.38344 46.4152" stroke="#C7E7DC" stroke-width="1.5" stroke-linecap="round" stroke-linejoin="round"/>
  <path d="M42.2655 30.1908C42.6305 25.5953 42.3339 20.6961 39.9345 16.8413C38.2767 14.179 35.7271 12.2288 32.9589 10.9603C30.1907 9.69182 27.3274 8.71387 24.2075 8.71387H21.618C18.6615 8.71387 15.6367 9.69182 12.8666 10.9603C10.0964 12.2288 7.54878 14.179 5.89089 16.8413C3.49343 20.6942 3.19493 25.5953 3.55997 30.1908" stroke="#C7E7DC" stroke-width="1.5" stroke-linecap="round" stroke-linejoin="round"/>
  <path d="M5.41992 17.5L25.8008 14.5884C28.049 14.2673 30.1132 15.88 30.3455 18.1391L30.5665 20.2876C30.7695 22.2617 29.4944 24.0862 27.5708 24.574L16.9199 27.2754L9.41992 29.9766L5.71184 31.4336C4.5794 31.8786 3.69992 32.8122 3.41127 33.9942C3.15231 35.0546 2.91992 36.2345 2.91992 37" stroke="#C7E7DC"/>
  <path d="M21.9199 26C27.5041 26 34.1265 26.7128 40.0605 28.6545C41.4474 29.1084 42.4055 30.3543 42.5549 31.8059C42.8364 34.5405 43.083 37.9575 42.7832 39" stroke="#C7E7DC"/>
  <path d="M27.9199 15C31.4548 15 39.8036 15.8139 40.9199 18.2139" stroke="#C7E7DC"/>
  <path d="M8.41992 17.2139C9.25326 15.5472 11.7199 11.8139 14.9199 10.2139" stroke="#C7E7DC"/>
  <path d="M38.4199 16.2139C37.3943 14.7853 33.8584 11.0853 29.9199 9.71387" stroke="#C7E7DC"/>
  <path d="M9.91992 16.7139C10.7533 15.0472 13.2199 11.3139 16.4199 9.71387" stroke="#C7E7DC"/>
  <path d="M35.9199 15.7139C34.8943 14.2853 31.8584 11.0853 27.9199 9.71387" stroke="#C7E7DC"/>
  <path d="M10.9199 16.7139C11.7533 15.0472 14.2199 11.3139 17.4199 9.71387" stroke="#C7E7DC"/>
  <path d="M34.9199 15.7139C33.8943 14.2853 30.8584 11.0853 26.9199 9.71387" stroke="#C7E7DC"/>
  <path d="M12.9199 16.7139C13.6892 14.8091 15.9661 10.5424 18.9199 8.71387" stroke="#C7E7DC"/>
  <path d="M32.9199 15.2139C32.0225 13.5472 28.3661 10.3139 24.9199 8.71387" stroke="#C7E7DC"/>
  <path d="M14.4199 16.2139C15.0609 14.3091 17.4584 10.5424 19.9199 8.71387" stroke="#C7E7DC"/>
  <path d="M30.9199 15.2139C30.1041 13.6901 27.0528 10.1767 23.9199 8.71387" stroke="#C7E7DC"/>
  <path d="M15.9199 16.2139C16.5609 14.3091 18.9584 10.5424 21.4199 8.71387" stroke="#C7E7DC"/>
  <path d="M20.0393 15.822C19.7934 14.2315 20.0089 10.7654 20.9196 8.71402" stroke="#C7E7DC"/>
  <path d="M25.4042 14.1857C24.9818 12.7861 23.455 10.0332 21.9198 8.71389" stroke="#C7E7DC"/>
  <path d="M26.4042 14.2579C25.9818 12.8583 24.455 10.1055 22.9198 8.78615" stroke="#C7E7DC"/>
  <path d="M21.854 14.76C22.1656 13.3316 22.1703 10.1838 21.4706 8.28434" stroke="#C7E7DC"/>
  <path d="M22.896 15.1897C23.2075 13.7613 23.2123 10.6135 22.5126 8.71402" stroke="#C7E7DC"/>
  <path d="M23.896 15.1897C24.2075 13.7613 24.2123 10.6135 23.5126 8.71402" stroke="#C7E7DC"/>
  <path d="M21.4554 14.8197C21.2095 13.2292 20.5092 10.7653 21.4199 8.71387" stroke="#C7E7DC"/>
  <path d="M17.9296 15.5347C18.3868 13.9916 18.8064 11.4647 20.5063 9.99909" stroke="#C7E7DC"/>
  <path d="M28.9199 14.7139C28.2206 13.3073 25.6052 10.0642 22.9199 8.71387" stroke="#C7E7DC"/>
  <path d="M22.1246 1.66316C15.6434 1.52283 13.9753 5.47298 13.9213 7.89284C13.9142 8.21146 13.9956 8.5235 14.1195 8.81712C14.599 9.95334 15.7436 10.663 16.9746 10.5873L28.3173 9.89004C30.041 9.78408 31.5779 8.53485 31.2271 6.84392C30.5278 3.47343 27.5001 0.110492 23.4199 1.21366C22.9287 1.34647 22.4995 1.4972 22.1246 1.66316Z" fill="#C7E7DC"/>
  <path d="M27.6495 8.37369C29.0041 6.29086 29.8844 2.03593 22.5688 1.67887C15.7192 1.34456 13.9765 5.41861 13.9213 7.89284C13.9142 8.21146 13.9956 8.5235 14.1195 8.81712V8.81712C14.599 9.95334 15.7436 10.663 16.9746 10.5873L28.3173 9.89004C30.041 9.78408 31.5779 8.53485 31.2271 6.84392C30.5278 3.47343 27.5001 0.110492 23.4199 1.21366C18.137 2.64203 20.0293 6.14208 19.5211 8.37369" stroke="#C7E7DC"/>
</svg>