<svg width="98" height="98" viewBox="0 0 500 500" fill="none" xmlns="http://www.w3.org/2000/svg">
                    <g clip-path="url(#clip0_8591_2306)">
                      <path
                        d="M320.773 480.791C372.562 480.791 414.546 438.807 414.546 387.018C414.546 335.229 372.562 293.245 320.773 293.245C268.984 293.245 227 335.229 227 387.018C227 438.807 268.984 480.791 320.773 480.791Z"
                        fill="white" stroke="#C7E7DC" stroke-width="10" stroke-miterlimit="2.61313"
                        stroke-linecap="round" stroke-linejoin="round"></path>
                      <path d="M324.538 317.708V387.018H392.052" stroke="#C7E7DC" stroke-width="10"
                        stroke-miterlimit="2.61313" stroke-linecap="round" stroke-linejoin="round"></path>
                      <path
                        d="M242.856 433.04C195.935 438.223 119.231 434.423 115.845 421.708V204.171C115.845 204.171 115.154 192.631 132.084 188.07L146.043 186.895H197.179H248.315L262.274 188.07C279.274 192.631 278.514 204.171 278.514 204.171V305.338"
                        stroke="#C7E7DC" stroke-width="10" stroke-miterlimit="2.61313"></path>
                      <path
                        d="M227.452 279.217V273.344H232.565L232.634 273.275C231.943 272.929 231.252 272.514 230.561 272.031C229.87 271.547 229.248 270.994 228.696 270.372C228.143 269.75 227.659 268.99 227.314 268.161C226.968 267.332 226.761 266.433 226.761 265.397C226.761 263.324 227.521 261.734 228.972 260.629C230.423 259.523 232.358 259.039 234.777 259.039H250.809V265.189H235.122C233.74 265.189 232.635 265.535 231.874 266.157C231.114 266.779 230.7 267.746 230.7 268.921C230.7 269.958 230.976 270.787 231.529 271.478C232.082 272.169 232.704 272.722 233.533 273.136H250.809V279.287H227.521L227.452 279.217ZM251.085 321.025V320.057H251.431V322.476H251.085V321.509H248.528V321.094H251.085V321.025ZM248.528 325.586H250.67L248.943 324.549V324.342L250.67 323.305H248.597V322.891H251.5V323.236L249.427 324.48L251.5 325.655V326H248.597V325.586H248.528ZM250.947 295.318C250.532 294.558 250.048 293.798 249.496 293.176C248.943 292.485 248.321 291.863 247.63 291.31C247.008 290.758 246.455 290.274 245.971 289.859H250.74V283.709H237.403H227.452V289.928H244.935C245.488 290.412 245.902 290.827 246.248 291.31C246.524 291.794 246.732 292.209 246.732 292.623C246.732 292.9 246.662 293.245 246.593 293.66C246.455 294.075 246.317 294.489 246.179 294.973C245.971 295.388 245.764 295.802 245.557 296.217C245.28 296.631 245.004 296.977 244.728 297.184V297.668H251.638C251.638 296.77 251.5 296.148 251.085 295.388L250.947 295.318ZM222.822 255.861C222.822 253.373 222.615 251.023 222.2 248.95C221.785 246.808 221.163 245.011 220.265 243.491C219.367 241.971 218.261 240.727 216.879 239.829C215.497 238.93 213.908 238.516 211.973 238.516V237.479C212.249 237.479 212.387 237.479 212.387 237.479C214.668 237.548 216.879 238.032 218.952 238.861C221.163 239.829 223.167 241.142 224.826 242.8C226.553 244.459 227.866 246.393 228.903 248.605C229.939 250.816 230.423 253.235 230.423 255.861H222.753H222.822ZM227.728 237.341C227.728 239.276 228.143 240.865 229.041 242.247C229.939 243.629 231.114 244.735 232.704 245.633C234.224 246.532 236.09 247.154 238.232 247.568C240.374 247.983 242.654 248.19 245.211 248.19C247.699 248.19 250.048 247.983 252.191 247.568C254.333 247.154 256.13 246.532 257.719 245.633C259.239 244.735 260.483 243.629 261.381 242.247C262.28 240.865 262.694 239.276 262.694 237.341C262.694 235.406 262.28 233.817 261.381 232.435C260.483 231.053 259.239 229.947 257.719 229.049C256.13 228.15 254.333 227.528 252.191 227.114C250.048 226.699 247.768 226.492 245.28 226.492C242.793 226.492 240.512 226.699 238.37 227.114C236.228 227.528 234.431 228.15 232.842 229.049C231.322 229.947 230.078 231.053 229.179 232.435C228.281 233.817 227.866 235.406 227.866 237.341H227.728ZM226.761 235.959C226.899 234.024 227.383 232.089 228.143 230.362C229.11 228.15 230.423 226.146 232.082 224.488C233.74 222.829 235.675 221.447 237.886 220.411C240.098 219.374 242.516 218.89 245.142 218.89C247.699 218.89 250.118 219.374 252.398 220.411C254.609 221.447 256.613 222.76 258.272 224.488C259.93 226.146 261.243 228.15 262.211 230.362C263.178 232.573 263.662 234.922 263.662 237.341C263.662 239.76 263.178 242.109 262.211 244.32C261.243 246.532 259.93 248.536 258.272 250.194C256.613 251.922 254.609 253.235 252.398 254.271C250.187 255.308 247.768 255.791 245.142 255.791C242.585 255.791 240.167 255.308 237.886 254.271C235.675 253.235 233.671 251.922 232.082 250.194C230.423 248.467 229.11 246.532 228.143 244.32C227.244 242.247 226.83 240.036 226.761 237.756C226.761 237.756 226.761 236.581 226.83 235.89L226.761 235.959ZM242.516 304.302C243.622 304.371 244.658 304.509 245.626 304.786C246.593 304.993 247.423 305.338 248.183 305.753C248.943 306.168 249.496 306.651 249.91 307.273C250.325 307.895 250.532 308.586 250.532 309.346C250.532 310.59 249.979 311.558 248.943 312.249C247.906 312.94 245.419 313.216 243.069 313.216H241.549L237.541 304.786C238.716 304.44 239.959 304.302 241.549 304.302H242.516ZM234.224 319.021C233.464 318.399 232.773 317.501 232.22 316.464C231.667 315.358 231.391 314.045 231.391 312.525C231.391 311.35 231.598 310.245 231.943 309.208C232.289 308.172 232.911 307.342 233.74 306.582C234.5 305.891 235.468 305.408 236.642 304.993L243.069 319.09C243.069 319.09 245.419 319.021 248.321 316.879C249.357 316.119 249.979 314.944 250.601 313.769C251.223 312.525 251.5 311.143 251.5 309.623C251.5 308.172 251.223 306.72 250.601 305.338C249.979 303.956 249.15 302.713 247.975 301.676C246.87 300.639 245.488 299.741 243.967 299.119C242.378 298.497 240.65 298.152 238.716 298.152C237.057 298.152 235.468 298.428 234.017 298.981C232.565 299.534 231.322 300.294 230.216 301.261C229.11 302.229 228.281 303.404 227.659 304.786C227.037 306.168 226.761 307.688 226.761 309.416C226.761 312.041 227.452 314.253 228.834 315.911C230.216 317.57 232.013 318.744 234.155 319.435L234.293 319.159L234.224 319.021Z"
                        fill="#C7E7DC" stroke="#C7E7DC"></path>
                      <mask id="path-5-outside-1_8591_2306" maskUnits="userSpaceOnUse" x="185" y="254.377" width="22"
                        height="138" fill="black">
                        <rect fill="white" x="185" y="254.377" width="22" height="138"></rect>
                        <path fill-rule="evenodd" clip-rule="evenodd"
                          d="M187.553 255.585H187.622C187.967 255.861 188.313 256.068 188.589 256.276C188.866 256.414 189.142 256.552 189.419 256.69C189.695 256.759 190.041 256.829 190.317 256.898C190.662 256.967 191.008 256.967 191.492 256.967H201.995C202.341 256.967 202.617 256.898 202.825 256.829C203.101 256.759 203.308 256.69 203.516 256.552C203.723 256.414 203.93 256.276 204.138 256.068C204.345 255.861 204.552 255.654 204.76 255.377H204.829V258.764L190.593 265.19L204.829 271.478V274.657H204.76C204.552 274.312 204.276 274.104 204.068 273.897C203.861 273.69 203.585 273.552 203.377 273.413C203.101 273.275 202.825 273.206 202.548 273.137C202.203 273.068 201.857 273.068 201.443 273.068H191.215C190.801 273.068 190.455 273.068 190.179 273.137C189.902 273.137 189.626 273.206 189.35 273.275C189.073 273.344 188.866 273.413 188.589 273.552C188.313 273.69 188.037 273.828 187.76 274.035H187.691V270.235H187.76C188.037 270.442 188.313 270.58 188.589 270.718C188.866 270.857 189.073 270.926 189.35 270.995C189.626 271.064 189.902 271.133 190.179 271.133C190.455 271.133 190.87 271.202 191.215 271.202H202.963L188.106 264.637V264.223L203.032 257.451L191.492 257.52C191.077 257.52 190.662 257.52 190.317 257.589C189.971 257.658 189.695 257.727 189.419 257.865C189.142 258.003 188.866 258.142 188.589 258.349C188.313 258.556 187.967 258.833 187.622 259.178H187.553V255.585ZM203.032 278.665C202.686 278.665 202.41 278.527 202.203 278.32C201.995 278.112 201.857 277.836 201.857 277.49C201.857 277.145 201.995 276.938 202.203 276.661C202.41 276.454 202.686 276.316 203.032 276.316C203.377 276.316 203.585 276.454 203.861 276.661C204.068 276.869 204.207 277.145 204.207 277.49C204.207 277.836 204.068 278.043 203.861 278.32C203.654 278.527 203.377 278.665 203.032 278.665ZM187.622 276.247C188.106 276.454 188.658 276.592 189.211 276.661C189.764 276.73 190.386 276.799 191.215 276.799H195.569C196.122 276.799 196.605 276.661 197.02 276.454C197.365 276.247 197.711 275.97 197.918 275.763H197.987L199.231 278.527H191.215C190.386 278.527 189.695 278.527 189.211 278.596C188.658 278.665 188.175 278.803 187.622 279.011H187.553V276.247H187.622ZM190.179 290.344C189.28 289.998 188.589 289.514 188.037 288.754C187.484 287.994 187.207 287.096 187.207 285.921C187.207 285.161 187.346 284.47 187.622 283.848C187.898 283.226 188.244 282.673 188.728 282.189C189.211 281.706 189.833 281.36 190.524 281.153C191.215 280.877 192.045 280.807 192.874 280.807C193.841 280.807 194.67 280.946 195.431 281.291C196.191 281.637 196.813 282.051 197.365 282.604C197.918 283.157 198.333 283.779 198.609 284.47C198.886 285.161 199.024 285.921 199.024 286.681C199.024 287.441 198.955 288.132 198.748 288.616C198.609 289.1 198.402 289.514 198.333 289.791L195.914 289.998L195.845 289.791C196.191 289.583 196.536 289.307 196.882 289.1C197.227 288.823 197.504 288.547 197.711 288.271C197.918 287.994 198.126 287.649 198.264 287.303C198.402 286.958 198.471 286.612 198.471 286.267C198.471 285.092 198.056 284.193 197.158 283.502C196.26 282.811 195.085 282.466 193.496 282.466C191.975 282.466 190.801 282.811 189.902 283.502C189.004 284.193 188.589 285.23 188.589 286.543C188.589 287.234 188.728 287.856 188.935 288.478C189.142 289.1 189.557 289.653 190.11 290.067L190.041 290.205L190.179 290.344ZM187.622 292.486C187.898 292.624 188.106 292.693 188.382 292.762C188.658 292.831 188.866 292.9 189.211 292.9C189.488 292.9 189.764 292.97 190.11 292.97C190.455 292.97 190.801 292.97 191.215 292.97H195.638C196.26 292.97 196.744 292.831 197.089 292.624C197.435 292.417 197.78 292.14 197.987 291.933H198.057L199.3 294.559H196.467V294.697C196.744 294.974 197.02 295.181 197.365 295.457C197.711 295.734 197.987 296.01 198.264 296.356C198.54 296.632 198.748 296.978 198.955 297.323C199.162 297.669 199.231 298.014 199.231 298.429H196.882V298.36C196.951 298.291 197.02 298.152 197.089 298.014C197.158 297.876 197.227 297.669 197.227 297.53C197.296 297.323 197.296 297.185 197.365 296.978C197.365 296.839 197.435 296.632 197.435 296.494C197.435 296.287 197.296 296.01 197.02 295.665C196.744 295.319 196.398 294.974 195.983 294.697H191.353C190.524 294.697 189.833 294.697 189.35 294.766C188.797 294.835 188.313 294.974 187.76 295.181H187.691V292.417H187.76L187.622 292.486ZM187.207 305.408C187.207 304.579 187.346 303.819 187.691 303.128C188.037 302.437 188.451 301.815 189.004 301.262C189.557 300.709 190.179 300.294 190.87 300.018C191.561 299.673 192.321 299.534 193.15 299.534C193.979 299.534 194.74 299.673 195.431 300.018C196.122 300.364 196.813 300.778 197.296 301.331C197.849 301.884 198.264 302.506 198.609 303.197C198.955 303.888 199.093 304.648 199.093 305.477C199.093 306.306 198.955 307.067 198.609 307.758C198.264 308.449 197.849 309.071 197.296 309.623C196.744 310.176 196.122 310.591 195.431 310.867C194.74 311.213 193.91 311.351 193.15 311.351C192.321 311.351 191.561 311.213 190.87 310.867C190.179 310.522 189.557 310.107 189.004 309.623C188.451 309.071 188.037 308.449 187.691 307.758C187.346 307.067 187.207 306.306 187.207 305.477V305.408ZM187.622 305.408C187.622 306.099 187.76 306.652 188.037 307.136C188.313 307.619 188.728 308.034 189.211 308.38C189.695 308.725 190.317 308.932 190.939 309.14C191.63 309.278 192.321 309.347 193.012 309.347C193.772 309.347 194.463 309.278 195.085 309.071C195.776 308.932 196.329 308.656 196.813 308.31C197.296 307.965 197.711 307.55 198.057 307.067C198.333 306.583 198.471 306.03 198.471 305.339C198.471 304.648 198.333 304.095 198.057 303.611C197.78 303.128 197.365 302.713 196.813 302.368C196.329 302.022 195.707 301.815 195.085 301.607C194.394 301.469 193.703 301.331 193.012 301.331C192.252 301.331 191.561 301.4 190.939 301.538C190.248 301.677 189.695 301.953 189.211 302.298C188.728 302.644 188.313 303.059 188.037 303.542C187.76 304.026 187.622 304.579 187.622 305.27V305.408ZM187.553 316.948C187.829 317.156 188.106 317.294 188.382 317.432C188.658 317.57 188.866 317.639 189.142 317.708C189.419 317.778 189.695 317.847 189.971 317.847C190.248 317.847 190.593 317.916 191.008 317.916H201.166C201.581 317.916 201.926 317.916 202.203 317.847C202.479 317.847 202.756 317.778 203.032 317.708C203.308 317.639 203.516 317.57 203.792 317.432C204.068 317.294 204.345 317.156 204.621 316.948H204.69V320.749H204.621C204.345 320.542 204.068 320.404 203.792 320.265C203.516 320.127 203.308 320.058 203.032 319.989C202.756 319.92 202.479 319.851 202.203 319.851C201.926 319.851 201.581 319.782 201.166 319.782H191.008C190.593 319.782 190.248 319.782 189.971 319.851C189.695 319.851 189.419 319.92 189.142 319.989C188.866 320.058 188.658 320.127 188.382 320.265C188.106 320.404 187.829 320.542 187.553 320.749H187.484V316.948H187.553ZM187.484 325.655V322.891H187.553C187.829 323.029 188.037 323.099 188.313 323.168C188.589 323.237 188.797 323.306 189.142 323.306C189.419 323.306 189.695 323.375 190.041 323.375C190.386 323.375 190.732 323.375 191.146 323.375H195.569C196.191 323.375 196.674 323.237 197.02 323.029C197.365 322.822 197.711 322.546 197.918 322.338H197.987L199.231 324.964H197.02V325.033C197.711 325.586 198.195 326.208 198.54 326.899C198.886 327.59 199.093 328.281 199.093 329.111C199.093 330.216 198.817 331.045 198.195 331.598C197.573 332.151 196.744 332.427 195.707 332.427H191.215C190.801 332.427 190.386 332.427 190.11 332.427C189.764 332.427 189.488 332.427 189.211 332.497C188.935 332.497 188.658 332.566 188.382 332.635C188.106 332.704 187.898 332.773 187.622 332.911H187.553V330.147H187.622C188.106 330.354 188.658 330.493 189.211 330.562C189.764 330.631 190.386 330.631 191.215 330.631H195.292C195.638 330.631 195.983 330.562 196.329 330.493C196.674 330.423 196.951 330.285 197.158 330.078C197.435 329.871 197.573 329.663 197.711 329.318C197.849 328.972 197.918 328.627 197.918 328.212C197.918 327.659 197.78 327.107 197.573 326.554C197.365 326.001 197.02 325.448 196.536 325.033H191.146C190.317 325.033 189.626 325.033 189.142 325.103C188.589 325.172 188.106 325.31 187.553 325.517H187.484V325.655ZM187.553 335.537C187.898 335.744 188.244 335.883 188.728 335.952C189.211 336.021 189.902 336.09 190.801 336.09H198.264V334.639H198.678V336.09H200.682C201.512 336.09 202.203 336.159 202.825 336.366C203.447 336.574 203.999 336.85 204.414 337.196C204.829 337.541 205.174 337.956 205.451 338.439C205.658 338.923 205.796 339.476 205.796 340.029C205.796 340.374 205.727 340.72 205.658 340.996C205.589 341.273 205.52 341.48 205.451 341.618L203.308 341.895L203.239 341.756C203.516 341.618 203.723 341.411 203.999 341.204C204.276 340.996 204.483 340.858 204.69 340.651C204.898 340.443 205.036 340.236 205.174 340.098C205.312 339.891 205.381 339.683 205.381 339.476C205.381 338.992 205.105 338.578 204.483 338.232C203.861 337.887 202.963 337.748 201.719 337.748H198.678V340.513H198.264V337.748H190.801C189.902 337.748 189.211 337.817 188.728 337.887C188.244 337.956 187.898 338.094 187.553 338.301H187.484V335.468H187.553V335.537ZM189.626 349.289C189.28 349.081 189.004 348.805 188.728 348.598C188.451 348.321 188.175 348.045 187.898 347.768C187.691 347.492 187.484 347.146 187.346 346.732C187.207 346.317 187.138 345.903 187.138 345.419C187.138 344.382 187.484 343.622 188.106 343.138C188.728 342.655 189.626 342.378 190.732 342.378H196.605C197.089 342.378 197.504 342.309 197.78 342.102C198.126 341.895 198.333 341.687 198.54 341.411H198.609V344.106H191.077C189.35 344.106 188.451 344.866 188.451 346.386C188.451 347.077 188.589 347.63 188.866 348.114C189.142 348.598 189.488 348.943 189.902 349.22H196.536C197.435 349.22 198.057 348.874 198.54 348.183H198.609V350.947H190.662C190.179 350.947 189.764 350.947 189.488 351.016C189.211 351.085 188.935 351.085 188.728 351.224C188.52 351.293 188.382 351.431 188.244 351.569C188.106 351.707 188.037 351.845 187.898 352.053H187.829L187.069 349.427H189.488L189.626 349.289ZM196.26 360.276L196.191 360.138C197.089 359.654 197.711 359.101 198.057 358.548C198.402 357.996 198.54 357.443 198.54 356.89C198.54 356.199 198.333 355.646 197.987 355.232C197.642 354.817 197.158 354.61 196.605 354.61C196.26 354.61 195.914 354.679 195.707 354.886C195.431 355.024 195.223 355.301 195.085 355.577C194.878 355.853 194.74 356.199 194.532 356.544C194.394 356.89 194.256 357.305 194.049 357.719C193.91 358.134 193.703 358.548 193.496 358.963C193.288 359.378 193.081 359.723 192.805 360C192.528 360.345 192.183 360.552 191.768 360.76C191.354 360.967 190.87 361.036 190.317 361.036C189.211 361.036 188.451 360.622 187.829 359.861C187.276 359.101 187 358.065 187 356.752C187 356.061 187.069 355.439 187.207 354.886C187.346 354.333 187.484 353.849 187.691 353.435L190.386 353.228L190.455 353.366C189.419 353.849 188.658 354.402 188.244 354.955C187.76 355.508 187.553 356.199 187.553 357.028C187.553 357.857 187.76 358.548 188.244 358.963C188.728 359.378 189.211 359.585 189.764 359.585C190.11 359.585 190.386 359.516 190.662 359.378C190.939 359.239 191.146 359.032 191.353 358.825C191.561 358.548 191.768 358.272 191.906 357.927C192.045 357.581 192.183 357.235 192.39 356.821C192.528 356.406 192.736 356.061 192.874 355.646C193.081 355.232 193.288 354.886 193.565 354.54C193.841 354.195 194.187 353.919 194.532 353.711C194.947 353.504 195.361 353.366 195.914 353.366C196.467 353.366 196.951 353.504 197.365 353.711C197.78 353.919 198.056 354.264 198.333 354.61C198.609 354.955 198.748 355.439 198.817 355.853C198.886 356.337 198.955 356.821 198.955 357.305C198.955 357.788 198.886 358.341 198.817 358.825C198.748 359.309 198.609 359.723 198.471 360.069L196.191 360.276H196.26ZM202.963 365.044C202.617 365.044 202.341 364.906 202.134 364.699C201.926 364.491 201.788 364.215 201.788 363.869C201.788 363.524 201.926 363.317 202.134 363.04C202.341 362.833 202.617 362.695 202.963 362.695C203.308 362.695 203.516 362.833 203.792 363.04C203.999 363.247 204.138 363.524 204.138 363.869C204.138 364.215 203.999 364.422 203.792 364.699C203.585 364.906 203.308 365.044 202.963 365.044ZM187.553 362.626C188.037 362.833 188.589 362.971 189.142 363.04C189.695 363.109 190.317 363.178 191.146 363.178H195.5C196.053 363.178 196.536 363.04 196.951 362.833C197.296 362.626 197.642 362.349 197.849 362.142H197.918L199.162 364.906H191.146C190.317 364.906 189.626 364.906 189.142 364.975C188.589 365.044 188.106 365.182 187.553 365.39H187.484V362.626H187.553ZM187.138 372.991C187.138 372.162 187.276 371.402 187.622 370.711C187.967 370.02 188.382 369.398 188.935 368.845C189.488 368.292 190.11 367.877 190.801 367.601C191.492 367.255 192.252 367.117 193.081 367.117C193.91 367.117 194.67 367.255 195.361 367.601C196.053 367.946 196.744 368.361 197.227 368.914C197.78 369.467 198.195 370.089 198.54 370.78C198.886 371.471 199.024 372.231 199.024 373.06C199.024 373.889 198.886 374.649 198.54 375.341C198.195 376.032 197.78 376.653 197.227 377.206C196.674 377.759 196.053 378.174 195.361 378.45C194.67 378.796 193.841 378.934 193.081 378.934C192.252 378.934 191.492 378.796 190.801 378.45C190.11 378.105 189.488 377.69 188.935 377.206C188.382 376.653 187.967 376.032 187.622 375.341C187.276 374.649 187.138 373.889 187.138 373.06V372.991ZM187.553 372.991C187.553 373.682 187.691 374.235 187.967 374.719C188.244 375.202 188.658 375.617 189.142 375.962C189.626 376.308 190.248 376.515 190.87 376.723C191.561 376.861 192.252 376.93 192.943 376.93C193.703 376.93 194.394 376.861 195.016 376.653C195.707 376.515 196.26 376.239 196.744 375.893C197.227 375.548 197.642 375.133 197.987 374.65C198.264 374.166 198.402 373.613 198.402 372.922C198.402 372.231 198.264 371.678 197.987 371.194C197.711 370.711 197.296 370.296 196.744 369.95C196.26 369.605 195.638 369.398 195.016 369.19C194.325 369.052 193.634 368.914 192.943 368.914C192.183 368.914 191.492 368.983 190.87 369.121C190.179 369.259 189.626 369.536 189.142 369.881C188.658 370.227 188.244 370.642 187.967 371.125C187.691 371.609 187.553 372.162 187.553 372.853V372.991ZM187.484 383.564V380.8H187.553C187.829 380.938 188.037 381.007 188.313 381.076C188.589 381.145 188.797 381.214 189.142 381.214C189.419 381.214 189.695 381.283 190.041 381.283C190.386 381.283 190.732 381.283 191.146 381.283H195.569C196.191 381.283 196.674 381.145 197.02 380.938C197.365 380.731 197.711 380.454 197.918 380.247H197.987L199.231 382.873H197.02V382.942C197.711 383.495 198.195 384.117 198.54 384.808C198.886 385.499 199.093 386.19 199.093 387.019C199.093 388.125 198.817 388.954 198.195 389.507C197.573 390.059 196.744 390.336 195.707 390.336H191.215C190.801 390.336 190.386 390.336 190.11 390.336C189.764 390.336 189.488 390.336 189.211 390.405C188.935 390.405 188.658 390.474 188.382 390.543C188.106 390.612 187.898 390.681 187.622 390.82H187.553V388.056H187.622C188.106 388.263 188.658 388.401 189.211 388.47C189.764 388.539 190.386 388.539 191.215 388.539H195.292C195.638 388.539 195.983 388.47 196.329 388.401C196.674 388.332 196.951 388.194 197.158 387.986C197.435 387.779 197.573 387.572 197.711 387.226C197.849 386.881 197.918 386.535 197.918 386.121C197.918 385.568 197.78 385.015 197.573 384.462C197.365 383.909 197.02 383.356 196.536 382.942H191.146C190.317 382.942 189.626 382.942 189.142 383.011C188.589 383.08 188.106 383.218 187.553 383.426H187.484V383.564Z">
                        </path>
                      </mask>
                      <path fill-rule="evenodd" clip-rule="evenodd"
                        d="M187.553 255.585H187.622C187.967 255.861 188.313 256.068 188.589 256.276C188.866 256.414 189.142 256.552 189.419 256.69C189.695 256.759 190.041 256.829 190.317 256.898C190.662 256.967 191.008 256.967 191.492 256.967H201.995C202.341 256.967 202.617 256.898 202.825 256.829C203.101 256.759 203.308 256.69 203.516 256.552C203.723 256.414 203.93 256.276 204.138 256.068C204.345 255.861 204.552 255.654 204.76 255.377H204.829V258.764L190.593 265.19L204.829 271.478V274.657H204.76C204.552 274.312 204.276 274.104 204.068 273.897C203.861 273.69 203.585 273.552 203.377 273.413C203.101 273.275 202.825 273.206 202.548 273.137C202.203 273.068 201.857 273.068 201.443 273.068H191.215C190.801 273.068 190.455 273.068 190.179 273.137C189.902 273.137 189.626 273.206 189.35 273.275C189.073 273.344 188.866 273.413 188.589 273.552C188.313 273.69 188.037 273.828 187.76 274.035H187.691V270.235H187.76C188.037 270.442 188.313 270.58 188.589 270.718C188.866 270.857 189.073 270.926 189.35 270.995C189.626 271.064 189.902 271.133 190.179 271.133C190.455 271.133 190.87 271.202 191.215 271.202H202.963L188.106 264.637V264.223L203.032 257.451L191.492 257.52C191.077 257.52 190.662 257.52 190.317 257.589C189.971 257.658 189.695 257.727 189.419 257.865C189.142 258.003 188.866 258.142 188.589 258.349C188.313 258.556 187.967 258.833 187.622 259.178H187.553V255.585ZM203.032 278.665C202.686 278.665 202.41 278.527 202.203 278.32C201.995 278.112 201.857 277.836 201.857 277.49C201.857 277.145 201.995 276.938 202.203 276.661C202.41 276.454 202.686 276.316 203.032 276.316C203.377 276.316 203.585 276.454 203.861 276.661C204.068 276.869 204.207 277.145 204.207 277.49C204.207 277.836 204.068 278.043 203.861 278.32C203.654 278.527 203.377 278.665 203.032 278.665ZM187.622 276.247C188.106 276.454 188.658 276.592 189.211 276.661C189.764 276.73 190.386 276.799 191.215 276.799H195.569C196.122 276.799 196.605 276.661 197.02 276.454C197.365 276.247 197.711 275.97 197.918 275.763H197.987L199.231 278.527H191.215C190.386 278.527 189.695 278.527 189.211 278.596C188.658 278.665 188.175 278.803 187.622 279.011H187.553V276.247H187.622ZM190.179 290.344C189.28 289.998 188.589 289.514 188.037 288.754C187.484 287.994 187.207 287.096 187.207 285.921C187.207 285.161 187.346 284.47 187.622 283.848C187.898 283.226 188.244 282.673 188.728 282.189C189.211 281.706 189.833 281.36 190.524 281.153C191.215 280.877 192.045 280.807 192.874 280.807C193.841 280.807 194.67 280.946 195.431 281.291C196.191 281.637 196.813 282.051 197.365 282.604C197.918 283.157 198.333 283.779 198.609 284.47C198.886 285.161 199.024 285.921 199.024 286.681C199.024 287.441 198.955 288.132 198.748 288.616C198.609 289.1 198.402 289.514 198.333 289.791L195.914 289.998L195.845 289.791C196.191 289.583 196.536 289.307 196.882 289.1C197.227 288.823 197.504 288.547 197.711 288.271C197.918 287.994 198.126 287.649 198.264 287.303C198.402 286.958 198.471 286.612 198.471 286.267C198.471 285.092 198.056 284.193 197.158 283.502C196.26 282.811 195.085 282.466 193.496 282.466C191.975 282.466 190.801 282.811 189.902 283.502C189.004 284.193 188.589 285.23 188.589 286.543C188.589 287.234 188.728 287.856 188.935 288.478C189.142 289.1 189.557 289.653 190.11 290.067L190.041 290.205L190.179 290.344ZM187.622 292.486C187.898 292.624 188.106 292.693 188.382 292.762C188.658 292.831 188.866 292.9 189.211 292.9C189.488 292.9 189.764 292.97 190.11 292.97C190.455 292.97 190.801 292.97 191.215 292.97H195.638C196.26 292.97 196.744 292.831 197.089 292.624C197.435 292.417 197.78 292.14 197.987 291.933H198.057L199.3 294.559H196.467V294.697C196.744 294.974 197.02 295.181 197.365 295.457C197.711 295.734 197.987 296.01 198.264 296.356C198.54 296.632 198.748 296.978 198.955 297.323C199.162 297.669 199.231 298.014 199.231 298.429H196.882V298.36C196.951 298.291 197.02 298.152 197.089 298.014C197.158 297.876 197.227 297.669 197.227 297.53C197.296 297.323 197.296 297.185 197.365 296.978C197.365 296.839 197.435 296.632 197.435 296.494C197.435 296.287 197.296 296.01 197.02 295.665C196.744 295.319 196.398 294.974 195.983 294.697H191.353C190.524 294.697 189.833 294.697 189.35 294.766C188.797 294.835 188.313 294.974 187.76 295.181H187.691V292.417H187.76L187.622 292.486ZM187.207 305.408C187.207 304.579 187.346 303.819 187.691 303.128C188.037 302.437 188.451 301.815 189.004 301.262C189.557 300.709 190.179 300.294 190.87 300.018C191.561 299.673 192.321 299.534 193.15 299.534C193.979 299.534 194.74 299.673 195.431 300.018C196.122 300.364 196.813 300.778 197.296 301.331C197.849 301.884 198.264 302.506 198.609 303.197C198.955 303.888 199.093 304.648 199.093 305.477C199.093 306.306 198.955 307.067 198.609 307.758C198.264 308.449 197.849 309.071 197.296 309.623C196.744 310.176 196.122 310.591 195.431 310.867C194.74 311.213 193.91 311.351 193.15 311.351C192.321 311.351 191.561 311.213 190.87 310.867C190.179 310.522 189.557 310.107 189.004 309.623C188.451 309.071 188.037 308.449 187.691 307.758C187.346 307.067 187.207 306.306 187.207 305.477V305.408ZM187.622 305.408C187.622 306.099 187.76 306.652 188.037 307.136C188.313 307.619 188.728 308.034 189.211 308.38C189.695 308.725 190.317 308.932 190.939 309.14C191.63 309.278 192.321 309.347 193.012 309.347C193.772 309.347 194.463 309.278 195.085 309.071C195.776 308.932 196.329 308.656 196.813 308.31C197.296 307.965 197.711 307.55 198.057 307.067C198.333 306.583 198.471 306.03 198.471 305.339C198.471 304.648 198.333 304.095 198.057 303.611C197.78 303.128 197.365 302.713 196.813 302.368C196.329 302.022 195.707 301.815 195.085 301.607C194.394 301.469 193.703 301.331 193.012 301.331C192.252 301.331 191.561 301.4 190.939 301.538C190.248 301.677 189.695 301.953 189.211 302.298C188.728 302.644 188.313 303.059 188.037 303.542C187.76 304.026 187.622 304.579 187.622 305.27V305.408ZM187.553 316.948C187.829 317.156 188.106 317.294 188.382 317.432C188.658 317.57 188.866 317.639 189.142 317.708C189.419 317.778 189.695 317.847 189.971 317.847C190.248 317.847 190.593 317.916 191.008 317.916H201.166C201.581 317.916 201.926 317.916 202.203 317.847C202.479 317.847 202.756 317.778 203.032 317.708C203.308 317.639 203.516 317.57 203.792 317.432C204.068 317.294 204.345 317.156 204.621 316.948H204.69V320.749H204.621C204.345 320.542 204.068 320.404 203.792 320.265C203.516 320.127 203.308 320.058 203.032 319.989C202.756 319.92 202.479 319.851 202.203 319.851C201.926 319.851 201.581 319.782 201.166 319.782H191.008C190.593 319.782 190.248 319.782 189.971 319.851C189.695 319.851 189.419 319.92 189.142 319.989C188.866 320.058 188.658 320.127 188.382 320.265C188.106 320.404 187.829 320.542 187.553 320.749H187.484V316.948H187.553ZM187.484 325.655V322.891H187.553C187.829 323.029 188.037 323.099 188.313 323.168C188.589 323.237 188.797 323.306 189.142 323.306C189.419 323.306 189.695 323.375 190.041 323.375C190.386 323.375 190.732 323.375 191.146 323.375H195.569C196.191 323.375 196.674 323.237 197.02 323.029C197.365 322.822 197.711 322.546 197.918 322.338H197.987L199.231 324.964H197.02V325.033C197.711 325.586 198.195 326.208 198.54 326.899C198.886 327.59 199.093 328.281 199.093 329.111C199.093 330.216 198.817 331.045 198.195 331.598C197.573 332.151 196.744 332.427 195.707 332.427H191.215C190.801 332.427 190.386 332.427 190.11 332.427C189.764 332.427 189.488 332.427 189.211 332.497C188.935 332.497 188.658 332.566 188.382 332.635C188.106 332.704 187.898 332.773 187.622 332.911H187.553V330.147H187.622C188.106 330.354 188.658 330.493 189.211 330.562C189.764 330.631 190.386 330.631 191.215 330.631H195.292C195.638 330.631 195.983 330.562 196.329 330.493C196.674 330.423 196.951 330.285 197.158 330.078C197.435 329.871 197.573 329.663 197.711 329.318C197.849 328.972 197.918 328.627 197.918 328.212C197.918 327.659 197.78 327.107 197.573 326.554C197.365 326.001 197.02 325.448 196.536 325.033H191.146C190.317 325.033 189.626 325.033 189.142 325.103C188.589 325.172 188.106 325.31 187.553 325.517H187.484V325.655ZM187.553 335.537C187.898 335.744 188.244 335.883 188.728 335.952C189.211 336.021 189.902 336.09 190.801 336.09H198.264V334.639H198.678V336.09H200.682C201.512 336.09 202.203 336.159 202.825 336.366C203.447 336.574 203.999 336.85 204.414 337.196C204.829 337.541 205.174 337.956 205.451 338.439C205.658 338.923 205.796 339.476 205.796 340.029C205.796 340.374 205.727 340.72 205.658 340.996C205.589 341.273 205.52 341.48 205.451 341.618L203.308 341.895L203.239 341.756C203.516 341.618 203.723 341.411 203.999 341.204C204.276 340.996 204.483 340.858 204.69 340.651C204.898 340.443 205.036 340.236 205.174 340.098C205.312 339.891 205.381 339.683 205.381 339.476C205.381 338.992 205.105 338.578 204.483 338.232C203.861 337.887 202.963 337.748 201.719 337.748H198.678V340.513H198.264V337.748H190.801C189.902 337.748 189.211 337.817 188.728 337.887C188.244 337.956 187.898 338.094 187.553 338.301H187.484V335.468H187.553V335.537ZM189.626 349.289C189.28 349.081 189.004 348.805 188.728 348.598C188.451 348.321 188.175 348.045 187.898 347.768C187.691 347.492 187.484 347.146 187.346 346.732C187.207 346.317 187.138 345.903 187.138 345.419C187.138 344.382 187.484 343.622 188.106 343.138C188.728 342.655 189.626 342.378 190.732 342.378H196.605C197.089 342.378 197.504 342.309 197.78 342.102C198.126 341.895 198.333 341.687 198.54 341.411H198.609V344.106H191.077C189.35 344.106 188.451 344.866 188.451 346.386C188.451 347.077 188.589 347.63 188.866 348.114C189.142 348.598 189.488 348.943 189.902 349.22H196.536C197.435 349.22 198.057 348.874 198.54 348.183H198.609V350.947H190.662C190.179 350.947 189.764 350.947 189.488 351.016C189.211 351.085 188.935 351.085 188.728 351.224C188.52 351.293 188.382 351.431 188.244 351.569C188.106 351.707 188.037 351.845 187.898 352.053H187.829L187.069 349.427H189.488L189.626 349.289ZM196.26 360.276L196.191 360.138C197.089 359.654 197.711 359.101 198.057 358.548C198.402 357.996 198.54 357.443 198.54 356.89C198.54 356.199 198.333 355.646 197.987 355.232C197.642 354.817 197.158 354.61 196.605 354.61C196.26 354.61 195.914 354.679 195.707 354.886C195.431 355.024 195.223 355.301 195.085 355.577C194.878 355.853 194.74 356.199 194.532 356.544C194.394 356.89 194.256 357.305 194.049 357.719C193.91 358.134 193.703 358.548 193.496 358.963C193.288 359.378 193.081 359.723 192.805 360C192.528 360.345 192.183 360.552 191.768 360.76C191.354 360.967 190.87 361.036 190.317 361.036C189.211 361.036 188.451 360.622 187.829 359.861C187.276 359.101 187 358.065 187 356.752C187 356.061 187.069 355.439 187.207 354.886C187.346 354.333 187.484 353.849 187.691 353.435L190.386 353.228L190.455 353.366C189.419 353.849 188.658 354.402 188.244 354.955C187.76 355.508 187.553 356.199 187.553 357.028C187.553 357.857 187.76 358.548 188.244 358.963C188.728 359.378 189.211 359.585 189.764 359.585C190.11 359.585 190.386 359.516 190.662 359.378C190.939 359.239 191.146 359.032 191.353 358.825C191.561 358.548 191.768 358.272 191.906 357.927C192.045 357.581 192.183 357.235 192.39 356.821C192.528 356.406 192.736 356.061 192.874 355.646C193.081 355.232 193.288 354.886 193.565 354.54C193.841 354.195 194.187 353.919 194.532 353.711C194.947 353.504 195.361 353.366 195.914 353.366C196.467 353.366 196.951 353.504 197.365 353.711C197.78 353.919 198.056 354.264 198.333 354.61C198.609 354.955 198.748 355.439 198.817 355.853C198.886 356.337 198.955 356.821 198.955 357.305C198.955 357.788 198.886 358.341 198.817 358.825C198.748 359.309 198.609 359.723 198.471 360.069L196.191 360.276H196.26ZM202.963 365.044C202.617 365.044 202.341 364.906 202.134 364.699C201.926 364.491 201.788 364.215 201.788 363.869C201.788 363.524 201.926 363.317 202.134 363.04C202.341 362.833 202.617 362.695 202.963 362.695C203.308 362.695 203.516 362.833 203.792 363.04C203.999 363.247 204.138 363.524 204.138 363.869C204.138 364.215 203.999 364.422 203.792 364.699C203.585 364.906 203.308 365.044 202.963 365.044ZM187.553 362.626C188.037 362.833 188.589 362.971 189.142 363.04C189.695 363.109 190.317 363.178 191.146 363.178H195.5C196.053 363.178 196.536 363.04 196.951 362.833C197.296 362.626 197.642 362.349 197.849 362.142H197.918L199.162 364.906H191.146C190.317 364.906 189.626 364.906 189.142 364.975C188.589 365.044 188.106 365.182 187.553 365.39H187.484V362.626H187.553ZM187.138 372.991C187.138 372.162 187.276 371.402 187.622 370.711C187.967 370.02 188.382 369.398 188.935 368.845C189.488 368.292 190.11 367.877 190.801 367.601C191.492 367.255 192.252 367.117 193.081 367.117C193.91 367.117 194.67 367.255 195.361 367.601C196.053 367.946 196.744 368.361 197.227 368.914C197.78 369.467 198.195 370.089 198.54 370.78C198.886 371.471 199.024 372.231 199.024 373.06C199.024 373.889 198.886 374.649 198.54 375.341C198.195 376.032 197.78 376.653 197.227 377.206C196.674 377.759 196.053 378.174 195.361 378.45C194.67 378.796 193.841 378.934 193.081 378.934C192.252 378.934 191.492 378.796 190.801 378.45C190.11 378.105 189.488 377.69 188.935 377.206C188.382 376.653 187.967 376.032 187.622 375.341C187.276 374.649 187.138 373.889 187.138 373.06V372.991ZM187.553 372.991C187.553 373.682 187.691 374.235 187.967 374.719C188.244 375.202 188.658 375.617 189.142 375.962C189.626 376.308 190.248 376.515 190.87 376.723C191.561 376.861 192.252 376.93 192.943 376.93C193.703 376.93 194.394 376.861 195.016 376.653C195.707 376.515 196.26 376.239 196.744 375.893C197.227 375.548 197.642 375.133 197.987 374.65C198.264 374.166 198.402 373.613 198.402 372.922C198.402 372.231 198.264 371.678 197.987 371.194C197.711 370.711 197.296 370.296 196.744 369.95C196.26 369.605 195.638 369.398 195.016 369.19C194.325 369.052 193.634 368.914 192.943 368.914C192.183 368.914 191.492 368.983 190.87 369.121C190.179 369.259 189.626 369.536 189.142 369.881C188.658 370.227 188.244 370.642 187.967 371.125C187.691 371.609 187.553 372.162 187.553 372.853V372.991ZM187.484 383.564V380.8H187.553C187.829 380.938 188.037 381.007 188.313 381.076C188.589 381.145 188.797 381.214 189.142 381.214C189.419 381.214 189.695 381.283 190.041 381.283C190.386 381.283 190.732 381.283 191.146 381.283H195.569C196.191 381.283 196.674 381.145 197.02 380.938C197.365 380.731 197.711 380.454 197.918 380.247H197.987L199.231 382.873H197.02V382.942C197.711 383.495 198.195 384.117 198.54 384.808C198.886 385.499 199.093 386.19 199.093 387.019C199.093 388.125 198.817 388.954 198.195 389.507C197.573 390.059 196.744 390.336 195.707 390.336H191.215C190.801 390.336 190.386 390.336 190.11 390.336C189.764 390.336 189.488 390.336 189.211 390.405C188.935 390.405 188.658 390.474 188.382 390.543C188.106 390.612 187.898 390.681 187.622 390.82H187.553V388.056H187.622C188.106 388.263 188.658 388.401 189.211 388.47C189.764 388.539 190.386 388.539 191.215 388.539H195.292C195.638 388.539 195.983 388.47 196.329 388.401C196.674 388.332 196.951 388.194 197.158 387.986C197.435 387.779 197.573 387.572 197.711 387.226C197.849 386.881 197.918 386.535 197.918 386.121C197.918 385.568 197.78 385.015 197.573 384.462C197.365 383.909 197.02 383.356 196.536 382.942H191.146C190.317 382.942 189.626 382.942 189.142 383.011C188.589 383.08 188.106 383.218 187.553 383.426H187.484V383.564Z"
                        fill="#C7E7DC"></path>
                      <path fill-rule="evenodd" clip-rule="evenodd"
                        d="M187.553 255.585H187.622C187.967 255.861 188.313 256.068 188.589 256.276C188.866 256.414 189.142 256.552 189.419 256.69C189.695 256.759 190.041 256.829 190.317 256.898C190.662 256.967 191.008 256.967 191.492 256.967H201.995C202.341 256.967 202.617 256.898 202.825 256.829C203.101 256.759 203.308 256.69 203.516 256.552C203.723 256.414 203.93 256.276 204.138 256.068C204.345 255.861 204.552 255.654 204.76 255.377H204.829V258.764L190.593 265.19L204.829 271.478V274.657H204.76C204.552 274.312 204.276 274.104 204.068 273.897C203.861 273.69 203.585 273.552 203.377 273.413C203.101 273.275 202.825 273.206 202.548 273.137C202.203 273.068 201.857 273.068 201.443 273.068H191.215C190.801 273.068 190.455 273.068 190.179 273.137C189.902 273.137 189.626 273.206 189.35 273.275C189.073 273.344 188.866 273.413 188.589 273.552C188.313 273.69 188.037 273.828 187.76 274.035H187.691V270.235H187.76C188.037 270.442 188.313 270.58 188.589 270.718C188.866 270.857 189.073 270.926 189.35 270.995C189.626 271.064 189.902 271.133 190.179 271.133C190.455 271.133 190.87 271.202 191.215 271.202H202.963L188.106 264.637V264.223L203.032 257.451L191.492 257.52C191.077 257.52 190.662 257.52 190.317 257.589C189.971 257.658 189.695 257.727 189.419 257.865C189.142 258.003 188.866 258.142 188.589 258.349C188.313 258.556 187.967 258.833 187.622 259.178H187.553V255.585ZM203.032 278.665C202.686 278.665 202.41 278.527 202.203 278.32C201.995 278.112 201.857 277.836 201.857 277.49C201.857 277.145 201.995 276.938 202.203 276.661C202.41 276.454 202.686 276.316 203.032 276.316C203.377 276.316 203.585 276.454 203.861 276.661C204.068 276.869 204.207 277.145 204.207 277.49C204.207 277.836 204.068 278.043 203.861 278.32C203.654 278.527 203.377 278.665 203.032 278.665ZM187.622 276.247C188.106 276.454 188.658 276.592 189.211 276.661C189.764 276.73 190.386 276.799 191.215 276.799H195.569C196.122 276.799 196.605 276.661 197.02 276.454C197.365 276.247 197.711 275.97 197.918 275.763H197.987L199.231 278.527H191.215C190.386 278.527 189.695 278.527 189.211 278.596C188.658 278.665 188.175 278.803 187.622 279.011H187.553V276.247H187.622ZM190.179 290.344C189.28 289.998 188.589 289.514 188.037 288.754C187.484 287.994 187.207 287.096 187.207 285.921C187.207 285.161 187.346 284.47 187.622 283.848C187.898 283.226 188.244 282.673 188.728 282.189C189.211 281.706 189.833 281.36 190.524 281.153C191.215 280.877 192.045 280.807 192.874 280.807C193.841 280.807 194.67 280.946 195.431 281.291C196.191 281.637 196.813 282.051 197.365 282.604C197.918 283.157 198.333 283.779 198.609 284.47C198.886 285.161 199.024 285.921 199.024 286.681C199.024 287.441 198.955 288.132 198.748 288.616C198.609 289.1 198.402 289.514 198.333 289.791L195.914 289.998L195.845 289.791C196.191 289.583 196.536 289.307 196.882 289.1C197.227 288.823 197.504 288.547 197.711 288.271C197.918 287.994 198.126 287.649 198.264 287.303C198.402 286.958 198.471 286.612 198.471 286.267C198.471 285.092 198.056 284.193 197.158 283.502C196.26 282.811 195.085 282.466 193.496 282.466C191.975 282.466 190.801 282.811 189.902 283.502C189.004 284.193 188.589 285.23 188.589 286.543C188.589 287.234 188.728 287.856 188.935 288.478C189.142 289.1 189.557 289.653 190.11 290.067L190.041 290.205L190.179 290.344ZM187.622 292.486C187.898 292.624 188.106 292.693 188.382 292.762C188.658 292.831 188.866 292.9 189.211 292.9C189.488 292.9 189.764 292.97 190.11 292.97C190.455 292.97 190.801 292.97 191.215 292.97H195.638C196.26 292.97 196.744 292.831 197.089 292.624C197.435 292.417 197.78 292.14 197.987 291.933H198.057L199.3 294.559H196.467V294.697C196.744 294.974 197.02 295.181 197.365 295.457C197.711 295.734 197.987 296.01 198.264 296.356C198.54 296.632 198.748 296.978 198.955 297.323C199.162 297.669 199.231 298.014 199.231 298.429H196.882V298.36C196.951 298.291 197.02 298.152 197.089 298.014C197.158 297.876 197.227 297.669 197.227 297.53C197.296 297.323 197.296 297.185 197.365 296.978C197.365 296.839 197.435 296.632 197.435 296.494C197.435 296.287 197.296 296.01 197.02 295.665C196.744 295.319 196.398 294.974 195.983 294.697H191.353C190.524 294.697 189.833 294.697 189.35 294.766C188.797 294.835 188.313 294.974 187.76 295.181H187.691V292.417H187.76L187.622 292.486ZM187.207 305.408C187.207 304.579 187.346 303.819 187.691 303.128C188.037 302.437 188.451 301.815 189.004 301.262C189.557 300.709 190.179 300.294 190.87 300.018C191.561 299.673 192.321 299.534 193.15 299.534C193.979 299.534 194.74 299.673 195.431 300.018C196.122 300.364 196.813 300.778 197.296 301.331C197.849 301.884 198.264 302.506 198.609 303.197C198.955 303.888 199.093 304.648 199.093 305.477C199.093 306.306 198.955 307.067 198.609 307.758C198.264 308.449 197.849 309.071 197.296 309.623C196.744 310.176 196.122 310.591 195.431 310.867C194.74 311.213 193.91 311.351 193.15 311.351C192.321 311.351 191.561 311.213 190.87 310.867C190.179 310.522 189.557 310.107 189.004 309.623C188.451 309.071 188.037 308.449 187.691 307.758C187.346 307.067 187.207 306.306 187.207 305.477V305.408ZM187.622 305.408C187.622 306.099 187.76 306.652 188.037 307.136C188.313 307.619 188.728 308.034 189.211 308.38C189.695 308.725 190.317 308.932 190.939 309.14C191.63 309.278 192.321 309.347 193.012 309.347C193.772 309.347 194.463 309.278 195.085 309.071C195.776 308.932 196.329 308.656 196.813 308.31C197.296 307.965 197.711 307.55 198.057 307.067C198.333 306.583 198.471 306.03 198.471 305.339C198.471 304.648 198.333 304.095 198.057 303.611C197.78 303.128 197.365 302.713 196.813 302.368C196.329 302.022 195.707 301.815 195.085 301.607C194.394 301.469 193.703 301.331 193.012 301.331C192.252 301.331 191.561 301.4 190.939 301.538C190.248 301.677 189.695 301.953 189.211 302.298C188.728 302.644 188.313 303.059 188.037 303.542C187.76 304.026 187.622 304.579 187.622 305.27V305.408ZM187.553 316.948C187.829 317.156 188.106 317.294 188.382 317.432C188.658 317.57 188.866 317.639 189.142 317.708C189.419 317.778 189.695 317.847 189.971 317.847C190.248 317.847 190.593 317.916 191.008 317.916H201.166C201.581 317.916 201.926 317.916 202.203 317.847C202.479 317.847 202.756 317.778 203.032 317.708C203.308 317.639 203.516 317.57 203.792 317.432C204.068 317.294 204.345 317.156 204.621 316.948H204.69V320.749H204.621C204.345 320.542 204.068 320.404 203.792 320.265C203.516 320.127 203.308 320.058 203.032 319.989C202.756 319.92 202.479 319.851 202.203 319.851C201.926 319.851 201.581 319.782 201.166 319.782H191.008C190.593 319.782 190.248 319.782 189.971 319.851C189.695 319.851 189.419 319.92 189.142 319.989C188.866 320.058 188.658 320.127 188.382 320.265C188.106 320.404 187.829 320.542 187.553 320.749H187.484V316.948H187.553ZM187.484 325.655V322.891H187.553C187.829 323.029 188.037 323.099 188.313 323.168C188.589 323.237 188.797 323.306 189.142 323.306C189.419 323.306 189.695 323.375 190.041 323.375C190.386 323.375 190.732 323.375 191.146 323.375H195.569C196.191 323.375 196.674 323.237 197.02 323.029C197.365 322.822 197.711 322.546 197.918 322.338H197.987L199.231 324.964H197.02V325.033C197.711 325.586 198.195 326.208 198.54 326.899C198.886 327.59 199.093 328.281 199.093 329.111C199.093 330.216 198.817 331.045 198.195 331.598C197.573 332.151 196.744 332.427 195.707 332.427H191.215C190.801 332.427 190.386 332.427 190.11 332.427C189.764 332.427 189.488 332.427 189.211 332.497C188.935 332.497 188.658 332.566 188.382 332.635C188.106 332.704 187.898 332.773 187.622 332.911H187.553V330.147H187.622C188.106 330.354 188.658 330.493 189.211 330.562C189.764 330.631 190.386 330.631 191.215 330.631H195.292C195.638 330.631 195.983 330.562 196.329 330.493C196.674 330.423 196.951 330.285 197.158 330.078C197.435 329.871 197.573 329.663 197.711 329.318C197.849 328.972 197.918 328.627 197.918 328.212C197.918 327.659 197.78 327.107 197.573 326.554C197.365 326.001 197.02 325.448 196.536 325.033H191.146C190.317 325.033 189.626 325.033 189.142 325.103C188.589 325.172 188.106 325.31 187.553 325.517H187.484V325.655ZM187.553 335.537C187.898 335.744 188.244 335.883 188.728 335.952C189.211 336.021 189.902 336.09 190.801 336.09H198.264V334.639H198.678V336.09H200.682C201.512 336.09 202.203 336.159 202.825 336.366C203.447 336.574 203.999 336.85 204.414 337.196C204.829 337.541 205.174 337.956 205.451 338.439C205.658 338.923 205.796 339.476 205.796 340.029C205.796 340.374 205.727 340.72 205.658 340.996C205.589 341.273 205.52 341.48 205.451 341.618L203.308 341.895L203.239 341.756C203.516 341.618 203.723 341.411 203.999 341.204C204.276 340.996 204.483 340.858 204.69 340.651C204.898 340.443 205.036 340.236 205.174 340.098C205.312 339.891 205.381 339.683 205.381 339.476C205.381 338.992 205.105 338.578 204.483 338.232C203.861 337.887 202.963 337.748 201.719 337.748H198.678V340.513H198.264V337.748H190.801C189.902 337.748 189.211 337.817 188.728 337.887C188.244 337.956 187.898 338.094 187.553 338.301H187.484V335.468H187.553V335.537ZM189.626 349.289C189.28 349.081 189.004 348.805 188.728 348.598C188.451 348.321 188.175 348.045 187.898 347.768C187.691 347.492 187.484 347.146 187.346 346.732C187.207 346.317 187.138 345.903 187.138 345.419C187.138 344.382 187.484 343.622 188.106 343.138C188.728 342.655 189.626 342.378 190.732 342.378H196.605C197.089 342.378 197.504 342.309 197.78 342.102C198.126 341.895 198.333 341.687 198.54 341.411H198.609V344.106H191.077C189.35 344.106 188.451 344.866 188.451 346.386C188.451 347.077 188.589 347.63 188.866 348.114C189.142 348.598 189.488 348.943 189.902 349.22H196.536C197.435 349.22 198.057 348.874 198.54 348.183H198.609V350.947H190.662C190.179 350.947 189.764 350.947 189.488 351.016C189.211 351.085 188.935 351.085 188.728 351.224C188.52 351.293 188.382 351.431 188.244 351.569C188.106 351.707 188.037 351.845 187.898 352.053H187.829L187.069 349.427H189.488L189.626 349.289ZM196.26 360.276L196.191 360.138C197.089 359.654 197.711 359.101 198.057 358.548C198.402 357.996 198.54 357.443 198.54 356.89C198.54 356.199 198.333 355.646 197.987 355.232C197.642 354.817 197.158 354.61 196.605 354.61C196.26 354.61 195.914 354.679 195.707 354.886C195.431 355.024 195.223 355.301 195.085 355.577C194.878 355.853 194.74 356.199 194.532 356.544C194.394 356.89 194.256 357.305 194.049 357.719C193.91 358.134 193.703 358.548 193.496 358.963C193.288 359.378 193.081 359.723 192.805 360C192.528 360.345 192.183 360.552 191.768 360.76C191.354 360.967 190.87 361.036 190.317 361.036C189.211 361.036 188.451 360.622 187.829 359.861C187.276 359.101 187 358.065 187 356.752C187 356.061 187.069 355.439 187.207 354.886C187.346 354.333 187.484 353.849 187.691 353.435L190.386 353.228L190.455 353.366C189.419 353.849 188.658 354.402 188.244 354.955C187.76 355.508 187.553 356.199 187.553 357.028C187.553 357.857 187.76 358.548 188.244 358.963C188.728 359.378 189.211 359.585 189.764 359.585C190.11 359.585 190.386 359.516 190.662 359.378C190.939 359.239 191.146 359.032 191.353 358.825C191.561 358.548 191.768 358.272 191.906 357.927C192.045 357.581 192.183 357.235 192.39 356.821C192.528 356.406 192.736 356.061 192.874 355.646C193.081 355.232 193.288 354.886 193.565 354.54C193.841 354.195 194.187 353.919 194.532 353.711C194.947 353.504 195.361 353.366 195.914 353.366C196.467 353.366 196.951 353.504 197.365 353.711C197.78 353.919 198.056 354.264 198.333 354.61C198.609 354.955 198.748 355.439 198.817 355.853C198.886 356.337 198.955 356.821 198.955 357.305C198.955 357.788 198.886 358.341 198.817 358.825C198.748 359.309 198.609 359.723 198.471 360.069L196.191 360.276H196.26ZM202.963 365.044C202.617 365.044 202.341 364.906 202.134 364.699C201.926 364.491 201.788 364.215 201.788 363.869C201.788 363.524 201.926 363.317 202.134 363.04C202.341 362.833 202.617 362.695 202.963 362.695C203.308 362.695 203.516 362.833 203.792 363.04C203.999 363.247 204.138 363.524 204.138 363.869C204.138 364.215 203.999 364.422 203.792 364.699C203.585 364.906 203.308 365.044 202.963 365.044ZM187.553 362.626C188.037 362.833 188.589 362.971 189.142 363.04C189.695 363.109 190.317 363.178 191.146 363.178H195.5C196.053 363.178 196.536 363.04 196.951 362.833C197.296 362.626 197.642 362.349 197.849 362.142H197.918L199.162 364.906H191.146C190.317 364.906 189.626 364.906 189.142 364.975C188.589 365.044 188.106 365.182 187.553 365.39H187.484V362.626H187.553ZM187.138 372.991C187.138 372.162 187.276 371.402 187.622 370.711C187.967 370.02 188.382 369.398 188.935 368.845C189.488 368.292 190.11 367.877 190.801 367.601C191.492 367.255 192.252 367.117 193.081 367.117C193.91 367.117 194.67 367.255 195.361 367.601C196.053 367.946 196.744 368.361 197.227 368.914C197.78 369.467 198.195 370.089 198.54 370.78C198.886 371.471 199.024 372.231 199.024 373.06C199.024 373.889 198.886 374.649 198.54 375.341C198.195 376.032 197.78 376.653 197.227 377.206C196.674 377.759 196.053 378.174 195.361 378.45C194.67 378.796 193.841 378.934 193.081 378.934C192.252 378.934 191.492 378.796 190.801 378.45C190.11 378.105 189.488 377.69 188.935 377.206C188.382 376.653 187.967 376.032 187.622 375.341C187.276 374.649 187.138 373.889 187.138 373.06V372.991ZM187.553 372.991C187.553 373.682 187.691 374.235 187.967 374.719C188.244 375.202 188.658 375.617 189.142 375.962C189.626 376.308 190.248 376.515 190.87 376.723C191.561 376.861 192.252 376.93 192.943 376.93C193.703 376.93 194.394 376.861 195.016 376.653C195.707 376.515 196.26 376.239 196.744 375.893C197.227 375.548 197.642 375.133 197.987 374.65C198.264 374.166 198.402 373.613 198.402 372.922C198.402 372.231 198.264 371.678 197.987 371.194C197.711 370.711 197.296 370.296 196.744 369.95C196.26 369.605 195.638 369.398 195.016 369.19C194.325 369.052 193.634 368.914 192.943 368.914C192.183 368.914 191.492 368.983 190.87 369.121C190.179 369.259 189.626 369.536 189.142 369.881C188.658 370.227 188.244 370.642 187.967 371.125C187.691 371.609 187.553 372.162 187.553 372.853V372.991ZM187.484 383.564V380.8H187.553C187.829 380.938 188.037 381.007 188.313 381.076C188.589 381.145 188.797 381.214 189.142 381.214C189.419 381.214 189.695 381.283 190.041 381.283C190.386 381.283 190.732 381.283 191.146 381.283H195.569C196.191 381.283 196.674 381.145 197.02 380.938C197.365 380.731 197.711 380.454 197.918 380.247H197.987L199.231 382.873H197.02V382.942C197.711 383.495 198.195 384.117 198.54 384.808C198.886 385.499 199.093 386.19 199.093 387.019C199.093 388.125 198.817 388.954 198.195 389.507C197.573 390.059 196.744 390.336 195.707 390.336H191.215C190.801 390.336 190.386 390.336 190.11 390.336C189.764 390.336 189.488 390.336 189.211 390.405C188.935 390.405 188.658 390.474 188.382 390.543C188.106 390.612 187.898 390.681 187.622 390.82H187.553V388.056H187.622C188.106 388.263 188.658 388.401 189.211 388.47C189.764 388.539 190.386 388.539 191.215 388.539H195.292C195.638 388.539 195.983 388.47 196.329 388.401C196.674 388.332 196.951 388.194 197.158 387.986C197.435 387.779 197.573 387.572 197.711 387.226C197.849 386.881 197.918 386.535 197.918 386.121C197.918 385.568 197.78 385.015 197.573 384.462C197.365 383.909 197.02 383.356 196.536 382.942H191.146C190.317 382.942 189.626 382.942 189.142 383.011C188.589 383.08 188.106 383.218 187.553 383.426H187.484V383.564Z"
                        stroke="#C7E7DC" stroke-width="1.5" mask="url(#path-5-outside-1_8591_2306)"></path>
                      <path d="M226.551 323.375V411.205" stroke="#C7E7DC" stroke-width="5"></path>
                      <path d="M208.24 348.528H238.991" stroke="#C7E7DC" stroke-width="5"></path>
                      <path fill-rule="evenodd" clip-rule="evenodd"
                        d="M116.188 135.551V186.757H197.177H278.166V135.551C269.321 132.649 197.177 132.649 197.177 132.649C197.177 132.649 125.034 132.649 116.188 135.551Z"
                        stroke="#C7E7DC" stroke-width="10" stroke-miterlimit="2.61313"></path>
                      <path fill-rule="evenodd" clip-rule="evenodd"
                        d="M128.971 134.1C128.971 122.214 128.211 104.869 129.869 88.2154C132.011 66.4479 138.161 45.9243 155.161 40.1887H196.899H238.637C268.766 50.3469 264.828 106.735 264.828 134.1C241.402 132.718 197.176 132.718 197.176 132.718H196.899C193.306 132.718 151.222 132.787 128.971 134.1Z"
                        stroke="#C7E7DC" stroke-width="10" stroke-miterlimit="2.61313"></path>
                      <path d="M128.905 108.394C167.396 103.143 226.202 103.143 264.624 108.394" stroke="#C7E7DC"
                        stroke-width="10" stroke-miterlimit="2.61313"></path>
                      <path d="M140.31 62.0066H253.293" stroke="#C7E7DC" stroke-width="10" stroke-miterlimit="2.61313">
                      </path>
                      <path d="M149.57 27.4751V105.009" stroke="#C7E7DC" stroke-width="10" stroke-miterlimit="2.61313"
                        stroke-linecap="round" stroke-linejoin="round"></path>
                      <path d="M168.499 27.4751V105.009" stroke="#C7E7DC" stroke-width="10" stroke-miterlimit="2.61313"
                        stroke-linecap="round" stroke-linejoin="round"></path>
                      <path d="M187.504 27.4751V105.009" stroke="#C7E7DC" stroke-width="10" stroke-miterlimit="2.61313"
                        stroke-linecap="round" stroke-linejoin="round"></path>
                      <path d="M206.509 27.4751V105.009" stroke="#C7E7DC" stroke-width="10" stroke-miterlimit="2.61313"
                        stroke-linecap="round" stroke-linejoin="round"></path>
                      <path d="M225.515 27.4751V105.009" stroke="#C7E7DC" stroke-width="10" stroke-miterlimit="2.61313"
                        stroke-linecap="round" stroke-linejoin="round"></path>
                      <path d="M244.448 27.4751V105.009" stroke="#C7E7DC" stroke-width="10" stroke-miterlimit="2.61313"
                        stroke-linecap="round" stroke-linejoin="round"></path>
                    </g>
                    <defs>
                      <clipPath id="clip0_8591_2306">
                        <rect width="500" height="500" fill="white"></rect>
                      </clipPath>
                    </defs>
                  </svg>