<svg width="98" height="98" viewBox="0 0 500 500" fill="none" xmlns="http://www.w3.org/2000/svg">
                    <path
                      d="M296.058 371.941C283.066 378.539 268.356 382.251 252.753 382.251C199.618 382.251 156.52 339.153 156.52 286.018C156.52 283.75 156.588 281.55 156.726 279.35C156.726 279.35 150.402 237.901 252.753 88.9463C347.542 226.903 349.123 272.683 348.848 278.663"
                      stroke="#C7E7DC" stroke-width="10" stroke-miterlimit="2.61313" stroke-linecap="round"
                      stroke-linejoin="round"></path>
                    <path d="M258.594 338.603C224.087 338.603 196.18 310.626 196.18 276.189" stroke="#C7E7DC"
                      stroke-width="10" stroke-miterlimit="2.61313" stroke-linecap="round" stroke-linejoin="round">
                    </path>
                    <path
                      d="M123.934 191.298C153.545 191.298 177.55 167.293 177.55 137.682C177.55 108.071 153.545 84.0667 123.934 84.0667C94.3229 84.0667 70.3184 108.071 70.3184 137.682C70.3184 167.293 94.3229 191.298 123.934 191.298Z"
                      stroke="#C7E7DC" stroke-width="10" stroke-miterlimit="2.61313" stroke-linecap="round"
                      stroke-linejoin="round"></path>
                    <path d="M126.135 163.803C110.532 163.803 97.8154 151.155 97.8154 135.483" stroke="#C7E7DC"
                      stroke-width="10" stroke-miterlimit="2.61313" stroke-linecap="round" stroke-linejoin="round">
                    </path>
                    <path
                      d="M360.535 415.934C398.726 415.934 429.686 384.975 429.686 346.784C429.686 308.593 398.726 277.634 360.535 277.634C322.344 277.634 291.385 308.593 291.385 346.784C291.385 384.975 322.344 415.934 360.535 415.934Z"
                      stroke="#C7E7DC" stroke-width="10" stroke-miterlimit="2.61313" stroke-linecap="round"
                      stroke-linejoin="round"></path>
                    <path fill-rule="evenodd" clip-rule="evenodd"
                      d="M357.439 320.388V316.332C357.439 314.545 358.401 313.514 360.189 313.514H360.738C362.388 313.514 363.419 314.339 363.419 315.988V320.182C367.2 320.456 370.774 321.762 373.867 323.893C375.311 324.856 375.38 326.23 374.692 327.674L373.73 329.461C372.768 331.111 371.324 331.248 369.812 330.286C367.131 328.568 364.107 327.468 360.876 327.468C356.752 327.468 352.077 329.874 352.077 334.479C352.077 344.102 377.029 342.246 377.029 358.675C377.029 366.786 371.118 372.216 363.419 373.247V377.165C363.419 378.884 362.526 379.984 360.738 379.984H360.189C358.539 379.984 357.439 379.159 357.439 377.44V373.247C352.902 372.766 348.709 370.979 345.135 368.161C343.76 367.061 343.623 365.617 344.722 364.243L345.891 362.593C346.991 361.081 348.366 361.081 349.878 362.043C352.971 364.38 356.752 365.892 360.67 365.892C365 365.892 369.124 363.555 369.124 358.812C369.124 348.708 344.173 350.22 344.173 334.548C344.173 326.849 350.221 321.419 357.508 320.182L357.439 320.388Z"
                      fill="#C7E7DC"></path>
                    <path d="M408.443 366.785C400.606 385.55 382.116 398.679 360.532 398.679" stroke="#C7E7DC"
                      stroke-width="10" stroke-miterlimit="2.61313" stroke-linecap="round" stroke-linejoin="round">
                    </path>
                    <path d="M393.864 306.985C398.676 311.041 402.731 315.921 405.893 321.42" stroke="#C7E7DC"
                      stroke-width="10" stroke-miterlimit="2.61313" stroke-linecap="round" stroke-linejoin="round">
                    </path>
                  </svg>