  <svg width="98" height="98" viewBox="0 0 500 500" fill="none" xmlns="http://www.w3.org/2000/svg">
                    <g clip-path="url(#clip0_8591_2243)">
                      <path
                        d="M180.936 179.232C185.482 179.232 189.168 175.546 189.168 170.999C189.168 166.453 185.482 162.767 180.936 162.767C176.389 162.767 172.703 166.453 172.703 170.999C172.703 175.546 176.389 179.232 180.936 179.232Z"
                        fill="#C7E7DC"></path>
                      <path
                        d="M180.517 185.935C172.268 185.935 165.581 179.248 165.581 171C165.581 166.358 167.699 162.211 171.02 159.471C171.02 159.471 176.743 159.093 180.35 159.093C185.086 159.093 192.211 161.706 192.211 161.706C192.211 161.706 195.453 167.487 195.453 171C195.453 179.248 188.766 185.935 180.517 185.935Z"
                        stroke="#C7E7DC" stroke-width="6" stroke-miterlimit="2.61313" stroke-linecap="round"
                        stroke-linejoin="round"></path>
                      <path
                        d="M175.291 170.118C177.044 170.118 178.466 168.696 178.466 166.943C178.466 165.189 177.044 163.767 175.291 163.767C173.537 163.767 172.115 165.189 172.115 166.943C172.115 168.696 173.537 170.118 175.291 170.118Z"
                        fill="white"></path>
                      <path fill-rule="evenodd" clip-rule="evenodd"
                        d="M213.741 181.288C223.032 179.936 200.275 166.294 199.217 165.529C194.16 161.942 187.515 159.708 180.4 159.355C164.288 158.532 157.467 165.176 145.941 174.232C145.941 174.232 150.234 173.644 154.879 178.76C159.525 183.876 177.401 189.991 192.925 186.228C208.449 182.464 213.859 181.347 213.859 181.347L213.741 181.288Z"
                        stroke="#C7E7DC" stroke-width="6" stroke-miterlimit="2.61313" stroke-linecap="round"
                        stroke-linejoin="round"></path>
                      <path d="M211.624 175.409C211.624 175.409 208.743 178.408 209.919 181.877" stroke="#C7E7DC"
                        stroke-width="6" stroke-miterlimit="2.61313" stroke-linecap="round" stroke-linejoin="round">
                      </path>
                      <path
                        d="M215.098 171.176C215.098 171.176 204.573 152.829 179.875 152.594C155.178 152.359 142.947 167.413 142.947 167.413"
                        stroke="#C7E7DC" stroke-width="6" stroke-miterlimit="2.61313" stroke-linecap="round"
                        stroke-linejoin="round"></path>
                      <path fill-rule="evenodd" clip-rule="evenodd"
                        d="M218.158 145.009C218.158 145.009 222.569 139.305 209.867 132.66C209.867 132.66 163.648 118.959 152.887 120.311C142.126 121.664 125.25 135.13 125.25 135.13C125.25 135.13 144.067 127.897 165.589 133.601C187.111 139.305 215.983 147.302 218.158 145.009V145.009Z"
                        stroke="#C7E7DC" stroke-width="10" stroke-miterlimit="2.61313" stroke-linecap="round"
                        stroke-linejoin="round"></path>
                      <path
                        d="M255.077 277.902C255.077 277.902 249.021 278.079 246.61 275.315C244.14 272.551 237.966 270.082 233.085 270.434"
                        stroke="#C7E7DC" stroke-width="10" stroke-miterlimit="2.61313" stroke-linecap="round"
                        stroke-linejoin="round"></path>
                      <path d="M226.031 256.735C226.031 256.735 217.858 273.846 234.852 276.669" stroke="#C7E7DC"
                        stroke-width="10" stroke-miterlimit="2.61313" stroke-linecap="round" stroke-linejoin="round">
                      </path>
                      <path d="M229.27 164.649C229.27 164.649 243.97 177.703 241.03 213.632" stroke="#C7E7DC"
                        stroke-width="10" stroke-miterlimit="2.61313" stroke-linecap="round" stroke-linejoin="round">
                      </path>
                      <path fill-rule="evenodd" clip-rule="evenodd"
                        d="M255.966 310.715C255.966 310.715 243.97 304.835 235.503 309.716C227.035 314.596 202.867 326.71 202.867 326.71C202.867 326.71 213.628 359.698 255.966 359.698C298.304 359.698 309.065 326.71 309.065 326.71C309.065 326.71 284.897 314.655 276.429 309.716C267.962 304.835 255.966 310.715 255.966 310.715V310.715Z"
                        stroke="#C7E7DC" stroke-width="10" stroke-miterlimit="2.61313" stroke-linecap="round"
                        stroke-linejoin="round"></path>
                      <path
                        d="M255.967 330.767C255.967 330.767 252.968 330.59 249.204 329.061C245.441 327.532 226.683 326.768 217.568 328.885C208.454 331.002 205.631 325.945 195.87 325.945"
                        stroke="#C7E7DC" stroke-width="10" stroke-miterlimit="2.61313" stroke-linecap="round"
                        stroke-linejoin="round"></path>
                      <path
                        d="M85.9131 165.59C85.9131 165.59 105.436 247.678 115.844 290.428C126.311 333.178 128.898 340.351 151.713 361.873C174.588 383.395 218.396 423.91 255.912 423.91"
                        stroke="#C7E7DC" stroke-width="10" stroke-miterlimit="2.61313" stroke-linecap="round"
                        stroke-linejoin="round"></path>
                      <path
                        d="M71.7958 154.3C71.7958 154.3 59.212 154.476 63.4458 172.764C67.6796 191.052 83.0271 217.454 84.9676 237.035C86.9081 256.617 94.6113 262.379 108.724 261.144"
                        stroke="#C7E7DC" stroke-width="10" stroke-miterlimit="2.61313" stroke-linecap="round"
                        stroke-linejoin="round"></path>
                      <path
                        d="M75.0322 181.526C75.0322 181.526 77.0903 172.705 81.2653 175.645C85.4403 178.586 94.1431 201.754 94.1431 201.754C94.1431 201.754 88.5569 213.514 91.6734 217.101C94.79 220.688 100.788 227.98 100.788 227.98"
                        stroke="#C7E7DC" stroke-width="10" stroke-miterlimit="2.61313" stroke-linecap="round"
                        stroke-linejoin="round"></path>
                      <path
                        d="M330.992 179.232C335.539 179.232 339.225 175.546 339.225 171C339.225 166.453 335.539 162.767 330.992 162.767C326.446 162.767 322.76 166.453 322.76 171C322.76 175.546 326.446 179.232 330.992 179.232Z"
                        fill="#C7E7DC"></path>
                      <path
                        d="M330.995 185.936C339.243 185.936 345.93 179.249 345.93 171C345.93 166.358 343.813 162.211 340.491 159.472C340.491 159.472 334.769 159.093 331.162 159.093C326.426 159.093 319.301 161.707 319.301 161.707C319.301 161.707 316.059 167.487 316.059 171C316.059 179.249 322.746 185.936 330.995 185.936Z"
                        stroke="#C7E7DC" stroke-width="6" stroke-miterlimit="2.61313" stroke-linecap="round"
                        stroke-linejoin="round"></path>
                      <path
                        d="M325.288 170.119C327.041 170.119 328.463 168.697 328.463 166.943C328.463 165.19 327.041 163.768 325.288 163.768C323.534 163.768 322.112 165.19 322.112 166.943C322.112 168.697 323.534 170.119 325.288 170.119Z"
                        fill="white"></path>
                      <path fill-rule="evenodd" clip-rule="evenodd"
                        d="M298.133 181.288C288.842 179.936 311.599 166.294 312.657 165.529C317.714 161.942 324.359 159.708 331.474 159.355C347.586 158.532 354.407 165.176 365.933 174.232C365.933 174.232 361.64 173.644 356.995 178.76C352.349 183.876 334.473 189.991 318.949 186.228C303.425 182.464 298.016 181.347 298.016 181.347L298.133 181.288Z"
                        stroke="#C7E7DC" stroke-width="6" stroke-miterlimit="2.61313" stroke-linecap="round"
                        stroke-linejoin="round"></path>
                      <path d="M300.308 175.41C300.308 175.41 303.189 178.409 302.013 181.878" stroke="#C7E7DC"
                        stroke-width="6" stroke-miterlimit="2.61313" stroke-linecap="round" stroke-linejoin="round">
                      </path>
                      <path
                        d="M296.777 171.176C296.777 171.176 307.303 152.829 332 152.594C356.697 152.359 368.928 167.413 368.928 167.413"
                        stroke="#C7E7DC" stroke-width="6" stroke-miterlimit="2.61313" stroke-linecap="round"
                        stroke-linejoin="round"></path>
                      <path fill-rule="evenodd" clip-rule="evenodd"
                        d="M293.724 145.009C293.724 145.009 289.314 139.305 302.015 132.66C302.015 132.66 348.234 118.959 358.995 120.311C369.756 121.664 386.633 135.13 386.633 135.13C386.633 135.13 367.816 127.897 346.294 133.601C324.772 139.305 295.9 147.302 293.724 145.009V145.009Z"
                        stroke="#C7E7DC" stroke-width="10" stroke-miterlimit="2.61313" stroke-linecap="round"
                        stroke-linejoin="round"></path>
                      <path
                        d="M256.857 277.902C256.857 277.902 262.914 278.079 265.325 275.315C267.795 272.551 273.969 270.082 278.85 270.434"
                        stroke="#C7E7DC" stroke-width="10" stroke-miterlimit="2.61313" stroke-linecap="round"
                        stroke-linejoin="round"></path>
                      <path d="M285.9 256.735C285.9 256.735 294.074 273.846 277.08 276.669" stroke="#C7E7DC"
                        stroke-width="10" stroke-miterlimit="2.61313" stroke-linecap="round" stroke-linejoin="round">
                      </path>
                      <path d="M282.608 164.649C282.608 164.649 267.908 177.703 270.848 213.632" stroke="#C7E7DC"
                        stroke-width="10" stroke-miterlimit="2.61313" stroke-linecap="round" stroke-linejoin="round">
                      </path>
                      <path
                        d="M255.97 330.767C255.97 330.767 258.969 330.59 262.732 329.061C266.495 327.532 285.254 326.768 294.368 328.885C303.482 331.002 306.305 325.945 316.066 325.945"
                        stroke="#C7E7DC" stroke-width="10" stroke-miterlimit="2.61313" stroke-linecap="round"
                        stroke-linejoin="round"></path>
                      <path
                        d="M426.028 165.591C426.028 165.591 406.506 247.68 396.098 290.429C385.631 333.179 383.043 340.353 360.228 361.875C337.354 383.397 293.545 423.912 256.029 423.912"
                        stroke="#C7E7DC" stroke-width="10" stroke-miterlimit="2.61313" stroke-linecap="round"
                        stroke-linejoin="round"></path>
                      <path
                        d="M440.138 154.3C440.138 154.3 452.722 154.476 448.488 172.764C444.254 191.052 428.907 217.454 426.966 237.035C425.026 256.617 417.323 262.379 403.21 261.144"
                        stroke="#C7E7DC" stroke-width="10" stroke-miterlimit="2.61313" stroke-linecap="round"
                        stroke-linejoin="round"></path>
                      <path
                        d="M436.843 181.525C436.843 181.525 434.785 172.705 430.61 175.645C426.435 178.585 417.733 201.753 417.733 201.753C417.733 201.753 423.319 213.514 420.202 217.101C417.086 220.688 411.088 227.979 411.088 227.979"
                        stroke="#C7E7DC" stroke-width="10" stroke-miterlimit="2.61313" stroke-linecap="round"
                        stroke-linejoin="round"></path>
                      <path
                        d="M367.871 245.21C371.605 245.21 374.633 242.103 374.633 238.271C374.633 234.439 371.605 231.333 367.871 231.333C364.136 231.333 361.108 234.439 361.108 238.271C361.108 242.103 364.136 245.21 367.871 245.21Z"
                        fill="#C7E7DC"></path>
                      <path
                        d="M337.294 231.508C341.028 231.508 344.056 228.401 344.056 224.569C344.056 220.737 341.028 217.63 337.294 217.63C333.559 217.63 330.531 220.737 330.531 224.569C330.531 228.401 333.559 231.508 337.294 231.508Z"
                        fill="#C7E7DC"></path>
                      <path
                        d="M322.357 260.203C326.092 260.203 329.119 257.097 329.119 253.264C329.119 249.432 326.092 246.326 322.357 246.326C318.622 246.326 315.595 249.432 315.595 253.264C315.595 257.097 318.622 260.203 322.357 260.203Z"
                        fill="#C7E7DC"></path>
                      <path
                        d="M350.463 266.084C354.197 266.084 357.225 262.977 357.225 259.145C357.225 255.313 354.197 252.207 350.463 252.207C346.728 252.207 343.7 255.313 343.7 259.145C343.7 262.977 346.728 266.084 350.463 266.084Z"
                        fill="#C7E7DC"></path>
                      <path
                        d="M328.474 291.252C332.209 291.252 335.237 288.145 335.237 284.313C335.237 280.481 332.209 277.374 328.474 277.374C324.74 277.374 321.712 280.481 321.712 284.313C321.712 288.145 324.74 291.252 328.474 291.252Z"
                        fill="#C7E7DC"></path>
                      <path
                        d="M359.222 293.309C362.957 293.309 365.985 290.202 365.985 286.37C365.985 282.538 362.957 279.431 359.222 279.431C355.488 279.431 352.46 282.538 352.46 286.37C352.46 290.202 355.488 293.309 359.222 293.309Z"
                        fill="#C7E7DC"></path>
                      <path
                        d="M377.692 273.375C381.427 273.375 384.454 270.268 384.454 266.436C384.454 262.604 381.427 259.497 377.692 259.497C373.957 259.497 370.93 262.604 370.93 266.436C370.93 270.268 373.957 273.375 377.692 273.375Z"
                        fill="#C7E7DC"></path>
                      <path fill-rule="evenodd" clip-rule="evenodd"
                        d="M88.3633 358.579C117.529 358.579 141.168 330.119 141.168 295.014C141.168 330.119 164.807 358.579 193.973 358.579C164.807 358.579 141.168 387.04 141.168 422.145C141.168 387.04 117.529 358.579 88.3633 358.579Z"
                        fill="white" stroke="#C7E7DC" stroke-width="10" stroke-miterlimit="2.61313"
                        stroke-linecap="round" stroke-linejoin="round"></path>
                      <path fill-rule="evenodd" clip-rule="evenodd"
                        d="M26.5068 313.654C41.7368 313.654 54.0853 297.836 54.0853 278.372C54.0853 297.836 66.4339 313.654 81.6638 313.654C66.4339 313.654 54.0853 329.472 54.0853 348.936C54.0853 329.472 41.7368 313.654 26.5068 313.654Z"
                        fill="white" stroke="#C7E7DC" stroke-width="10" stroke-miterlimit="2.61313"
                        stroke-linecap="round" stroke-linejoin="round"></path>
                      <path d="M256.846 41.104V458.839" stroke="#C7E7DC" stroke-width="10" stroke-miterlimit="2.61313"
                        stroke-linecap="round" stroke-linejoin="round" stroke-dasharray="20 20"></path>
                    </g>
                    <defs>
                      <clipPath id="clip0_8591_2243">
                        <rect width="500" height="500" fill="white"></rect>
                      </clipPath>
                    </defs>
                  </svg>