<svg width="98" height="98" viewBox="0 0 500 500" fill="none" xmlns="http://www.w3.org/2000/svg">
                    <path
                      d="M345.934 158.302C341.373 158.302 337.675 154.604 337.675 150.043C337.675 145.481 341.373 141.784 345.934 141.784C350.496 141.784 354.193 145.481 354.193 150.043C354.193 154.604 350.496 158.302 345.934 158.302Z"
                      fill="#C7E7DC"></path>
                    <path
                      d="M345.317 164.965C353.566 164.965 360.253 158.277 360.253 150.029C360.253 145.387 358.135 141.24 354.814 138.5C354.814 138.5 349.091 138.122 345.484 138.122C340.748 138.122 333.623 140.735 333.623 140.735C333.623 140.735 330.381 146.516 330.381 150.029C330.381 158.277 337.068 164.965 345.317 164.965Z"
                      stroke="#C7E7DC" stroke-width="6" stroke-miterlimit="2.61313" stroke-linecap="round"
                      stroke-linejoin="round"></path>
                    <path
                      d="M351.59 149.163C349.83 149.163 348.404 147.737 348.404 145.977C348.404 144.217 349.83 142.791 351.59 142.791C353.35 142.791 354.776 144.217 354.776 145.977C354.776 147.737 353.35 149.163 351.59 149.163Z"
                      fill="white"></path>
                    <path fill-rule="evenodd" clip-rule="evenodd"
                      d="M313.069 160.356C303.762 159.015 326.527 145.389 327.617 144.593C332.648 140.987 339.356 138.765 346.442 138.388C362.583 137.549 369.375 144.215 380.904 153.271C380.904 153.271 376.628 152.642 371.974 157.799C367.321 162.914 349.46 169.035 333.948 165.262C318.436 161.488 313.027 160.356 313.027 160.356H313.069Z"
                      stroke="#C7E7DC" stroke-width="6" stroke-miterlimit="2.61313" stroke-linecap="round"
                      stroke-linejoin="round"></path>
                    <path d="M315.249 154.446C315.249 154.446 318.142 157.422 316.968 160.902" stroke="#C7E7DC"
                      stroke-width="5" stroke-miterlimit="2.61313" stroke-linecap="round" stroke-linejoin="round">
                    </path>
                    <path
                      d="M311.73 150.21C311.73 150.21 322.253 131.888 346.947 131.637C371.641 131.385 383.883 146.437 383.883 146.437"
                      stroke="#C7E7DC" stroke-width="6" stroke-miterlimit="2.61313" stroke-linecap="round"
                      stroke-linejoin="round"></path>
                    <path fill-rule="evenodd" clip-rule="evenodd"
                      d="M308.663 124.049C308.663 124.049 304.261 118.347 316.964 111.681C316.964 111.681 363.166 97.9718 373.941 99.3134C384.715 100.655 401.569 114.155 401.569 114.155C401.569 114.155 382.745 106.944 361.237 112.646C339.73 118.347 310.843 126.355 308.663 124.049Z"
                      stroke="#C7E7DC" stroke-width="8" stroke-miterlimit="2.61313" stroke-linecap="round"
                      stroke-linejoin="round"></path>
                    <path
                      d="M271.774 256.952C271.774 256.952 277.812 257.12 280.243 254.353C282.675 251.586 288.88 249.112 293.785 249.447"
                      stroke="#C7E7DC" stroke-width="8" stroke-miterlimit="2.61313" stroke-linecap="round"
                      stroke-linejoin="round"></path>
                    <path d="M300.831 235.738C300.831 235.738 309.007 252.886 292.027 255.653" stroke="#C7E7DC"
                      stroke-width="8" stroke-miterlimit="2.61313" stroke-linecap="round" stroke-linejoin="round">
                    </path>
                    <path d="M297.598 143.67C297.598 143.67 282.924 156.708 285.859 192.638" stroke="#C7E7DC"
                      stroke-width="8" stroke-miterlimit="2.61313" stroke-linecap="round" stroke-linejoin="round">
                    </path>
                    <path fill-rule="evenodd" clip-rule="evenodd"
                      d="M270.892 289.78C270.892 289.78 282.883 283.91 291.352 288.815C299.821 293.721 323.97 305.795 323.97 305.795C323.97 305.795 313.195 338.748 270.85 338.748C228.506 338.748 217.731 305.795 217.731 305.795C217.731 305.795 241.88 293.721 250.349 288.815C258.818 283.91 270.809 289.78 270.809 289.78H270.892Z"
                      stroke="#C7E7DC" stroke-width="8" stroke-miterlimit="2.61313" stroke-linecap="round"
                      stroke-linejoin="round"></path>
                    <path
                      d="M270.897 309.819C270.897 309.819 273.916 309.651 277.689 308.1C281.462 306.549 300.203 305.794 309.342 307.933C318.482 310.071 321.249 304.998 331.06 304.998"
                      stroke="#C7E7DC" stroke-width="8" stroke-miterlimit="2.61313" stroke-linecap="round"
                      stroke-linejoin="round"></path>
                    <path
                      d="M440.982 144.591C440.982 144.591 421.487 226.639 411.048 269.403C400.608 312.166 398.009 319.336 375.16 340.885C352.311 362.435 308.499 402.892 270.934 402.892"
                      stroke="#C7E7DC" stroke-width="8" stroke-miterlimit="2.61313" stroke-linecap="round"
                      stroke-linejoin="round"></path>
                    <path
                      d="M455.071 133.356C455.071 133.356 467.648 133.524 463.414 151.804C459.18 170.083 443.835 196.538 441.864 216.117C439.894 235.696 432.222 241.482 418.093 240.224"
                      stroke="#C7E7DC" stroke-width="8" stroke-miterlimit="2.61313" stroke-linecap="round"
                      stroke-linejoin="round"></path>
                    <path
                      d="M451.844 160.566C451.844 160.566 449.747 151.762 445.597 154.697C441.446 157.631 432.726 180.816 432.726 180.816C432.726 180.816 438.344 192.555 435.199 196.161C432.097 199.766 426.06 207.019 426.06 207.019"
                      stroke="#C7E7DC" stroke-width="8" stroke-miterlimit="2.61313" stroke-linecap="round"
                      stroke-linejoin="round"></path>
                    <path
                      d="M195.885 158.301C191.324 158.301 187.626 154.604 187.626 150.042C187.626 145.481 191.324 141.783 195.885 141.783C200.447 141.783 204.145 145.481 204.145 150.042C204.145 154.604 200.447 158.301 195.885 158.301Z"
                      fill="#C7E7DC"></path>
                    <path
                      d="M195.971 164.964C187.722 164.964 181.035 158.277 181.035 150.028C181.035 145.386 183.153 141.239 186.474 138.499C186.474 138.499 192.197 138.121 195.804 138.121C200.54 138.121 207.665 140.735 207.665 140.735C207.665 140.735 210.907 146.515 210.907 150.028C210.907 158.277 204.22 164.964 195.971 164.964Z"
                      stroke="#C7E7DC" stroke-width="6" stroke-miterlimit="2.61313" stroke-linecap="round"
                      stroke-linejoin="round"></path>
                    <path
                      d="M201.552 149.163C199.792 149.163 198.366 147.736 198.366 145.976C198.366 144.217 199.792 142.79 201.552 142.79C203.312 142.79 204.738 144.217 204.738 145.976C204.738 147.736 203.312 149.163 201.552 149.163Z"
                      fill="white"></path>
                    <path fill-rule="evenodd" clip-rule="evenodd"
                      d="M228.721 160.356C238.028 159.015 215.263 145.389 214.173 144.593C209.142 140.987 202.434 138.765 195.348 138.388C179.207 137.549 172.415 144.215 160.886 153.271C160.886 153.271 165.162 152.642 169.816 157.799C174.47 162.914 192.33 169.035 207.842 165.262C223.355 161.488 228.763 160.356 228.763 160.356H228.721Z"
                      stroke="#C7E7DC" stroke-width="6" stroke-miterlimit="2.61313" stroke-linecap="round"
                      stroke-linejoin="round"></path>
                    <path d="M226.576 154.445C226.576 154.445 223.683 157.422 224.857 160.902" stroke="#C7E7DC"
                      stroke-width="5" stroke-miterlimit="2.61313" stroke-linecap="round" stroke-linejoin="round">
                    </path>
                    <path
                      d="M230.055 150.21C230.055 150.21 219.531 131.888 194.838 131.637C170.144 131.385 157.901 146.437 157.901 146.437"
                      stroke="#C7E7DC" stroke-width="6" stroke-miterlimit="2.61313" stroke-linecap="round"
                      stroke-linejoin="round"></path>
                    <path fill-rule="evenodd" clip-rule="evenodd"
                      d="M233.119 124.049C233.119 124.049 237.521 118.347 224.818 111.681C224.818 111.681 178.616 97.9718 167.841 99.3134C157.066 100.655 140.213 114.155 140.213 114.155C140.213 114.155 159.037 106.944 180.545 112.646C202.052 118.347 230.939 126.355 233.119 124.049Z"
                      stroke="#C7E7DC" stroke-width="8" stroke-miterlimit="2.61313" stroke-linecap="round"
                      stroke-linejoin="round"></path>
                    <path
                      d="M270.014 256.951C270.014 256.951 263.976 257.119 261.545 254.352C259.113 251.585 252.908 249.111 248.003 249.447"
                      stroke="#C7E7DC" stroke-width="8" stroke-miterlimit="2.61313" stroke-linecap="round"
                      stroke-linejoin="round"></path>
                    <path d="M240.961 235.738C240.961 235.738 232.786 252.886 249.766 255.653" stroke="#C7E7DC"
                      stroke-width="8" stroke-miterlimit="2.61313" stroke-linecap="round" stroke-linejoin="round">
                    </path>
                    <path d="M244.228 143.67C244.228 143.67 258.902 156.709 255.967 192.639" stroke="#C7E7DC"
                      stroke-width="8" stroke-miterlimit="2.61313" stroke-linecap="round" stroke-linejoin="round">
                    </path>
                    <path
                      d="M270.896 309.819C270.896 309.819 267.877 309.651 264.104 308.1C260.33 306.549 241.59 305.794 232.45 307.933C223.31 310.071 220.543 304.998 210.733 304.998"
                      stroke="#C7E7DC" stroke-width="8" stroke-miterlimit="2.61313" stroke-linecap="round"
                      stroke-linejoin="round"></path>
                    <path
                      d="M109.19 179.641C115.772 207.144 124.786 244.835 130.781 269.445C141.221 312.208 143.82 319.378 166.669 340.927C189.519 362.477 233.331 402.935 270.896 402.935"
                      stroke="#C7E7DC" stroke-width="8" stroke-miterlimit="2.61313" stroke-linecap="round"
                      stroke-linejoin="round"></path>
                    <path d="M54.7294 155.4L100.426 109.704L120.342 129.62L74.6454 175.316L54.7294 155.4Z"
                      stroke="#C7E7DC" stroke-width="8" stroke-miterlimit="2.61313" stroke-linecap="round"
                      stroke-linejoin="round"></path>
                    <path fill-rule="evenodd" clip-rule="evenodd"
                      d="M46.6823 101.661C39.8904 108.453 40.4774 120.108 47.9401 127.571L65.2552 144.886L89.9072 120.234L72.5921 102.919C65.1294 95.4561 53.4742 94.9111 46.6823 101.661Z"
                      stroke="#C7E7DC" stroke-width="8" stroke-miterlimit="2.61313" stroke-linecap="round"
                      stroke-linejoin="round"></path>
                    <path fill-rule="evenodd" clip-rule="evenodd"
                      d="M150.567 214.902L155.095 219.43C156.269 220.604 157.946 220.771 158.868 219.849L164.864 213.854C165.786 212.931 165.576 211.212 164.444 210.08L159.916 205.552C159.875 202.114 158.323 198.383 155.389 195.406L104.953 144.97L89.9853 159.938L140.421 210.374C143.398 213.35 147.129 214.902 150.567 214.902V214.902Z"
                      stroke="#C7E7DC" stroke-width="8" stroke-miterlimit="2.61313" stroke-linecap="round"
                      stroke-linejoin="round"></path>
                    <path fill-rule="evenodd" clip-rule="evenodd"
                      d="M151.493 270.117C151.451 270.452 151.451 270.829 151.451 271.165C151.451 279.676 158.368 286.593 166.879 286.593C175.39 286.593 182.308 279.676 182.308 271.165C182.308 270.788 182.308 270.452 182.266 270.117C182.266 270.117 183.272 263.493 166.879 239.595C150.528 263.367 151.493 270.033 151.493 270.117Z"
                      stroke="#C7E7DC" stroke-width="8" stroke-miterlimit="2.61313" stroke-linecap="round"
                      stroke-linejoin="round"></path>
                  </svg>