<svg xmlns="http://www.w3.org/2000/svg" width="52" height="52" viewBox="0 0 52 52" fill="none">
  <mask id="path-1-inside-1_8283_9031" fill="white">
    <path fill-rule="evenodd" clip-rule="evenodd" d="M36.4995 0.714111H16.0995V15.714L0.5 15.714V36.114H16.0995V51.7141H36.4995V36.114H51.5V15.714L36.4995 15.714V0.714111Z"/>
  </mask>
  <path d="M16.0995 0.714111V-0.785889H14.5995V0.714111H16.0995ZM36.4995 0.714111H37.9995V-0.785889H36.4995V0.714111ZM16.0995 15.714V17.214H17.5995V15.714H16.0995ZM0.5 15.714L0.5 14.214H-1V15.714H0.5ZM0.5 36.114H-1V37.614H0.5V36.114ZM16.0995 36.114H17.5995V34.614H16.0995V36.114ZM16.0995 51.7141H14.5995V53.2141H16.0995V51.7141ZM36.4995 51.7141V53.2141H37.9995V51.7141H36.4995ZM36.4995 36.114V34.614H34.9995V36.114H36.4995ZM51.5 36.114V37.614H53V36.114H51.5ZM51.5 15.714H53V14.214H51.5V15.714ZM36.4995 15.714H34.9995V17.214L36.4995 17.214V15.714ZM16.0995 2.21411H36.4995V-0.785889H16.0995V2.21411ZM17.5995 15.714V0.714111H14.5995V15.714H17.5995ZM0.5 17.214L16.0995 17.214V14.214L0.5 14.214L0.5 17.214ZM2 36.114V15.714H-1V36.114H2ZM16.0995 34.614H0.5V37.614H16.0995V34.614ZM17.5995 51.7141V36.114H14.5995V51.7141H17.5995ZM36.4995 50.2141H16.0995V53.2141H36.4995V50.2141ZM34.9995 36.114V51.7141H37.9995V36.114H34.9995ZM51.5 34.614H36.4995V37.614H51.5V34.614ZM50 15.714V36.114H53V15.714H50ZM36.4995 17.214H51.5V14.214L36.4995 14.214V17.214ZM34.9995 0.714111V15.714H37.9995V0.714111H34.9995Z" fill="#C7E7DC" mask="url(#path-1-inside-1_8283_9031)"/>
</svg>