<svg xmlns="http://www.w3.org/2000/svg" width="59" height="56" viewBox="0 0 59 56" fill="none">
  <path d="M36.8691 47.774C34.7904 48.8298 32.4368 49.4237 29.9403 49.4237C21.4388 49.4237 14.543 42.5279 14.543 34.0264C14.543 33.6634 14.554 33.3115 14.576 32.9595C14.576 32.9595 13.5641 26.3277 29.9403 2.49487C45.1066 24.568 45.3596 31.8927 45.3156 32.8496" stroke="#C7E7DC" stroke-width="1.5" stroke-miterlimit="2.61313" stroke-linecap="round" stroke-linejoin="round"/>
  <path d="M30.8749 42.4399C25.3539 42.4399 20.8887 37.9636 20.8887 32.4536" stroke="#C7E7DC" stroke-width="1.5" stroke-miterlimit="2.61313" stroke-linecap="round" stroke-linejoin="round"/>
  <path d="M9.32948 18.8711C14.0673 18.8711 17.908 15.0304 17.908 10.2926C17.908 5.55484 14.0673 1.71411 9.32948 1.71411C4.5917 1.71411 0.750977 5.55484 0.750977 10.2926C0.750977 15.0304 4.5917 18.8711 9.32948 18.8711Z" stroke="#C7E7DC" stroke-width="1.5" stroke-miterlimit="2.61313" stroke-linecap="round" stroke-linejoin="round"/>
  <path d="M9.6816 14.4719C7.18504 14.4719 5.15039 12.4482 5.15039 9.94067" stroke="#C7E7DC" stroke-width="1.5" stroke-miterlimit="2.61313" stroke-linecap="round" stroke-linejoin="round"/>
  <path d="M47.1852 54.8129C53.2957 54.8129 58.2492 49.8594 58.2492 43.7489C58.2492 37.6384 53.2957 32.6848 47.1852 32.6848C41.0746 32.6848 36.1211 37.6384 36.1211 43.7489C36.1211 49.8594 41.0746 54.8129 47.1852 54.8129Z" stroke="#C7E7DC" stroke-width="1.5" stroke-miterlimit="2.61313" stroke-linecap="round" stroke-linejoin="round"/>
  <path d="M54.8502 46.949C53.5964 49.9514 50.638 52.0521 47.1846 52.0521" stroke="#C7E7DC" stroke-width="1.5" stroke-miterlimit="2.61313" stroke-linecap="round" stroke-linejoin="round"/>
  <path d="M52.5186 37.3811C53.2884 38.03 53.9373 38.8109 54.4432 39.6907" stroke="#C7E7DC" stroke-width="1.5" stroke-miterlimit="2.61313" stroke-linecap="round" stroke-linejoin="round"/>
</svg>