<svg width="36" height="41" viewBox="0 0 36 41" fill="none" xmlns="http://www.w3.org/2000/svg">
<path d="M21.3706 25.6051C21.3706 23.1457 23.2151 21.916 23.83 21.6086C24.3359 21.3011 25.3671 21.6086 26.2894 21.6086C27.2117 21.6086 29.0562 22.8383 29.0562 24.9902C29.0562 27.1422 27.5191 29.2941 25.6745 29.2941C23.83 29.2941 21.3706 28.0645 21.3706 25.6051Z" stroke="black"/>
<path d="M4.85069 25.7424C7.69567 25.1817 9.54619 27.073 10.0445 27.7268C10.5175 28.2523 10.4012 29.5365 10.6152 30.6223C10.8292 31.7082 9.83476 34.1602 7.3454 34.6508C4.85604 35.1415 2.00999 33.8224 1.58196 31.6507C1.15392 29.4791 2.0057 26.3031 4.85069 25.7424Z" stroke="black"/>
<path d="M11.2251 29.8286C11.2251 27.3155 13.5861 26.059 14.3731 25.7448C15.0206 25.4307 16.3406 25.7448 17.5211 25.7448C18.7016 25.7448 21.0627 27.0014 21.0627 29.2003C21.0627 31.3993 19.0951 33.5982 16.7341 33.5982C14.3731 33.5982 11.2251 32.3417 11.2251 29.8286Z" stroke="black"/>
<path d="M18.6026 39.7468C16.3892 39.2549 16.6556 36.6725 17.0655 35.4428C17.1568 35.1354 17.9879 34.2131 18.6026 33.5983C19.2174 32.9834 21.0621 32.676 22.9066 32.0612C24.7512 31.4463 26.2883 29.9092 29.67 28.987C33.0516 28.0647 34.2813 31.7538 34.5887 32.9835C34.8962 34.2132 33.359 36.6725 31.2071 37.2874C29.0551 37.9022 28.4403 39.1319 27.518 39.7468C26.5957 40.3616 21.3694 40.3616 18.6026 39.7468Z" stroke="black"/>
<path d="M8.74415 18.4712C6.61523 19.2863 5.20039 16.7831 4.75909 15.4296C4.6396 15.0976 4.73862 13.7837 4.85452 12.8731C4.97041 11.9625 6.29087 10.63 7.4167 9.01768C8.54253 7.40538 8.83246 5.12879 11.0261 2.35951C13.2198 -0.409776 16.0359 4.06398 17.0663 5.00819C18.0966 5.95239 18.9177 7.25213 17.5394 9.03985C16.1611 10.8276 15.8974 11.787 15.529 12.8731C15.1606 13.9591 11.4053 17.4522 8.74415 18.4712Z" stroke="black"/>
<path d="M10.8053 25.9423C7.71348 26.6149 7.1649 24.1326 7.27708 22.8074C7.29038 22.4817 8.06538 21.2229 8.66216 20.3529C9.25894 19.483 11.5856 18.2704 13.8049 16.7783C16.0242 15.2863 17.5165 13.1113 21.6567 10.5622C25.7968 8.01313 28.7051 10.7447 29.5393 11.707C30.3736 12.6694 29.2028 15.6827 26.5779 17.3303C23.953 18.9779 20.0377 19.1969 19.0352 20.2223C18.0327 21.2478 14.67 25.1016 10.8053 25.9423Z" stroke="black"/>
</svg>
