<svg width="48" height="47" viewBox="0 0 48 47" fill="none" xmlns="http://www.w3.org/2000/svg">
<g id="Group 1000008256">
<path id="Vector" d="M33.7098 39.7837L33.5698 39.933L33.3912 40.0933C32.5292 40.8669 31.4081 41.3479 30.1664 41.3877L29.9393 41.395L29.7241 41.3833C28.501 41.3171 27.3977 40.8186 26.5582 40.0365L26.425 39.9125L26.2482 39.7173C25.4843 38.8739 25.0029 37.7702 24.9454 36.5545L24.9334 36.3008L24.9407 36.1176C24.9894 34.898 25.4661 33.7904 26.2297 32.943L26.3954 32.7591L26.5399 32.6237C27.3843 31.8323 28.4921 31.3296 29.7191 31.2634L29.9248 31.2523L30.1633 31.2591C31.4084 31.2944 32.5376 31.7795 33.3988 32.5612L33.5659 32.7128L33.7187 32.8766C34.5174 33.7327 35.0167 34.8671 35.0698 36.1189L35.0794 36.347L35.0698 36.5551C35.0124 37.8016 34.5089 38.9317 33.7098 39.7837ZM35.783 30.5011L35.7087 30.3805C35.5299 30.0904 35.5681 29.7107 35.8112 29.4676C36.1013 29.1776 36.5661 29.1776 36.8561 29.4676C37.1462 29.7577 37.1462 30.2224 36.8561 30.5125L36.8541 30.5145C36.6018 30.7697 36.2015 30.7982 35.9073 30.5894L35.783 30.5011ZM29.9681 28.1151L29.8155 28.0763C29.4976 27.9953 29.2653 27.7101 29.2653 27.3669C29.2653 26.9588 29.5947 26.6294 30.0028 26.6294C30.4109 26.6294 30.7403 26.9588 30.7403 27.3669C30.7403 27.7375 30.4687 28.0424 30.1057 28.0951L29.9681 28.1151ZM24.1696 30.5533L24.0474 30.6269C23.7639 30.7976 23.3909 30.7588 23.1495 30.5173C22.8594 30.2273 22.8594 29.7625 23.1495 29.4725C23.4395 29.1824 23.9043 29.1824 24.1944 29.4725C24.452 29.7301 24.4777 30.137 24.2625 30.4279L24.1696 30.5533ZM35.7801 42.1541L35.9056 42.0613C36.1964 41.846 36.6033 41.8717 36.861 42.1294C37.151 42.4194 37.151 42.8842 36.861 43.1742C36.5709 43.4643 36.1061 43.4643 35.8161 43.1742L35.814 43.1721C35.5726 42.9336 35.5341 42.5627 35.7065 42.2764L35.7801 42.1541ZM21.8002 36.3482L21.7733 36.4728C21.6998 36.8138 21.4018 37.0633 21.0488 37.0633C20.6407 37.0633 20.3113 36.7339 20.3113 36.3258C20.3113 35.9176 20.6407 35.5882 21.0488 35.5882C21.4042 35.5882 21.7069 35.8478 21.7706 36.1893L21.8002 36.3482ZM24.1872 42.1015L24.2775 42.2274C24.4829 42.5138 24.4587 42.9147 24.1992 43.1742C23.9092 43.4643 23.4444 43.4643 23.1543 43.1742C22.8646 42.8845 22.8643 42.4205 23.1533 42.1304C23.4036 41.884 23.7835 41.8502 24.0653 42.0256L24.1872 42.1015ZM29.97 44.531L30.11 44.5515C30.4703 44.6042 30.7452 44.9108 30.7452 45.2798C30.7452 45.6879 30.4158 46.0173 30.0077 46.0173C29.5995 46.0173 29.2701 45.6879 29.2701 45.2798C29.2701 44.9397 29.4999 44.6549 29.8245 44.5694L29.97 44.531ZM38.2131 36.333L38.2399 36.1893C38.3038 35.8466 38.6026 35.5882 38.9616 35.5882H38.9665C39.3746 35.5882 39.704 35.9176 39.704 36.3258C39.704 36.7339 39.3746 37.0633 38.9665 37.0633C38.6104 37.0633 38.312 36.8113 38.2428 36.4768L38.2131 36.333Z" stroke="black"/>
<path id="Vector_2" d="M40.7776 23.9533L40.6842 23.9722L40.5715 23.9851C40.0321 24.0468 39.474 23.9265 38.9888 23.6048L38.8998 23.5457L38.8209 23.483C38.3719 23.1262 38.086 22.6372 37.9775 22.1107L37.9606 22.0288L37.9458 21.904C37.8828 21.375 37.9981 20.8232 38.3061 20.343L38.3712 20.2415L38.4226 20.1749C38.772 19.7221 39.254 19.4289 39.7749 19.3125L39.8897 19.2868L39.9808 19.2744C40.5185 19.2011 41.0771 19.3096 41.5632 19.6168L41.6447 19.6683L41.7351 19.7365C42.2007 20.0874 42.5 20.5781 42.6168 21.11L42.6397 21.2139L42.6537 21.3185C42.7264 21.8614 42.6098 22.4298 42.2901 22.923L42.2318 23.0129L42.1722 23.0891C41.8119 23.5499 41.3134 23.8447 40.7776 23.9533ZM44.7167 20.8704L44.7182 20.8465C44.7226 20.779 44.7725 20.726 44.8332 20.7157L44.7497 20.2228L44.8332 20.7157C44.9102 20.7027 44.9809 20.7529 44.9939 20.8299L45.4869 20.7463L44.9939 20.8299C45.007 20.9069 44.9568 20.9776 44.8798 20.9906L44.877 20.9911C44.8163 21.0017 44.7504 20.967 44.7264 20.8982L44.7167 20.8704ZM42.8913 17.9685L42.8699 17.9433C42.8301 17.8965 42.8263 17.829 42.8632 17.7771C42.9078 17.7143 42.9938 17.6997 43.0566 17.7443C43.1194 17.7889 43.134 17.8749 43.0894 17.9377C43.0502 17.9929 42.9769 18.0124 42.9123 17.9793L42.8913 17.9685ZM39.5398 17.2102L39.5142 17.2083C39.4522 17.2036 39.3998 17.1563 39.3894 17.0947C39.3763 17.0177 39.4265 16.947 39.5035 16.9339L39.42 16.441L39.5035 16.9339C39.5805 16.9209 39.6512 16.9711 39.6643 17.0481C39.6752 17.1127 39.637 17.1784 39.5707 17.2001L39.5398 17.2102ZM41.0412 26.0475L41.0737 26.0469C41.1434 26.0455 41.2012 26.095 41.2122 26.1596C41.2252 26.2366 41.175 26.3072 41.098 26.3203C41.021 26.3333 40.9503 26.2832 40.9373 26.2062L40.9368 26.2032C40.9266 26.1453 40.9576 26.084 41.0177 26.0577L41.0412 26.0475ZM36.6414 19.0399L36.6287 19.0515C36.5769 19.0989 36.503 19.1019 36.4507 19.0647C36.3879 19.0201 36.3734 18.9341 36.418 18.8713C36.4626 18.8085 36.5486 18.7939 36.6114 18.8385C36.6637 18.8757 36.6835 18.9489 36.656 19.0083L36.6414 19.0399ZM35.884 22.3691L35.8842 22.4011C35.8845 22.4674 35.8369 22.5251 35.7698 22.5365L35.8533 23.0294L35.7698 22.5365C35.6928 22.5495 35.6221 22.4993 35.609 22.4223L35.1161 22.5059L35.609 22.4223C35.5961 22.3458 35.6456 22.2755 35.7217 22.2618C35.7883 22.2516 35.8504 22.2889 35.874 22.3451L35.884 22.3691ZM37.7017 25.2795L37.7188 25.2958C37.771 25.3458 37.7766 25.4234 37.7384 25.4772C37.6938 25.54 37.6077 25.5545 37.5449 25.5099C37.4821 25.4653 37.4675 25.3793 37.5122 25.3165C37.5472 25.2671 37.6112 25.2455 37.6753 25.2696L37.7017 25.2795ZM43.9543 24.2248L43.9743 24.2054C44.0223 24.159 44.0959 24.1536 44.1493 24.1916L44.1514 24.193C44.2142 24.2376 44.2288 24.3236 44.1842 24.3864C44.1396 24.4493 44.0536 24.4638 43.9907 24.4192C43.9359 24.3803 43.9175 24.3087 43.9429 24.2506L43.9543 24.2248Z" stroke="black"/>
<g id="Group">
<path id="Vector_3" d="M11.598 16.916L11.5835 17.0519C11.5199 17.3292 11.3645 17.5773 11.1345 17.7577L11.1344 17.7576L11.1276 17.7631C10.8988 17.949 10.6155 18.0385 10.3319 18.0385C9.94461 18.0385 9.57343 17.8764 9.31779 17.5559C9.10318 17.2814 9.00846 16.953 9.0454 16.6045C9.08206 16.2686 9.24924 15.9636 9.51921 15.752C9.79264 15.5377 10.1196 15.4425 10.4668 15.478C10.8088 15.524 11.1143 15.6943 11.3246 15.9625C11.5401 16.2375 11.6352 16.5666 11.598 16.916ZM9.32039 17.5441L9.32621 17.5518L9.33233 17.5594C9.76455 18.0913 10.5501 18.1964 11.1056 17.7628C11.38 17.5548 11.5499 17.2448 11.5837 16.9065C11.6177 16.5661 11.5131 16.2495 11.3231 15.9962C11.1151 15.7189 10.8035 15.5473 10.4632 15.5133L10.4384 15.5108H10.4135H10.4133H10.4131H10.4129H10.4128H10.4126H10.4124H10.4122H10.412H10.4119H10.4117H10.4115H10.4113H10.4111H10.411H10.4108H10.4106H10.4104H10.4102H10.4101H10.4099H10.4097H10.4095H10.4094H10.4092H10.409H10.4088H10.4086H10.4085H10.4083H10.4081H10.4079H10.4077H10.4076H10.4074H10.4072H10.407H10.4068H10.4067H10.4065H10.4063H10.4061H10.4059H10.4058H10.4056H10.4054H10.4052H10.4051H10.4049H10.4047H10.4045H10.4043H10.4042H10.404H10.4038H10.4036H10.4034H10.4033H10.4031H10.4029H10.4027H10.4025H10.4024H10.4022H10.402H10.4018H10.4016H10.4015H10.4013H10.4011H10.4009H10.4008H10.4006H10.4004H10.4002H10.4H10.3999H10.3997H10.3995H10.3993H10.3991H10.399H10.3988H10.3986H10.3984H10.3982H10.3981H10.3979H10.3977H10.3975H10.3973H10.3972H10.397H10.3968H10.3966H10.3965H10.3963H10.3961H10.3959H10.3957H10.3956H10.3954H10.3952H10.395H10.3948H10.3947H10.3945H10.3943H10.3941H10.3939H10.3938H10.3936H10.3934H10.3932H10.393H10.3929H10.3927H10.3925H10.3923H10.3922H10.392H10.3918H10.3916H10.3914H10.3913H10.3911H10.3909H10.3907H10.3905H10.3904H10.3902H10.39H10.3898H10.3896H10.3895H10.3893H10.3891H10.3889H10.3887H10.3886H10.3884H10.3882H10.388H10.3879H10.3877H10.3875H10.3873H10.3871H10.387H10.3868H10.3866H10.3864H10.3862H10.3861H10.3859H10.3857H10.3855H10.3853H10.3852H10.385H10.3848H10.3846H10.3844H10.3843H10.3841H10.3839H10.3837H10.3836H10.3834H10.3832H10.383H10.3828H10.3827H10.3825H10.3823H10.3821H10.3819H10.3818H10.3816H10.3814H10.3812H10.381H10.3809H10.3807H10.3805H10.3803H10.3801H10.38H10.3798H10.3796H10.3794H10.3793H10.3791H10.3789H10.3787H10.3785H10.3784H10.3782H10.378H10.3778H10.3776H10.3775H10.3773H10.3771H10.3769H10.3767H10.3766H10.3764H10.3762H10.376H10.3758H10.3757H10.3755H10.3753H10.3751H10.3749H10.3748H10.3746H10.3744H10.3742H10.3741H10.3739H10.3737H10.3735H10.3733H10.3732H10.373H10.3728H10.3726H10.3724H10.3723H10.3721H10.3719H10.3717H10.3715H10.3714H10.3712H10.371H10.3708H10.3706H10.3705H10.3703H10.3701H10.3699H10.3698H10.3696H10.3694H10.3692H10.369H10.3689H10.3687H10.3685H10.3683H10.3681H10.368H10.3678H10.3676H10.3674H10.3672H10.3671H10.3669H10.3667H10.3665H10.3663H10.3662H10.366H10.3658H10.3656H10.3655H10.3653H10.3651H10.3649H10.3647H10.3646H10.3644H10.3642H10.364H10.3638H10.3637H10.3635H10.3633H10.3631H10.3629H10.3628H10.3626H10.3624H10.3622H10.362H10.3619H10.3617H10.3615H10.3613H10.3612H10.361H10.3608H10.3606H10.3604H10.3603H10.3601H10.3599H10.3597H10.3595H10.3594H10.3592H10.359H10.3588H10.3586H10.3585H10.3583H10.3581H10.3579H10.3577H10.3576H10.3574H10.3572H10.357H10.3569H10.3567H10.3565H10.3563H10.3561H10.356H10.3558H10.3556H10.3554H10.3552H10.3551H10.3549H10.3547H10.3545H10.3543H10.3542H10.354H10.3538H10.3536H10.3534H10.3533H10.3531H10.3529H10.3527H10.3526H10.3524H10.3522H10.352H10.3518H10.3517H10.3515H10.3513H10.3511H10.3509H10.3508H10.3506H10.3504H10.3502H10.35H10.3499H10.3497H10.3495H10.3493H10.3491H10.349H10.3488H10.3486H10.3484H10.3483H10.3481H10.3479H10.3477H10.3475H10.3474H10.3472H10.347H10.3468H10.3466H10.3465H10.3463H10.3461H10.3459H10.3457H10.3456H10.3454H10.3452H10.345H10.3448H10.3447H10.3445H10.3443H10.3441H10.344H10.3438H10.3436H10.3434H10.3432H10.3431H10.3429H10.3427H10.3425H10.3423H10.3422H10.342H10.3418H10.3416H10.3414H10.3413H10.3411H10.3409H10.3407H10.3405H10.3404H10.3402H10.34H10.3398H10.3397H10.3395H10.3393H10.3391H10.3389H10.3388H10.3386H10.3384H10.3382H10.338H10.3379H10.3377H10.3375H10.3373H10.3371H10.337H10.3368H10.3366H10.3364H10.3362H10.3361H10.3359H10.3357H10.3355H10.3354H10.3352H10.335H10.3348H10.3346H10.3345H10.3343H10.3341H10.3339H10.3337H10.3336H10.3334H10.3332H10.333H10.3328H10.3327H10.3325H10.3323H10.3321H10.3319H10.3318H10.3316H10.3314H10.3312H10.3311H10.3309H10.3307H10.3305H10.3303H10.3302H10.33H10.3298H10.3296H10.3294H10.3293H10.3291H10.3289H10.3287H10.3285H10.3284H10.3282H10.328H10.3278H10.3276H10.3275H10.3273H10.3271H10.3269H10.3268H10.3266H10.3264H10.3262H10.326H10.3259H10.3257H10.3255H10.3253H10.3251H10.325H10.3248H10.3246H10.3244H10.3242H10.3241H10.3239H10.3237H10.3235H10.3233H10.3232H10.323H10.3228H10.3226H10.3225H10.3223H10.3221H10.3219H10.3217C10.0597 15.5108 9.76945 15.5863 9.53118 15.7826C9.26066 15.9905 9.09334 16.2982 9.05979 16.6337C9.02575 16.9742 9.13038 17.2907 9.32039 17.5441Z" stroke="black"/>
<path id="Vector_4" d="M17.0718 14.1372C17.2114 14.3221 17.1798 14.5777 17.0048 14.7195C16.8199 14.8591 16.5643 14.8275 16.4225 14.6525C16.2829 14.4676 16.3145 14.212 16.4895 14.0702C16.6744 13.9306 16.93 13.9622 17.0718 14.1372Z" stroke="black"/>
<path id="Vector_5" d="M21.1331 9.04316L21.1331 9.04312L21.1279 9.0473C20.5099 9.54474 19.5946 9.43967 19.1035 8.81256L19.1035 8.81254L19.0994 8.80734C18.6019 8.18932 18.707 7.27406 19.3341 6.78295L19.3341 6.78299L19.3393 6.7788C19.9573 6.28137 20.8726 6.38643 21.3637 7.01354L21.3637 7.01357L21.3679 7.01877C21.8653 7.63679 21.7602 8.55205 21.1331 9.04316Z" stroke="black"/>
<g id="Vector_6">
<mask id="path-6-inside-1_28894_1412" fill="white">
<path d="M28.3417 7.53045C28.3213 7.24507 28.0767 7.05141 27.7913 7.06161L25.865 7.22468C25.8242 7.05141 25.7732 6.88834 25.7121 6.72526L27.4855 5.65506C27.7302 5.51237 27.8015 5.19641 27.6588 4.95179C27.5161 4.70717 27.2001 4.63583 26.9555 4.77852L25.2942 5.77737C25.2126 5.63468 25.1311 5.48179 25.0394 5.34929L26.293 3.98352C26.4867 3.77967 26.4663 3.45352 26.2625 3.25986C26.0586 3.0764 25.7325 3.08659 25.5388 3.29044L24.4074 4.52371C24.1526 4.22813 23.8672 3.96313 23.5615 3.72871L24.3055 1.94505C24.4176 1.69024 24.2953 1.38447 24.0303 1.28255C23.7653 1.17043 23.4698 1.29274 23.3678 1.55774L22.6951 3.15794C22.4301 3.00505 22.1447 2.88274 21.8594 2.77063L21.9919 0.78312C22.0122 0.497735 21.7982 0.263311 21.5128 0.242926C21.2376 0.222541 20.993 0.436581 20.9726 0.711774L20.8503 2.48524C20.5344 2.42409 20.2184 2.37313 19.9024 2.35274L19.5457 0.416196C19.4947 0.141002 19.2297 -0.0424598 18.9545 0.00850197C18.6793 0.0594637 18.4959 0.324465 18.5468 0.599658L18.8832 2.38332C18.5367 2.42409 18.1901 2.48524 17.8538 2.57697L17.0078 0.986967C16.8753 0.742351 16.5695 0.640428 16.3147 0.772928C16.0701 0.905429 15.9682 1.2112 16.1007 1.46601L16.8753 2.92351C16.8753 2.92351 16.8447 2.93371 16.8243 2.9439C16.488 3.09678 16.172 3.30063 15.8765 3.50448L14.9999 2.4139C14.8266 2.19986 14.5005 2.15909 14.2864 2.34255C14.0724 2.51582 14.0316 2.84197 14.2151 3.05601L15.1018 4.1466C14.8164 4.42179 14.5514 4.71737 14.317 5.04352L13.2468 4.02429C13.043 3.83063 12.7168 3.84082 12.5232 4.04467C12.3295 4.24852 12.3397 4.57467 12.5436 4.76833L13.7768 5.94045C13.6647 6.15449 13.5424 6.36853 13.4609 6.59276C13.4201 6.70487 13.3589 6.81699 13.3182 6.91891L12.4722 5.87929C12.2989 5.66526 11.9728 5.62449 11.7587 5.80795C11.5447 5.98122 11.5039 6.30737 11.6874 6.52141L12.7882 7.87699C12.5334 8.23373 12.2174 8.55988 11.881 8.83508L11.1166 7.08199C11.0045 6.82718 10.7089 6.70487 10.4439 6.81699C10.1891 6.92911 10.0668 7.23488 10.1789 7.48969L11.0147 9.41604C10.6682 9.5995 10.3012 9.75239 9.91393 9.8645L9.35335 8.08084C9.27181 7.81584 8.98643 7.66296 8.71123 7.74449C8.44623 7.82603 8.29334 8.11142 8.37488 8.38661L8.90489 10.0683C8.44623 10.1397 8.01815 10.2518 7.60027 10.4047L6.80526 8.98796C6.66257 8.74334 6.3568 8.65161 6.11219 8.79431C5.86757 8.937 5.77584 9.24277 5.91853 9.48739L6.67276 10.8328C6.18353 11.108 5.73507 11.4545 5.33756 11.852L4.01256 10.8328C3.78833 10.6595 3.47237 10.7003 3.2991 10.9245C3.12583 11.1487 3.16659 11.4647 3.39083 11.638L4.66487 12.6266C4.34891 13.0445 4.0941 13.5032 3.89025 13.9924L1.77024 13.8395C1.49505 13.8191 1.25043 14.0332 1.23005 14.3084C1.20967 14.5938 1.4237 14.8384 1.6989 14.8588L3.5641 14.9913C3.44179 15.4907 3.38064 16.0105 3.38064 16.5405L0.751008 17.1724C0.475815 17.2438 0.312739 17.519 0.373893 17.784C0.435047 18.0184 0.638892 18.1713 0.873316 18.1713C0.914085 18.1713 0.954857 18.1713 0.995627 18.1611L3.48256 17.5597C3.54371 17.9368 3.63544 18.3038 3.76794 18.6605L1.51543 19.8224C1.26063 19.9549 1.16889 20.2607 1.2912 20.5053C1.38293 20.6786 1.5562 20.7805 1.74986 20.7805C1.8314 20.7805 1.91294 20.7601 1.98428 20.7194L4.18583 19.588C4.37948 19.9447 4.60371 20.2709 4.85852 20.5869L3.07486 22.2584C2.87102 22.4521 2.86083 22.768 3.05448 22.9821C3.1564 23.0942 3.2889 23.1451 3.4214 23.1451C3.54371 23.1451 3.67621 23.1044 3.76794 23.0024L5.5618 21.3207C5.66372 21.4124 5.76564 21.5042 5.87776 21.5959C6.01026 21.6978 6.15295 21.7794 6.28545 21.8711L5.13372 24.1134C5.00122 24.3682 5.10314 24.674 5.35795 24.7963C5.4293 24.8371 5.51083 24.8574 5.59237 24.8574C5.77584 24.8574 5.9593 24.7555 6.05103 24.5823L7.18238 22.3807C7.38623 22.4724 7.59008 22.5744 7.80411 22.6559L7.72257 25.1224C7.72257 25.4078 7.93661 25.6423 8.21181 25.6524H8.23219C8.50738 25.6524 8.73162 25.4384 8.74181 25.1632L8.82335 22.9107C9.1597 22.9719 9.50623 22.9922 9.85277 22.9922L9.97508 25.0613C9.99547 25.3365 10.2197 25.5403 10.4847 25.5403C10.4847 25.5403 10.5051 25.5403 10.5153 25.5403C10.8007 25.5199 11.0147 25.2855 10.9943 25.0001L10.872 22.9209C11.2185 22.8801 11.5549 22.8292 11.8912 22.768L12.3091 24.888C12.3601 25.1326 12.5741 25.2957 12.8086 25.2957C12.8391 25.2957 12.8697 25.2957 12.9105 25.2957C13.1857 25.2448 13.3691 24.9696 13.308 24.6944L12.8799 22.554C13.1245 22.4928 13.3589 22.4317 13.6036 22.3603L14.2355 24.5109C14.2966 24.7351 14.5005 24.8778 14.7247 24.8778C14.7757 24.8778 14.8164 24.8778 14.8674 24.8574C15.1426 24.7759 15.2955 24.5007 15.214 24.2255L14.582 22.0545C14.9489 21.922 15.3159 21.7895 15.6726 21.6367L16.6409 23.7159C16.7224 23.8994 16.9161 24.0115 17.0995 24.0115C17.1709 24.0115 17.2422 24.0013 17.3136 23.9605C17.5684 23.8382 17.6805 23.5426 17.5582 23.2878L16.5899 21.2188C16.8957 21.0659 17.1811 20.913 17.4767 20.7499L18.7609 22.6151C18.8628 22.7578 19.0157 22.8394 19.1788 22.8394C19.2807 22.8394 19.3826 22.8088 19.4642 22.7476C19.6986 22.5846 19.7495 22.2686 19.5967 22.0342L18.3532 20.2199C18.5876 20.067 18.822 19.9142 19.0565 19.7511L20.5038 21.4226C20.6057 21.5347 20.7484 21.5959 20.8911 21.5959C21.0134 21.5959 21.1255 21.5551 21.2274 21.4736C21.4415 21.2901 21.4619 20.964 21.2784 20.7499L19.882 19.1395C20.1063 18.9663 20.3101 18.7726 20.5242 18.5892L21.8084 20.067C21.9103 20.1792 22.053 20.2403 22.1957 20.2403C22.318 20.2403 22.4301 20.1995 22.5321 20.118C22.7461 19.9345 22.7665 19.6084 22.583 19.3943L21.2784 17.8859C21.4924 17.682 21.6963 17.4782 21.8899 17.254L23.4392 18.6197C23.5309 18.7013 23.6532 18.742 23.7755 18.742C23.9182 18.742 24.0609 18.6809 24.1628 18.5688C24.3463 18.3547 24.3259 18.0388 24.1119 17.8451L22.5626 16.4793C22.848 16.1328 23.113 15.7863 23.378 15.4193L24.9171 16.5915C25.0088 16.6628 25.1209 16.6934 25.2228 16.6934C25.3757 16.6934 25.5286 16.622 25.6305 16.4895C25.8038 16.2653 25.7528 15.9493 25.5286 15.7761L23.9386 14.5734C24.1424 14.2574 24.3259 13.9312 24.5094 13.6051L26.1198 14.6039C26.2013 14.6549 26.293 14.6855 26.3848 14.6855C26.558 14.6855 26.7211 14.6039 26.8128 14.4409C26.9657 14.2064 26.8842 13.8905 26.6498 13.7376L24.968 12.6878C25.1209 12.3718 25.2636 12.0559 25.3961 11.7297L27.2103 12.3209C27.2613 12.3412 27.3123 12.3412 27.3734 12.3412C27.5875 12.3412 27.7913 12.2087 27.8626 11.9947C27.9544 11.7297 27.8015 11.4443 27.5365 11.3526L25.763 10.7716C25.8548 10.4862 25.9261 10.2008 25.9669 9.91546L27.6792 10.1193C27.6792 10.1193 27.72 10.1193 27.7403 10.1193C27.9952 10.1193 28.2194 9.92566 28.25 9.67085C28.2805 9.39565 28.0869 9.14085 27.8015 9.11027L26.0586 8.90642C26.0586 8.68219 26.0586 8.45796 26.028 8.23373L27.8728 8.08084C28.148 8.06046 28.3621 7.80565 28.3417 7.53045ZM7.14161 20.0059C6.20391 19.272 5.61276 18.212 5.47007 17.0297C5.17449 14.5836 6.92757 12.3616 9.36354 12.066C12.1257 11.7297 14.4291 9.90527 15.3872 7.30622C15.7949 6.18506 16.6205 5.29833 17.7009 4.79891C18.292 4.52371 18.9342 4.38102 19.5763 4.38102C20.0961 4.38102 20.6159 4.47275 21.1153 4.65621C21.8899 4.9416 22.5626 5.43083 23.0723 6.07295C24.0405 7.30622 24.3055 8.91661 23.7653 10.3843C21.6453 16.1532 16.539 20.1995 10.4337 20.9232C9.25142 21.0659 8.0793 20.7397 7.1518 20.0059H7.14161Z"/>
</mask>
<path d="M28.3417 7.53045C28.3213 7.24507 28.0767 7.05141 27.7913 7.06161L25.865 7.22468C25.8242 7.05141 25.7732 6.88834 25.7121 6.72526L27.4855 5.65506C27.7302 5.51237 27.8015 5.19641 27.6588 4.95179C27.5161 4.70717 27.2001 4.63583 26.9555 4.77852L25.2942 5.77737C25.2126 5.63468 25.1311 5.48179 25.0394 5.34929L26.293 3.98352C26.4867 3.77967 26.4663 3.45352 26.2625 3.25986C26.0586 3.0764 25.7325 3.08659 25.5388 3.29044L24.4074 4.52371C24.1526 4.22813 23.8672 3.96313 23.5615 3.72871L24.3055 1.94505C24.4176 1.69024 24.2953 1.38447 24.0303 1.28255C23.7653 1.17043 23.4698 1.29274 23.3678 1.55774L22.6951 3.15794C22.4301 3.00505 22.1447 2.88274 21.8594 2.77063L21.9919 0.78312C22.0122 0.497735 21.7982 0.263311 21.5128 0.242926C21.2376 0.222541 20.993 0.436581 20.9726 0.711774L20.8503 2.48524C20.5344 2.42409 20.2184 2.37313 19.9024 2.35274L19.5457 0.416196C19.4947 0.141002 19.2297 -0.0424598 18.9545 0.00850197C18.6793 0.0594637 18.4959 0.324465 18.5468 0.599658L18.8832 2.38332C18.5367 2.42409 18.1901 2.48524 17.8538 2.57697L17.0078 0.986967C16.8753 0.742351 16.5695 0.640428 16.3147 0.772928C16.0701 0.905429 15.9682 1.2112 16.1007 1.46601L16.8753 2.92351C16.8753 2.92351 16.8447 2.93371 16.8243 2.9439C16.488 3.09678 16.172 3.30063 15.8765 3.50448L14.9999 2.4139C14.8266 2.19986 14.5005 2.15909 14.2864 2.34255C14.0724 2.51582 14.0316 2.84197 14.2151 3.05601L15.1018 4.1466C14.8164 4.42179 14.5514 4.71737 14.317 5.04352L13.2468 4.02429C13.043 3.83063 12.7168 3.84082 12.5232 4.04467C12.3295 4.24852 12.3397 4.57467 12.5436 4.76833L13.7768 5.94045C13.6647 6.15449 13.5424 6.36853 13.4609 6.59276C13.4201 6.70487 13.3589 6.81699 13.3182 6.91891L12.4722 5.87929C12.2989 5.66526 11.9728 5.62449 11.7587 5.80795C11.5447 5.98122 11.5039 6.30737 11.6874 6.52141L12.7882 7.87699C12.5334 8.23373 12.2174 8.55988 11.881 8.83508L11.1166 7.08199C11.0045 6.82718 10.7089 6.70487 10.4439 6.81699C10.1891 6.92911 10.0668 7.23488 10.1789 7.48969L11.0147 9.41604C10.6682 9.5995 10.3012 9.75239 9.91393 9.8645L9.35335 8.08084C9.27181 7.81584 8.98643 7.66296 8.71123 7.74449C8.44623 7.82603 8.29334 8.11142 8.37488 8.38661L8.90489 10.0683C8.44623 10.1397 8.01815 10.2518 7.60027 10.4047L6.80526 8.98796C6.66257 8.74334 6.3568 8.65161 6.11219 8.79431C5.86757 8.937 5.77584 9.24277 5.91853 9.48739L6.67276 10.8328C6.18353 11.108 5.73507 11.4545 5.33756 11.852L4.01256 10.8328C3.78833 10.6595 3.47237 10.7003 3.2991 10.9245C3.12583 11.1487 3.16659 11.4647 3.39083 11.638L4.66487 12.6266C4.34891 13.0445 4.0941 13.5032 3.89025 13.9924L1.77024 13.8395C1.49505 13.8191 1.25043 14.0332 1.23005 14.3084C1.20967 14.5938 1.4237 14.8384 1.6989 14.8588L3.5641 14.9913C3.44179 15.4907 3.38064 16.0105 3.38064 16.5405L0.751008 17.1724C0.475815 17.2438 0.312739 17.519 0.373893 17.784C0.435047 18.0184 0.638892 18.1713 0.873316 18.1713C0.914085 18.1713 0.954857 18.1713 0.995627 18.1611L3.48256 17.5597C3.54371 17.9368 3.63544 18.3038 3.76794 18.6605L1.51543 19.8224C1.26063 19.9549 1.16889 20.2607 1.2912 20.5053C1.38293 20.6786 1.5562 20.7805 1.74986 20.7805C1.8314 20.7805 1.91294 20.7601 1.98428 20.7194L4.18583 19.588C4.37948 19.9447 4.60371 20.2709 4.85852 20.5869L3.07486 22.2584C2.87102 22.4521 2.86083 22.768 3.05448 22.9821C3.1564 23.0942 3.2889 23.1451 3.4214 23.1451C3.54371 23.1451 3.67621 23.1044 3.76794 23.0024L5.5618 21.3207C5.66372 21.4124 5.76564 21.5042 5.87776 21.5959C6.01026 21.6978 6.15295 21.7794 6.28545 21.8711L5.13372 24.1134C5.00122 24.3682 5.10314 24.674 5.35795 24.7963C5.4293 24.8371 5.51083 24.8574 5.59237 24.8574C5.77584 24.8574 5.9593 24.7555 6.05103 24.5823L7.18238 22.3807C7.38623 22.4724 7.59008 22.5744 7.80411 22.6559L7.72257 25.1224C7.72257 25.4078 7.93661 25.6423 8.21181 25.6524H8.23219C8.50738 25.6524 8.73162 25.4384 8.74181 25.1632L8.82335 22.9107C9.1597 22.9719 9.50623 22.9922 9.85277 22.9922L9.97508 25.0613C9.99547 25.3365 10.2197 25.5403 10.4847 25.5403C10.4847 25.5403 10.5051 25.5403 10.5153 25.5403C10.8007 25.5199 11.0147 25.2855 10.9943 25.0001L10.872 22.9209C11.2185 22.8801 11.5549 22.8292 11.8912 22.768L12.3091 24.888C12.3601 25.1326 12.5741 25.2957 12.8086 25.2957C12.8391 25.2957 12.8697 25.2957 12.9105 25.2957C13.1857 25.2448 13.3691 24.9696 13.308 24.6944L12.8799 22.554C13.1245 22.4928 13.3589 22.4317 13.6036 22.3603L14.2355 24.5109C14.2966 24.7351 14.5005 24.8778 14.7247 24.8778C14.7757 24.8778 14.8164 24.8778 14.8674 24.8574C15.1426 24.7759 15.2955 24.5007 15.214 24.2255L14.582 22.0545C14.9489 21.922 15.3159 21.7895 15.6726 21.6367L16.6409 23.7159C16.7224 23.8994 16.9161 24.0115 17.0995 24.0115C17.1709 24.0115 17.2422 24.0013 17.3136 23.9605C17.5684 23.8382 17.6805 23.5426 17.5582 23.2878L16.5899 21.2188C16.8957 21.0659 17.1811 20.913 17.4767 20.7499L18.7609 22.6151C18.8628 22.7578 19.0157 22.8394 19.1788 22.8394C19.2807 22.8394 19.3826 22.8088 19.4642 22.7476C19.6986 22.5846 19.7495 22.2686 19.5967 22.0342L18.3532 20.2199C18.5876 20.067 18.822 19.9142 19.0565 19.7511L20.5038 21.4226C20.6057 21.5347 20.7484 21.5959 20.8911 21.5959C21.0134 21.5959 21.1255 21.5551 21.2274 21.4736C21.4415 21.2901 21.4619 20.964 21.2784 20.7499L19.882 19.1395C20.1063 18.9663 20.3101 18.7726 20.5242 18.5892L21.8084 20.067C21.9103 20.1792 22.053 20.2403 22.1957 20.2403C22.318 20.2403 22.4301 20.1995 22.5321 20.118C22.7461 19.9345 22.7665 19.6084 22.583 19.3943L21.2784 17.8859C21.4924 17.682 21.6963 17.4782 21.8899 17.254L23.4392 18.6197C23.5309 18.7013 23.6532 18.742 23.7755 18.742C23.9182 18.742 24.0609 18.6809 24.1628 18.5688C24.3463 18.3547 24.3259 18.0388 24.1119 17.8451L22.5626 16.4793C22.848 16.1328 23.113 15.7863 23.378 15.4193L24.9171 16.5915C25.0088 16.6628 25.1209 16.6934 25.2228 16.6934C25.3757 16.6934 25.5286 16.622 25.6305 16.4895C25.8038 16.2653 25.7528 15.9493 25.5286 15.7761L23.9386 14.5734C24.1424 14.2574 24.3259 13.9312 24.5094 13.6051L26.1198 14.6039C26.2013 14.6549 26.293 14.6855 26.3848 14.6855C26.558 14.6855 26.7211 14.6039 26.8128 14.4409C26.9657 14.2064 26.8842 13.8905 26.6498 13.7376L24.968 12.6878C25.1209 12.3718 25.2636 12.0559 25.3961 11.7297L27.2103 12.3209C27.2613 12.3412 27.3123 12.3412 27.3734 12.3412C27.5875 12.3412 27.7913 12.2087 27.8626 11.9947C27.9544 11.7297 27.8015 11.4443 27.5365 11.3526L25.763 10.7716C25.8548 10.4862 25.9261 10.2008 25.9669 9.91546L27.6792 10.1193C27.6792 10.1193 27.72 10.1193 27.7403 10.1193C27.9952 10.1193 28.2194 9.92566 28.25 9.67085C28.2805 9.39565 28.0869 9.14085 27.8015 9.11027L26.0586 8.90642C26.0586 8.68219 26.0586 8.45796 26.028 8.23373L27.8728 8.08084C28.148 8.06046 28.3621 7.80565 28.3417 7.53045ZM7.14161 20.0059C6.20391 19.272 5.61276 18.212 5.47007 17.0297C5.17449 14.5836 6.92757 12.3616 9.36354 12.066C12.1257 11.7297 14.4291 9.90527 15.3872 7.30622C15.7949 6.18506 16.6205 5.29833 17.7009 4.79891C18.292 4.52371 18.9342 4.38102 19.5763 4.38102C20.0961 4.38102 20.6159 4.47275 21.1153 4.65621C21.8899 4.9416 22.5626 5.43083 23.0723 6.07295C24.0405 7.30622 24.3055 8.91661 23.7653 10.3843C21.6453 16.1532 16.539 20.1995 10.4337 20.9232C9.25142 21.0659 8.0793 20.7397 7.1518 20.0059H7.14161Z" stroke="black" stroke-width="2" mask="url(#path-6-inside-1_28894_1412)"/>
</g>
</g>
</g>
</svg>
