<svg xmlns="http://www.w3.org/2000/svg" width="52" height="55" viewBox="0 0 52 55" fill="none">
  <g opacity="0.8">
    <path d="M37.1472 17.217C34.7098 12.2047 29.5686 8.75 23.6204 8.75C15.3182 8.75 8.58789 15.4803 8.58789 23.7825C8.58789 32.0848 15.3182 38.8151 23.6204 38.8151C31.3244 38.8151 37.6747 33.0199 38.55 25.5511" stroke="black" stroke-width="2.12224"/>
    <path fill-rule="evenodd" clip-rule="evenodd" d="M40.8551 10.9141C41.2213 10.9138 41.5639 11.0951 41.7698 11.398L50.6835 24.5103C50.9137 24.8489 50.9378 25.287 50.7463 25.6488C50.5547 26.0107 50.1788 26.237 49.7694 26.237H46.3765C45.7663 38.0685 35.9761 47.4996 23.9714 47.4996C11.5741 47.4996 1.51367 37.4407 1.51367 25.0643C1.51367 24.4539 2.00855 23.959 2.61901 23.959C3.22946 23.959 3.72434 24.4539 3.72434 25.0643C3.72434 36.2183 12.7935 45.2889 23.9714 45.2889C35.1478 45.2889 44.196 36.2198 44.196 25.0643C44.196 24.4539 44.6909 23.959 45.3013 23.959C45.4352 23.959 45.5634 23.9828 45.6822 24.0264H47.6814L40.8569 13.9872L34.0495 24.0264H41.2374C41.8479 24.0264 42.3428 24.5212 42.3428 25.1317C42.3428 25.7422 41.8479 26.237 41.2374 26.237H31.9645C31.5553 26.237 31.1796 26.011 30.9879 25.6494C30.7963 25.2879 30.82 24.85 31.0497 24.5114L39.9409 11.3991C40.1464 11.0959 40.4888 10.9143 40.8551 10.9141Z" fill="black"/>
    <path fill-rule="evenodd" clip-rule="evenodd" d="M4.09811 19.1627C4.66659 19.3852 4.94711 20.0264 4.72466 20.5948L4.32051 21.6277C4.09806 22.1961 3.45688 22.4767 2.88839 22.2542C2.31991 22.0318 2.03939 21.3906 2.26184 20.8221L2.66599 19.7893C2.88844 19.2208 3.52962 18.9403 4.09811 19.1627Z" fill="black"/>
    <path fill-rule="evenodd" clip-rule="evenodd" d="M5.69381 15.1666C6.26229 15.3891 6.54281 16.0303 6.32036 16.5987L5.91621 17.6316C5.69376 18.2 5.05258 18.4806 4.4841 18.2581C3.91561 18.0357 3.6351 17.3945 3.85755 16.826L4.26169 15.7932C4.48414 15.2247 5.12532 14.9442 5.69381 15.1666Z" fill="black"/>
    <path d="M20.6267 28.5893C21.0757 28.9486 22.0188 29.5772 23.3884 29.7119V30.7223C23.3884 31.0142 23.5455 31.1714 23.8823 31.1714H24.017C24.3538 31.1714 24.511 30.9917 24.511 30.6549V29.7119C26.397 29.4874 27.5196 28.1627 27.5196 26.5686C27.5196 22.9986 22.0188 23.4701 22.0188 21.2249C22.0188 20.3492 22.8495 19.5858 24.0395 19.5858C24.96 19.5858 25.6785 19.9675 26.0602 20.237C26.3745 20.4166 26.6215 20.3941 26.8011 20.0798L27.0032 19.6981C27.1604 19.4062 27.1379 19.1592 26.8685 18.9796C26.4419 18.6877 25.6561 18.2387 24.511 18.1713V17.1385C24.511 16.8466 24.3538 16.6895 24.017 16.6895H23.8823C23.5455 16.6895 23.3884 16.8691 23.3884 17.2059V18.1713C21.6146 18.4408 20.4471 19.7205 20.4471 21.2698C20.4471 24.6601 25.9479 24.3009 25.9479 26.6359C25.9479 27.6912 25.0274 28.275 23.9946 28.275C22.8719 28.275 21.9963 27.7361 21.5472 27.3993C21.2554 27.2197 21.0084 27.2197 20.8063 27.4891L20.5593 27.8708C20.3348 28.1178 20.3573 28.3872 20.6267 28.5893Z" fill="black"/>
    <path fill-rule="evenodd" clip-rule="evenodd" d="M23.185 16.5196C23.3773 16.314 23.637 16.2476 23.8812 16.2476H24.0159C24.2451 16.2476 24.4963 16.3004 24.6904 16.4812C24.8905 16.6674 24.952 16.9159 24.952 17.1387V17.7713C25.9805 17.9146 26.7033 18.3322 27.115 18.6136C27.3258 18.7548 27.4875 18.9584 27.5311 19.226C27.5721 19.4783 27.4955 19.7141 27.3921 19.9065L27.1841 20.2995C27.0532 20.5285 26.8517 20.7257 26.5591 20.7788C26.2871 20.8283 26.0358 20.7331 25.8397 20.6211L25.8213 20.6106L25.8041 20.5984C25.4678 20.3611 24.8374 20.0282 24.0383 20.0282C23.0185 20.0282 22.4597 20.6616 22.4597 21.2251C22.4597 21.5627 22.6498 21.8373 23.114 22.132C23.4779 22.3629 23.9303 22.5571 24.4435 22.7774C24.6056 22.847 24.7737 22.9192 24.9471 22.9959C25.6384 23.3021 26.3886 23.6735 26.9644 24.2239C27.5579 24.7911 27.9606 25.543 27.9606 26.5688C27.9606 28.2859 26.8156 29.7099 24.952 30.0887V30.6552C24.952 30.8844 24.8991 31.1418 24.712 31.3417C24.5198 31.5473 24.26 31.6137 24.0159 31.6137H23.8812C23.6519 31.6137 23.4007 31.5608 23.2066 31.3801C23.0066 31.1939 22.9451 30.9454 22.9451 30.7225V30.0988C21.6793 29.8837 20.7979 29.2928 20.3542 28.9387C20.153 28.7859 19.9917 28.5663 19.9663 28.2872C19.9421 28.0211 20.0492 27.7862 20.2045 27.6038L20.4423 27.2363L20.4514 27.2241C20.6073 27.0163 20.8237 26.861 21.1019 26.8358C21.3604 26.8123 21.593 26.9093 21.7778 27.023L21.7951 27.0337L21.8114 27.0459C22.2288 27.3589 23.0105 27.8331 23.9934 27.8331C24.4319 27.8331 24.8196 27.7084 25.0869 27.5017C25.3436 27.3032 25.5047 27.0199 25.5047 26.6362C25.5047 26.2653 25.3012 25.9668 24.8401 25.656C24.4553 25.3966 23.9667 25.1783 23.4145 24.9317C23.2841 24.8734 23.1502 24.8136 23.0132 24.7512C22.3253 24.4382 21.5778 24.0675 21.0043 23.5342C20.413 22.9843 20.0038 22.2588 20.0038 21.27C20.0038 19.5869 21.1931 18.221 22.9451 17.8071V17.2061C22.9451 16.9769 22.9979 16.7195 23.185 16.5196ZM20.6255 28.5895L20.9017 28.2443C21.3129 28.5732 22.1767 29.1488 23.4305 29.2722L23.8293 29.3114V30.7225C23.8293 30.7241 23.8293 30.7255 23.8294 30.7269C23.8428 30.7284 23.8599 30.7295 23.8812 30.7295H24.0159C24.036 30.7295 24.0512 30.7283 24.0624 30.7268C24.0652 30.7111 24.0677 30.6878 24.0677 30.6552V29.3196L24.4576 29.2731C26.1371 29.0732 27.0763 27.9233 27.0763 26.5688C27.0763 25.8096 26.7914 25.2817 26.3535 24.8631C25.8979 24.4277 25.2729 24.1073 24.589 23.8045C24.4438 23.7402 24.2942 23.676 24.1432 23.6113C23.615 23.3849 23.07 23.1513 22.6402 22.8785C22.073 22.5186 21.5755 22.0102 21.5755 21.2251C21.5755 20.0373 22.6782 19.1439 24.0383 19.1439C25.0646 19.1439 25.8625 19.5616 26.2944 19.8623C26.337 19.8854 26.3678 19.8974 26.3882 19.9033C26.3947 19.8949 26.4032 19.8828 26.4131 19.8659L26.6128 19.4887C26.6459 19.4272 26.6547 19.3911 26.6571 19.3753C26.6511 19.3694 26.6403 19.3599 26.6221 19.3477L26.6177 19.3448C26.2291 19.0789 25.5205 18.6739 24.4839 18.6129L24.0677 18.5885V17.1387C24.0677 17.1372 24.0677 17.1358 24.0677 17.1343C24.0542 17.1329 24.0371 17.1318 24.0159 17.1318H23.8812C23.8611 17.1318 23.8458 17.133 23.8346 17.1345C23.8318 17.1502 23.8293 17.1735 23.8293 17.2061V18.5516L23.4536 18.6087C21.8615 18.8505 20.888 19.9724 20.888 21.27C20.888 21.9764 21.1664 22.4773 21.6065 22.8866C22.0645 23.3125 22.6922 23.6336 23.3795 23.9464C23.4987 24.0007 23.6206 24.055 23.7436 24.1098C24.3 24.3578 24.8793 24.616 25.3344 24.9228C25.9048 25.3073 26.3889 25.8395 26.3889 26.6362C26.3889 27.3077 26.0897 27.844 25.6279 28.2012C25.1767 28.5501 24.5877 28.7173 23.9934 28.7173C22.7469 28.7173 21.7858 28.1288 21.2991 27.7669C21.2565 27.7419 21.225 27.7286 21.2037 27.7219C21.1985 27.7203 21.1942 27.7192 21.1907 27.7184C21.1851 27.7235 21.1769 27.7318 21.1665 27.7448L20.9097 28.1417L20.8853 28.1685C20.8713 28.1839 20.8621 28.1964 20.8561 28.2057C20.8636 28.2135 20.8747 28.2238 20.8908 28.2358L20.6255 28.5895Z" fill="black"/>
  </g>
</svg>