<svg xmlns="http://www.w3.org/2000/svg" width="60" height="56" viewBox="0 0 60 56" fill="none">
  <path d="M24.7846 37.8958C25.7325 38.6539 27.7235 39.981 30.6146 40.2653V42.3983C30.6146 43.0145 30.9463 43.3462 31.6573 43.3462H31.9417C32.6527 43.3462 32.9845 42.967 32.9845 42.256V40.2653C36.9658 39.7916 39.3356 36.995 39.3356 33.6298C39.3356 26.0939 27.7235 27.0892 27.7235 22.3495C27.7235 20.5011 29.4769 18.8897 31.9891 18.8897C33.9323 18.8897 35.4489 19.6952 36.2548 20.2639C36.9183 20.6431 37.4395 20.5957 37.8188 19.9321L38.2454 19.1266C38.5772 18.5105 38.5297 17.9889 37.9611 17.6097C37.0607 16.9936 35.4014 16.0457 32.9845 15.9034V13.7233C32.9845 13.1072 32.6527 12.7754 31.9417 12.7754H31.6573C30.9463 12.7754 30.6146 13.1546 30.6146 13.8656V15.9034C26.8701 16.4724 24.4054 19.174 24.4054 22.4443C24.4054 29.6011 36.0179 28.843 36.0179 33.7722C36.0179 35.9997 34.0743 37.2323 31.8942 37.2323C29.5244 37.2323 27.676 36.0946 26.7282 35.3836C26.1117 35.0044 25.5905 35.0044 25.1638 35.573L24.6426 36.3789C24.1685 36.9005 24.2159 37.4692 24.7846 37.8958Z" fill="black"/>
  <path d="M6.39941 28.1347C6.39941 42.2732 17.8609 53.7347 31.9994 53.7347C46.1379 53.7347 57.5994 42.2732 57.5994 28.1347C57.5994 13.9962 46.1379 2.53467 31.9994 2.53467" stroke="black" stroke-width="3.2"/>
  <path d="M6.44907 29.7346L7.47113 29.6716L6.44907 29.7346ZM6.39941 21.7346L0.551023 32.0111L12.3749 31.9377L6.39941 21.7346ZM31.9999 52.7106C18.9432 52.7106 8.26395 42.5281 7.47113 29.6716L5.42701 29.7976C6.28602 43.7275 17.8543 54.7586 31.9999 54.7586V52.7106Z" fill="black"/>
  <path d="M31.999 2.53467C20.5498 2.53467 9.67246 11.2343 6.39902 21.6015" stroke="black" stroke-width="1.6" stroke-dasharray="2.05 2.05"/>
</svg>