<svg xmlns="http://www.w3.org/2000/svg" width="42" height="42" viewBox="0 0 42 42" fill="none">
  <g clip-path="url(#clip0_24345_7973)">
    <path d="M30.5499 21.0093C29.5098 26.2345 24.9369 30.1702 19.4533 30.1702C13.2022 30.1702 8.13477 25.0559 8.13477 18.7471C8.13477 12.4383 13.2022 7.32397 19.4533 7.32397C23.8679 7.32397 28.0373 10.5001 29.9033 14.2209" stroke="black" stroke-width="2.2"/>
    <path d="M33.9429 20.4136H26.2729L33.6271 9.56787L41 20.4136H37.36M37.3043 20.3579C37.3043 30.0893 29.4114 38.0007 19.6614 38.0007M19.6614 38.0007C9.91143 38.0007 2 30.0893 2 20.3579" stroke="black" stroke-width="1.82853" stroke-miterlimit="2.61313" stroke-linecap="round" stroke-linejoin="round"/>
    <path d="M2.56055 17.179L2.89483 16.3247" stroke="black" stroke-width="1.82853" stroke-miterlimit="2.61313" stroke-linecap="round" stroke-linejoin="round"/>
    <path d="M3.87402 13.8765L4.20831 13.0222" stroke="black" stroke-width="1.82853" stroke-miterlimit="2.61313" stroke-linecap="round" stroke-linejoin="round"/>
    <path d="M16.8903 22.3192C17.2618 22.6163 18.0418 23.1363 19.1746 23.2477V24.0835C19.1746 24.3249 19.3046 24.4549 19.5832 24.4549H19.6946C19.9732 24.4549 20.1032 24.3063 20.1032 24.0277V23.2477C21.6632 23.062 22.5918 21.9663 22.5918 20.6477C22.5918 17.6949 18.0418 18.0849 18.0418 16.2277C18.0418 15.5035 18.7289 14.872 19.7132 14.872C20.4746 14.872 21.0689 15.1877 21.3846 15.4106C21.6446 15.5592 21.8489 15.5406 21.9975 15.2806L22.1646 14.9649C22.2946 14.7235 22.2761 14.5192 22.0532 14.3706C21.7003 14.1292 21.0503 13.7577 20.1032 13.702V12.8477C20.1032 12.6063 19.9732 12.4763 19.6946 12.4763H19.5832C19.3046 12.4763 19.1746 12.6249 19.1746 12.9035V13.702C17.7075 13.9249 16.7418 14.9835 16.7418 16.2649C16.7418 19.0692 21.2918 18.772 21.2918 20.7035C21.2918 21.5763 20.5303 22.0592 19.6761 22.0592C18.7475 22.0592 18.0232 21.6135 17.6518 21.3349C17.4103 21.1863 17.2061 21.1863 17.0389 21.4092L16.8346 21.7249C16.6489 21.9292 16.6675 22.152 16.8903 22.3192Z" fill="black" stroke="black" stroke-width="0.731413"/>
  </g>
  <defs>
    <clipPath id="clip0_24345_7973">
      <rect width="42" height="42" fill="white"/>
    </clipPath>
  </defs>
</svg>