<svg xmlns="http://www.w3.org/2000/svg" width="14" height="13" viewBox="0 0 14 13" fill="none">
  <path d="M5.59686 8.73675C5.81408 8.91048 6.27035 9.2146 6.93289 9.27976V9.76857C6.93289 9.90977 7.00892 9.9858 7.17186 9.9858H7.23702C7.39996 9.9858 7.47599 9.89889 7.47599 9.73596V9.27976C8.38837 9.17119 8.93147 8.53032 8.93147 7.75912C8.93147 6.03213 6.27035 6.26023 6.27035 5.17404C6.27035 4.75046 6.67218 4.38118 7.24789 4.38118C7.69321 4.38118 8.04075 4.56578 8.22544 4.6961C8.3775 4.783 8.49695 4.77213 8.58385 4.62007L8.68163 4.43546C8.75766 4.29427 8.74679 4.17475 8.61647 4.08784C8.41012 3.94665 8.02988 3.72943 7.47599 3.69681V3.1972C7.47599 3.05601 7.39996 2.97998 7.23702 2.97998H7.17186C7.00892 2.97998 6.93289 3.06689 6.93289 3.22982V3.69681C6.0748 3.82721 5.50995 4.44633 5.50995 5.19578C5.50995 6.83587 8.17115 6.66213 8.17115 7.79174C8.17115 8.30222 7.72575 8.58468 7.22615 8.58468C6.68305 8.58468 6.25948 8.32397 6.04225 8.16103C5.90099 8.07412 5.78154 8.07413 5.68376 8.20444L5.56432 8.38913C5.45567 8.50865 5.46654 8.63897 5.59686 8.73675Z" fill="black"/>
  <path d="M1.38379 6.49997C1.38379 9.74004 4.01039 12.3666 7.25046 12.3666C10.4905 12.3666 13.1171 9.74004 13.1171 6.49997C13.1171 3.2599 10.4905 0.633301 7.25046 0.633301" stroke="black" stroke-width="0.733333"/>
  <path d="M1.39517 6.86654L1.16095 6.88098L1.39517 6.86654ZM1.38379 5.0332L0.0435326 7.38823L2.75318 7.37142L1.38379 5.0332ZM7.25056 12.1319C4.2584 12.1319 1.81108 9.79837 1.62939 6.85209L1.16095 6.88098C1.3578 10.0732 4.00887 12.6012 7.25056 12.6012V12.1319Z" fill="black"/>
  <path d="M7.25 0.633301C4.62621 0.633301 2.1335 2.62696 1.38333 5.00278" stroke="black" stroke-width="0.366667" stroke-dasharray="0.47 0.47"/>
</svg>