<svg width="41" height="41" viewBox="0 0 41 41" fill="none" xmlns="http://www.w3.org/2000/svg">
<g opacity="0.8">
<path d="M27.9085 13.1811C26.2731 9.81797 22.8235 7.5 18.8324 7.5C13.2619 7.5 8.74609 12.0158 8.74609 17.5863C8.74609 23.1569 13.2619 27.6727 18.8324 27.6727C24.0015 27.6727 28.2624 23.7843 28.8497 18.773" stroke="black" stroke-width="1.42396"/>
<path fill-rule="evenodd" clip-rule="evenodd" d="M30.3968 8.95215C30.6426 8.952 30.8724 9.07361 31.0106 9.27684L36.9914 18.0748C37.1458 18.302 37.162 18.5959 37.0335 18.8387C36.905 19.0815 36.6527 19.2334 36.378 19.2334H34.1015C33.6921 27.1719 27.1232 33.4999 19.0684 33.4999C10.7502 33.4999 4 26.7507 4 18.4465C4 18.0369 4.33204 17.7049 4.74164 17.7049C5.15124 17.7049 5.48329 18.0369 5.48329 18.4465C5.48329 25.9304 11.5684 32.0166 19.0684 32.0166C26.5674 32.0166 32.6385 25.9315 32.6385 18.4465C32.6385 18.0369 32.9705 17.7049 33.3801 17.7049C33.4699 17.7049 33.556 17.7208 33.6356 17.7501H34.9771L30.398 11.0141L25.8305 17.7501H30.6533C31.0629 17.7501 31.395 18.0821 31.395 18.4917C31.395 18.9013 31.0629 19.2334 30.6533 19.2334H24.4315C24.157 19.2334 23.9049 19.0817 23.7763 18.8391C23.6477 18.5965 23.6636 18.3027 23.8177 18.0755L29.7834 9.27756C29.9213 9.07416 30.1511 8.95229 30.3968 8.95215Z" fill="black"/>
<path fill-rule="evenodd" clip-rule="evenodd" d="M5.73639 14.4858C6.11783 14.635 6.30604 15.0652 6.15679 15.4467L5.88562 16.1397C5.73636 16.5211 5.30615 16.7093 4.92471 16.56C4.54328 16.4108 4.35506 15.9806 4.50432 15.5991L4.77549 14.9062C4.92474 14.5247 5.35495 14.3365 5.73639 14.4858Z" fill="black"/>
<path fill-rule="evenodd" clip-rule="evenodd" d="M6.8028 11.8061C7.18423 11.9553 7.37245 12.3855 7.22319 12.767L6.95202 13.46C6.80277 13.8414 6.37255 14.0296 5.99112 13.8804C5.60968 13.7311 5.42147 13.3009 5.57072 12.9195L5.84189 12.2265C5.99115 11.845 6.42136 11.6568 6.8028 11.8061Z" fill="black"/>
<path d="M16.8237 20.8116C17.125 21.0526 17.7577 21.4744 18.6767 21.5648V22.2427C18.6767 22.4386 18.7821 22.544 19.0081 22.544H19.0985C19.3245 22.544 19.4299 22.4235 19.4299 22.1975V21.5648C20.6954 21.4142 21.4486 20.5253 21.4486 19.4557C21.4486 17.0604 17.7577 17.3768 17.7577 15.8703C17.7577 15.2827 18.3151 14.7705 19.1136 14.7705C19.7312 14.7705 20.2133 15.0266 20.4694 15.2074C20.6803 15.3279 20.846 15.3129 20.9666 15.102L21.1021 14.8459C21.2076 14.65 21.1925 14.4843 21.0117 14.3638C20.7255 14.1679 20.1982 13.8666 19.4299 13.8214V13.1284C19.4299 12.9326 19.3245 12.8271 19.0985 12.8271H19.0081C18.7821 12.8271 18.6767 12.9477 18.6767 13.1736V13.8214C17.4865 14.0022 16.7032 14.8609 16.7032 15.9004C16.7032 18.1752 20.3941 17.9342 20.3941 19.5009C20.3941 20.209 19.7764 20.6007 19.0834 20.6007C18.3302 20.6007 17.7427 20.2391 17.4414 20.0131C17.2455 19.8926 17.0798 19.8926 16.9442 20.0734L16.7785 20.3295C16.6278 20.4952 16.6429 20.676 16.8237 20.8116Z" fill="black"/>
<path fill-rule="evenodd" clip-rule="evenodd" d="M18.5447 12.7147C18.6737 12.5768 18.848 12.5322 19.0118 12.5322H19.1022C19.2561 12.5322 19.4246 12.5677 19.5548 12.689C19.689 12.8139 19.7303 12.9807 19.7303 13.1302V13.5546C20.4204 13.6507 20.9054 13.9309 21.1817 14.1198C21.3231 14.2145 21.4316 14.3511 21.4608 14.5306C21.4884 14.7 21.4369 14.8581 21.3676 14.9872L21.228 15.2509C21.1402 15.4046 21.005 15.5369 20.8087 15.5726C20.6261 15.6058 20.4575 15.5419 20.326 15.4667L20.3136 15.4597L20.3021 15.4515C20.0765 15.2923 19.6535 15.0689 19.1173 15.0689C18.433 15.0689 18.0581 15.4939 18.0581 15.872C18.0581 16.0985 18.1856 16.2828 18.4971 16.4805C18.7413 16.6354 19.0448 16.7657 19.3892 16.9136C19.4979 16.9602 19.6107 17.0087 19.727 17.0602C20.1909 17.2656 20.6943 17.5148 21.0806 17.8841C21.4788 18.2647 21.749 18.7692 21.749 19.4575C21.749 20.6095 20.9807 21.565 19.7303 21.8192V22.1993C19.7303 22.3531 19.6948 22.5258 19.5693 22.6599C19.4403 22.7978 19.266 22.8424 19.1022 22.8424H19.0118C18.858 22.8424 18.6895 22.8069 18.5592 22.6857C18.425 22.5607 18.3838 22.394 18.3838 22.2445V21.826C17.5345 21.6816 16.9431 21.2852 16.6454 21.0476C16.5104 20.945 16.4021 20.7977 16.3851 20.6104C16.3689 20.4319 16.4408 20.2743 16.5449 20.1519L16.7045 19.9053L16.7106 19.8971C16.8152 19.7577 16.9604 19.6535 17.1471 19.6366C17.3205 19.6208 17.4765 19.6859 17.6006 19.7622L17.6122 19.7694L17.6231 19.7775C17.9032 19.9876 18.4276 20.3057 19.0872 20.3057C19.3814 20.3057 19.6415 20.2221 19.8209 20.0834C19.9931 19.9502 20.1012 19.7601 20.1012 19.5027C20.1012 19.2538 19.9647 19.0535 19.6553 18.845C19.3971 18.6709 19.0692 18.5245 18.6987 18.359C18.6113 18.3199 18.5214 18.2797 18.4295 18.2379C17.9679 18.0279 17.4664 17.7791 17.0816 17.4213C16.6849 17.0524 16.4102 16.5655 16.4102 15.9021C16.4102 14.7728 17.2083 13.8564 18.3838 13.5786V13.1754C18.3838 13.0216 18.4192 12.8489 18.5447 12.7147ZM16.8274 20.8133L17.0127 20.5817C17.2886 20.8024 17.8682 21.1886 18.7094 21.2713L18.9771 21.2976V22.2445C18.9771 22.2455 18.9771 22.2465 18.9771 22.2474C18.9861 22.2484 18.9976 22.2491 19.0118 22.2491H19.1022C19.1157 22.2491 19.126 22.2483 19.1335 22.2473C19.1353 22.2368 19.137 22.2212 19.137 22.1993V21.3031L19.3986 21.272C20.5255 21.1378 21.1557 20.3663 21.1557 19.4575C21.1557 18.9481 20.9645 18.5939 20.6707 18.313C20.365 18.0208 19.9456 17.8059 19.4868 17.6027C19.3894 17.5595 19.289 17.5165 19.1877 17.4731C18.8332 17.3212 18.4676 17.1644 18.1792 16.9814C17.7986 16.7399 17.4648 16.3988 17.4648 15.872C17.4648 15.075 18.2047 14.4756 19.1173 14.4756C19.8059 14.4756 20.3413 14.7558 20.6311 14.9576C20.6596 14.9731 20.6803 14.9812 20.694 14.9851C20.6984 14.9795 20.704 14.9714 20.7107 14.96L20.8447 14.7069C20.8669 14.6657 20.8728 14.6415 20.8744 14.6309C20.8704 14.6269 20.8631 14.6205 20.8509 14.6123L20.8479 14.6104C20.5873 14.432 20.1118 14.1602 19.4162 14.1193L19.137 14.1029V13.1302C19.137 13.1292 19.137 13.1282 19.137 13.1272C19.128 13.1263 19.1165 13.1255 19.1022 13.1255H19.0118C18.9984 13.1255 18.9881 13.1263 18.9806 13.1273C18.9787 13.1378 18.9771 13.1535 18.9771 13.1754V14.0782L18.725 14.1165C17.6567 14.2787 17.0036 15.0315 17.0036 15.9021C17.0036 16.3761 17.1903 16.7122 17.4856 16.9868C17.7929 17.2726 18.2141 17.488 18.6752 17.6979C18.7552 17.7343 18.837 17.7708 18.9196 17.8075C19.2929 17.9739 19.6816 18.1472 19.9869 18.353C20.3696 18.611 20.6945 18.9681 20.6945 19.5027C20.6945 19.9532 20.4937 20.3131 20.1839 20.5527C19.8811 20.7868 19.4859 20.8991 19.0872 20.8991C18.2508 20.8991 17.6059 20.5041 17.2793 20.2613C17.2508 20.2446 17.2296 20.2356 17.2154 20.2312C17.2119 20.2301 17.209 20.2293 17.2067 20.2288C17.2029 20.2322 17.1974 20.2378 17.1904 20.2465L17.0181 20.5128L17.0017 20.5308C16.9923 20.5411 16.9861 20.5495 16.9821 20.5558C16.9872 20.561 16.9946 20.5679 17.0054 20.576L16.8274 20.8133Z" fill="black"/>
</g>
</svg>
