<svg xmlns="http://www.w3.org/2000/svg" width="23" height="35"
                                            viewBox="0 0 23 21" fill="none">
                                            <path
                                                d="M22.1575 11.8172L22.1575 11.8173L19.0428 18.8191C19.0428 18.8191 19.0428 18.8192 19.0427 18.8192C18.7988 19.367 18.2338 19.7334 17.5964 19.7334H8.28444C7.39969 19.7334 6.71333 19.0459 6.71333 18.2334V8.24121C6.71333 7.84949 6.87378 7.47114 7.16588 7.18831L13.6392 0.926105L14.1874 1.44713C14.5698 1.81107 14.7283 2.3326 14.6168 2.82646L13.646 7.12321L13.5081 7.7334H14.1337H20.7111C21.5959 7.7334 22.2822 8.42086 22.2822 9.2334V11.2314C22.2822 11.4323 22.2399 11.6321 22.1575 11.8172ZM0.5 19.7334V8.7334H3.64222V19.7334H0.5Z"
                                                stroke="black" />
                                        </svg>