<svg width="32" height="34" viewBox="0 0 32 34" fill="none" xmlns="http://www.w3.org/2000/svg">
<path d="M31.3975 24.7606C31.2225 24.55 30.9306 24.4781 30.68 24.5825C28.7931 25.3569 26.7981 25.75 24.75 25.75C16.1344 25.75 9.125 18.7406 9.125 10.125C9.125 7.12123 9.98375 4.20061 11.6081 1.67811C11.7556 1.44873 11.7375 1.14936 11.5631 0.939984C11.3881 0.730609 11.0975 0.657484 10.8456 0.761859C4.485 3.37311 0.375 9.50186 0.375 16.375C0.375 25.68 7.945 33.25 17.25 33.25C23.0112 33.25 28.3162 30.3525 31.4425 25.4987C31.59 25.2687 31.5719 24.9706 31.3975 24.7606ZM17.25 32C8.63437 32 1.625 24.9906 1.625 16.375C1.625 10.6687 4.685 5.51623 9.56375 2.76873C8.45438 5.05248 7.875 7.56061 7.875 10.125C7.875 19.43 15.445 27 24.75 27C26.2794 27 27.7812 26.7975 29.2363 26.395C26.2831 29.9356 21.9287 32 17.25 32Z" fill="black"/>
<path d="M14.7503 4.5H17.2503L14.2503 8.5C14.1078 8.68937 14.0853 8.9425 14.1909 9.15438C14.2965 9.36625 14.5134 9.5 14.7503 9.5H18.5003C18.8459 9.5 19.1253 9.22 19.1253 8.875C19.1253 8.53 18.8459 8.25 18.5003 8.25H16.0003L19.0003 4.25C19.1428 4.06063 19.1653 3.8075 19.0596 3.59563C18.9534 3.38375 18.7371 3.25 18.5003 3.25H14.7503C14.4053 3.25 14.1253 3.53 14.1253 3.875C14.1253 4.22 14.4053 4.5 14.7503 4.5Z" fill="black"/>
<path d="M21 8.25H22.3325L20.48 11.0281C20.3525 11.22 20.34 11.4663 20.4488 11.6694C20.5575 11.8725 20.7694 12 21 12H23.5C23.8456 12 24.125 11.72 24.125 11.375C24.125 11.03 23.8456 10.75 23.5 10.75H22.1675L24.02 7.97188C24.1475 7.78 24.16 7.53375 24.0512 7.33062C23.9425 7.1275 23.7306 7 23.5 7H21C20.6544 7 20.375 7.28 20.375 7.625C20.375 7.97 20.6544 8.25 21 8.25Z" fill="black"/>
<path d="M16.7181 15.4537C16.8325 15.6375 17.0331 15.75 17.25 15.75H18.5C18.8456 15.75 19.125 15.47 19.125 15.125C19.125 14.78 18.8456 14.5 18.5 14.5H18.2613L19.0588 12.9044C19.1556 12.7106 19.1456 12.4806 19.0312 12.2963C18.9175 12.1125 18.7169 12 18.5 12H17.25C16.9044 12 16.625 12.28 16.625 12.625C16.625 12.97 16.9044 13.25 17.25 13.25H17.4887L16.6912 14.8456C16.5944 15.0394 16.6044 15.2694 16.7181 15.4537Z" fill="black"/>
</svg>
