<svg xmlns="http://www.w3.org/2000/svg" width="73" height="73" viewBox="0 0 73 73" fill="none">
  <circle cx="36.4285" cy="36.4285" r="33.5641" fill="white" stroke="#C7E7DC" stroke-width="5.72883"/>
  <path d="M29.4977 30.0194C19.5514 28.2563 18.1749 36.5574 18.7299 40.9283C21.9269 35.4622 25.1683 36.3005 26.3894 37.4029L35.9361 45.9978C37.0462 44.9326 40.1322 41.9648 43.5956 38.615C47.0591 35.2652 46.3708 34.9787 46.4818 33.7666C46.3708 32.4443 45.7048 30.9016 43.5956 30.0194C41.6866 29.2208 37.7492 32.0765 35.9361 33.7666C34.3376 31.8272 30.9778 30.4604 29.4977 30.0194Z" fill="#C7E7DC"/>
  <path d="M21.629 39.5392C19.4979 41.4917 20.5931 44.1245 21.407 45.1969L36.1692 59.3973L52.0414 43.2006C53.4843 40.76 54.0837 37.7647 52.9294 34.6585C51.775 31.5523 47.7866 30.1102 45.9367 29.7773C46.1217 29.9622 46.7581 30.8201 47.8236 32.7726C48.8892 34.7251 47.8236 36.9882 47.2687 37.6538L36.1692 47.8599L27.0677 39.9829C26.1428 39.0215 23.7601 37.5867 21.629 39.5392Z" fill="#C7E7DC"/>
  <ellipse cx="29.7369" cy="23.0778" rx="4.76034" ry="4.93665" fill="#C7E7DC"/>
  <circle cx="43.6632" cy="23.0778" r="4.93665" fill="#C7E7DC"/>
</svg>