<svg xmlns="http://www.w3.org/2000/svg" width="40" height="49" viewBox="0 0 40 49" fill="none">
  <g clip-path="url(#clip0_24596_1472)">
    <path fill-rule="evenodd" clip-rule="evenodd" d="M0.613255 20.7814C0.613255 20.7814 -0.446349 44.7262 16.8153 36.902C24.67 19.7206 0.613255 20.7814 0.613255 20.7814V20.7814Z" stroke="black" stroke-miterlimit="2.61313" stroke-linecap="round" stroke-linejoin="round"/>
    <path d="M19.9999 40.0721L8.71387 28.8447" stroke="black" stroke-miterlimit="2.61313" stroke-linecap="round" stroke-linejoin="round"/>
    <path fill-rule="evenodd" clip-rule="evenodd" d="M39.3876 20.7814C39.3876 20.7814 40.4472 44.7262 23.1855 36.902C15.3247 19.7206 39.3876 20.7814 39.3876 20.7814V20.7814Z" stroke="black" stroke-miterlimit="2.61313" stroke-linecap="round" stroke-linejoin="round"/>
    <path d="M31.286 28.8386L20 40.0721V47.6388" stroke="black" stroke-miterlimit="2.61313" stroke-linecap="round" stroke-linejoin="round"/>
    <path fill-rule="evenodd" clip-rule="evenodd" d="M26.6349 13.8525C26.6472 14.0058 26.6533 14.1591 26.6533 14.3124C26.6533 17.9669 23.6717 20.9286 20 20.9286C16.3284 20.9286 13.3467 17.9669 13.3467 14.3124C13.3467 14.1591 13.3528 14.0058 13.3652 13.8525C13.3652 13.8525 12.9278 11.0012 20 0.754883C27.0414 10.9583 26.6349 13.828 26.6349 13.8525V13.8525Z" stroke="black" stroke-miterlimit="2.61313" stroke-linecap="round" stroke-linejoin="round"/>
    <path d="M20.4012 17.9303C18.0171 17.9303 16.0889 16.0049 16.0889 13.6318" stroke="black" stroke-miterlimit="2.61313" stroke-linecap="round" stroke-linejoin="round"/>
  </g>
  <defs>
    <clipPath id="clip0_24596_1472">
      <rect width="40" height="48" fill="white" transform="translate(0 0.196777)"/>
    </clipPath>
  </defs>
</svg>