<svg xmlns="http://www.w3.org/2000/svg" width="49" height="32" viewBox="0 0 49 32" fill="none">
  <rect x="25" y="21" width="24" height="11" rx="3.32353" fill="#C7E7DC"/>
  <path d="M43 17H31C29.3431 17 28 18.3431 28 20H46C46 18.3431 44.6569 17 43 17Z" fill="#C7E7DC"/>
  <path fill-rule="evenodd" clip-rule="evenodd" d="M1 14.769H9.30884V30.4011C9.30884 30.9428 8.80519 31.3867 8.18448 31.3867H2.12436C1.50365 31.3867 1 30.9428 1 30.4011V14.769Z" fill="#C7E7DC" stroke="white" stroke-width="0.830884" stroke-miterlimit="2.61313" stroke-linecap="round" stroke-linejoin="round"/>
  <path d="M9.30884 11.4458H1V14.7693H9.30884V11.4458Z" fill="#C7E7DC" stroke="white" stroke-width="0.830884" stroke-miterlimit="2.61313" stroke-linecap="round" stroke-linejoin="round"/>
  <path d="M8.38692 7.32715H1.77344V11.3733H8.38692V7.32715Z" fill="#C7E7DC" stroke="white" stroke-width="0.830884" stroke-miterlimit="2.61313" stroke-linecap="round" stroke-linejoin="round"/>
  <path d="M9.13087 3.13672H2.59375V7.32731H7.57325V4.66078H9.13087V3.13672Z" fill="#C7E7DC" stroke="white" stroke-width="0.830884" stroke-miterlimit="2.61313" stroke-linecap="round" stroke-linejoin="round"/>
  <path d="M16.9936 1.02422H19.7042H23.3747C24.0291 0.904784 25.2792 1.16755 25.0436 3.17413L23.3747 25.2106C23.3506 25.4518 23.0866 25.8702 22.2948 26.0754V31.0333H19.4096H17.2881H14.4029V26.0754C13.6111 25.8702 13.3471 25.4518 13.3231 25.2106L11.6542 3.17413C11.4185 1.16755 12.6686 0.904784 13.3231 1.02422H16.9936Z" fill="#C7E7DC"/>
  <path d="M19.7042 1.02422H13.3231C12.6686 0.904784 11.4185 1.16755 11.6542 3.17413L13.3231 25.2106C13.3471 25.4518 13.6111 25.8702 14.4029 26.0754M19.4096 26.196H15.4828C15.0447 26.196 14.6893 26.1496 14.4029 26.0754M14.4029 26.0754V31.0333H19.4096M16.9936 1.02422H23.3747C24.0291 0.904784 25.2792 1.16755 25.0436 3.17413L23.3747 25.2106C23.3506 25.4518 23.0866 25.8702 22.2948 26.0754M17.2881 26.196H21.2149C21.653 26.196 22.0084 26.1496 22.2948 26.0754M22.2948 26.0754V31.0333H17.2881" stroke="white" stroke-width="0.830884"/>
  <path d="M16.7109 29.4648H19.9608" stroke="white" stroke-width="0.830884"/>
</svg>