  <svg xmlns="http://www.w3.org/2000/svg" width="75" height="65"
                                            viewBox="0 0 75 65" fill="none">
                                            <path
                                                d="M25.2184 16.1575C25.9582 16.1575 26.5579 15.5521 26.5579 14.8053C26.5579 14.0585 25.9582 13.4531 25.2184 13.4531C24.4786 13.4531 23.8789 14.0585 23.8789 14.8053C23.8789 15.5521 24.4786 16.1575 25.2184 16.1575Z"
                                                fill="black" />
                                            <path
                                                d="M24.295 14.6554C24.5788 14.6554 24.8088 14.4232 24.8088 14.1368C24.8088 13.8504 24.5788 13.6182 24.295 13.6182C24.0113 13.6182 23.7812 13.8504 23.7812 14.1368C23.7812 14.4232 24.0113 14.6554 24.295 14.6554Z"
                                                fill="white" />
                                            <path fill-rule="evenodd" clip-rule="evenodd"
                                                d="M30.5476 16.4962C32.0559 16.2777 28.364 14.0401 28.1842 13.9105C27.3658 13.3177 26.2796 12.9547 25.1236 12.8954C22.5033 12.7583 21.3987 13.8512 19.5234 15.333C19.5234 15.333 20.217 15.233 20.973 16.0739C21.729 16.9149 24.6282 17.9188 27.1493 17.2964C29.6705 16.6741 30.5476 16.4925 30.5476 16.4925V16.4962Z"
                                                stroke="black" stroke-miterlimit="2.61313" stroke-linecap="round"
                                                stroke-linejoin="round" />
                                            <mask id="mask0_12198_2529" style="mask-type:alpha"
                                                maskUnits="userSpaceOnUse" x="22" y="11" width="7" height="7">
                                                <path
                                                    d="M25.2148 17.2529C26.5545 17.2529 27.6406 16.1566 27.6406 14.8042C27.6406 13.4518 26.5545 12.3555 25.2148 12.3555C23.8751 12.3555 22.7891 13.4518 22.7891 14.8042C22.7891 16.1566 23.8751 17.2529 25.2148 17.2529Z"
                                                    stroke="black" stroke-miterlimit="2.61313" stroke-linecap="round"
                                                    stroke-linejoin="round" />
                                            </mask>
                                            <g mask="url(#mask0_12198_2529)">
                                                <path fill-rule="evenodd" clip-rule="evenodd"
                                                    d="M30.5476 16.4943C32.0559 16.2757 28.364 14.0382 28.1842 13.9085C27.3658 13.3158 26.2796 12.9527 25.1236 12.8934C22.5033 12.7564 21.3987 13.8492 19.5234 15.3311C19.5234 15.3311 20.217 15.231 20.973 16.072C21.729 16.9129 24.6282 17.9168 27.1493 17.2945C29.6705 16.6721 30.5476 16.4906 30.5476 16.4906V16.4943Z"
                                                    fill="black" stroke="black" stroke-miterlimit="2.61313"
                                                    stroke-linecap="round" stroke-linejoin="round" />
                                            </g>
                                            <path d="M30.1931 15.5244C30.1931 15.5244 29.7258 16.0134 29.9171 16.5839"
                                                stroke="black" stroke-miterlimit="2.61313" stroke-linecap="round"
                                                stroke-linejoin="round" />
                                            <path
                                                d="M30.7683 14.8335C30.7683 14.8335 29.0618 11.8254 25.047 11.7847C21.0359 11.7439 19.0469 14.2112 19.0469 14.2112"
                                                stroke="black" stroke-miterlimit="2.61313" stroke-linecap="round"
                                                stroke-linejoin="round" />
                                            <path fill-rule="evenodd" clip-rule="evenodd"
                                                d="M31.2619 10.5459C31.2619 10.5459 31.9775 9.60862 29.9114 8.51577C29.9114 8.51577 22.403 6.26709 20.6562 6.48566C18.9093 6.70423 16.168 8.91957 16.168 8.91957C16.168 8.91957 19.2286 7.7341 22.7223 8.67136C26.2196 9.60862 30.906 10.92 31.2619 10.5422V10.5459Z"
                                                stroke="black" stroke-miterlimit="2.61313" stroke-linecap="round"
                                                stroke-linejoin="round" />
                                            <path
                                                d="M37.2556 32.3427C37.2556 32.3427 36.2757 32.3686 35.8757 31.9129C35.4794 31.4573 34.4702 31.0572 33.6738 31.109"
                                                stroke="black" stroke-miterlimit="2.61313" stroke-linecap="round"
                                                stroke-linejoin="round" />
                                            <path d="M32.539 28.8623C32.539 28.8623 31.2142 31.6704 33.9702 32.126"
                                                stroke="black" stroke-miterlimit="2.61313" stroke-linecap="round"
                                                stroke-linejoin="round" />
                                            <path d="M33.0625 13.7646C33.0625 13.7646 35.4479 15.9059 34.9708 21.7925"
                                                stroke="black" stroke-miterlimit="2.61313" stroke-linecap="round"
                                                stroke-linejoin="round" />
                                            <path fill-rule="evenodd" clip-rule="evenodd"
                                                d="M37.4009 37.7178C37.4009 37.7178 35.4523 36.7546 34.0724 37.5585C32.6926 38.3624 28.7695 40.3406 28.7695 40.3406C28.7695 40.3406 30.52 45.7456 37.3973 45.7456C44.2782 45.7456 46.025 40.3406 46.025 40.3406C46.025 40.3406 42.102 38.3587 40.7221 37.5585C39.3423 36.7546 37.3936 37.7178 37.3936 37.7178H37.4009Z"
                                                stroke="black" stroke-miterlimit="2.61313" stroke-linecap="round"
                                                stroke-linejoin="round" />
                                            <path
                                                d="M37.398 41.0069C37.398 41.0069 36.9062 40.9809 36.297 40.7253C35.6878 40.4697 32.6382 40.3511 31.1556 40.6994C29.6693 41.0476 29.2216 40.2178 27.6289 40.2178"
                                                stroke="black" stroke-miterlimit="2.61313" stroke-linecap="round"
                                                stroke-linejoin="round" />
                                            <path
                                                d="M9.77148 13.9141C9.77148 13.9141 12.9422 27.3728 14.6377 34.3818C16.3331 41.3946 16.7588 42.5727 20.469 46.1031C24.1792 49.6373 31.3023 56.2722 37.3979 56.2722"
                                                stroke="black" stroke-miterlimit="2.61313" stroke-linecap="round"
                                                stroke-linejoin="round" />
                                            <path
                                                d="M7.48078 12.0703C7.48078 12.0703 5.43669 12.0962 6.12661 15.0932C6.81654 18.0903 9.30835 22.4246 9.62762 25.6365C9.9469 28.8483 11.1946 29.793 13.4883 29.5893"
                                                stroke="black" stroke-miterlimit="2.61313" stroke-linecap="round"
                                                stroke-linejoin="round" />
                                            <path
                                                d="M8.01172 16.5332C8.01172 16.5332 8.34934 15.0884 9.02459 15.57C9.69984 16.0516 11.1164 19.8525 11.1164 19.8525C11.1164 19.8525 10.2063 21.7788 10.7127 22.3679C11.2191 22.9569 12.199 24.1535 12.199 24.1535"
                                                stroke="black" stroke-miterlimit="2.61313" stroke-linecap="round"
                                                stroke-linejoin="round" />
                                            <path
                                                d="M49.5914 16.1575C50.3312 16.1575 50.9309 15.5521 50.9309 14.8053C50.9309 14.0585 50.3312 13.4531 49.5914 13.4531C48.8517 13.4531 48.252 14.0585 48.252 14.8053C48.252 15.5521 48.8517 16.1575 49.5914 16.1575Z"
                                                fill="black" />
                                            <path
                                                d="M48.6681 14.6554C48.9518 14.6554 49.1819 14.4232 49.1819 14.1368C49.1819 13.8504 48.9518 13.6182 48.6681 13.6182C48.3843 13.6182 48.1543 13.8504 48.1543 14.1368C48.1543 14.4232 48.3843 14.6554 48.6681 14.6554Z"
                                                fill="white" />
                                            <path fill-rule="evenodd" clip-rule="evenodd"
                                                d="M44.2499 16.4962C42.7416 16.2777 46.4334 14.0401 46.6132 13.9105C47.4316 13.3177 48.5179 12.9547 49.6739 12.8954C52.2941 12.7583 53.3987 13.8512 55.274 15.333C55.274 15.333 54.5804 15.233 53.8244 16.0739C53.0684 16.9149 50.1693 17.9188 47.6481 17.2964C45.127 16.6741 44.2499 16.4925 44.2499 16.4925V16.4962Z"
                                                stroke="black" stroke-miterlimit="2.61313" stroke-linecap="round"
                                                stroke-linejoin="round" />
                                            <mask id="mask1_12198_2529" style="mask-type:alpha"
                                                maskUnits="userSpaceOnUse" x="46" y="11" width="7" height="7">
                                                <path
                                                    d="M49.5879 17.2529C50.9276 17.2529 52.0136 16.1566 52.0136 14.8042C52.0136 13.4518 50.9276 12.3555 49.5879 12.3555C48.2482 12.3555 47.1621 13.4518 47.1621 14.8042C47.1621 16.1566 48.2482 17.2529 49.5879 17.2529Z"
                                                    stroke="black" stroke-miterlimit="2.61313" stroke-linecap="round"
                                                    stroke-linejoin="round" />
                                            </mask>
                                            <g mask="url(#mask1_12198_2529)">
                                                <path fill-rule="evenodd" clip-rule="evenodd"
                                                    d="M44.2499 16.4943C42.7416 16.2757 46.4334 14.0382 46.6132 13.9085C47.4316 13.3158 48.5179 12.9527 49.6739 12.8934C52.2941 12.7564 53.3987 13.8492 55.274 15.3311C55.274 15.3311 54.5804 15.231 53.8244 16.072C53.0684 16.9129 50.1693 17.9168 47.6481 17.2945C45.127 16.6721 44.2499 16.4906 44.2499 16.4906V16.4943Z"
                                                    fill="black" stroke="black" stroke-miterlimit="2.61313"
                                                    stroke-linecap="round" stroke-linejoin="round" />
                                            </g>
                                            <path d="M44.5977 15.5244C44.5977 15.5244 45.065 16.0134 44.8736 16.5839"
                                                stroke="black" stroke-miterlimit="2.61313" stroke-linecap="round"
                                                stroke-linejoin="round" />
                                            <path
                                                d="M44.0312 14.8335C44.0312 14.8335 45.7377 11.8254 49.7525 11.7847C53.7636 11.7439 55.7527 14.2112 55.7527 14.2112"
                                                stroke="black" stroke-miterlimit="2.61313" stroke-linecap="round"
                                                stroke-linejoin="round" />
                                            <path fill-rule="evenodd" clip-rule="evenodd"
                                                d="M43.5378 10.5459C43.5378 10.5459 42.8222 9.60862 44.8883 8.51577C44.8883 8.51577 52.3967 6.26709 54.1436 6.48566C55.8904 6.70423 58.6318 8.91957 58.6318 8.91957C58.6318 8.91957 55.5711 7.7341 52.0775 8.67136C48.5801 9.60862 43.8938 10.92 43.5378 10.5422V10.5459Z"
                                                stroke="black" stroke-miterlimit="2.61313" stroke-linecap="round"
                                                stroke-linejoin="round" />
                                            <path
                                                d="M37.543 32.3427C37.543 32.3427 38.5228 32.3686 38.9228 31.9129C39.3192 31.4573 40.3284 31.0572 41.1247 31.109"
                                                stroke="black" stroke-miterlimit="2.61313" stroke-linecap="round"
                                                stroke-linejoin="round" />
                                            <path d="M42.2633 28.8623C42.2633 28.8623 43.5881 31.6704 40.832 32.126"
                                                stroke="black" stroke-miterlimit="2.61313" stroke-linecap="round"
                                                stroke-linejoin="round" />
                                            <path d="M41.7292 13.7646C41.7292 13.7646 39.3438 15.9059 39.8209 21.7925"
                                                stroke="black" stroke-miterlimit="2.61313" stroke-linecap="round"
                                                stroke-linejoin="round" />
                                            <path
                                                d="M37.4023 41.0071C37.4023 41.0071 37.8941 40.9812 38.5033 40.7255C39.1125 40.4699 42.1621 40.3514 43.6447 40.6996C45.131 41.0479 45.5787 40.218 47.1714 40.218"
                                                stroke="black" stroke-miterlimit="2.61313" stroke-linecap="round"
                                                stroke-linejoin="round" />
                                            <path
                                                d="M65.0209 13.9141C65.0209 13.9141 61.8502 27.3728 60.1547 34.3818C58.4593 41.3946 58.0336 42.5727 54.3234 46.1031C50.6132 49.6373 43.4901 56.2722 37.3945 56.2722"
                                                stroke="black" stroke-miterlimit="2.61313" stroke-linecap="round"
                                                stroke-linejoin="round" />
                                            <path
                                                d="M67.32 12.0703C67.32 12.0703 69.3641 12.0962 68.6742 15.0932C67.9842 18.0903 65.4924 22.4246 65.1731 25.6365C64.8539 28.8483 63.6061 29.793 61.3125 29.5893"
                                                stroke="black" stroke-miterlimit="2.61313" stroke-linecap="round"
                                                stroke-linejoin="round" />
                                            <path
                                                d="M66.7888 16.5332C66.7888 16.5332 66.4512 15.0884 65.776 15.57C65.1007 16.0516 63.6842 19.8525 63.6842 19.8525C63.6842 19.8525 64.5943 21.7788 64.0878 22.3679C63.5814 22.9569 62.6016 24.1535 62.6016 24.1535"
                                                stroke="black" stroke-miterlimit="2.61313" stroke-linecap="round"
                                                stroke-linejoin="round" />
                                            <path
                                                d="M37.6639 24.4382C37.9497 24.4382 38.1814 24.2044 38.1814 23.9159C38.1814 23.6274 37.9497 23.3936 37.6639 23.3936C37.3781 23.3936 37.1465 23.6274 37.1465 23.9159C37.1465 24.2044 37.3781 24.4382 37.6639 24.4382Z"
                                                fill="black" stroke="black" />
                                            <path
                                                d="M34.2557 27.4255C34.5415 27.4255 34.7732 27.1917 34.7732 26.9032C34.7732 26.6147 34.5415 26.3809 34.2557 26.3809C33.9699 26.3809 33.7383 26.6147 33.7383 26.9032C33.7383 27.1917 33.9699 27.4255 34.2557 27.4255Z"
                                                fill="black" stroke="black" />
                                            <path
                                                d="M31.8788 24.7312C32.1645 24.7312 32.3962 24.4974 32.3962 24.2089C32.3962 23.9204 32.1645 23.6865 31.8788 23.6865C31.593 23.6865 31.3613 23.9204 31.3613 24.2089C31.3613 24.4974 31.593 24.7312 31.8788 24.7312Z"
                                                fill="black" stroke="black" />
                                            <path
                                                d="M29.1132 26.8757C29.3989 26.8757 29.6306 26.6419 29.6306 26.3534C29.6306 26.0649 29.3989 25.8311 29.1132 25.8311C28.8274 25.8311 28.5957 26.0649 28.5957 26.3534C28.5957 26.6419 28.8274 26.8757 29.1132 26.8757Z"
                                                fill="black" stroke="black" />
                                            <path
                                                d="M26.9354 24.4685C27.2212 24.4685 27.4529 24.2347 27.4529 23.9462C27.4529 23.6577 27.2212 23.4238 26.9354 23.4238C26.6496 23.4238 26.418 23.6577 26.418 23.9462C26.418 24.2347 26.6496 24.4685 26.9354 24.4685Z"
                                                fill="black" stroke="black" />
                                            <path
                                                d="M25.5038 27.7498C25.7895 27.7498 26.0212 27.5159 26.0212 27.2274C26.0212 26.9389 25.7895 26.7051 25.5038 26.7051C25.218 26.7051 24.9863 26.9389 24.9863 27.2274C24.9863 27.5159 25.218 27.7498 25.5038 27.7498Z"
                                                fill="black" stroke="black" />
                                            <path
                                                d="M22.8573 25.3875C23.1431 25.3875 23.3747 25.1536 23.3747 24.8651C23.3747 24.5766 23.1431 24.3428 22.8573 24.3428C22.5715 24.3428 22.3398 24.5766 22.3398 24.8651C22.3398 25.1536 22.5715 25.3875 22.8573 25.3875Z"
                                                fill="black" stroke="black" />
                                            <path
                                                d="M41.0721 27.4255C41.3579 27.4255 41.5896 27.1917 41.5896 26.9032C41.5896 26.6147 41.3579 26.3809 41.0721 26.3809C40.7864 26.3809 40.5547 26.6147 40.5547 26.9032C40.5547 27.1917 40.7864 27.4255 41.0721 27.4255Z"
                                                fill="black" stroke="black" />
                                            <path
                                                d="M43.4432 24.7312C43.729 24.7312 43.9607 24.4974 43.9607 24.2089C43.9607 23.9204 43.729 23.6865 43.4432 23.6865C43.1574 23.6865 42.9258 23.9204 42.9258 24.2089C42.9258 24.4974 43.1574 24.7312 43.4432 24.7312Z"
                                                fill="black" stroke="black" />
                                            <path
                                                d="M46.2167 26.8757C46.5024 26.8757 46.7341 26.6419 46.7341 26.3534C46.7341 26.0649 46.5024 25.8311 46.2167 25.8311C45.9309 25.8311 45.6992 26.0649 45.6992 26.3534C45.6992 26.6419 45.9309 26.8757 46.2167 26.8757Z"
                                                fill="black" stroke="black" />
                                            <path
                                                d="M48.3866 24.4685C48.6724 24.4685 48.904 24.2347 48.904 23.9462C48.904 23.6577 48.6724 23.4238 48.3866 23.4238C48.1008 23.4238 47.8691 23.6577 47.8691 23.9462C47.8691 24.2347 48.1008 24.4685 48.3866 24.4685Z"
                                                fill="black" stroke="black" />
                                            <path
                                                d="M49.8163 27.7498C50.102 27.7498 50.3337 27.5159 50.3337 27.2274C50.3337 26.9389 50.102 26.7051 49.8163 26.7051C49.5305 26.7051 49.2988 26.9389 49.2988 27.2274C49.2988 27.5159 49.5305 27.7498 49.8163 27.7498Z"
                                                fill="black" stroke="black" />
                                            <path
                                                d="M52.4706 25.3875C52.7563 25.3875 52.988 25.1536 52.988 24.8651C52.988 24.5766 52.7563 24.3428 52.4706 24.3428C52.1848 24.3428 51.9531 24.5766 51.9531 24.8651C51.9531 25.1536 52.1848 25.3875 52.4706 25.3875Z"
                                                fill="black" stroke="black" />
                                        </svg>