<svg xmlns="http://www.w3.org/2000/svg" width="76" height="65"
                                            viewBox="0 0 76 65" fill="none">
                                            <circle cx="17.6547" cy="42.3481" r="2.99065" fill="black" />
                                            <circle cx="36.7201" cy="42.3481" r="2.99065" fill="black" />
                                            <circle cx="28.1225" cy="50.1987" r="2.99065" fill="black" />
                                            <circle cx="55.7856" cy="42.3481" r="2.99065" fill="black" />
                                            <circle cx="47.1869" cy="50.1987" r="2.99065" fill="black" />
                                            <path
                                                d="M8.55859 32.6038C11.2801 32.6038 12.6857 31.7664 13.9418 31.0188C15.0782 30.3309 16.0651 29.7627 18.1287 29.7627C20.1922 29.7627 21.1791 30.3309 22.3156 31.0188C23.5717 31.7664 24.9773 32.6038 27.6988 32.6038C30.4203 32.6038 31.8259 31.7664 33.082 31.0188C34.2184 30.3309 35.2053 29.7627 37.239 29.7627C39.2726 29.7627 40.2894 30.3309 41.396 31.0188C42.652 31.7664 44.0577 32.6038 46.7792 32.6038C49.5007 32.6038 50.9063 31.7664 52.1623 31.0188C53.2988 30.3309 54.2857 29.7627 56.3194 29.7627C58.353 29.7627 59.3399 30.3309 60.4764 31.0188C61.7324 31.7664 63.138 32.6038 65.8595 32.6038"
                                                stroke="black" />
                                            <path d="M8.55859 21.04H66.1287" stroke="black" />
                                            <path d="M8.55859 13.1895H66.1287" stroke="black" />
                                        </svg>