<svg xmlns="http://www.w3.org/2000/svg" width="75" height="65"
                                            viewBox="0 0 75 65" fill="none">
                                            <path
                                                d="M8 50.2903C10.7215 50.2903 12.1271 49.453 13.3832 48.7053C14.5196 48.0174 15.5065 47.4492 17.5701 47.4492C19.6336 47.4492 20.6205 48.0174 21.757 48.7053C23.0131 49.453 24.4187 50.2903 27.1402 50.2903C29.8617 50.2903 31.2673 49.453 32.5234 48.7053C33.6598 48.0174 34.6467 47.4492 36.6804 47.4492C38.714 47.4492 39.7308 48.0174 40.8374 48.7053C42.0934 49.453 43.4991 50.2903 46.2206 50.2903C48.9421 50.2903 50.3477 49.453 51.6037 48.7053C52.7402 48.0174 53.7271 47.4492 55.7608 47.4492C57.7944 47.4492 58.7813 48.0174 59.9178 48.7053C61.1738 49.453 62.5795 50.2903 65.3009 50.2903"
                                                stroke="black" />
                                            <path d="M8 38.7266H65.5701" stroke="black" />
                                            <path d="M8 30.876H65.5701" stroke="black" />
                                            <path
                                                d="M25.5 17.8138C25.5 20.2952 23.3013 22.376 20.5 22.376C17.6987 22.376 15.5 20.2952 15.5 17.8138C15.5 17.2044 15.6959 16.3927 16.0513 15.4311C16.4033 14.4788 16.8962 13.4196 17.4561 12.328C18.273 10.7354 19.2167 9.10338 20.0533 7.65664C20.201 7.40128 20.3453 7.15168 20.485 6.9091C20.7327 7.35957 21.0217 7.87067 21.3319 8.41909C21.3802 8.50447 21.429 8.59077 21.4782 8.67788C22.0554 9.69908 22.6983 10.8426 23.2995 11.9916C23.9014 13.1419 24.4565 14.2879 24.8601 15.3133C25.2693 16.3532 25.5 17.2143 25.5 17.8138Z"
                                                stroke="black" />
                                            <path
                                                d="M57.5 18.8138C57.5 21.2952 55.3013 23.376 52.5 23.376C49.6987 23.376 47.5 21.2952 47.5 18.8138C47.5 18.2044 47.6959 17.3927 48.0513 16.4311C48.4033 15.4788 48.8962 14.4196 49.4561 13.328C50.273 11.7354 51.2167 10.1034 52.0533 8.65664C52.201 8.40128 52.3453 8.15168 52.485 7.9091C52.7327 8.35957 53.0217 8.87067 53.3319 9.41909C53.3802 9.50447 53.429 9.59077 53.4782 9.67788C54.0554 10.6991 54.6983 11.8426 55.2995 12.9916C55.9014 14.1419 56.4565 15.2879 56.8601 16.3133C57.2693 17.3532 57.5 18.2143 57.5 18.8138Z"
                                                stroke="black" />
                                            <path
                                                d="M38.6002 13.7948C38.6002 15.3474 37.2612 16.6528 35.5501 16.6528C33.839 16.6528 32.5 15.3474 32.5 13.7948C32.5 13.4183 32.619 12.9007 32.8464 12.2685C33.0705 11.6452 33.3856 10.949 33.7455 10.2278C34.2708 9.17533 34.8767 8.09855 35.4162 7.13987C35.4569 7.06739 35.4974 6.99558 35.5373 6.92451C35.6589 7.14819 35.7911 7.3884 35.9294 7.63971C35.9607 7.69671 35.9924 7.75428 36.0244 7.81235C36.3969 8.48976 36.8107 9.24624 37.1975 10.0058C37.5849 10.7666 37.9403 11.521 38.1978 12.1935C38.4606 12.88 38.6002 13.428 38.6002 13.7948Z"
                                                stroke="black" />
                                        </svg>