<svg width="35" height="36" viewBox="0 0 35 36" fill="none" xmlns="http://www.w3.org/2000/svg">
<circle cx="17.4832" cy="17.841" r="17.4312" fill="white"/>
<path d="M19.497 13.3562C19.4267 13.2867 19.3833 13.1907 19.3833 13.0848L19.3836 12.1087C19.3836 11.8965 19.5571 11.725 19.7719 11.725C19.9866 11.725 20.1601 11.8965 20.1601 12.1087L20.1598 13.0848C20.1598 13.297 19.9863 13.4686 19.7716 13.4686C19.6645 13.4686 19.5673 13.4257 19.497 13.3562Z" fill="black"/>
<path d="M16.4879 13.3562C16.4176 13.2867 16.3742 13.1907 16.3742 13.0848L16.3745 12.1087C16.3745 11.8965 16.548 11.725 16.7627 11.725C16.9774 11.725 17.1509 11.8965 17.1509 12.1087L17.1507 13.0848C17.1507 13.297 16.9771 13.4686 16.7624 13.4686C16.6553 13.4686 16.5581 13.4257 16.4879 13.3562Z" fill="black"/>
<path d="M22.5518 13.3562C22.4815 13.2867 22.4381 13.1907 22.4381 13.0848L22.4384 12.1087C22.4384 11.8965 22.6119 11.725 22.8267 11.725C23.0414 11.725 23.2149 11.8965 23.2149 12.1087L23.2146 13.0848C23.2146 13.297 23.0411 13.4686 22.8264 13.4686C22.7193 13.4686 22.6221 13.4257 22.5518 13.3562Z" fill="black"/>
<path d="M13.4791 13.3562C13.4088 13.2867 13.3654 13.1907 13.3654 13.0848L13.3657 12.1087C13.3657 11.8965 13.5392 11.725 13.7539 11.725C13.9686 11.725 14.1421 11.8965 14.1421 12.1087L14.1419 13.0848C14.1419 13.297 13.9683 13.4686 13.7536 13.4686C13.6465 13.4686 13.5494 13.4257 13.4791 13.3562Z" fill="black"/>
<path d="M10.4703 13.3565C10.4 13.287 10.3566 13.1909 10.3566 13.0851L10.3566 12.1087C10.3566 11.8965 10.5302 11.725 10.7449 11.725C10.9596 11.725 11.1331 11.8965 11.1331 12.1087L11.1331 13.0851C11.1331 13.2973 10.9596 13.4688 10.7449 13.4688C10.6378 13.4688 10.5406 13.426 10.4703 13.3565Z" fill="black"/>
<rect x="8.76757" y="11.9144" width="16.0367" height="12.3028" rx="1.04587" stroke="black" stroke-width="0.697248"/>
<path d="M9.11621 15.3792H24.4557" stroke="black" stroke-width="0.697248"/>
</svg>
