<svg xmlns="http://www.w3.org/2000/svg" width="89" height="25" viewBox="0 0 89 25" fill="none">
  <g clip-path="url(#clip0_18538_2565)">
    <path d="M28.4605 5.4209C28.2774 5.4209 28.1218 5.55387 28.0931 5.73494L25.9729 19.1808C25.9652 19.23 25.9682 19.2802 25.9818 19.328C25.9953 19.3758 26.0191 19.4202 26.0514 19.4579C26.0837 19.4957 26.1238 19.5261 26.169 19.5469C26.2141 19.5677 26.2632 19.5784 26.313 19.5785H28.8274C29.0103 19.5785 29.1661 19.4452 29.1948 19.2644L29.8176 15.3159C29.846 15.1351 30.0018 15.0019 30.185 15.0019H32.471C35.1421 15.0019 37.4095 13.053 37.8237 10.4122C38.2412 7.749 36.1607 5.42668 33.2119 5.4209H28.4605ZM30.9048 8.42254H32.7338C34.2396 8.42254 34.73 9.31105 34.575 10.2936C34.4199 11.2783 33.6584 12.0036 32.2017 12.0036H30.34L30.9048 8.42254ZM42.9376 9.33654C42.3027 9.33891 41.5722 9.46899 40.752 9.81063C38.8706 10.5948 37.9671 12.2155 37.5835 13.397C37.5835 13.397 36.3623 17.0017 39.1213 18.9822C39.1213 18.9822 41.6802 20.8887 44.5607 18.8647L44.511 19.1808C44.5033 19.2299 44.5063 19.2801 44.5198 19.3279C44.5333 19.3757 44.557 19.42 44.5893 19.4577C44.6216 19.4955 44.6616 19.5259 44.7067 19.5467C44.7518 19.5675 44.8008 19.5784 44.8505 19.5785H47.2375C47.4207 19.5785 47.5762 19.4452 47.6049 19.2644L49.0568 10.0566C49.0646 10.0075 49.0617 9.95728 49.0482 9.90941C49.0347 9.86155 49.011 9.81718 48.9787 9.77934C48.9465 9.74151 48.9064 9.71111 48.8613 9.69025C48.8161 9.66938 48.767 9.65854 48.7173 9.65847H46.3303C46.1472 9.65847 45.9913 9.7917 45.9629 9.97251L45.8849 10.4681C45.8849 10.4681 44.8426 9.32945 42.9376 9.33654ZM43.0157 12.2449C43.2898 12.2449 43.5405 12.2827 43.7654 12.355C44.7953 12.6856 45.3793 13.675 45.2103 14.7475C45.0019 16.068 43.9189 17.0404 42.5301 17.0404C42.2562 17.0404 42.0055 17.0028 41.7803 16.9305C40.7507 16.5999 40.1631 15.6105 40.332 14.538C40.5404 13.2175 41.6268 12.2449 43.0157 12.2449Z" fill="#003087"/>
    <path d="M62.8336 5.4209C62.6504 5.4209 62.4948 5.55387 62.4662 5.73494L60.346 19.1808C60.3383 19.23 60.3413 19.2802 60.3548 19.328C60.3684 19.3758 60.3921 19.4202 60.4244 19.4579C60.4568 19.4957 60.4969 19.5261 60.542 19.5469C60.5872 19.5677 60.6363 19.5784 60.686 19.5785H63.2004C63.3833 19.5785 63.5392 19.4452 63.5678 19.2644L64.1906 15.3159C64.219 15.1351 64.3749 15.0019 64.558 15.0019H66.8441C69.5151 15.0019 71.7823 13.053 72.1962 10.4122C72.614 7.749 70.5337 5.42668 67.5849 5.4209H62.8336ZM65.2778 8.42254H67.1069C68.6127 8.42254 69.1031 9.31105 68.948 10.2936C68.793 11.2783 68.0317 12.0036 66.5747 12.0036H64.7131L65.2778 8.42254ZM77.3104 9.33654C76.6755 9.33891 75.9449 9.46899 75.1248 9.81063C73.2434 10.5948 72.3399 12.2155 71.9562 13.397C71.9562 13.397 70.7356 17.0017 73.4946 18.9822C73.4946 18.9822 76.053 20.8887 78.9337 18.8647L78.884 19.1808C78.8763 19.23 78.8794 19.2802 78.8929 19.328C78.9065 19.3758 78.9302 19.4202 78.9625 19.4579C78.9948 19.4957 79.035 19.5261 79.0801 19.5469C79.1253 19.5677 79.1744 19.5784 79.2241 19.5785H81.6108C81.794 19.5785 81.9496 19.4452 81.9782 19.2644L83.4307 10.0566C83.4385 10.0074 83.4355 9.95719 83.422 9.90929C83.4085 9.86139 83.3847 9.81699 83.3524 9.77914C83.3201 9.7413 83.28 9.71091 83.2348 9.69008C83.1896 9.66925 83.1404 9.65846 83.0906 9.65847H80.7036C80.5205 9.65847 80.3646 9.7917 80.3362 9.97251L80.2582 10.4681C80.2582 10.4681 79.2154 9.32945 77.3104 9.33654ZM77.3885 12.2449C77.6626 12.2449 77.9133 12.2827 78.1382 12.355C79.1681 12.6856 79.7521 13.675 79.5831 14.7475C79.3747 16.068 78.2917 17.0404 76.9028 17.0404C76.629 17.0404 76.3783 17.0028 76.1531 16.9305C75.1235 16.5999 74.5358 15.6105 74.7048 14.538C74.9132 13.2175 75.9996 12.2449 77.3885 12.2449Z" fill="#0070E0"/>
    <path d="M50.1897 9.65847C50.0004 9.65847 49.8659 9.84321 49.9237 10.0232L52.5406 18.1439L50.1744 21.9707C50.0596 22.1565 50.1931 22.3964 50.4114 22.3964H53.2081C53.2881 22.3963 53.3667 22.3756 53.4364 22.3363C53.506 22.297 53.5643 22.2404 53.6057 22.172L60.9143 10.0816C61.0265 9.89577 60.8925 9.6582 60.6754 9.6582H57.879C57.7983 9.65827 57.7189 9.67936 57.6488 9.71941C57.5787 9.75945 57.5202 9.81706 57.4791 9.88657L54.6022 14.7435L53.1419 9.92257C53.0943 9.76569 52.9495 9.6582 52.7858 9.6582L50.1897 9.65847Z" fill="#003087"/>
    <path d="M86.1428 5.4209C85.9599 5.4209 85.804 5.55414 85.7754 5.73494L83.6546 19.1803C83.6468 19.2295 83.6498 19.2797 83.6633 19.3276C83.6768 19.3755 83.7006 19.4199 83.7329 19.4578C83.7652 19.4956 83.8053 19.526 83.8505 19.5468C83.8957 19.5677 83.9449 19.5785 83.9947 19.5785H86.5091C86.692 19.5785 86.8479 19.4452 86.8765 19.2644L88.9967 5.81851C89.0044 5.76944 89.0014 5.71928 88.9879 5.67148C88.9744 5.62368 88.9507 5.57938 88.9184 5.5416C88.8862 5.50383 88.8461 5.47348 88.801 5.45265C88.7559 5.43181 88.7069 5.42098 88.6572 5.4209H86.1428Z" fill="#0070E0"/>
    <path d="M7.49677 5.4209C7.3348 5.42103 7.17819 5.47892 7.05507 5.58417C6.93195 5.68942 6.85039 5.83512 6.82506 5.9951L5.70898 13.0738C5.76102 12.7432 6.04588 12.4995 6.38068 12.4995H9.65117C12.9427 12.4995 15.7357 10.0984 16.246 6.84446C16.284 6.60153 16.3055 6.35631 16.3104 6.11047C15.4739 5.67187 14.4913 5.4209 13.4146 5.4209H7.49677Z" fill="#001C64"/>
    <path d="M16.3105 6.11035C16.3056 6.35619 16.2841 6.60141 16.2461 6.84434C15.7357 10.0983 12.9425 12.4994 9.65126 12.4994H6.38077C6.04623 12.4994 5.76111 12.7428 5.70908 13.0736L4.68285 19.5783L4.04006 23.659C4.02752 23.7379 4.03222 23.8185 4.05386 23.8953C4.07549 23.9722 4.11356 24.0434 4.1654 24.1041C4.21724 24.1648 4.28163 24.2136 4.35414 24.247C4.42664 24.2804 4.50553 24.2976 4.58536 24.2976H8.1352C8.29717 24.2975 8.45378 24.2396 8.5769 24.1343C8.70002 24.0291 8.78157 23.8834 8.8069 23.7234L9.74192 17.7929C9.76726 17.6328 9.84889 17.4871 9.97212 17.3818C10.0953 17.2765 10.2521 17.2187 10.4142 17.2187H12.5042C15.7957 17.2187 18.5887 14.8175 19.099 11.5636C19.4614 9.25417 18.2983 7.1526 16.3105 6.11035Z" fill="#0070E0"/>
    <path d="M3.46419 0.702148C3.12965 0.702148 2.84453 0.945497 2.79249 1.27583L0.00685586 18.9399C-0.0459659 19.2752 0.213157 19.5785 0.552688 19.5785H4.68356L5.70925 13.0738L6.82533 5.9951C6.85066 5.83512 6.93222 5.68942 7.05534 5.58417C7.17846 5.47892 7.33507 5.42103 7.49704 5.4209H13.4149C14.4919 5.4209 15.4742 5.67213 16.3107 6.11047C16.368 3.14798 13.9234 0.702148 10.5625 0.702148H3.46419Z" fill="#003087"/>
  </g>
  <defs>
    <clipPath id="clip0_18538_2565">
      <rect width="89" height="23.5951" fill="white" transform="translate(0 0.702148)"/>
    </clipPath>
  </defs>
</svg>