<svg width="25" height="25" viewBox="0 0 25 25" fill="none" xmlns="http://www.w3.org/2000/svg">
<g id="pinterest">
<path id="Vector" d="M12.55 0C5.79544 0 0.300049 5.49539 0.300049 12.25C0.300049 17.5144 3.63822 22.0129 8.30855 23.7421C8.17404 22.5429 8.19513 20.5789 8.4171 19.628C8.62495 18.7348 9.75993 13.936 9.75993 13.936C9.75993 13.936 9.4173 13.2498 9.4173 12.2363C9.4173 10.6438 10.34 9.45549 11.4891 9.45549C12.4664 9.45549 12.9376 10.1892 12.9376 11.0683C12.9376 12.0514 12.3126 13.5198 11.9889 14.8807C11.719 16.0209 12.5606 16.9507 13.6846 16.9507C15.7198 16.9507 17.2842 14.8045 17.2842 11.707C17.2842 8.96531 15.3146 7.04813 12.5016 7.04813C9.24377 7.04813 7.33143 9.49203 7.33143 12.0179C7.33143 13.0018 7.71021 14.0571 8.18366 14.6314C8.27702 14.745 8.29067 14.8441 8.26295 14.9595C8.17618 15.3211 7.98328 16.0989 7.94495 16.2583C7.89518 16.4684 7.7789 16.512 7.56221 16.4111C6.13173 15.7452 5.23763 13.6545 5.23763 11.9747C5.23763 8.36281 7.8617 5.04506 12.8042 5.04506C16.7768 5.04506 19.8638 7.87526 19.8638 11.6589C19.8638 15.6056 17.3749 18.7815 13.9215 18.7815C12.761 18.7815 11.6705 18.1786 11.2975 17.4664C11.2975 17.4664 10.7232 19.6527 10.5836 20.1887C10.3426 21.1156 9.311 23.036 8.79315 23.9083C9.9778 24.2909 11.2397 24.5 12.55 24.5C19.3049 24.5 24.8 19.0049 24.8 12.25C24.8 5.49539 19.3049 0 12.55 0Z" fill="black"/>
</g>
</svg>
