<svg width="24" height="25" viewBox="0 0 24 25" fill="none" xmlns="http://www.w3.org/2000/svg">
<path d="M9.575 16.416L16.25 12.166L9.575 7.91602V16.416ZM12 22.166C10.6333 22.166 9.34167 21.9035 8.125 21.3785C6.90833 20.8535 5.84583 20.1368 4.9375 19.2285C4.02917 18.3202 3.3125 17.2577 2.7875 16.041C2.2625 14.8243 2 13.5327 2 12.166C2 10.7827 2.2625 9.48268 2.7875 8.26602C3.3125 7.04935 4.02917 5.99102 4.9375 5.09102C5.84583 4.19102 6.90833 3.47852 8.125 2.95352C9.34167 2.42852 10.6333 2.16602 12 2.16602C13.3833 2.16602 14.6833 2.42852 15.9 2.95352C17.1167 3.47852 18.175 4.19102 19.075 5.09102C19.975 5.99102 20.6875 7.04935 21.2125 8.26602C21.7375 9.48268 22 10.7827 22 12.166C22 13.5327 21.7375 14.8243 21.2125 16.041C20.6875 17.2577 19.975 18.3202 19.075 19.2285C18.175 20.1368 17.1167 20.8535 15.9 21.3785C14.6833 21.9035 13.3833 22.166 12 22.166ZM12 20.666C14.3667 20.666 16.375 19.8368 18.025 18.1785C19.675 16.5202 20.5 14.516 20.5 12.166C20.5 9.79935 19.675 7.79102 18.025 6.14102C16.375 4.49102 14.3667 3.66602 12 3.66602C9.65 3.66602 7.64583 4.49102 5.9875 6.14102C4.32917 7.79102 3.5 9.79935 3.5 12.166C3.5 14.516 4.32917 16.5202 5.9875 18.1785C7.64583 19.8368 9.65 20.666 12 20.666Z" fill="#008763"/>
</svg>
