<svg xmlns="http://www.w3.org/2000/svg" width="31" height="33" viewBox="0 0 31 33" fill="none">
<g opacity="0.8">
<path d="M21.5189 16.6684C21.5189 20.1826 20.8396 23.3397 19.7634 25.5996C18.6696 27.8967 17.2557 29.104 15.8577 29.104C14.4598 29.104 13.0459 27.8967 11.9521 25.5996C10.8759 23.3397 10.1966 20.1826 10.1966 16.6684C10.1966 13.1543 10.8759 9.99723 11.9521 7.73727C13.0459 5.44021 14.4598 4.23284 15.8577 4.23284C17.2557 4.23284 18.6696 5.44021 19.7634 7.73727C20.8396 9.99723 21.5189 13.1543 21.5189 16.6684Z" stroke="black" stroke-width="0.994848"/>
<path d="M13.0274 21.571C9.98407 19.8139 7.58962 17.6471 6.17052 15.5851C4.72813 13.4893 4.38948 11.6611 5.08843 10.4505C5.78739 9.23987 7.53997 8.61907 10.0762 8.82031C12.5715 9.0183 15.6452 10.0085 18.6886 11.7656C21.7319 13.5227 24.1263 15.6895 25.5454 17.7515C26.9878 19.8473 27.3265 21.6755 26.6275 22.8861C25.9286 24.0967 24.176 24.7175 21.6398 24.5163C19.1445 24.3183 16.0707 23.3281 13.0274 21.571Z" stroke="black" stroke-width="0.994848"/>
<path d="M13.0268 11.7659C16.0702 10.0088 19.1439 9.01855 21.6392 8.82057C24.1754 8.61933 25.928 9.24013 26.627 10.4508C27.3259 11.6614 26.9873 13.4896 25.5449 15.5854C24.1258 17.6474 21.7313 19.8142 18.688 21.5713C15.6447 23.3283 12.5709 24.3186 10.0756 24.5166C7.53941 24.7178 5.78684 24.097 5.08788 22.8864C4.38892 21.6757 4.72758 19.8476 6.16997 17.7517C7.58907 15.6898 9.98351 13.5229 13.0268 11.7659Z" stroke="black" stroke-width="0.994848"/>
</g>
</svg>