<svg xmlns="http://www.w3.org/2000/svg" width="28" height="28" viewBox="0 0 28 28" fill="none">
  <path fill-rule="evenodd" clip-rule="evenodd" d="M13.9504 2.53125C14.274 2.53125 14.5363 2.79358 14.5363 3.11719V27.1172C14.5363 27.3 14.451 27.4723 14.3057 27.5831C14.1603 27.694 13.9716 27.7306 13.7953 27.6822L13.9504 27.1172C13.7953 27.6822 13.7948 27.6821 13.7943 27.682L13.7931 27.6816L13.79 27.6807L13.781 27.6782L13.7524 27.6697C13.7286 27.6625 13.6955 27.6522 13.6537 27.6384C13.5701 27.6107 13.4517 27.5691 13.303 27.5104C13.0057 27.393 12.5872 27.2076 12.085 26.9305C11.0802 26.3761 9.74067 25.4547 8.36708 23.9784C5.61235 21.0178 2.76233 15.8705 2.14793 7.0945C2.12781 6.80708 2.31963 6.54768 2.60034 6.48272L2.62481 6.47702L2.69883 6.45961C2.76406 6.4442 2.86039 6.42126 2.98402 6.39136C3.2313 6.33156 3.58765 6.24392 4.02253 6.13294C4.89274 5.91085 6.07532 5.59578 7.32683 5.22349C8.57989 4.85073 9.89386 4.42301 11.0297 3.97626C12.1418 3.53884 13.0242 3.1052 13.5233 2.71599C13.6302 2.60227 13.782 2.53125 13.9504 2.53125ZM13.3645 4.20173C12.8103 4.5037 12.1524 4.79392 11.4586 5.06681C10.2792 5.53073 8.92988 5.96924 7.66096 6.34672C6.39049 6.72465 5.19234 7.04382 4.31232 7.26842C3.9247 7.36734 3.5984 7.44802 3.35431 7.5074C4.02225 15.7432 6.72352 20.4917 9.22502 23.1802C10.5044 24.5552 11.742 25.4027 12.6512 25.9045C12.9201 26.0529 13.1604 26.171 13.3645 26.2636V4.20173Z" fill="black"/>
  <path d="M2.60034 6.48272C2.31963 6.54768 2.12781 6.80708 2.14793 7.0945C2.76233 15.8705 5.61235 21.0178 8.36708 23.9784C9.74067 25.4547 11.0802 26.3761 12.085 26.9305C12.5872 27.2076 13.0057 27.393 13.303 27.5104C13.4517 27.5691 13.5701 27.6107 13.6537 27.6384C13.6955 27.6522 13.7286 27.6625 13.7524 27.6697L13.781 27.6782L13.79 27.6807L13.7931 27.6816L13.7943 27.682C13.7948 27.6821 13.7953 27.6822 13.9504 27.1172L13.7953 27.6822C13.9716 27.7306 14.1603 27.694 14.3057 27.5831C14.451 27.4723 14.5363 27.3 14.5363 27.1172V3.11719C14.5363 2.79358 14.274 2.53125 13.9504 2.53125C13.782 2.53125 13.6302 2.60227 13.5233 2.71599C13.0242 3.1052 12.1418 3.53884 11.0297 3.97626C9.89386 4.42301 8.57989 4.85073 7.32683 5.22349C6.07532 5.59578 4.89274 5.91085 4.02253 6.13294C3.58765 6.24392 3.2313 6.33156 2.98402 6.39136C2.86039 6.42126 2.76406 6.4442 2.69883 6.45961L2.62481 6.47702L2.60034 6.48272ZM2.60034 6.48272L2.73244 7.05358M11.4586 5.06681C12.1524 4.79392 12.8103 4.5037 13.3645 4.20173V26.2636C13.1604 26.171 12.9201 26.0529 12.6512 25.9045C11.742 25.4027 10.5044 24.5552 9.22502 23.1802C6.72352 20.4917 4.02225 15.7432 3.35431 7.5074C3.5984 7.44802 3.9247 7.36734 4.31232 7.26842C5.19234 7.04382 6.39049 6.72465 7.66096 6.34672C8.92988 5.96924 10.2792 5.53073 11.4586 5.06681Z" stroke="black" stroke-width="0.3" stroke-miterlimit="2.61313" stroke-linecap="round" stroke-linejoin="round"/>
  <path fill-rule="evenodd" clip-rule="evenodd" d="M14.3763 2.71599C14.2694 2.60227 14.1176 2.53125 13.9492 2.53125C13.6256 2.53125 13.3633 2.79358 13.3633 3.11719V27.1172C13.3633 27.3 13.4486 27.4723 13.5939 27.5831C13.7393 27.694 13.928 27.7306 14.1043 27.6822L13.9492 27.1172C14.1043 27.6822 14.1048 27.6821 14.1053 27.682L14.1065 27.6816L14.1096 27.6807L14.1186 27.6782L14.1473 27.6697C14.1711 27.6625 14.2041 27.6522 14.2459 27.6384C14.3295 27.6107 14.448 27.5691 14.5966 27.5104C14.8939 27.393 15.3124 27.2076 15.8146 26.9305C16.8194 26.3761 18.1589 25.4547 19.5325 23.9784C22.2873 21.0178 25.1373 15.8705 25.7517 7.0945C25.7718 6.80708 25.58 6.54768 25.2993 6.48272L25.2748 6.47702L25.2008 6.45961C25.1356 6.4442 25.0392 6.42126 24.9156 6.39136C24.6683 6.33156 24.312 6.24392 23.8771 6.13294C23.0069 5.91085 21.8243 5.59578 20.5728 5.22349C19.3197 4.85073 18.0058 4.42301 16.87 3.97626C15.7579 3.53884 14.8754 3.1052 14.3763 2.71599ZM24.5453 7.5074C24.3012 7.44802 23.9749 7.36734 23.5873 7.26842C22.7073 7.04382 21.5091 6.72465 20.2387 6.34672C18.9697 5.96924 17.6205 5.53073 16.441 5.06681C15.7472 4.79392 15.0894 4.5037 14.5352 4.20173V26.2636C14.7392 26.171 14.9795 26.0529 15.2485 25.9045C16.1576 25.4027 17.3952 24.5552 18.6746 23.1802C21.1761 20.4917 23.8774 15.7432 24.5453 7.5074Z" fill="black"/>
  <path d="M25.2993 6.48272C25.58 6.54768 25.7718 6.80708 25.7517 7.0945C25.1373 15.8705 22.2873 21.0178 19.5325 23.9784C18.1589 25.4547 16.8194 26.3761 15.8146 26.9305C15.3124 27.2076 14.8939 27.393 14.5966 27.5104C14.448 27.5691 14.3295 27.6107 14.2459 27.6384C14.2041 27.6522 14.1711 27.6625 14.1473 27.6697L14.1186 27.6782L14.1096 27.6807L14.1065 27.6816L14.1053 27.682C14.1048 27.6821 14.1043 27.6822 13.9492 27.1172L14.1043 27.6822C13.928 27.7306 13.7393 27.694 13.5939 27.5831C13.4486 27.4723 13.3633 27.3 13.3633 27.1172V3.11719C13.3633 2.79358 13.6256 2.53125 13.9492 2.53125C14.1176 2.53125 14.2694 2.60227 14.3763 2.71599C14.8754 3.1052 15.7579 3.53884 16.87 3.97626C18.0058 4.42301 19.3197 4.85073 20.5728 5.22349C21.8243 5.59578 23.0069 5.91085 23.8771 6.13294C24.312 6.24392 24.6683 6.33156 24.9156 6.39136C25.0392 6.42126 25.1356 6.4442 25.2008 6.45961L25.2748 6.47702L25.2993 6.48272ZM25.2993 6.48272L25.1672 7.05358M23.5873 7.26842C23.9749 7.36734 24.3012 7.44802 24.5453 7.5074C23.8774 15.7432 21.1761 20.4917 18.6746 23.1802C17.3952 24.5552 16.1576 25.4027 15.2485 25.9045C14.9795 26.0529 14.7392 26.171 14.5352 26.2636V4.20173C15.0894 4.5037 15.7472 4.79392 16.441 5.06681C17.6205 5.53073 18.9697 5.96924 20.2387 6.34672C21.5091 6.72465 22.7073 7.04382 23.5873 7.26842Z" stroke="black" stroke-width="0.3" stroke-miterlimit="2.61313" stroke-linecap="round" stroke-linejoin="round"/>
  <path d="M13.9461 20.9684C17.6917 20.9684 20.7281 17.9319 20.7281 14.1863C20.7281 10.4407 17.6917 7.4043 13.9461 7.4043C10.2005 7.4043 7.16406 10.4407 7.16406 14.1863C7.16406 17.9319 10.2005 20.9684 13.9461 20.9684Z" fill="white"/>
  <path fill-rule="evenodd" clip-rule="evenodd" d="M13.9461 7.99023C10.5241 7.99023 7.75 10.7643 7.75 14.1863C7.75 17.6083 10.5241 20.3824 13.9461 20.3824C17.3681 20.3824 20.1422 17.6083 20.1422 14.1863C20.1422 10.7643 17.3681 7.99023 13.9461 7.99023ZM6.57812 14.1863C6.57812 10.1171 9.87688 6.81836 13.9461 6.81836C18.0153 6.81836 21.3141 10.1171 21.3141 14.1863C21.3141 18.2556 18.0153 21.5543 13.9461 21.5543C9.87688 21.5543 6.57812 18.2556 6.57812 14.1863Z" fill="black"/>
  <path d="M11.5312 14.2472L13.362 16.0566L17.1562 12.3066" stroke="black" stroke-width="1.125"/>
</svg>