<svg width="73" height="73" viewBox="0 0 73 73" fill="none" xmlns="http://www.w3.org/2000/svg">
<circle cx="36.5" cy="36.6703" r="35.5" stroke="#C7E7DC"/>
<path d="M53.3839 40.1616C55.9058 29.5531 47.4822 18.9412 36.5591 19.0715L36.5591 19.0714L36.5561 19.0716C13.6788 20.0186 13.6837 52.6247 36.5564 53.5692L36.5657 53.5696L36.5749 53.5683C36.7347 53.545 36.9449 53.5495 37.1821 53.555L37.1856 53.5551C37.4174 53.5605 37.6709 53.5663 37.9042 53.5423C38.1373 53.5182 38.3649 53.4632 38.5356 53.3358C38.7129 53.2036 38.817 53.0024 38.8167 52.7167H38.8171L38.8163 52.7079C38.8078 52.6129 38.7806 52.5206 38.7362 52.4362C38.6919 52.3518 38.6314 52.277 38.5581 52.216L38.4942 52.2929L38.5581 52.216C38.4848 52.1551 38.4002 52.1092 38.3091 52.0811C38.218 52.053 38.1223 52.0431 38.0275 52.052C35.9001 52.2504 33.7546 52.0152 31.7207 51.3606C29.6868 50.7061 27.8068 49.6458 26.1944 48.2439C24.582 46.842 23.2707 45.1277 22.3398 43.2045C21.4089 41.2814 20.8777 39.1894 20.7784 37.0551C20.6791 34.9208 21.0138 32.7885 21.7621 30.7873C22.5104 28.786 23.6568 26.9573 25.1321 25.4117C26.6074 23.8662 28.3808 22.6359 30.3451 21.7953C32.3094 20.9548 34.4238 20.5213 36.5604 20.5213L36.5616 20.5213C46.5654 20.4029 54.2846 30.1284 51.9683 39.8463L51.9679 39.8482C51.9271 40.0357 51.9622 40.2318 52.0657 40.3935C52.1692 40.5552 52.3326 40.6692 52.52 40.7106C52.7074 40.752 52.9036 40.7174 53.0656 40.6144C53.2274 40.5114 53.3418 40.3486 53.3839 40.1616ZM53.3839 40.1616C53.3838 40.1618 53.3837 40.162 53.3837 40.1623L53.2864 40.1391L53.384 40.161C53.3839 40.1612 53.3839 40.1614 53.3839 40.1616Z" fill="black" stroke="black" stroke-width="0.2"/>
<path d="M42.4453 37.0453V37.0453L42.4472 37.0453C42.6371 37.0416 42.8179 36.9636 42.9508 36.828C43.0837 36.6924 43.1582 36.5102 43.1582 36.3203C43.1582 36.1304 43.0837 35.9482 42.9508 35.8126C42.8178 35.6771 42.637 35.5991 42.4472 35.5954V35.5953H42.4452L38.8736 35.5953L38.8725 35.5954C38.8054 35.5961 38.7391 35.6063 38.6752 35.6255C38.5657 35.276 38.3755 34.9565 38.1194 34.6932C37.8548 34.4212 37.5283 34.2178 37.1683 34.1001V26.8743H37.1683L37.1683 26.8734C37.1666 26.6822 37.0894 26.4995 36.9537 26.3649C36.8179 26.2304 36.6345 26.1549 36.4433 26.1549C36.2521 26.1549 36.0687 26.2304 35.9329 26.3649C35.7972 26.4995 35.72 26.6822 35.7183 26.8734H35.7183V26.8743V34.0999C35.353 34.2182 35.0221 34.4247 34.755 34.7017C34.4704 34.9968 34.2683 35.3614 34.1689 35.7592C34.0696 36.157 34.0765 36.5738 34.189 36.9681C34.3014 37.3623 34.5155 37.7201 34.8097 38.0056C35.1039 38.2911 35.468 38.4943 35.8655 38.5949C36.2629 38.6954 36.6798 38.6898 37.0744 38.5785C37.469 38.4673 37.8274 38.2543 38.1138 37.9609C38.374 37.6945 38.5664 37.3701 38.6758 37.0153C38.7394 37.0343 38.8056 37.0445 38.8724 37.0453L38.8724 37.0453H38.8736H42.4453ZM36.4434 37.2164C36.2084 37.2126 35.9844 37.1168 35.8194 36.9494C35.6542 36.7817 35.5615 36.5557 35.5615 36.3203C35.5615 36.0849 35.6542 35.8589 35.8195 35.6912C35.9844 35.5239 36.2085 35.428 36.4434 35.4243C36.6783 35.428 36.9024 35.5238 37.0674 35.6912C37.2327 35.8589 37.3254 36.0849 37.3254 36.3204C37.3254 36.5558 37.2327 36.7818 37.0673 36.9495C36.9024 37.1169 36.6783 37.2127 36.4434 37.2164Z" fill="black" stroke="black" stroke-width="0.2"/>
<path d="M30.8094 25.1115L30.8094 25.1115L30.8085 25.1099L30.254 24.1492L30.254 24.1492C30.1579 23.9827 29.9995 23.8611 29.8138 23.8113C29.628 23.7616 29.4301 23.7876 29.2636 23.8837C29.097 23.9799 28.9755 24.1382 28.9257 24.324C28.8759 24.5097 28.902 24.7077 28.9981 24.8742C28.9981 24.8742 28.9981 24.8742 28.9981 24.8742L29.5526 25.8349L29.5526 25.8349L29.5535 25.8365C29.6515 25.9992 29.8095 26.117 29.9935 26.1645C30.1775 26.212 30.3728 26.1854 30.5373 26.0904C30.7019 25.9954 30.8226 25.8396 30.8735 25.6566C30.9244 25.4735 30.9014 25.2778 30.8094 25.1115Z" fill="black" stroke="black" stroke-width="0.2"/>
<path d="M25.9598 29.4302L25.9598 29.4302L25.958 29.4291L24.9976 28.875L24.9976 28.875L24.9959 28.874C24.8296 28.7823 24.634 28.7595 24.4511 28.8104C24.2682 28.8614 24.1125 28.9821 24.0176 29.1465C23.9227 29.311 23.8961 29.5061 23.9434 29.69C23.9908 29.8739 24.1084 30.0318 24.271 30.1299L24.2706 30.1307L24.2827 30.136C24.3303 30.1567 24.4154 30.2067 24.5278 30.2751C24.555 30.2917 24.5835 30.3092 24.6131 30.3273C24.702 30.3817 24.8 30.4417 24.8981 30.4992C25.0287 30.5756 25.1631 30.6497 25.2819 30.7026C25.3413 30.729 25.399 30.7512 25.4519 30.7655C25.5007 30.7788 25.5534 30.7877 25.6025 30.782C25.7583 30.7777 25.9087 30.7235 26.0316 30.6274C26.1559 30.5301 26.2453 30.395 26.2862 30.2425C26.3272 30.09 26.3175 29.9284 26.2586 29.7819C26.1997 29.6354 26.0948 29.512 25.9598 29.4302Z" fill="black" stroke="black" stroke-width="0.2"/>
<path d="M22.8079 35.5953V35.5953L23.9168 35.5953C23.9168 35.5953 23.9168 35.5953 23.9168 35.5953C24.012 35.5953 24.1063 35.614 24.1943 35.6504C24.2823 35.6869 24.3622 35.7403 24.4295 35.8076C24.4969 35.8749 24.5503 35.9549 24.5867 36.0429C24.6231 36.1308 24.6419 36.2251 24.6418 36.3203L22.8079 35.5953ZM22.8079 35.5953L22.807 35.5953M22.8079 35.5953L22.807 35.5953M22.807 35.5953C22.6158 35.597 22.4331 35.6742 22.2985 35.8099C22.164 35.9457 22.0885 36.1291 22.0885 36.3203C22.0885 36.5114 22.164 36.6949 22.2985 36.8306C22.4331 36.9664 22.6158 37.0435 22.807 37.0453V37.0453M22.807 35.5953V37.0453M22.807 37.0453H22.8079M22.807 37.0453H22.8079M22.8079 37.0453H23.9168M22.8079 37.0453H23.9168M23.9168 37.0453C23.9168 37.0453 23.9168 37.0453 23.9169 37.0453M23.9168 37.0453H23.9169M23.9169 37.0453C24.0121 37.0453 24.1063 37.0265 24.1943 36.9901M23.9169 37.0453L24.1943 36.9901M24.1943 36.9901C24.2823 36.9537 24.3622 36.9003 24.4295 36.833M24.1943 36.9901L24.4295 36.833M24.4295 36.833C24.4969 36.7657 24.5503 36.6857 24.5867 36.5978M24.4295 36.833L24.5867 36.5978M24.5867 36.5978C24.6231 36.5098 24.6418 36.4155 24.6418 36.3203L24.5867 36.5978Z" fill="black" stroke="black" stroke-width="0.2"/>
<path d="M25.9489 43.2161L25.9491 43.2166L25.958 43.2115C26.1245 43.1154 26.2461 42.957 26.2959 42.7712C26.3456 42.5855 26.3196 42.3876 26.2235 42.221C26.1273 42.0545 25.969 41.9329 25.7832 41.8832C25.5975 41.8334 25.3995 41.8594 25.233 41.9555L25.233 41.9556L24.2726 42.5104L24.2726 42.5103L24.2709 42.5114C24.1358 42.5932 24.0309 42.7166 23.9721 42.863C23.9132 43.0095 23.9035 43.1712 23.9444 43.3237C23.9854 43.4761 24.0747 43.6112 24.199 43.7085C24.3218 43.8046 24.4721 43.8588 24.6279 43.8631C24.6767 43.869 24.7292 43.86 24.7775 43.8469C24.8301 43.8325 24.8878 43.8104 24.9473 43.784C25.0662 43.7311 25.2013 43.657 25.3326 43.5804C25.4362 43.52 25.5395 43.4568 25.6322 43.4001C25.6572 43.3848 25.6814 43.3701 25.7046 43.3559C25.8172 43.2873 25.9022 43.2371 25.9489 43.2161Z" fill="black" stroke="black" stroke-width="0.2"/>
<path d="M29.5539 46.8048L29.5539 46.8048L29.553 46.8064L28.9985 47.7664L28.9985 47.7664L28.998 47.7673C28.9358 47.8775 28.9033 48.0021 28.9039 48.1287C28.9045 48.2553 28.938 48.3796 29.0013 48.4893C29.0645 48.599 29.1553 48.6903 29.2645 48.7542C29.3732 48.8178 29.4964 48.8521 29.6222 48.8539C29.9539 48.8715 30.1735 48.6251 30.3395 48.3611C30.417 48.2379 30.4884 48.1015 30.5571 47.9705C30.5638 47.9576 30.5705 47.9448 30.5773 47.932C30.6532 47.7874 30.726 47.6515 30.8041 47.5381L30.8045 47.5384L30.8092 47.5298C30.9012 47.3636 30.9242 47.1679 30.8734 46.9849C30.8226 46.8019 30.7019 46.6461 30.5375 46.5511C30.373 46.4561 30.1778 46.4295 29.9939 46.4769C29.8099 46.5244 29.652 46.6421 29.5539 46.8048Z" fill="black" stroke="black" stroke-width="0.2"/>
<path d="M37.1683 49.9576L37.1683 49.9576V49.9556V48.8473H37.1683L37.1683 48.8453C37.1646 48.6555 37.0866 48.4747 36.951 48.3418C36.8155 48.2089 36.6332 48.1344 36.4433 48.1344C36.2535 48.1344 36.0712 48.2089 35.9356 48.3418C35.8001 48.4748 35.7221 48.6556 35.7184 48.8454L35.7184 48.8454V48.8473V49.9556H35.7183L35.7184 49.9576C35.7221 50.1474 35.8001 50.3282 35.9356 50.4612C36.0712 50.5941 36.2535 50.6686 36.4433 50.6686C36.6332 50.6686 36.8155 50.5941 36.951 50.4612C37.0866 50.3282 37.1646 50.1474 37.1683 49.9576Z" fill="black" stroke="black" stroke-width="0.2"/>
<path d="M47.8918 28.874L47.8918 28.874L47.89 28.875L46.93 29.4292L46.93 29.4292L46.9282 29.4302C46.7931 29.5119 46.6882 29.6354 46.6293 29.7819C46.5704 29.9284 46.5607 30.09 46.6017 30.2425C46.6426 30.395 46.732 30.5301 46.8563 30.6274C46.9792 30.7235 47.1295 30.7777 47.2853 30.7819C47.3341 30.7878 47.3865 30.7788 47.4348 30.7657C47.4874 30.7514 47.5451 30.7293 47.6045 30.7029C47.7234 30.6501 47.8584 30.5761 47.9897 30.4995C48.0933 30.4392 48.1965 30.3761 48.2892 30.3194C48.3142 30.3042 48.3384 30.2894 48.3616 30.2752C48.4742 30.2067 48.5592 30.1565 48.6059 30.1356L48.6062 30.1363L48.6167 30.1299C48.7791 30.0317 48.8966 29.8738 48.9439 29.69C48.9912 29.5062 48.9645 29.3111 48.8696 29.1468C48.7748 28.9824 48.6192 28.8618 48.4364 28.8108C48.2536 28.7598 48.0581 28.7825 47.8918 28.874Z" fill="black" stroke="black" stroke-width="0.2"/>
<path d="M42.6342 24.1476L42.6342 24.1476L42.6333 24.1492L42.0785 25.1099L42.0785 25.1099L42.078 25.1108C42.0158 25.221 41.9834 25.3456 41.984 25.4722C41.9846 25.5989 42.0182 25.7231 42.0815 25.8328C42.1447 25.9425 42.2355 26.0338 42.3448 26.0977C42.4534 26.1612 42.5767 26.1955 42.7025 26.1973C43.0344 26.2149 43.2543 25.9682 43.4204 25.7039C43.498 25.5806 43.5695 25.4441 43.6381 25.313C43.6449 25.3001 43.6516 25.2873 43.6583 25.2746C43.7342 25.13 43.807 24.9942 43.885 24.8809L43.8854 24.8812L43.8901 24.8726C43.982 24.7063 44.005 24.5106 43.9541 24.3275C43.9032 24.1445 43.7825 23.9887 43.6179 23.8938C43.4534 23.7988 43.2581 23.7722 43.0742 23.8196C42.8902 23.8671 42.7322 23.9849 42.6342 24.1476Z" fill="black" stroke="black" stroke-width="0.2"/>
<path d="M35.7184 22.683L35.7184 22.683V22.685V23.794H35.7183L35.7184 23.7959C35.7221 23.9857 35.8001 24.1665 35.9357 24.2995C36.0712 24.4324 36.2535 24.5069 36.4434 24.5068C36.6332 24.5068 36.8155 24.4324 36.951 24.2994C37.0866 24.1665 37.1646 23.9857 37.1683 23.7959L37.1683 23.7959V23.7939V22.685H37.1683L37.1683 22.683C37.1646 22.4932 37.0866 22.3124 36.951 22.1795C36.8155 22.0465 36.6332 21.9721 36.4433 21.9721C36.2535 21.9721 36.0712 22.0465 35.9356 22.1795C35.8001 22.3124 35.7221 22.4932 35.7184 22.683Z" fill="black" stroke="black" stroke-width="0.2"/>
<path d="M47.629 46.8882L47.629 46.8882L46.2872 46.367C46.0254 46.2653 45.8531 46.0135 45.8531 45.7328C45.8531 45.4521 46.0255 45.2002 46.2872 45.0986C46.2872 45.0986 46.2872 45.0986 46.2872 45.0986L47.629 44.5774C48.1851 44.3613 48.6294 43.9188 48.8475 43.3635C48.8475 43.3635 48.8475 43.3635 48.8475 43.3634L49.3823 42.0019L49.3823 42.0019C49.4846 41.7416 49.7359 41.5703 50.0156 41.5703C50.2953 41.5703 50.5465 41.7415 50.6488 42.0019L50.6488 42.0019L51.1837 43.3634C51.4019 43.9188 51.8462 44.3614 52.4023 44.5774L53.744 45.0986C54.0058 45.2002 54.1781 45.4521 54.1781 45.7328C54.1781 46.0135 54.0057 46.2653 53.7441 46.367M47.629 46.8882L53.7079 46.2737M47.629 46.8882C48.1851 47.1042 48.6294 47.5468 48.8475 48.102L48.9406 48.0655L48.8475 48.102L49.3823 49.4637L49.4754 49.4271L49.3823 49.4637M47.629 46.8882L49.3823 49.4637M53.7441 46.367L53.7079 46.2737M53.7441 46.367L53.7441 46.367L53.7079 46.2737M53.7441 46.367L52.4023 46.8882M53.7079 46.2737L52.3661 46.795M52.4023 46.8882L52.3661 46.795M52.4023 46.8882C51.8461 47.1043 51.4018 47.5468 51.1837 48.102L51.1837 48.1021L50.6488 49.4637L50.6488 49.4637C50.5465 49.724 50.2954 49.8953 50.0156 49.8953C49.7358 49.8953 49.4846 49.7241 49.3823 49.4637M52.4023 46.8882L52.4023 46.8882L52.3661 46.795M52.3661 46.795L49.3823 49.4637M48.3808 45.7328C49.0946 45.3864 49.6736 44.8041 50.0157 44.0875C50.3578 44.8041 50.9368 45.3863 51.6506 45.7328C50.9368 46.0792 50.3578 46.6615 50.0157 47.378C49.6736 46.6615 49.0946 46.0792 48.3808 45.7328Z" fill="black" stroke="black" stroke-width="0.2"/>
<path d="M45.6197 50.3895C45.881 50.2881 46.0531 50.0366 46.0531 49.7562C46.0531 49.4759 45.8811 49.2244 45.6197 49.1229C45.6197 49.1229 45.6197 49.1229 45.6197 49.1229L44.5034 48.6893L44.5033 48.6893C44.0701 48.521 43.724 48.1762 43.554 47.7435L43.1089 46.6107C43.0068 46.3506 42.7559 46.1797 42.4766 46.1797C42.1972 46.1797 41.9464 46.3507 41.8442 46.6107L41.8442 46.6107L41.3992 47.7435C41.2292 48.1762 40.8831 48.521 40.4498 48.6893L39.3335 49.1229C39.3335 49.1229 39.3335 49.1229 39.3335 49.1229C39.0722 49.2244 38.9 49.4759 38.9 49.7562C38.9 50.0366 39.0721 50.2881 39.3335 50.3895L40.4498 50.8232C40.8831 50.9914 41.2292 51.3363 41.3992 51.7689L41.8442 52.9018L41.8442 52.9018C41.9464 53.1618 42.1972 53.3328 42.4766 53.3328C42.756 53.3328 43.0068 53.1617 43.1089 52.9018L43.1089 52.9018L43.554 51.7689L43.554 51.7689C43.7239 51.3363 44.0701 50.9914 44.5033 50.8232L44.5034 50.8232L45.6197 50.3895ZM45.6197 50.3895L45.5835 50.2963M45.6197 50.3895L45.6197 50.3895L45.5835 50.2963M45.5835 50.2963C45.8063 50.2098 45.9531 49.9953 45.9531 49.7562C45.9531 49.5171 45.8064 49.3027 45.5835 49.2161V50.2963ZM41.358 49.7562C41.8231 49.4875 42.2102 49.0985 42.4765 48.6317C42.7428 49.0984 43.13 49.4875 43.595 49.7562C43.1299 50.025 42.7428 50.414 42.4765 50.8808C42.2101 50.414 41.823 50.0249 41.358 49.7562Z" fill="black" stroke="black" stroke-width="0.2"/>
</svg>
