<svg xmlns="http://www.w3.org/2000/svg" width="61" height="75" viewBox="0 0 61 61"
                                    fill="none">
                                    <path
                                        d="M42.0571 30.3638C42.0571 37.468 40.6839 43.8505 38.5081 48.4197C36.2967 53.0634 33.4373 55.5067 30.6082 55.5067C27.7791 55.5067 24.9196 53.0634 22.7083 48.4197C20.5325 43.8505 19.1592 37.468 19.1592 30.3638C19.1592 23.2597 20.5325 16.8772 22.7083 12.308C24.9196 7.66422 27.7791 5.22098 30.6082 5.22098C33.4373 5.22098 36.2967 7.66422 38.5081 12.308C40.6839 16.8772 42.0571 23.2597 42.0571 30.3638Z"
                                        stroke="black" stroke-width="2" />
                                    <path
                                        d="M24.8833 40.2787C18.7309 36.7266 13.8901 32.3461 11.021 28.1772C8.10505 23.9403 7.41889 20.2422 8.83344 17.7922C10.248 15.3421 13.7936 14.0873 18.9209 14.4942C23.9658 14.8945 30.1799 16.8964 36.3323 20.4485C42.4846 24.0006 47.3254 28.3811 50.1946 32.55C53.1105 36.787 53.7967 40.485 52.3821 42.935C50.9676 45.3851 47.4219 46.6399 42.2947 46.233C37.2497 45.8328 31.0356 43.8308 24.8833 40.2787Z"
                                        stroke="black" stroke-width="2" />
                                    <path
                                        d="M24.8828 20.449C31.0352 16.8969 37.2493 14.8949 42.2942 14.4946C47.4214 14.0878 50.9671 15.3426 52.3817 17.7927C53.7962 20.2427 53.11 23.9407 50.1941 28.1777C47.325 32.3466 42.4841 36.7271 36.3318 40.2792C30.1794 43.8313 23.9653 45.8332 18.9204 46.2335C13.7931 46.6403 10.2475 45.3856 8.83294 42.9355C7.41839 40.4854 8.10456 36.7874 11.0205 32.5505C13.8896 28.3816 18.7305 24.001 24.8828 20.449Z"
                                        stroke="black" stroke-width="2" />
                                </svg>