 <svg xmlns="http://www.w3.org/2000/svg" width="58" height="75" viewBox="0 0 58 58"
                                    fill="none">
                                    <path fill-rule="evenodd" clip-rule="evenodd"
                                        d="M19.7959 21.8588C19.7959 24.9688 17.2709 27.4936 14.1609 27.4936C11.0432 27.4936 8.5259 24.9688 8.5259 21.8588C8.5259 18.7488 11.0432 16.2238 14.1609 16.2238C17.2709 16.2238 19.7959 18.7488 19.7959 21.8588Z"
                                        fill="black" fill-opacity="0.5" />
                                    <path fill-rule="evenodd" clip-rule="evenodd"
                                        d="M27.3232 4.6928C27.3232 7.22545 25.2679 9.28079 22.7353 9.28079C20.2026 9.28079 18.1471 7.22545 18.1471 4.6928C18.1471 2.16015 20.2026 0.112518 22.7353 0.112518C25.2679 0.112518 27.3232 2.16015 27.3232 4.6928Z"
                                        fill="black" />
                                    <path fill-rule="evenodd" clip-rule="evenodd"
                                        d="M38.7705 15.639C38.7705 19.2032 35.8838 22.0822 32.3197 22.0822C28.7632 22.0822 25.8763 19.2032 25.8763 15.639C25.8763 12.0826 28.7632 9.19571 32.3197 9.19571C35.8838 9.19571 38.7705 12.0826 38.7705 15.639Z"
                                        fill="black" />
                                    <path fill-rule="evenodd" clip-rule="evenodd"
                                        d="M38.9766 42.3281C38.9766 45.8923 36.0899 48.7712 32.5257 48.7712C28.9692 48.7712 26.0824 45.8923 26.0824 42.3281C26.0824 38.7716 28.9692 35.8848 32.5257 35.8848C36.0899 35.8848 38.9766 38.7716 38.9766 42.3281Z"
                                        fill="black" fill-opacity="0.3" />
                                    <path fill-rule="evenodd" clip-rule="evenodd"
                                        d="M46.1152 7.97941C46.1152 9.5652 44.8297 10.8508 43.2439 10.8508C41.6581 10.8508 40.3725 9.5652 40.3725 7.97941C40.3725 6.39362 41.6581 5.10806 43.2439 5.10806C44.8297 5.10806 46.1152 6.39362 46.1152 7.97941Z"
                                        fill="black" />
                                    <path fill-rule="evenodd" clip-rule="evenodd"
                                        d="M51.3379 38.7561C51.3379 40.3419 50.0523 41.6275 48.4665 41.6275C46.8808 41.6275 45.5952 40.3419 45.5952 38.7561C45.5952 37.1703 46.8808 35.8848 48.4665 35.8848C50.0523 35.8848 51.3379 37.1703 51.3379 38.7561Z"
                                        fill="black" fill-opacity="0.3" />
                                    <path fill-rule="evenodd" clip-rule="evenodd"
                                        d="M22.0693 55.0162C22.0693 56.602 20.7838 57.8876 19.198 57.8876C17.6122 57.8876 16.3266 56.602 16.3266 55.0162C16.3266 53.4304 17.6122 52.1449 19.198 52.1449C20.7838 52.1449 22.0693 53.4304 22.0693 55.0162Z"
                                        fill="black" fill-opacity="0.2" />
                                    <path fill-rule="evenodd" clip-rule="evenodd"
                                        d="M58 20.0575C58 22.644 55.9063 24.7379 53.3197 24.7379C50.7332 24.7379 48.6316 22.644 48.6316 20.0575C48.6316 17.4709 50.7332 15.377 53.3197 15.377C55.9063 15.377 58 17.4709 58 20.0575Z"
                                        fill="black" />
                                    <path fill-rule="evenodd" clip-rule="evenodd"
                                        d="M43.6436 25.7306C43.6436 26.7776 42.7968 27.6245 41.7499 27.6245C40.7029 27.6245 39.8562 26.7776 39.8562 25.7306C39.8562 24.6837 40.7029 23.8369 41.7499 23.8369C42.7968 23.8369 43.6436 24.6837 43.6436 25.7306Z"
                                        fill="black" fill-opacity="0.6" />
                                    <path fill-rule="evenodd" clip-rule="evenodd"
                                        d="M26.7314 26.8854C26.7314 27.9323 25.8847 28.7793 24.8378 28.7793C23.7908 28.7793 22.9439 27.9323 22.9439 26.8854C22.9439 25.8385 23.7908 24.9917 24.8378 24.9917C25.8847 24.9917 26.7314 25.8385 26.7314 26.8854Z"
                                        fill="black" fill-opacity="0.7" />
                                    <path fill-rule="evenodd" clip-rule="evenodd"
                                        d="M20.1152 37.7784C20.1152 38.8254 19.2685 39.6723 18.2216 39.6723C17.1746 39.6723 16.3277 38.8254 16.3277 37.7784C16.3277 36.7315 17.1746 35.8848 18.2216 35.8848C19.2685 35.8848 20.1152 36.7315 20.1152 37.7784Z"
                                        fill="black" fill-opacity="0.3" />
                                    <path fill-rule="evenodd" clip-rule="evenodd"
                                        d="M11.667 11.2667C11.667 12.8525 10.3814 14.1381 8.79565 14.1381C7.20216 14.1381 5.9166 12.8525 5.9166 11.2667C5.9166 9.68094 7.20216 8.39539 8.79565 8.39539C10.3814 8.39539 11.667 9.68094 11.667 11.2667Z"
                                        fill="black" />
                                    <path fill-rule="evenodd" clip-rule="evenodd"
                                        d="M3.8623 24.0988C3.8623 25.138 3.00766 25.9925 1.96073 25.9925C0.921497 25.9925 0.0670469 25.138 0.0670469 24.0988C0.0670469 23.0442 0.921497 22.1974 1.96073 22.1974C3.00766 22.1974 3.8623 23.0442 3.8623 24.0988Z"
                                        fill="black" />
                                </svg>