<svg xmlns="http://www.w3.org/2000/svg" width="51" height="75" viewBox="0 0 51 53"
                                    fill="none">
                                    <path
                                        d="M14.0041 12.2233L11.501 14.7451L46.1529 49.6547L48.656 47.1329L14.0041 12.2233Z"
                                        fill="black" stroke="black" stroke-width="2" stroke-miterlimit="2.61313"
                                        stroke-linecap="round" stroke-linejoin="round" />
                                    <path
                                        d="M14.0041 12.2233L11.501 14.7451L18.6862 21.9837L21.1893 19.4619L14.0041 12.2233Z"
                                        fill="white" stroke="black" stroke-width="2" stroke-miterlimit="2.61313"
                                        stroke-linecap="round" stroke-linejoin="round" />
                                    <path fill-rule="evenodd" clip-rule="evenodd"
                                        d="M25.4168 12.4825C25.4168 12.4825 25.4586 8.85449 28.6109 8.00373C28.6109 8.00373 25.4668 7.15532 25.4168 3.52498C25.4156 3.46521 25.4156 3.40545 25.4168 3.34451C25.4179 3.40545 25.4179 3.46638 25.4168 3.52498C25.3668 7.15415 22.2227 8.00373 22.2227 8.00373C25.3749 8.85449 25.4168 12.4825 25.4168 12.4825Z"
                                        fill="white" stroke="black" stroke-width="2" stroke-miterlimit="2.61313"
                                        stroke-linecap="round" stroke-linejoin="round" />
                                    <path fill-rule="evenodd" clip-rule="evenodd"
                                        d="M12.0037 34.5657C12.0037 34.5657 12.0456 30.9377 15.1978 30.087C15.1978 30.087 12.0537 29.2386 12.0037 25.6082C12.0025 25.5485 12.0025 25.4887 12.0037 25.4278C12.0048 25.4887 12.0048 25.5496 12.0037 25.6082C11.9537 29.2374 8.80957 30.087 8.80957 30.087C11.9618 30.9377 12.0037 34.5657 12.0037 34.5657Z"
                                        fill="white" stroke="black" stroke-width="2" stroke-miterlimit="2.61313"
                                        stroke-linecap="round" stroke-linejoin="round" />
                                    <path fill-rule="evenodd" clip-rule="evenodd"
                                        d="M5.53591 13.727C5.53591 13.727 5.57778 10.099 8.73002 9.24822C8.73002 9.24822 5.58592 8.39982 5.53591 4.76947C5.53474 4.7097 5.53474 4.64994 5.53591 4.589C5.53707 4.64994 5.53707 4.71088 5.53591 4.76947C5.48589 8.39864 2.3418 9.24822 2.3418 9.24822C5.49403 10.099 5.53591 13.727 5.53591 13.727Z"
                                        fill="white" stroke="black" stroke-width="2" stroke-miterlimit="2.61313"
                                        stroke-linecap="round" stroke-linejoin="round" />
                                </svg>