<svg width="70" height="61" viewBox="0 0 70 61" fill="none" xmlns="http://www.w3.org/2000/svg">
<circle cx="17.5729" cy="39.4672" r="2.99065" fill="black"/>
<circle cx="36.6385" cy="39.4672" r="2.99065" fill="black"/>
<circle cx="28.0406" cy="47.3178" r="2.99065" fill="black"/>
<circle cx="55.7037" cy="39.4672" r="2.99065" fill="black"/>
<circle cx="47.105" cy="47.3178" r="2.99065" fill="black"/>
<path d="M7.86133 26.9356C10.3735 26.9356 11.671 26.1626 12.8304 25.4724C13.8795 24.8375 14.7904 24.313 16.6953 24.313C18.6001 24.313 19.5111 24.8375 20.5601 25.4724C21.7195 26.1626 23.017 26.9356 25.5292 26.9356C28.0413 26.9356 29.3388 26.1626 30.4983 25.4724C31.5473 24.8375 32.4583 24.313 34.3355 24.313C36.2127 24.313 37.1513 24.8375 38.1727 25.4724C39.3322 26.1626 40.6297 26.9356 43.1418 26.9356C45.654 26.9356 46.9515 26.1626 48.1109 25.4724C49.16 24.8375 50.071 24.313 51.9482 24.313C53.8254 24.313 54.7364 24.8375 55.7854 25.4724C56.9449 26.1626 58.2424 26.9356 60.7545 26.9356" stroke="black"/>
<path d="M6.25403 18.1592H63.8241" stroke="black"/>
<path d="M6.25403 10.3086H63.8241" stroke="black"/>
</svg>
