<svg width="38" height="62" viewBox="0 0 38 62" fill="none" xmlns="http://www.w3.org/2000/svg">
<path d="M14.5049 2.53711C8.10409 7.38624 -0.236422 19.9552 17.6084 31.4379C35.4532 42.9207 33.1903 56.1362 29.8282 61.3086" stroke="black" stroke-linecap="round"/>
<path d="M19.7665 1.30859C13.3829 5.78964 5.0648 17.4045 22.8616 28.0156C30.4989 32.5693 34.4431 37.4179 36.1924 41.8474" stroke="black" stroke-linecap="round"/>
<path d="M1.70354 14.175C0.863028 17.2785 1.16044 25.0759 9.07423 31.438C18.9665 39.3905 22.6518 42.1061 24.2035 45.9854C25.4449 49.0888 24.7207 53.4854 24.2035 55.2957" stroke="black" stroke-linecap="round"/>
<path fill-rule="evenodd" clip-rule="evenodd" d="M27.3218 17.6784C29.8889 17.6784 31.9695 15.1667 31.9695 12.0686C31.9695 15.1667 34.0501 17.6784 36.6173 17.6784C34.0501 17.6784 31.9695 20.1901 31.9695 23.2882C31.9695 20.1901 29.8889 17.6784 27.3218 17.6784Z" fill="white" stroke="black" stroke-miterlimit="2.61313" stroke-linecap="round" stroke-linejoin="round"/>
<path fill-rule="evenodd" clip-rule="evenodd" d="M21.8757 13.7143C23.2162 13.7143 24.3031 12.3183 24.3031 10.6006C24.3031 12.3183 25.39 13.7143 26.7305 13.7143C25.39 13.7143 24.3031 15.1102 24.3031 16.828C24.3031 15.1102 23.2162 13.7143 21.8757 13.7143Z" fill="white" stroke="black" stroke-miterlimit="2.61313" stroke-linecap="round" stroke-linejoin="round"/>
</svg>
