<svg width="26" height="46" viewBox="0 0 26 46" fill="none" xmlns="http://www.w3.org/2000/svg">
<path d="M9.65385 21.4453C9.65385 23.7116 7.64454 25.6181 5.07692 25.6181C2.50931 25.6181 0.5 23.7116 0.5 21.4453C0.5 20.8896 0.678969 20.1455 1.00652 19.2592C1.33065 18.3822 1.78487 17.406 2.30137 16.399C3.05494 14.9299 3.9253 13.4248 4.69741 12.0896C4.82191 11.8743 4.94385 11.6634 5.06233 11.4578C5.28363 11.8591 5.53868 12.3101 5.81119 12.792C5.85582 12.8709 5.90091 12.9506 5.94639 13.0311C6.47921 13.9737 7.07233 15.0288 7.62702 16.0888C8.18237 17.1501 8.69403 18.2066 9.0658 19.1513C9.44325 20.1104 9.65385 20.8996 9.65385 21.4453Z" stroke="black"/>
<path d="M25.5 39.1724C25.5 42.2984 22.6444 44.9258 19 44.9258C15.3556 44.9258 12.5 42.2984 12.5 39.1724C12.5 38.4013 12.7546 37.3847 13.2084 36.193C13.6585 35.0109 14.2881 33.6981 15.0018 32.3476C16.0429 30.3776 17.2464 28.3575 18.3116 26.5697C18.5433 26.1808 18.7684 25.8029 18.984 25.4389C19.3234 26.0438 19.7347 26.7495 20.181 27.5156C20.2424 27.6208 20.3043 27.7272 20.3669 27.8347C21.1015 29.0961 21.9206 30.5101 22.6868 31.9313C23.4537 33.3537 24.1622 34.7734 24.678 36.0454C25.1998 37.3324 25.5 38.4115 25.5 39.1724Z" stroke="black"/>
<path d="M18.054 7.73546C18.054 9.14537 16.8373 10.3351 15.277 10.3351C13.7167 10.3351 12.5 9.14537 12.5 7.73546C12.5 7.39465 12.6081 6.92185 12.8175 6.33958C13.0236 5.76627 13.3137 5.1251 13.6457 4.46C14.1301 3.48944 14.6886 2.49684 15.1864 1.61214C15.2127 1.56549 15.2388 1.51914 15.2647 1.47311C15.3676 1.66212 15.4782 1.86306 15.5933 2.07218C15.6223 2.12487 15.6516 2.17807 15.6811 2.23174C16.025 2.85704 16.4067 3.55485 16.7634 4.2554C17.1208 4.95717 17.4481 5.65217 17.6851 6.27111C17.9275 6.90402 18.054 7.40437 18.054 7.73546Z" stroke="black"/>
</svg>
