<svg width="58" height="61" viewBox="0 0 58 61" fill="none" xmlns="http://www.w3.org/2000/svg">
<path fill-rule="evenodd" clip-rule="evenodd" d="M21.9412 0.308594C15.3636 0.308594 10.0272 5.65543 10.0272 12.2543C10.0272 18.8531 15.3586 24.2 21.9412 24.2C28.5187 24.2 33.8551 18.8531 33.8551 12.2543C33.8551 5.65543 28.5237 0.308594 21.9412 0.308594Z" fill="url(#paint0_radial_34693_4142)"/>
<path fill-rule="evenodd" clip-rule="evenodd" d="M45.4706 12.0732C38.893 12.0732 33.5566 17.4201 33.5566 24.0189C33.5566 30.6178 38.888 35.9646 45.4706 35.9646C52.0481 35.9646 57.3845 30.6178 57.3845 24.0189C57.3845 17.4201 52.0531 12.0732 45.4706 12.0732Z" fill="url(#paint1_radial_34693_4142)"/>
<path fill-rule="evenodd" clip-rule="evenodd" d="M21.7919 17.9556C10.1007 17.9556 0.615479 27.4341 0.615479 39.132C0.615479 50.83 10.0917 60.3085 21.7919 60.3085C33.4832 60.3085 42.9684 50.83 42.9684 39.132C42.9684 27.4341 33.4921 17.9556 21.7919 17.9556Z" fill="url(#paint2_radial_34693_4142)"/>
<defs>
<radialGradient id="paint0_radial_34693_4142" cx="0" cy="0" r="1" gradientUnits="userSpaceOnUse" gradientTransform="translate(21.9412 12.2543) rotate(90) scale(11.9457 11.9139)">
<stop stop-opacity="0.3"/>
<stop offset="1" stop-color="#D1D1D1" stop-opacity="0"/>
</radialGradient>
<radialGradient id="paint1_radial_34693_4142" cx="0" cy="0" r="1" gradientUnits="userSpaceOnUse" gradientTransform="translate(45.4706 24.0189) rotate(90) scale(11.9457 11.9139)">
<stop stop-opacity="0.3"/>
<stop offset="1" stop-color="#D1D1D1" stop-opacity="0"/>
</radialGradient>
<radialGradient id="paint2_radial_34693_4142" cx="0" cy="0" r="1" gradientUnits="userSpaceOnUse" gradientTransform="translate(21.792 39.132) rotate(90) scale(21.1765 21.1765)">
<stop stop-opacity="0.3"/>
<stop offset="1" stop-color="#D1D1D1" stop-opacity="0"/>
</radialGradient>
</defs>
</svg>
