<svg xmlns="http://www.w3.org/2000/svg" width="41" height="41" viewBox="0 0 41 41" fill="none">
  <g clip-path="url(#clip0_21313_4815)">
    <g opacity="0.8">
      <path d="M20.329 25.9481C17.3074 25.9481 14.8594 23.4987 14.8594 20.4785" stroke="black" stroke-width="1.3" stroke-miterlimit="2.61313" stroke-linecap="round" stroke-linejoin="round"/>
      <path fill-rule="evenodd" clip-rule="evenodd" d="M16.0152 28.8694C17.1554 29.4456 18.4443 29.7702 19.809 29.7702H19.8158H19.8226C21.1873 29.7702 22.4762 29.4456 23.6164 28.8694L23.6137 28.864C26.358 27.4736 28.2393 24.6252 28.2393 21.3386C28.2393 21.1425 28.2312 20.9477 28.219 20.7557H28.2204C28.2204 20.7557 28.2231 20.7354 28.2258 20.6948L28.2393 20.6921C28.265 20.1673 28.1298 16.1598 19.8226 4.07227L19.8158 4.08173L19.809 4.07227C11.5032 16.1598 11.3679 20.166 11.3923 20.6921L11.4058 20.6948C11.4085 20.7354 11.4112 20.7557 11.4112 20.7557H11.4126C11.399 20.9477 11.3923 21.1425 11.3923 21.3386C11.3923 24.6252 13.2736 27.4736 16.0179 28.864L16.0152 28.8694V28.8694Z" stroke="black" stroke-width="1.3" stroke-miterlimit="2.61313" stroke-linecap="round" stroke-linejoin="round"/>
      <path d="M0.5 16.9226H12.1818" stroke="black" stroke-width="1.3" stroke-miterlimit="2.61313" stroke-linecap="round" stroke-linejoin="round"/>
      <path d="M27.2578 16.9229H38.9396" stroke="black" stroke-width="1.3" stroke-miterlimit="2.61313" stroke-linecap="round" stroke-linejoin="round"/>
      <path d="M19.8125 36.7322V33.666" stroke="black" stroke-width="1.3" stroke-miterlimit="2.61313" stroke-linecap="round" stroke-linejoin="round"/>
      <path d="M11.9766 34.6322L13.509 31.9785" stroke="black" stroke-width="1.3" stroke-miterlimit="2.61313" stroke-linecap="round" stroke-linejoin="round"/>
      <path d="M6.24609 28.8976L8.89975 27.3652" stroke="black" stroke-width="1.3" stroke-miterlimit="2.61313" stroke-linecap="round" stroke-linejoin="round"/>
      <path d="M32.4141 21.0654H35.4802" stroke="black" stroke-width="1.3" stroke-miterlimit="2.61313" stroke-linecap="round" stroke-linejoin="round"/>
      <path d="M4.14844 21.0654H7.21326" stroke="black" stroke-width="1.3" stroke-miterlimit="2.61313" stroke-linecap="round" stroke-linejoin="round"/>
      <path d="M30.7305 27.3654L33.3841 28.8978" stroke="black" stroke-width="1.3" stroke-miterlimit="2.61313" stroke-linecap="round" stroke-linejoin="round"/>
      <path d="M26.1172 31.9785L27.6496 34.6322" stroke="black" stroke-width="1.3" stroke-miterlimit="2.61313" stroke-linecap="round" stroke-linejoin="round"/>
    </g>
  </g>
  <defs>
    <clipPath id="clip0_21313_4815">
      <rect width="40.9756" height="40" fill="white" transform="translate(0 0.200195)"/>
    </clipPath>
  </defs>
</svg>