<svg xmlns="http://www.w3.org/2000/svg" width="56" height="60" viewBox="0 0 56 60" fill="none">
  <mask id="path-1-outside-1_19635_10946" maskUnits="userSpaceOnUse" x="2.76322" y="-4.2769" width="49.4975" height="49.4975" fill="black">
    <rect fill="white" x="2.76322" y="-4.2769" width="49.4975" height="49.4975"/>
    <path fill-rule="evenodd" clip-rule="evenodd" d="M13.1989 11.0981L9.48599 7.38511C8.85475 9.7178 9.45481 12.3142 11.2862 14.1455C13.2006 16.0599 15.9509 16.6288 18.3622 15.8523L39.4877 36.9779C40.7791 38.2692 42.8727 38.2692 44.164 36.9779C45.4553 35.6866 45.4553 33.5929 44.164 32.3016L22.9404 11.0781C23.5877 8.73613 22.9909 6.1224 21.1501 4.2816C19.3456 2.47707 16.7983 1.86803 14.4924 2.45447L18.195 6.15707L18.1435 6.20849L17.0932 10.0291L13.2726 11.0794L13.2265 11.1256L13.2002 11.0993L13.1984 11.0998L13.1989 11.0981Z"/>
  </mask>
  <path fill-rule="evenodd" clip-rule="evenodd" d="M13.1989 11.0981L9.48599 7.38511C8.85475 9.7178 9.45481 12.3142 11.2862 14.1455C13.2006 16.0599 15.9509 16.6288 18.3622 15.8523L39.4877 36.9779C40.7791 38.2692 42.8727 38.2692 44.164 36.9779C45.4553 35.6866 45.4553 33.5929 44.164 32.3016L22.9404 11.0781C23.5877 8.73613 22.9909 6.1224 21.1501 4.2816C19.3456 2.47707 16.7983 1.86803 14.4924 2.45447L18.195 6.15707L18.1435 6.20849L17.0932 10.0291L13.2726 11.0794L13.2265 11.1256L13.2002 11.0993L13.1984 11.0998L13.1989 11.0981Z" fill="#F5F5F5"/>
  <path d="M9.48599 7.38511L10.9002 5.97089L8.45769 3.52839L7.55542 6.86269L9.48599 7.38511ZM13.1989 11.0981L15.1275 11.6279L15.4356 10.5063L14.6131 9.68384L13.1989 11.0981ZM18.3622 15.8523L19.7764 14.4381L18.9123 13.574L17.7491 13.9486L18.3622 15.8523ZM44.164 32.3016L42.7498 33.7159L44.164 32.3016ZM22.9404 11.0781L21.0127 10.5453L20.7023 11.6684L21.5262 12.4923L22.9404 11.0781ZM14.4924 2.45447L13.9994 0.51617L10.5922 1.3827L13.0781 3.86868L14.4924 2.45447ZM18.195 6.15707L19.6092 7.57128L21.0234 6.15707L19.6092 4.74286L18.195 6.15707ZM18.1435 6.20849L16.7293 4.79428L16.3553 5.16829L16.2151 5.67831L18.1435 6.20849ZM17.0932 10.0291L17.6233 11.9575L18.7201 11.656L19.0216 10.5592L17.0932 10.0291ZM13.2726 11.0794L12.7424 9.15099L12.2324 9.2912L11.8584 9.66522L13.2726 11.0794ZM13.2265 11.1256L11.8122 12.5398L13.2265 13.954L14.6407 12.5398L13.2265 11.1256ZM13.2002 11.0993L14.6144 9.68512L13.7917 8.86243L12.6699 9.17091L13.2002 11.0993ZM13.1984 11.0998L11.2699 10.57L10.3384 13.9605L13.7287 13.0282L13.1984 11.0998ZM8.07177 8.79932L11.7847 12.5123L14.6131 9.68384L10.9002 5.97089L8.07177 8.79932ZM12.7004 12.7313C11.396 11.4269 10.9647 9.57713 11.4166 7.90752L7.55542 6.86269C6.74475 9.85847 7.51367 13.2015 9.87196 15.5598L12.7004 12.7313ZM17.7491 13.9486C16.0239 14.5042 14.0638 14.0948 12.7004 12.7313L9.87196 15.5598C12.3373 18.0251 15.8779 18.7535 18.9753 17.756L17.7491 13.9486ZM40.902 35.5637L19.7764 14.4381L16.9479 17.2665L38.0735 38.3921L40.902 35.5637ZM42.7498 35.5637C42.2395 36.0739 41.4122 36.0739 40.902 35.5637L38.0735 38.3921C40.1459 40.4645 43.5058 40.4645 45.5782 38.3921L42.7498 35.5637ZM42.7498 33.7159C43.26 34.2261 43.26 35.0534 42.7498 35.5637L45.5782 38.3921C47.6506 36.3197 47.6506 32.9598 45.5782 30.8874L42.7498 33.7159ZM21.5262 12.4923L42.7498 33.7159L45.5782 30.8874L24.3547 9.66387L21.5262 12.4923ZM19.7359 5.69581C21.047 7.00695 21.4759 8.86914 21.0127 10.5453L24.8682 11.6109C25.6994 8.60312 24.9348 5.23785 22.5643 2.86739L19.7359 5.69581ZM14.9853 4.39277C16.6359 3.97299 18.4505 4.41043 19.7359 5.69581L22.5643 2.86739C20.2406 0.543709 16.9606 -0.236931 13.9994 0.51617L14.9853 4.39277ZM19.6092 4.74286L15.9066 1.04026L13.0781 3.86868L16.7807 7.57128L19.6092 4.74286ZM19.5577 7.6227L19.6092 7.57128L16.7807 4.74286L16.7293 4.79428L19.5577 7.6227ZM19.0216 10.5592L20.072 6.73867L16.2151 5.67831L15.1647 9.49887L19.0216 10.5592ZM13.8028 13.0079L17.6233 11.9575L16.563 8.10061L12.7424 9.15099L13.8028 13.0079ZM14.6407 12.5398L14.6868 12.4936L11.8584 9.66522L11.8122 9.71136L14.6407 12.5398ZM11.786 12.5135L11.8122 12.5398L14.6407 9.71136L14.6144 9.68512L11.786 12.5135ZM13.7287 13.0282L13.7305 13.0278L12.6699 9.17091L12.6682 9.1714L13.7287 13.0282ZM11.2704 10.5682L11.2699 10.57L15.127 11.6297L15.1275 11.6279L11.2704 10.5682Z" fill="black" fill-opacity="0.8" mask="url(#path-1-outside-1_19635_10946)"/>
  <mask id="path-3-outside-2_19635_10946" maskUnits="userSpaceOnUse" x="3.68462" y="-4.27739" width="49.4975" height="49.4975" fill="black">
    <rect fill="white" x="3.68462" y="-4.27739" width="49.4975" height="49.4975"/>
    <path fill-rule="evenodd" clip-rule="evenodd" d="M42.7486 11.0979L46.4606 7.38588C47.0909 9.71806 46.4907 12.3135 44.6599 14.1443C42.7696 16.0346 40.0642 16.6131 37.675 15.8797L16.5768 36.978C15.2855 38.2693 13.1919 38.2693 11.9005 36.978C10.6092 35.6867 10.6092 33.593 11.9006 32.3017L33.0321 11.1702C32.3427 8.8046 32.9306 6.14567 34.7959 4.28039C36.601 2.47533 39.1492 1.86646 41.4557 2.45377L37.7526 6.1569L37.804 6.20832L38.8544 10.0289L42.6749 11.0793L42.7211 11.1254L42.7473 11.0992L42.7491 11.0996L42.7486 11.0979Z"/>
  </mask>
  <path fill-rule="evenodd" clip-rule="evenodd" d="M42.7486 11.0979L46.4606 7.38588C47.0909 9.71806 46.4907 12.3135 44.6599 14.1443C42.7696 16.0346 40.0642 16.6131 37.675 15.8797L16.5768 36.978C15.2855 38.2693 13.1919 38.2693 11.9005 36.978C10.6092 35.6867 10.6092 33.593 11.9006 32.3017L33.0321 11.1702C32.3427 8.8046 32.9306 6.14567 34.7959 4.28039C36.601 2.47533 39.1492 1.86646 41.4557 2.45377L37.7526 6.1569L37.804 6.20832L38.8544 10.0289L42.6749 11.0793L42.7211 11.1254L42.7473 11.0992L42.7491 11.0996L42.7486 11.0979Z" fill="#F5F5F5"/>
  <path d="M46.4606 7.38588L45.0464 5.97167L47.4897 3.52833L48.3913 6.86404L46.4606 7.38588ZM42.7486 11.0979L40.82 11.6277L40.5119 10.5061L41.3344 9.68367L42.7486 11.0979ZM37.675 15.8797L36.2608 14.4655L37.1116 13.6147L38.2619 13.9678L37.675 15.8797ZM16.5768 36.978L17.991 38.3922L16.5768 36.978ZM11.9006 32.3017L13.3148 33.7159L11.9006 32.3017ZM33.0321 11.1702L34.9522 10.6106L35.2835 11.7473L34.4463 12.5844L33.0321 11.1702ZM41.4557 2.45377L41.9492 0.515616L45.355 1.38286L42.8699 3.86798L41.4557 2.45377ZM37.7526 6.1569L36.3383 7.57111L34.9241 6.1569L36.3383 4.74269L37.7526 6.1569ZM37.804 6.20832L39.2182 4.79411L39.5922 5.16812L39.7324 5.67814L37.804 6.20832ZM38.8544 10.0289L38.3242 11.9573L37.2274 11.6558L36.9259 10.5591L38.8544 10.0289ZM42.6749 11.0793L43.2051 9.15082L43.7151 9.29103L44.0891 9.66505L42.6749 11.0793ZM42.7211 11.1254L44.1353 12.5396L42.7211 13.9538L41.3069 12.5396L42.7211 11.1254ZM42.7473 11.0992L41.3331 9.68495L42.1558 8.86226L43.2776 9.17075L42.7473 11.0992ZM42.7491 11.0996L44.6776 10.5698L45.6091 13.9604L42.2188 13.0281L42.7491 11.0996ZM47.8748 8.80009L44.1628 12.5121L41.3344 9.68367L45.0464 5.97167L47.8748 8.80009ZM43.2457 12.7301C44.5497 11.4261 44.981 9.57697 44.5299 7.90773L48.3913 6.86404C49.2008 9.85915 48.4317 13.2009 46.0741 15.5585L43.2457 12.7301ZM38.2619 13.9678C39.9715 14.4925 41.8993 14.0764 43.2457 12.7301L46.0741 15.5585C43.6398 17.9928 40.1569 18.7337 37.0881 17.7917L38.2619 13.9678ZM15.1626 35.5638L36.2608 14.4655L39.0892 17.2939L17.991 38.3922L15.1626 35.5638ZM13.3148 35.5638C13.825 36.074 14.6523 36.074 15.1626 35.5638L17.991 38.3922C15.9186 40.4645 12.5587 40.4645 10.4863 38.3922L13.3148 35.5638ZM13.3148 33.7159C12.8045 34.2262 12.8045 35.0535 13.3148 35.5638L10.4863 38.3922C8.41397 36.3198 8.41398 32.9599 10.4863 30.8875L13.3148 33.7159ZM34.4463 12.5844L13.3148 33.7159L10.4863 30.8875L31.6179 9.75598L34.4463 12.5844ZM36.2101 5.6946C34.8816 7.02313 34.4589 8.91771 34.9522 10.6106L31.112 11.7298C30.2265 8.69149 30.9797 5.26822 33.3817 2.86617L36.2101 5.6946ZM40.9622 4.39192C39.3112 3.97152 37.4959 4.40885 36.2101 5.6946L33.3817 2.86617C35.7061 0.541819 38.9873 -0.238599 41.9492 0.515616L40.9622 4.39192ZM36.3383 4.74269L40.0415 1.03955L42.8699 3.86798L39.1668 7.57111L36.3383 4.74269ZM36.3898 7.62254L36.3383 7.57111L39.1668 4.74269L39.2182 4.79411L36.3898 7.62254ZM36.9259 10.5591L35.8755 6.7385L39.7324 5.67814L40.7828 9.4987L36.9259 10.5591ZM42.1447 13.0077L38.3242 11.9573L39.3845 8.10044L43.2051 9.15082L42.1447 13.0077ZM41.3069 12.5396L41.2607 12.4935L44.0891 9.66505L44.1353 9.71119L41.3069 12.5396ZM44.1615 12.5134L44.1353 12.5396L41.3069 9.71119L41.3331 9.68495L44.1615 12.5134ZM42.2188 13.0281L42.217 13.0276L43.2776 9.17075L43.2794 9.17123L42.2188 13.0281ZM44.6771 10.568L44.6776 10.5698L40.8205 11.6295L40.82 11.6277L44.6771 10.568Z" fill="black" fill-opacity="0.8" mask="url(#path-3-outside-2_19635_10946)"/>
</svg>