<svg xmlns="http://www.w3.org/2000/svg" width="56" height="42" viewBox="0 0 56 42" fill="none">
  <g opacity="0.8">
    <path fill-rule="evenodd" clip-rule="evenodd" d="M28.1558 4.89209H32.1037V31.7379H21.466C20.6765 28.5795 18.2383 26.2108 13.9347 26.2108C9.631 26.2108 7.19284 28.5795 6.40326 31.7379H5.25794C5.25794 31.7379 5.25794 31.7379 5.25794 30.9483C5.25794 29.3691 3.67877 27.0004 2.09961 26.2108V4.89209L28.1558 4.89209Z" stroke="black" stroke-width="2.1" stroke-miterlimit="2.61313" stroke-linecap="round" stroke-linejoin="round"/>
    <path fill-rule="evenodd" clip-rule="evenodd" d="M13.944 29.7866C16.3127 29.7866 17.8919 31.3658 17.8919 33.7345C17.8919 36.1033 16.3127 37.6824 13.944 37.6824C11.5753 37.6824 9.99609 36.1033 9.99609 33.7345C9.99609 31.3658 11.5753 29.7866 13.944 29.7866Z" stroke="black" stroke-width="2.1" stroke-miterlimit="2.61313" stroke-linecap="round" stroke-linejoin="round"/>
    <path fill-rule="evenodd" clip-rule="evenodd" d="M45.4753 29.7866C47.844 29.7866 49.4232 31.3658 49.4232 33.7345C49.4232 36.1033 47.844 37.6824 45.4753 37.6824C43.1065 37.6824 41.5273 36.1033 41.5273 33.7345C41.5273 31.3658 43.1065 29.7866 45.4753 29.7866Z" stroke="black" stroke-width="2.1" stroke-miterlimit="2.61313" stroke-linecap="round" stroke-linejoin="round"/>
    <path fill-rule="evenodd" clip-rule="evenodd" d="M37.3208 11.626H46.7958L53.902 20.3114V32.1551H52.6699C51.8804 28.9968 49.4422 26.628 45.2166 26.628C40.8349 26.628 38.3967 28.9968 37.6072 32.1551H36.5312V11.626H37.3208Z" stroke="black" stroke-width="2.1" stroke-miterlimit="2.61313" stroke-linecap="round" stroke-linejoin="round"/>
    <path d="M53.9005 19.8354L37.2969 19.8354" stroke="black" stroke-width="2.1"/>
    <path d="M40.6152 11.5337L40.6152 19.8354" stroke="black" stroke-width="2.1"/>
    <path d="M25.6728 4.89209H2.42773V23.156H25.6728V4.89209Z" stroke="black" stroke-width="2.1" stroke-miterlimit="2.61313" stroke-linecap="round" stroke-linejoin="round"/>
    <path d="M14.4467 16.5801C14.0064 16.5456 13.599 16.4424 13.2004 16.2708L13.1991 16.2702C12.7099 16.0475 12.2698 15.7473 11.8959 15.3695C11.5219 14.9916 11.2233 14.5456 10.9915 14.0324L10.9909 14.031L10.9909 14.031C10.7747 13.5242 10.6585 12.9662 10.6585 12.3745C10.6585 11.7911 10.7748 11.233 10.9992 10.7176C11.223 10.2037 11.5218 9.75758 11.9038 9.37141C12.2779 8.98491 12.7184 8.68445 13.2082 8.46999C13.6987 8.25522 14.2147 8.14338 14.7556 8.14338C15.2963 8.14338 15.8205 8.25516 16.3112 8.46999L16.3117 8.47023C16.8093 8.69303 17.2495 8.99328 17.6235 9.37112L17.6235 9.37114C18.0056 9.75737 18.3044 10.2036 18.5283 10.7176C18.7527 11.2329 18.869 11.7826 18.869 12.3745C18.869 12.9664 18.7527 13.5161 18.5283 14.0315C18.3042 14.546 17.9971 14.9921 17.6235 15.3695L17.6229 15.37C17.2414 15.7471 16.8097 16.0474 16.3117 16.2704L16.3105 16.271L16.3105 16.2709C15.8459 16.4681 15.3557 16.5799 14.8483 16.5888L14.4467 16.5801ZM14.4467 16.5801C14.4462 16.58 14.4458 16.58 14.4454 16.5799L14.4534 16.5104L14.4479 16.5801C14.4475 16.5801 14.4471 16.5801 14.4467 16.5801ZM15.7878 15.9366L15.7878 15.9366L15.7871 15.9371C15.5061 16.1226 15.1606 16.2209 14.7556 16.2209C14.3578 16.2209 14.0138 16.1306 13.7345 15.9302L13.7346 15.9301L13.7315 15.9282C13.4407 15.7414 13.2032 15.4723 13.02 15.1349L13.0201 15.1349L13.0194 15.1338C12.8281 14.7962 12.6914 14.3904 12.6026 13.9147C12.5135 13.4381 12.4649 12.9191 12.4649 12.3661C12.4649 11.8133 12.5135 11.2945 12.6025 10.818C12.6995 10.342 12.8364 9.93528 13.0204 9.58819C13.203 9.2435 13.4404 8.98228 13.7327 8.78639L13.7327 8.7864L13.7334 8.78589C14.0138 8.59272 14.3588 8.49439 14.7638 8.49439C15.1681 8.49439 15.5052 8.59239 15.7945 8.78614C16.0784 8.98183 16.3166 9.25182 16.5081 9.58992C16.6993 9.92735 16.836 10.3413 16.9166 10.8081L16.9166 10.8081L16.9168 10.809C17.0058 11.2856 17.0545 11.8046 17.0545 12.3661C17.0545 12.9361 17.0058 13.455 16.9168 13.9229L16.9168 13.9232C16.828 14.3988 16.6912 14.8046 16.4999 15.1423L16.4999 15.1423L16.4993 15.1434C16.3161 15.4808 16.0786 15.7498 15.7878 15.9366Z" fill="black" stroke="black" stroke-width="0.14" stroke-linecap="round" stroke-linejoin="round"/>
    <path d="M18.7979 17.4665C18.8365 17.4665 18.8679 17.4351 18.8679 17.3965V15.6577C18.8679 15.6191 18.8365 15.5877 18.7979 15.5877C18.224 15.5877 17.6912 15.7081 17.1918 15.9403C16.6939 16.1718 16.2616 16.4809 15.8957 16.8762C15.5305 17.2707 15.2403 17.7249 15.025 18.2299L15.0249 18.2299L15.0243 18.2315C14.8332 18.7122 14.7337 19.2183 14.7171 19.7407L14.7171 19.7407V19.7429V19.7429V19.7429V19.7429V19.7429V19.7429V19.7429V19.743V19.743V19.743V19.743V19.743V19.743V19.743V19.743V19.743V19.7431V19.7431V19.7431V19.7431V19.7431V19.7431V19.7432V19.7432V19.7432V19.7432V19.7433V19.7433V19.7433V19.7433V19.7434V19.7434V19.7434V19.7434V19.7435V19.7435V19.7435V19.7436V19.7436V19.7436V19.7436V19.7437V19.7437V19.7438V19.7438V19.7438V19.7439V19.7439V19.7439V19.744V19.744V19.7441V19.7441V19.7441V19.7442V19.7442V19.7443V19.7443V19.7444V19.7444V19.7445V19.7445V19.7446V19.7446V19.7447V19.7447V19.7448V19.7448V19.7449V19.7449V19.745V19.7451V19.7451V19.7452V19.7452V19.7453V19.7453V19.7454V19.7455V19.7455V19.7456V19.7457V19.7457V19.7458V19.7459V19.7459V19.746V19.7461V19.7461V19.7462V19.7463V19.7463V19.7464V19.7465V19.7466V19.7466V19.7467V19.7468V19.7469V19.7469V19.747V19.7471V19.7472V19.7473V19.7473V19.7474V19.7475V19.7476V19.7477V19.7477V19.7478V19.7479V19.748V19.7481V19.7482V19.7483V19.7484V19.7485V19.7485V19.7486V19.7487V19.7488V19.7489V19.749V19.7491V19.7492V19.7493V19.7494V19.7495V19.7496V19.7497V19.7498V19.7499V19.75V19.7501V19.7502V19.7503V19.7504V19.7505V19.7506V19.7507V19.7508V19.7509V19.7511V19.7512V19.7513V19.7514V19.7515V19.7516V19.7517V19.7518V19.752V19.7521V19.7522V19.7523V19.7524V19.7525V19.7527V19.7528V19.7529V19.753V19.7531V19.7533V19.7534V19.7535V19.7536V19.7538V19.7539V19.754V19.7541V19.7543V19.7544V19.7545V19.7547V19.7548V19.7549V19.7551V19.7552V19.7553V19.7555V19.7556V19.7557V19.7559V19.756V19.7561V19.7563V19.7564V19.7566V19.7567V19.7568V19.757V19.7571V19.7573V19.7574V19.7576V19.7577V19.7579V19.758V19.7582V19.7583V19.7585V19.7586V19.7588V19.7589V19.7591V19.7592V19.7594V19.7595V19.7597V19.7598V19.76V19.7601V19.7603V19.7605V19.7606V19.7608V19.7609V19.7611V19.7613V19.7614V19.7616V19.7617V19.7619V19.7621V19.7622V19.7624V19.7626V19.7627V19.7629V19.7631V19.7633V19.7634V19.7636V19.7638V19.7639V19.7641V19.7643V19.7645V19.7646V19.7648V19.765V19.7652V19.7654V19.7655V19.7657V19.7659V19.7661V19.7663V19.7664V19.7666V19.7668V19.767V19.7672V19.7674V19.7675V19.7677V19.7679V19.7681V19.7683V19.7685V19.7687V19.7689V19.7691V19.7693V19.7694V19.7696V19.7698V19.77V19.7702V19.7704V19.7706V19.7708V19.771V19.7712V19.7714V19.7716V19.7718V19.772V19.7722V19.7724V19.7726V19.7728V19.773V19.7732V19.7735V19.7737V19.7739V19.7741V19.7743V19.7745V19.7747V19.7749V19.7751V19.7753V19.7756V19.7758V19.776V19.7762V19.7764V19.7766V19.7768V19.7771V19.7773V19.7775V19.7777V19.7779V19.7782V19.7784V19.7786V19.7788V19.7791V19.7793V19.7795V19.7797V19.78V19.7802V19.7804V19.7806V19.7809V19.7811V19.7813V19.7816V19.7818V19.782V19.7823V19.7825V19.7827V19.783V19.7832V19.7834V19.7837V19.7839V19.7841V19.7844V19.7846V19.7849V19.7851V19.7853V19.7856V19.7858V19.7861V19.7863V19.7866V19.7868V19.787V19.7873V19.7875V19.7878V19.788V19.7883V19.7885V19.7888V19.789V19.7893V19.7895V19.7898V19.79V19.7903V19.7906V19.7908V19.7911V19.7913V19.7916V19.7918V19.7921V19.7924V19.7926V19.7929V19.7931V19.7934V19.7937V19.7939V19.7942V19.7945V19.7947V19.795V19.7952V19.7955V19.7958V19.796V19.7963V19.7966V19.7969V19.7971V19.7974V19.7977V19.7979V19.7982V19.7985V19.7988V19.799V19.7993V19.7996V19.7999V19.8001V19.8004V19.8007V19.801V19.8013V19.8015V19.8018V19.8021V19.8024V19.8027V19.803V19.8032V19.8035V19.8038V19.8041V19.8044V19.8047V19.805V19.8052V19.8055V19.8058V19.8061V19.8064V19.8067V19.807V19.8073V19.8076V19.8079V19.8082V19.8085V19.8088V19.809V19.8093V19.8096V19.8099V19.8102V19.8105V19.8108V19.8111V19.8114V19.8117V19.812V19.8124V19.8127V19.813V19.8133V19.8136V19.8139V19.8142V19.8145V19.8148V19.8151V19.8154V19.8157V19.816V19.8163V19.8167V19.817V19.8173V19.8176V19.8179V19.8182V19.8185V19.8189V19.8192V19.8195V19.8198V19.8201V19.8204V19.8208V19.8211V19.8214V19.8217V19.822V19.8224V19.8227V19.823V19.8233V19.8237V19.824V19.8243V19.8246V19.825V19.8253V19.8256V19.826V19.8263V19.8266V19.8269V19.8273V19.8276V19.8279V19.8283V19.8286V19.8289V19.8293V19.8296V19.8299V19.8303V19.8306V19.831V19.8313V19.8316V19.832V19.8323V19.8327V19.833V19.8333V19.8337V19.834V19.8344V19.8347V19.8351V19.8354V19.8358C14.7171 19.8744 14.7484 19.9058 14.7871 19.9058H15.0077C15.0463 19.9058 15.0777 19.8744 15.0777 19.8358C15.0777 19.4246 15.1731 19.0664 15.3531 18.7753C15.5341 18.4826 15.7946 18.237 16.1213 18.0393C16.4574 17.8492 16.8504 17.6999 17.3006 17.6085C17.7531 17.5167 18.2548 17.4665 18.7979 17.4665Z" fill="black" stroke="black" stroke-width="0.14" stroke-linecap="round" stroke-linejoin="round"/>
  </g>
</svg>