<svg xmlns="http://www.w3.org/2000/svg" width="55" height="62" viewBox="0 0 55 62" fill="none">
  <rect width="12.8093" height="4.50697" rx="2.25348" transform="matrix(1 0 0 -1 19.793 19.957)" fill="#F5F5F5" stroke="black" stroke-opacity="0.8" stroke-width="2.28357"/>
  <rect width="16.3081" height="5.67238" rx="2.83619" transform="matrix(-4.37114e-08 -1 -1 4.37114e-08 7.67188 38.1968)" fill="#F5F5F5" stroke="black" stroke-opacity="0.8" stroke-width="2.28357"/>
  <rect width="12.3349" height="3.79534" rx="1.89767" transform="matrix(1 0 0 -1 40.6641 44.8643)" fill="#F5F5F5" stroke="black" stroke-opacity="0.8" stroke-width="2.28357"/>
  <path fill-rule="evenodd" clip-rule="evenodd" d="M19.4998 19.7202C18.7429 19.7202 18.1293 20.3338 18.1293 21.0908V24.4641L7.69336 24.4641L7.69336 35.6129L20.2543 35.6129C21.7284 37.2171 23.844 38.2225 26.1944 38.2225C28.5443 38.2225 30.6596 37.2174 32.1336 35.6137L42.7961 35.6137V41.0691H51.3356V33.004C51.3356 28.3673 47.6403 24.5937 43.034 24.4678V24.4649H42.8781C42.8508 24.4646 42.8235 24.4645 42.7961 24.4645V24.4649L34.2595 24.4649V21.0908C34.2595 20.3338 33.6458 19.7202 32.8889 19.7202H19.4998Z" fill="#F5F5F5"/>
  <path d="M18.1293 24.4641V25.6058H19.271V24.4641H18.1293ZM7.69336 24.4641L7.69336 23.3223H6.55158V24.4641H7.69336ZM7.69336 35.6129H6.55158L6.55158 36.7547L7.69336 36.7547L7.69336 35.6129ZM20.2543 35.6129L21.095 34.8403L20.7557 34.4711H20.2543V35.6129ZM32.1336 35.6137V34.4719H31.6323L31.293 34.841L32.1336 35.6137ZM42.7961 35.6137H43.9379V34.4719H42.7961V35.6137ZM42.7961 41.0691H41.6543V42.2109H42.7961V41.0691ZM51.3356 41.0691V42.2109H52.4774V41.0691H51.3356ZM43.034 24.4678H41.8922V25.5788L43.0028 25.6091L43.034 24.4678ZM43.034 24.4649H44.1758V23.3231H43.034V24.4649ZM42.8781 24.4649L42.8674 25.6067H42.8781V24.4649ZM42.7961 24.4645V23.3227H41.6543V24.4645H42.7961ZM42.7961 24.4649V25.6067H43.9379V24.4649H42.7961ZM34.2595 24.4649H33.1177V25.6067H34.2595V24.4649ZM19.271 21.0908C19.271 20.9644 19.3735 20.862 19.4998 20.862V18.5784C18.1123 18.5784 16.9875 19.7032 16.9875 21.0908H19.271ZM19.271 24.4641V21.0908H16.9875V24.4641H19.271ZM18.1293 23.3223L7.69336 23.3223L7.69336 25.6058L18.1293 25.6058V23.3223ZM6.55158 24.4641L6.55158 35.6129H8.83514L8.83514 24.4641H6.55158ZM7.69336 36.7547H20.2543V34.4711L7.69336 34.4711L7.69336 36.7547ZM26.1944 37.0807C24.1767 37.0807 22.362 36.2191 21.095 34.8403L19.4136 36.3854C21.0948 38.215 23.5112 39.3643 26.1944 39.3643V37.0807ZM31.293 34.841C30.0261 36.2194 28.2116 37.0807 26.1944 37.0807V39.3643C28.877 39.3643 31.2931 38.2155 32.9743 36.3864L31.293 34.841ZM32.1336 36.7555L42.7961 36.7555V34.4719L32.1336 34.4719V36.7555ZM41.6543 35.6137V41.0691H43.9379V35.6137H41.6543ZM42.7961 42.2109H51.3356V39.9273H42.7961V42.2109ZM52.4774 41.0691V33.004H50.1939V41.0691H52.4774ZM52.4774 33.004C52.4774 27.7472 48.288 23.4692 43.0652 23.3264L43.0028 25.6091C46.9925 25.7182 50.1939 28.9875 50.1939 33.004H52.4774ZM44.1758 24.4678V24.4649H41.8922V24.4678H44.1758ZM43.034 23.3231H42.8781V25.6067H43.034V23.3231ZM42.8888 23.3232C42.858 23.3229 42.8271 23.3227 42.7961 23.3227V25.6063C42.8199 25.6063 42.8436 25.6064 42.8674 25.6066L42.8888 23.3232ZM41.6543 24.4645V24.4649H43.9379V24.4645H41.6543ZM42.7961 23.3231L34.2595 23.3231V25.6067L42.7961 25.6067V23.3231ZM33.1177 21.0908V24.4649H35.4012V21.0908H33.1177ZM32.8889 20.862C33.0153 20.862 33.1177 20.9644 33.1177 21.0908H35.4012C35.4012 19.7032 34.2764 18.5784 32.8889 18.5784V20.862ZM19.4998 20.862H32.8889V18.5784H19.4998V20.862Z" fill="black" fill-opacity="0.8"/>
  <path fill-rule="evenodd" clip-rule="evenodd" d="M15.4908 9.04657C14.9056 9.75171 14.0225 10.2008 13.0345 10.2008C11.2723 10.2008 9.84375 8.77223 9.84375 7.01005C9.84375 5.24787 11.2723 3.81934 13.0345 3.81934C14.1467 3.81934 15.126 4.38839 15.6971 5.25123H36.6091C37.1802 4.38839 38.1595 3.81934 39.2717 3.81934C41.0339 3.81934 42.4624 5.24787 42.4624 7.01005C42.4624 8.77223 41.0339 10.2008 39.2717 10.2008C38.2837 10.2008 37.4006 9.75171 36.8153 9.04657H15.4908Z" fill="#F5F5F5"/>
  <path d="M15.4908 9.04657V7.90478H14.9547L14.6123 8.31735L15.4908 9.04657ZM15.6971 5.25123L14.745 5.88143L15.0836 6.39301H15.6971V5.25123ZM36.6091 5.25123V6.39301H37.2226L37.5612 5.88143L36.6091 5.25123ZM36.8153 9.04657L37.6939 8.31735L37.3515 7.90478H36.8153V9.04657ZM13.0345 11.3425C14.3764 11.3425 15.5765 10.7311 16.3694 9.77579L14.6123 8.31735C14.2346 8.77234 13.6685 9.05898 13.0345 9.05898V11.3425ZM8.70197 7.01005C8.70197 9.40282 10.6417 11.3425 13.0345 11.3425V9.05898C11.9029 9.05898 10.9855 8.14164 10.9855 7.01005H8.70197ZM13.0345 2.67755C10.6417 2.67755 8.70197 4.61728 8.70197 7.01005H10.9855C10.9855 5.87846 11.9029 4.96112 13.0345 4.96112V2.67755ZM16.6492 4.62103C15.8756 3.45232 14.5458 2.67755 13.0345 2.67755V4.96112C13.7475 4.96112 14.3763 5.32446 14.745 5.88143L16.6492 4.62103ZM15.6971 6.39301H36.6091V4.10944H15.6971V6.39301ZM37.5612 5.88143C37.9299 5.32446 38.5586 4.96112 39.2717 4.96112V2.67755C37.7604 2.67755 36.4305 3.45232 35.657 4.62103L37.5612 5.88143ZM39.2717 4.96112C40.4033 4.96112 41.3206 5.87846 41.3206 7.01005H43.6042C43.6042 4.61728 41.6645 2.67755 39.2717 2.67755V4.96112ZM41.3206 7.01005C41.3206 8.14164 40.4033 9.05898 39.2717 9.05898V11.3425C41.6645 11.3425 43.6042 9.40282 43.6042 7.01005H41.3206ZM39.2717 9.05898C38.6376 9.05898 38.0715 8.77234 37.6939 8.31735L35.9367 9.77579C36.7296 10.7311 37.9298 11.3425 39.2717 11.3425V9.05898ZM36.8153 7.90478H15.4908V10.1883H36.8153V7.90478Z" fill="black" fill-opacity="0.8"/>
  <path d="M23.3496 9.28271H29.0426V15.4501H23.3496V9.28271Z" fill="#F5F5F5"/>
  <path d="M23.3496 9.28271V8.14093H22.2078V9.28271H23.3496ZM29.0426 9.28271H30.1844V8.14093H29.0426V9.28271ZM29.0426 15.4501V16.5919H30.1844V15.4501H29.0426ZM23.3496 15.4501H22.2078V16.5919H23.3496V15.4501ZM23.3496 10.4245H29.0426V8.14093H23.3496V10.4245ZM27.9008 9.28271V15.4501H30.1844V9.28271H27.9008ZM29.0426 14.3084H23.3496V16.5919H29.0426V14.3084ZM24.4914 15.4501V9.28271H22.2078V15.4501H24.4914Z" fill="black" fill-opacity="0.8"/>
  <ellipse cx="26.152" cy="6.79753" rx="5.10514" ry="5.10514" fill="#F5F5F5" stroke="black" stroke-opacity="0.8" stroke-width="2.28357"/>
</svg>