<svg xmlns="http://www.w3.org/2000/svg" width="57" height="61" viewBox="0 0 57 61" fill="none">
  <g opacity="0.8">
    <path fill-rule="evenodd" clip-rule="evenodd" d="M27.3363 6.69238V54.6924C27.3363 54.6924 7.32509 49.1994 4.90039 14.5652C4.90039 14.5652 22.8162 10.4192 27.3363 6.70735V6.69238Z" stroke="black" stroke-width="2.57143" stroke-miterlimit="2.61313" stroke-linecap="round" stroke-linejoin="round"/>
    <path fill-rule="evenodd" clip-rule="evenodd" d="M27.3379 6.69238V54.6924C27.3379 54.6924 47.3491 49.1994 49.7738 14.5652C49.7738 14.5652 31.858 10.4192 27.3379 6.70735V6.69238Z" stroke="black" stroke-width="2.57143" stroke-miterlimit="2.61313" stroke-linecap="round" stroke-linejoin="round"/>
    <path d="M27.3336 42.3928C34.8248 42.3928 40.8977 36.32 40.8977 28.8287C40.8977 21.3375 34.8248 15.2646 27.3336 15.2646C19.8424 15.2646 13.7695 21.3375 13.7695 28.8287C13.7695 36.32 19.8424 42.3928 27.3336 42.3928Z" fill="#FFFAF1" stroke="black" stroke-width="2.57143" stroke-miterlimit="2.61313" stroke-linecap="round" stroke-linejoin="round"/>
    <path fill-rule="evenodd" clip-rule="evenodd" d="M24.719 37.0582C25.5036 37.4592 26.3927 37.6858 27.3342 37.6858C28.2757 37.6858 29.1648 37.4592 29.9494 37.0582C31.8497 36.0993 33.1399 34.1292 33.1399 31.8801C33.1399 31.7406 33.1399 31.6186 33.1225 31.4791C33.1225 31.4791 33.1225 31.4617 33.1225 31.4442H33.1399C33.1573 31.0781 33.0702 28.3235 27.3342 19.9897C21.6157 28.3235 21.5111 31.0781 21.5285 31.4442H21.5459C21.5459 31.4791 21.5459 31.4791 21.5459 31.4791C21.5285 31.6186 21.5285 31.7406 21.5285 31.8801C21.5285 34.1466 22.8187 36.1167 24.719 37.0582Z" stroke="black" stroke-width="2.57143" stroke-miterlimit="2.61313" stroke-linecap="round" stroke-linejoin="round"/>
  </g>
</svg>