<svg xmlns="http://www.w3.org/2000/svg" width="41" height="41" viewBox="0 0 41 41" fill="none">
  <g opacity="0.8">
    <path fill-rule="evenodd" clip-rule="evenodd" d="M7.5 24.0354V32.0725H20.2118H32.9236V24.0354C31.5352 23.5799 20.2118 23.5799 20.2118 23.5799C20.2118 23.5799 8.88832 23.5799 7.5 24.0354Z" stroke="black" stroke-width="1.3" stroke-miterlimit="2.61313"/>
    <path fill-rule="evenodd" clip-rule="evenodd" d="M9.50385 23.8073C9.50385 21.9418 9.38454 19.2194 9.64485 16.6055C9.98109 13.1889 10.9464 9.96756 13.6146 9.06732H20.1657H26.7168C31.4458 10.6617 30.8275 19.5122 30.8275 23.8073C27.1507 23.5904 20.2091 23.5904 20.2091 23.5904H20.1657C19.6017 23.5904 12.9963 23.6013 9.50385 23.8073Z" stroke="black" stroke-width="1.3" stroke-miterlimit="2.61313"/>
    <path d="M9.49609 19.773C15.5374 18.9487 24.7676 18.9487 30.7981 19.773" stroke="black" stroke-width="1.3" stroke-miterlimit="2.61313"/>
    <path d="M12.7422 7.07227V19.2417" stroke="black" stroke-width="1.3" stroke-miterlimit="2.61313" stroke-linecap="round" stroke-linejoin="round"/>
    <path d="M15.7109 7.07227V19.2417" stroke="black" stroke-width="1.3" stroke-miterlimit="2.61313" stroke-linecap="round" stroke-linejoin="round"/>
    <path d="M18.6953 7.07227V19.2417" stroke="black" stroke-width="1.3" stroke-miterlimit="2.61313" stroke-linecap="round" stroke-linejoin="round"/>
    <path d="M21.6758 7.07227V19.2417" stroke="black" stroke-width="1.3" stroke-miterlimit="2.61313" stroke-linecap="round" stroke-linejoin="round"/>
    <path d="M24.6562 7.07227V19.2417" stroke="black" stroke-width="1.3" stroke-miterlimit="2.61313" stroke-linecap="round" stroke-linejoin="round"/>
    <path d="M27.6328 7.07227V19.2417" stroke="black" stroke-width="1.3" stroke-miterlimit="2.61313" stroke-linecap="round" stroke-linejoin="round"/>
  </g>
</svg>