<svg xmlns="http://www.w3.org/2000/svg" width="56" height="61" viewBox="0 0 56 61" fill="none">
  <g opacity="0.8">
    <path d="M38.182 26.2419C38.182 33.4495 32.4993 39.1067 25.488 39.1067C18.4561 39.1067 12.7734 33.2819 12.7734 26.0952C12.7734 19.8724 21.972 7.61524 25.488 2L34.6048 16.7086" stroke="black" stroke-width="2.2" stroke-miterlimit="2.61313" stroke-linecap="round" stroke-linejoin="round"/>
    <path d="M41.2079 26.1581H32.7657L40.8604 13.9219L48.9757 26.1581H44.9692M44.9078 26.0952C44.9078 37.0743 36.2203 46 25.4886 46M25.4886 46C14.7568 46 6.04883 37.0743 6.04883 26.0952" stroke="black" stroke-width="2.2" stroke-miterlimit="2.61313" stroke-linecap="round" stroke-linejoin="round"/>
    <path d="M6.66406 22.5131L7.03201 21.5493" stroke="black" stroke-width="2.2" stroke-miterlimit="2.61313" stroke-linecap="round" stroke-linejoin="round"/>
    <path d="M8.11328 18.7827L8.48123 17.8188" stroke="black" stroke-width="2.2" stroke-miterlimit="2.61313" stroke-linecap="round" stroke-linejoin="round"/>
    <path d="M22.4429 29.3845C22.8517 29.7198 23.7102 30.3065 24.9572 30.4322V31.375C24.9572 31.6474 25.1003 31.7941 25.4069 31.7941H25.5295C25.8361 31.7941 25.9792 31.6265 25.9792 31.3122V30.4322C27.6963 30.2226 28.7184 28.9865 28.7184 27.4988C28.7184 24.1674 23.7102 24.6074 23.7102 22.5122C23.7102 21.695 24.4666 20.9826 25.55 20.9826C26.3881 20.9826 27.0422 21.3388 27.3897 21.5903C27.6759 21.7579 27.9007 21.7369 28.0643 21.4436L28.2482 21.0874C28.3913 20.815 28.3709 20.5845 28.1256 20.4169C27.7372 20.1445 27.0217 19.7255 25.9792 19.6626V18.6988C25.9792 18.4265 25.8361 18.2798 25.5295 18.2798H25.4069C25.1003 18.2798 24.9572 18.4474 24.9572 18.7617V19.6626C23.3423 19.9141 22.2794 21.1084 22.2794 22.5541C22.2794 25.7179 27.2875 25.3826 27.2875 27.5617C27.2875 28.5465 26.4494 29.0912 25.5091 29.0912C24.487 29.0912 23.6898 28.5884 23.281 28.2741C23.0152 28.1065 22.7904 28.1065 22.6064 28.3579L22.3816 28.7141C22.1771 28.9445 22.1976 29.196 22.4429 29.3845Z" fill="black"/>
  </g>
</svg>