<svg xmlns="http://www.w3.org/2000/svg" width="41" height="41" viewBox="0 0 41 41" fill="none">
  <g opacity="0.8">
    <mask id="path-1-inside-1_21313_4773" fill="white">
      <path fill-rule="evenodd" clip-rule="evenodd" d="M25.1662 6.07227H14.9844V14.5571H6.5V24.7389H14.9844V34.0723H25.1662V24.7389H34.5V14.5571H25.1662V6.07227Z"/>
    </mask>
    <path d="M14.9844 6.07227V4.77227H13.6844V6.07227H14.9844ZM25.1662 6.07227H26.4662V4.77227H25.1662V6.07227ZM14.9844 14.5571V15.8571H16.2844V14.5571H14.9844ZM6.5 14.5571V13.2571H5.2V14.5571H6.5ZM6.5 24.7389H5.2V26.0389H6.5V24.7389ZM14.9844 24.7389H16.2844V23.4389H14.9844V24.7389ZM14.9844 34.0723H13.6844V35.3723H14.9844V34.0723ZM25.1662 34.0723V35.3723H26.4662V34.0723H25.1662ZM25.1662 24.7389V23.4389H23.8662V24.7389H25.1662ZM34.5 24.7389V26.0389H35.8V24.7389H34.5ZM34.5 14.5571H35.8V13.2571H34.5V14.5571ZM25.1662 14.5571H23.8662V15.8571H25.1662V14.5571ZM14.9844 7.37227H25.1662V4.77227H14.9844V7.37227ZM16.2844 14.5571V6.07227H13.6844V14.5571H16.2844ZM6.5 15.8571H14.9844V13.2571H6.5V15.8571ZM7.8 24.7389V14.5571H5.2V24.7389H7.8ZM14.9844 23.4389H6.5V26.0389H14.9844V23.4389ZM16.2844 34.0723V24.7389H13.6844V34.0723H16.2844ZM25.1662 32.7723H14.9844V35.3723H25.1662V32.7723ZM23.8662 24.7389V34.0723H26.4662V24.7389H23.8662ZM34.5 23.4389H25.1662V26.0389H34.5V23.4389ZM33.2 14.5571V24.7389H35.8V14.5571H33.2ZM25.1662 15.8571H34.5V13.2571H25.1662V15.8571ZM23.8662 6.07227V14.5571H26.4662V6.07227H23.8662Z" fill="black" mask="url(#path-1-inside-1_21313_4773)"/>
  </g>
</svg>