<svg width="17" height="17" viewBox="0 0 17 17" fill="none" xmlns="http://www.w3.org/2000/svg">
<circle cx="8.125" cy="8.625" r="7.375" stroke="black" stroke-width="1.5"/>
<path fill-rule="evenodd" clip-rule="evenodd" d="M6.86291 10.6006C7.16366 10.7293 7.47068 10.8066 7.80276 10.8324C7.91554 10.8452 8.10978 10.8388 8.10351 10.8388C8.48572 10.8324 8.85539 10.7487 9.20627 10.6006C9.58221 10.4332 9.90802 10.2079 10.1962 9.92458C10.4782 9.6413 10.71 9.30652 10.8792 8.92023C11.0484 8.53394 11.1361 8.1219 11.1361 7.67767C11.1361 7.23343 11.0484 6.82139 10.8792 6.4351C10.71 6.04882 10.4845 5.71403 10.1962 5.42432C9.91429 5.14104 9.58221 4.9157 9.20627 4.74831C8.83659 4.58736 8.44186 4.50366 8.03459 4.50366C7.62732 4.50366 7.23885 4.58736 6.86918 4.74831C6.4995 4.90927 6.16742 5.1346 5.88547 5.42432C5.59725 5.71403 5.37168 6.04882 5.20251 6.4351C5.03334 6.82139 4.94562 7.23987 4.94562 7.67767C4.94562 8.1219 5.03334 8.54038 5.19624 8.92023C5.37168 9.30652 5.59725 9.6413 5.8792 9.92458C6.16116 10.2079 6.49324 10.4332 6.86291 10.6006ZM8.85539 10.4396C8.62983 10.5877 8.35414 10.665 8.03459 10.665C7.72131 10.665 7.44562 10.5941 7.22005 10.4332C6.98822 10.2851 6.80025 10.0727 6.65614 9.80869C6.50577 9.54473 6.39925 9.22926 6.33033 8.86228C6.26141 8.49531 6.22381 8.09615 6.22381 7.67123C6.22381 7.24631 6.26141 6.84715 6.33033 6.48017C6.40552 6.1132 6.51203 5.79773 6.65614 5.52733C6.80025 5.25692 6.98822 5.0509 7.22005 4.89639C7.44562 4.74187 7.72131 4.66462 8.04086 4.66462C8.3604 4.66462 8.62983 4.74187 8.86166 4.89639C9.08722 5.0509 9.27519 5.26336 9.42557 5.52733C9.57594 5.79129 9.68246 6.1132 9.74512 6.47373C9.81404 6.84071 9.85163 7.23987 9.85163 7.67123C9.85163 8.10902 9.81404 8.50819 9.74512 8.86872C9.67619 9.2357 9.56968 9.55117 9.4193 9.81513C9.27519 10.0791 9.08722 10.2916 8.85539 10.4396ZM9.97666 11.6177C10.3275 11.5469 10.716 11.5082 11.1358 11.5082V10.182C10.7035 10.182 10.3025 10.2721 9.92654 10.446C9.5506 10.6198 9.22478 10.8516 8.94909 11.1477C8.6734 11.4439 8.4541 11.7851 8.2912 12.1649C8.14709 12.5255 8.0719 12.9053 8.05937 13.2981V13.3689H8.22854C8.22854 13.047 8.30373 12.7637 8.44784 12.5319C8.59195 12.3001 8.79872 12.107 9.05561 11.9525C9.31877 11.8044 9.62578 11.6885 9.97666 11.6177Z" fill="black"/>
</svg>
