<svg width="22" height="21" viewBox="0 0 22 21" fill="none"
                                    xmlns="http://www.w3.org/2000/svg">
                                    <path opacity="0.9"
                                        d="M20.6564 10.2334C20.6564 15.4638 16.2606 19.7334 10.8009 19.7334C5.34119 19.7334 0.945312 15.4638 0.945312 10.2334C0.945312 5.00302 5.34119 0.733398 10.8009 0.733398C16.2606 0.733398 20.6564 5.00302 20.6564 10.2334Z"
                                        stroke="black" />
                                    <path
                                        d="M10.5633 5.2334C11.5183 5.2334 12.2815 5.49557 12.8526 6.01992C13.4331 6.54426 13.7234 7.26055 13.7234 8.16879C13.7234 9.11448 13.4238 9.8261 12.8245 10.3036C12.2253 10.7812 11.4294 11.0199 10.4369 11.0199L10.3807 12.1295H8.99026L8.92003 9.92441H9.38351C10.2918 9.92441 10.9846 9.80269 11.4622 9.55924C11.9491 9.3158 12.1925 8.85231 12.1925 8.16879C12.1925 7.67254 12.0474 7.28396 11.7571 7.00306C11.4762 6.72216 11.083 6.58171 10.5773 6.58171C10.0717 6.58171 9.67378 6.71748 9.38351 6.98902C9.09325 7.26055 8.94812 7.63977 8.94812 8.12666H7.44531C7.44531 7.56486 7.57172 7.06392 7.82453 6.62385C8.07733 6.18377 8.43782 5.84201 8.90599 5.59857C9.38351 5.35512 9.93595 5.2334 10.5633 5.2334ZM9.66441 15.2334C9.37415 15.2334 9.13071 15.1351 8.93408 14.9385C8.73745 14.7418 8.63913 14.4984 8.63913 14.2081C8.63913 13.9179 8.73745 13.6744 8.93408 13.4778C9.13071 13.2812 9.37415 13.1828 9.66441 13.1828C9.94531 13.1828 10.1841 13.2812 10.3807 13.4778C10.5773 13.6744 10.6756 13.9179 10.6756 14.2081C10.6756 14.4984 10.5773 14.7418 10.3807 14.9385C10.1841 15.1351 9.94531 15.2334 9.66441 15.2334Z"
                                        fill="black" />
                                </svg>