<svg width="45" height="41" viewBox="0 0 45 41" fill="none" xmlns="http://www.w3.org/2000/svg">
<path opacity="0.5" fill-rule="evenodd" clip-rule="evenodd" d="M23.5206 5.32634L19.6714 0.707275L17.6119 2.16097C15.9209 3.35459 14.1035 4.77962 12.1628 6.42918L12.1111 6.47545C10.1988 8.1864 8.43785 10.0482 6.82881 12.0594C5.17017 14.1327 3.77584 16.4075 2.64414 18.8765L2.6243 18.9199L2.60588 18.964C1.52602 21.5556 0.975586 24.2314 0.975586 26.9735C0.975586 29.3937 1.64729 31.7076 2.90535 33.8806L2.93169 33.9262L2.95978 33.9707C4.2721 36.0484 5.88714 37.787 7.81257 39.1461L9.50029 40.3375L21.066 30.9748V28.2565L20.2661 27.4566C19.0693 26.2599 17.848 24.8272 16.6056 23.1469C15.542 21.4937 15.2432 20.3867 15.2432 19.7304C15.2432 17.9332 15.7775 15.9356 17.0124 13.7032C18.4281 11.3195 20.0615 9.11473 21.914 7.0859L23.5206 5.32634ZM44.8781 5.20193L40.5104 0.834264L38.6309 2.16097C36.9191 3.36931 35.1326 4.81084 33.2721 6.47546C31.3779 8.17025 29.5872 10.0113 27.8995 11.9967L27.8732 12.0277L27.8478 12.0594C26.1892 14.1327 24.7948 16.4075 23.6632 18.8765L23.6432 18.9199L23.6249 18.964C22.545 21.5556 21.9946 24.2314 21.9946 26.9735C21.9946 29.3937 22.6663 31.7076 23.9244 33.8806L23.9507 33.9262L23.9788 33.9707C25.2911 36.0484 26.9062 37.787 28.8315 39.1461L30.5058 40.328L42.227 30.9877V28.201L41.3593 27.3912C40.1093 26.2244 38.9182 24.8282 37.7926 23.1871C36.7078 21.5116 36.4042 20.392 36.4042 19.7304C36.4042 17.9248 36.9436 15.9168 38.1908 13.6717C39.4942 11.3256 41.1052 9.14631 43.0317 7.1322L44.8781 5.20193Z" fill="#C7E7DC"/>
</svg>
