<svg width="87" height="41" viewBox="0 0 87 41" fill="none" xmlns="http://www.w3.org/2000/svg">
<g id="Logo">
<path id="Union" fill-rule="evenodd" clip-rule="evenodd" d="M9.49649 28.194C10.8869 28.7892 12.3062 29.1464 13.8414 29.2655C14.3628 29.325 15.2608 29.2952 15.2318 29.2952C16.9987 29.2655 18.7078 28.8785 20.3299 28.194C22.0678 27.4201 23.5741 26.3784 24.9065 25.0688C26.21 23.7592 27.2818 22.2115 28.0639 20.4257C28.8459 18.6398 29.2515 16.735 29.2515 14.6813C29.2515 12.6276 28.8459 10.7227 28.0639 8.9369C27.2818 7.15108 26.239 5.60337 24.9065 4.26401C23.6031 2.95441 22.0678 1.91268 20.3299 1.13883C18.6209 0.39474 16.796 0.0078125 14.9132 0.0078125C13.0304 0.0078125 11.2345 0.39474 9.52545 1.13883C7.81644 1.88292 6.28123 2.92465 4.97775 4.26401C3.6453 5.60337 2.60252 7.15108 1.82043 8.9369C1.03834 10.7227 0.632812 12.6574 0.632812 14.6813C0.632812 16.735 1.03834 18.6696 1.79146 20.4257C2.60252 22.2115 3.6453 23.7592 4.94878 25.0688C6.25227 26.3784 7.78748 27.4201 9.49649 28.194ZM18.7078 27.4499C17.665 28.1344 16.3905 28.4916 14.9132 28.4916C13.4649 28.4916 12.1903 28.1642 11.1476 27.4201C10.0758 26.7356 9.20682 25.7534 8.5406 24.533C7.84541 23.3127 7.35298 21.8543 7.03436 20.1578C6.71573 18.4613 6.54193 16.6159 6.54193 14.6515C6.54193 12.6871 6.71573 10.8418 7.03436 9.14525C7.38195 7.44872 7.87438 5.9903 8.5406 4.74023C9.20682 3.49016 10.0758 2.53772 11.1476 1.82339C12.1903 1.10907 13.4649 0.751903 14.9421 0.751903C16.4194 0.751903 17.665 1.10907 18.7367 1.82339C19.7795 2.53772 20.6485 3.51992 21.3437 4.74023C22.0389 5.96054 22.5313 7.44872 22.821 9.11548C23.1396 10.812 23.3134 12.6574 23.3134 14.6515C23.3134 16.6754 23.1396 18.5208 22.821 20.1876C22.5023 21.8841 22.0099 23.3425 21.3147 24.5628C20.6485 25.7831 19.7795 26.7653 18.7078 27.4499ZM78.1483 23.3128C77.6559 23.9378 76.9897 24.4438 76.1496 24.8902C75.3096 25.3367 74.2958 25.545 73.1082 25.545C72.1813 25.545 71.3412 25.3962 70.5302 25.0986C69.7481 24.8009 69.0819 24.3247 68.5025 23.6997C67.9812 23.1044 67.5756 22.3306 67.257 21.4079L78.1483 16.3183C78.1483 16.3183 78.1193 14.4432 76.4393 12.1514C75.831 11.3478 74.962 10.812 74.0061 10.3358C73.0502 9.85959 71.9785 9.62148 70.7909 9.62148C69.6322 9.62148 68.5315 9.85959 67.4598 10.3656C66.388 10.8418 65.4321 11.5561 64.6211 12.449C63.81 13.3419 63.1438 14.4134 62.6514 15.6635C62.1589 16.9136 61.8982 18.2827 61.8982 19.8304C61.8982 21.1698 62.101 22.4198 62.5065 23.5509C62.9121 24.7116 63.4914 25.7236 64.2735 26.557C65.0266 27.4201 65.9535 28.0749 67.0253 28.5809C68.097 29.0571 69.2846 29.325 70.6171 29.325C72.6737 29.325 74.3537 28.7595 75.6572 27.6582C76.9607 26.557 77.8586 25.1283 78.38 23.4616L78.1483 23.3128ZM66.7356 16.735C66.7935 15.8718 66.9094 15.0682 67.0832 14.2944C67.257 13.5205 67.5177 12.836 67.8363 12.2704C68.155 11.6752 68.5315 11.2287 69.0239 10.9013C69.4874 10.5739 70.0378 10.3953 70.646 10.3953C71.6309 10.3953 72.3551 10.812 72.8764 11.6752C73.3978 12.5086 73.6296 14.473 73.6296 16.3183V17.5088L67.1122 20.6936C66.8804 19.7411 66.7356 18.7887 66.7356 17.5088V16.735ZM47.3316 28.7293H42.7839V24.6517L42.7549 24.6219C42.4942 25.1577 42.1756 25.6934 41.799 26.2589C41.4224 26.8245 41.0169 27.3007 40.4955 27.7471C40.0031 28.1936 39.4238 28.5805 38.7865 28.8484C38.1493 29.146 37.4251 29.2948 36.643 29.2948C35.0209 29.2948 33.8043 28.7293 32.9643 27.5685C32.1243 26.4078 31.7188 24.8898 31.7188 22.9552V10.1866H36.4692V22.6575C36.4692 23.7588 36.7009 24.6219 37.1934 25.247C37.6858 25.872 38.41 26.1697 39.3369 26.1697C40.1479 26.1697 40.7852 25.9613 41.3066 25.5446C41.828 25.1279 42.2625 24.5922 42.5811 23.9374V10.1866H47.3316V28.7293ZM29.2537 32.3903C27.3129 32.3903 25.517 32.5689 23.8949 32.8963C22.2728 33.2237 20.8535 33.7595 19.6369 34.444C18.4493 35.1584 17.4934 36.0513 16.8272 37.1228C16.1609 38.1943 15.8133 39.5039 15.8133 40.992H15.0312V40.6646C15.0892 38.8491 15.4368 37.093 16.103 35.4262C16.8561 33.6702 17.8699 32.0927 19.1445 30.7236C20.419 29.3545 21.9252 28.283 23.6632 27.4793C25.4012 26.6757 27.255 26.259 29.2537 26.259V32.3903ZM58.1325 11.1982C58.6249 10.7219 59.1753 10.335 59.7836 10.0374C60.3919 9.73974 60.8843 9.59092 61.5505 9.62068V15.1567H61.174C61.0002 14.9186 60.7395 14.7103 60.4208 14.5019L60.4208 14.5019C60.1022 14.3233 59.7836 14.1447 59.436 13.9959C59.1174 13.8471 58.7698 13.7281 58.4511 13.6388C58.1325 13.5495 57.8718 13.49 57.6401 13.49C57.3504 13.49 57.0028 13.609 56.6263 13.8471C56.2787 14.0852 55.9021 14.4126 55.5545 14.8591L55.5835 28.7289H50.7461V20.8416L50.7751 10.1862H55.5545V13.9959C55.8519 13.6649 56.1705 13.2903 56.5103 12.8907C56.5676 12.8233 56.6256 12.7551 56.6842 12.6863C57.1476 12.1506 57.6111 11.6446 58.1325 11.1982Z" fill="white"/>
<g id="TM">
<path d="M82.1486 11.5352V12.063H81.2829V14.7955H80.6313V12.063H79.7656V11.5352H82.1486Z" fill="white"/>
<path d="M86.36 11.5352V14.7955H85.7083V12.6749L84.838 14.7955H84.3446L83.4696 12.6749V14.7955H82.818V11.5352H83.558L84.5913 13.9594L85.6246 11.5352H86.36Z" fill="white"/>
</g>
</g>
</svg>
