<svg xmlns="http://www.w3.org/2000/svg" width="84" height="61" viewBox="0 0 84 61" fill="none">
  <path fill-rule="evenodd" clip-rule="evenodd" d="M8.81783 39.0484C10.1748 39.6294 11.5601 39.978 13.0584 40.0942C13.5673 40.1523 14.4437 40.1232 14.4154 40.1232C16.1399 40.0942 17.8079 39.7165 19.3911 39.0484C21.0873 38.2931 22.5574 37.2764 23.8579 35.9983C25.13 34.7201 26.1761 33.2096 26.9394 31.4666C27.7027 29.7237 28.0985 27.8646 28.0985 25.8602C28.0985 23.8558 27.7027 21.9967 26.9394 20.2537C26.1761 18.5108 25.1583 17.0003 23.8579 15.6931C22.5857 14.4149 21.0873 13.3982 19.3911 12.6429C17.7231 11.9167 15.9421 11.5391 14.1045 11.5391C12.2669 11.5391 10.5141 11.9167 8.8461 12.6429C7.17813 13.3691 5.67978 14.3859 4.4076 15.6931C3.10715 17.0003 2.0894 18.5108 1.32609 20.2537C0.562782 21.9967 0.166992 23.8849 0.166992 25.8602C0.166992 27.8646 0.562782 29.7528 1.29782 31.4666C2.0894 33.2096 3.10715 34.7201 4.37933 35.9983C5.65151 37.2764 7.14986 38.2931 8.81783 39.0484ZM17.8079 38.3222C16.7902 38.9903 15.5463 39.3389 14.1045 39.3389C12.6909 39.3389 11.447 39.0194 10.4293 38.2931C9.38325 37.625 8.53513 36.6664 7.8849 35.4754C7.2064 34.2844 6.7258 32.861 6.41482 31.2052C6.10384 29.5494 5.93422 27.7484 5.93422 25.8311C5.93422 23.9139 6.10384 22.1129 6.41482 20.4571C6.75407 18.8013 7.23467 17.3779 7.8849 16.1578C8.53513 14.9378 9.38325 14.0082 10.4293 13.311C11.447 12.6139 12.6909 12.2653 14.1327 12.2653C15.5745 12.2653 16.7902 12.6139 17.8362 13.311C18.8539 14.0082 19.7021 14.9668 20.3806 16.1578C21.0591 17.3489 21.5397 18.8013 21.8224 20.428C22.1333 22.0838 22.303 23.8849 22.303 25.8311C22.303 27.8065 22.1333 29.6075 21.8224 31.2342C21.5114 32.89 21.0308 34.3134 20.3523 35.5044C19.7021 36.6954 18.8539 37.6541 17.8079 38.3222ZM75.8196 34.2845C75.339 34.8945 74.6888 35.3883 73.869 35.8241C73.0491 36.2598 72.0596 36.4632 70.9005 36.4632C69.9959 36.4632 69.176 36.3179 68.3844 36.0274C67.6211 35.7369 66.9709 35.2722 66.4055 34.6621C65.8966 34.0811 65.5008 33.3259 65.1898 32.4254L75.8196 27.458C75.8196 27.458 75.7914 25.6279 74.1517 23.3911C73.558 22.6068 72.7099 22.0839 71.7769 21.6191C70.844 21.1544 69.798 20.922 68.6389 20.922C67.508 20.922 66.4338 21.1544 65.3877 21.6482C64.3417 22.113 63.4088 22.8102 62.6172 23.6816C61.8256 24.5531 61.1754 25.5989 60.6948 26.8189C60.2142 28.039 59.9598 29.3752 59.9598 30.8858C59.9598 32.193 60.1577 33.413 60.5535 34.5169C60.9492 35.6498 61.5147 36.6375 62.278 37.4508C63.013 38.2932 63.9177 38.9323 64.9637 39.4262C66.0097 39.8909 67.1688 40.1524 68.4693 40.1524C70.4765 40.1524 72.1162 39.6004 73.3884 38.5256C74.6605 37.4508 75.5369 36.0565 76.0458 34.4297L75.8196 34.2845ZM64.681 27.8647C64.7375 27.0223 64.8506 26.2379 65.0202 25.4827C65.1898 24.7274 65.4443 24.0593 65.7553 23.5073C66.0662 22.9264 66.4338 22.4906 66.9144 22.1711C67.3667 21.8515 67.9038 21.6772 68.4975 21.6772C69.4587 21.6772 70.1655 22.0839 70.6744 22.9264C71.1832 23.7397 71.4094 25.657 71.4094 27.458V28.6199L65.0485 31.7282C64.8223 30.7986 64.681 29.869 64.681 28.6199V27.8647ZM45.7401 39.571H41.3016V35.5913L41.2733 35.5622C41.0189 36.0851 40.7079 36.608 40.3404 37.1599C39.9728 37.7118 39.5771 38.1766 39.0682 38.6124C38.5876 39.0481 38.0222 39.4257 37.4002 39.6872C36.7782 39.9777 36.0715 40.1229 35.3082 40.1229C33.725 40.1229 32.5376 39.571 31.7178 38.4381C30.8979 37.3052 30.5021 35.8237 30.5021 33.9355V21.4735H35.1385V33.645C35.1385 34.7198 35.3647 35.5622 35.8453 36.1723C36.3259 36.7823 37.0327 37.0728 37.9374 37.0728C38.7289 37.0728 39.3509 36.8694 39.8598 36.4627C40.3686 36.0561 40.7927 35.5332 41.1037 34.8941V21.4735H45.7401V39.571ZM28.0971 43.1439C26.203 43.1439 24.4502 43.3182 22.8671 43.6377C21.2839 43.9573 19.8986 44.4802 18.7113 45.1483C17.5522 45.8455 16.6192 46.7169 15.969 47.7627C15.3188 48.8085 14.9795 50.0866 14.9795 51.5391H14.2162V51.2195C14.2728 49.4475 14.612 47.7336 15.2622 46.1069C15.9973 44.393 16.9867 42.8534 18.2307 41.5172C19.4746 40.1809 20.9446 39.1351 22.6409 38.3508C24.3371 37.5665 26.1465 37.1598 28.0971 37.1598V43.1439ZM56.2827 22.4607C56.7633 21.9959 57.3004 21.6183 57.8941 21.3278C58.4878 21.0373 58.9684 20.8921 59.6186 20.9211V26.3242H59.2511C59.0815 26.0918 58.827 25.8885 58.5161 25.6852C58.2051 25.5109 57.8941 25.3366 57.5549 25.1913C57.2439 25.0461 56.9046 24.9299 56.5937 24.8427C56.2827 24.7556 56.0282 24.6975 55.8021 24.6975C55.5194 24.6975 55.1801 24.8137 54.8126 25.0461C54.4734 25.2785 54.1058 25.598 53.7666 26.0337L53.7948 39.5706H49.0736V31.8726L49.1019 21.4731H53.7666V25.1913C54.0569 24.8682 54.3678 24.5026 54.6995 24.1126C54.7554 24.0468 54.812 23.9803 54.8691 23.9132C55.3215 23.3903 55.7738 22.8965 56.2827 22.4607Z" fill="black"/>
  <path d="M79.7233 22.7892V23.3043H78.8783V25.9713H78.2424V23.3043H77.3975V22.7892H79.7233Z" fill="black"/>
  <path d="M83.8334 22.7892V25.9713H83.1975V23.9015L82.348 25.9713H81.8665L81.0125 23.9015V25.9713H80.3765V22.7892H81.0988L82.1073 25.1552L83.1157 22.7892H83.8334Z" fill="black"/>
</svg>