<svg width="178" height="86" viewBox="0 0 178 86" fill="none" xmlns="http://www.w3.org/2000/svg">
<path fill-rule="evenodd" clip-rule="evenodd" d="M18.4046 58.526C21.2916 59.762 24.2387 60.5036 27.4265 60.7508C28.5091 60.8744 30.3736 60.8126 30.3135 60.8126C33.9824 60.7508 37.531 59.9474 40.8991 58.526C44.5079 56.9191 47.6355 54.7561 50.4022 52.0368C53.1087 49.3175 55.3341 46.1039 56.958 42.3958C58.582 38.6877 59.424 34.7324 59.424 30.4681C59.424 26.2038 58.582 22.2485 56.958 18.5404C55.3341 14.8323 53.1689 11.6187 50.4022 8.83761C47.6956 6.11834 44.5079 3.95529 40.8991 2.34845C37.3505 0.803419 33.5613 0 29.6519 0C25.7424 0 22.0134 0.803419 18.4648 2.34845C14.9162 3.89349 11.7284 6.05654 9.02187 8.83761C6.25516 11.6187 4.08991 14.8323 2.46598 18.5404C0.842041 22.2485 0 26.2656 0 30.4681C0 34.7324 0.842041 38.7495 2.40583 42.3958C4.08991 46.1039 6.25516 49.3175 8.96172 52.0368C11.6683 54.7561 14.856 56.9191 18.4046 58.526ZM37.531 56.9809C35.3657 58.4024 32.7193 59.144 29.6519 59.144C26.6446 59.144 23.9982 58.4642 21.8329 56.9191C19.6075 55.4977 17.8032 53.4582 16.4198 50.9244C14.9763 48.3905 13.9538 45.3623 13.2922 41.8396C12.6306 38.3169 12.2697 34.4852 12.2697 30.4063C12.2697 26.3274 12.6306 22.4957 13.2922 18.973C14.014 15.4504 15.0364 12.4221 16.4198 9.82643C17.8032 7.23077 19.6075 5.25312 21.8329 3.76989C23.9982 2.28665 26.6446 1.54504 29.712 1.54504C32.7794 1.54504 35.3657 2.28665 37.5911 3.76989C39.7564 5.25312 41.5607 7.29257 43.0042 9.82643C44.4477 12.3603 45.4702 15.4504 46.0717 18.9112C46.7333 22.4339 47.0941 26.2656 47.0941 30.4063C47.0941 34.6088 46.7333 38.4405 46.0717 41.9014C45.4101 45.4241 44.3876 48.4523 42.9441 50.9862C41.5607 53.52 39.7564 55.5595 37.531 56.9809ZM160.95 48.3906C159.928 49.6884 158.545 50.7391 156.8 51.6661C155.056 52.5931 152.951 53.0257 150.485 53.0257C148.56 53.0257 146.816 52.7167 145.132 52.0987C143.508 51.4807 142.125 50.4918 140.922 49.194C139.839 47.958 138.997 46.3512 138.336 44.4353L160.95 33.8673C160.95 33.8673 160.89 29.9738 157.402 25.2151C156.139 23.5464 154.334 22.434 152.35 21.4452C150.365 20.4563 148.139 19.9619 145.673 19.9619C143.268 19.9619 140.982 20.4563 138.757 21.507C136.531 22.4958 134.546 23.979 132.862 25.8331C131.178 27.6871 129.795 29.912 128.772 32.5076C127.75 35.1033 127.209 37.9462 127.209 41.1598C127.209 43.9409 127.63 46.5366 128.472 48.885C129.314 51.2953 130.517 53.3965 132.141 55.127C133.704 56.9192 135.629 58.2788 137.854 59.3295C140.08 60.3183 142.546 60.8745 145.313 60.8745C149.583 60.8745 153.071 59.7003 155.778 57.4136C158.484 55.127 160.349 52.1605 161.432 48.6996L160.95 48.3906ZM137.253 34.7325C137.373 32.9402 137.614 31.2716 137.975 29.6648C138.336 28.0579 138.877 26.6365 139.539 25.4623C140.2 24.2262 140.982 23.2992 142.005 22.6194C142.967 21.9396 144.11 21.5688 145.373 21.5688C147.418 21.5688 148.921 22.434 150.004 24.2262C151.087 25.9567 151.568 30.0356 151.568 33.8673V36.3393L138.035 42.9521C137.554 40.9744 137.253 38.9968 137.253 36.3393V34.7325ZM96.9565 59.6379H87.5136V51.1711L87.4534 51.1093C86.9121 52.2218 86.2505 53.3342 85.4686 54.5084C84.6867 55.6826 83.8447 56.6715 82.7621 57.5985C81.7396 58.5255 80.5367 59.3289 79.2135 59.8851C77.8903 60.5032 76.3866 60.8122 74.7627 60.8122C71.3945 60.8122 68.8684 59.6379 67.1242 57.2277C65.3799 54.8174 64.5379 51.6655 64.5379 47.6484V21.1356H74.4018V47.0304C74.4018 49.3171 74.883 51.1093 75.9054 52.4072C76.9279 53.705 78.4316 54.323 80.3562 54.323C82.0403 54.323 83.3635 53.8904 84.4461 53.0252C85.5288 52.16 86.431 51.0475 87.0926 49.6879V21.1356H96.9565V59.6379ZM59.4213 67.2391C55.3915 67.2391 51.6625 67.6099 48.2943 68.2897C44.9261 68.9695 41.979 70.0819 39.4529 71.5034C36.9869 72.9866 35.0021 74.8407 33.6187 77.0655C32.2354 79.2904 31.5136 82.0096 31.5136 85.0997H29.8897V84.4199C30.01 80.65 30.7317 77.0037 32.1151 73.5428C33.6789 69.8965 35.784 66.6211 38.4304 63.7782C41.0768 60.9353 44.2044 58.7105 47.8131 57.0418C51.4219 55.3732 55.2712 54.508 59.4213 54.508V67.2391ZM119.386 23.2359C120.408 22.247 121.551 21.4436 122.814 20.8256C124.077 20.2076 125.1 19.8986 126.483 19.9604V31.4555H125.701C125.34 30.961 124.799 30.5284 124.137 30.0958C123.476 29.725 122.814 29.3542 122.092 29.0452C121.431 28.7362 120.709 28.489 120.048 28.3036C119.386 28.1182 118.845 27.9946 118.363 27.9946C117.762 27.9946 117.04 28.2418 116.258 28.7362C115.537 29.2306 114.755 29.9104 114.033 30.8374L114.093 59.6369H104.049V43.2595L104.109 21.1346H114.033V29.0452C114.65 28.3577 115.312 27.5798 116.018 26.75C116.137 26.6101 116.257 26.4686 116.379 26.3259C117.341 25.2135 118.303 24.1629 119.386 23.2359Z" fill="black"/>
<path d="M169.256 23.9346V25.0305H167.458V30.7044H166.105V25.0305H164.308V23.9346H169.256Z" fill="black"/>
<path d="M178 23.9346V30.7044H176.647V26.3011L174.84 30.7044H173.815L171.999 26.3011V30.7044H170.646V23.9346H172.182L174.328 28.9683L176.473 23.9346H178Z" fill="black"/>
</svg>
