   <svg xmlns="http://www.w3.org/2000/svg" width="48" height="48" viewBox="0 0 51 55"
                                    fill="none">
                                    <g clip-path="url(#clip0_12131_14660)">
                                        <path
                                            d="M8.6 18.7633C13.73 18.6833 18.87 18.6033 24.01 18.5133C23.01 23.8033 23.31 30.7533 24.01 34.1433L8.6 33.8133C4.42 33.7233 1 30.7933 1 26.6933V25.9733C1 21.8733 4.42 18.8333 8.6 18.7633Z"
                                            stroke="#010101" stroke-miterlimit="22.93" />
                                        <path
                                            d="M24.0697 18.6733C24.6597 18.6933 28.6197 18.6933 28.9497 18.2333C29.2097 17.8733 29.2097 17.6133 29.2097 17.6133C29.2097 17.6133 32.6997 17.7833 35.8097 17.8733C37.5897 17.9233 39.8697 17.7733 41.4997 17.6233C41.4997 17.6233 41.5197 18.6833 42.4397 18.6333C44.1697 18.7033 44.1597 18.8433 44.1597 18.9733C44.1597 19.0433 44.1497 18.8033 44.3297 18.7933L48.1197 18.8933C48.2497 18.9033 48.4397 19.0633 48.6597 19.9533C48.8797 20.8733 48.9997 22.5533 49.1197 24.3933C49.2397 24.5833 49.6397 24.5533 49.6497 24.8833C49.6697 26.4333 49.7197 28.0233 49.5897 29.7233C49.5797 29.8733 49.2697 29.9733 49.0997 29.9533C48.9597 31.6033 48.8197 32.8433 48.5797 33.6533C48.5797 33.6533 48.2997 34.2833 48.0497 34.3033C47.7997 34.3233 44.2197 34.3433 44.0497 34.3533C43.5597 34.4133 42.1497 34.5633 42.2797 35.2533C40.9597 36.0933 37.8697 35.9333 35.4997 35.9633C31.0797 36.0133 29.1797 35.9233 28.4297 35.2833C28.4297 35.2833 28.1197 34.5833 27.5497 34.5333C26.9697 34.4833 24.0697 34.3433 24.0697 34.3433C24.0697 34.3433 23.4297 29.9833 23.4297 27.2133C23.4297 24.4433 23.4297 22.2033 24.0697 18.6833V18.6733Z"
                                            stroke="#010101" stroke-miterlimit="22.93" />
                                        <path
                                            d="M44.3203 18.7933C44.3203 18.7933 44.6803 19.6533 44.7503 22.5433C44.8203 25.4333 44.8203 32.8233 44.2303 34.3333H44.0303C44.0303 34.3333 44.8403 29.4933 44.6803 25.0933C44.5203 20.6933 44.6303 21.3633 44.1303 18.9533C44.1303 18.9533 44.1503 18.7733 44.3003 18.7933H44.3203Z"
                                            stroke="#010101" stroke-miterlimit="22.93" />
                                        <path
                                            d="M49.0997 24.3833C49.0997 24.3833 49.1897 24.5733 48.9497 24.6133C48.7097 24.6633 46.4797 24.6133 46.1697 24.6133C45.8597 24.6133 45.2697 24.7033 45.1997 25.3933C45.1297 26.0733 45.1597 29.2433 45.1597 29.2433C45.1597 29.2433 45.1097 29.9933 46.0397 29.9833C46.9697 29.9833 48.8797 29.9633 48.8797 29.9633L49.0697 29.9833"
                                            stroke="#010101" stroke-miterlimit="22.93" />
                                        <path
                                            d="M28.0703 34.7833C28.0703 34.7833 29.6303 34.0333 31.9003 34.0333C34.1703 34.0333 41.7203 34.1133 42.3703 34.8833"
                                            stroke="#010101" stroke-miterlimit="22.93" />
                                        <path
                                            d="M28.5399 14.3733H41.9899C42.0499 14.3733 42.1099 14.418 42.1099 14.4805V16.4823C37.4799 16.7415 32.9599 16.6432 28.4199 16.4823V14.4805C28.4199 14.4269 28.4699 14.3733 28.5399 14.3733Z"
                                            stroke="#010101" />
                                    </g>
                                    <defs>
                                        <clipPath id="clip0_12131_14660">
                                            <rect width="51" height="55" fill="white" />
                                        </clipPath>
                                    </defs>
                                </svg>