<svg xmlns="http://www.w3.org/2000/svg" width="47" height="44" viewBox="0 0 47 44" fill="none">
  <path d="M4.05103 13.219V24.6597" stroke="#C7E7DC" stroke-linecap="round" stroke-linejoin="round"/>
  <path d="M42.949 25.4224L43.7117 13.9817" stroke="#C7E7DC" stroke-linecap="round" stroke-linejoin="round"/>
  <path d="M1 24.6597V27.7105" stroke="#C7E7DC" stroke-linecap="round" stroke-linejoin="round"/>
  <path d="M46 28.4732V25.4224" stroke="#C7E7DC" stroke-linecap="round" stroke-linejoin="round"/>
  <path d="M20.8306 21.609L18.5425 18.5581" stroke="#C7E7DC" stroke-linecap="round" stroke-linejoin="round"/>
  <path d="M18.5425 17.7952L20.0679 15.5071" stroke="#C7E7DC" stroke-linecap="round" stroke-linejoin="round"/>
  <path d="M18.3063 17.0325L17.7795 16.2587L20.3036 15.5071L20.8304 16.2587" stroke="#C7E7DC" stroke-linecap="round" stroke-linejoin="round"/>
  <path d="M31.5085 18.9962L32.6205 18.5581L33.7967 20.4324L32.6847 20.8462" stroke="#C7E7DC" stroke-linecap="round" stroke-linejoin="round"/>
  <path d="M6.33887 20.0835V30.7615" stroke="#C7E7DC" stroke-linecap="round" stroke-linejoin="round"/>
  <path d="M4.81348 29.2361L5.57619 18.5581" stroke="#C7E7DC" stroke-linecap="round" stroke-linejoin="round"/>
  <path d="M40.6609 7.88013V8.64284" stroke="#C7E7DC" stroke-linecap="round" stroke-linejoin="round"/>
  <path d="M30.7458 36.863V26.1851" stroke="#C7E7DC" stroke-linecap="round" stroke-linejoin="round"/>
  <path d="M33.0339 25.4224V36.1003" stroke="#C7E7DC" stroke-linecap="round" stroke-linejoin="round"/>
  <path d="M18.5423 18.5581H17.7795" stroke="#C7E7DC" stroke-linecap="round" stroke-linejoin="round"/>
  <path d="M17.7795 17.7952H18.5423" stroke="#C7E7DC" stroke-linecap="round" stroke-linejoin="round"/>
  <path d="M30.7458 23.897L30.0658 23.4394L29.4516 23.0471L28.6838 22.6767L27.916 22.3716L27.0824 22.1537L26.2489 21.914L25.3275 21.7614L24.4062 21.6089H23.5726H22.6513L21.7519 21.696L20.8306 21.7614" stroke="#C7E7DC" stroke-linecap="round" stroke-linejoin="round"/>
  <path d="M17.7798 22.3716L17.2574 22.8462L16.7559 23.3207L16.2544 23.897" stroke="#C7E7DC" stroke-linecap="round" stroke-linejoin="round"/>
  <path d="M17.7796 17.0325L17.0862 17.3589L16.4337 17.8485L15.883 18.2448L15.3732 18.8277L14.9449 19.294L14.5983 19.8768L14.3127 20.5296L14.1088 21.0892L13.9661 21.742V22.3715" stroke="#C7E7DC" stroke-linecap="round" stroke-linejoin="round"/>
  <path d="M31.5085 19.3209L30.9442 18.7296L30.3346 18.233L29.6122 17.8309L28.9124 17.4289L28.1223 17.0978L27.2644 16.7667L26.4066 16.6011L25.4584 16.341L24.5103 16.27H23.5847H22.6366L21.6884 16.341L20.8306 16.5065" stroke="#C7E7DC" stroke-linecap="round" stroke-linejoin="round"/>
  <path d="M33.0339 23.1341V22.5818V21.9506V21.3982V20.8459" stroke="#C7E7DC" stroke-linecap="round" stroke-linejoin="round"/>
  <path d="M6.33916 29.9987L6.19486 29.8354L5.98872 29.7655L5.76197 29.6722H5.47338H5.26724L4.9168 28.8795L4.54575 27.9703L4.33962 27.1776L4.19532 26.3616L4.05103 25.4757V24.6597" stroke="#C7E7DC" stroke-linecap="round" stroke-linejoin="round"/>
  <path d="M1 27.7104V28.4732" stroke="#C7E7DC" stroke-linecap="round" stroke-linejoin="round"/>
  <path d="M1 28.4731L1.16327 29.4809L1.41984 30.3928L1.74638 31.4006L2.14291 32.3124L2.70269 33.3202L3.2858 34.2321L4.00886 35.0719L4.73193 35.8877L5.54828 36.7276L6.52792 37.4714L7.48422 38.2393L8.53382 38.9831V39.0551L8.62712 39.1511" stroke="#C7E7DC" stroke-linecap="round" stroke-linejoin="round"/>
  <path d="M22.356 42.202H22.263V42.1342V42.0438L21.217 41.5692L20.078 41.1172L18.9623 40.6426L17.7303 40.3262L16.5216 40.0099L15.3129 39.6935L14.0344 39.4675L12.7327 39.3093L11.431 39.2189L10.1526 39.1511V39.2189V39.3093" stroke="#C7E7DC" stroke-linecap="round" stroke-linejoin="round"/>
  <path d="M24.644 42.9646V42.6378V42.2019" stroke="#C7E7DC" stroke-linecap="round" stroke-linejoin="round"/>
  <path d="M38.4482 19.3206L38.7014 18.9132L38.9315 18.5285L39.3458 17.7363L39.576 16.9442L39.7371 16.0842L39.8982 15.2921V14.432L39.7371 13.6399L39.576 12.8704L39.2537 11.9877L38.8625 11.2182L38.3792 10.494L37.8268 9.7245L37.1824 9.00025L36.4689 8.29865L35.6634 7.66495L34.7888 7.12179L33.8222 6.5786L32.7865 6.01279L31.7508 5.62805L30.6231 5.15275L29.4263 4.8359L28.2295 4.6096L27.0327 4.36064L25.8129 4.2022L24.5471 4.06641H23.2582H21.9924L20.7956 4.2022L19.5067 4.36064L18.3099 4.51905L17.1132 4.8359L15.9854 5.15275L14.8577 5.56015L13.822 6.01279L12.8784 6.48809L11.9117 7.0539L11.1062 7.66495L10.3007 8.29865L9.5872 8.93235L8.94277 9.7245L8.39041 10.4261L7.99915 11.2182L7.58488 11.9877L7.35472 12.7799L7.19362 13.572L7.10156 14.432L7.19362 15.1336L7.26267 15.8579L7.42377 16.5595L7.67694 17.2611L7.99915 17.9853L8.39041 18.6869" stroke="#C7E7DC" stroke-linecap="round" stroke-linejoin="round"/>
  <path d="M24.644 42.2022L26.0876 42.1339L27.6 42.043L28.9519 41.8837L30.3955 41.6563L31.7474 41.3378L33.0993 40.9511L34.3596 40.5416L35.6428 40.0639L36.8343 39.5862L37.9571 38.972L39.057 38.4033L40.1111 37.6982L41.0505 36.993L41.9213 36.2878L42.7233 35.4917L43.4336 34.6272L44.0752 33.8311L44.6481 32.9667L45.1063 32.0113L45.5188 31.1469L45.7479 30.1915L46 29.2361" stroke="#C7E7DC" stroke-linecap="round" stroke-linejoin="round"/>
  <path d="M46 29.2359V28.4731" stroke="#C7E7DC" stroke-linecap="round" stroke-linejoin="round"/>
  <path d="M30.7458 36.863L30.8125 36.7051L30.9014 36.5471L31.057 36.3892L31.2793 36.2312L31.4349 36.1635L31.6794 36.0733H31.9906L32.2129 36.0056L32.5241 36.0733L32.7464 36.1635L32.9909 36.2312L33.2132 36.3215L34.3024 35.8476L35.3694 35.3737L36.4585 34.8322L37.3921 34.2003L38.3035 33.5685L39.1704 32.8689L39.9262 32.1469L40.5486 31.3796L41.171 30.5898L41.7045 29.7323L42.1046 28.9426L42.4824 28.0851L42.7047 27.1373L42.8603 26.2798L42.9492 25.4224" stroke="#C7E7DC" stroke-linecap="round" stroke-linejoin="round"/>
  <path d="M6.33887 30.7615L6.98357 31.557L7.78945 32.2616L8.66442 32.9663L9.53938 33.6027L10.5755 34.2391L11.6347 34.7846L12.6708 35.3302L13.8681 35.8075L15.0654 36.2166L16.2628 36.603L17.5522 36.9213L18.8186 37.1486L20.177 37.3986L21.4665 37.4668L22.825 37.5577L24.1834 37.6259L25.5419 37.5577L26.9004 37.4668L28.1898 37.3077L29.4562 37.0804L30.7456 36.7622" stroke="#C7E7DC" stroke-linecap="round" stroke-linejoin="round"/>
  <path d="M22.356 39.1512L21.3019 38.6506L20.1542 38.1501L19.0299 37.6734L17.8822 37.2444L16.5705 36.9107L15.3525 36.6724L14.0642 36.434L12.7525 36.2672L11.4409 36.1718L10.1526 36.1003" stroke="#C7E7DC" stroke-linecap="round" stroke-linejoin="round"/>
  <path d="M24.644 39.9138L26.134 39.8439L27.5562 39.7507L28.9784 39.5176L30.3781 39.2612L31.71 39.0282L33.0419 38.6086L34.3739 38.2124L35.6381 37.7229L36.812 37.1636L37.9181 36.6042L39.0017 35.9516L40.0176 35.299L40.9658 34.4832L41.8236 33.7607L42.704 32.9449L43.4038 32.0592L44.036 31.1736L44.5778 30.2879L45.0518 29.3789L45.4356 28.4233L45.6839 27.4444L45.842 26.4655L46 25.5099V24.531L45.842 23.4821L45.6839 22.5032L45.3679 21.5243L45.0518 20.5687L44.5778 19.6597L44.036 18.7042L43.4038 17.7952" stroke="#C7E7DC" stroke-linecap="round" stroke-linejoin="round"/>
  <path d="M3.98151 17.0325L3.26502 17.8923L2.68721 18.7521L2.22497 19.6119L1.7396 20.5622L1.41603 21.5126L1.16179 22.4403L1.09245 23.3906L1 24.3409L1.09245 25.2913L1.25424 26.2189L1.48536 27.1693L1.80894 28.1196L2.22497 29.0473L2.68721 29.9298L3.33437 30.7896L3.98151 31.6494L4.79045 32.4413L5.66872 33.2106L6.547 34.0025L7.58706 34.704L8.62712 35.3376" stroke="#C7E7DC" stroke-linecap="round" stroke-linejoin="round"/>
  <path d="M40.6609 14.3594L40.5691 13.5337L40.5003 12.6374L40.248 11.8118L39.9498 10.9154L39.5369 10.0898L39.0552 9.26414L38.4129 8.53288L37.7935 7.80163L36.9907 7.04677L36.1878 6.40985L35.3162 5.74936L34.3527 5.18325L33.3205 4.68787L32.2883 4.19252L31.1643 3.7679L29.9715 3.46123L28.7786 3.13098L27.4941 2.8715L26.3013 2.7064L25.0396 2.63564L23.7551 2.54126L22.4934 2.63564L21.2089 2.7064L20.0161 2.80074L18.7315 3.03664L17.5387 3.36689L16.4376 3.69713L15.3136 4.09814L14.1896 4.52276L13.2491 5.01811L12.2857 5.58426L11.414 6.24475L10.6112 6.90524L9.80833 7.54215L9.16605 8.29698L8.61552 9.09903L8.13381 9.85386L7.74384 10.6559L7.4227 11.4815L7.17038 12.3779L7.10156 13.2035V14.0999L7.17038 14.9255L7.33095 15.8219L7.58327 16.6475L7.97324 17.4731L8.45495 18.2752L8.93666 19.1007L9.57895 19.832L10.29 20.5869L11.0929 21.3181L11.9646 21.8843L12.8362 22.5448L13.8685 23.1109L14.9007 23.6063L16.0247 24.0308L17.1487 24.4319L18.3415 24.7621L19.5343 24.998L20.8189 25.2575L22.0805 25.3282L23.2733 25.4226H24.5579H25.8195L27.1041 25.2575L28.2969 25.0924L29.5815 24.8329L30.6826 24.5262L31.8983 24.196L32.9306 23.7006L33.9628 23.276L34.995 22.7099L35.8667 22.1437L36.7613 21.4833L37.5412 20.8227L38.1835 20.0915L38.8258 19.3602L39.3763 18.5346L39.7892 17.8033L40.1792 16.8834L40.4086 16.0814L40.5691 15.2557L40.6609 14.3594Z" stroke="#C7E7DC" stroke-linecap="round" stroke-linejoin="round"/>
  <path d="M42.3516 9.47769L42.7666 10.2511L43.1586 11.1383L43.3892 12.0027L43.5506 12.8671L43.712 13.8225L43.6429 14.6869L43.5506 15.5513L43.3892 16.4385L43.0894 17.3029L42.7666 18.1673L42.2824 18.9634L41.7059 19.7369L41.1525 20.533L40.4377 21.2382L39.6306 21.9661L38.7544 22.6713L37.8782 23.3082L36.9097 23.9451L35.8721 24.4001L34.7422 24.9688L33.5431 25.3555L33.3817 25.2873L33.1511 25.1963L32.8283 25.128H32.5747H32.3441H32.0213L31.7907 25.1963L31.537 25.3555L31.3756 25.4465L31.2142 25.6057L31.145 25.7422L31.0528 25.9014V26.1517L29.7846 26.3791L28.4933 26.6294L27.1328 26.7886L25.8415 26.8569L24.4811 26.9478H23.1206L21.7601 26.8569L20.4919 26.6976L19.1314 26.5384L17.8401 26.2199L16.5489 25.9014L15.2806 25.6057L14.1507 25.128L12.9517 24.6503L11.8218 24.1726L10.7842 23.6267L9.83877 22.9897L8.93948 22.2846L8.06325 21.6476L7.25619 20.8515L6.54137 20.1463L6.79502 19.9871L6.86419 19.8278L6.95643 19.6686L7.0256 19.5094L6.95643 19.2819V19.1227L6.79502 18.9634L6.63361 18.8042L6.4722 18.7132L6.21855 18.554L5.98796 18.4857H5.66514H5.41149L4.95031 17.6213L4.62749 16.7342L4.30467 15.8698L4.14326 15.0054L4.05103 14.1409V13.2766L4.14326 12.3894L4.37385 11.525L4.62749 10.6606L5.0195 9.79618L5.41149 9.00001L5.98796 8.20383L6.63361 7.40768L7.34842 6.63424L8.06325 5.90634L8.93948 5.29214L9.90794 4.65521L10.8764 4.01828L11.9141 3.47233L13.0439 2.99465L14.1507 2.51694L14.4044 2.67619L14.635 2.74443L14.8656 2.8354H15.1884H15.442L15.6726 2.74443L15.9263 2.67619L16.1569 2.58518L16.3183 2.4487L16.4797 2.35772L16.6411 2.13023V1.97102V1.81177L17.9324 1.4933L19.2006 1.33409L20.5611 1.17484L21.9215 1.01562H23.282H24.5733L25.9338 1.08386L27.2942 1.24308L28.5855 1.40233L29.946 1.65255L31.2142 1.97102L32.4133 2.35772L33.6354 2.74443L34.7422 3.22211L35.8721 3.7908L36.9097 4.33675L37.8782 4.97368L38.8236 5.58787L39.7229 6.31578L40.4377 7.02098L41.1525 7.81712L40.9911 7.97637L40.8297 8.13559L40.7605 8.29484V8.45405V8.6133L40.8297 8.84076L40.9219 9.00001L41.0833 9.15922L41.3139 9.2275L41.5676 9.31847L41.7982 9.38671L42.0287 9.47769H42.3516Z" stroke="#C7E7DC" stroke-linecap="round" stroke-linejoin="round"/>
  <path d="M8.62695 38.3884L8.95111 38.724L9.29433 38.9376L9.69475 39.0291L10.1524 39.1511" stroke="#C7E7DC" stroke-linecap="round" stroke-linejoin="round"/>
  <path d="M22.356 42.2019L22.8483 42.6014L23.4566 42.7104L24.0648 42.8557L24.6441 42.9646" stroke="#C7E7DC" stroke-linecap="round" stroke-linejoin="round"/>
  <path d="M1 28.4731L1.0933 29.1701L1.25657 29.8896L1.48982 30.5866L1.74638 31.2836L2.07293 31.9806L2.46945 32.6101L2.86597 33.3071L3.35578 33.9367L3.84559 34.5662L4.40539 35.1957L4.9885 35.7354L5.61825 36.3649L6.27135 36.9045L6.9944 37.4666L7.81076 37.9163L8.62712 38.3884" stroke="#C7E7DC" stroke-linecap="round" stroke-linejoin="round"/>
  <path d="M10.1526 39.1511L11.7565 39.2226L13.3836 39.3895L14.9875 39.6278L16.6146 39.9615L18.1487 40.462L18.8693 40.7242L19.5899 40.9626L20.3337 41.2247L20.9613 41.5346L21.7051 41.8683L22.356 42.202" stroke="#C7E7DC" stroke-linecap="round" stroke-linejoin="round"/>
  <path d="M24.644 42.9649L25.6981 42.8935H26.6376L27.6 42.7269L28.6311 42.6318L29.5935 42.4652L30.5559 42.2987L31.4266 42.0607L32.3661 41.799L33.2597 41.5611L34.1992 41.3231L35.0929 40.99L35.872 40.5617L36.7656 40.2286L37.5447 39.8241L38.2779 39.4197L38.9883 38.92L39.6986 38.4917L40.4089 38.0159L41.0505 37.421L41.6921 36.9213L42.2421 36.3503L42.8149 35.7793L43.2732 35.1844L43.7544 34.542L44.1669 33.9472L44.5564 33.3048L44.8772 32.6385L45.198 31.9723L45.4271 31.3061L45.6792 30.6399L45.8396 29.9975L46 29.2361" stroke="#C7E7DC" stroke-linecap="round" stroke-linejoin="round"/>
  <path d="M18.5425 18.5579V17.7952" stroke="#C7E7DC" stroke-linecap="round" stroke-linejoin="round"/>
  <path d="M20.8306 16.27V21.609" stroke="#C7E7DC" stroke-linecap="round" stroke-linejoin="round"/>
  <path d="M31.5085 19.3208V23.8971" stroke="#C7E7DC" stroke-linecap="round" stroke-linejoin="round"/>
  <path d="M17.7795 17.0325V22.3715" stroke="#C7E7DC" stroke-linecap="round" stroke-linejoin="round"/>
  <path d="M33.0339 23.1341V20.8459" stroke="#C7E7DC" stroke-linecap="round" stroke-linejoin="round"/>
  <path d="M10.1524 35.9732V39.1512H9.71655L9.33519 38.9732L8.95383 38.7953L8.62695 38.6173V35.3376" stroke="#C7E7DC" stroke-linecap="round" stroke-linejoin="round"/>
  <path d="M24.6441 42.202H24.0927L23.4035 42.1393L22.8246 41.993L22.356 41.7632V39.1511" stroke="#C7E7DC" stroke-linecap="round" stroke-linejoin="round"/>
  <path d="M38.3727 19.3207L37.9846 18.5215L37.5052 17.8136L36.866 17.0143L36.2496 16.3064L35.4506 15.667L34.5831 15.0276L33.6928 14.3882L32.7569 13.9087L31.7296 13.452L30.611 12.9724L29.4924 12.5614L28.3053 12.333L27.1182 12.0133L25.9311 11.8534L24.6527 11.7849L23.4656 11.6936H22.21L20.9316 11.7849L19.7445 11.9448L18.5574 12.0818L17.3703 12.4015L16.2517 12.7212L15.2244 13.1323L14.1972 13.589L13.2383 14.0685L12.3709 14.6394L11.5034 15.1875L10.7729 15.8269L10.1336 16.5348L9.51728 17.2427L9.26616 17.5624L9.03787 17.9734L8.62695 18.7498" stroke="#C7E7DC" stroke-linecap="round" stroke-linejoin="round"/>
  <path d="M38.3727 18.5578L38.215 18.0711L38.0572 17.6771L37.8319 17.2599L37.584 16.8659L37.2685 16.4488L37.0432 16.0548L36.7277 15.6608L36.3446 15.2436L35.6235 14.5251L35.2404 14.2007L34.7672 13.8762L33.9108 13.2273L32.8968 12.6015L31.8602 12.1148L30.7785 11.6281L29.6067 11.2341L28.4349 10.9096L27.173 10.5852L25.911 10.4229L24.6716 10.2607L23.4097 10.168L22.0801 10.2607L20.8407 10.3302L19.5788 10.4924L18.407 10.6547L17.2352 10.9792L16.0634 11.3963L14.9592 11.7903L13.9451 12.277L12.9987 12.8333L12.0522 13.4822L11.6691 13.7139L11.286 14.1311L10.8804 14.4556L10.5649 14.7569L10.2494 15.174L9.9565 15.4985L9.64101 15.8925L9.39313 16.3097L9.16778 16.7037L8.91991 17.0977L8.76216 17.5148L8.62695 17.9088" stroke="#C7E7DC" stroke-linecap="round" stroke-linejoin="round"/>
  <path d="M39.1357 17.0324L39.0434 16.5494L38.9741 16.0893L38.8126 15.6061L38.651 15.123L38.3972 14.6399L38.1664 14.1568L37.9356 13.6737L37.6125 13.2826L37.1971 12.7995L36.874 12.4084L36.4817 11.9943L36.0893 11.5342L35.6047 11.2121L35.1201 10.798L34.6354 10.407L34.0815 10.0849L33.5046 9.76281L32.9507 9.44074L32.3968 9.11867L31.7506 8.8886L31.1044 8.56653L30.4582 8.33646L29.8351 8.17544L29.0966 7.92239L27.735 7.60031L26.3041 7.37025L24.8502 7.20923L23.4193 7.11719H21.9654L20.5345 7.20923L19.0806 7.43926L18.3652 7.60031L17.719 7.76133L17.0035 7.92239L16.3573 8.0834L15.7111 8.33646L15.065 8.56653L14.5111 8.79656L13.8649 9.11867L13.311 9.37169L12.7571 9.6938L12.2725 10.0159L11.7878 10.3149L11.3032 10.729L10.8185 11.0511L10.4262 11.4422L10.0108 11.8333L9.71077 12.2473L9.38767 12.7305L9.06458 13.1216L8.81071 13.6047L8.57993 13.9958L8.32606 14.4789L8.1876 14.962L8.02605 15.3531L7.93373 15.8362L7.8645 16.3193" stroke="#C7E7DC" stroke-linecap="round" stroke-linejoin="round"/>
  <path d="M39.1357 15.7802L39.0666 15.2428L38.9745 14.683L38.9054 14.1456L38.6521 13.6082L38.4218 13.138L38.1685 12.6006L37.8692 12.1304L37.5468 11.5706L37.1323 11.1228L36.7408 10.6525L36.2573 10.1823L35.7737 9.77925L35.2901 9.33143L34.7375 8.92839L34.0927 8.54771L33.54 8.14468L32.8953 7.85358L32.1814 7.5401L31.4676 7.22661L30.8228 6.91313L30.0168 6.66683L29.303 6.44293L28.497 6.28617L27.6911 6.06224L26.9082 5.97269L26.1022 5.81597L25.2962 5.74876L24.4903 5.65921L23.7073 5.59204H22.9014L22.0263 5.65921H21.2204L20.4144 5.74876L19.6085 5.81597L18.8255 5.97269L18.0196 6.12945L17.3057 6.28617L16.5689 6.53248L15.7859 6.75641L15.1412 6.98031L14.4273 7.29379L13.7825 7.60727L13.1378 7.92075L12.5851 8.23423L11.9404 8.61491L11.4568 9.01795L10.9041 9.3986L10.4896 9.86884L10.006 10.2495L9.61458 10.7197L9.2922 11.1899L8.96982 11.6601L8.64743 12.1304L8.41715 12.6678L8.25596 13.138L8.09477 13.6754L7.93358 14.1456L7.8645 14.683V15.2428V15.713L7.93358 16.2504L8.02569 16.7878L8.18688 17.258L8.32504 17.7954" stroke="#C7E7DC" stroke-linecap="round" stroke-linejoin="round"/>
  <path d="M10.915 7.78919L11.7125 7.16502L12.5784 6.63003L13.5354 6.16188L14.5607 5.69372L15.586 5.29248L16.7025 4.91352L17.819 4.69058L19.0039 4.3785L20.1887 4.22247L21.4419 4.13328L22.6267 4.06641H23.9027L25.0876 4.13328L26.3636 4.28934L27.5484 4.44537L28.7332 4.69058L29.9181 5.00267L31.0346 5.38164L32.1283 5.7606L33.1764 6.22875L34.1106 6.78605L35.0676 7.38795L35.8651 7.94526L36.6398 8.63631L37.3689 9.26048L38.0069 10.0184L38.5538 10.7318L38.9411 11.4897L39.3512 12.2699L39.5791 13.117L39.7386 13.8973L39.8981 14.7444" stroke="#C7E7DC" stroke-linecap="round" stroke-linejoin="round"/>
  <path d="M7.8645 16.6115L7.93373 16.1438L8.02605 15.6527L8.1876 15.1616L8.32606 14.6705L8.48762 14.273L8.74147 13.7819L8.97226 13.2908L9.29536 12.8933L9.61845 12.4724L9.94155 12.0748L10.3339 11.6539L10.7493 11.2563L11.2339 10.8588L11.6955 10.5314L12.1802 10.1105L12.6648 9.80648L13.2187 9.4791L13.7956 9.22186L14.3495 8.89447L14.9957 8.66061L15.5496 8.40337L16.1958 8.16951L16.842 8.00583L17.5574 7.84212L18.2036 7.67844L18.919 7.51473L20.2807 7.2809L21.7346 7.18734L23.2578 7.11719L24.6886 7.18734L26.1426 7.35105L27.5734 7.60829L28.2196 7.77196L28.935 7.93568L29.5812 8.09935L30.3198 8.33322L30.9429 8.56705L31.5891 8.82428L32.1429 9.15167L32.7891 9.38554L33.3661 9.71292L33.92 10.0403L34.4738 10.3677L34.9585 10.7652L35.4432 11.1862L35.9278 11.5136L36.3201 11.9111L36.7125 12.4022L37.1279 12.7998L37.451 13.1973L37.7741 13.6884L38.0972 14.1795L38.3279 14.6004L38.5587 15.0681L38.7203 15.5592L38.8818 16.0503L39.0434 16.5413L39.1357 17.0324" stroke="#C7E7DC" stroke-linecap="round" stroke-linejoin="round"/>
  <path d="M7.8645 17.1595L7.9575 16.6825L8.12025 16.2056L8.25975 15.8195L8.5155 15.3426L8.748 14.9338L9.00375 14.5477L9.23625 14.0708L9.56175 13.6847L9.957 13.3667L10.2825 12.9806L10.701 12.5718L11.1892 12.2539L11.5845 11.8678L12.0727 11.5498L12.561 11.2319L13.119 10.9139L13.6072 10.6868L14.1652 10.3688L14.7232 10.1418L15.3742 9.89194L15.9555 9.73294L16.5832 9.50582L17.8852 9.18786L19.257 8.93804L20.6287 8.71095L22.0005 8.64282H23.4652L24.837 8.71095L26.2785 8.86991L27.6502 9.09704L28.9522 9.34686L30.2542 9.73294L31.5329 10.2099L32.742 10.7549L33.3232 11.0048L33.7882 11.3227L34.3694 11.6407L34.8577 11.9359L35.3227 12.3447L35.8109 12.6627L36.2294 13.0488L36.6247 13.4349L37.0199 13.8436L37.3454 14.2297L37.6709 14.6385L37.9964 15.0927L38.2522 15.5016L38.4847 15.9785L38.7172 16.4554L38.8799 16.8415L39.0427 17.3184L39.1357 17.7954" stroke="#C7E7DC" stroke-linecap="round" stroke-linejoin="round"/>
  <path d="M24.644 39.9141V42.2022" stroke="#C7E7DC" stroke-linecap="round" stroke-linejoin="round"/>
  <path d="M22.356 39.1511L22.8246 39.5507L23.4035 39.6596L24.0927 39.9138H24.6441" stroke="#C7E7DC" stroke-linecap="round" stroke-linejoin="round"/>
  <path d="M8.62695 35.3376L8.95383 35.6732L9.33519 35.8868L9.71655 35.9783L10.1524 36.1004" stroke="#C7E7DC" stroke-linecap="round" stroke-linejoin="round"/>
</svg>