<svg xmlns="http://www.w3.org/2000/svg" width="50" height="51" viewBox="0 0 50 51" fill="none">
  <path fill-rule="evenodd" clip-rule="evenodd" d="M2.52058 1.02612H47.4841C48.5955 1.02612 49.5 1.93107 49.5 3.0428V48.0218C49.5 49.1335 48.5955 50.0431 47.4841 50.0431H2.52058C1.40924 50.0431 0.5 49.1335 0.5 48.0218V3.0428C0.5 1.93107 1.40924 1.02612 2.52058 1.02612Z" stroke="#C7E7DC" stroke-miterlimit="2.61313"/>
  <path fill-rule="evenodd" clip-rule="evenodd" d="M24.9902 9.3187C24.9902 9.3187 20.8478 9.11187 19.2359 13.4577C19.2359 13.4577 18.2302 15.9982 19.81 18.5984C21.3989 21.1939 24.0258 21.4696 24.9902 21.4742C25.8674 21.4879 29.3022 21.0607 30.5376 17.8771C31.2586 16.0028 30.9878 14.473 30.9327 14.225C30.85 13.8437 30.7259 13.4072 30.5147 12.9478C29.7616 11.317 28.0992 9.43355 24.9902 9.3187ZM24.9671 9.58507C24.9671 9.58507 27.594 9.4427 28.3609 12.957C28.3609 12.957 28.944 15.9844 28.1082 18.681C28.1082 18.681 27.4196 21.1847 24.8662 21.1847C22.3129 21.1847 21.6928 18.2308 21.6009 17.8357C21.5137 17.4452 20.9396 13.8436 22.0602 11.5467C22.0602 11.5467 22.8363 9.58507 24.9671 9.58507ZM31.0795 20.2521V22.7329C31.0795 22.7329 25.3575 22.4527 25.3575 26.2978H25.0407C25.0407 26.2978 24.7788 24.1754 26.8545 22.0484C26.8545 22.0484 28.5492 20.2521 31.0795 20.2521Z" fill="#C7E7DC"/>
  <path d="M13.7445 39.992C15.0763 39.992 16.1417 39.4546 16.8856 38.8206V35.66H13.6802V36.8085H15.6043V38.2188C15.1405 38.5634 14.4977 38.7885 13.7905 38.7885C12.2521 38.7885 11.228 37.6491 11.228 36.0964V36.0781C11.228 34.6356 12.2841 33.4228 13.671 33.4228C14.6262 33.4228 15.1958 33.7352 15.779 34.2267L16.6147 33.2298C15.8432 32.5729 15.035 32.2054 13.7262 32.2054C11.4575 32.2054 9.84106 33.9924 9.84106 36.0964V36.1194C9.84106 38.3153 11.3933 39.992 13.7445 39.992ZM20.4081 39.9829C21.2899 39.9829 21.8178 39.5189 22.1852 38.9814V39.8635H23.494V34.1854H22.1852V37.3873C22.1852 38.2693 21.6571 38.7885 20.9039 38.7885C20.1324 38.7885 19.687 38.2923 19.687 37.4103V34.1854H18.3873V37.7962C18.3873 39.1193 19.1315 39.9829 20.4081 39.9829ZM25.1381 33.3126H26.5342V32.0767H25.1381V33.3126ZM25.1933 39.8635H26.493V34.1854H25.1933V39.8635ZM30.5341 39.9829C31.4618 39.9829 32.0496 39.5097 32.4675 38.9171V39.8635H33.7716V32.0125H32.4675V35.0674C32.0633 34.5299 31.471 34.0659 30.5341 34.0659C29.1794 34.0659 27.9027 35.1317 27.9027 37.0152V37.0336C27.9027 38.9171 29.2023 39.9829 30.5341 39.9829ZM30.8465 38.8527C29.9648 38.8527 29.2116 38.1315 29.2116 37.0336V37.0152C29.2116 35.8851 29.9556 35.196 30.8465 35.196C31.719 35.196 32.4903 35.9172 32.4903 37.0152V37.0336C32.4903 38.1223 31.719 38.8527 30.8465 38.8527ZM38.0058 39.992C39.0483 39.992 39.7923 39.574 40.3296 38.9263L39.5627 38.251C39.1127 38.692 38.6625 38.9263 38.0287 38.9263C37.1883 38.9263 36.5316 38.4117 36.3938 37.4838H40.5637C40.5729 37.3551 40.5868 37.2403 40.5868 37.1208C40.5868 35.4854 39.6728 34.0659 37.8635 34.0659C36.2424 34.0659 35.0944 35.3981 35.0944 37.0244V37.0474C35.0944 38.7976 36.3618 39.992 38.0058 39.992ZM36.3801 36.6247C36.4995 35.7427 37.0598 35.1317 37.8543 35.1317C38.713 35.1317 39.2091 35.7887 39.2963 36.6247H36.3801Z" fill="#C7E7DC"/>
</svg>