   <svg xmlns="http://www.w3.org/2000/svg" width="48" height="48" viewBox="0 0 42 48"
                                    fill="none">
                                    <path d="M8.29492 17.3085V25.936" stroke="#030303" stroke-linecap="round"
                                        stroke-linejoin="round" />
                                    <path d="M37.6279 26.5054L38.1973 17.878" stroke="#030303" stroke-linecap="round"
                                        stroke-linejoin="round" />
                                    <path d="M6 25.936V28.2309" stroke="#030303" stroke-linecap="round"
                                        stroke-linejoin="round" />
                                    <path d="M39.9238 28.8175V26.5226" stroke="#030303" stroke-linecap="round"
                                        stroke-linejoin="round" />
                                    <path d="M20.9433 23.6411L19.2178 21.3462" stroke="#030303" stroke-linecap="round"
                                        stroke-linejoin="round" />
                                    <path d="M19.2178 20.7595L20.3738 19.0341" stroke="#030303" stroke-linecap="round"
                                        stroke-linejoin="round" />
                                    <path d="M19.0453 20.1901L18.6484 19.6035L20.5465 19.0341L20.9433 19.6035"
                                        stroke="#030303" stroke-linecap="round" stroke-linejoin="round" />
                                    <path d="M29.001 21.6568L29.8465 21.3289L30.7265 22.7439L29.881 23.0544"
                                        stroke="#030303" stroke-linecap="round" stroke-linejoin="round" />
                                    <path d="M10.0205 22.485V30.5431" stroke="#030303" stroke-linecap="round"
                                        stroke-linejoin="round" />
                                    <path d="M35.9033 13.2881V13.8576" stroke="#030303" stroke-linecap="round"
                                        stroke-linejoin="round" />
                                    <path d="M28.4316 35.1329V27.0748" stroke="#030303" stroke-linecap="round"
                                        stroke-linejoin="round" />
                                    <path d="M30.1572 26.5054V34.5635" stroke="#030303" stroke-linecap="round"
                                        stroke-linejoin="round" />
                                    <path d="M19.2179 21.329H18.6484" stroke="#030303" stroke-linecap="round"
                                        stroke-linejoin="round" />
                                    <path d="M18.6484 20.7595H19.2179" stroke="#030303" stroke-linecap="round"
                                        stroke-linejoin="round" />
                                    <path
                                        d="M28.4333 25.3666L27.9156 25.0215L27.4498 24.7282L26.8631 24.4521L26.2764 24.2278L25.6552 24.0552L25.0341 23.8654L24.3439 23.7446L23.6537 23.6238H22.3251L21.6521 23.6929L20.9619 23.7446"
                                        stroke="#030303" stroke-linecap="round" stroke-linejoin="round" />
                                    <path d="M18.6483 24.2105L18.2514 24.5729L17.8718 24.9352L17.4922 25.3666"
                                        stroke="#030303" stroke-linecap="round" stroke-linejoin="round" />
                                    <path
                                        d="M18.6495 20.1901L18.1318 20.4317L17.6314 20.794L17.2173 21.0874L16.8377 21.5188L16.5099 21.8638L16.251 22.2952L16.044 22.7956L15.8887 23.2097L15.7852 23.7101V24.1933"
                                        stroke="#030303" stroke-linecap="round" stroke-linejoin="round" />
                                    <path
                                        d="M29.0027 21.9156L28.5713 21.467L28.1054 21.0874L27.5533 20.7768L27.0184 20.4662L26.4145 20.2246L25.776 19.9658L25.1376 19.845L24.4302 19.6552L23.7227 19.6035H22.3078L21.6004 19.6552L20.9619 19.776"
                                        stroke="#030303" stroke-linecap="round" stroke-linejoin="round" />
                                    <path d="M30.1572 24.7799V23.0544" stroke="#030303" stroke-linecap="round"
                                        stroke-linejoin="round" />
                                    <path
                                        d="M10.0217 29.9564L9.9182 29.8356L9.76291 29.7838L9.59035 29.7148H9.21074L8.95193 29.1109L8.67584 28.4207L8.52055 27.8168L8.41703 27.1956L8.31348 26.5227V25.9015"
                                        stroke="#030303" stroke-linecap="round" stroke-linejoin="round" />
                                    <path d="M6 28.2309V28.8003" stroke="#030303" stroke-linecap="round"
                                        stroke-linejoin="round" />
                                    <path
                                        d="M6 28.8176L6.1208 29.5768L6.3106 30.267L6.55217 31.0262L6.8455 31.7164L7.2596 32.4756L7.69097 33.1658L8.24314 33.8042L8.79529 34.4254L9.41646 35.0638L10.1584 35.6332L10.8831 36.2199L11.6769 36.7893V36.8411L11.7459 36.9101"
                                        stroke="#030303" stroke-linecap="round" stroke-linejoin="round" />
                                    <path
                                        d="M22.0995 39.1705H22.0305V39.0497L21.2368 38.6874L20.3741 38.3423L19.5286 37.9799L18.5968 37.7384L17.6823 37.4968L16.7678 37.2552L15.8015 37.0827L14.818 36.9619L13.8345 36.8929L12.8682 36.8411V36.9619"
                                        stroke="#030303" stroke-linecap="round" stroke-linejoin="round" />
                                    <path d="M23.8242 39.7399V39.1705" stroke="#030303" stroke-linecap="round"
                                        stroke-linejoin="round" />
                                    <path
                                        d="M23.8242 39.1705L24.9113 39.1187L26.0501 39.0497L27.0681 38.9289L28.1552 38.7564L29.1732 38.5148L30.1913 38.2215L31.1403 37.9109L32.1066 37.5485L33.0038 37.1862L33.8493 36.7203L34.6775 36.2889L35.4713 35.754L36.1787 35.2191L36.8344 34.6842L37.4383 34.0803L37.9732 33.4246L38.4564 32.8207L38.8877 32.165L39.2329 31.4403L39.5434 30.7846L39.716 30.0599L39.9058 29.3352"
                                        stroke="#030303" stroke-linecap="round" stroke-linejoin="round" />
                                    <path d="M39.9238 29.387V28.8176" stroke="#030303" stroke-linecap="round"
                                        stroke-linejoin="round" />
                                    <path
                                        d="M28.4316 35.1328L28.4834 35.0121L28.5524 34.8913L28.6732 34.7705L28.8458 34.6497L28.9665 34.5979L29.1563 34.5289H29.3979L29.5705 34.4772L29.812 34.5289L29.9846 34.5979L30.1744 34.6497L30.3469 34.7187L31.1752 34.3564L31.9861 33.994L32.8144 33.5799L33.5218 33.0968L34.212 32.6136L34.8677 32.0787L35.4371 31.5266L35.903 30.9399L36.3689 30.336L36.7658 29.6976L37.0591 29.0936L37.3524 28.4552L37.525 27.7477L37.6458 27.1093L37.7148 26.4709"
                                        stroke="#030303" stroke-linecap="round" stroke-linejoin="round" />
                                    <path
                                        d="M10.0205 30.5431L10.5036 31.147L11.1076 31.6819L11.7632 32.2168L12.4189 32.6999L13.1954 33.1831L13.9891 33.5972L14.7656 34.0113L15.6629 34.3736L16.5601 34.6842L17.4574 34.9776L18.4236 35.2191L19.3727 35.3917L20.3907 35.5815L21.357 35.6333L22.375 35.7023L23.3931 35.754L24.4111 35.7023L25.4291 35.6333L26.3954 35.5125L27.3444 35.3399L28.3107 35.0984"
                                        stroke="#030303" stroke-linecap="round" stroke-linejoin="round" />
                                    <path
                                        d="M22.0998 36.8583L21.3061 36.4787L20.4434 36.0991L19.5979 35.7368L18.7351 35.4089L17.7516 35.1501L16.8371 34.9776L15.8708 34.805L14.8873 34.6842L13.9038 34.6152L12.9375 34.5634"
                                        stroke="#030303" stroke-linecap="round" stroke-linejoin="round" />
                                    <path
                                        d="M23.8242 37.445L24.9458 37.3933L26.0156 37.3243L27.0854 37.1517L28.1379 36.9619L29.1387 36.7893L30.1395 36.4788L31.1403 36.1854L32.0893 35.8231L32.9693 35.409L33.7975 34.9948L34.6085 34.5117L35.3678 34.0113L36.0752 33.3901L36.7136 32.838L37.3693 32.2168L37.9042 31.5439L38.3874 30.8709L38.8015 30.198L39.1638 29.5078L39.4572 28.7831L39.647 28.0411L39.7678 27.2992L39.8885 26.5744V25.8325L39.7678 25.0388L39.647 24.2968L39.4054 23.5548L39.1638 22.8301L38.8015 22.1399L38.3874 21.4152L37.9042 20.725"
                                        stroke="#030303" stroke-linecap="round" stroke-linejoin="round" />
                                    <path
                                        d="M8.24443 20.1901L7.70953 20.8458L7.27815 21.5015L6.93306 22.1572L6.5707 22.8819L6.32913 23.6066L6.13933 24.314L6.08756 25.0388L6.01855 25.7635L6.08756 26.4882L6.20833 27.1956L6.38089 27.9203L6.62246 28.645L6.93306 29.3525L7.27815 30.0254L7.76129 30.6811L8.24443 31.3368L8.84836 31.9407L9.50403 32.5274L10.1597 33.1313L10.9362 33.6662L11.7127 34.1493"
                                        stroke="#030303" stroke-linecap="round" stroke-linejoin="round" />
                                    <path
                                        d="M35.9031 18.1713L35.8341 17.5501L35.7823 16.8772L35.5925 16.256L35.3682 15.5831L35.0576 14.9619L34.6953 14.3407L34.2121 13.7885L33.7462 13.2364L33.1423 12.667L32.5384 12.1838L31.8827 11.6834L31.158 11.2521L30.3815 10.8725L29.6051 10.4929L28.7596 10.165L27.8623 9.9407L26.9651 9.69913L25.9988 9.50933L25.1015 9.38855L24.1525 9.33678L23.1863 9.26776L22.2372 9.33678L21.271 9.38855L20.3737 9.45757L19.4074 9.63011L18.5102 9.87168L17.6819 10.1133L16.8364 10.4238L15.991 10.7517L15.2835 11.1313L14.5588 11.5627L13.9031 12.0631L13.2992 12.5634L12.6953 13.0466L12.2121 13.616L11.798 14.2199L11.4357 14.7893L11.1423 15.3933L10.9007 16.0144L10.7109 16.6874L10.6592 17.3085V17.9815L10.7109 18.6027L10.8317 19.2756L11.0215 19.8968L11.3149 20.518L11.6772 21.1219L12.0396 21.7431L12.5227 22.2952L13.0576 22.8646L13.6615 23.4168L14.3172 23.8482L14.9729 24.3485L15.7494 24.7799L16.5259 25.1595L17.3713 25.4874L18.2168 25.798L19.1141 26.0395L20.0113 26.2121L20.9776 26.4019L21.9266 26.4536L22.8239 26.5227H24.7392L25.7055 26.4019L26.6027 26.2811L27.569 26.0913L28.3972 25.867L29.3117 25.6254L30.0882 25.2458L30.8647 24.918L31.6411 24.4866L32.2968 24.0552L32.9698 23.5548L33.5564 23.0544L34.0396 22.5023L34.5227 21.9501L34.9368 21.3289L35.2474 20.7768L35.5407 20.0866L35.7133 19.4827L35.8341 18.8615L35.9031 18.1885V18.1713Z"
                                        stroke="#030303" stroke-linecap="round" stroke-linejoin="round" />
                                    <path
                                        d="M37.1799 14.4788L37.4905 15.0654L37.7838 15.7384L37.9564 16.3941L38.0772 17.0497L38.198 17.7744L38.1462 18.4301L38.0772 19.0858L37.9564 19.7588L37.7321 20.4144L37.4905 21.0701L37.1282 21.6741L36.6968 22.2607L36.2827 22.8646L35.7478 23.3995L35.1438 23.9517L34.4882 24.4866L33.8325 24.9697L33.1078 25.4529L32.3313 25.798L31.4858 26.2293L30.5885 26.5227L30.4678 26.4709L30.2952 26.4019L30.0536 26.3501H29.4497L29.2772 26.4019L29.0874 26.5227L28.9666 26.5917L28.8458 26.7125L28.794 26.816L28.725 26.9368V27.1266L27.776 27.2991L26.8097 27.489L25.7917 27.6097L24.8254 27.6615L23.8074 27.7305H22.7893L21.7713 27.6615L20.8223 27.5407L19.8042 27.4199L18.838 27.1784L17.8717 26.9368L16.9227 26.7125L16.0772 26.3501L15.1799 25.9878L14.3344 25.6254L13.558 25.2113L12.8505 24.7282L12.1776 24.1933L11.5219 23.7101L10.918 23.1062L10.3831 22.5713L10.5729 22.4505L10.6246 22.3297L10.6936 22.209L10.7454 22.0882L10.6936 21.9156V21.7948L10.5729 21.6741L10.4521 21.5533L10.3313 21.4842L10.1415 21.3635L9.96894 21.3117H9.53756L9.19247 20.656L8.9509 19.9831L8.70934 19.3274L8.58854 18.6717L8.51953 18.016V17.3603L8.58854 16.6874L8.7611 16.0317L8.9509 15.376L9.24423 14.7203L9.53756 14.1164L9.96894 13.5125L10.4521 12.9086L10.987 12.3219L11.5219 11.7697L12.1776 11.3039L12.9023 10.8207L13.627 10.3376L14.4034 9.92347L15.2489 9.56111L16.0772 9.19876L16.267 9.31954L16.4395 9.37131L16.6121 9.44033H17.0435L17.216 9.37131L17.4058 9.31954L17.5784 9.25052L17.6991 9.147L17.8199 9.07798L17.9407 8.90543V8.66386L18.907 8.42229L19.856 8.30151L20.874 8.18072L21.8921 8.05994H23.8936L24.9117 8.1117L25.9297 8.23249L26.896 8.35327L27.914 8.54307L28.863 8.78464L29.7603 9.07798L30.6748 9.37131L31.503 9.73366L32.3485 10.165L33.125 10.5792L33.8497 11.0623L34.5572 11.5282L35.2301 12.0803L35.765 12.6152L36.2999 13.2192L36.1791 13.3399L36.0583 13.4607L36.0066 13.5815V13.8231L36.0583 13.9956L36.1274 14.1164L36.2481 14.2372L36.4207 14.289L36.6105 14.358L36.783 14.4097L36.9556 14.4788H37.1972H37.1799Z"
                                        stroke="#030303" stroke-linecap="round" stroke-linejoin="round" />
                                    <path
                                        d="M11.7461 36.2889L11.9877 36.5478L12.2465 36.7031L12.5398 36.7721L12.8849 36.8584"
                                        stroke="#030303" stroke-linecap="round" stroke-linejoin="round" />
                                    <path
                                        d="M22.0986 39.1705L22.4782 39.4639L22.9441 39.5501L23.41 39.6537L23.8414 39.7399"
                                        stroke="#030303" stroke-linecap="round" stroke-linejoin="round" />
                                    <path
                                        d="M6 28.8176L6.06903 29.3352L6.1898 29.8701L6.36236 30.3878L6.55217 30.9054L6.79374 31.4231L7.08707 31.9062L7.3804 32.4238L7.74276 32.907L8.1051 33.3901L8.51923 33.8733L8.9506 34.2874L9.43373 34.7705L9.93411 35.1846L10.4863 35.616L11.1075 35.9611L11.7286 36.3234"
                                        stroke="#030303" stroke-linecap="round" stroke-linejoin="round" />
                                    <path
                                        d="M12.9023 36.8584L14.1102 36.9102L15.3353 37.0309L16.5431 37.2035L17.7682 37.4623L18.9243 37.8419L19.4592 38.0317L19.9941 38.2043L20.5463 38.3941L21.0121 38.6357L21.5643 38.8945L22.0474 39.1533"
                                        stroke="#030303" stroke-linecap="round" stroke-linejoin="round" />
                                    <path
                                        d="M23.8242 39.7399L24.618 39.6882H25.3254L26.0501 39.5674L26.8266 39.4984L27.5513 39.3776L28.276 39.2568L28.9317 39.0842L29.6391 38.8944L30.3121 38.7219L31.0195 38.5493L31.6924 38.2905L32.2791 37.9627L32.952 37.7038L33.5387 37.3933L34.0909 37.0827L34.6258 36.7031L35.1607 36.3752L35.6956 36.0129L36.1787 35.5642L36.6619 35.1846L37.076 34.7533L37.5074 34.3219L37.8525 33.8733L38.2148 33.3901L38.5254 32.9415L38.8187 32.4584L39.0603 31.958L39.3019 31.4576L39.4744 30.9572L39.6642 30.4568L39.785 29.9736L39.9058 29.4042"
                                        stroke="#030303" stroke-linecap="round" stroke-linejoin="round" />
                                    <path d="M19.2178 21.3289V20.7595" stroke="#030303" stroke-linecap="round"
                                        stroke-linejoin="round" />
                                    <path d="M20.9434 19.6035V23.6238" stroke="#030303" stroke-linecap="round"
                                        stroke-linejoin="round" />
                                    <path d="M29.001 21.9156V25.3666" stroke="#030303" stroke-linecap="round"
                                        stroke-linejoin="round" />
                                    <path d="M18.6484 20.1901V24.2105" stroke="#030303" stroke-linecap="round"
                                        stroke-linejoin="round" />
                                    <path d="M30.1572 24.7799V23.0544" stroke="#030303" stroke-linecap="round"
                                        stroke-linejoin="round" />
                                    <path
                                        d="M12.9022 34.4599V36.8583H12.5743L12.281 36.7203L11.9877 36.5823L11.7461 36.4442V33.9768"
                                        stroke="#030303" stroke-linecap="round" stroke-linejoin="round" />
                                    <path
                                        d="M23.8254 39.1705H23.4113L22.8937 39.1187L22.4623 39.0152L22.1172 38.8427V36.8756"
                                        stroke="#030303" stroke-linecap="round" stroke-linejoin="round" />
                                    <path
                                        d="M34.1784 21.9156L33.8851 21.3117L33.5227 20.7768L33.0396 20.1729L32.5738 19.638L31.9698 19.1548L31.3141 18.6717L30.6412 18.1886L29.9337 17.8262L29.1573 17.4811L28.3118 17.1188L27.4663 16.8082L26.569 16.6356L25.6718 16.3941L24.7745 16.2733L23.8083 16.2215L22.911 16.1525H21.962L20.9957 16.2215L20.0984 16.3423L19.2012 16.4458L18.3039 16.6874L17.4584 16.929L16.682 17.2396L15.9055 17.5847L15.1808 17.947L14.5251 18.3784L13.8694 18.7925L13.3173 19.2756L12.8341 19.8105L12.3683 20.3454L12.1784 20.587L12.0059 20.8976L11.6953 21.4843"
                                        stroke="#030303" stroke-linecap="round" stroke-linejoin="round" />
                                    <path
                                        d="M34 21.0599L33.8816 20.6539L33.7631 20.3251L33.5938 19.9771L33.4077 19.6483L33.1708 19.3003L33.0015 18.9715L32.7646 18.6428L32.4769 18.2947L31.9354 17.6953L31.6477 17.4246L31.2923 17.1539L30.6662 16.6124L29.9215 16.0903L29.16 15.6842L28.3646 15.2782L27.5015 14.9494L26.6385 14.6787L25.7077 14.408L24.7769 14.2726L23.8631 14.1373L22.9323 14.0599L21.9508 14.1373L21.0369 14.1953L20.1061 14.3307L19.2431 14.466L18.38 14.7367L17.5169 15.0848L16.7046 15.4135L15.96 15.8196L15.2662 16.2837L14.5723 16.8251L14.2846 17.0185L13.9969 17.3666L13.6923 17.6373L13.4554 17.8887L13.2185 18.2367L12.9985 18.5075L12.7615 18.8362L12.5754 19.1842L12.4062 19.513L12.22 19.8417L12.1015 20.1898L12 20.5185"
                                        stroke="#030303" stroke-linecap="round" stroke-linejoin="round" />
                                    <path
                                        d="M34.7463 20.1902L34.6772 19.8278L34.6255 19.4827L34.5047 19.1204L34.3839 18.758L34.1941 18.3956L34.0216 18.0333L33.849 17.6709L33.6075 17.3776L33.2969 17.0153L33.0553 16.7219L32.762 16.4113L32.4686 16.0662L32.1063 15.8247L31.7439 15.5141L31.3816 15.2207L30.9675 14.9792L30.5361 14.7376L30.122 14.496L29.7079 14.2545L29.2247 14.0819L28.7416 13.8404L28.2584 13.6678L27.7926 13.547L27.2404 13.3572L26.2051 13.1156L25.118 12.9431L24.0137 12.8223L22.9267 12.7533H21.8224L20.7353 12.8223L19.631 12.9949L19.0961 13.1156L18.6129 13.2364L18.078 13.3572L17.5949 13.478L17.1118 13.6678L16.6286 13.8404L16.2145 14.0129L15.7314 14.2545L15.3173 14.4443L14.9031 14.6858L14.5408 14.9274L14.1784 15.1517L13.8161 15.4623L13.4537 15.7039L13.1604 15.9972L12.8498 16.2906L12.6255 16.6011L12.3839 16.9635L12.1424 17.2568L11.9525 17.6192L11.78 17.9125L11.5902 18.2749L11.4867 18.6372L11.3659 18.9305L11.2969 19.2929L11.2451 19.6553"
                                        stroke="#030303" stroke-linecap="round" stroke-linejoin="round" />
                                    <path
                                        d="M35 19.4118L34.947 18.9859L34.8763 18.5414L34.8233 18.097L34.6289 17.671L34.4521 17.2822L34.2577 16.8562L34.028 16.4673L33.7806 16.0044L33.4625 15.634L33.162 15.2451L32.7909 14.8562L32.4197 14.5229L32.0486 14.1525L31.6244 13.8192L31.1296 13.5044L30.7054 13.171L30.2106 12.9303L29.6627 12.671L29.1149 12.4118L28.62 12.1525L28.0015 11.9488L27.4536 11.7636L26.8351 11.634L26.2165 11.4488L25.6156 11.3748L24.997 11.2451L24.3785 11.1896L23.7599 11.1155L23.1591 11.0599H22.5405L21.8689 11.1155H21.2504L20.6318 11.1896L20.0133 11.2451L19.4124 11.3748L18.7938 11.5044L18.246 11.634L17.6804 11.8377L17.0795 12.0229L16.5847 12.2081L16.0368 12.4673L15.542 12.7266L15.0471 12.9859L14.623 13.2451L14.1281 13.5599L13.757 13.8933L13.3329 14.2081L13.0147 14.597L12.6436 14.9118L12.3431 15.3007L12.0957 15.6896L11.8483 16.0785L11.6009 16.4673L11.4242 16.8933L11.3004 17.2822L11.1767 17.7081L11.053 18.097L11 18.5414V19.3748L11.053 19.8007L11.1237 20.2451L11.2474 20.634L11.3535 21.0599"
                                        stroke="#030303" stroke-linecap="round" stroke-linejoin="round" />
                                    <path d="M23.8242 37.445V39.1705" stroke="#030303" stroke-linecap="round"
                                        stroke-linejoin="round" />
                                    <path d="M22.0986 36.8584L22.4437 37.1517L22.8751 37.238L23.3928 37.4278H23.8069"
                                        stroke="#030303" stroke-linecap="round" stroke-linejoin="round" />
                                    <path
                                        d="M11.7461 33.994L11.9877 34.2529L12.281 34.4082L12.5743 34.4772L12.9022 34.5635"
                                        stroke="#030303" stroke-linecap="round" stroke-linejoin="round" />
                                </svg>