<svg xmlns="http://www.w3.org/2000/svg" width="48" height="48" fill="none"><g clip-path="url(#a)"><path d="m1.013 25.1.026 1.02M1.38 22.205l-.027-1.021-.34 3.915M2.572 19.088l-.275 1.9M4.575 20.62l.026.446M6.355 17.255l.092-1.074M6.527 16.168l-.105 1.06M6.645 15.84v.053M5.859 19.088l-.275 2.423M5.491 21.537l.301-2.423M6.645 15.893l-.105-.734M6.645 15.84l-.091-.746M10.495 17.058l.118-1.06M10.377 18.852l-.275 2.489M10.245 15.094v.052M10.338 15.683l-.013.052M10.455 15.683v.052M10.023 21.34l.276-2.5M9.683 27.797l-.131 1.061M10.704 16.01l-.13 1.061M18.43 8.323l.302-.21M23.042 5.127l.301-.222M18.745 39.296l.275-.066M28.737 38.576h.013M11.817 26.789h.013M12.04 26.907l-.013-.04M10.324 15.735l-.079-.589M10.337 15.683l-.092-.59M10.364 14.937l.092.746M13.508 27.627l-.144 1.493M22.217 4.302l.183-.288M19.374 9.226l.17-.288M19.624 32.433h-.014l-.065-.039-.052-.052-.013-.04M17.083 12.75v.025M17.07 12.186l-.079 1.061M16.231 12.186l.341-4.007M15.628 20.555l-.196 2.41M16.586 8.729l-.092 1.087M16.376 13.208l.026-.262M17.082 12.75l-.026.235-.183.642-.34.59-.485.51-.603.432-.72.314-.786.21-.72.092M17.58 7.249l-.053.34M17.345 6.332l-.25 1.703M17.357 6.332l-.04.328M17.698 5.14l-.053.34M18.431 8.323l-.052.327M19.898 33.127l.314-.052M20.226 32.787l-.288.052M28.463 32.604l.314.026M28.804 32.355l-.315-.026M20.24 30.43l.274.144M20.54 30.286l-.263-.118M25.661 41.444l.236.38" stroke="#000" stroke-linecap="round" stroke-linejoin="round"/><circle cx="17.934" cy="10.68" r=".196" fill="#000"/><path d="m17.068 12.186.013.563M16.584 8.729l-.013-.55M18.17 12.54l.013.445" stroke="#000" stroke-linecap="round" stroke-linejoin="round"/><circle cx="18.182" cy="32.368" r=".196" fill="#000"/><path d="M17.096 8.035v.615M19.4 8.9l-.026.326M19.69 3.804l-.053.315M32.392 27.941h-.013M13.363 29.146l-3.34.144M9.552 29.29l3.81-.17M13.364 29.146l.773.026.864.145.825.288.747.406.628.51.498.59.328.654.17.603M27.1 34.83l.223.21M21.207 29.264l.21.183M27.35 34.752l-.21-.184M19.282 30.901l-.157-.68-.34-.734-.498-.668-.642-.603-.747-.51-.85-.393-.93-.288-.957-.144-.864-.014M18.184 32.368l.458 3.222M18.76 34.018l-.433-3.143M18.418 30.81l.367 2.645M19.401 32.263l-.196-1.388M19.479 32.302l-.197-1.388M16.912 13.509l-.445-3.222v.04M17.933 10.693v-.013M18.143 12.16l.026.38M18.47 37.148l.145-1.69M18.184 32.368l.144-1.493M19.702 31.923l.026-.236M20.959 9.226l-.053.328M32.392 27.954l3.706-.157M32.379 27.941l4.178-.183M13.507 27.627l-3.824.17M9.683 27.666l3.824-.17M36.74 26.265l-4.138.183M32.602 26.317l4.138-.17M12.066 26.907h-.078l-.079-.026-.065-.053-.027-.04M17.07 12.186l-.484-3.457M16.677 8.676l.484 3.458M18.052 12.12l-.197-1.466M20.895 9.213l.013.34M20.855 3.687v.327M20.96 9.226l-.013-.327M21.418 29.447l-.026.275M23.369 4.577l-.026.328M22.111 9.109l-.026.327M20.226 32.787l-.013.288M20.54 30.286l-.026.288M23.448 8.493l-.039.34M19.898 33.127l.039-.288M19.689 31.923l-.21 1.545M19.755 31.66l-.053.263M20.24 30.43l.039-.262M47.597 21.93l-.105.026M47.584 21.812l-.184.026M32.629 25.663l-.917.104-.956.25-.851.392-.76.498-.59.615-.445.707M13.298 26.894l-1.218.052M12.066 26.907l1.231-.04M36.689 25.532l-4.06.17M36.676 25.492l-4.047.17M22.924 28.819l.091.249M25.504 35.223l.078.236M23.054 28.793l-.092-.236M24.416 6.908l-.013.21M23.959 7.183l.013-.3M22.283 34.83l-.014.275M24.102 7.76l-.013.327M24.443 6.568l-.026.34M24.403 7.118l-.144 1.729M22.111 35.328l.026-.288M23.054 28.793l-.04.275M22.924 28.819l.04-.262M20.934 34.267l-.04.262M42.11 23.593l3.797-.17M46.432 23.082l.668-.026M46.445 23.07l.655-.027M11.674 23.54l-4.073.158M11.66 23.502l-4.072.17M42.15 23.711l3.771-.157M24.063 35.563l-.013.262M24.469 28.465l-.027.249M24.089 35.537l.013-.236M25.568 35.734l.013-.275M24.442 28.714v.026M24.09 35.537l-.04.288M24.103 35.301l-.04.262M38.05 21.55l-2.777.105M38.037 21.511l-2.776.118M5.584 21.511l4.44-.17M23.854 10.955l.262 1.82M25.201 12.186l-.55-3.85M28.738 30.024l-.026-.511.026-.223M27.612 29.762l-.026.262M27.39 29.906l-.04.288M27.35 34.752l-.027.288M26.262 29.172l-.026.288M22.727 42.046l.105-.445M46.524 17.988l-.694.026M46.497 17.962l-.642.026M34.2 18.446l2.75-.118M35.26 21.629l-.04-.013M19.637 4.119l.157.327M21.968 8.794l.144.315M19.832 4.106l-.143-.301M24.743 8.375l.537 3.864M27.796 30.168l.026.091M27.9 30.102l.04.275M29.08 33.023l-.42-3.039M28.737 30.024l.472 3.392M28.778 32.63v.078M28.805 32.355l-.027.275M28.777 32.708l-.144 1.782M28.438 32.826l.026-.222.026-.275" stroke="#000" stroke-linecap="round" stroke-linejoin="round"/><circle cx="28.738" cy="29.29" r=".196" fill="#000"/><path d="m27.14 34.568-.04.262M27.782 29.146l.118-.406M27.782 30.22l.013-.052M28.11 28.23l-.21.523M22.28 34.83l-.143.21M26.264 29.172l.144-.196M22.111 35.328l.157-.223M41.246 17.36l3.811-.158M45.043 17.176l-3.771.157M30.021 16.744l2.057-.079M46.956 18.656l.197.013M47.138 18.63h-.117M31.463 18.093l-.34 2.488M28.79 38.3l.498-3.562M28.752 30.037l.04-.105.366-.537.484-.485.603-.392.694-.302.747-.196.707-.066M20.933 34.267l.222-.157M27.612 29.762l-.222.144M27.35 30.194l.236-.17M47.532 22.401l.053-.013" stroke="#000" stroke-linecap="round" stroke-linejoin="round"/><circle cx="30.101" cy="15.46" r=".196" fill="#000"/><circle cx="13.219" cy="15.775" r=".196" fill="#000"/><path d="m10.495 17.058-4.073.17M37.225 15.788l-2.763.118M34.448 15.775l2.777-.105M30.1 15.46l3.825-.157M10.613 15.997l-4.087.17M12.773 15.827l.446-.026M13.22 15.775l-.498.026M6.526 16.05l4.073-.17M10.456 15.735h-.13M10.456 15.683h-.118M30.1 15.5l3.76-.158M30.1 15.46l-.785-.013-.864-.157-.826-.288-.746-.406-.616-.51-.497-.603-.34-.642-.145-.602M30.1 15.5h.014M34.2 18.446l.261-2.54M32.392 27.941l.21-1.493M10.285 14.937h.079M23.094 8.585l.314.249M37.225 15.788l-.275 2.54M16.376 13.208l.13-.026M18.366 4.42l.301.236M23.448 8.493l-.302-.236M36.558 27.758l.183-1.493M47.585 22.388l.052-.052.04-.065.013-.027M23.735 7.616l.367.144M41.035 19.167l-.196 2.501M46 23.475l.445-.406M46 23.488l.432-.405M23.972 6.882l.445.026M24.442 6.568l-.419-.013M45.096 17.53l.733.484M45.855 17.988l-.694-.458M42.451 25.597l.21-1.52M23.84 5.743l.394-.092M45.174 17.53l-.04-.275M45.096 17.53l-.04-.328M47.768 21.8v-.053M47.467 22.781l.065-.406M47.69 22.244h.012M47.598 21.93l-.066.354M47.768 21.8l-.078.444M47.4 21.838l.066.406M46.956 18.656l-.053-.406M47.02 18.617l-.039-.328M47.688 21.707l-.406-2.946M47.362 18.8l.406 2.947M12.028 26.867l-.04-.13-.039-.131M10.285 14.897l-.04-.013h-.025M10.364 14.91l-.027-.013-.052-.013M6.527 15.054v.013H6.5M6.54 15.16l-.157.051M5.505 21.537l-.353.144-.158.066-.17.091M1.053 26.12v.026M1.013 25.126 1 25.387v.25l.013.248.026.262" stroke="#000" stroke-linecap="round" stroke-linejoin="round"/><path d="m1.026 25.047-.013.052v.04M14.175 21.053v-.197l-.027-.183M13.323 21.59l.026-.145.014-.144.013-.157V21l-.013-.157-.014-.144M13.284 21.747l.013-.079v-.065M11.975 26.933l.039.013h.052M12.066 26.946h.013M7.509 23.685l.04.013h.038M7.47 23.685h.053M7.588 23.698H7.6M11.675 23.528h.04l.012-.013h.026" stroke="#000" stroke-linecap="round" stroke-linejoin="round"/><path d="M11.752 23.515h.026l.013-.013M10.102 21.34h-.079M7.496 23.659h.092M21.39 29.395l-.013.013h-.013M20.985 34.215v.012M29.197 33.416l-.052-.197-.066-.183M29.223 33.468l-.013-.026v-.026M29.275 33.678l-.052-.223M27.94 33.742v-.025M27.966 33.782l-.013-.013v-.026M20.332 32.852l-.079.105-.066.118M19.48 33.468l-.014.183-.013.21.013.196.013.184M19.755 31.66V32.068l.026.13M19.74 31.66l-.012.027v.013M18.182 32.368l-.013-.092-.013-.091M28.49 32.329v-.38l-.027-.118M2.571 20.201v.026l.013.04M15.628 20.555l.013-.249v-.262l-.013-.236-.04-.248M2.571 19.088l-.013.183-.013.197v.367l.013.183.013.183M14.306 20.516l.026-.223v-.445l-.026-.223M17.318 6.542l-.013.026-.013.026h-.026v.026M18.498 8.257h.013l.013.013M16.323 13.037l.026.092.027.079M16.258 12.723l.04.157.025.157M16.231 12.186v.393l.027.131M24.443 6.568l-.013-.131-.013-.131M17.358 6.345l.014.131.013.118" stroke="#000" stroke-linecap="round" stroke-linejoin="round"/><path d="m17.33 6.332-.013.17v.158" stroke="#000" stroke-linecap="round" stroke-linejoin="round"/><circle cx="17.331" cy="6.332" r=".196" fill="#000"/><path d="m23.826 7.642.013-.026.013-.027M24.024 6.555l-.013-.118v-.118M23.854 7.603l.039-.105.026-.105.026-.105.013-.105M10.732 15.893l-.066-.014h-.065M10.69 16.023l-.025-.013h-.053M10.574 17.084l-.04-.013h-.039M36.295 30.102h.065M41.167 19.088l-.066-.079-.052-.078M30.296 28.491l-.078.04M41.94 21.93l.013-.236.013-.248-.013-.25-.026-.235M29.747 28.832l-.079.065-.078.066M41.927 22.113v-.078l.026-.092M29.59 28.95l-.093.078-.078.079-.079.079-.078.078M27.822 29.146l-.04.17v.17l-.012.158v.17l.013.17.026.17M27.9 28.753l-.052.21-.027.183M27.978 28.753l-.04.223-.051.223-.014.235-.013.223.013.223.027.222M29.263 29.264l-.092.105-.078.118M29.093 29.474l-.105.157-.105.157-.066.118-.065.13M28.66 29.264v.026M47.453 22.834l.013-.026v-.027M35.208 21.642l.026.013h.04M47.676 22.257l.013-.013M46 23.5v-.025M36.727 26.265h.092M36.688 25.518l.3-.013.302-.026M35.876 22.428l.445.039h.223l.223-.013M39.137 21.694h.013M25.203 12.186v.066M46.628 18.001h-.105M37.291 15.683l-.026-.013h-.04M36.976 18.328h-.026M37.265 15.788h-.04M45.121 17.255v-.027l-.026-.026-.026-.026h-.026M29.275 33.69l.04.263.013.261-.013.263-.027.261M18.43 37.633l.04-.485M17.345 6.332l.039-.236.066-.21.091-.209.105-.196M38.075 21.498l.197-.079c.877-.366 1.637-1.06 1.86-2.003l.039-.197M32.326 18.342v.157c-.04 1.48 1.283 2.645 2.62 3.038l.274.079" stroke="#000" stroke-linecap="round" stroke-linejoin="round"/><path d="m36.623 14.963.42.065c1.937.301 4.033 1.807 4.007 3.942v.21M31.462 18.093l.04-.197c.458-2.069 2.763-3.064 4.7-2.96l.42.027M15.59 19.56l-.04-.223c-.445-2.227-2.633-3.811-4.741-4.322l-.458-.105M10.22 14.871l-.432-.066a8.25 8.25 0 0 0-2.659.092l-.432.105M6.502 15.068l-.354.104c-1.624.563-3.117 1.808-3.51 3.55l-.078.366M19.727 31.66l.04-.156a3.03 3.03 0 0 1 .288-.773l.183-.275M36.676 25.492l.419-.026c2.004-.17 4.165-1.297 4.806-3.313l.066-.21M11.752 23.475l.223-.104c1.087-.485 2.016-1.415 2.278-2.606l.04-.25M11.752 23.475l-.092.027M3.855 19.35v.183c-.053 1.912 1.571 3.419 3.274 4.008l.367.118M5.086 19.468l.223-.131c2.33-1.284 5.579-.917 7.582.838l.197.197M14.672 29.264l-.17.197-.183.196c-1.912 1.846-4.859 2.357-7.4 1.833l-.51-.117-.511-.158c-2.135-.68-4.178-2.278-4.767-4.531l-.053-.262-.039-.249" stroke="#000" stroke-linecap="round" stroke-linejoin="round"/><path d="m2.808 18.119-.301.314c-.616.773-1.009 1.546-1.14 2.528v.223M24.744 8.375l-.053-.262-.065-.249-.105-.248-.118-.236M17.267 6.62l-.131.157a2.818 2.818 0 0 0-.524 1.18l-.026.222M47.532 22.375v-.091M47.1 23.056h.13c.092-.052.184-.117.223-.222v-.066M47.14 18.63l.078.013.066.04.052.052.026.065M46.983 18.29l-.014-.08-.039-.065-.052-.065-.066-.053-.078-.026-.066-.04H46.498M41.272 17.333l-.184-.17-.196-.157-.406-.301-.432-.275-.446-.25M42.45 25.597l-.039.223-.052.222c-.354 1.467-1.493 2.633-2.816 3.287l-.406.197-.419.157c-2.37.838-5.186.537-7.32-.812l-.368-.249-.353-.275M27.638 40.396l.222-.223c.459-.497.708-.93.878-1.571l.052-.301M25.896 41.824l.223-.092a4.89 4.89 0 0 0 1.27-.72l.184-.158M22.792 41.6l.393.053c.76.092 1.65.04 2.383-.157l.38-.118M20.737 41.339l.236.131c.445.236 1.009.406 1.493.524l.262.052M18.785 38.85l.17.315c.34.602.93 1.166 1.507 1.532l.314.184M18.43 37.633v.21c-.025.431.08.864.223 1.256l.079.197M20.737 41.339l.04-.458M27.638 40.396l-.066.458M16.401 12.946l.079.21.105.196.104.183.131.184M10.102 21.34l.366.105a6.986 6.986 0 0 1 2.043 1.035l.302.249M5.491 21.537l.092-.026M18.732 8.113l.197.144.21.131.209.118.223.105-.027.327.328.118.34.079.34.052.341.026.053-.314h.262l.248-.026.262-.026.25-.053M22.099 9.07l.262-.092.261-.105.236-.144.236-.144.052-.328.157-.144.17-.157.132-.157.13-.183M24.233 5.651l.066.157.052.17.04.158.026.17M23.84 5.743l-.052.327M23.343 4.905l.196.17.197.196.157.21.157.21M22.4 4.014l.261.118.236.13.249.145.223.17M22.216 4.302l-.04.328M20.828 4.341l.026-.327M19.689 3.805l.288-.066.288-.04.288-.012h.301M4.602 21.066l.026.157.039.17.105.301.13.302.158.288M17.698 5.14l.144-.21.158-.183.17-.183.196-.144M26.407 28.976l.328.157.314.184.288.209.275.236M22.962 28.557l.367-.066.38-.026.38-.013.379.013M20.277 30.168l.197-.262.222-.236.25-.21.261-.196M24.442 28.74l-.013.249M28.11 33.77l.118-.223.092-.236.078-.236.04-.249M27.14 34.568l.236-.183.236-.197.21-.222.183-.236M24.102 35.301l.34.014.354-.014.353-.026.354-.052M21.154 34.11l.275.21.262.183.288.183.302.144M47.598 21.93v-.065l-.013-.053M47.69 21.707l.039.014h.026l.013.026" stroke="#000" stroke-linecap="round" stroke-linejoin="round"/><path d="m47.597 21.93.065-.013.066-.04.026-.039.013-.039M47.532 22.375l.066-.013.052-.052.04-.053M25.203 12.186l.04.013.039.04M29.288 34.738l-.04.21-.04.223c-.562 1.872-2.474 2.868-4.32 2.999l-.42.026h-.432c-2.096-.092-4.388-1.257-5.095-3.34l-.052-.21-.04-.209M32.602 26.317v.131M16.678 8.676h-.053l-.026.027-.013.026M18.825 34.437l-.04-.249-.012-.235v-.25l.013-.248M13.219 15.8v-.025M17.068 12.186l.013-.026.027-.013.052-.013M9.683 27.666v.131h-.34c-3.3.04-7.112-1.794-7.91-5.251l-.053-.341M18.419 30.81l-.053.013-.026.013-.013.039M13.507 27.496v.131h.393c1.833.026 3.955 1.126 4.387 3.038l.04.197" stroke="#000" stroke-linecap="round" stroke-linejoin="round"/><path d="m18.158 32.172-.053-.223c-.563-1.82-2.58-2.803-4.387-2.829h-.354M27.979 28.766l.052-.183c.629-1.755 2.449-2.698 4.23-2.855l.367-.026M35.26 21.629l.014.025M37.29 25.48l.275-.04c3.68-.524 6.169-4.034 3.51-7.269l-.197-.196M30.69 28.321l.3.236c1.441 1.035 3.17 1.545 4.938 1.571h.367M16.493 9.816l-.026.471M23.684 10.17l.117-.132c.197-.288.393-.654.433-1.008v-.183M10.023 29.29h-.471M17.096 8.65l.052.249c.118.51.432.956.812 1.323l.197.17M2.297 22.113l.078.367c.93 3.68 5.658 5.239 9.037 4.256l.354-.104M13.297 26.894h.484c2.266.052 4.846 1.362 5.383 3.732l.04.249M28.739 30.024l-.04-.04h-.039M31.122 20.581l-.027.249c-.078 2.659 2.803 4.243 5.16 4.204h.25M19.48 34.24l.039.197.04.197c.55 1.899 2.618 2.946 4.478 3.025h.76c1.61-.131 3.392-1.087 3.771-2.777l.04-.196.026-.197" stroke="#000" stroke-linecap="round" stroke-linejoin="round"/><path d="m42.149 23.711-.236.301c-1.152 1.35-2.986 2.083-4.727 2.227l-.38.026M28.737 29.29l.027-.157c.34-1.61 1.977-2.527 3.51-2.672h.327M41.035 19.167v.183c-.314 1.873-2.147 2.92-3.915 3.09l-.367.027M36.099 27.797l.458-.039" stroke="#000" stroke-linecap="round" stroke-linejoin="round"/><circle cx="18.642" cy="35.59" r=".196" fill="#000"/><path d="M13.364 29.145v-.025M36.74 26.265l-.013-.118M18.418 30.81l-.04-.197c-.445-1.965-2.592-3.052-4.465-3.104h-.406M9.682 27.666H8.74c-2.645-.13-5.579-1.519-6.784-3.981l-.104-.21-.092-.222a4.633 4.633 0 0 1 .707-4.65l.157-.196.157-.17M18.64 35.59l.119-1.572M13.219 15.8l.34-.025c1.834-.158 3.772-1.454 3.628-3.47v-.158M24.743 8.375l-.013-.026h-.026l-.053-.013M16.676 8.676v-.275c-.052-.51.13-1.1.432-1.506l.157-.21M24.39 7.498l.092.196.079.21.065.21.027.222M9.552 28.858v.432M1.053 26.147l.039.262c1.283 5.448 9.718 6.889 13.358 3.038l.184-.196M25.203 12.252l.04.196c.484 1.925 2.593 3 4.452 3.039h.393M47.36 18.8l-.012-.013-.026-.013-.04-.013M39.845 16.351l.38.223.353.235.34.275.328.275M18.38 8.65l-.25-.222c-.196-.21-.392-.42-.51-.695l-.079-.157M46 23.502v.012l-.026.013M46.628 18.001l.092.026.078.053.066.078.026.04.013.052M23.972 6.882l.052-.327M24.011 6.332l-.04-.157-.025-.144-.053-.144-.052-.144M12.066 26.907l.013.039M47.152 18.669l.053.013.052.026.026.053M47.1 23.056v-.013M22.177 4.63l-.327-.118-.34-.092-.341-.052-.34-.027M11.817 26.789v-.053l.014-.065.052-.04.065-.026M6.355 17.255l.066-.027M10.573 17.071l.315.105c1.453.51 2.815 1.61 3.208 3.156l.066.328M19.832 4.106l-.039.34-.301.092-.301.118-.288.144-.131.092-.131.091M47.69 21.707l-.013.04-.014.039-.078.026M19.284 30.901v-.013l-.026-.013h-.053M6.447 16.18l-.013-.052-.026-.052" stroke="#000" stroke-linecap="round" stroke-linejoin="round"/><path d="M6.526 16.05v.118h-.078c-1.258.55-2.305 1.519-2.554 2.92l-.04.262M11.673 23.54l-.013-.038M10.705 16.01l.026-.118M10.614 15.997l-.013-.117" stroke="#000" stroke-linecap="round" stroke-linejoin="round"/><path d="m10.363 14.989.433.105.419.13c5.906 1.991 5.54 8.526-.76 9.482l-.34.04H9.76l-.354.026c-2.514-.013-5.251-1.231-6.325-3.628l-.131-.327-.092-.34c-.51-1.978.616-3.838 2.357-4.768l.367-.196.38-.17.393-.132M17.58 7.249l-.065-.157-.053-.157-.052-.17-.026-.17M28.28 31.49l-.078-.183a3.3 3.3 0 0 0-.707-.982l-.144-.131M46.982 18.29l-.013-.027h-.026l-.04-.013M45.856 17.988l-.026.026M26.236 29.46l-.223-.091c-.432-.197-.89-.288-1.362-.354h-.222M18.038 7.655l.131-.131c1.297-1.323 3.955-1.074 5.055.419l.105.157M45.161 17.53l-.04-.014-.025.014M45.043 17.176l.013.026M18.05 12.12l.066.014.013.013.013.013M41.98 21.943l.065-.354.04-.366v-.354l-.027-.353M23.016 29.068l-.223.039c-.471.13-.799.249-1.218.485l-.183.117M41.272 17.333l-.026.026M17.855 10.654v-.066c0-.091.092-.157.184-.183h.105M23.683 10.17l-.118.183-.091.497" stroke="#000" stroke-linecap="round" stroke-linejoin="round"/><path d="m18.313 11.073-.026-.498-.066-.091-.078-.079M42.11 23.593l-.236.302c-1.179 1.375-2.973 2.095-4.754 2.226l-.38.026M24.403 7.118l-.04.262-.065.236-.091.248-.118.223M36.689 25.532l-.013-.04M32.602 26.317l-.34.027c-1.573.13-3.288 1.1-3.59 2.763l-.026.157M28.646 29.303l-.013.157v.354l.026.17M42.057 20.516l-.065-.315a4.221 4.221 0 0 0-.838-1.742l-.21-.248M32.629 25.702v-.04M30.1 15.46l.014.04M27.9 30.102l-.065.013-.013.027-.026.026M19.623 32.473l-.065-.013-.066-.04-.065-.091-.027-.066h.053l.013.013.013.026M17.934 10.693l-.013-.026-.026-.013h-.04M13.297 26.893v-.026M11.975 26.946l-.092-.04c-.104-.052-.157-.117-.144-.235v-.04M11.948 26.605h-.104l-.092.014M17.985 11.1l.04-.04.026-.013.091-.026.08.013.09.039M12.237 26.92l.315-.144c1.388-.655 2.593-1.925 2.842-3.484l.039-.327M14.267 16.993l.275-.066c1.833-.406 3.549-1.755 3.627-3.758v-.197M18.314 11.073l.3.183.302.158c1.048.471 2.292.563 3.379.157l.314-.131.301-.157c.393-.158.577-.655.878-.42l.04.04.025.052M41.167 19.088l.144.21c.275.432.485.903.576 1.414l.04.249M20.33 32.852l.17-.222c1.86-2.096 5.972-1.637 7.321.825l.118.249M36.491 25.02l.367-.025c1.794-.184 3.628-1.245 3.942-3.144v-.196M18.784 38.85l-.039.446M22.793 41.601l-.066.445M25.896 41.824l.04-.459M35.876 22.454l-.42-.066c-1.977-.314-4.125-1.872-4.007-4.073v-.222" stroke="#000" stroke-linecap="round" stroke-linejoin="round"/><path d="m36.61 15.002.315.04c3.326.431 5.801 4.098 2.501 6.495l-.262.157M39.137 21.707l-.183.105-.184.092c-2.514 1.14-6.39.118-7.163-2.777l-.04-.17-.026-.17c-.21-2.423 2.187-3.824 4.387-3.824h.341l.34.039" stroke="#000" stroke-linecap="round" stroke-linejoin="round"/><path d="M34.448 15.775h-.052c-3.34 1.31-2.54 4.872.563 5.801l.249.079M38.116 21.524l.197-.079c3.09-1.362 2.305-4.74-.694-5.697l-.302-.091M37.226 15.788v-.118M37.29 15.67l-.025.118" stroke="#000" stroke-linecap="round" stroke-linejoin="round"/><path d="m34.423 15.906-.013-.053-.013-.052M34.448 15.775l.013.13M34.423 15.906l-.197.078c-.903.38-1.715 1.14-1.885 2.148l-.026.21M36.976 18.328l.288-2.54M2.296 20.987l-.026.288-.013.275.013.288.026.275M36.976 18.328l.222.066c.956.288 1.873.93 2.344 1.82l.092.197M45.057 17.202l.039.013.026.013.013.027M15.63 20.555l-.027.275-.053.262c-.589 2.514-3.208 3.837-5.618 3.968H9.12c-2.658-.105-5.579-1.572-6.417-4.256l-.066-.262-.052-.275M27.324 35.04l-.197.13c-.38.223-.89.42-1.322.524l-.223.053" stroke="#000" stroke-linecap="round" stroke-linejoin="round"/><path d="m11.752 23.475.026.013.013.027M24.05 35.825l-.249-.026a6.07 6.07 0 0 1-1.453-.367l-.223-.104M46.524 17.987l-.026-.025M20.894 34.529l-.157-.157c-.34-.34-.55-.616-.746-1.061l-.079-.197M34.422 15.906l-.25 2.54h.027M34.42 15.906h.04M19.938 32.84l-.066-.158-.039-.157-.04-.157-.025-.183M46.956 18.656l.026-.013.04-.013M47.153 18.669l-.013-.04M7.588 23.672l.013.025M32.392 27.941v.013M7.496 23.659l-.025.025" stroke="#000" stroke-linecap="round" stroke-linejoin="round"/><path d="m32.563 19.612.157-.196a3.342 3.342 0 0 1 1.218-.865l.235-.105M47.1 23.043l.104-.026.105-.04.079-.052.039-.039.026-.052M47.467 22.244h.04l.012.027.013.013M40.159 19.22v-.158c.117-1.559-1.205-2.75-2.593-3.183l-.289-.091M32.38 27.941h-.275a5.936 5.936 0 0 0-1.572.42l-.249.117M30.218 28.517l-.235.145-.236.157M45.973 23.528l-.053.026-.013-.131.066.013.013.013.013.026M42.149 23.711v-.065l-.04-.053M36.361 30.115l.511-.039c2.436-.236 4.99-1.676 5.527-4.23l.04-.249M24.128 12.776l.04.248c.55 2.41 3.234 3.72 5.526 3.707h.314M27.781 29.146l-.039.157-.026.157-.053.328-.013.157v.157" stroke="#000" stroke-linecap="round" stroke-linejoin="round"/></g><defs><clipPath id="a"><path fill="#fff" d="M0 0h48v48H0z"/></clipPath></defs></svg>