<svg xmlns="http://www.w3.org/2000/svg" width="73" height="60" viewBox="0 0 73 60" fill="none">
  <path d="M38.4321 58.325L38.788 58.9011" stroke="#C7E7DC" stroke-linecap="round" stroke-linejoin="round"/>
  <path d="M33.9749 59.2397L34.1274 58.5789" stroke="#C7E7DC" stroke-linecap="round" stroke-linejoin="round"/>
  <path d="M38.7876 58.901L39.1265 58.7654C39.8212 58.4943 40.4652 58.1384 41.0413 57.6809L41.3124 57.4268" stroke="#C7E7DC" stroke-linecap="round" stroke-linejoin="round"/>
  <path d="M34.0764 58.5619L34.6695 58.6466C35.8217 58.7991 37.1604 58.6974 38.2788 58.3924L38.8549 58.2061" stroke="#C7E7DC" stroke-linecap="round" stroke-linejoin="round"/>
  <path d="M30.9587 58.1721L31.3146 58.3585C31.9924 58.7143 32.8396 58.9855 33.5852 59.1549L33.9919 59.2396" stroke="#C7E7DC" stroke-linecap="round" stroke-linejoin="round"/>
  <path d="M30.9587 58.1723L31.0096 57.4775" stroke="#C7E7DC" stroke-linecap="round" stroke-linejoin="round"/>
  <path d="M41.4477 56.7322L41.3291 57.4269" stroke="#C7E7DC" stroke-linecap="round" stroke-linejoin="round"/>
  <path d="M34.0765 58.5618L33.9749 59.2396" stroke="#C7E7DC" stroke-linecap="round" stroke-linejoin="round"/>
  <path d="M38.7876 58.9009L38.8554 58.2231" stroke="#C7E7DC" stroke-linecap="round" stroke-linejoin="round"/>
  <path d="M1.01709 33.5173L1.06792 35.0593" stroke="#C7E7DC" stroke-linecap="round" stroke-linejoin="round"/>
  <path d="M1.57627 29.1292L1.52544 27.5703L1.01709 33.518" stroke="#C7E7DC" stroke-linecap="round" stroke-linejoin="round"/>
  <path d="M3.3725 24.384L2.96582 27.2816" stroke="#C7E7DC" stroke-linecap="round" stroke-linejoin="round"/>
  <path d="M6.42261 26.7227L6.47344 27.3835" stroke="#C7E7DC" stroke-linecap="round" stroke-linejoin="round"/>
  <path d="M9.11694 21.6052L9.26945 19.9785" stroke="#C7E7DC" stroke-linecap="round" stroke-linejoin="round"/>
  <path d="M9.38786 19.9612L9.23535 21.571" stroke="#C7E7DC" stroke-linecap="round" stroke-linejoin="round"/>
  <path d="M9.42149 18.3345L9.40454 18.4192" stroke="#C7E7DC" stroke-linecap="round" stroke-linejoin="round"/>
  <path d="M9.57481 19.4536L9.55786 19.5383" stroke="#C7E7DC" stroke-linecap="round" stroke-linejoin="round"/>
  <path d="M8.37162 24.384L7.948 28.078" stroke="#C7E7DC" stroke-linecap="round" stroke-linejoin="round"/>
  <path d="M7.81201 28.112L8.26952 24.418" stroke="#C7E7DC" stroke-linecap="round" stroke-linejoin="round"/>
  <path d="M9.55705 19.5381L9.40454 18.4197" stroke="#C7E7DC" stroke-linecap="round" stroke-linejoin="round"/>
  <path d="M9.57487 19.4528L9.42236 18.3345" stroke="#C7E7DC" stroke-linecap="round" stroke-linejoin="round"/>
  <path d="M15.4209 21.3171L15.5903 19.7073" stroke="#C7E7DC" stroke-linecap="round" stroke-linejoin="round"/>
  <path d="M15.2341 24.0454L14.8274 27.8242" stroke="#C7E7DC" stroke-linecap="round" stroke-linejoin="round"/>
  <path d="M15.0308 18.3179V18.4026" stroke="#C7E7DC" stroke-linecap="round" stroke-linejoin="round"/>
  <path d="M15.1661 19.2332L15.1492 19.3179" stroke="#C7E7DC" stroke-linecap="round" stroke-linejoin="round"/>
  <path d="M15.3524 19.2158L15.3354 19.3006" stroke="#C7E7DC" stroke-linecap="round" stroke-linejoin="round"/>
  <path d="M14.6919 27.8069L15.1155 24.0112" stroke="#C7E7DC" stroke-linecap="round" stroke-linejoin="round"/>
  <path d="M14.1836 37.6013L13.9802 39.228" stroke="#C7E7DC" stroke-linecap="round" stroke-linejoin="round"/>
  <path d="M15.7252 19.7244L15.5388 21.3341" stroke="#C7E7DC" stroke-linecap="round" stroke-linejoin="round"/>
  <path d="M34.9584 2.3728L34.5178 2.69476" stroke="#C7E7DC" stroke-linecap="round" stroke-linejoin="round"/>
  <path d="M27.4683 8.04925L27.9088 7.72729" stroke="#C7E7DC" stroke-linecap="round" stroke-linejoin="round"/>
  <path d="M34.4661 3.20293L34.9066 2.86401" stroke="#C7E7DC" stroke-linecap="round" stroke-linejoin="round"/>
  <path d="M27.9255 55.0714L28.3492 54.9697" stroke="#C7E7DC" stroke-linecap="round" stroke-linejoin="round"/>
  <path d="M43.1082 53.9702L43.1263 53.9884" stroke="#C7E7DC" stroke-linecap="round" stroke-linejoin="round"/>
  <path d="M17.4197 36.0928H17.4379" stroke="#C7E7DC" stroke-linecap="round" stroke-linejoin="round"/>
  <path d="M17.7427 36.2616V36.1948" stroke="#C7E7DC" stroke-linecap="round" stroke-linejoin="round"/>
  <path d="M15.1494 19.3178L15.0308 18.4028" stroke="#C7E7DC" stroke-linecap="round" stroke-linejoin="round"/>
  <path d="M15.1663 19.2329L15.0308 18.3179" stroke="#C7E7DC" stroke-linecap="round" stroke-linejoin="round"/>
  <path d="M15.2004 18.0808L15.3529 19.2161" stroke="#C7E7DC" stroke-linecap="round" stroke-linejoin="round"/>
  <path d="M19.9954 37.3472L19.7751 39.6178" stroke="#C7E7DC" stroke-linecap="round" stroke-linejoin="round"/>
  <path d="M29.197 8.47314L28.9429 8.91373" stroke="#C7E7DC" stroke-linecap="round" stroke-linejoin="round"/>
  <path d="M33.2126 1.93228L33.4838 1.4917" stroke="#C7E7DC" stroke-linecap="round" stroke-linejoin="round"/>
  <path d="M28.8745 9.42149L29.1626 8.98096" stroke="#C7E7DC" stroke-linecap="round" stroke-linejoin="round"/>
  <path d="M29.2647 44.6506H29.2308L29.1461 44.5998L29.0783 44.5151L29.0444 44.4473" stroke="#C7E7DC" stroke-linecap="round" stroke-linejoin="round"/>
  <path d="M25.4177 14.7766V14.81" stroke="#C7E7DC" stroke-linecap="round" stroke-linejoin="round"/>
  <path d="M25.3842 13.9294L25.2656 15.5392" stroke="#C7E7DC" stroke-linecap="round" stroke-linejoin="round"/>
  <path d="M24.1304 13.9122L24.6387 7.81201" stroke="#C7E7DC" stroke-linecap="round" stroke-linejoin="round"/>
  <path d="M23.1982 26.6042L22.9102 30.2813" stroke="#C7E7DC" stroke-linecap="round" stroke-linejoin="round"/>
  <path d="M24.6561 8.65942L24.5205 10.32" stroke="#C7E7DC" stroke-linecap="round" stroke-linejoin="round"/>
  <path d="M24.333 15.4542L24.3669 15.0645" stroke="#C7E7DC" stroke-linecap="round" stroke-linejoin="round"/>
  <path d="M25.4175 14.7766L25.3836 15.1324L25.0955 16.0983L24.5702 16.9795L23.8416 17.7758L22.9096 18.4367L21.8252 18.9112L20.639 19.2331L19.5376 19.3518" stroke="#C7E7DC" stroke-linecap="round" stroke-linejoin="round"/>
  <path d="M26.1632 6.42261L26.0955 6.93094" stroke="#C7E7DC" stroke-linecap="round" stroke-linejoin="round"/>
  <path d="M25.8076 5.01611L25.4348 7.60869" stroke="#C7E7DC" stroke-linecap="round" stroke-linejoin="round"/>
  <path d="M25.8253 5.0332L25.7576 5.52462" stroke="#C7E7DC" stroke-linecap="round" stroke-linejoin="round"/>
  <path d="M26.3329 3.21997L26.2651 3.72835" stroke="#C7E7DC" stroke-linecap="round" stroke-linejoin="round"/>
  <path d="M27.4685 8.04956L27.3838 8.54098" stroke="#C7E7DC" stroke-linecap="round" stroke-linejoin="round"/>
  <path d="M29.688 45.7009L30.1624 45.6162" stroke="#C7E7DC" stroke-linecap="round" stroke-linejoin="round"/>
  <path d="M42.4644 42.8035L42.9049 42.7188" stroke="#C7E7DC" stroke-linecap="round" stroke-linejoin="round"/>
  <path d="M30.1793 45.1929L29.7388 45.2776" stroke="#C7E7DC" stroke-linecap="round" stroke-linejoin="round"/>
  <path d="M42.6843 44.9048L43.1757 44.9556" stroke="#C7E7DC" stroke-linecap="round" stroke-linejoin="round"/>
  <path d="M29.4509 43.4641L29.9254 43.5149" stroke="#C7E7DC" stroke-linecap="round" stroke-linejoin="round"/>
  <path d="M43.1936 44.5318L42.7361 44.481" stroke="#C7E7DC" stroke-linecap="round" stroke-linejoin="round"/>
  <path d="M30.196 41.6172L30.6197 41.8205" stroke="#C7E7DC" stroke-linecap="round" stroke-linejoin="round"/>
  <path d="M41.9895 46.616L42.3962 46.8023" stroke="#C7E7DC" stroke-linecap="round" stroke-linejoin="round"/>
  <path d="M30.6709 41.3799L30.2473 41.2104" stroke="#C7E7DC" stroke-linecap="round" stroke-linejoin="round"/>
  <path d="M26.689 11.6248H26.7072" stroke="#C7E7DC" stroke-linecap="round" stroke-linejoin="round"/>
  <path d="M25.384 13.9294L25.4179 14.7767" stroke="#C7E7DC" stroke-linecap="round" stroke-linejoin="round"/>
  <path d="M24.6559 8.65926L24.6389 7.81201" stroke="#C7E7DC" stroke-linecap="round" stroke-linejoin="round"/>
  <path d="M27.0615 14.4377L27.0785 15.1155" stroke="#C7E7DC" stroke-linecap="round" stroke-linejoin="round"/>
  <path d="M25.4348 7.6084V8.5404" stroke="#C7E7DC" stroke-linecap="round" stroke-linejoin="round"/>
  <path d="M28.9423 8.91309L28.8745 9.42141" stroke="#C7E7DC" stroke-linecap="round" stroke-linejoin="round"/>
  <path d="M29.3831 1.18652L29.2983 1.66098" stroke="#C7E7DC" stroke-linecap="round" stroke-linejoin="round"/>
  <path d="M48.651 37.8213H48.6328" stroke="#C7E7DC" stroke-linecap="round" stroke-linejoin="round"/>
  <path d="M19.7754 39.6519L14.6919 39.8721" stroke="#C7E7DC" stroke-linecap="round" stroke-linejoin="round"/>
  <path d="M13.9802 39.8721L19.7754 39.6179" stroke="#C7E7DC" stroke-linecap="round" stroke-linejoin="round"/>
  <path d="M19.7751 39.6519L20.9444 39.6858L22.2491 39.923L23.503 40.3466L24.6384 40.9736L25.6042 41.7361L26.3328 42.6511L26.8412 43.6339L27.0954 44.549" stroke="#C7E7DC" stroke-linecap="round" stroke-linejoin="round"/>
  <path d="M40.6177 48.2937L40.9396 48.5987" stroke="#C7E7DC" stroke-linecap="round" stroke-linejoin="round"/>
  <path d="M31.6709 39.8379L31.9929 40.109" stroke="#C7E7DC" stroke-linecap="round" stroke-linejoin="round"/>
  <path d="M40.9899 48.1748L40.668 47.8867" stroke="#C7E7DC" stroke-linecap="round" stroke-linejoin="round"/>
  <path d="M28.7564 42.3289L28.5022 41.2952L27.9939 40.1768L27.2314 39.1602L26.2655 38.2451L25.1302 37.4826L23.8424 36.8726L22.436 36.449L20.9787 36.2287L19.657 36.1948" stroke="#C7E7DC" stroke-linecap="round" stroke-linejoin="round"/>
  <path d="M27.0781 44.5488L27.7729 49.4459" stroke="#C7E7DC" stroke-linecap="round" stroke-linejoin="round"/>
  <path d="M27.9594 47.0568L27.2986 42.2783" stroke="#C7E7DC" stroke-linecap="round" stroke-linejoin="round"/>
  <path d="M27.4341 42.1765L28.0102 46.2094" stroke="#C7E7DC" stroke-linecap="round" stroke-linejoin="round"/>
  <path d="M28.9253 44.3964L28.6372 42.2783" stroke="#C7E7DC" stroke-linecap="round" stroke-linejoin="round"/>
  <path d="M29.0447 44.4636L28.7566 42.3455" stroke="#C7E7DC" stroke-linecap="round" stroke-linejoin="round"/>
  <path d="M25.164 15.9118L24.4692 11.0146L24.4862 11.0824" stroke="#C7E7DC" stroke-linecap="round" stroke-linejoin="round"/>
  <path d="M26.689 11.6429V11.6248" stroke="#C7E7DC" stroke-linecap="round" stroke-linejoin="round"/>
  <path d="M27.0107 13.8787L27.0616 14.4379" stroke="#C7E7DC" stroke-linecap="round" stroke-linejoin="round"/>
  <path d="M27.5195 51.8181L27.7398 49.2424" stroke="#C7E7DC" stroke-linecap="round" stroke-linejoin="round"/>
  <path d="M27.0781 44.5489L27.2984 42.2783" stroke="#C7E7DC" stroke-linecap="round" stroke-linejoin="round"/>
  <path d="M29.3828 43.8881L29.4336 43.5322" stroke="#C7E7DC" stroke-linecap="round" stroke-linejoin="round"/>
  <path d="M31.2812 9.42188L31.2134 9.93025" stroke="#C7E7DC" stroke-linecap="round" stroke-linejoin="round"/>
  <path d="M29.552 27.4512L29.6028 27.2817" stroke="#C7E7DC" stroke-linecap="round" stroke-linejoin="round"/>
  <path d="M48.6494 37.8554L54.2751 37.6182" stroke="#C7E7DC" stroke-linecap="round" stroke-linejoin="round"/>
  <path d="M48.6328 37.8218L54.9702 37.5676" stroke="#C7E7DC" stroke-linecap="round" stroke-linejoin="round"/>
  <path d="M19.9951 37.3472L14.166 37.6013" stroke="#C7E7DC" stroke-linecap="round" stroke-linejoin="round"/>
  <path d="M14.1836 37.4151L19.9788 37.1609" stroke="#C7E7DC" stroke-linecap="round" stroke-linejoin="round"/>
  <path d="M55.2578 35.2969L48.9712 35.551" stroke="#C7E7DC" stroke-linecap="round" stroke-linejoin="round"/>
  <path d="M48.9712 35.3649L55.2578 35.0938" stroke="#C7E7DC" stroke-linecap="round" stroke-linejoin="round"/>
  <path d="M17.8094 36.2622H17.6739L17.5552 36.2113L17.4536 36.1436L17.4197 36.0928" stroke="#C7E7DC" stroke-linecap="round" stroke-linejoin="round"/>
  <path d="M25.3837 13.9293L24.655 8.65942" stroke="#C7E7DC" stroke-linecap="round" stroke-linejoin="round"/>
  <path d="M24.791 8.57446L25.5196 13.8444" stroke="#C7E7DC" stroke-linecap="round" stroke-linejoin="round"/>
  <path d="M26.8919 13.8104L26.5869 11.5906" stroke="#C7E7DC" stroke-linecap="round" stroke-linejoin="round"/>
  <path d="M26.7056 11.6587L27.0106 13.8785" stroke="#C7E7DC" stroke-linecap="round" stroke-linejoin="round"/>
  <path d="M31.1968 9.40479L31.2137 9.93007" stroke="#C7E7DC" stroke-linecap="round" stroke-linejoin="round"/>
  <path d="M31.1284 1V1.49142" stroke="#C7E7DC" stroke-linecap="round" stroke-linejoin="round"/>
  <path d="M31.2811 9.42141L31.2642 8.91309" stroke="#C7E7DC" stroke-linecap="round" stroke-linejoin="round"/>
  <path d="M31.9924 40.1094L31.9585 40.533" stroke="#C7E7DC" stroke-linecap="round" stroke-linejoin="round"/>
  <path d="M34.9581 2.3728L34.9072 2.86422" stroke="#C7E7DC" stroke-linecap="round" stroke-linejoin="round"/>
  <path d="M33.0432 9.2356L33.0093 9.74392" stroke="#C7E7DC" stroke-linecap="round" stroke-linejoin="round"/>
  <path d="M30.1788 45.1929L30.1619 45.6165" stroke="#C7E7DC" stroke-linecap="round" stroke-linejoin="round"/>
  <path d="M32.9412 24.469V24.2996" stroke="#C7E7DC" stroke-linecap="round" stroke-linejoin="round"/>
  <path d="M30.6707 41.3799L30.6199 41.8204" stroke="#C7E7DC" stroke-linecap="round" stroke-linejoin="round"/>
  <path d="M35.0596 8.30347L35.0088 8.82876" stroke="#C7E7DC" stroke-linecap="round" stroke-linejoin="round"/>
  <path d="M29.688 45.7011L29.7388 45.2605" stroke="#C7E7DC" stroke-linecap="round" stroke-linejoin="round"/>
  <path d="M29.3833 43.8879L29.0444 46.2264" stroke="#C7E7DC" stroke-linecap="round" stroke-linejoin="round"/>
  <path d="M29.4506 43.4641L29.3828 43.8877" stroke="#C7E7DC" stroke-linecap="round" stroke-linejoin="round"/>
  <path d="M30.196 41.6171L30.2469 41.2104" stroke="#C7E7DC" stroke-linecap="round" stroke-linejoin="round"/>
  <path d="M36.2287 14.0645L36.0762 14.81" stroke="#C7E7DC" stroke-linecap="round" stroke-linejoin="round"/>
  <path d="M71.7285 28.7056L71.5591 28.7394" stroke="#C7E7DC" stroke-linecap="round" stroke-linejoin="round"/>
  <path d="M71.7112 28.5354L71.4231 28.5693" stroke="#C7E7DC" stroke-linecap="round" stroke-linejoin="round"/>
  <path d="M49.0058 34.3647L47.6163 34.5172L46.176 34.907L44.8712 35.5001L43.7189 36.2626L42.8209 37.2115L42.1431 38.279" stroke="#C7E7DC" stroke-linecap="round" stroke-linejoin="round"/>
  <path d="M19.6733 36.2458L17.8093 36.3306" stroke="#C7E7DC" stroke-linecap="round" stroke-linejoin="round"/>
  <path d="M17.8093 36.2626L19.6563 36.1948" stroke="#C7E7DC" stroke-linecap="round" stroke-linejoin="round"/>
  <path d="M55.1729 34.1616L49.0049 34.4327" stroke="#C7E7DC" stroke-linecap="round" stroke-linejoin="round"/>
  <path d="M55.1559 34.1106L49.0049 34.3648" stroke="#C7E7DC" stroke-linecap="round" stroke-linejoin="round"/>
  <path d="M69.0852 31.7722L63.4255 32.0095" stroke="#C7E7DC" stroke-linecap="round" stroke-linejoin="round"/>
  <path d="M63.4084 31.976L69.085 31.7388" stroke="#C7E7DC" stroke-linecap="round" stroke-linejoin="round"/>
  <path d="M34.2637 39.1602L34.4162 39.5329" stroke="#C7E7DC" stroke-linecap="round" stroke-linejoin="round"/>
  <path d="M38.177 48.8867L38.3295 49.2425" stroke="#C7E7DC" stroke-linecap="round" stroke-linejoin="round"/>
  <path d="M34.4659 39.1093L34.3303 38.7534" stroke="#C7E7DC" stroke-linecap="round" stroke-linejoin="round"/>
  <path d="M36.5336 5.89722L36.5166 6.21917" stroke="#C7E7DC" stroke-linecap="round" stroke-linejoin="round"/>
  <path d="M35.8562 6.30435L35.8731 5.86377" stroke="#C7E7DC" stroke-linecap="round" stroke-linejoin="round"/>
  <path d="M33.2975 48.2937L33.2805 48.7004" stroke="#C7E7DC" stroke-linecap="round" stroke-linejoin="round"/>
  <path d="M36.0764 7.20239L36.0425 7.69381" stroke="#C7E7DC" stroke-linecap="round" stroke-linejoin="round"/>
  <path d="M36.5845 5.38916L36.5337 5.89754" stroke="#C7E7DC" stroke-linecap="round" stroke-linejoin="round"/>
  <path d="M36.5169 6.21948L36.2966 8.82897" stroke="#C7E7DC" stroke-linecap="round" stroke-linejoin="round"/>
  <path d="M33.0435 49.0391L33.0773 48.6155" stroke="#C7E7DC" stroke-linecap="round" stroke-linejoin="round"/>
  <path d="M34.4666 39.1091L34.4158 39.5328" stroke="#C7E7DC" stroke-linecap="round" stroke-linejoin="round"/>
  <path d="M34.2637 39.1601L34.3314 38.7534" stroke="#C7E7DC" stroke-linecap="round" stroke-linejoin="round"/>
  <path d="M31.2646 47.429L31.1968 47.8357" stroke="#C7E7DC" stroke-linecap="round" stroke-linejoin="round"/>
  <path d="M35.5344 27.197L35.5683 27.0276" stroke="#C7E7DC" stroke-linecap="round" stroke-linejoin="round"/>
  <path d="M63.4084 31.2297L69.1697 30.9756" stroke="#C7E7DC" stroke-linecap="round" stroke-linejoin="round"/>
  <path d="M69.9661 30.4509L70.9828 30.417" stroke="#C7E7DC" stroke-linecap="round" stroke-linejoin="round"/>
  <path d="M69.9832 30.4339L70.9829 30.3831" stroke="#C7E7DC" stroke-linecap="round" stroke-linejoin="round"/>
  <path d="M71.0507 29.8069L70.0679 29.8577" stroke="#C7E7DC" stroke-linecap="round" stroke-linejoin="round"/>
  <path d="M70 29.6712L71.0506 29.6204" stroke="#C7E7DC" stroke-linecap="round" stroke-linejoin="round"/>
  <path d="M17.1993 31.1453L11.0144 31.3825" stroke="#C7E7DC" stroke-linecap="round" stroke-linejoin="round"/>
  <path d="M17.1826 31.0945L10.9807 31.3486" stroke="#C7E7DC" stroke-linecap="round" stroke-linejoin="round"/>
  <path d="M63.4763 31.3996L69.1868 31.1624" stroke="#C7E7DC" stroke-linecap="round" stroke-linejoin="round"/>
  <path d="M34.0598 32.5687L34.2801 32.5518" stroke="#C7E7DC" stroke-linecap="round" stroke-linejoin="round"/>
  <path d="M34.1099 32.3822H34.2624L34.2454 32.2466" stroke="#C7E7DC" stroke-linecap="round" stroke-linejoin="round"/>
  <path d="M37.0593 26.9771L37.0932 27.2312" stroke="#C7E7DC" stroke-linecap="round" stroke-linejoin="round"/>
  <path d="M35.9919 49.4121V49.7849" stroke="#C7E7DC" stroke-linecap="round" stroke-linejoin="round"/>
  <path d="M36.6181 38.6348L36.5842 39.0076" stroke="#C7E7DC" stroke-linecap="round" stroke-linejoin="round"/>
  <path d="M36.0425 49.361L36.0764 49.0051" stroke="#C7E7DC" stroke-linecap="round" stroke-linejoin="round"/>
  <path d="M38.2966 49.6661L38.3305 49.2424" stroke="#C7E7DC" stroke-linecap="round" stroke-linejoin="round"/>
  <path d="M36.5842 39.0081V39.0415" stroke="#C7E7DC" stroke-linecap="round" stroke-linejoin="round"/>
  <path d="M36.0428 49.3608L35.9919 49.7845" stroke="#C7E7DC" stroke-linecap="round" stroke-linejoin="round"/>
  <path d="M36.0767 49.0051L35.9919 49.4118" stroke="#C7E7DC" stroke-linecap="round" stroke-linejoin="round"/>
  <path d="M57.2232 28.061L53.0039 28.2475" stroke="#C7E7DC" stroke-linecap="round" stroke-linejoin="round"/>
  <path d="M7.948 28.0783L14.6921 27.8071" stroke="#C7E7DC" stroke-linecap="round" stroke-linejoin="round"/>
  <path d="M37.5506 30.5182L37.3811 29.332" stroke="#C7E7DC" stroke-linecap="round" stroke-linejoin="round"/>
  <path d="M35.7031 12.0312L36.0759 14.8102" stroke="#C7E7DC" stroke-linecap="round" stroke-linejoin="round"/>
  <path d="M36.229 14.065L35.8562 11.269" stroke="#C7E7DC" stroke-linecap="round" stroke-linejoin="round"/>
  <path d="M35.9919 11.1838L36.3647 13.9967" stroke="#C7E7DC" stroke-linecap="round" stroke-linejoin="round"/>
  <path d="M37.7366 13.9289L36.9062 8.06592" stroke="#C7E7DC" stroke-linecap="round" stroke-linejoin="round"/>
  <path d="M43.1087 40.9901L43.0579 40.2106L43.1087 39.8887" stroke="#C7E7DC" stroke-linecap="round" stroke-linejoin="round"/>
  <path d="M41.3977 40.5837L41.3638 40.9904" stroke="#C7E7DC" stroke-linecap="round" stroke-linejoin="round"/>
  <path d="M41.0586 40.8206L41.0078 41.2442" stroke="#C7E7DC" stroke-linecap="round" stroke-linejoin="round"/>
  <path d="M40.9903 48.1748L40.9395 48.5984" stroke="#C7E7DC" stroke-linecap="round" stroke-linejoin="round"/>
  <path d="M39.3465 39.7024L39.2957 40.126" stroke="#C7E7DC" stroke-linecap="round" stroke-linejoin="round"/>
  <path d="M45.0403 20.8427L45.1928 20.0972" stroke="#C7E7DC" stroke-linecap="round" stroke-linejoin="round"/>
  <path d="M70.1019 22.7236L69.0513 22.7575" stroke="#C7E7DC" stroke-linecap="round" stroke-linejoin="round"/>
  <path d="M70.0675 22.6726L69.0847 22.7234" stroke="#C7E7DC" stroke-linecap="round" stroke-linejoin="round"/>
  <path d="M53.004 28.2474L52.9539 28.2307" stroke="#C7E7DC" stroke-linecap="round" stroke-linejoin="round"/>
  <path d="M29.2983 1.66138L29.5186 2.1528" stroke="#C7E7DC" stroke-linecap="round" stroke-linejoin="round"/>
  <path d="M32.8232 8.76099L33.0435 9.23544" stroke="#C7E7DC" stroke-linecap="round" stroke-linejoin="round"/>
  <path d="M29.5862 1.64402L29.3828 1.18652" stroke="#C7E7DC" stroke-linecap="round" stroke-linejoin="round"/>
  <path d="M37.0251 8.13379L37.8555 13.9967" stroke="#C7E7DC" stroke-linecap="round" stroke-linejoin="round"/>
  <path d="M41.6675 41.1934L41.7014 41.3459" stroke="#C7E7DC" stroke-linecap="round" stroke-linejoin="round"/>
  <path d="M41.8213 41.126L41.8891 41.5157" stroke="#C7E7DC" stroke-linecap="round" stroke-linejoin="round"/>
  <path d="M43.6166 45.5486L42.9727 40.9226" stroke="#C7E7DC" stroke-linecap="round" stroke-linejoin="round"/>
  <path d="M43.1082 40.99L43.8198 46.1413" stroke="#C7E7DC" stroke-linecap="round" stroke-linejoin="round"/>
  <path d="M43.1764 44.9551L43.1594 45.0567" stroke="#C7E7DC" stroke-linecap="round" stroke-linejoin="round"/>
  <path d="M42.363 47.2261L42.3969 46.8025" stroke="#C7E7DC" stroke-linecap="round" stroke-linejoin="round"/>
  <path d="M43.1935 44.5317L43.1765 44.9554" stroke="#C7E7DC" stroke-linecap="round" stroke-linejoin="round"/>
  <path d="M43.1588 45.0569L42.9385 47.7681" stroke="#C7E7DC" stroke-linecap="round" stroke-linejoin="round"/>
  <path d="M42.6506 45.2435L42.6845 44.9046L42.7354 44.481" stroke="#C7E7DC" stroke-linecap="round" stroke-linejoin="round"/>
  <path d="M43.1082 39.8898V39.8716" stroke="#C7E7DC" stroke-linecap="round" stroke-linejoin="round"/>
  <path d="M42.4645 42.803L42.3967 43.2266" stroke="#C7E7DC" stroke-linecap="round" stroke-linejoin="round"/>
  <path d="M40.6685 47.8867L40.6177 48.2934" stroke="#C7E7DC" stroke-linecap="round" stroke-linejoin="round"/>
  <path d="M41.6675 39.6515L41.8369 39.0415" stroke="#C7E7DC" stroke-linecap="round" stroke-linejoin="round"/>
  <path d="M41.6511 41.295L41.6681 41.1934" stroke="#C7E7DC" stroke-linecap="round" stroke-linejoin="round"/>
  <path d="M42.1429 38.2791L41.8379 39.0755" stroke="#C7E7DC" stroke-linecap="round" stroke-linejoin="round"/>
  <path d="M33.2974 48.2937L33.0771 48.6157" stroke="#C7E7DC" stroke-linecap="round" stroke-linejoin="round"/>
  <path d="M39.3474 39.7025L39.5677 39.3975" stroke="#C7E7DC" stroke-linecap="round" stroke-linejoin="round"/>
  <path d="M33.0435 49.0391L33.2807 48.7002" stroke="#C7E7DC" stroke-linecap="round" stroke-linejoin="round"/>
  <path d="M62.0869 21.7749L67.8651 21.5376" stroke="#C7E7DC" stroke-linecap="round" stroke-linejoin="round"/>
  <path d="M67.848 21.4866L62.1206 21.7238" stroke="#C7E7DC" stroke-linecap="round" stroke-linejoin="round"/>
  <path d="M45.0403 20.8429L48.1751 20.7073" stroke="#C7E7DC" stroke-linecap="round" stroke-linejoin="round"/>
  <path d="M70.7622 23.74H71.0503" stroke="#C7E7DC" stroke-linecap="round" stroke-linejoin="round"/>
  <path d="M71.0505 23.6897H70.8472" stroke="#C7E7DC" stroke-linecap="round" stroke-linejoin="round"/>
  <path d="M47.2426 22.876L46.7173 26.6547" stroke="#C7E7DC" stroke-linecap="round" stroke-linejoin="round"/>
  <path d="M43.1941 53.5638L43.9397 48.1414" stroke="#C7E7DC" stroke-linecap="round" stroke-linejoin="round"/>
  <path d="M43.1257 41.0073L43.1935 40.8548L43.7358 40.0414L44.4813 39.3128L45.3964 38.7027L46.4469 38.2452L47.5823 37.9571L48.6498 37.8555" stroke="#C7E7DC" stroke-linecap="round" stroke-linejoin="round"/>
  <path d="M31.2642 47.4293L31.6031 47.1921" stroke="#C7E7DC" stroke-linecap="round" stroke-linejoin="round"/>
  <path d="M41.397 40.5837L41.0581 40.8209" stroke="#C7E7DC" stroke-linecap="round" stroke-linejoin="round"/>
  <path d="M41.0078 41.2442L41.3637 40.99" stroke="#C7E7DC" stroke-linecap="round" stroke-linejoin="round"/>
  <path d="M71.6265 29.4169L71.7112 29.3999" stroke="#C7E7DC" stroke-linecap="round" stroke-linejoin="round"/>
  <path d="M45.1582 18.8772H45.1764" stroke="#C7E7DC" stroke-linecap="round" stroke-linejoin="round"/>
  <path d="M19.5376 19.3516H19.5558" stroke="#C7E7DC" stroke-linecap="round" stroke-linejoin="round"/>
  <path d="M48.8694 19.9448L45.1924 20.0973" stroke="#C7E7DC" stroke-linecap="round" stroke-linejoin="round"/>
  <path d="M15.4203 21.3171L9.23535 21.5713" stroke="#C7E7DC" stroke-linecap="round" stroke-linejoin="round"/>
  <path d="M45.1924 19.9109L49.1236 19.7415" stroke="#C7E7DC" stroke-linecap="round" stroke-linejoin="round"/>
  <path d="M56.0037 19.3855L51.7844 19.555" stroke="#C7E7DC" stroke-linecap="round" stroke-linejoin="round"/>
  <path d="M51.7844 19.3684L56.0037 19.199" stroke="#C7E7DC" stroke-linecap="round" stroke-linejoin="round"/>
  <path d="M45.1582 18.877L50.9873 18.6567" stroke="#C7E7DC" stroke-linecap="round" stroke-linejoin="round"/>
  <path d="M15.59 19.7073L9.38818 19.9614" stroke="#C7E7DC" stroke-linecap="round" stroke-linejoin="round"/>
  <path d="M18.8601 19.4365L19.5549 19.4026" stroke="#C7E7DC" stroke-linecap="round" stroke-linejoin="round"/>
  <path d="M19.5384 19.3516L18.7759 19.3854" stroke="#C7E7DC" stroke-linecap="round" stroke-linejoin="round"/>
  <path d="M9.38818 19.7754L15.5731 19.5212" stroke="#C7E7DC" stroke-linecap="round" stroke-linejoin="round"/>
  <path d="M15.3356 19.3008L15.1492 19.3177" stroke="#C7E7DC" stroke-linecap="round" stroke-linejoin="round"/>
  <path d="M15.3531 19.2158L15.1667 19.2328" stroke="#C7E7DC" stroke-linecap="round" stroke-linejoin="round"/>
  <path d="M45.1582 18.9445L50.8686 18.7073" stroke="#C7E7DC" stroke-linecap="round" stroke-linejoin="round"/>
  <path d="M45.1585 18.8767L43.9893 18.8598L42.6676 18.6225L41.4137 18.182L40.2953 17.555L39.3464 16.7925L38.5839 15.8944L38.0755 14.8947L37.8552 13.9966" stroke="#C7E7DC" stroke-linecap="round" stroke-linejoin="round"/>
  <path d="M45.1582 18.9448H45.1916" stroke="#C7E7DC" stroke-linecap="round" stroke-linejoin="round"/>
  <path d="M51.3948 23.4181L51.7845 19.5547" stroke="#C7E7DC" stroke-linecap="round" stroke-linejoin="round"/>
  <path d="M48.6494 37.8216L48.9714 35.551" stroke="#C7E7DC" stroke-linecap="round" stroke-linejoin="round"/>
  <path d="M15.0813 18.0808H15.1999" stroke="#C7E7DC" stroke-linecap="round" stroke-linejoin="round"/>
  <path d="M34.5342 8.43921L35.0086 8.82891" stroke="#C7E7DC" stroke-linecap="round" stroke-linejoin="round"/>
  <path d="M56.0033 19.3855L55.5627 23.232" stroke="#C7E7DC" stroke-linecap="round" stroke-linejoin="round"/>
  <path d="M24.333 15.4539L24.5363 15.437" stroke="#C7E7DC" stroke-linecap="round" stroke-linejoin="round"/>
  <path d="M27.3496 2.11865L27.8071 2.47448" stroke="#C7E7DC" stroke-linecap="round" stroke-linejoin="round"/>
  <path d="M35.0597 8.30358L34.6191 7.94775" stroke="#C7E7DC" stroke-linecap="round" stroke-linejoin="round"/>
  <path d="M54.9702 37.5675L55.2583 35.2969" stroke="#C7E7DC" stroke-linecap="round" stroke-linejoin="round"/>
  <path d="M71.7112 29.4L71.7959 29.3322L71.8467 29.2136L71.8637 29.1797" stroke="#C7E7DC" stroke-linecap="round" stroke-linejoin="round"/>
  <path d="M26.2651 3.72827L26.8582 3.96547" stroke="#C7E7DC" stroke-linecap="round" stroke-linejoin="round"/>
  <path d="M35.5007 6.96484L36.0769 7.20205" stroke="#C7E7DC" stroke-linecap="round" stroke-linejoin="round"/>
  <path d="M26.9091 3.45722L26.333 3.21997" stroke="#C7E7DC" stroke-linecap="round" stroke-linejoin="round"/>
  <path d="M61.7819 24.52L61.46 28.2988" stroke="#C7E7DC" stroke-linecap="round" stroke-linejoin="round"/>
  <path d="M70 29.6707L69.1189 30.5009" stroke="#C7E7DC" stroke-linecap="round" stroke-linejoin="round"/>
  <path d="M70.0676 29.8572L69.2373 30.6028" stroke="#C7E7DC" stroke-linecap="round" stroke-linejoin="round"/>
  <path d="M69.3052 31.0606L69.983 30.4336" stroke="#C7E7DC" stroke-linecap="round" stroke-linejoin="round"/>
  <path d="M69.3052 31.0774L69.966 30.4504" stroke="#C7E7DC" stroke-linecap="round" stroke-linejoin="round"/>
  <path d="M35.8728 5.86377L36.5337 5.89769" stroke="#C7E7DC" stroke-linecap="round" stroke-linejoin="round"/>
  <path d="M25.8254 5.0332L26.4693 5.05016" stroke="#C7E7DC" stroke-linecap="round" stroke-linejoin="round"/>
  <path d="M36.5846 5.38885L35.9407 5.35498" stroke="#C7E7DC" stroke-linecap="round" stroke-linejoin="round"/>
  <path d="M67.9324 22.0117L69.0507 22.7573" stroke="#C7E7DC" stroke-linecap="round" stroke-linejoin="round"/>
  <path d="M69.085 22.7234L68.0344 22.0117" stroke="#C7E7DC" stroke-linecap="round" stroke-linejoin="round"/>
  <path d="M63.9172 34.2632L64.2392 31.9756" stroke="#C7E7DC" stroke-linecap="round" stroke-linejoin="round"/>
  <path d="M26.0955 6.93095L26.7055 6.79541" stroke="#C7E7DC" stroke-linecap="round" stroke-linejoin="round"/>
  <path d="M35.6689 4.1348L36.262 3.99927" stroke="#C7E7DC" stroke-linecap="round" stroke-linejoin="round"/>
  <path d="M26.7564 6.28711L26.1633 6.4227" stroke="#C7E7DC" stroke-linecap="round" stroke-linejoin="round"/>
  <path d="M69.9661 30.4503L69.983 30.4333L70.0677 29.8572" stroke="#C7E7DC" stroke-linecap="round" stroke-linejoin="round"/>
  <path d="M69.1864 31.1624L69.0847 31.7554" stroke="#C7E7DC" stroke-linecap="round" stroke-linejoin="round"/>
  <path d="M69.2034 31.6706L69.305 31.0945" stroke="#C7E7DC" stroke-linecap="round" stroke-linejoin="round"/>
  <path d="M69.1697 30.9759L69.1189 30.5015" stroke="#C7E7DC" stroke-linecap="round" stroke-linejoin="round"/>
  <path d="M69.2373 30.6028L69.3051 31.0434" stroke="#C7E7DC" stroke-linecap="round" stroke-linejoin="round"/>
  <path d="M68.0511 22.0121L68.0002 21.6055" stroke="#C7E7DC" stroke-linecap="round" stroke-linejoin="round"/>
  <path d="M67.9325 22.0121L67.8647 21.5376" stroke="#C7E7DC" stroke-linecap="round" stroke-linejoin="round"/>
  <path d="M72 28.5007V28.4338" stroke="#C7E7DC" stroke-linecap="round" stroke-linejoin="round"/>
  <path d="M70.9832 30.383L71.0509 29.8069" stroke="#C7E7DC" stroke-linecap="round" stroke-linejoin="round"/>
  <path d="M71.5425 29.9931L71.6272 29.3831" stroke="#C7E7DC" stroke-linecap="round" stroke-linejoin="round"/>
  <path d="M71.8645 29.1797H71.8827" stroke="#C7E7DC" stroke-linecap="round" stroke-linejoin="round"/>
  <path d="M71.7281 28.7056L71.6265 29.2478" stroke="#C7E7DC" stroke-linecap="round" stroke-linejoin="round"/>
  <path d="M72.0001 28.502L71.8645 29.1797" stroke="#C7E7DC" stroke-linecap="round" stroke-linejoin="round"/>
  <path d="M71.4231 28.5696L71.5248 29.1965" stroke="#C7E7DC" stroke-linecap="round" stroke-linejoin="round"/>
  <path d="M70.7627 23.7402L70.678 23.1133" stroke="#C7E7DC" stroke-linecap="round" stroke-linejoin="round"/>
  <path d="M71.6269 29.2475L71.5591 28.7222" stroke="#C7E7DC" stroke-linecap="round" stroke-linejoin="round"/>
  <path d="M70.8642 23.6726L70.7964 23.1812" stroke="#C7E7DC" stroke-linecap="round" stroke-linejoin="round"/>
  <path d="M71.8639 28.3663L71.2539 23.8928" stroke="#C7E7DC" stroke-linecap="round" stroke-linejoin="round"/>
  <path d="M71.3728 23.9609L71.9998 28.4344" stroke="#C7E7DC" stroke-linecap="round" stroke-linejoin="round"/>
  <path d="M35.7031 12.0316L35.8556 11.269" stroke="#C7E7DC" stroke-linecap="round" stroke-linejoin="round"/>
  <path d="M17.742 36.1949L17.6742 35.9915L17.6064 35.8052" stroke="#C7E7DC" stroke-linecap="round" stroke-linejoin="round"/>
  <path d="M15.0986 18.0299L15.0478 18.0129H14.98" stroke="#C7E7DC" stroke-linecap="round" stroke-linejoin="round"/>
  <path d="M15.217 18.0468L15.1662 18.0299L15.0984 18.0129" stroke="#C7E7DC" stroke-linecap="round" stroke-linejoin="round"/>
  <path d="M9.64236 18.1992L9.52374 18.2331L9.38818 18.284" stroke="#C7E7DC" stroke-linecap="round" stroke-linejoin="round"/>
  <path d="M9.38742 18.2668V18.2836H9.354" stroke="#C7E7DC" stroke-linecap="round" stroke-linejoin="round"/>
  <path d="M9.40544 18.4197L9.16821 18.5044" stroke="#C7E7DC" stroke-linecap="round" stroke-linejoin="round"/>
  <path d="M7.82944 28.1123L7.30415 28.3326L7.04997 28.4343L6.81274 28.5529" stroke="#C7E7DC" stroke-linecap="round" stroke-linejoin="round"/>
  <path d="M1.08496 35.0596V35.093" stroke="#C7E7DC" stroke-linecap="round" stroke-linejoin="round"/>
  <path d="M1.01695 33.5684L1 33.9412V34.3309L1.01695 34.7206L1.06778 35.0934" stroke="#C7E7DC" stroke-linecap="round" stroke-linejoin="round"/>
  <path d="M1.03404 33.4331L1.01709 33.5009V33.5686" stroke="#C7E7DC" stroke-linecap="round" stroke-linejoin="round"/>
  <path d="M21.0123 27.3665L20.9953 27.0785L20.9614 26.8074" stroke="#C7E7DC" stroke-linecap="round" stroke-linejoin="round"/>
  <path d="M19.6733 28.1969V27.8241L19.6563 27.6207L19.6394 27.4343" stroke="#C7E7DC" stroke-linecap="round" stroke-linejoin="round"/>
  <path d="M19.7073 28.1797L19.7412 27.9594L19.7751 27.7391V27.5189V27.2986V27.0614L19.7412 26.8411" stroke="#C7E7DC" stroke-linecap="round" stroke-linejoin="round"/>
  <path d="M19.6394 28.4171L19.6563 28.3154L19.6733 28.1968" stroke="#C7E7DC" stroke-linecap="round" stroke-linejoin="round"/>
  <path d="M6.47324 26.7227L6.4563 26.9429" stroke="#C7E7DC" stroke-linecap="round" stroke-linejoin="round"/>
  <path d="M17.6572 36.2964L17.725 36.3133H17.8097" stroke="#C7E7DC" stroke-linecap="round" stroke-linejoin="round"/>
  <path d="M17.7927 36.3306H17.8109" stroke="#C7E7DC" stroke-linecap="round" stroke-linejoin="round"/>
  <path d="M10.8794 31.3826H10.9472H10.998" stroke="#C7E7DC" stroke-linecap="round" stroke-linejoin="round"/>
  <path d="M10.8286 31.3652L10.8453 31.382H10.8954" stroke="#C7E7DC" stroke-linecap="round" stroke-linejoin="round"/>
  <path d="M10.9978 31.3826H11.016" stroke="#C7E7DC" stroke-linecap="round" stroke-linejoin="round"/>
  <path d="M17.1997 31.1282H17.2505L17.2844 31.1113H17.3014" stroke="#C7E7DC" stroke-linecap="round" stroke-linejoin="round"/>
  <path d="M17.3184 31.1112V31.0945H17.3351H17.3518H17.3685" stroke="#C7E7DC" stroke-linecap="round" stroke-linejoin="round"/>
  <path d="M14.8275 27.8241L14.7597 27.8071H14.6919" stroke="#C7E7DC" stroke-linecap="round" stroke-linejoin="round"/>
  <path d="M10.8452 31.3149L10.913 31.3319H10.9808" stroke="#C7E7DC" stroke-linecap="round" stroke-linejoin="round"/>
  <path d="M31.943 40.0413H31.9248" stroke="#C7E7DC" stroke-linecap="round" stroke-linejoin="round"/>
  <path d="M31.3325 47.3618V47.38H31.3507" stroke="#C7E7DC" stroke-linecap="round" stroke-linejoin="round"/>
  <path d="M43.8036 46.1416L43.7189 45.8535L43.6172 45.5654" stroke="#C7E7DC" stroke-linecap="round" stroke-linejoin="round"/>
  <path d="M43.8365 46.2263L43.8196 46.1755V46.1416" stroke="#C7E7DC" stroke-linecap="round" stroke-linejoin="round"/>
  <path d="M43.9219 46.5316L43.8372 46.2097" stroke="#C7E7DC" stroke-linecap="round" stroke-linejoin="round"/>
  <path d="M42.701 42.7689L42.6843 42.7188" stroke="#C7E7DC" stroke-linecap="round" stroke-linejoin="round"/>
  <path d="M41.8892 46.6486V46.6152V46.5818" stroke="#C7E7DC" stroke-linecap="round" stroke-linejoin="round"/>
  <path d="M41.9217 46.6998L41.905 46.6664V46.6497" stroke="#C7E7DC" stroke-linecap="round" stroke-linejoin="round"/>
  <path d="M30.3318 45.2776L30.2301 45.447L30.1284 45.6165" stroke="#C7E7DC" stroke-linecap="round" stroke-linejoin="round"/>
  <path d="M29.0446 46.2263L29.0107 46.5144V46.8024V47.1075L29.0446 47.3955" stroke="#C7E7DC" stroke-linecap="round" stroke-linejoin="round"/>
  <path d="M43.1933 44.5316V44.1249V43.9216L43.1594 43.7183" stroke="#C7E7DC" stroke-linecap="round" stroke-linejoin="round"/>
  <path d="M29.4509 43.4812V43.8879L29.4679 44.0912L29.5018 44.2946" stroke="#C7E7DC" stroke-linecap="round" stroke-linejoin="round"/>
  <path d="M29.4505 43.4641L29.4338 43.5142V43.531" stroke="#C7E7DC" stroke-linecap="round" stroke-linejoin="round"/>
  <path d="M27.0783 44.5486L27.0614 44.3961L27.0444 44.2605" stroke="#C7E7DC" stroke-linecap="round" stroke-linejoin="round"/>
  <path d="M29.9255 43.5151V43.8879L29.9425 44.0743L29.9594 44.2607" stroke="#C7E7DC" stroke-linecap="round" stroke-linejoin="round"/>
  <path d="M42.7352 44.4807V44.1079L42.7182 43.9215L42.6843 43.7351" stroke="#C7E7DC" stroke-linecap="round" stroke-linejoin="round"/>
  <path d="M34.2804 32.2466V32.2633L34.2637 32.2967" stroke="#C7E7DC" stroke-linecap="round" stroke-linejoin="round"/>
  <path d="M3.37305 26.0791L3.38999 26.1299L3.40694 26.1808" stroke="#C7E7DC" stroke-linecap="round" stroke-linejoin="round"/>
  <path d="M23.1985 26.604L23.2324 26.2312V25.8584L23.1985 25.4856L23.1477 25.1128" stroke="#C7E7DC" stroke-linecap="round" stroke-linejoin="round"/>
  <path d="M3.3897 24.4011L3.35581 24.6722L3.33887 24.9603V25.5195L3.35581 25.7906L3.3897 26.0787" stroke="#C7E7DC" stroke-linecap="round" stroke-linejoin="round"/>
  <path d="M27.7047 2.32178L27.688 2.3385L27.6545 2.35522" stroke="#C7E7DC" stroke-linecap="round" stroke-linejoin="round"/>
  <path d="M21.198 26.5534L21.2319 26.2145V25.8756V25.5367L21.198 25.1978" stroke="#C7E7DC" stroke-linecap="round" stroke-linejoin="round"/>
  <path d="M25.7738 5.35498L25.7399 5.37194L25.723 5.42277H25.6891L25.6721 5.45665" stroke="#C7E7DC" stroke-linecap="round" stroke-linejoin="round"/>
  <path d="M27.5701 7.94775V7.96596H27.5883" stroke="#C7E7DC" stroke-linecap="round" stroke-linejoin="round"/>
  <path d="M24.2654 15.2173L24.2823 15.3359L24.3332 15.4545" stroke="#C7E7DC" stroke-linecap="round" stroke-linejoin="round"/>
  <path d="M24.1633 14.7258L24.2142 14.9631L24.265 15.2172" stroke="#C7E7DC" stroke-linecap="round" stroke-linejoin="round"/>
  <path d="M24.1302 13.9124L24.1133 14.1157V14.3021L24.1302 14.5054L24.1472 14.7088" stroke="#C7E7DC" stroke-linecap="round" stroke-linejoin="round"/>
  <path d="M36.5842 5.37217L36.5672 5.18575L36.5503 4.98242" stroke="#C7E7DC" stroke-linecap="round" stroke-linejoin="round"/>
  <path d="M25.8254 5.05029L25.8424 5.23666L25.8593 5.42308" stroke="#C7E7DC" stroke-linecap="round" stroke-linejoin="round"/>
  <path d="M25.7915 5.0332L25.7576 5.27046V5.52462" stroke="#C7E7DC" stroke-linecap="round" stroke-linejoin="round"/>
  <path d="M25.7913 5.01611V5.03432" stroke="#C7E7DC" stroke-linecap="round" stroke-linejoin="round"/>
  <path d="M35.6353 7.01459L35.6687 6.98115L35.6854 6.94775" stroke="#C7E7DC" stroke-linecap="round" stroke-linejoin="round"/>
  <path d="M26.469 5.05029V5.23666L26.4859 5.42308" stroke="#C7E7DC" stroke-linecap="round" stroke-linejoin="round"/>
  <path d="M35.941 5.3551L35.9241 5.18564V4.99927" stroke="#C7E7DC" stroke-linecap="round" stroke-linejoin="round"/>
  <path d="M35.6865 6.948L35.7374 6.7955L35.7882 6.643L35.8221 6.47354L35.856 6.32104" stroke="#C7E7DC" stroke-linecap="round" stroke-linejoin="round"/>
  <path d="M26.469 4.98242V5.04926" stroke="#C7E7DC" stroke-linecap="round" stroke-linejoin="round"/>
  <path d="M15.7758 19.5382L15.6742 19.5212H15.5725" stroke="#C7E7DC" stroke-linecap="round" stroke-linejoin="round"/>
  <path d="M15.7092 19.7413L15.6584 19.7244H15.5906" stroke="#C7E7DC" stroke-linecap="round" stroke-linejoin="round"/>
  <path d="M15.5226 21.3512L15.4717 21.3342H15.4209" stroke="#C7E7DC" stroke-linecap="round" stroke-linejoin="round"/>
  <path d="M34.2637 32.3823L34.2806 32.5517" stroke="#C7E7DC" stroke-linecap="round" stroke-linejoin="round"/>
  <path d="M54.5801 41.126H54.6818" stroke="#C7E7DC" stroke-linecap="round" stroke-linejoin="round"/>
  <path d="M61.9683 24.3844L61.8836 24.2657L61.7988 24.1641" stroke="#C7E7DC" stroke-linecap="round" stroke-linejoin="round"/>
  <path d="M45.4637 38.6519L45.3621 38.7196" stroke="#C7E7DC" stroke-linecap="round" stroke-linejoin="round"/>
  <path d="M63.1373 28.7049L63.1712 28.3321L63.1881 27.9593L63.1712 27.6035L63.1204 27.2307" stroke="#C7E7DC" stroke-linecap="round" stroke-linejoin="round"/>
  <path d="M44.6337 39.1772L44.5151 39.2789L44.3965 39.3806" stroke="#C7E7DC" stroke-linecap="round" stroke-linejoin="round"/>
  <path d="M63.1204 28.9763V28.8577L63.1543 28.7222" stroke="#C7E7DC" stroke-linecap="round" stroke-linejoin="round"/>
  <path d="M44.3969 39.3638L44.2614 39.4824L44.1427 39.601L44.0072 39.7196L43.9055 39.8382" stroke="#C7E7DC" stroke-linecap="round" stroke-linejoin="round"/>
  <path d="M41.7018 39.6689L41.6679 39.9062L41.651 40.1773L41.634 40.4145V40.6857L41.651 40.9398L41.6849 41.194" stroke="#C7E7DC" stroke-linecap="round" stroke-linejoin="round"/>
  <path d="M41.8372 39.0757L41.7525 39.3807L41.7017 39.6688" stroke="#C7E7DC" stroke-linecap="round" stroke-linejoin="round"/>
  <path d="M41.9559 39.0757L41.8881 39.3976L41.8204 39.7366L41.7865 40.0924L41.7695 40.4313L41.7865 40.7702L41.8204 41.1091" stroke="#C7E7DC" stroke-linecap="round" stroke-linejoin="round"/>
  <path d="M43.9049 39.8379L43.7694 40.0074L43.6338 40.1768" stroke="#C7E7DC" stroke-linecap="round" stroke-linejoin="round"/>
  <path d="M43.6341 40.1602L43.4816 40.3974L43.3291 40.6177L43.2105 40.821L43.1257 41.0074" stroke="#C7E7DC" stroke-linecap="round" stroke-linejoin="round"/>
  <path d="M42.9727 39.8379V39.888" stroke="#C7E7DC" stroke-linecap="round" stroke-linejoin="round"/>
  <path d="M71.5085 30.0779L71.5255 30.027L71.5424 29.9932" stroke="#C7E7DC" stroke-linecap="round" stroke-linejoin="round"/>
  <path d="M52.9373 28.2646L52.9711 28.2816H53.022" stroke="#C7E7DC" stroke-linecap="round" stroke-linejoin="round"/>
  <path d="M71.8469 29.1979H71.8651V29.1797" stroke="#C7E7DC" stroke-linecap="round" stroke-linejoin="round"/>
  <path d="M69.3052 31.0936V31.0435" stroke="#C7E7DC" stroke-linecap="round" stroke-linejoin="round"/>
  <path d="M69.0676 31.7554L69.1524 31.7384L69.1693 31.6876L69.1862 31.6707" stroke="#C7E7DC" stroke-linecap="round" stroke-linejoin="round"/>
  <path d="M55.241 35.28H55.3596" stroke="#C7E7DC" stroke-linecap="round" stroke-linejoin="round"/>
  <path d="M55.1736 34.1444L55.6311 34.1275L56.0886 34.0767" stroke="#C7E7DC" stroke-linecap="round" stroke-linejoin="round"/>
  <path d="M53.9365 29.468L54.6143 29.5189H54.9532L55.2921 29.5019" stroke="#C7E7DC" stroke-linecap="round" stroke-linejoin="round"/>
  <path d="M37.7366 13.9294V13.9633V14.0142" stroke="#C7E7DC" stroke-linecap="round" stroke-linejoin="round"/>
  <path d="M70.2546 22.7406L70.1698 22.7236H70.1021" stroke="#C7E7DC" stroke-linecap="round" stroke-linejoin="round"/>
  <path d="M56.0879 19.2159L56.0371 19.199H56.0032" stroke="#C7E7DC" stroke-linecap="round" stroke-linejoin="round"/>
  <path d="M55.6129 23.2322H55.5627" stroke="#C7E7DC" stroke-linecap="round" stroke-linejoin="round"/>
  <path d="M56.0533 19.3855H56.0032" stroke="#C7E7DC" stroke-linecap="round" stroke-linejoin="round"/>
  <path d="M67.9842 21.6052L67.9672 21.5713L67.9334 21.5205L67.8995 21.4866H67.8486" stroke="#C7E7DC" stroke-linecap="round" stroke-linejoin="round"/>
  <path d="M43.9221 46.5483L43.973 46.9381L44.0068 47.3448L43.9899 47.7514L43.9391 48.1412" stroke="#C7E7DC" stroke-linecap="round" stroke-linejoin="round"/>
  <path d="M27.4683 52.5465L27.5191 51.8179" stroke="#C7E7DC" stroke-linecap="round" stroke-linejoin="round"/>
  <path d="M25.8079 5.01605L25.8587 4.67718L25.9604 4.33826L26.0959 4.03327L26.2654 3.72827" stroke="#C7E7DC" stroke-linecap="round" stroke-linejoin="round"/>
  <path d="M57.2739 28.0439L57.562 27.9422C58.8837 27.383 60.0529 26.3325 60.3749 24.8922L60.4257 24.5872" stroke="#C7E7DC" stroke-linecap="round" stroke-linejoin="round"/>
  <path d="M48.5478 23.249V23.4863C48.497 25.74 50.4965 27.5022 52.5129 28.1122L52.9366 28.2308" stroke="#C7E7DC" stroke-linecap="round" stroke-linejoin="round"/>
  <path d="M55.0718 18.1318L55.6987 18.2335C58.6302 18.691 61.8159 20.9616 61.782 24.2151V24.537" stroke="#C7E7DC" stroke-linecap="round" stroke-linejoin="round"/>
  <path d="M47.2424 22.8757L47.2933 22.5707C47.988 19.4359 51.4956 17.9278 54.444 18.0803L55.071 18.1142" stroke="#C7E7DC" stroke-linecap="round" stroke-linejoin="round"/>
  <path d="M31.0437 26.6211L31.0776 26.9261C31.1793 28.3156 31.8571 29.8407 33.4329 29.9423H33.7379" stroke="#C7E7DC" stroke-linecap="round" stroke-linejoin="round"/>
  <path d="M29.6377 26.4006L29.7394 26.1126C30.9933 23.2658 36.1276 23.7064 37.0087 26.6717L37.0596 26.9768" stroke="#C7E7DC" stroke-linecap="round" stroke-linejoin="round"/>
  <path d="M34.1782 31.4669L34.263 31.2128C34.6866 30.0436 35.9744 29.4844 37.1266 29.3488L37.3808 29.3149" stroke="#C7E7DC" stroke-linecap="round" stroke-linejoin="round"/>
  <path d="M23.1476 25.1132L23.0798 24.7743C22.402 21.3853 19.0808 18.9791 15.8952 18.1996L15.2004 18.0471" stroke="#C7E7DC" stroke-linecap="round" stroke-linejoin="round"/>
  <path d="M14.9801 17.9961L14.3192 17.8944C12.9806 17.7249 11.608 17.7758 10.2863 18.03L9.62549 18.1825" stroke="#C7E7DC" stroke-linecap="round" stroke-linejoin="round"/>
  <path d="M9.35398 18.2839L8.81174 18.4534C6.33778 19.3176 4.06716 21.1985 3.47408 23.8419L3.35547 24.3841" stroke="#C7E7DC" stroke-linecap="round" stroke-linejoin="round"/>
  <path d="M29.4338 43.464L29.4847 43.2098C29.5694 42.7862 29.7388 42.3965 29.9252 42.0237L30.1964 41.6001" stroke="#C7E7DC" stroke-linecap="round" stroke-linejoin="round"/>
  <path d="M55.156 34.1106L55.7999 34.0768C58.8331 33.8057 62.1204 32.1112 63.1032 29.0441L63.2049 28.7222" stroke="#C7E7DC" stroke-linecap="round" stroke-linejoin="round"/>
  <path d="M17.3184 31.0606L17.6573 30.8911C19.3179 30.1455 20.7073 28.7391 21.114 26.926L21.1818 26.5532" stroke="#C7E7DC" stroke-linecap="round" stroke-linejoin="round"/>
  <path d="M17.3187 31.0605L17.1831 31.0944" stroke="#C7E7DC" stroke-linecap="round" stroke-linejoin="round"/>
  <path d="M5.33853 24.7737V25.0618C5.27075 27.9594 7.72777 30.2469 10.3034 31.128L10.8456 31.2975" stroke="#C7E7DC" stroke-linecap="round" stroke-linejoin="round"/>
  <path d="M6.4729 26.7225L6.52374 26.4683C8.1674 20.7578 18.2835 21.4695 19.5883 27.163L19.6391 27.4172" stroke="#C7E7DC" stroke-linecap="round" stroke-linejoin="round"/>
  <path d="M7.2019 24.977L7.5408 24.7737C11.0823 22.825 15.9963 23.3842 19.0464 26.0446L19.3345 26.3327" stroke="#C7E7DC" stroke-linecap="round" stroke-linejoin="round"/>
  <path d="M21.7411 39.8384L21.4869 40.1264L21.2158 40.4145C18.3182 43.2104 13.8447 43.9898 9.98125 43.1934L9.20179 43.0071L8.43926 42.7698C5.18583 41.7362 2.10185 39.2961 1.20377 35.8902L1.11905 35.4835L1.05127 35.0938" stroke="#C7E7DC" stroke-linecap="round" stroke-linejoin="round"/>
  <path d="M3.74493 22.927L3.28742 23.4015C2.33851 24.5707 1.76238 25.7568 1.55904 27.231L1.52515 27.553" stroke="#C7E7DC" stroke-linecap="round" stroke-linejoin="round"/>
  <path d="M37.0249 8.13435L36.9572 7.74459L36.8555 7.35484L36.703 6.98205L36.5166 6.62622" stroke="#C7E7DC" stroke-linecap="round" stroke-linejoin="round"/>
  <path d="M25.6726 5.45679L25.4692 5.71095C25.0625 6.23624 24.7914 6.84629 24.6728 7.4902L24.6389 7.82907" stroke="#C7E7DC" stroke-linecap="round" stroke-linejoin="round"/>
  <path d="M71.6265 29.3829V29.2473" stroke="#C7E7DC" stroke-linecap="round" stroke-linejoin="round"/>
  <path d="M70.9832 30.4167L71.1695 30.3827C71.3051 30.3319 71.4576 30.2302 71.5085 30.0777L71.5423 29.9761" stroke="#C7E7DC" stroke-linecap="round" stroke-linejoin="round"/>
  <path d="M71.051 23.6897L71.1527 23.7236L71.2713 23.7744L71.3391 23.8592L71.373 23.9608" stroke="#C7E7DC" stroke-linecap="round" stroke-linejoin="round"/>
  <path d="M70.7965 23.1809L70.7626 23.0624L70.7118 22.9437L70.6271 22.8759L70.5423 22.7912L70.4237 22.7234L70.322 22.6896L70.1865 22.6726H70.0679" stroke="#C7E7DC" stroke-linecap="round" stroke-linejoin="round"/>
  <path d="M62.1211 21.7238L61.85 21.4697L61.545 21.2155L60.935 20.758L60.2911 20.3513L59.6133 19.9785" stroke="#C7E7DC" stroke-linecap="round" stroke-linejoin="round"/>
  <path d="M63.9165 34.2634L63.8657 34.6023L63.781 34.9412C63.2387 37.161 61.5103 38.9402 59.5108 39.923L58.9008 40.2111L58.2739 40.4653C54.6646 41.7362 50.3945 41.2786 47.1749 39.2283L46.6157 38.8386L46.0735 38.4319" stroke="#C7E7DC" stroke-linecap="round" stroke-linejoin="round"/>
  <path d="M41.4478 56.7322L41.7697 56.4102C42.4645 55.6646 42.8372 55.0038 43.1084 54.021L43.1931 53.5635" stroke="#C7E7DC" stroke-linecap="round" stroke-linejoin="round"/>
  <path d="M27.9934 54.377L28.2476 54.8514C28.7729 55.7664 29.654 56.6137 30.5352 57.1898L31.0096 57.4609" stroke="#C7E7DC" stroke-linecap="round" stroke-linejoin="round"/>
  <path d="M27.4681 52.5466V52.8686C27.4172 53.5125 27.5867 54.1734 27.807 54.7834L27.9256 55.0884" stroke="#C7E7DC" stroke-linecap="round" stroke-linejoin="round"/>
  <path d="M24.3672 15.0645L24.5027 15.3864L24.6383 15.6744L24.8078 15.9625L25.0111 16.2506" stroke="#C7E7DC" stroke-linecap="round" stroke-linejoin="round"/>
  <path d="M14.8274 27.8242L15.3866 27.9937C16.5049 28.3665 17.5386 28.8578 18.4875 29.5526L18.945 29.9254" stroke="#C7E7DC" stroke-linecap="round" stroke-linejoin="round"/>
  <path d="M7.81201 28.112L7.94757 28.0781" stroke="#C7E7DC" stroke-linecap="round" stroke-linejoin="round"/>
  <path d="M26.7564 6.28711L26.7056 6.79549L26.875 7.10049L27.0784 7.40548L27.2986 7.69357L27.5698 7.96469" stroke="#C7E7DC" stroke-linecap="round" stroke-linejoin="round"/>
  <path d="M27.9092 7.72729L28.2142 7.94759L28.5192 8.15092L28.8581 8.33734L29.197 8.47288L29.1631 8.98126L29.6545 9.15066L30.1629 9.26929L30.6882 9.35405L31.1965 9.40488L31.2643 8.91346H31.671L32.0607 8.8965L32.4335 8.84567L32.8232 8.76096" stroke="#C7E7DC" stroke-linecap="round" stroke-linejoin="round"/>
  <path d="M33.0271 9.18463L33.4338 9.04904L33.8066 8.87958L34.1794 8.67625L34.5352 8.43905L34.6199 7.94763L34.8572 7.72734L35.1113 7.49013L35.3147 7.23597L35.5011 6.96484" stroke="#C7E7DC" stroke-linecap="round" stroke-linejoin="round"/>
  <path d="M36.2625 3.99927L36.3641 4.23647L36.4319 4.47372L36.4997 4.72789L36.5505 4.98205" stroke="#C7E7DC" stroke-linecap="round" stroke-linejoin="round"/>
  <path d="M35.6699 4.13525L35.5852 4.62667" stroke="#C7E7DC" stroke-linecap="round" stroke-linejoin="round"/>
  <path d="M34.9072 2.86401L35.2122 3.11818L35.5003 3.40626L35.7545 3.72822L35.9917 4.05018" stroke="#C7E7DC" stroke-linecap="round" stroke-linejoin="round"/>
  <path d="M33.4834 1.4917L33.8731 1.67807L34.2459 1.88145L34.6187 2.10169L34.9576 2.37282" stroke="#C7E7DC" stroke-linecap="round" stroke-linejoin="round"/>
  <path d="M33.2128 1.93213L33.145 2.44046" stroke="#C7E7DC" stroke-linecap="round" stroke-linejoin="round"/>
  <path d="M31.1284 1.4917L31.6707 1.54253L32.196 1.62724L32.7212 1.74586L33.2296 1.91532" stroke="#C7E7DC" stroke-linecap="round" stroke-linejoin="round"/>
  <path d="M31.095 2.00003L31.1289 1.4917" stroke="#C7E7DC" stroke-linecap="round" stroke-linejoin="round"/>
  <path d="M29.3828 1.18642L29.8064 1.08476L30.247 1.03392L30.6876 1H31.1281" stroke="#C7E7DC" stroke-linecap="round" stroke-linejoin="round"/>
  <path d="M6.4729 27.3835L6.50679 27.6377L6.55763 27.8919L6.71013 28.3494L6.91347 28.8069L7.1507 29.2305" stroke="#C7E7DC" stroke-linecap="round" stroke-linejoin="round"/>
  <path d="M18.4536 30.4843L18.6908 30.2471C19.1314 29.7049 19.4703 29.1965 19.6398 28.5187L19.7245 28.1968" stroke="#C7E7DC" stroke-linecap="round" stroke-linejoin="round"/>
  <path d="M27.7058 2.3222L28.0786 2.11887L28.4683 1.9325L28.875 1.79691L29.2986 1.66138" stroke="#C7E7DC" stroke-linecap="round" stroke-linejoin="round"/>
  <path d="M27.7734 2.96603L27.8073 2.47461" stroke="#C7E7DC" stroke-linecap="round" stroke-linejoin="round"/>
  <path d="M26.333 3.22006L26.5533 2.89811L26.7905 2.61007L27.0616 2.35591L27.3497 2.11865" stroke="#C7E7DC" stroke-linecap="round" stroke-linejoin="round"/>
  <path d="M26.4856 5.40601L26.5364 5.64326L26.5873 5.8635L26.672 6.06688L26.7567 6.28712" stroke="#C7E7DC" stroke-linecap="round" stroke-linejoin="round"/>
  <path d="M41.3638 40.99L41.7535 41.3797L42.1093 41.7864L42.4313 42.227L42.5669 42.4642L42.6855 42.7184" stroke="#C7E7DC" stroke-linecap="round" stroke-linejoin="round"/>
  <path d="M39.5674 39.3975L40.0588 39.6347L40.5332 39.9228L40.9738 40.2277L41.3974 40.5836" stroke="#C7E7DC" stroke-linecap="round" stroke-linejoin="round"/>
  <path d="M36.5842 39.0415L36.9401 39.0754C37.7026 39.194 38.2957 39.3126 39.0074 39.6007L39.3293 39.7193" stroke="#C7E7DC" stroke-linecap="round" stroke-linejoin="round"/>
  <path d="M34.3303 38.7533L34.9065 38.6686L35.4656 38.6178L36.0418 38.6008L36.6179 38.6348" stroke="#C7E7DC" stroke-linecap="round" stroke-linejoin="round"/>
  <path d="M31.9248 40.0413L32.2129 39.8888L32.5009 39.7532L33.0771 39.516L33.6701 39.3127L34.2632 39.1602" stroke="#C7E7DC" stroke-linecap="round" stroke-linejoin="round"/>
  <path d="M30.2473 41.1935L30.5523 40.8038L30.9082 40.4479L31.264 40.1259L31.6707 39.8379" stroke="#C7E7DC" stroke-linecap="round" stroke-linejoin="round"/>
  <path d="M37.5508 30.5181V30.6875" stroke="#C7E7DC" stroke-linecap="round" stroke-linejoin="round"/>
  <path d="M33.738 29.9593L34.06 29.9254C34.687 29.8577 35.2122 29.3662 35.4325 28.7901L35.5342 28.4851" stroke="#C7E7DC" stroke-linecap="round" stroke-linejoin="round"/>
  <path d="M36.5848 39.0415L36.5679 39.4313" stroke="#C7E7DC" stroke-linecap="round" stroke-linejoin="round"/>
  <path d="M42.9048 42.7358L42.9895 42.9731L43.0742 43.2103L43.1251 43.4645L43.1759 43.7187" stroke="#C7E7DC" stroke-linecap="round" stroke-linejoin="round"/>
  <path d="M42.1431 46.684L42.3295 46.3451L42.465 45.9892L42.5836 45.6164L42.6514 45.2437" stroke="#C7E7DC" stroke-linecap="round" stroke-linejoin="round"/>
  <path d="M40.668 47.8868L41.0408 47.5988L41.3797 47.3107L41.7016 46.9718L41.9897 46.616" stroke="#C7E7DC" stroke-linecap="round" stroke-linejoin="round"/>
  <path d="M38.3301 49.2596L38.9232 49.0901C39.3807 48.9546 39.9399 48.7343 40.3465 48.4632L40.6177 48.2937" stroke="#C7E7DC" stroke-linecap="round" stroke-linejoin="round"/>
  <path d="M36.0762 49.0053L36.5845 49.0223L37.1268 49.0053L37.669 48.9714L38.1773 48.8867" stroke="#C7E7DC" stroke-linecap="round" stroke-linejoin="round"/>
  <path d="M33.2805 48.7002L33.6025 48.8358C34.2125 49.073 35.0089 49.3102 35.6698 49.3611L36.0087 49.3949" stroke="#C7E7DC" stroke-linecap="round" stroke-linejoin="round"/>
  <path d="M31.6025 47.1921L31.9923 47.5141L32.4159 47.8021L32.8565 48.0563L33.314 48.2935" stroke="#C7E7DC" stroke-linecap="round" stroke-linejoin="round"/>
  <path d="M30.1619 45.6162L30.2466 45.8534L30.3822 46.0907L30.5008 46.3279L30.6363 46.5482L30.9752 46.9718L31.3141 47.3615" stroke="#C7E7DC" stroke-linecap="round" stroke-linejoin="round"/>
  <path d="M29.9592 44.2605L29.9931 44.4978L30.044 44.735L30.1795 45.1925" stroke="#C7E7DC" stroke-linecap="round" stroke-linejoin="round"/>
  <path d="M69.0847 31.7384H69.1525L69.1864 31.6876L69.2033 31.6707" stroke="#C7E7DC" stroke-linecap="round" stroke-linejoin="round"/>
  <path d="M71.7281 28.7049V28.6202L71.7112 28.5354" stroke="#C7E7DC" stroke-linecap="round" stroke-linejoin="round"/>
  <path d="M71.8645 28.366L71.9323 28.3829L71.9831 28.3999L72.0001 28.4338" stroke="#C7E7DC" stroke-linecap="round" stroke-linejoin="round"/>
  <path d="M71.7288 28.7053L71.8474 28.6883L71.9321 28.6206L71.966 28.5697L71.9999 28.502" stroke="#C7E7DC" stroke-linecap="round" stroke-linejoin="round"/>
  <path d="M71.6265 29.3831L71.7281 29.3493L71.8129 29.2815L71.8637 29.1968" stroke="#C7E7DC" stroke-linecap="round" stroke-linejoin="round"/>
  <path d="M37.7366 13.9294H37.8044L37.8552 13.9972" stroke="#C7E7DC" stroke-linecap="round" stroke-linejoin="round"/>
  <path d="M43.9386 48.141L43.8877 48.4629L43.8199 48.7849C42.9557 51.6316 40.0751 53.1397 37.2453 53.3431L36.6014 53.3769H35.9405C32.7549 53.2414 29.2812 51.4622 28.1967 48.3104L28.112 47.9885L28.0442 47.6665" stroke="#C7E7DC" stroke-linecap="round" stroke-linejoin="round"/>
  <path d="M48.9712 35.3645V35.5509" stroke="#C7E7DC" stroke-linecap="round" stroke-linejoin="round"/>
  <path d="M24.7906 8.57446L24.7228 8.59142L24.672 8.6253L24.655 8.65922" stroke="#C7E7DC" stroke-linecap="round" stroke-linejoin="round"/>
  <path d="M28.061 47.6839L27.9933 47.3111L27.9763 46.9552V46.5825L27.9933 46.2097" stroke="#C7E7DC" stroke-linecap="round" stroke-linejoin="round"/>
  <path d="M19.5543 19.4017L19.5376 19.3516" stroke="#C7E7DC" stroke-linecap="round" stroke-linejoin="round"/>
  <path d="M25.384 13.9289L25.4179 13.8781L25.4518 13.8611L25.5196 13.8442" stroke="#C7E7DC" stroke-linecap="round" stroke-linejoin="round"/>
  <path d="M14.1839 37.415V37.6014H13.6756C8.65989 37.6522 2.88166 34.8732 1.66163 29.6372L1.5769 29.1289" stroke="#C7E7DC" stroke-linecap="round" stroke-linejoin="round"/>
  <path d="M27.4341 42.1765L27.3494 42.2104L27.3155 42.2273L27.2986 42.2782" stroke="#C7E7DC" stroke-linecap="round" stroke-linejoin="round"/>
  <path d="M19.979 37.1609V37.3473H20.589C23.368 37.3981 26.6045 39.0588 27.2484 41.9563L27.2992 42.2613" stroke="#C7E7DC" stroke-linecap="round" stroke-linejoin="round"/>
  <path d="M27.0445 44.2608L26.9598 43.922C26.0956 41.1599 23.0455 39.6688 20.3174 39.6179H19.7751" stroke="#C7E7DC" stroke-linecap="round" stroke-linejoin="round"/>
  <path d="M41.9558 39.0924L42.0405 38.8212C42.9895 36.1439 45.7684 34.7206 48.4627 34.4833L49.0219 34.4495" stroke="#C7E7DC" stroke-linecap="round" stroke-linejoin="round"/>
  <path d="M53.0039 28.2478L53.0206 28.2812" stroke="#C7E7DC" stroke-linecap="round" stroke-linejoin="round"/>
  <path d="M56.0884 34.0936L56.4951 34.0259C62.0699 33.2295 65.8656 27.9087 61.8158 22.9947L61.5277 22.6897" stroke="#C7E7DC" stroke-linecap="round" stroke-linejoin="round"/>
  <path d="M46.0735 38.4148L46.531 38.7706C48.7169 40.3465 51.3434 41.126 54.0207 41.1429H54.5799" stroke="#C7E7DC" stroke-linecap="round" stroke-linejoin="round"/>
  <path d="M24.5201 10.3198L24.4692 11.0146" stroke="#C7E7DC" stroke-linecap="round" stroke-linejoin="round"/>
  <path d="M45.1928 19.9112H44.4642C41.0921 19.8265 37.2456 17.8778 36.4323 14.3363L36.3645 13.9805" stroke="#C7E7DC" stroke-linecap="round" stroke-linejoin="round"/>
  <path d="M35.4326 10.8454L35.6021 10.6421C35.9071 10.2185 36.1951 9.64237 36.2629 9.11707L36.2968 8.84595" stroke="#C7E7DC" stroke-linecap="round" stroke-linejoin="round"/>
  <path d="M14.6919 39.8716H13.9802" stroke="#C7E7DC" stroke-linecap="round" stroke-linejoin="round"/>
  <path d="M25.4348 8.54028L25.5195 8.93004C25.7059 9.7095 26.1804 10.3873 26.7396 10.9295L27.0276 11.1837" stroke="#C7E7DC" stroke-linecap="round" stroke-linejoin="round"/>
  <path d="M26.8923 13.8103L26.9262 14.1492C27.1295 17.606 24.0455 19.8766 20.8938 20.3341L20.2329 20.4189" stroke="#C7E7DC" stroke-linecap="round" stroke-linejoin="round"/>
  <path d="M63.4084 31.9756V32.009" stroke="#C7E7DC" stroke-linecap="round" stroke-linejoin="round"/>
  <path d="M2.96582 28.9761L3.08443 29.5352C4.49087 35.1271 11.6755 37.4994 16.7929 35.9913L17.3351 35.8218" stroke="#C7E7DC" stroke-linecap="round" stroke-linejoin="round"/>
  <path d="M19.6736 36.2458H20.4022C23.8251 36.3306 27.7563 38.3131 28.5697 41.9055L28.6375 42.2782" stroke="#C7E7DC" stroke-linecap="round" stroke-linejoin="round"/>
  <path d="M43.1082 40.9904L43.0404 40.9396L42.9727 40.9226" stroke="#C7E7DC" stroke-linecap="round" stroke-linejoin="round"/>
  <path d="M29.0444 47.3958L29.0953 47.6838L29.163 47.9719C29.9934 50.8525 33.1451 52.4284 35.9749 52.564H36.551L37.1272 52.5301C39.5842 52.3606 42.2615 50.9034 42.8376 48.3447L42.8885 48.0566L42.9224 47.7685" stroke="#C7E7DC" stroke-linecap="round" stroke-linejoin="round"/>
  <path d="M63.4761 31.3994L63.1203 31.857C61.358 33.9073 58.596 35.0257 55.9526 35.246L55.3765 35.2798" stroke="#C7E7DC" stroke-linecap="round" stroke-linejoin="round"/>
  <path d="M43.1082 39.872L43.142 39.6348C43.6504 37.1947 46.1413 35.7882 48.4797 35.5849L48.9711 35.551" stroke="#C7E7DC" stroke-linecap="round" stroke-linejoin="round"/>
  <path d="M61.7814 24.52L61.7475 24.7911C61.29 27.6379 58.511 29.2138 55.8337 29.4849L55.2915 29.5188" stroke="#C7E7DC" stroke-linecap="round" stroke-linejoin="round"/>
  <path d="M35.5173 28.4679L35.5851 28.112L35.619 27.7562V27.3834L35.5682 27.0276" stroke="#C7E7DC" stroke-linecap="round" stroke-linejoin="round"/>
  <path d="M54.2749 37.6185L54.9866 37.5676" stroke="#C7E7DC" stroke-linecap="round" stroke-linejoin="round"/>
  <path d="M31.0608 26.621V26.2143C31.2133 25.2315 31.7216 24.6215 32.7214 24.5029L32.9247 24.469" stroke="#C7E7DC" stroke-linecap="round" stroke-linejoin="round"/>
  <path d="M19.7751 39.6513V39.6179" stroke="#C7E7DC" stroke-linecap="round" stroke-linejoin="round"/>
  <path d="M55.2579 35.2971L55.241 35.0938" stroke="#C7E7DC" stroke-linecap="round" stroke-linejoin="round"/>
  <path d="M27.4348 42.1766L27.3839 41.8716C26.7061 38.8893 23.4527 37.2287 20.589 37.1609H19.979" stroke="#C7E7DC" stroke-linecap="round" stroke-linejoin="round"/>
  <path d="M14.1829 37.4149H13.4712H12.7595C8.74356 37.2116 4.28704 35.1104 2.45699 31.3656L2.30448 31.0436L2.16892 30.7047C1.20306 28.2985 1.64363 25.6551 3.23645 23.6387L3.47368 23.3506L3.71091 23.0964" stroke="#C7E7DC" stroke-linecap="round" stroke-linejoin="round"/>
  <path d="M27.7734 49.4458L27.9598 47.0566" stroke="#C7E7DC" stroke-linecap="round" stroke-linejoin="round"/>
  <path d="M29.603 26.5703L29.5522 26.7906L29.5183 27.0109V27.2312L29.5522 27.4515" stroke="#C7E7DC" stroke-linecap="round" stroke-linejoin="round"/>
  <path d="M19.5552 19.4022L20.0635 19.3683C22.8594 19.131 25.7909 17.1485 25.5537 14.0984L25.5198 13.8442" stroke="#C7E7DC" stroke-linecap="round" stroke-linejoin="round"/>
  <path d="M37.0249 8.13371L37.0079 8.09979L36.991 8.08288L36.9062 8.06592" stroke="#C7E7DC" stroke-linecap="round" stroke-linejoin="round"/>
  <path d="M37.0939 27.2307V27.5696C36.45 30.9925 30.6379 30.8061 29.6551 27.6035L29.6042 27.2815" stroke="#C7E7DC" stroke-linecap="round" stroke-linejoin="round"/>
  <path d="M24.7909 8.57455L24.757 8.16789C24.7062 7.38842 24.9942 6.50727 25.4518 5.88031L25.7059 5.55835" stroke="#C7E7DC" stroke-linecap="round" stroke-linejoin="round"/>
  <path d="M36.5 6.79541L36.6525 7.08345L36.7542 7.4054L36.8558 7.74432L36.9067 8.06628" stroke="#C7E7DC" stroke-linecap="round" stroke-linejoin="round"/>
  <path d="M13.9802 39.228V39.8719" stroke="#C7E7DC" stroke-linecap="round" stroke-linejoin="round"/>
  <path d="M1.08496 35.0938L1.15274 35.5005C3.10141 43.7865 15.8949 45.9724 21.4359 40.1095L21.707 39.8214" stroke="#C7E7DC" stroke-linecap="round" stroke-linejoin="round"/>
  <path d="M34.2803 32.2465L34.3311 32.0093C34.6531 31.0096 36.1951 30.7723 37.0592 30.7045L37.5337 30.6707" stroke="#C7E7DC" stroke-linecap="round" stroke-linejoin="round"/>
  <path d="M37.7366 14.0139L37.7874 14.3189C38.516 17.2334 41.7186 18.8771 44.5484 18.9449H45.1585" stroke="#C7E7DC" stroke-linecap="round" stroke-linejoin="round"/>
  <path d="M34.1445 31.637L34.1107 31.8742L34.0768 32.1114L34.0598 32.3317V32.5689" stroke="#C7E7DC" stroke-linecap="round" stroke-linejoin="round"/>
  <path d="M71.3725 23.9606L71.3386 23.9267L71.3217 23.9098L71.2539 23.8928" stroke="#C7E7DC" stroke-linecap="round" stroke-linejoin="round"/>
  <path d="M59.9517 20.2327L60.5278 20.5716L61.07 20.9274L61.5953 21.351L62.0867 21.7747" stroke="#C7E7DC" stroke-linecap="round" stroke-linejoin="round"/>
  <path d="M27.3833 8.54052L26.9935 8.2016C26.6885 7.89659 26.4005 7.5577 26.2141 7.15102L26.0955 6.91382" stroke="#C7E7DC" stroke-linecap="round" stroke-linejoin="round"/>
  <path d="M69.0847 31.7731V31.7549" stroke="#C7E7DC" stroke-linecap="round" stroke-linejoin="round"/>
  <path d="M28.9425 8.91377L28.5358 8.74431L28.163 8.54098L27.8072 8.32069L27.4683 8.04956" stroke="#C7E7DC" stroke-linecap="round" stroke-linejoin="round"/>
  <path d="M31.2129 9.93025L30.6198 9.87942L30.0268 9.77776L29.4506 9.64217L28.8745 9.42188" stroke="#C7E7DC" stroke-linecap="round" stroke-linejoin="round"/>
  <path d="M33.043 9.2356L32.6025 9.33726L32.1619 9.38809L31.7213 9.42197H31.2808" stroke="#C7E7DC" stroke-linecap="round" stroke-linejoin="round"/>
  <path d="M69.3049 31.0945V31.1112L69.2715 31.1279" stroke="#C7E7DC" stroke-linecap="round" stroke-linejoin="round"/>
  <path d="M35.0088 8.82886L34.5343 9.11694L34.2971 9.26944L34.0429 9.38807L33.5346 9.5914L33.0093 9.7439" stroke="#C7E7DC" stroke-linecap="round" stroke-linejoin="round"/>
  <path d="M70.2542 22.7236L70.3897 22.7914L70.5253 22.8592L70.61 22.9778L70.6608 23.0456L70.6778 23.1134" stroke="#C7E7DC" stroke-linecap="round" stroke-linejoin="round"/>
  <path d="M36.0763 7.20239L35.856 7.52435L35.6188 7.81244L35.3476 8.0666L35.0596 8.3038" stroke="#C7E7DC" stroke-linecap="round" stroke-linejoin="round"/>
  <path d="M35.8728 5.86331L35.9406 5.35498" stroke="#C7E7DC" stroke-linecap="round" stroke-linejoin="round"/>
  <path d="M69.2375 30.6031V30.5693L69.1867 30.5184L69.1189 30.5015" stroke="#C7E7DC" stroke-linecap="round" stroke-linejoin="round"/>
  <path d="M35.9231 5.01637L35.8723 4.77917L35.8215 4.55888L35.7537 4.33859L35.6689 4.13525" stroke="#C7E7DC" stroke-linecap="round" stroke-linejoin="round"/>
  <path d="M17.8093 36.2629V36.3298" stroke="#C7E7DC" stroke-linecap="round" stroke-linejoin="round"/>
  <path d="M35.5849 4.62637L35.4833 4.42304L35.3647 4.21966L35.1105 3.84692L34.8055 3.52496L34.4666 3.203L34.5174 2.69462L34.2124 2.47433L33.8904 2.271L33.5515 2.08463L33.2126 1.93213" stroke="#C7E7DC" stroke-linecap="round" stroke-linejoin="round"/>
  <path d="M71.6272 29.3831L71.5933 29.4847C71.5085 29.6881 71.4069 29.6881 71.2374 29.7898L71.051 29.8236" stroke="#C7E7DC" stroke-linecap="round" stroke-linejoin="round"/>
  <path d="M71.051 23.74L71.1357 23.7739L71.2035 23.8247L71.2544 23.8925" stroke="#C7E7DC" stroke-linecap="round" stroke-linejoin="round"/>
  <path d="M70.9832 30.4165V30.3831" stroke="#C7E7DC" stroke-linecap="round" stroke-linejoin="round"/>
  <path d="M33.1453 2.44059L32.6539 2.27113L32.1456 2.13559L31.6203 2.05083L31.095 2" stroke="#C7E7DC" stroke-linecap="round" stroke-linejoin="round"/>
  <path d="M17.4197 36.0933V35.9915L17.4536 35.9068L17.5213 35.839L17.6061 35.8052" stroke="#C7E7DC" stroke-linecap="round" stroke-linejoin="round"/>
  <path d="M31.1282 1.4917H30.7554L30.3656 1.52557L29.959 1.5764L29.5862 1.6442" stroke="#C7E7DC" stroke-linecap="round" stroke-linejoin="round"/>
  <path d="M9.11694 21.6054L9.23556 21.5715" stroke="#C7E7DC" stroke-linecap="round" stroke-linejoin="round"/>
  <path d="M15.5388 21.3342L16.0133 21.5037C18.2161 22.2662 20.3003 23.9607 20.8765 26.2991L20.9781 26.7905" stroke="#C7E7DC" stroke-linecap="round" stroke-linejoin="round"/>
  <path d="M29.5865 1.64429L29.5188 2.15267L29.0613 2.2882L28.6037 2.47457L28.1801 2.71183L27.9768 2.83045L27.7734 2.96599" stroke="#C7E7DC" stroke-linecap="round" stroke-linejoin="round"/>
  <path d="M19.7583 26.8416L19.7074 26.5705L19.6397 26.2994C18.8433 23.5035 15.7593 21.9784 13.0142 21.9106H12.455L11.8958 21.9446C9.48964 22.1649 6.9479 23.6391 6.49039 26.1808L6.45649 26.4519L6.42261 26.74" stroke="#C7E7DC" stroke-linecap="round" stroke-linejoin="round"/>
  <path d="M71.8637 28.366L71.8467 28.4169L71.8298 28.4677L71.7112 28.5354" stroke="#C7E7DC" stroke-linecap="round" stroke-linejoin="round"/>
  <path d="M28.7558 42.3292L28.7389 42.2952L28.705 42.2783H28.6372" stroke="#C7E7DC" stroke-linecap="round" stroke-linejoin="round"/>
  <path d="M27.807 2.47461L27.5528 2.67799L27.3156 2.93216L27.0953 3.16936L26.9089 3.45745" stroke="#C7E7DC" stroke-linecap="round" stroke-linejoin="round"/>
  <path d="M9.26909 19.9787L9.25215 19.8939L9.21826 19.8262" stroke="#C7E7DC" stroke-linecap="round" stroke-linejoin="round"/>
  <path d="M9.38798 19.7754V19.9618L9.26936 19.9957C7.35458 20.809 5.7787 22.2832 5.38897 24.3844L5.33813 24.7911" stroke="#C7E7DC" stroke-linecap="round" stroke-linejoin="round"/>
  <path d="M26.9096 3.45703L26.8587 3.96536L26.7232 4.20261L26.6215 4.47374L26.5368 4.7279L26.469 4.98207" stroke="#C7E7DC" stroke-linecap="round" stroke-linejoin="round"/>
  <path d="M17.1998 31.1446L17.1831 31.0945" stroke="#C7E7DC" stroke-linecap="round" stroke-linejoin="round"/>
  <path d="M15.7251 19.7243L15.7759 19.5378" stroke="#C7E7DC" stroke-linecap="round" stroke-linejoin="round"/>
  <path d="M21.1983 25.1974L21.0966 24.7061C20.5036 22.3338 18.4193 20.6562 16.1996 19.8598L15.7251 19.7073" stroke="#C7E7DC" stroke-linecap="round" stroke-linejoin="round"/>
  <path d="M15.5895 19.7076L15.5725 19.5212" stroke="#C7E7DC" stroke-linecap="round" stroke-linejoin="round"/>
  <path d="M15.217 18.1655L15.8778 18.318L16.5217 18.5044C25.4856 21.5206 24.9264 31.4334 15.3695 32.8907L14.8442 32.9415L14.3019 32.9754H13.7597C9.94708 32.9754 5.79556 31.1115 4.16885 27.4852L3.98245 26.9938L3.84689 26.4855C3.08437 23.4862 4.77886 20.6565 7.42228 19.25L7.96452 18.9619L8.54065 18.7078L9.13372 18.5044" stroke="#C7E7DC" stroke-linecap="round" stroke-linejoin="round"/>
  <path d="M26.1635 6.4226L26.0619 6.18534L25.9772 5.93118L25.9094 5.69398L25.8755 5.42285" stroke="#C7E7DC" stroke-linecap="round" stroke-linejoin="round"/>
  <path d="M42.3973 43.2271L42.2956 42.956C42.0584 42.4307 41.6348 41.8545 41.2281 41.4648L41.0078 41.2615" stroke="#C7E7DC" stroke-linecap="round" stroke-linejoin="round"/>
  <path d="M41.0588 40.8208L40.6522 40.4819L40.2455 40.1938L39.8049 39.9396L39.3474 39.7024" stroke="#C7E7DC" stroke-linecap="round" stroke-linejoin="round"/>
  <path d="M70.7966 23.181L70.7797 23.1472L70.7458 23.1302L70.678 23.1133" stroke="#C7E7DC" stroke-linecap="round" stroke-linejoin="round"/>
  <path d="M17.3861 31.0943L17.742 30.9249C23.5372 28.0781 21.9443 21.6729 16.3525 19.7243L15.7764 19.5378" stroke="#C7E7DC" stroke-linecap="round" stroke-linejoin="round"/>
  <path d="M9.38809 19.7754H9.28642C3.08457 22.3849 4.35544 29.129 10.2523 31.1793L10.8115 31.3657" stroke="#C7E7DC" stroke-linecap="round" stroke-linejoin="round"/>
  <path d="M71.5253 29.1968V29.2815C71.4576 29.4848 71.3898 29.5187 71.2203 29.6034L71.0339 29.6373" stroke="#C7E7DC" stroke-linecap="round" stroke-linejoin="round"/>
  <path d="M69.0847 22.7236L69.0513 22.757" stroke="#C7E7DC" stroke-linecap="round" stroke-linejoin="round"/>
  <path d="M39.2954 40.126L38.9565 39.9904C38.3126 39.6854 37.6009 39.5668 36.8892 39.4482L36.5503 39.4143" stroke="#C7E7DC" stroke-linecap="round" stroke-linejoin="round"/>
  <path d="M36.5842 39.008L36.0758 38.9741L35.5336 38.9911L34.9914 39.025L34.4661 39.1097" stroke="#C7E7DC" stroke-linecap="round" stroke-linejoin="round"/>
  <path d="M26.8582 7.03285L27.0445 6.82952C29.0102 4.83002 33.06 5.2028 34.7206 7.45648L34.8901 7.71069" stroke="#C7E7DC" stroke-linecap="round" stroke-linejoin="round"/>
  <path d="M68.034 22.012L67.9832 21.9951L67.9324 22.012" stroke="#C7E7DC" stroke-linecap="round" stroke-linejoin="round"/>
  <path d="M67.8486 21.4866L67.8653 21.5367" stroke="#C7E7DC" stroke-linecap="round" stroke-linejoin="round"/>
  <path d="M26.8923 13.8103L26.9771 13.8273L26.994 13.8442L27.0109 13.8781" stroke="#C7E7DC" stroke-linecap="round" stroke-linejoin="round"/>
  <path d="M63.1882 28.7222L63.3068 28.1799L63.3577 27.6377V27.0954L63.3238 26.5532" stroke="#C7E7DC" stroke-linecap="round" stroke-linejoin="round"/>
  <path d="M34.4162 39.533L34.0942 39.6007C33.3825 39.7871 32.8911 39.9735 32.2472 40.3463L31.9761 40.5157" stroke="#C7E7DC" stroke-linecap="round" stroke-linejoin="round"/>
  <path d="M62.1203 21.7236L62.0869 21.7737" stroke="#C7E7DC" stroke-linecap="round" stroke-linejoin="round"/>
  <path d="M31.9929 40.1094L31.6201 40.3974L31.2642 40.7025L30.9592 41.0244L30.6711 41.3802" stroke="#C7E7DC" stroke-linecap="round" stroke-linejoin="round"/>
  <path d="M26.5869 11.5908V11.4891C26.5869 11.3536 26.7394 11.2519 26.858 11.218H27.0275" stroke="#C7E7DC" stroke-linecap="round" stroke-linejoin="round"/>
  <path d="M35.4333 10.8452L35.2469 11.1333L35.1113 11.8958" stroke="#C7E7DC" stroke-linecap="round" stroke-linejoin="round"/>
  <path d="M27.2651 12.2176L27.2481 11.4551L27.1464 11.3195L27.0278 11.2009" stroke="#C7E7DC" stroke-linecap="round" stroke-linejoin="round"/>
  <path d="M63.4078 31.23L63.052 31.6875C61.2558 33.7718 58.5277 34.8562 55.8335 35.0596L55.2573 35.0934" stroke="#C7E7DC" stroke-linecap="round" stroke-linejoin="round"/>
  <path d="M36.5169 6.21948L36.4661 6.60918L36.3644 6.98197L36.2119 7.35477L36.0425 7.69368" stroke="#C7E7DC" stroke-linecap="round" stroke-linejoin="round"/>
  <path d="M35.4326 10.8452L35.619 10.8622L35.7885 10.913L35.924 11.0147L35.9579 11.0994L35.9918 11.1841L35.8562 11.235V11.2688" stroke="#C7E7DC" stroke-linecap="round" stroke-linejoin="round"/>
  <path d="M36.2288 14.0645L36.2965 14.4203C37.1099 18.0126 41.0242 20.0121 44.464 20.0799H45.1926" stroke="#C7E7DC" stroke-linecap="round" stroke-linejoin="round"/>
  <path d="M36.2288 14.0644L36.2627 14.0305L36.2796 13.9966H36.3643" stroke="#C7E7DC" stroke-linecap="round" stroke-linejoin="round"/>
  <path d="M45.1924 19.9109V20.0973" stroke="#C7E7DC" stroke-linecap="round" stroke-linejoin="round"/>
  <path d="M55.1727 34.1607L55.156 34.1106" stroke="#C7E7DC" stroke-linecap="round" stroke-linejoin="round"/>
  <path d="M48.9712 35.3645L48.4628 35.3984C46.0736 35.6018 43.481 37.076 43.0065 39.5838L42.9727 39.838" stroke="#C7E7DC" stroke-linecap="round" stroke-linejoin="round"/>
  <path d="M42.9724 39.8887L42.9385 40.1428V40.397L42.9554 40.6681L42.9724 40.9223" stroke="#C7E7DC" stroke-linecap="round" stroke-linejoin="round"/>
  <path d="M63.3241 26.5529L63.2225 26.0785C63.0191 25.1126 62.5616 24.2145 61.9516 23.435L61.6296 23.0623" stroke="#C7E7DC" stroke-linecap="round" stroke-linejoin="round"/>
  <path d="M49.0216 34.4316L49.0049 34.3647" stroke="#C7E7DC" stroke-linecap="round" stroke-linejoin="round"/>
  <path d="M45.1582 18.8772L45.1916 18.944" stroke="#C7E7DC" stroke-linecap="round" stroke-linejoin="round"/>
  <path d="M41.82 41.126H41.7353L41.7014 41.1598L41.6675 41.2107" stroke="#C7E7DC" stroke-linecap="round" stroke-linejoin="round"/>
  <path d="M30.6203 41.8206L30.3831 42.2103L30.1797 42.617L30.0272 43.0576L29.9255 43.5151" stroke="#C7E7DC" stroke-linecap="round" stroke-linejoin="round"/>
  <path d="M29.2642 44.7012L29.1625 44.6843L29.0778 44.6165L28.9592 44.4809L28.9253 44.3962H29.01L29.027 44.4132L29.0439 44.4471" stroke="#C7E7DC" stroke-linecap="round" stroke-linejoin="round"/>
  <path d="M26.6886 11.6414V11.6075L26.6378 11.5906H26.5869" stroke="#C7E7DC" stroke-linecap="round" stroke-linejoin="round"/>
  <path d="M19.6737 36.2449L19.657 36.1948" stroke="#C7E7DC" stroke-linecap="round" stroke-linejoin="round"/>
  <path d="M17.657 36.3136L17.5214 36.2627C17.3519 36.178 17.2842 36.0933 17.3011 35.9069L17.335 35.8391" stroke="#C7E7DC" stroke-linecap="round" stroke-linejoin="round"/>
  <path d="M17.6064 35.8052H17.4539L17.3184 35.8221" stroke="#C7E7DC" stroke-linecap="round" stroke-linejoin="round"/>
  <path d="M26.7732 12.2516L26.824 12.2007L26.8918 12.1838L27.0274 12.1499L27.146 12.1668L27.2646 12.2176" stroke="#C7E7DC" stroke-linecap="round" stroke-linejoin="round"/>
  <path d="M26.689 11.6245V11.5398C26.7906 11.3534 27.0279 11.3364 27.1804 11.4212L27.2312 11.4551" stroke="#C7E7DC" stroke-linecap="round" stroke-linejoin="round"/>
  <path d="M18.0464 36.2795L18.5208 36.0592C20.639 35.0595 22.4521 33.1447 22.8418 30.7724L22.9096 30.281" stroke="#C7E7DC" stroke-linecap="round" stroke-linejoin="round"/>
  <path d="M21.1477 21.1986L21.5713 21.0969C24.3503 20.4869 26.9598 18.4196 27.0784 15.3865V15.0984" stroke="#C7E7DC" stroke-linecap="round" stroke-linejoin="round"/>
  <path d="M27.2649 12.2178L27.7224 12.4889L28.1969 12.7431C29.7897 13.4548 31.6706 13.5903 33.3312 12.9803L33.8056 12.777L34.2801 12.5228C34.8732 12.2856 35.1612 11.5231 35.6188 11.8958L35.6696 11.9636L35.7204 12.0483" stroke="#C7E7DC" stroke-linecap="round" stroke-linejoin="round"/>
  <path d="M61.968 24.384L62.1883 24.706C62.595 25.3668 62.9169 26.0785 63.0694 26.841L63.1372 27.2308" stroke="#C7E7DC" stroke-linecap="round" stroke-linejoin="round"/>
  <path d="M27.0611 14.4377V14.7597C26.9256 17.9622 23.9771 20.0126 21.0287 20.4871L20.4187 20.5718" stroke="#C7E7DC" stroke-linecap="round" stroke-linejoin="round"/>
  <path d="M30.3323 45.2772L30.5864 44.9383C33.3993 41.7696 39.6689 42.4474 41.6854 46.1922L41.8718 46.5819" stroke="#C7E7DC" stroke-linecap="round" stroke-linejoin="round"/>
  <path d="M29.552 27.4512L29.6028 27.7731C30.5687 30.9927 36.4825 31.1621 37.0586 27.7392V27.4172" stroke="#C7E7DC" stroke-linecap="round" stroke-linejoin="round"/>
  <path d="M35.2458 11.1332L35.3306 11.0654C35.5 10.9807 35.7373 11.0146 35.822 11.184L35.8559 11.2687" stroke="#C7E7DC" stroke-linecap="round" stroke-linejoin="round"/>
  <path d="M27.9933 54.377L27.9255 55.0717" stroke="#C7E7DC" stroke-linecap="round" stroke-linejoin="round"/>
  <path d="M34.1107 32.3823L34.0598 32.5687" stroke="#C7E7DC" stroke-linecap="round" stroke-linejoin="round"/>
  <path d="M37.551 30.5181L37.0426 30.5519C36.0768 30.6197 34.3992 30.9247 34.2637 32.1278V32.2634" stroke="#C7E7DC" stroke-linecap="round" stroke-linejoin="round"/>
  <path d="M34.1099 32.3821V32.1618V31.9245L34.1438 31.7042L34.1776 31.467" stroke="#C7E7DC" stroke-linecap="round" stroke-linejoin="round"/>
  <path d="M29.6035 27.2818L29.5696 27.0615V26.8412L29.6035 26.6209L29.6374 26.4006" stroke="#C7E7DC" stroke-linecap="round" stroke-linejoin="round"/>
  <path d="M32.9417 24.2996L32.7383 24.3335C31.6878 24.4521 31.1455 25.1807 31.0608 26.1974V26.621" stroke="#C7E7DC" stroke-linecap="round" stroke-linejoin="round"/>
  <path d="M35.5683 27.0276L35.5344 26.7734C35.3141 25.5534 34.5516 24.4181 33.2129 24.3164H32.9587" stroke="#C7E7DC" stroke-linecap="round" stroke-linejoin="round"/>
  <path d="M32.9412 24.469H33.1953C35.0254 24.6554 35.6862 26.6379 35.5676 28.2138L35.4999 28.5527" stroke="#C7E7DC" stroke-linecap="round" stroke-linejoin="round"/>
  <path d="M53.9363 29.4841L53.2924 29.3825C50.2762 28.908 47.0228 26.5527 47.2261 23.1976L47.26 22.8586" stroke="#C7E7DC" stroke-linecap="round" stroke-linejoin="round"/>
  <path d="M57.3254 28.095L57.6134 27.9933C62.3072 25.9091 61.1041 20.7917 56.5628 19.3514L56.0884 19.2158" stroke="#C7E7DC" stroke-linecap="round" stroke-linejoin="round"/>
  <path d="M56.0032 19.3853V19.199" stroke="#C7E7DC" stroke-linecap="round" stroke-linejoin="round"/>
  <path d="M56.0881 19.199L56.0542 19.3853" stroke="#C7E7DC" stroke-linecap="round" stroke-linejoin="round"/>
  <path d="M51.7329 19.555L51.7159 19.4702L51.699 19.3855" stroke="#C7E7DC" stroke-linecap="round" stroke-linejoin="round"/>
  <path d="M51.7844 19.3687V19.5551" stroke="#C7E7DC" stroke-linecap="round" stroke-linejoin="round"/>
  <path d="M51.733 19.5547L51.4449 19.6733C50.0724 20.2494 48.8354 21.4186 48.5812 22.9267L48.5474 23.2487" stroke="#C7E7DC" stroke-linecap="round" stroke-linejoin="round"/>
  <path d="M52.9373 28.2808V28.2307" stroke="#C7E7DC" stroke-linecap="round" stroke-linejoin="round"/>
  <path d="M55.6135 23.232L56.0541 19.3855" stroke="#C7E7DC" stroke-linecap="round" stroke-linejoin="round"/>
  <path d="M2.96636 27.2817L2.91553 27.7054V28.129V28.5526L2.96636 28.9762" stroke="#C7E7DC" stroke-linecap="round" stroke-linejoin="round"/>
  <path d="M42.7016 43.7349L42.6677 43.4977L42.6169 43.2605L42.4644 42.803" stroke="#C7E7DC" stroke-linecap="round" stroke-linejoin="round"/>
  <path d="M67.8647 21.5376L67.9325 21.5546L67.9834 21.5715L68.0003 21.6054" stroke="#C7E7DC" stroke-linecap="round" stroke-linejoin="round"/>
  <path d="M23.1986 26.604L23.1647 27.0107L23.08 27.4004C22.1819 31.23 18.1999 33.2295 14.5398 33.4159H14.1331H13.3028C9.26989 33.2464 4.83031 31.0436 3.55944 26.9599L3.45777 26.5532L3.37305 26.1465" stroke="#C7E7DC" stroke-linecap="round" stroke-linejoin="round"/>
  <path d="M42.3967 46.8025L42.1086 47.1922L41.7528 47.5481L41.38 47.887L40.9902 48.175" stroke="#C7E7DC" stroke-linecap="round" stroke-linejoin="round"/>
  <path d="M40.9392 48.5986L40.6342 48.7851C40.058 49.124 39.2786 49.429 38.6177 49.5815L38.2788 49.6662" stroke="#C7E7DC" stroke-linecap="round" stroke-linejoin="round"/>
  <path d="M43.1598 45.0569L43.1259 45.345C43.0242 45.955 42.8378 46.4464 42.5159 46.9717L42.3464 47.2258" stroke="#C7E7DC" stroke-linecap="round" stroke-linejoin="round"/>
  <path d="M17.3184 31.0605L17.3518 31.0772L17.3685 31.0939" stroke="#C7E7DC" stroke-linecap="round" stroke-linejoin="round"/>
  <path d="M38.33 49.2424L37.7539 49.3272L37.1947 49.378L36.6186 49.3949L36.0425 49.3611" stroke="#C7E7DC" stroke-linecap="round" stroke-linejoin="round"/>
  <path d="M35.9919 49.7849L35.6021 49.751C34.8396 49.6663 34.094 49.4629 33.3824 49.1918L33.0435 49.0393" stroke="#C7E7DC" stroke-linecap="round" stroke-linejoin="round"/>
  <path d="M70.1013 22.7227L70.0679 22.6726" stroke="#C7E7DC" stroke-linecap="round" stroke-linejoin="round"/>
  <path d="M33.0942 48.6151L32.5859 48.361L32.1283 48.0898L31.6878 47.7679L31.2642 47.429" stroke="#C7E7DC" stroke-linecap="round" stroke-linejoin="round"/>
  <path d="M31.1961 47.8364L30.9419 47.5991C30.4166 47.0738 30.1116 46.6672 29.8066 45.9894L29.688 45.6843" stroke="#C7E7DC" stroke-linecap="round" stroke-linejoin="round"/>
  <path d="M51.7332 19.5547L51.3435 23.4181H51.3943" stroke="#C7E7DC" stroke-linecap="round" stroke-linejoin="round"/>
  <path d="M51.7327 19.5547H51.7828" stroke="#C7E7DC" stroke-linecap="round" stroke-linejoin="round"/>
  <path d="M29.7388 45.2773L29.6541 45.0401L29.5863 44.7859L29.5185 44.5487L29.4846 44.2776" stroke="#C7E7DC" stroke-linecap="round" stroke-linejoin="round"/>
  <path d="M70.7622 23.7405L70.7961 23.7066L70.8469 23.6897" stroke="#C7E7DC" stroke-linecap="round" stroke-linejoin="round"/>
  <path d="M71.051 23.7398V23.6897" stroke="#C7E7DC" stroke-linecap="round" stroke-linejoin="round"/>
  <path d="M63.4762 31.3994L63.4084 31.9755" stroke="#C7E7DC" stroke-linecap="round" stroke-linejoin="round"/>
  <path d="M10.9807 31.3489L11.0141 31.3823" stroke="#C7E7DC" stroke-linecap="round" stroke-linejoin="round"/>
  <path d="M48.6494 37.8213V37.8547" stroke="#C7E7DC" stroke-linecap="round" stroke-linejoin="round"/>
  <path d="M71.4231 28.5696L71.5078 28.6204L71.5587 28.6712V28.7221" stroke="#C7E7DC" stroke-linecap="round" stroke-linejoin="round"/>
  <path d="M10.8453 31.3149L10.8286 31.3818" stroke="#C7E7DC" stroke-linecap="round" stroke-linejoin="round"/>
  <path d="M70.9832 30.3829L71.1357 30.366L71.2882 30.2982L71.4237 30.2135L71.4746 30.1457L71.5085 30.0779" stroke="#C7E7DC" stroke-linecap="round" stroke-linejoin="round"/>
  <path d="M71.5249 29.1968H71.5927L71.6266 29.2137V29.2476" stroke="#C7E7DC" stroke-linecap="round" stroke-linejoin="round"/>
  <path d="M71.051 29.8067V29.6204" stroke="#C7E7DC" stroke-linecap="round" stroke-linejoin="round"/>
  <path d="M70.0678 29.857L70.0508 29.7554L70 29.6707" stroke="#C7E7DC" stroke-linecap="round" stroke-linejoin="round"/>
  <path d="M5.33813 25.6211L5.4398 25.2822C6.01593 23.6046 7.21903 22.5032 8.79491 21.7576L9.11686 21.6221" stroke="#C7E7DC" stroke-linecap="round" stroke-linejoin="round"/>
  <path d="M60.4259 24.5876L60.4597 24.3504C60.5953 21.9781 58.6127 20.165 56.4777 19.5211L56.0371 19.3855" stroke="#C7E7DC" stroke-linecap="round" stroke-linejoin="round"/>
  <path d="M48.6328 37.8213L48.2261 37.8552C47.3619 37.9568 46.6333 38.1263 45.8369 38.4821L45.4641 38.6685" stroke="#C7E7DC" stroke-linecap="round" stroke-linejoin="round"/>
  <path d="M45.3622 38.7026L44.9894 38.9229L44.6335 39.1602" stroke="#C7E7DC" stroke-linecap="round" stroke-linejoin="round"/>
  <path d="M69.2709 31.1281L69.1861 31.162L69.1692 30.9756L69.2539 30.9925L69.2878 31.0095L69.3048 31.0434" stroke="#C7E7DC" stroke-linecap="round" stroke-linejoin="round"/>
  <path d="M63.4762 31.3994L63.4593 31.3147L63.4084 31.23" stroke="#C7E7DC" stroke-linecap="round" stroke-linejoin="round"/>
  <path d="M54.6816 41.126L55.4611 41.0582C59.1551 40.7024 63.0355 38.5165 63.8658 34.6361L63.9336 34.2463" stroke="#C7E7DC" stroke-linecap="round" stroke-linejoin="round"/>
  <path d="M36.0928 14.8101L36.1606 15.1998C36.9909 18.8599 41.0576 20.8595 44.5652 20.8425H45.0397" stroke="#C7E7DC" stroke-linecap="round" stroke-linejoin="round"/>
  <path d="M41.668 39.6519L41.6003 39.8891L41.5494 40.1263L41.4647 40.6177L41.4478 40.8719V41.1261" stroke="#C7E7DC" stroke-linecap="round" stroke-linejoin="round"/>
  <path d="M51.3948 23.4186L55.5632 23.2322" stroke="#C7E7DC" stroke-linecap="round" stroke-linejoin="round"/>
  <path d="M46.7184 26.6548L46.6845 27.0276C46.5659 31.0605 50.9377 33.4666 54.5131 33.3988H54.8858" stroke="#C7E7DC" stroke-linecap="round" stroke-linejoin="round"/>
  <path d="M54.8855 33.3992L55.4447 33.3653C58.1728 33.0942 60.9518 31.4675 61.4432 28.6038L61.4771 28.3157" stroke="#C7E7DC" stroke-linecap="round" stroke-linejoin="round"/>
  <path d="M55.0552 18.1824L55.5296 18.2332C60.5792 18.8941 64.341 24.469 59.3253 28.0952L58.9186 28.3493" stroke="#C7E7DC" stroke-linecap="round" stroke-linejoin="round"/>
  <path d="M58.9014 28.3659L58.6302 28.5184L58.3422 28.6539C54.5296 30.3993 48.6497 28.8403 47.4635 24.4516L47.4127 24.1974L47.3788 23.9432C47.0568 20.2662 50.7 18.1311 54.0382 18.148H54.5635L55.0887 18.1989" stroke="#C7E7DC" stroke-linecap="round" stroke-linejoin="round"/>
  <path d="M51.7845 19.3687L51.6998 19.4026C46.6332 21.3682 47.8363 26.7736 52.547 28.18L52.9367 28.2987" stroke="#C7E7DC" stroke-linecap="round" stroke-linejoin="round"/>
  <path d="M55.6135 23.2322L55.9355 23.3339C57.3758 23.7745 58.7822 24.7403 59.4939 26.0959L59.6295 26.4009" stroke="#C7E7DC" stroke-linecap="round" stroke-linejoin="round"/>
  <path d="M48.9209 25.1977L49.1581 24.8927C49.7004 24.2826 50.2595 23.8929 51.0051 23.571L51.361 23.4185" stroke="#C7E7DC" stroke-linecap="round" stroke-linejoin="round"/>
</svg>