<svg xmlns="http://www.w3.org/2000/svg" width="62" height="33" viewBox="0 0 62 33" fill="none">
  <path d="M42.3225 5.95315C36.9334 4.89959 30.7454 5.09917 25.0934 6.26804C19.4498 7.43517 14.2808 9.58134 10.9648 12.4721C9.30408 13.909 8.24037 15.4212 7.78647 16.9406C7.32887 18.4724 7.50218 19.9779 8.2569 21.3517C9.74717 24.0642 13.4497 26.1853 18.8119 27.2336C24.201 28.2872 30.389 28.0876 36.041 26.9187C41.6846 25.7516 46.8536 23.6055 50.1696 20.7147C51.8303 19.2778 52.894 17.7656 53.3479 16.2462C53.8055 14.7144 53.6322 13.2088 52.8775 11.8351C51.3873 9.12255 47.6847 7.00143 42.3225 5.95315ZM5.00678 10.5762C9.41353 6.50386 16.2768 3.48166 23.8487 1.92382C31.4148 0.36718 39.6309 0.284807 46.7099 2.03843C53.7851 3.79646 58.2533 7.02444 59.9048 10.7062C61.5316 14.3328 60.5012 18.5923 56.1275 22.6539C51.7208 26.7263 44.8575 29.7484 37.2857 31.3063C29.7196 32.8629 21.5035 32.9453 14.4245 31.1916C7.34936 29.4336 2.88111 26.2056 1.22961 22.5239C-0.397181 18.8973 0.633233 14.6378 5.00678 10.5762Z" stroke="#C7E7DC"/>
</svg>