<svg xmlns="http://www.w3.org/2000/svg" width="58" height="28" viewBox="0 0 58 28" fill="none">
  <path d="M50.235 0.737606L2.29004 0.737608L2.29004 26.9707L50.235 26.9707C53.1489 20.3271 53.1489 5.32715 50.235 0.737606Z" stroke="#C7E7DC" stroke-miterlimit="22.93"/>
  <path d="M50.6489 25.8271L52.3124 25.8271C52.3124 25.8271 54.9001 22.9418 54.629 12.747C54.629 12.747 54.5181 3.61753 52.3371 1.82715L50.6859 1.82715" stroke="#C7E7DC" stroke-miterlimit="22.93"/>
  <path d="M51.6489 26.1134C51.6489 26.3687 53.5097 28.6696 55.2109 24.8102C56.9229 20.9507 56.8591 11.7261 56.2849 7.60355C55.0621 -1.1825 52.2272 0.987779 51.9614 2.09883" stroke="#C7E7DC" stroke-miterlimit="22.93"/>
  <path d="M0.927734 26.907C0.604979 22.0656 0.153121 10.0591 0.927736 0.763757" stroke="#C7E7DC"/>
  <path d="M20.623 26.907C19.6548 17.5471 19.6548 9.47817 20.623 0.763756" stroke="#C7E7DC"/>
</svg>