<svg xmlns="http://www.w3.org/2000/svg" width="50" height="49" viewBox="0 0 50 49" fill="none">
  <path d="M10.6668 1.47082C10.6668 1.47082 30.6049 0.860633 38.217 1.62337C45.8292 2.38612 48.1174 1.62337 48.7123 4.06414C49.3225 6.50491 47.3394 7.42021 47.3394 7.42021V18.2359C47.3394 18.2359 47.492 17.9308 47.3394 20.6614C47.1869 23.4073 46.8818 38.9214 46.8818 38.9214C46.8818 38.9214 43.2359 40.2943 42.0155 40.5994V42.43C42.0155 42.43 43.8461 44.108 43.3884 45.6335C42.9308 47.159 37.6068 48.3794 29.537 48.2268C21.4672 48.0743 15.6856 47.4641 15.228 44.1233C14.7704 40.7672 16.6009 42.1402 16.6009 42.1402V40.7672C16.6009 40.7672 11.4296 38.9367 11.1245 37.8688C10.8194 36.801 11.1245 20.219 11.1245 20.219H6.86836C6.86836 20.219 3.06991 19.6088 1.46815 14.8188C-0.133607 10.0288 2.61226 7.74055 6.10562 6.36762C9.59897 4.99468 10.9719 5.60488 10.9719 5.60488L10.6668 1.50133V1.47082Z" stroke="#C7E7DC" stroke-miterlimit="22.93"/>
  <path d="M6.85423 10.3036C6.85423 10.3036 9.75265 11.524 9.295 14.5597C8.83736 17.6107 6.54913 15.1699 6.54913 15.1699C6.54913 15.1699 9.44754 16.0852 8.9899 20.1887H6.85423C6.85423 20.1887 7.00677 17.7479 5.17619 16.9852C3.34561 16.2225 2.14048 14.9411 2.35405 12.2257C2.56762 9.49508 5.54232 8.85438 6.09149 6.87126L7.93732 6.09326C7.93732 6.09326 8.54752 7.48145 7.93732 8.16791C7.32713 8.85438 6.33557 9.76967 6.85423 10.3036Z" stroke="#C7E7DC" stroke-miterlimit="22.93"/>
  <path d="M10.9573 5.5896C10.9573 5.5896 43.9077 6.50489 48.3469 6.52014L47.3248 7.89308L10.6064 7.29814L10.9421 5.60485L10.9573 5.5896Z" stroke="#C7E7DC" stroke-miterlimit="22.93"/>
  <path d="M47.3392 18.221C47.3392 18.221 35.6845 19.5787 26.2265 19.1516C16.7685 18.7244 11.6582 19.2431 11.6582 19.2431L10.1174 18.5566V7.74097H47.4765L47.3392 18.221Z" stroke="#C7E7DC" stroke-miterlimit="22.93"/>
  <path d="M11.9952 8.85449C12.5139 8.85449 12.9258 9.26637 12.9258 9.78504V15.1547C12.9258 15.6734 12.5139 16.0853 11.9952 16.0853C11.4766 16.0853 11.0647 15.6734 11.0647 15.1547V9.78504C11.0647 9.26637 11.4766 8.85449 11.9952 8.85449Z" stroke="#C7E7DC" stroke-miterlimit="22.93"/>
  <path d="M14.9694 8.85449C15.488 8.85449 15.8999 9.26637 15.8999 9.78504V15.1547C15.8999 15.6734 15.488 16.0853 14.9694 16.0853C14.4507 16.0853 14.0388 15.6734 14.0388 15.1547V9.78504C14.0388 9.26637 14.4507 8.85449 14.9694 8.85449Z" stroke="#C7E7DC" stroke-miterlimit="22.93"/>
  <path d="M17.7899 8.85449C18.3086 8.85449 18.7205 9.26637 18.7205 9.78504V15.1547C18.7205 15.6734 18.3086 16.0853 17.7899 16.0853C17.2713 16.0853 16.8594 15.6734 16.8594 15.1547V9.78504C16.8594 9.26637 17.2865 8.85449 17.7899 8.85449Z" stroke="#C7E7DC" stroke-miterlimit="22.93"/>
  <path d="M20.9335 8.85449C21.4521 8.85449 21.864 9.26637 21.864 9.78504V15.1547C21.864 15.6734 21.4369 16.0853 20.9335 16.0853C20.4301 16.0853 20.0029 15.6734 20.0029 15.1547V9.78504C20.0029 9.26637 20.4301 8.85449 20.9335 8.85449Z" stroke="#C7E7DC" stroke-miterlimit="22.93"/>
  <path d="M24.015 8.85449C24.5337 8.85449 24.9456 9.26637 24.9456 9.78504V15.1547C24.9456 15.6734 24.5184 16.0853 24.015 16.0853C23.5116 16.0853 23.0845 15.6734 23.0845 15.1547V9.78504C23.0845 9.26637 23.4964 8.85449 24.015 8.85449Z" stroke="#C7E7DC" stroke-miterlimit="22.93"/>
  <path d="M27.1576 8.85449C27.6763 8.85449 28.0881 9.26637 28.0881 9.78504V15.1547C28.0881 15.6734 27.6763 16.0853 27.1576 16.0853C26.6389 16.0853 26.2271 15.6734 26.2271 15.1547V9.78504C26.2271 9.26637 26.6542 8.85449 27.1576 8.85449Z" stroke="#C7E7DC" stroke-miterlimit="22.93"/>
  <path d="M30.1466 8.85449C30.6653 8.85449 31.0772 9.26637 31.0772 9.78504V15.1547C31.0772 15.6734 30.65 16.0853 30.1466 16.0853C29.6432 16.0853 29.2161 15.6734 29.2161 15.1547V9.78504C29.2161 9.26637 29.6279 8.85449 30.1466 8.85449Z" stroke="#C7E7DC" stroke-miterlimit="22.93"/>
  <path d="M33.2889 8.85449C33.8076 8.85449 34.2195 9.26637 34.2195 9.78504V15.1547C34.2195 15.6734 33.8076 16.0853 33.2889 16.0853C32.7703 16.0853 32.3584 15.6734 32.3584 15.1547V9.78504C32.3584 9.26637 32.7703 8.85449 33.2889 8.85449Z" stroke="#C7E7DC" stroke-miterlimit="22.93"/>
  <path d="M36.1888 8.85449C36.7075 8.85449 37.1194 9.26637 37.1194 9.78504V15.1547C37.1194 15.6734 36.7075 16.0853 36.1888 16.0853C35.6702 16.0853 35.2583 15.6734 35.2583 15.1547V9.78504C35.2583 9.26637 35.6854 8.85449 36.1888 8.85449Z" stroke="#C7E7DC" stroke-miterlimit="22.93"/>
  <path d="M39.514 8.85449C40.0327 8.85449 40.4446 9.26637 40.4446 9.78504V15.1547C40.4446 15.6734 40.0175 16.0853 39.514 16.0853C39.0106 16.0853 38.5835 15.6734 38.5835 15.1547V9.78504C38.5835 9.26637 39.0106 8.85449 39.514 8.85449Z" stroke="#C7E7DC" stroke-miterlimit="22.93"/>
  <path d="M42.8392 8.85449C43.3579 8.85449 43.7698 9.26637 43.7698 9.78504V15.1547C43.7698 15.6734 43.3426 16.0853 42.8392 16.0853C42.3358 16.0853 41.9087 15.6734 41.9087 15.1547V9.78504C41.9087 9.26637 42.3206 8.85449 42.8392 8.85449Z" stroke="#C7E7DC" stroke-miterlimit="22.93"/>
  <path d="M45.997 8.85449C46.5156 8.85449 46.9275 9.26637 46.9275 9.78504V15.1547C46.9275 15.6734 46.5156 16.0853 45.997 16.0853C45.4783 16.0853 45.0664 15.6734 45.0664 15.1547V9.78504C45.0664 9.26637 45.4935 8.85449 45.997 8.85449Z" stroke="#C7E7DC" stroke-miterlimit="22.93"/>
  <path d="M16.6003 42.1096C16.6003 42.1096 25.3413 44.1843 32.801 43.6351C40.2606 43.0859 42.0149 42.4147 42.0149 42.4147" stroke="#C7E7DC" stroke-miterlimit="22.93"/>
  <path d="M16.6003 40.2795C16.6003 40.2795 26.1346 40.7677 29.689 40.7677C33.2433 40.7677 42.2589 40.3711 42.2589 40.3711" stroke="#C7E7DC" stroke-miterlimit="22.93"/>
  <path d="M15.1521 42.9336C15.1521 42.9336 23.0083 44.932 29.5527 44.8099C36.097 44.6879 42.7633 43.2845 42.7633 43.2845" stroke="#C7E7DC" stroke-miterlimit="22.93"/>
  <path d="M14.9084 44.4136C14.9084 44.4136 23.3139 46.3509 29.6751 46.1679C36.0364 45.9848 43.3434 44.4441 43.3434 44.4441" stroke="#C7E7DC" stroke-miterlimit="22.93"/>
  <path d="M16.9822 46.4274C16.9822 46.4274 25.1588 47.5105 31.52 47.1444C37.8813 46.7783 43.3883 45.6189 43.3883 45.6189" stroke="#C7E7DC" stroke-miterlimit="22.93"/>
</svg>