<svg xmlns="http://www.w3.org/2000/svg" width="86" height="49" viewBox="0 0 86 49" fill="none">
  <path d="M13.7921 10.8684C22.7718 10.7213 31.7515 10.5809 40.7379 10.4338C38.9968 19.6925 39.5058 31.8457 40.7379 37.7685L13.7921 37.187C6.48646 37.0332 0.5 31.8992 0.5 24.7262V23.4695C0.5 16.3032 6.47977 10.9887 13.7921 10.8684Z" stroke="#C7E7DC" stroke-miterlimit="22.93"/>
  <path d="M40.7371 10.4335C41.7617 10.4736 48.6923 10.4603 49.2749 9.66475C49.7302 9.03636 49.7235 8.58179 49.7235 8.58179C49.7235 8.58179 55.8305 8.88261 61.2746 9.02968C64.395 9.11658 68.3726 8.85587 71.2252 8.58847C71.2252 8.58847 71.2587 10.4469 72.8658 10.3533C75.8858 10.4803 75.8791 10.7277 75.8724 10.9549C75.8724 11.0753 75.8524 10.6608 76.1671 10.6407L82.7897 10.8079C83.0241 10.8279 83.3522 11.102 83.7272 12.6596C84.1155 14.2707 84.3164 17.1987 84.5307 20.4275C84.7383 20.7551 85.4481 20.7016 85.4548 21.2832C85.4883 23.9906 85.5753 26.7782 85.3544 29.753C85.3343 30.007 84.7919 30.1875 84.5039 30.1541C84.2562 33.0353 84.0218 35.2012 83.5999 36.6184C83.5999 36.6184 83.1178 37.7214 82.6759 37.7482C82.2339 37.7749 75.9729 37.815 75.6783 37.8351C74.8211 37.9353 72.3569 38.2094 72.5779 39.4127C70.2677 40.8901 64.8638 40.6093 60.7188 40.6561C52.9846 40.743 49.67 40.5893 48.3508 39.4595C48.3508 39.4595 47.8151 38.2429 46.804 38.156C45.7928 38.069 40.7237 37.8217 40.7237 37.8217C40.7237 37.8217 39.6055 30.1875 39.6055 25.3543C39.6055 20.5211 39.6189 16.5903 40.7237 10.4268L40.7371 10.4335Z" stroke="#C7E7DC" stroke-miterlimit="22.93"/>
  <path d="M50.199 6.22876C50.199 6.22876 55.0069 6.64991 60.5179 6.58975C66.0289 6.53627 69.2164 6.51621 70.6895 6.28892" stroke="#C7E7DC" stroke-miterlimit="22.93"/>
  <path d="M76.1683 10.6409C76.1683 10.6409 76.7977 12.1517 76.9249 17.2055C77.0522 22.2593 77.0522 35.188 76.0209 37.8285H75.6794C75.6794 37.8285 77.0924 29.3587 76.8178 21.6577C76.5433 13.9566 76.7375 15.1265 75.8602 10.915C75.8602 10.915 75.9004 10.6075 76.1549 10.6342L76.1683 10.6409Z" stroke="#C7E7DC" stroke-miterlimit="22.93"/>
  <path d="M84.5314 20.4277C84.5314 20.4277 84.6854 20.7553 84.2702 20.8355C83.8551 20.9157 79.9578 20.8221 79.4155 20.8221C78.8731 20.8221 77.8351 20.9826 77.7213 22.1792C77.6075 23.3758 77.6543 28.9109 77.6543 28.9109C77.6543 28.9109 77.574 30.2212 79.2012 30.2011C80.8284 30.1877 84.1698 30.161 84.1698 30.161L84.4979 30.1877" stroke="#C7E7DC" stroke-miterlimit="22.93"/>
  <path d="M79.6979 22.52H80.7827C81.4992 22.52 82.0884 23.0615 82.0884 23.73V27.7008C82.0884 28.3627 81.4992 28.9108 80.7827 28.9108H79.6979C78.9814 28.9108 78.3921 28.3693 78.3921 27.7008V23.73C78.3921 23.0682 78.9814 22.52 79.6979 22.52Z" stroke="#C7E7DC" stroke-miterlimit="22.93"/>
  <path d="M79.6568 22.6602H80.6412C81.2907 22.6602 81.8197 23.1615 81.8197 23.7765V27.4399C81.8197 28.0549 81.2907 28.5563 80.6412 28.5563H79.6568C79.0073 28.5563 78.4783 28.0549 78.4783 27.4399V23.7765C78.4783 23.1615 79.0073 22.6602 79.6568 22.6602Z" stroke="#C7E7DC" stroke-miterlimit="22.93"/>
  <path d="M48.7119 9.95239C48.7119 9.95239 51.5913 14.0235 58.1403 14.077C64.6892 14.1305 70.4279 11.5033 72.2225 10.3602" stroke="#C7E7DC" stroke-miterlimit="22.93"/>
  <path d="M47.7483 38.6172C47.7483 38.6172 50.4737 37.3003 54.4446 37.3003C58.4154 37.3003 71.6272 37.4474 72.7589 38.7843" stroke="#C7E7DC" stroke-miterlimit="22.93"/>
  <path d="M54.6479 0.683234C56.3506 0.566707 58.3112 0.500071 60.4001 0.5C62.4865 0.500071 64.4465 0.566706 66.1493 0.683234H54.6479Z" stroke="#C7E7DC"/>
  <path d="M48.8521 6.10291V2.94531H71.7912V6.11252C64.0415 6.56744 56.4734 6.40526 48.8521 6.10291Z" stroke="#C7E7DC"/>
  <path d="M48.5596 2.44531H72.0769C72.1908 2.44531 72.2912 2.5389 72.2912 2.65923V6.58329C64.1887 7.08466 56.2938 6.90417 48.3521 6.58329V2.65923C48.3521 2.54559 48.4458 2.44531 48.5663 2.44531H48.5596Z" stroke="#C7E7DC" stroke-miterlimit="22.93"/>
</svg>