 <svg xmlns="http://www.w3.org/2000/svg" width="48" height="48" viewBox="0 0 48 48"
                                    fill="none">
                                    <path
                                        d="M6.69036 4.68665H41.549C42.4176 4.68665 43.1125 5.3815 43.1125 6.25007V41.1232C43.1125 41.9918 42.4176 42.6866 41.549 42.6866H6.69036C5.82179 42.6866 5.12695 41.9773 5.12695 41.1232V6.25007C5.12695 5.3815 5.83627 4.68665 6.69036 4.68665Z"
                                        stroke="#010101" stroke-miterlimit="2.61" />
                                    <path fill-rule="evenodd" clip-rule="evenodd"
                                        d="M24.1048 11.114C24.1048 11.114 20.8911 10.9548 19.6462 14.3278C19.6462 14.3278 18.8644 16.2965 20.0949 18.3087C21.3254 20.3209 23.3665 20.538 24.1048 20.538C24.7852 20.538 27.4488 20.2196 28.4042 17.7441C28.9688 16.2965 28.7517 15.1095 28.7082 14.9068C28.6503 14.6173 28.549 14.2699 28.3898 13.9224C27.8107 12.663 26.5223 11.2009 24.1048 11.114ZM24.0903 11.3167C24.0903 11.3167 26.1315 11.2009 26.725 13.9369C26.725 13.9369 27.1738 16.282 26.5223 18.3811C26.5223 18.3811 25.9867 20.3209 24.0035 20.3209C22.0202 20.3209 21.5425 18.0337 21.4701 17.7297C21.3978 17.4257 20.9635 14.6318 21.832 12.8512C21.832 12.8512 22.44 11.3312 24.0903 11.3312V11.3167ZM28.8241 19.5826V21.5079C28.8241 21.5079 24.3943 21.2908 24.3943 24.2729H24.1482C24.1482 24.2729 23.9456 22.6226 25.5524 20.9723C25.5524 20.9723 26.8698 19.5826 28.8241 19.5826Z"
                                        fill="#010101" />
                                    <path
                                        d="M15.3898 34.8985C16.4176 34.8985 17.2427 34.4787 17.8218 33.9865V31.54H15.3319V32.4375H16.8229V33.5377C16.461 33.7983 15.9688 33.9865 15.4187 33.9865C14.2317 33.9865 13.4355 33.1034 13.4355 31.9019C13.4355 30.7728 14.2606 29.8318 15.3319 29.8318C16.0701 29.8318 16.5189 30.0779 16.9677 30.4543L17.6191 29.6871C17.0256 29.1804 16.3886 28.8909 15.3753 28.8909C13.6237 28.8909 12.3643 30.2806 12.3643 31.9019C12.3643 33.6246 13.5658 34.9274 15.3898 34.9274V34.8985ZM20.5578 34.8985C21.2381 34.8985 21.658 34.5366 21.933 34.1168V34.7972H22.9464V30.3964H21.933V32.8718C21.933 33.5522 21.5277 33.9575 20.9342 33.9575C20.3406 33.9575 19.9932 33.5667 19.9932 32.8863V30.3819H18.9799V33.1758C18.9799 34.2036 19.5589 34.8695 20.5433 34.8695L20.5578 34.8985ZM24.2202 29.7305H25.306V28.7751H24.2202V29.7305ZM24.2637 34.8116H25.277V30.4109H24.2637V34.8116ZM28.4039 34.8985C29.1277 34.8985 29.5764 34.5366 29.9094 34.0733V34.8116H30.9227V28.7316H29.9094V31.1057C29.5909 30.6859 29.1421 30.324 28.4039 30.324C27.3471 30.324 26.3627 31.1492 26.3627 32.6112C26.3627 34.0878 27.376 34.913 28.4039 34.913V34.8985ZM28.65 34.0154C27.9696 34.0154 27.3761 33.4509 27.3761 32.6112C27.3761 31.7137 27.9551 31.1926 28.65 31.1926C29.3448 31.1926 29.9239 31.7571 29.9239 32.5968C29.9239 33.4509 29.3304 34.0154 28.65 34.0154ZM34.1943 34.8985C35.005 34.8985 35.5841 34.58 35.9894 34.0733L35.3959 33.5522C35.0484 33.8996 34.701 34.0733 34.2088 34.0733C33.5574 34.0733 33.0507 33.668 32.9349 32.9587H36.1631C36.1631 32.8573 36.1776 32.7705 36.1776 32.6836C36.1776 31.4097 35.4682 30.3095 34.0641 30.3095C32.8046 30.3095 31.9216 31.3373 31.9216 32.5968C31.9216 33.972 32.906 34.8985 34.1799 34.8985H34.1943ZM32.9349 32.2928C33.0218 31.6124 33.4561 31.1347 34.0785 31.1347C34.7444 31.1347 35.1353 31.6413 35.1932 32.2928H32.9349Z"
                                        fill="#010101" />
                                </svg>