<svg xmlns="http://www.w3.org/2000/svg" width="195" height="9" viewBox="0 0 195 9" fill="none">
  <path d="M0.50159 7.95225C1.21218 7.71741 1.91641 7.38606 2.63972 7.2724C5.46301 6.82845 8.27915 6.38344 11.1088 6.06924C18.9833 5.19744 26.8642 4.29991 34.7451 3.58574C44.0734 2.74074 53.4073 2.00834 62.7483 1.36387C81.7475 0.0567073 100.765 -0.327186 119.776 0.282968C134.698 0.762298 149.621 1.67699 164.536 2.54022C172.43 2.99381 180.324 3.70798 188.211 4.3621C189.542 4.47577 190.866 4.83285 192.19 5.11166C192.546 5.18994 192.888 5.36473 193.224 5.53844C193.786 5.83441 194.561 5.98239 194.496 7.05471C194.438 8.09165 193.65 8.23963 193.075 8.37904C191.861 8.675 190.627 8.96346 189.4 8.98919C187.229 9.03316 185.059 8.93665 182.895 8.8144C176.958 8.47447 171.021 8.07342 165.091 7.72492C155.44 7.15015 145.789 6.54857 136.132 6.04244C114.853 4.9358 93.5676 4.66557 72.2761 5.31862C61.8438 5.64139 51.4106 6.24189 40.9846 6.75661C32.1539 7.19197 23.3295 7.68953 14.4988 8.14205C10.8362 8.334 7.16716 8.4734 3.49736 8.62138C2.52209 8.65677 1.54681 8.62996 0.570741 8.62996C0.558024 8.39512 0.525435 8.17637 0.5 7.95011L0.50159 7.95225Z" fill="#C4121A"/>
</svg>