<svg xmlns="http://www.w3.org/2000/svg" width="75" height="65" viewBox="0 0 75 65" fill="none">
  <path d="M8.09973 50.2903C10.8212 50.2903 12.2268 49.453 13.4829 48.7053C14.6194 48.0174 15.6063 47.4492 17.6698 47.4492C19.7334 47.4492 20.7203 48.0174 21.8567 48.7053C23.1128 49.453 24.5184 50.2903 27.2399 50.2903C29.9614 50.2903 31.367 49.453 32.6231 48.7053C33.7595 48.0174 34.7465 47.4492 36.7801 47.4492C38.8137 47.4492 39.8306 48.0174 40.9371 48.7053C42.1932 49.453 43.5988 50.2903 46.3203 50.2903C49.0418 50.2903 50.4474 49.453 51.7035 48.7053C52.8399 48.0174 53.8268 47.4492 55.8605 47.4492C57.8941 47.4492 58.881 48.0174 60.0175 48.7053C61.2736 49.453 62.6792 50.2903 65.4007 50.2903" stroke="black"/>
  <path d="M8.09973 38.7266H65.6698" stroke="black"/>
  <path d="M8.09973 30.876H65.6698" stroke="black"/>
  <path d="M25.5997 17.8138C25.5997 20.2952 23.401 22.376 20.5997 22.376C17.7985 22.376 15.5997 20.2952 15.5997 17.8138C15.5997 17.2044 15.7957 16.3927 16.151 15.4311C16.503 14.4788 16.9959 13.4196 17.5558 12.328C18.3727 10.7354 19.3164 9.10338 20.153 7.65664C20.3007 7.40128 20.445 7.15168 20.5847 6.9091C20.8324 7.35957 21.1214 7.87067 21.4316 8.41909C21.4799 8.50447 21.5287 8.59077 21.5779 8.67788C22.1551 9.69908 22.798 10.8426 23.3993 11.9916C24.0012 13.1419 24.5562 14.2879 24.9598 15.3133C25.369 16.3532 25.5997 17.2143 25.5997 17.8138Z" stroke="black"/>
  <path d="M57.5997 18.8138C57.5997 21.2952 55.401 23.376 52.5997 23.376C49.7985 23.376 47.5997 21.2952 47.5997 18.8138C47.5997 18.2044 47.7957 17.3927 48.151 16.4311C48.503 15.4788 48.9959 14.4196 49.5558 13.328C50.3727 11.7354 51.3164 10.1034 52.153 8.65664C52.3007 8.40128 52.445 8.15168 52.5847 7.9091C52.8324 8.35957 53.1214 8.87067 53.4316 9.41909C53.4799 9.50447 53.5287 9.59077 53.5779 9.67788C54.1551 10.6991 54.798 11.8426 55.3993 12.9916C56.0012 14.1419 56.5562 15.2879 56.9598 16.3133C57.369 17.3532 57.5997 18.2143 57.5997 18.8138Z" stroke="black"/>
  <path d="M38.6999 13.7948C38.6999 15.3474 37.3609 16.6528 35.6498 16.6528C33.9387 16.6528 32.5997 15.3474 32.5997 13.7948C32.5997 13.4183 32.7187 12.9007 32.9461 12.2685C33.1702 11.6452 33.4853 10.949 33.8453 10.2278C34.3706 9.17533 34.9765 8.09855 35.5159 7.13987C35.5567 7.06739 35.5971 6.99558 35.637 6.92451C35.7586 7.14819 35.8908 7.3884 36.0291 7.63971C36.0605 7.69671 36.0921 7.75428 36.1241 7.81235C36.4967 8.48976 36.9105 9.24624 37.2972 10.0058C37.6846 10.7666 38.04 11.521 38.2975 12.1935C38.5604 12.88 38.6999 13.428 38.6999 13.7948Z" stroke="black"/>
</svg>