<svg xmlns="http://www.w3.org/2000/svg" width="75" height="65" viewBox="0 0 75 65" fill="none">
  <path d="M25.3181 16.1575C26.0579 16.1575 26.6576 15.5521 26.6576 14.8053C26.6576 14.0585 26.0579 13.4531 25.3181 13.4531C24.5783 13.4531 23.9786 14.0585 23.9786 14.8053C23.9786 15.5521 24.5783 16.1575 25.3181 16.1575Z" fill="black"/>
  <path d="M24.3948 14.6554C24.6785 14.6554 24.9085 14.4232 24.9085 14.1368C24.9085 13.8504 24.6785 13.6182 24.3948 13.6182C24.111 13.6182 23.881 13.8504 23.881 14.1368C23.881 14.4232 24.111 14.6554 24.3948 14.6554Z" fill="white"/>
  <path fill-rule="evenodd" clip-rule="evenodd" d="M30.6473 16.4962C32.1556 16.2777 28.4638 14.0401 28.2839 13.9105C27.4656 13.3177 26.3793 12.9547 25.2233 12.8954C22.6031 12.7583 21.4984 13.8512 19.6232 15.333C19.6232 15.333 20.3168 15.233 21.0727 16.0739C21.8287 16.9149 24.7279 17.9188 27.2491 17.2964C29.7702 16.6741 30.6473 16.4925 30.6473 16.4925V16.4962Z" stroke="black" stroke-miterlimit="2.61313" stroke-linecap="round" stroke-linejoin="round"/>
  <mask id="mask0_13380_8656" style="mask-type:alpha" maskUnits="userSpaceOnUse" x="22" y="11" width="7" height="7">
    <path d="M25.3145 17.2529C26.6542 17.2529 27.7403 16.1566 27.7403 14.8042C27.7403 13.4518 26.6542 12.3555 25.3145 12.3555C23.9748 12.3555 22.8888 13.4518 22.8888 14.8042C22.8888 16.1566 23.9748 17.2529 25.3145 17.2529Z" stroke="black" stroke-miterlimit="2.61313" stroke-linecap="round" stroke-linejoin="round"/>
  </mask>
  <g mask="url(#mask0_13380_8656)">
    <path fill-rule="evenodd" clip-rule="evenodd" d="M30.6474 16.4943C32.1557 16.2757 28.4639 14.0382 28.2841 13.9085C27.4657 13.3158 26.3794 12.9527 25.2234 12.8934C22.6032 12.7564 21.4986 13.8492 19.6233 15.3311C19.6233 15.3311 20.3169 15.231 21.0729 16.072C21.8289 16.9129 24.728 17.9168 27.2492 17.2945C29.7703 16.6721 30.6474 16.4906 30.6474 16.4906V16.4943Z" fill="black" stroke="black" stroke-miterlimit="2.61313" stroke-linecap="round" stroke-linejoin="round"/>
  </g>
  <path d="M30.2928 15.5244C30.2928 15.5244 29.8255 16.0134 30.0168 16.5839" stroke="black" stroke-miterlimit="2.61313" stroke-linecap="round" stroke-linejoin="round"/>
  <path d="M30.8678 14.8335C30.8678 14.8335 29.1613 11.8254 25.1465 11.7847C21.1354 11.7439 19.1464 14.2112 19.1464 14.2112" stroke="black" stroke-miterlimit="2.61313" stroke-linecap="round" stroke-linejoin="round"/>
  <path fill-rule="evenodd" clip-rule="evenodd" d="M31.3617 10.5459C31.3617 10.5459 32.0773 9.60862 30.0112 8.51577C30.0112 8.51577 22.5027 6.26709 20.7559 6.48566C19.0091 6.70423 16.2677 8.91957 16.2677 8.91957C16.2677 8.91957 19.3283 7.7341 22.822 8.67136C26.3193 9.60862 31.0057 10.92 31.3617 10.5422V10.5459Z" stroke="black" stroke-miterlimit="2.61313" stroke-linecap="round" stroke-linejoin="round"/>
  <path d="M37.3553 32.3427C37.3553 32.3427 36.3755 32.3686 35.9755 31.9129C35.5791 31.4573 34.5699 31.0572 33.7736 31.109" stroke="black" stroke-miterlimit="2.61313" stroke-linecap="round" stroke-linejoin="round"/>
  <path d="M32.6388 28.8623C32.6388 28.8623 31.314 31.6704 34.0701 32.126" stroke="black" stroke-miterlimit="2.61313" stroke-linecap="round" stroke-linejoin="round"/>
  <path d="M33.1622 13.7646C33.1622 13.7646 35.5476 15.9059 35.0705 21.7925" stroke="black" stroke-miterlimit="2.61313" stroke-linecap="round" stroke-linejoin="round"/>
  <path fill-rule="evenodd" clip-rule="evenodd" d="M37.5007 37.7178C37.5007 37.7178 35.552 36.7546 34.1722 37.5585C32.7923 38.3624 28.8693 40.3406 28.8693 40.3406C28.8693 40.3406 30.6198 45.7456 37.497 45.7456C44.3779 45.7456 46.1248 40.3406 46.1248 40.3406C46.1248 40.3406 42.2017 38.3587 40.8219 37.5585C39.442 36.7546 37.4933 37.7178 37.4933 37.7178H37.5007Z" stroke="black" stroke-miterlimit="2.61313" stroke-linecap="round" stroke-linejoin="round"/>
  <path d="M37.4977 41.0069C37.4977 41.0069 37.0059 40.9809 36.3967 40.7253C35.7876 40.4697 32.7379 40.3511 31.2553 40.6994C29.7691 41.0476 29.3213 40.2178 27.7286 40.2178" stroke="black" stroke-miterlimit="2.61313" stroke-linecap="round" stroke-linejoin="round"/>
  <path d="M9.87122 13.9141C9.87122 13.9141 13.0419 27.3728 14.7374 34.3818C16.4329 41.3946 16.8585 42.5727 20.5687 46.1031C24.2789 49.6373 31.402 56.2722 37.4976 56.2722" stroke="black" stroke-miterlimit="2.61313" stroke-linecap="round" stroke-linejoin="round"/>
  <path d="M7.58051 12.0703C7.58051 12.0703 5.53642 12.0962 6.22635 15.0932C6.91627 18.0903 9.40808 22.4246 9.72735 25.6365C10.0466 28.8483 11.2944 29.793 13.588 29.5893" stroke="black" stroke-miterlimit="2.61313" stroke-linecap="round" stroke-linejoin="round"/>
  <path d="M8.11145 16.5332C8.11145 16.5332 8.44907 15.0884 9.12432 15.57C9.79957 16.0516 11.2161 19.8525 11.2161 19.8525C11.2161 19.8525 10.306 21.7788 10.8124 22.3679C11.3189 22.9569 12.2987 24.1535 12.2987 24.1535" stroke="black" stroke-miterlimit="2.61313" stroke-linecap="round" stroke-linejoin="round"/>
  <path d="M49.6912 16.1575C50.431 16.1575 51.0307 15.5521 51.0307 14.8053C51.0307 14.0585 50.431 13.4531 49.6912 13.4531C48.9514 13.4531 48.3517 14.0585 48.3517 14.8053C48.3517 15.5521 48.9514 16.1575 49.6912 16.1575Z" fill="black"/>
  <path d="M48.7678 14.6554C49.0516 14.6554 49.2816 14.4232 49.2816 14.1368C49.2816 13.8504 49.0516 13.6182 48.7678 13.6182C48.4841 13.6182 48.254 13.8504 48.254 14.1368C48.254 14.4232 48.4841 14.6554 48.7678 14.6554Z" fill="white"/>
  <path fill-rule="evenodd" clip-rule="evenodd" d="M44.3496 16.4962C42.8413 16.2777 46.5331 14.0401 46.713 13.9105C47.5313 13.3177 48.6176 12.9547 49.7736 12.8954C52.3938 12.7583 53.4984 13.8512 55.3737 15.333C55.3737 15.333 54.6801 15.233 53.9241 16.0739C53.1682 16.9149 50.269 17.9188 47.7478 17.2964C45.2267 16.6741 44.3496 16.4925 44.3496 16.4925V16.4962Z" stroke="black" stroke-miterlimit="2.61313" stroke-linecap="round" stroke-linejoin="round"/>
  <mask id="mask1_13380_8656" style="mask-type:alpha" maskUnits="userSpaceOnUse" x="46" y="11" width="7" height="7">
    <path d="M49.6876 17.2529C51.0273 17.2529 52.1133 16.1566 52.1133 14.8042C52.1133 13.4518 51.0273 12.3555 49.6876 12.3555C48.3479 12.3555 47.2618 13.4518 47.2618 14.8042C47.2618 16.1566 48.3479 17.2529 49.6876 17.2529Z" stroke="black" stroke-miterlimit="2.61313" stroke-linecap="round" stroke-linejoin="round"/>
  </mask>
  <g mask="url(#mask1_13380_8656)">
    <path fill-rule="evenodd" clip-rule="evenodd" d="M44.3496 16.4943C42.8413 16.2757 46.5331 14.0382 46.713 13.9085C47.5313 13.3158 48.6176 12.9527 49.7736 12.8934C52.3938 12.7564 53.4985 13.8492 55.3737 15.3311C55.3737 15.3311 54.6801 15.231 53.9241 16.072C53.1682 16.9129 50.269 17.9168 47.7479 17.2945C45.2267 16.6721 44.3496 16.4906 44.3496 16.4906V16.4943Z" fill="black" stroke="black" stroke-miterlimit="2.61313" stroke-linecap="round" stroke-linejoin="round"/>
  </g>
  <path d="M44.6974 15.5244C44.6974 15.5244 45.1647 16.0134 44.9734 16.5839" stroke="black" stroke-miterlimit="2.61313" stroke-linecap="round" stroke-linejoin="round"/>
  <path d="M44.131 14.8335C44.131 14.8335 45.8374 11.8254 49.8522 11.7847C53.8633 11.7439 55.8524 14.2112 55.8524 14.2112" stroke="black" stroke-miterlimit="2.61313" stroke-linecap="round" stroke-linejoin="round"/>
  <path fill-rule="evenodd" clip-rule="evenodd" d="M43.6375 10.5459C43.6375 10.5459 42.9219 9.60862 44.988 8.51577C44.988 8.51577 52.4965 6.26709 54.2433 6.48566C55.9901 6.70423 58.7315 8.91957 58.7315 8.91957C58.7315 8.91957 55.6709 7.7341 52.1772 8.67136C48.6799 9.60862 43.9935 10.92 43.6375 10.5422V10.5459Z" stroke="black" stroke-miterlimit="2.61313" stroke-linecap="round" stroke-linejoin="round"/>
  <path d="M37.6427 32.3427C37.6427 32.3427 38.6225 32.3686 39.0226 31.9129C39.4189 31.4573 40.4281 31.0572 41.2244 31.109" stroke="black" stroke-miterlimit="2.61313" stroke-linecap="round" stroke-linejoin="round"/>
  <path d="M42.363 28.8623C42.363 28.8623 43.6878 31.6704 40.9318 32.126" stroke="black" stroke-miterlimit="2.61313" stroke-linecap="round" stroke-linejoin="round"/>
  <path d="M41.8289 13.7646C41.8289 13.7646 39.4436 15.9059 39.9206 21.7925" stroke="black" stroke-miterlimit="2.61313" stroke-linecap="round" stroke-linejoin="round"/>
  <path d="M37.5023 41.0069C37.5023 41.0069 37.9941 40.9809 38.6033 40.7253C39.2125 40.4697 42.2621 40.3511 43.7447 40.6994C45.231 41.0476 45.6787 40.2178 47.2714 40.2178" stroke="black" stroke-miterlimit="2.61313" stroke-linecap="round" stroke-linejoin="round"/>
  <path d="M65.1207 13.9141C65.1207 13.9141 61.9499 27.3728 60.2545 34.3818C58.559 41.3946 58.1333 42.5727 54.4231 46.1031C50.7129 49.6373 43.5898 56.2722 37.4943 56.2722" stroke="black" stroke-miterlimit="2.61313" stroke-linecap="round" stroke-linejoin="round"/>
  <path d="M67.4197 12.0703C67.4197 12.0703 69.4638 12.0962 68.7739 15.0932C68.084 18.0903 65.5921 22.4246 65.2729 25.6365C64.9536 28.8483 63.7059 29.793 61.4122 29.5893" stroke="black" stroke-miterlimit="2.61313" stroke-linecap="round" stroke-linejoin="round"/>
  <path d="M66.8886 16.5332C66.8886 16.5332 66.5509 15.0884 65.8757 15.57C65.2004 16.0516 63.7839 19.8525 63.7839 19.8525C63.7839 19.8525 64.694 21.7788 64.1876 22.3679C63.6811 22.9569 62.7013 24.1535 62.7013 24.1535" stroke="black" stroke-miterlimit="2.61313" stroke-linecap="round" stroke-linejoin="round"/>
  <path d="M37.7637 24.4382C38.0494 24.4382 38.2811 24.2044 38.2811 23.9159C38.2811 23.6274 38.0494 23.3936 37.7637 23.3936C37.4779 23.3936 37.2462 23.6274 37.2462 23.9159C37.2462 24.2044 37.4779 24.4382 37.7637 24.4382Z" fill="black" stroke="black"/>
  <path d="M34.3555 27.4255C34.6412 27.4255 34.8729 27.1917 34.8729 26.9032C34.8729 26.6147 34.6412 26.3809 34.3555 26.3809C34.0697 26.3809 33.838 26.6147 33.838 26.9032C33.838 27.1917 34.0697 27.4255 34.3555 27.4255Z" fill="black" stroke="black"/>
  <path d="M31.9785 24.7312C32.2643 24.7312 32.4959 24.4974 32.4959 24.2089C32.4959 23.9204 32.2643 23.6865 31.9785 23.6865C31.6927 23.6865 31.4611 23.9204 31.4611 24.2089C31.4611 24.4974 31.6927 24.7312 31.9785 24.7312Z" fill="black" stroke="black"/>
  <path d="M29.2129 26.8757C29.4987 26.8757 29.7303 26.6419 29.7303 26.3534C29.7303 26.0649 29.4987 25.8311 29.2129 25.8311C28.9271 25.8311 28.6954 26.0649 28.6954 26.3534C28.6954 26.6419 28.9271 26.8757 29.2129 26.8757Z" fill="black" stroke="black"/>
  <path d="M27.0354 24.4685C27.3212 24.4685 27.5528 24.2347 27.5528 23.9462C27.5528 23.6577 27.3212 23.4238 27.0354 23.4238C26.7496 23.4238 26.5179 23.6577 26.5179 23.9462C26.5179 24.2347 26.7496 24.4685 27.0354 24.4685Z" fill="black" stroke="black"/>
  <path d="M25.6035 27.7498C25.8893 27.7498 26.1209 27.5159 26.1209 27.2274C26.1209 26.9389 25.8893 26.7051 25.6035 26.7051C25.3177 26.7051 25.0861 26.9389 25.0861 27.2274C25.0861 27.5159 25.3177 27.7498 25.6035 27.7498Z" fill="black" stroke="black"/>
  <path d="M22.957 25.3875C23.2428 25.3875 23.4745 25.1536 23.4745 24.8651C23.4745 24.5766 23.2428 24.3428 22.957 24.3428C22.6712 24.3428 22.4396 24.5766 22.4396 24.8651C22.4396 25.1536 22.6712 25.3875 22.957 25.3875Z" fill="black" stroke="black"/>
  <path d="M41.1719 27.4255C41.4576 27.4255 41.6893 27.1917 41.6893 26.9032C41.6893 26.6147 41.4576 26.3809 41.1719 26.3809C40.8861 26.3809 40.6544 26.6147 40.6544 26.9032C40.6544 27.1917 40.8861 27.4255 41.1719 27.4255Z" fill="black" stroke="black"/>
  <path d="M43.543 24.7312C43.8287 24.7312 44.0604 24.4974 44.0604 24.2089C44.0604 23.9204 43.8287 23.6865 43.543 23.6865C43.2572 23.6865 43.0255 23.9204 43.0255 24.2089C43.0255 24.4974 43.2572 24.7312 43.543 24.7312Z" fill="black" stroke="black"/>
  <path d="M46.3164 26.8757C46.6022 26.8757 46.8338 26.6419 46.8338 26.3534C46.8338 26.0649 46.6022 25.8311 46.3164 25.8311C46.0306 25.8311 45.799 26.0649 45.799 26.3534C45.799 26.6419 46.0306 26.8757 46.3164 26.8757Z" fill="black" stroke="black"/>
  <path d="M48.4863 24.4685C48.7721 24.4685 49.0038 24.2347 49.0038 23.9462C49.0038 23.6577 48.7721 23.4238 48.4863 23.4238C48.2005 23.4238 47.9689 23.6577 47.9689 23.9462C47.9689 24.2347 48.2005 24.4685 48.4863 24.4685Z" fill="black" stroke="black"/>
  <path d="M49.916 27.7498C50.2018 27.7498 50.4334 27.5159 50.4334 27.2274C50.4334 26.9389 50.2018 26.7051 49.916 26.7051C49.6302 26.7051 49.3986 26.9389 49.3986 27.2274C49.3986 27.5159 49.6302 27.7498 49.916 27.7498Z" fill="black" stroke="black"/>
  <path d="M52.5703 25.3875C52.8561 25.3875 53.0877 25.1536 53.0877 24.8651C53.0877 24.5766 52.8561 24.3428 52.5703 24.3428C52.2845 24.3428 52.0529 24.5766 52.0529 24.8651C52.0529 25.1536 52.2845 25.3875 52.5703 25.3875Z" fill="black" stroke="black"/>
</svg>