<svg xmlns="http://www.w3.org/2000/svg" width="75" height="65" viewBox="0 0 75 65" fill="none">
  <path d="M25.3329 15.2041C26.0743 15.2041 26.6754 14.5951 26.6754 13.8438C26.6754 13.0925 26.0743 12.4834 25.3329 12.4834C24.5914 12.4834 23.9904 13.0925 23.9904 13.8438C23.9904 14.5951 24.5914 15.2041 25.3329 15.2041Z" fill="black"/>
  <path d="M24.4073 13.6922C24.6914 13.6922 24.9218 13.4588 24.9218 13.1708C24.9218 12.8828 24.6914 12.6494 24.4073 12.6494C24.1231 12.6494 23.8927 12.8828 23.8927 13.1708C23.8927 13.4588 24.1231 13.6922 24.4073 13.6922Z" fill="white"/>
  <path fill-rule="evenodd" clip-rule="evenodd" d="M30.6604 15.5364C32.1713 15.3184 28.4759 13.0717 28.2981 12.9389C27.4795 12.3464 26.3943 11.9815 25.2389 11.9199C22.6193 11.7824 21.5107 12.8773 19.6349 14.3704C19.6349 14.3704 20.3319 14.2709 21.085 15.1146C21.8381 15.9583 24.7383 16.9679 27.2643 16.3422C29.7856 15.7165 30.6604 15.5364 30.6604 15.5364V15.5364Z" stroke="black" stroke-miterlimit="2.61313" stroke-linecap="round" stroke-linejoin="round"/>
  <mask id="mask0_13380_8967" style="mask-type:alpha" maskUnits="userSpaceOnUse" x="22" y="10" width="7" height="7">
    <path d="M25.328 16.299C26.6688 16.299 27.7558 15.1976 27.7558 13.8389C27.7558 12.4803 26.6688 11.3789 25.328 11.3789C23.9872 11.3789 22.9003 12.4803 22.9003 13.8389C22.9003 15.1976 23.9872 16.299 25.328 16.299Z" stroke="black" stroke-miterlimit="2.61313" stroke-linecap="round" stroke-linejoin="round"/>
  </mask>
  <g mask="url(#mask0_13380_8967)">
    <path fill-rule="evenodd" clip-rule="evenodd" d="M30.6601 15.5364C32.1711 15.3184 28.4756 13.0717 28.2979 12.9389C27.4793 12.3464 26.394 11.9815 25.2386 11.9199C22.6191 11.7824 21.5104 12.8773 19.6346 14.3704C19.6346 14.3704 20.3316 14.2709 21.0848 15.1146C21.8379 15.9583 24.7381 16.9679 27.2641 16.3422C29.7854 15.7165 30.6601 15.5364 30.6601 15.5364Z" fill="black" stroke="black" stroke-miterlimit="2.61313" stroke-linecap="round" stroke-linejoin="round"/>
  </g>
  <path d="M30.3076 14.5615C30.3076 14.5615 29.8386 15.0497 30.0309 15.6233" stroke="black" stroke-miterlimit="2.61313" stroke-linecap="round" stroke-linejoin="round"/>
  <path d="M30.8808 13.8681C30.8808 13.8681 29.1734 10.8488 25.1599 10.8061C21.1464 10.7682 19.1583 13.2424 19.1583 13.2424" stroke="black" stroke-miterlimit="2.61313" stroke-linecap="round" stroke-linejoin="round"/>
  <path fill-rule="evenodd" clip-rule="evenodd" d="M31.3793 9.56189C31.3793 9.56189 32.095 8.62338 30.0274 7.52372C30.0274 7.52372 22.5196 5.26751 20.7701 5.48555C19.0206 5.70358 16.2794 7.93135 16.2794 7.93135C16.2794 7.93135 19.3387 6.74163 22.833 7.68014C26.3273 8.61864 31.0191 9.93634 31.3746 9.56189H31.3793Z" stroke="black" stroke-miterlimit="2.61313" stroke-linecap="round" stroke-linejoin="round"/>
  <path d="M37.3737 31.4438C37.3737 31.4438 36.3913 31.4723 35.9937 31.0125C35.5961 30.5575 34.5904 30.1546 33.7952 30.2067" stroke="black" stroke-miterlimit="2.61313" stroke-linecap="round" stroke-linejoin="round"/>
  <path d="M32.652 27.9502C32.652 27.9502 31.3282 30.7705 34.0834 31.2255" stroke="black" stroke-miterlimit="2.61313" stroke-linecap="round" stroke-linejoin="round"/>
  <path d="M33.1836 12.792C33.1836 12.792 35.5693 14.9392 35.0921 20.8499" stroke="black" stroke-miterlimit="2.61313" stroke-linecap="round" stroke-linejoin="round"/>
  <path fill-rule="evenodd" clip-rule="evenodd" d="M37.5115 36.8422C37.5115 36.8422 35.5608 35.8752 34.1856 36.681C32.8056 37.4868 28.881 39.4728 28.881 39.4728C28.881 39.4728 30.6305 44.9 37.5115 44.9C44.3925 44.9 46.1419 39.4728 46.1419 39.4728C46.1419 39.4728 42.2173 37.4868 40.8374 36.681C39.4574 35.8752 37.5115 36.8422 37.5115 36.8422Z" stroke="black" stroke-miterlimit="2.61313" stroke-linecap="round" stroke-linejoin="round"/>
  <path d="M37.5122 40.1431C37.5122 40.1431 37.0211 40.1147 36.4129 39.8635C35.8048 39.6075 32.7549 39.489 31.2674 39.835C29.7845 40.1858 29.3308 39.3516 27.7404 39.3516" stroke="black" stroke-miterlimit="2.61313" stroke-linecap="round" stroke-linejoin="round"/>
  <path d="M9.88879 12.9443C9.88879 12.9443 13.0603 26.4532 14.7537 33.492C16.4517 40.5308 16.8727 41.711 20.5868 45.2612C24.301 48.8067 31.4206 55.471 37.5204 55.471" stroke="black" stroke-miterlimit="2.61313" stroke-linecap="round" stroke-linejoin="round"/>
  <path d="M7.59473 11.085C7.59473 11.085 5.55055 11.1134 6.24286 14.1185C6.93049 17.1284 9.42374 21.4796 9.74183 24.7028C10.0599 27.926 11.3089 28.8787 13.601 28.6701" stroke="black" stroke-miterlimit="2.61313" stroke-linecap="round" stroke-linejoin="round"/>
  <path d="M8.11926 15.5734C8.11926 15.5734 8.45606 14.123 9.12966 14.6065C9.80326 15.09 11.2206 18.9056 11.2206 18.9056C11.2206 18.9056 10.3085 20.8395 10.8137 21.432C11.3189 22.0245 12.3012 23.2237 12.3012 23.2237" stroke="black" stroke-miterlimit="2.61313" stroke-linecap="round" stroke-linejoin="round"/>
  <path d="M49.7098 15.2041C50.4513 15.2041 51.0524 14.5951 51.0524 13.8438C51.0524 13.0925 50.4513 12.4834 49.7098 12.4834C48.9684 12.4834 48.3673 13.0925 48.3673 13.8438C48.3673 14.5951 48.9684 15.2041 49.7098 15.2041Z" fill="black"/>
  <path d="M48.7842 13.6922C49.0684 13.6922 49.2988 13.4588 49.2988 13.1708C49.2988 12.8828 49.0684 12.6494 48.7842 12.6494C48.5 12.6494 48.2697 12.8828 48.2697 13.1708C48.2697 13.4588 48.5 13.6922 48.7842 13.6922Z" fill="white"/>
  <path fill-rule="evenodd" clip-rule="evenodd" d="M44.3719 15.5364C42.861 15.3184 46.5565 13.0717 46.7342 12.9389C47.5528 12.3464 48.6381 11.9815 49.7935 11.9199C52.413 11.7824 53.5217 12.8773 55.3974 14.3704C55.3974 14.3704 54.7004 14.2709 53.9473 15.1146C53.1942 15.9583 50.294 16.9679 47.768 16.3422C45.2467 15.7165 44.3719 15.5364 44.3719 15.5364V15.5364Z" stroke="black" stroke-miterlimit="2.61313" stroke-linecap="round" stroke-linejoin="round"/>
  <mask id="mask1_13380_8967" style="mask-type:alpha" maskUnits="userSpaceOnUse" x="46" y="10" width="7" height="7">
    <path d="M49.7052 16.299C51.046 16.299 52.133 15.1976 52.133 13.8389C52.133 12.4803 51.046 11.3789 49.7052 11.3789C48.3644 11.3789 47.2775 12.4803 47.2775 13.8389C47.2775 15.1976 48.3644 16.299 49.7052 16.299Z" stroke="black" stroke-miterlimit="2.61313" stroke-linecap="round" stroke-linejoin="round"/>
  </mask>
  <g mask="url(#mask1_13380_8967)">
    <path fill-rule="evenodd" clip-rule="evenodd" d="M44.3719 15.5364C42.861 15.3184 46.5565 13.0717 46.7342 12.9389C47.5528 12.3464 48.6381 11.9815 49.7935 11.9199C52.413 11.7824 53.5216 12.8773 55.3974 14.3704C55.3974 14.3704 54.7004 14.2709 53.9473 15.1146C53.1942 15.9583 50.294 16.9679 47.768 16.3422C45.2467 15.7165 44.3719 15.5364 44.3719 15.5364Z" fill="black" stroke="black" stroke-miterlimit="2.61313" stroke-linecap="round" stroke-linejoin="round"/>
  </g>
  <path d="M44.7189 14.5615C44.7189 14.5615 45.1879 15.0497 44.9956 15.6233" stroke="black" stroke-miterlimit="2.61313" stroke-linecap="round" stroke-linejoin="round"/>
  <path d="M44.1525 13.8681C44.1525 13.8681 45.8599 10.8488 49.8734 10.8061C53.8869 10.7682 55.875 13.2424 55.875 13.2424" stroke="black" stroke-miterlimit="2.61313" stroke-linecap="round" stroke-linejoin="round"/>
  <path fill-rule="evenodd" clip-rule="evenodd" d="M43.6531 9.56189C43.6531 9.56189 42.9374 8.62338 45.005 7.52372C45.005 7.52372 52.5128 5.26751 54.2623 5.48555C56.0118 5.70358 58.7529 7.93135 58.7529 7.93135C58.7529 7.93135 55.6937 6.74163 52.1994 7.68014C48.7051 8.61864 44.0133 9.93634 43.6578 9.56189H43.6531Z" stroke="black" stroke-miterlimit="2.61313" stroke-linecap="round" stroke-linejoin="round"/>
  <path d="M37.6583 31.4438C37.6583 31.4438 38.6407 31.4723 39.0383 31.0125C39.4359 30.5575 40.4416 30.1546 41.2368 30.2067" stroke="black" stroke-miterlimit="2.61313" stroke-linecap="round" stroke-linejoin="round"/>
  <path d="M42.3788 27.9502C42.3788 27.9502 43.7026 30.7705 40.9474 31.2255" stroke="black" stroke-miterlimit="2.61313" stroke-linecap="round" stroke-linejoin="round"/>
  <path d="M41.8526 12.792C41.8526 12.792 39.4669 14.9392 39.9441 20.8499" stroke="black" stroke-miterlimit="2.61313" stroke-linecap="round" stroke-linejoin="round"/>
  <path d="M37.5157 40.1431C37.5157 40.1431 38.0069 40.1147 38.615 39.8635C39.2231 39.6075 42.273 39.489 43.7606 39.835C45.2434 40.1858 45.6972 39.3516 47.2876 39.3516" stroke="black" stroke-miterlimit="2.61313" stroke-linecap="round" stroke-linejoin="round"/>
  <path d="M65.1473 12.9443C65.1473 12.9443 61.9758 26.4532 60.2824 33.492C58.5844 40.5308 58.1634 41.711 54.4493 45.2612C50.7351 48.8067 43.6156 55.471 37.5157 55.471" stroke="black" stroke-miterlimit="2.61313" stroke-linecap="round" stroke-linejoin="round"/>
  <path d="M67.438 11.085C67.438 11.085 69.4822 11.1134 68.7899 14.1185C68.1023 17.1284 65.609 21.4796 65.2909 24.7028C64.9728 27.926 63.7239 28.8787 61.4318 28.6701" stroke="black" stroke-miterlimit="2.61313" stroke-linecap="round" stroke-linejoin="round"/>
  <path d="M66.9103 15.5734C66.9103 15.5734 66.5735 14.123 65.8999 14.6065C65.2263 15.09 63.809 18.9056 63.809 18.9056C63.809 18.9056 64.7211 20.8395 64.2159 21.432C63.7107 22.0245 62.7284 23.2237 62.7284 23.2237" stroke="black" stroke-miterlimit="2.61313" stroke-linecap="round" stroke-linejoin="round"/>
  <path fill-rule="evenodd" clip-rule="evenodd" d="M53.1095 15.793C47.0527 15.793 42.1388 20.7165 42.1388 26.793C42.1388 32.8694 47.0481 37.793 53.1095 37.793C59.1663 37.793 64.0803 32.8694 64.0803 26.793C64.0803 20.7165 59.171 15.793 53.1095 15.793Z" fill="url(#paint0_radial_13380_8967)"/>
  <path fill-rule="evenodd" clip-rule="evenodd" d="M22.2423 15.793C16.1855 15.793 11.2716 20.7165 11.2716 26.793C11.2716 32.8694 16.1809 37.793 22.2423 37.793C28.2992 37.793 33.2131 32.8694 33.2131 26.793C33.2131 20.7165 28.3038 15.793 22.2423 15.793Z" fill="url(#paint1_radial_13380_8967)"/>
  <defs>
    <radialGradient id="paint0_radial_13380_8967" cx="0" cy="0" r="1" gradientUnits="userSpaceOnUse" gradientTransform="translate(53.1095 26.793) rotate(90) scale(11 10.9707)">
      <stop stop-opacity="0.3"/>
      <stop offset="1" stop-color="#D1D1D1" stop-opacity="0"/>
    </radialGradient>
    <radialGradient id="paint1_radial_13380_8967" cx="0" cy="0" r="1" gradientUnits="userSpaceOnUse" gradientTransform="translate(22.2424 26.793) rotate(90) scale(11 10.9707)">
      <stop stop-opacity="0.3"/>
      <stop offset="1" stop-color="#D1D1D1" stop-opacity="0"/>
    </radialGradient>
  </defs>
</svg>