<svg xmlns="http://www.w3.org/2000/svg" width="75" height="65" viewBox="0 0 75 65" fill="none">
  <path d="M25.514 17.1864C26.2606 17.1864 26.8658 16.5796 26.8658 15.831C26.8658 15.0824 26.2606 14.4756 25.514 14.4756C24.7675 14.4756 24.1622 15.0824 24.1622 15.831C24.1622 16.5796 24.7675 17.1864 25.514 17.1864Z" fill="black"/>
  <path d="M24.586 15.6872C24.8739 15.6872 25.1074 15.4531 25.1074 15.1644C25.1074 14.8757 24.8739 14.6416 24.586 14.6416C24.298 14.6416 24.0646 14.8757 24.0646 15.1644C24.0646 15.4531 24.298 15.6872 24.586 15.6872Z" fill="white"/>
  <path fill-rule="evenodd" clip-rule="evenodd" d="M30.9105 17.5268C32.4361 17.3042 28.6993 15.0581 28.5255 14.9322C27.6952 14.3416 26.6041 13.9737 25.4357 13.9156C22.7901 13.7801 21.67 14.8741 19.7775 16.3651C19.7775 16.3651 20.4823 16.2682 21.2451 17.1105C22.0079 17.9528 24.9433 18.9597 27.4924 18.3401C30.0415 17.7205 30.9298 17.5365 30.9298 17.5365L30.9105 17.5268Z" stroke="black" stroke-miterlimit="2.61313" stroke-linecap="round" stroke-linejoin="round"/>
  <mask id="mask0_13380_8917" style="mask-type:alpha" maskUnits="userSpaceOnUse" x="22" y="12" width="7" height="7">
    <path d="M25.5171 18.2912C26.8716 18.2912 27.9697 17.1903 27.9697 15.8321C27.9697 14.474 26.8716 13.373 25.5171 13.373C24.1626 13.373 23.0646 14.474 23.0646 15.8321C23.0646 17.1903 24.1626 18.2912 25.5171 18.2912Z" stroke="black" stroke-miterlimit="2.61313" stroke-linecap="round" stroke-linejoin="round"/>
  </mask>
  <g mask="url(#mask0_13380_8917)">
    <path fill-rule="evenodd" clip-rule="evenodd" d="M30.9125 17.5278C32.4381 17.3051 28.7013 15.059 28.5275 14.9332C27.6971 14.3426 26.606 13.9747 25.4377 13.9166C22.792 13.7811 21.6719 14.8751 19.7794 16.366C19.7794 16.366 20.4843 16.2692 21.2471 17.1115C22.0099 17.9538 24.9452 18.9607 27.4943 18.3411C30.0434 17.7214 30.9318 17.5375 30.9318 17.5375L30.9125 17.5278Z" fill="black" stroke="black" stroke-miterlimit="2.61313" stroke-linecap="round" stroke-linejoin="round"/>
  </g>
  <path d="M30.5578 16.5576C30.5578 16.5576 30.0834 17.0514 30.277 17.6226" stroke="black" stroke-miterlimit="2.61313" stroke-linecap="round" stroke-linejoin="round"/>
  <path d="M31.127 15.8615C31.127 15.8615 29.3986 12.8409 25.3432 12.8022C21.2878 12.7635 19.2794 15.2419 19.2794 15.2419" stroke="black" stroke-miterlimit="2.61313" stroke-linecap="round" stroke-linejoin="round"/>
  <path fill-rule="evenodd" clip-rule="evenodd" d="M31.6351 11.5524C31.6351 11.5524 32.3592 10.6133 30.2736 9.51927C30.2736 9.51927 22.6842 7.26349 20.9172 7.48617C19.1502 7.70884 16.379 9.92589 16.379 9.92589C16.379 9.92589 19.4689 8.73508 23.0029 9.67418C26.5368 10.6133 31.2778 11.93 31.6351 11.5524V11.5524Z" stroke="black" stroke-miterlimit="2.61313" stroke-linecap="round" stroke-linejoin="round"/>
  <path d="M37.6914 33.4343C37.6914 33.4343 36.6969 33.4634 36.301 33.0083C35.8955 32.5533 34.8816 32.1467 34.0802 32.2048" stroke="black" stroke-miterlimit="2.61313" stroke-linecap="round" stroke-linejoin="round"/>
  <path d="M32.9263 29.9473C32.9263 29.9473 31.5841 32.7646 34.3746 33.2293" stroke="black" stroke-miterlimit="2.61313" stroke-linecap="round" stroke-linejoin="round"/>
  <path d="M33.4552 14.7852C33.4552 14.7852 35.8691 16.9344 35.3863 22.8498" stroke="black" stroke-miterlimit="2.61313" stroke-linecap="round" stroke-linejoin="round"/>
  <path fill-rule="evenodd" clip-rule="evenodd" d="M37.8423 38.8341C37.8423 38.8341 35.8725 37.866 34.4821 38.6695C33.0917 39.4731 29.1232 41.4675 29.1232 41.4675C29.1232 41.4675 30.8902 46.8988 37.8423 46.8988C44.7944 46.8988 46.5614 41.4675 46.5614 41.4675C46.5614 41.4675 42.5929 39.4828 41.2025 38.6695C39.812 37.866 37.8423 38.8341 37.8423 38.8341V38.8341Z" stroke="black" stroke-miterlimit="2.61313" stroke-linecap="round" stroke-linejoin="round"/>
  <path d="M37.837 42.1367C37.837 42.1367 37.3446 42.1076 36.7266 41.8559C36.1086 41.6042 33.0285 41.4783 31.5318 41.8268C30.0352 42.1754 29.5717 41.3428 27.9689 41.3428" stroke="black" stroke-miterlimit="2.61313" stroke-linecap="round" stroke-linejoin="round"/>
  <path d="M9.91223 14.9404C9.91223 14.9404 13.1179 28.4558 14.827 35.4942C16.5457 42.5326 16.9706 43.7138 20.717 47.2572C24.4731 50.8006 31.6666 57.4711 37.8269 57.4711" stroke="black" stroke-miterlimit="2.61313" stroke-linecap="round" stroke-linejoin="round"/>
  <path d="M7.59818 13.0811C7.59818 13.0811 5.53185 13.1101 6.22706 16.121C6.92228 19.132 9.44242 23.479 9.76106 26.7029C10.0797 29.9268 11.3446 30.8756 13.662 30.6723" stroke="black" stroke-miterlimit="2.61313" stroke-linecap="round" stroke-linejoin="round"/>
  <path d="M8.12708 17.564C8.12708 17.564 8.46502 16.1118 9.15058 16.5959C9.83614 17.0799 11.2652 20.8944 11.2652 20.8944C11.2652 20.8944 10.3479 22.8307 10.8596 23.4213C11.3714 24.0119 12.3563 25.2124 12.3563 25.2124" stroke="black" stroke-miterlimit="2.61313" stroke-linecap="round" stroke-linejoin="round"/>
  <path d="M50.1586 17.1864C50.9051 17.1864 51.5104 16.5796 51.5104 15.831C51.5104 15.0824 50.9051 14.4756 50.1586 14.4756C49.412 14.4756 48.8068 15.0824 48.8068 15.831C48.8068 16.5796 49.412 17.1864 50.1586 17.1864Z" fill="black"/>
  <path d="M49.2227 15.6872C49.5107 15.6872 49.7441 15.4531 49.7441 15.1644C49.7441 14.8757 49.5107 14.6416 49.2227 14.6416C48.9347 14.6416 48.7013 14.8757 48.7013 15.1644C48.7013 15.4531 48.9347 15.6872 49.2227 15.6872Z" fill="white"/>
  <path fill-rule="evenodd" clip-rule="evenodd" d="M44.7559 17.5268C43.2303 17.3042 46.9671 15.0581 47.1409 14.9322C47.9713 14.3416 49.0624 13.9737 50.2307 13.9156C52.8764 13.7801 53.9965 14.8741 55.889 16.3651C55.889 16.3651 55.1841 16.2682 54.4213 17.1105C53.6585 17.9528 50.7232 18.9597 48.1741 18.3401C45.6249 17.7205 44.7366 17.5365 44.7366 17.5365L44.7559 17.5268Z" stroke="black" stroke-miterlimit="2.61313" stroke-linecap="round" stroke-linejoin="round"/>
  <mask id="mask1_13380_8917" style="mask-type:alpha" maskUnits="userSpaceOnUse" x="47" y="12" width="7" height="7">
    <path d="M50.1597 18.2912C51.5142 18.2912 52.6123 17.1903 52.6123 15.8321C52.6123 14.474 51.5142 13.373 50.1597 13.373C48.8052 13.373 47.7072 14.474 47.7072 15.8321C47.7072 17.1903 48.8052 18.2912 50.1597 18.2912Z" stroke="black" stroke-miterlimit="2.61313" stroke-linecap="round" stroke-linejoin="round"/>
  </mask>
  <g mask="url(#mask1_13380_8917)">
    <path fill-rule="evenodd" clip-rule="evenodd" d="M44.7559 17.5278C43.2303 17.3051 46.9671 15.059 47.1409 14.9332C47.9713 14.3426 49.0624 13.9747 50.2307 13.9166C52.8764 13.7811 53.9965 14.8751 55.889 16.366C55.889 16.366 55.1841 16.2692 54.4213 17.1115C53.6585 17.9538 50.7232 18.9607 48.1741 18.3411C45.6249 17.7214 44.7366 17.5375 44.7366 17.5375L44.7559 17.5278Z" fill="black" stroke="black" stroke-miterlimit="2.61313" stroke-linecap="round" stroke-linejoin="round"/>
  </g>
  <path d="M45.1134 16.5576C45.1134 16.5576 45.5878 17.0514 45.3942 17.6226" stroke="black" stroke-miterlimit="2.61313" stroke-linecap="round" stroke-linejoin="round"/>
  <path d="M44.5333 15.8615C44.5333 15.8615 46.2617 12.8409 50.3171 12.8022C54.3725 12.7635 56.3809 15.2419 56.3809 15.2419" stroke="black" stroke-miterlimit="2.61313" stroke-linecap="round" stroke-linejoin="round"/>
  <path fill-rule="evenodd" clip-rule="evenodd" d="M44.0301 11.5524C44.0301 11.5524 43.3059 10.6133 45.3915 9.51927C45.3915 9.51927 52.9809 7.26349 54.7479 7.48617C56.5149 7.70884 59.2861 9.92589 59.2861 9.92589C59.2861 9.92589 56.1963 8.73508 52.6623 9.67418C49.1283 10.6133 44.3873 11.93 44.0301 11.5524V11.5524Z" stroke="black" stroke-miterlimit="2.61313" stroke-linecap="round" stroke-linejoin="round"/>
  <path d="M37.9786 33.4343C37.9786 33.4343 38.9732 33.4634 39.3691 33.0083C39.7746 32.5533 40.7884 32.1467 41.5899 32.2048" stroke="black" stroke-miterlimit="2.61313" stroke-linecap="round" stroke-linejoin="round"/>
  <path d="M42.7493 29.9473C42.7493 29.9473 44.0914 32.7646 41.3009 33.2293" stroke="black" stroke-miterlimit="2.61313" stroke-linecap="round" stroke-linejoin="round"/>
  <path d="M42.2119 14.7852C42.2119 14.7852 39.798 16.9344 40.2808 22.8498" stroke="black" stroke-miterlimit="2.61313" stroke-linecap="round" stroke-linejoin="round"/>
  <path d="M37.8341 42.1367C37.8341 42.1367 38.3265 42.1076 38.9445 41.8559C39.5625 41.6042 42.6427 41.4783 44.1393 41.8268C45.6359 42.1754 46.0994 41.3428 47.7022 41.3428" stroke="black" stroke-miterlimit="2.61313" stroke-linecap="round" stroke-linejoin="round"/>
  <path d="M65.7565 14.9404C65.7565 14.9404 62.5508 28.4558 60.8417 35.4942C59.123 42.5326 58.6981 43.7138 54.9517 47.2572C51.1956 50.8006 44.0021 57.4711 37.8418 57.4711" stroke="black" stroke-miterlimit="2.61313" stroke-linecap="round" stroke-linejoin="round"/>
  <path d="M68.0737 13.0811C68.0737 13.0811 70.14 13.1101 69.4448 16.121C68.7496 19.132 66.2294 23.479 65.9108 26.7029C65.5922 29.9268 64.3273 30.8756 62.0099 30.6723" stroke="black" stroke-miterlimit="2.61313" stroke-linecap="round" stroke-linejoin="round"/>
  <path d="M67.5361 17.564C67.5361 17.564 67.1981 16.1118 66.5126 16.5959C65.827 17.0799 64.398 20.8944 64.398 20.8944C64.398 20.8944 65.3153 22.8307 64.8035 23.4213C64.2918 24.0119 63.3069 25.2124 63.3069 25.2124" stroke="black" stroke-miterlimit="2.61313" stroke-linecap="round" stroke-linejoin="round"/>
  <path fill-rule="evenodd" clip-rule="evenodd" d="M16.2443 51.7166C21.0335 51.7166 24.9151 47.0308 24.9151 41.251C24.9151 47.0308 28.7967 51.7166 33.5859 51.7166C28.7967 51.7166 24.9151 56.4025 24.9151 62.1823C24.9151 56.4025 21.0335 51.7166 16.2443 51.7166Z" fill="white" stroke="black" stroke-miterlimit="2.61313" stroke-linecap="round" stroke-linejoin="round"/>
  <path fill-rule="evenodd" clip-rule="evenodd" d="M6.08411 44.3196C8.58494 44.3196 10.6126 41.7153 10.6126 38.5107C10.6126 41.7153 12.6403 44.3196 15.1412 44.3196C12.6403 44.3196 10.6126 46.9239 10.6126 50.1285C10.6126 46.9239 8.58494 44.3196 6.08411 44.3196Z" fill="white" stroke="black" stroke-miterlimit="2.61313" stroke-linecap="round" stroke-linejoin="round"/>
  <path fill-rule="evenodd" clip-rule="evenodd" d="M59.2013 31.94C61.4683 31.94 63.3064 29.6687 63.3064 26.874C63.3064 29.6687 65.1445 31.94 67.4116 31.94C65.1445 31.94 63.3064 34.2112 63.3064 37.0059C63.3064 34.2112 61.4683 31.94 59.2013 31.94Z" fill="white" stroke="black" stroke-miterlimit="2.61313" stroke-linecap="round" stroke-linejoin="round"/>
</svg>