<svg xmlns="http://www.w3.org/2000/svg" width="76" height="65" viewBox="0 0 76 65" fill="none">
  <circle cx="17.696" cy="42.0346" r="2.99065" fill="black"/>
  <circle cx="36.7617" cy="42.0346" r="2.99065" fill="black"/>
  <circle cx="28.1637" cy="49.8852" r="2.99065" fill="black"/>
  <circle cx="55.8268" cy="42.0346" r="2.99065" fill="black"/>
  <circle cx="47.2281" cy="49.8852" r="2.99065" fill="black"/>
  <path d="M8.59985 32.2903C11.3213 32.2903 12.727 31.453 13.983 30.7053C15.1195 30.0174 16.1064 29.4492 18.1699 29.4492C20.2335 29.4492 21.2204 30.0174 22.3568 30.7053C23.6129 31.453 25.0185 32.2903 27.74 32.2903C30.4615 32.2903 31.8671 31.453 33.1232 30.7053C34.2597 30.0174 35.2466 29.4492 37.2802 29.4492C39.3139 29.4492 40.3307 30.0174 41.4372 30.7053C42.6933 31.453 44.0989 32.2903 46.8204 32.2903C49.5419 32.2903 50.9475 31.453 52.2036 30.7053C53.3401 30.0174 54.327 29.4492 56.3606 29.4492C58.3943 29.4492 59.3812 30.0174 60.5176 30.7053C61.7737 31.453 63.1793 32.2903 65.9008 32.2903" stroke="black"/>
  <path d="M8.59985 20.7266H66.1699" stroke="black"/>
  <path d="M8.59985 12.876H66.1699" stroke="black"/>
</svg>