<svg width="40" height="41" viewBox="0 0 40 41" fill="none" xmlns="http://www.w3.org/2000/svg">
<path fill-rule="evenodd" clip-rule="evenodd" d="M20.0003 3.83317C10.7956 3.83317 3.33366 11.2951 3.33366 20.4998C3.33366 20.7662 3.33989 21.031 3.35224 21.2942C3.37379 21.7538 3.01858 22.144 2.55884 22.1657C2.09911 22.1872 1.70896 21.832 1.68739 21.3722C1.67384 21.083 1.66699 20.7922 1.66699 20.4998C1.66699 10.3746 9.87511 2.1665 20.0003 2.1665C26.202 2.1665 31.6833 5.24584 35.0005 9.95669L35.0003 2.99984C35.0003 2.5396 35.3735 2.1665 35.8337 2.1665C36.2938 2.1665 36.667 2.5396 36.667 2.99984V12.9998C36.667 13.4601 36.2938 13.8332 35.8337 13.8332H25.8337C25.3735 13.8332 25.0003 13.4601 25.0003 12.9998C25.0003 12.5396 25.3735 12.1665 25.8337 12.1665L34.4375 12.1666C31.555 7.18352 26.1682 3.83317 20.0003 3.83317ZM37.4418 18.8342C37.9017 18.8125 38.2918 19.1678 38.3133 19.6275C38.3268 19.9167 38.3338 20.2075 38.3338 20.4998C38.3338 30.625 30.1257 38.8332 20.0005 38.8332C13.7988 38.8332 8.31751 35.7538 5.00033 31.043V37.9998C5.00033 38.4602 4.62723 38.8332 4.16699 38.8332C3.70676 38.8332 3.33366 38.4602 3.33366 37.9998V27.9998C3.33366 27.5397 3.70676 27.1665 4.16699 27.1665H14.167C14.6272 27.1665 15.0003 27.5397 15.0003 27.9998C15.0003 28.4602 14.6272 28.8332 14.167 28.8332H5.56326C8.44584 33.8162 13.8326 37.1665 20.0005 37.1665C29.2052 37.1665 36.6672 29.7047 36.6672 20.4998C36.6672 20.2335 36.6608 19.9687 36.6485 19.7055C36.627 19.2458 36.9822 18.8557 37.4418 18.8342Z" fill="black"/>
</svg>
