<svg xmlns="http://www.w3.org/2000/svg" width="41" height="41" viewBox="0 0 41 41" fill="none">
  <path d="M18.4737 23.9396C18.3933 23.9473 18.3127 23.927 18.2456 23.8821C18.1785 23.8372 18.129 23.7705 18.1054 23.6932C18.0819 23.616 18.0858 23.533 18.1164 23.4583C18.1471 23.3836 18.2027 23.3217 18.2737 23.2833L18.7925 22.9771L18.5425 22.8271C18.5014 22.8025 18.4656 22.77 18.4371 22.7315C18.4086 22.6931 18.388 22.6494 18.3764 22.603C18.3648 22.5565 18.3624 22.5083 18.3695 22.4609C18.3765 22.4136 18.3928 22.3681 18.4175 22.3271C18.4421 22.286 18.4745 22.2503 18.513 22.2218C18.5514 22.1933 18.5951 22.1726 18.6416 22.161C18.688 22.1494 18.7363 22.1471 18.7836 22.1541C18.8309 22.1612 18.8764 22.1775 18.9175 22.2021L19.6487 22.6646C19.7 22.6956 19.7421 22.7398 19.7707 22.7925C19.7992 22.8453 19.8132 22.9046 19.8112 22.9646C19.8119 23.025 19.7967 23.0846 19.7671 23.1372C19.7375 23.1899 19.6945 23.2338 19.6425 23.2646L18.63 23.8896C18.5822 23.9176 18.5288 23.9347 18.4737 23.9396Z" fill="black"/>
  <path d="M13.1924 10.1959C13.1014 10.1949 13.0142 10.1591 12.9487 10.0959C12.9146 10.0638 12.8876 10.0251 12.8693 9.98201C12.851 9.93898 12.8419 9.89261 12.8424 9.84585C12.8419 9.79909 12.851 9.75273 12.8693 9.70969C12.8876 9.66666 12.9146 9.62789 12.9487 9.59585C12.9805 9.56195 13.0194 9.53543 13.0626 9.51816C13.1058 9.50088 13.1522 9.49327 13.1987 9.49585H13.2362C13.329 9.49585 13.418 9.53273 13.4837 9.59837C13.5493 9.664 13.5862 9.75303 13.5862 9.84585C13.5862 9.93868 13.5493 10.0277 13.4837 10.0933C13.418 10.159 13.329 10.1959 13.2362 10.1959H13.1924Z" fill="black"/>
  <path d="M16.2425 13.9457C16.1958 13.9455 16.1497 13.9361 16.1067 13.9178C16.0638 13.8996 16.0249 13.8729 15.9925 13.8395C15.9288 13.7717 15.8931 13.6824 15.8925 13.5895V13.5395C15.8925 13.4466 15.9293 13.3576 15.995 13.292C16.0606 13.2263 16.1496 13.1895 16.2425 13.1895C16.3359 13.1894 16.4255 13.2261 16.4922 13.2916C16.5588 13.357 16.5971 13.4461 16.5987 13.5395V13.5895C16.5985 13.6361 16.5891 13.6822 16.5708 13.7252C16.5526 13.7681 16.5259 13.807 16.4925 13.8395C16.4609 13.8741 16.4222 13.9016 16.3791 13.9199C16.3359 13.9383 16.2893 13.9471 16.2425 13.9457Z" fill="black"/>
  <path d="M16.2362 6.50212C16.1433 6.50212 16.0543 6.46524 15.9887 6.3996C15.923 6.33397 15.8862 6.24494 15.8862 6.15212V6.10212C15.8862 6.00904 15.922 5.91952 15.9862 5.85212C16.0187 5.81864 16.0575 5.792 16.1004 5.77375C16.1434 5.7555 16.1895 5.74602 16.2362 5.74587C16.282 5.74539 16.3274 5.75461 16.3694 5.77292C16.4114 5.79123 16.4491 5.81822 16.4799 5.85212C16.514 5.88415 16.541 5.92292 16.5593 5.96596C16.5776 6.00899 16.5867 6.05536 16.5862 6.10212V6.15212C16.5846 6.24444 16.5472 6.33253 16.4819 6.39783C16.4166 6.46312 16.3285 6.50051 16.2362 6.50212Z" fill="black"/>
  <path d="M19.2799 10.1959H19.2362C19.1433 10.1959 19.0543 10.159 18.9887 10.0933C18.923 10.0277 18.8862 9.93868 18.8862 9.84585C18.8862 9.75303 18.923 9.664 18.9887 9.59837C19.0543 9.53273 19.1433 9.49585 19.2362 9.49585H19.2799C19.3264 9.49327 19.3728 9.50088 19.416 9.51816C19.4592 9.53543 19.4981 9.56195 19.5299 9.59585C19.564 9.62789 19.591 9.66666 19.6093 9.70969C19.6276 9.75273 19.6367 9.79909 19.6362 9.84585C19.636 9.8925 19.6265 9.93865 19.6083 9.98158C19.59 10.0245 19.5634 10.0634 19.5299 10.0959C19.4622 10.1595 19.3729 10.1952 19.2799 10.1959Z" fill="black"/>
  <path d="M9.36119 22.277C9.27015 22.276 9.18293 22.2402 9.11745 22.177C9.08338 22.1449 9.05635 22.1062 9.03806 22.0631C9.01977 22.0201 9.01062 21.9737 9.01119 21.927C9.01135 21.8803 9.02083 21.8342 9.03908 21.7913C9.05732 21.7483 9.08397 21.7095 9.11745 21.677C9.15024 21.6444 9.18929 21.6187 9.23225 21.6015C9.2752 21.5843 9.32119 21.576 9.36744 21.577C9.46027 21.577 9.54929 21.6139 9.61493 21.6795C9.68057 21.7451 9.71745 21.8342 9.71745 21.927C9.71745 22.0198 9.68057 22.1088 9.61493 22.1745C9.54929 22.2401 9.46027 22.277 9.36744 22.277H9.36119Z" fill="black"/>
  <path d="M11.2799 24.6395C11.2337 24.6403 11.1878 24.6318 11.145 24.6145C11.1021 24.5972 11.0632 24.5715 11.0306 24.5388C10.9979 24.5062 10.9721 24.4672 10.9548 24.4244C10.9376 24.3815 10.9291 24.3356 10.9299 24.2895C10.9299 24.1966 10.9668 24.1076 11.0324 24.042C11.0981 23.9763 11.1871 23.9395 11.2799 23.9395C11.3728 23.9395 11.4618 23.9763 11.5274 24.042C11.5931 24.1076 11.6299 24.1966 11.6299 24.2895C11.6325 24.3359 11.6249 24.3823 11.6076 24.4255C11.5903 24.4687 11.5638 24.5076 11.5299 24.5395C11.4625 24.6036 11.373 24.6395 11.2799 24.6395Z" fill="black"/>
  <path d="M11.2799 19.9521C11.1865 19.9505 11.0975 19.9122 11.0321 19.8456C10.9666 19.7789 10.9299 19.6893 10.9299 19.5958V19.5646C10.9317 19.4719 10.9673 19.383 11.0299 19.3146C11.0977 19.2509 11.187 19.2152 11.2799 19.2146C11.373 19.2146 11.4625 19.2504 11.5299 19.3146C11.5632 19.3469 11.5893 19.3859 11.6065 19.429C11.6237 19.472 11.6317 19.5182 11.6299 19.5646V19.5958C11.6299 19.6893 11.5933 19.7789 11.5278 19.8456C11.4623 19.9122 11.3733 19.9505 11.2799 19.9521Z" fill="black"/>
  <path d="M13.1987 22.2769H13.1674C13.0746 22.2769 12.9856 22.2401 12.92 22.1744C12.8543 22.1088 12.8174 22.0198 12.8174 21.9269C12.8191 21.8335 12.8573 21.7445 12.924 21.6791C12.9906 21.6136 13.0803 21.5769 13.1737 21.5769C13.2211 21.5743 13.2685 21.5818 13.3127 21.5991C13.3569 21.6163 13.3969 21.6429 13.4299 21.6769C13.4954 21.7441 13.5333 21.8333 13.5362 21.9269C13.536 21.9736 13.5266 22.0197 13.5083 22.0627C13.4901 22.1056 13.4634 22.1444 13.4299 22.1769C13.3683 22.2383 13.2857 22.2741 13.1987 22.2769Z" fill="black"/>
  <path d="M14.7862 32.8896C14.6889 32.8922 14.5946 32.8563 14.5237 32.7896C14.4583 32.7225 14.4204 32.6333 14.4174 32.5396C14.4169 32.4929 14.426 32.4465 14.4443 32.4035C14.4626 32.3604 14.4896 32.3217 14.5237 32.2896C14.5553 32.2554 14.5941 32.2286 14.6374 32.2113C14.6806 32.194 14.7272 32.1866 14.7737 32.1896C14.8197 32.1896 14.8652 32.1987 14.9076 32.2163C14.9501 32.2339 14.9887 32.2596 15.0212 32.2921C15.0537 32.3246 15.0795 32.3632 15.0971 32.4057C15.1146 32.4481 15.1237 32.4937 15.1237 32.5396C15.1237 32.5856 15.1146 32.6311 15.0971 32.6736C15.0795 32.716 15.0537 32.7546 15.0212 32.7871C14.9887 32.8196 14.9501 32.8454 14.9076 32.863C14.8652 32.8806 14.8197 32.8896 14.7737 32.8896H14.7862Z" fill="black"/>
  <path d="M15.9925 34.3332C15.9458 34.333 15.8997 34.3236 15.8567 34.3053C15.8138 34.2871 15.7749 34.2604 15.7425 34.227C15.6788 34.1592 15.6431 34.0699 15.6425 33.977C15.6425 33.8841 15.6793 33.7951 15.745 33.7295C15.8106 33.6638 15.8996 33.627 15.9925 33.627C16.0853 33.627 16.1743 33.6638 16.2399 33.7295C16.3056 33.7951 16.3425 33.8841 16.3425 33.977C16.3455 34.0234 16.3381 34.07 16.3208 34.1133C16.3035 34.1565 16.2767 34.1954 16.2425 34.227C16.2104 34.261 16.1717 34.288 16.1286 34.3063C16.0856 34.3246 16.0392 34.3338 15.9925 34.3332Z" fill="black"/>
  <path d="M15.9925 31.4708C15.8991 31.4692 15.81 31.4309 15.7446 31.3643C15.6791 31.2976 15.6424 31.208 15.6425 31.1146C15.6425 31.0215 15.6783 30.932 15.7425 30.8645C15.7749 30.8311 15.8138 30.8044 15.8567 30.7862C15.8997 30.7679 15.9458 30.7585 15.9925 30.7583C16.0855 30.7583 16.1751 30.7941 16.2425 30.8583C16.2764 30.8902 16.3029 30.929 16.3201 30.9722C16.3374 31.0154 16.345 31.0619 16.3425 31.1083C16.3433 31.1551 16.3349 31.2016 16.3177 31.2451C16.3006 31.2887 16.2751 31.3284 16.2425 31.3621C16.21 31.3957 16.1712 31.4226 16.1283 31.4413C16.0854 31.46 16.0392 31.47 15.9925 31.4708Z" fill="black"/>
  <path d="M17.2174 32.8895C17.1715 32.8895 17.126 32.8804 17.0835 32.8628C17.041 32.8453 17.0024 32.8195 16.9699 32.787C16.9374 32.7545 16.9117 32.7159 16.8941 32.6734C16.8765 32.631 16.8674 32.5854 16.8674 32.5395C16.8666 32.4938 16.8749 32.4484 16.8918 32.406C16.9087 32.3636 16.9339 32.325 16.9659 32.2924C16.9979 32.2598 17.0361 32.2339 17.0782 32.2162C17.1203 32.1986 17.1655 32.1895 17.2112 32.1895C17.2586 32.1868 17.306 32.1944 17.3502 32.2116C17.3944 32.2289 17.4344 32.2554 17.4674 32.2895C17.5015 32.3215 17.5285 32.3603 17.5468 32.4033C17.5651 32.4464 17.5743 32.4927 17.5737 32.5395C17.5735 32.5861 17.564 32.6323 17.5458 32.6752C17.5275 32.7181 17.5009 32.757 17.4674 32.7895C17.3997 32.8531 17.3104 32.8889 17.2174 32.8895Z" fill="black"/>
  <path d="M30.9362 33.877C30.8733 33.8783 30.8113 33.862 30.7572 33.83C30.7031 33.798 30.659 33.7515 30.6299 33.6958C28.7987 30.4458 28.6987 30.452 26.2174 30.6458C25.6424 30.6895 24.9362 30.7458 24.0674 30.7708C19.6924 30.9083 19.0049 30.4645 18.3924 29.3333C17.9674 28.5583 18.3299 27.627 18.6237 26.877C18.7442 26.6168 18.8283 26.3413 18.8737 26.0583C18.8737 25.877 18.6299 25.6645 18.3924 25.4333C18.2018 25.3126 18.0376 25.1546 17.9098 24.9688C17.782 24.783 17.6931 24.5731 17.6487 24.352C17.6591 24.135 17.7213 23.9236 17.83 23.7355C17.9387 23.5475 18.0908 23.3881 18.2737 23.2708C18.4237 23.1458 18.5862 23.002 18.6112 22.902C18.5017 22.7891 18.3752 22.6942 18.2362 22.6208C17.8862 22.402 17.4174 22.1083 17.4362 21.5708C17.4696 21.364 17.5589 21.1703 17.6944 21.0106C17.8299 20.8509 18.0064 20.7312 18.2049 20.6645C18.5862 20.4458 18.8299 20.2833 18.8299 19.877C18.6666 19.6769 18.4868 19.4909 18.2924 19.3208C17.5049 18.5645 16.3174 17.4458 17.0987 16.502C17.4332 16.1792 17.812 15.9056 18.2237 15.6895C19.5424 14.8833 21.5424 13.6645 22.3924 10.9458C22.8898 9.34806 23.6456 7.84269 24.6299 6.4895C24.6567 6.45133 24.6908 6.41889 24.7302 6.39408C24.7697 6.36927 24.8137 6.35259 24.8597 6.34502C24.9057 6.33745 24.9527 6.33915 24.9981 6.35001C25.0434 6.36086 25.0861 6.38067 25.1237 6.40825C25.1984 6.46429 25.2481 6.54743 25.2622 6.63978C25.2762 6.73214 25.2534 6.8263 25.1987 6.902C24.2575 8.19163 23.5354 9.62753 23.0612 11.152C22.1362 14.127 19.9362 15.4833 18.5862 16.2895C18.2485 16.4723 17.9338 16.6947 17.6487 16.952C17.2924 17.3645 18.2299 18.2645 18.7924 18.827C19.3549 19.3895 19.5237 19.5333 19.5237 19.827C19.5246 20.1392 19.4331 20.4446 19.2607 20.7049C19.0883 20.9652 18.8427 21.1686 18.5549 21.2895C18.2987 21.4395 18.1737 21.5208 18.1674 21.6208C18.1612 21.7208 18.4299 21.9145 18.6362 22.052C18.9737 22.2583 19.3924 22.5208 19.3424 22.9958C19.2548 23.3238 19.0474 23.607 18.7612 23.7895C18.5174 24.002 18.3674 24.1395 18.3737 24.3083C18.3799 24.477 18.6237 24.7083 18.8612 24.9333C19.0534 25.0605 19.2163 25.2272 19.3391 25.4222C19.462 25.6173 19.5419 25.8362 19.5737 26.0645C19.5362 26.4367 19.4369 26.8 19.2799 27.1395C19.0362 27.7645 18.7424 28.5145 19.0049 29.0145C19.4049 29.7458 19.6674 30.227 24.0424 30.0895C24.8987 30.0895 25.5987 30.0083 26.1612 29.9645C27.4799 29.8645 28.2737 29.802 28.9987 30.2708C29.7237 30.7395 30.2112 31.5208 31.2424 33.3958C31.2874 33.4779 31.2981 33.5745 31.2724 33.6646C31.2467 33.7547 31.1865 33.831 31.1049 33.877C31.0496 33.8913 30.9915 33.8913 30.9362 33.877Z" fill="black"/>
  <path d="M27.7549 14.502C24.8737 14.502 24.2487 13.9708 24.1237 13.802L24.6862 13.3833V13.352C24.6862 13.352 25.2424 13.8208 27.9987 13.7958C28.091 13.7974 28.1791 13.8347 28.2444 13.9C28.3097 13.9653 28.3471 14.0534 28.3487 14.1458C28.3487 14.2386 28.3118 14.3276 28.2462 14.3932C28.1805 14.4589 28.0915 14.4958 27.9987 14.4958L27.7549 14.502Z" fill="black"/>
  <path d="M24.9799 14.2208C24.8936 14.2199 24.8106 14.1877 24.7462 14.1303C24.6818 14.0728 24.6405 13.9939 24.6299 13.9083C24.5838 13.244 24.6863 12.5779 24.9299 11.9583C24.9771 11.8944 25.0447 11.8485 25.1214 11.828C25.1982 11.8076 25.2796 11.8139 25.3523 11.8459C25.4251 11.8779 25.4847 11.9337 25.5215 12.0041C25.5583 12.0745 25.5701 12.1553 25.5549 12.2333C25.3534 12.7413 25.268 13.288 25.3049 13.8333C25.3137 13.9259 25.286 14.0182 25.2276 14.0906C25.1692 14.163 25.0848 14.2097 24.9924 14.2208H24.9799Z" fill="black"/>
  <path d="M29.2049 11.8645C29.1567 11.8648 29.109 11.8549 29.0648 11.8355C29.0207 11.8161 28.9811 11.7877 28.9487 11.752C27.9549 10.6645 26.6174 9.4895 26.1862 9.48325C25.9741 9.50687 25.7702 9.57889 25.5903 9.69375C25.4104 9.80862 25.2593 9.96326 25.1487 10.1458C25.1249 10.1868 25.0932 10.2227 25.0555 10.2515C25.0178 10.2803 24.9748 10.3014 24.929 10.3136C24.8831 10.3258 24.8353 10.3289 24.7883 10.3226C24.7413 10.3163 24.696 10.3008 24.6549 10.277C24.6139 10.2532 24.5779 10.2215 24.5491 10.1839C24.5203 10.1462 24.4992 10.1032 24.487 10.0573C24.4748 10.0115 24.4718 9.96366 24.4781 9.91664C24.4844 9.86961 24.4999 9.82429 24.5237 9.78325C24.6997 9.4968 24.9421 9.25695 25.2304 9.08398C25.5186 8.91101 25.8443 8.81 26.1799 8.7895C26.4674 8.7895 26.9924 8.927 28.2424 10.0395C28.8674 10.6645 29.4299 11.227 29.4549 11.252C29.4987 11.3032 29.527 11.3658 29.5366 11.4325C29.5462 11.4991 29.5367 11.5672 29.5093 11.6287C29.4818 11.6902 29.4374 11.7426 29.3814 11.7799C29.3253 11.8173 29.2598 11.8379 29.1924 11.8395L29.2049 11.8645Z" fill="black"/>
  <path d="M16.2362 13.8895C16.1433 13.8895 16.0543 13.8526 15.9887 13.787C15.923 13.7214 15.8862 13.6323 15.8862 13.5395C15.8862 11.6645 14.6987 10.1958 13.2362 10.1958C13.1433 10.1958 13.0543 10.1589 12.9887 10.0932C12.923 10.0276 12.8862 9.93858 12.8862 9.84575C12.8862 9.75293 12.923 9.6639 12.9887 9.59826C13.0543 9.53263 13.1433 9.49575 13.2362 9.49575C14.6987 9.49575 15.8862 7.99575 15.8862 6.152C15.8862 6.05918 15.923 5.97015 15.9887 5.90451C16.0543 5.83888 16.1433 5.802 16.2362 5.802C16.3296 5.80199 16.4193 5.83866 16.4859 5.90413C16.5525 5.96959 16.5908 6.05861 16.5924 6.152C16.5924 8.027 17.7799 9.49575 19.2362 9.49575C19.329 9.49575 19.418 9.53263 19.4837 9.59826C19.5493 9.6639 19.5862 9.75293 19.5862 9.84575C19.5862 9.93858 19.5493 10.0276 19.4837 10.0932C19.418 10.1589 19.329 10.1958 19.2362 10.1958C17.7799 10.1958 16.5924 11.6958 16.5924 13.5395C16.5908 13.6329 16.5525 13.7219 16.4859 13.7874C16.4193 13.8528 16.3296 13.8895 16.2362 13.8895ZM14.6049 9.84575C15.346 10.2672 15.9214 10.9285 16.2362 11.7208C16.5547 10.9288 17.1319 10.268 17.8737 9.84575C17.1319 9.42349 16.5547 8.76266 16.2362 7.97075C15.9214 8.763 15.346 9.42434 14.6049 9.84575Z" fill="black"/>
  <path d="M11.2799 24.6083C11.1871 24.6083 11.0981 24.5714 11.0324 24.5057C10.9668 24.4401 10.9299 24.3511 10.9299 24.2583C10.9299 23.1645 10.2424 22.277 9.39242 22.277C9.34646 22.277 9.30094 22.2679 9.25848 22.2504C9.21602 22.2328 9.17743 22.207 9.14493 22.1745C9.11243 22.142 9.08665 22.1034 9.06906 22.0609C9.05147 22.0185 9.04242 21.973 9.04242 21.927C9.04242 21.881 9.05147 21.8355 9.06906 21.7931C9.08665 21.7506 9.11243 21.712 9.14493 21.6795C9.17743 21.647 9.21602 21.6212 9.25848 21.6036C9.30094 21.5861 9.34646 21.577 9.39242 21.577C10.2424 21.577 10.9299 20.6895 10.9299 19.5958C10.9299 19.5029 10.9668 19.4139 11.0324 19.3483C11.0981 19.2826 11.1871 19.2458 11.2799 19.2458C11.3727 19.2458 11.4618 19.2826 11.5274 19.3483C11.593 19.4139 11.6299 19.5029 11.6299 19.5958C11.6299 20.6895 12.3237 21.577 13.1737 21.577C13.2665 21.577 13.3555 21.6139 13.4212 21.6795C13.4868 21.7452 13.5237 21.8342 13.5237 21.927C13.5237 22.0198 13.4868 22.1089 13.4212 22.1745C13.3555 22.2401 13.2665 22.277 13.1737 22.277C12.3237 22.277 11.6299 23.1645 11.6299 24.2583C11.6299 24.3511 11.593 24.4401 11.5274 24.5057C11.4618 24.5714 11.3727 24.6083 11.2799 24.6083ZM10.4987 21.9145C10.8263 22.1436 11.0942 22.448 11.2799 22.802C11.4696 22.4507 11.7368 22.1472 12.0612 21.9145C11.7368 21.6818 11.4696 21.3783 11.2799 21.027C11.0942 21.381 10.8263 21.6854 10.4987 21.9145Z" fill="black"/>
  <path d="M15.9924 34.3145C15.899 34.3129 15.81 34.2746 15.7445 34.208C15.6791 34.1413 15.6424 34.0517 15.6424 33.9583C15.6673 33.7046 15.5925 33.4512 15.4338 33.2518C15.2752 33.0523 15.0452 32.9224 14.7924 32.8895C14.6996 32.8895 14.6106 32.8526 14.5449 32.787C14.4793 32.7214 14.4424 32.6323 14.4424 32.5395C14.4424 32.4467 14.4793 32.3577 14.5449 32.292C14.6106 32.2264 14.6996 32.1895 14.7924 32.1895C15.0463 32.1566 15.2774 32.0258 15.4362 31.825C15.595 31.6241 15.669 31.3692 15.6424 31.1145C15.6424 31.0217 15.6793 30.9327 15.7449 30.867C15.8106 30.8014 15.8996 30.7645 15.9924 30.7645C16.0852 30.7645 16.1743 30.8014 16.2399 30.867C16.3055 30.9327 16.3424 31.0217 16.3424 31.1145C16.3176 31.3698 16.393 31.6248 16.5529 31.8254C16.7127 32.026 16.9443 32.1566 17.1987 32.1895C17.2915 32.1895 17.3805 32.2264 17.4462 32.292C17.5118 32.3577 17.5487 32.4467 17.5487 32.5395C17.5487 32.6323 17.5118 32.7214 17.4462 32.787C17.3805 32.8526 17.2915 32.8895 17.1987 32.8895C16.9455 32.9224 16.7148 33.0521 16.5552 33.2513C16.3955 33.4506 16.3193 33.704 16.3424 33.9583C16.3424 34.0517 16.3058 34.1413 16.2403 34.208C16.1748 34.2746 16.0858 34.3129 15.9924 34.3145ZM15.7174 32.5395C15.8201 32.6288 15.9124 32.7294 15.9924 32.8395C16.0725 32.7294 16.1647 32.6288 16.2674 32.5395C16.1647 32.4502 16.0725 32.3496 15.9924 32.2395C15.9124 32.3496 15.8201 32.4502 15.7174 32.5395Z" fill="black"/>
  <path d="M30.9362 33.877C30.8733 33.8783 30.8113 33.862 30.7572 33.83C30.7031 33.798 30.659 33.7515 30.6299 33.6958C28.7987 30.4458 28.6987 30.452 26.2174 30.6458C25.6424 30.6895 24.9362 30.7458 24.0674 30.7708C19.6924 30.9083 19.0049 30.4645 18.3924 29.3333C17.9674 28.5583 18.3299 27.627 18.6237 26.877C18.7442 26.6168 18.8283 26.3413 18.8737 26.0583C18.8737 25.877 18.6299 25.6645 18.3924 25.4333C18.2018 25.3126 18.0376 25.1546 17.9098 24.9688C17.782 24.783 17.6931 24.5731 17.6487 24.352C17.6591 24.135 17.7213 23.9236 17.83 23.7355C17.9387 23.5475 18.0908 23.3881 18.2737 23.2708C18.4237 23.1458 18.5862 23.002 18.6112 22.902C18.5017 22.7891 18.3752 22.6942 18.2362 22.6208C17.8862 22.402 17.4174 22.1083 17.4362 21.5708C17.4696 21.364 17.5589 21.1703 17.6944 21.0106C17.8299 20.8509 18.0064 20.7312 18.2049 20.6645C18.5862 20.4458 18.8299 20.2833 18.8299 19.877C18.6666 19.6769 18.4868 19.4909 18.2924 19.3208C17.5049 18.5645 16.3174 17.4458 17.0987 16.502C17.4332 16.1792 17.812 15.9056 18.2237 15.6895C19.5424 14.8833 21.5424 13.6645 22.3924 10.9458C22.8898 9.34806 23.6456 7.84269 24.6299 6.4895C24.6567 6.45133 24.6908 6.41889 24.7302 6.39408C24.7697 6.36927 24.8137 6.35259 24.8597 6.34502C24.9057 6.33745 24.9527 6.33915 24.9981 6.35001C25.0434 6.36086 25.0861 6.38067 25.1237 6.40825C25.1984 6.46429 25.2481 6.54743 25.2622 6.63978C25.2762 6.73214 25.2534 6.8263 25.1987 6.902C24.2575 8.19163 23.5354 9.62753 23.0612 11.152C22.1362 14.127 19.9362 15.4833 18.5862 16.2895C18.2485 16.4723 17.9338 16.6947 17.6487 16.952C17.2924 17.3645 18.2299 18.2645 18.7924 18.827C19.3549 19.3895 19.5237 19.5333 19.5237 19.827C19.5246 20.1392 19.4331 20.4446 19.2607 20.7049C19.0883 20.9652 18.8427 21.1686 18.5549 21.2895C18.2987 21.4395 18.1737 21.5208 18.1674 21.6208C18.1612 21.7208 18.4299 21.9145 18.6362 22.052C18.9737 22.2583 19.3924 22.5208 19.3424 22.9958C19.2548 23.3238 19.0474 23.607 18.7612 23.7895C18.5174 24.002 18.3674 24.1395 18.3737 24.3083C18.3799 24.477 18.6237 24.7083 18.8612 24.9333C19.0534 25.0605 19.2163 25.2272 19.3391 25.4222C19.462 25.6173 19.5419 25.8362 19.5737 26.0645C19.5362 26.4367 19.4369 26.8 19.2799 27.1395C19.0362 27.7645 18.7424 28.5145 19.0049 29.0145C19.4049 29.7458 19.6674 30.227 24.0424 30.0895C24.8987 30.0895 25.5987 30.0083 26.1612 29.9645C27.4799 29.8645 28.2737 29.802 28.9987 30.2708C29.7237 30.7395 30.2112 31.5208 31.2424 33.3958C31.2874 33.4779 31.2981 33.5745 31.2724 33.6646C31.2467 33.7547 31.1865 33.831 31.1049 33.877C31.0496 33.8913 30.9915 33.8913 30.9362 33.877Z" stroke="black" stroke-width="0.5"/>
  <path d="M27.7549 14.502C24.8737 14.502 24.2487 13.9708 24.1237 13.802L24.6862 13.3833V13.352C24.6862 13.352 25.2424 13.8208 27.9987 13.7958C28.091 13.7974 28.1791 13.8347 28.2444 13.9C28.3097 13.9653 28.3471 14.0534 28.3487 14.1458C28.3487 14.2386 28.3118 14.3276 28.2462 14.3932C28.1805 14.4589 28.0915 14.4958 27.9987 14.4958L27.7549 14.502Z" stroke="black" stroke-width="0.5"/>
  <path d="M24.9799 14.2208C24.8936 14.2199 24.8106 14.1877 24.7462 14.1303C24.6818 14.0728 24.6405 13.9939 24.6299 13.9083C24.5838 13.244 24.6863 12.5779 24.9299 11.9583C24.9771 11.8944 25.0447 11.8485 25.1214 11.828C25.1982 11.8076 25.2796 11.8139 25.3523 11.8459C25.4251 11.8779 25.4847 11.9337 25.5215 12.0041C25.5583 12.0745 25.5701 12.1553 25.5549 12.2333C25.3534 12.7413 25.268 13.288 25.3049 13.8333C25.3137 13.9259 25.286 14.0182 25.2276 14.0906C25.1692 14.163 25.0848 14.2097 24.9924 14.2208H24.9799Z" stroke="black" stroke-width="0.5"/>
  <path d="M29.2049 11.8645C29.1567 11.8648 29.109 11.8549 29.0648 11.8355C29.0207 11.8161 28.9811 11.7877 28.9487 11.752C27.9549 10.6645 26.6174 9.4895 26.1862 9.48325C25.9741 9.50687 25.7702 9.57889 25.5903 9.69375C25.4104 9.80862 25.2593 9.96326 25.1487 10.1458C25.1249 10.1868 25.0932 10.2227 25.0555 10.2515C25.0178 10.2803 24.9748 10.3014 24.929 10.3136C24.8831 10.3258 24.8353 10.3289 24.7883 10.3226C24.7413 10.3163 24.696 10.3008 24.6549 10.277C24.6139 10.2532 24.5779 10.2215 24.5491 10.1839C24.5203 10.1462 24.4992 10.1032 24.487 10.0573C24.4748 10.0115 24.4718 9.96366 24.4781 9.91664C24.4844 9.86961 24.4999 9.82429 24.5237 9.78325C24.6997 9.4968 24.9421 9.25695 25.2304 9.08398C25.5186 8.91101 25.8443 8.81 26.1799 8.7895C26.4674 8.7895 26.9924 8.927 28.2424 10.0395C28.8674 10.6645 29.4299 11.227 29.4549 11.252C29.4987 11.3032 29.527 11.3658 29.5366 11.4325C29.5462 11.4991 29.5367 11.5672 29.5093 11.6287C29.4818 11.6902 29.4374 11.7426 29.3814 11.7799C29.3253 11.8173 29.2598 11.8379 29.1924 11.8395L29.2049 11.8645Z" stroke="black" stroke-width="0.5"/>
  <path d="M16.2362 13.8895C16.1433 13.8895 16.0543 13.8526 15.9887 13.787C15.923 13.7214 15.8862 13.6323 15.8862 13.5395C15.8862 11.6645 14.6987 10.1958 13.2362 10.1958C13.1433 10.1958 13.0543 10.1589 12.9887 10.0932C12.923 10.0276 12.8862 9.93858 12.8862 9.84575C12.8862 9.75293 12.923 9.6639 12.9887 9.59826C13.0543 9.53263 13.1433 9.49575 13.2362 9.49575C14.6987 9.49575 15.8862 7.99575 15.8862 6.152C15.8862 6.05918 15.923 5.97015 15.9887 5.90451C16.0543 5.83888 16.1433 5.802 16.2362 5.802C16.3296 5.80199 16.4193 5.83866 16.4859 5.90413C16.5525 5.96959 16.5908 6.05861 16.5924 6.152C16.5924 8.027 17.7799 9.49575 19.2362 9.49575C19.329 9.49575 19.418 9.53263 19.4837 9.59826C19.5493 9.6639 19.5862 9.75293 19.5862 9.84575C19.5862 9.93858 19.5493 10.0276 19.4837 10.0932C19.418 10.1589 19.329 10.1958 19.2362 10.1958C17.7799 10.1958 16.5924 11.6958 16.5924 13.5395C16.5908 13.6329 16.5525 13.7219 16.4859 13.7874C16.4193 13.8528 16.3296 13.8895 16.2362 13.8895ZM14.6049 9.84575C15.346 10.2672 15.9214 10.9285 16.2362 11.7208C16.5547 10.9288 17.1319 10.268 17.8737 9.84575C17.1319 9.42349 16.5547 8.76266 16.2362 7.97075C15.9214 8.763 15.346 9.42434 14.6049 9.84575Z" stroke="black" stroke-width="0.5"/>
  <path d="M11.2799 24.6083C11.1871 24.6083 11.0981 24.5714 11.0324 24.5057C10.9668 24.4401 10.9299 24.3511 10.9299 24.2583C10.9299 23.1645 10.2424 22.277 9.39242 22.277C9.34646 22.277 9.30094 22.2679 9.25848 22.2504C9.21602 22.2328 9.17743 22.207 9.14493 22.1745C9.11243 22.142 9.08665 22.1034 9.06906 22.0609C9.05147 22.0185 9.04242 21.973 9.04242 21.927C9.04242 21.881 9.05147 21.8355 9.06906 21.7931C9.08665 21.7506 9.11243 21.712 9.14493 21.6795C9.17743 21.647 9.21602 21.6212 9.25848 21.6036C9.30094 21.5861 9.34646 21.577 9.39242 21.577C10.2424 21.577 10.9299 20.6895 10.9299 19.5958C10.9299 19.5029 10.9668 19.4139 11.0324 19.3483C11.0981 19.2826 11.1871 19.2458 11.2799 19.2458C11.3727 19.2458 11.4618 19.2826 11.5274 19.3483C11.593 19.4139 11.6299 19.5029 11.6299 19.5958C11.6299 20.6895 12.3237 21.577 13.1737 21.577C13.2665 21.577 13.3555 21.6139 13.4212 21.6795C13.4868 21.7452 13.5237 21.8342 13.5237 21.927C13.5237 22.0198 13.4868 22.1089 13.4212 22.1745C13.3555 22.2401 13.2665 22.277 13.1737 22.277C12.3237 22.277 11.6299 23.1645 11.6299 24.2583C11.6299 24.3511 11.593 24.4401 11.5274 24.5057C11.4618 24.5714 11.3727 24.6083 11.2799 24.6083ZM10.4987 21.9145C10.8263 22.1436 11.0942 22.448 11.2799 22.802C11.4696 22.4507 11.7368 22.1472 12.0612 21.9145C11.7368 21.6818 11.4696 21.3783 11.2799 21.027C11.0942 21.381 10.8263 21.6854 10.4987 21.9145Z" stroke="black" stroke-width="0.5"/>
  <path d="M15.9924 34.3145C15.899 34.3129 15.81 34.2746 15.7445 34.208C15.6791 34.1413 15.6424 34.0517 15.6424 33.9583C15.6673 33.7046 15.5925 33.4512 15.4338 33.2518C15.2752 33.0523 15.0452 32.9224 14.7924 32.8895C14.6996 32.8895 14.6106 32.8526 14.5449 32.787C14.4793 32.7214 14.4424 32.6323 14.4424 32.5395C14.4424 32.4467 14.4793 32.3577 14.5449 32.292C14.6106 32.2264 14.6996 32.1895 14.7924 32.1895C15.0463 32.1566 15.2774 32.0258 15.4362 31.825C15.595 31.6241 15.669 31.3692 15.6424 31.1145C15.6424 31.0217 15.6793 30.9327 15.7449 30.867C15.8106 30.8014 15.8996 30.7645 15.9924 30.7645C16.0852 30.7645 16.1743 30.8014 16.2399 30.867C16.3055 30.9327 16.3424 31.0217 16.3424 31.1145C16.3176 31.3698 16.393 31.6248 16.5529 31.8254C16.7127 32.026 16.9443 32.1566 17.1987 32.1895C17.2915 32.1895 17.3805 32.2264 17.4462 32.292C17.5118 32.3577 17.5487 32.4467 17.5487 32.5395C17.5487 32.6323 17.5118 32.7214 17.4462 32.787C17.3805 32.8526 17.2915 32.8895 17.1987 32.8895C16.9455 32.9224 16.7148 33.0521 16.5552 33.2513C16.3955 33.4506 16.3193 33.704 16.3424 33.9583C16.3424 34.0517 16.3058 34.1413 16.2403 34.208C16.1748 34.2746 16.0858 34.3129 15.9924 34.3145ZM15.7174 32.5395C15.8201 32.6288 15.9124 32.7294 15.9924 32.8395C16.0725 32.7294 16.1647 32.6288 16.2674 32.5395C16.1647 32.4502 16.0725 32.3496 15.9924 32.2395C15.9124 32.3496 15.8201 32.4502 15.7174 32.5395Z" stroke="black" stroke-width="0.5"/>
</svg>