<svg xmlns="http://www.w3.org/2000/svg" width="98" height="16"
                                                viewBox="0 0 98 16" fill="none">
                                                <path fill-rule="evenodd" clip-rule="evenodd"
                                                    d="M90.1543 0.539076L91.9364 5.72066L97.5045 5.78397C97.9836 5.78945 98.182 6.38905 97.7977 6.66968L93.3304 9.93496L94.9898 15.1555C95.1323 15.6047 94.6135 15.9749 94.2224 15.7028L89.6801 12.5391L85.1373 15.7021C84.7468 15.9743 84.2273 15.6035 84.3699 15.1549L86.0292 9.93435L81.562 6.66907C81.1777 6.38844 81.376 5.78884 81.8552 5.78336L87.4233 5.72005L89.2053 0.538467C89.3591 0.0928705 90.0012 0.0928705 90.1543 0.539076Z"
                                                    fill="#008763" />
                                                <path fill-rule="evenodd" clip-rule="evenodd"
                                                    d="M69.8184 0.539076L71.6004 5.72066L77.1685 5.78397C77.6477 5.78945 77.846 6.38905 77.4617 6.66968L72.9945 9.93496L74.6538 15.1555C74.7964 15.6047 74.2776 15.9749 73.8864 15.7028L69.3442 12.5391L64.8013 15.7021C64.4108 15.9743 63.8914 15.6035 64.034 15.1549L65.6933 9.93435L61.2261 6.66907C60.8418 6.38844 61.0401 5.78884 61.5192 5.78336L67.0873 5.72005L68.8694 0.538467C69.0231 0.0928705 69.6653 0.0928705 69.8184 0.539076Z"
                                                    fill="#008763" />
                                                <path fill-rule="evenodd" clip-rule="evenodd"
                                                    d="M49.4746 0.539076L51.2567 5.72066L56.8248 5.78397C57.3039 5.78945 57.5023 6.38905 57.118 6.66968L52.6507 9.93496L54.3101 15.1555C54.4526 15.6047 53.9338 15.9749 53.5427 15.7028L49.0005 12.5391L44.4576 15.7021C44.0671 15.9743 43.5477 15.6035 43.6902 15.1549L45.3496 9.93435L40.8823 6.66907C40.498 6.38844 40.6964 5.78884 41.1755 5.78336L46.7436 5.72005L48.5256 0.538467C48.6794 0.0928705 49.3215 0.0928705 49.4746 0.539076Z"
                                                    fill="#008763" />
                                                <path fill-rule="evenodd" clip-rule="evenodd"
                                                    d="M29.1309 0.539076L30.9129 5.72066L36.481 5.78397C36.9602 5.78945 37.1585 6.38905 36.7742 6.66968L32.307 9.93496L33.9663 15.1555C34.1089 15.6047 33.5901 15.9749 33.1989 15.7028L28.6567 12.5391L24.1138 15.7021C23.7233 15.9743 23.2039 15.6035 23.3465 15.1549L25.0058 9.93435L20.5386 6.66907C20.1543 6.38844 20.3526 5.78884 20.8317 5.78336L26.3998 5.72005L28.1819 0.538467C28.3356 0.0928705 28.9778 0.0928705 29.1309 0.539076Z"
                                                    fill="#008763" />
                                                <path fill-rule="evenodd" clip-rule="evenodd"
                                                    d="M8.79495 0.539076L10.577 5.72066L16.1451 5.78397C16.6242 5.78945 16.8226 6.38905 16.4383 6.66968L11.971 9.93496L13.6304 15.1555C13.7729 15.6047 13.2541 15.9749 12.863 15.7028L8.32077 12.5391L3.7779 15.7021C3.3874 15.9743 2.86797 15.6035 3.01053 15.1549L4.66986 9.93435L0.202621 6.66907C-0.181684 6.38844 0.0166668 5.78884 0.495809 5.78336L6.0639 5.72005L7.84596 0.538467C7.99969 0.0928705 8.64185 0.0928705 8.79495 0.539076Z"
                                                    fill="#008763" />
                                            </svg>