<svg xmlns="http://www.w3.org/2000/svg" width="48" height="42" viewBox="0 0 48 42" fill="none">
  <rect x="8.66797" y="23.3101" width="19.5152" height="17.3857" rx="5.00012" fill="#F5F5F5"/>
  <rect x="9.66797" y="24.3101" width="17.5152" height="15.3857" rx="4.00012" stroke="black" stroke-opacity="0.8" stroke-width="2"/>
  <path d="M29.2125 1.12632H32.7475H37.5345C38.3881 0.970549 40.0183 1.31324 39.7111 3.93017L37.5345 32.6695C37.5032 32.9841 37.1588 33.5297 36.1262 33.7974V40.2633H32.3634H29.5966H25.8338V33.7974C24.8012 33.5297 24.4568 32.9841 24.4255 32.6695L22.249 3.93017C21.9417 1.31324 23.572 0.970549 24.4255 1.12632H29.2125Z" fill="#F5F5F5"/>
  <path d="M32.7475 1.12632H24.4255C23.572 0.970549 21.9417 1.31324 22.249 3.93017L24.4255 32.6695C24.4568 32.9841 24.8012 33.5297 25.8338 33.7974M32.3634 33.9546H27.2422C26.6708 33.9546 26.2073 33.8942 25.8338 33.7974M25.8338 33.7974V40.2633H32.3634M29.2125 1.12632H37.5345C38.3881 0.970549 40.0183 1.31324 39.7111 3.93017L37.5345 32.6695C37.5032 32.9841 37.1588 33.5297 36.1262 33.7974M29.5966 33.9546H34.7178C35.2892 33.9546 35.7527 33.8942 36.1262 33.7974M36.1262 33.7974V40.2633H29.5966" stroke="black" stroke-opacity="0.8" stroke-width="2"/>
  <path fill-rule="evenodd" clip-rule="evenodd" d="M1.62305 16.6216H12.2676V39.4661C12.2676 40.2578 11.6223 40.9065 10.8271 40.9065H3.06347C2.26827 40.9065 1.62305 40.2578 1.62305 39.4661V16.6216Z" fill="#F5F5F5" stroke="black" stroke-opacity="0.8" stroke-width="2" stroke-miterlimit="2.61313" stroke-linecap="round" stroke-linejoin="round"/>
  <path d="M11.376 9.22217H2.70703V16.2657H11.376V9.22217Z" fill="#F5F5F5" stroke="black" stroke-opacity="0.8" stroke-width="2" stroke-miterlimit="2.61313" stroke-linecap="round" stroke-linejoin="round"/>
  <path d="M12.2267 3.80371H3.70117V9.26896H10.1953V5.79134H12.2267V3.80371Z" fill="#F5F5F5" stroke="black" stroke-opacity="0.8" stroke-width="2" stroke-miterlimit="2.61313" stroke-linecap="round" stroke-linejoin="round"/>
</svg>