<svg width="46" height="45" viewBox="0 0 46 45" fill="none" xmlns="http://www.w3.org/2000/svg">
<g id="Frame 1000008408">
<g id="Group 1000004028">
<path id="Vector 178" d="M22.0991 14.0446C22.0991 12.5829 23.6612 11.8521 24.1819 11.6693C24.6103 11.4866 25.4836 11.6693 26.2647 11.6693C27.0457 11.6693 28.6078 12.4002 28.6078 13.6792C28.6078 14.9582 27.3061 16.2372 25.744 16.2372C24.1819 16.2372 22.0991 15.5063 22.0991 14.0446Z" stroke="black" stroke-width="0.929811"/>
<g id="Group 1000004026">
<path id="Vector 187" d="M2.88741 16.4358C0.466321 12.6166 3.89619 7.84269 5.91376 5.9331C6.79644 5.42388 10.2263 4.71097 16.8843 5.9331C20.6672 8.60652 18.0192 8.79748 16.8843 13.9534C15.7494 19.1092 15.7494 17.9635 13.1013 20.064C10.4533 22.1646 5.91376 21.2098 2.88741 16.4358Z" stroke="black" stroke-width="1.05495"/>
<path id="Vector 188" d="M3.95849 15.9267C1.94047 12.7077 4.79933 8.68408 6.48102 7.07461C7.21675 6.64542 10.0756 6.04455 15.6251 7.07461C18.7783 9.32786 16.5711 9.48881 15.6251 13.8344C14.6792 18.1799 14.6792 17.2143 12.472 18.9847C10.2648 20.7551 6.48102 19.9504 3.95849 15.9267Z" stroke="black" stroke-width="1.05495"/>
<path id="Ellipse 130" d="M12.1962 12.9988C12.1962 13.345 11.9195 13.6171 11.5887 13.6171C11.258 13.6171 10.9813 13.345 10.9813 12.9988C10.9813 12.6526 11.258 12.3805 11.5887 12.3805C11.9195 12.3805 12.1962 12.6526 12.1962 12.9988Z" fill="#008763" stroke="black" stroke-width="1.05495"/>
<path id="Ellipse 131" d="M11.4383 16.0542C11.4383 16.4004 11.1617 16.6725 10.8309 16.6725C10.5002 16.6725 10.2235 16.4004 10.2235 16.0542C10.2235 15.708 10.5002 15.4359 10.8309 15.4359C11.1617 15.4359 11.4383 15.708 11.4383 16.0542Z" fill="#008763" stroke="black" stroke-width="1.05495"/>
<path id="Ellipse 132" d="M7.65611 15.6726C7.65611 16.0188 7.37944 16.2909 7.0487 16.2909C6.71797 16.2909 6.44129 16.0188 6.44129 15.6726C6.44129 15.3264 6.71797 15.0543 7.0487 15.0543C7.37944 15.0543 7.65611 15.3264 7.65611 15.6726Z" fill="#008763" stroke="black" stroke-width="1.05495"/>
<path id="Ellipse 133" d="M7.27745 12.6165C7.27745 12.9627 7.00078 13.2347 6.67004 13.2347C6.3393 13.2347 6.06263 12.9627 6.06263 12.6165C6.06263 12.2702 6.3393 11.9982 6.67004 11.9982C7.00078 11.9982 7.27745 12.2702 7.27745 12.6165Z" fill="#008763" stroke="black" stroke-width="1.05495"/>
<path id="Ellipse 134" d="M9.92564 9.94311C9.92564 10.2893 9.64897 10.5614 9.31823 10.5614C8.9875 10.5614 8.71082 10.2893 8.71082 9.94311C8.71082 9.5969 8.9875 9.32484 9.31823 9.32484C9.64897 9.32484 9.92564 9.5969 9.92564 9.94311Z" fill="#008763" stroke="black" stroke-width="1.05495"/>
<path id="Ellipse 135" d="M14.4642 9.94311C14.4642 10.2893 14.1875 10.5614 13.8568 10.5614C13.5261 10.5614 13.2494 10.2893 13.2494 9.94311C13.2494 9.5969 13.5261 9.32484 13.8568 9.32484C14.1875 9.32484 14.4642 9.5969 14.4642 9.94311Z" fill="#008763" stroke="black" stroke-width="1.05495"/>
</g>
<g id="Group 1000004027">
<path id="Vector 187_2" d="M28.2985 29.026C25.6084 24.3082 29.4194 18.411 31.6612 16.0521C32.6419 15.423 33.5029 16.0413 40.9006 17.551C45.1039 20.8534 45.1116 19.5904 43.8506 25.9595C42.5896 32.3285 42.5896 30.9131 39.6473 33.5079C36.7051 36.1027 31.6612 34.9233 28.2985 29.026Z" stroke="black" stroke-width="1.05495"/>
<path id="Vector 188_2" d="M29.0936 28.6442C26.807 24.3758 30.0463 19.0402 31.9518 16.9059C32.7855 16.3368 33.2141 16.6517 39.5022 18.0176C43.075 21.0056 43.3847 20.1073 42.3129 25.8697C41.241 31.6322 41.241 30.3516 38.7401 32.6993C36.2391 35.047 31.9518 33.9798 29.0936 28.6442Z" stroke="black" stroke-width="1.05495"/>
<path id="Ellipse 130_2" d="M35.6466 26.6265C35.6466 26.9727 35.3699 27.2447 35.0392 27.2447C34.7084 27.2447 34.4318 26.9727 34.4318 26.6265C34.4318 26.2802 34.7084 26.0082 35.0392 26.0082C35.3699 26.0082 35.6466 26.2802 35.6466 26.6265Z" fill="#008763" stroke="black" stroke-width="1.05495"/>
<path id="Ellipse 136" d="M33.7804 20.0964C33.7804 20.4426 33.5037 20.7147 33.173 20.7147C32.8422 20.7147 32.5656 20.4426 32.5656 20.0964C32.5656 19.7502 32.8422 19.4782 33.173 19.4782C33.5037 19.4782 33.7804 19.7502 33.7804 20.0964Z" fill="#008763" stroke="black" stroke-width="1.05495"/>
<path id="Ellipse 131_2" d="M38.4452 28.4927C38.4452 28.8389 38.1685 29.111 37.8378 29.111C37.507 29.111 37.2304 28.8389 37.2304 28.4927C37.2304 28.1465 37.507 27.8744 37.8378 27.8744C38.1685 27.8744 38.4452 28.1465 38.4452 28.4927Z" fill="#008763" stroke="black" stroke-width="1.05495"/>
<path id="Ellipse 132_2" d="M32.975 29.3638C32.975 29.71 32.6983 29.982 32.3676 29.982C32.0368 29.982 31.7601 29.71 31.7601 29.3638C31.7601 29.0176 32.0368 28.7455 32.3676 28.7455C32.6983 28.7455 32.975 29.0176 32.975 29.3638Z" fill="#008763" stroke="black" stroke-width="1.05495"/>
<path id="Ellipse 133_2" d="M32.5973 26.3088C32.5973 26.6551 32.3206 26.9271 31.9899 26.9271C31.6591 26.9271 31.3825 26.6551 31.3825 26.3088C31.3825 25.9626 31.6591 25.6906 31.9899 25.6906C32.3206 25.6906 32.5973 25.9626 32.5973 26.3088Z" fill="#008763" stroke="black" stroke-width="1.05495"/>
<path id="Ellipse 134_2" d="M35.2445 23.6357C35.2445 23.982 34.9678 24.254 34.6371 24.254C34.3063 24.254 34.0297 23.982 34.0297 23.6357C34.0297 23.2895 34.3063 23.0175 34.6371 23.0175C34.9678 23.0175 35.2445 23.2895 35.2445 23.6357Z" fill="#008763" stroke="black" stroke-width="1.05495"/>
<path id="Ellipse 135_2" d="M39.7831 23.6357C39.7831 23.982 39.5064 24.254 39.1757 24.254C38.8449 24.254 38.5682 23.982 38.5682 23.6357C38.5682 23.2895 38.8449 23.0175 39.1757 23.0175C39.5064 23.0175 39.7831 23.2895 39.7831 23.6357Z" fill="#008763" stroke="black" stroke-width="1.05495"/>
</g>
<path id="Vector 189" d="M11.5889 32.6871C11.1669 29.3112 14.2262 28.4673 15.8087 28.4673L18.4456 32.6871C18.6214 34.2695 18.8676 37.7508 18.4456 39.0168C17.9181 40.5992 15.8087 42.1816 11.5889 32.6871Z" stroke="black" stroke-width="1.05495"/>
<path id="Vector 190" d="M1.00561 27.8737C0.943166 26.6609 1.39587 26.3577 1.63002 26.3577L2.02023 27.8737C2.04624 28.4422 2.08267 29.6929 2.02023 30.1477C1.94217 30.7162 1.63002 31.2847 1.00561 27.8737Z" stroke="black" stroke-width="1.05495"/>
<path id="Vector 191" d="M8.38964 25.6813C8.3272 25.378 8.7799 25.3022 9.01406 25.3022L9.40426 25.6813C9.43028 25.8234 9.4667 26.1361 9.40426 26.2498C9.32621 26.3919 9.01406 26.534 8.38964 25.6813Z" stroke="black" stroke-width="1.05495"/>
</g>
</g>
</svg>
