<svg xmlns="http://www.w3.org/2000/svg" width="64" height="65" viewBox="0 0 64 65" fill="none">
  <path d="M44.4242 32.17C44.4242 39.6579 42.9774 46.4002 40.6715 51.2425C38.339 56.1407 35.2633 58.8486 32.113 58.8486C28.9627 58.8486 25.8869 56.1407 23.5544 51.2425C21.2486 46.4002 19.8018 39.6579 19.8018 32.17C19.8018 24.6821 21.2486 17.9398 23.5544 13.0975C25.8869 8.19933 28.9627 5.49146 32.113 5.49146C35.2633 5.49146 38.339 8.19933 40.6715 13.0975C42.9774 17.9398 44.4242 24.6821 44.4242 32.17Z" stroke="black" stroke-width="1.5"/>
  <path d="M25.9574 42.8316C19.4727 39.0877 14.3571 34.4635 11.3165 30.0455C8.24075 25.5764 7.43353 21.5588 9.00869 18.8305C10.5838 16.1023 14.4668 14.7925 19.875 15.2217C25.2215 15.6459 31.7839 17.764 38.2686 21.508C44.7534 25.2519 49.8689 29.8761 52.9095 34.2942C55.9853 38.7632 56.7925 42.7809 55.2173 45.5091C53.6422 48.2374 49.7592 49.5471 44.351 49.118C39.0045 48.6937 32.4421 46.5756 25.9574 42.8316Z" stroke="black" stroke-width="1.5"/>
  <path d="M25.9573 21.5086C32.442 17.7646 39.0044 15.6465 44.3509 15.2223C49.7591 14.7931 53.642 16.1029 55.2172 18.8311C56.7924 21.5594 55.9851 25.577 52.9094 30.0461C49.8688 34.4641 44.7532 39.0883 38.2685 42.8322C31.7838 46.5762 25.2214 48.6943 19.8749 49.1186C14.4667 49.5477 10.5837 48.2379 9.00856 45.5097C7.4334 42.7814 8.24062 38.7638 11.3164 34.2947C14.357 29.8767 19.4725 25.2525 25.9573 21.5086Z" stroke="black" stroke-width="1.5"/>
</svg>