<svg xmlns="http://www.w3.org/2000/svg" width="64" height="65" viewBox="0 0 64 65" fill="none">
  <rect width="64" height="64" transform="translate(0 0.312988)" fill="white"/>
  <path fill-rule="evenodd" clip-rule="evenodd" d="M32.3708 7.31299V57.313C32.3708 57.313 11.5257 51.5911 9 15.5138C9 15.5138 27.6623 11.1951 32.3708 7.32858V7.31299Z" fill="white" stroke="black" stroke-width="1.5" stroke-miterlimit="2.61313" stroke-linecap="round" stroke-linejoin="round"/>
  <path fill-rule="evenodd" clip-rule="evenodd" d="M32.3682 7.31299V57.313C32.3682 57.313 53.2132 51.5911 55.7389 15.5138C55.7389 15.5138 37.0766 11.1951 32.3682 7.32858V7.31299Z" fill="white" stroke="black" stroke-width="1.5" stroke-miterlimit="2.61313" stroke-linecap="round" stroke-linejoin="round"/>
  <path d="M32.3646 44.5009C40.168 44.5009 46.4938 38.175 46.4938 30.3717C46.4938 22.5683 40.168 16.2424 32.3646 16.2424C24.5612 16.2424 18.2354 22.5683 18.2354 30.3717C18.2354 38.175 24.5612 44.5009 32.3646 44.5009Z" fill="white" stroke="black" stroke-width="1.5" stroke-miterlimit="2.61313" stroke-linecap="round" stroke-linejoin="round"/>
  <path fill-rule="evenodd" clip-rule="evenodd" d="M29.6372 38.9442C30.4544 39.3619 31.3806 39.5979 32.3613 39.5979C33.342 39.5979 34.2682 39.3619 35.0855 38.9442C37.065 37.9453 38.4089 35.8931 38.4089 33.5503C38.4089 33.4051 38.4089 33.2779 38.3908 33.1326C38.3908 33.1326 38.3908 33.1145 38.3908 33.0963H38.4089C38.4271 32.7149 38.3363 29.8455 32.3613 21.1646C26.4045 29.8455 26.2955 32.7149 26.3137 33.0963H26.3319C26.3319 33.1326 26.3319 33.1326 26.3319 33.1326C26.3137 33.2779 26.3137 33.4051 26.3137 33.5503C26.3137 35.9113 27.6576 37.9635 29.6372 38.9442Z" fill="white" stroke="black" stroke-width="1.5" stroke-miterlimit="2.61313" stroke-linecap="round" stroke-linejoin="round"/>
</svg>