<svg xmlns="http://www.w3.org/2000/svg" width="49" height="50"
                                        viewBox="0 0 49 50" fill="none">
                                        <g clip-path="url(#clip0_13317_5469)">
                                            <path
                                                d="M0 43.1484C2.31637 43.1484 3.51272 42.4357 4.58184 41.7993C5.54907 41.2138 6.38906 40.7302 8.14546 40.7302C9.90178 40.7302 10.7418 41.2138 11.7091 41.7993C12.7782 42.4357 13.9746 43.1484 16.2909 43.1484C18.6073 43.1484 19.8036 42.4357 20.8728 41.7993C21.84 41.2138 22.68 40.7302 24.4109 40.7302C26.1418 40.7302 27.0072 41.2138 27.9491 41.7993C29.0181 42.4357 30.2146 43.1484 32.5309 43.1484C34.8473 43.1484 36.0437 42.4357 37.1127 41.7993C38.08 41.2138 38.92 40.7302 40.6509 40.7302C42.3818 40.7302 43.2218 41.2138 44.1891 41.7993C45.2582 42.4357 46.4546 43.1484 48.7709 43.1484"
                                                stroke="black" stroke-width="1.5" />
                                            <path d="M0 33.3062H49" stroke="black" stroke-width="1.5" />
                                            <path d="M0 26.6243H49" stroke="black" stroke-width="1.5" />
                                            <path
                                                d="M14.8952 15.5065C14.8952 17.6185 13.0238 19.3895 10.6395 19.3895C8.25518 19.3895 6.38379 17.6185 6.38379 15.5065C6.38379 14.9878 6.55053 14.2969 6.85302 13.4785C7.15262 12.6679 7.57215 11.7664 8.0487 10.8373C8.74399 9.4818 9.54721 8.09273 10.2593 6.86136C10.385 6.64401 10.5078 6.43157 10.6267 6.2251C10.8375 6.60851 11.0835 7.04352 11.3475 7.51031C11.3886 7.58298 11.4302 7.65643 11.4721 7.73057C11.9633 8.59975 12.5105 9.57304 13.0222 10.551C13.5345 11.5301 14.007 12.5055 14.3505 13.3782C14.6988 14.2633 14.8952 14.9962 14.8952 15.5065Z"
                                                stroke="black" stroke-width="1.5" />
                                            <path
                                                d="M42.1315 16.3576C42.1315 18.4696 40.2601 20.2406 37.8758 20.2406C35.4915 20.2406 33.6201 18.4696 33.6201 16.3576C33.6201 15.8389 33.7869 15.148 34.0893 14.3296C34.3889 13.519 34.8085 12.6175 35.285 11.6884C35.9803 10.3329 36.7835 8.94382 37.4956 7.71243C37.6213 7.49508 37.7441 7.28264 37.863 7.07617C38.0739 7.45958 38.3198 7.8946 38.5839 8.36138C38.625 8.43405 38.6665 8.5075 38.7084 8.58164C39.1997 9.45084 39.7469 10.4241 40.2586 11.4021C40.7709 12.3811 41.2433 13.3565 41.5868 14.2293C41.9351 15.1144 42.1315 15.8473 42.1315 16.3576Z"
                                                stroke="black" stroke-width="1.5" />
                                            <path
                                                d="M26.0446 12.0858C26.0446 13.4073 24.905 14.5184 23.4486 14.5184C21.9922 14.5184 20.8525 13.4073 20.8525 12.0858C20.8525 11.7654 20.9538 11.3248 21.1474 10.7867C21.3381 10.2562 21.6063 9.66367 21.9126 9.04983C22.3597 8.15404 22.8754 7.23755 23.3346 6.42158C23.3693 6.35989 23.4037 6.29877 23.4377 6.23828C23.5412 6.42866 23.6537 6.63311 23.7714 6.84701C23.7981 6.89553 23.825 6.94453 23.8523 6.99395C24.1693 7.57052 24.5215 8.21439 24.8508 8.86088C25.1805 9.50842 25.483 10.1505 25.7021 10.7229C25.9258 11.3072 26.0446 11.7736 26.0446 12.0858Z"
                                                stroke="black" stroke-width="1.5" />
                                        </g>
                                        <defs>
                                            <clipPath id="clip0_13317_5469">
                                                <rect width="49" height="49" fill="white"
                                                    transform="translate(0 0.312988)" />
                                            </clipPath>
                                        </defs>
                                    </svg>