<svg xmlns="http://www.w3.org/2000/svg" width="35" height="35" viewBox="0 0 35 35"
                                fill="none">
                                <g opacity="0.8">
                                    <path
                                        d="M23.9547 17.4219C23.9547 21.4777 23.1703 25.1129 21.9354 27.706C20.6739 30.3551 19.0778 31.6719 17.5618 31.6719C16.0458 31.6719 14.4497 30.3551 13.1882 27.706C11.9533 25.1129 11.1689 21.4777 11.1689 17.4219C11.1689 13.366 11.9533 9.73088 13.1882 7.13772C14.4497 4.48864 16.0458 3.17188 17.5618 3.17188C19.0778 3.17188 20.6739 4.48864 21.9354 7.13772C23.1703 9.73088 23.9547 13.366 23.9547 17.4219Z"
                                        stroke="black" stroke-width="1.5" />
                                    <path
                                        d="M14.3658 22.9586C10.8533 20.9307 8.09739 18.4338 6.46907 16.0678C4.80563 13.6508 4.46335 11.6101 5.22135 10.2972C5.97935 8.98433 7.91777 8.2604 10.8427 8.49248C13.7058 8.71966 17.2462 9.85791 20.7586 11.8858C24.2711 13.9138 27.027 16.4107 28.6554 18.7766C30.3188 21.1936 30.6611 23.2343 29.9031 24.5472C29.1451 25.8601 27.2067 26.584 24.2817 26.352C21.4186 26.1248 17.8783 24.9865 14.3658 22.9586Z"
                                        stroke="black" stroke-width="1.5" />
                                    <path
                                        d="M14.3651 11.8852C17.8776 9.85722 21.4179 8.71897 24.2811 8.49179C27.206 8.25971 29.1444 8.98363 29.9024 10.2965C30.6604 11.6094 30.3181 13.6501 28.6547 16.0671C27.0264 18.4331 24.2704 20.93 20.758 22.9579C17.2455 24.9858 13.7052 26.1241 10.842 26.3513C7.91709 26.5833 5.97867 25.8594 5.22067 24.5465C4.46267 23.2336 4.80494 21.1929 6.46839 18.7759C8.09671 16.41 10.8526 13.9131 14.3651 11.8852Z"
                                        stroke="black" stroke-width="1.5" />
                                </g>
                            </svg>