<svg xmlns="http://www.w3.org/2000/svg" width="50" height="52" viewBox="0 0 50 52" fill="none">
  <rect width="50" height="52" fill="white"/>
  <g opacity="0.8">
    <path fill-rule="evenodd" clip-rule="evenodd" d="M30.6349 41.3622C30.8072 41.002 30.9738 40.6275 31.1343 40.2395C29.1 39.7862 26.9515 39.1036 24.7594 38.1972C22.5653 39.1045 20.4148 39.7878 18.3788 40.2413C18.5391 40.6286 18.7055 41.0025 18.8775 41.3622C20.7812 45.3416 22.9996 46.9036 24.7562 46.9036C26.5128 46.9036 28.7312 45.3416 30.6349 41.3622ZM16.2681 40.6356C18.2862 45.7441 21.3393 49 24.7562 49C28.1734 49 31.2268 45.7435 33.2449 40.634C38.6992 41.449 43.0592 40.4451 44.7678 37.4992C46.4762 34.5537 45.1703 30.294 41.7351 26.0001C45.1707 21.706 46.4769 17.446 44.7684 14.5003C43.0597 11.5543 38.6994 10.5504 33.2447 11.3656C31.2267 6.25639 28.1734 3 24.7562 3C21.3394 3 18.2864 6.25572 16.2683 11.3641C10.815 10.5496 6.45608 11.5537 4.7477 14.4992C3.03906 17.4451 4.34561 21.7056 7.7819 26.0001C4.34605 30.2944 3.03975 34.5546 4.74828 37.5003C6.45659 40.4457 10.8152 41.4498 16.2681 40.6356ZM17.6493 38.2543C19.0613 37.9532 20.5463 37.53 22.0751 36.9843C21.1364 36.5239 20.1951 36.0237 19.2564 35.4842C18.3176 34.9447 17.4116 34.3831 16.5415 33.804C16.8311 35.3948 17.2054 36.8866 17.6493 38.2543ZM27.4436 36.9841C28.9704 37.529 30.4534 37.9517 31.8636 38.2525C32.307 36.8864 32.6808 35.3967 32.9701 33.8081C32.1014 34.3862 31.1969 34.9467 30.2597 35.4854C29.3219 36.0243 28.3814 36.524 27.4436 36.9841ZM33.3843 30.9608C32.0928 31.9039 30.6963 32.8137 29.2067 33.6699C27.7165 34.5263 26.2261 35.2754 24.7593 35.9175C23.2917 35.2752 21.8005 34.5257 20.3094 33.6687C18.8182 32.8117 17.4203 31.9008 16.1277 30.9567C15.9529 29.3715 15.8595 27.7125 15.8595 26C15.8595 24.2874 15.9529 22.6284 16.1277 21.0432C17.4205 20.099 18.8185 19.1879 20.31 18.3308C21.8009 17.4739 23.2919 16.7245 24.7593 16.0823C26.2259 16.7243 27.7161 17.4733 29.2061 18.3297C30.696 19.1859 32.0926 20.0959 33.3843 21.0391C33.5593 22.6255 33.6529 24.286 33.6529 26C33.6529 27.714 33.5593 29.3744 33.3843 30.9608ZM35.3676 32.1008C35.0601 34.4436 34.5797 36.637 33.957 38.6173C34.3748 38.6729 34.784 38.7165 35.1835 38.7481C39.5975 39.0967 42.0657 37.9653 42.944 36.451C43.8223 34.9367 43.5725 32.2433 41.0622 28.6125C40.8354 28.2844 40.5934 27.9542 40.3367 27.6225C38.924 29.1509 37.2542 30.6631 35.3676 32.1008ZM38.9727 26.0001C38.0047 27.0668 36.8939 28.1353 35.6545 29.1804C35.7233 28.1409 35.7589 27.0791 35.7589 26C35.7589 24.9209 35.7233 23.8591 35.6545 22.8196C36.8939 23.8647 38.0047 24.9333 38.9727 26.0001ZM40.3367 24.3777C40.5937 24.0458 40.8358 23.7153 41.0628 23.387C43.5731 19.7562 43.8229 17.0628 42.9446 15.5485C42.0663 14.0342 39.5981 12.9028 35.1841 13.2514C34.7843 13.283 34.3749 13.3266 33.9569 13.3823C34.5797 15.3627 35.0601 17.5562 35.3676 19.8991C37.2542 21.337 38.924 22.8493 40.3367 24.3777ZM31.1342 11.7601C30.9737 11.3723 30.8071 10.9979 30.6349 10.6378C28.7312 6.6584 26.5128 5.09635 24.7562 5.09635C22.9996 5.09635 20.7812 6.6584 18.8775 10.6378C18.7055 10.9974 18.5392 11.3712 18.379 11.7584C20.4149 12.2119 22.5653 12.8952 24.7594 13.8025C26.9515 12.8962 29.0999 12.2135 31.1342 11.7601ZM27.4435 15.0156C28.9703 14.4708 30.4533 14.048 31.8635 13.7471C32.3069 15.1133 32.6807 16.6031 32.9701 18.1918C32.1012 17.6136 31.1966 17.0529 30.2591 16.5142C29.3215 15.9753 28.3811 15.4756 27.4435 15.0156ZM22.0752 15.0155C20.5464 14.4697 19.0614 14.0465 17.6495 13.7454C17.2054 15.1132 16.8312 16.605 16.5416 18.1959C17.4118 17.6166 18.3179 17.055 19.257 16.5153C20.1955 15.9759 21.1367 15.4758 22.0752 15.0155ZM14.1442 19.9035C14.4518 17.5583 14.9326 15.3628 15.556 13.3808C15.1391 13.3253 14.7307 13.2818 14.332 13.2503C9.918 12.9017 7.44984 14.0331 6.57153 15.5474C5.69322 17.0617 5.94301 19.7551 8.4533 23.3859C8.68054 23.7146 8.92302 24.0455 9.18031 24.3778C10.5918 22.8509 12.2598 21.3401 14.1442 19.9035ZM9.18036 27.6224C10.5918 29.1493 12.2598 30.66 14.1442 32.0965C14.4518 34.4415 14.9325 36.6369 15.5559 38.6189C15.1392 38.6743 14.7311 38.7177 14.3326 38.7492C9.91859 39.0978 7.45043 37.9665 6.57212 36.4521C5.69381 34.9378 5.9436 32.2444 8.45389 28.6136C8.68097 28.2852 8.92327 27.9545 9.18036 27.6224ZM10.5444 26.0001C11.5111 24.9349 12.6203 23.8678 13.8576 22.824C13.789 23.8622 13.7535 24.9224 13.7535 26C13.7535 27.0776 13.789 28.1378 13.8576 29.176C12.6203 28.1323 11.5111 27.0653 10.5444 26.0001Z" fill="black"/>
  </g>
</svg>