<svg xmlns="http://www.w3.org/2000/svg" width="90" height="21" viewBox="0 0 90 21" fill="none">
  <g clip-path="url(#clip0_23927_1633)">
    <path d="M4.3135 18.1669C3.36581 18.1669 2.55147 18.0101 1.87073 17.6961C1.18999 17.3822 0.56633 16.9059 0 16.2673L1.66656 14.5991C2.03677 15.0284 2.44822 15.3617 2.90014 15.5986C3.35232 15.8351 3.87792 15.9537 4.47694 15.9537C5.02174 15.9537 5.44357 15.8548 5.74321 15.6565C6.04285 15.4583 6.19254 15.1829 6.19254 14.8307C6.19254 14.5112 6.09447 14.2526 5.89835 14.0541C5.70248 13.8558 5.44357 13.6853 5.1224 13.5419C4.80097 13.399 4.44685 13.2613 4.0603 13.1288C3.67349 12.9969 3.28954 12.8453 2.90844 12.6746C2.52708 12.5039 2.17582 12.2891 1.85439 12.0302C1.53322 11.7716 1.27431 11.4467 1.07844 11.0556C0.882313 10.6646 0.78425 10.1721 0.78425 9.57725C0.78425 8.86154 0.955731 8.24469 1.29895 7.72725C1.64192 7.20954 2.11849 6.81588 2.72866 6.54627C3.33883 6.27641 4.04136 6.1416 4.83651 6.1416C5.64255 6.1416 6.38062 6.2848 7.05046 6.57119C7.7203 6.85758 8.27314 7.24835 8.70898 7.74403L7.04216 9.41229C6.69375 9.04879 6.34223 8.77919 5.98837 8.60294C5.63451 8.4267 5.23395 8.33858 4.78748 8.33858C4.341 8.33858 3.98688 8.42382 3.72538 8.59455C3.46388 8.76502 3.33313 9.01024 3.33313 9.32941C3.33313 9.62682 3.43119 9.86627 3.62732 10.048C3.82344 10.2298 4.08209 10.3866 4.40326 10.5188C4.7247 10.651 5.07881 10.7831 5.46536 10.9153C5.85217 11.0475 6.23612 11.2017 6.61722 11.3777C6.99832 11.5537 7.34958 11.7769 7.67101 12.0467C7.99219 12.3166 8.25109 12.6578 8.44722 13.0709C8.64335 13.4839 8.74141 13.9932 8.74141 14.5988C8.74141 15.7111 8.34916 16.5836 7.56491 17.2167C6.78066 17.8498 5.69677 18.1666 4.3135 18.1666V18.1669ZM14.0192 18.1669C13.1587 18.1669 12.3934 17.988 11.7235 17.6301C11.0537 17.2723 10.5278 16.774 10.1467 16.1352C9.76537 15.4963 9.57495 14.7753 9.57495 13.9712C9.57495 13.1674 9.76278 12.4488 10.1387 11.8157C10.5146 11.1826 11.0236 10.6843 11.6665 10.3208C12.3093 9.95727 13.0336 9.77553 13.8397 9.77553C14.6239 9.77553 15.3158 9.94626 15.9148 10.2877C16.5139 10.6292 16.985 11.1026 17.3282 11.7084C17.6714 12.314 17.8429 13.0077 17.8429 13.7897C17.8429 13.9329 17.8349 14.0843 17.8185 14.244C17.8022 14.4037 17.7723 14.5881 17.7288 14.7973L10.8825 14.8139V13.0795L16.6667 13.063L15.5882 13.7897C15.5773 13.3274 15.5065 12.9445 15.3758 12.6418C15.245 12.3389 15.0517 12.1078 14.7957 11.9479C14.5396 11.7881 14.2265 11.7084 13.8563 11.7084C13.4643 11.7084 13.1237 11.7992 12.8349 11.9809C12.5462 12.1626 12.3231 12.4186 12.1651 12.7491C12.0071 13.0795 11.9282 13.4813 11.9282 13.9547C11.9282 14.4283 12.0125 14.833 12.1814 15.169C12.3503 15.5047 12.59 15.7638 12.9003 15.9453C13.2108 16.127 13.5784 16.2178 14.0031 16.2178C14.3954 16.2178 14.7492 16.1491 15.0652 16.0114C15.3812 15.8737 15.6588 15.667 15.8985 15.3919L17.2711 16.7793C16.8789 17.2419 16.4052 17.5889 15.8497 17.8199C15.294 18.0512 14.6841 18.1669 14.0197 18.1669H14.0192ZM22.8916 18.1669C22.0747 18.1669 21.334 17.9852 20.6694 17.6217C20.0047 17.2584 19.482 16.7572 19.1009 16.1184C18.7195 15.4798 18.5291 14.764 18.5291 13.971C18.5291 13.1671 18.7224 12.4485 19.1092 11.8154C19.496 11.1823 20.0216 10.684 20.686 10.3205C21.3504 9.95701 22.0965 9.77526 22.9243 9.77526C23.5454 9.77526 24.1143 9.88279 24.6319 10.0976C25.1492 10.3124 25.6097 10.6344 26.0125 11.0638L24.4111 12.6825C24.2261 12.4732 24.0108 12.319 23.7659 12.2198C23.5207 12.1207 23.2403 12.0711 22.9243 12.0711C22.565 12.0711 22.2462 12.1511 21.9686 12.3106C21.6907 12.4703 21.4728 12.6903 21.3151 12.9712C21.1571 13.2521 21.0782 13.5794 21.0782 13.9539C21.0782 14.3284 21.1571 14.6589 21.3151 14.945C21.4731 15.2314 21.6936 15.4569 21.9769 15.6222C22.2602 15.7874 22.5759 15.87 22.9246 15.87C23.2515 15.87 23.5428 15.8123 23.7988 15.6966C24.0549 15.581 24.2754 15.4186 24.4606 15.2094L26.0457 16.8281C25.6317 17.2687 25.1634 17.6017 24.6404 17.8275C24.1177 18.0533 23.5347 18.1661 22.8921 18.1661L22.8916 18.1669ZM30.6856 18.1669C29.9665 18.1669 29.3239 18.0153 28.7575 17.7127C28.191 17.41 27.7499 16.9914 27.4339 16.4575C27.118 15.9235 26.9602 15.3151 26.9602 14.6321V9.95754H29.4437L29.4598 14.5828C29.4598 14.8582 29.5063 15.0948 29.5989 15.293C29.6915 15.4913 29.8303 15.6455 30.0155 15.7557C30.2005 15.8658 30.4241 15.9209 30.6854 15.9209C31.0556 15.9209 31.3526 15.8026 31.576 15.5658C31.7991 15.329 31.9054 15.0014 31.8945 14.5831L31.9109 9.9578H34.3944V14.5993C34.3944 15.304 34.2364 15.9235 33.9204 16.4575C33.6044 16.9917 33.166 17.41 32.6051 17.7127C32.0442 18.0156 31.4042 18.1669 30.6854 18.1669H30.6856ZM35.9795 17.9852L35.9631 9.95727H38.463V17.9852H35.9792H35.9795ZM38.4633 13.5749L37.4175 12.7491C37.6245 11.813 37.9729 11.0861 38.4633 10.5686C38.9533 10.0512 39.6343 9.79231 40.5057 9.79231C40.8871 9.79231 41.222 9.85027 41.5107 9.96567C41.7995 10.0813 42.0527 10.2602 42.2706 10.5025L40.7836 12.4021C40.6746 12.2809 40.5384 12.1873 40.375 12.1212C40.2115 12.0551 40.0263 12.0221 39.8195 12.0221C39.4055 12.0221 39.076 12.1516 38.8311 12.4102C38.586 12.6691 38.4635 13.0572 38.4635 13.5747L38.4633 13.5749ZM46.6329 18.1669C45.7724 18.1669 45.0071 17.988 44.3372 17.6301C43.6674 17.2723 43.1418 16.774 42.7604 16.1352C42.3793 15.4963 42.1886 14.7753 42.1886 13.9712C42.1886 13.1674 42.3765 12.4488 42.7524 11.8157C43.1283 11.1826 43.6373 10.6843 44.2801 10.3208C44.9227 9.95727 45.6473 9.77553 46.4534 9.77553C47.2376 9.77553 47.9295 9.94626 48.5285 10.2877C49.1275 10.6292 49.5987 11.1026 49.9419 11.7084C50.2848 12.314 50.4563 13.0077 50.4563 13.7897C50.4563 13.9329 50.4483 14.0843 50.4319 14.244C50.4156 14.4037 50.3855 14.5881 50.3419 14.7973L43.4956 14.8139V13.0795L49.2798 13.063L48.2014 13.7897C48.1905 13.3274 48.1197 12.9445 47.9889 12.6418C47.8582 12.3389 47.6649 12.1078 47.4088 11.9479C47.1528 11.7881 46.8399 11.7084 46.4694 11.7084C46.0772 11.7084 45.7368 11.7992 45.4481 11.9809C45.1593 12.1626 44.9362 12.4186 44.7782 12.7491C44.6202 13.0795 44.5414 13.4813 44.5414 13.9547C44.5414 14.4283 44.6257 14.833 44.7946 15.169C44.9635 15.5047 45.2032 15.7638 45.5135 15.9453C45.824 16.127 46.1916 16.2178 46.6165 16.2178C47.0085 16.2178 47.3627 16.1491 47.6786 16.0114C47.9946 15.8737 48.2725 15.667 48.5119 15.3919L49.8843 16.7793C49.4923 17.2419 49.0183 17.5889 48.4629 17.8199C47.9072 18.0512 47.2973 18.1669 46.6329 18.1669Z" fill="#474747"/>
    <path d="M55.3575 18.1669C54.4098 18.1669 53.5954 18.0101 52.9147 17.6961C52.2339 17.3822 51.6103 16.9059 51.0439 16.2673L52.7105 14.5991C53.0807 15.0284 53.4922 15.3617 53.9441 15.5986C54.3963 15.8351 54.9219 15.9537 55.5209 15.9537C56.0657 15.9537 56.4875 15.8548 56.7872 15.6565C57.0868 15.4583 57.2365 15.1829 57.2365 14.8307C57.2365 14.5112 57.1384 14.2526 56.9423 14.0541C56.7464 13.8558 56.4875 13.6854 56.1663 13.5419C55.8449 13.399 55.4908 13.2613 55.1042 13.1288C54.7174 12.9969 54.3335 12.8453 53.9524 12.6746C53.5713 12.5039 53.2198 12.2891 52.8983 12.0302C52.5772 11.7716 52.3183 11.4467 52.1224 11.0556C51.9263 10.6646 51.8282 10.1721 51.8282 9.57726C51.8282 8.86154 51.9997 8.2447 52.3429 7.72725C52.6859 7.20954 53.1624 6.81589 53.7726 6.54628C54.3825 6.27641 55.0853 6.14161 55.8802 6.14161C56.6862 6.14161 57.4243 6.2848 58.0942 6.57119C58.764 6.85758 59.3168 7.24836 59.7527 7.74404L58.0858 9.41229C57.7374 9.0488 57.3859 8.77919 57.032 8.60295C56.6782 8.42671 56.2776 8.33859 55.8312 8.33859C55.3847 8.33859 55.0306 8.42382 54.7691 8.59456C54.5076 8.76503 54.3768 9.01024 54.3768 9.32942C54.3768 9.62683 54.4749 9.86627 54.671 10.048C54.8671 10.2298 55.1258 10.3866 55.447 10.5188C55.7684 10.651 56.1225 10.7831 56.509 10.9153C56.8959 11.0475 57.2798 11.2017 57.6609 11.3777C58.042 11.5537 58.3933 11.7769 58.7147 12.0467C59.0361 12.3166 59.2948 12.6578 59.4909 13.0709C59.687 13.4839 59.7851 13.9932 59.7851 14.5988C59.7851 15.7111 59.3931 16.5836 58.6086 17.2167C57.8243 17.8498 56.7405 18.1667 55.3572 18.1667L55.3575 18.1669ZM66.4355 17.9852V13.4097C66.4355 12.9911 66.3076 12.6526 66.0516 12.3937C65.7955 12.1349 65.466 12.0056 65.0629 12.0056C64.7905 12.0056 64.5536 12.0633 64.3521 12.1789C64.1505 12.2946 63.9899 12.4595 63.87 12.6743C63.7502 12.8891 63.6903 13.1341 63.6903 13.4095L62.7262 12.9303C62.7262 12.3024 62.857 11.7519 63.1185 11.2783C63.38 10.8049 63.7447 10.4388 64.2133 10.1799C64.6815 9.92108 65.2154 9.79179 65.8144 9.79179C66.4464 9.79179 66.9964 9.92108 67.4647 10.1799C67.9329 10.4388 68.2954 10.7965 68.5511 11.2536C68.8069 11.7108 68.9351 12.2421 68.9351 12.8477V17.9846H66.4353L66.4355 17.9852ZM61.2068 17.9852L61.1904 5.99316H63.6903V17.9852H61.2065H61.2068ZM70.5365 17.9852V9.95728H73.0364V17.9852H70.5365ZM79.3763 18.1504C78.8426 18.1504 78.3523 18.0457 77.9058 17.8367C77.4591 17.6274 77.0944 17.3384 76.8111 16.9694C76.5278 16.6007 76.3646 16.1795 76.321 15.7058V12.3197C76.3646 11.8461 76.528 11.4168 76.8111 11.0312C77.0944 10.6457 77.4591 10.3431 77.9058 10.1228C78.3523 9.90246 78.8426 9.79231 79.3763 9.79231C80.1278 9.79231 80.7951 9.97406 81.378 10.3376C81.9607 10.7008 82.4183 11.1965 82.7507 11.8241C83.083 12.4517 83.249 13.1674 83.249 13.9715C83.249 14.7753 83.083 15.4913 82.7507 16.1189C82.4183 16.7468 81.961 17.2422 81.378 17.6057C80.7951 17.9689 80.1281 18.1507 79.3763 18.1507V18.1504ZM78.9187 15.8708C79.2891 15.8708 79.6051 15.7882 79.8663 15.623C80.1278 15.4577 80.3349 15.2348 80.4872 14.9539C80.6397 14.6733 80.716 14.3455 80.716 13.9712C80.716 13.5967 80.6397 13.2665 80.4872 12.9801C80.3349 12.6937 80.125 12.4679 79.858 12.303C79.5913 12.1377 79.278 12.0551 78.9184 12.0551C78.5809 12.0661 78.2758 12.1516 78.0037 12.3111C77.7313 12.4708 77.5216 12.6909 77.3745 12.9717C77.2274 13.2526 77.154 13.5857 77.154 13.971C77.154 14.3345 77.2274 14.6591 77.3745 14.9455C77.5216 15.2319 77.7313 15.4575 78.0037 15.6227C78.2761 15.7879 78.5809 15.8705 78.9184 15.8705L78.9187 15.8708ZM74.8013 21.3712L74.8176 9.95728H77.3014V12.0221L76.8928 13.9712L77.2687 15.9204L77.2524 21.3712H74.8013Z" fill="#2576B3"/>
    <path d="M84.0417 4.75744C83.7652 4.59615 83.5901 4.36929 83.5161 4.07687C83.4422 3.7847 83.4816 3.50487 83.6342 3.23789C83.7911 2.9633 84.0122 2.78705 84.2973 2.70942C84.5824 2.63153 84.8631 2.67349 85.1396 2.83479C85.4162 2.99634 85.5905 3.22005 85.6624 3.50618C85.7345 3.79257 85.6922 4.07293 85.5353 4.34752C85.3827 4.61451 85.1648 4.79022 84.8813 4.87362C84.598 4.95755 84.3178 4.91873 84.0415 4.75744H84.0417ZM80.1905 3.73094C79.8512 3.73094 79.5705 3.61633 79.349 3.38659C79.1277 3.15737 79.0166 2.87885 79.0166 2.55075C79.0166 2.21348 79.1277 1.93286 79.349 1.7081C79.5705 1.48334 79.8512 1.37109 80.1905 1.37109C80.5299 1.37109 80.8082 1.48334 81.0251 1.7081C81.242 1.93286 81.3504 2.21375 81.3504 2.55075C81.3504 2.87858 81.242 3.15711 81.0251 3.38659C80.8082 3.61607 80.5299 3.73094 80.1905 3.73094ZM71.7957 8.73834C71.3557 8.73834 70.992 8.58963 70.7048 8.29223C70.4176 7.99482 70.2739 7.63368 70.2739 7.20882C70.2739 6.77162 70.4176 6.4076 70.7048 6.11623C70.992 5.82485 71.3557 5.6793 71.7957 5.6793C72.2357 5.6793 72.5963 5.82485 72.8775 6.11623C73.1585 6.4076 73.2994 6.77162 73.2994 7.20882C73.2994 7.63368 73.1588 7.99482 72.8775 8.29223C72.5963 8.5899 72.2357 8.73834 71.7957 8.73834ZM74.8873 2.54682C75.2121 2.35747 75.5429 2.31052 75.8802 2.40625C76.2174 2.50171 76.4755 2.7068 76.6545 3.01994C76.8387 3.34253 76.886 3.67298 76.797 4.01182C76.708 4.35041 76.501 4.61451 76.1762 4.80386C75.8519 4.99321 75.5242 5.04121 75.1942 4.94706C74.864 4.85317 74.6069 4.64519 74.4227 4.32261C74.2437 4.0092 74.1952 3.6819 74.2774 3.34148C74.3594 3.00106 74.5628 2.73618 74.8873 2.54682ZM83.7699 19.0091C83.9408 18.9094 84.1149 18.8848 84.2926 18.9351C84.4701 18.9855 84.6063 19.0933 84.7004 19.2585C84.7977 19.4285 84.8226 19.6026 84.7754 19.7807C84.7285 19.959 84.6195 20.0978 84.4485 20.1977C84.2776 20.2973 84.105 20.3228 83.9312 20.2732C83.7574 20.2236 83.622 20.114 83.525 19.9443C83.4305 19.7794 83.4051 19.6071 83.4484 19.4277C83.4918 19.2485 83.5986 19.1088 83.7699 19.0088V19.0091ZM86.7722 15.809C86.8882 15.6062 87.0508 15.4775 87.2607 15.4234C87.4706 15.3694 87.6714 15.3983 87.8631 15.51C88.0603 15.6249 88.1869 15.7872 88.2427 15.9965C88.2987 16.2055 88.2683 16.4116 88.1526 16.6144C88.0367 16.8174 87.8761 16.9453 87.6706 16.9983C87.4651 17.051 87.2638 17.0201 87.0667 16.9047C86.875 16.793 86.7489 16.633 86.6887 16.425C86.6285 16.217 86.6565 16.0117 86.7722 15.8087V15.809ZM87.758 11.5784C87.758 11.3033 87.8488 11.0759 88.0307 10.8965C88.2126 10.7171 88.4336 10.6272 88.6933 10.6272C88.9605 10.6272 89.1833 10.7169 89.3616 10.8965C89.5398 11.0759 89.6288 11.3033 89.6288 11.5784C89.6288 11.8532 89.5398 12.0788 89.3616 12.2545C89.1833 12.4302 88.9605 12.5181 88.6933 12.5181C88.4336 12.5181 88.2126 12.4302 88.0307 12.2545C87.8488 12.0788 87.758 11.8535 87.758 11.5784ZM86.7782 7.53979C86.6422 7.30166 86.6085 7.05906 86.6773 6.81149C86.7458 6.56417 86.8929 6.37482 87.1178 6.24342C87.3494 6.1081 87.5868 6.07348 87.8296 6.13878C88.0727 6.20435 88.2621 6.3562 88.3983 6.59407C88.5343 6.83221 88.5688 7.07244 88.5013 7.31477C88.4339 7.5571 88.2847 7.74567 88.053 7.881C87.8278 8.01239 87.5933 8.0478 87.3487 7.98748C87.1045 7.92742 86.9141 7.77819 86.7782 7.54006V7.53979Z" fill="url(#paint0_linear_23927_1633)"/>
    <path d="M84.0417 4.75744C83.7652 4.59615 83.5901 4.36929 83.5161 4.07687C83.4422 3.7847 83.4816 3.50487 83.6342 3.23789C83.7911 2.9633 84.0122 2.78705 84.2973 2.70942C84.5824 2.63153 84.8631 2.67349 85.1396 2.83479C85.4162 2.99634 85.5905 3.22005 85.6624 3.50618C85.7345 3.79257 85.6922 4.07293 85.5353 4.34752C85.3827 4.61451 85.1648 4.79022 84.8813 4.87362C84.598 4.95755 84.3178 4.91873 84.0415 4.75744H84.0417ZM80.1905 3.73094C79.8512 3.73094 79.5705 3.61633 79.349 3.38659C79.1277 3.15737 79.0166 2.87885 79.0166 2.55075C79.0166 2.21348 79.1277 1.93286 79.349 1.7081C79.5705 1.48334 79.8512 1.37109 80.1905 1.37109C80.5299 1.37109 80.8082 1.48334 81.0251 1.7081C81.242 1.93286 81.3504 2.21375 81.3504 2.55075C81.3504 2.87858 81.242 3.15711 81.0251 3.38659C80.8082 3.61607 80.5299 3.73094 80.1905 3.73094ZM71.7957 8.73834C71.3557 8.73834 70.992 8.58963 70.7048 8.29223C70.4176 7.99482 70.2739 7.63368 70.2739 7.20882C70.2739 6.77162 70.4176 6.4076 70.7048 6.11623C70.992 5.82485 71.3557 5.6793 71.7957 5.6793C72.2357 5.6793 72.5963 5.82485 72.8775 6.11623C73.1585 6.4076 73.2994 6.77162 73.2994 7.20882C73.2994 7.63368 73.1588 7.99482 72.8775 8.29223C72.5963 8.5899 72.2357 8.73834 71.7957 8.73834ZM74.8873 2.54682C75.2121 2.35747 75.5429 2.31052 75.8802 2.40625C76.2174 2.50171 76.4755 2.7068 76.6545 3.01994C76.8387 3.34253 76.886 3.67298 76.797 4.01182C76.708 4.35041 76.501 4.61451 76.1762 4.80386C75.8519 4.99321 75.5242 5.04121 75.1942 4.94706C74.864 4.85317 74.6069 4.64519 74.4227 4.32261C74.2437 4.0092 74.1952 3.6819 74.2774 3.34148C74.3594 3.00106 74.5628 2.73618 74.8873 2.54682ZM83.7699 19.0091C83.9408 18.9094 84.1149 18.8848 84.2926 18.9351C84.4701 18.9855 84.6063 19.0933 84.7004 19.2585C84.7977 19.4285 84.8226 19.6026 84.7754 19.7807C84.7285 19.959 84.6195 20.0978 84.4485 20.1977C84.2776 20.2973 84.105 20.3228 83.9312 20.2732C83.7574 20.2236 83.622 20.114 83.525 19.9443C83.4305 19.7794 83.4051 19.6071 83.4484 19.4277C83.4918 19.2485 83.5986 19.1088 83.7699 19.0088V19.0091ZM86.7722 15.809C86.8882 15.6062 87.0508 15.4775 87.2607 15.4234C87.4706 15.3694 87.6714 15.3983 87.8631 15.51C88.0603 15.6249 88.1869 15.7872 88.2427 15.9965C88.2987 16.2055 88.2683 16.4116 88.1526 16.6144C88.0367 16.8174 87.8761 16.9453 87.6706 16.9983C87.4651 17.051 87.2638 17.0201 87.0667 16.9047C86.875 16.793 86.7489 16.633 86.6887 16.425C86.6285 16.217 86.6565 16.0117 86.7722 15.8087V15.809ZM87.758 11.5784C87.758 11.3033 87.8488 11.0759 88.0307 10.8965C88.2126 10.7171 88.4336 10.6272 88.6933 10.6272C88.9605 10.6272 89.1833 10.7169 89.3616 10.8965C89.5398 11.0759 89.6288 11.3033 89.6288 11.5784C89.6288 11.8532 89.5398 12.0788 89.3616 12.2545C89.1833 12.4302 88.9605 12.5181 88.6933 12.5181C88.4336 12.5181 88.2126 12.4302 88.0307 12.2545C87.8488 12.0788 87.758 11.8535 87.758 11.5784ZM86.7782 7.53979C86.6422 7.30166 86.6085 7.05906 86.6773 6.81149C86.7458 6.56417 86.8929 6.37482 87.1178 6.24342C87.3494 6.1081 87.5868 6.07348 87.8296 6.13878C88.0727 6.20435 88.2621 6.3562 88.3983 6.59407C88.5343 6.83221 88.5688 7.07244 88.5013 7.31477C88.4339 7.5571 88.2847 7.74567 88.053 7.881C87.8278 8.01239 87.5933 8.0478 87.3487 7.98748C87.1045 7.92742 86.9141 7.77819 86.7782 7.54006V7.53979Z" fill="#2576B3"/>
  </g>
  <defs>
    <linearGradient id="paint0_linear_23927_1633" x1="72.6674" y1="4.59615" x2="87.3674" y2="16.9154" gradientUnits="userSpaceOnUse">
      <stop stop-color="#0FA847"/>
      <stop offset="0.471875" stop-color="#1D8242"/>
      <stop offset="1" stop-color="#324539"/>
    </linearGradient>
    <clipPath id="clip0_23927_1633">
      <rect width="89.6296" height="20" fill="white" transform="translate(0 0.955078)"/>
    </clipPath>
  </defs>
</svg>