<svg
                                                xmlns="http://www.w3.org/2000/svg" width="44" height="44"
                                                viewBox="0 0 44 44" fill="none">
                                                <path
                                                    d="M22.2918 0.391602C10.334 0.391602 0.59375 10.0735 0.59375 21.9596C0.59375 33.8457 10.334 43.5276 22.2918 43.5276C34.2496 43.5276 43.9898 33.8457 43.9898 21.9596C43.9898 10.0735 34.2496 0.391602 22.2918 0.391602ZM22.2918 4.7052C31.9043 4.7052 39.6502 12.4047 39.6502 21.9596C39.6502 31.5145 31.9043 39.214 22.2918 39.214C12.6793 39.214 4.93336 31.5145 4.93336 21.9596C4.93336 12.4047 12.6793 4.7052 22.2918 4.7052ZM17.9522 14.4866V29.4326L30.971 21.9596L17.9522 14.4866Z"
                                                    fill="white" />
                                            </svg>