<svg xmlns="http://www.w3.org/2000/svg" width="25" height="25" viewBox="0 0 25 25" fill="none">
  <path d="M10.075 16.4158L16.75 12.1658L10.075 7.91577V16.4158ZM12.5 22.1658C11.1333 22.1658 9.84167 21.9033 8.625 21.3783C7.40833 20.8533 6.34583 20.1366 5.4375 19.2283C4.52917 18.3199 3.8125 17.2574 3.2875 16.0408C2.7625 14.8241 2.5 13.5324 2.5 12.1658C2.5 10.7824 2.7625 9.48244 3.2875 8.26577C3.8125 7.0491 4.52917 5.99077 5.4375 5.09077C6.34583 4.19077 7.40833 3.47827 8.625 2.95327C9.84167 2.42827 11.1333 2.16577 12.5 2.16577C13.8833 2.16577 15.1833 2.42827 16.4 2.95327C17.6167 3.47827 18.675 4.19077 19.575 5.09077C20.475 5.99077 21.1875 7.0491 21.7125 8.26577C22.2375 9.48244 22.5 10.7824 22.5 12.1658C22.5 13.5324 22.2375 14.8241 21.7125 16.0408C21.1875 17.2574 20.475 18.3199 19.575 19.2283C18.675 20.1366 17.6167 20.8533 16.4 21.3783C15.1833 21.9033 13.8833 22.1658 12.5 22.1658ZM12.5 20.6658C14.8667 20.6658 16.875 19.8366 18.525 18.1783C20.175 16.5199 21 14.5158 21 12.1658C21 9.79911 20.175 7.79077 18.525 6.14077C16.875 4.49077 14.8667 3.66577 12.5 3.66577C10.15 3.66577 8.14583 4.49077 6.4875 6.14077C4.82917 7.79077 4 9.79911 4 12.1658C4 14.5158 4.82917 16.5199 6.4875 18.1783C8.14583 19.8366 10.15 20.6658 12.5 20.6658Z" fill="black"/>
</svg>