<svg xmlns="http://www.w3.org/2000/svg" width="43" height="35"
                                            viewBox="0 0 43 35" fill="none">
                                            <g opacity="0.8">
                                                <path fill-rule="evenodd" clip-rule="evenodd"
                                                    d="M21.6055 6H24.273V24.139H17.0854C16.5519 22.005 14.9045 20.4045 11.9966 20.4045C9.08877 20.4045 7.44137 22.005 6.90787 24.139H6.134C6.134 24.139 6.134 24.139 6.134 23.6055C6.134 22.5385 5.067 20.938 4 20.4045V6L21.6055 6Z"
                                                    stroke="black" stroke-miterlimit="2.61313" stroke-linecap="round"
                                                    stroke-linejoin="round" />
                                                <path fill-rule="evenodd" clip-rule="evenodd"
                                                    d="M12.0025 22.8203C13.603 22.8203 14.67 23.8873 14.67 25.4878C14.67 27.0883 13.603 28.1553 12.0025 28.1553C10.402 28.1553 9.33496 27.0883 9.33496 25.4878C9.33496 23.8873 10.402 22.8203 12.0025 22.8203Z"
                                                    stroke="black" stroke-miterlimit="2.61313" stroke-linecap="round"
                                                    stroke-linejoin="round" />
                                                <path fill-rule="evenodd" clip-rule="evenodd"
                                                    d="M33.3072 22.8203C34.9077 22.8203 35.9747 23.8873 35.9747 25.4878C35.9747 27.0883 34.9077 28.1553 33.3072 28.1553C31.7066 28.1553 30.6396 27.0883 30.6396 25.4878C30.6396 23.8873 31.7066 22.8203 33.3072 22.8203Z"
                                                    stroke="black" stroke-miterlimit="2.61313" stroke-linecap="round"
                                                    stroke-linejoin="round" />
                                                <path fill-rule="evenodd" clip-rule="evenodd"
                                                    d="M27.7962 10.5498H34.1982L38.9997 16.4183V24.4208H38.1672C37.6337 22.2868 35.9863 20.6863 33.1312 20.6863C30.1706 20.6863 28.5232 22.2868 27.9897 24.4208H27.2627V10.5498H27.7962Z"
                                                    stroke="black" stroke-miterlimit="2.61313" stroke-linecap="round"
                                                    stroke-linejoin="round" />
                                                <path d="M38.9999 16.0967L27.7812 16.0967" stroke="black" />
                                                <path d="M30.0244 10.4874L30.0244 16.0967" stroke="black" />
                                                <path d="M19.9278 6H4.22168V18.3405H19.9278V6Z" stroke="black"
                                                    stroke-miterlimit="2.61313" stroke-linecap="round"
                                                    stroke-linejoin="round" />
                                                <path
                                                    d="M12.3478 13.8502C12.0553 13.8274 11.7849 13.759 11.5199 13.6449C11.1943 13.4966 10.9018 13.297 10.6534 13.0461C10.4051 12.7951 10.2064 12.4986 10.0518 12.1564C9.90832 11.8199 9.83105 11.4492 9.83105 11.0557C9.83105 10.6679 9.90832 10.2972 10.0573 9.95504C10.2064 9.61286 10.4051 9.31631 10.6589 9.05967C10.9073 8.80304 11.1998 8.60343 11.5255 8.46086C11.8511 8.31828 12.1933 8.24414 12.5521 8.24414C12.9108 8.24414 13.2585 8.31828 13.5842 8.46086C13.9153 8.60913 14.2078 8.80874 14.4562 9.05967C14.7101 9.31631 14.9088 9.61286 15.0578 9.95504C15.2068 10.2972 15.2841 10.6622 15.2841 11.0557C15.2841 11.4492 15.2068 11.8142 15.0578 12.1564C14.9088 12.4986 14.7046 12.7951 14.4562 13.0461C14.2023 13.297 13.9153 13.4966 13.5842 13.6449C13.2751 13.7761 12.9494 13.8502 12.6128 13.8559C12.6183 13.8559 12.4472 13.8616 12.3478 13.8502ZM12.5521 13.7019C12.8335 13.7019 13.0764 13.6335 13.2751 13.5023C13.4793 13.3711 13.6449 13.183 13.7718 12.9491C13.9043 12.7153 13.9981 12.4359 14.0588 12.1108C14.1195 11.7914 14.1526 11.4378 14.1526 11.05C14.1526 10.6679 14.1195 10.3143 14.0588 9.98926C14.0036 9.66989 13.9098 9.38474 13.7773 9.15092C13.6449 8.9171 13.4793 8.7289 13.2806 8.59202C13.0764 8.45515 12.8391 8.38672 12.5576 8.38672C12.2761 8.38672 12.0332 8.45515 11.8345 8.59202C11.6303 8.7289 11.4648 8.91139 11.3378 9.15092C11.2109 9.39045 11.117 9.66989 11.0508 9.99497C10.9901 10.32 10.957 10.6736 10.957 11.05C10.957 11.4264 10.9901 11.78 11.0508 12.1051C11.1115 12.4302 11.2054 12.7096 11.3378 12.9434C11.4648 13.1772 11.6303 13.3654 11.8345 13.4966C12.0332 13.6392 12.2761 13.7019 12.5521 13.7019Z"
                                                    fill="black" />
                                                <path
                                                    d="M12.3478 13.8502C12.0553 13.8274 11.7849 13.759 11.5199 13.6449C11.1943 13.4966 10.9018 13.297 10.6534 13.0461C10.4051 12.7951 10.2064 12.4986 10.0518 12.1564C9.90832 11.8199 9.83105 11.4492 9.83105 11.0557C9.83105 10.6679 9.90832 10.2972 10.0573 9.95504C10.2064 9.61286 10.4051 9.31631 10.6589 9.05967C10.9073 8.80304 11.1998 8.60343 11.5255 8.46086C11.8511 8.31828 12.1933 8.24414 12.5521 8.24414C12.9108 8.24414 13.2585 8.31828 13.5842 8.46086C13.9153 8.60913 14.2078 8.80874 14.4562 9.05967C14.7101 9.31631 14.9088 9.61286 15.0578 9.95504C15.2068 10.2972 15.2841 10.6622 15.2841 11.0557C15.2841 11.4492 15.2068 11.8142 15.0578 12.1564C14.9088 12.4986 14.7046 12.7951 14.4562 13.0461C14.2023 13.297 13.9153 13.4966 13.5842 13.6449C13.2751 13.7761 12.9494 13.8502 12.6128 13.8559C12.6183 13.8559 12.4472 13.8616 12.3478 13.8502ZM12.5521 13.7019C12.8335 13.7019 13.0764 13.6335 13.2751 13.5023C13.4793 13.3711 13.6449 13.183 13.7718 12.9491C13.9043 12.7153 13.9981 12.4359 14.0588 12.1108C14.1195 11.7914 14.1526 11.4378 14.1526 11.05C14.1526 10.6679 14.1195 10.3143 14.0588 9.98926C14.0036 9.66989 13.9098 9.38474 13.7773 9.15092C13.6449 8.9171 13.4793 8.7289 13.2806 8.59202C13.0764 8.45515 12.8391 8.38672 12.5576 8.38672C12.2761 8.38672 12.0332 8.45515 11.8345 8.59202C11.6303 8.7289 11.4648 8.91139 11.3378 9.15092C11.2109 9.39045 11.117 9.66989 11.0508 9.99497C10.9901 10.32 10.957 10.6736 10.957 11.05C10.957 11.4264 10.9901 11.78 11.0508 12.1051C11.1115 12.4302 11.2054 12.7096 11.3378 12.9434C11.4648 13.1772 11.6303 13.3654 11.8345 13.4966C12.0332 13.6392 12.2761 13.7019 12.5521 13.7019Z"
                                                    stroke="black" />
                                                <path
                                                    d="M15.2842 14.4483C14.9144 14.4483 14.5722 14.4825 14.2631 14.5452C13.954 14.6079 13.6836 14.7106 13.4518 14.8418C13.2255 14.9786 13.0434 15.1497 12.9164 15.355C12.7895 15.5603 12.7232 15.8113 12.7232 16.0964H12.5742V16.0337C12.5853 15.6858 12.6515 15.3493 12.7784 15.03C12.9219 14.6935 13.1151 14.3912 13.358 14.1289C13.6008 13.8666 13.8878 13.6612 14.219 13.5073C14.5501 13.3533 14.9033 13.2734 15.2842 13.2734V14.4483Z"
                                                    fill="black" />
                                                <path
                                                    d="M15.2842 14.4483C14.9144 14.4483 14.5722 14.4825 14.2631 14.5452C13.954 14.6079 13.6836 14.7106 13.4518 14.8418C13.2255 14.9786 13.0434 15.1497 12.9164 15.355C12.7895 15.5603 12.7232 15.8113 12.7232 16.0964H12.5742V16.0337C12.5853 15.6858 12.6515 15.3493 12.7784 15.03C12.9219 14.6935 13.1151 14.3912 13.358 14.1289C13.6008 13.8666 13.8878 13.6612 14.219 13.5073C14.5501 13.3533 14.9033 13.2734 15.2842 13.2734V14.4483Z"
                                                    stroke="black" />
                                            </g>
                                        </svg>