<svg xmlns="http://www.w3.org/2000/svg" width="99" height="25" viewBox="0 0 99 25" fill="none">
  <g clip-path="url(#clip0_18538_2574)">
    <path d="M25.6654 8.3072C24.8793 6.6564 23.3857 5.58731 21.1322 5.58731C20.4415 5.59982 19.7629 5.77076 19.1487 6.08695C18.5344 6.40315 18.001 6.85616 17.5895 7.41106L17.5057 7.51063V1.01747C17.5057 0.979941 17.4908 0.943951 17.4642 0.917415C17.4377 0.890879 17.4017 0.875977 17.3642 0.875977H14.1831C14.1465 0.877333 14.1119 0.892832 14.0864 0.919222C14.061 0.945612 14.0468 0.980831 14.0469 1.01747V19.6008C14.0469 19.6369 14.0612 19.6716 14.0868 19.6971C14.1123 19.7227 14.147 19.737 14.1831 19.737H17.5895C17.6262 19.7371 17.6614 19.7229 17.6878 19.6975C17.7142 19.6721 17.7297 19.6374 17.731 19.6008V11.6769C17.7132 11.3241 17.7703 10.9714 17.8987 10.6422C18.0271 10.3131 18.2238 10.0148 18.4758 9.76724C18.7279 9.51964 19.0296 9.32829 19.361 9.2058C19.6924 9.0833 20.046 9.03246 20.3985 9.05661C22.1961 9.05661 22.6468 10.5345 22.6468 12.0438V19.6113C22.6468 19.6474 22.6611 19.6821 22.6867 19.7076C22.7122 19.7332 22.7469 19.7475 22.783 19.7475H26.1842C26.2208 19.7475 26.2561 19.7334 26.2824 19.708C26.3088 19.6825 26.3243 19.6479 26.3257 19.6113V11.5931C26.3318 11.3235 26.3195 11.0539 26.289 10.786C26.233 9.9288 26.0217 9.08888 25.6654 8.3072Z" fill="white"/>
    <path d="M8.6232 11.0478C8.6232 11.0478 6.88855 10.639 6.24919 10.4766C5.60983 10.3141 4.49357 9.9525 4.49357 9.11924C4.49357 8.28597 5.39496 8.00299 6.30683 8.00299C7.2187 8.00299 8.2354 8.22309 8.31401 9.23978C8.3179 9.27591 8.33505 9.30931 8.36216 9.33351C8.38927 9.35772 8.4244 9.371 8.46074 9.37079H11.82H11.8776L11.9248 9.33935C11.9383 9.32464 11.9486 9.30722 11.9549 9.28825C11.9613 9.26928 11.9635 9.2492 11.9615 9.2293C11.7519 5.98534 8.9062 4.82715 6.28063 4.82715C3.16769 4.82715 0.893256 6.88149 0.893256 9.14545C0.893256 10.7963 1.35967 12.3475 5.03336 13.427C5.67796 13.6157 6.55315 13.8568 7.31829 14.0716C8.2354 14.3284 8.73325 14.7163 8.73325 15.3242C8.73325 16.0317 7.68512 16.5243 6.69988 16.5243C5.23774 16.5243 4.2001 16.0002 4.11625 15.0097C4.11117 14.9745 4.0935 14.9424 4.06651 14.9193C4.03952 14.8961 4.00505 14.8836 3.96951 14.8839H0.615502H0.557847L0.510683 14.9154C0.497121 14.9292 0.486436 14.9456 0.479241 14.9636C0.472045 14.9816 0.468487 15.0008 0.468765 15.0202C0.620744 18.0807 3.58171 19.7368 6.33829 19.7368C10.447 19.7368 12.3021 17.4257 12.3021 15.2613C12.3336 14.2446 12.103 11.9282 8.6232 11.0478Z" fill="white"/>
    <path d="M51.8686 5.5665C51.0791 5.59214 50.3053 5.79363 49.6036 6.15628C48.9019 6.51893 48.2899 7.03359 47.8123 7.66276V5.68704C47.8123 5.65091 47.798 5.61625 47.7724 5.5907C47.7469 5.56515 47.7122 5.55078 47.6761 5.55078H44.4898C44.4536 5.55078 44.419 5.56515 44.3934 5.5907C44.3679 5.61625 44.3535 5.65091 44.3535 5.68704V23.9245C44.3535 23.9606 44.3679 23.9953 44.3934 24.0208C44.419 24.0464 44.4536 24.0607 44.4898 24.0607H47.9014C47.9376 24.0607 47.9722 24.0464 47.9978 24.0208C48.0233 23.9953 48.0377 23.9606 48.0377 23.9245V17.9344H48.0901C48.564 18.5229 49.168 18.9935 49.8546 19.309C50.5411 19.6246 51.2915 19.7765 52.0468 19.7529C55.6838 19.7529 58.7181 16.7343 58.7181 12.6571C58.7383 11.7406 58.5766 10.8293 58.2425 9.97568C57.9084 9.12206 57.4085 8.34309 56.7716 7.68379C56.1347 7.0245 55.3735 6.49794 54.532 6.13453C53.6904 5.77112 52.7852 5.57805 51.8686 5.5665ZM51.5542 16.2784C50.8357 16.2961 50.1282 16.0993 49.5221 15.7131C48.9159 15.3269 48.4386 14.7689 48.1511 14.1102C47.8635 13.4515 47.7788 12.7221 47.9076 12.015C48.0365 11.308 48.3732 10.6553 48.8746 10.1405C49.3761 9.6256 50.0196 9.27185 50.723 9.12436C51.4264 8.97687 52.1578 9.04232 52.8239 9.31239C53.4899 9.58246 54.0604 10.0449 54.4624 10.6406C54.8644 11.2364 55.0799 11.9384 55.0811 12.6571C55.088 13.1266 55.0022 13.593 54.8286 14.0293C54.655 14.4656 54.3969 14.8634 54.0693 15.1998C53.7416 15.5362 53.3508 15.8047 52.9192 15.9897C52.4876 16.1748 52.0237 16.2729 51.5542 16.2784Z" fill="white"/>
    <path d="M34.2545 4.76485C32.0755 4.70892 29.9437 5.40473 28.2173 6.73533H28.1806C28.1146 6.7802 28.0682 6.84847 28.0506 6.92632C28.0331 7.00417 28.0459 7.08577 28.0863 7.15458L29.344 9.31896C29.3681 9.3593 29.4008 9.39384 29.4397 9.42011C29.4787 9.44637 29.5229 9.46373 29.5694 9.47095C29.6145 9.47939 29.661 9.47765 29.7055 9.46586C29.7499 9.45408 29.7911 9.43254 29.8262 9.40282L29.9257 9.31896C30.5808 8.7949 31.6289 8.03501 34.1706 7.83587C34.8046 7.75717 35.4481 7.81462 36.0581 8.00441C36.6681 8.19419 37.2306 8.51193 37.7081 8.93641C38.2229 9.45401 38.6276 10.0705 38.8978 10.7487C39.168 11.4269 39.2981 12.1528 39.2803 12.8826C39.2803 15.7492 37.5928 17.552 34.8781 17.5992C32.6404 17.5992 31.1416 16.42 31.1416 14.7011C31.1464 14.2759 31.2614 13.8593 31.4754 13.4918C31.6895 13.1244 31.9951 12.8188 32.3626 12.6049C32.4233 12.5607 32.4662 12.4962 32.4835 12.4232C32.5008 12.3501 32.4914 12.2733 32.457 12.2066L31.3302 10.0736C31.309 10.0356 31.2805 10.0021 31.2464 9.97512C31.2122 9.94813 31.173 9.92818 31.1311 9.91641C31.0885 9.90346 31.0436 9.89957 30.9994 9.90499C30.9551 9.9104 30.9125 9.925 30.8743 9.94785C30.0093 10.3976 29.2915 11.0859 28.8057 11.9311C28.3199 12.7763 28.0866 13.7431 28.1334 14.7168C28.2382 18.0813 31.0315 20.6492 34.6685 20.754H35.0982C36.1001 20.7526 37.0913 20.5495 38.0131 20.157C38.9348 19.7645 39.7681 19.1905 40.4634 18.4693C41.1588 17.748 41.7019 16.8943 42.0604 15.9588C42.4189 15.0234 42.5856 14.0253 42.5504 13.0241C42.5504 9.04121 39.6419 4.76485 34.2545 4.76485Z" fill="white"/>
    <path d="M72.1552 6.81934H69.9908C69.9393 6.81934 69.89 6.83976 69.8537 6.87613C69.8173 6.91249 69.7969 6.96181 69.7969 7.01324V11.5569C69.7982 11.6074 69.8193 11.6554 69.8555 11.6906C69.8917 11.7259 69.9402 11.7456 69.9908 11.7455H72.1552C72.7806 11.7047 73.3672 11.4275 73.7957 10.97C74.2243 10.5126 74.4627 9.90924 74.4627 9.28243C74.4627 8.65561 74.2243 8.05228 73.7957 7.59484C73.3672 7.13741 72.7806 6.86016 72.1552 6.81934Z" fill="white"/>
    <path d="M78.8105 14.8633C78.8105 15.5236 79.3661 15.9114 80.3356 15.9114C81.6562 15.9114 82.4318 15.1987 82.4318 13.9304V13.5479L80.4561 13.6527C79.4185 13.6998 78.8105 14.1296 78.8105 14.8633Z" fill="white"/>
    <path d="M94.8535 0.918105H65.747C64.7833 0.919493 63.8596 1.3033 63.1786 1.98522C62.4977 2.66714 62.1152 3.59142 62.1152 4.55511V20.4867C62.1152 21.4503 62.4977 22.3746 63.1786 23.0566C63.8596 23.7385 64.7833 24.1223 65.747 24.1237H94.8535C95.3333 24.1278 95.8092 24.037 96.2538 23.8564C96.6983 23.6758 97.1028 23.409 97.4438 23.0714C97.7848 22.7339 98.0556 22.3321 98.2406 21.8894C98.4257 21.4467 98.5213 20.9717 98.522 20.4919V4.56036C98.5227 4.07964 98.4281 3.60354 98.2437 3.15961C98.0592 2.71568 97.7886 2.31272 97.4475 1.97402C97.1064 1.63532 96.7015 1.36762 96.2562 1.18637C95.811 1.00513 95.3342 0.913948 94.8535 0.918105ZM72.2664 13.5481H69.9762C69.9248 13.5481 69.8755 13.5685 69.8391 13.6048C69.8027 13.6412 69.7823 13.6905 69.7823 13.742V17.0016C69.7823 17.0531 69.7619 17.1024 69.7255 17.1387C69.6891 17.1751 69.6398 17.1955 69.5884 17.1955H67.9795C67.9281 17.1955 67.8788 17.1751 67.8424 17.1387C67.806 17.1024 67.7856 17.0531 67.7856 17.0016V5.23116C67.7856 5.17973 67.806 5.13041 67.8424 5.09405C67.8788 5.05769 67.9281 5.03726 67.9795 5.03726H72.2664C73.3936 5.03726 74.4746 5.48504 75.2717 6.2821C76.0687 7.07916 76.5165 8.1602 76.5165 9.28741C76.5165 10.4146 76.0687 11.4957 75.2717 12.2927C74.4746 13.0898 73.3936 13.5376 72.2664 13.5376V13.5481ZM84.3198 16.9964C84.3244 17.0206 84.3244 17.0455 84.3198 17.0698C84.3002 17.1172 84.2625 17.1549 84.215 17.1746H84.1417H82.6219H82.5485C82.5011 17.1549 82.4634 17.1172 82.4437 17.0698C82.4389 17.0455 82.4389 17.0206 82.4437 16.9964V16.6453C82.447 16.6144 82.44 16.5834 82.4239 16.5568C82.4078 16.5303 82.3835 16.5099 82.3546 16.4985C82.3254 16.4866 82.293 16.4847 82.2626 16.4932C82.2322 16.5018 82.2056 16.5203 82.1869 16.5457C81.8758 16.8488 81.5035 17.0818 81.095 17.2292C80.6864 17.3765 80.251 17.4347 79.8181 17.3999C78.0835 17.3999 76.9358 16.4985 76.9358 14.9368C76.9189 14.5565 76.9973 14.178 77.1639 13.8358C77.3304 13.4935 77.5799 13.1982 77.8896 12.9768C78.5132 12.5052 79.4618 12.2641 80.9239 12.2065L82.4489 12.154V11.7086C82.4489 10.8072 81.841 10.4246 80.8767 10.4246C79.9124 10.4246 79.3045 10.7705 79.1473 11.3313C79.1365 11.3712 79.1125 11.4063 79.0792 11.4308C79.046 11.4557 79.0054 11.4687 78.9639 11.4675H77.4336C77.4055 11.4687 77.3775 11.4636 77.3517 11.4525C77.3258 11.4415 77.3027 11.4248 77.2841 11.4037C77.2656 11.3826 77.2519 11.3576 77.2442 11.3306C77.2366 11.3036 77.235 11.2751 77.2397 11.2474C77.4651 9.91104 78.5708 8.89961 80.9082 8.89961C83.408 8.89961 84.3094 10.063 84.3094 12.2798L84.3198 16.9964ZM93.8106 9.35554L90.4252 18.3904C89.6548 20.4867 88.3289 21.0107 86.8301 21.0107C86.5525 21.0176 86.2753 20.9841 86.0073 20.9111C85.9657 20.8998 85.929 20.8753 85.9025 20.8413C85.876 20.8073 85.8613 20.7656 85.8606 20.7225V19.3494C85.8546 19.3218 85.8546 19.2932 85.8606 19.2656C85.8787 19.2257 85.9098 19.193 85.9488 19.173C85.9878 19.1531 86.0325 19.1469 86.0754 19.1555C86.3086 19.2003 86.5455 19.223 86.7829 19.2237C87.1908 19.2443 87.5937 19.1274 87.9273 18.8917C88.2608 18.6561 88.5056 18.3153 88.6224 17.924L88.722 17.6096C88.7376 17.5673 88.7376 17.5208 88.722 17.4785L85.5776 9.34507C85.5705 9.31579 85.5705 9.28524 85.5776 9.25597C85.5831 9.22555 85.5957 9.19684 85.6143 9.17212C85.632 9.14773 85.6554 9.12797 85.6824 9.11448C85.7117 9.10756 85.7422 9.10756 85.7715 9.11448H87.3122C87.3519 9.11482 87.3905 9.12697 87.4231 9.14937C87.4558 9.17178 87.4811 9.20341 87.4957 9.24025L89.6443 15.005C89.6587 15.0426 89.6842 15.0751 89.7174 15.0979C89.7507 15.1208 89.79 15.1331 89.8304 15.1331C89.8707 15.1331 89.9101 15.1208 89.9433 15.0979C89.9765 15.0751 90.002 15.0426 90.0164 15.005L91.8821 9.28216C91.8952 9.24394 91.9199 9.21077 91.9528 9.18728C91.9857 9.16379 92.0251 9.15115 92.0655 9.15115H93.6377C93.6682 9.15135 93.6982 9.15855 93.7254 9.17218C93.7527 9.18581 93.7765 9.20551 93.7949 9.22977C93.8135 9.25449 93.826 9.2832 93.8316 9.31362C93.8385 9.34292 93.8385 9.37341 93.8316 9.40271L93.8106 9.35554Z" fill="white"/>
  </g>
  <defs>
    <clipPath id="clip0_18538_2574">
      <rect width="98" height="23.2475" fill="white" transform="translate(0.5 0.875977)"/>
    </clipPath>
  </defs>
</svg>