<svg width="40" height="41" viewBox="0 0 40 41" fill="none" xmlns="http://www.w3.org/2000/svg">
<path d="M10.7519 15.4808C12.3068 15.7014 13.8892 15.2977 15.1559 14.3378C17.7729 12.3613 18.2963 8.62111 16.3227 6.00033C15.3662 4.73025 13.9731 3.90931 12.3998 3.68892C10.8273 3.46861 9.26338 3.87447 7.99572 4.83189C5.37869 6.80845 4.85533 10.5487 6.82893 13.1694C7.78541 14.4395 9.17861 15.2604 10.7518 15.4808H10.7519ZM8.46666 5.45525C9.56674 4.6215 10.941 4.27095 12.2914 4.46259C13.6578 4.65408 14.8678 5.36712 15.6986 6.47033C17.4135 8.74744 16.9588 11.9972 14.685 13.7145C13.5842 14.546 12.2257 14.8985 10.8603 14.7071C9.49393 14.5156 8.28385 13.8026 7.45307 12.6994C5.73822 10.4223 6.19291 7.17259 8.46666 5.45525Z" fill="black"/>
<path d="M10.4743 17.4611C12.0166 17.6802 13.5803 17.44 14.9752 16.7778L16.2762 18.5054L12.2779 21.5254C12.1059 21.6553 12.0716 21.8999 12.2013 22.0721L13.67 24.0223C13.793 24.1927 14.0523 24.2287 14.2175 24.099L18.2149 21.0798L19.2137 22.4061L15.2153 25.4259C15.0433 25.5558 15.0091 25.8004 15.1387 25.9726L16.6074 27.9229C16.7306 28.0932 16.9893 28.1297 17.1549 27.9997L21.1523 24.9804L22.4498 26.7033C20.0192 29.4778 19.7762 33.6797 22.0807 36.7398C23.3569 38.4346 25.219 39.5304 27.3237 39.8254C29.4015 40.1206 31.5186 39.5828 33.2087 38.3015C36.7062 35.6599 37.4058 30.6612 34.768 27.1586C33.4917 25.4639 31.6297 24.3681 29.525 24.0731C27.9626 23.8542 26.4082 24.0967 25.0187 24.7591L23.7232 23.0387L27.7215 20.0189C27.8935 19.889 27.9278 19.6443 27.7981 19.4722L26.3294 17.5218C26.2064 17.3515 25.9471 17.3152 25.7819 17.4451L21.7845 20.4643L20.7858 19.1381L24.7841 16.1183C24.9561 15.9883 24.9904 15.7437 24.8607 15.5715L23.392 13.6212C23.269 13.4509 23.0097 13.4147 22.8445 13.5445L18.8471 16.5637L17.5457 14.8356C19.98 12.0612 20.2245 7.85622 17.9187 4.79443C16.6424 3.09966 14.7804 2.00388 12.6757 1.70888C10.5719 1.41411 8.48202 1.95529 6.79069 3.23286C3.29319 5.87443 2.59374 10.873 5.23139 14.3756C6.50764 16.0704 8.36968 17.1661 10.4744 17.4611L10.4743 17.4611ZM29.4166 24.8467C31.3144 25.1126 32.9934 26.1006 34.1441 27.6285C36.523 30.7875 35.8922 35.2956 32.7379 37.6779C31.2131 38.8295 29.3287 39.3173 27.4322 39.0516C25.5343 38.7857 23.8555 37.7977 22.7048 36.2698C20.3259 33.1108 20.9567 28.6027 24.1109 26.2204C25.6344 25.0654 27.5434 24.5805 29.4166 24.8468V24.8467ZM18.4583 17.3461C18.5206 17.429 18.6134 17.4836 18.7161 17.4979C18.8187 17.5122 18.923 17.4853 19.0058 17.4228L23.0032 14.4036L24.0019 15.7298L20.0036 18.7497C19.8316 18.8796 19.7973 19.1242 19.927 19.2964L21.3957 21.2467C21.458 21.3295 21.5508 21.3842 21.6535 21.3986C21.7563 21.4128 21.8604 21.3859 21.9432 21.3234L25.9406 18.3042L26.9394 19.6304L22.941 22.6503C22.7691 22.7802 22.7348 23.0248 22.8644 23.197L24.3233 25.1342C24.0894 25.2758 23.8612 25.43 23.6401 25.597C23.4151 25.7669 23.2018 25.9468 23.0001 26.1353L21.5411 24.1979C21.4787 24.115 21.3859 24.0604 21.2833 24.0461C21.1806 24.0318 21.0764 24.0587 20.9936 24.1212L16.9962 27.1404L15.9974 25.8142L19.9958 22.7943C20.1677 22.6644 20.202 22.4198 20.0723 22.2476L18.6037 20.2973C18.5413 20.2145 18.4485 20.1598 18.3458 20.1454C18.2432 20.1311 18.139 20.1581 18.0562 20.2206L14.0587 23.2398L13.06 21.9136L17.0583 18.8936C17.2303 18.7637 17.2646 18.5191 17.1349 18.3469L15.6713 16.4034C15.9073 16.2608 16.1371 16.1056 16.3594 15.9371C16.5827 15.7683 16.7946 15.5899 16.995 15.4029L18.4583 17.3461ZM7.26147 3.85615C8.78499 2.70107 10.694 2.21622 12.5672 2.48247C14.465 2.74841 16.144 3.73638 17.2946 5.26427C19.6735 8.42325 19.0427 12.9314 15.8884 15.3137C14.3637 16.4653 12.4793 16.9531 10.5827 16.6874C8.68483 16.4215 7.006 15.4335 5.85538 13.9056C3.47647 10.7466 4.10725 6.23841 7.26147 3.85615Z" fill="black"/>
<path d="M23.6767 35.5336C24.6331 36.8037 26.0263 37.6247 27.5996 37.8451C29.1545 38.0657 30.7369 37.662 32.0035 36.7021C34.6206 34.7255 35.1439 30.9854 33.1703 28.3646C32.2139 27.0945 30.8207 26.2736 29.2474 26.0532C27.6749 25.8329 26.111 26.2387 24.8434 27.1961C22.2263 29.1727 21.703 32.9129 23.6766 35.5336H23.6767ZM25.3143 27.8195C26.4144 26.9858 27.7887 26.6352 29.1391 26.8269C30.5055 27.0183 31.7155 27.7314 32.5463 28.8346C34.2611 31.1117 33.8064 34.3615 31.5327 36.0787C30.4318 36.9102 29.0734 37.2627 27.708 37.0714C26.3416 36.8799 25.1315 36.1669 24.3007 35.0636C22.5859 32.7865 23.0406 29.5369 25.3143 27.8195Z" fill="black"/>
</svg>
