<svg width="45" height="46" viewBox="0 0 45 46" fill="none" xmlns="http://www.w3.org/2000/svg">
<g id="fi_4738038">
<g id="Group">
<path id="Vector" d="M42.6562 2.375H41.25C41.0556 2.3761 40.8634 2.41717 40.6856 2.49566C40.5077 2.57415 40.3478 2.68837 40.2159 2.83124C40.0841 2.97411 39.983 3.14257 39.9189 3.32616C39.8549 3.50975 39.8293 3.70454 39.8438 3.89844H31.5472C29.9846 3.90092 28.4499 4.3134 27.0965 5.09466C25.7432 5.87593 24.6185 6.99863 23.8349 8.35062L22.1082 11.3403C21.9444 11.3401 21.7835 11.3829 21.6414 11.4645C21.4994 11.546 21.3813 11.6634 21.2988 11.8049L20.3613 13.4286C20.2535 13.3672 20.1257 13.3507 20.0059 13.3829C19.886 13.415 19.7836 13.4931 19.7209 13.6003C18.9532 14.9198 17.8515 16.0139 16.5267 16.7725C15.2019 17.5311 13.7007 17.9275 12.174 17.9218C11.8583 17.7834 11.5027 17.7659 11.1749 17.8727C10.8471 17.9795 10.57 18.2031 10.3963 18.5009L9.69314 19.7188C9.66235 19.7721 9.64237 19.8309 9.63433 19.892C9.6263 19.953 9.63037 20.015 9.64631 20.0745C9.66225 20.134 9.68975 20.1897 9.72724 20.2386C9.76473 20.2874 9.81147 20.3284 9.8648 20.3592L25.291 29.2654C25.3988 29.3267 25.5265 29.3431 25.6463 29.3109C25.7662 29.2788 25.8685 29.2008 25.9312 29.0938L26.6344 27.8761C26.8066 27.5768 26.8622 27.2244 26.7906 26.8866C26.719 26.5487 26.5251 26.2493 26.2463 26.0456C25.4784 24.7264 25.0714 23.2284 25.0661 21.702C25.0608 20.1757 25.4574 18.6748 26.216 17.3503C26.2781 17.2427 26.295 17.1148 26.2628 16.9948C26.2307 16.8747 26.1523 16.7723 26.0447 16.7101L26.9822 15.0857C27.0635 14.9436 27.1061 14.7826 27.1056 14.6188C27.1051 14.4551 27.0616 14.2943 26.9794 14.1527L28.4338 11.633C28.805 10.9925 29.3378 10.4605 29.979 10.0904C30.6202 9.7202 31.3473 9.5248 32.0876 9.52367H39.8438C39.8021 9.73397 39.8068 9.95083 39.8577 10.1591C39.9086 10.3674 40.0043 10.562 40.1383 10.7294C40.2722 10.8968 40.4411 11.0329 40.6331 11.1282C40.8251 11.2236 41.0357 11.2758 41.25 11.2812H42.6562C42.7806 11.2812 42.8998 11.2319 42.9877 11.144C43.0756 11.056 43.125 10.9368 43.125 10.8125V2.84375C43.125 2.71943 43.0756 2.6002 42.9877 2.51229C42.8998 2.42439 42.7806 2.375 42.6562 2.375ZM25.6508 26.7669C25.7581 26.8294 25.8364 26.9317 25.8686 27.0517C25.9007 27.1716 25.8842 27.2994 25.8225 27.4071L25.3537 28.219L10.7396 19.7815L11.2083 18.9698C11.2705 18.8622 11.3729 18.7836 11.493 18.7515C11.6131 18.7193 11.741 18.7361 11.8487 18.7982L25.6508 26.7669ZM24.793 25.1889L13.6443 18.7521C14.9916 18.5483 16.2803 18.0612 17.4256 17.323C18.5709 16.5847 19.5466 15.612 20.2885 14.4691L25.1798 17.2933C24.561 18.5073 24.2067 19.8387 24.14 21.1997C24.0733 22.5607 24.2959 23.9202 24.793 25.1889ZM25.2328 16.2411L21.1734 13.8974L22.1109 12.2737L26.1703 14.6174L25.2328 16.2411ZM32.0879 8.58594C31.183 8.58737 30.2943 8.82622 29.5106 9.27863C28.7269 9.73104 28.0757 10.3812 27.6219 11.1641L26.2331 13.5703L22.9857 11.6953L24.6469 8.81937C25.348 7.60969 26.3542 6.60516 27.5651 5.90614C28.776 5.20713 30.1491 4.8381 31.5472 4.83594H39.8438V8.58594H32.0879ZM42.1875 10.3438H41.25C41.1257 10.3436 41.0066 10.2942 40.9187 10.2063C40.8308 10.1184 40.7814 9.99929 40.7812 9.875V3.78125C40.7814 3.65696 40.8308 3.5378 40.9187 3.44992C41.0066 3.36203 41.1257 3.31261 41.25 3.3125H42.1875V10.3438Z" fill="black"/>
<path id="Vector_2" d="M9.58284 22.544C9.49189 22.5427 9.40327 22.5151 9.32765 22.4645C9.25202 22.4139 9.19262 22.3426 9.15659 22.2591C9.12057 22.1756 9.10944 22.0834 9.12456 21.9937C9.13968 21.904 9.18041 21.8206 9.24183 21.7535L9.56358 21.4125C9.64892 21.322 9.7667 21.2692 9.89101 21.2656C10.0153 21.262 10.136 21.3079 10.2264 21.3932C10.3169 21.4786 10.3697 21.5964 10.3733 21.7207C10.3769 21.845 10.331 21.9656 10.2457 22.0561C10.0807 22.2119 9.84422 22.5734 9.58284 22.544Z" fill="black"/>
<path id="Vector_3" d="M3.92344 28.5406C3.83251 28.5393 3.7439 28.5117 3.66828 28.4611C3.59267 28.4106 3.53327 28.3393 3.49724 28.2558C3.46121 28.1723 3.45008 28.0802 3.46519 27.9905C3.48031 27.9008 3.52102 27.8174 3.58243 27.7503L4.21093 27.084C4.25311 27.0391 4.30376 27.0029 4.35995 26.9775C4.41615 26.9521 4.4768 26.9381 4.53843 26.9362C4.60006 26.9343 4.66145 26.9446 4.7191 26.9665C4.77674 26.9884 4.82951 27.0214 4.87437 27.0637C4.91922 27.106 4.9553 27.1567 4.98052 27.213C5.00574 27.2693 5.01961 27.33 5.02134 27.3916C5.02307 27.4532 5.01263 27.5146 4.99061 27.5722C4.96859 27.6298 4.93542 27.6825 4.893 27.7272C4.62427 27.9694 4.224 28.5798 3.92344 28.5406Z" fill="black"/>
<path id="Vector_4" d="M5.80993 26.5417C5.71898 26.5403 5.63038 26.5127 5.55477 26.4621C5.47917 26.4116 5.41978 26.3402 5.38376 26.2567C5.34773 26.1732 5.3366 26.081 5.35171 25.9914C5.36682 25.9017 5.40752 25.8182 5.46891 25.7511L6.09788 25.0849C6.18322 24.9945 6.30101 24.9416 6.42531 24.938C6.54962 24.9344 6.67027 24.9803 6.76071 25.0657C6.85116 25.151 6.90401 25.2688 6.90761 25.3931C6.91122 25.5174 6.8653 25.638 6.77996 25.7285C6.51024 25.9716 6.11053 26.581 5.80993 26.5417Z" fill="black"/>
<path id="Vector_5" d="M7.69636 24.5429C7.60542 24.5415 7.51683 24.5138 7.44123 24.4633C7.36564 24.4127 7.30626 24.3414 7.27023 24.2579C7.23421 24.1744 7.22308 24.0822 7.23818 23.9926C7.25328 23.9029 7.29396 23.8195 7.35534 23.7523L7.98431 23.0861C8.06966 22.9956 8.18744 22.9428 8.31174 22.9392C8.43605 22.9356 8.5567 22.9815 8.64715 23.0668C8.7376 23.1522 8.79044 23.2699 8.79405 23.3943C8.79765 23.5186 8.75173 23.6392 8.66639 23.7297C8.39667 23.9727 7.99687 24.5822 7.69636 24.5429Z" fill="black"/>
<path id="Vector_6" d="M2.34375 30.2141C2.2528 30.2127 2.16418 30.1851 2.08856 30.1345C2.01293 30.084 1.95353 30.0126 1.9175 29.9291C1.88148 29.8456 1.87035 29.7534 1.88547 29.6637C1.90059 29.574 1.94132 29.4906 2.00274 29.4235L2.32453 29.0825C2.40988 28.9921 2.52766 28.9392 2.65197 28.9356C2.77627 28.932 2.89692 28.9779 2.98737 29.0633C3.07782 29.1486 3.13066 29.2664 3.13427 29.3907C3.13788 29.515 3.09196 29.6356 3.00661 29.7261C2.84171 29.882 2.60517 30.2435 2.34375 30.2141Z" fill="black"/>
<path id="Vector_7" d="M11.6414 23.7413C11.5537 23.7401 11.4681 23.7144 11.3941 23.6671C11.3202 23.6199 11.261 23.553 11.223 23.4739C11.185 23.3948 11.1698 23.3067 11.1791 23.2195C11.1885 23.1322 11.2219 23.0493 11.2758 22.9801L11.5683 22.6137C11.6063 22.5644 11.6537 22.5232 11.7078 22.4925C11.7619 22.4618 11.8216 22.4421 11.8833 22.4347C11.9451 22.4273 12.0077 22.4322 12.0676 22.4493C12.1274 22.4663 12.1833 22.495 12.2319 22.5339C12.2805 22.5727 12.3209 22.6208 12.3507 22.6754C12.3805 22.73 12.3992 22.79 12.4056 22.8518C12.412 22.9137 12.406 22.9762 12.388 23.0358C12.37 23.0953 12.3403 23.1507 12.3007 23.1987C12.1402 23.3807 11.9286 23.7725 11.6414 23.7413Z" fill="black"/>
<path id="Vector_8" d="M3.92213 33.419C3.8344 33.4177 3.74877 33.392 3.67484 33.3448C3.60092 33.2975 3.54164 33.2306 3.50365 33.1515C3.46567 33.0724 3.4505 32.9843 3.45983 32.8971C3.46917 32.8098 3.50265 32.7269 3.5565 32.6577L4.2001 31.8514C4.23816 31.8023 4.28561 31.7613 4.33968 31.7307C4.39376 31.7001 4.45337 31.6805 4.51506 31.6732C4.57675 31.6658 4.63929 31.6708 4.69904 31.6878C4.75879 31.7049 4.81456 31.7336 4.8631 31.7724C4.91164 31.8112 4.952 31.8592 4.98181 31.9137C5.01162 31.9682 5.0303 32.0281 5.03676 32.0899C5.04322 32.1517 5.03733 32.2141 5.01943 32.2736C5.00154 32.3331 4.97199 32.3885 4.93252 32.4365L4.28888 33.2427C4.24495 33.2978 4.18915 33.3422 4.12565 33.3728C4.06215 33.4033 3.99258 33.4191 3.92213 33.419Z" fill="black"/>
<path id="Vector_9" d="M5.85207 30.9996C5.76439 30.9983 5.67881 30.9726 5.60491 30.9254C5.53102 30.8782 5.47174 30.8113 5.43372 30.7323C5.3957 30.6533 5.38044 30.5653 5.38965 30.4781C5.39886 30.3909 5.43219 30.3079 5.48588 30.2386L6.129 29.432C6.16739 29.3839 6.21488 29.3437 6.26878 29.3139C6.32267 29.2841 6.38191 29.2652 6.4431 29.2583C6.5043 29.2514 6.56626 29.2566 6.62545 29.2736C6.68463 29.2907 6.73988 29.3192 6.78804 29.3576C6.83621 29.396 6.87634 29.4435 6.90614 29.4974C6.93595 29.5512 6.95485 29.6105 6.96177 29.6717C6.96868 29.7329 6.96347 29.7948 6.94644 29.854C6.92941 29.9132 6.90089 29.9685 6.8625 30.0166L6.21938 30.8232C6.17536 30.8783 6.11947 30.9228 6.05588 30.9534C5.99228 30.9839 5.92262 30.9997 5.85207 30.9996Z" fill="black"/>
<path id="Vector_10" d="M7.782 28.5801C7.69431 28.5789 7.60869 28.5532 7.53477 28.506C7.46085 28.4588 7.40155 28.3919 7.36352 28.3129C7.32548 28.2339 7.31022 28.1458 7.31945 28.0586C7.32868 27.9714 7.36204 27.8884 7.41577 27.8191L8.05894 27.0129C8.13646 26.9156 8.24943 26.8532 8.37301 26.8392C8.49659 26.8253 8.62064 26.861 8.71789 26.9385C8.81513 27.016 8.87759 27.129 8.89154 27.2526C8.90549 27.3762 8.86977 27.5002 8.79225 27.5975L8.14913 28.4037C8.10513 28.4588 8.04928 28.5033 7.98572 28.5338C7.92215 28.5644 7.85252 28.5802 7.782 28.5801Z" fill="black"/>
<path id="Vector_11" d="M9.71193 26.1609C9.62425 26.1596 9.53866 26.1339 9.46477 26.0866C9.39087 26.0394 9.33159 25.9726 9.29356 25.8935C9.25554 25.8145 9.24027 25.7265 9.24948 25.6393C9.25869 25.5521 9.29201 25.4691 9.3457 25.3998L9.98906 24.5932C10.0666 24.496 10.1795 24.4336 10.3031 24.4196C10.4267 24.4057 10.5507 24.4414 10.6479 24.519C10.7451 24.5965 10.8076 24.7094 10.8215 24.833C10.8354 24.9566 10.7997 25.0806 10.7222 25.1778L10.0791 25.9844C10.0351 26.0395 9.97922 26.084 9.91565 26.1146C9.85209 26.1451 9.78246 26.1609 9.71193 26.1609Z" fill="black"/>
<path id="Vector_12" d="M2.34328 35.3984C2.25562 35.3971 2.17005 35.3715 2.09617 35.3243C2.02229 35.2771 1.96302 35.2102 1.92499 35.1312C1.88697 35.0522 1.87171 34.9642 1.88091 34.877C1.89011 34.7898 1.92342 34.7069 1.9771 34.6376L2.26913 34.271C2.30749 34.2228 2.35495 34.1827 2.40882 34.1529C2.46269 34.1231 2.5219 34.1042 2.58307 34.0972C2.64425 34.0903 2.70618 34.0955 2.76535 34.1125C2.82452 34.1295 2.87976 34.158 2.92791 34.1964C2.97606 34.2347 3.01619 34.2822 3.046 34.3361C3.0758 34.3899 3.09471 34.4492 3.10164 34.5103C3.10856 34.5715 3.10337 34.6334 3.08636 34.6926C3.06934 34.7518 3.04085 34.807 3.00249 34.8552C2.84227 35.0375 2.63067 35.4298 2.34328 35.3984Z" fill="black"/>
<path id="Vector_13" d="M13.7036 24.9368C13.6192 24.9357 13.5366 24.9121 13.4645 24.8682C13.3923 24.8244 13.3333 24.762 13.2935 24.6875C13.2537 24.6131 13.2346 24.5293 13.2382 24.4449C13.2419 24.3606 13.2681 24.2788 13.3141 24.208L13.5741 23.818C13.6431 23.7147 13.7503 23.643 13.8721 23.6187C13.994 23.5944 14.1205 23.6194 14.2239 23.6883C14.3273 23.7573 14.3991 23.8644 14.4235 23.9862C14.4479 24.1081 14.4229 24.2346 14.3541 24.338C14.2031 24.5472 14.0173 24.9687 13.7036 24.9368Z" fill="black"/>
<path id="Vector_14" d="M3.71339 39.9201C3.62898 39.9191 3.54638 39.8954 3.47424 39.8515C3.40209 39.8077 3.34304 39.7453 3.30325 39.6708C3.26345 39.5964 3.24437 39.5126 3.24799 39.4283C3.25162 39.3439 3.27782 39.2621 3.32386 39.1913L3.87863 38.3589C3.94764 38.2555 4.05485 38.1838 4.17669 38.1595C4.29854 38.1352 4.42506 38.1603 4.52845 38.2292C4.63183 38.2981 4.70362 38.4053 4.72804 38.5271C4.75246 38.6489 4.72751 38.7755 4.65867 38.8789L4.10386 39.7114C4.06105 39.7757 4.00299 39.8284 3.93486 39.8648C3.86673 39.9012 3.79065 39.9202 3.71339 39.9201Z" fill="black"/>
<path id="Vector_15" d="M5.37825 37.4228C5.29384 37.4217 5.21126 37.398 5.13913 37.3542C5.06699 37.3104 5.00795 37.2479 4.96815 37.1735C4.92836 37.099 4.90928 37.0153 4.91289 36.9309C4.91651 36.8466 4.9427 36.7648 4.98872 36.694L5.54354 35.8618C5.57741 35.81 5.62122 35.7654 5.67243 35.7306C5.72364 35.6958 5.78124 35.6714 5.8419 35.659C5.90256 35.6466 5.96508 35.6463 6.02584 35.6582C6.08661 35.6701 6.14443 35.6939 6.19594 35.7282C6.24746 35.7626 6.29167 35.8068 6.326 35.8583C6.36033 35.9098 6.38412 35.9677 6.39598 36.0284C6.40785 36.0892 6.40755 36.1517 6.39512 36.2124C6.38268 36.273 6.35835 36.3306 6.32354 36.3818L5.76872 37.214C5.72593 37.2783 5.66788 37.3311 5.59975 37.3675C5.53161 37.4039 5.45552 37.4229 5.37825 37.4228Z" fill="black"/>
<path id="Vector_16" d="M7.04316 34.9257C6.95875 34.9246 6.87616 34.9009 6.80403 34.8571C6.73189 34.8132 6.67285 34.7508 6.63305 34.6764C6.59326 34.6019 6.57418 34.5182 6.5778 34.4338C6.58141 34.3495 6.6076 34.2677 6.65363 34.1969L7.20886 33.3644C7.27842 33.2624 7.38541 33.192 7.5066 33.1684C7.62779 33.1448 7.75339 33.17 7.85612 33.2385C7.95885 33.307 8.03042 33.4132 8.05528 33.5341C8.08015 33.6551 8.05629 33.7809 7.98891 33.8844L7.43363 34.7168C7.39084 34.7812 7.33278 34.8339 7.26465 34.8703C7.19652 34.9068 7.12042 34.9258 7.04316 34.9257Z" fill="black"/>
<path id="Vector_17" d="M8.70849 32.4286C8.62408 32.4275 8.54149 32.4038 8.46936 32.36C8.39722 32.3161 8.33818 32.2537 8.29838 32.1793C8.25859 32.1048 8.23951 32.0211 8.24312 31.9367C8.24674 31.8524 8.27293 31.7706 8.31896 31.6998L8.87377 30.8674C8.90764 30.8155 8.95145 30.7709 9.00266 30.7361C9.05387 30.7013 9.11147 30.677 9.17213 30.6646C9.23279 30.6522 9.29531 30.6519 9.35608 30.6638C9.41684 30.6756 9.47466 30.6994 9.52618 30.7338C9.57769 30.7681 9.6219 30.8123 9.65623 30.8639C9.69057 30.9154 9.71435 30.9732 9.72622 31.034C9.73808 31.0948 9.73778 31.1573 9.72535 31.2179C9.71291 31.2786 9.68859 31.3362 9.65377 31.3874L9.09895 32.2198C9.05616 32.2841 8.99811 32.3369 8.92998 32.3733C8.86184 32.4097 8.78575 32.4287 8.70849 32.4286Z" fill="black"/>
<path id="Vector_18" d="M10.3734 29.9312C10.289 29.9302 10.2064 29.9065 10.1343 29.8626C10.0622 29.8188 10.0031 29.7564 9.96334 29.6819C9.92354 29.6075 9.90446 29.5237 9.90808 29.4394C9.9117 29.355 9.93789 29.2732 9.98391 29.2025L10.5391 28.3701C10.6085 28.2676 10.7156 28.1968 10.837 28.173C10.9584 28.1492 11.0843 28.1743 11.1872 28.2429C11.2902 28.3116 11.3618 28.4181 11.3865 28.5393C11.4112 28.6605 11.387 28.7866 11.3192 28.89L10.7639 29.7225C10.7211 29.7868 10.6631 29.8395 10.5949 29.876C10.5268 29.9124 10.4507 29.9314 10.3734 29.9312Z" fill="black"/>
<path id="Vector_19" d="M12.0387 27.4344C11.9543 27.4333 11.8717 27.4097 11.7996 27.3658C11.7275 27.322 11.6684 27.2596 11.6286 27.1851C11.5888 27.1107 11.5697 27.0269 11.5734 26.9425C11.577 26.8582 11.6032 26.7764 11.6492 26.7056L12.204 25.8732C12.2379 25.8213 12.2817 25.7767 12.3329 25.7419C12.3841 25.7071 12.4417 25.6828 12.5024 25.6704C12.563 25.658 12.6255 25.6577 12.6863 25.6696C12.7471 25.6814 12.8049 25.7052 12.8564 25.7396C12.9079 25.7739 12.9521 25.8182 12.9865 25.8697C13.0208 25.9212 13.0446 25.979 13.0565 26.0398C13.0683 26.1006 13.068 26.1631 13.0556 26.2237C13.0432 26.2844 13.0188 26.342 12.984 26.3932L12.4292 27.2257C12.3864 27.29 12.3283 27.3427 12.2602 27.3791C12.1921 27.4155 12.116 27.4345 12.0387 27.4344Z" fill="black"/>
<path id="Vector_20" d="M2.34328 41.975C2.25887 41.974 2.17627 41.9503 2.10413 41.9065C2.03199 41.8626 1.97293 41.8002 1.93314 41.7257C1.89334 41.6513 1.87426 41.5675 1.87788 41.4832C1.88151 41.3988 1.90771 41.317 1.95375 41.2462L2.21377 40.8562C2.24756 40.8042 2.29134 40.7594 2.34256 40.7245C2.39379 40.6895 2.45144 40.6651 2.51219 40.6525C2.57293 40.64 2.63556 40.6397 2.69644 40.6515C2.75732 40.6634 2.81524 40.6872 2.86685 40.7216C2.91845 40.756 2.96272 40.8003 2.99708 40.8519C3.03144 40.9036 3.05521 40.9615 3.06702 41.0224C3.07882 41.0833 3.07843 41.1459 3.06585 41.2067C3.05328 41.2674 3.02878 41.325 2.99377 41.3762C2.84264 41.5855 2.65697 42.0071 2.34328 41.975Z" fill="black"/>
<path id="Vector_21" d="M15.7677 26.1298C15.6866 26.1289 15.6071 26.1071 15.5368 26.0665C15.4666 26.026 15.408 25.968 15.3668 25.8982C15.3255 25.8284 15.3029 25.7491 15.3012 25.668C15.2995 25.5869 15.3187 25.5068 15.357 25.4353L15.5827 25.0243C15.6426 24.9152 15.7433 24.8344 15.8627 24.7997C15.9821 24.7649 16.1105 24.779 16.2195 24.8388C16.3285 24.8987 16.4093 24.9994 16.4441 25.1188C16.4788 25.2382 16.4647 25.3665 16.4049 25.4756C16.2674 25.7118 16.1083 26.1617 15.7677 26.1298Z" fill="black"/>
<path id="Vector_22" d="M7.32699 41.5058C7.2459 41.5049 7.1664 41.4831 7.09618 41.4426C7.02596 41.402 6.96738 41.344 6.92611 41.2742C6.88483 41.2044 6.86225 41.1251 6.86054 41.0441C6.85883 40.963 6.87806 40.8828 6.91636 40.8114L7.38558 39.9572C7.44544 39.8481 7.54615 39.7674 7.66556 39.7326C7.78498 39.6978 7.91331 39.7119 8.02233 39.7718C8.13136 39.8316 8.21214 39.9323 8.2469 40.0518C8.28167 40.1712 8.26758 40.2995 8.20772 40.4085L7.7385 41.2625C7.69805 41.3362 7.63849 41.3977 7.56609 41.4405C7.49369 41.4833 7.4111 41.5059 7.32699 41.5058Z" fill="black"/>
<path id="Vector_23" d="M8.73366 38.943C8.65257 38.9421 8.57308 38.9203 8.50287 38.8798C8.43265 38.8392 8.37408 38.7812 8.33281 38.7114C8.29154 38.6416 8.26896 38.5623 8.26726 38.4813C8.26555 38.4002 8.28478 38.3201 8.32308 38.2486L8.79225 37.3944C8.85211 37.2854 8.95282 37.2046 9.07223 37.1698C9.19164 37.135 9.31998 37.1491 9.429 37.209C9.53802 37.2688 9.6188 37.3696 9.65357 37.489C9.68834 37.6084 9.67425 37.7367 9.61439 37.8457L9.14531 38.6999C9.10481 38.7737 9.04523 38.8351 8.9728 38.8779C8.90037 38.9206 8.81777 38.9431 8.73366 38.943Z" fill="black"/>
<path id="Vector_24" d="M10.1404 36.3804C10.0593 36.3795 9.9798 36.3578 9.90958 36.3172C9.83937 36.2766 9.7808 36.2187 9.73952 36.1488C9.69825 36.079 9.67567 35.9998 9.67397 35.9187C9.67227 35.8376 9.69149 35.7575 9.7298 35.686L10.199 34.8318C10.2588 34.7228 10.3595 34.642 10.4789 34.6072C10.5984 34.5725 10.7267 34.5866 10.8357 34.6464C10.9447 34.7063 11.0255 34.807 11.0603 34.9264C11.0951 35.0458 11.081 35.1742 11.0211 35.2832L10.5519 36.1374C10.5114 36.2111 10.4518 36.2725 10.3794 36.3153C10.307 36.358 10.2245 36.3805 10.1404 36.3804Z" fill="black"/>
<path id="Vector_25" d="M11.5476 33.8176C11.4665 33.8167 11.387 33.795 11.3169 33.7544C11.2467 33.7139 11.1881 33.6559 11.1468 33.5861C11.1056 33.5164 11.083 33.4371 11.0812 33.3561C11.0795 33.2751 11.0987 33.1949 11.1369 33.1235L11.6057 32.2693C11.6655 32.1602 11.7661 32.0794 11.8855 32.0446C12.0049 32.0098 12.1332 32.0238 12.2422 32.0836C12.3512 32.1434 12.432 32.2441 12.4668 32.3634C12.5017 32.4828 12.4876 32.6111 12.4278 32.7201L11.9591 33.5743C11.9186 33.6481 11.859 33.7095 11.7866 33.7523C11.7142 33.7951 11.6317 33.8177 11.5476 33.8176Z" fill="black"/>
<path id="Vector_26" d="M12.9542 31.2551C12.8732 31.2541 12.7938 31.2323 12.7236 31.1918C12.6534 31.1512 12.5949 31.0933 12.5536 31.0235C12.5124 30.9538 12.4898 30.8746 12.4881 30.7935C12.4863 30.7125 12.5055 30.6324 12.5437 30.5609L13.0125 29.7067C13.0723 29.5977 13.1729 29.5169 13.2923 29.4821C13.4117 29.4473 13.54 29.4613 13.649 29.5211C13.758 29.5809 13.8388 29.6816 13.8737 29.8009C13.9085 29.9203 13.8944 30.0486 13.8346 30.1576L13.3659 31.0118C13.3254 31.0856 13.2658 31.147 13.1934 31.1898C13.121 31.2326 13.0384 31.2552 12.9542 31.2551Z" fill="black"/>
<path id="Vector_27" d="M14.361 28.6923C14.2799 28.6914 14.2004 28.6696 14.1303 28.6291C14.0601 28.5885 14.0015 28.5305 13.9603 28.4608C13.919 28.391 13.8964 28.3118 13.8947 28.2307C13.893 28.1497 13.9121 28.0696 13.9504 27.9981L14.4191 27.1439C14.4487 27.0899 14.4887 27.0423 14.5367 27.0038C14.5847 26.9652 14.6398 26.9365 14.6989 26.9193C14.758 26.902 14.82 26.8966 14.8812 26.9033C14.9424 26.91 15.0017 26.9287 15.0556 26.9583C15.1096 26.9879 15.1572 27.0278 15.1958 27.0758C15.2343 27.1239 15.263 27.179 15.2803 27.2381C15.2975 27.2972 15.3029 27.3591 15.2962 27.4203C15.2896 27.4815 15.2709 27.5408 15.2413 27.5948L14.7725 28.449C14.732 28.5227 14.6725 28.5842 14.6001 28.627C14.5277 28.6698 14.4451 28.6924 14.361 28.6923Z" fill="black"/>
<path id="Vector_28" d="M6.16379 43.625C6.08274 43.6241 6.0033 43.6024 5.93311 43.5618C5.86293 43.5213 5.80438 43.4634 5.76311 43.3936C5.72185 43.3239 5.69925 43.2446 5.69752 43.1636C5.69578 43.0826 5.71496 43.0025 5.75321 42.931L5.97821 42.5202C6.03872 42.4127 6.1392 42.3333 6.25785 42.2994C6.3765 42.2654 6.50374 42.2797 6.61197 42.3389C6.7202 42.3982 6.80068 42.4978 6.83595 42.6161C6.87121 42.7343 6.85842 42.8617 6.80035 42.9706C6.66305 43.207 6.50457 43.657 6.16379 43.625Z" fill="black"/>
<path id="Vector_29" d="M17.8335 27.3197C17.7558 27.3189 17.6795 27.2989 17.6113 27.2615C17.5431 27.2241 17.4853 27.1704 17.4429 27.1052C17.4005 27.0401 17.3749 26.9654 17.3683 26.8879C17.3617 26.8105 17.3743 26.7326 17.4051 26.6612L17.5946 26.2323C17.6449 26.1185 17.7383 26.0294 17.8543 25.9845C17.9702 25.9396 18.0993 25.9426 18.213 25.9929C18.3268 26.0431 18.4159 26.1365 18.4608 26.2525C18.5057 26.3685 18.5027 26.4976 18.4524 26.6113C18.3301 26.878 18.2063 27.3453 17.8335 27.3197Z" fill="black"/>
<path id="Vector_30" d="M11.5215 41.6085C11.4437 41.6078 11.3674 41.5878 11.2992 41.5503C11.231 41.5129 11.1732 41.4593 11.1308 41.3941C11.0884 41.3289 11.0628 41.2543 11.0562 41.1768C11.0496 41.0993 11.0622 41.0214 11.093 40.95L11.4436 40.1563C11.4939 40.0425 11.5873 39.9534 11.7033 39.9085C11.8192 39.8636 11.9483 39.8666 12.0621 39.9169C12.1758 39.9672 12.2649 40.0606 12.3098 40.1765C12.3547 40.2925 12.3517 40.4216 12.3015 40.5353L11.9508 41.3291C11.914 41.4123 11.8539 41.483 11.7776 41.5326C11.7014 41.5822 11.6124 41.6086 11.5215 41.6085Z" fill="black"/>
<path id="Vector_31" d="M12.5734 39.227C12.4956 39.2262 12.4193 39.2062 12.3511 39.1688C12.283 39.1314 12.2251 39.0777 12.1827 39.0126C12.1404 38.9474 12.1147 38.8728 12.1081 38.7953C12.1015 38.7178 12.1142 38.6399 12.1449 38.5685L12.4956 37.7748C12.5458 37.661 12.6392 37.5719 12.7552 37.527C12.8712 37.4821 13.0002 37.4851 13.114 37.5354C13.2277 37.5856 13.3169 37.679 13.3618 37.795C13.4067 37.911 13.4036 38.04 13.3534 38.1538L13.0028 38.9476C12.966 39.0308 12.9058 39.1015 12.8296 39.1511C12.7533 39.2007 12.6643 39.2271 12.5734 39.227Z" fill="black"/>
<path id="Vector_32" d="M13.6253 36.8455C13.5476 36.8447 13.4713 36.8248 13.4031 36.7873C13.335 36.7499 13.2771 36.6962 13.2348 36.631C13.1924 36.5658 13.1668 36.4912 13.1603 36.4137C13.1537 36.3363 13.1665 36.2584 13.1973 36.187L13.5484 35.3933C13.573 35.3366 13.6086 35.2853 13.6531 35.2424C13.6976 35.1995 13.7501 35.1658 13.8077 35.1433C13.8653 35.1208 13.9267 35.1099 13.9885 35.1112C14.0503 35.1126 14.1113 35.1262 14.1678 35.1512C14.2243 35.1762 14.2754 35.2121 14.3179 35.2569C14.3605 35.3017 14.3938 35.3545 14.4159 35.4123C14.438 35.47 14.4484 35.5316 14.4466 35.5933C14.4448 35.6551 14.4308 35.716 14.4053 35.7723L14.0542 36.566C14.0175 36.6492 13.9575 36.7199 13.8813 36.7695C13.8052 36.8191 13.7162 36.8455 13.6253 36.8455Z" fill="black"/>
<path id="Vector_33" d="M14.6777 34.464C14.6 34.4632 14.5237 34.4432 14.4555 34.4058C14.3874 34.3684 14.3295 34.3147 14.2871 34.2495C14.2447 34.1844 14.2191 34.1098 14.2125 34.0323C14.2059 33.9548 14.2185 33.8769 14.2493 33.8055L14.5999 33.0118C14.6248 32.9554 14.6605 32.9046 14.7051 32.862C14.7496 32.8195 14.8021 32.7862 14.8596 32.764C14.917 32.7417 14.9782 32.7311 15.0398 32.7325C15.1013 32.7339 15.162 32.7475 15.2183 32.7724C15.2747 32.7973 15.3255 32.833 15.3681 32.8775C15.4106 32.9221 15.4439 32.9746 15.4661 33.032C15.4883 33.0894 15.4991 33.1507 15.4976 33.2122C15.4962 33.2738 15.4826 33.3345 15.4577 33.3908L15.1071 34.1844C15.0704 34.2676 15.0102 34.3384 14.934 34.388C14.8577 34.4376 14.7687 34.464 14.6777 34.464Z" fill="black"/>
<path id="Vector_34" d="M15.7297 32.0825C15.6519 32.0817 15.5756 32.0617 15.5074 32.0243C15.4393 31.9869 15.3814 31.9332 15.339 31.868C15.2966 31.8029 15.271 31.7282 15.2644 31.6508C15.2578 31.5733 15.2704 31.4954 15.3012 31.424L15.6518 30.6302C15.7021 30.5165 15.7955 30.4273 15.9115 30.3824C16.0275 30.3376 16.1565 30.3406 16.2703 30.3908C16.384 30.4411 16.4731 30.5345 16.518 30.6505C16.5629 30.7664 16.5599 30.8955 16.5097 31.0093L16.159 31.803C16.1222 31.8862 16.0621 31.9569 15.9859 32.0065C15.9096 32.0562 15.8206 32.0826 15.7297 32.0825Z" fill="black"/>
<path id="Vector_35" d="M16.7816 29.701C16.7039 29.7002 16.6275 29.6802 16.5594 29.6428C16.4912 29.6054 16.4334 29.5517 16.391 29.4865C16.3486 29.4214 16.3229 29.3467 16.3163 29.2692C16.3097 29.1918 16.3224 29.1139 16.3531 29.0425L16.7038 28.2487C16.7541 28.135 16.8475 28.0459 16.9634 28.001C17.0794 27.9561 17.2085 27.9591 17.3222 28.0093C17.436 28.0596 17.5251 28.153 17.57 28.269C17.6149 28.385 17.6119 28.514 17.5616 28.6278L17.211 29.4215C17.1742 29.5047 17.1141 29.5754 17.0378 29.625C16.9616 29.6747 16.8726 29.701 16.7816 29.701Z" fill="black"/>
<path id="Vector_36" d="M10.6306 43.6252C10.5529 43.6244 10.4766 43.6044 10.4084 43.567C10.3403 43.5296 10.2824 43.4759 10.24 43.4108C10.1976 43.3456 10.172 43.271 10.1654 43.1935C10.1588 43.116 10.1714 43.0381 10.2022 42.9667L10.3917 42.5381C10.4419 42.4243 10.5353 42.3352 10.6513 42.2903C10.7673 42.2454 10.8963 42.2484 11.0101 42.2986C11.1238 42.3489 11.213 42.4423 11.2579 42.5583C11.3028 42.6742 11.2997 42.8033 11.2495 42.917C11.1275 43.1837 11.0026 43.6509 10.6306 43.6252Z" fill="black"/>
<path id="Vector_37" d="M19.9004 28.506C19.8258 28.5054 19.7525 28.4872 19.6864 28.4528C19.6203 28.4184 19.5633 28.3689 19.52 28.3082C19.4768 28.2475 19.4485 28.1774 19.4376 28.1037C19.4267 28.03 19.4334 27.9547 19.4573 27.8841L19.6102 27.4407C19.6508 27.3234 19.7364 27.2269 19.8481 27.1726C19.9599 27.1183 20.0886 27.1106 20.206 27.1511C20.3234 27.1916 20.42 27.2771 20.4744 27.3887C20.5289 27.5004 20.5368 27.6291 20.4964 27.7466C20.3918 28.0417 20.3059 28.5242 19.9004 28.506Z" fill="black"/>
<path id="Vector_38" d="M15.4422 41.4552C15.3677 41.4547 15.2944 41.4365 15.2283 41.4021C15.1622 41.3677 15.1052 41.3182 15.0619 41.2575C15.0187 41.1969 14.9904 41.1268 14.9795 41.0531C14.9686 40.9794 14.9753 40.9042 14.9991 40.8336L15.2966 39.9704C15.3158 39.9112 15.3467 39.8564 15.3873 39.8092C15.4279 39.762 15.4776 39.7234 15.5333 39.6956C15.589 39.6678 15.6497 39.6514 15.7119 39.6473C15.774 39.6433 15.8363 39.6516 15.8952 39.6719C15.9541 39.6922 16.0083 39.724 16.0548 39.7655C16.1012 39.807 16.1389 39.8573 16.1657 39.9135C16.1925 39.9697 16.2078 40.0307 16.2107 40.0929C16.2137 40.1551 16.2042 40.2173 16.1828 40.2758L15.8853 41.1389C15.8536 41.2312 15.7938 41.3113 15.7144 41.368C15.635 41.4247 15.5398 41.4552 15.4422 41.4552Z" fill="black"/>
<path id="Vector_39" d="M16.3339 38.8654C16.2594 38.8649 16.1861 38.8467 16.1199 38.8124C16.0538 38.778 15.9968 38.7285 15.9535 38.6678C15.9102 38.6071 15.882 38.5371 15.871 38.4633C15.8601 38.3896 15.8668 38.3144 15.8906 38.2437L16.1882 37.3804C16.2074 37.3212 16.2382 37.2664 16.2789 37.2192C16.3195 37.172 16.3691 37.1334 16.4249 37.1056C16.4806 37.0778 16.5413 37.0614 16.6034 37.0573C16.6656 37.0532 16.7279 37.0616 16.7868 37.0819C16.8456 37.1022 16.8999 37.134 16.9463 37.1755C16.9928 37.2169 17.0305 37.2673 17.0573 37.3235C17.084 37.3797 17.0993 37.4407 17.1023 37.5029C17.1052 37.5651 17.0958 37.6272 17.0744 37.6857L16.7768 38.5491C16.7451 38.6414 16.6854 38.7214 16.606 38.7781C16.5266 38.8348 16.4315 38.8653 16.3339 38.8654Z" fill="black"/>
<path id="Vector_40" d="M17.2256 36.2756C17.1511 36.2751 17.0778 36.2569 17.0117 36.2226C16.9456 36.1882 16.8886 36.1387 16.8454 36.0781C16.8021 36.0174 16.7739 35.9474 16.763 35.8737C16.752 35.8 16.7587 35.7248 16.7825 35.6542L17.0796 34.7908C17.0983 34.731 17.1288 34.6756 17.1693 34.6278C17.2098 34.58 17.2595 34.5408 17.3154 34.5125C17.3713 34.4842 17.4324 34.4674 17.4949 34.4631C17.5574 34.4588 17.6201 34.4671 17.6794 34.4875C17.7386 34.5079 17.7932 34.5399 17.8399 34.5817C17.8865 34.6236 17.9243 34.6743 17.951 34.731C17.9777 34.7877 17.9928 34.8492 17.9953 34.9118C17.9979 34.9744 17.9879 35.0369 17.9658 35.0955L17.6688 35.9589C17.6371 36.0512 17.5773 36.1314 17.4979 36.1882C17.4185 36.245 17.3233 36.2755 17.2256 36.2756Z" fill="black"/>
<path id="Vector_41" d="M18.1172 33.6856C18.0427 33.6851 17.9694 33.6669 17.9033 33.6325C17.8372 33.5982 17.7802 33.5487 17.7369 33.488C17.6937 33.4274 17.6655 33.3573 17.6545 33.2837C17.6436 33.21 17.6503 33.1348 17.6741 33.0642L17.9712 32.2008C17.9899 32.141 18.0204 32.0856 18.0609 32.0378C18.1014 31.9899 18.1511 31.9507 18.207 31.9225C18.2629 31.8942 18.3239 31.8774 18.3864 31.8731C18.449 31.8688 18.5117 31.8771 18.571 31.8975C18.6302 31.9178 18.6848 31.9499 18.7314 31.9917C18.7781 32.0335 18.8159 32.0843 18.8426 32.141C18.8693 32.1977 18.8844 32.2591 18.8869 32.3217C18.8895 32.3844 18.8794 32.4468 18.8574 32.5055L18.5603 33.3688C18.5286 33.4612 18.4689 33.5414 18.3895 33.5982C18.31 33.655 18.2148 33.6855 18.1172 33.6856Z" fill="black"/>
<path id="Vector_42" d="M19.0091 31.0958C18.9346 31.0953 18.8613 31.0771 18.7952 31.0427C18.7291 31.0084 18.6721 30.9589 18.6288 30.8982C18.5856 30.8376 18.5573 30.7675 18.5464 30.6939C18.5355 30.6202 18.5422 30.545 18.566 30.4744L18.8631 29.611C18.8818 29.5512 18.9123 29.4958 18.9528 29.448C18.9933 29.4002 19.043 29.3609 19.0989 29.3327C19.1548 29.3044 19.2158 29.2876 19.2783 29.2833C19.3408 29.279 19.4036 29.2873 19.4628 29.3077C19.5221 29.3281 19.5767 29.3601 19.6233 29.4019C19.67 29.4437 19.7078 29.4945 19.7345 29.5512C19.7612 29.6079 19.7763 29.6693 19.7788 29.732C19.7813 29.7946 19.7713 29.857 19.7493 29.9157L19.4522 30.7791C19.4205 30.8714 19.3608 30.9516 19.2814 31.0084C19.2019 31.0652 19.1067 31.0957 19.0091 31.0958Z" fill="black"/>
<path id="Vector_43" d="M14.6953 43.6252C14.6208 43.6247 14.5475 43.6065 14.4813 43.5721C14.4152 43.5377 14.3582 43.4882 14.3149 43.4275C14.2717 43.3668 14.2434 43.2967 14.2325 43.223C14.2216 43.1492 14.2284 43.074 14.2522 43.0034L14.4051 42.5602C14.4458 42.4429 14.5314 42.3464 14.6431 42.2921C14.7548 42.2378 14.8835 42.2301 15.0009 42.2706C15.1184 42.3111 15.2149 42.3966 15.2694 42.5082C15.3238 42.6199 15.3317 42.7486 15.2913 42.8661C15.1866 43.1609 15.1006 43.6435 14.6953 43.6252Z" fill="black"/>
<path id="Vector_44" d="M21.9676 29.6886C21.8963 29.6884 21.8259 29.6719 21.7619 29.6405C21.6978 29.609 21.6417 29.5634 21.5979 29.5071C21.5541 29.4507 21.5237 29.3852 21.509 29.3154C21.4943 29.2455 21.4956 29.1733 21.513 29.1041L21.6288 28.6497C21.6429 28.5889 21.669 28.5316 21.7056 28.481C21.7422 28.4304 21.7885 28.3877 21.8418 28.3552C21.8951 28.3228 21.9544 28.3014 22.0161 28.2921C22.0778 28.2829 22.1408 28.2861 22.2012 28.3015C22.2617 28.317 22.3185 28.3443 22.3683 28.382C22.418 28.4196 22.4598 28.4668 22.491 28.5208C22.5223 28.5749 22.5425 28.6346 22.5504 28.6965C22.5583 28.7584 22.5537 28.8212 22.537 28.8814C22.4536 29.2036 22.4065 29.6975 21.9676 29.6886Z" fill="black"/>
<path id="Vector_45" d="M19.0201 41.2449C18.9487 41.2447 18.8784 41.2282 18.8143 41.1967C18.7503 41.1653 18.6942 41.1197 18.6504 41.0633C18.6066 41.007 18.5762 40.9414 18.5614 40.8716C18.5467 40.8018 18.5481 40.7295 18.5654 40.6603L18.8108 39.6972C18.8248 39.6363 18.8509 39.5789 18.8875 39.5283C18.9241 39.4777 18.9704 39.435 19.0237 39.4025C19.077 39.37 19.1363 39.3486 19.1981 39.3393C19.2598 39.3301 19.3228 39.3333 19.3833 39.3487C19.4437 39.3641 19.5006 39.3915 19.5503 39.4292C19.6001 39.4668 19.6419 39.5141 19.6731 39.5681C19.7044 39.6222 19.7246 39.6819 19.7324 39.7438C19.7403 39.8058 19.7357 39.8686 19.719 39.9288L19.4736 40.8919C19.4479 40.9927 19.3894 41.0821 19.3073 41.146C19.2252 41.2099 19.1241 41.2447 19.0201 41.2449Z" fill="black"/>
<path id="Vector_46" d="M19.7566 38.3557C19.6853 38.3554 19.6149 38.3389 19.5509 38.3074C19.4868 38.2759 19.4308 38.2303 19.387 38.174C19.3431 38.1176 19.3127 38.052 19.298 37.9822C19.2833 37.9124 19.2846 37.8401 19.302 37.7709L19.5478 36.808C19.5801 36.6892 19.6578 36.588 19.7641 36.526C19.8705 36.4641 19.9969 36.4465 20.1161 36.4769C20.2353 36.5074 20.3378 36.5835 20.4014 36.6889C20.465 36.7942 20.4846 36.9204 20.456 37.04L20.2102 38.003C20.1845 38.1038 20.126 38.1932 20.0438 38.257C19.9617 38.3209 19.8607 38.3556 19.7566 38.3557Z" fill="black"/>
<path id="Vector_47" d="M20.4937 35.4667C20.4224 35.4665 20.352 35.45 20.288 35.4186C20.2239 35.3871 20.1678 35.3415 20.124 35.2852C20.0802 35.2289 20.0498 35.1633 20.0351 35.0935C20.0204 35.0236 20.0217 34.9514 20.0391 34.8822L20.2844 33.919C20.2985 33.8582 20.3246 33.8009 20.3612 33.7503C20.3978 33.6997 20.4441 33.657 20.4974 33.6246C20.5507 33.5921 20.61 33.5707 20.6717 33.5615C20.7334 33.5522 20.7964 33.5554 20.8569 33.5708C20.9173 33.5863 20.9741 33.6136 21.0239 33.6513C21.0736 33.6889 21.1154 33.7362 21.1467 33.7902C21.1779 33.8442 21.1981 33.9039 21.206 33.9658C21.2139 34.0277 21.2093 34.0906 21.1926 34.1507L20.9473 35.1138C20.9216 35.2146 20.863 35.304 20.7809 35.3679C20.6988 35.4318 20.5978 35.4666 20.4937 35.4667Z" fill="black"/>
<path id="Vector_48" d="M21.2302 32.5775C21.1588 32.5773 21.0884 32.5608 21.0244 32.5293C20.9603 32.4978 20.9043 32.4522 20.8605 32.3958C20.8167 32.3395 20.7862 32.2739 20.7715 32.2041C20.7568 32.1343 20.7581 32.062 20.7755 31.9928L21.0213 31.0299C21.0536 30.9111 21.1313 30.8099 21.2376 30.7479C21.344 30.686 21.4704 30.6684 21.5896 30.6988C21.7089 30.7293 21.8113 30.8054 21.8749 30.9108C21.9385 31.0161 21.9581 31.1423 21.9295 31.262L21.6838 32.225C21.6581 32.3258 21.5995 32.4152 21.5174 32.479C21.4352 32.5428 21.3342 32.5775 21.2302 32.5775Z" fill="black"/>
<path id="Vector_49" d="M18.4131 43.625C18.3417 43.6248 18.2713 43.6083 18.2073 43.5768C18.1433 43.5454 18.0872 43.4997 18.0434 43.4434C17.9996 43.3871 17.9692 43.3215 17.9544 43.2517C17.9397 43.1819 17.9411 43.1096 17.9584 43.0404L18.0742 42.5863C18.1071 42.4683 18.1849 42.3679 18.2909 42.3065C18.397 42.2451 18.5229 42.2277 18.6416 42.258C18.7603 42.2883 18.8624 42.3638 18.9262 42.4685C18.9899 42.5731 19.0101 42.6986 18.9824 42.818C18.8991 43.1402 18.8519 43.6338 18.4131 43.625Z" fill="black"/>
<path id="Vector_50" d="M24.033 30.8681C23.9648 30.8679 23.8974 30.8529 23.8355 30.824C23.7736 30.7951 23.7188 30.7532 23.6748 30.701C23.6308 30.6488 23.5987 30.5876 23.5807 30.5218C23.5628 30.4559 23.5593 30.3869 23.5707 30.3196L23.6504 29.8578C23.673 29.7366 23.7424 29.6293 23.8435 29.5589C23.9447 29.4886 24.0695 29.4609 24.1909 29.4818C24.3123 29.5028 24.4206 29.5707 24.4923 29.6709C24.5641 29.771 24.5935 29.8954 24.5742 30.0171C24.5143 30.3641 24.5046 30.866 24.033 30.8681Z" fill="black"/>
<path id="Vector_51" d="M22.2057 41.4067C22.1374 41.4065 22.07 41.3915 22.0081 41.3626C21.9463 41.3338 21.8914 41.2918 21.8474 41.2396C21.8034 41.1874 21.7713 41.1263 21.7533 41.0604C21.7353 40.9945 21.7319 40.9256 21.7433 40.8583L21.8953 39.98C21.9055 39.9191 21.9276 39.8607 21.9604 39.8084C21.9932 39.756 22.0361 39.7107 22.0865 39.6749C22.1368 39.6392 22.1938 39.6138 22.2541 39.6001C22.3143 39.5865 22.3767 39.5849 22.4375 39.5954C22.4984 39.6059 22.5566 39.6284 22.6088 39.6615C22.661 39.6946 22.7061 39.7377 22.7415 39.7883C22.777 39.8389 22.8021 39.896 22.8154 39.9563C22.8287 40.0166 22.83 40.079 22.8191 40.1398L22.6671 41.018C22.6482 41.1267 22.5916 41.2253 22.5072 41.2964C22.4228 41.3675 22.316 41.4066 22.2057 41.4067Z" fill="black"/>
<path id="Vector_52" d="M22.6625 38.772C22.5943 38.7719 22.5268 38.7568 22.465 38.728C22.4031 38.6991 22.3483 38.6572 22.3043 38.605C22.2603 38.5528 22.2282 38.4916 22.2102 38.4258C22.1922 38.3599 22.1888 38.2909 22.2002 38.2236L22.3522 37.3453C22.3623 37.2843 22.3843 37.2259 22.4171 37.1735C22.4499 37.1211 22.4927 37.0757 22.5431 37.0398C22.5935 37.004 22.6505 36.9785 22.7108 36.9649C22.7711 36.9512 22.8336 36.9496 22.8945 36.9601C22.9554 36.9706 23.0137 36.9931 23.0659 37.0263C23.1181 37.0594 23.1632 37.1025 23.1986 37.1532C23.2341 37.2039 23.2592 37.261 23.2724 37.3214C23.2857 37.3818 23.2869 37.4442 23.2759 37.5051L23.124 38.3833C23.1051 38.4921 23.0485 38.5907 22.9641 38.6618C22.8797 38.7329 22.7729 38.7719 22.6625 38.772Z" fill="black"/>
<path id="Vector_53" d="M23.1188 36.1374C23.0504 36.1372 22.983 36.1222 22.9211 36.0933C22.8592 36.0644 22.8043 36.0224 22.7603 35.9701C22.7163 35.9179 22.6842 35.8567 22.6663 35.7908C22.6484 35.7249 22.645 35.6559 22.6564 35.5885L22.8089 34.7103C22.8301 34.5878 22.8991 34.4787 23.0008 34.4071C23.1024 34.3355 23.2284 34.3072 23.3509 34.3285C23.4734 34.3497 23.5824 34.4188 23.654 34.5204C23.7256 34.6221 23.7539 34.748 23.7326 34.8705L23.5802 35.7487C23.5613 35.8574 23.5046 35.956 23.4202 36.0271C23.3358 36.0981 23.2291 36.1372 23.1188 36.1374Z" fill="black"/>
<path id="Vector_54" d="M23.5757 33.5027C23.5074 33.5025 23.44 33.4875 23.3781 33.4586C23.3162 33.4297 23.2613 33.3877 23.2173 33.3355C23.1733 33.2832 23.1412 33.222 23.1233 33.1561C23.1053 33.0902 23.102 33.0212 23.1134 32.9539L23.2658 32.0756C23.2871 31.9531 23.3561 31.8441 23.4578 31.7725C23.5594 31.7009 23.6853 31.6726 23.8078 31.6938C23.9303 31.7151 24.0394 31.7841 24.111 31.8858C24.1826 31.9874 24.2109 32.1133 24.1896 32.2358L24.0372 33.1141C24.0182 33.2228 23.9616 33.3213 23.8772 33.3924C23.7928 33.4635 23.6861 33.5025 23.5757 33.5027Z" fill="black"/>
<path id="Vector_55" d="M21.8207 43.625C21.7524 43.6249 21.6849 43.6098 21.623 43.5809C21.5611 43.5521 21.5062 43.51 21.4622 43.4578C21.4182 43.4056 21.3861 43.3443 21.3682 43.2784C21.3502 43.2125 21.3469 43.1435 21.3584 43.0761L21.4385 42.6143C21.4597 42.4918 21.5287 42.3827 21.6304 42.3111C21.732 42.2395 21.8579 42.2112 21.9804 42.2325C22.1029 42.2537 22.212 42.3228 22.2836 42.4244C22.3552 42.526 22.3835 42.652 22.3622 42.7745C22.302 43.1214 22.2922 43.6231 21.8207 43.625Z" fill="black"/>
</g>
</g>
</svg>
