<svg width="46" height="45" viewBox="0 0 46 45" fill="none" xmlns="http://www.w3.org/2000/svg">
<path d="M22.0977 14.558C22.0977 13.0963 23.6597 12.3655 24.1804 12.1828C24.6088 12.0001 25.4822 12.1828 26.2632 12.1828C27.0442 12.1828 28.6063 12.9136 28.6063 14.1926C28.6063 15.4716 27.3046 16.7506 25.7425 16.7506C24.1804 16.7506 22.0977 16.0198 22.0977 14.558Z" stroke="black" stroke-width="0.929811"/>
<path d="M2.88741 16.9495C0.466321 13.1303 3.89619 8.35636 5.91376 6.44678C6.79644 5.93755 10.2263 5.22464 16.8843 6.44678C20.6672 9.12019 18.0192 9.31115 16.8843 14.467C15.7494 19.6229 15.7494 18.4772 13.1013 20.5777C10.4533 22.6782 5.91376 21.7234 2.88741 16.9495Z" stroke="black" stroke-width="1.05495"/>
<path d="M3.95776 16.4404C1.93974 13.2214 4.7986 9.19775 6.48028 7.58828C7.21601 7.15909 10.0749 6.55822 15.6244 7.58828C18.7776 9.84154 16.5704 10.0025 15.6244 14.348C14.6785 18.6936 14.6785 17.7279 12.4713 19.4983C10.264 21.2688 6.48028 20.464 3.95776 16.4404Z" stroke="black" stroke-width="1.05495"/>
<path d="M12.1954 13.5124C12.1954 13.8587 11.9187 14.1307 11.588 14.1307C11.2573 14.1307 10.9806 13.8587 10.9806 13.5124C10.9806 13.1662 11.2573 12.8942 11.588 12.8942C11.9187 12.8942 12.1954 13.1662 12.1954 13.5124Z" fill="#008763" stroke="black" stroke-width="1.05495"/>
<path d="M11.4376 16.5681C11.4376 16.9143 11.1609 17.1864 10.8302 17.1864C10.4995 17.1864 10.2228 16.9143 10.2228 16.5681C10.2228 16.2219 10.4995 15.9498 10.8302 15.9498C11.1609 15.9498 11.4376 16.2219 11.4376 16.5681Z" fill="#008763" stroke="black" stroke-width="1.05495"/>
<path d="M7.65636 16.1863C7.65636 16.5325 7.37968 16.8046 7.04895 16.8046C6.71821 16.8046 6.44154 16.5325 6.44154 16.1863C6.44154 15.8401 6.71821 15.568 7.04895 15.568C7.37968 15.568 7.65636 15.8401 7.65636 16.1863Z" fill="#008763" stroke="black" stroke-width="1.05495"/>
<path d="M7.27745 13.1301C7.27745 13.4763 7.00078 13.7484 6.67004 13.7484C6.3393 13.7484 6.06263 13.4763 6.06263 13.1301C6.06263 12.7839 6.3393 12.5118 6.67004 12.5118C7.00078 12.5118 7.27745 12.7839 7.27745 13.1301Z" fill="#008763" stroke="black" stroke-width="1.05495"/>
<path d="M9.92589 10.4568C9.92589 10.803 9.64921 11.0751 9.31848 11.0751C8.98774 11.0751 8.71107 10.803 8.71107 10.4568C8.71107 10.1106 8.98774 9.83851 9.31848 9.83851C9.64921 9.83851 9.92589 10.1106 9.92589 10.4568Z" fill="#008763" stroke="black" stroke-width="1.05495"/>
<path d="M14.465 10.4568C14.465 10.803 14.1883 11.0751 13.8575 11.0751C13.5268 11.0751 13.2501 10.803 13.2501 10.4568C13.2501 10.1106 13.5268 9.83851 13.8575 9.83851C14.1883 9.83851 14.465 10.1106 14.465 10.4568Z" fill="#008763" stroke="black" stroke-width="1.05495"/>
<path d="M28.2983 29.5392C25.6082 24.8214 29.4192 18.9242 31.6609 16.5653C32.6417 15.9362 33.5026 16.5544 40.9004 18.0641C45.1037 21.3666 45.1114 20.1036 43.8504 26.4726C42.5894 32.8417 42.5894 31.4263 39.6471 34.0211C36.7048 36.6159 31.6609 35.4365 28.2983 29.5392Z" stroke="black" stroke-width="1.05495"/>
<path d="M29.0931 29.1572C26.8065 24.8887 30.0458 19.5531 31.9513 17.4188C32.785 16.8497 33.2136 17.1647 39.5017 18.5306C43.0745 21.5185 43.3842 20.6202 42.3124 26.3827C41.2405 32.1451 41.2405 30.8646 38.7396 33.2122C36.2386 35.5599 31.9513 34.4928 29.0931 29.1572Z" stroke="black" stroke-width="1.05495"/>
<path d="M35.6466 27.1399C35.6466 27.4861 35.3699 27.7582 35.0392 27.7582C34.7084 27.7582 34.4318 27.4861 34.4318 27.1399C34.4318 26.7937 34.7084 26.5216 35.0392 26.5216C35.3699 26.5216 35.6466 26.7937 35.6466 27.1399Z" fill="#008763" stroke="black" stroke-width="1.05495"/>
<path d="M33.7794 20.6096C33.7794 20.9558 33.5027 21.2279 33.172 21.2279C32.8413 21.2279 32.5646 20.9558 32.5646 20.6096C32.5646 20.2634 32.8413 19.9913 33.172 19.9913C33.5027 19.9913 33.7794 20.2634 33.7794 20.6096Z" fill="#008763" stroke="black" stroke-width="1.05495"/>
<path d="M38.4454 29.0056C38.4454 29.3518 38.1687 29.6239 37.838 29.6239C37.5073 29.6239 37.2306 29.3518 37.2306 29.0056C37.2306 28.6594 37.5073 28.3873 37.838 28.3873C38.1687 28.3873 38.4454 28.6594 38.4454 29.0056Z" fill="#008763" stroke="black" stroke-width="1.05495"/>
<path d="M32.9747 29.8772C32.9747 30.2234 32.698 30.4955 32.3673 30.4955C32.0366 30.4955 31.7599 30.2234 31.7599 29.8772C31.7599 29.531 32.0366 29.2589 32.3673 29.2589C32.698 29.2589 32.9747 29.531 32.9747 29.8772Z" fill="#008763" stroke="black" stroke-width="1.05495"/>
<path d="M32.5978 26.822C32.5978 27.1682 32.3211 27.4403 31.9904 27.4403C31.6596 27.4403 31.3829 27.1682 31.3829 26.822C31.3829 26.4758 31.6596 26.2037 31.9904 26.2037C32.3211 26.2037 32.5978 26.4758 32.5978 26.822Z" fill="#008763" stroke="black" stroke-width="1.05495"/>
<path d="M35.2442 24.1487C35.2442 24.4949 34.9676 24.767 34.6368 24.767C34.3061 24.767 34.0294 24.4949 34.0294 24.1487C34.0294 23.8025 34.3061 23.5304 34.6368 23.5304C34.9676 23.5304 35.2442 23.8025 35.2442 24.1487Z" fill="#008763" stroke="black" stroke-width="1.05495"/>
<path d="M39.7833 24.1487C39.7833 24.4949 39.5066 24.767 39.1759 24.767C38.8452 24.767 38.5685 24.4949 38.5685 24.1487C38.5685 23.8025 38.8452 23.5304 39.1759 23.5304C39.5066 23.5304 39.7833 23.8025 39.7833 24.1487Z" fill="#008763" stroke="black" stroke-width="1.05495"/>
<path d="M11.5903 33.2007C11.1683 29.8249 14.2277 28.981 15.8101 28.981L18.4471 33.2007C18.6229 34.7832 18.8691 38.2645 18.4471 39.5304C17.9196 41.1129 15.8101 42.6953 11.5903 33.2007Z" stroke="black" stroke-width="1.05495"/>
<path d="M1.00585 28.3871C0.94341 27.1743 1.39611 26.8711 1.63027 26.8711L2.02047 28.3871C2.04649 28.9556 2.08291 30.2063 2.02047 30.6611C1.94242 31.2296 1.63027 31.7981 1.00585 28.3871Z" stroke="black" stroke-width="1.05495"/>
<path d="M8.38866 26.1944C8.32622 25.8912 8.77892 25.8154 9.01308 25.8154L9.40328 26.1944C9.4293 26.3366 9.46572 26.6492 9.40328 26.7629C9.32523 26.9051 9.01308 27.0472 8.38866 26.1944Z" stroke="black" stroke-width="1.05495"/>
</svg>
