<svg width="35" height="37" viewBox="0 0 35 37" fill="none" xmlns="http://www.w3.org/2000/svg">
<path d="M19.6777 9.1333V10.8423H18.6523C18.0861 10.8423 17.627 11.3014 17.627 11.8677V12.8931H26.5137V11.8677C26.5137 11.3014 26.0546 10.8423 25.4883 10.8423H24.4629V9.1333C24.4629 4.79856 20.9363 1.27197 16.6016 1.27197H8.39844C4.0637 1.27197 0.537109 4.79856 0.537109 9.1333V35.2466C0.537109 35.8129 0.996211 36.272 1.5625 36.272H4.29688C4.86316 36.272 5.32227 35.8129 5.32227 35.2466V9.1333C5.32227 7.4371 6.70224 6.05713 8.39844 6.05713H16.6016C18.2978 6.05713 19.6777 7.4371 19.6777 9.1333Z" stroke="black" stroke-width="1.05"/>
<path d="M30.3053 12.9085H13.7592C11.9648 12.9085 10.3705 14.1845 10.3705 15.9084V17.5583C10.3705 18.3731 11.1075 18.9082 11.8501 18.9082H32.2144C32.957 18.9082 33.694 18.3731 33.694 17.5583V15.9084C33.694 14.1845 32.0998 12.9085 30.3053 12.9085Z" stroke="black" stroke-width="1.05"/>
<path fill-rule="evenodd" clip-rule="evenodd" d="M21.6472 24.1147C24.6767 24.1147 27.1324 26.571 27.1324 29.6013C27.1324 32.6317 24.6767 35.088 21.6472 35.088C18.6178 35.088 16.1621 32.6317 16.1621 29.6013C16.1621 26.571 18.6178 24.1147 21.6472 24.1147Z" fill="#FEFEFE" stroke="black" stroke-width="1.05" stroke-miterlimit="2.61313" stroke-linecap="round" stroke-linejoin="round"/>
<path d="M19.3369 29.7058L21.1969 31.5658L24.9169 27.8458" stroke="black" stroke-width="1.05" stroke-linecap="round"/>
</svg>
