<svg width="36" height="42" viewBox="0 0 36 42" fill="none" xmlns="http://www.w3.org/2000/svg">
<path d="M21.8711 26.1693C21.8711 23.7099 23.7156 22.4802 24.3305 22.1728C24.8364 21.8653 25.8676 22.1728 26.7899 22.1728C27.7121 22.1728 29.5567 23.4025 29.5567 25.5544C29.5567 27.7064 28.0196 29.8584 26.175 29.8584C24.3305 29.8584 21.8711 28.6287 21.8711 26.1693Z" stroke="black"/>
<path d="M5.35166 26.3061C8.19664 25.7454 10.0472 27.6367 10.5455 28.2905C11.0185 28.816 10.9022 30.1002 11.1162 31.186C11.3302 32.2719 10.3357 34.7239 7.84638 35.2146C5.35702 35.7052 2.51097 34.3861 2.08293 32.2145C1.6549 30.0428 2.50668 26.8669 5.35166 26.3061Z" stroke="black"/>
<path d="M11.7266 30.3928C11.7266 27.8797 14.0876 26.6232 14.8746 26.309C15.5221 25.9949 16.8421 26.309 18.0226 26.309C19.2031 26.309 21.5641 27.5656 21.5641 29.7645C21.5641 31.9635 19.5966 34.1624 17.2356 34.1624C14.8746 34.1624 11.7266 32.9059 11.7266 30.3928Z" stroke="black"/>
<path d="M19.1041 40.311C16.8906 39.8191 17.1571 37.2368 17.567 36.0071C17.6583 35.6997 18.4893 34.7773 19.1041 34.1625C19.7189 33.5476 21.5636 33.2402 23.4081 32.6254C25.2527 32.0105 26.7898 30.4734 30.1714 29.5512C33.5531 28.6289 34.7828 32.318 35.0902 33.5477C35.3976 34.7774 33.8605 37.2368 31.7085 37.8516C29.5566 38.4664 28.9417 39.6961 28.0195 40.311C27.0972 40.9258 21.8709 40.9258 19.1041 40.311Z" stroke="black"/>
<path d="M9.24488 19.0351C7.11596 19.8503 5.70113 17.3471 5.25982 15.9936C5.14033 15.6616 5.23935 14.3476 5.35525 13.437C5.47115 12.5264 6.7916 11.1939 7.91743 9.58164C9.04326 7.96934 9.33319 5.69276 11.5269 2.92347C13.7205 0.154189 16.5366 4.62795 17.567 5.57215C18.5974 6.51635 19.4185 7.81609 18.0402 9.60381C16.6619 11.3915 16.3982 12.351 16.0297 13.437C15.6613 14.5231 11.906 18.0162 9.24488 19.0351Z" stroke="black"/>
<path d="M11.3055 26.5061C8.21372 27.1786 7.66514 24.6963 7.77732 23.3711C7.79063 23.0455 8.56562 21.7866 9.1624 20.9167C9.75918 20.0467 12.0859 18.8341 14.3052 17.342C16.5245 15.85 18.0167 13.6751 22.1569 11.126C26.2971 8.57686 29.2053 11.3084 30.0396 12.2708C30.8738 13.2331 29.703 16.2465 27.0781 17.894C24.4532 19.5416 20.538 19.7606 19.5355 20.7861C18.533 21.8116 15.1702 25.6653 11.3055 26.5061Z" stroke="black"/>
</svg>
