<svg width="46" height="45" viewBox="0 0 46 45" fill="none" xmlns="http://www.w3.org/2000/svg">
<path d="M10.4949 6.55854H17.3521L19.9681 6.51316V12.8428L22.6268 21.3278L29.484 31.3498V38.207H25.7917L19.9894 34.5146L17.3521 25.5476H10.4949L7.33008 21.3278L10.4949 17.108V6.55854Z" stroke="black"/>
<path d="M4.16484 32.8866V23.3921L8.38463 28.6668H13.6594V32.8866H9.96705L8.38463 34.9965L4.16484 38.1614L1 34.9965L4.16484 32.8866Z" stroke="black"/>
<path d="M35.8133 20.2276L38.4506 18.1177L40.0331 16.0078H45.3078V20.2276L42.143 20.7551L42.6704 23.3924L35.8133 25.5023L32.6484 22.3375L35.8133 20.2276Z" stroke="black"/>
<path d="M29.4832 10.733L32.1206 8.62308L33.703 6.51318L36.3404 8.62308L38.9777 10.733L35.8129 11.2604L36.3404 13.8978L31.0656 12.3154L26.3184 12.8429L29.4832 10.733Z" stroke="black"/>
<path d="M26.3184 17.0622L27.9008 14.4248L30.5381 14.9523H33.1755L35.8129 17.0622L34.7579 19.1721L33.1755 20.227L27.9008 18.6446L28.4283 17.0622H26.3184Z" stroke="black"/>
</svg>
