<svg width="48" height="48" viewBox="0 0 48 48" fill="none" xmlns="http://www.w3.org/2000/svg">
<path d="M33.7111 40.2969L33.571 40.4462L33.3924 40.6065C32.5304 41.3801 31.4093 41.8611 30.1676 41.9009L29.9405 41.9081L29.7253 41.8965C28.5022 41.8303 27.3989 41.3318 26.5594 40.5497L26.4263 40.4257L26.2495 40.2305C25.4856 39.3871 25.0041 38.2833 24.9467 37.0677L24.9347 36.814L24.942 36.6308C24.9906 35.4112 25.4673 34.3036 26.2309 33.4562L26.3966 33.2723L26.5411 33.1369C27.3856 32.3455 28.4933 31.8428 29.7204 31.7766L29.926 31.7655L30.1646 31.7722C31.4096 31.8076 32.5389 32.2927 33.4 33.0743L33.5671 33.226L33.7199 33.3898C34.5186 34.2458 35.0179 35.3803 35.071 36.632L35.0807 36.8602L35.0711 37.0683C35.0136 38.3148 34.5101 39.4449 33.7111 40.2969ZM35.7842 31.0143L35.7099 30.8937C35.5311 30.6036 35.5693 30.2239 35.8125 29.9808C36.1025 29.6907 36.5673 29.6907 36.8573 29.9808C37.1474 30.2708 37.1474 30.7356 36.8573 31.0257L36.8554 31.0276C36.603 31.2829 36.2027 31.3114 35.9085 31.1026L35.7842 31.0143ZM29.9693 28.6283L29.8168 28.5894C29.4989 28.5085 29.2665 28.2232 29.2665 27.8801C29.2665 27.472 29.5959 27.1426 30.004 27.1426C30.4122 27.1426 30.7416 27.472 30.7416 27.8801C30.7416 28.2507 30.47 28.5556 30.1069 28.6083L29.9693 28.6283ZM24.1708 31.0665L24.0486 31.1401C23.7652 31.3108 23.3922 31.272 23.1507 31.0305C22.8607 30.7405 22.8607 30.2757 23.1507 29.9856C23.4408 29.6956 23.9055 29.6956 24.1956 29.9856C24.4533 30.2433 24.4789 30.6502 24.2637 30.941L24.1708 31.0665ZM35.7813 42.6673L35.9068 42.5744C36.1977 42.3592 36.6045 42.3849 36.8622 42.6425C37.1522 42.9326 37.1522 43.3974 36.8622 43.6874C36.5721 43.9775 36.1074 43.9775 35.8173 43.6874L35.8152 43.6853C35.5738 43.4467 35.5353 43.0758 35.7077 42.7895L35.7813 42.6673ZM21.8014 36.8613L21.7745 36.986C21.701 37.327 21.403 37.5765 21.05 37.5765C20.6419 37.5765 20.3125 37.2471 20.3125 36.839C20.3125 36.4308 20.6419 36.1014 21.05 36.1014C21.4054 36.1014 21.7081 36.361 21.7718 36.7025L21.8014 36.8613ZM24.1884 42.6146L24.2787 42.7405C24.4841 43.0269 24.4599 43.4279 24.2004 43.6874C23.9104 43.9775 23.4456 43.9775 23.1556 43.6874C22.8659 43.3977 22.8655 42.9337 23.1546 42.6436C23.4048 42.3971 23.7847 42.3634 24.0665 42.5388L24.1884 42.6146ZM29.9712 45.0442L30.1112 45.0647C30.4715 45.1174 30.7464 45.424 30.7464 45.7929C30.7464 46.2011 30.417 46.5305 30.0089 46.5305C29.6007 46.5305 29.2713 46.2011 29.2713 45.7929C29.2713 45.4529 29.5012 45.1681 29.8257 45.0826L29.9712 45.0442ZM38.2143 36.8462L38.2411 36.7025C38.305 36.3598 38.6038 36.1014 38.9629 36.1014H38.9677C39.3759 36.1014 39.7052 36.4308 39.7052 36.839C39.7052 37.2471 39.3759 37.5765 38.9677 37.5765C38.6116 37.5765 38.3133 37.3245 38.2441 36.99L38.2143 36.8462Z" stroke="black"/>
<path d="M40.7788 24.4665L40.6855 24.4854L40.5727 24.4983C40.0333 24.56 39.4752 24.4397 38.9901 24.118L38.901 24.0589L38.8221 23.9962C38.3732 23.6393 38.0873 23.1504 37.9787 22.6239L37.9618 22.542L37.947 22.4172C37.884 21.8882 37.9993 21.3363 38.3073 20.8561L38.3724 20.7547L38.4238 20.6881C38.7733 20.2353 39.2552 19.9421 39.7762 19.8256L39.8909 19.8L39.982 19.7876C40.5197 19.7143 41.0784 19.8228 41.5645 20.13L41.6459 20.1815L41.7363 20.2496C42.2019 20.6006 42.5012 21.0913 42.618 21.6232L42.6409 21.7271L42.6549 21.8317C42.7277 22.3746 42.611 22.9429 42.2913 23.4361L42.233 23.5261L42.1734 23.6023C41.8131 24.0631 41.3146 24.3578 40.7788 24.4665ZM44.7179 21.3835L44.7195 21.3597C44.7239 21.2922 44.7738 21.2392 44.8344 21.2289L44.7509 20.736L44.8344 21.2289C44.9114 21.2159 44.9821 21.2661 44.9952 21.3431L45.4881 21.2595L44.9952 21.3431C45.0082 21.4201 44.958 21.4907 44.881 21.5038L44.8783 21.5043C44.8175 21.5149 44.7516 21.4801 44.7276 21.4114L44.7179 21.3835ZM42.8925 18.4817L42.8711 18.4565C42.8313 18.4097 42.8275 18.3422 42.8644 18.2903C42.909 18.2275 42.995 18.2129 43.0578 18.2575C43.1206 18.3021 43.1352 18.3881 43.0906 18.4509C43.0514 18.5061 42.9781 18.5255 42.9135 18.4924L42.8925 18.4817ZM39.541 17.7234L39.5154 17.7215C39.4534 17.7168 39.401 17.6695 39.3906 17.6079C39.3776 17.5309 39.4278 17.4602 39.5047 17.4471L39.4212 16.9542L39.5047 17.4471C39.5817 17.4341 39.6524 17.4843 39.6655 17.5613C39.6764 17.6259 39.6382 17.6916 39.5719 17.7133L39.541 17.7234ZM41.0424 26.5607L41.0749 26.56C41.1447 26.5587 41.2024 26.6081 41.2134 26.6728C41.2264 26.7497 41.1762 26.8204 41.0992 26.8335C41.0222 26.8465 40.9516 26.7963 40.9385 26.7193L40.938 26.7164C40.9278 26.6585 40.9588 26.5971 41.0189 26.5709L41.0424 26.5607ZM36.6426 19.5531L36.6299 19.5647C36.5781 19.6121 36.5043 19.6151 36.452 19.5779C36.3892 19.5333 36.3746 19.4473 36.4192 19.3845C36.4638 19.3217 36.5498 19.3071 36.6126 19.3517C36.665 19.3889 36.6847 19.4621 36.6572 19.5215L36.6426 19.5531ZM35.8852 22.8823L35.8854 22.9142C35.8857 22.9806 35.8381 23.0383 35.771 23.0496L35.8546 23.5426L35.771 23.0496C35.694 23.0627 35.6233 23.0125 35.6103 22.9355L35.1173 23.0191L35.6103 22.9355C35.5973 22.859 35.6468 22.7887 35.723 22.775C35.7895 22.7648 35.8517 22.8021 35.8752 22.8582L35.8852 22.8823ZM37.703 25.7927L37.72 25.809C37.7722 25.859 37.7778 25.9365 37.7396 25.9903C37.695 26.0531 37.609 26.0677 37.5462 26.0231C37.4833 25.9785 37.4688 25.8925 37.5134 25.8297C37.5484 25.7803 37.6124 25.7587 37.6765 25.7828L37.703 25.7927ZM43.9555 24.738L43.9755 24.7186C44.0235 24.6722 44.0972 24.6668 44.1506 24.7047L44.1526 24.7062C44.2154 24.7508 44.23 24.8368 44.1854 24.8996C44.1408 24.9624 44.0548 24.977 43.992 24.9324C43.9371 24.8935 43.9187 24.8219 43.9442 24.7638L43.9555 24.738Z" stroke="black"/>
<path d="M11.5975 17.4292L11.5831 17.5651C11.5195 17.8424 11.364 18.0905 11.134 18.2709L11.1339 18.2708L11.1271 18.2763C10.8983 18.4622 10.615 18.5517 10.3314 18.5517C9.94413 18.5517 9.57294 18.3896 9.31731 18.0691C9.10269 17.7946 9.00797 17.4662 9.04492 17.1176C9.08157 16.7818 9.24875 16.4768 9.51872 16.2652C9.79215 16.0509 10.1191 15.9557 10.4663 15.9911C10.8083 16.0372 11.1139 16.2075 11.3241 16.4757C11.5396 16.7507 11.6347 17.0798 11.5975 17.4292ZM9.3199 18.0573L9.32572 18.065L9.33184 18.0726C9.76407 18.6045 10.5496 18.7096 11.1051 18.2759C11.3796 18.068 11.5494 17.758 11.5832 17.4197C11.6172 17.0793 11.5126 16.7627 11.3226 16.5094C11.1146 16.2321 10.803 16.0605 10.4627 16.0265L10.4379 16.024H10.413H10.4128H10.4126H10.4124H10.4123H10.4121H10.4119H10.4117H10.4115H10.4114H10.4112H10.411H10.4108H10.4107H10.4105H10.4103H10.4101H10.4099H10.4098H10.4096H10.4094H10.4092H10.409H10.4089H10.4087H10.4085H10.4083H10.4081H10.408H10.4078H10.4076H10.4074H10.4072H10.4071H10.4069H10.4067H10.4065H10.4064H10.4062H10.406H10.4058H10.4056H10.4055H10.4053H10.4051H10.4049H10.4047H10.4046H10.4044H10.4042H10.404H10.4038H10.4037H10.4035H10.4033H10.4031H10.4029H10.4028H10.4026H10.4024H10.4022H10.4021H10.4019H10.4017H10.4015H10.4013H10.4012H10.401H10.4008H10.4006H10.4004H10.4003H10.4001H10.3999H10.3997H10.3995H10.3994H10.3992H10.399H10.3988H10.3986H10.3985H10.3983H10.3981H10.3979H10.3978H10.3976H10.3974H10.3972H10.397H10.3969H10.3967H10.3965H10.3963H10.3961H10.396H10.3958H10.3956H10.3954H10.3952H10.3951H10.3949H10.3947H10.3945H10.3943H10.3942H10.394H10.3938H10.3936H10.3935H10.3933H10.3931H10.3929H10.3927H10.3926H10.3924H10.3922H10.392H10.3918H10.3917H10.3915H10.3913H10.3911H10.3909H10.3908H10.3906H10.3904H10.3902H10.39H10.3899H10.3897H10.3895H10.3893H10.3892H10.389H10.3888H10.3886H10.3884H10.3883H10.3881H10.3879H10.3877H10.3875H10.3874H10.3872H10.387H10.3868H10.3866H10.3865H10.3863H10.3861H10.3859H10.3857H10.3856H10.3854H10.3852H10.385H10.3849H10.3847H10.3845H10.3843H10.3841H10.384H10.3838H10.3836H10.3834H10.3832H10.3831H10.3829H10.3827H10.3825H10.3823H10.3822H10.382H10.3818H10.3816H10.3814H10.3813H10.3811H10.3809H10.3807H10.3806H10.3804H10.3802H10.38H10.3798H10.3797H10.3795H10.3793H10.3791H10.3789H10.3788H10.3786H10.3784H10.3782H10.378H10.3779H10.3777H10.3775H10.3773H10.3771H10.377H10.3768H10.3766H10.3764H10.3763H10.3761H10.3759H10.3757H10.3755H10.3754H10.3752H10.375H10.3748H10.3746H10.3745H10.3743H10.3741H10.3739H10.3737H10.3736H10.3734H10.3732H10.373H10.3728H10.3727H10.3725H10.3723H10.3721H10.372H10.3718H10.3716H10.3714H10.3712H10.3711H10.3709H10.3707H10.3705H10.3703H10.3702H10.37H10.3698H10.3696H10.3694H10.3693H10.3691H10.3689H10.3687H10.3685H10.3684H10.3682H10.368H10.3678H10.3677H10.3675H10.3673H10.3671H10.3669H10.3668H10.3666H10.3664H10.3662H10.366H10.3659H10.3657H10.3655H10.3653H10.3651H10.365H10.3648H10.3646H10.3644H10.3642H10.3641H10.3639H10.3637H10.3635H10.3634H10.3632H10.363H10.3628H10.3626H10.3625H10.3623H10.3621H10.3619H10.3617H10.3616H10.3614H10.3612H10.361H10.3608H10.3607H10.3605H10.3603H10.3601H10.3599H10.3598H10.3596H10.3594H10.3592H10.3591H10.3589H10.3587H10.3585H10.3583H10.3582H10.358H10.3578H10.3576H10.3574H10.3573H10.3571H10.3569H10.3567H10.3565H10.3564H10.3562H10.356H10.3558H10.3556H10.3555H10.3553H10.3551H10.3549H10.3548H10.3546H10.3544H10.3542H10.354H10.3539H10.3537H10.3535H10.3533H10.3531H10.353H10.3528H10.3526H10.3524H10.3522H10.3521H10.3519H10.3517H10.3515H10.3513H10.3512H10.351H10.3508H10.3506H10.3505H10.3503H10.3501H10.3499H10.3497H10.3496H10.3494H10.3492H10.349H10.3488H10.3487H10.3485H10.3483H10.3481H10.3479H10.3478H10.3476H10.3474H10.3472H10.347H10.3469H10.3467H10.3465H10.3463H10.3462H10.346H10.3458H10.3456H10.3454H10.3453H10.3451H10.3449H10.3447H10.3445H10.3444H10.3442H10.344H10.3438H10.3436H10.3435H10.3433H10.3431H10.3429H10.3427H10.3426H10.3424H10.3422H10.342H10.3419H10.3417H10.3415H10.3413H10.3411H10.341H10.3408H10.3406H10.3404H10.3402H10.3401H10.3399H10.3397H10.3395H10.3393H10.3392H10.339H10.3388H10.3386H10.3384H10.3383H10.3381H10.3379H10.3377H10.3376H10.3374H10.3372H10.337H10.3368H10.3367H10.3365H10.3363H10.3361H10.3359H10.3358H10.3356H10.3354H10.3352H10.335H10.3349H10.3347H10.3345H10.3343H10.3341H10.334H10.3338H10.3336H10.3334H10.3333H10.3331H10.3329H10.3327H10.3325H10.3324H10.3322H10.332H10.3318H10.3316H10.3315H10.3313H10.3311H10.3309H10.3307H10.3306H10.3304H10.3302H10.33H10.3298H10.3297H10.3295H10.3293H10.3291H10.329H10.3288H10.3286H10.3284H10.3282H10.3281H10.3279H10.3277H10.3275H10.3273H10.3272H10.327H10.3268H10.3266H10.3264H10.3263H10.3261H10.3259H10.3257H10.3255H10.3254H10.3252H10.325H10.3248H10.3247H10.3245H10.3243H10.3241H10.3239H10.3238H10.3236H10.3234H10.3232H10.323H10.3229H10.3227H10.3225H10.3223H10.3221H10.322H10.3218H10.3216H10.3214H10.3212C10.0592 16.024 9.76896 16.0995 9.53069 16.2958C9.26017 16.5037 9.09286 16.8114 9.0593 17.1469C9.02526 17.4873 9.12989 17.8039 9.3199 18.0573Z" stroke="black"/>
<path d="M17.0726 14.6504C17.2122 14.8353 17.1805 15.0909 17.0055 15.2327C16.8206 15.3723 16.565 15.3407 16.4232 15.1657C16.2836 14.9808 16.3152 14.7251 16.4902 14.5834C16.6751 14.4437 16.9308 14.4754 17.0726 14.6504Z" stroke="black"/>
<path d="M21.1329 9.55634L21.1329 9.55631L21.1277 9.56049C20.5096 10.0579 19.5944 9.95286 19.1033 9.32575L19.1033 9.32572L19.0991 9.32053C18.6017 8.7025 18.7067 7.78724 19.3339 7.29613L19.3339 7.29617L19.3391 7.29199C19.9571 6.79455 20.8724 6.89962 21.3635 7.52673L21.3634 7.52675L21.3676 7.53195C21.865 8.14997 21.76 9.06523 21.1329 9.55634Z" stroke="black"/>
<mask id="path-6-inside-1_35837_1519" fill="white">
<path d="M28.3419 8.04364C28.3216 7.75825 28.0769 7.5646 27.7915 7.57479L25.8652 7.73787C25.8244 7.5646 25.7735 7.40152 25.7123 7.23844L27.4858 6.16825C27.7304 6.02555 27.8017 5.70959 27.659 5.46497C27.5164 5.22036 27.2004 5.14901 26.9558 5.2917L25.2944 6.29055C25.2129 6.14786 25.1313 5.99498 25.0396 5.86248L26.2933 4.4967C26.4869 4.29285 26.4665 3.9667 26.2627 3.77304C26.0588 3.58958 25.7327 3.59977 25.539 3.80362L24.4077 5.0369C24.1529 4.74132 23.8675 4.47632 23.5617 4.24189L24.3058 2.45823C24.4179 2.20342 24.2956 1.89765 24.0306 1.79573C23.7656 1.68361 23.47 1.80592 23.3681 2.07092L22.6954 3.67112C22.4304 3.51824 22.145 3.39593 21.8596 3.28381L21.9921 1.2963C22.0125 1.01092 21.7985 0.776494 21.5131 0.75611C21.2379 0.735725 20.9933 0.949764 20.9729 1.22496L20.8506 2.99843C20.5346 2.93727 20.2186 2.88631 19.9027 2.86593L19.5459 0.929379C19.495 0.654186 19.23 0.470724 18.9548 0.521686C18.6796 0.572647 18.4961 0.837648 18.5471 1.11284L18.8834 2.8965C18.5369 2.93727 18.1904 2.99843 17.854 3.09016L17.008 1.50015C16.8755 1.25553 16.5698 1.15361 16.315 1.28611C16.0704 1.41861 15.9684 1.72438 16.1009 1.97919L16.8755 3.4367C16.8755 3.4367 16.845 3.44689 16.8246 3.45708C16.4882 3.60997 16.1723 3.81381 15.8767 4.01766L15.0002 2.92708C14.8269 2.71304 14.5007 2.67227 14.2867 2.85573C14.0726 3.029 14.0319 3.35516 14.2153 3.5692L15.1021 4.65978C14.8167 4.93497 14.5517 5.23055 14.3173 5.5567L13.2471 4.53747C13.0432 4.34382 12.7171 4.35401 12.5234 4.55786C12.3298 4.7617 12.3399 5.08786 12.5438 5.28151L13.7771 6.45363C13.665 6.66767 13.5426 6.88171 13.4611 7.10594C13.4203 7.21806 13.3592 7.33017 13.3184 7.4321L12.4725 6.39248C12.2992 6.17844 11.973 6.13767 11.759 6.32113C11.545 6.4944 11.5042 6.82056 11.6876 7.0346L12.7884 8.39018C12.5336 8.74691 12.2176 9.07307 11.8813 9.34826L11.1169 7.59517C11.0048 7.34037 10.7092 7.21806 10.4442 7.33017C10.1894 7.44229 10.0671 7.74806 10.1792 8.00287L11.0149 9.92922C10.6684 10.1127 10.3015 10.2656 9.91417 10.3777L9.35359 8.59402C9.27206 8.32902 8.98667 8.17614 8.71148 8.25768C8.44648 8.33922 8.29359 8.6246 8.37513 8.89979L8.90513 10.5815C8.44647 10.6529 8.0184 10.765 7.60051 10.9179L6.80551 9.50114C6.66282 9.25653 6.35705 9.1648 6.11243 9.30749C5.86781 9.45018 5.77608 9.75595 5.91877 10.0006L6.67301 11.346C6.18377 11.6212 5.73531 11.9677 5.33781 12.3652L4.0128 11.346C3.78857 11.1727 3.47261 11.2135 3.29934 11.4377C3.12607 11.6619 3.16684 11.9779 3.39107 12.1512L4.66511 13.1398C4.34915 13.5577 4.09434 14.0164 3.8905 14.5056L1.77049 14.3527C1.49529 14.3323 1.25068 14.5464 1.23029 14.8215C1.20991 15.1069 1.42395 15.3516 1.69914 15.3719L3.56434 15.5044C3.44203 16.0039 3.38088 16.5237 3.38088 17.0537L0.751253 17.6856C0.476059 17.7569 0.312983 18.0321 0.374137 18.2971C0.435291 18.5316 0.639136 18.6844 0.87356 18.6844C0.914329 18.6844 0.955101 18.6844 0.995871 18.6743L3.4828 18.0729C3.54396 18.45 3.63569 18.8169 3.76819 19.1737L1.51568 20.3356C1.26087 20.4681 1.16914 20.7739 1.29145 21.0185C1.38318 21.1918 1.55645 21.2937 1.7501 21.2937C1.83164 21.2937 1.91318 21.2733 1.98453 21.2325L4.18607 20.1012C4.37973 20.4579 4.60396 20.7841 4.85877 21.1L3.07511 22.7716C2.87126 22.9652 2.86107 23.2812 3.05473 23.4952C3.15665 23.6074 3.28915 23.6583 3.42165 23.6583C3.54395 23.6583 3.67646 23.6175 3.76819 23.5156L5.56204 21.8339C5.66396 21.9256 5.76589 22.0173 5.878 22.1091C6.0105 22.211 6.1532 22.2925 6.2857 22.3843L5.13396 24.6266C5.00146 24.8814 5.10338 25.1872 5.35819 25.3095C5.42954 25.3502 5.51108 25.3706 5.59262 25.3706C5.77608 25.3706 5.95954 25.2687 6.05127 25.0954L7.18262 22.8939C7.38647 22.9856 7.59032 23.0875 7.80436 23.1691L7.72282 25.6356C7.72282 25.921 7.93686 26.1554 8.21205 26.1656H8.23244C8.50763 26.1656 8.73186 25.9516 8.74205 25.6764L8.82359 23.4239C9.15994 23.485 9.50648 23.5054 9.85302 23.5054L9.97532 25.5745C9.99571 25.8497 10.2199 26.0535 10.4849 26.0535C10.4849 26.0535 10.5053 26.0535 10.5155 26.0535C10.8009 26.0331 11.0149 25.7987 10.9946 25.5133L10.8723 23.4341C11.2188 23.3933 11.5551 23.3424 11.8915 23.2812L12.3094 25.4012C12.3603 25.6458 12.5744 25.8089 12.8088 25.8089C12.8394 25.8089 12.87 25.8089 12.9107 25.8089C13.1859 25.7579 13.3694 25.4827 13.3082 25.2076L12.8801 23.0672C13.1248 23.006 13.3592 22.9449 13.6038 22.8735L14.2357 25.0241C14.2969 25.2483 14.5007 25.391 14.725 25.391C14.7759 25.391 14.8167 25.391 14.8677 25.3706C15.1428 25.2891 15.2957 25.0139 15.2142 24.7387L14.5823 22.5677C14.9492 22.4352 15.3161 22.3027 15.6728 22.1498L16.6411 24.2291C16.7227 24.4125 16.9163 24.5247 17.0998 24.5247C17.1711 24.5247 17.2425 24.5145 17.3138 24.4737C17.5686 24.3514 17.6807 24.0558 17.5584 23.801L16.5902 21.732C16.8959 21.5791 17.1813 21.4262 17.4769 21.2631L18.7611 23.1283C18.8631 23.271 19.0159 23.3525 19.179 23.3525C19.2809 23.3525 19.3829 23.322 19.4644 23.2608C19.6988 23.0977 19.7498 22.7818 19.5969 22.5473L18.3534 20.7331C18.5879 20.5802 18.8223 20.4273 19.0567 20.2643L20.504 21.9358C20.6059 22.0479 20.7486 22.1091 20.8913 22.1091C21.0136 22.1091 21.1258 22.0683 21.2277 21.9868C21.4417 21.8033 21.4621 21.4772 21.2786 21.2631L19.8823 19.6527C20.1065 19.4795 20.3104 19.2858 20.5244 19.1023L21.8086 20.5802C21.9106 20.6923 22.0533 20.7535 22.196 20.7535C22.3183 20.7535 22.4304 20.7127 22.5323 20.6312C22.7463 20.4477 22.7667 20.1216 22.5833 19.9075L21.2786 18.3991C21.4927 18.1952 21.6965 17.9914 21.8902 17.7671L23.4394 19.1329C23.5312 19.2145 23.6535 19.2552 23.7758 19.2552C23.9185 19.2552 24.0612 19.1941 24.1631 19.0819C24.3465 18.8679 24.3261 18.5519 24.1121 18.3583L22.5629 16.9925C22.8483 16.646 23.1133 16.2994 23.3783 15.9325L24.9173 17.1046C25.009 17.176 25.1212 17.2066 25.2231 17.2066C25.376 17.2066 25.5289 17.1352 25.6308 17.0027C25.804 16.7785 25.7531 16.4625 25.5288 16.2892L23.9388 15.0866C24.1427 14.7706 24.3261 14.4444 24.5096 14.1183L26.12 15.1171C26.2015 15.1681 26.2933 15.1987 26.385 15.1987C26.5583 15.1987 26.7214 15.1171 26.8131 14.9541C26.966 14.7196 26.8844 14.4037 26.65 14.2508L24.9683 13.201C25.1212 12.885 25.2638 12.569 25.3963 12.2429L27.2106 12.834C27.2615 12.8544 27.3125 12.8544 27.3737 12.8544C27.5877 12.8544 27.7915 12.7219 27.8629 12.5079C27.9546 12.2429 27.8017 11.9575 27.5367 11.8658L25.7633 11.2848C25.855 10.9994 25.9263 10.714 25.9671 10.4286L27.6794 10.6325C27.6794 10.6325 27.7202 10.6325 27.7406 10.6325C27.9954 10.6325 28.2196 10.4388 28.2502 10.184C28.2808 9.90884 28.0871 9.65403 27.8017 9.62345L26.0589 9.41961C26.0589 9.19537 26.0589 8.97114 26.0283 8.74691L27.8731 8.59402C28.1483 8.57364 28.3623 8.31883 28.3419 8.04364ZM7.14185 20.5191C6.20416 19.7852 5.613 18.7252 5.47031 17.5429C5.17473 15.0967 6.92781 12.8748 9.36379 12.5792C12.1259 12.2429 14.4294 10.4185 15.3875 7.81941C15.7952 6.69825 16.6207 5.81151 17.7011 5.31209C18.2923 5.0369 18.9344 4.8942 19.5765 4.8942C20.0963 4.8942 20.6161 4.98593 21.1156 5.1694C21.8902 5.45478 22.5629 5.94401 23.0725 6.58613C24.0408 7.81941 24.3058 9.4298 23.7656 10.8975C21.6456 16.6664 16.5392 20.7127 10.434 21.4364C9.25167 21.5791 8.07955 21.2529 7.15205 20.5191H7.14185Z"/>
</mask>
<path d="M28.3419 8.04364C28.3216 7.75825 28.0769 7.5646 27.7915 7.57479L25.8652 7.73787C25.8244 7.5646 25.7735 7.40152 25.7123 7.23844L27.4858 6.16825C27.7304 6.02555 27.8017 5.70959 27.659 5.46497C27.5164 5.22036 27.2004 5.14901 26.9558 5.2917L25.2944 6.29055C25.2129 6.14786 25.1313 5.99498 25.0396 5.86248L26.2933 4.4967C26.4869 4.29285 26.4665 3.9667 26.2627 3.77304C26.0588 3.58958 25.7327 3.59977 25.539 3.80362L24.4077 5.0369C24.1529 4.74132 23.8675 4.47632 23.5617 4.24189L24.3058 2.45823C24.4179 2.20342 24.2956 1.89765 24.0306 1.79573C23.7656 1.68361 23.47 1.80592 23.3681 2.07092L22.6954 3.67112C22.4304 3.51824 22.145 3.39593 21.8596 3.28381L21.9921 1.2963C22.0125 1.01092 21.7985 0.776494 21.5131 0.75611C21.2379 0.735725 20.9933 0.949764 20.9729 1.22496L20.8506 2.99843C20.5346 2.93727 20.2186 2.88631 19.9027 2.86593L19.5459 0.929379C19.495 0.654186 19.23 0.470724 18.9548 0.521686C18.6796 0.572647 18.4961 0.837648 18.5471 1.11284L18.8834 2.8965C18.5369 2.93727 18.1904 2.99843 17.854 3.09016L17.008 1.50015C16.8755 1.25553 16.5698 1.15361 16.315 1.28611C16.0704 1.41861 15.9684 1.72438 16.1009 1.97919L16.8755 3.4367C16.8755 3.4367 16.845 3.44689 16.8246 3.45708C16.4882 3.60997 16.1723 3.81381 15.8767 4.01766L15.0002 2.92708C14.8269 2.71304 14.5007 2.67227 14.2867 2.85573C14.0726 3.029 14.0319 3.35516 14.2153 3.5692L15.1021 4.65978C14.8167 4.93497 14.5517 5.23055 14.3173 5.5567L13.2471 4.53747C13.0432 4.34382 12.7171 4.35401 12.5234 4.55786C12.3298 4.7617 12.3399 5.08786 12.5438 5.28151L13.7771 6.45363C13.665 6.66767 13.5426 6.88171 13.4611 7.10594C13.4203 7.21806 13.3592 7.33017 13.3184 7.4321L12.4725 6.39248C12.2992 6.17844 11.973 6.13767 11.759 6.32113C11.545 6.4944 11.5042 6.82056 11.6876 7.0346L12.7884 8.39018C12.5336 8.74691 12.2176 9.07307 11.8813 9.34826L11.1169 7.59517C11.0048 7.34037 10.7092 7.21806 10.4442 7.33017C10.1894 7.44229 10.0671 7.74806 10.1792 8.00287L11.0149 9.92922C10.6684 10.1127 10.3015 10.2656 9.91417 10.3777L9.35359 8.59402C9.27206 8.32902 8.98667 8.17614 8.71148 8.25768C8.44648 8.33922 8.29359 8.6246 8.37513 8.89979L8.90513 10.5815C8.44647 10.6529 8.0184 10.765 7.60051 10.9179L6.80551 9.50114C6.66282 9.25653 6.35705 9.1648 6.11243 9.30749C5.86781 9.45018 5.77608 9.75595 5.91877 10.0006L6.67301 11.346C6.18377 11.6212 5.73531 11.9677 5.33781 12.3652L4.0128 11.346C3.78857 11.1727 3.47261 11.2135 3.29934 11.4377C3.12607 11.6619 3.16684 11.9779 3.39107 12.1512L4.66511 13.1398C4.34915 13.5577 4.09434 14.0164 3.8905 14.5056L1.77049 14.3527C1.49529 14.3323 1.25068 14.5464 1.23029 14.8215C1.20991 15.1069 1.42395 15.3516 1.69914 15.3719L3.56434 15.5044C3.44203 16.0039 3.38088 16.5237 3.38088 17.0537L0.751253 17.6856C0.476059 17.7569 0.312983 18.0321 0.374137 18.2971C0.435291 18.5316 0.639136 18.6844 0.87356 18.6844C0.914329 18.6844 0.955101 18.6844 0.995871 18.6743L3.4828 18.0729C3.54396 18.45 3.63569 18.8169 3.76819 19.1737L1.51568 20.3356C1.26087 20.4681 1.16914 20.7739 1.29145 21.0185C1.38318 21.1918 1.55645 21.2937 1.7501 21.2937C1.83164 21.2937 1.91318 21.2733 1.98453 21.2325L4.18607 20.1012C4.37973 20.4579 4.60396 20.7841 4.85877 21.1L3.07511 22.7716C2.87126 22.9652 2.86107 23.2812 3.05473 23.4952C3.15665 23.6074 3.28915 23.6583 3.42165 23.6583C3.54395 23.6583 3.67646 23.6175 3.76819 23.5156L5.56204 21.8339C5.66396 21.9256 5.76589 22.0173 5.878 22.1091C6.0105 22.211 6.1532 22.2925 6.2857 22.3843L5.13396 24.6266C5.00146 24.8814 5.10338 25.1872 5.35819 25.3095C5.42954 25.3502 5.51108 25.3706 5.59262 25.3706C5.77608 25.3706 5.95954 25.2687 6.05127 25.0954L7.18262 22.8939C7.38647 22.9856 7.59032 23.0875 7.80436 23.1691L7.72282 25.6356C7.72282 25.921 7.93686 26.1554 8.21205 26.1656H8.23244C8.50763 26.1656 8.73186 25.9516 8.74205 25.6764L8.82359 23.4239C9.15994 23.485 9.50648 23.5054 9.85302 23.5054L9.97532 25.5745C9.99571 25.8497 10.2199 26.0535 10.4849 26.0535C10.4849 26.0535 10.5053 26.0535 10.5155 26.0535C10.8009 26.0331 11.0149 25.7987 10.9946 25.5133L10.8723 23.4341C11.2188 23.3933 11.5551 23.3424 11.8915 23.2812L12.3094 25.4012C12.3603 25.6458 12.5744 25.8089 12.8088 25.8089C12.8394 25.8089 12.87 25.8089 12.9107 25.8089C13.1859 25.7579 13.3694 25.4827 13.3082 25.2076L12.8801 23.0672C13.1248 23.006 13.3592 22.9449 13.6038 22.8735L14.2357 25.0241C14.2969 25.2483 14.5007 25.391 14.725 25.391C14.7759 25.391 14.8167 25.391 14.8677 25.3706C15.1428 25.2891 15.2957 25.0139 15.2142 24.7387L14.5823 22.5677C14.9492 22.4352 15.3161 22.3027 15.6728 22.1498L16.6411 24.2291C16.7227 24.4125 16.9163 24.5247 17.0998 24.5247C17.1711 24.5247 17.2425 24.5145 17.3138 24.4737C17.5686 24.3514 17.6807 24.0558 17.5584 23.801L16.5902 21.732C16.8959 21.5791 17.1813 21.4262 17.4769 21.2631L18.7611 23.1283C18.8631 23.271 19.0159 23.3525 19.179 23.3525C19.2809 23.3525 19.3829 23.322 19.4644 23.2608C19.6988 23.0977 19.7498 22.7818 19.5969 22.5473L18.3534 20.7331C18.5879 20.5802 18.8223 20.4273 19.0567 20.2643L20.504 21.9358C20.6059 22.0479 20.7486 22.1091 20.8913 22.1091C21.0136 22.1091 21.1258 22.0683 21.2277 21.9868C21.4417 21.8033 21.4621 21.4772 21.2786 21.2631L19.8823 19.6527C20.1065 19.4795 20.3104 19.2858 20.5244 19.1023L21.8086 20.5802C21.9106 20.6923 22.0533 20.7535 22.196 20.7535C22.3183 20.7535 22.4304 20.7127 22.5323 20.6312C22.7463 20.4477 22.7667 20.1216 22.5833 19.9075L21.2786 18.3991C21.4927 18.1952 21.6965 17.9914 21.8902 17.7671L23.4394 19.1329C23.5312 19.2145 23.6535 19.2552 23.7758 19.2552C23.9185 19.2552 24.0612 19.1941 24.1631 19.0819C24.3465 18.8679 24.3261 18.5519 24.1121 18.3583L22.5629 16.9925C22.8483 16.646 23.1133 16.2994 23.3783 15.9325L24.9173 17.1046C25.009 17.176 25.1212 17.2066 25.2231 17.2066C25.376 17.2066 25.5289 17.1352 25.6308 17.0027C25.804 16.7785 25.7531 16.4625 25.5288 16.2892L23.9388 15.0866C24.1427 14.7706 24.3261 14.4444 24.5096 14.1183L26.12 15.1171C26.2015 15.1681 26.2933 15.1987 26.385 15.1987C26.5583 15.1987 26.7214 15.1171 26.8131 14.9541C26.966 14.7196 26.8844 14.4037 26.65 14.2508L24.9683 13.201C25.1212 12.885 25.2638 12.569 25.3963 12.2429L27.2106 12.834C27.2615 12.8544 27.3125 12.8544 27.3737 12.8544C27.5877 12.8544 27.7915 12.7219 27.8629 12.5079C27.9546 12.2429 27.8017 11.9575 27.5367 11.8658L25.7633 11.2848C25.855 10.9994 25.9263 10.714 25.9671 10.4286L27.6794 10.6325C27.6794 10.6325 27.7202 10.6325 27.7406 10.6325C27.9954 10.6325 28.2196 10.4388 28.2502 10.184C28.2808 9.90884 28.0871 9.65403 27.8017 9.62345L26.0589 9.41961C26.0589 9.19537 26.0589 8.97114 26.0283 8.74691L27.8731 8.59402C28.1483 8.57364 28.3623 8.31883 28.3419 8.04364ZM7.14185 20.5191C6.20416 19.7852 5.613 18.7252 5.47031 17.5429C5.17473 15.0967 6.92781 12.8748 9.36379 12.5792C12.1259 12.2429 14.4294 10.4185 15.3875 7.81941C15.7952 6.69825 16.6207 5.81151 17.7011 5.31209C18.2923 5.0369 18.9344 4.8942 19.5765 4.8942C20.0963 4.8942 20.6161 4.98593 21.1156 5.1694C21.8902 5.45478 22.5629 5.94401 23.0725 6.58613C24.0408 7.81941 24.3058 9.4298 23.7656 10.8975C21.6456 16.6664 16.5392 20.7127 10.434 21.4364C9.25167 21.5791 8.07955 21.2529 7.15205 20.5191H7.14185Z" stroke="black" stroke-width="2" mask="url(#path-6-inside-1_35837_1519)"/>
</svg>
