<svg width="38" height="37" viewBox="0 0 38 37" fill="none" xmlns="http://www.w3.org/2000/svg">
<path d="M10.6431 20.6675L18.7104 16.0794L26.7778 20.6675V29.8364L18.7104 34.4246L10.6431 29.8364V20.6675Z" stroke="black" stroke-width="0.575996"/>
<circle cx="18.8558" cy="34.7562" r="1.87199" fill="black" stroke="black" stroke-width="0.287998"/>
<circle cx="26.9203" cy="30.1478" r="1.87199" fill="black" stroke="black" stroke-width="0.287998"/>
<circle cx="26.9203" cy="20.3558" r="1.87199" fill="black" stroke="black" stroke-width="0.287998"/>
<circle cx="18.8558" cy="16.3241" r="1.87199" fill="black" stroke="black" stroke-width="0.287998"/>
<circle cx="11.0785" cy="20.3558" r="1.87199" fill="black" stroke="black" stroke-width="0.287998"/>
<circle cx="10.5043" cy="30.1478" r="1.87199" fill="black" stroke="black" stroke-width="0.287998"/>
<path d="M18.9966 7.13092L27.0639 2.54274L35.1313 7.13092V16.2998L27.0639 20.888L18.9966 16.2998V7.13092Z" stroke="black" stroke-width="0.575996"/>
<circle cx="35.2718" cy="16.6117" r="1.87199" fill="black" stroke="black" stroke-width="0.287998"/>
<circle cx="35.2718" cy="6.8197" r="1.87199" fill="black" stroke="black" stroke-width="0.287998"/>
<circle cx="27.2074" cy="2.78796" r="1.87199" fill="black" stroke="black" stroke-width="0.287998"/>
<circle cx="19.432" cy="6.8197" r="1.87199" fill="black" stroke="black" stroke-width="0.287998"/>
<path d="M18.7166 6.96339L10.3612 2.21143L2.00586 6.96339" stroke="black" stroke-width="0.575996"/>
<circle cx="10.5043" cy="2.78796" r="1.87199" fill="black" stroke="black" stroke-width="0.287998"/>
<circle cx="2.72888" cy="6.8197" r="1.87199" fill="black" stroke="black" stroke-width="0.287998"/>
</svg>
