<svg width="45" height="46" viewBox="0 0 45 46" fill="none" xmlns="http://www.w3.org/2000/svg">
<g id="fi_17745189">
<path id="Vector" d="M27.3502 37.3837C27.2687 37.3022 27.2184 37.1896 27.2184 37.0655L27.2188 35.9209C27.2188 35.6721 27.4199 35.471 27.6687 35.471C27.9175 35.471 28.1186 35.6721 28.1186 35.9209L28.1183 37.0655C28.1183 37.3143 27.9172 37.5154 27.6684 37.5154C27.5443 37.5154 27.4316 37.4651 27.3502 37.3837Z" fill="black"/>
<path id="Vector_2" d="M23.8637 37.384C23.7823 37.3025 23.732 37.1899 23.732 37.0658L23.7323 35.9212C23.7323 35.6724 23.9334 35.4713 24.1822 35.4713C24.4311 35.4713 24.6322 35.6724 24.6322 35.9212L24.6319 37.0658C24.6319 37.3146 24.4308 37.5157 24.1819 37.5157C24.0578 37.5157 23.9452 37.4654 23.8637 37.384Z" fill="black"/>
<path id="Vector_3" d="M20.3772 37.3837C20.2958 37.3022 20.2455 37.1896 20.2455 37.0655L20.2458 35.9209C20.2458 35.6721 20.4469 35.471 20.6957 35.471C20.9446 35.471 21.1457 35.6721 21.1457 35.9209L21.1453 37.0655C21.1453 37.3143 20.9442 37.5154 20.6954 37.5154C20.5713 37.5154 20.4587 37.4651 20.3772 37.3837Z" fill="black"/>
<path id="Vector_4" d="M16.8907 37.384C16.8093 37.3025 16.759 37.1899 16.759 37.0658L16.759 35.9209C16.759 35.6721 16.9601 35.471 17.2089 35.471C17.4577 35.471 17.6588 35.6721 17.6588 35.9209L17.6588 37.0658C17.6588 37.3146 17.4577 37.5157 17.2089 37.5157C17.0848 37.5157 16.9722 37.4655 16.8907 37.384Z" fill="black"/>
<path id="Vector_5" d="M25.3502 40.5993C25.2687 40.5179 25.2184 40.4052 25.2184 40.2811L25.2188 39.1366C25.2188 38.8877 25.4199 38.6866 25.6687 38.6866C25.9175 38.6866 26.1186 38.8877 26.1186 39.1366L26.1183 40.2811C26.1183 40.5299 25.9172 40.731 25.6684 40.731C25.5443 40.731 25.4316 40.6808 25.3502 40.5993Z" fill="black"/>
<path id="Vector_6" d="M21.8637 40.5996C21.7823 40.5182 21.732 40.4055 21.732 40.2814L21.7323 39.1369C21.7323 38.888 21.9334 38.6869 22.1822 38.6869C22.4311 38.6869 22.6322 38.888 22.6322 39.1369L22.6319 40.2814C22.6319 40.5302 22.4308 40.7314 22.1819 40.7314C22.0578 40.7314 21.9452 40.6811 21.8637 40.5996Z" fill="black"/>
<path id="Vector_7" d="M28.8904 40.5993C28.8089 40.5179 28.7587 40.4052 28.7587 40.2811L28.759 39.1366C28.759 38.8877 28.9601 38.6866 29.2089 38.6866C29.4577 38.6866 29.6588 38.8877 29.6588 39.1366L29.6585 40.2811C29.6585 40.5299 29.4574 40.731 29.2086 40.731C29.0845 40.731 28.9719 40.6808 28.8904 40.5993Z" fill="black"/>
<path id="Vector_8" d="M18.3772 40.5993C18.2958 40.5179 18.2455 40.4052 18.2455 40.2811L18.2458 39.1366C18.2458 38.8877 18.4469 38.6866 18.6957 38.6866C18.9446 38.6866 19.1457 38.8877 19.1457 39.1366L19.1453 40.2811C19.1453 40.5299 18.9442 40.731 18.6954 40.731C18.5713 40.731 18.4587 40.6808 18.3772 40.5993Z" fill="black"/>
<path id="Vector_9" d="M14.8907 40.5996C14.8093 40.5182 14.759 40.4055 14.759 40.2814L14.759 39.1366C14.759 38.8877 14.9601 38.6866 15.2089 38.6866C15.4577 38.6866 15.6588 38.8877 15.6588 39.1366L15.6588 40.2814C15.6588 40.5303 15.4577 40.7314 15.2089 40.7314C15.0848 40.7314 14.9722 40.6811 14.8907 40.5996Z" fill="black"/>
<path id="Vector_10" d="M25.3958 33.5997C25.3144 33.5182 25.2641 33.4056 25.2641 33.2815L25.2641 32.1366C25.2641 31.8878 25.4652 31.6867 25.714 31.6867C25.9629 31.6867 26.164 31.8878 26.164 32.1366L26.164 33.2815C26.164 33.5303 25.9629 33.7314 25.714 33.7314C25.5899 33.7314 25.4773 33.6812 25.3958 33.5997Z" fill="black"/>
<path id="Vector_11" d="M21.9093 33.5999C21.8279 33.5185 21.7776 33.4058 21.7776 33.2817L21.7776 32.1369C21.7776 31.888 21.9787 31.6869 22.2275 31.6869C22.4764 31.6869 22.6775 31.888 22.6775 32.1369L22.6775 33.2817C22.6775 33.5306 22.4764 33.7317 22.2275 33.7317C22.1034 33.7317 21.9908 33.6814 21.9093 33.5999Z" fill="black"/>
<path id="Vector_12" d="M18.4229 33.5996C18.3414 33.5182 18.2911 33.4055 18.2911 33.2814L18.2911 32.1366C18.2911 31.8877 18.4923 31.6866 18.7411 31.6866C18.9899 31.6866 19.191 31.8877 19.191 32.1366L19.191 33.2814C19.191 33.5303 18.9899 33.7314 18.7411 33.7314C18.617 33.7314 18.5043 33.6811 18.4229 33.5996Z" fill="black"/>
<g id="Group 1000008432">
<g id="Group 1000008431">
<g id="Group 1000008429">
<ellipse id="Ellipse 446" cx="0.265928" cy="0.131058" rx="0.265928" ry="0.131058" transform="matrix(0.977389 -0.211448 0.476543 0.879151 19.9862 21.1454)" fill="#414141"/>
<ellipse id="Ellipse 447" cx="0.265928" cy="0.131058" rx="0.265928" ry="0.131058" transform="matrix(0.977389 -0.211448 0.476543 0.879151 22.1627 20.696)" fill="#414141"/>
<ellipse id="Ellipse 454" cx="0.265928" cy="0.131058" rx="0.265928" ry="0.131058" transform="matrix(0.977389 -0.211448 0.476543 0.879151 17.8307 21.6331)" fill="#414141"/>
<ellipse id="Ellipse 448" cx="0.265928" cy="0.131058" rx="0.265928" ry="0.131058" transform="matrix(0.977389 -0.211448 0.476543 0.879151 24.3807 20.3234)" fill="#414141"/>
<ellipse id="Ellipse 453" cx="0.265928" cy="0.131058" rx="0.265928" ry="0.131058" transform="matrix(0.977389 -0.211448 0.476543 0.879151 15.7689 22.2938)" fill="#414141"/>
<ellipse id="Ellipse 455" cx="0.265928" cy="0.131058" rx="0.265928" ry="0.131058" transform="matrix(0.977389 -0.211448 0.476543 0.879151 14.2841 23.2157)" fill="#414141"/>
<ellipse id="Ellipse 456" cx="0.265928" cy="0.131058" rx="0.265928" ry="0.131058" transform="matrix(0.977389 -0.211448 0.476543 0.879151 13.2398 24.2355)" fill="#414141"/>
<ellipse id="Ellipse 457" cx="0.265928" cy="0.131058" rx="0.265928" ry="0.131058" transform="matrix(0.977389 -0.211448 0.476543 0.879151 12.8522 25.3063)" fill="#414141"/>
<ellipse id="Ellipse 458" cx="0.265928" cy="0.131058" rx="0.265928" ry="0.131058" transform="matrix(0.977389 -0.211448 0.476543 0.879151 13.2427 26.2946)" fill="#414141"/>
<ellipse id="Ellipse 449" cx="0.265928" cy="0.131058" rx="0.265928" ry="0.131058" transform="matrix(0.977389 -0.211448 0.476543 0.879151 26.5815 20.2763)" fill="#414141"/>
<ellipse id="Ellipse 450" cx="0.265928" cy="0.131058" rx="0.265928" ry="0.131058" transform="matrix(0.977389 -0.211448 0.476543 0.879151 28.5834 20.487)" fill="#414141"/>
<ellipse id="Ellipse 451" cx="0.265928" cy="0.131058" rx="0.265928" ry="0.131058" transform="matrix(0.977389 -0.211448 0.476543 0.879151 30.0705 21.0878)" fill="#414141"/>
<ellipse id="Ellipse 452" cx="0.265928" cy="0.131058" rx="0.265928" ry="0.131058" transform="matrix(0.977389 -0.211448 0.476543 0.879151 31.1333 21.8877)" fill="#414141"/>
<ellipse id="Ellipse 459" cx="0.265928" cy="0.131058" rx="0.265928" ry="0.131058" transform="matrix(0.977389 -0.211448 0.476543 0.879151 31.503 22.8376)" fill="#414141"/>
<ellipse id="Ellipse 460" cx="0.265928" cy="0.131058" rx="0.265928" ry="0.131058" transform="matrix(0.977389 -0.211448 0.476543 0.879151 31.105 23.8892)" fill="#414141"/>
<ellipse id="Ellipse 461" cx="0.265928" cy="0.131058" rx="0.265928" ry="0.131058" transform="matrix(0.977389 -0.211448 0.476543 0.879151 30.0278 24.9375)" fill="#414141"/>
<ellipse id="Ellipse 462" cx="0.265928" cy="0.131058" rx="0.265928" ry="0.131058" transform="matrix(0.977389 -0.211448 0.476543 0.879151 28.6193 25.8216)" fill="#414141"/>
<ellipse id="Ellipse 463" cx="0.265928" cy="0.131058" rx="0.265928" ry="0.131058" transform="matrix(0.977389 -0.211448 0.476543 0.879151 26.5141 26.4915)" fill="#414141"/>
<ellipse id="Ellipse 464" cx="0.265928" cy="0.131058" rx="0.265928" ry="0.131058" transform="matrix(0.977389 -0.211448 0.476543 0.879151 24.239 27.0266)" fill="#414141"/>
<ellipse id="Ellipse 465" cx="0.265928" cy="0.131058" rx="0.265928" ry="0.131058" transform="matrix(0.977389 -0.211448 0.476543 0.879151 22.0522 27.4568)" fill="#414141"/>
<ellipse id="Ellipse 466" cx="0.265928" cy="0.131058" rx="0.265928" ry="0.131058" transform="matrix(0.977389 -0.211448 0.476543 0.879151 19.9747 27.8204)" fill="#414141"/>
<ellipse id="Ellipse 467" cx="0.265928" cy="0.131058" rx="0.265928" ry="0.131058" transform="matrix(0.977389 -0.211448 0.476543 0.879151 17.8171 27.8581)" fill="#414141"/>
<ellipse id="Ellipse 468" cx="0.265928" cy="0.131058" rx="0.265928" ry="0.131058" transform="matrix(0.977389 -0.211448 0.476543 0.879151 15.7184 27.647)" fill="#414141"/>
<ellipse id="Ellipse 469" cx="0.265928" cy="0.131058" rx="0.265928" ry="0.131058" transform="matrix(0.977389 -0.211448 0.476543 0.879151 14.1548 27.0842)" fill="#414141"/>
</g>
<g id="Group 1000008430">
<ellipse id="Ellipse 470" cx="0.181908" cy="0.0896503" rx="0.181908" ry="0.0896503" transform="matrix(0.977389 -0.211448 0.476543 0.879151 20.9919 22.1294)" fill="#414141"/>
<ellipse id="Ellipse 471" cx="0.181908" cy="0.0896503" rx="0.181908" ry="0.0896503" transform="matrix(0.977389 -0.211448 0.476543 0.879151 22.4736 21.8088)" fill="#414141"/>
<ellipse id="Ellipse 472" cx="0.181908" cy="0.0896503" rx="0.181908" ry="0.0896503" transform="matrix(0.977389 -0.211448 0.476543 0.879151 19.5102 22.4499)" fill="#414141"/>
<ellipse id="Ellipse 473" cx="0.181908" cy="0.0896503" rx="0.181908" ry="0.0896503" transform="matrix(0.977389 -0.211448 0.476543 0.879151 23.9908 21.554)" fill="#414141"/>
<ellipse id="Ellipse 474" cx="0.181908" cy="0.0896503" rx="0.181908" ry="0.0896503" transform="matrix(0.977389 -0.211448 0.476543 0.879151 18.0998 22.9018)" fill="#414141"/>
<ellipse id="Ellipse 475" cx="0.181908" cy="0.0896503" rx="0.181908" ry="0.0896503" transform="matrix(0.977389 -0.211448 0.476543 0.879151 17.0843 23.5324)" fill="#414141"/>
<ellipse id="Ellipse 476" cx="0.181908" cy="0.0896503" rx="0.181908" ry="0.0896503" transform="matrix(0.977389 -0.211448 0.476543 0.879151 16.3699 24.23)" fill="#414141"/>
<ellipse id="Ellipse 477" cx="0.181908" cy="0.0896503" rx="0.181908" ry="0.0896503" transform="matrix(0.977389 -0.211448 0.476543 0.879151 16.1047 24.9625)" fill="#414141"/>
<ellipse id="Ellipse 478" cx="0.181908" cy="0.0896503" rx="0.181908" ry="0.0896503" transform="matrix(0.977389 -0.211448 0.476543 0.879151 16.372 25.6385)" fill="#414141"/>
<ellipse id="Ellipse 479" cx="0.181908" cy="0.0896503" rx="0.181908" ry="0.0896503" transform="matrix(0.977389 -0.211448 0.476543 0.879151 25.4963 21.5218)" fill="#414141"/>
<ellipse id="Ellipse 480" cx="0.181908" cy="0.0896503" rx="0.181908" ry="0.0896503" transform="matrix(0.977389 -0.211448 0.476543 0.879151 26.8655 21.6659)" fill="#414141"/>
<ellipse id="Ellipse 481" cx="0.181908" cy="0.0896503" rx="0.181908" ry="0.0896503" transform="matrix(0.977389 -0.211448 0.476543 0.879151 27.8828 22.0769)" fill="#414141"/>
<ellipse id="Ellipse 482" cx="0.181908" cy="0.0896503" rx="0.181908" ry="0.0896503" transform="matrix(0.977389 -0.211448 0.476543 0.879151 28.6098 22.6241)" fill="#414141"/>
<ellipse id="Ellipse 483" cx="0.181908" cy="0.0896503" rx="0.181908" ry="0.0896503" transform="matrix(0.977389 -0.211448 0.476543 0.879151 28.8627 23.2738)" fill="#414141"/>
<ellipse id="Ellipse 484" cx="0.181908" cy="0.0896503" rx="0.181908" ry="0.0896503" transform="matrix(0.977389 -0.211448 0.476543 0.879151 28.5905 23.9931)" fill="#414141"/>
<ellipse id="Ellipse 485" cx="0.181908" cy="0.0896503" rx="0.181908" ry="0.0896503" transform="matrix(0.977389 -0.211448 0.476543 0.879151 27.8536 24.7103)" fill="#414141"/>
<ellipse id="Ellipse 486" cx="0.181908" cy="0.0896503" rx="0.181908" ry="0.0896503" transform="matrix(0.977389 -0.211448 0.476543 0.879151 26.8902 25.315)" fill="#414141"/>
<ellipse id="Ellipse 487" cx="0.181908" cy="0.0896503" rx="0.181908" ry="0.0896503" transform="matrix(0.977389 -0.211448 0.476543 0.879151 25.4501 25.7733)" fill="#414141"/>
<ellipse id="Ellipse 488" cx="0.181908" cy="0.0896503" rx="0.181908" ry="0.0896503" transform="matrix(0.977389 -0.211448 0.476543 0.879151 23.9092 26.1066)" fill="#414141"/>
<ellipse id="Ellipse 489" cx="0.181908" cy="0.0896503" rx="0.181908" ry="0.0896503" transform="matrix(0.977389 -0.211448 0.476543 0.879151 22.3979 26.4336)" fill="#414141"/>
<ellipse id="Ellipse 490" cx="0.181908" cy="0.0896503" rx="0.181908" ry="0.0896503" transform="matrix(0.977389 -0.211448 0.476543 0.879151 20.9767 26.6823)" fill="#414141"/>
<ellipse id="Ellipse 491" cx="0.181908" cy="0.0896503" rx="0.181908" ry="0.0896503" transform="matrix(0.977389 -0.211448 0.476543 0.879151 19.5009 26.7081)" fill="#414141"/>
<ellipse id="Ellipse 492" cx="0.181908" cy="0.0896503" rx="0.181908" ry="0.0896503" transform="matrix(0.977389 -0.211448 0.476543 0.879151 18.0653 26.5637)" fill="#414141"/>
<ellipse id="Ellipse 493" cx="0.181908" cy="0.0896503" rx="0.181908" ry="0.0896503" transform="matrix(0.977389 -0.211448 0.476543 0.879151 16.9958 26.1787)" fill="#414141"/>
</g>
<g id="Group 1000008427">
<g id="Union">
<path d="M22.4354 24.6651L22.6093 24.5813L22.6106 24.5788L22.357 24.0523L22.1749 24.14L22.363 24.5306C22.3598 24.5552 22.3502 24.5772 22.3358 24.5996C22.3213 24.6219 22.2998 24.64 22.2691 24.6548C22.2343 24.6715 22.2011 24.676 22.1744 24.6676C22.1477 24.6593 22.1255 24.6393 22.1104 24.608L21.9396 24.2534L21.7574 24.3411L21.9321 24.7036C21.9584 24.7583 21.9938 24.7951 22.0423 24.8121C22.0909 24.8292 22.1462 24.8237 22.2076 24.7941C22.2383 24.7793 22.2627 24.7618 22.2834 24.7422C22.3042 24.7225 22.3215 24.7008 22.3339 24.6794C22.3463 24.658 22.3559 24.6361 22.3627 24.6135C22.3695 24.591 22.3742 24.5695 22.3769 24.5489L22.3797 24.5495L22.4354 24.6651Z" fill="#414141"/>
<path d="M23.5613 23.4644L23.5919 23.4496L23.6198 23.5074L23.6321 23.5015L23.6042 23.4437L23.6329 23.4299L23.6291 23.4221L23.5575 23.4566L23.5613 23.4644Z" fill="#414141"/>
<path d="M23.7295 23.3949L23.752 23.4418L23.7643 23.4358L23.7327 23.3702L23.7225 23.3752L23.7103 23.4388L23.6509 23.4097L23.6406 23.4146L23.6722 23.4802L23.6845 23.4743L23.6619 23.4274L23.7115 23.4517L23.7176 23.4487L23.7295 23.3949Z" fill="#414141"/>
<path d="M22.7826 23.8838C22.795 23.8624 22.8122 23.8407 22.8302 23.8204L22.8307 23.8163C22.8487 23.7961 22.8656 23.7841 22.8922 23.7713L22.9675 23.9275L22.9532 23.9344C22.944 23.9311 22.9308 23.9298 22.9155 23.9295L22.8719 23.9332C22.8561 23.9369 22.8423 23.9397 22.8285 23.9425L22.822 23.9447C22.8118 23.948 22.8031 23.9509 22.7963 23.9542C22.784 23.9601 22.774 23.9707 22.7627 23.9839C22.7521 23.9986 22.7444 24.0139 22.7361 24.0333L22.9265 24.4285L22.7423 24.5172L22.4887 23.9907L22.6708 23.903L22.7227 24.0108C22.7298 23.994 22.7381 23.9746 22.7477 23.9526C22.7565 23.9291 22.7681 23.9062 22.7826 23.8838Z" fill="#414141"/>
<path d="M21.7703 25.1318C21.8272 25.0929 21.8945 25.0547 21.9681 25.0192L21.8853 24.8473C21.8076 24.8848 21.7412 24.9302 21.6871 24.9852C21.6329 25.0402 21.5899 25.0975 21.5596 25.1602C21.5285 25.2214 21.5115 25.2854 21.5069 25.3492C21.5049 25.4079 21.5147 25.4648 21.5375 25.5173L21.542 25.5267L21.5727 25.5119C21.5516 25.4682 21.5466 25.4263 21.5581 25.3823C21.5697 25.3382 21.5945 25.2955 21.6297 25.2535C21.6649 25.2115 21.7114 25.1718 21.7703 25.1318Z" fill="#414141"/>
<path fill-rule="evenodd" clip-rule="evenodd" d="M21.1551 25.2627C21.2146 25.2552 21.2771 25.2385 21.3359 25.2141L21.3331 25.2135C21.3543 25.2052 21.3891 25.1884 21.3891 25.1884C21.4559 25.1543 21.5169 25.1134 21.5685 25.0635C21.6234 25.0101 21.6664 24.9528 21.6995 24.8907C21.7333 24.8301 21.7504 24.7661 21.757 24.7013C21.7629 24.6349 21.7508 24.5734 21.723 24.5156C21.6944 24.4562 21.6537 24.4084 21.5989 24.3732C21.5442 24.338 21.4834 24.3114 21.4142 24.2986C21.3471 24.2847 21.2734 24.2836 21.1974 24.2933C21.1214 24.303 21.0465 24.3256 20.9749 24.3601C20.9033 24.3946 20.839 24.439 20.7841 24.4925C20.7291 24.5459 20.6841 24.6041 20.653 24.6653C20.6199 24.7274 20.6029 24.7915 20.5963 24.8563C20.5904 24.9226 20.6024 24.9842 20.6303 25.042C20.6589 25.1014 20.6996 25.1491 20.7543 25.1843C20.8091 25.2196 20.8711 25.2436 20.9383 25.2574C21.0055 25.2712 21.0791 25.2723 21.1551 25.2627ZM21.4973 25.0728C21.4662 25.1128 21.4236 25.1449 21.3663 25.1725L21.3648 25.1694C21.3075 25.197 21.2559 25.2103 21.2052 25.2097C21.1545 25.2091 21.1082 25.1967 21.0651 25.1752C21.0212 25.152 20.9832 25.1203 20.9476 25.0778C20.9119 25.0353 20.881 24.9867 20.8539 24.9304C20.8268 24.8742 20.8081 24.8197 20.797 24.7653C20.786 24.711 20.7848 24.6615 20.7941 24.6127C20.8041 24.5655 20.8233 24.5217 20.8545 24.4816C20.8856 24.4416 20.9282 24.4096 20.9855 24.3819C21.0428 24.3543 21.0943 24.341 21.145 24.3416C21.1957 24.3422 21.242 24.3546 21.2852 24.3761C21.3291 24.3993 21.3671 24.431 21.4027 24.4735C21.4383 24.516 21.47 24.5662 21.4971 24.6224C21.525 24.6802 21.5437 24.7348 21.5547 24.7891C21.5658 24.8435 21.5677 24.8945 21.5577 24.9417C21.5484 24.9904 21.5284 25.0328 21.4973 25.0728Z" fill="#414141"/>
<path fill-rule="evenodd" clip-rule="evenodd" d="M23.6603 23.9422C23.685 23.9149 23.7041 23.8864 23.7142 23.8604L23.7175 23.8568L23.7272 23.856C23.7301 23.9143 23.7149 23.9717 23.6808 24.0266C23.6468 24.0815 23.5888 24.1287 23.5111 24.1661C23.4599 24.1908 23.4119 24.2062 23.3642 24.2119C23.3165 24.2175 23.2727 24.2155 23.232 24.2043C23.1913 24.1932 23.1552 24.1759 23.1231 24.151C23.0909 24.126 23.0654 24.094 23.0473 24.0565C23.0262 24.0128 23.0177 23.9688 23.0188 23.924C23.0206 23.8808 23.0322 23.8367 23.0508 23.7969C23.0687 23.7556 23.0965 23.7191 23.1307 23.6853C23.1648 23.6515 23.2048 23.6246 23.2478 23.6039C23.2928 23.5822 23.3367 23.5687 23.3803 23.565C23.4219 23.5623 23.4634 23.5596 23.4972 23.5722C23.5923 23.6073 23.6199 23.6594 23.6199 23.6594L23.2725 24.0058C23.2976 24.0265 23.3224 24.0414 23.3512 24.0488C23.3827 24.0567 23.414 24.0589 23.4485 24.0519C23.4829 24.0449 23.5179 24.0339 23.5527 24.0171C23.5977 23.9954 23.6336 23.9704 23.6603 23.9422ZM23.1685 23.8057C23.1708 23.8315 23.178 23.8569 23.188 23.8829L23.1986 23.9048C23.2159 23.9407 23.2335 23.9668 23.2566 23.9885L23.4625 23.7776L23.446 23.7432C23.4204 23.6901 23.3851 23.6378 23.3534 23.6242C23.3216 23.6106 23.2869 23.6119 23.2501 23.6297C23.2276 23.6405 23.2094 23.6551 23.1955 23.6733C23.1816 23.6916 23.1733 23.711 23.1693 23.7341C23.1653 23.7572 23.1641 23.7808 23.1685 23.8057Z" fill="#414141"/>
</g>
<path id="Vector_13" d="M16.0236 15.8617L16.3837 8.21996C16.4371 7.49979 17.3279 5.90743 20.4646 5.29929C20.5047 5.21927 20.6087 5.05124 20.7047 5.01923L21.7049 4.53912C21.7716 4.51245 21.921 4.4591 21.985 4.4591C22.5585 4.41909 23.8014 4.53912 24.1855 5.3393C25.5325 5.59269 28.2184 6.6356 28.1864 8.78009L28.3064 14.1813M16.0236 15.8617L10.1823 18.4223C8.70996 19.3185 8.3152 20.4227 8.30187 20.8628L8.02181 23.9035C7.63772 26.6242 12.4228 28.1845 14.8634 28.6246C20.1446 29.3928 23.7321 28.8647 24.8656 28.5046C30.0828 27.3203 33.2542 26.1707 34.1878 25.7439C36.6523 24.6877 37.0818 22.8766 36.9884 22.1031L36.7083 18.9024C36.1002 15.7337 30.8537 14.4347 28.3064 14.1813M16.0236 15.8617C16.7438 14.5281 19.7845 12.2179 26.0259 14.0743M16.0236 15.8617C17.544 15.0882 22.129 13.6692 28.3064 14.1813M8.0218 24.3436C7.92844 23.7035 8.83798 22.0791 13.223 20.7028L18.7442 18.7424C20.7047 18.2222 25.6418 17.4541 29.7067 18.5423C31.1871 18.9157 34.4678 19.9026 35.7481 20.8628C36.2949 21.383 37.1804 22.7673 36.3483 24.1436M10.7824 27.1043C10.1823 26.8242 9.03803 25.968 9.26208 24.7837C9.4888 24.3036 10.3583 23.2154 12.0227 22.7033L18.5042 20.3427C20.438 19.7826 25.4178 18.9024 29.8668 19.8626C31.7605 20.196 35.5721 21.383 35.6681 23.4634C35.6281 24.1703 34.6599 25.8 31.1071 26.6642C29.24 27.1976 25.4338 28.2725 25.1457 28.3045C24.1721 28.5313 21.6249 28.9607 19.2244 28.8647C17.5573 28.8647 13.5351 28.5126 10.7824 27.1043Z" stroke="black" stroke-width="0.4"/>
</g>
</g>
<line id="Line 70" x1="20.6286" y1="1" x2="20.6286" y2="5.14286" stroke="black" stroke-width="0.4"/>
<line id="Line 71" x1="24.081" y1="1" x2="24.081" y2="5.14286" stroke="black" stroke-width="0.4"/>
</g>
</g>
</svg>
