<svg width="45" height="46" viewBox="0 0 45 46" fill="none" xmlns="http://www.w3.org/2000/svg">
<g id="Frame 1000008577" clip-path="url(#clip0_30653_558)">
<g id="Group 1000008431">
<g id="Group 1000008429">
<ellipse id="Ellipse 446" cx="0.385137" cy="0.189809" rx="0.385137" ry="0.189809" transform="matrix(0.977389 -0.211448 0.476543 0.879151 19.3594 29.676)" fill="#414141"/>
<ellipse id="Ellipse 447" cx="0.385137" cy="0.189809" rx="0.385137" ry="0.189809" transform="matrix(0.977389 -0.211448 0.476543 0.879151 22.5115 29.0252)" fill="#414141"/>
<ellipse id="Ellipse 454" cx="0.385137" cy="0.189809" rx="0.385137" ry="0.189809" transform="matrix(0.977389 -0.211448 0.476543 0.879151 16.2375 30.3825)" fill="#414141"/>
<ellipse id="Ellipse 448" cx="0.385137" cy="0.189809" rx="0.385137" ry="0.189809" transform="matrix(0.977389 -0.211448 0.476543 0.879151 25.7237 28.4856)" fill="#414141"/>
<ellipse id="Ellipse 453" cx="0.385137" cy="0.189809" rx="0.385137" ry="0.189809" transform="matrix(0.977389 -0.211448 0.476543 0.879151 13.2515 31.3393)" fill="#414141"/>
<ellipse id="Ellipse 455" cx="0.385137" cy="0.189809" rx="0.385137" ry="0.189809" transform="matrix(0.977389 -0.211448 0.476543 0.879151 11.1012 32.6744)" fill="#414141"/>
<ellipse id="Ellipse 456" cx="0.385137" cy="0.189809" rx="0.385137" ry="0.189809" transform="matrix(0.977389 -0.211448 0.476543 0.879151 9.58867 34.1514)" fill="#414141"/>
<ellipse id="Ellipse 457" cx="0.385137" cy="0.189809" rx="0.385137" ry="0.189809" transform="matrix(0.977389 -0.211448 0.476543 0.879151 9.02736 35.7022)" fill="#414141"/>
<ellipse id="Ellipse 458" cx="0.385137" cy="0.189809" rx="0.385137" ry="0.189809" transform="matrix(0.977389 -0.211448 0.476543 0.879151 9.59294 37.1335)" fill="#414141"/>
<ellipse id="Ellipse 449" cx="0.385137" cy="0.189809" rx="0.385137" ry="0.189809" transform="matrix(0.977389 -0.211448 0.476543 0.879151 28.9112 28.4174)" fill="#414141"/>
<ellipse id="Ellipse 450" cx="0.385137" cy="0.189809" rx="0.385137" ry="0.189809" transform="matrix(0.977389 -0.211448 0.476543 0.879151 31.8104 28.7225)" fill="#414141"/>
<ellipse id="Ellipse 451" cx="0.385137" cy="0.189809" rx="0.385137" ry="0.189809" transform="matrix(0.977389 -0.211448 0.476543 0.879151 33.9642 29.5927)" fill="#414141"/>
<ellipse id="Ellipse 452" cx="0.385137" cy="0.189809" rx="0.385137" ry="0.189809" transform="matrix(0.977389 -0.211448 0.476543 0.879151 35.5034 30.7512)" fill="#414141"/>
<ellipse id="Ellipse 459" cx="0.385137" cy="0.189809" rx="0.385137" ry="0.189809" transform="matrix(0.977389 -0.211448 0.476543 0.879151 36.0388 32.1269)" fill="#414141"/>
<ellipse id="Ellipse 460" cx="0.385137" cy="0.189809" rx="0.385137" ry="0.189809" transform="matrix(0.977389 -0.211448 0.476543 0.879151 35.4624 33.6498)" fill="#414141"/>
<ellipse id="Ellipse 461" cx="0.385137" cy="0.189809" rx="0.385137" ry="0.189809" transform="matrix(0.977389 -0.211448 0.476543 0.879151 33.9023 35.1681)" fill="#414141"/>
<ellipse id="Ellipse 462" cx="0.385137" cy="0.189809" rx="0.385137" ry="0.189809" transform="matrix(0.977389 -0.211448 0.476543 0.879151 31.8625 36.4485)" fill="#414141"/>
<ellipse id="Ellipse 463" cx="0.385137" cy="0.189809" rx="0.385137" ry="0.189809" transform="matrix(0.977389 -0.211448 0.476543 0.879151 28.8135 37.4188)" fill="#414141"/>
<ellipse id="Ellipse 464" cx="0.385137" cy="0.189809" rx="0.385137" ry="0.189809" transform="matrix(0.977389 -0.211448 0.476543 0.879151 25.5186 38.1938)" fill="#414141"/>
<ellipse id="Ellipse 465" cx="0.385137" cy="0.189809" rx="0.385137" ry="0.189809" transform="matrix(0.977389 -0.211448 0.476543 0.879151 22.3515 38.8168)" fill="#414141"/>
<ellipse id="Ellipse 466" cx="0.385137" cy="0.189809" rx="0.385137" ry="0.189809" transform="matrix(0.977389 -0.211448 0.476543 0.879151 19.3427 39.3434)" fill="#414141"/>
<ellipse id="Ellipse 467" cx="0.385137" cy="0.189809" rx="0.385137" ry="0.189809" transform="matrix(0.977389 -0.211448 0.476543 0.879151 16.2178 39.3979)" fill="#414141"/>
<ellipse id="Ellipse 468" cx="0.385137" cy="0.189809" rx="0.385137" ry="0.189809" transform="matrix(0.977389 -0.211448 0.476543 0.879151 13.1783 39.0922)" fill="#414141"/>
<ellipse id="Ellipse 469" cx="0.385137" cy="0.189809" rx="0.385137" ry="0.189809" transform="matrix(0.977389 -0.211448 0.476543 0.879151 10.9138 38.2771)" fill="#414141"/>
</g>
<g id="Group 1000008430">
<ellipse id="Ellipse 470" cx="0.263453" cy="0.129838" rx="0.263453" ry="0.129838" transform="matrix(0.977389 -0.211448 0.476543 0.879151 20.8158 31.1011)" fill="#414141"/>
<ellipse id="Ellipse 471" cx="0.263453" cy="0.129838" rx="0.263453" ry="0.129838" transform="matrix(0.977389 -0.211448 0.476543 0.879151 22.9617 30.6368)" fill="#414141"/>
<ellipse id="Ellipse 472" cx="0.263453" cy="0.129838" rx="0.263453" ry="0.129838" transform="matrix(0.977389 -0.211448 0.476543 0.879151 18.67 31.5653)" fill="#414141"/>
<ellipse id="Ellipse 473" cx="0.263453" cy="0.129838" rx="0.263453" ry="0.129838" transform="matrix(0.977389 -0.211448 0.476543 0.879151 25.159 30.2677)" fill="#414141"/>
<ellipse id="Ellipse 474" cx="0.263453" cy="0.129838" rx="0.263453" ry="0.129838" transform="matrix(0.977389 -0.211448 0.476543 0.879151 16.6273 32.2198)" fill="#414141"/>
<ellipse id="Ellipse 475" cx="0.263453" cy="0.129838" rx="0.263453" ry="0.129838" transform="matrix(0.977389 -0.211448 0.476543 0.879151 15.1565 33.1331)" fill="#414141"/>
<ellipse id="Ellipse 476" cx="0.263453" cy="0.129838" rx="0.263453" ry="0.129838" transform="matrix(0.977389 -0.211448 0.476543 0.879151 14.122 34.1434)" fill="#414141"/>
<ellipse id="Ellipse 477" cx="0.263453" cy="0.129838" rx="0.263453" ry="0.129838" transform="matrix(0.977389 -0.211448 0.476543 0.879151 13.7378 35.2043)" fill="#414141"/>
<ellipse id="Ellipse 478" cx="0.263453" cy="0.129838" rx="0.263453" ry="0.129838" transform="matrix(0.977389 -0.211448 0.476543 0.879151 14.1249 36.1833)" fill="#414141"/>
<ellipse id="Ellipse 479" cx="0.263453" cy="0.129838" rx="0.263453" ry="0.129838" transform="matrix(0.977389 -0.211448 0.476543 0.879151 27.3395 30.2212)" fill="#414141"/>
<ellipse id="Ellipse 480" cx="0.263453" cy="0.129838" rx="0.263453" ry="0.129838" transform="matrix(0.977389 -0.211448 0.476543 0.879151 29.3225 30.4298)" fill="#414141"/>
<ellipse id="Ellipse 481" cx="0.263453" cy="0.129838" rx="0.263453" ry="0.129838" transform="matrix(0.977389 -0.211448 0.476543 0.879151 30.7958 31.0251)" fill="#414141"/>
<ellipse id="Ellipse 482" cx="0.263453" cy="0.129838" rx="0.263453" ry="0.129838" transform="matrix(0.977389 -0.211448 0.476543 0.879151 31.8487 31.8176)" fill="#414141"/>
<ellipse id="Ellipse 483" cx="0.263453" cy="0.129838" rx="0.263453" ry="0.129838" transform="matrix(0.977389 -0.211448 0.476543 0.879151 32.215 32.7586)" fill="#414141"/>
<ellipse id="Ellipse 484" cx="0.263453" cy="0.129838" rx="0.263453" ry="0.129838" transform="matrix(0.977389 -0.211448 0.476543 0.879151 31.8207 33.8004)" fill="#414141"/>
<ellipse id="Ellipse 485" cx="0.263453" cy="0.129838" rx="0.263453" ry="0.129838" transform="matrix(0.977389 -0.211448 0.476543 0.879151 30.7535 34.839)" fill="#414141"/>
<ellipse id="Ellipse 486" cx="0.263453" cy="0.129838" rx="0.263453" ry="0.129838" transform="matrix(0.977389 -0.211448 0.476543 0.879151 29.3582 35.7147)" fill="#414141"/>
<ellipse id="Ellipse 487" cx="0.263453" cy="0.129838" rx="0.263453" ry="0.129838" transform="matrix(0.977389 -0.211448 0.476543 0.879151 27.2725 36.3785)" fill="#414141"/>
<ellipse id="Ellipse 488" cx="0.263453" cy="0.129838" rx="0.263453" ry="0.129838" transform="matrix(0.977389 -0.211448 0.476543 0.879151 25.041 36.8613)" fill="#414141"/>
<ellipse id="Ellipse 489" cx="0.263453" cy="0.129838" rx="0.263453" ry="0.129838" transform="matrix(0.977389 -0.211448 0.476543 0.879151 22.8522 37.3348)" fill="#414141"/>
<ellipse id="Ellipse 490" cx="0.263453" cy="0.129838" rx="0.263453" ry="0.129838" transform="matrix(0.977389 -0.211448 0.476543 0.879151 20.7939 37.6951)" fill="#414141"/>
<ellipse id="Ellipse 491" cx="0.263453" cy="0.129838" rx="0.263453" ry="0.129838" transform="matrix(0.977389 -0.211448 0.476543 0.879151 18.6564 37.7324)" fill="#414141"/>
<ellipse id="Ellipse 492" cx="0.263453" cy="0.129838" rx="0.263453" ry="0.129838" transform="matrix(0.977389 -0.211448 0.476543 0.879151 16.5773 37.5232)" fill="#414141"/>
<ellipse id="Ellipse 493" cx="0.263453" cy="0.129838" rx="0.263453" ry="0.129838" transform="matrix(0.977389 -0.211448 0.476543 0.879151 15.0284 36.9656)" fill="#414141"/>
</g>
<g id="Group 1000008427">
<g id="Union">
<path d="M22.9065 34.7736L23.1584 34.6522L23.1602 34.6485L22.7929 33.886L22.5291 34.0131L22.8016 34.5788C22.7969 34.6145 22.783 34.6463 22.7621 34.6786C22.7412 34.711 22.71 34.7372 22.6656 34.7586C22.6152 34.7829 22.5671 34.7893 22.5285 34.7773C22.4898 34.7652 22.4576 34.7362 22.4358 34.6909L22.1883 34.1773L21.9246 34.3043L22.1775 34.8293C22.2156 34.9085 22.2669 34.9618 22.3372 34.9865C22.4075 35.0112 22.4876 35.0032 22.5766 34.9604C22.621 34.939 22.6563 34.9136 22.6864 34.8852C22.7165 34.8567 22.7415 34.8252 22.7594 34.7942C22.7774 34.7633 22.7912 34.7315 22.8011 34.6989C22.8109 34.6663 22.8178 34.6351 22.8217 34.6053L22.8258 34.6061L22.9065 34.7736Z" fill="#414141"/>
<path d="M24.537 33.0346L24.5814 33.0132L24.6218 33.0969L24.6395 33.0883L24.5992 33.0046L24.6407 32.9846L24.6353 32.9733L24.5315 33.0233L24.537 33.0346Z" fill="#414141"/>
<path d="M24.7806 32.934L24.8133 33.0018L24.8311 32.9933L24.7853 32.8982L24.7705 32.9054L24.7528 32.9975L24.6668 32.9553L24.6519 32.9625L24.6977 33.0575L24.7155 33.049L24.6828 32.9811L24.7545 33.0162L24.7634 33.0119L24.7806 32.934Z" fill="#414141"/>
<path d="M23.4092 33.642C23.4272 33.6111 23.4522 33.5795 23.4782 33.5503L23.479 33.5443C23.5051 33.515 23.5296 33.4976 23.5681 33.4791L23.6771 33.7054L23.6563 33.7153C23.6431 33.7106 23.6239 33.7087 23.6018 33.7082L23.5386 33.7135C23.5157 33.719 23.4957 33.723 23.4758 33.7271L23.4663 33.7302C23.4516 33.7351 23.439 33.7392 23.4291 33.744C23.4114 33.7525 23.3968 33.7679 23.3805 33.7869C23.3652 33.8082 23.3539 33.8304 23.3419 33.8585L23.6177 34.4309L23.351 34.5594L22.9836 33.7969L23.2474 33.6698L23.3226 33.826C23.3327 33.8016 23.3448 33.7735 23.3587 33.7417C23.3715 33.7076 23.3883 33.6744 23.4092 33.642Z" fill="#414141"/>
<path d="M21.9432 35.4495C22.0255 35.3931 22.123 35.3378 22.2297 35.2864L22.1098 35.0375C21.9972 35.0918 21.9011 35.1576 21.8226 35.2372C21.7441 35.3168 21.6819 35.3998 21.638 35.4906C21.593 35.5792 21.5683 35.6719 21.5617 35.7643C21.5589 35.8493 21.573 35.9317 21.606 36.0078L21.6126 36.0214L21.657 36C21.6265 35.9366 21.6192 35.876 21.6359 35.8122C21.6527 35.7484 21.6886 35.6865 21.7396 35.6257C21.7906 35.5649 21.8579 35.5074 21.9432 35.4495Z" fill="#414141"/>
<path fill-rule="evenodd" clip-rule="evenodd" d="M21.0522 35.639C21.1383 35.6282 21.2289 35.6041 21.3141 35.5686L21.31 35.5678C21.3408 35.5558 21.3911 35.5315 21.3911 35.5315C21.4879 35.4821 21.5761 35.4229 21.6509 35.3506C21.7304 35.2732 21.7927 35.1903 21.8406 35.1003C21.8897 35.0125 21.9144 34.9198 21.9239 34.826C21.9324 34.7299 21.915 34.6407 21.8747 34.557C21.8332 34.471 21.7743 34.4018 21.695 34.3508C21.6157 34.2998 21.5277 34.2613 21.4275 34.2427C21.3302 34.2227 21.2236 34.2211 21.1135 34.2351C21.0034 34.2491 20.895 34.2818 20.7913 34.3318C20.6875 34.3818 20.5944 34.4462 20.5148 34.5235C20.4353 34.6009 20.37 34.6853 20.3251 34.7739C20.2771 34.8638 20.2525 34.9566 20.2429 35.0504C20.2344 35.1465 20.2518 35.2357 20.2921 35.3194C20.3336 35.4054 20.3925 35.4746 20.4718 35.5256C20.5511 35.5766 20.6409 35.6114 20.7382 35.6314C20.8355 35.6514 20.9422 35.653 21.0522 35.639ZM21.5478 35.364C21.5027 35.422 21.4411 35.4684 21.3581 35.5084L21.3559 35.5039C21.2729 35.5438 21.1982 35.5631 21.1248 35.5622C21.0514 35.5614 20.9843 35.5435 20.9218 35.5123C20.8582 35.4788 20.8032 35.4328 20.7516 35.3712C20.7001 35.3097 20.6552 35.2393 20.6159 35.1578C20.5767 35.0764 20.5496 34.9974 20.5336 34.9187C20.5176 34.84 20.5159 34.7683 20.5294 34.6977C20.5439 34.6294 20.5717 34.5658 20.6168 34.5078C20.6619 34.4499 20.7235 34.4035 20.8065 34.3635C20.8895 34.3235 20.9642 34.3042 21.0376 34.3051C21.1111 34.306 21.1781 34.3238 21.2406 34.3551C21.3042 34.3885 21.3592 34.4345 21.4108 34.4961C21.4624 34.5577 21.5083 34.6303 21.5476 34.7118C21.5879 34.7955 21.615 34.8744 21.631 34.9532C21.647 35.0319 21.6498 35.1058 21.6352 35.1741C21.6218 35.2447 21.5929 35.3061 21.5478 35.364Z" fill="#414141"/>
<path fill-rule="evenodd" clip-rule="evenodd" d="M24.6805 33.7265C24.7162 33.687 24.7438 33.6458 24.7585 33.6081L24.7633 33.603L24.7774 33.6018C24.7815 33.6862 24.7595 33.7693 24.7102 33.8488C24.6609 33.9284 24.5769 33.9967 24.4643 34.0509C24.3902 34.0866 24.3207 34.109 24.2516 34.1172C24.1825 34.1254 24.119 34.1225 24.0601 34.1063C24.0012 34.0901 23.949 34.065 23.9024 34.0289C23.8558 33.9928 23.8188 33.9465 23.7927 33.8922C23.7621 33.8289 23.7497 33.7651 23.7513 33.7003C23.754 33.6376 23.7707 33.5738 23.7977 33.5162C23.8237 33.4563 23.8639 33.4035 23.9134 33.3545C23.9628 33.3056 24.0207 33.2666 24.0829 33.2366C24.1481 33.2052 24.2118 33.1857 24.2749 33.1804C24.3351 33.1765 24.3953 33.1725 24.4443 33.1908C24.5819 33.2416 24.6219 33.3171 24.6219 33.3171L24.1188 33.8187C24.1551 33.8486 24.1911 33.8703 24.2327 33.8809C24.2784 33.8924 24.3238 33.8956 24.3737 33.8855C24.4236 33.8754 24.4743 33.8594 24.5246 33.8351C24.5898 33.8037 24.6418 33.7675 24.6805 33.7265ZM23.9682 33.5289C23.9716 33.5663 23.982 33.6031 23.9965 33.6407L24.0117 33.6724C24.0368 33.7244 24.0624 33.7623 24.0957 33.7936L24.394 33.4882L24.37 33.4384C24.333 33.3615 24.2819 33.2857 24.2359 33.2661C24.1899 33.2464 24.1397 33.2483 24.0864 33.274C24.0538 33.2897 24.0274 33.3108 24.0073 33.3372C23.9871 33.3636 23.9751 33.3917 23.9693 33.4252C23.9635 33.4586 23.9618 33.4929 23.9682 33.5289Z" fill="#414141"/>
</g>
<path id="Vector" d="M13.6204 22.0238L14.1419 10.9565C14.2192 9.91348 15.5094 7.6073 20.0522 6.72655C20.1102 6.61066 20.2608 6.36729 20.3999 6.32094L21.8485 5.62561C21.9451 5.58698 22.1614 5.50972 22.2541 5.50972C23.0847 5.45177 24.8848 5.62561 25.4411 6.78449C27.3918 7.15147 31.2818 8.66188 31.2355 11.7677L31.4093 19.5902M13.6204 22.0238L5.16056 25.7323C3.02822 27.0302 2.4565 28.6295 2.43718 29.2669L2.03158 33.6706C1.47532 37.6108 8.40545 39.8706 11.94 40.508C19.5887 41.6206 24.7844 40.8557 26.4261 40.3342C33.982 38.6191 38.5751 36.9541 39.9271 36.336C43.4965 34.8063 44.1184 32.1834 43.9832 31.0631L43.5776 26.4276C42.6968 21.8384 35.0984 19.9571 31.4093 19.5902M13.6204 22.0238C14.6634 20.0924 19.0672 16.7465 28.1065 19.4352M13.6204 22.0238C15.8223 20.9036 22.4627 18.8485 31.4093 19.5902M2.03157 34.308C1.89637 33.3809 3.21363 31.0284 9.56432 29.0351L17.5606 26.1958C20.3999 25.4425 27.5502 24.33 33.4374 25.9061C35.5813 26.4469 40.3327 27.8762 42.1869 29.2669C42.9788 30.0201 44.2613 32.025 43.0561 34.0183M6.02972 38.3062C5.16056 37.9005 3.50336 36.6605 3.82784 34.9454C4.1562 34.2501 5.41552 32.674 7.826 31.9323L17.213 28.5136C20.0136 27.7024 27.2257 26.4276 33.6691 27.8182C36.4118 28.3011 41.932 30.0201 42.071 33.0332C42.0131 34.0569 40.6108 36.4172 35.4654 37.6688C32.7613 38.4414 27.2489 39.9981 26.8317 40.0445C25.4217 40.3728 21.7326 40.9948 18.256 40.8557C15.8416 40.8557 10.0163 40.3458 6.02972 38.3062Z" stroke="black" stroke-width="0.5"/>
</g>
</g>
<line id="Line 70" x1="20.25" y1="0.5" x2="20.25" y2="6.5" stroke="black" stroke-width="0.5"/>
<line id="Line 71" x1="25.25" y1="0.5" x2="25.25" y2="6.5" stroke="black" stroke-width="0.5"/>
</g>
<defs>
<clipPath id="clip0_30653_558">
<rect width="45" height="45" fill="white" transform="translate(0 0.5)"/>
</clipPath>
</defs>
</svg>
