<svg width="45" height="46" viewBox="0 0 45 46" fill="none" xmlns="http://www.w3.org/2000/svg">
<g id="fi_13090346">
<path id="Vector" d="M36.504 7.47201C34.2946 4.44963 31.3439 2.78525 28.1955 2.78525C28.1573 2.78525 28.1193 2.78665 28.0811 2.78709H20.6826C17.5343 2.78709 14.5835 4.45113 12.3741 7.47263C10.195 10.4527 8.99491 14.4076 8.99491 18.6089C8.99491 26.4472 13.2126 33.0078 18.8034 34.2265L5.32855 42.3936C5.16024 42.4956 5.08026 42.6972 5.13282 42.8868C5.18537 43.0765 5.35773 43.2081 5.55452 43.2089C6.71432 43.2136 7.88669 43.2148 9.04773 43.2148C9.69144 43.2148 10.3318 43.2144 10.9644 43.2141C11.8655 43.2134 12.7666 43.2128 13.6676 43.2134H13.6679C13.7482 43.2134 13.827 43.1915 13.8957 43.1498L28.2717 34.4365C31.3914 34.4099 34.3124 32.7488 36.5041 29.751C38.6832 26.7701 39.8833 22.8139 39.8833 18.6114C39.8833 14.409 38.6831 10.4529 36.504 7.47201ZM9.87381 18.6089C9.87381 10.3694 14.7227 3.666 20.6826 3.666H24.3275C22.6714 4.44779 21.1566 5.73512 19.8868 7.47201C17.7077 10.4529 16.5076 14.409 16.5076 18.6115C16.5076 22.814 17.7077 26.7702 19.8868 29.7511C21.1414 31.4672 22.6352 32.7449 24.2683 33.5293H20.0926C14.3612 33.1017 9.87381 26.5521 9.87381 18.6089ZM13.5452 42.3345C12.6853 42.3344 11.8245 42.3347 10.9638 42.3351C9.7026 42.336 8.41105 42.3367 7.12187 42.3344L20.1993 34.4082H26.6226L13.5452 42.3345ZM28.1955 33.5589C22.2355 33.5589 17.3866 26.8536 17.3866 18.6115C17.3866 10.3695 22.2354 3.66415 28.1955 3.66415C34.1555 3.66415 39.0043 10.3695 39.0043 18.6115C39.0043 26.8536 34.1554 33.5589 28.1955 33.5589ZM28.5352 9.56996C24.8283 9.56996 21.8126 13.6228 21.8126 18.6043C21.8126 23.5859 24.8283 27.6386 28.5352 27.6386C32.2421 27.6386 35.2578 23.5859 35.2578 18.6043C35.2578 13.6228 32.2421 9.56996 28.5352 9.56996ZM22.6915 18.6043C22.6915 15.3826 24.0371 12.5914 25.9851 11.2674C27.9964 12.6328 29.2828 15.4752 29.2828 18.6043C29.2828 21.7335 27.9964 24.5759 25.9851 25.9412C24.0371 24.6172 22.6915 21.826 22.6915 18.6043ZM28.5352 26.7597C27.944 26.7597 27.3734 26.6361 26.8351 26.4073C28.876 24.8028 30.1617 21.8339 30.1617 18.6043C30.1617 15.3748 28.8761 12.4058 26.8351 10.8012C27.3733 10.5724 27.944 10.4489 28.5352 10.4489C31.7574 10.4489 34.3789 14.1074 34.3789 18.6043C34.3789 23.1013 31.7574 26.7597 28.5352 26.7597Z" fill="black"/>
</g>
</svg>
