<svg xmlns="http://www.w3.org/2000/svg" width="208" height="34" viewBox="0 0 208 34" fill="none">
  <path fill-rule="evenodd" clip-rule="evenodd" d="M17.5705 33.5099C28.8409 33.5099 34.1071 31.4449 34.1071 24.064V22.3888C34.1071 17.1724 30.8395 15.0078 20.6224 12.9428C17.5705 12.2794 16.4094 11.6823 16.4094 9.79143V8.58892C16.4219 8.39591 16.4729 8.20735 16.5593 8.03432C16.6458 7.86128 16.7659 7.70727 16.9127 7.58133C17.0595 7.45539 17.23 7.36007 17.4142 7.30096C17.5983 7.24185 17.7925 7.22015 17.9851 7.23714C19.0467 7.23714 19.5691 7.86742 19.5691 8.58892V12.2794H33.5846V10.0236C33.5846 3.91158 30.3171 0.668945 17.2968 0.668945C7.76794 0.668945 0.710449 3.54668 0.710449 9.94071V11.11C0.710449 16.6831 3.55501 19.2042 14.1951 21.4516C14.4344 21.5028 14.6626 21.5508 14.8799 21.5965C17.7281 22.1956 18.7232 22.4049 18.7232 24.2464V25.3826C18.7232 26.5519 18.4081 26.9998 17.1475 26.9998C15.6713 26.9998 15.5635 26.187 15.5635 25.2914V22.2312H0.710449V23.7074C0.710449 31.2625 5.68635 33.5099 17.5705 33.5099ZM60.4213 0.669026V33.8417H62.0799V0.669026H60.4213ZM81.2952 13.6063H83.7334V11.815C83.7334 9.32703 82.5724 8.19087 80.101 8.19087H74.8846C72.3967 8.19087 71.2522 9.35191 71.2522 11.815V14.021C71.2522 16.6084 72.9108 17.2553 74.9924 17.7197L79.9683 18.8393C81.0298 19.0964 81.4943 19.4281 81.4943 20.5477V22.7205C81.4943 23.7323 81.1128 24.1221 80.0678 24.1221H75.0671C74.0553 24.1221 73.6904 23.7323 73.6904 22.7205V20.697H71.2024V22.6956C71.2024 25.1836 72.3718 26.3197 74.8348 26.3197H80.3913C82.8792 26.3197 84.0237 25.1587 84.0237 22.6956V20.2077C84.0237 17.6202 82.3651 16.9733 80.2835 16.5006L75.3076 15.3645C74.246 15.1323 73.7816 14.7922 73.7816 13.7058V11.7901C73.7816 10.7783 74.1714 10.3886 75.208 10.3886H79.902C80.9386 10.3886 81.3284 10.7783 81.3284 11.7901L81.2952 13.6063ZM88.021 26.3197H90.509V18.1841H98.8021V26.3197H101.29V8.19087H98.8021V15.9118H90.509V8.19087H88.021V26.3197ZM118.913 22.6956C118.913 25.1587 117.769 26.3197 115.281 26.3197H109.235C106.764 26.3197 105.603 25.1836 105.603 22.6956V11.815C105.603 9.35191 106.747 8.19087 109.235 8.19087H115.281C117.744 8.19087 118.913 9.32703 118.913 11.815V22.6956ZM109.517 10.4715C108.48 10.4715 108.09 10.853 108.09 11.8896V22.621C108.09 23.6576 108.48 24.0391 109.517 24.0391H114.99C116.035 24.0391 116.425 23.6576 116.425 22.621V11.8896C116.425 10.853 116.035 10.4715 114.99 10.4715H109.517ZM138.858 26.3197L143.66 8.19087H141.089L137.548 23.1352L133.526 8.20745H131.353L127.331 23.1352L123.806 8.20745H121.161L125.937 26.3197H128.666L132.456 12.2214L136.246 26.3197H138.858ZM158.795 22.6956C158.795 25.0758 157.651 26.3197 155.163 26.3197H149.556C147.093 26.3197 145.924 25.0758 145.924 22.6956V11.815C145.924 9.35191 147.068 8.19087 149.556 8.19087H155.163C157.626 8.19087 158.795 9.32703 158.795 11.815V14.1205H156.307V11.8896C156.307 10.853 155.917 10.4715 154.872 10.4715H149.838C148.802 10.4715 148.412 10.853 148.412 11.8896V22.621C148.412 23.6576 148.802 24.0391 149.838 24.0391H154.872C155.917 24.0391 156.307 23.6576 156.307 22.621V20.3901H158.795V22.6956ZM172.238 21.4019L173.897 26.3778H176.592L170.322 8.19087H167.072L160.769 26.3197H163.364L165.023 21.3438L172.238 21.4019ZM171.483 19.1213H165.803L168.631 10.6208L171.483 19.1213ZM191.196 13.6063H188.758L188.733 11.7901C188.733 10.7783 188.343 10.3886 187.307 10.3886H182.588C181.551 10.3886 181.162 10.7783 181.162 11.7901V13.7058C181.162 14.7922 181.634 15.1323 182.696 15.3645L187.672 16.5006C189.745 16.9733 191.404 17.6202 191.404 20.2077V22.6956C191.404 25.1587 190.259 26.3197 187.771 26.3197H182.223C179.752 26.3197 178.591 25.1836 178.591 22.6956V20.697H181.079V22.7205C181.079 23.7323 181.468 24.1221 182.48 24.1221H187.514C188.551 24.1221 188.941 23.7323 188.941 22.7205V20.5477C188.941 19.4281 188.476 19.0964 187.406 18.8393L182.43 17.7197C180.357 17.2553 178.699 16.6084 178.699 14.021V11.815C178.699 9.35191 179.843 8.19087 182.331 8.19087H187.564C190.027 8.19087 191.196 9.32703 191.196 11.815V13.6063ZM195.484 8.19087V26.3197H207.211V24.0391H197.972V18.1841H205.676V15.9118H197.972V10.4715H207.211V8.19087H195.484ZM49.9719 1.44044H36.7775V33.0208H49.9719V1.44044Z" fill="black"/>
</svg>