 <svg xmlns="http://www.w3.org/2000/svg"
                                                                            width="47" height="42" viewBox="0 0 47 42"
                                                                            fill="none">
                                                                            <g clip-path="url(#clip0_8481_12864)">
                                                                                <path
                                                                                    d="M15.9932 10.6268C16.4626 10.6268 16.8431 10.2453 16.8431 9.7746C16.8431 9.30392 16.4626 8.92236 15.9932 8.92236C15.5237 8.92236 15.1432 9.30392 15.1432 9.7746C15.1432 10.2453 15.5237 10.6268 15.9932 10.6268Z"
                                                                                    fill="black" />
                                                                                <path
                                                                                    d="M15.4112 9.68228C15.5903 9.68228 15.7355 9.53671 15.7355 9.35713C15.7355 9.17756 15.5903 9.03198 15.4112 9.03198C15.2321 9.03198 15.0869 9.17756 15.0869 9.35713C15.0869 9.53671 15.2321 9.68228 15.4112 9.68228Z"
                                                                                    fill="white" />
                                                                                <path fill-rule="evenodd"
                                                                                    clip-rule="evenodd"
                                                                                    d="M19.3713 10.8374C20.3271 10.7005 17.9889 9.29381 17.8762 9.21167C17.3574 8.8386 16.6712 8.61271 15.9408 8.57506C14.2818 8.4895 13.582 9.17744 12.3975 10.1084C12.3975 10.1084 12.8379 10.0468 13.3158 10.5739C13.7937 11.1044 15.6301 11.7341 17.2242 11.344C18.8218 10.9538 19.3748 10.8408 19.3748 10.8408L19.3713 10.8374Z"
                                                                                    stroke="black"
                                                                                    stroke-width="0.626185"
                                                                                    stroke-miterlimit="2.61313"
                                                                                    stroke-linecap="round"
                                                                                    stroke-linejoin="round" />
                                                                                <mask id="mask0_8481_12864"
                                                                                    style="mask-type:alpha"
                                                                                    maskUnits="userSpaceOnUse" x="14"
                                                                                    y="7" width="4" height="5">
                                                                                    <path
                                                                                        d="M15.9956 11.3147C16.844 11.3147 17.5317 10.6252 17.5317 9.77455C17.5317 8.92394 16.844 8.23438 15.9956 8.23438C15.1473 8.23438 14.4595 8.92394 14.4595 9.77455C14.4595 10.6252 15.1473 11.3147 15.9956 11.3147Z"
                                                                                        stroke="black"
                                                                                        stroke-width="0.626185"
                                                                                        stroke-miterlimit="2.61313"
                                                                                        stroke-linecap="round"
                                                                                        stroke-linejoin="round" />
                                                                                </mask>
                                                                                <g mask="url(#mask0_8481_12864)">
                                                                                    <path fill-rule="evenodd"
                                                                                        clip-rule="evenodd"
                                                                                        d="M19.3713 10.8374C20.3271 10.7005 17.9889 9.29381 17.8762 9.21167C17.3574 8.8386 16.6712 8.61271 15.9408 8.57506C14.2818 8.4895 13.582 9.17744 12.3975 10.1084C12.3975 10.1084 12.8379 10.0468 13.3158 10.5739C13.7937 11.1044 15.6301 11.7341 17.2242 11.344C18.8218 10.9538 19.3748 10.8408 19.3748 10.8408L19.3713 10.8374Z"
                                                                                        fill="black" stroke="black"
                                                                                        stroke-width="0.626185"
                                                                                        stroke-miterlimit="2.61313"
                                                                                        stroke-linecap="round"
                                                                                        stroke-linejoin="round" />
                                                                                </g>
                                                                                <path
                                                                                    d="M19.15 10.228C19.15 10.228 18.8522 10.5361 18.9754 10.8954"
                                                                                    stroke="black"
                                                                                    stroke-width="0.626185"
                                                                                    stroke-miterlimit="2.61313"
                                                                                    stroke-linecap="round"
                                                                                    stroke-linejoin="round" />
                                                                                <path
                                                                                    d="M19.5081 9.79194C19.5081 9.79194 18.426 7.90266 15.8863 7.87527C13.3467 7.85132 12.0905 9.40176 12.0905 9.40176"
                                                                                    stroke="black"
                                                                                    stroke-width="0.626185"
                                                                                    stroke-miterlimit="2.61313"
                                                                                    stroke-linecap="round"
                                                                                    stroke-linejoin="round" />
                                                                                <path fill-rule="evenodd"
                                                                                    clip-rule="evenodd"
                                                                                    d="M19.8242 7.09753C19.8242 7.09753 20.2782 6.50883 18.9708 5.82089C18.9708 5.82089 14.2192 4.40735 13.1132 4.54425C12.0072 4.68116 10.2731 6.07416 10.2731 6.07416C10.2731 6.07416 12.2086 5.32803 14.4206 5.91672C16.6325 6.50541 19.5989 7.33026 19.8242 7.0941V7.09753Z"
                                                                                    stroke="black"
                                                                                    stroke-width="0.626185"
                                                                                    stroke-miterlimit="2.61313"
                                                                                    stroke-linecap="round"
                                                                                    stroke-linejoin="round" />
                                                                                <path
                                                                                    d="M23.6141 20.795C23.6141 20.795 22.9928 20.8121 22.7402 20.5246C22.4876 20.2371 21.8527 19.9872 21.3475 20.0215"
                                                                                    stroke="black"
                                                                                    stroke-width="0.626185"
                                                                                    stroke-miterlimit="2.61313"
                                                                                    stroke-linecap="round"
                                                                                    stroke-linejoin="round" />
                                                                                <path
                                                                                    d="M20.6299 18.6111C20.6299 18.6111 19.7902 20.3772 21.5345 20.6647"
                                                                                    stroke="black"
                                                                                    stroke-width="0.626185"
                                                                                    stroke-miterlimit="2.61313"
                                                                                    stroke-linecap="round"
                                                                                    stroke-linejoin="round" />
                                                                                <path
                                                                                    d="M20.9659 9.11694C20.9659 9.11694 22.4747 10.462 22.1743 14.1619"
                                                                                    stroke="black"
                                                                                    stroke-width="0.626185"
                                                                                    stroke-miterlimit="2.61313"
                                                                                    stroke-linecap="round"
                                                                                    stroke-linejoin="round" />
                                                                                <path fill-rule="evenodd"
                                                                                    clip-rule="evenodd"
                                                                                    d="M23.7088 24.175C23.7088 24.175 22.4765 23.5692 21.6027 24.0758C20.7288 24.5789 18.2472 25.8247 18.2472 25.8247C18.2472 25.8247 19.3532 29.2234 23.7088 29.2234C28.0611 29.2234 29.1705 25.8247 29.1705 25.8247C29.1705 25.8247 26.6888 24.5789 25.815 24.0758C24.9411 23.5727 23.7088 24.175 23.7088 24.175V24.175Z"
                                                                                    stroke="black"
                                                                                    stroke-width="0.626185"
                                                                                    stroke-miterlimit="2.61313"
                                                                                    stroke-linecap="round"
                                                                                    stroke-linejoin="round" />
                                                                                <path
                                                                                    d="M23.7075 26.2438C23.7075 26.2438 23.3969 26.2267 23.0112 26.0659C22.6254 25.905 20.6968 25.8297 19.7581 26.0487C18.8194 26.2678 18.5326 25.7476 17.5256 25.7476"
                                                                                    stroke="black"
                                                                                    stroke-width="0.626185"
                                                                                    stroke-miterlimit="2.61313"
                                                                                    stroke-linecap="round"
                                                                                    stroke-linejoin="round" />
                                                                                <path
                                                                                    d="M6.22614 9.21606C6.22614 9.21606 8.23328 17.6734 9.30513 22.0817C10.3804 26.49 10.6466 27.2293 12.9951 29.4506C15.3436 31.6719 19.8495 35.8441 23.7068 35.8441"
                                                                                    stroke="black"
                                                                                    stroke-width="0.626185"
                                                                                    stroke-miterlimit="2.61313"
                                                                                    stroke-linecap="round"
                                                                                    stroke-linejoin="round" />
                                                                                <path
                                                                                    d="M4.77596 8.05298C4.77596 8.05298 3.48224 8.07009 3.91917 9.95253C4.3561 11.835 5.93314 14.5628 6.13454 16.5787C6.33594 18.5981 7.12787 19.1936 8.5752 19.0636"
                                                                                    stroke="black"
                                                                                    stroke-width="0.626185"
                                                                                    stroke-miterlimit="2.61313"
                                                                                    stroke-linecap="round"
                                                                                    stroke-linejoin="round" />
                                                                                <path
                                                                                    d="M5.112 10.8626C5.112 10.8626 5.32705 9.95564 5.75374 10.2568C6.18043 10.558 7.07819 12.947 7.07819 12.947C7.07819 12.947 6.5013 14.1586 6.82217 14.5283C7.14304 14.8979 7.76089 15.6509 7.76089 15.6509"
                                                                                    stroke="black"
                                                                                    stroke-width="0.626185"
                                                                                    stroke-miterlimit="2.61313"
                                                                                    stroke-linecap="round"
                                                                                    stroke-linejoin="round" />
                                                                                <path
                                                                                    d="M31.4166 10.6268C31.886 10.6268 32.2666 10.2453 32.2666 9.7746C32.2666 9.30392 31.886 8.92236 31.4166 8.92236C30.9472 8.92236 30.5667 9.30392 30.5667 9.7746C30.5667 10.2453 30.9472 10.6268 31.4166 10.6268Z"
                                                                                    fill="black" />
                                                                                <path
                                                                                    d="M30.8383 9.68228C31.0174 9.68228 31.1626 9.53671 31.1626 9.35713C31.1626 9.17756 31.0174 9.03198 30.8383 9.03198C30.6592 9.03198 30.514 9.17756 30.514 9.35713C30.514 9.53671 30.6592 9.68228 30.8383 9.68228Z"
                                                                                    fill="white" />
                                                                                <path fill-rule="evenodd"
                                                                                    clip-rule="evenodd"
                                                                                    d="M28.0401 10.8374C27.0844 10.7005 29.4226 9.29381 29.5353 9.21167C30.0541 8.8386 30.7402 8.61271 31.4707 8.57506C33.1297 8.4895 33.8295 9.17744 35.014 10.1084C35.014 10.1084 34.5736 10.0468 34.0957 10.5739C33.6178 11.1044 31.7814 11.7341 30.1872 11.344C28.5897 10.9538 28.0367 10.8408 28.0367 10.8408L28.0401 10.8374Z"
                                                                                    stroke="black"
                                                                                    stroke-width="0.626185"
                                                                                    stroke-miterlimit="2.61313"
                                                                                    stroke-linecap="round"
                                                                                    stroke-linejoin="round" />
                                                                                <mask id="mask1_8481_12864"
                                                                                    style="mask-type:alpha"
                                                                                    maskUnits="userSpaceOnUse" x="29"
                                                                                    y="7" width="5" height="5">
                                                                                    <path
                                                                                        d="M31.4191 11.3147C32.2674 11.3147 32.9552 10.6252 32.9552 9.77455C32.9552 8.92394 32.2674 8.23438 31.4191 8.23438C30.5707 8.23438 29.883 8.92394 29.883 9.77455C29.883 10.6252 30.5707 11.3147 31.4191 11.3147Z"
                                                                                        stroke="black"
                                                                                        stroke-width="0.626185"
                                                                                        stroke-miterlimit="2.61313"
                                                                                        stroke-linecap="round"
                                                                                        stroke-linejoin="round" />
                                                                                </mask>
                                                                                <g mask="url(#mask1_8481_12864)">
                                                                                    <path fill-rule="evenodd"
                                                                                        clip-rule="evenodd"
                                                                                        d="M28.0414 10.8374C27.0856 10.7005 29.4239 9.29381 29.5365 9.21167C30.0554 8.8386 30.7415 8.61271 31.472 8.57506C33.131 8.4895 33.8308 9.17744 35.0152 10.1084C35.0152 10.1084 34.5749 10.0468 34.097 10.5739C33.6191 11.1044 31.7826 11.7341 30.1885 11.344C28.591 10.9538 28.038 10.8408 28.038 10.8408L28.0414 10.8374Z"
                                                                                        fill="black" stroke="black"
                                                                                        stroke-width="0.626185"
                                                                                        stroke-miterlimit="2.61313"
                                                                                        stroke-linecap="round"
                                                                                        stroke-linejoin="round" />
                                                                                </g>
                                                                                <path
                                                                                    d="M28.265 10.228C28.265 10.228 28.5627 10.5361 28.4395 10.8954"
                                                                                    stroke="black"
                                                                                    stroke-width="0.626185"
                                                                                    stroke-miterlimit="2.61313"
                                                                                    stroke-linecap="round"
                                                                                    stroke-linejoin="round" />
                                                                                <path
                                                                                    d="M27.9066 9.79194C27.9066 9.79194 28.9886 7.90266 31.5283 7.87527C34.068 7.85132 35.3241 9.40176 35.3241 9.40176"
                                                                                    stroke="black"
                                                                                    stroke-width="0.626185"
                                                                                    stroke-miterlimit="2.61313"
                                                                                    stroke-linecap="round"
                                                                                    stroke-linejoin="round" />
                                                                                <path fill-rule="evenodd"
                                                                                    clip-rule="evenodd"
                                                                                    d="M27.5902 7.09753C27.5902 7.09753 27.1362 6.50883 28.4436 5.82089C28.4436 5.82089 33.1952 4.40735 34.3012 4.54425C35.4072 4.68116 37.1413 6.07416 37.1413 6.07416C37.1413 6.07416 35.2058 5.32803 32.9938 5.91672C30.7819 6.50541 27.8155 7.33026 27.5902 7.0941V7.09753Z"
                                                                                    stroke="black"
                                                                                    stroke-width="0.626185"
                                                                                    stroke-miterlimit="2.61313"
                                                                                    stroke-linecap="round"
                                                                                    stroke-linejoin="round" />
                                                                                <path
                                                                                    d="M23.801 20.795C23.801 20.795 24.4222 20.8121 24.6748 20.5246C24.9274 20.2371 25.5623 19.9872 26.0675 20.0215"
                                                                                    stroke="black"
                                                                                    stroke-width="0.626185"
                                                                                    stroke-miterlimit="2.61313"
                                                                                    stroke-linecap="round"
                                                                                    stroke-linejoin="round" />
                                                                                <path
                                                                                    d="M26.7822 18.6111C26.7822 18.6111 27.6219 20.3772 25.8776 20.6647"
                                                                                    stroke="black"
                                                                                    stroke-width="0.626185"
                                                                                    stroke-miterlimit="2.61313"
                                                                                    stroke-linecap="round"
                                                                                    stroke-linejoin="round" />
                                                                                <path
                                                                                    d="M26.4505 9.11694C26.4505 9.11694 24.9417 10.462 25.2421 14.1619"
                                                                                    stroke="black"
                                                                                    stroke-width="0.626185"
                                                                                    stroke-miterlimit="2.61313"
                                                                                    stroke-linecap="round"
                                                                                    stroke-linejoin="round" />
                                                                                <path
                                                                                    d="M23.7066 26.2438C23.7066 26.2438 24.0172 26.2267 24.403 26.0659C24.7887 25.905 26.7173 25.8297 27.656 26.0487C28.5948 26.2678 28.8815 25.7476 29.8885 25.7476"
                                                                                    stroke="black"
                                                                                    stroke-width="0.626185"
                                                                                    stroke-miterlimit="2.61313"
                                                                                    stroke-linecap="round"
                                                                                    stroke-linejoin="round" />
                                                                                <path
                                                                                    d="M41.1922 9.21606C41.1922 9.21606 39.1851 17.6734 38.1132 22.0817C37.038 26.49 36.7717 27.2293 34.4232 29.4506C32.0747 31.6719 27.5689 35.8441 23.7116 35.8441"
                                                                                    stroke="black"
                                                                                    stroke-width="0.626185"
                                                                                    stroke-miterlimit="2.61313"
                                                                                    stroke-linecap="round"
                                                                                    stroke-linejoin="round" />
                                                                                <path
                                                                                    d="M42.6371 8.05298C42.6371 8.05298 43.9308 8.07009 43.4939 9.95253C43.0569 11.835 41.4799 14.5628 41.2785 16.5787C41.0771 18.5981 40.2852 19.1936 38.8378 19.0636"
                                                                                    stroke="black"
                                                                                    stroke-width="0.626185"
                                                                                    stroke-miterlimit="2.61313"
                                                                                    stroke-linecap="round"
                                                                                    stroke-linejoin="round" />
                                                                                <path
                                                                                    d="M42.3075 10.8626C42.3075 10.8626 42.0924 9.95564 41.6657 10.2568C41.239 10.558 40.3413 12.947 40.3413 12.947C40.3413 12.947 40.9182 14.1586 40.5973 14.5283C40.2764 14.8979 39.6586 15.6509 39.6586 15.6509"
                                                                                    stroke="black"
                                                                                    stroke-width="0.626185"
                                                                                    stroke-miterlimit="2.61313"
                                                                                    stroke-linecap="round"
                                                                                    stroke-linejoin="round" />
                                                                                <path
                                                                                    d="M29.2526 16.6482C29.2082 16.59 29.2184 16.5045 29.2764 16.46C29.3345 16.4155 29.4198 16.4257 29.4642 16.4839L29.2526 16.6482ZM44.965 17.8153L45.1561 18.007L44.3779 18.736L43.6064 19.3658L42.8418 19.8997L42.084 20.3446L41.333 20.704L40.5923 20.9847L39.8652 21.19L39.1483 21.3235L38.4486 21.392L37.7625 21.3988L37.0934 21.3509L36.4448 21.2516L35.8168 21.1079L35.2091 20.9265L34.6254 20.7074L34.0656 20.461L33.5297 20.1906L33.0177 19.8997L32.5329 19.5951L32.0789 19.2802L31.6523 18.9619L31.2563 18.647L30.8945 18.3356L30.5633 18.0378L30.2664 17.7537L30.0069 17.4936L29.7816 17.2574L29.5939 17.0521L29.4471 16.8844L29.3413 16.7577L29.2764 16.679L29.2526 16.6482L29.4642 16.4839L29.4847 16.5079L29.5461 16.5866L29.6485 16.7098L29.7919 16.8741L29.9728 17.076L30.1913 17.3088L30.4473 17.5655L30.7374 17.8427L31.0617 18.137L31.4201 18.4417L31.8093 18.7531L32.2257 19.0646L32.6729 19.3726L33.1474 19.6704L33.6458 19.9545L34.1714 20.218L34.7176 20.4576L35.2877 20.6698L35.8782 20.8478L36.4892 20.9881L37.1173 21.0839L37.7625 21.1318L38.4247 21.125L39.104 21.06L39.7969 20.9299L40.5035 20.7314L41.2204 20.461L41.9508 20.1119L42.6916 19.6772L43.4391 19.1536L44.1969 18.5375L44.9616 17.8187L44.965 17.8153ZM46.17 16.7988L45.5862 18.5615L44.4154 17.3875L46.17 16.7988ZM44.965 17.8153C45.0162 17.764 45.1015 17.764 45.1561 17.8153C45.2073 17.8667 45.2073 17.9522 45.1561 18.007L44.965 17.8153Z"
                                                                                    fill="black" />
                                                                                <path
                                                                                    d="M29.2526 16.6482C29.2082 16.59 29.2184 16.5045 29.2764 16.46C29.3345 16.4155 29.4198 16.4257 29.4642 16.4839M29.2526 16.6482L29.4642 16.4839M29.2526 16.6482L29.2764 16.679L29.3413 16.7577L29.4471 16.8844L29.5939 17.0521L29.7816 17.2574L30.0069 17.4936L30.2664 17.7537L30.5633 18.0378L30.8945 18.3356L31.2563 18.647L31.6523 18.9619L32.0789 19.2802L32.5329 19.5951L33.0177 19.8997L33.5297 20.1906L34.0656 20.461L34.6254 20.7074L35.2091 20.9265L35.8168 21.1079L36.4448 21.2516L37.0934 21.3509L37.7625 21.3988L38.4486 21.392L39.1483 21.3235L39.8652 21.19L40.5923 20.9847L41.333 20.704L42.084 20.3446L42.8418 19.8997L43.6064 19.3658L44.3779 18.736L45.1561 18.007M29.4642 16.4839L29.4847 16.5079L29.5461 16.5866L29.6485 16.7098L29.7919 16.8741L29.9728 17.076L30.1913 17.3088L30.4473 17.5655L30.7374 17.8427L31.0617 18.137L31.4201 18.4417L31.8093 18.7531L32.2257 19.0646L32.6729 19.3726L33.1474 19.6704L33.6458 19.9545L34.1714 20.218L34.7176 20.4576L35.2877 20.6698L35.8782 20.8478L36.4892 20.9881L37.1173 21.0839L37.7625 21.1318L38.4247 21.125L39.104 21.06L39.7969 20.9299L40.5035 20.7314L41.2204 20.461L41.9508 20.1119L42.6916 19.6772L43.4391 19.1536L44.1969 18.5375L44.9616 17.8187L44.965 17.8153M44.965 17.8153L45.1561 18.007M44.965 17.8153C45.0162 17.764 45.1015 17.764 45.1561 17.8153C45.2073 17.8667 45.2073 17.9522 45.1561 18.007M46.17 16.7988L45.5862 18.5615L44.4154 17.3875L46.17 16.7988Z"
                                                                                    stroke="black"
                                                                                    stroke-width="0.626185" />
                                                                                <path
                                                                                    d="M18.0362 16.4839C18.0806 16.4257 18.1659 16.4155 18.2239 16.46C18.282 16.5045 18.2922 16.59 18.2478 16.6482L18.0362 16.4839ZM2.34426 18.007L2.53542 17.8153L3.30004 18.5341L4.05785 19.1501L4.80541 19.6738L5.54614 20.1085L6.27663 20.4576L6.99347 20.728L7.70007 20.9265L8.39301 21.0565L9.0723 21.1216L9.73453 21.1284L10.3797 21.0805L11.0078 20.9847L11.6188 20.8443L12.2093 20.6664L12.7794 20.4542L13.3255 20.2146L13.8512 19.951L14.3496 19.667L14.8241 19.3692L15.2713 19.0612L15.6877 18.7497L16.0768 18.4382L16.4353 18.1336L16.7595 17.8393L17.0497 17.562L17.3057 17.3054L17.5242 17.0726L17.7051 16.8707L17.8485 16.7064L17.9509 16.5832L18.0123 16.5045L18.0328 16.4805L18.2444 16.6448L18.2205 16.6756L18.1557 16.7543L18.0499 16.8809L17.9031 17.0487L17.7153 17.254L17.49 17.4902L17.2306 17.7503L16.9336 18.0344L16.6025 18.3321L16.2407 18.6436L15.8447 18.9585L15.418 19.2768L14.964 19.5917L14.4793 19.8963L13.9673 20.1872L13.4314 20.4576L12.8715 20.704L12.2878 20.9231L11.6802 21.1045L11.0521 21.2482L10.4036 21.3475L9.73453 21.3954L9.04841 21.3885L8.34864 21.3201L7.6318 21.1866L6.90472 20.9812L6.16399 20.7006L5.41301 20.3412L4.65521 19.8963L3.89058 19.3623L3.11913 18.7326L2.34085 18.0036L2.34426 18.007ZM1.33044 16.7954L3.08841 17.3841L1.91757 18.558L1.33044 16.7954ZM2.34426 18.007C2.29306 17.9557 2.29306 17.8701 2.34426 17.8153C2.39546 17.764 2.4808 17.764 2.53542 17.8153L2.34426 18.007Z"
                                                                                    fill="black" />
                                                                                <path
                                                                                    d="M2.34426 18.007L2.53542 17.8153M2.34426 18.007L2.34085 18.0036L3.11913 18.7326L3.89058 19.3623L4.65521 19.8963L5.41301 20.3412L6.16399 20.7006L6.90472 20.9812L7.6318 21.1866L8.34864 21.3201L9.04841 21.3885L9.73453 21.3954L10.4036 21.3475L11.0521 21.2482L11.6802 21.1045L12.2878 20.9231L12.8715 20.704L13.4314 20.4576L13.9673 20.1872L14.4793 19.8963L14.964 19.5917L15.418 19.2768L15.8447 18.9585L16.2407 18.6436L16.6025 18.3321L16.9336 18.0344L17.2306 17.7503L17.49 17.4902L17.7153 17.254L17.9031 17.0487L18.0499 16.8809L18.1557 16.7543L18.2205 16.6756L18.2444 16.6448L18.0328 16.4805L18.0123 16.5045L17.9509 16.5832L17.8485 16.7064L17.7051 16.8707L17.5242 17.0726L17.3057 17.3054L17.0497 17.562L16.7595 17.8393L16.4353 18.1336L16.0768 18.4382L15.6877 18.7497L15.2713 19.0612L14.8241 19.3692L14.3496 19.667L13.8512 19.951L13.3255 20.2146L12.7794 20.4542L12.2093 20.6664L11.6188 20.8443L11.0078 20.9847L10.3797 21.0805L9.73453 21.1284L9.0723 21.1216L8.39301 21.0565L7.70007 20.9265L6.99347 20.728L6.27663 20.4576L5.54614 20.1085L4.80541 19.6738L4.05785 19.1501L3.30004 18.5341L2.53542 17.8153M2.34426 18.007C2.29306 17.9557 2.29306 17.8701 2.34426 17.8153C2.39546 17.764 2.4808 17.764 2.53542 17.8153M18.0362 16.4839C18.0806 16.4257 18.1659 16.4155 18.2239 16.46C18.282 16.5045 18.2922 16.59 18.2478 16.6482L18.0362 16.4839ZM1.33044 16.7954L3.08841 17.3841L1.91757 18.558L1.33044 16.7954Z"
                                                                                    stroke="black"
                                                                                    stroke-width="0.626185" />
                                                                            </g>
                                                                            <defs>
                                                                                <clipPath id="clip0_8481_12864">
                                                                                    <rect width="46.839" height="40.702"
                                                                                        fill="white"
                                                                                        transform="translate(0.0805054 0.405273)" />
                                                                                </clipPath>
                                                                            </defs>
                                                                        </svg>