  <svg xmlns="http://www.w3.org/2000/svg"
                                                                            width="47" height="41" viewBox="0 0 47 41"
                                                                            fill="none">
                                                                            <path
                                                                                d="M15.8719 10.8216C16.3351 10.8216 16.7107 10.4425 16.7107 9.97488C16.7107 9.50726 16.3351 9.12817 15.8719 9.12817C15.4087 9.12817 15.0331 9.50726 15.0331 9.97488C15.0331 10.4425 15.4087 10.8216 15.8719 10.8216Z"
                                                                                fill="black" />
                                                                            <path
                                                                                d="M15.2937 9.88097C15.4714 9.88097 15.6154 9.73557 15.6154 9.55621C15.6154 9.37685 15.4714 9.23145 15.2937 9.23145C15.116 9.23145 14.972 9.37685 14.972 9.55621C14.972 9.73557 15.116 9.88097 15.2937 9.88097Z"
                                                                                fill="white" />
                                                                            <path fill-rule="evenodd"
                                                                                clip-rule="evenodd"
                                                                                d="M19.209 11.0335C20.1534 10.8967 17.8417 9.49556 17.7291 9.41436C17.2166 9.0432 16.5364 8.81587 15.8125 8.77875C14.1718 8.69292 13.4801 9.37725 12.3058 10.3051C12.3058 10.3051 12.7401 10.2425 13.2135 10.7691C13.6869 11.2957 15.5023 11.9243 17.081 11.5346C18.6597 11.1449 19.209 11.0312 19.209 11.0312V11.0335Z"
                                                                                stroke="black" stroke-width="0.626185"
                                                                                stroke-miterlimit="2.61313"
                                                                                stroke-linecap="round"
                                                                                stroke-linejoin="round" />
                                                                            <mask id="mask0_8481_12971"
                                                                                style="mask-type:alpha"
                                                                                maskUnits="userSpaceOnUse" x="14" y="8"
                                                                                width="4" height="4">
                                                                                <path
                                                                                    d="M15.8696 11.5074C16.7085 11.5074 17.3886 10.8209 17.3886 9.97403C17.3886 9.12718 16.7085 8.44067 15.8696 8.44067C15.0307 8.44067 14.3507 9.12718 14.3507 9.97403C14.3507 10.8209 15.0307 11.5074 15.8696 11.5074Z"
                                                                                    stroke="black"
                                                                                    stroke-width="0.626185"
                                                                                    stroke-miterlimit="2.61313"
                                                                                    stroke-linecap="round"
                                                                                    stroke-linejoin="round" />
                                                                            </mask>
                                                                            <g mask="url(#mask0_8481_12971)">
                                                                                <path fill-rule="evenodd"
                                                                                    clip-rule="evenodd"
                                                                                    d="M19.209 11.0323C20.1535 10.8955 17.8417 9.49433 17.7291 9.41314C17.2166 9.04198 16.5364 8.81465 15.8126 8.77753C14.1718 8.6917 13.4801 9.37603 12.3058 10.3039C12.3058 10.3039 12.7402 10.2413 13.2136 10.7679C13.6869 11.2945 15.5023 11.9231 17.0811 11.5334C18.6598 11.1437 19.209 11.03 19.209 11.03V11.0323Z"
                                                                                    fill="black" stroke="black"
                                                                                    stroke-width="0.626185"
                                                                                    stroke-miterlimit="2.61313"
                                                                                    stroke-linecap="round"
                                                                                    stroke-linejoin="round" />
                                                                            </g>
                                                                            <path
                                                                                d="M18.987 10.425C18.987 10.425 18.6943 10.7313 18.8142 11.0885"
                                                                                stroke="black" stroke-width="0.626185"
                                                                                stroke-miterlimit="2.61313"
                                                                                stroke-linecap="round"
                                                                                stroke-linejoin="round" />
                                                                            <path
                                                                                d="M19.347 9.99247C19.347 9.99247 18.2784 8.10884 15.7644 8.08332C13.2527 8.0578 12.0072 9.60275 12.0072 9.60275"
                                                                                stroke="black" stroke-width="0.626185"
                                                                                stroke-miterlimit="2.61313"
                                                                                stroke-linecap="round"
                                                                                stroke-linejoin="round" />
                                                                            <path fill-rule="evenodd"
                                                                                clip-rule="evenodd"
                                                                                d="M19.6563 7.30767C19.6563 7.30767 20.1044 6.72077 18.8106 6.03645C18.8106 6.03645 14.1089 4.62836 13.0151 4.76523C11.9212 4.90209 10.2047 6.2893 10.2047 6.2893C10.2047 6.2893 12.1212 5.54698 14.3089 6.13388C16.4988 6.72077 19.4334 7.54197 19.6563 7.30535V7.30767Z"
                                                                                stroke="black" stroke-width="0.626185"
                                                                                stroke-miterlimit="2.61313"
                                                                                stroke-linecap="round"
                                                                                stroke-linejoin="round" />
                                                                            <path
                                                                                d="M23.4094 20.9565C23.4094 20.9565 22.7958 20.9727 22.5454 20.6874C22.2972 20.4021 21.6652 20.1515 21.1666 20.184"
                                                                                stroke="black" stroke-width="0.626185"
                                                                                stroke-miterlimit="2.61313"
                                                                                stroke-linecap="round"
                                                                                stroke-linejoin="round" />
                                                                            <path
                                                                                d="M20.4561 18.7771C20.4561 18.7771 19.6265 20.5355 21.3523 20.8208"
                                                                                stroke="black" stroke-width="0.626185"
                                                                                stroke-miterlimit="2.61313"
                                                                                stroke-linecap="round"
                                                                                stroke-linejoin="round" />
                                                                            <path
                                                                                d="M20.7838 9.32324C20.7838 9.32324 22.2774 10.6641 21.9787 14.3501"
                                                                                stroke="black" stroke-width="0.626185"
                                                                                stroke-miterlimit="2.61313"
                                                                                stroke-linecap="round"
                                                                                stroke-linejoin="round" />
                                                                            <path fill-rule="evenodd"
                                                                                clip-rule="evenodd"
                                                                                d="M23.5004 24.3222C23.5004 24.3222 22.2802 23.7191 21.4161 24.2225C20.5521 24.7259 18.0956 25.9646 18.0956 25.9646C18.0956 25.9646 19.1917 29.3491 23.4981 29.3491C27.8068 29.3491 28.9007 25.9646 28.9007 25.9646C28.9007 25.9646 26.4441 24.7235 25.5801 24.2225C24.716 23.7191 23.4958 24.3222 23.4958 24.3222H23.5004Z"
                                                                                stroke="black" stroke-width="0.626185"
                                                                                stroke-miterlimit="2.61313"
                                                                                stroke-linecap="round"
                                                                                stroke-linejoin="round" />
                                                                            <path
                                                                                d="M23.4986 26.3818C23.4986 26.3818 23.1906 26.3656 22.8092 26.2055C22.4277 26.0454 20.5181 25.9712 19.5897 26.1893C18.659 26.4073 18.3786 25.8877 17.3813 25.8877"
                                                                                stroke="black" stroke-width="0.626185"
                                                                                stroke-miterlimit="2.61313"
                                                                                stroke-linecap="round"
                                                                                stroke-linejoin="round" />
                                                                            <path
                                                                                d="M6.19928 9.41675C6.19928 9.41675 8.18474 17.8444 9.24641 22.2334C10.3081 26.6246 10.5746 27.3623 12.8979 29.573C15.2212 31.7861 19.6816 35.9408 23.4985 35.9408"
                                                                                stroke="black" stroke-width="0.626185"
                                                                                stroke-miterlimit="2.61313"
                                                                                stroke-linecap="round"
                                                                                stroke-linejoin="round" />
                                                                            <path
                                                                                d="M4.76487 8.26221C4.76487 8.26221 3.4849 8.27845 3.91692 10.1551C4.34894 12.0318 5.90927 14.7459 6.1092 16.7571C6.30912 18.7684 7.09043 19.3599 8.52667 19.2323"
                                                                                stroke="black" stroke-width="0.626185"
                                                                                stroke-miterlimit="2.61313"
                                                                                stroke-linecap="round"
                                                                                stroke-linejoin="round" />
                                                                            <path
                                                                                d="M5.09735 11.0568C5.09735 11.0568 5.30877 10.1521 5.73159 10.4536C6.15442 10.7552 7.04145 13.1353 7.04145 13.1353C7.04145 13.1353 6.47155 14.3415 6.78867 14.7104C7.10579 15.0792 7.71935 15.8285 7.71935 15.8285"
                                                                                stroke="black" stroke-width="0.626185"
                                                                                stroke-miterlimit="2.61313"
                                                                                stroke-linecap="round"
                                                                                stroke-linejoin="round" />
                                                                            <path
                                                                                d="M31.1339 10.8216C31.5972 10.8216 31.9727 10.4425 31.9727 9.97488C31.9727 9.50726 31.5972 9.12817 31.1339 9.12817C30.6707 9.12817 30.2952 9.50726 30.2952 9.97488C30.2952 10.4425 30.6707 10.8216 31.1339 10.8216Z"
                                                                                fill="black" />
                                                                            <path
                                                                                d="M30.5557 9.88097C30.7334 9.88097 30.8774 9.73557 30.8774 9.55621C30.8774 9.37685 30.7334 9.23145 30.5557 9.23145C30.378 9.23145 30.234 9.37685 30.234 9.55621C30.234 9.73557 30.378 9.88097 30.5557 9.88097Z"
                                                                                fill="white" />
                                                                            <path fill-rule="evenodd"
                                                                                clip-rule="evenodd"
                                                                                d="M27.7891 11.0335C26.8446 10.8967 29.1564 9.49556 29.269 9.41436C29.7815 9.0432 30.4617 8.81587 31.1855 8.77875C32.8263 8.69292 33.518 9.37725 34.6922 10.3051C34.6922 10.3051 34.2579 10.2425 33.7845 10.7691C33.3112 11.2957 31.4957 11.9243 29.917 11.5346C28.3383 11.1449 27.7891 11.0312 27.7891 11.0312V11.0335Z"
                                                                                stroke="black" stroke-width="0.626185"
                                                                                stroke-miterlimit="2.61313"
                                                                                stroke-linecap="round"
                                                                                stroke-linejoin="round" />
                                                                            <mask id="mask1_8481_12971"
                                                                                style="mask-type:alpha"
                                                                                maskUnits="userSpaceOnUse" x="29" y="8"
                                                                                width="4" height="4">
                                                                                <path
                                                                                    d="M31.1316 11.5074C31.9705 11.5074 32.6506 10.8209 32.6506 9.97403C32.6506 9.12718 31.9705 8.44067 31.1316 8.44067C30.2927 8.44067 29.6127 9.12718 29.6127 9.97403C29.6127 10.8209 30.2927 11.5074 31.1316 11.5074Z"
                                                                                    stroke="black"
                                                                                    stroke-width="0.626185"
                                                                                    stroke-miterlimit="2.61313"
                                                                                    stroke-linecap="round"
                                                                                    stroke-linejoin="round" />
                                                                            </mask>
                                                                            <g mask="url(#mask1_8481_12971)">
                                                                                <path fill-rule="evenodd"
                                                                                    clip-rule="evenodd"
                                                                                    d="M27.7891 11.0323C26.8446 10.8955 29.1564 9.49433 29.269 9.41314C29.7814 9.04198 30.4616 8.81465 31.1855 8.77753C32.8262 8.6917 33.5179 9.37603 34.6922 10.3039C34.6922 10.3039 34.2579 10.2413 33.7845 10.7679C33.3111 11.2945 31.4957 11.9231 29.917 11.5334C28.3383 11.1437 27.7891 11.03 27.7891 11.03V11.0323Z"
                                                                                    fill="black" stroke="black"
                                                                                    stroke-width="0.626185"
                                                                                    stroke-miterlimit="2.61313"
                                                                                    stroke-linecap="round"
                                                                                    stroke-linejoin="round" />
                                                                            </g>
                                                                            <path
                                                                                d="M28.0069 10.425C28.0069 10.425 28.2995 10.7313 28.1797 11.0885"
                                                                                stroke="black" stroke-width="0.626185"
                                                                                stroke-miterlimit="2.61313"
                                                                                stroke-linecap="round"
                                                                                stroke-linejoin="round" />
                                                                            <path
                                                                                d="M27.6522 9.99247C27.6522 9.99247 28.7208 8.10884 31.2348 8.08332C33.7465 8.0578 34.992 9.60275 34.992 9.60275"
                                                                                stroke="black" stroke-width="0.626185"
                                                                                stroke-miterlimit="2.61313"
                                                                                stroke-linecap="round"
                                                                                stroke-linejoin="round" />
                                                                            <path fill-rule="evenodd"
                                                                                clip-rule="evenodd"
                                                                                d="M27.3432 7.30767C27.3432 7.30767 26.8951 6.72077 28.1889 6.03645C28.1889 6.03645 32.8906 4.62836 33.9844 4.76523C35.0782 4.90209 36.7948 6.2893 36.7948 6.2893C36.7948 6.2893 34.8783 5.54698 32.6906 6.13388C30.5007 6.72077 27.5661 7.54197 27.3432 7.30535V7.30767Z"
                                                                                stroke="black" stroke-width="0.626185"
                                                                                stroke-miterlimit="2.61313"
                                                                                stroke-linecap="round"
                                                                                stroke-linejoin="round" />
                                                                            <path
                                                                                d="M23.5894 20.9565C23.5894 20.9565 24.2029 20.9727 24.4534 20.6874C24.7016 20.4021 25.3335 20.1515 25.8322 20.184"
                                                                                stroke="black" stroke-width="0.626185"
                                                                                stroke-miterlimit="2.61313"
                                                                                stroke-linecap="round"
                                                                                stroke-linejoin="round" />
                                                                            <path
                                                                                d="M26.5451 18.7771C26.5451 18.7771 27.3747 20.5355 25.6489 20.8208"
                                                                                stroke="black" stroke-width="0.626185"
                                                                                stroke-miterlimit="2.61313"
                                                                                stroke-linecap="round"
                                                                                stroke-linejoin="round" />
                                                                            <path
                                                                                d="M26.2107 9.32324C26.2107 9.32324 24.717 10.6641 25.0158 14.3501"
                                                                                stroke="black" stroke-width="0.626185"
                                                                                stroke-miterlimit="2.61313"
                                                                                stroke-linecap="round"
                                                                                stroke-linejoin="round" />
                                                                            <path
                                                                                d="M23.5014 26.382C23.5014 26.382 23.8094 26.3658 24.1908 26.2057C24.5723 26.0457 26.4819 25.9715 27.4103 26.1895C28.341 26.4076 28.6213 25.8879 29.6187 25.8879"
                                                                                stroke="black" stroke-width="0.626185"
                                                                                stroke-miterlimit="2.61313"
                                                                                stroke-linecap="round"
                                                                                stroke-linejoin="round" />
                                                                            <path
                                                                                d="M40.7956 9.41675C40.7956 9.41675 38.8102 17.8444 37.7485 22.2334C36.6868 26.6246 36.4203 27.3623 34.097 29.573C31.7737 31.7861 27.3134 35.9408 23.4964 35.9408"
                                                                                stroke="black" stroke-width="0.626185"
                                                                                stroke-miterlimit="2.61313"
                                                                                stroke-linecap="round"
                                                                                stroke-linejoin="round" />
                                                                            <path
                                                                                d="M42.2353 8.26221C42.2353 8.26221 43.5153 8.27845 43.0832 10.1551C42.6512 12.0318 41.0909 14.7459 40.891 16.7571C40.691 18.7684 39.9097 19.3599 38.4735 19.2323"
                                                                                stroke="black" stroke-width="0.626185"
                                                                                stroke-miterlimit="2.61313"
                                                                                stroke-linecap="round"
                                                                                stroke-linejoin="round" />
                                                                            <path
                                                                                d="M41.9027 11.0568C41.9027 11.0568 41.6913 10.1521 41.2684 10.4536C40.8456 10.7552 39.9586 13.1353 39.9586 13.1353C39.9586 13.1353 40.5285 14.3415 40.2114 14.7104C39.8942 15.0792 39.2807 15.8285 39.2807 15.8285"
                                                                                stroke="black" stroke-width="0.626185"
                                                                                stroke-miterlimit="2.61313"
                                                                                stroke-linecap="round"
                                                                                stroke-linejoin="round" />
                                                                            <path
                                                                                d="M23.6651 16.0067C23.8441 16.0067 23.9891 15.8603 23.9891 15.6796C23.9891 15.499 23.8441 15.3525 23.6651 15.3525C23.4862 15.3525 23.3411 15.499 23.3411 15.6796C23.3411 15.8603 23.4862 16.0067 23.6651 16.0067Z"
                                                                                fill="black" stroke="black"
                                                                                stroke-width="0.626185" />
                                                                            <path
                                                                                d="M21.531 17.8773C21.7099 17.8773 21.855 17.7309 21.855 17.5502C21.855 17.3696 21.7099 17.2231 21.531 17.2231C21.352 17.2231 21.2069 17.3696 21.2069 17.5502C21.2069 17.7309 21.352 17.8773 21.531 17.8773Z"
                                                                                fill="black" stroke="black"
                                                                                stroke-width="0.626185" />
                                                                            <path
                                                                                d="M20.0426 16.1903C20.2215 16.1903 20.3666 16.0439 20.3666 15.8632C20.3666 15.6826 20.2215 15.5361 20.0426 15.5361C19.8636 15.5361 19.7185 15.6826 19.7185 15.8632C19.7185 16.0439 19.8636 16.1903 20.0426 16.1903Z"
                                                                                fill="black" stroke="black"
                                                                                stroke-width="0.626185" />
                                                                            <path
                                                                                d="M18.3107 17.5331C18.4897 17.5331 18.6348 17.3866 18.6348 17.206C18.6348 17.0253 18.4897 16.8789 18.3107 16.8789C18.1318 16.8789 17.9867 17.0253 17.9867 17.206C17.9867 17.3866 18.1318 17.5331 18.3107 17.5331Z"
                                                                                fill="black" stroke="black"
                                                                                stroke-width="0.626185" />
                                                                            <path
                                                                                d="M16.9472 16.0257C17.1262 16.0257 17.2712 15.8793 17.2712 15.6987C17.2712 15.518 17.1262 15.3716 16.9472 15.3716C16.7683 15.3716 16.6232 15.518 16.6232 15.6987C16.6232 15.8793 16.7683 16.0257 16.9472 16.0257Z"
                                                                                fill="black" stroke="black"
                                                                                stroke-width="0.626185" />
                                                                            <path
                                                                                d="M16.0506 18.0804C16.2296 18.0804 16.3746 17.934 16.3746 17.7534C16.3746 17.5727 16.2296 17.4263 16.0506 17.4263C15.8717 17.4263 15.7266 17.5727 15.7266 17.7534C15.7266 17.934 15.8717 18.0804 16.0506 18.0804Z"
                                                                                fill="black" stroke="black"
                                                                                stroke-width="0.626185" />
                                                                            <path
                                                                                d="M14.3934 16.6012C14.5724 16.6012 14.7174 16.4548 14.7174 16.2741C14.7174 16.0935 14.5724 15.947 14.3934 15.947C14.2145 15.947 14.0694 16.0935 14.0694 16.2741C14.0694 16.4548 14.2145 16.6012 14.3934 16.6012Z"
                                                                                fill="black" stroke="black"
                                                                                stroke-width="0.626185" />
                                                                            <path
                                                                                d="M25.7993 17.8773C25.9782 17.8773 26.1233 17.7309 26.1233 17.5502C26.1233 17.3696 25.9782 17.2231 25.7993 17.2231C25.6203 17.2231 25.4753 17.3696 25.4753 17.5502C25.4753 17.7309 25.6203 17.8773 25.7993 17.8773Z"
                                                                                fill="black" stroke="black"
                                                                                stroke-width="0.626185" />
                                                                            <path
                                                                                d="M27.284 16.1903C27.463 16.1903 27.608 16.0439 27.608 15.8632C27.608 15.6826 27.463 15.5361 27.284 15.5361C27.1051 15.5361 26.96 15.6826 26.96 15.8632C26.96 16.0439 27.1051 16.1903 27.284 16.1903Z"
                                                                                fill="black" stroke="black"
                                                                                stroke-width="0.626185" />
                                                                            <path
                                                                                d="M29.0207 17.5331C29.1997 17.5331 29.3447 17.3866 29.3447 17.206C29.3447 17.0253 29.1997 16.8789 29.0207 16.8789C28.8418 16.8789 28.6967 17.0253 28.6967 17.206C28.6967 17.3866 28.8418 17.5331 29.0207 17.5331Z"
                                                                                fill="black" stroke="black"
                                                                                stroke-width="0.626185" />
                                                                            <path
                                                                                d="M30.3795 16.0257C30.5584 16.0257 30.7035 15.8793 30.7035 15.6987C30.7035 15.518 30.5584 15.3716 30.3795 15.3716C30.2005 15.3716 30.0555 15.518 30.0555 15.6987C30.0555 15.8793 30.2005 16.0257 30.3795 16.0257Z"
                                                                                fill="black" stroke="black"
                                                                                stroke-width="0.626185" />
                                                                            <path
                                                                                d="M31.2747 18.0804C31.4537 18.0804 31.5987 17.934 31.5987 17.7534C31.5987 17.5727 31.4537 17.4263 31.2747 17.4263C31.0958 17.4263 30.9507 17.5727 30.9507 17.7534C30.9507 17.934 31.0958 18.0804 31.2747 18.0804Z"
                                                                                fill="black" stroke="black"
                                                                                stroke-width="0.626185" />
                                                                            <path
                                                                                d="M32.9368 16.6012C33.1158 16.6012 33.2608 16.4548 33.2608 16.2741C33.2608 16.0935 33.1158 15.947 32.9368 15.947C32.7579 15.947 32.6128 16.0935 32.6128 16.2741C32.6128 16.4548 32.7579 16.6012 32.9368 16.6012Z"
                                                                                fill="black" stroke="black"
                                                                                stroke-width="0.626185" />
                                                                        </svg>