 <svg xmlns="http://www.w3.org/2000/svg" width="51"
                                                                        height="43" viewBox="0 0 51 43" fill="none">
                                                                        <path
                                                                            d="M0.702116 32.0269C0.397081 22.0168 1.0728 20.1318 3.15495 18.5702C5.09486 17.1152 6.06488 16.6302 10.9147 16.1452C15.7646 15.6602 19.888 17.0117 20.1294 6.93052M32.1226 6.16748C32.2843 8.5924 31.5665 13.9531 39.0438 15.6602C46.3839 17.3361 48.2585 18.0852 49.7135 20.9951C50.2648 22.0976 50.5843 30.4232 50.1963 33.1391"
                                                                            stroke="black" stroke-width="0.699315"
                                                                            stroke-linecap="round" />
                                                                        <path
                                                                            d="M24.3101 11.7288C24.4028 12.9337 24.9005 16.4215 23.754 17.568C22.3637 18.9583 16.2464 18.6802 14.8561 18.4021M29.5932 18.6802C29.5932 18.4021 29.9825 17.7904 31.5396 17.568C33.0967 17.3455 35.5251 17.4753 36.5447 17.568"
                                                                            stroke="black" stroke-width="0.699315"
                                                                            stroke-linecap="round" />
                                                                        <path
                                                                            d="M9.06426 38.1441V31.7488C8.97157 32.6756 9.06418 35.9196 10.9633 37.588"
                                                                            stroke="black" stroke-width="0.699315"
                                                                            stroke-linecap="round" />
                                                                        <path
                                                                            d="M42.491 31.7488C43.0829 34.07 43.5563 39.3216 40.7155 41.7589"
                                                                            stroke="black" stroke-width="0.699315"
                                                                            stroke-linecap="round" />
                                                                        <path fill-rule="evenodd" clip-rule="evenodd"
                                                                            d="M38.0458 7.43333C35.1685 7.43333 32.8366 10.241 32.8366 13.7041C32.8366 10.241 30.5046 7.43333 27.6274 7.43333C30.5046 7.43333 32.8366 4.62569 32.8366 1.16255C32.8366 4.62569 35.1685 7.43333 38.0458 7.43333Z"
                                                                            fill="white" stroke="#333333"
                                                                            stroke-width="0.699315"
                                                                            stroke-miterlimit="2.61313"
                                                                            stroke-linecap="round"
                                                                            stroke-linejoin="round" />
                                                                        <path fill-rule="evenodd" clip-rule="evenodd"
                                                                            d="M42.8732 11.8654C41.3708 11.8654 40.1526 13.4258 40.1526 15.3459C40.1526 13.4258 38.9344 11.8654 37.432 11.8654C38.9344 11.8654 40.1526 10.305 40.1526 8.38487C40.1526 10.305 41.3708 11.8654 42.8732 11.8654Z"
                                                                            fill="white" stroke="#333333"
                                                                            stroke-width="0.699315"
                                                                            stroke-miterlimit="2.61313"
                                                                            stroke-linecap="round"
                                                                            stroke-linejoin="round" />
                                                                        <path fill-rule="evenodd" clip-rule="evenodd"
                                                                            d="M12.2385 19.283C10.8766 19.283 9.77227 20.6438 9.77227 22.3184C9.77227 20.6438 8.66798 19.283 7.30602 19.283C8.66798 19.283 9.77227 17.9221 9.77227 16.2476C9.77227 17.9221 10.8766 19.283 12.2385 19.283Z"
                                                                            fill="white" stroke="#333333"
                                                                            stroke-width="0.699315"
                                                                            stroke-miterlimit="2.61313"
                                                                            stroke-linecap="round"
                                                                            stroke-linejoin="round" />
                                                                    </svg>