 <svg xmlns="http://www.w3.org/2000/svg"
                                                                            width="39" height="35" viewBox="0 0 39 35"
                                                                            fill="none">
                                                                            <path
                                                                                d="M10.0871 26.5124C4.62141 18.9772 2.7995 1.61343 19.5611 1.39502C36.2012 1.50423 34.3793 18.9772 28.9136 26.5124C23.5693 33.8292 15.4314 33.8292 10.0871 26.5124Z"
                                                                                stroke="black" stroke-width="0.73"
                                                                                stroke-miterlimit="2.6131"
                                                                                stroke-linecap="round"
                                                                                stroke-linejoin="round" />
                                                                            <path
                                                                                d="M21.2616 13.4076C21.2616 13.4076 21.2616 11.9879 23.5694 11.3327C25.8771 10.6774 29.5209 10.8958 29.5209 12.5339C29.5209 14.172 26.12 15.4825 24.0552 15.4825C22.1118 15.3733 21.2616 13.7352 21.2616 13.4076Z"
                                                                                stroke="black" stroke-width="0.73"
                                                                                stroke-miterlimit="2.6131"
                                                                                stroke-linecap="round"
                                                                                stroke-linejoin="round" />
                                                                            <path
                                                                                d="M19.4379 27.0585C19.4379 27.0585 14.8224 26.8401 13.4863 24.0008C13.4863 24.0008 14.9439 22.6903 16.6443 22.9087C18.3448 23.2363 18.7091 23.4547 19.4379 23.4547C20.1667 23.4547 20.531 23.2363 22.2315 22.9087C23.9319 22.5811 25.3895 24.0008 25.3895 24.0008C24.1749 26.8401 19.4379 27.0585 19.4379 27.0585Z"
                                                                                stroke="black" stroke-width="0.73"
                                                                                stroke-miterlimit="2.6131"
                                                                                stroke-linecap="round"
                                                                                stroke-linejoin="round" />
                                                                            <path
                                                                                d="M15.9164 19.0864C18.71 20.2877 20.046 20.2877 22.9611 19.0864"
                                                                                stroke="black" stroke-width="0.73"
                                                                                stroke-miterlimit="2.6131"
                                                                                stroke-linecap="round"
                                                                                stroke-linejoin="round" />
                                                                            <path
                                                                                d="M17.6186 13.4076C17.6186 13.4076 17.6186 11.9879 15.3108 11.3327C13.0031 10.6774 9.35925 10.8958 9.35925 12.5339C9.35925 14.172 12.7602 15.4825 14.825 15.4825C16.8898 15.3733 17.6186 13.7352 17.6186 13.4076Z"
                                                                                stroke="black" stroke-width="0.73"
                                                                                stroke-miterlimit="2.6131"
                                                                                stroke-linecap="round"
                                                                                stroke-linejoin="round" />
                                                                        </svg>