 <svg xmlns="http://www.w3.org/2000/svg"
                                                                            width="25" height="26" viewBox="0 0 25 26"
                                                                            fill="none">
                                                                            <rect x="2.43274" y="7.16662"
                                                                                width="7.29487" height="14.943"
                                                                                rx="0.540372" stroke="black"
                                                                                stroke-width="0.831294" />
                                                                            <rect x="0.998899" y="22.4629"
                                                                                width="10.1629" height="2.51477"
                                                                                rx="0.692745" stroke="black"
                                                                                stroke-width="0.831294" />
                                                                            <rect x="20.0616" y="16.1918"
                                                                                width="4.06308" height="0.717014"
                                                                                rx="0.358507" stroke="black"
                                                                                stroke-width="0.717014" />
                                                                            <path
                                                                                d="M9.90453 8.18501L20.8826 10.2318C22.6931 10.5693 24.0058 12.1494 24.0058 13.9911V15.1161H20.4252C20.2907 15.1161 20.1817 15.0071 20.1817 14.8727V14.8727C20.1817 14.3436 19.7594 13.9113 19.2305 13.899L9.90453 13.6821M3.2124 5.79496V5.39708C3.2124 4.24312 4.0369 3.25395 5.17199 3.04611L19.3818 0.444316C19.8356 0.361223 20.2784 0.636174 20.4051 1.07978V1.07978C20.5444 1.56705 20.2523 2.07275 19.7607 2.19566L9.91167 4.6579C9.48608 4.7643 9.18752 5.14669 9.18752 5.58538V5.79496H3.2124Z"
                                                                                stroke="black"
                                                                                stroke-width="0.831294" />
                                                                        </svg>