 <svg xmlns="http://www.w3.org/2000/svg"
                                                                            width="35" height="32" viewBox="0 0 35 32"
                                                                            fill="none">
                                                                            <path
                                                                                d="M21.6786 27.0216C20.4992 27.6157 19.1613 27.95 17.7488 27.95C12.9238 27.95 9.01257 24.0555 9.01257 19.2512C9.01257 19.047 9.01723 18.8474 9.03122 18.6478C9.03122 18.6478 8.45316 14.8972 17.7488 1.43604C26.3544 13.9085 26.4943 18.0397 26.4663 18.5828"
                                                                                stroke="black" stroke-width="0.75"
                                                                                stroke-miterlimit="2.61313"
                                                                                stroke-linecap="round"
                                                                                stroke-linejoin="round" />
                                                                            <path
                                                                                d="M18.2758 24.0045C15.1431 24.0045 12.6071 21.4794 12.6071 18.3601"
                                                                                stroke="black" stroke-width="0.75"
                                                                                stroke-miterlimit="2.61313"
                                                                                stroke-linecap="round"
                                                                                stroke-linejoin="round" />
                                                                            <path
                                                                                d="M6.05843 10.6921C8.74634 10.6921 10.9253 8.52242 10.9253 5.84603C10.9253 3.16964 8.74634 1 6.05843 1C3.37051 1 1.19153 3.16964 1.19153 5.84603C1.19153 8.52242 3.37051 10.6921 6.05843 10.6921Z"
                                                                                stroke="black" stroke-width="0.75"
                                                                                stroke-miterlimit="2.61313"
                                                                                stroke-linecap="round"
                                                                                stroke-linejoin="round" />
                                                                            <path
                                                                                d="M6.25468 8.209C4.83283 8.209 3.68604 7.06247 3.68604 5.65137"
                                                                                stroke="black" stroke-width="0.75"
                                                                                stroke-miterlimit="2.61313"
                                                                                stroke-linecap="round"
                                                                                stroke-linejoin="round" />
                                                                            <path
                                                                                d="M27.5292 31.0001C30.9972 31.0001 33.8086 28.2008 33.8086 24.7476C33.8086 21.2945 30.9972 18.4951 27.5292 18.4951C24.0611 18.4951 21.2498 21.2945 21.2498 24.7476C21.2498 28.2008 24.0611 31.0001 27.5292 31.0001Z"
                                                                                stroke="black" stroke-width="0.75"
                                                                                stroke-miterlimit="2.61313"
                                                                                stroke-linecap="round"
                                                                                stroke-linejoin="round" />
                                                                            <path fill-rule="evenodd"
                                                                                clip-rule="evenodd"
                                                                                d="M27.1663 21.596V21.1133C27.1663 20.9044 27.2781 20.7837 27.4926 20.7837H27.5579C27.7583 20.7837 27.8749 20.8765 27.8749 21.0808V21.5821C28.3317 21.6192 28.7559 21.7677 29.1335 22.0277C29.306 22.1391 29.3153 22.3062 29.2268 22.4779L29.1149 22.6961C28.9983 22.8911 28.8259 22.905 28.6441 22.7889C28.3224 22.5847 27.9634 22.4547 27.5765 22.4547C27.087 22.4547 26.5229 22.7425 26.5229 23.2903C26.5229 24.4368 29.5065 24.2093 29.5065 26.1775C29.5065 27.1383 28.8026 27.7882 27.8749 27.9135V28.3777C27.8749 28.5819 27.7723 28.7119 27.5579 28.7119H27.4926C27.2968 28.7119 27.1663 28.6144 27.1663 28.4102V27.9135C26.6162 27.8531 26.122 27.6443 25.6885 27.3054C25.5253 27.1801 25.5067 27.0037 25.6372 26.8459L25.7771 26.6463C25.9076 26.4652 26.0707 26.4699 26.2526 26.5859C26.6255 26.8644 27.073 27.0455 27.5439 27.0455C28.0613 27.0455 28.5555 26.767 28.5555 26.2007C28.5555 24.9984 25.5673 25.1795 25.5673 23.3042C25.5673 22.3851 26.2899 21.7399 27.1663 21.596Z"
                                                                                fill="black" />
                                                                        </svg>