 <svg xmlns="http://www.w3.org/2000/svg"
                                                                            width="27" height="26" viewBox="0 0 27 26"
                                                                            fill="none">
                                                                            <path
                                                                                d="M18.9516 12.8057C18.9516 16.1368 18.3079 19.1346 17.2834 21.286C16.2459 23.4646 14.8841 24.6554 13.5003 24.6554C12.1164 24.6554 10.7546 23.4646 9.71713 21.286C8.69265 19.1346 8.04894 16.1368 8.04894 12.8057C8.04894 9.47462 8.69265 6.4768 9.71713 4.3254C10.7546 2.14675 12.1164 0.955986 13.5003 0.955986C14.8841 0.955986 16.2459 2.14675 17.2834 4.3254C18.3079 6.4768 18.9516 9.47462 18.9516 12.8057Z"
                                                                                stroke="black"
                                                                                stroke-width="0.730819" />
                                                                            <path
                                                                                d="M10.7748 17.5258C7.88999 15.8603 5.61566 13.8039 4.26473 11.841C2.89669 9.85323 2.54636 8.07847 3.23829 6.88001C3.93022 5.68156 5.64237 5.09757 8.04786 5.28844C10.4233 5.47691 13.3413 6.41835 16.2261 8.08389C19.1109 9.74943 21.3852 11.8058 22.7362 13.7687C24.1042 15.7565 24.4545 17.5313 23.7626 18.7297C23.0707 19.9282 21.3585 20.5122 18.953 20.3213C16.5776 20.1328 13.6596 19.1914 10.7748 17.5258Z"
                                                                                stroke="black"
                                                                                stroke-width="0.730819" />
                                                                            <path
                                                                                d="M10.7739 8.0852C13.6587 6.41966 16.5767 5.47822 18.9521 5.28975C21.3576 5.09888 23.0698 5.68287 23.7617 6.88133C24.4536 8.07978 24.1033 9.85454 22.7353 11.8423C21.3843 13.8052 19.11 15.8616 16.2252 17.5272C13.3404 19.1927 10.4224 20.1341 8.04697 20.3226C5.64148 20.5135 3.92934 19.9295 3.23741 18.731C2.54548 17.5326 2.8958 15.7578 4.26384 13.77C5.61477 11.8071 7.8891 9.75074 10.7739 8.0852Z"
                                                                                stroke="black"
                                                                                stroke-width="0.730819" />
                                                                        </svg>