 <svg xmlns="http://www.w3.org/2000/svg"
                                                                            width="27" height="30" viewBox="0 0 27 30"
                                                                            fill="none">
                                                                            <path
                                                                                d="M14.6797 16.9794C14.6797 20.5591 11.6056 23.496 7.76883 23.496C3.9321 23.496 0.85791 20.5591 0.85791 16.9794C0.85791 16.0933 1.13262 14.9462 1.60719 13.6266C2.07935 12.3137 2.73829 10.8594 3.48269 9.36798C4.56856 7.19241 5.82495 4.95958 6.93424 2.98816C7.21957 2.48108 7.49517 1.99129 7.75563 1.52422C8.12875 2.23623 8.60075 3.09397 9.1199 4.03736C9.18349 4.15292 9.24779 4.26976 9.3127 4.38778C10.0773 5.77799 10.9311 7.33867 11.7301 8.9078C12.5295 10.4778 13.2705 12.0492 13.8108 13.4602C14.3551 14.8818 14.6797 16.1006 14.6797 16.9794Z"
                                                                                stroke="black" stroke-width="0.75" />
                                                                            <path
                                                                                d="M26.142 26.4137C26.142 28.0418 24.7403 29.3967 22.9669 29.3967C21.1934 29.3967 19.7917 28.0418 19.7917 26.4137C19.7917 26.0154 19.9166 25.4815 20.1455 24.8451C20.372 24.2154 20.6894 23.5142 21.0504 22.7908C21.5772 21.7354 22.1856 20.6542 22.7255 19.6948C22.804 19.5553 22.881 19.4184 22.9561 19.2845C23.1053 19.5617 23.2752 19.8705 23.456 20.1991C23.4873 20.2558 23.5188 20.3131 23.5506 20.371C23.9232 21.0484 24.3379 21.8065 24.7256 22.568C25.1139 23.3305 25.4715 24.0893 25.7313 24.7677C25.9951 25.4566 26.142 26.0227 26.142 26.4137Z"
                                                                                stroke="black" stroke-width="0.75" />
                                                                        </svg>