  <svg xmlns="http://www.w3.org/2000/svg"
                                                                            width="29" height="44" viewBox="0 0 29 44"
                                                                            fill="none">
                                                                            <path
                                                                                d="M20.0083 42.7452C24.7955 42.7452 28.6762 38.8644 28.6762 34.0773C28.6762 29.2901 24.7955 25.4093 20.0083 25.4093C15.2211 25.4093 11.3403 29.2901 11.3403 34.0773C11.3403 38.8644 15.2211 42.7452 20.0083 42.7452Z"
                                                                                fill="white" stroke="black"
                                                                                stroke-width="0.574858"
                                                                                stroke-miterlimit="2.61313"
                                                                                stroke-linecap="round"
                                                                                stroke-linejoin="round" />
                                                                            <path d="M20.27 27.7411V34.1478H26.5107"
                                                                                stroke="black" stroke-width="0.574858"
                                                                                stroke-miterlimit="2.61313"
                                                                                stroke-linecap="round"
                                                                                stroke-linejoin="round" />
                                                                            <path
                                                                                d="M12.7178 38.4024C8.38063 38.8814 1.29041 38.5301 0.977415 37.3548V17.2467C0.977415 17.2467 0.913538 16.1799 2.4785 15.7584L3.76879 15.6498H8.4956H13.2224L14.5127 15.7584C16.0841 16.1799 16.0138 17.2467 16.0138 17.2467V26.5981"
                                                                                stroke="black" stroke-width="0.574858"
                                                                                stroke-miterlimit="2.61313" />
                                                                            <path
                                                                                d="M11.2931 24.1835V23.6406H11.7658L11.7722 23.6342C11.7083 23.6023 11.6444 23.5639 11.5806 23.5192C11.5167 23.4745 11.4592 23.4234 11.4081 23.3659C11.357 23.3084 11.3123 23.2382 11.2803 23.1615C11.2484 23.0849 11.2292 23.0018 11.2292 22.906C11.2292 22.7144 11.2995 22.5675 11.4336 22.4653C11.5678 22.3631 11.7466 22.3184 11.9702 22.3184H13.4521V22.8869H12.0021C11.8744 22.8869 11.7722 22.9188 11.7019 22.9763C11.6317 23.0338 11.5933 23.1232 11.5933 23.2318C11.5933 23.3276 11.6189 23.4043 11.67 23.4681C11.7211 23.532 11.7786 23.5831 11.8552 23.6214H13.4521V24.1899H11.2995L11.2931 24.1835ZM13.4777 28.048V27.9586H13.5096V28.1822H13.4777V28.0927H13.2413V28.0544H13.4777V28.048ZM13.2413 28.4696H13.4394L13.2797 28.3738V28.3546L13.4394 28.2588H13.2477V28.2205H13.516V28.2524L13.3244 28.3674L13.516 28.476V28.5079H13.2477V28.4696H13.2413ZM13.4649 25.6718C13.4266 25.6016 13.3819 25.5313 13.3308 25.4738C13.2797 25.41 13.2222 25.3525 13.1583 25.3014C13.1008 25.2503 13.0497 25.2056 13.005 25.1672H13.4457V24.5987H12.2129H11.2931V25.1736H12.9092C12.9603 25.2183 12.9986 25.2567 13.0305 25.3014C13.0561 25.3461 13.0753 25.3844 13.0753 25.4227C13.0753 25.4483 13.0689 25.4802 13.0625 25.5185C13.0497 25.5569 13.0369 25.5952 13.0242 25.6399C13.005 25.6782 12.9858 25.7166 12.9667 25.7549C12.9411 25.7932 12.9156 25.8251 12.89 25.8443V25.889H13.5288C13.5288 25.806 13.516 25.7485 13.4777 25.6782L13.4649 25.6718ZM10.8652 22.0245C10.8652 21.7946 10.846 21.5774 10.8077 21.3858C10.7693 21.1878 10.7119 21.0217 10.6288 20.8812C10.5458 20.7406 10.4436 20.6257 10.3158 20.5426C10.1881 20.4596 10.0412 20.4213 9.8623 20.4213V20.3254C9.88786 20.3254 9.90063 20.3254 9.90063 20.3254C10.1114 20.3318 10.3158 20.3765 10.5075 20.4532C10.7119 20.5426 10.8971 20.664 11.0504 20.8173C11.2101 20.9706 11.3314 21.1494 11.4273 21.3538C11.5231 21.5582 11.5678 21.7818 11.5678 22.0245H10.8588H10.8652ZM11.3187 20.3127C11.3187 20.4915 11.357 20.6384 11.44 20.7662C11.5231 20.8939 11.6317 20.9961 11.7786 21.0792C11.9191 21.1622 12.0916 21.2197 12.2896 21.258C12.4876 21.2963 12.6984 21.3155 12.9347 21.3155C13.1647 21.3155 13.3819 21.2963 13.5799 21.258C13.7779 21.2197 13.944 21.1622 14.0909 21.0792C14.2314 20.9961 14.3464 20.8939 14.4294 20.7662C14.5125 20.6384 14.5508 20.4915 14.5508 20.3127C14.5508 20.1338 14.5125 19.9869 14.4294 19.8591C14.3464 19.7314 14.2314 19.6292 14.0909 19.5462C13.944 19.4631 13.7779 19.4056 13.5799 19.3673C13.3819 19.329 13.1711 19.3098 12.9411 19.3098C12.7112 19.3098 12.5004 19.329 12.3024 19.3673C12.1043 19.4056 11.9383 19.4631 11.7914 19.5462C11.6508 19.6292 11.5359 19.7314 11.4528 19.8591C11.3698 19.9869 11.3314 20.1338 11.3314 20.3127H11.3187ZM11.2292 20.1849C11.242 20.0061 11.2867 19.8272 11.357 19.6675C11.4464 19.4631 11.5678 19.2779 11.7211 19.1246C11.8744 18.9713 12.0532 18.8435 12.2576 18.7477C12.4621 18.6519 12.6856 18.6072 12.9283 18.6072C13.1647 18.6072 13.3883 18.6519 13.599 18.7477C13.8034 18.8435 13.9887 18.9649 14.142 19.1246C14.2953 19.2779 14.4167 19.4631 14.5061 19.6675C14.5955 19.8719 14.6402 20.0891 14.6402 20.3127C14.6402 20.5362 14.5955 20.7534 14.5061 20.9578C14.4167 21.1622 14.2953 21.3475 14.142 21.5008C13.9887 21.6604 13.8034 21.7818 13.599 21.8776C13.3946 21.9734 13.1711 22.0181 12.9283 22.0181C12.692 22.0181 12.4684 21.9734 12.2576 21.8776C12.0532 21.7818 11.868 21.6604 11.7211 21.5008C11.5678 21.3411 11.4464 21.1622 11.357 20.9578C11.274 20.7662 11.2356 20.5618 11.2292 20.351C11.2292 20.351 11.2292 20.2424 11.2356 20.1785L11.2292 20.1849ZM12.6856 26.5022C12.7878 26.5086 12.8836 26.5214 12.9731 26.5469C13.0625 26.5661 13.1391 26.598 13.2094 26.6364C13.2797 26.6747 13.3308 26.7194 13.3691 26.7769C13.4074 26.8344 13.4266 26.8983 13.4266 26.9685C13.4266 27.0835 13.3755 27.1729 13.2797 27.2368C13.1838 27.3007 12.9539 27.3262 12.7367 27.3262H12.5962L12.2257 26.5469C12.3343 26.515 12.4493 26.5022 12.5962 26.5022H12.6856ZM11.9191 27.8628C11.8488 27.8053 11.785 27.7223 11.7339 27.6264C11.6828 27.5242 11.6572 27.4029 11.6572 27.2624C11.6572 27.1538 11.6764 27.0516 11.7083 26.9558C11.7403 26.8599 11.7977 26.7833 11.8744 26.713C11.9447 26.6491 12.0341 26.6044 12.1427 26.5661L12.7367 27.8692C12.7367 27.8692 12.9539 27.8628 13.2222 27.6648C13.318 27.5945 13.3755 27.4859 13.433 27.3773C13.4905 27.2624 13.516 27.1346 13.516 26.9941C13.516 26.8599 13.4905 26.7258 13.433 26.598C13.3755 26.4703 13.2988 26.3553 13.1902 26.2595C13.088 26.1637 12.9603 26.0807 12.8198 26.0232C12.6728 25.9657 12.5132 25.9337 12.3343 25.9337C12.181 25.9337 12.0341 25.9593 11.8999 26.0104C11.7658 26.0615 11.6508 26.1318 11.5486 26.2212C11.4464 26.3106 11.3698 26.4192 11.3123 26.5469C11.2548 26.6747 11.2292 26.8152 11.2292 26.9749C11.2292 27.2176 11.2931 27.422 11.4209 27.5753C11.5486 27.7286 11.7147 27.8372 11.9127 27.9011L11.9255 27.8756L11.9191 27.8628Z"
                                                                                fill="black" />
                                                                            <path fill-rule="evenodd"
                                                                                clip-rule="evenodd"
                                                                                d="M7.93342 21.9987H7.93981C7.97175 22.0242 8.00369 22.0434 8.02924 22.0625C8.05479 22.0753 8.08034 22.0881 8.10589 22.1009C8.13144 22.1072 8.16338 22.1136 8.18893 22.12C8.22087 22.1264 8.2528 22.1264 8.29752 22.1264H9.26843C9.30037 22.1264 9.32592 22.12 9.34508 22.1136C9.37063 22.1072 9.38979 22.1009 9.40896 22.0881C9.42812 22.0753 9.44728 22.0625 9.46644 22.0434C9.48561 22.0242 9.50477 22.005 9.52393 21.9795H9.53032V22.2925L8.21448 22.8865L9.53032 23.4678V23.7616H9.52393C9.50477 23.7297 9.47922 23.7105 9.46006 23.6914C9.44089 23.6722 9.41534 23.6594 9.39618 23.6467C9.37063 23.6339 9.34508 23.6275 9.31953 23.6211C9.28759 23.6147 9.25566 23.6147 9.21733 23.6147H8.27197C8.23364 23.6147 8.2017 23.6147 8.17615 23.6211C8.1506 23.6211 8.12505 23.6275 8.0995 23.6339C8.07395 23.6403 8.05479 23.6467 8.02924 23.6594C8.00369 23.6722 7.97814 23.685 7.95259 23.7041H7.9462V23.3528H7.95259C7.97814 23.372 8.00369 23.3848 8.02924 23.3975C8.05479 23.4103 8.07395 23.4167 8.0995 23.4231C8.12505 23.4295 8.1506 23.4359 8.17615 23.4359C8.2017 23.4359 8.24003 23.4422 8.27197 23.4422H9.35786L7.98453 22.8354V22.7971L9.36424 22.1711L8.29752 22.1775C8.25919 22.1775 8.22087 22.1775 8.18893 22.1839C8.15699 22.1903 8.13144 22.1967 8.10589 22.2094C8.08034 22.2222 8.05479 22.235 8.02924 22.2542C8.00369 22.2733 7.97175 22.2989 7.93981 22.3308H7.93342V21.9987ZM9.36424 24.1321C9.33231 24.1321 9.30675 24.1193 9.28759 24.1002C9.26843 24.081 9.25565 24.0555 9.25565 24.0235C9.25565 23.9916 9.26843 23.9724 9.28759 23.9469C9.30675 23.9277 9.33231 23.9149 9.36424 23.9149C9.39618 23.9149 9.41534 23.9277 9.4409 23.9469C9.46006 23.966 9.47283 23.9916 9.47283 24.0235C9.47283 24.0555 9.46006 24.0746 9.4409 24.1002C9.42173 24.1193 9.39618 24.1321 9.36424 24.1321ZM7.93981 23.9085C7.98453 23.9277 8.03563 23.9405 8.08673 23.9469C8.13783 23.9533 8.19532 23.9596 8.27197 23.9596H8.67438C8.72549 23.9596 8.7702 23.9469 8.80852 23.9277C8.84046 23.9085 8.8724 23.883 8.89156 23.8638H8.89795L9.01293 24.1193H8.27197C8.19532 24.1193 8.13144 24.1193 8.08673 24.1257C8.03563 24.1321 7.99091 24.1449 7.93981 24.164H7.93342V23.9085H7.93981ZM8.17615 25.2116C8.09311 25.1797 8.02924 25.135 7.97814 25.0647C7.92704 24.9944 7.90149 24.9114 7.90149 24.8028C7.90149 24.7325 7.91426 24.6687 7.93981 24.6112C7.96536 24.5537 7.9973 24.5026 8.04201 24.4579C8.08673 24.4132 8.14422 24.3812 8.20809 24.3621C8.27197 24.3365 8.34862 24.3301 8.42527 24.3301C8.5147 24.3301 8.59135 24.3429 8.66161 24.3748C8.73187 24.4068 8.78936 24.4451 8.84046 24.4962C8.89156 24.5473 8.92989 24.6048 8.95544 24.6687C8.98099 24.7325 8.99376 24.8028 8.99376 24.8731C8.99376 24.9433 8.98738 25.0072 8.96821 25.0519C8.95544 25.0966 8.93628 25.135 8.92989 25.1605L8.70632 25.1797L8.69994 25.1605C8.73187 25.1413 8.76381 25.1158 8.79575 25.0966C8.82769 25.0711 8.85324 25.0455 8.8724 25.02C8.89156 24.9944 8.91072 24.9625 8.9235 24.9306C8.93628 24.8986 8.94266 24.8667 8.94266 24.8347C8.94266 24.7262 8.90434 24.6431 8.8213 24.5792C8.73826 24.5154 8.62967 24.4834 8.48276 24.4834C8.34223 24.4834 8.23364 24.5154 8.1506 24.5792C8.06756 24.6431 8.02924 24.7389 8.02924 24.8603C8.02924 24.9242 8.04201 24.9817 8.06118 25.0391C8.08034 25.0966 8.11866 25.1477 8.16976 25.1861L8.16338 25.1988L8.17615 25.2116ZM7.93981 25.4096C7.96536 25.4224 7.98452 25.4288 8.01008 25.4352C8.03563 25.4416 8.05479 25.448 8.08673 25.448C8.11228 25.448 8.13783 25.4543 8.16976 25.4543C8.2017 25.4543 8.23364 25.4543 8.27197 25.4543H8.68077C8.73826 25.4543 8.78297 25.4416 8.81491 25.4224C8.84685 25.4032 8.87879 25.3777 8.89795 25.3585H8.90434L9.01931 25.6013H8.75742V25.614C8.78297 25.6396 8.80852 25.6587 8.84046 25.6843C8.8724 25.7098 8.89795 25.7354 8.9235 25.7673C8.94905 25.7929 8.96821 25.8248 8.98738 25.8568C9.00654 25.8887 9.01293 25.9206 9.01293 25.959H8.79575V25.9526C8.80214 25.9462 8.80852 25.9334 8.81491 25.9206C8.8213 25.9079 8.82769 25.8887 8.82769 25.8759C8.83407 25.8568 8.83407 25.844 8.84046 25.8248C8.84046 25.812 8.84685 25.7929 8.84685 25.7801C8.84685 25.7609 8.83407 25.7354 8.80852 25.7035C8.78297 25.6715 8.75104 25.6396 8.71271 25.614H8.28474C8.20809 25.614 8.14422 25.614 8.0995 25.6204C8.0484 25.6268 8.00369 25.6396 7.95259 25.6587H7.9462V25.4032H7.95259L7.93981 25.4096ZM7.90149 26.6041C7.90149 26.5275 7.91426 26.4572 7.9462 26.3933C7.97814 26.3294 8.01646 26.2719 8.06756 26.2208C8.11866 26.1697 8.17615 26.1314 8.24003 26.1059C8.3039 26.0739 8.37417 26.0612 8.45082 26.0612C8.52747 26.0612 8.59773 26.0739 8.66161 26.1059C8.72548 26.1378 8.78936 26.1761 8.83407 26.2272C8.88517 26.2783 8.9235 26.3358 8.95544 26.3997C8.98738 26.4636 9.00015 26.5338 9.00015 26.6105C9.00015 26.6871 8.98738 26.7574 8.95544 26.8213C8.9235 26.8852 8.88517 26.9426 8.83407 26.9937C8.78297 27.0448 8.72548 27.0832 8.66161 27.1087C8.59773 27.1407 8.52108 27.1534 8.45082 27.1534C8.37417 27.1534 8.3039 27.1407 8.24003 27.1087C8.17615 27.0768 8.11866 27.0385 8.06756 26.9937C8.01646 26.9426 7.97814 26.8852 7.9462 26.8213C7.91426 26.7574 7.90149 26.6871 7.90149 26.6105V26.6041ZM7.93981 26.6041C7.93981 26.668 7.95259 26.7191 7.97814 26.7638C8.00369 26.8085 8.04201 26.8468 8.08673 26.8788C8.13144 26.9107 8.18893 26.9299 8.24642 26.949C8.31029 26.9618 8.37417 26.9682 8.43804 26.9682C8.50831 26.9682 8.57218 26.9618 8.62967 26.9426C8.69355 26.9299 8.74465 26.9043 8.78936 26.8724C8.83407 26.8404 8.8724 26.8021 8.90434 26.7574C8.92989 26.7127 8.94266 26.6616 8.94266 26.5977C8.94266 26.5338 8.92989 26.4827 8.90434 26.438C8.87879 26.3933 8.84046 26.355 8.78936 26.323C8.74465 26.2911 8.68716 26.2719 8.62967 26.2528C8.5658 26.24 8.50192 26.2272 8.43804 26.2272C8.36778 26.2272 8.3039 26.2336 8.24642 26.2464C8.18254 26.2592 8.13144 26.2847 8.08673 26.3167C8.04201 26.3486 8.00369 26.3869 7.97814 26.4316C7.95259 26.4764 7.93981 26.5275 7.93981 26.5913V26.6041ZM7.93342 27.6708C7.95898 27.69 7.98452 27.7028 8.01008 27.7155C8.03563 27.7283 8.05479 27.7347 8.08034 27.7411C8.10589 27.7475 8.13144 27.7539 8.15699 27.7539C8.18254 27.7539 8.21448 27.7603 8.2528 27.7603H9.19178C9.2301 27.7603 9.26204 27.7603 9.28759 27.7539C9.31314 27.7539 9.33869 27.7475 9.36424 27.7411C9.38979 27.7347 9.40896 27.7283 9.43451 27.7155C9.46006 27.7028 9.48561 27.69 9.51116 27.6708H9.51755V28.0221H9.51116C9.48561 28.003 9.46006 27.9902 9.43451 27.9774C9.40896 27.9647 9.38979 27.9583 9.36424 27.9519C9.33869 27.9455 9.31314 27.9391 9.28759 27.9391C9.26204 27.9391 9.2301 27.9327 9.19178 27.9327H8.2528C8.21448 27.9327 8.18254 27.9327 8.15699 27.9391C8.13144 27.9391 8.10589 27.9455 8.08034 27.9519C8.05479 27.9583 8.03563 27.9647 8.01008 27.9774C7.98452 27.9902 7.95898 28.003 7.93342 28.0221H7.92704V27.6708H7.93342ZM7.92704 28.4757V28.2202H7.93342C7.95898 28.2329 7.97814 28.2393 8.00369 28.2457C8.02924 28.2521 8.0484 28.2585 8.08034 28.2585C8.10589 28.2585 8.13144 28.2649 8.16338 28.2649C8.19532 28.2649 8.22725 28.2649 8.26558 28.2649H8.67438C8.73187 28.2649 8.77659 28.2521 8.80852 28.2329C8.84046 28.2138 8.8724 28.1882 8.89156 28.1691H8.89795L9.01293 28.4118H8.80852V28.4182C8.8724 28.4693 8.91711 28.5268 8.94905 28.5906C8.98099 28.6545 9.00015 28.7184 9.00015 28.795C9.00015 28.8972 8.9746 28.9739 8.91711 29.025C8.85962 29.0761 8.78297 29.1017 8.68716 29.1017H8.27197C8.23364 29.1017 8.19532 29.1017 8.16976 29.1017C8.13783 29.1017 8.11228 29.1016 8.08673 29.108C8.06118 29.108 8.03563 29.1144 8.01008 29.1208C7.98452 29.1272 7.96536 29.1336 7.93981 29.1464H7.93342V28.8909H7.93981C7.98453 28.91 8.03563 28.9228 8.08673 28.9292C8.13783 28.9356 8.19532 28.9356 8.27197 28.9356H8.64883C8.68077 28.9356 8.71271 28.9292 8.74465 28.9228C8.77659 28.9164 8.80214 28.9036 8.8213 28.8845C8.84685 28.8653 8.85962 28.8461 8.8724 28.8142C8.88517 28.7823 8.89156 28.7503 8.89156 28.712C8.89156 28.6609 8.87879 28.6098 8.85963 28.5587C8.84046 28.5076 8.80852 28.4565 8.76381 28.4182H8.26558C8.18893 28.4182 8.12505 28.4182 8.08034 28.4246C8.02924 28.431 7.98453 28.4437 7.93342 28.4629H7.92704V28.4757ZM7.93342 29.3891C7.96536 29.4083 7.9973 29.421 8.04201 29.4274C8.08673 29.4338 8.1506 29.4402 8.23364 29.4402H8.9235V29.3061H8.96183V29.4402H9.14707C9.22372 29.4402 9.28759 29.4466 9.34508 29.4657C9.40257 29.4849 9.45367 29.5105 9.492 29.5424C9.53032 29.5743 9.56226 29.6127 9.58781 29.6574C9.60697 29.7021 9.61975 29.7532 9.61975 29.8043C9.61975 29.8362 9.61336 29.8682 9.60697 29.8937C9.60058 29.9193 9.5942 29.9384 9.58781 29.9512L9.38979 29.9767L9.38341 29.964C9.40896 29.9512 9.42812 29.932 9.45367 29.9129C9.47922 29.8937 9.49838 29.8809 9.51755 29.8618C9.53671 29.8426 9.54948 29.8234 9.56226 29.8107C9.57503 29.7915 9.58142 29.7723 9.58142 29.7532C9.58142 29.7085 9.55587 29.6701 9.49838 29.6382C9.4409 29.6063 9.35786 29.5935 9.24288 29.5935H8.96183V29.849H8.9235V29.5935H8.23364C8.1506 29.5935 8.08673 29.5999 8.04201 29.6063C7.9973 29.6127 7.96536 29.6254 7.93342 29.6446H7.92704V29.3827H7.93342V29.3891ZM8.12505 30.6602C8.09311 30.6411 8.06756 30.6155 8.04201 30.5963C8.01646 30.5708 7.99091 30.5452 7.96536 30.5197C7.9462 30.4941 7.92704 30.4622 7.91426 30.4239C7.90149 30.3856 7.8951 30.3472 7.8951 30.3025C7.8951 30.2067 7.92704 30.1364 7.98453 30.0917C8.04201 30.047 8.12505 30.0215 8.22725 30.0215H8.7702C8.81491 30.0215 8.85324 30.0151 8.87879 29.9959C8.91072 29.9767 8.92989 29.9576 8.94905 29.932H8.95544V30.1812H8.25919C8.0995 30.1812 8.01646 30.2514 8.01646 30.3919C8.01646 30.4558 8.02924 30.5069 8.05479 30.5516C8.08034 30.5963 8.11228 30.6283 8.1506 30.6538H8.76381C8.84685 30.6538 8.90434 30.6219 8.94905 30.558H8.95544V30.8135H8.22087C8.17615 30.8135 8.13783 30.8135 8.11228 30.8199C8.08673 30.8263 8.06118 30.8263 8.04201 30.8391C8.02285 30.8455 8.01008 30.8582 7.9973 30.871C7.98453 30.8838 7.97814 30.8966 7.96536 30.9157H7.95897L7.88871 30.673H8.11228L8.12505 30.6602ZM8.73826 31.6758L8.73187 31.6631C8.81491 31.6184 8.8724 31.5673 8.90434 31.5162C8.93628 31.4651 8.94905 31.414 8.94905 31.3629C8.94905 31.299 8.92989 31.2479 8.89795 31.2096C8.86601 31.1712 8.8213 31.1521 8.7702 31.1521C8.73826 31.1521 8.70632 31.1585 8.68716 31.1776C8.66161 31.1904 8.64245 31.2159 8.62967 31.2415C8.61051 31.267 8.59773 31.299 8.57857 31.3309C8.5658 31.3629 8.55302 31.4012 8.53386 31.4395C8.52108 31.4778 8.50192 31.5162 8.48276 31.5545C8.46359 31.5928 8.44443 31.6247 8.41888 31.6503C8.39333 31.6822 8.36139 31.7014 8.32307 31.7206C8.28474 31.7397 8.24003 31.7461 8.18893 31.7461C8.08673 31.7461 8.01646 31.7078 7.95897 31.6375C7.90787 31.5673 7.88232 31.4714 7.88232 31.3501C7.88232 31.2862 7.88871 31.2287 7.90149 31.1776C7.91426 31.1265 7.92704 31.0818 7.9462 31.0435L8.19532 31.0243L8.2017 31.0371C8.10589 31.0818 8.03563 31.1329 7.9973 31.184C7.95259 31.2351 7.93342 31.299 7.93342 31.3756C7.93342 31.4523 7.95259 31.5162 7.9973 31.5545C8.04201 31.5928 8.08673 31.612 8.13783 31.612C8.16977 31.612 8.19532 31.6056 8.22087 31.5928C8.24642 31.58 8.26558 31.5609 8.28474 31.5417C8.3039 31.5162 8.32307 31.4906 8.33584 31.4587C8.34862 31.4267 8.36139 31.3948 8.38056 31.3565C8.39333 31.3181 8.41249 31.2862 8.42527 31.2479C8.44443 31.2096 8.46359 31.1776 8.48914 31.1457C8.51469 31.1137 8.54663 31.0882 8.57857 31.069C8.6169 31.0499 8.65522 31.0371 8.70632 31.0371C8.75742 31.0371 8.80214 31.0499 8.84046 31.069C8.87879 31.0882 8.90434 31.1201 8.92989 31.1521C8.95544 31.184 8.96821 31.2287 8.9746 31.267C8.98099 31.3118 8.98738 31.3565 8.98738 31.4012C8.98738 31.4459 8.98099 31.497 8.9746 31.5417C8.96821 31.5864 8.95544 31.6247 8.94266 31.6567L8.73187 31.6758H8.73826ZM9.35786 32.1166C9.32592 32.1166 9.30037 32.1038 9.28121 32.0847C9.26204 32.0655 9.24927 32.0399 9.24927 32.008C9.24927 31.9761 9.26204 31.9569 9.28121 31.9314C9.30037 31.9122 9.32592 31.8994 9.35786 31.8994C9.38979 31.8994 9.40896 31.9122 9.43451 31.9314C9.45367 31.9505 9.46644 31.9761 9.46644 32.008C9.46644 32.0399 9.45367 32.0591 9.43451 32.0847C9.41534 32.1038 9.38979 32.1166 9.35786 32.1166ZM7.93342 31.893C7.97814 31.9122 8.02924 31.925 8.08034 31.9314C8.13144 31.9377 8.18893 31.9441 8.26558 31.9441H8.668C8.7191 31.9441 8.76381 31.9313 8.80214 31.9122C8.83407 31.893 8.86601 31.8675 8.88517 31.8483H8.89156L9.00654 32.1038H8.26558C8.18893 32.1038 8.12505 32.1038 8.08034 32.1102C8.02924 32.1166 7.98453 32.1294 7.93342 32.1485H7.92704V31.893H7.93342ZM7.8951 32.8512C7.8951 32.7745 7.90787 32.7042 7.93981 32.6404C7.97175 32.5765 8.01008 32.519 8.06118 32.4679C8.11228 32.4168 8.16977 32.3785 8.23364 32.3529C8.29752 32.321 8.36778 32.3082 8.44443 32.3082C8.52108 32.3082 8.59135 32.321 8.65522 32.3529C8.7191 32.3849 8.78297 32.4232 8.82769 32.4743C8.87879 32.5254 8.91711 32.5829 8.94905 32.6468C8.98099 32.7106 8.99376 32.7809 8.99376 32.8575C8.99376 32.9342 8.98099 33.0045 8.94905 33.0683C8.91711 33.1322 8.87879 33.1897 8.82769 33.2408C8.77659 33.2919 8.7191 33.3302 8.65522 33.3558C8.59135 33.3877 8.51469 33.4005 8.44443 33.4005C8.36778 33.4005 8.29752 33.3877 8.23364 33.3558C8.16977 33.3238 8.11228 33.2855 8.06118 33.2408C8.01008 33.1897 7.97175 33.1322 7.93981 33.0683C7.90787 33.0045 7.8951 32.9342 7.8951 32.8575V32.8512ZM7.93342 32.8512C7.93342 32.915 7.9462 32.9661 7.97175 33.0109C7.9973 33.0556 8.03563 33.0939 8.08034 33.1258C8.12505 33.1578 8.18254 33.1769 8.24003 33.1961C8.3039 33.2089 8.36778 33.2153 8.43166 33.2153C8.50192 33.2153 8.5658 33.2089 8.62328 33.1897C8.68716 33.1769 8.73826 33.1514 8.78297 33.1194C8.82769 33.0875 8.86601 33.0492 8.89795 33.0045C8.9235 32.9598 8.93628 32.9087 8.93628 32.8448C8.93628 32.7809 8.9235 32.7298 8.89795 32.6851C8.8724 32.6404 8.83407 32.602 8.78297 32.5701C8.73826 32.5382 8.68077 32.519 8.62328 32.4998C8.55941 32.4871 8.49553 32.4743 8.43166 32.4743C8.36139 32.4743 8.29752 32.4807 8.24003 32.4935C8.17615 32.5062 8.12505 32.5318 8.08034 32.5637C8.03563 32.5957 7.9973 32.634 7.97175 32.6787C7.9462 32.7234 7.93342 32.7745 7.93342 32.8384V32.8512ZM7.92704 33.8285V33.573H7.93342C7.95898 33.5857 7.97814 33.5921 8.00369 33.5985C8.02924 33.6049 8.0484 33.6113 8.08034 33.6113C8.10589 33.6113 8.13144 33.6177 8.16338 33.6177C8.19532 33.6177 8.22725 33.6177 8.26558 33.6177H8.67438C8.73187 33.6177 8.77659 33.6049 8.80852 33.5857C8.84046 33.5666 8.8724 33.541 8.89156 33.5219H8.89795L9.01293 33.7646H8.80852V33.771C8.8724 33.8221 8.91711 33.8796 8.94905 33.9434C8.98099 34.0073 9.00015 34.0712 9.00015 34.1478C9.00015 34.25 8.9746 34.3267 8.91711 34.3778C8.85962 34.4289 8.78297 34.4544 8.68716 34.4544H8.27197C8.23364 34.4544 8.19532 34.4544 8.16976 34.4544C8.13783 34.4544 8.11228 34.4544 8.08673 34.4608C8.06118 34.4608 8.03563 34.4672 8.01008 34.4736C7.98452 34.48 7.96536 34.4864 7.93981 34.4992H7.93342V34.2437H7.93981C7.98453 34.2628 8.03563 34.2756 8.08673 34.282C8.13783 34.2884 8.19532 34.2884 8.27197 34.2884H8.64883C8.68077 34.2884 8.71271 34.282 8.74465 34.2756C8.77659 34.2692 8.80214 34.2564 8.8213 34.2373C8.84685 34.2181 8.85962 34.1989 8.8724 34.167C8.88517 34.1351 8.89156 34.1031 8.89156 34.0648C8.89156 34.0137 8.87879 33.9626 8.85963 33.9115C8.84046 33.8604 8.80852 33.8093 8.76381 33.771H8.26558C8.18893 33.771 8.12505 33.771 8.08034 33.7774C8.02924 33.7837 7.98453 33.7965 7.93342 33.8157H7.92704V33.8285Z"
                                                                                fill="black" />
                                                                            <path fill-rule="evenodd"
                                                                                clip-rule="evenodd"
                                                                                d="M1.01074 10.9032V15.6364H8.49699H15.9832V10.9032C15.1656 10.6349 8.49699 10.6349 8.49699 10.6349C8.49699 10.6349 1.82835 10.6349 1.01074 10.9032Z"
                                                                                stroke="black" stroke-width="0.574858"
                                                                                stroke-miterlimit="2.61313" />
                                                                            <path fill-rule="evenodd"
                                                                                clip-rule="evenodd"
                                                                                d="M2.19088 10.7692C2.19088 9.67056 2.12061 8.06728 2.27391 6.52787C2.47193 4.51578 3.04042 2.61867 4.61177 2.0885H8.46987H12.328C15.113 3.02748 14.7489 8.23974 14.7489 10.7692C12.5835 10.6415 8.49542 10.6415 8.49542 10.6415H8.46987C8.13772 10.6415 4.24768 10.6479 2.19088 10.7692Z"
                                                                                stroke="black" stroke-width="0.574858"
                                                                                stroke-miterlimit="2.61313" />
                                                                            <path
                                                                                d="M2.18604 8.39315C5.74392 7.90769 11.1798 7.90769 14.7313 8.39315"
                                                                                stroke="black" stroke-width="0.574858"
                                                                                stroke-miterlimit="2.61313" />
                                                                            <path d="M2.87451 3.69336H13.8926"
                                                                                stroke="black" stroke-width="0.574858"
                                                                                stroke-miterlimit="2.61313" />
                                                                            <path d="M4.09473 0.913208V8.08008"
                                                                                stroke="black" stroke-width="0.574858"
                                                                                stroke-miterlimit="2.61313"
                                                                                stroke-linecap="round"
                                                                                stroke-linejoin="round" />
                                                                            <path d="M5.84619 0.913208V8.08008"
                                                                                stroke="black" stroke-width="0.574858"
                                                                                stroke-miterlimit="2.61313"
                                                                                stroke-linecap="round"
                                                                                stroke-linejoin="round" />
                                                                            <path d="M7.60156 0.913208V8.08008"
                                                                                stroke="black" stroke-width="0.574858"
                                                                                stroke-miterlimit="2.61313"
                                                                                stroke-linecap="round"
                                                                                stroke-linejoin="round" />
                                                                            <path d="M9.35645 0.913208V8.08008"
                                                                                stroke="black" stroke-width="0.574858"
                                                                                stroke-miterlimit="2.61313"
                                                                                stroke-linecap="round"
                                                                                stroke-linejoin="round" />
                                                                            <path d="M11.1157 0.913208V8.08008"
                                                                                stroke="black" stroke-width="0.574858"
                                                                                stroke-miterlimit="2.61313"
                                                                                stroke-linecap="round"
                                                                                stroke-linejoin="round" />
                                                                            <path d="M12.8638 0.913208V8.08008"
                                                                                stroke="black" stroke-width="0.574858"
                                                                                stroke-miterlimit="2.61313"
                                                                                stroke-linecap="round"
                                                                                stroke-linejoin="round" />
                                                                        </svg>