 <svg xmlns="http://www.w3.org/2000/svg" width="58"
                                                                        height="53" viewBox="0 0 58 53" fill="none">
                                                                        <path
                                                                            d="M21.0921 18.3601C21.617 18.3601 22.0425 17.9346 22.0425 17.4096C22.0425 16.8847 21.617 16.4592 21.0921 16.4592C20.5671 16.4592 20.1416 16.8847 20.1416 17.4096C20.1416 17.9346 20.5671 18.3601 21.0921 18.3601Z"
                                                                            fill="black" />
                                                                        <path
                                                                            d="M20.4403 17.3089C20.6428 17.3089 20.8069 17.1448 20.8069 16.9423C20.8069 16.7398 20.6428 16.5757 20.4403 16.5757C20.2379 16.5757 20.0737 16.7398 20.0737 16.9423C20.0737 17.1448 20.2379 17.3089 20.4403 17.3089Z"
                                                                            fill="white" />
                                                                        <path fill-rule="evenodd" clip-rule="evenodd"
                                                                            d="M24.8879 18.5991C25.9605 18.443 23.3332 16.8679 23.211 16.7796C22.6271 16.3655 21.8599 16.1075 21.0385 16.0668C19.1782 15.9717 18.3907 16.7389 17.0601 17.7844C17.0601 17.7844 17.5557 17.7165 18.092 18.3072C18.6283 18.8978 20.6922 19.6039 22.4845 19.1694C24.2768 18.7349 24.9014 18.6059 24.9014 18.6059L24.8879 18.5991Z"
                                                                            stroke="black" stroke-width="0.7"
                                                                            stroke-miterlimit="2.61313"
                                                                            stroke-linecap="round"
                                                                            stroke-linejoin="round" />
                                                                        <mask id="mask0_8728_3540"
                                                                            style="mask-type:alpha"
                                                                            maskUnits="userSpaceOnUse" x="19" y="15"
                                                                            width="5" height="5">
                                                                            <path
                                                                                d="M21.096 19.134C22.0484 19.134 22.8204 18.362 22.8204 17.4096C22.8204 16.4572 22.0484 15.6852 21.096 15.6852C20.1436 15.6852 19.3716 16.4572 19.3716 17.4096C19.3716 18.362 20.1436 19.134 21.096 19.134Z"
                                                                                stroke="black" stroke-width="0.7"
                                                                                stroke-miterlimit="2.61313"
                                                                                stroke-linecap="round"
                                                                                stroke-linejoin="round" />
                                                                        </mask>
                                                                        <g mask="url(#mask0_8728_3540)">
                                                                            <path fill-rule="evenodd"
                                                                                clip-rule="evenodd"
                                                                                d="M24.8879 18.5986C25.9605 18.4425 23.3332 16.8674 23.211 16.7792C22.6271 16.365 21.8599 16.107 21.0385 16.0663C19.1782 15.9713 18.3907 16.7384 17.0601 17.7839C17.0601 17.7839 17.5557 17.7161 18.092 18.3067C18.6283 18.8974 20.6922 19.6034 22.4845 19.1689C24.2768 18.7344 24.9014 18.6054 24.9014 18.6054L24.8879 18.5986Z"
                                                                                fill="black" stroke="black"
                                                                                stroke-width="0.7"
                                                                                stroke-miterlimit="2.61313"
                                                                                stroke-linecap="round"
                                                                                stroke-linejoin="round" />
                                                                        </g>
                                                                        <path
                                                                            d="M24.6367 17.9189C24.6367 17.9189 24.304 18.2652 24.4398 18.6657"
                                                                            stroke="black" stroke-width="0.7"
                                                                            stroke-miterlimit="2.61313"
                                                                            stroke-linecap="round"
                                                                            stroke-linejoin="round" />
                                                                        <path
                                                                            d="M25.0406 17.4306C25.0406 17.4306 23.8254 15.3124 20.974 15.2852C18.1226 15.2581 16.7104 16.9961 16.7104 16.9961"
                                                                            stroke="black" stroke-width="0.7"
                                                                            stroke-miterlimit="2.61313"
                                                                            stroke-linecap="round"
                                                                            stroke-linejoin="round" />
                                                                        <path fill-rule="evenodd" clip-rule="evenodd"
                                                                            d="M25.3962 14.4092C25.3962 14.4092 25.9054 13.7507 24.4389 12.9835C24.4389 12.9835 19.1027 11.4017 17.8603 11.5578C16.6179 11.714 14.6694 13.2687 14.6694 13.2687C14.6694 13.2687 16.8419 12.4336 19.3267 13.0922C21.8115 13.7507 25.145 14.674 25.3962 14.4092V14.4092Z"
                                                                            stroke="black" stroke-width="0.7"
                                                                            stroke-miterlimit="2.61313"
                                                                            stroke-linecap="round"
                                                                            stroke-linejoin="round" />
                                                                        <path
                                                                            d="M29.6558 29.7537C29.6558 29.7537 28.9565 29.774 28.6782 29.455C28.393 29.1359 27.6802 28.8507 27.1167 28.8915"
                                                                            stroke="black" stroke-width="0.7"
                                                                            stroke-miterlimit="2.61313"
                                                                            stroke-linecap="round"
                                                                            stroke-linejoin="round" />
                                                                        <path
                                                                            d="M26.3025 27.3082C26.3025 27.3082 25.3589 29.2838 27.3209 29.6097"
                                                                            stroke="black" stroke-width="0.7"
                                                                            stroke-miterlimit="2.61313"
                                                                            stroke-linecap="round"
                                                                            stroke-linejoin="round" />
                                                                        <path
                                                                            d="M26.6772 16.6758C26.6772 16.6758 28.3745 18.183 28.0351 22.3311"
                                                                            stroke="black" stroke-width="0.7"
                                                                            stroke-miterlimit="2.61313"
                                                                            stroke-linecap="round"
                                                                            stroke-linejoin="round" />
                                                                        <path fill-rule="evenodd" clip-rule="evenodd"
                                                                            d="M29.7604 33.5398C29.7604 33.5398 28.3754 32.8609 27.3978 33.4244C26.4202 33.9879 23.6299 35.3864 23.6299 35.3864C23.6299 35.3864 24.8723 39.1951 29.7604 39.1951C34.6485 39.1951 35.8909 35.3864 35.8909 35.3864C35.8909 35.3864 33.1006 33.9947 32.123 33.4244C31.1454 32.8609 29.7604 33.5398 29.7604 33.5398V33.5398Z"
                                                                            stroke="black" stroke-width="0.7"
                                                                            stroke-miterlimit="2.61313"
                                                                            stroke-linecap="round"
                                                                            stroke-linejoin="round" />
                                                                        <path
                                                                            d="M29.7597 35.8562C29.7597 35.8562 29.4135 35.8358 28.979 35.6593C28.5445 35.4828 26.3788 35.3945 25.3265 35.639C24.2741 35.8834 23.9483 35.2995 22.8213 35.2995"
                                                                            stroke="black" stroke-width="0.7"
                                                                            stroke-miterlimit="2.61313"
                                                                            stroke-linecap="round"
                                                                            stroke-linejoin="round" />
                                                                        <path
                                                                            d="M10.1216 16.7847C10.1216 16.7847 12.3756 26.2622 13.5772 31.1979C14.7857 36.1335 15.0844 36.9618 17.7186 39.4466C20.3595 41.9314 25.4174 46.6091 29.7488 46.6091"
                                                                            stroke="black" stroke-width="0.7"
                                                                            stroke-miterlimit="2.61313"
                                                                            stroke-linecap="round"
                                                                            stroke-linejoin="round" />
                                                                        <path
                                                                            d="M8.49523 15.4813C8.49523 15.4813 7.04237 15.5017 7.53118 17.6131C8.01999 19.7245 9.79194 22.7728 10.016 25.0335C10.24 27.2943 11.1294 27.9596 12.7588 27.8171"
                                                                            stroke="black" stroke-width="0.7"
                                                                            stroke-miterlimit="2.61313"
                                                                            stroke-linecap="round"
                                                                            stroke-linejoin="round" />
                                                                        <path
                                                                            d="M8.86621 18.6246C8.86621 18.6246 9.10383 17.6063 9.58585 17.9457C10.0679 18.2852 11.0727 20.9601 11.0727 20.9601C11.0727 20.9601 10.4277 22.3179 10.7875 22.732C11.1473 23.1462 11.8398 23.988 11.8398 23.988"
                                                                            stroke="black" stroke-width="0.7"
                                                                            stroke-miterlimit="2.61313"
                                                                            stroke-linecap="round"
                                                                            stroke-linejoin="round" />
                                                                        <path
                                                                            d="M38.4217 18.36C38.9466 18.36 39.3721 17.9345 39.3721 17.4096C39.3721 16.8846 38.9466 16.4591 38.4217 16.4591C37.8967 16.4591 37.4712 16.8846 37.4712 17.4096C37.4712 17.9345 37.8967 18.36 38.4217 18.36Z"
                                                                            fill="black" />
                                                                        <path
                                                                            d="M37.7626 17.3089C37.9651 17.3089 38.1292 17.1448 38.1292 16.9423C38.1292 16.7398 37.9651 16.5757 37.7626 16.5757C37.5601 16.5757 37.396 16.7398 37.396 16.9423C37.396 17.1448 37.5601 17.3089 37.7626 17.3089Z"
                                                                            fill="white" />
                                                                        <path fill-rule="evenodd" clip-rule="evenodd"
                                                                            d="M34.6235 18.5991C33.5508 18.4429 36.1782 16.8678 36.3004 16.7796C36.8842 16.3655 37.6514 16.1075 38.4729 16.0667C40.3331 15.9717 41.1206 16.7389 42.4513 17.7844C42.4513 17.7844 41.9557 17.7165 41.4193 18.3071C40.883 18.8978 38.8191 19.6038 37.0268 19.1693C35.2345 18.7348 34.6099 18.6059 34.6099 18.6059L34.6235 18.5991Z"
                                                                            stroke="black" stroke-width="0.7"
                                                                            stroke-miterlimit="2.61313"
                                                                            stroke-linecap="round"
                                                                            stroke-linejoin="round" />
                                                                        <mask id="mask1_8728_3540"
                                                                            style="mask-type:alpha"
                                                                            maskUnits="userSpaceOnUse" x="36" y="15"
                                                                            width="5" height="5">
                                                                            <path
                                                                                d="M38.4207 19.1338C39.3731 19.1338 40.1451 18.3617 40.1451 17.4094C40.1451 16.457 39.3731 15.6849 38.4207 15.6849C37.4683 15.6849 36.6963 16.457 36.6963 17.4094C36.6963 18.3617 37.4683 19.1338 38.4207 19.1338Z"
                                                                                stroke="black" stroke-width="0.7"
                                                                                stroke-miterlimit="2.61313"
                                                                                stroke-linecap="round"
                                                                                stroke-linejoin="round" />
                                                                        </mask>
                                                                        <g mask="url(#mask1_8728_3540)">
                                                                            <path fill-rule="evenodd"
                                                                                clip-rule="evenodd"
                                                                                d="M34.623 18.5984C33.5503 18.4422 36.1777 16.8672 36.2999 16.7789C36.8837 16.3648 37.6509 16.1068 38.4724 16.0661C40.3326 15.971 41.1201 16.7382 42.4508 17.7837C42.4508 17.7837 41.9552 17.7158 41.4188 18.3065C40.8825 18.8971 38.8186 19.6032 37.0263 19.1687C35.234 18.7342 34.6094 18.6052 34.6094 18.6052L34.623 18.5984Z"
                                                                                fill="black" stroke="black"
                                                                                stroke-width="0.7"
                                                                                stroke-miterlimit="2.61313"
                                                                                stroke-linecap="round"
                                                                                stroke-linejoin="round" />
                                                                        </g>
                                                                        <path
                                                                            d="M34.8735 17.9189C34.8735 17.9189 35.2062 18.2651 35.0704 18.6657"
                                                                            stroke="black" stroke-width="0.7"
                                                                            stroke-miterlimit="2.61313"
                                                                            stroke-linecap="round"
                                                                            stroke-linejoin="round" />
                                                                        <path
                                                                            d="M34.4644 17.4305C34.4644 17.4305 35.6796 15.3123 38.531 15.2852C41.3824 15.258 42.7945 16.996 42.7945 16.996"
                                                                            stroke="black" stroke-width="0.7"
                                                                            stroke-miterlimit="2.61313"
                                                                            stroke-linecap="round"
                                                                            stroke-linejoin="round" />
                                                                        <path fill-rule="evenodd" clip-rule="evenodd"
                                                                            d="M34.1138 14.4092C34.1138 14.4092 33.6047 13.7506 35.0711 12.9835C35.0711 12.9835 40.4073 11.4016 41.6497 11.5578C42.8921 11.7139 44.8406 13.2686 44.8406 13.2686C44.8406 13.2686 42.6681 12.4336 40.1833 13.0921C37.6985 13.7506 34.365 14.674 34.1138 14.4092V14.4092Z"
                                                                            stroke="black" stroke-width="0.7"
                                                                            stroke-miterlimit="2.61313"
                                                                            stroke-linecap="round"
                                                                            stroke-linejoin="round" />
                                                                        <path
                                                                            d="M29.8564 29.7536C29.8564 29.7536 30.5557 29.774 30.8341 29.4549C31.1192 29.1358 31.8321 28.8507 32.3956 28.8914"
                                                                            stroke="black" stroke-width="0.7"
                                                                            stroke-miterlimit="2.61313"
                                                                            stroke-linecap="round"
                                                                            stroke-linejoin="round" />
                                                                        <path
                                                                            d="M33.2127 27.3082C33.2127 27.3082 34.1564 29.2838 32.1943 29.6097"
                                                                            stroke="black" stroke-width="0.7"
                                                                            stroke-miterlimit="2.61313"
                                                                            stroke-linecap="round"
                                                                            stroke-linejoin="round" />
                                                                        <path
                                                                            d="M32.8339 16.6758C32.8339 16.6758 31.1366 18.183 31.476 22.3311"
                                                                            stroke="black" stroke-width="0.7"
                                                                            stroke-miterlimit="2.61313"
                                                                            stroke-linecap="round"
                                                                            stroke-linejoin="round" />
                                                                        <path
                                                                            d="M29.7554 35.8561C29.7554 35.8561 30.1016 35.8358 30.5361 35.6593C30.9706 35.4827 33.1363 35.3945 34.1886 35.6389C35.2409 35.8833 35.5668 35.2994 36.6938 35.2994"
                                                                            stroke="black" stroke-width="0.7"
                                                                            stroke-miterlimit="2.61313"
                                                                            stroke-linecap="round"
                                                                            stroke-linejoin="round" />
                                                                        <path
                                                                            d="M49.386 16.7846C49.386 16.7846 47.132 26.2622 45.9304 31.1978C44.7219 36.1335 44.4232 36.9617 41.789 39.4465C39.1481 41.9313 34.0902 46.609 29.7588 46.609"
                                                                            stroke="black" stroke-width="0.7"
                                                                            stroke-miterlimit="2.61313"
                                                                            stroke-linecap="round"
                                                                            stroke-linejoin="round" />
                                                                        <path
                                                                            d="M51.0179 15.4813C51.0179 15.4813 52.4708 15.5016 51.982 17.613C51.4932 19.7244 49.7212 22.7727 49.4972 25.0335C49.2731 27.2942 48.3838 27.9596 46.7544 27.817"
                                                                            stroke="black" stroke-width="0.7"
                                                                            stroke-miterlimit="2.61313"
                                                                            stroke-linecap="round"
                                                                            stroke-linejoin="round" />
                                                                        <path
                                                                            d="M50.6411 18.6241C50.6411 18.6241 50.4035 17.6057 49.9215 17.9452C49.4394 18.2846 48.4346 20.9595 48.4346 20.9595C48.4346 20.9595 49.0796 22.3174 48.7198 22.7315C48.36 23.1456 47.6675 23.9875 47.6675 23.9875"
                                                                            stroke="black" stroke-width="0.7"
                                                                            stroke-miterlimit="2.61313"
                                                                            stroke-linecap="round"
                                                                            stroke-linejoin="round" />
                                                                        <path fill-rule="evenodd" clip-rule="evenodd"
                                                                            d="M55.8531 39.6466C55.0192 41.4583 53.2115 44.1527 52.6774 43.9984L44.8013 39.2621C44.8013 39.2621 44.3685 39.0359 44.572 38.3236L44.8334 37.7926L45.9467 35.9412L47.0601 34.0898L47.4065 33.61C47.9418 33.0938 48.3431 33.3726 48.3431 33.3726L56.3998 38.2175"
                                                                            stroke="black" stroke-width="0.481062"
                                                                            stroke-miterlimit="2.61313" />
                                                                        <path
                                                                            d="M49.948 36.8549L49.7353 36.727L49.8466 36.5419L49.8456 36.5379C49.8181 36.5554 49.788 36.5714 49.7555 36.5859C49.7229 36.6003 49.6894 36.6108 49.6548 36.6173C49.6202 36.6238 49.5822 36.6247 49.5446 36.6192C49.5071 36.6136 49.4701 36.6016 49.4325 36.579C49.3575 36.5339 49.3165 36.4718 49.308 36.3951C49.2996 36.3185 49.3242 36.2379 49.3769 36.1504L49.7259 35.5699L49.9486 35.7038L49.6071 36.2718C49.577 36.3218 49.5654 36.3694 49.5714 36.4104C49.5774 36.4515 49.6034 36.4876 49.6459 36.5131C49.6834 36.5357 49.7195 36.5438 49.7565 36.5388C49.7936 36.5338 49.8271 36.5233 49.8602 36.5023L50.2363 35.8769L50.459 36.0108L49.952 36.8539L49.948 36.8549ZM51.9762 36.9095L51.9412 36.8884L51.9487 36.8759L52.0362 36.9286L52.0287 36.9411L51.9937 36.92L51.938 37.0126L51.923 37.0036L51.9787 36.911L51.9762 36.9095ZM52.0856 37.1014L52.1323 37.0238L52.0571 37.0638L52.0496 37.0593L52.0497 36.9742L52.0046 37.0492L51.9896 37.0402L52.0528 36.9351L52.0653 36.9426L52.0652 37.0448L52.1528 36.9953L52.1654 37.0028L52.1022 37.1079L52.0871 37.0989L52.0856 37.1014ZM51.0425 36.3548C51.0059 36.3533 50.9679 36.3542 50.9333 36.3607C50.8962 36.3657 50.8602 36.3747 50.8251 36.3876C50.7916 36.3981 50.762 36.4076 50.7365 36.4161L50.8403 36.2435L50.6176 36.1096L50.3272 36.5924L50.1106 36.9527L50.3358 37.0881L50.7164 36.4551C50.746 36.4456 50.77 36.4397 50.795 36.4377C50.8186 36.4382 50.8381 36.4397 50.8531 36.4488C50.8631 36.4548 50.8741 36.4648 50.8876 36.4763C50.8996 36.4904 50.9116 36.5044 50.9261 36.5199C50.9366 36.5365 50.9471 36.553 50.9576 36.5695C50.9666 36.5886 50.9731 36.6061 50.9746 36.6206L50.9921 36.6311L51.1426 36.381C51.11 36.3614 51.0845 36.3529 51.048 36.3513L51.0425 36.3548ZM49.0015 36.514C48.9114 36.4598 48.8219 36.4162 48.7378 36.3861C48.6512 36.3544 48.5726 36.3378 48.498 36.3373C48.4234 36.3367 48.3543 36.3496 48.2917 36.3801C48.229 36.4106 48.1794 36.4591 48.1373 36.5292L48.0998 36.5066C48.1058 36.4966 48.1088 36.4916 48.1088 36.4916C48.161 36.4105 48.2266 36.341 48.3018 36.284C48.3849 36.225 48.4761 36.181 48.5723 36.1571C48.6699 36.1306 48.7686 36.1252 48.8712 36.1359C48.9738 36.1465 49.0719 36.1816 49.167 36.2388L49 36.5165L49.0015 36.514ZM48.4378 35.9331C48.5079 35.9753 48.5744 35.9949 48.644 35.9924C48.7136 35.99 48.7792 35.9715 48.8464 35.9336C48.912 35.8981 48.9751 35.8441 49.0368 35.7755C49.0984 35.707 49.1556 35.6289 49.2113 35.5364C49.2654 35.4463 49.3091 35.3567 49.3407 35.2701C49.3723 35.1835 49.3889 35.105 49.391 35.0279C49.3916 34.9533 49.3786 34.8841 49.3482 34.8215C49.3177 34.7589 49.2692 34.7093 49.1991 34.6672C49.1291 34.625 49.0625 34.6054 48.9929 34.6079C48.9233 34.6103 48.8562 34.6313 48.7906 34.6668C48.7234 34.7047 48.6618 34.7563 48.6001 34.8248C48.5385 34.8933 48.4813 34.9714 48.4272 35.0614C48.373 35.1515 48.3309 35.2386 48.2992 35.3252C48.2676 35.4118 48.251 35.4904 48.2489 35.5675C48.2483 35.6421 48.2613 35.7112 48.2918 35.7738C48.3222 35.8364 48.3708 35.886 48.4408 35.9281L48.4378 35.9331ZM48.3667 35.9381C48.2997 35.8909 48.2401 35.8313 48.1941 35.7662C48.1351 35.683 48.0912 35.5918 48.0672 35.4957C48.0433 35.3995 48.0354 35.2994 48.046 35.1967C48.0566 35.0941 48.0918 34.996 48.1489 34.9009C48.2046 34.8084 48.2748 34.7313 48.362 34.6713C48.4476 34.6138 48.5388 34.5699 48.6375 34.5474C48.7336 34.5235 48.8348 34.5196 48.9359 34.5327C49.037 34.5458 49.1326 34.5795 49.2202 34.6321C49.3077 34.6848 49.3823 34.7535 49.4413 34.8366C49.5003 34.9198 49.5442 35.011 49.5682 35.1071C49.5946 35.2048 49.5985 35.3059 49.5879 35.4086C49.5773 35.5112 49.5421 35.6093 49.485 35.7044C49.4293 35.7969 49.3591 35.874 49.272 35.934C49.1863 35.9915 49.0951 36.0354 48.998 36.0554C48.8993 36.0778 48.8007 36.0832 48.6995 36.0701C48.6049 36.0575 48.5158 36.0243 48.4318 35.9772C48.4318 35.9772 48.3892 35.9516 48.3657 35.9341L48.3667 35.9381ZM51.1842 36.8556C51.2107 36.8171 51.2383 36.7826 51.2694 36.7536C51.2979 36.7231 51.3285 36.7006 51.3601 36.6821C51.3916 36.6636 51.4212 36.6541 51.4527 36.6526C51.4843 36.6512 51.5138 36.6587 51.5413 36.6753C51.5864 36.7023 51.6093 36.7434 51.6118 36.796C51.6143 36.8486 51.5701 36.9447 51.5189 37.0297L51.4858 37.0848L51.0933 37.0463C51.1064 36.9963 51.1285 36.9482 51.1631 36.8907L51.1842 36.8556ZM51.5365 37.4763C51.4975 37.4903 51.4499 37.4958 51.4003 37.4932C51.3482 37.4892 51.2947 37.4706 51.2397 37.4375C51.1971 37.4119 51.1616 37.3803 51.1316 37.3453C51.1016 37.3102 51.0851 37.2696 51.0756 37.223C51.0672 37.1805 51.0707 37.1349 51.0813 37.0834L51.7316 37.1576C51.7316 37.1576 51.7803 37.071 51.7659 36.9193C51.7609 36.8652 51.7319 36.8171 51.703 36.769C51.6715 36.7194 51.6274 36.6793 51.5724 36.6462C51.5199 36.6146 51.4613 36.5931 51.3977 36.5855C51.3341 36.5779 51.271 36.5809 51.2079 36.6008C51.1463 36.6183 51.0837 36.6488 51.0281 36.6903C50.971 36.7343 50.9209 36.7893 50.8787 36.8593C50.8426 36.9194 50.818 36.983 50.8064 37.0475C50.7949 37.1121 50.7953 37.1737 50.8063 37.2348C50.8172 37.2959 50.8417 37.3515 50.8782 37.4041C50.9147 37.4567 50.9637 37.4998 51.0263 37.5374C51.1213 37.5946 51.2164 37.6177 51.3066 37.6038C51.3967 37.5899 51.4784 37.5504 51.55 37.4879L51.543 37.4769L51.5365 37.4763Z"
                                                                            fill="black" />
                                                                        <path fill-rule="evenodd" clip-rule="evenodd"
                                                                            d="M48.3032 37.6564L48.3047 37.6539C48.3223 37.6474 48.3373 37.6394 48.3508 37.634C48.3618 37.627 48.3729 37.62 48.3839 37.613C48.3924 37.6045 48.4024 37.5934 48.411 37.5849C48.421 37.5739 48.4285 37.5614 48.439 37.5439L48.6677 37.1636C48.6752 37.1511 48.6788 37.1396 48.6808 37.1306C48.6843 37.1191 48.6863 37.1101 48.6858 37.0996C48.6853 37.089 48.6848 37.0785 48.6818 37.0665C48.6788 37.0545 48.6759 37.0425 48.6704 37.0289L48.6719 37.0264L48.7945 37.1002L48.7172 37.7555L49.2548 37.377L49.3699 37.4462L49.3684 37.4487C49.3514 37.4487 49.3379 37.4542 49.3258 37.4572C49.3138 37.4602 49.3028 37.4672 49.2933 37.4717C49.2823 37.4787 49.2737 37.4872 49.2652 37.4957C49.2552 37.5067 49.2477 37.5192 49.2386 37.5342L49.016 37.9045C49.0069 37.9195 48.9994 37.932 48.9959 37.9435C48.9899 37.9535 48.9864 37.965 48.9828 37.9765C48.9793 37.9881 48.9773 37.9971 48.9763 38.0101C48.9753 38.0231 48.9743 38.0361 48.9758 38.0506L48.9743 38.0531L48.8367 37.9704L48.8382 37.9679C48.8517 37.9624 48.8627 37.9554 48.8737 37.9484C48.8847 37.9414 48.8918 37.9354 48.9003 37.9269C48.9088 37.9184 48.9173 37.9099 48.9233 37.8999C48.9294 37.8899 48.9409 37.8764 48.9484 37.8639L49.2042 37.4385L48.643 37.8335L48.628 37.8245L48.7078 37.1366L48.459 37.556C48.45 37.571 48.441 37.586 48.436 37.6C48.431 37.614 48.4274 37.6255 48.4264 37.6385C48.4254 37.6515 48.4244 37.6646 48.4259 37.6791C48.4274 37.6936 48.4299 37.7121 48.4348 37.7322L48.4333 37.7347L48.3032 37.6564ZM49.4759 37.5985C49.4684 37.611 49.4574 37.618 49.4453 37.621C49.4333 37.624 49.4203 37.623 49.4078 37.6155C49.3953 37.608 49.3908 37.5984 49.3853 37.5849C49.3823 37.5729 49.3833 37.5599 49.3908 37.5474C49.3984 37.5349 49.4079 37.5304 49.4214 37.5249C49.4334 37.5219 49.4464 37.5229 49.4589 37.5304C49.4715 37.5379 49.4759 37.5475 49.4814 37.561C49.4844 37.573 49.4834 37.586 49.4759 37.5985ZM49.0528 38.1038C49.0709 38.0908 49.0879 38.0738 49.1024 38.0553C49.117 38.0368 49.133 38.0158 49.1511 37.9857L49.2459 37.8281C49.2579 37.8081 49.2634 37.7876 49.2649 37.768C49.265 37.751 49.2625 37.7325 49.2595 37.7205L49.261 37.718L49.3881 37.7331L49.2136 38.0233C49.1956 38.0534 49.1805 38.0784 49.1725 38.0974C49.163 38.1189 49.1574 38.1394 49.1529 38.164L49.1514 38.1665L49.0513 38.1063L49.0528 38.1038ZM49.6189 38.3182C49.5868 38.3432 49.5542 38.3576 49.5147 38.3611C49.4751 38.3646 49.4366 38.355 49.3941 38.3294C49.3665 38.3129 49.3445 38.2928 49.328 38.2693C49.3115 38.2457 49.299 38.2212 49.2921 38.1932C49.2851 38.1651 49.2861 38.1351 49.2936 38.1055C49.2987 38.0745 49.3142 38.043 49.3323 38.0129C49.3534 37.9779 49.3764 37.9509 49.4055 37.9309C49.4345 37.9109 49.4631 37.8974 49.4951 37.8894C49.5272 37.8815 49.5587 37.88 49.5898 37.885C49.6208 37.8901 49.6513 37.9016 49.6789 37.9182C49.7064 37.9347 49.7299 37.9523 49.7429 37.9703C49.7574 37.9858 49.7679 38.0024 49.7764 38.0109L49.7312 38.103L49.7222 38.101C49.7223 38.0839 49.7198 38.0654 49.7198 38.0484C49.7173 38.0299 49.7133 38.0138 49.7078 38.0003C49.7023 37.9868 49.6943 37.9718 49.6848 37.9592C49.6753 37.9467 49.6643 37.9367 49.6518 37.9292C49.6093 37.9036 49.5677 37.899 49.5231 37.9165C49.4786 37.934 49.4405 37.969 49.4059 38.0265C49.3728 38.0816 49.3597 38.1316 49.3652 38.1792C49.3706 38.2268 49.3991 38.2644 49.4467 38.2929C49.4717 38.308 49.4972 38.3165 49.5242 38.3226C49.5513 38.3286 49.5803 38.3256 49.6074 38.3146L49.6109 38.3201L49.6189 38.3182ZM49.6408 38.4574C49.6518 38.4504 49.6588 38.4444 49.6673 38.4359C49.6758 38.4274 49.6829 38.4214 49.6904 38.4088C49.6964 38.3988 49.7049 38.3903 49.7124 38.3778C49.72 38.3653 49.7275 38.3528 49.7365 38.3378L49.8328 38.1777C49.8464 38.1552 49.8519 38.1346 49.8519 38.1176C49.8519 38.1006 49.8494 38.0821 49.8464 38.07L49.8479 38.0675L49.9701 38.0797L49.9084 38.1823L49.9134 38.1853C49.9294 38.1813 49.943 38.1758 49.9605 38.1693C49.978 38.1628 49.994 38.1588 50.0126 38.1563C50.0286 38.1523 50.0456 38.1523 50.0626 38.1524C50.0797 38.1524 50.0937 38.1574 50.1087 38.1664L50.0575 38.2515L50.055 38.25C50.054 38.246 50.0505 38.2405 50.047 38.235C50.0435 38.2295 50.0375 38.2224 50.0325 38.2194C50.0265 38.2124 50.0215 38.2094 50.0155 38.2024C50.0105 38.1994 50.0045 38.1924 49.9995 38.1894C49.992 38.1848 49.979 38.1838 49.9605 38.1863C49.9419 38.1888 49.9219 38.1938 49.9029 38.2028L49.8021 38.3704C49.784 38.4004 49.769 38.4254 49.7609 38.4445C49.7514 38.466 49.7459 38.4865 49.7414 38.511L49.7398 38.5135L49.6398 38.4534L49.6413 38.4509L49.6408 38.4574ZM50.0996 38.7537C50.0696 38.7357 50.0451 38.7141 50.0276 38.6866C50.0101 38.659 49.9966 38.6305 49.9886 38.5984C49.9806 38.5664 49.9792 38.5348 49.9842 38.5038C49.9867 38.4712 49.9983 38.4407 50.0163 38.4107C50.0344 38.3807 50.0559 38.3561 50.0835 38.3386C50.111 38.3211 50.1411 38.3052 50.1717 38.2997C50.2037 38.2917 50.2352 38.2902 50.2678 38.2928C50.3003 38.2953 50.3309 38.3068 50.3609 38.3249C50.3909 38.343 50.4154 38.3645 50.4329 38.3921C50.4504 38.4196 50.4639 38.4482 50.4719 38.4802C50.4799 38.5123 50.4813 38.5438 50.4763 38.5749C50.4738 38.6074 50.4607 38.6404 50.4442 38.668C50.4261 38.698 50.4046 38.7225 50.377 38.74C50.3494 38.7575 50.3209 38.771 50.2913 38.7805C50.2593 38.7884 50.2277 38.7899 50.1952 38.7874C50.1627 38.7848 50.1321 38.7733 50.1021 38.7552L50.0996 38.7537ZM50.1086 38.7387C50.1336 38.7538 50.1567 38.7608 50.1802 38.7613C50.2037 38.7618 50.2278 38.7559 50.2508 38.7459C50.2739 38.7359 50.2949 38.7179 50.316 38.6999C50.336 38.6779 50.3535 38.6543 50.3686 38.6293C50.3851 38.6018 50.3977 38.5753 50.4037 38.5482C50.4138 38.5202 50.4158 38.4942 50.4138 38.4692C50.4118 38.4441 50.4059 38.4201 50.3959 38.397C50.3844 38.3765 50.3674 38.3595 50.3423 38.3444C50.3173 38.3294 50.2943 38.3223 50.2708 38.3218C50.2472 38.3213 50.2232 38.3273 50.1986 38.3398C50.1756 38.3497 50.1546 38.3678 50.1335 38.3858C50.1135 38.4078 50.0934 38.4298 50.0784 38.4548C50.0618 38.4823 50.0493 38.5088 50.0407 38.5344C50.0307 38.5624 50.0287 38.5884 50.0306 38.6135C50.0326 38.6385 50.0386 38.6625 50.0501 38.6831C50.0616 38.7036 50.0786 38.7207 50.1036 38.7357L50.1086 38.7387ZM50.5249 38.9925C50.5385 38.987 50.5495 38.98 50.5605 38.973C50.5715 38.966 50.5786 38.96 50.5871 38.9515C50.5956 38.943 50.6041 38.9345 50.6101 38.9245C50.6161 38.9145 50.6262 38.9035 50.6352 38.8884L50.8564 38.5207C50.8654 38.5057 50.8729 38.4931 50.8764 38.4816C50.8825 38.4716 50.886 38.4601 50.8895 38.4486C50.893 38.4371 50.895 38.4281 50.896 38.4151C50.897 38.402 50.8981 38.389 50.8966 38.3745L50.8981 38.372L51.0357 38.4548L51.0342 38.4573C51.0207 38.4627 51.0096 38.4697 50.9986 38.4767C50.9876 38.4837 50.9806 38.4897 50.9721 38.4982C50.9635 38.5068 50.955 38.5153 50.949 38.5253C50.943 38.5353 50.9329 38.5463 50.9239 38.5613L50.7028 38.9291C50.6937 38.9441 50.6862 38.9566 50.6827 38.9681C50.6767 38.9781 50.6732 38.9896 50.6696 39.0011C50.6661 39.0126 50.6641 39.0217 50.6631 39.0347C50.6621 39.0477 50.6611 39.0607 50.6626 39.0752L50.661 39.0777L50.5234 38.995L50.5249 38.9925ZM50.8387 39.1846L50.7386 39.1244L50.7401 39.1219C50.7511 39.1149 50.7582 39.1089 50.7667 39.1004C50.7752 39.0919 50.7822 39.0859 50.7897 39.0734C50.7957 39.0633 50.8043 39.0548 50.8118 39.0423C50.8193 39.0298 50.8268 39.0173 50.8359 39.0023L50.9322 38.8422C50.9457 38.8197 50.9512 38.7991 50.9512 38.7821C50.9513 38.7651 50.9488 38.7466 50.9458 38.7345L50.9473 38.732L51.0694 38.7442L51.0213 38.8242L51.0238 38.8257C51.0589 38.8128 51.0919 38.8088 51.1244 38.8113C51.157 38.8139 51.1865 38.8214 51.2165 38.8395C51.2566 38.8635 51.2806 38.8916 51.2871 38.9261C51.2935 38.9607 51.2855 38.9967 51.2629 39.0343L51.1651 39.1969C51.1561 39.2119 51.1471 39.2269 51.141 39.2369C51.1335 39.2494 51.1275 39.2594 51.124 39.271C51.118 39.281 51.1145 39.2925 51.1109 39.304C51.1074 39.3155 51.1054 39.3245 51.1044 39.3375L51.1029 39.34L51.0028 39.2798L51.0043 39.2773C51.0224 39.2643 51.0394 39.2473 51.0539 39.2288C51.0685 39.2103 51.082 39.1878 51.1001 39.1578L51.1888 39.0102C51.1964 38.9977 51.2014 38.9836 51.2064 38.9696C51.2114 38.9556 51.2124 38.9426 51.2094 38.9306C51.208 38.9161 51.2035 38.9065 51.194 38.894C51.1845 38.8815 51.1735 38.8715 51.1584 38.8624C51.1384 38.8504 51.1154 38.8434 51.0909 38.8388C51.0663 38.8343 51.0388 38.8348 51.0133 38.8433L50.8959 39.0384C50.8779 39.0684 50.8628 39.0935 50.8548 39.1125C50.8452 39.134 50.8397 39.1545 50.8352 39.179L50.8337 39.1815L50.8387 39.1846ZM51.198 39.3972C51.213 39.3892 51.2255 39.3797 51.2386 39.3637C51.2516 39.3477 51.2691 39.3242 51.2887 39.2916L51.4512 39.0214L51.3986 38.9898L51.4077 38.9748L51.4602 39.0064L51.5038 38.9339C51.5219 38.9039 51.5394 38.8803 51.5605 38.8623C51.5815 38.8443 51.6036 38.8303 51.6251 38.8228C51.6467 38.8154 51.6692 38.8119 51.6927 38.8124C51.7148 38.8154 51.7378 38.8225 51.7578 38.8345C51.7703 38.842 51.7813 38.852 51.7898 38.8606C51.7983 38.8691 51.8043 38.8761 51.8078 38.8816L51.7712 38.9652L51.7647 38.9647C51.7657 38.9517 51.7627 38.9396 51.7612 38.9251C51.7597 38.9106 51.7592 38.9001 51.7562 38.8881C51.7532 38.876 51.7487 38.8665 51.7468 38.8585C51.7423 38.849 51.7363 38.842 51.7288 38.8375C51.7112 38.8269 51.6902 38.8279 51.6642 38.8429C51.6381 38.8579 51.6135 38.8874 51.5865 38.9325L51.5203 39.0425L51.6203 39.1027L51.6113 39.1177L51.5112 39.0576L51.3487 39.3278C51.3292 39.3603 51.3166 39.3868 51.3086 39.4058C51.3006 39.4248 51.2981 39.4404 51.298 39.4574L51.2965 39.4599L51.194 39.3982L51.1955 39.3957L51.198 39.3972ZM51.741 39.6216C51.726 39.6295 51.7099 39.6335 51.6964 39.639C51.6804 39.643 51.6644 39.647 51.6483 39.651C51.6338 39.6525 51.6168 39.6525 51.5988 39.6484C51.5807 39.6444 51.5642 39.6379 51.5467 39.6274C51.5092 39.6048 51.4892 39.5757 51.4852 39.5427C51.4812 39.5096 51.4908 39.4711 51.5149 39.4311L51.6428 39.2184C51.6533 39.2009 51.6598 39.1844 51.6583 39.1699C51.6583 39.1528 51.6553 39.1408 51.6499 39.1273L51.6514 39.1248L51.7489 39.1835L51.5849 39.4562C51.5473 39.5187 51.5553 39.5678 51.6103 39.6009C51.6353 39.6159 51.6584 39.623 51.6819 39.6235C51.7054 39.624 51.7255 39.619 51.7445 39.61L51.8889 39.3699C51.9085 39.3373 51.9095 39.3073 51.895 39.2747L51.8965 39.2722L51.9966 39.3324L51.8236 39.6201C51.8131 39.6376 51.804 39.6527 51.8005 39.6642C51.797 39.6757 51.791 39.6857 51.7915 39.6962C51.7895 39.7052 51.7915 39.7132 51.7935 39.7212C51.7955 39.7293 51.799 39.7348 51.8034 39.7443L51.8019 39.7468L51.6903 39.7171L51.743 39.6296L51.741 39.6216ZM52.2832 39.6206L52.2767 39.6201C52.2788 39.577 52.2723 39.5425 52.2598 39.5179C52.2473 39.4934 52.2303 39.4763 52.2103 39.4643C52.1853 39.4493 52.1607 39.4447 52.1382 39.4482C52.1157 39.4517 52.0976 39.4647 52.0856 39.4847C52.0781 39.4972 52.0731 39.5112 52.076 39.5233C52.075 39.5363 52.0805 39.5498 52.0875 39.5608C52.093 39.5743 52.1025 39.5869 52.1105 39.6019C52.12 39.6144 52.132 39.6285 52.1425 39.645C52.1545 39.659 52.165 39.6755 52.1755 39.6921C52.186 39.7086 52.194 39.7236 52.198 39.7397C52.2045 39.7572 52.2045 39.7742 52.2029 39.7937C52.2014 39.8133 52.1934 39.8323 52.1814 39.8523C52.1573 39.8923 52.1257 39.9108 52.0847 39.9168C52.0451 39.9203 52.0016 39.9077 51.954 39.8791C51.929 39.8641 51.908 39.848 51.891 39.831C51.874 39.8139 51.8595 39.7984 51.849 39.7819L51.9001 39.6798L51.9067 39.6803C51.9016 39.7284 51.9051 39.7679 51.9161 39.795C51.9255 39.8245 51.946 39.8471 51.9761 39.8651C52.0061 39.8832 52.0356 39.8907 52.0612 39.8822C52.0867 39.8737 52.1047 39.8607 52.1168 39.8407C52.1243 39.8282 52.1278 39.8167 52.1288 39.8037C52.1299 39.7907 52.1269 39.7787 52.1239 39.7666C52.1184 39.7531 52.1129 39.7396 52.1034 39.7271C52.0939 39.7145 52.0844 39.702 52.0739 39.6855C52.0619 39.6714 52.0539 39.6564 52.0419 39.6424C52.0314 39.6258 52.0234 39.6108 52.0169 39.5933C52.0104 39.5758 52.0079 39.5572 52.0079 39.5402C52.0095 39.5207 52.0135 39.5027 52.0255 39.4826C52.0376 39.4626 52.0531 39.4481 52.0696 39.4376C52.0862 39.4271 52.1047 39.4246 52.1232 39.4222C52.1417 39.4197 52.1623 39.4252 52.1788 39.4317C52.1978 39.4398 52.2168 39.4478 52.2343 39.4583C52.2518 39.4689 52.2703 39.4834 52.2864 39.4964C52.3024 39.5095 52.3144 39.5235 52.3239 39.536L52.2817 39.6231L52.2832 39.6206ZM52.6018 39.4817C52.5943 39.4942 52.5833 39.5012 52.5712 39.5042C52.5592 39.5072 52.5462 39.5062 52.5337 39.4987C52.5212 39.4912 52.5167 39.4816 52.5112 39.4681C52.5082 39.4561 52.5092 39.4431 52.5167 39.4306C52.5243 39.4181 52.5338 39.4136 52.5473 39.4081C52.5593 39.4051 52.5723 39.4061 52.5848 39.4136C52.5974 39.4211 52.6019 39.4306 52.6073 39.4442C52.6103 39.4562 52.6093 39.4692 52.6018 39.4817ZM52.1787 39.987C52.1968 39.974 52.2138 39.957 52.2283 39.9385C52.2429 39.92 52.2589 39.8989 52.277 39.8689L52.3718 39.7113C52.3838 39.6913 52.3893 39.6708 52.3908 39.6512C52.3909 39.6342 52.3884 39.6157 52.3854 39.6037L52.3869 39.6012L52.5141 39.6163L52.3395 39.9065C52.3215 39.9366 52.3064 39.9616 52.2984 39.9806C52.2889 40.0021 52.2833 40.0226 52.2788 40.0472L52.2773 40.0497L52.1772 39.9895L52.1787 39.987ZM52.545 40.2277C52.515 40.2096 52.4904 40.1881 52.473 40.1605C52.4555 40.133 52.442 40.1044 52.434 40.0724C52.426 40.0403 52.4245 40.0088 52.4296 39.9777C52.4321 39.9452 52.4437 39.9147 52.4617 39.8846C52.4798 39.8546 52.5013 39.8301 52.5289 39.8126C52.5564 39.7951 52.5865 39.7791 52.617 39.7736C52.6491 39.7657 52.6806 39.7642 52.7132 39.7667C52.7457 39.7693 52.7762 39.7808 52.8063 39.7989C52.8363 39.8169 52.8608 39.8385 52.8783 39.866C52.8958 39.8936 52.9093 39.9221 52.9173 39.9542C52.9252 39.9862 52.9267 40.0178 52.9217 40.0488C52.9191 40.0814 52.9061 40.1144 52.8895 40.1419C52.8715 40.1719 52.8499 40.1964 52.8224 40.2139C52.7948 40.2314 52.7663 40.2449 52.7367 40.2544C52.7047 40.2624 52.6731 40.2639 52.6406 40.2613C52.608 40.2588 52.5775 40.2472 52.5475 40.2292L52.545 40.2277ZM52.554 40.2127C52.579 40.2277 52.6021 40.2348 52.6256 40.2353C52.6491 40.2358 52.6732 40.2298 52.6962 40.2198C52.7192 40.2098 52.7403 40.1918 52.7613 40.1738C52.7814 40.1518 52.7989 40.1283 52.814 40.1033C52.8305 40.0758 52.8431 40.0492 52.8491 40.0222C52.8591 39.9942 52.8612 39.9681 52.8592 39.9431C52.8572 39.9181 52.8512 39.894 52.8412 39.871C52.8298 39.8505 52.8127 39.8334 52.7877 39.8184C52.7627 39.8033 52.7397 39.7963 52.7161 39.7958C52.6926 39.7952 52.6686 39.8012 52.644 39.8137C52.621 39.8237 52.5999 39.8417 52.5789 39.8597C52.5588 39.8817 52.5388 39.9037 52.5238 39.9288C52.5072 39.9563 52.4947 39.9828 52.4861 40.0083C52.4761 40.0364 52.4741 40.0624 52.476 40.0874C52.478 40.1125 52.484 40.1365 52.4955 40.157C52.507 40.1776 52.524 40.1946 52.549 40.2097L52.554 40.2127ZM52.9353 40.4454L52.8352 40.3852L52.8367 40.3827C52.8478 40.3757 52.8548 40.3697 52.8633 40.3612C52.8718 40.3527 52.8788 40.3467 52.8863 40.3342C52.8924 40.3242 52.9009 40.3157 52.9084 40.3031C52.9159 40.2906 52.9235 40.2781 52.9325 40.2631L53.0288 40.103C53.0423 40.0805 53.0478 40.06 53.0479 40.0429C53.0479 40.0259 53.0454 40.0074 53.0424 39.9954L53.0439 39.9929L53.1661 40.005L53.1179 40.0851L53.1204 40.0866C53.1555 40.0736 53.1885 40.0696 53.2211 40.0721C53.2536 40.0747 53.2831 40.0822 53.3132 40.1003C53.3532 40.1243 53.3772 40.1524 53.3837 40.187C53.3901 40.2215 53.3821 40.2576 53.3595 40.2951L53.2617 40.4577C53.2527 40.4727 53.2437 40.4877 53.2377 40.4977C53.2301 40.5103 53.2241 40.5203 53.2206 40.5318C53.2146 40.5418 53.2111 40.5533 53.2076 40.5648C53.204 40.5763 53.202 40.5853 53.201 40.5983L53.1995 40.6008L53.0994 40.5407L53.1009 40.5382C53.119 40.5252 53.136 40.5082 53.1506 40.4896C53.1651 40.4711 53.1786 40.4486 53.1967 40.4186L53.2855 40.271C53.293 40.2585 53.298 40.2445 53.303 40.2304C53.308 40.2164 53.3091 40.2034 53.3061 40.1914C53.3046 40.1769 53.3001 40.1674 53.2906 40.1548C53.2811 40.1423 53.2701 40.1323 53.2551 40.1232C53.235 40.1112 53.212 40.1042 53.1875 40.0996C53.163 40.0951 53.1354 40.0956 53.1099 40.1041L52.9925 40.2992C52.9745 40.3293 52.9594 40.3543 52.9514 40.3733C52.9419 40.3948 52.9363 40.4153 52.9318 40.4399L52.9303 40.4424L52.9353 40.4454Z"
                                                                            fill="black" />
                                                                        <path d="M51.5312 37.8484L54.7112 39.7607"
                                                                            stroke="black" stroke-width="0.240531" />
                                                                        <path d="M52.0422 39.0595L53.4427 36.3651"
                                                                            stroke="black" stroke-width="0.240531" />
                                                                        <path fill-rule="evenodd" clip-rule="evenodd"
                                                                            d="M42.3229 37.7558L44.1768 38.8706L45.9401 35.9384L47.7035 33.0061L45.8495 31.8912C45.5519 32.1483 43.9811 34.7603 43.9811 34.7603C43.9811 34.7603 42.4104 37.3723 42.3229 37.7558Z"
                                                                            fill="white" stroke="black"
                                                                            stroke-width="0.481062"
                                                                            stroke-miterlimit="2.61313" />
                                                                        <path fill-rule="evenodd" clip-rule="evenodd"
                                                                            d="M42.5514 37.2615C42.121 37.0028 41.4765 36.6526 40.9096 36.23C40.1682 35.6785 39.559 35.009 39.7215 34.2686L40.6302 32.7575L41.539 31.2463C42.5627 30.3766 44.5186 31.7469 45.5093 32.3427C44.9492 33.1608 43.9863 34.762 43.9863 34.762L43.9803 34.7721C43.9021 34.9022 42.9883 36.4273 42.5514 37.2615Z"
                                                                            stroke="black" stroke-width="0.481062"
                                                                            stroke-miterlimit="2.61313" />
                                                                        <path
                                                                            d="M41.6162 36.7043C42.2641 35.1964 43.5445 33.0672 44.5712 31.7905"
                                                                            stroke="black" stroke-width="0.481062"
                                                                            stroke-miterlimit="2.61313" />
                                                                        <path d="M39.1357 34.1942L41.9429 35.8823"
                                                                            stroke="black" stroke-width="0.481062"
                                                                            stroke-miterlimit="2.61313"
                                                                            stroke-linecap="round"
                                                                            stroke-linejoin="round" />
                                                                        <path d="M39.5493 33.5085L42.3565 35.1967"
                                                                            stroke="black" stroke-width="0.481062"
                                                                            stroke-miterlimit="2.61313"
                                                                            stroke-linecap="round"
                                                                            stroke-linejoin="round" />
                                                                        <path d="M39.9624 32.8208L42.7696 34.5089"
                                                                            stroke="black" stroke-width="0.481062"
                                                                            stroke-miterlimit="2.61313"
                                                                            stroke-linecap="round"
                                                                            stroke-linejoin="round" />
                                                                        <path d="M40.3765 32.1328L43.1836 33.8209"
                                                                            stroke="black" stroke-width="0.481062"
                                                                            stroke-miterlimit="2.61313"
                                                                            stroke-linecap="round"
                                                                            stroke-linejoin="round" />
                                                                        <path d="M40.7896 31.4448L43.5967 33.1329"
                                                                            stroke="black" stroke-width="0.481062"
                                                                            stroke-miterlimit="2.61313"
                                                                            stroke-linecap="round"
                                                                            stroke-linejoin="round" />
                                                                        <path d="M41.2031 30.7592L44.0103 32.4473"
                                                                            stroke="black" stroke-width="0.481062"
                                                                            stroke-miterlimit="2.61313"
                                                                            stroke-linecap="round"
                                                                            stroke-linejoin="round" />
                                                                    </svg>