 <svg xmlns="http://www.w3.org/2000/svg"
                                                                            width="29" height="33" viewBox="0 0 29 33"
                                                                            fill="none">
                                                                            <path
                                                                                d="M15.8013 18.0198C15.8013 21.9686 12.41 25.2085 8.17757 25.2085C3.9451 25.2085 0.553817 21.9686 0.553817 18.0198C0.553817 17.0422 0.856865 15.7769 1.38039 14.3211C1.90125 12.8728 2.62815 11.2685 3.44934 9.62323C4.64721 7.22326 6.03319 4.76012 7.2569 2.58536C7.57166 2.02596 7.87569 1.48565 8.16302 0.970405C8.57462 1.75586 9.09531 2.70206 9.668 3.74276C9.73815 3.87024 9.80908 3.99914 9.88069 4.12933C10.7242 5.66294 11.666 7.3846 12.5474 9.11558C13.4293 10.8476 14.2467 12.581 14.8427 14.1376C15.4432 15.7057 15.8013 17.0502 15.8013 18.0198Z"
                                                                                stroke="black" stroke-width="0.82736" />
                                                                            <path
                                                                                d="M28.4462 28.4268C28.4462 30.2228 26.9 31.7174 24.9436 31.7174C22.9872 31.7174 21.441 30.2228 21.441 28.4268C21.441 27.9874 21.5788 27.3985 21.8313 26.6964C22.0811 26.0017 22.4312 25.2283 22.8296 24.4302C23.4107 23.2659 24.0818 22.0732 24.6773 21.0148C24.7639 20.861 24.8489 20.7099 24.9318 20.5622C25.0964 20.8681 25.2838 21.2086 25.4833 21.5711C25.5177 21.6337 25.5525 21.697 25.5876 21.7608C25.9986 22.5081 26.4561 23.3443 26.8838 24.1844C27.3121 25.0255 27.7066 25.8626 27.9932 26.611C28.2842 27.371 28.4462 27.9955 28.4462 28.4268Z"
                                                                                stroke="black" stroke-width="0.82736" />
                                                                        </svg>