  <svg xmlns="http://www.w3.org/2000/svg"
                                                                            width="40" height="38" viewBox="0 0 40 38"
                                                                            fill="none">
                                                                            <path
                                                                                d="M24.9621 32.0243C23.5681 32.7324 21.9896 33.1307 20.3152 33.1307C14.6136 33.1307 9.98877 28.5059 9.98877 22.8042C9.98877 22.5608 9.99614 22.3248 10.0109 22.0888C10.0109 22.0888 9.3323 17.641 20.3152 1.6571C30.4868 16.4608 30.6565 21.3733 30.627 22.015"
                                                                                stroke="black" stroke-width="0.831293"
                                                                                stroke-miterlimit="2.61313"
                                                                                stroke-linecap="round"
                                                                                stroke-linejoin="round" />
                                                                            <path
                                                                                d="M20.9455 28.4471C17.2427 28.4471 14.248 25.445 14.248 21.7496"
                                                                                stroke="black" stroke-width="0.831293"
                                                                                stroke-miterlimit="2.61313"
                                                                                stroke-linecap="round"
                                                                                stroke-linejoin="round" />
                                                                            <path
                                                                                d="M6.49063 12.6401C9.6681 12.6401 12.2439 10.0642 12.2439 6.88674C12.2439 3.70927 9.6681 1.13342 6.49063 1.13342C3.31315 1.13342 0.737305 3.70927 0.737305 6.88674C0.737305 10.0642 3.31315 12.6401 6.49063 12.6401Z"
                                                                                stroke="black" stroke-width="0.831293"
                                                                                stroke-miterlimit="2.61313"
                                                                                stroke-linecap="round"
                                                                                stroke-linejoin="round" />
                                                                            <path
                                                                                d="M6.72497 9.68945C5.05061 9.68945 3.68604 8.33225 3.68604 6.65051"
                                                                                stroke="black" stroke-width="0.831293"
                                                                                stroke-miterlimit="2.61313"
                                                                                stroke-linecap="round"
                                                                                stroke-linejoin="round" />
                                                                            <path
                                                                                d="M31.8778 36.745C35.9759 36.745 39.2981 33.4228 39.2981 29.3247C39.2981 25.2266 35.9759 21.9044 31.8778 21.9044C27.7797 21.9044 24.4575 25.2266 24.4575 29.3247C24.4575 33.4228 27.7797 36.745 31.8778 36.745Z"
                                                                                stroke="black" stroke-width="0.831293"
                                                                                stroke-miterlimit="2.61313"
                                                                                stroke-linecap="round"
                                                                                stroke-linejoin="round" />
                                                                            <path fill-rule="evenodd"
                                                                                clip-rule="evenodd"
                                                                                d="M31.5482 26.4922V26.0571C31.5482 25.8653 31.6515 25.7546 31.8433 25.7546H31.9023C32.0793 25.7546 32.1899 25.8432 32.1899 26.0202V26.4701C32.5956 26.4996 32.9792 26.6398 33.3111 26.8684C33.466 26.9717 33.4734 27.1192 33.3996 27.2741L33.2964 27.4659C33.1931 27.6429 33.0382 27.6577 32.8759 27.5544C32.5882 27.37 32.2637 27.252 31.917 27.252C31.4745 27.252 30.9729 27.5101 30.9729 28.0043C30.9729 29.037 33.6504 28.8378 33.6504 30.6007C33.6504 31.4711 33.0161 32.0538 32.1899 32.1644V32.5849C32.1899 32.7693 32.0941 32.8873 31.9023 32.8873H31.8433C31.6662 32.8873 31.5482 32.7988 31.5482 32.6144V32.1644C31.0614 32.1128 30.6115 31.921 30.2279 31.6186C30.0804 31.5006 30.0656 31.3457 30.1837 31.1982L30.3091 31.0211C30.4271 30.8589 30.5746 30.8589 30.7369 30.9621C31.0688 31.2129 31.4745 31.3752 31.8949 31.3752C32.3596 31.3752 32.8022 31.1244 32.8022 30.6155C32.8022 29.5312 30.1246 29.6934 30.1246 28.0117C30.1246 27.1856 30.7737 26.6029 31.5556 26.4701L31.5482 26.4922Z"
                                                                                fill="black" />
                                                                            <path
                                                                                d="M37.0205 31.4708C36.1796 33.4845 34.1955 34.8933 31.8794 34.8933"
                                                                                stroke="black" stroke-width="0.831293"
                                                                                stroke-miterlimit="2.61313"
                                                                                stroke-linecap="round"
                                                                                stroke-linejoin="round" />
                                                                            <path
                                                                                d="M35.457 25.0537C35.9734 25.4889 36.4085 26.0126 36.7478 26.6027"
                                                                                stroke="black" stroke-width="0.831293"
                                                                                stroke-miterlimit="2.61313"
                                                                                stroke-linecap="round"
                                                                                stroke-linejoin="round" />
                                                                        </svg>