 <svg xmlns="http://www.w3.org/2000/svg"
                                                                            width="24" height="24" viewBox="0 0 24 24"
                                                                            fill="none">
                                                                            <path
                                                                                d="M16.3096 11.0856V11.0856C17.1133 10.4562 18.275 10.5974 18.9044 11.401L20.0675 12.8859C21.808 15.1081 21.4175 18.3205 19.1954 20.061L17.9662 21.0238C17.2368 21.5951 16.3103 21.8532 15.3906 21.7414V21.7414C14.4709 21.6297 13.6333 21.1571 13.062 20.4277L11.2882 18.163C10.9397 17.7182 11.0179 17.0751 11.4628 16.7266V16.7266C11.9076 16.3782 12.5507 16.4564 12.8992 16.9012L13.6929 17.9146M17.2051 12.2289L16.4928 11.3195C16.1669 10.9033 15.5653 10.8302 15.1491 11.1562V11.1562V11.1562C14.7329 11.4821 14.6598 12.0837 14.9858 12.4999L15.3724 12.9936"
                                                                                stroke="black"
                                                                                stroke-width="0.732137" />
                                                                            <path
                                                                                d="M13.5476 14.0874L9.92497 9.4623C9.54281 8.97439 8.83748 8.88866 8.34957 9.27081V9.27081C7.86166 9.65297 7.77593 10.3583 8.15809 10.8462L13.0018 17.0303"
                                                                                stroke="black"
                                                                                stroke-width="0.732137" />
                                                                            <path
                                                                                d="M15.0696 12.607L14.7224 12.1637C14.3627 11.7045 13.6989 11.6239 13.2397 11.9835V11.9835C12.7805 12.3432 12.6998 13.007 13.0595 13.4663L13.8735 14.5056"
                                                                                stroke="black"
                                                                                stroke-width="0.732137" />
                                                                            <path
                                                                                d="M10.3944 10.3866C10.8332 9.66904 10.8892 8.74393 10.461 7.95041C9.82046 6.76331 8.33886 6.32025 7.15177 6.96079C5.96467 7.60134 5.52161 9.08294 6.16215 10.27C6.63995 11.1555 7.5857 11.627 8.52813 11.5436"
                                                                                stroke="black"
                                                                                stroke-width="0.732137" />
                                                                            <path
                                                                                d="M2.68056 7.27798C3.56881 5.05028 5.73599 3.47705 8.26854 3.47705C10.9165 3.47705 13.1651 5.19698 13.9699 7.58662"
                                                                                stroke="black"
                                                                                stroke-width="0.732137" />
                                                                            <path
                                                                                d="M0.781036 5.37822C2.05651 2.51428 4.89534 0.521484 8.19266 0.521484C11.6497 0.521484 14.6028 2.71208 15.7785 5.80055"
                                                                                stroke="black"
                                                                                stroke-width="0.732137" />
                                                                        </svg>