  <svg xmlns="http://www.w3.org/2000/svg" width="52"
                                                                        height="38" viewBox="0 0 52 38" fill="none">
                                                                        <path
                                                                            d="M1.20218 27.1184C0.897142 17.1083 1.57286 15.2233 3.65501 13.6617C5.59492 12.2068 6.56494 11.7218 11.4148 11.2368C16.2646 10.7518 20.3881 12.1033 20.6295 2.02208M32.6227 1.25903C32.7843 3.68396 32.0665 9.04465 39.5439 10.7518C46.884 12.4276 48.7585 13.1767 50.2136 16.0866C50.7648 17.1891 51.0844 25.5147 50.6964 28.2306"
                                                                            stroke="black" stroke-width="0.699315"
                                                                            stroke-linecap="round" />
                                                                        <path
                                                                            d="M24.8102 6.82031C24.9029 8.02523 25.4005 11.5131 24.2541 12.6595C22.8638 14.0498 16.7465 13.7718 15.3562 13.4937M30.0933 13.7718C30.0933 13.4937 30.4825 12.882 32.0397 12.6595C33.5968 12.4371 36.0252 12.5668 37.0447 12.6595"
                                                                            stroke="black" stroke-width="0.699315"
                                                                            stroke-linecap="round" />
                                                                        <path
                                                                            d="M9.56432 33.2357V26.8403C9.47163 27.7672 9.56425 31.0112 11.4634 32.6795"
                                                                            stroke="black" stroke-width="0.699315"
                                                                            stroke-linecap="round" />
                                                                        <path
                                                                            d="M42.9911 26.8403C43.5829 29.1615 44.0564 34.4132 41.2156 36.8504"
                                                                            stroke="black" stroke-width="0.699315"
                                                                            stroke-linecap="round" />
                                                                        <circle cx="17.538" cy="18.7765" r="1.9464"
                                                                            fill="black" fill-opacity="0.3" />
                                                                        <circle cx="23.0991" cy="21.0012" r="0.834173"
                                                                            fill="black" fill-opacity="0.6" />
                                                                        <circle cx="29.2164" cy="26.5622" r="0.834173"
                                                                            fill="black" fill-opacity="0.2" />
                                                                        <circle cx="22.543" cy="17.6643" r="0.834173"
                                                                            fill="black" fill-opacity="0.2" />
                                                                        <circle cx="31.4409" cy="19.8886" r="0.834173"
                                                                            fill="black" fill-opacity="0.2" />
                                                                        <circle cx="34.7771" cy="20.4446" r="0.277639"
                                                                            fill="black" fill-opacity="0.2" />
                                                                        <circle cx="21.4303" cy="23.2251" r="0.277639"
                                                                            fill="black" fill-opacity="0.2" />
                                                                        <circle cx="36.4459" cy="15.4399" r="0.834173"
                                                                            fill="black" fill-opacity="0.8" />
                                                                    </svg>