 <svg xmlns="http://www.w3.org/2000/svg"
                                                                            width="27" height="26" viewBox="0 0 27 26"
                                                                            fill="none">
                                                                            <path
                                                                                d="M18.9515 12.8057C18.9515 16.1368 18.3078 19.1346 17.2833 21.286C16.2459 23.4646 14.8841 24.6554 13.5002 24.6554C12.1163 24.6554 10.7545 23.4646 9.71706 21.286C8.69259 19.1346 8.04888 16.1368 8.04888 12.8057C8.04888 9.47462 8.69259 6.4768 9.71706 4.3254C10.7545 2.14675 12.1163 0.955986 13.5002 0.955986C14.8841 0.955986 16.2459 2.14675 17.2833 4.3254C18.3078 6.4768 18.9515 9.47462 18.9515 12.8057Z"
                                                                                stroke="black"
                                                                                stroke-width="0.730819" />
                                                                            <path
                                                                                d="M10.7748 17.5258C7.89 15.8603 5.61567 13.8039 4.26474 11.841C2.8967 9.85323 2.54638 8.07847 3.23831 6.88001C3.93024 5.68156 5.64238 5.09757 8.04788 5.28844C10.4233 5.47691 13.3413 6.41835 16.2261 8.08389C19.1109 9.74943 21.3852 11.8058 22.7362 13.7687C24.1042 15.7565 24.4545 17.5313 23.7626 18.7297C23.0707 19.9282 21.3585 20.5122 18.953 20.3213C16.5776 20.1328 13.6596 19.1914 10.7748 17.5258Z"
                                                                                stroke="black"
                                                                                stroke-width="0.730819" />
                                                                            <path
                                                                                d="M10.7739 8.0852C13.6587 6.41966 16.5768 5.47822 18.9522 5.28975C21.3577 5.09888 23.0698 5.68287 23.7617 6.88133C24.4537 8.07978 24.1033 9.85454 22.7353 11.8423C21.3844 13.8052 19.11 15.8616 16.2252 17.5272C13.3404 19.1927 10.4224 20.1341 8.04701 20.3226C5.64151 20.5135 3.92937 19.9295 3.23744 18.731C2.54551 17.5326 2.89583 15.7578 4.26387 13.77C5.6148 11.8071 7.88913 9.75074 10.7739 8.0852Z"
                                                                                stroke="black"
                                                                                stroke-width="0.730819" />
                                                                        </svg>