  <svg xmlns="http://www.w3.org/2000/svg"
                                                                            width="29" height="29" viewBox="0 0 29 29"
                                                                            fill="none">
                                                                            <path fill-rule="evenodd"
                                                                                clip-rule="evenodd"
                                                                                d="M7.96516 10.9342L5.68436 8.65341C5.29546 10.084 5.66271 11.6772 6.78613 12.8007C7.96001 13.9745 9.64686 14.3228 11.1251 13.8454L19.402 22.1224C20.1933 22.9136 21.4761 22.9136 22.2674 22.1224C23.0586 21.3311 23.0586 20.0482 22.2674 19.257L13.9282 10.9178C14.3234 9.48359 13.9574 7.8836 12.8303 6.7565C11.7258 5.65204 10.1673 5.27843 8.75557 5.63569L11.0252 7.90534L10.9959 7.93462L10.3517 10.2781L8.00818 10.9224L7.98076 10.9498L7.96516 10.9342L7.96516 10.9342L7.96516 10.9342Z"
                                                                                fill="white" />
                                                                            <path
                                                                                d="M5.68436 8.65341L5.97827 8.3595L5.47133 7.85257L5.28327 8.54437L5.68436 8.65341ZM7.96516 10.9342L8.36616 11.0436L8.42963 10.8109L8.25907 10.6403L7.96516 10.9342ZM11.1251 13.8454L11.419 13.5515L11.2393 13.3718L10.9974 13.4499L11.1251 13.8454ZM19.402 22.1224L19.1081 22.4163L19.402 22.1224ZM22.2674 19.257L22.5613 18.9631L22.2674 19.257ZM13.9282 10.9178L13.5275 10.8074L13.4632 11.0406L13.6343 11.2117L13.9282 10.9178ZM8.75557 5.63569L8.6536 5.23275L7.94432 5.41225L8.46167 5.9296L8.75557 5.63569ZM11.0252 7.90534L11.3191 8.19925L11.613 7.90534L11.3191 7.61144L11.0252 7.90534ZM10.9959 7.93462L10.702 7.64072L10.6243 7.71845L10.5952 7.82444L10.9959 7.93462ZM10.3517 10.2781L10.4618 10.6789L10.6898 10.6162L10.7524 10.3883L10.3517 10.2781ZM8.00818 10.9224L7.89799 10.5216L7.792 10.5508L7.71427 10.6285L8.00818 10.9224ZM7.98076 10.9498L7.68685 11.2437L7.98076 11.5376L8.27466 11.2437L7.98076 10.9498ZM7.96516 10.9342L8.25907 10.6403L8.08851 10.4697L7.8558 10.5332L7.96516 10.9342ZM7.96516 10.9342L7.56416 10.8249L7.37277 11.5266L8.07452 11.3352L7.96516 10.9342ZM5.39045 8.94732L7.67125 11.2281L8.25907 10.6403L5.97827 8.3595L5.39045 8.94732ZM7.08004 12.5068C6.06625 11.493 5.73404 10.0551 6.08545 8.76244L5.28327 8.54437C4.85687 10.1129 5.25918 11.8615 6.49222 13.0946L7.08004 12.5068ZM10.9974 13.4499C9.6618 13.8812 8.13933 13.566 7.08004 12.5068L6.49222 13.0946C7.78069 14.383 9.63192 14.7644 11.2528 14.241L10.9974 13.4499ZM19.6959 21.8284L11.419 13.5515L10.8312 14.1394L19.1081 22.4163L19.6959 21.8284ZM21.9735 21.8285C21.3446 22.4574 20.3249 22.4574 19.6959 21.8284L19.1081 22.4163C20.0617 23.3698 21.6077 23.3698 22.5613 22.4163L21.9735 21.8285ZM21.9735 19.5509C22.6024 20.1798 22.6024 21.1995 21.9735 21.8285L22.5613 22.4163C23.5149 21.4627 23.5149 19.9166 22.5613 18.9631L21.9735 19.5509ZM13.6343 11.2117L21.9735 19.5509L22.5613 18.9631L14.2221 10.6239L13.6343 11.2117ZM12.5364 7.05041C13.5535 8.06751 13.8845 9.51147 13.5275 10.8074L14.3289 11.0282C14.7622 9.45571 14.3613 7.69968 13.1242 6.4626L12.5364 7.05041ZM8.85755 6.03864C10.1332 5.71581 11.5397 6.05371 12.5364 7.05041L13.1242 6.4626C11.912 5.25036 10.2013 4.84106 8.6536 5.23275L8.85755 6.03864ZM11.3191 7.61144L9.04948 5.34179L8.46167 5.9296L10.7313 8.19925L11.3191 7.61144ZM11.2898 8.22853L11.3191 8.19925L10.7313 7.61144L10.702 7.64072L11.2898 8.22853ZM10.7524 10.3883L11.3967 8.04481L10.5952 7.82444L9.95087 10.1679L10.7524 10.3883ZM8.11836 11.3232L10.4618 10.6789L10.2415 9.87732L7.89799 10.5216L8.11836 11.3232ZM8.27466 11.2437L8.30208 11.2163L7.71427 10.6285L7.68685 10.6559L8.27466 11.2437ZM7.67126 11.2281L7.68685 11.2437L8.27466 10.6559L8.25907 10.6403L7.67126 11.2281ZM8.07452 11.3352L8.07453 11.3352L7.8558 10.5332L7.8558 10.5332L8.07452 11.3352ZM7.56416 10.8248L7.56416 10.8249L8.36616 11.0436L8.36616 11.0436L7.56416 10.8248Z"
                                                                                fill="black" />
                                                                            <circle cx="14.4912" cy="14.4624"
                                                                                r="14.0468" stroke="black"
                                                                                stroke-width="0.831294" />
                                                                            <path d="M24.2324 5.09558L5.12451 24.2035"
                                                                                stroke="black"
                                                                                stroke-width="0.831294" />
                                                                        </svg>