<svg width="73" height="73" viewBox="0 0 73 73" fill="none" xmlns="http://www.w3.org/2000/svg">
<circle cx="36.5" cy="36.6703" r="35.5" stroke="#C7E7DC"/>
<g clip-path="url(#clip0_28564_3433)">
<path d="M17.625 34.3474H56.375C56.7892 34.3474 57.125 34.0116 57.125 33.5974C57.125 33.1832 56.7892 32.8474 56.375 32.8474H17.625C17.2108 32.8474 16.875 33.1832 16.875 33.5974C16.875 34.0116 17.2108 34.3474 17.625 34.3474Z" fill="black" stroke="black" stroke-width="0.25"/>
<path d="M56.375 49.0973H17.625C17.2108 49.0973 16.875 49.4331 16.875 49.8473C16.875 50.2615 17.2108 50.5973 17.625 50.5973H56.375C56.7892 50.5973 57.125 50.2615 57.125 49.8473C57.125 49.4331 56.7892 49.0973 56.375 49.0973Z" fill="black" stroke="black" stroke-width="0.25"/>
<path d="M17.625 47.0297H19.0437C19.4579 47.0297 19.7937 46.6939 19.7937 46.2797C19.7937 45.8655 19.4579 45.5297 19.0437 45.5297H17.625C17.2108 45.5297 16.875 45.8655 16.875 46.2797C16.875 46.6939 17.2108 47.0297 17.625 47.0297Z" fill="black" stroke="black" stroke-width="0.25"/>
<path d="M22.958 45.5297C22.5438 45.5297 22.208 45.8655 22.208 46.2797C22.208 46.6939 22.5438 47.0297 22.958 47.0297H24.3767C24.7909 47.0297 25.1267 46.6939 25.1267 46.2797C25.1267 45.8655 24.7909 45.5297 24.3767 45.5297H22.958Z" fill="black" stroke="black" stroke-width="0.25"/>
<path d="M28.291 45.5297C27.8768 45.5297 27.541 45.8655 27.541 46.2797C27.541 46.6939 27.8768 47.0297 28.291 47.0297H29.7097C30.1239 47.0297 30.4597 46.6939 30.4597 46.2797C30.4597 45.8655 30.1239 45.5297 29.7097 45.5297H28.291Z" fill="black" stroke="black" stroke-width="0.25"/>
<path d="M33.624 45.5297C33.2098 45.5297 32.874 45.8655 32.874 46.2797C32.874 46.6939 33.2098 47.0297 33.624 47.0297H35.0427C35.4569 47.0297 35.7927 46.6939 35.7927 46.2797C35.7927 45.8655 35.4569 45.5297 35.0427 45.5297H33.624Z" fill="black" stroke="black" stroke-width="0.25"/>
<path d="M38.957 45.5297C38.5428 45.5297 38.207 45.8655 38.207 46.2797C38.207 46.6939 38.5428 47.0297 38.957 47.0297H40.3757C40.7899 47.0297 41.1257 46.6939 41.1257 46.2797C41.1257 45.8655 40.7899 45.5297 40.3757 45.5297H38.957Z" fill="black" stroke="black" stroke-width="0.25"/>
<path d="M44.29 45.5297C43.8758 45.5297 43.54 45.8655 43.54 46.2797C43.54 46.6939 43.8758 47.0297 44.29 47.0297H45.7087C46.1229 47.0297 46.4587 46.6939 46.4587 46.2797C46.4587 45.8655 46.1229 45.5297 45.7087 45.5297H44.29Z" fill="black" stroke="black" stroke-width="0.25"/>
<path d="M49.623 45.5297C49.2089 45.5297 48.873 45.8655 48.873 46.2797C48.873 46.6939 49.2089 47.0297 49.623 47.0297H51.0417C51.4559 47.0297 51.7917 46.6939 51.7917 46.2797C51.7917 45.8655 51.4559 45.5297 51.0417 45.5297H49.623Z" fill="black" stroke="black" stroke-width="0.25"/>
<path d="M56.3747 45.5297H54.9561C54.5419 45.5297 54.2061 45.8655 54.2061 46.2797C54.2061 46.6939 54.5419 47.0297 54.9561 47.0297H56.3747C56.7889 47.0297 57.1247 46.6939 57.1247 46.2797C57.1247 45.8655 56.7889 45.5297 56.3747 45.5297Z" fill="black" stroke="black" stroke-width="0.25"/>
<path d="M51.9361 39.5794L51.936 39.5792C50.7971 37.6621 48.7099 36.4712 46.4878 36.4712C44.2658 36.4712 42.1785 37.6621 41.0389 39.5804L41.0387 39.5807C40.1707 41.0494 38.5725 41.962 36.8688 41.962C35.1651 41.962 33.567 41.0495 32.6982 39.5795L32.698 39.5793C31.5591 37.6622 29.4719 36.4712 27.2498 36.4712C25.0278 36.4712 22.9406 37.6622 21.8009 39.5805L21.8007 39.5808C20.9327 41.0495 19.3346 41.9621 17.6309 41.9621C17.2167 41.9621 16.8809 42.2979 16.8809 42.7121C16.8809 43.1263 17.2167 43.4621 17.6309 43.4621C19.8629 43.4621 21.9552 42.2675 23.0913 40.3454C23.9748 38.8582 25.5289 37.9713 27.2498 37.9713C28.9707 37.9713 30.5247 38.8582 31.4075 40.344C32.5443 42.2675 34.6366 43.4621 36.8687 43.4621C39.1008 43.4621 41.193 42.2675 42.3292 40.3454C43.2127 38.8582 44.7668 37.9713 46.4877 37.9713C48.2086 37.9713 49.7627 38.8583 50.6455 40.3442C51.7824 42.2676 53.8745 43.4621 56.1066 43.4621H56.158L56.16 43.4601C56.5494 43.4327 56.8567 43.1082 56.8567 42.7119C56.8567 42.2978 56.5209 41.9619 56.1067 41.9619C54.403 41.9619 52.8049 41.0494 51.9361 39.5794Z" fill="black" stroke="black" stroke-width="0.25"/>
<path d="M24.9287 25.5974H25.4287V26.0974C25.4287 26.5116 25.7645 26.8474 26.1787 26.8474C26.5929 26.8474 26.9287 26.5116 26.9287 26.0974V25.5974H27.4287C27.8429 25.5974 28.1787 25.2616 28.1787 24.8474C28.1787 24.4332 27.8429 24.0974 27.4287 24.0974H26.9287V23.5974C26.9287 23.1832 26.5929 22.8474 26.1787 22.8474C25.7645 22.8474 25.4287 23.1832 25.4287 23.5974V24.0974H24.9287C24.5145 24.0974 24.1787 24.4332 24.1787 24.8474C24.1787 25.2616 24.5145 25.5974 24.9287 25.5974Z" fill="black" stroke="black" stroke-width="0.25"/>
<path d="M47.833 27.5612H48.333V28.0612C48.333 28.4754 48.6688 28.8112 49.083 28.8112C49.4972 28.8112 49.833 28.4754 49.833 28.0612V27.5612H50.333C50.7472 27.5612 51.083 27.2254 51.083 26.8112C51.083 26.397 50.7472 26.0612 50.333 26.0612H49.833V25.5612C49.833 25.147 49.4972 24.8112 49.083 24.8112C48.6688 24.8112 48.333 25.147 48.333 25.5612V26.0612H47.833C47.4188 26.0612 47.083 26.397 47.083 26.8112C47.083 27.2254 47.4188 27.5612 47.833 27.5612Z" fill="black" stroke="black" stroke-width="0.25"/>
<path d="M38.416 30.0612H38.916V30.5612C38.916 30.9754 39.2518 31.3112 39.666 31.3112C40.0802 31.3112 40.416 30.9754 40.416 30.5612V30.0612H40.916C41.3302 30.0612 41.666 29.7254 41.666 29.3112C41.666 28.897 41.3302 28.5612 40.916 28.5612H40.416V28.0612C40.416 27.647 40.0802 27.3112 39.666 27.3112C39.2518 27.3112 38.916 27.647 38.916 28.0612V28.5612H38.416C38.0018 28.5612 37.666 28.897 37.666 29.3112C37.666 29.7254 38.0018 30.0612 38.416 30.0612Z" fill="black" stroke="black" stroke-width="0.25"/>
</g>
<defs>
<clipPath id="clip0_28564_3433">
<rect width="40" height="40" fill="white" transform="translate(17 16.6703)"/>
</clipPath>
</defs>
</svg>
