<svg width="141" height="26" viewBox="0 0 141 26" fill="none" xmlns="http://www.w3.org/2000/svg">
<rect width="141" height="26" rx="13" fill="#C92127"/>
<path d="M10.4776 10.2V8.523H13.6106V18H11.7386V10.2H10.4776ZM22.5456 14.165H20.0886V16.687H18.3726V14.165H15.9156V12.579H18.3726V10.057H20.0886V12.579H22.5456V14.165ZM24.2073 10.2V8.523H27.3403V18H25.4683V10.2H24.2073ZM35.837 18.091C35.2043 18.091 34.6323 17.9827 34.121 17.766C33.6183 17.5493 33.2196 17.2373 32.925 16.83C32.6303 16.4227 32.4786 15.9417 32.47 15.387H34.42C34.446 15.7597 34.576 16.0543 34.81 16.271C35.0526 16.4877 35.382 16.596 35.798 16.596C36.2226 16.596 36.5563 16.4963 36.799 16.297C37.0416 16.089 37.163 15.8203 37.163 15.491C37.163 15.2223 37.0806 15.0013 36.916 14.828C36.7513 14.6547 36.5433 14.5203 36.292 14.425C36.0493 14.321 35.7113 14.2083 35.278 14.087C34.6886 13.9137 34.2076 13.7447 33.835 13.58C33.471 13.4067 33.1546 13.151 32.886 12.813C32.626 12.4663 32.496 12.007 32.496 11.435C32.496 10.8977 32.6303 10.4297 32.899 10.031C33.1676 9.63233 33.5446 9.329 34.03 9.121C34.5153 8.90433 35.07 8.796 35.694 8.796C36.63 8.796 37.3883 9.02567 37.969 9.485C38.5583 9.93567 38.8833 10.5683 38.944 11.383H36.942C36.9246 11.071 36.7903 10.8153 36.539 10.616C36.2963 10.408 35.9713 10.304 35.564 10.304C35.2086 10.304 34.9226 10.395 34.706 10.577C34.498 10.759 34.394 11.0233 34.394 11.37C34.394 11.6127 34.472 11.8163 34.628 11.981C34.7926 12.137 34.992 12.267 35.226 12.371C35.4686 12.4663 35.8066 12.579 36.24 12.709C36.8293 12.8823 37.3103 13.0557 37.683 13.229C38.0556 13.4023 38.3763 13.6623 38.645 14.009C38.9136 14.3557 39.048 14.8107 39.048 15.374C39.048 15.8593 38.9223 16.31 38.671 16.726C38.4196 17.142 38.0513 17.4757 37.566 17.727C37.0806 17.9697 36.5043 18.091 35.837 18.091ZM47.3728 11.734C47.3728 12.2193 47.2558 12.6743 47.0218 13.099C46.7965 13.5237 46.4368 13.866 45.9428 14.126C45.4575 14.386 44.8422 14.516 44.0968 14.516H42.5758V18H40.7558V8.926H44.0968C44.7988 8.926 45.3968 9.04733 45.8908 9.29C46.3848 9.53267 46.7532 9.86633 46.9958 10.291C47.2472 10.7157 47.3728 11.1967 47.3728 11.734ZM44.0188 13.047C44.5215 13.047 44.8942 12.9343 45.1368 12.709C45.3795 12.475 45.5008 12.15 45.5008 11.734C45.5008 10.85 45.0068 10.408 44.0188 10.408H42.5758V13.047H44.0188ZM50.615 10.395V12.67H53.67V14.113H50.615V16.518H54.06V18H48.795V8.913H54.06V10.395H50.615ZM55.402 13.45C55.402 12.5573 55.6013 11.76 56 11.058C56.4073 10.3473 56.9576 9.797 57.651 9.407C58.353 9.00833 59.1373 8.809 60.004 8.809C61.018 8.809 61.9063 9.069 62.669 9.589C63.4316 10.109 63.9646 10.8283 64.268 11.747H62.175C61.967 11.3137 61.6723 10.9887 61.291 10.772C60.9183 10.5553 60.485 10.447 59.991 10.447C59.4623 10.447 58.99 10.5727 58.574 10.824C58.1666 11.0667 57.846 11.4133 57.612 11.864C57.3866 12.3147 57.274 12.8433 57.274 13.45C57.274 14.048 57.3866 14.5767 57.612 15.036C57.846 15.4867 58.1666 15.8377 58.574 16.089C58.99 16.3317 59.4623 16.453 59.991 16.453C60.485 16.453 60.9183 16.3447 61.291 16.128C61.6723 15.9027 61.967 15.5733 62.175 15.14H64.268C63.9646 16.0673 63.4316 16.791 62.669 17.311C61.915 17.8223 61.0266 18.078 60.004 18.078C59.1373 18.078 58.353 17.883 57.651 17.493C56.9576 17.0943 56.4073 16.544 56 15.842C55.6013 15.14 55.402 14.3427 55.402 13.45ZM67.7725 8.926V18H65.9525V8.926H67.7725ZM75.2646 16.271H71.6506L71.0526 18H69.1416L72.4046 8.913H74.5236L77.7866 18H75.8626L75.2646 16.271ZM74.7706 14.815L73.4576 11.019L72.1446 14.815H74.7706ZM80.9563 16.557H83.9463V18H79.1363V8.926H80.9563V16.557ZM92.6728 18.091C91.8234 18.091 91.0434 17.8917 90.3328 17.493C89.6221 17.0943 89.0588 16.544 88.6428 15.842C88.2268 15.1313 88.0188 14.3297 88.0188 13.437C88.0188 12.553 88.2268 11.76 88.6428 11.058C89.0588 10.3473 89.6221 9.79267 90.3328 9.394C91.0434 8.99533 91.8234 8.796 92.6728 8.796C93.5308 8.796 94.3108 8.99533 95.0128 9.394C95.7234 9.79267 96.2824 10.3473 96.6898 11.058C97.1058 11.76 97.3138 12.553 97.3138 13.437C97.3138 14.3297 97.1058 15.1313 96.6898 15.842C96.2824 16.544 95.7234 17.0943 95.0128 17.493C94.3021 17.8917 93.5221 18.091 92.6728 18.091ZM92.6728 16.466C93.2188 16.466 93.6998 16.3447 94.1158 16.102C94.5318 15.8507 94.8568 15.4953 95.0908 15.036C95.3248 14.5767 95.4418 14.0437 95.4418 13.437C95.4418 12.8303 95.3248 12.3017 95.0908 11.851C94.8568 11.3917 94.5318 11.0407 94.1158 10.798C93.6998 10.5553 93.2188 10.434 92.6728 10.434C92.1268 10.434 91.6414 10.5553 91.2168 10.798C90.8008 11.0407 90.4758 11.3917 90.2418 11.851C90.0078 12.3017 89.8908 12.8303 89.8908 13.437C89.8908 14.0437 90.0078 14.5767 90.2418 15.036C90.4758 15.4953 90.8008 15.8507 91.2168 16.102C91.6414 16.3447 92.1268 16.466 92.6728 16.466ZM104.401 8.926V10.395H100.618V12.722H103.517V14.165H100.618V18H98.7978V8.926H104.401ZM111.424 8.926V10.395H107.641V12.722H110.54V14.165H107.641V18H105.821V8.926H111.424ZM114.665 10.395V12.67H117.72V14.113H114.665V16.518H118.11V18H112.845V8.913H118.11V10.395H114.665ZM124.574 18L122.572 14.464H121.714V18H119.894V8.926H123.3C124.002 8.926 124.6 9.05167 125.094 9.303C125.588 9.54567 125.956 9.87933 126.199 10.304C126.45 10.72 126.576 11.188 126.576 11.708C126.576 12.306 126.403 12.8477 126.056 13.333C125.709 13.8097 125.194 14.139 124.509 14.321L126.68 18H124.574ZM121.714 13.099H123.235C123.729 13.099 124.097 12.982 124.34 12.748C124.583 12.5053 124.704 12.1717 124.704 11.747C124.704 11.331 124.583 11.0103 124.34 10.785C124.097 10.551 123.729 10.434 123.235 10.434H121.714V13.099ZM129.158 18.091C128.829 18.091 128.556 17.9913 128.339 17.792C128.131 17.584 128.027 17.3283 128.027 17.025C128.027 16.7217 128.131 16.4703 128.339 16.271C128.556 16.063 128.829 15.959 129.158 15.959C129.479 15.959 129.743 16.063 129.951 16.271C130.159 16.4703 130.263 16.7217 130.263 17.025C130.263 17.3283 130.159 17.584 129.951 17.792C129.743 17.9913 129.479 18.091 129.158 18.091ZM129.158 12.709C128.829 12.709 128.556 12.6093 128.339 12.41C128.131 12.202 128.027 11.9463 128.027 11.643C128.027 11.3397 128.131 11.0883 128.339 10.889C128.556 10.681 128.829 10.577 129.158 10.577C129.479 10.577 129.743 10.681 129.951 10.889C130.159 11.0883 130.263 11.3397 130.263 11.643C130.263 11.9463 130.159 12.202 129.951 12.41C129.743 12.6093 129.479 12.709 129.158 12.709Z" fill="white"/>
</svg>
