<svg width="45" height="45" viewBox="0 0 45 45" fill="none" xmlns="http://www.w3.org/2000/svg">
<rect x="28.6442" y="12.6688" width="5.2751" height="3.12052" transform="rotate(15.805 28.6442 12.6688)" stroke="black" stroke-width="0.65"/>
<rect x="24.543" y="16.9203" width="10.8827" height="24.6462" transform="rotate(15.805 24.543 16.9203)" stroke="black" stroke-width="0.65"/>
<circle cx="22.3465" cy="10.5714" r="0.507944" transform="rotate(15.805 22.3465 10.5714)" fill="black"/>
<circle cx="19.7194" cy="7.40443" r="0.507944" transform="rotate(15.805 19.7194 7.40443)" fill="black"/>
<circle cx="16.9782" cy="4.64662" r="0.507944" transform="rotate(15.805 16.9782 4.64662)" fill="black"/>
<circle cx="14.6697" cy="12.8019" r="0.507944" transform="rotate(15.805 14.6697 12.8019)" fill="black"/>
<circle cx="18.4499" cy="11.8893" r="0.507944" transform="rotate(15.805 18.4499 11.8893)" fill="black"/>
<circle cx="15.8234" cy="8.72377" r="0.507944" transform="rotate(15.805 15.8234 8.72377)" fill="black"/>
<circle cx="11.7802" cy="9.7809" r="0.507944" transform="rotate(15.805 11.7802 9.7809)" fill="black"/>
<circle cx="12.935" cy="5.70375" r="0.507944" transform="rotate(15.805 12.935 5.70375)" fill="black"/>
<circle cx="14.0887" cy="1.62709" r="0.507944" transform="rotate(15.805 14.0887 1.62709)" fill="black"/>
<circle cx="10.6271" cy="13.859" r="0.507944" transform="rotate(15.805 10.6271 13.859)" fill="black"/>
</svg>
