<svg width="46" height="47" viewBox="0 0 46 47" fill="none" xmlns="http://www.w3.org/2000/svg">
<path d="M19.2702 30.5456C19.4781 30.5006 19.6062 30.3894 19.5562 30.2973C19.5062 30.2051 19.2972 30.1669 19.0893 30.2118C18.8814 30.2568 18.7534 30.368 18.8033 30.4601C18.8533 30.5523 19.0623 30.5906 19.2702 30.5456Z" fill="black"/>
<path d="M22.4226 29.8952C22.6305 29.8502 22.7585 29.739 22.7085 29.6469C22.6586 29.5547 22.4496 29.5165 22.2417 29.5614C22.0338 29.6064 21.9057 29.7176 21.9557 29.8098C22.0056 29.9019 22.2147 29.9402 22.4226 29.8952Z" fill="black"/>
<path d="M16.1472 31.2524C16.3551 31.2074 16.4831 31.0962 16.4332 31.0041C16.3832 30.9119 16.1742 30.8736 15.9663 30.9186C15.7584 30.9636 15.6303 31.0748 15.6803 31.1669C15.7303 31.2591 15.9393 31.2973 16.1472 31.2524Z" fill="black"/>
<path d="M25.6335 29.3554C25.8414 29.3104 25.9694 29.1992 25.9195 29.1071C25.8695 29.0149 25.6605 28.9767 25.4526 29.0217C25.2447 29.0666 25.1167 29.1778 25.1666 29.27C25.2166 29.3621 25.4256 29.4004 25.6335 29.3554Z" fill="black"/>
<path d="M13.1618 32.2089C13.3697 32.1639 13.4978 32.0528 13.4478 31.9606C13.3978 31.8684 13.1888 31.8302 12.9809 31.8752C12.773 31.9201 12.645 32.0313 12.6949 32.1235C12.7449 32.2156 12.9539 32.2539 13.1618 32.2089Z" fill="black"/>
<path d="M11.0114 33.5441C11.2193 33.4991 11.3474 33.388 11.2974 33.2958C11.2475 33.2036 11.0384 33.1654 10.8305 33.2104C10.6226 33.2553 10.4946 33.3665 10.5446 33.4587C10.5945 33.5508 10.8035 33.5891 11.0114 33.5441Z" fill="black"/>
<path d="M9.49874 35.0213C9.70663 34.9764 9.83467 34.8652 9.78472 34.773C9.73476 34.6809 9.52573 34.6426 9.31783 34.6876C9.10994 34.7326 8.9819 34.8438 9.03186 34.9359C9.08181 35.0281 9.29084 35.0663 9.49874 35.0213Z" fill="black"/>
<path d="M8.93722 36.5719C9.14511 36.527 9.27315 36.4158 9.22319 36.3236C9.17324 36.2315 8.96421 36.1932 8.75631 36.2382C8.54842 36.2832 8.42038 36.3944 8.47033 36.4865C8.52029 36.5787 8.72932 36.6169 8.93722 36.5719Z" fill="black"/>
<path d="M9.50265 38.0031C9.71054 37.9581 9.83858 37.847 9.78862 37.7548C9.73867 37.6626 9.52964 37.6244 9.32174 37.6694C9.11385 37.7143 8.98581 37.8255 9.03576 37.9177C9.08572 38.0098 9.29475 38.0481 9.50265 38.0031Z" fill="black"/>
<path d="M28.821 29.2865C29.0289 29.2416 29.1569 29.1304 29.107 29.0382C29.057 28.9461 28.848 28.9078 28.6401 28.9528C28.4322 28.9978 28.3042 29.109 28.3541 29.2011C28.4041 29.2933 28.6131 29.3315 28.821 29.2865Z" fill="black"/>
<path d="M31.7214 29.592C31.9293 29.547 32.0573 29.4358 32.0074 29.3437C31.9574 29.2515 31.7484 29.2132 31.5405 29.2582C31.3326 29.3032 31.2046 29.4144 31.2545 29.5065C31.3045 29.5987 31.5135 29.6369 31.7214 29.592Z" fill="black"/>
<path d="M33.8747 30.4621C34.0826 30.4171 34.2106 30.3059 34.1607 30.2138C34.1107 30.1216 33.9017 30.0834 33.6938 30.1283C33.4859 30.1733 33.3579 30.2845 33.4078 30.3766C33.4578 30.4688 33.6668 30.5071 33.8747 30.4621Z" fill="black"/>
<path d="M35.4128 31.6208C35.6207 31.5758 35.7487 31.4646 35.6988 31.3725C35.6488 31.2803 35.4398 31.2421 35.2319 31.287C35.024 31.332 34.896 31.4432 34.9459 31.5353C34.9959 31.6275 35.2049 31.6658 35.4128 31.6208Z" fill="black"/>
<path d="M35.9489 32.9963C36.1568 32.9513 36.2849 32.8401 36.2349 32.748C36.185 32.6558 35.9759 32.6175 35.768 32.6625C35.5601 32.7075 35.4321 32.8187 35.4821 32.9108C35.532 33.003 35.741 33.0412 35.9489 32.9963Z" fill="black"/>
<path d="M35.3718 34.5197C35.5797 34.4747 35.7077 34.3636 35.6578 34.2714C35.6078 34.1792 35.3988 34.141 35.1909 34.186C34.983 34.2309 34.8549 34.3421 34.9049 34.4343C34.9549 34.5264 35.1639 34.5647 35.3718 34.5197Z" fill="black"/>
<path d="M33.8132 36.038C34.0211 35.993 34.1491 35.8819 34.0992 35.7897C34.0492 35.6975 33.8402 35.6593 33.6323 35.7043C33.4244 35.7492 33.2964 35.8604 33.3463 35.9526C33.3963 36.0447 33.6053 36.083 33.8132 36.038Z" fill="black"/>
<path d="M31.7722 37.3182C31.9801 37.2732 32.1081 37.1621 32.0582 37.0699C32.0082 36.9778 31.7992 36.9395 31.5913 36.9845C31.3834 37.0295 31.2553 37.1406 31.3053 37.2328C31.3553 37.3249 31.5643 37.3632 31.7722 37.3182Z" fill="black"/>
<path d="M28.7243 38.2887C28.9322 38.2438 29.0603 38.1326 29.0103 38.0404C28.9603 37.9483 28.7513 37.91 28.5434 37.955C28.3355 38 28.2075 38.1111 28.2574 38.2033C28.3074 38.2955 28.5164 38.3337 28.7243 38.2887Z" fill="black"/>
<path d="M25.4284 39.0636C25.6363 39.0187 25.7644 38.9075 25.7144 38.8153C25.6644 38.7232 25.4554 38.6849 25.2475 38.7299C25.0396 38.7749 24.9116 38.8861 24.9615 38.9782C25.0115 39.0704 25.2205 39.1086 25.4284 39.0636Z" fill="black"/>
<path d="M22.2624 39.6861C22.4703 39.6412 22.5983 39.53 22.5484 39.4378C22.4984 39.3457 22.2894 39.3074 22.0815 39.3524C21.8736 39.3974 21.7456 39.5085 21.7955 39.6007C21.8455 39.6929 22.0545 39.7311 22.2624 39.6861Z" fill="black"/>
<path d="M19.2526 40.2135C19.4605 40.1686 19.5886 40.0574 19.5386 39.9652C19.4887 39.8731 19.2796 39.8348 19.0717 39.8798C18.8638 39.9248 18.7358 40.036 18.7858 40.1281C18.8357 40.2203 19.0447 40.2585 19.2526 40.2135Z" fill="black"/>
<path d="M16.1276 40.2677C16.3355 40.2227 16.4636 40.1115 16.4136 40.0194C16.3637 39.9272 16.1546 39.889 15.9467 39.9339C15.7388 39.9789 15.6108 40.0901 15.6608 40.1823C15.7107 40.2744 15.9197 40.3127 16.1276 40.2677Z" fill="black"/>
<path d="M13.0886 39.9616C13.2965 39.9166 13.4245 39.8054 13.3746 39.7133C13.3246 39.6211 13.1156 39.5829 12.9077 39.6279C12.6998 39.6728 12.5717 39.784 12.6217 39.8762C12.6717 39.9683 12.8807 40.0066 13.0886 39.9616Z" fill="black"/>
<path d="M10.8239 39.1471C11.0318 39.1022 11.1599 38.991 11.1099 38.8988C11.06 38.8067 10.8509 38.7684 10.643 38.8134C10.4351 38.8584 10.3071 38.9695 10.3571 39.0617C10.407 39.1539 10.616 39.1921 10.8239 39.1471Z" fill="black"/>
<path d="M20.5502 31.8918C20.6924 31.8611 20.78 31.785 20.7458 31.722C20.7116 31.6589 20.5687 31.6328 20.4264 31.6635C20.2842 31.6943 20.1966 31.7703 20.2308 31.8334C20.265 31.8964 20.408 31.9226 20.5502 31.8918Z" fill="black"/>
<path d="M22.6957 31.4275C22.8379 31.3967 22.9255 31.3207 22.8913 31.2576C22.8571 31.1946 22.7142 31.1684 22.5719 31.1992C22.4297 31.2299 22.3422 31.306 22.3763 31.369C22.4105 31.4321 22.5535 31.4582 22.6957 31.4275Z" fill="black"/>
<path d="M18.4047 32.3562C18.5469 32.3254 18.6345 32.2494 18.6003 32.1863C18.5661 32.1233 18.4231 32.0971 18.2809 32.1279C18.1387 32.1587 18.0511 32.2347 18.0853 32.2977C18.1195 32.3608 18.2625 32.3869 18.4047 32.3562Z" fill="black"/>
<path d="M24.893 31.0583C25.0352 31.0276 25.1228 30.9515 25.0886 30.8885C25.0544 30.8254 24.9114 30.7993 24.7692 30.83C24.627 30.8608 24.5394 30.9368 24.5736 30.9999C24.6078 31.0629 24.7508 31.0891 24.893 31.0583Z" fill="black"/>
<path d="M16.3607 33.0102C16.5029 32.9795 16.5905 32.9034 16.5564 32.8404C16.5222 32.7773 16.3792 32.7512 16.237 32.7819C16.0948 32.8127 16.0072 32.8888 16.0414 32.9518C16.0755 33.0148 16.2185 33.041 16.3607 33.0102Z" fill="black"/>
<path d="M14.89 33.9236C15.0322 33.8928 15.1198 33.8168 15.0857 33.7537C15.0515 33.6907 14.9085 33.6645 14.7663 33.6953C14.6241 33.726 14.5365 33.8021 14.5707 33.8651C14.6048 33.9282 14.7478 33.9543 14.89 33.9236Z" fill="black"/>
<path d="M13.8559 34.9343C13.9981 34.9035 14.0856 34.8275 14.0515 34.7645C14.0173 34.7014 13.8743 34.6752 13.7321 34.706C13.5899 34.7368 13.5023 34.8128 13.5365 34.8759C13.5707 34.9389 13.7136 34.9651 13.8559 34.9343Z" fill="black"/>
<path d="M13.4721 35.9949C13.6143 35.9641 13.7019 35.888 13.6677 35.825C13.6335 35.762 13.4905 35.7358 13.3483 35.7666C13.2061 35.7973 13.1185 35.8734 13.1527 35.9364C13.1869 35.9995 13.3299 36.0256 13.4721 35.9949Z" fill="black"/>
<path d="M13.8588 36.9734C14.001 36.9426 14.0886 36.8666 14.0544 36.8035C14.0202 36.7405 13.8772 36.7143 13.735 36.7451C13.5928 36.7758 13.5052 36.8519 13.5394 36.9149C13.5736 36.978 13.7166 37.0041 13.8588 36.9734Z" fill="black"/>
<path d="M27.0746 31.0115C27.2168 30.9807 27.3044 30.9046 27.2702 30.8416C27.2361 30.7786 27.0931 30.7524 26.9509 30.7832C26.8086 30.8139 26.7211 30.89 26.7552 30.953C26.7894 31.0161 26.9324 31.0422 27.0746 31.0115Z" fill="black"/>
<path d="M29.057 31.2209C29.1992 31.1902 29.2868 31.1141 29.2526 31.0511C29.2185 30.988 29.0755 30.9619 28.9333 30.9926C28.7911 31.0234 28.7035 31.0994 28.7377 31.1625C28.7718 31.2255 28.9148 31.2517 29.057 31.2209Z" fill="black"/>
<path d="M30.5297 31.8157C30.6719 31.7849 30.7595 31.7088 30.7253 31.6458C30.6911 31.5828 30.5481 31.5566 30.4059 31.5874C30.2637 31.6181 30.1761 31.6942 30.2103 31.7572C30.2445 31.8203 30.3875 31.8464 30.5297 31.8157Z" fill="black"/>
<path d="M31.5834 32.6081C31.7256 32.5774 31.8132 32.5013 31.779 32.4383C31.7448 32.3752 31.6019 32.3491 31.4596 32.3798C31.3174 32.4106 31.2299 32.4867 31.264 32.5497C31.2982 32.6127 31.4412 32.6389 31.5834 32.6081Z" fill="black"/>
<path d="M31.9496 33.5493C32.0918 33.5185 32.1794 33.4425 32.1452 33.3794C32.1111 33.3164 31.9681 33.2902 31.8259 33.321C31.6836 33.3518 31.5961 33.4278 31.6302 33.4909C31.6644 33.5539 31.8074 33.5801 31.9496 33.5493Z" fill="black"/>
<path d="M31.5551 34.5915C31.6973 34.5608 31.7849 34.4847 31.7507 34.4217C31.7165 34.3586 31.5735 34.3325 31.4313 34.3632C31.2891 34.394 31.2015 34.4701 31.2357 34.5331C31.2699 34.5961 31.4129 34.6223 31.5551 34.5915Z" fill="black"/>
<path d="M30.4877 35.6294C30.6299 35.5986 30.7175 35.5226 30.6833 35.4595C30.6491 35.3965 30.5062 35.3703 30.3639 35.4011C30.2217 35.4318 30.1341 35.5079 30.1683 35.5709C30.2025 35.634 30.3455 35.6601 30.4877 35.6294Z" fill="black"/>
<path d="M29.0932 36.5046C29.2354 36.4739 29.323 36.3978 29.2888 36.3348C29.2546 36.2717 29.1116 36.2456 28.9694 36.2763C28.8272 36.3071 28.7396 36.3831 28.7738 36.4462C28.808 36.5092 28.9509 36.5354 29.0932 36.5046Z" fill="black"/>
<path d="M27.0072 37.1689C27.1494 37.1382 27.237 37.0621 27.2028 36.9991C27.1687 36.936 27.0257 36.9099 26.8835 36.9406C26.7413 36.9714 26.6537 37.0474 26.6878 37.1105C26.722 37.1735 26.865 37.1997 27.0072 37.1689Z" fill="black"/>
<path d="M24.7758 37.6516C24.918 37.6208 25.0056 37.5448 24.9714 37.4817C24.9372 37.4187 24.7942 37.3925 24.652 37.4233C24.5098 37.4541 24.4222 37.5301 24.4564 37.5932C24.4906 37.6562 24.6336 37.6824 24.7758 37.6516Z" fill="black"/>
<path d="M22.5863 38.1255C22.7285 38.0947 22.8161 38.0187 22.7819 37.9556C22.7478 37.8926 22.6048 37.8664 22.4626 37.8972C22.3204 37.9279 22.2328 38.004 22.267 38.067C22.3011 38.1301 22.4441 38.1562 22.5863 38.1255Z" fill="black"/>
<path d="M20.5268 38.4858C20.669 38.4551 20.7565 38.379 20.7224 38.316C20.6882 38.2529 20.5452 38.2268 20.403 38.2575C20.2608 38.2883 20.1732 38.3643 20.2074 38.4274C20.2416 38.4904 20.3845 38.5166 20.5268 38.4858Z" fill="black"/>
<path d="M18.391 38.5232C18.5332 38.4924 18.6208 38.4164 18.5866 38.3533C18.5525 38.2903 18.4095 38.2641 18.2673 38.2949C18.1251 38.3256 18.0375 38.4017 18.0716 38.4647C18.1058 38.5278 18.2488 38.5539 18.391 38.5232Z" fill="black"/>
<path d="M16.3109 38.3137C16.4531 38.2829 16.5407 38.2069 16.5066 38.1438C16.4724 38.0808 16.3294 38.0546 16.1872 38.0854C16.045 38.1162 15.9574 38.1922 15.9916 38.2553C16.0257 38.3183 16.1687 38.3445 16.3109 38.3137Z" fill="black"/>
<path d="M14.7621 37.7563C14.9043 37.7256 14.9919 37.6495 14.9577 37.5865C14.9236 37.5234 14.7806 37.4973 14.6384 37.528C14.4961 37.5588 14.4086 37.6348 14.4427 37.6979C14.4769 37.7609 14.6199 37.7871 14.7621 37.7563Z" fill="black"/>
<path d="M22.2592 35.3915L22.5111 35.2701L22.5129 35.2664L22.1456 34.5039L21.8818 34.631L22.1543 35.1967C22.1496 35.2324 22.1357 35.2642 22.1148 35.2965C22.0939 35.3289 22.0627 35.3551 22.0183 35.3765C21.9679 35.4008 21.9198 35.4072 21.8812 35.3952C21.8425 35.3831 21.8103 35.3541 21.7885 35.3088L21.541 34.7952L21.2773 34.9222L21.5302 35.4472C21.5683 35.5264 21.6196 35.5797 21.6899 35.6044C21.7602 35.6291 21.8403 35.6211 21.9293 35.5783C21.9737 35.5569 22.009 35.5315 22.0391 35.5031C22.0692 35.4746 22.0942 35.4431 22.1121 35.4121C22.1301 35.3812 22.1439 35.3494 22.1538 35.3168C22.1636 35.2842 22.1705 35.253 22.1744 35.2232L22.1785 35.224L22.2592 35.3915Z" fill="black"/>
<path d="M23.8903 33.6533L23.9347 33.6319L23.9751 33.7156L23.9928 33.707L23.9525 33.6233L23.994 33.6033L23.9886 33.592L23.8848 33.642L23.8903 33.6533Z" fill="black"/>
<path d="M24.1326 33.5524L24.1653 33.6202L24.1831 33.6117L24.1373 33.5166L24.1225 33.5238L24.1048 33.6159L24.0188 33.5737L24.0039 33.5809L24.0497 33.6759L24.0675 33.6674L24.0348 33.5995L24.1065 33.6346L24.1154 33.6303L24.1326 33.5524Z" fill="black"/>
<path d="M22.7615 34.261C22.7795 34.2301 22.8045 34.1985 22.8305 34.1693L22.8313 34.1633C22.8574 34.134 22.8819 34.1166 22.9204 34.0981L23.0294 34.3244L23.0086 34.3343C22.9954 34.3296 22.9762 34.3277 22.9541 34.3272L22.8909 34.3325C22.868 34.338 22.848 34.342 22.8281 34.3461L22.8186 34.3492C22.8039 34.3541 22.7913 34.3582 22.7814 34.363C22.7637 34.3715 22.7491 34.3869 22.7328 34.4059C22.7175 34.4272 22.7062 34.4494 22.6942 34.4775L22.97 35.0499L22.7033 35.1784L22.3359 34.4159L22.5997 34.2888L22.6749 34.445C22.685 34.4206 22.6971 34.3925 22.711 34.3607C22.7238 34.3266 22.7406 34.2934 22.7615 34.261Z" fill="black"/>
<path d="M21.2969 36.0673C21.3792 36.0109 21.4767 35.9556 21.5834 35.9042L21.4635 35.6553C21.3509 35.7096 21.2548 35.7754 21.1763 35.855C21.0978 35.9346 21.0356 36.0176 20.9917 36.1084C20.9467 36.197 20.922 36.2897 20.9154 36.3821C20.9126 36.4671 20.9267 36.5495 20.9597 36.6256L20.9663 36.6392L21.0107 36.6178C20.9802 36.5544 20.9729 36.4938 20.9896 36.43C21.0064 36.3662 21.0423 36.3043 21.0933 36.2435C21.1443 36.1827 21.2116 36.1252 21.2969 36.0673Z" fill="black"/>
<path fill-rule="evenodd" clip-rule="evenodd" d="M20.4052 36.2576C20.4913 36.2468 20.5819 36.2227 20.6671 36.1872L20.663 36.1864C20.6938 36.1744 20.7441 36.1501 20.7441 36.1501C20.8409 36.1007 20.9291 36.0415 21.0039 35.9692C21.0834 35.8918 21.1457 35.8089 21.1936 35.7189C21.2427 35.6311 21.2674 35.5384 21.2769 35.4446C21.2854 35.3485 21.268 35.2593 21.2277 35.1756C21.1862 35.0896 21.1273 35.0204 21.048 34.9694C20.9687 34.9184 20.8807 34.8799 20.7805 34.8613C20.6832 34.8413 20.5766 34.8397 20.4665 34.8537C20.3564 34.8677 20.248 34.9004 20.1443 34.9504C20.0405 35.0004 19.9474 35.0648 19.8678 35.1421C19.7883 35.2195 19.723 35.3039 19.6781 35.3925C19.6301 35.4824 19.6055 35.5752 19.5959 35.669C19.5874 35.7651 19.6048 35.8543 19.6451 35.938C19.6866 36.024 19.7455 36.0932 19.8248 36.1442C19.9041 36.1952 19.9939 36.23 20.0912 36.25C20.1885 36.27 20.2952 36.2716 20.4052 36.2576ZM20.9008 35.9826C20.8557 36.0406 20.7941 36.087 20.7111 36.127L20.7089 36.1225C20.6259 36.1624 20.5512 36.1817 20.4778 36.1808C20.4044 36.18 20.3373 36.1621 20.2748 36.1309C20.2112 36.0974 20.1562 36.0514 20.1046 35.9898C20.0531 35.9283 20.0082 35.8579 19.9689 35.7764C19.9297 35.695 19.9026 35.616 19.8866 35.5373C19.8706 35.4586 19.8689 35.3869 19.8824 35.3163C19.8969 35.248 19.9247 35.1844 19.9698 35.1264C20.0149 35.0685 20.0765 35.0221 20.1595 34.9821C20.2425 34.9421 20.3172 34.9228 20.3906 34.9237C20.4641 34.9246 20.5311 34.9424 20.5936 34.9737C20.6572 35.0071 20.7122 35.0531 20.7638 35.1147C20.8154 35.1763 20.8613 35.2489 20.9006 35.3304C20.9409 35.4141 20.968 35.493 20.984 35.5718C21 35.6505 21.0028 35.7244 20.9882 35.7927C20.9748 35.8633 20.9459 35.9247 20.9008 35.9826Z" fill="black"/>
<path fill-rule="evenodd" clip-rule="evenodd" d="M24.0329 34.3451C24.0686 34.3056 24.0962 34.2644 24.1109 34.2267L24.1157 34.2216L24.1298 34.2204C24.1339 34.3048 24.1119 34.3879 24.0626 34.4674C24.0133 34.547 23.9293 34.6153 23.8167 34.6695C23.7426 34.7052 23.6731 34.7276 23.604 34.7358C23.5349 34.744 23.4714 34.7411 23.4125 34.7249C23.3536 34.7087 23.3014 34.6836 23.2548 34.6475C23.2082 34.6114 23.1712 34.5651 23.1451 34.5108C23.1145 34.4475 23.1021 34.3837 23.1037 34.3189C23.1064 34.2562 23.1231 34.1924 23.1501 34.1348C23.1761 34.0749 23.2163 34.0221 23.2658 33.9731C23.3152 33.9242 23.3731 33.8852 23.4353 33.8552C23.5005 33.8238 23.5642 33.8043 23.6273 33.799C23.6875 33.7951 23.7477 33.7911 23.7967 33.8094C23.9343 33.8602 23.9743 33.9357 23.9743 33.9357L23.4712 34.4373C23.5075 34.4672 23.5435 34.4889 23.5851 34.4995C23.6308 34.511 23.6762 34.5142 23.7261 34.5041C23.776 34.494 23.8267 34.478 23.877 34.4537C23.9422 34.4223 23.9942 34.3861 24.0329 34.3451ZM23.3206 34.1475C23.324 34.1849 23.3344 34.2217 23.3489 34.2593L23.3641 34.291C23.3892 34.343 23.4148 34.3809 23.4481 34.4122L23.7464 34.1068L23.7224 34.057C23.6854 33.9801 23.6343 33.9043 23.5883 33.8847C23.5423 33.865 23.4921 33.8669 23.4388 33.8926C23.4062 33.9083 23.3798 33.9294 23.3597 33.9558C23.3395 33.9822 23.3275 34.0103 23.3217 34.0438C23.3159 34.0772 23.3142 34.1115 23.3206 34.1475Z" fill="black"/>
<path d="M12.9729 22.642L13.4944 11.5747C13.5717 10.5316 14.8619 8.22546 19.4047 7.34471C19.4627 7.22882 19.6133 6.98545 19.7524 6.9391L21.201 6.24377C21.2976 6.20514 21.5139 6.12788 21.6066 6.12788C22.4372 6.06993 24.2373 6.24377 24.7936 7.40265C26.7443 7.76963 30.6343 9.28004 30.588 12.3859L30.7618 20.2084M12.9729 22.642L4.5131 26.3505C2.38076 27.6484 1.80904 29.2477 1.78972 29.8851L1.38412 34.2888C0.82786 38.229 7.75799 40.4888 11.2925 41.1262C18.9412 42.2388 24.1369 41.4739 25.7786 40.9524C33.3345 39.2373 37.9276 37.5723 39.2796 36.9542C42.849 35.4245 43.4709 32.8016 43.3357 31.6813L42.9301 27.0458C42.0493 22.4566 34.4509 20.5753 30.7618 20.2084M12.9729 22.642C14.0159 20.7106 18.4197 17.3647 27.459 20.0534M12.9729 22.642C15.1748 21.5218 21.8152 19.4667 30.7618 20.2084M1.38411 34.9262C1.24891 33.9991 2.56617 31.6466 8.91686 29.6533L16.9131 26.814C19.7524 26.0607 26.9027 24.9482 32.7899 26.5243C34.9338 27.0651 39.6852 28.4944 41.5394 29.8851C42.3313 30.6383 43.6138 32.6432 42.4086 34.6365M5.38226 38.9244C4.5131 38.5187 2.8559 37.2787 3.18038 35.5636C3.50874 34.8683 4.76806 33.2922 7.17854 32.5505L16.5655 29.1318C19.3661 28.3206 26.5782 27.0458 33.0216 28.4364C35.7643 28.9193 41.2845 30.6383 41.4235 33.6514C41.3656 34.6751 39.9633 37.0354 34.8179 38.287C32.1138 39.0596 26.6014 40.6163 26.1842 40.6627C24.7742 40.991 21.0851 41.613 17.6085 41.4739C15.1941 41.4739 9.36884 40.964 5.38226 38.9244Z" stroke="black" stroke-width="0.7"/>
<path d="M19.6035 1.11719V7.11719" stroke="black" stroke-width="0.7"/>
<path d="M24.6035 1.11719V7.11719" stroke="black" stroke-width="0.7"/>
<circle cx="37.3061" cy="37.8549" r="7.72701" fill="black"/>
<path d="M35.3445 39.1378L36.4125 40.8118H35.6385L34.9245 39.6898L34.2525 40.8118H33.5385L34.6065 39.1858L33.5385 37.5058H34.3125L35.0265 38.6278L35.6985 37.5058H36.4125L35.3445 39.1378ZM36.9367 36.4198C36.9687 35.9238 37.158 35.5371 37.5047 35.2598C37.8567 34.9824 38.3047 34.8438 38.8487 34.8438C39.222 34.8438 39.5447 34.9104 39.8167 35.0438C40.0887 35.1771 40.294 35.3584 40.4327 35.5878C40.5713 35.8171 40.6407 36.0758 40.6407 36.3638C40.6407 36.6944 40.5527 36.9771 40.3767 37.2118C40.2007 37.4464 39.99 37.6038 39.7447 37.6838V37.7158C40.0593 37.8118 40.3047 37.9878 40.4807 38.2438C40.6567 38.4944 40.7447 38.8171 40.7447 39.2118C40.7447 39.5264 40.6727 39.8064 40.5287 40.0518C40.3847 40.2971 40.1713 40.4918 39.8887 40.6358C39.606 40.7744 39.2673 40.8438 38.8727 40.8438C38.2967 40.8438 37.822 40.6971 37.4487 40.4038C37.0807 40.1051 36.8833 39.6784 36.8567 39.1238H37.7367C37.758 39.4064 37.8673 39.6384 38.0647 39.8198C38.262 39.9958 38.5287 40.0838 38.8647 40.0838C39.19 40.0838 39.4407 39.9958 39.6167 39.8198C39.7927 39.6384 39.8807 39.4064 39.8807 39.1238C39.8807 38.7504 39.7607 38.4864 39.5207 38.3318C39.286 38.1718 38.9233 38.0918 38.4327 38.0918H38.2247V37.3398H38.4407C38.8727 37.3344 39.2007 37.2624 39.4247 37.1238C39.654 36.9851 39.7687 36.7664 39.7687 36.4678C39.7687 36.2118 39.686 36.0091 39.5207 35.8598C39.3553 35.7051 39.1207 35.6278 38.8167 35.6278C38.518 35.6278 38.286 35.7051 38.1207 35.8598C37.9553 36.0091 37.8567 36.1958 37.8247 36.4198H36.9367Z" fill="white"/>
</svg>
