<svg xmlns="http://www.w3.org/2000/svg" width="115" height="18" viewBox="0 0 115 18" fill="none">
                                            <path fill-rule="evenodd" clip-rule="evenodd" d="M105.012 0.386446L107.07 6.36859L113.498 6.44168C114.051 6.448 114.28 7.14025 113.836 7.46424L108.679 11.234L110.595 17.2611C110.759 17.7798 110.16 18.2071 109.709 17.8929L104.465 14.2405L99.22 17.8922C98.7692 18.2064 98.1695 17.7784 98.3341 17.2604L100.25 11.2333L95.0923 7.46353C94.6486 7.13955 94.8776 6.4473 95.4308 6.44098L101.859 6.36788L103.917 0.385743C104.094 -0.128698 104.835 -0.128698 105.012 0.386446Z" fill="#008763"></path>
                                            <path fill-rule="evenodd" clip-rule="evenodd" d="M81.5317 0.386446L83.5891 6.36859L90.0175 6.44168C90.5706 6.448 90.7996 7.14025 90.3559 7.46424L85.1985 11.234L87.1142 17.2611C87.2788 17.7798 86.6798 18.2071 86.2283 17.8929L80.9843 14.2405L75.7395 17.8922C75.2887 18.2064 74.689 17.7784 74.8536 17.2604L76.7693 11.2333L71.6119 7.46353C71.1682 7.13955 71.3972 6.4473 71.9503 6.44098L78.3787 6.36788L80.4361 0.385743C80.6136 -0.128698 81.3549 -0.128698 81.5317 0.386446Z" fill="#008763"></path>
                                            <path fill-rule="evenodd" clip-rule="evenodd" d="M58.0454 0.386446L60.1028 6.36859L66.5311 6.44168C67.0843 6.448 67.3133 7.14025 66.8696 7.46424L61.7122 11.234L63.6279 17.2611C63.7925 17.7798 63.1935 18.2071 62.742 17.8929L57.4979 14.2405L52.2532 17.8922C51.8024 18.2064 51.2027 17.7784 51.3673 17.2604L53.283 11.2333L48.1255 7.46353C47.6818 7.13955 47.9108 6.4473 48.464 6.44098L54.8924 6.36788L56.9498 0.385743C57.1272 -0.128698 57.8686 -0.128698 58.0454 0.386446Z" fill="#008763"></path>
                                            <path fill-rule="evenodd" clip-rule="evenodd" d="M34.5649 0.386446L36.6223 6.36859L43.0507 6.44168C43.6038 6.448 43.8328 7.14025 43.3892 7.46424L38.2317 11.234L40.1474 17.2611C40.312 17.7798 39.713 18.2071 39.2615 17.8929L34.0175 14.2405L28.7727 17.8922C28.3219 18.2064 27.7222 17.7784 27.8868 17.2604L29.8025 11.2333L24.6451 7.46353C24.2014 7.13955 24.4304 6.4473 24.9835 6.44098L31.4119 6.36788L33.4693 0.385743C33.6468 -0.128698 34.3882 -0.128698 34.5649 0.386446Z" fill="#008763"></path>
                                            <path fill-rule="evenodd" clip-rule="evenodd" d="M11.0835 0.386446L13.1409 6.36859L19.5692 6.44168C20.1224 6.448 20.3514 7.14025 19.9077 7.46424L14.7503 11.234L16.666 17.2611C16.8306 17.7798 16.2316 18.2071 15.78 17.8929L10.536 14.2405L5.29128 17.8922C4.84044 18.2064 4.24076 17.7784 4.40535 17.2604L6.32105 11.2333L1.16361 7.46353C0.719933 7.13955 0.948929 6.4473 1.5021 6.44098L7.93047 6.36788L9.98786 0.385743C10.1653 -0.128698 10.9067 -0.128698 11.0835 0.386446Z" fill="#008763"></path>
                                        </svg>