<svg xmlns="http://www.w3.org/2000/svg" width="131" height="22" viewBox="0 0 131 22" fill="none">
  <g clip-path="url(#clip0_12185_15622)">
    <path fill-rule="evenodd" clip-rule="evenodd" d="M92.7346 0.950478L95.1329 7.92381L102.626 8.00903C103.271 8.01639 103.538 8.82334 103.021 9.20101L97.009 13.5954L99.2421 20.6212C99.434 21.2257 98.7357 21.7239 98.2093 21.3576L92.0965 17.1001L85.9827 21.3569C85.4571 21.723 84.7581 21.2241 84.9499 20.6203L87.1831 13.5946L81.1711 9.20019C80.6539 8.82252 80.9209 8.01557 81.5657 8.0082L89.0591 7.923L91.4574 0.949659C91.6644 0.349977 92.5286 0.349977 92.7346 0.950478Z" fill="#008763"/>
    <path fill-rule="evenodd" clip-rule="evenodd" d="M119.266 0.950478L121.664 7.92381L129.158 8.00903C129.803 8.01639 130.07 8.82334 129.552 9.20101L123.54 13.5954L125.774 20.6212C125.965 21.2257 125.267 21.7239 124.741 21.3576L118.628 17.1001L112.514 21.3569C111.988 21.723 111.289 21.2241 111.481 20.6203L113.714 13.5946L107.702 9.20019C107.185 8.82252 107.452 8.01557 108.097 8.0082L115.59 7.923L117.989 0.949659C118.196 0.349977 119.06 0.349977 119.266 0.950478Z" fill="#D9D9D9"/>
    <path fill-rule="evenodd" clip-rule="evenodd" d="M66.1409 0.950478L68.5392 7.92381L76.0327 8.00903C76.6775 8.01639 76.9445 8.82334 76.4273 9.20101L70.4152 13.5954L72.6484 20.6212C72.8402 21.2257 72.142 21.7239 71.6157 21.3576L65.5027 17.1001L59.389 21.3569C58.8635 21.723 58.1644 21.2241 58.3563 20.6203L60.5894 13.5946L54.5774 9.20019C54.0602 8.82252 54.3271 8.01557 54.9719 8.0082L62.4655 7.923L64.8638 0.949659C65.0706 0.349977 65.9348 0.349977 66.1409 0.950478Z" fill="#008763"/>
    <path fill-rule="evenodd" clip-rule="evenodd" d="M39.5471 0.950478L41.9453 7.92381L49.4389 8.00903C50.0837 8.01639 50.3506 8.82334 49.8334 9.20101L43.8215 13.5954L46.0545 20.6212C46.2465 21.2257 45.5482 21.7239 45.0218 21.3576L38.909 17.1001L32.7951 21.3569C32.2696 21.723 31.5706 21.2241 31.7624 20.6203L33.9956 13.5946L27.9835 9.20019C27.4665 8.82252 27.7334 8.01557 28.3782 8.0082L35.8716 7.923L38.27 0.949659C38.4769 0.349977 39.3411 0.349977 39.5471 0.950478Z" fill="#008763"/>
    <path fill-rule="evenodd" clip-rule="evenodd" d="M12.9534 0.950478L15.3517 7.92381L22.8452 8.00903C23.49 8.01639 23.757 8.82334 23.2398 9.20101L17.2277 13.5954L19.4609 20.6212C19.6527 21.2257 18.9545 21.7239 18.4282 21.3576L12.3152 17.1001L6.20146 21.3569C5.67593 21.723 4.97688 21.2241 5.16875 20.6203L7.40186 13.5946L1.38987 9.20019C0.872679 8.82252 1.13962 8.01557 1.78445 8.0082L9.27795 7.923L11.6762 0.949659C11.8831 0.349977 12.7473 0.349977 12.9534 0.950478Z" fill="#008763"/>
    <path fill-rule="evenodd" clip-rule="evenodd" d="M121.719 7.92381L119.321 0.950478C119.114 0.349977 118.25 0.349977 118.043 0.949659L115.645 7.923L108.152 8.0082C107.507 8.01557 107.24 8.82252 107.757 9.20019L113.769 13.5946L111.536 20.6203C111.344 21.2241 112.043 21.723 112.569 21.3569L118.683 17.1001L122.816 19.9789V7.93629L121.719 7.92381Z" fill="#008763"/>
  </g>
  <defs>
    <clipPath id="clip0_12185_15622">
      <rect width="130.941" height="21" fill="white" transform="translate(0 0.5)"/>
    </clipPath>
  </defs>
</svg>