<svg xmlns="http://www.w3.org/2000/svg" width="131" height="22" viewBox="0 0 131 22"
                                        fill="none">
                                        <g clip-path="url(#clip0_13061_961)">
                                            <path fill-rule="evenodd" clip-rule="evenodd"
                                                d="M12.9553 0.898229L15.3536 7.87158L22.8472 7.95677C23.492 7.96415 23.7589 8.77109 23.2417 9.14876L17.2297 13.5432L19.4628 20.5689C19.6547 21.1735 18.9565 21.6716 18.4301 21.3054L12.3172 17.0479L6.20342 21.3046C5.67789 21.6708 4.97883 21.1719 5.1707 20.5681L7.40381 13.5423L1.39182 9.14794C0.874632 8.77028 1.14157 7.96333 1.7864 7.95596L9.2799 7.87075L11.6782 0.897414C11.8851 0.297731 12.7493 0.297732 12.9553 0.898229Z"
                                                fill="#008763" />
                                            <path fill-rule="evenodd" clip-rule="evenodd"
                                                d="M39.5481 0.898229L41.9463 7.87158L49.4399 7.95677C50.0847 7.96415 50.3516 8.77109 49.8344 9.14876L43.8225 13.5432L46.0555 20.5689C46.2475 21.1735 45.5492 21.6716 45.0228 21.3054L38.91 17.0479L32.7961 21.3046C32.2706 21.6708 31.5716 21.1719 31.7634 20.5681L33.9966 13.5423L27.9845 9.14794C27.4674 8.77028 27.7344 7.96333 28.3792 7.95596L35.8726 7.87075L38.2709 0.897414C38.4779 0.297731 39.3421 0.297732 39.5481 0.898229Z"
                                                fill="#008763" />
                                            <path fill-rule="evenodd" clip-rule="evenodd"
                                                d="M66.1399 0.898229L68.5382 7.87158L76.0317 7.95677C76.6766 7.96415 76.9435 8.77109 76.4263 9.14876L70.4142 13.5432L72.6474 20.5689C72.8392 21.1735 72.1411 21.6716 71.6147 21.3054L65.5017 17.0479L59.388 21.3046C58.8625 21.6708 58.1635 21.1719 58.3553 20.5681L60.5885 13.5423L54.5764 9.14794C54.0592 8.77028 54.3261 7.96333 54.971 7.95596L62.4645 7.87075L64.8628 0.897414C65.0696 0.297731 65.9338 0.297732 66.1399 0.898229Z"
                                                fill="#008763" />
                                            <path fill-rule="evenodd" clip-rule="evenodd"
                                                d="M92.7307 0.898229L95.129 7.87158L102.622 7.95677C103.267 7.96415 103.534 8.77109 103.017 9.14876L97.0051 13.5432L99.2382 20.5689C99.4301 21.1735 98.7319 21.6716 98.2054 21.3054L92.0925 17.0479L85.9788 21.3046C85.4532 21.6708 84.7542 21.1719 84.946 20.5681L87.1792 13.5423L81.1672 9.14794C80.65 8.77028 80.917 7.96333 81.5618 7.95596L89.0552 7.87075L91.4535 0.897414C91.6604 0.297731 92.5246 0.297732 92.7307 0.898229Z"
                                                fill="#008763" />
                                            <path fill-rule="evenodd" clip-rule="evenodd"
                                                d="M119.324 0.898229L121.722 7.87158L129.215 7.95677C129.861 7.96415 130.128 8.77109 129.61 9.14876L123.598 13.5432L125.831 20.5689C126.023 21.1735 125.325 21.6716 124.799 21.3054L118.685 17.0479L112.572 21.3046C112.046 21.6708 111.347 21.1719 111.539 20.5681L113.772 13.5423L107.76 9.14794C107.243 8.77028 107.51 7.96333 108.155 7.95596L115.648 7.87075L118.046 0.897414C118.253 0.297731 119.118 0.297732 119.324 0.898229Z"
                                                fill="#D9D9D9" />
                                            <path fill-rule="evenodd" clip-rule="evenodd"
                                                d="M118.678 0.447754C118.413 0.450367 118.149 0.600276 118.046 0.897376L115.648 7.87072L108.155 7.95592C107.51 7.9633 107.243 8.77024 107.76 9.14791L113.772 13.5423L111.539 20.5681C111.347 21.1719 112.046 21.6707 112.572 21.3046L118.678 17.053V0.447754Z"
                                                fill="#008763" />
                                        </g>
                                        <defs>
                                            <clipPath id="clip0_13061_961">
                                                <rect width="130.941" height="21" fill="white"
                                                    transform="translate(0 0.5)" />
                                            </clipPath>
                                        </defs>
                                    </svg>