<svg xmlns="http://www.w3.org/2000/svg" width="131" height="22" viewBox="0 0 131 22" fill="none">
  <g clip-path="url(#clip0_11720_2184)">
    <path fill-rule="evenodd" clip-rule="evenodd" d="M12.9553 0.810216L15.3536 7.78356L22.8472 7.86876C23.492 7.87614 23.7589 8.68308 23.2417 9.06075L17.2297 13.4552L19.4628 20.4809C19.6547 21.0855 18.9565 21.5836 18.4301 21.2174L12.3172 16.9598L6.20342 21.2165C5.67789 21.5828 4.97883 21.0839 5.1707 20.4801L7.40381 13.4543L1.39182 9.05993C0.874632 8.68226 1.14157 7.87532 1.7864 7.86795L9.2799 7.78274L11.6782 0.809401C11.8851 0.209719 12.7493 0.209719 12.9553 0.810216Z" fill="#008763"/>
    <path fill-rule="evenodd" clip-rule="evenodd" d="M39.5481 0.810216L41.9463 7.78356L49.4399 7.86876C50.0847 7.87614 50.3516 8.68308 49.8344 9.06075L43.8225 13.4552L46.0555 20.4809C46.2475 21.0855 45.5492 21.5836 45.0228 21.2174L38.91 16.9598L32.7961 21.2165C32.2706 21.5828 31.5716 21.0839 31.7634 20.4801L33.9966 13.4543L27.9845 9.05993C27.4674 8.68226 27.7344 7.87532 28.3792 7.86795L35.8726 7.78274L38.2709 0.809401C38.4779 0.209719 39.3421 0.209719 39.5481 0.810216Z" fill="#008763"/>
    <path fill-rule="evenodd" clip-rule="evenodd" d="M66.1399 0.809972L68.5382 7.78332L76.0317 7.86852C76.6766 7.87589 76.9435 8.68284 76.4263 9.0605L70.4142 13.4549L72.6474 20.4807C72.8392 21.0852 72.1411 21.5833 71.6147 21.2172L65.5017 16.9596L59.388 21.2163C58.8625 21.5826 58.1635 21.0836 58.3553 20.4798L60.5885 13.4541L54.5764 9.05969C54.0592 8.68202 54.3261 7.87508 54.971 7.8677L62.4645 7.78249L64.8628 0.809157C65.0696 0.209475 65.9338 0.209475 66.1399 0.809972Z" fill="#008763"/>
    <path fill-rule="evenodd" clip-rule="evenodd" d="M92.7307 0.810216L95.129 7.78356L102.622 7.86876C103.267 7.87614 103.534 8.68308 103.017 9.06075L97.0051 13.4552L99.2382 20.4809C99.4301 21.0855 98.7319 21.5836 98.2054 21.2174L92.0925 16.9598L85.9788 21.2165C85.4532 21.5828 84.7542 21.0839 84.946 20.4801L87.1792 13.4543L81.1672 9.05993C80.65 8.68226 80.917 7.87532 81.5618 7.86795L89.0552 7.78274L91.4535 0.809401C91.6604 0.209719 92.5246 0.209719 92.7307 0.810216Z" fill="#008763"/>
    <path fill-rule="evenodd" clip-rule="evenodd" d="M119.324 0.810216L121.722 7.78356L129.215 7.86876C129.861 7.87614 130.128 8.68308 129.61 9.06075L123.598 13.4552L125.831 20.4809C126.023 21.0855 125.325 21.5836 124.799 21.2174L118.685 16.9598L112.572 21.2165C112.046 21.5828 111.347 21.0839 111.539 20.4801L113.772 13.4543L107.76 9.05993C107.243 8.68226 107.51 7.87532 108.155 7.86795L115.648 7.78274L118.046 0.809401C118.253 0.209719 119.118 0.209719 119.324 0.810216Z" fill="#D9D9D9"/>
    <path fill-rule="evenodd" clip-rule="evenodd" d="M118.678 0.359741C118.413 0.362354 118.149 0.512263 118.046 0.809363L115.648 7.78271L108.155 7.86791C107.51 7.87528 107.243 8.68223 107.76 9.05989L113.772 13.4543L111.539 20.4801C111.347 21.0839 112.046 21.5827 112.572 21.2165L118.678 16.965V0.359741Z" fill="#008763"/>
  </g>
  <defs>
    <clipPath id="clip0_11720_2184">
      <rect width="130.941" height="21" fill="white" transform="translate(0 0.411987)"/>
    </clipPath>
  </defs>
</svg>