<svg width="46" height="46" viewBox="0 0 46 46" fill="none" xmlns="http://www.w3.org/2000/svg">
<path d="M37.0524 7.90882C34.7918 4.91855 31.7727 3.27185 28.5513 3.27185C28.5122 3.27185 28.4733 3.27324 28.4342 3.27367H20.8642C17.6429 3.27367 14.6237 4.92003 12.363 7.90943C10.1334 10.8578 8.9055 14.7707 8.9055 18.9274C8.9055 26.6824 13.221 33.1733 18.9414 34.379L5.15413 42.4594C4.98192 42.5603 4.90009 42.7597 4.95387 42.9473C5.00763 43.135 5.18399 43.2652 5.38534 43.266C6.57204 43.2707 7.77159 43.2719 8.95955 43.2719C9.61818 43.2719 10.2734 43.2715 10.9207 43.2712C11.8427 43.2705 12.7646 43.2699 13.6865 43.2705C13.7687 43.2705 13.8496 43.2488 13.9199 43.2075L28.6293 34.5868C31.8213 34.5605 34.81 32.917 37.0525 29.9511C39.2822 27.0019 40.5101 23.0877 40.5101 18.9299C40.5101 14.7721 39.2821 10.858 37.0524 7.90882ZM9.80478 18.9274C9.80478 10.7754 14.7661 4.14324 20.8642 4.14324H24.5936C22.8991 4.91673 21.3492 6.19038 20.0499 7.90882C17.8203 10.858 16.5924 14.7721 16.5924 18.93C16.5924 23.0878 17.8203 27.002 20.0499 29.9512C21.3336 31.6491 22.8621 32.9132 24.533 33.6893H20.2605C14.3962 33.2662 9.80478 26.7862 9.80478 18.9274ZM13.5613 42.4009C12.6815 42.4008 11.8007 42.4011 10.92 42.4015C9.6296 42.4024 8.30811 42.4031 6.98903 42.4008L20.3697 34.5588H26.9419L13.5613 42.4009ZM28.5513 33.7185C22.4531 33.7185 17.4918 27.0845 17.4918 18.93C17.4918 10.7755 22.453 4.14141 28.5513 4.14141C34.6495 4.14141 39.6107 10.7755 39.6107 18.93C39.6107 27.0845 34.6494 33.7185 28.5513 33.7185ZM28.8989 9.98448C25.106 9.98448 22.0204 13.9943 22.0204 18.9228C22.0204 23.8515 25.106 27.8611 28.8989 27.8611C32.6917 27.8611 35.7773 23.8515 35.7773 18.9228C35.7773 13.9943 32.6917 9.98448 28.8989 9.98448ZM22.9197 18.9228C22.9197 15.7354 24.2965 12.9738 26.2896 11.6639C28.3476 13.0148 29.6638 15.827 29.6638 18.9228C29.6638 22.0188 28.3476 24.831 26.2896 26.1818C24.2965 24.8718 22.9197 22.1103 22.9197 18.9228ZM28.8989 26.9916C28.294 26.9916 27.7101 26.8693 27.1593 26.6429C29.2476 25.0555 30.5631 22.1181 30.5631 18.9228C30.5631 15.7276 29.2477 12.7902 27.1593 11.2026C27.71 10.9763 28.294 10.8541 28.8989 10.8541C32.1958 10.8541 34.8781 14.4737 34.8781 18.9228C34.8781 23.372 32.1958 26.9916 28.8989 26.9916Z" fill="black"/>
</svg>
