<svg width="44" height="42" viewBox="0 0 44 42" fill="none" xmlns="http://www.w3.org/2000/svg">
<path d="M19.1394 30.4101C19.3473 30.3652 19.4753 30.254 19.4253 30.1618C19.3754 30.0697 19.1664 30.0314 18.9585 30.0764C18.7506 30.1214 18.6225 30.2325 18.6725 30.3247C18.7224 30.4169 18.9315 30.4551 19.1394 30.4101Z" fill="black"/>
<path d="M22.2917 29.7598C22.4996 29.7148 22.6276 29.6036 22.5777 29.5114C22.5277 29.4193 22.3187 29.381 22.1108 29.426C21.9029 29.471 21.7749 29.5822 21.8248 29.6743C21.8748 29.7665 22.0838 29.8047 22.2917 29.7598Z" fill="black"/>
<path d="M16.0183 31.1169C16.2262 31.072 16.3542 30.9608 16.3042 30.8686C16.2543 30.7765 16.0453 30.7382 15.8374 30.7832C15.6295 30.8282 15.5014 30.9393 15.5514 31.0315C15.6013 31.1237 15.8104 31.1619 16.0183 31.1169Z" fill="black"/>
<path d="M25.5026 29.22C25.7105 29.175 25.8386 29.0638 25.7886 28.9716C25.7387 28.8795 25.5296 28.8412 25.3217 28.8862C25.1138 28.9312 24.9858 29.0424 25.0358 29.1345C25.0857 29.2267 25.2947 29.2649 25.5026 29.22Z" fill="black"/>
<path d="M13.0319 32.0735C13.2398 32.0285 13.3679 31.9173 13.3179 31.8252C13.268 31.733 13.0589 31.6948 12.851 31.7397C12.6431 31.7847 12.5151 31.8959 12.5651 31.988C12.615 32.0802 12.824 32.1184 13.0319 32.0735Z" fill="black"/>
<path d="M10.8816 33.4087C11.0894 33.3637 11.2175 33.2525 11.1675 33.1604C11.1176 33.0682 10.9085 33.03 10.7006 33.0749C10.4928 33.1199 10.3647 33.2311 10.4147 33.3232C10.4646 33.4154 10.6737 33.4537 10.8816 33.4087Z" fill="black"/>
<path d="M9.36788 34.886C9.57578 34.841 9.70381 34.7298 9.65386 34.6377C9.6039 34.5455 9.39487 34.5073 9.18698 34.5522C8.97908 34.5972 8.85104 34.7084 8.901 34.8005C8.95095 34.8927 9.15998 34.9309 9.36788 34.886Z" fill="black"/>
<path d="M8.80733 36.4365C9.01523 36.3915 9.14326 36.2804 9.09331 36.1882C9.04335 36.096 8.83432 36.0578 8.62643 36.1028C8.41853 36.1477 8.2905 36.2589 8.34045 36.3511C8.39041 36.4432 8.59944 36.4815 8.80733 36.4365Z" fill="black"/>
<path d="M9.37374 37.8677C9.58163 37.8227 9.70967 37.7115 9.65972 37.6194C9.60976 37.5272 9.40073 37.4889 9.19283 37.5339C8.98494 37.5789 8.8569 37.6901 8.90686 37.7822C8.95681 37.8744 9.16584 37.9126 9.37374 37.8677Z" fill="black"/>
<path d="M28.6901 29.1511C28.898 29.1061 29.0261 28.995 28.9761 28.9028C28.9262 28.8106 28.7171 28.7724 28.5092 28.8174C28.3013 28.8623 28.1733 28.9735 28.2233 29.0657C28.2732 29.1578 28.4822 29.1961 28.6901 29.1511Z" fill="black"/>
<path d="M31.5925 29.4565C31.8004 29.4116 31.9284 29.3004 31.8785 29.2082C31.8285 29.1161 31.6195 29.0778 31.4116 29.1228C31.2037 29.1678 31.0757 29.2789 31.1256 29.3711C31.1756 29.4633 31.3846 29.5015 31.5925 29.4565Z" fill="black"/>
<path d="M33.7448 30.3266C33.9527 30.2817 34.0808 30.1705 34.0308 30.0783C33.9809 29.9862 33.7718 29.9479 33.5639 29.9929C33.356 30.0379 33.228 30.1491 33.278 30.2412C33.3279 30.3334 33.5369 30.3716 33.7448 30.3266Z" fill="black"/>
<path d="M35.2839 31.4853C35.4918 31.4404 35.6198 31.3292 35.5699 31.237C35.5199 31.1449 35.3109 31.1066 35.103 31.1516C34.8951 31.1966 34.7671 31.3077 34.817 31.3999C34.867 31.4921 35.076 31.5303 35.2839 31.4853Z" fill="black"/>
<path d="M35.8191 32.8608C36.0269 32.8158 36.155 32.7047 36.105 32.6125C36.0551 32.5204 35.846 32.4821 35.6381 32.5271C35.4303 32.5721 35.3022 32.6832 35.3522 32.7754C35.4021 32.8676 35.6112 32.9058 35.8191 32.8608Z" fill="black"/>
<path d="M35.2409 34.3843C35.4488 34.3393 35.5769 34.2281 35.5269 34.136C35.4769 34.0438 35.2679 34.0055 35.06 34.0505C34.8521 34.0955 34.7241 34.2067 34.774 34.2988C34.824 34.391 35.033 34.4292 35.2409 34.3843Z" fill="black"/>
<path d="M33.6823 35.9026C33.8902 35.8576 34.0183 35.7464 33.9683 35.6543C33.9184 35.5621 33.7093 35.5239 33.5014 35.5688C33.2935 35.6138 33.1655 35.725 33.2155 35.8171C33.2654 35.9093 33.4744 35.9475 33.6823 35.9026Z" fill="black"/>
<path d="M31.6433 37.1828C31.8512 37.1379 31.9792 37.0267 31.9292 36.9345C31.8793 36.8424 31.6703 36.8041 31.4624 36.8491C31.2545 36.8941 31.1264 37.0053 31.1764 37.0974C31.2263 37.1896 31.4354 37.2278 31.6433 37.1828Z" fill="black"/>
<path d="M28.5944 38.1533C28.8023 38.1083 28.9304 37.9972 28.8804 37.905C28.8305 37.8128 28.6214 37.7746 28.4135 37.8196C28.2056 37.8645 28.0776 37.9757 28.1276 38.0679C28.1775 38.16 28.3865 38.1983 28.5944 38.1533Z" fill="black"/>
<path d="M25.2995 38.9282C25.5074 38.8832 25.6355 38.7721 25.5855 38.6799C25.5355 38.5877 25.3265 38.5495 25.1186 38.5945C24.9107 38.6394 24.7827 38.7506 24.8326 38.8428C24.8826 38.9349 25.0916 38.9732 25.2995 38.9282Z" fill="black"/>
<path d="M22.1335 39.5508C22.3414 39.5058 22.4694 39.3946 22.4195 39.3025C22.3695 39.2103 22.1605 39.172 21.9526 39.217C21.7447 39.262 21.6167 39.3732 21.6666 39.4653C21.7166 39.5575 21.9256 39.5957 22.1335 39.5508Z" fill="black"/>
<path d="M19.1237 40.0781C19.3316 40.0331 19.4597 39.922 19.4097 39.8298C19.3598 39.7376 19.1507 39.6994 18.9428 39.7444C18.7349 39.7893 18.6069 39.9005 18.6569 39.9927C18.7068 40.0848 18.9158 40.1231 19.1237 40.0781Z" fill="black"/>
<path d="M15.9987 40.1323C16.2066 40.0873 16.3347 39.9762 16.2847 39.884C16.2348 39.7918 16.0257 39.7536 15.8178 39.7986C15.6099 39.8435 15.4819 39.9547 15.5319 40.0469C15.5818 40.139 15.7908 40.1773 15.9987 40.1323Z" fill="black"/>
<path d="M12.9597 39.8262C13.1676 39.7812 13.2956 39.67 13.2457 39.5779C13.1957 39.4857 12.9867 39.4474 12.7788 39.4924C12.5709 39.5374 12.4428 39.6486 12.4928 39.7407C12.5428 39.8329 12.7518 39.8711 12.9597 39.8262Z" fill="black"/>
<path d="M10.6941 39.0117C10.9019 38.9667 11.03 38.8556 10.98 38.7634C10.9301 38.6712 10.721 38.633 10.5131 38.678C10.3053 38.7229 10.1772 38.8341 10.2272 38.9263C10.2771 39.0184 10.4862 39.0567 10.6941 39.0117Z" fill="black"/>
<path d="M20.4203 31.7565C20.5625 31.7257 20.6501 31.6496 20.6159 31.5866C20.5818 31.5236 20.4388 31.4974 20.2966 31.5282C20.1543 31.5589 20.0668 31.635 20.1009 31.698C20.1351 31.7611 20.2781 31.7872 20.4203 31.7565Z" fill="black"/>
<path d="M22.5668 31.2921C22.709 31.2613 22.7966 31.1853 22.7624 31.1222C22.7282 31.0592 22.5853 31.033 22.443 31.0638C22.3008 31.0946 22.2132 31.1706 22.2474 31.2337C22.2816 31.2967 22.4246 31.3229 22.5668 31.2921Z" fill="black"/>
<path d="M18.2738 32.2208C18.416 32.19 18.5036 32.114 18.4694 32.051C18.4353 31.9879 18.2923 31.9617 18.1501 31.9925C18.0079 32.0233 17.9203 32.0993 17.9545 32.1624C17.9886 32.2254 18.1316 32.2516 18.2738 32.2208Z" fill="black"/>
<path d="M24.7641 30.923C24.9063 30.8922 24.9938 30.8161 24.9597 30.7531C24.9255 30.6901 24.7825 30.6639 24.6403 30.6947C24.4981 30.7254 24.4105 30.8015 24.4447 30.8645C24.4789 30.9276 24.6218 30.9537 24.7641 30.923Z" fill="black"/>
<path d="M16.2309 32.8749C16.3731 32.8441 16.4606 32.768 16.4265 32.705C16.3923 32.642 16.2493 32.6158 16.1071 32.6466C15.9649 32.6773 15.8773 32.7534 15.9115 32.8164C15.9457 32.8795 16.0886 32.9056 16.2309 32.8749Z" fill="black"/>
<path d="M14.7601 33.7882C14.9024 33.7574 14.9899 33.6814 14.9558 33.6183C14.9216 33.5553 14.7786 33.5291 14.6364 33.5599C14.4942 33.5907 14.4066 33.6667 14.4408 33.7297C14.475 33.7928 14.6179 33.819 14.7601 33.7882Z" fill="black"/>
<path d="M13.725 34.7989C13.8672 34.7682 13.9548 34.6921 13.9206 34.6291C13.8864 34.566 13.7435 34.5399 13.6012 34.5706C13.459 34.6014 13.3715 34.6774 13.4056 34.7405C13.4398 34.8035 13.5828 34.8297 13.725 34.7989Z" fill="black"/>
<path d="M13.3422 35.8595C13.4844 35.8287 13.572 35.7527 13.5378 35.6896C13.5036 35.6266 13.3606 35.6004 13.2184 35.6312C13.0762 35.6619 12.9886 35.738 13.0228 35.801C13.057 35.8641 13.2 35.8902 13.3422 35.8595Z" fill="black"/>
<path d="M13.7289 36.838C13.8711 36.8072 13.9587 36.7312 13.9245 36.6681C13.8903 36.6051 13.7474 36.5789 13.6052 36.6097C13.4629 36.6405 13.3754 36.7165 13.4095 36.7796C13.4437 36.8426 13.5867 36.8688 13.7289 36.838Z" fill="black"/>
<path d="M26.9437 30.8761C27.086 30.8453 27.1735 30.7693 27.1394 30.7062C27.1052 30.6432 26.9622 30.617 26.82 30.6478C26.6778 30.6786 26.5902 30.7546 26.6244 30.8176C26.6585 30.8807 26.8015 30.9068 26.9437 30.8761Z" fill="black"/>
<path d="M28.9262 31.0856C29.0684 31.0548 29.156 30.9787 29.1218 30.9157C29.0876 30.8527 28.9446 30.8265 28.8024 30.8573C28.6602 30.888 28.5726 30.9641 28.6068 31.0271C28.641 31.0902 28.784 31.1163 28.9262 31.0856Z" fill="black"/>
<path d="M30.4008 31.6803C30.543 31.6495 30.6306 31.5735 30.5964 31.5104C30.5622 31.4474 30.4192 31.4212 30.277 31.452C30.1348 31.4827 30.0472 31.5588 30.0814 31.6218C30.1156 31.6849 30.2586 31.711 30.4008 31.6803Z" fill="black"/>
<path d="M31.4535 32.4728C31.5957 32.442 31.6833 32.3659 31.6491 32.3029C31.615 32.2399 31.472 32.2137 31.3298 32.2445C31.1876 32.2752 31.1 32.3513 31.1341 32.4143C31.1683 32.4774 31.3113 32.5035 31.4535 32.4728Z" fill="black"/>
<path d="M31.8187 33.4139C31.961 33.3832 32.0485 33.3071 32.0144 33.2441C31.9802 33.181 31.8372 33.1549 31.695 33.1856C31.5528 33.2164 31.4652 33.2924 31.4994 33.3555C31.5335 33.4185 31.6765 33.4447 31.8187 33.4139Z" fill="black"/>
<path d="M31.4262 34.4562C31.5684 34.4254 31.656 34.3493 31.6218 34.2863C31.5876 34.2233 31.4446 34.1971 31.3024 34.2279C31.1602 34.2586 31.0726 34.3347 31.1068 34.3977C31.141 34.4608 31.284 34.4869 31.4262 34.4562Z" fill="black"/>
<path d="M30.3578 35.494C30.5 35.4632 30.5876 35.3872 30.5534 35.3241C30.5193 35.2611 30.3763 35.2349 30.2341 35.2657C30.0918 35.2965 30.0043 35.3725 30.0384 35.4356C30.0726 35.4986 30.2156 35.5248 30.3578 35.494Z" fill="black"/>
<path d="M28.9633 36.3692C29.1055 36.3385 29.1931 36.2624 29.1589 36.1994C29.1247 36.1363 28.9817 36.1102 28.8395 36.1409C28.6973 36.1717 28.6097 36.2478 28.6439 36.3108C28.6781 36.3738 28.8211 36.4 28.9633 36.3692Z" fill="black"/>
<path d="M26.8773 37.0335C27.0195 37.0028 27.1071 36.9267 27.073 36.8637C27.0388 36.8007 26.8958 36.7745 26.7536 36.8053C26.6114 36.836 26.5238 36.9121 26.558 36.9751C26.5921 37.0382 26.7351 37.0643 26.8773 37.0335Z" fill="black"/>
<path d="M24.6469 37.5162C24.7891 37.4854 24.8767 37.4094 24.8425 37.3464C24.8083 37.2833 24.6653 37.2572 24.5231 37.2879C24.3809 37.3187 24.2933 37.3947 24.3275 37.4578C24.3617 37.5208 24.5047 37.547 24.6469 37.5162Z" fill="black"/>
<path d="M22.4555 37.9901C22.5977 37.9593 22.6853 37.8833 22.6511 37.8202C22.6169 37.7572 22.4739 37.731 22.3317 37.7618C22.1895 37.7926 22.1019 37.8686 22.1361 37.9317C22.1703 37.9947 22.3133 38.0209 22.4555 37.9901Z" fill="black"/>
<path d="M20.3969 38.3504C20.5391 38.3197 20.6267 38.2436 20.5925 38.1806C20.5583 38.1175 20.4153 38.0914 20.2731 38.1221C20.1309 38.1529 20.0433 38.229 20.0775 38.292C20.1117 38.355 20.2547 38.3812 20.3969 38.3504Z" fill="black"/>
<path d="M18.2601 38.3878C18.4024 38.357 18.4899 38.281 18.4558 38.2179C18.4216 38.1549 18.2786 38.1287 18.1364 38.1595C17.9942 38.1903 17.9066 38.2663 17.9408 38.3294C17.975 38.3924 18.1179 38.4186 18.2601 38.3878Z" fill="black"/>
<path d="M16.182 38.1783C16.3242 38.1476 16.4118 38.0715 16.3776 38.0085C16.3435 37.9454 16.2005 37.9193 16.0583 37.95C15.9161 37.9808 15.8285 38.0568 15.8627 38.1199C15.8968 38.1829 16.0398 38.2091 16.182 38.1783Z" fill="black"/>
<path d="M14.6332 37.621C14.7754 37.5902 14.863 37.5141 14.8288 37.4511C14.7946 37.3881 14.6517 37.3619 14.5094 37.3927C14.3672 37.4234 14.2797 37.4995 14.3138 37.5625C14.348 37.6256 14.491 37.6517 14.6332 37.621Z" fill="black"/>
<path d="M22.1303 35.2561L22.3822 35.1347L22.384 35.131L22.0167 34.3685L21.7529 34.4956L22.0254 35.0613C22.0207 35.097 22.0068 35.1288 21.9859 35.1611C21.965 35.1935 21.9338 35.2197 21.8894 35.2411C21.839 35.2654 21.7909 35.2718 21.7523 35.2598C21.7136 35.2477 21.6814 35.2187 21.6596 35.1734L21.4121 34.6598L21.1484 34.7868L21.4013 35.3118C21.4394 35.391 21.4907 35.4443 21.561 35.469C21.6313 35.4937 21.7114 35.4857 21.8004 35.4429C21.8448 35.4215 21.8801 35.3961 21.9102 35.3677C21.9403 35.3392 21.9653 35.3077 21.9832 35.2767C22.0012 35.2458 22.015 35.214 22.0249 35.1814C22.0347 35.1488 22.0416 35.1176 22.0455 35.0878L22.0496 35.0886L22.1303 35.2561Z" fill="black"/>
<path d="M23.7614 33.518L23.8058 33.4966L23.8462 33.5803L23.8639 33.5717L23.8236 33.488L23.8651 33.468L23.8597 33.4567L23.7559 33.5067L23.7614 33.518Z" fill="black"/>
<path d="M24.0037 33.417L24.0364 33.4848L24.0542 33.4763L24.0084 33.3812L23.9936 33.3884L23.9759 33.4805L23.8899 33.4383L23.875 33.4455L23.9208 33.5405L23.9386 33.532L23.9059 33.4641L23.9776 33.4992L23.9865 33.4949L24.0037 33.417Z" fill="black"/>
<path d="M22.6326 34.1257C22.6506 34.0948 22.6756 34.0632 22.7016 34.034L22.7024 34.028C22.7285 33.9987 22.753 33.9813 22.7915 33.9628L22.9005 34.1891L22.8797 34.199C22.8665 34.1943 22.8473 34.1924 22.8252 34.1919L22.762 34.1972C22.7391 34.2027 22.7191 34.2067 22.6992 34.2108L22.6897 34.2139C22.675 34.2188 22.6624 34.2229 22.6525 34.2277C22.6348 34.2362 22.6202 34.2516 22.6039 34.2706C22.5886 34.2919 22.5773 34.3141 22.5653 34.3422L22.8411 34.9146L22.5744 35.0431L22.207 34.2806L22.4708 34.1535L22.546 34.3097C22.5561 34.2853 22.5682 34.2572 22.5821 34.2254C22.5949 34.1913 22.6117 34.1581 22.6326 34.1257Z" fill="black"/>
<path d="M21.167 35.9319C21.2493 35.8755 21.3468 35.8202 21.4535 35.7688L21.3336 35.5199C21.221 35.5742 21.1249 35.64 21.0464 35.7196C20.9679 35.7992 20.9057 35.8822 20.8618 35.973C20.8168 36.0616 20.7921 36.1543 20.7855 36.2467C20.7827 36.3317 20.7968 36.4141 20.8298 36.4902L20.8364 36.5038L20.8808 36.4824C20.8503 36.419 20.843 36.3584 20.8597 36.2946C20.8765 36.2308 20.9124 36.1689 20.9634 36.1081C21.0144 36.0473 21.0817 35.9898 21.167 35.9319Z" fill="black"/>
<path fill-rule="evenodd" clip-rule="evenodd" d="M20.2762 36.1222C20.3623 36.1114 20.4529 36.0873 20.5381 36.0518L20.534 36.051C20.5648 36.039 20.6151 36.0147 20.6151 36.0147C20.7119 35.9653 20.8001 35.9061 20.8749 35.8338C20.9544 35.7564 21.0167 35.6735 21.0646 35.5835C21.1137 35.4957 21.1384 35.403 21.1479 35.3092C21.1564 35.2131 21.139 35.1239 21.0987 35.0402C21.0572 34.9542 20.9983 34.885 20.919 34.834C20.8397 34.783 20.7517 34.7445 20.6515 34.7259C20.5542 34.7059 20.4476 34.7043 20.3375 34.7183C20.2274 34.7323 20.119 34.765 20.0153 34.815C19.9115 34.865 19.8184 34.9294 19.7388 35.0067C19.6593 35.0841 19.594 35.1685 19.5491 35.2571C19.5011 35.347 19.4765 35.4398 19.4669 35.5336C19.4584 35.6297 19.4758 35.7189 19.5161 35.8026C19.5576 35.8886 19.6165 35.9578 19.6958 36.0088C19.7751 36.0598 19.8649 36.0946 19.9622 36.1146C20.0595 36.1346 20.1662 36.1362 20.2762 36.1222ZM20.7718 35.8472C20.7267 35.9052 20.6651 35.9516 20.5821 35.9916L20.5799 35.9871C20.4969 36.027 20.4222 36.0463 20.3488 36.0454C20.2754 36.0446 20.2083 36.0267 20.1458 35.9955C20.0822 35.962 20.0272 35.916 19.9756 35.8544C19.9241 35.7929 19.8792 35.7225 19.8399 35.641C19.8007 35.5596 19.7736 35.4806 19.7576 35.4019C19.7416 35.3232 19.7399 35.2515 19.7534 35.1809C19.7679 35.1126 19.7957 35.049 19.8408 34.991C19.8859 34.9331 19.9475 34.8867 20.0305 34.8467C20.1135 34.8067 20.1882 34.7874 20.2616 34.7883C20.3351 34.7892 20.4021 34.807 20.4646 34.8383C20.5282 34.8717 20.5832 34.9177 20.6348 34.9793C20.6864 35.0409 20.7323 35.1135 20.7716 35.195C20.8119 35.2787 20.839 35.3576 20.855 35.4364C20.871 35.5151 20.8738 35.589 20.8592 35.6573C20.8458 35.7279 20.8169 35.7893 20.7718 35.8472Z" fill="black"/>
<path fill-rule="evenodd" clip-rule="evenodd" d="M23.9039 34.2097C23.9396 34.1702 23.9672 34.129 23.9819 34.0913L23.9867 34.0862L24.0008 34.085C24.0049 34.1694 23.9829 34.2525 23.9336 34.332C23.8843 34.4116 23.8003 34.4799 23.6877 34.5341C23.6136 34.5698 23.5441 34.5922 23.475 34.6004C23.4059 34.6086 23.3424 34.6057 23.2835 34.5895C23.2246 34.5733 23.1724 34.5482 23.1258 34.5121C23.0792 34.476 23.0422 34.4297 23.0161 34.3754C22.9855 34.3121 22.9731 34.2483 22.9747 34.1835C22.9774 34.1208 22.9941 34.057 23.0211 33.9994C23.0471 33.9395 23.0873 33.8867 23.1368 33.8377C23.1862 33.7888 23.2441 33.7498 23.3063 33.7198C23.3715 33.6884 23.4352 33.6689 23.4983 33.6636C23.5585 33.6597 23.6187 33.6557 23.6677 33.674C23.8053 33.7248 23.8453 33.8003 23.8453 33.8003L23.3422 34.3019C23.3785 34.3318 23.4145 34.3535 23.4561 34.3641C23.5018 34.3756 23.5472 34.3788 23.5971 34.3687C23.647 34.3586 23.6977 34.3426 23.748 34.3183C23.8132 34.2869 23.8652 34.2507 23.9039 34.2097ZM23.1916 34.0121C23.195 34.0495 23.2054 34.0863 23.2199 34.1239L23.2351 34.1556C23.2602 34.2076 23.2858 34.2455 23.3191 34.2768L23.6174 33.9714L23.5934 33.9216C23.5564 33.8447 23.5053 33.7689 23.4593 33.7493C23.4133 33.7296 23.3631 33.7315 23.3098 33.7572C23.2772 33.7729 23.2508 33.794 23.2307 33.8204C23.2105 33.8468 23.1985 33.8749 23.1927 33.9084C23.1869 33.9418 23.1852 33.9761 23.1916 34.0121Z" fill="black"/>
<path d="M12.8431 22.5066L13.3646 11.4393C13.4419 10.3963 14.7321 8.09009 19.2749 7.20934C19.3329 7.09345 19.4835 6.85008 19.6226 6.80373L21.0712 6.1084C21.1678 6.06977 21.3841 5.99251 21.4768 5.99251C22.3074 5.93456 24.1075 6.1084 24.6638 7.26728C26.6145 7.63426 30.5045 9.14467 30.4582 12.2505L30.632 20.073M12.8431 22.5066L4.38322 26.2151C2.25088 27.513 1.67916 29.1123 1.65984 29.7497L1.25424 34.1534C0.697977 38.0936 7.62811 40.3534 11.1627 40.9908C18.8114 42.1034 24.0071 41.3385 25.6488 40.817C33.2047 39.1019 37.7978 37.4369 39.1498 36.8188C42.7192 35.2891 43.3411 32.6662 43.2059 31.5459L42.8003 26.9104C41.9195 22.3212 34.3211 20.4399 30.632 20.073M12.8431 22.5066C13.8861 20.5752 18.2899 17.2293 27.3292 19.918M12.8431 22.5066C15.045 21.3864 21.6854 19.3313 30.632 20.073M1.25423 34.7908C1.11903 33.8637 2.43629 31.5112 8.78698 29.5179L16.7833 26.6786C19.6226 25.9253 26.7729 24.8128 32.6601 26.3889C34.804 26.9297 39.5554 28.359 41.4096 29.7497C42.2015 30.5029 43.484 32.5078 42.2788 34.5011M5.25238 38.789C4.38322 38.3833 2.72602 37.1433 3.0505 35.4282C3.37886 34.7329 4.63818 33.1568 7.04866 32.4151L16.4357 28.9964C19.2363 28.1852 26.4484 26.9104 32.8918 28.301C35.6345 28.7839 41.1547 30.5029 41.2937 33.516C41.2358 34.5397 39.8335 36.9 34.6881 38.1516C31.984 38.9242 26.4716 40.4809 26.0544 40.5273C24.6444 40.8556 20.9553 41.4776 17.4787 41.3385C15.0643 41.3385 9.23896 40.8286 5.25238 38.789Z" stroke="black" stroke-width="0.7"/>
<path d="M19.4746 0.981812V6.98181" stroke="black" stroke-width="0.7"/>
<path d="M24.4727 0.981812V6.98181" stroke="black" stroke-width="0.7"/>
</svg>
