<svg width="47" height="46" viewBox="0 0 47 46" fill="none" xmlns="http://www.w3.org/2000/svg">
<path d="M44.7325 1.55859H43.2259C43.0176 1.55977 42.8117 1.60378 42.6212 1.68787C42.4306 1.77197 42.2592 1.89435 42.1179 2.04742C41.9767 2.2005 41.8684 2.38099 41.7997 2.57769C41.7311 2.7744 41.7037 2.9831 41.7192 3.19085H32.83C31.1558 3.19351 29.5115 3.63545 28.0614 4.47251C26.6115 5.30959 25.4064 6.51248 24.5668 7.96104L22.7168 11.1643C22.5413 11.1641 22.3689 11.2099 22.2167 11.2973C22.0645 11.3847 21.938 11.5105 21.8496 11.6621L20.8451 13.4017C20.7296 13.336 20.5927 13.3183 20.4643 13.3528C20.3359 13.3872 20.2262 13.4708 20.159 13.5857C19.3365 14.9995 18.1561 16.1717 16.7366 16.9845C15.3172 17.7973 13.7088 18.222 12.073 18.2159C11.7348 18.0676 11.3538 18.0488 11.0026 18.1633C10.6513 18.2777 10.3545 18.5173 10.1683 18.8363L9.41496 20.1412C9.38197 20.1983 9.36056 20.2613 9.35195 20.3268C9.34334 20.3922 9.3477 20.4586 9.36478 20.5223C9.38186 20.5861 9.41133 20.6458 9.45149 20.6982C9.49166 20.7505 9.54174 20.7944 9.59888 20.8274L26.127 30.3697C26.2425 30.4354 26.3793 30.453 26.5076 30.4185C26.6361 30.3841 26.7457 30.3005 26.8129 30.1859L27.5663 28.8812C27.7508 28.5605 27.8104 28.183 27.7337 27.821C27.657 27.459 27.4492 27.1382 27.1505 26.92C26.3277 25.5065 25.8917 23.9015 25.886 22.2661C25.8803 20.6308 26.3052 19.0227 27.118 17.6036C27.1846 17.4883 27.2027 17.3512 27.1682 17.2227C27.1338 17.094 27.0498 16.9843 26.9345 16.9176L27.939 15.1772C28.0261 15.025 28.0717 14.8525 28.0712 14.677C28.0706 14.5016 28.024 14.3293 27.936 14.1776L29.4942 11.4779C29.892 10.7916 30.4628 10.2216 31.1498 9.82509C31.8368 9.42845 32.6158 9.21909 33.409 9.21788H41.7192C41.6746 9.4432 41.6796 9.67555 41.7341 9.8987C41.7887 10.1219 41.8912 10.3304 42.0348 10.5097C42.1782 10.6891 42.3592 10.8349 42.5649 10.937C42.7706 11.0392 42.9963 11.0952 43.2259 11.101H44.7325C44.8658 11.101 44.9935 11.0481 45.0877 10.954C45.1819 10.8597 45.2348 10.732 45.2348 10.5988V2.06083C45.2348 1.92763 45.1819 1.79988 45.0877 1.70569C44.9935 1.61151 44.8658 1.55859 44.7325 1.55859ZM26.5125 27.6928C26.6274 27.7597 26.7113 27.8693 26.7458 27.9979C26.7802 28.1264 26.7625 28.2633 26.6964 28.3787L26.1941 29.2486L10.5362 20.2084L11.0383 19.3387C11.105 19.2235 11.2147 19.1392 11.3434 19.1048C11.4721 19.0703 11.6091 19.0883 11.7245 19.1549L26.5125 27.6928ZM25.5934 26.0021L13.6483 19.1055C15.0919 18.8871 16.4726 18.3652 17.6997 17.5743C18.9268 16.7833 19.9722 15.7411 20.7671 14.5166L26.0078 17.5425C25.3448 18.8432 24.9652 20.2697 24.8937 21.7279C24.8223 23.1861 25.0608 24.6427 25.5934 26.0021ZM26.0646 16.4151L21.7152 13.904L22.7197 12.1643L27.0691 14.6755L26.0646 16.4151ZM33.4093 8.21317C32.4398 8.2147 31.4876 8.47062 30.648 8.95534C29.8083 9.44007 29.1106 10.1367 28.6243 10.9755L27.1363 13.5536L23.657 11.5446L25.4368 8.46328C26.188 7.16719 27.2661 6.09091 28.5635 5.34196C29.8609 4.59302 31.3321 4.19763 32.83 4.19531H41.7192V8.21317H33.4093ZM44.2303 10.0966H43.2259C43.0927 10.0964 42.9651 10.0435 42.8709 9.94927C42.7767 9.85509 42.7238 9.72748 42.7236 9.59431V3.06529C42.7238 2.93212 42.7767 2.80445 42.8709 2.71029C42.9651 2.61613 43.0927 2.56318 43.2259 2.56306H44.2303V10.0966Z" fill="black"/>
<path d="M9.29492 23.1683C9.19748 23.1669 9.10253 23.1373 9.0215 23.0831C8.94047 23.0289 8.87683 22.9525 8.83823 22.863C8.79963 22.7736 8.78771 22.6748 8.80391 22.5787C8.82011 22.4826 8.86375 22.3932 8.92955 22.3213L9.27429 21.9559C9.36572 21.859 9.49192 21.8024 9.62511 21.7986C9.75827 21.7947 9.88759 21.8439 9.98445 21.9353C10.0814 22.0268 10.138 22.153 10.1418 22.2862C10.1457 22.4193 10.0965 22.5486 10.0051 22.6455C9.82834 22.8124 9.57497 23.1998 9.29492 23.1683Z" fill="black"/>
<path d="M3.23141 29.5938C3.13398 29.5924 3.03904 29.5628 2.95802 29.5086C2.87701 29.4545 2.81337 29.3781 2.77476 29.2886C2.73616 29.1991 2.72424 29.1005 2.74042 29.0044C2.75662 28.9083 2.80024 28.8189 2.86604 28.747L3.53943 28.0331C3.58462 27.985 3.63889 27.9462 3.6991 27.919C3.75931 27.8918 3.82429 27.8768 3.89033 27.8747C3.95636 27.8727 4.02213 27.8837 4.0839 27.9072C4.14566 27.9307 4.2022 27.966 4.25026 28.0114C4.29831 28.0567 4.33697 28.111 4.36399 28.1713C4.39101 28.2316 4.40587 28.2967 4.40773 28.3627C4.40958 28.4287 4.3984 28.4945 4.3748 28.5562C4.35121 28.6179 4.31567 28.6744 4.27022 28.7223C3.9823 28.9818 3.55344 29.6358 3.23141 29.5938Z" fill="black"/>
<path d="M5.25286 27.4523C5.15541 27.4508 5.06048 27.4213 4.97947 27.3671C4.89847 27.313 4.83484 27.2365 4.79625 27.147C4.75765 27.0575 4.74572 26.9587 4.76191 26.8627C4.7781 26.7666 4.82171 26.6772 4.88748 26.6053L5.56138 25.8915C5.65281 25.7946 5.77902 25.738 5.9122 25.7341C6.04538 25.7302 6.17465 25.7794 6.27155 25.8709C6.36846 25.9623 6.42509 26.0885 6.42895 26.2217C6.43281 26.3549 6.38361 26.4841 6.29218 26.5811C6.00319 26.8415 5.57493 27.4945 5.25286 27.4523Z" fill="black"/>
<path d="M7.27429 25.3098C7.17686 25.3083 7.08194 25.2786 7.00094 25.2245C6.91995 25.1703 6.85633 25.0939 6.81773 25.0044C6.77913 24.9149 6.76721 24.8162 6.78339 24.7202C6.79957 24.6241 6.84315 24.5347 6.90892 24.4627L7.58281 23.7489C7.67426 23.6519 7.80045 23.5954 7.93363 23.5915C8.06682 23.5877 8.19609 23.6368 8.293 23.7282C8.38991 23.8197 8.44652 23.9458 8.45039 24.0791C8.45425 24.2123 8.40505 24.3415 8.31361 24.4385C8.02463 24.6988 7.59627 25.3519 7.27429 25.3098Z" fill="black"/>
<path d="M1.54004 31.3861C1.44259 31.3846 1.34764 31.3551 1.26662 31.3009C1.18559 31.2468 1.12195 31.1703 1.08334 31.0808C1.04475 30.9913 1.03283 30.8925 1.04903 30.7964C1.06523 30.7003 1.10886 30.611 1.17467 30.5391L1.51945 30.1737C1.61089 30.0769 1.73709 30.0202 1.87028 30.0163C2.00345 30.0125 2.13272 30.0616 2.22963 30.1531C2.32654 30.2445 2.38316 30.3708 2.38703 30.5039C2.39089 30.6371 2.34169 30.7663 2.25025 30.8633C2.07357 31.0303 1.82013 31.4176 1.54004 31.3861Z" fill="black"/>
<path d="M11.5021 24.4509C11.4081 24.4496 11.3164 24.4221 11.2371 24.3714C11.1579 24.3208 11.0945 24.2491 11.0538 24.1644C11.0131 24.0796 10.9968 23.9852 11.0068 23.8918C11.0168 23.7983 11.0526 23.7094 11.1104 23.6353L11.4238 23.2427C11.4645 23.1899 11.5153 23.1458 11.5732 23.1129C11.6312 23.08 11.6951 23.0589 11.7613 23.0509C11.8275 23.043 11.8945 23.0483 11.9587 23.0666C12.0228 23.0848 12.0827 23.1155 12.1348 23.1572C12.1868 23.1988 12.2301 23.2503 12.262 23.3088C12.294 23.3673 12.314 23.4316 12.3209 23.4978C12.3277 23.5642 12.3213 23.6311 12.302 23.695C12.2827 23.7587 12.2509 23.8181 12.2085 23.8695C12.0365 24.0645 11.8098 24.4843 11.5021 24.4509Z" fill="black"/>
<path d="M3.22963 34.8208C3.13564 34.8194 3.04389 34.7919 2.96468 34.7413C2.88548 34.6907 2.82197 34.619 2.78126 34.5342C2.74057 34.4495 2.72432 34.3551 2.73431 34.2617C2.74432 34.1681 2.78019 34.0793 2.83789 34.0052L3.52746 33.1413C3.56824 33.0887 3.61908 33.0447 3.67701 33.0119C3.73495 32.9792 3.79882 32.9582 3.86492 32.9503C3.93101 32.9424 3.99802 32.9478 4.06204 32.966C4.12606 32.9843 4.18581 33.0151 4.23782 33.0566C4.28982 33.0982 4.33307 33.1496 4.36501 33.208C4.39695 33.2664 4.41696 33.3306 4.42388 33.3968C4.4308 33.463 4.42449 33.5299 4.40531 33.5936C4.38615 33.6574 4.35448 33.7167 4.3122 33.7682L3.62258 34.6319C3.57551 34.691 3.51573 34.7386 3.44769 34.7713C3.37966 34.804 3.30512 34.8209 3.22963 34.8208Z" fill="black"/>
<path d="M5.29805 32.2277C5.20411 32.2263 5.11242 32.1988 5.03324 32.1482C4.95407 32.0977 4.89056 32.026 4.84982 31.9413C4.80908 31.8567 4.79273 31.7624 4.8026 31.669C4.81247 31.5756 4.84818 31.4866 4.90571 31.4124L5.59476 30.5482C5.6359 30.4966 5.68678 30.4536 5.74453 30.4216C5.80227 30.3897 5.86574 30.3694 5.9313 30.3621C5.99687 30.3547 6.06326 30.3602 6.12667 30.3784C6.19008 30.3968 6.24928 30.4273 6.30088 30.4684C6.35249 30.5096 6.39548 30.5605 6.42741 30.6182C6.45935 30.6759 6.4796 30.7394 6.48702 30.805C6.49442 30.8706 6.48884 30.9369 6.47059 31.0003C6.45235 31.0637 6.42179 31.123 6.38066 31.1745L5.6916 32.0387C5.64443 32.0978 5.58455 32.1454 5.51642 32.1782C5.44828 32.2109 5.37364 32.2278 5.29805 32.2277Z" fill="black"/>
<path d="M7.36656 29.636C7.27261 29.6347 7.18087 29.6072 7.10167 29.5566C7.02247 29.506 6.95894 29.4343 6.91819 29.3497C6.87743 29.2651 6.86108 29.1707 6.87097 29.0772C6.88086 28.9838 6.9166 28.8949 6.97417 28.8206L7.66328 27.9568C7.74634 27.8526 7.86738 27.7857 7.99979 27.7707C8.13219 27.7558 8.2651 27.7941 8.3693 27.8771C8.47349 27.9602 8.54041 28.0812 8.55535 28.2137C8.5703 28.3461 8.53203 28.4789 8.44897 28.5832L7.75991 29.447C7.71277 29.506 7.65293 29.5537 7.58483 29.5864C7.51672 29.6192 7.44212 29.6361 7.36656 29.636Z" fill="black"/>
<path d="M9.43383 27.0436C9.33988 27.0422 9.24818 27.0147 9.16901 26.964C9.08983 26.9135 9.02632 26.8419 8.98557 26.7571C8.94484 26.6725 8.92848 26.5782 8.93834 26.4848C8.94821 26.3914 8.98391 26.3024 9.04144 26.2282L9.73075 25.364C9.81383 25.2598 9.93479 25.193 10.0672 25.178C10.1997 25.1631 10.3325 25.2013 10.4367 25.2845C10.5408 25.3675 10.6078 25.4885 10.6227 25.6209C10.6375 25.7533 10.5993 25.8862 10.5163 25.9903L9.82722 26.8545C9.78008 26.9136 9.72021 26.9612 9.6521 26.994C9.584 27.0267 9.50939 27.0436 9.43383 27.0436Z" fill="black"/>
<path d="M1.54018 36.9408C1.44626 36.9394 1.35458 36.9119 1.27542 36.8614C1.19626 36.8108 1.13276 36.7391 1.09201 36.6545C1.05128 36.5698 1.03493 36.4756 1.04479 36.3821C1.05464 36.2887 1.09033 36.1999 1.14785 36.1256L1.46073 35.7328C1.50184 35.6812 1.55268 35.6382 1.6104 35.6063C1.66812 35.5744 1.73156 35.5541 1.7971 35.5466C1.86265 35.5392 1.929 35.5448 1.9924 35.563C2.0558 35.5812 2.11498 35.6118 2.16657 35.6529C2.21816 35.6939 2.26116 35.7448 2.2931 35.8026C2.32502 35.8602 2.34528 35.9238 2.35271 35.9892C2.36012 36.0548 2.35456 36.1211 2.33634 36.1846C2.3181 36.248 2.28758 36.3071 2.24648 36.3588C2.07481 36.5541 1.8481 36.9744 1.54018 36.9408Z" fill="black"/>
<path d="M13.71 25.7325C13.6196 25.7313 13.5311 25.706 13.4539 25.659C13.3765 25.6121 13.3133 25.5452 13.2706 25.4654C13.228 25.3857 13.2075 25.2959 13.2114 25.2055C13.2154 25.1152 13.2434 25.0275 13.2927 24.9517L13.5713 24.5338C13.6452 24.4231 13.7601 24.3463 13.8906 24.3203C14.0212 24.2942 14.1567 24.321 14.2675 24.3948C14.3783 24.4688 14.4552 24.5835 14.4814 24.714C14.5075 24.8446 14.4807 24.9802 14.407 25.0909C14.2452 25.3151 14.0461 25.7667 13.71 25.7325Z" fill="black"/>
<path d="M3.00692 41.7862C2.91648 41.7851 2.82798 41.7597 2.75069 41.7127C2.67338 41.6658 2.61012 41.5989 2.56748 41.5191C2.52484 41.4394 2.5044 41.3496 2.50828 41.2593C2.51217 41.1688 2.54024 41.0812 2.58957 41.0053L3.18396 40.1135C3.2579 40.0027 3.37277 39.9259 3.50331 39.8998C3.63387 39.8738 3.76942 39.9007 3.8802 39.9745C3.99096 40.0483 4.06788 40.1632 4.09405 40.2937C4.12021 40.4242 4.09348 40.5598 4.01972 40.6706L3.42528 41.5626C3.37941 41.6315 3.31721 41.6879 3.24421 41.7269C3.17121 41.7659 3.0897 41.7863 3.00692 41.7862Z" fill="black"/>
<path d="M4.79106 39.1099C4.70062 39.1088 4.61214 39.0834 4.53485 39.0364C4.45756 38.9895 4.3943 38.9226 4.35166 38.8428C4.30903 38.763 4.28859 38.6733 4.29245 38.5829C4.29633 38.4926 4.32439 38.4049 4.3737 38.3291L4.96815 37.4374C5.00444 37.3819 5.05138 37.3342 5.10625 37.2969C5.16112 37.2596 5.22283 37.2334 5.28782 37.2202C5.35282 37.2069 5.4198 37.2066 5.4849 37.2193C5.55001 37.2321 5.61196 37.2575 5.66715 37.2943C5.72235 37.3312 5.76972 37.3785 5.8065 37.4337C5.84328 37.4889 5.86877 37.5509 5.88148 37.6159C5.8942 37.6811 5.89388 37.748 5.88056 37.8131C5.86723 37.878 5.84116 37.9397 5.80387 37.9946L5.20942 38.8862C5.16357 38.9551 5.10137 39.0117 5.02838 39.0507C4.95537 39.0897 4.87384 39.11 4.79106 39.1099Z" fill="black"/>
<path d="M6.57524 36.4336C6.4848 36.4324 6.39631 36.407 6.31903 36.3601C6.24173 36.313 6.17848 36.2462 6.13583 36.1665C6.0932 36.0867 6.07276 35.997 6.07664 35.9065C6.0805 35.8162 6.10857 35.7286 6.15788 35.6527L6.75277 34.7608C6.8273 34.6515 6.94193 34.576 7.07178 34.5508C7.20163 34.5255 7.3362 34.5525 7.44627 34.6259C7.55633 34.6993 7.63302 34.813 7.65965 34.9426C7.6863 35.0722 7.66073 35.207 7.58854 35.3179L6.9936 36.2098C6.94775 36.2788 6.88554 36.3352 6.81255 36.3742C6.73955 36.4133 6.65802 36.4337 6.57524 36.4336Z" fill="black"/>
<path d="M8.35845 33.7591C8.26801 33.7579 8.17952 33.7325 8.10224 33.6856C8.02494 33.6385 7.96169 33.5717 7.91904 33.492C7.87641 33.4122 7.85597 33.3225 7.85984 33.232C7.86372 33.1417 7.89178 33.0541 7.94109 32.9782L8.53553 32.0864C8.57182 32.0308 8.61876 31.983 8.67363 31.9457C8.7285 31.9084 8.79021 31.8824 8.8552 31.8691C8.9202 31.8558 8.98718 31.8555 9.05229 31.8682C9.11739 31.8809 9.17934 31.9064 9.23454 31.9432C9.28973 31.98 9.3371 32.0273 9.37388 32.0826C9.41068 32.1378 9.43616 32.1997 9.44887 32.2649C9.46158 32.33 9.46126 32.397 9.44794 32.4619C9.43461 32.5269 9.40856 32.5887 9.37125 32.6435L8.7768 33.5354C8.73095 33.6043 8.66876 33.6608 8.59576 33.6998C8.52275 33.7388 8.44123 33.7592 8.35845 33.7591Z" fill="black"/>
<path d="M10.1436 31.0831C10.0531 31.082 9.96462 31.0567 9.88737 31.0096C9.81012 30.9627 9.7468 30.8958 9.7042 30.816C9.66156 30.7363 9.64112 30.6465 9.645 30.5562C9.64887 30.4658 9.67693 30.3781 9.72624 30.3024L10.3211 29.4105C10.3954 29.3007 10.5102 29.2248 10.6403 29.1993C10.7703 29.1738 10.9052 29.2007 11.0155 29.2742C11.1258 29.3478 11.2026 29.4619 11.229 29.5918C11.2555 29.7217 11.2296 29.8568 11.1569 29.9675L10.5619 30.8595C10.5161 30.9284 10.4539 30.9849 10.3809 31.024C10.3079 31.063 10.2264 31.0833 10.1436 31.0831Z" fill="black"/>
<path d="M11.9248 28.408C11.8344 28.4068 11.7459 28.3815 11.6686 28.3345C11.5914 28.2876 11.5281 28.2207 11.4854 28.1409C11.4428 28.0612 11.4223 27.9714 11.4263 27.881C11.4301 27.7907 11.4582 27.703 11.5075 27.6272L12.1019 26.7353C12.1382 26.6797 12.1852 26.6319 12.24 26.5946C12.2949 26.5573 12.3566 26.5313 12.4216 26.518C12.4866 26.5047 12.5535 26.5044 12.6187 26.5172C12.6838 26.5298 12.7457 26.5553 12.8009 26.5922C12.8561 26.6289 12.9034 26.6764 12.9403 26.7315C12.9771 26.7867 13.0026 26.8487 13.0153 26.9138C13.0279 26.9789 13.0276 27.0459 13.0143 27.1108C13.0011 27.1759 12.9749 27.2376 12.9376 27.2924L12.3432 28.1844C12.2973 28.2533 12.2351 28.3098 12.1621 28.3488C12.0892 28.3878 12.0076 28.4081 11.9248 28.408Z" fill="black"/>
<path d="M1.53915 43.9873C1.44871 43.9863 1.36021 43.9609 1.28291 43.9139C1.20562 43.8669 1.14234 43.8 1.09971 43.7202C1.05707 43.6405 1.03663 43.5507 1.0405 43.4604C1.04439 43.37 1.07246 43.2823 1.12179 43.2065L1.40039 42.7886C1.43659 42.7329 1.4835 42.6849 1.53838 42.6475C1.59326 42.61 1.65503 42.5839 1.72012 42.5704C1.7852 42.557 1.8523 42.5567 1.91753 42.5693C1.98276 42.582 2.04482 42.6075 2.10011 42.6444C2.1554 42.6813 2.20283 42.7287 2.23965 42.784C2.27646 42.8394 2.30193 42.9014 2.31458 42.9667C2.32723 43.0319 2.32681 43.099 2.31333 43.1641C2.29986 43.2292 2.27361 43.2909 2.2361 43.3458C2.07418 43.57 1.87524 44.0217 1.53915 43.9873Z" fill="black"/>
<path d="M15.9218 27.0096C15.8349 27.0087 15.7497 26.9853 15.6744 26.9418C15.5992 26.8984 15.5364 26.8363 15.4923 26.7615C15.448 26.6867 15.4238 26.6017 15.422 26.5148C15.4202 26.4279 15.4407 26.3421 15.4818 26.2655L15.7236 25.8252C15.7878 25.7083 15.8957 25.6217 16.0236 25.5845C16.1515 25.5472 16.2891 25.5623 16.4059 25.6264C16.5227 25.6906 16.6092 25.7985 16.6465 25.9264C16.6837 26.0543 16.6686 26.1918 16.6045 26.3087C16.4572 26.5618 16.2867 27.0438 15.9218 27.0096Z" fill="black"/>
<path d="M6.87781 43.4839C6.79093 43.4829 6.70575 43.4596 6.63051 43.4162C6.55528 43.3727 6.49251 43.3105 6.4483 43.2357C6.40407 43.1609 6.37987 43.076 6.37804 42.9892C6.37621 42.9023 6.39681 42.8164 6.43785 42.7399L6.94059 41.8247C7.00472 41.7078 7.11262 41.6213 7.24056 41.584C7.36851 41.5467 7.50601 41.5618 7.62282 41.626C7.73964 41.6901 7.82618 41.798 7.86343 41.926C7.90068 42.0539 7.88558 42.1914 7.82145 42.3082L7.31871 43.2232C7.27537 43.3022 7.21156 43.3681 7.13399 43.4139C7.05642 43.4598 6.96793 43.484 6.87781 43.4839Z" fill="black"/>
<path d="M8.38655 40.7383C8.29966 40.7373 8.2145 40.7139 8.13927 40.6706C8.06403 40.6271 8.00128 40.5649 7.95706 40.4901C7.91285 40.4153 7.88865 40.3304 7.88683 40.2436C7.885 40.1567 7.9056 40.0709 7.94664 39.9943L8.44932 39.0791C8.51346 38.9623 8.62136 38.8757 8.7493 38.8384C8.87724 38.8011 9.01475 38.8162 9.13155 38.8804C9.24836 38.9445 9.33491 39.0525 9.37216 39.1804C9.40942 39.3083 9.39432 39.4458 9.33019 39.5626L8.8276 40.4778C8.78421 40.5569 8.72037 40.6227 8.64277 40.6685C8.56516 40.7143 8.47666 40.7384 8.38655 40.7383Z" fill="black"/>
<path d="M9.89244 37.9931C9.80554 37.9921 9.72036 37.9689 9.64513 37.9254C9.5699 37.8819 9.50715 37.8198 9.46292 37.7449C9.4187 37.6701 9.39451 37.5853 9.39269 37.4984C9.39087 37.4115 9.41146 37.3257 9.45251 37.2491L9.95522 36.3339C10.0193 36.2171 10.1272 36.1305 10.2551 36.0932C10.3831 36.056 10.5206 36.0711 10.6374 36.1352C10.7542 36.1994 10.8408 36.3073 10.878 36.4352C10.9153 36.5631 10.9002 36.7007 10.836 36.8175L10.3333 37.7327C10.2899 37.8117 10.2261 37.8775 10.1485 37.9233C10.0709 37.9691 9.98254 37.9932 9.89244 37.9931Z" fill="black"/>
<path d="M11.4022 35.2479C11.3153 35.2469 11.2301 35.2236 11.155 35.1801C11.0798 35.1367 11.017 35.0746 10.9727 34.9998C10.9286 34.9251 10.9044 34.8402 10.9025 34.7534C10.9006 34.6666 10.9212 34.5807 10.9621 34.5042L11.4644 33.589C11.5285 33.4721 11.6363 33.3855 11.7642 33.3482C11.8921 33.3109 12.0296 33.3259 12.1464 33.39C12.2632 33.4541 12.3497 33.562 12.387 33.6898C12.4244 33.8177 12.4093 33.9552 12.3452 34.072L11.8431 34.9872C11.7997 35.0662 11.7358 35.132 11.6582 35.1779C11.5807 35.2237 11.4923 35.248 11.4022 35.2479Z" fill="black"/>
<path d="M12.9058 32.5023C12.819 32.5012 12.7339 32.4778 12.6587 32.4344C12.5835 32.3909 12.5208 32.3289 12.4766 32.2541C12.4324 32.1794 12.4082 32.0946 12.4064 32.0077C12.4044 31.9209 12.425 31.8351 12.4659 31.7585L12.9682 30.8433C13.0323 30.7265 13.1401 30.6399 13.268 30.6026C13.3959 30.5653 13.5334 30.5803 13.6502 30.6444C13.767 30.7085 13.8536 30.8164 13.8909 30.9442C13.9282 31.0721 13.9131 31.2096 13.8491 31.3264L13.3469 32.2416C13.3035 32.3206 13.2396 32.3864 13.1621 32.4323C13.0845 32.4781 12.996 32.5024 12.9058 32.5023Z" fill="black"/>
<path d="M14.4157 29.7552C14.3288 29.7543 14.2437 29.7309 14.1686 29.6875C14.0933 29.644 14.0306 29.5819 13.9864 29.5072C13.9422 29.4324 13.9179 29.3475 13.9161 29.2606C13.9143 29.1739 13.9348 29.088 13.9758 29.0114L14.478 28.0962C14.5097 28.0384 14.5526 27.9874 14.604 27.9461C14.6554 27.9048 14.7144 27.874 14.7778 27.8556C14.8411 27.837 14.9075 27.8313 14.9731 27.8384C15.0387 27.8456 15.1022 27.8656 15.1599 27.8974C15.2178 27.9291 15.2688 27.9718 15.3102 28.0233C15.3514 28.0748 15.3822 28.1338 15.4007 28.1971C15.4191 28.2605 15.4249 28.3268 15.4177 28.3924C15.4107 28.4579 15.3906 28.5215 15.3589 28.5793L14.8566 29.4945C14.8132 29.5735 14.7495 29.6394 14.6719 29.6853C14.5943 29.7311 14.5058 29.7553 14.4157 29.7552Z" fill="black"/>
<path d="M5.6325 45.7546C5.54567 45.7537 5.46055 45.7304 5.38535 45.6869C5.31015 45.6435 5.24742 45.5815 5.2032 45.5067C5.159 45.432 5.13478 45.3471 5.13293 45.2603C5.13106 45.1735 5.15161 45.0877 5.1926 45.011L5.43367 44.5709C5.4985 44.4557 5.60616 44.3707 5.73328 44.3343C5.86041 44.2979 5.99674 44.3132 6.1127 44.3767C6.22866 44.4402 6.31489 44.5469 6.35268 44.6737C6.39045 44.8003 6.37675 44.9368 6.31453 45.0535C6.16743 45.3068 5.99763 45.7889 5.6325 45.7546Z" fill="black"/>
<path d="M18.137 28.2853C18.0537 28.2844 17.972 28.263 17.8989 28.2229C17.8258 28.1828 17.7639 28.1253 17.7185 28.0554C17.673 27.9857 17.6456 27.9057 17.6385 27.8226C17.6315 27.7397 17.645 27.6562 17.678 27.5797L17.881 27.1202C17.9349 26.9983 18.035 26.9028 18.1593 26.8547C18.2834 26.8066 18.4218 26.8098 18.5436 26.8637C18.6655 26.9175 18.761 27.0175 18.8091 27.1418C18.8572 27.2661 18.854 27.4044 18.8001 27.5263C18.669 27.812 18.5364 28.3127 18.137 28.2853Z" fill="black"/>
<path d="M11.3715 43.5951C11.2881 43.5943 11.2064 43.5729 11.1333 43.5327C11.0602 43.4926 10.9983 43.4352 10.9529 43.3653C10.9074 43.2955 10.88 43.2156 10.8729 43.1325C10.8659 43.0495 10.8794 42.966 10.9124 42.8895L11.288 42.0391C11.3419 41.9172 11.442 41.8217 11.5662 41.7736C11.6904 41.7255 11.8287 41.7287 11.9507 41.7826C12.0725 41.8365 12.168 41.9366 12.2161 42.0608C12.2642 42.1851 12.261 42.3234 12.2072 42.4452L11.8314 43.2957C11.792 43.3848 11.7276 43.4606 11.6459 43.5137C11.5642 43.5669 11.4689 43.5952 11.3715 43.5951Z" fill="black"/>
<path d="M12.5004 41.0428C12.417 41.042 12.3352 41.0205 12.2622 40.9805C12.1892 40.9404 12.1272 40.8829 12.0817 40.8131C12.0364 40.7432 12.0089 40.6633 12.0018 40.5803C11.9947 40.4972 12.0084 40.4138 12.0412 40.3373L12.417 39.4869C12.4708 39.365 12.5709 39.2695 12.6951 39.2214C12.8194 39.1733 12.9576 39.1765 13.0796 39.2304C13.2014 39.2842 13.297 39.3842 13.3451 39.5085C13.3932 39.6328 13.3899 39.771 13.3361 39.893L12.9604 40.7435C12.921 40.8326 12.8565 40.9084 12.7749 40.9615C12.6931 41.0146 12.5977 41.0429 12.5004 41.0428Z" fill="black"/>
<path d="M13.6289 38.4916C13.5457 38.4907 13.4639 38.4694 13.3909 38.4292C13.3179 38.3892 13.2559 38.3316 13.2105 38.2618C13.1651 38.1919 13.1377 38.112 13.1307 38.0289C13.1236 37.946 13.1374 37.8626 13.1704 37.7861L13.5465 36.9357C13.5729 36.8749 13.611 36.82 13.6587 36.774C13.7064 36.728 13.7626 36.6919 13.8244 36.6678C13.8861 36.6437 13.9519 36.632 14.0181 36.6334C14.0843 36.6349 14.1496 36.6495 14.2102 36.6763C14.2707 36.7031 14.3255 36.7415 14.371 36.7895C14.4166 36.8375 14.4523 36.8941 14.476 36.956C14.4997 37.0178 14.5108 37.0838 14.5089 37.1499C14.507 37.2162 14.492 37.2814 14.4646 37.3417L14.0885 38.1921C14.0491 38.2813 13.9849 38.357 13.9032 38.4102C13.8217 38.4633 13.7263 38.4916 13.6289 38.4916Z" fill="black"/>
<path d="M14.7542 35.9398C14.6709 35.9389 14.5892 35.9175 14.5161 35.8774C14.4431 35.8374 14.3811 35.7798 14.3357 35.71C14.2902 35.6402 14.2628 35.5603 14.2557 35.4772C14.2487 35.3942 14.2622 35.3107 14.2952 35.2342L14.6708 34.3839C14.6975 34.3234 14.7357 34.269 14.7835 34.2234C14.8312 34.1778 14.8874 34.1421 14.9491 34.1184C15.0106 34.0945 15.0761 34.0831 15.1421 34.0846C15.208 34.0861 15.2731 34.1007 15.3334 34.1274C15.3938 34.154 15.4482 34.1923 15.4939 34.24C15.5394 34.2877 15.5751 34.344 15.5989 34.4055C15.6227 34.467 15.6342 34.5327 15.6326 34.5986C15.6311 34.6646 15.6166 34.7296 15.5899 34.7899L15.2142 35.6402C15.1749 35.7294 15.1104 35.8052 15.0288 35.8584C14.947 35.9115 14.8517 35.9398 14.7542 35.9398Z" fill="black"/>
<path d="M15.8812 33.3881C15.7979 33.3872 15.7161 33.3658 15.643 33.3257C15.5701 33.2856 15.508 33.2281 15.4626 33.1582C15.4172 33.0885 15.3898 33.0085 15.3827 32.9255C15.3756 32.8425 15.3891 32.759 15.4221 32.6825L15.7978 31.832C15.8517 31.7102 15.9517 31.6146 16.076 31.5665C16.2003 31.5185 16.3385 31.5217 16.4604 31.5755C16.5823 31.6294 16.6777 31.7295 16.7258 31.8538C16.7739 31.9779 16.7707 32.1163 16.7169 32.2382L16.3412 33.0886C16.3018 33.1777 16.2374 33.2535 16.1557 33.3066C16.074 33.3599 15.9786 33.3882 15.8812 33.3881Z" fill="black"/>
<path d="M17.0082 30.8363C16.9249 30.8354 16.8431 30.814 16.7701 30.7739C16.697 30.7339 16.6351 30.6763 16.5897 30.6065C16.5442 30.5367 16.5167 30.4567 16.5096 30.3736C16.5026 30.2907 16.5162 30.2072 16.5491 30.1307L16.9248 29.2802C16.9787 29.1584 17.0788 29.063 17.203 29.0149C17.3272 28.9667 17.4656 28.97 17.5874 29.0237C17.7093 29.0776 17.8048 29.1777 17.8529 29.302C17.901 29.4263 17.8978 29.5645 17.8439 29.6864L17.4682 30.5368C17.4288 30.626 17.3644 30.7017 17.2827 30.7549C17.201 30.8081 17.1057 30.8363 17.0082 30.8363Z" fill="black"/>
<path d="M10.4182 45.7557C10.335 45.7548 10.2532 45.7334 10.1802 45.6933C10.1072 45.6532 10.0452 45.5957 9.99973 45.5259C9.9543 45.4561 9.92687 45.3762 9.9198 45.2931C9.91273 45.2101 9.92623 45.1266 9.95923 45.0501L10.1623 44.5909C10.216 44.469 10.3161 44.3735 10.4404 44.3254C10.5647 44.2773 10.7029 44.2805 10.8248 44.3343C10.9467 44.3882 11.0422 44.4883 11.0903 44.6125C11.1384 44.7367 11.1351 44.875 11.0813 44.9969C10.9506 45.2826 10.8168 45.7832 10.4182 45.7557Z" fill="black"/>
<path d="M20.349 29.5568C20.269 29.5561 20.1905 29.5366 20.1197 29.4998C20.0488 29.4629 19.9878 29.4099 19.9414 29.3449C19.8951 29.2798 19.8648 29.2047 19.8531 29.1258C19.8414 29.0468 19.8486 28.9661 19.8742 28.8905L20.038 28.4154C20.0815 28.2897 20.1732 28.1863 20.2929 28.1281C20.4127 28.07 20.5506 28.0617 20.6764 28.1051C20.8022 28.1485 20.9057 28.2401 20.964 28.3597C21.0223 28.4794 21.0308 28.6173 20.9875 28.7431C20.8755 29.0593 20.7834 29.5763 20.349 29.5568Z" fill="black"/>
<path d="M15.5715 43.4308C15.4917 43.4302 15.4131 43.4107 15.3423 43.3739C15.2715 43.337 15.2104 43.284 15.164 43.2189C15.1178 43.154 15.0874 43.0789 15.0758 42.9999C15.0641 42.921 15.0713 42.8404 15.0968 42.7648L15.4155 41.8399C15.4361 41.7765 15.4692 41.7178 15.5127 41.6672C15.5562 41.6166 15.6094 41.5753 15.6691 41.5455C15.7288 41.5157 15.7938 41.4981 15.8605 41.4937C15.927 41.4894 15.9938 41.4983 16.0569 41.5201C16.12 41.5418 16.178 41.5759 16.2279 41.6204C16.2776 41.6648 16.318 41.7187 16.3467 41.7789C16.3754 41.8392 16.3918 41.9045 16.3949 41.9711C16.3981 42.0378 16.3879 42.1044 16.365 42.1671L16.0463 43.0919C16.0123 43.1908 15.9482 43.2766 15.8631 43.3373C15.7781 43.3981 15.6761 43.4308 15.5715 43.4308Z" fill="black"/>
<path d="M16.5287 40.6546C16.4489 40.6541 16.3704 40.6346 16.2995 40.5979C16.2286 40.561 16.1676 40.508 16.1212 40.4429C16.0748 40.3779 16.0446 40.3029 16.0328 40.2238C16.0211 40.1449 16.0283 40.0643 16.0538 39.9885L16.3726 39.0636C16.3932 39.0001 16.4262 38.9414 16.4698 38.8909C16.5133 38.8403 16.5665 38.7989 16.6262 38.7691C16.6859 38.7394 16.751 38.7218 16.8175 38.7174C16.8841 38.713 16.9509 38.722 17.014 38.7438C17.077 38.7655 17.1352 38.7996 17.1849 38.844C17.2347 38.8884 17.2751 38.9424 17.3038 39.0026C17.3324 39.0628 17.3488 39.1282 17.352 39.1948C17.3551 39.2615 17.3451 39.328 17.3221 39.3907L17.0033 40.3157C16.9693 40.4146 16.9054 40.5004 16.8203 40.5611C16.7352 40.6219 16.6333 40.6545 16.5287 40.6546Z" fill="black"/>
<path d="M17.4855 37.8811C17.4057 37.8806 17.3272 37.8611 17.2564 37.8243C17.1855 37.7875 17.1245 37.7345 17.0782 37.6695C17.0318 37.6045 17.0016 37.5295 16.9899 37.4505C16.9781 37.3716 16.9853 37.291 17.0108 37.2153L17.3291 36.2903C17.3491 36.2262 17.3818 36.1668 17.4252 36.1156C17.4686 36.0644 17.5219 36.0224 17.5817 35.9921C17.6416 35.9618 17.7071 35.9438 17.7741 35.9392C17.841 35.9346 17.9082 35.9435 17.9717 35.9653C18.0352 35.9872 18.0937 36.0215 18.1437 36.0662C18.1936 36.1111 18.2341 36.1655 18.2627 36.2262C18.2914 36.287 18.3075 36.3528 18.3102 36.4199C18.313 36.487 18.3023 36.554 18.2786 36.6167L17.9604 37.5418C17.9264 37.6407 17.8624 37.7266 17.7773 37.7875C17.6922 37.8484 17.5902 37.881 17.4855 37.8811Z" fill="black"/>
<path d="M18.4387 35.1057C18.3589 35.1052 18.2803 35.0857 18.2095 35.0489C18.1387 35.0121 18.0776 34.9591 18.0312 34.894C17.9849 34.8291 17.9547 34.754 17.9429 34.6751C17.9313 34.5962 17.9384 34.5156 17.9639 34.44L18.2823 33.5149C18.3023 33.4508 18.335 33.3915 18.3784 33.3402C18.4218 33.2889 18.475 33.2469 18.5349 33.2167C18.5948 33.1864 18.6602 33.1684 18.7271 33.1638C18.7942 33.1592 18.8614 33.1681 18.9249 33.1899C18.9883 33.2117 19.0468 33.2461 19.0968 33.2908C19.1468 33.3356 19.1873 33.3901 19.2159 33.4508C19.2445 33.5116 19.2607 33.5774 19.2634 33.6444C19.2662 33.7116 19.2553 33.7785 19.2318 33.8414L18.9134 34.7663C18.8795 34.8653 18.8155 34.9512 18.7304 35.0121C18.6453 35.073 18.5433 35.1056 18.4387 35.1057Z" fill="black"/>
<path d="M19.3957 32.3313C19.3159 32.3308 19.2374 32.3113 19.1665 32.2744C19.0957 32.2377 19.0346 32.1846 18.9883 32.1196C18.942 32.0547 18.9117 31.9796 18.9 31.9007C18.8883 31.8218 18.8955 31.7412 18.921 31.6655L19.2393 30.7405C19.2593 30.6764 19.292 30.617 19.3354 30.5658C19.3788 30.5146 19.432 30.4725 19.4919 30.4423C19.5518 30.412 19.6172 30.394 19.6841 30.3894C19.7511 30.3848 19.8184 30.3937 19.8818 30.4155C19.9454 30.4374 20.0039 30.4717 20.0538 30.5164C20.1038 30.5612 20.1443 30.6157 20.1729 30.6764C20.2015 30.7372 20.2177 30.8029 20.2204 30.8701C20.2231 30.9372 20.2124 31.004 20.1888 31.0669L19.8705 31.992C19.8365 32.0909 19.7725 32.1768 19.6875 32.2377C19.6023 32.2985 19.5003 32.3312 19.3957 32.3313Z" fill="black"/>
<path d="M14.7708 45.7552C14.691 45.7547 14.6124 45.7352 14.5415 45.6983C14.4707 45.6615 14.4096 45.6084 14.3632 45.5434C14.3169 45.4783 14.2866 45.4032 14.2749 45.3243C14.2633 45.2452 14.2706 45.1646 14.2961 45.089L14.4599 44.6141C14.5035 44.4884 14.5952 44.3851 14.7149 44.3269C14.8346 44.2687 14.9724 44.2604 15.0982 44.3038C15.2241 44.3472 15.3275 44.4388 15.3859 44.5584C15.4442 44.6781 15.4527 44.816 15.4094 44.9419C15.2972 45.2577 15.2051 45.7748 14.7708 45.7552Z" fill="black"/>
<path d="M22.5647 30.8235C22.4883 30.8233 22.4129 30.8056 22.3443 30.772C22.2756 30.7382 22.2155 30.6894 22.1686 30.6291C22.1217 30.5686 22.0891 30.4985 22.0733 30.4237C22.0576 30.3488 22.059 30.2714 22.0776 30.1973L22.2017 29.7104C22.2168 29.6453 22.2448 29.5839 22.284 29.5297C22.3232 29.4755 22.3728 29.4297 22.4299 29.3949C22.487 29.3602 22.5506 29.3372 22.6167 29.3273C22.6828 29.3174 22.7503 29.3208 22.815 29.3373C22.8798 29.354 22.9407 29.3832 22.994 29.4236C23.0473 29.4639 23.0921 29.5145 23.1255 29.5723C23.159 29.6303 23.1807 29.6942 23.1891 29.7606C23.1976 29.8269 23.1927 29.8942 23.1748 29.9587C23.0854 30.3039 23.0349 30.8331 22.5647 30.8235Z" fill="black"/>
<path d="M19.4046 43.2049C19.3281 43.2047 19.2528 43.187 19.1841 43.1533C19.1155 43.1196 19.0554 43.0708 19.0085 43.0104C18.9616 42.95 18.929 42.8797 18.9131 42.805C18.8974 42.7302 18.8989 42.6527 18.9174 42.5786L19.1804 41.5467C19.1954 41.4814 19.2233 41.4199 19.2625 41.3657C19.3018 41.3115 19.3514 41.2657 19.4085 41.2309C19.4656 41.1961 19.5291 41.1732 19.5953 41.1632C19.6614 41.1534 19.7289 41.1568 19.7938 41.1733C19.8585 41.1898 19.9194 41.2191 19.9727 41.2595C20.026 41.2998 20.0708 41.3505 20.1043 41.4084C20.1378 41.4663 20.1594 41.5303 20.1678 41.5966C20.1763 41.663 20.1713 41.7303 20.1534 41.7948L19.8905 42.8267C19.863 42.9347 19.8003 43.0305 19.7123 43.099C19.6244 43.1674 19.516 43.2047 19.4046 43.2049Z" fill="black"/>
<path d="M20.1956 40.1092C20.1192 40.1088 20.0437 40.0912 19.9752 40.0574C19.9065 40.0237 19.8465 39.9748 19.7996 39.9145C19.7525 39.8541 19.72 39.7838 19.7042 39.709C19.6885 39.6342 19.6898 39.5567 19.7085 39.4826L19.9718 38.4509C20.0065 38.3236 20.0897 38.2152 20.2036 38.1488C20.3176 38.0825 20.453 38.0636 20.5807 38.0962C20.7085 38.1288 20.8183 38.2104 20.8864 38.3233C20.9546 38.4361 20.9756 38.5713 20.9449 38.6995L20.6816 39.7313C20.654 39.8393 20.5913 39.9351 20.5033 40.0034C20.4153 40.0719 20.3071 40.1091 20.1956 40.1092Z" fill="black"/>
<path d="M20.9866 37.0141C20.9102 37.0139 20.8348 36.9963 20.7662 36.9626C20.6975 36.9289 20.6374 36.88 20.5905 36.8197C20.5435 36.7594 20.511 36.6891 20.4952 36.6143C20.4795 36.5394 20.4809 36.462 20.4995 36.3879L20.7623 35.3559C20.7774 35.2908 20.8054 35.2294 20.8446 35.1751C20.8838 35.1209 20.9334 35.0752 20.9905 35.0405C21.0476 35.0056 21.1112 34.9827 21.1773 34.9729C21.2434 34.9629 21.3109 34.9663 21.3757 34.9828C21.4404 34.9994 21.5013 35.0287 21.5546 35.0691C21.6079 35.1094 21.6527 35.16 21.6862 35.2179C21.7196 35.2758 21.7413 35.3397 21.7498 35.406C21.7582 35.4724 21.7533 35.5398 21.7354 35.6041L21.4726 36.636C21.445 36.744 21.3823 36.8398 21.2943 36.9083C21.2063 36.9768 21.0981 37.014 20.9866 37.0141Z" fill="black"/>
<path d="M21.7757 33.9186C21.6992 33.9184 21.6238 33.9007 21.5552 33.867C21.4866 33.8332 21.4266 33.7844 21.3796 33.724C21.3327 33.6636 21.3 33.5933 21.2843 33.5186C21.2685 33.4438 21.2699 33.3663 21.2886 33.2922L21.5519 32.2605C21.5865 32.1332 21.6698 32.0248 21.7837 31.9583C21.8977 31.892 22.0331 31.8732 22.1608 31.9057C22.2886 31.9384 22.3984 32.02 22.4665 32.1329C22.5346 32.2457 22.5556 32.3809 22.525 32.5092L22.2617 33.5409C22.2342 33.6489 22.1714 33.7447 22.0835 33.8131C21.9954 33.8815 21.8872 33.9186 21.7757 33.9186Z" fill="black"/>
<path d="M18.7562 45.7561C18.6797 45.7559 18.6042 45.7382 18.5357 45.7045C18.4671 45.6708 18.407 45.6219 18.3601 45.5615C18.3131 45.5012 18.2806 45.4309 18.2647 45.3562C18.249 45.2814 18.2505 45.2039 18.269 45.1298L18.3931 44.6432C18.4283 44.5168 18.5117 44.4092 18.6252 44.3434C18.7389 44.2777 18.8738 44.259 19.001 44.2915C19.1282 44.3239 19.2376 44.4048 19.3059 44.517C19.3742 44.6291 19.3958 44.7635 19.3661 44.8915C19.2769 45.2367 19.2263 45.7655 18.7562 45.7561Z" fill="black"/>
<path d="M24.7778 32.0873C24.7047 32.0871 24.6325 32.071 24.5661 32.0401C24.4998 32.0091 24.4411 31.9642 24.394 31.9083C24.3468 31.8524 24.3124 31.7868 24.2931 31.7163C24.274 31.6457 24.2702 31.5718 24.2824 31.4997L24.3678 31.0049C24.392 30.875 24.4664 30.7601 24.5747 30.6846C24.6831 30.6093 24.8169 30.5796 24.9469 30.602C25.077 30.6245 25.193 30.6973 25.2699 30.8046C25.3468 30.9119 25.3783 31.0452 25.3576 31.1755C25.2934 31.5473 25.283 32.0851 24.7778 32.0873Z" fill="black"/>
<path d="M22.8209 43.3782C22.7477 43.378 22.6755 43.3619 22.6091 43.3309C22.5429 43.3001 22.4841 43.2551 22.437 43.1991C22.3898 43.1432 22.3554 43.0778 22.3361 43.0071C22.3169 42.9365 22.3132 42.8627 22.3254 42.7906L22.4883 41.8496C22.4992 41.7843 22.5229 41.7218 22.558 41.6657C22.5932 41.6096 22.6391 41.561 22.6931 41.5227C22.747 41.4844 22.8081 41.4572 22.8727 41.4425C22.9372 41.428 23.0041 41.4263 23.0692 41.4375C23.1345 41.4488 23.1968 41.4729 23.2528 41.5083C23.3087 41.5438 23.357 41.59 23.3949 41.6442C23.433 41.6984 23.4599 41.7596 23.4741 41.8242C23.4884 41.8888 23.4897 41.9556 23.4781 42.0208L23.3152 42.9617C23.295 43.0782 23.2343 43.1838 23.1439 43.26C23.0535 43.3362 22.939 43.3781 22.8209 43.3782Z" fill="black"/>
<path d="M23.311 40.5556C23.2379 40.5555 23.1656 40.5393 23.0994 40.5084C23.0331 40.4775 22.9743 40.4326 22.9272 40.3766C22.8801 40.3207 22.8457 40.2551 22.8264 40.1846C22.8071 40.114 22.8034 40.0401 22.8157 39.968L22.9785 39.027C22.9893 38.9616 23.0129 38.899 23.0481 38.8429C23.0832 38.7868 23.1291 38.7381 23.1831 38.6996C23.2371 38.6613 23.2981 38.634 23.3627 38.6194C23.4273 38.6047 23.4943 38.603 23.5596 38.6143C23.6248 38.6255 23.6873 38.6496 23.7432 38.6852C23.7991 38.7206 23.8474 38.7668 23.8854 38.8211C23.9234 38.8755 23.9503 38.9366 23.9644 39.0014C23.9787 39.0661 23.98 39.1329 23.9682 39.1982L23.8054 40.1391C23.7852 40.2557 23.7246 40.3613 23.6341 40.4375C23.5437 40.5137 23.4293 40.5555 23.311 40.5556Z" fill="black"/>
<path d="M23.7994 37.7331C23.7261 37.7329 23.6539 37.7168 23.5876 37.6859C23.5212 37.6549 23.4624 37.6099 23.4153 37.5539C23.3681 37.4979 23.3337 37.4324 23.3146 37.3618C23.2954 37.2912 23.2917 37.2172 23.304 37.145L23.4673 36.2041C23.4901 36.0728 23.564 35.9559 23.6729 35.8792C23.7818 35.8025 23.9168 35.7722 24.0481 35.795C24.1793 35.8177 24.2961 35.8918 24.3728 36.0006C24.4495 36.1096 24.4798 36.2445 24.457 36.3757L24.2937 37.3167C24.2735 37.4331 24.2127 37.5388 24.1223 37.6149C24.0319 37.691 23.9176 37.7329 23.7994 37.7331Z" fill="black"/>
<path d="M24.2876 34.9098C24.2144 34.9096 24.1422 34.8935 24.0759 34.8626C24.0095 34.8316 23.9507 34.7866 23.9036 34.7307C23.8564 34.6746 23.822 34.6091 23.8029 34.5385C23.7836 34.4679 23.78 34.3939 23.7923 34.3218L23.9555 33.3808C23.9784 33.2495 24.0523 33.1328 24.1613 33.056C24.2701 32.9793 24.405 32.949 24.5363 32.9717C24.6675 32.9945 24.7844 33.0685 24.8611 33.1774C24.9378 33.2863 24.9682 33.4212 24.9453 33.5524L24.782 34.4935C24.7617 34.6099 24.701 34.7155 24.6106 34.7916C24.5202 34.8678 24.4059 34.9096 24.2876 34.9098Z" fill="black"/>
<path d="M22.4088 45.7552C22.3356 45.7551 22.2633 45.739 22.1969 45.708C22.1306 45.6771 22.0718 45.632 22.0247 45.5761C21.9775 45.5202 21.9431 45.4545 21.9239 45.3839C21.9047 45.3133 21.9011 45.2394 21.9134 45.1671L21.9993 44.6724C22.022 44.5411 22.0959 44.4242 22.2049 44.3475C22.3137 44.2708 22.4486 44.2405 22.5799 44.2633C22.7111 44.286 22.828 44.36 22.9047 44.4689C22.9814 44.5777 23.0118 44.7127 22.9889 44.844C22.9244 45.2157 22.9139 45.7532 22.4088 45.7552Z" fill="black"/>
</svg>
