<svg width="35" height="35" viewBox="0 0 35 35" fill="none" xmlns="http://www.w3.org/2000/svg">
<rect width="34.71" height="34.71" rx="6" fill="white"/>
<path d="M21.8045 6H18.0898L18.0145 21.7958C18.0229 22.3206 17.7937 23.5622 16.8098 24.3306C15.5799 25.2912 13.8481 25.1311 12.6935 23.877C11.539 22.623 11.7398 20.3016 13.0449 19.1543C14.089 18.2364 15.3373 18.3805 15.8309 18.5673V14.4316C9.84729 14.2318 8.00005 18.4473 8 21.4223C7.99996 23.4768 8.70275 28.6531 15.354 29C20.4943 28.6158 21.7961 23.7881 21.8045 21.4223V13.7912C24.0132 15.3708 26.155 15.5878 27 15.4988V11.4698C22.703 11.2564 21.7794 7.73434 21.8045 6Z" fill="black"/>
</svg>
