<svg width="56" height="56" viewBox="0 0 56 56" fill="none" xmlns="http://www.w3.org/2000/svg">
<path d="M28 0.000244141C12.5692 0.000244141 0 12.5694 0 28.0002C0 43.4311 12.5692 56.0002 28 56.0002C43.4308 56.0002 56 43.4311 56 28.0002C56 12.5694 43.4308 0.000244141 28 0.000244141ZM28 5.60024C40.4043 5.60024 50.4 15.5959 50.4 28.0002C50.4 40.4046 40.4043 50.4002 28 50.4002C15.5957 50.4002 5.6 40.4046 5.6 28.0002C5.6 15.5959 15.5957 5.60024 28 5.60024ZM22.4 18.2987V37.7018L39.2 28.0002L22.4 18.2987Z" fill="white"/>
</svg>
