<svg xmlns="http://www.w3.org/2000/svg" width="41" height="41" viewBox="0 0 41 41" fill="none">
  <path d="M20.4774 0.0576172C9.2612 0.0576172 0.125 9.13905 0.125 20.288C0.125 31.437 9.2612 40.5185 20.4774 40.5185C31.6936 40.5185 40.8298 31.437 40.8298 20.288C40.8298 9.13905 31.6936 0.0576172 20.4774 0.0576172ZM20.4774 4.1037C29.4938 4.1037 36.7594 11.3257 36.7594 20.288C36.7594 29.2504 29.4938 36.4724 20.4774 36.4724C11.4611 36.4724 4.19548 29.2504 4.19548 20.288C4.19548 11.3257 11.4611 4.1037 20.4774 4.1037ZM16.4069 13.2785V27.2976L28.6184 20.288L16.4069 13.2785Z" fill="white"/>
</svg>