<svg width="30" height="29" viewBox="0 0 30 29" fill="none" xmlns="http://www.w3.org/2000/svg">
<path d="M14.9377 0.332031C7.15708 0.332031 0.819336 6.63179 0.819336 14.3658C0.819336 22.0998 7.15708 28.3996 14.9377 28.3996C22.7184 28.3996 29.0561 22.0998 29.0561 14.3658C29.0561 6.63179 22.7184 0.332031 14.9377 0.332031ZM14.9377 3.13879C21.1924 3.13879 26.2325 8.14867 26.2325 14.3658C26.2325 20.5829 21.1924 25.5928 14.9377 25.5928C8.68312 25.5928 3.64302 20.5829 3.64302 14.3658C3.64302 8.14867 8.68312 3.13879 14.9377 3.13879ZM12.1141 9.50333V19.2283L20.5851 14.3658L12.1141 9.50333Z" fill="white"/>
</svg>
