<svg xmlns="http://www.w3.org/2000/svg" width="28" height="28" viewBox="0 0 28 28" fill="none">
  <path d="M14.0361 0.923828C6.54404 0.923828 0.441406 6.98988 0.441406 14.437C0.441406 21.8841 6.54404 27.9501 14.0361 27.9501C21.5281 27.9501 27.6307 21.8841 27.6307 14.437C27.6307 6.98988 21.5281 0.923828 14.0361 0.923828ZM14.0361 3.62646C20.0586 3.62646 24.9118 8.45049 24.9118 14.437C24.9118 20.4235 20.0586 25.2475 14.0361 25.2475C8.01346 25.2475 3.16034 20.4235 3.16034 14.437C3.16034 8.45049 8.01346 3.62646 14.0361 3.62646ZM11.3171 9.75489V19.1191L19.4739 14.437L11.3171 9.75489Z" fill="white"/>
</svg>