<svg xmlns="http://www.w3.org/2000/svg" width="74" height="18" viewBox="0 0 74 18" fill="none">
  <path d="M19.9575 6.35938H27.3536V7.73625H24.4415V15.4979H22.8453V7.73625H19.9453L19.9575 6.35938ZM27.0368 8.88162H28.4015V10.161H28.4259C28.4746 9.97825 28.5599 9.80766 28.6818 9.63708C28.8036 9.46649 28.9499 9.30809 29.1326 9.17405C29.3032 9.02784 29.4982 8.91817 29.7175 8.83288C29.9246 8.74759 30.144 8.69885 30.3633 8.69885C30.5339 8.69885 30.6557 8.71103 30.7166 8.71103C30.7776 8.72322 30.8507 8.7354 30.9116 8.7354V10.1367C30.8141 10.1123 30.7045 10.1001 30.5948 10.0879C30.4851 10.0757 30.3877 10.0635 30.278 10.0635C30.0343 10.0635 29.8028 10.1123 29.5835 10.2098C29.3641 10.3072 29.1814 10.4535 29.0108 10.6362C28.8524 10.8312 28.7183 11.0627 28.6209 11.3429C28.5234 11.6232 28.4746 11.9522 28.4746 12.3177V15.4614H27.0125L27.0368 8.88162ZM37.6132 15.4979H36.1754V14.5719H36.1511C35.9683 14.9131 35.7002 15.169 35.3469 15.3761C34.9935 15.5832 34.628 15.6807 34.2624 15.6807C33.3973 15.6807 32.7637 15.4736 32.3738 15.0349C31.9839 14.6085 31.7889 13.9505 31.7889 13.0854V8.88162H33.2511V12.9391C33.2511 13.524 33.3607 13.9383 33.5923 14.1698C33.8116 14.4135 34.1284 14.5353 34.5305 14.5353C34.8351 14.5353 35.091 14.4866 35.2981 14.3891C35.5053 14.2917 35.6758 14.1698 35.7977 14.0114C35.9317 13.853 36.017 13.658 36.0779 13.4387C36.1389 13.2194 36.1632 12.9757 36.1632 12.7198V8.88162H37.6254V15.4979H37.6132ZM40.0989 13.3778C40.1477 13.8043 40.3061 14.0967 40.5863 14.2795C40.8666 14.4501 41.2077 14.5353 41.5976 14.5353C41.7317 14.5353 41.8901 14.5232 42.0607 14.4988C42.2312 14.4744 42.4018 14.4379 42.5481 14.3769C42.7065 14.316 42.8283 14.2307 42.9258 14.1089C43.0233 13.987 43.072 13.8408 43.0598 13.658C43.0476 13.4753 42.9867 13.3169 42.8527 13.195C42.7186 13.0732 42.5602 12.9879 42.3653 12.9026C42.1703 12.8295 41.9388 12.7686 41.6829 12.7198C41.4271 12.6711 41.1712 12.6102 40.9031 12.5492C40.635 12.4883 40.367 12.4152 40.1111 12.3299C39.8552 12.2446 39.6359 12.135 39.4288 11.9765C39.2338 11.8303 39.0632 11.6476 38.9535 11.4161C38.8317 11.1845 38.7708 10.9165 38.7708 10.5753C38.7708 10.2098 38.8561 9.91732 39.0388 9.67363C39.2094 9.42993 39.4409 9.23498 39.709 9.08876C39.9771 8.94254 40.2817 8.83288 40.6107 8.77196C40.9397 8.71103 41.2565 8.68666 41.5489 8.68666C41.8901 8.68666 42.2191 8.72322 42.5237 8.79633C42.8283 8.86944 43.1207 8.9791 43.3644 9.14969C43.6203 9.30809 43.8275 9.52741 43.9859 9.78329C44.1564 10.0392 44.2539 10.356 44.3027 10.7215H42.7796C42.7065 10.3682 42.5481 10.1367 42.3044 10.0148C42.0485 9.89296 41.7682 9.83203 41.4392 9.83203C41.3418 9.83203 41.2077 9.84422 41.0737 9.8564C40.9275 9.88077 40.8056 9.90514 40.6716 9.95388C40.5498 10.0026 40.4401 10.0757 40.3548 10.161C40.2695 10.2463 40.2208 10.3682 40.2208 10.5144C40.2208 10.6971 40.2817 10.8312 40.4035 10.9408C40.5254 11.0505 40.6838 11.1358 40.8909 11.2211C41.0859 11.2942 41.3174 11.3551 41.5733 11.4039C41.8292 11.4526 42.0972 11.5135 42.3653 11.5745C42.6333 11.6354 42.8892 11.7085 43.1451 11.7938C43.401 11.8791 43.6325 11.9887 43.8275 12.1471C44.0224 12.2934 44.193 12.4761 44.3148 12.6955C44.4367 12.9148 44.4976 13.195 44.4976 13.5118C44.4976 13.9017 44.4123 14.2307 44.2295 14.511C44.0468 14.779 43.8153 15.0106 43.535 15.1811C43.2548 15.3517 42.9258 15.4736 42.5846 15.5589C42.2312 15.632 41.8901 15.6807 41.5489 15.6807C41.1346 15.6807 40.7447 15.632 40.3913 15.5345C40.038 15.437 39.7212 15.2908 39.4653 15.108C39.2094 14.9131 39.0023 14.6816 38.8561 14.3891C38.7099 14.1089 38.6246 13.7677 38.6124 13.3656H40.0867V13.3778H40.0989ZM44.9119 8.88162H46.0207V6.88332H47.4829V8.86943H48.7988V9.95388H47.4829V13.4875C47.4829 13.6459 47.4951 13.7677 47.5073 13.8896C47.5194 13.9992 47.556 14.0967 47.5925 14.1698C47.6413 14.2429 47.7144 14.3038 47.7997 14.3404C47.8972 14.377 48.019 14.4013 48.1896 14.4013C48.2871 14.4013 48.3967 14.4013 48.4942 14.3891C48.5917 14.377 48.7014 14.3648 48.7988 14.3404V15.4736C48.6404 15.4979 48.482 15.5101 48.3236 15.5223C48.1652 15.5467 48.019 15.5467 47.8484 15.5467C47.4585 15.5467 47.1539 15.5101 46.9224 15.437C46.6909 15.3639 46.5081 15.2543 46.3741 15.1202C46.24 14.974 46.1547 14.8034 46.106 14.5963C46.0573 14.3891 46.0329 14.1333 46.0207 13.8652V9.96606H44.9119V8.85725V8.88162ZM49.8224 8.88162H51.1992V9.78329H51.2236C51.4307 9.39338 51.711 9.12532 52.0765 8.95473C52.4421 8.78414 52.832 8.69885 53.2706 8.69885C53.7946 8.69885 54.2454 8.78414 54.6353 8.9791C55.0253 9.16187 55.3421 9.40556 55.5979 9.73455C55.8538 10.0514 56.0488 10.4291 56.1706 10.8556C56.2925 11.282 56.3656 11.745 56.3656 12.2202C56.3656 12.6711 56.3047 13.0975 56.195 13.5118C56.0731 13.9261 55.9026 14.3038 55.671 14.6206C55.4395 14.9374 55.1471 15.1933 54.7816 15.3883C54.416 15.5832 54.0017 15.6807 53.5143 15.6807C53.3072 15.6807 53.0879 15.6564 52.8807 15.6198C52.6736 15.5832 52.4664 15.5223 52.2715 15.437C52.0765 15.3517 51.8938 15.2421 51.7354 15.108C51.5648 14.974 51.4307 14.8156 51.3211 14.645H51.2967V17.9471H49.8345V8.88162H49.8224ZM54.9278 12.1959C54.9278 11.9034 54.8912 11.611 54.8059 11.3308C54.7328 11.0505 54.611 10.8068 54.4526 10.5875C54.2942 10.3682 54.0992 10.1976 53.8799 10.0635C53.6484 9.92951 53.3803 9.86859 53.0879 9.86859C52.4786 9.86859 52.0156 10.0757 51.6988 10.5022C51.3942 10.9287 51.2358 11.5013 51.2358 12.2081C51.2358 12.5492 51.2723 12.8539 51.3576 13.1341C51.4429 13.4144 51.5526 13.658 51.7232 13.8652C51.8816 14.0723 52.0765 14.2307 52.3081 14.3526C52.5396 14.4744 52.7954 14.5353 53.1001 14.5353C53.4412 14.5353 53.7093 14.4622 53.9408 14.3282C54.1723 14.1942 54.3551 14.0114 54.5135 13.8043C54.6597 13.5849 54.7694 13.3412 54.8303 13.061C54.8912 12.7686 54.9278 12.4883 54.9278 12.1959ZM57.4988 6.35938H58.9609V7.73625H57.4988V6.35938ZM57.4988 8.88162H58.9609V15.4979H57.4988V8.88162ZM60.2647 6.35938H61.7269V15.4979H60.2647V6.35938ZM66.1865 15.6807C65.6626 15.6807 65.1873 15.5954 64.7731 15.4127C64.3588 15.2299 64.0176 14.9984 63.7252 14.6938C63.4449 14.3891 63.2256 14.0114 63.0794 13.5849C62.9332 13.1585 62.8479 12.6833 62.8479 12.1837C62.8479 11.6841 62.921 11.2211 63.0794 10.7946C63.2256 10.3682 63.4449 10.0026 63.7252 9.68581C64.0054 9.3812 64.3588 9.1375 64.7731 8.96691C65.1873 8.79633 65.6626 8.69885 66.1865 8.69885C66.7104 8.69885 67.1856 8.78414 67.5999 8.96691C68.0142 9.1375 68.3554 9.3812 68.6478 9.68581C68.9281 9.99043 69.1474 10.3682 69.2936 10.7946C69.4398 11.2211 69.5251 11.6841 69.5251 12.1837C69.5251 12.6955 69.452 13.1585 69.2936 13.5849C69.1352 14.0114 68.9281 14.377 68.6478 14.6938C68.3676 14.9984 68.0142 15.2421 67.5999 15.4127C67.1856 15.5832 66.7226 15.6807 66.1865 15.6807ZM66.1865 14.5232C66.5033 14.5232 66.7957 14.4501 67.0272 14.316C67.2709 14.182 67.4537 13.9992 67.6121 13.7799C67.7705 13.5606 67.8802 13.3047 67.9533 13.0366C68.0264 12.7564 68.063 12.4761 68.063 12.1837C68.063 11.9034 68.0264 11.6232 67.9533 11.3429C67.8802 11.0627 67.7705 10.819 67.6121 10.5997C67.4537 10.3803 67.2588 10.2098 67.0272 10.0757C66.7836 9.9417 66.5033 9.86859 66.1865 9.86859C65.8697 9.86859 65.5773 9.9417 65.3458 10.0757C65.1021 10.2098 64.9193 10.3925 64.7609 10.5997C64.6025 10.819 64.4928 11.0627 64.4197 11.3429C64.3466 11.6232 64.31 11.9034 64.31 12.1837C64.31 12.4761 64.3466 12.7564 64.4197 13.0366C64.4928 13.3169 64.6025 13.5606 64.7609 13.7799C64.9193 13.9992 65.1142 14.182 65.3458 14.316C65.5894 14.4622 65.8697 14.5232 66.1865 14.5232ZM69.9638 8.88162H71.0726V6.88332H72.5348V8.86943H73.8507V9.95388H72.5348V13.4875C72.5348 13.6459 72.5469 13.7677 72.5591 13.8896C72.5713 13.9992 72.6079 14.0967 72.6444 14.1698C72.6932 14.2429 72.7663 14.3038 72.8516 14.3404C72.949 14.377 73.0709 14.4013 73.2415 14.4013C73.339 14.4013 73.4486 14.4013 73.5461 14.3891C73.6436 14.377 73.7532 14.3648 73.8507 14.3404V15.4736C73.6923 15.4979 73.5339 15.5101 73.3755 15.5223C73.2171 15.5467 73.0709 15.5467 72.9003 15.5467C72.5104 15.5467 72.2058 15.5101 71.9743 15.437C71.7427 15.3639 71.56 15.2543 71.4259 15.1202C71.2919 14.974 71.2066 14.8034 71.1579 14.5963C71.1091 14.3891 71.0848 14.1333 71.0726 13.8652V9.96606H69.9638V8.85725V8.88162Z" fill="black"/>
  <path d="M18.2556 6.36045H11.5662L9.50694 0L7.43553 6.36045L0.746094 6.34826L6.15613 10.2839L4.08472 16.6444L9.49476 12.7087L14.9048 16.6444L12.8456 10.2839L18.2556 6.36045Z" fill="#00B67A"/>
  <path d="M13.3056 11.723L12.8425 10.2852L9.50391 12.7099L13.3056 11.723Z" fill="#005128"/>
</svg>