<svg xmlns="http://www.w3.org/2000/svg" width="87" height="18" viewBox="0 0 87 18" fill="none">
  <g clip-path="url(#clip0_24674_4126)">
    <path d="M16.45 0.873535H0.25V17.0735H16.45V0.873535Z" fill="#00B67A"/>
    <path d="M33.9969 0.873535H17.7969V17.0735H33.9969V0.873535Z" fill="#00B67A"/>
    <path d="M51.5516 0.873535H35.3516V17.0735H51.5516V0.873535Z" fill="#00B67A"/>
    <path d="M69.0984 0.873535H52.8984V17.0735H69.0984V0.873535Z" fill="#00B67A"/>
    <path d="M86.6531 0.873535H70.4531V17.0735H86.6531V0.873535Z" fill="#DCDCE6"/>
    <path d="M8.34969 11.7923L10.8134 11.1679L11.8428 14.3404L8.34969 11.7923ZM14.0197 7.69166H9.68281L8.34969 3.60791L7.01656 7.69166H2.67969L6.18969 10.2229L4.85656 14.3067L8.36656 11.7754L10.5266 10.2229L14.0197 7.69166Z" fill="white"/>
    <path d="M25.8966 11.7923L28.3603 11.1679L29.3897 14.3404L25.8966 11.7923ZM31.5666 7.69166H27.2297L25.8966 3.60791L24.5634 7.69166H20.2266L23.7366 10.2229L22.4034 14.3067L25.9134 11.7754L28.0734 10.2229L31.5666 7.69166Z" fill="white"/>
    <path d="M43.4513 11.7923L45.915 11.1679L46.9444 14.3404L43.4513 11.7923ZM49.1213 7.69166H44.7844L43.4513 3.60791L42.1181 7.69166H37.7812L41.2913 10.2229L39.9581 14.3067L43.4681 11.7754L45.6281 10.2229L49.1213 7.69166Z" fill="white"/>
    <path d="M60.9981 11.7923L63.4619 11.1679L64.4913 14.3404L60.9981 11.7923ZM66.6681 7.69166H62.3313L60.9981 3.60791L59.665 7.69166H55.3281L58.8381 10.2229L57.505 14.3067L61.015 11.7754L63.175 10.2229L66.6681 7.69166Z" fill="white"/>
    <path d="M78.5528 11.7923L81.0166 11.1679L82.0459 14.3404L78.5528 11.7923ZM84.2228 7.69166H79.8859L78.5528 3.60791L77.2197 7.69166H72.8828L76.3928 10.2229L75.0597 14.3067L78.5697 11.7754L80.7297 10.2229L84.2228 7.69166Z" fill="white"/>
  </g>
  <defs>
    <clipPath id="clip0_24674_4126">
      <rect width="86.4" height="16.2" fill="white" transform="translate(0.25 0.873535)"/>
    </clipPath>
  </defs>
</svg>