<svg width="36" height="36" viewBox="0 0 36 36" fill="none" xmlns="http://www.w3.org/2000/svg">
<g id="fi_7171353" clip-path="url(#clip0_28547_703)">
<g id="Group">
<path id="Vector" d="M30.3749 5.82188C27.0696 2.51663 22.6749 0.696289 18.0005 0.696289C13.7191 0.696289 9.598 2.25967 6.39619 5.09836C6.18434 5.28621 6.16486 5.61023 6.35271 5.82208C6.54056 6.03399 6.86452 6.05348 7.07643 5.86556C10.0905 3.19339 13.9701 1.72168 18.0005 1.72168C27.0846 1.72168 34.4751 9.11215 34.4751 18.1963C34.4751 27.2804 27.0846 34.6709 18.0005 34.6709C13.9701 34.6709 10.0905 33.1992 7.07643 30.527C6.86445 30.339 6.54049 30.3586 6.35271 30.5704C6.16486 30.7823 6.18434 31.1063 6.39619 31.2941C9.598 34.1329 13.7191 35.6963 18.0005 35.6963C22.6749 35.6963 27.0696 33.8759 30.3749 30.5707C33.6801 27.2653 35.5005 22.8707 35.5005 18.1963C35.5005 13.5219 33.6801 9.12726 30.3749 5.82188Z" fill="black"/>
<path id="Vector_2" d="M1.52539 18.1963C1.52539 14.1659 2.9971 10.2863 5.6694 7.27226C5.85726 7.06034 5.83777 6.73639 5.62593 6.54854C5.41401 6.36062 5.08992 6.38017 4.90221 6.59201C2.06338 9.79376 0.5 13.9149 0.5 18.1963C0.5 22.4776 2.06338 26.5988 4.90214 29.8006C5.00345 29.9149 5.14434 29.9731 5.28598 29.9731C5.4069 29.9731 5.52831 29.9306 5.62593 29.844C5.83784 29.6562 5.85726 29.3322 5.6694 29.1203C2.9971 26.1063 1.52539 22.2267 1.52539 18.1963Z" fill="black"/>
<path id="Vector_3" d="M13.8984 18.1963C13.8984 20.4579 15.7384 22.2979 18 22.2979C20.2616 22.2979 22.1016 20.4579 22.1016 18.1963C22.1016 15.9347 20.2616 14.0947 18 14.0947C15.7384 14.0947 13.8984 15.9347 13.8984 18.1963ZM18 15.1201C19.6962 15.1201 21.0762 16.5001 21.0762 18.1963C21.0762 19.8925 19.6962 21.2725 18 21.2725C16.3038 21.2725 14.9238 19.8925 14.9238 18.1963C14.9238 16.5001 16.3038 15.1201 18 15.1201Z" fill="black"/>
<path id="Vector_4" d="M15.6474 12.517C15.3878 12.6245 15.0891 12.5008 14.9816 12.2413L12.2606 5.67579C12.0898 5.26372 11.749 4.94701 11.3254 4.80701C10.9 4.66633 10.4352 4.71787 10.0501 4.94831C7.88286 6.24516 6.05001 8.07897 4.74954 10.2516C4.52006 10.6351 4.46886 11.0983 4.60913 11.5225C4.74934 11.9466 5.06639 12.2879 5.47907 12.4588C5.47907 12.4588 11.1494 14.807 12.0453 15.1784C12.3046 15.2858 12.4281 15.5844 12.3205 15.8439C12.213 16.1035 11.9144 16.2271 11.6549 16.1197L5.08895 13.4016C4.67619 13.2307 4.21053 13.2478 3.81145 13.4487C3.41236 13.6496 3.12102 14.0132 3.01232 14.4466C2.39593 16.9025 2.39565 19.4953 3.01137 21.9446C3.12081 22.38 3.41318 22.7451 3.8135 22.9464C4.21189 23.1468 4.67674 23.1638 5.08874 22.9931C5.08874 22.9931 10.7613 20.643 11.6555 20.2729C11.9148 20.1655 12.2132 20.2895 12.3207 20.5489C12.4282 20.8085 12.3046 21.1072 12.045 21.2147L5.47955 23.9357C5.06748 24.1064 4.75077 24.4473 4.61077 24.8708C4.47009 25.2962 4.52163 25.7611 4.75207 26.1462C6.04892 28.3134 7.88272 30.1463 10.0554 31.4468C10.4388 31.6763 10.9021 31.7275 11.3263 31.5872C11.7504 31.447 12.0916 31.13 12.2625 30.7173C12.2625 30.7173 14.6068 25.0564 14.9821 24.151C15.0896 23.8918 15.3881 23.7683 15.6477 23.8758C15.9072 23.9833 16.0309 24.2819 15.9235 24.5415L13.2053 31.1073C13.0344 31.5201 13.0516 31.9857 13.2524 32.3848C13.4533 32.7839 13.8169 33.0753 14.2503 33.1839C15.479 33.4923 16.7416 33.6465 18.0037 33.6465C19.2642 33.6465 20.5244 33.4926 21.7483 33.1849C22.1836 33.0755 22.5488 32.7831 22.7501 32.3828C22.9504 31.9844 22.9674 31.5195 22.7967 31.1075C22.7967 31.1075 20.4451 25.4313 20.0765 24.5408C19.9692 24.2815 20.093 23.9831 20.3526 23.8756C20.612 23.7681 20.9108 23.8917 21.0183 24.1513L23.7393 30.7167C23.9101 31.1288 24.2509 31.4455 24.6745 31.5855C25.0997 31.7261 25.5646 31.6746 25.9498 31.4442C28.1169 30.1474 29.9499 28.3135 31.2504 26.1409C31.4798 25.7575 31.531 25.2943 31.3908 24.8701C31.2506 24.446 30.9335 24.1047 30.5208 23.9338C30.5208 23.9338 24.852 21.5862 23.9545 21.2142C23.6953 21.1067 23.5718 20.8082 23.6793 20.5486C23.7869 20.2891 24.0855 20.1652 24.345 20.2728L30.911 22.991C31.3236 23.1618 31.7894 23.1448 32.1885 22.9438C32.5877 22.743 32.8789 22.3793 32.9876 21.946C33.604 19.4902 33.6043 16.8975 32.9886 14.4479C32.8791 14.0126 32.5868 13.6475 32.1865 13.4461C31.7882 13.2458 31.3234 13.2288 30.9112 13.3994C30.9112 13.3994 25.2505 15.7446 24.3445 16.1197C24.085 16.2271 23.7868 16.1031 23.6793 15.8436C23.5718 15.5841 23.6955 15.2854 23.955 15.1779L30.5205 12.4568C30.9326 12.286 31.2493 11.9452 31.3893 11.5216C31.5299 11.0962 31.4784 10.6314 31.248 10.2464C29.9512 8.07924 28.1174 6.24632 25.9447 4.94578C25.5614 4.7163 25.098 4.66503 24.6738 4.80537C24.2497 4.94565 23.9085 5.2627 23.7377 5.67531C23.7377 5.67531 21.3817 11.364 21.018 12.2416C20.9106 12.5009 20.612 12.6244 20.3524 12.5168C20.0929 12.4093 19.9692 12.1107 20.0767 11.8511L22.7947 5.28525C22.9656 4.8725 22.9484 4.40684 22.7476 4.00776C22.5468 3.60867 22.1831 3.31739 21.7498 3.2087C19.2938 2.59237 16.7012 2.59203 14.2517 3.20775C13.8163 3.31719 13.4512 3.60956 13.2499 4.00987C13.0495 4.40827 13.0325 4.87312 13.2032 5.28512C13.2032 5.28512 15.5533 10.9577 15.9234 11.8519C16.0308 12.1111 15.907 12.4095 15.6474 12.517ZM5.1152 21.8722L4.69643 22.0457C4.558 22.103 4.40802 22.0975 4.27417 22.0302C4.13841 21.9619 4.04318 21.8427 4.00586 21.6945C3.43123 19.4086 3.43157 16.9886 4.00688 14.6961C4.04353 14.5501 4.13786 14.4324 4.27239 14.3646C4.40699 14.2969 4.55766 14.2913 4.69677 14.349L5.11567 14.5224C4.42333 16.9391 4.42313 19.4611 5.1152 21.8722ZM6.06915 21.477C5.47278 19.3231 5.47299 17.0765 6.06977 14.9174L7.02461 15.3126C6.52388 17.2103 6.52395 19.1864 7.02481 21.081L6.06915 21.477ZM8.94188 20.2869C8.63194 20.4152 8.31079 20.5483 7.98301 20.6842C7.57395 19.0478 7.57388 17.3486 7.98294 15.7095L8.94202 16.1065C8.62326 17.4837 8.62319 18.9119 8.94188 20.2869ZM10.869 19.4886C10.5764 19.6098 10.2518 19.7442 9.90274 19.8888C9.66848 18.7734 9.66855 17.6217 9.90295 16.5043L10.8698 16.9046C10.7151 17.7582 10.7148 18.6373 10.869 19.4886ZM30.8848 14.5203L31.3036 14.3468C31.442 14.2896 31.592 14.295 31.7259 14.3623C31.8616 14.4306 31.957 14.5498 31.9942 14.698C32.5689 16.984 32.5685 19.4041 31.9931 21.6964C31.9565 21.8424 31.8622 21.9602 31.7276 22.0279C31.5932 22.0956 31.4424 22.1012 31.3033 22.0436L30.8843 21.8701C31.5766 19.4535 31.5768 16.9315 30.8848 14.5203ZM29.9308 14.9156C30.5272 17.0695 30.527 19.3161 29.9302 21.4752L28.9753 21.0799C29.476 19.1822 29.4759 17.206 28.9751 15.3115L29.9308 14.9156ZM27.058 16.1057C27.368 15.9773 27.689 15.8443 28.017 15.7084C28.426 17.3447 28.426 19.044 28.017 20.6831L27.0579 20.286C27.3767 18.9088 27.3767 17.4806 27.058 16.1057ZM25.1309 16.904C25.4234 16.7828 25.7482 16.6483 26.0971 16.5038C26.3315 17.6192 26.3314 18.7709 26.0969 19.8883L25.1301 19.488C25.2849 18.6344 25.2852 17.7552 25.1309 16.904ZM5.87159 11.5114C5.73262 11.4539 5.63001 11.3435 5.58277 11.2006C5.53547 11.0576 5.55208 10.9076 5.62946 10.7783C6.84339 8.75032 8.55415 7.0386 10.5767 5.8283C10.7077 5.74989 10.8593 5.73294 11.0037 5.78066C11.1461 5.82769 11.2561 5.92995 11.3135 6.06845L11.4869 6.48694C9.29277 7.70278 7.50982 9.48649 6.29084 11.6851L5.87159 11.5114ZM7.24479 12.0802C8.34928 10.1313 9.93747 8.54244 11.8822 7.44083L12.2784 8.39691C10.5848 9.38251 9.18757 10.7798 8.19991 12.4758L7.24479 12.0802ZM9.1579 12.8725C10.0276 11.4241 11.2291 10.2224 12.6753 9.35455L13.0726 10.3134C11.8752 11.0603 10.8653 12.0703 10.1169 13.2696C9.80697 13.1413 9.48582 13.0082 9.1579 12.8725ZM12.0447 14.0681C11.752 13.9469 11.4272 13.8123 11.0779 13.6676C11.7022 12.7116 12.5165 11.8972 13.4709 11.2742L13.8713 12.2403C13.1603 12.7331 12.5388 13.355 12.0447 14.0681ZM11.3151 30.3247C11.2576 30.4637 11.1472 30.5663 11.0043 30.6135C10.8613 30.6607 10.7113 30.6443 10.582 30.5668C8.55401 29.3529 6.84223 27.6421 5.63192 25.6195C5.55352 25.4885 5.53656 25.3368 5.58428 25.1926C5.63138 25.0502 5.73357 24.9402 5.87207 24.8828L6.29057 24.7094C7.50641 26.9034 9.29011 28.6864 11.4887 29.9054L11.3151 30.3247ZM11.8839 28.9515C9.93501 27.847 8.34613 26.2587 7.24452 24.3141L8.20053 23.9179C9.18613 25.6115 10.5834 27.0086 12.2795 27.9963L11.8839 28.9515ZM12.6762 27.0384C11.2278 26.1686 10.0261 24.9671 9.15831 23.521L10.1171 23.1236C10.8639 24.3211 11.874 25.3309 13.0733 26.0793C12.9449 26.3894 12.8119 26.7104 12.6762 27.0384ZM13.4713 25.1184C12.5154 24.494 11.7009 23.6798 11.0778 22.7254L12.044 22.3251C12.5368 23.036 13.1587 23.6575 13.8718 24.1516C13.7506 24.4442 13.616 24.7692 13.4713 25.1184ZM21.8492 31.4993C21.9067 31.6383 21.9012 31.7889 21.8336 31.9233C21.7659 32.0579 21.6482 32.1522 21.502 32.1889C19.2095 32.7646 16.7895 32.7652 14.5035 32.1909C14.3553 32.1537 14.2362 32.0584 14.1679 31.9227C14.1006 31.7887 14.095 31.6387 14.1524 31.5001L14.3257 31.0816C16.7368 31.7733 19.2589 31.7727 21.6755 31.0801L21.8492 31.4993ZM21.2803 30.1261C19.1212 30.7231 16.8746 30.7236 14.7206 30.1275L15.1165 29.1714C17.011 29.6721 18.987 29.6719 20.8846 29.171L21.2803 30.1261ZM20.0904 27.254C20.2189 27.5641 20.3519 27.8851 20.4877 28.2131C18.8485 28.6223 17.1493 28.6223 15.5131 28.2134L15.9101 27.2544C17.2849 27.5731 18.7132 27.5729 20.0904 27.254ZM16.3079 26.2936L16.7079 25.3273C17.5592 25.4816 18.4384 25.4813 19.292 25.3264C19.4132 25.6192 19.5478 25.9441 19.6924 26.2933C18.575 26.5277 17.4233 26.5278 16.3079 26.2936ZM30.1284 24.8812C30.2674 24.9388 30.37 25.0492 30.4173 25.1921C30.4646 25.3351 30.4479 25.485 30.3706 25.6143C29.1566 27.6423 27.4458 29.3541 25.4233 30.5644C25.2922 30.6428 25.1406 30.6598 24.9964 30.6121C24.854 30.565 24.744 30.4628 24.6866 30.3243L24.5132 29.9058C26.7073 28.6899 28.4902 26.9062 29.7093 24.7076L30.1284 24.8812ZM28.7552 24.3124C27.6506 26.2613 26.0624 27.8502 24.1178 28.9517L23.7216 27.9957C25.4153 27.0101 26.8125 25.6128 27.8 23.9168L28.7552 24.3124ZM26.8421 23.5201C25.9724 24.9685 24.7709 26.1701 23.3247 27.038L22.9273 26.0792C24.1248 25.3323 25.1346 24.3222 25.883 23.123C26.193 23.2513 26.5141 23.3844 26.8421 23.5201ZM23.9552 22.3244C24.248 22.4457 24.5728 22.5803 24.9221 22.725C24.2977 23.6809 23.4834 24.4953 22.5291 25.1184L22.1287 24.1523C22.8397 23.6594 23.4612 23.0375 23.9552 22.3244ZM24.6849 6.06783C24.7425 5.92886 24.8528 5.82632 24.9957 5.77908C25.1388 5.73171 25.2887 5.74832 25.4181 5.8257C27.4461 7.0397 29.1578 8.75046 30.368 10.773C30.4464 10.9041 30.4634 11.0556 30.4157 11.1998C30.3687 11.3422 30.2664 11.4522 30.1279 11.5097L29.7093 11.6831C28.4935 9.48901 26.7099 7.70607 24.5112 6.48708L24.6849 6.06783ZM24.1162 7.4411C26.065 8.54559 27.6539 10.1338 28.7555 12.0785L27.7995 12.4747C26.814 10.7811 25.4166 9.38395 23.7206 8.39629L24.1162 7.4411ZM23.3238 9.35421C24.7722 10.2239 25.9738 11.4254 26.8417 12.8716L25.8829 13.2689C25.136 12.0715 24.126 11.0616 22.9267 10.3132C23.0551 10.0032 23.188 9.6822 23.3238 9.35421ZM22.5287 11.2742C23.4846 11.8985 24.299 12.7128 24.9221 13.6672L23.9559 14.0676C23.463 13.3566 22.8411 12.7351 22.1281 12.241C22.2495 11.9482 22.3839 11.6237 22.5287 11.2742ZM14.1505 4.89267C14.0932 4.75424 14.0986 4.60426 14.166 4.47041C14.2343 4.33465 14.3535 4.23942 14.5017 4.2021C16.7876 3.6274 19.2076 3.62781 21.5002 4.20313C21.6462 4.23977 21.7638 4.33403 21.8316 4.46857C21.8993 4.6031 21.9049 4.75383 21.8472 4.89294L21.6738 5.31185C19.2571 4.61943 16.7351 4.6193 14.324 5.3113L14.1505 4.89267ZM14.7193 6.26546C16.8733 5.66909 19.1198 5.6693 21.2789 6.26608L20.8836 7.22092C18.9859 6.72019 17.0097 6.72032 15.1152 7.22112L14.7193 6.26546ZM15.9095 9.13826C15.7811 8.82832 15.648 8.50717 15.5122 8.17932C17.1485 7.77019 18.8477 7.77019 20.4868 8.17925L20.0898 9.1384C18.7126 8.81957 17.2843 8.81957 15.9095 9.13826ZM19.692 10.0993L19.2918 11.0662C18.4382 10.9114 17.5591 10.9112 16.7077 11.0654C16.5866 10.7727 16.4521 10.4482 16.3075 10.0991C17.423 9.86472 18.5746 9.86485 19.692 10.0993ZM16.0398 13.4644C16.6258 13.2216 16.982 12.6556 16.9874 12.0581C17.6558 11.948 18.3423 11.9482 19.0125 12.059C19.0183 12.6561 19.3743 13.2217 19.9599 13.4642C20.5456 13.7069 21.1974 13.5587 21.6237 13.1406C22.1759 13.5362 22.6616 14.0214 23.0563 14.5719C22.6377 14.9982 22.4893 15.6502 22.732 16.2362C22.9746 16.8221 23.5407 17.1783 24.1382 17.1838C24.2483 17.8521 24.248 18.5386 24.1373 19.2089C23.5402 19.2148 22.9746 19.5707 22.7321 20.1563C22.4895 20.742 22.6376 21.3937 23.0558 21.8201C22.6602 22.3723 22.175 22.858 21.6245 23.2527C21.1982 22.8341 20.5462 22.6857 19.9602 22.9283C19.3742 23.1711 19.018 23.7372 19.0126 24.3346C18.3442 24.4447 17.6577 24.4444 16.9875 24.3337C16.9816 23.7365 16.6257 23.171 16.0401 22.9285C15.8486 22.8492 15.6501 22.8116 15.4546 22.8116C15.0524 22.8116 14.664 22.9714 14.3771 23.2527C13.8245 22.857 13.3386 22.3715 12.9438 21.8209C13.3624 21.3946 13.5108 20.7425 13.2681 20.1566C13.0254 19.5707 12.4593 19.2145 11.8619 19.2091C11.7517 18.5408 11.752 17.8542 11.8627 17.184C12.4599 17.1781 13.0254 16.8221 13.268 16.2366C13.5106 15.6509 13.3625 14.9991 12.9443 14.5728C13.34 14.0206 13.8252 13.5349 14.3756 13.1402C14.802 13.5586 15.454 13.707 16.0398 13.4644Z" fill="black"/>
</g>
</g>
<defs>
<clipPath id="clip0_28547_703">
<rect width="35" height="35" fill="white" transform="translate(0.5 0.696289)"/>
</clipPath>
</defs>
</svg>
