 <svg xmlns="http://www.w3.org/2000/svg" width="40" height="40"
                                            viewBox="0 0 44 36" fill="none">
                                            <g clip-path="url(#clip0_8589_8156)">
                                                <path fill-rule="evenodd" clip-rule="evenodd"
                                                    d="M17.3091 30.7887C18.638 31.4598 20.1394 31.838 21.7293 31.838H21.7371H21.7448C23.3348 31.838 24.8361 31.4598 26.1651 30.7887L26.1627 30.7817C29.3604 29.1615 31.5523 25.8442 31.5523 22.0143C31.5523 21.7852 31.543 21.5591 31.5282 21.3347H31.529C31.529 21.3347 31.5321 21.3114 31.5344 21.264L31.55 21.2609C31.5795 20.6488 31.4218 15.9809 21.7448 1.89844L21.7371 1.90931L21.7293 1.89844C12.0524 15.9809 11.8947 20.6488 11.9242 21.2609L11.9397 21.264C11.9421 21.3114 11.9452 21.3347 11.9452 21.3347H11.946C11.9304 21.5591 11.9219 21.7852 11.9219 22.0143C11.9219 25.8442 14.1137 29.1615 17.3114 30.7817L17.3091 30.7887Z"
                                                    fill="#FFFAF1" stroke="black" stroke-width="0.7"
                                                    stroke-miterlimit="2.61313" stroke-linecap="round"
                                                    stroke-linejoin="round" />
                                                <path
                                                    d="M21.5604 28.2064C18.0411 28.2064 15.1875 25.3527 15.1875 21.8335"
                                                    stroke="black" stroke-width="0.7" stroke-miterlimit="2.61313"
                                                    stroke-linecap="round" stroke-linejoin="round" />
                                                <path d="M36.5 17.5C35.1192 17.5 34 16.3804 34 15" stroke="black"
                                                    stroke-width="0.7" stroke-miterlimit="2.61313"
                                                    stroke-linecap="round" stroke-linejoin="round" />
                                                <path fill-rule="evenodd" clip-rule="evenodd"
                                                    d="M34.6466 18.4566C35.0525 18.676 35.5117 18.8 35.9975 18.8H36.0002H36.0029C36.4888 18.8 36.9479 18.676 37.3539 18.4566L37.3528 18.4543C38.3299 17.9241 38.9999 16.8381 38.9999 15.5845C38.9999 15.5095 38.9972 15.4356 38.9923 15.3622H38.9928C38.9928 15.3622 38.9939 15.3547 38.9945 15.339L38.9994 15.3378C39.0086 15.1376 38.9602 13.6093 36.0024 9L36.0002 9.00349L35.998 9C33.0402 13.6099 32.9918 15.1376 33.0011 15.3378L33.006 15.339C33.0065 15.3547 33.0076 15.3622 33.0076 15.3622C33.0027 15.4356 33 15.5101 33 15.5845C33 16.8381 33.67 17.9241 34.6471 18.4543L34.646 18.4566H34.6466Z"
                                                    stroke="black" stroke-width="0.7" stroke-miterlimit="2.61313"
                                                    stroke-linecap="round" stroke-linejoin="round" />
                                                <path
                                                    d="M8.37287 33.2142C7.14024 33.2142 6.14062 32.2146 6.14062 30.9819"
                                                    stroke="black" stroke-width="0.7" stroke-miterlimit="2.61313"
                                                    stroke-linecap="round" stroke-linejoin="round" />
                                                <path fill-rule="evenodd" clip-rule="evenodd"
                                                    d="M6.88506 34.1189C7.35031 34.3535 7.87613 34.4863 8.43381 34.4863H8.43691H8.44002C8.99692 34.4863 9.52275 34.3535 9.98799 34.1189L9.98722 34.1166C11.1072 33.5488 11.8754 32.3869 11.8754 31.0455C11.8754 30.9655 11.8723 30.8863 11.8668 30.8078C11.8668 30.8078 11.8684 30.8 11.8692 30.783L11.8746 30.7822C11.8847 30.5678 11.8296 28.9328 8.44002 24L8.43769 24.0039L8.43536 24C5.04583 28.9328 4.99068 30.5678 5.00078 30.7822L5.00621 30.783C5.00699 30.7993 5.00854 30.8078 5.00854 30.8078C5.00311 30.8863 5 30.9655 5 31.0455C5 32.3869 5.76816 33.5488 6.88817 34.1166L6.88739 34.1189H6.88506Z"
                                                    stroke="black" stroke-width="0.7" stroke-miterlimit="2.61313"
                                                    stroke-linecap="round" stroke-linejoin="round" />
                                                <path fill-rule="evenodd" clip-rule="evenodd"
                                                    d="M10.1308 17.4293C10.711 17.7221 11.3673 17.8875 12.0616 17.8875H12.0655H12.0694C12.7638 17.8875 13.4201 17.7221 14.0003 17.4293L13.9987 17.4261C15.3953 16.7186 16.3529 15.2692 16.3529 13.5962C16.3529 13.496 16.349 13.3974 16.3421 13.2995H16.3428C16.3428 13.2995 16.3444 13.2894 16.3452 13.2685L16.3522 13.2669C16.3654 12.9997 16.2962 10.9601 12.0686 4.80859L12.0655 4.81325L12.0624 4.80859C7.83482 10.9609 7.76569 12.9997 7.7789 13.2669L7.78589 13.2685C7.78666 13.2894 7.78822 13.2995 7.78822 13.2995C7.78123 13.3974 7.77734 13.4968 7.77734 13.5962C7.77734 15.2692 8.73502 16.7186 10.1315 17.4261L10.13 17.4293H10.1308Z"
                                                    fill="#FFFAF1" stroke="black" stroke-width="0.7"
                                                    stroke-miterlimit="2.61313" stroke-linecap="round"
                                                    stroke-linejoin="round" />
                                                <path
                                                    d="M11.9876 16.3013C10.4497 16.3013 9.20312 15.0547 9.20312 13.5176"
                                                    stroke="black" stroke-width="0.7" stroke-miterlimit="2.61313"
                                                    stroke-linecap="round" stroke-linejoin="round" />
                                                <path
                                                    d="M31.5845 30.778C33.3377 30.778 34.7589 29.3568 34.7589 27.6036C34.7589 25.8504 33.3377 24.4292 31.5845 24.4292C29.8314 24.4292 28.4102 25.8504 28.4102 27.6036C28.4102 29.3568 29.8314 30.778 31.5845 30.778Z"
                                                    fill="#FFFAF1" stroke="black" stroke-width="0.7"
                                                    stroke-miterlimit="2.61313" stroke-linecap="round"
                                                    stroke-linejoin="round" />
                                                <path
                                                    d="M3.82754 20.1892C5.21008 20.1892 6.33085 19.0685 6.33085 17.6859C6.33085 16.3034 5.21008 15.1826 3.82754 15.1826C2.44499 15.1826 1.32422 16.3034 1.32422 17.6859C1.32422 19.0685 2.44499 20.1892 3.82754 20.1892Z"
                                                    fill="#FFFAF1" stroke="black" stroke-width="0.7"
                                                    stroke-miterlimit="2.61313" stroke-linecap="round"
                                                    stroke-linejoin="round" />
                                                <path
                                                    d="M41.7477 19.572C42.5575 19.572 43.2141 18.9155 43.2141 18.1056C43.2141 17.2957 42.5575 16.6392 41.7477 16.6392C40.9378 16.6392 40.2812 17.2957 40.2812 18.1056C40.2812 18.9155 40.9378 19.572 41.7477 19.572Z"
                                                    fill="#FFFAF1" stroke="black" stroke-width="0.7"
                                                    stroke-miterlimit="2.61313" stroke-linecap="round"
                                                    stroke-linejoin="round" />
                                                <path
                                                    d="M27.6724 5.53029C28.8786 5.53029 29.8565 4.55244 29.8565 3.3462C29.8565 2.13996 28.8786 1.16211 27.6724 1.16211C26.4661 1.16211 25.4883 2.13996 25.4883 3.3462C25.4883 4.55244 26.4661 5.53029 27.6724 5.53029Z"
                                                    fill="#FFFAF1" stroke="black" stroke-width="0.7"
                                                    stroke-miterlimit="2.61313" stroke-linecap="round"
                                                    stroke-linejoin="round" />
                                                <path
                                                    d="M37.7047 29.758C38.5146 29.758 39.1711 29.1015 39.1711 28.2916C39.1711 27.4817 38.5146 26.8252 37.7047 26.8252C36.8948 26.8252 36.2383 27.4817 36.2383 28.2916C36.2383 29.1015 36.8948 29.758 37.7047 29.758Z"
                                                    fill="#FFFAF1" stroke="black" stroke-width="0.7"
                                                    stroke-miterlimit="2.61313" stroke-linecap="round"
                                                    stroke-linejoin="round" />
                                                <path
                                                    d="M14.1852 35.2878C14.995 35.2878 15.6516 34.6313 15.6516 33.8214C15.6516 33.0115 14.995 32.355 14.1852 32.355C13.3753 32.355 12.7188 33.0115 12.7188 33.8214C12.7188 34.6313 13.3753 35.2878 14.1852 35.2878Z"
                                                    fill="#FFFAF1" stroke="black" stroke-width="0.7"
                                                    stroke-miterlimit="2.61313" stroke-linecap="round"
                                                    stroke-linejoin="round" />
                                            </g>
                                            <defs>
                                                <clipPath id="clip0_8589_8156">
                                                    <rect width="44" height="36" fill="white" />
                                                </clipPath>
                                            </defs>
                                        </svg>