<svg xmlns="http://www.w3.org/2000/svg" width="40" height="40"
                                            viewBox="0 0 42 31" fill="none">
                                            <path d="M16.6641 1H33.3105L37.586 16.3481" stroke="black"
                                                stroke-width="0.7" stroke-miterlimit="2.61313" stroke-linecap="round"
                                                stroke-linejoin="round" />
                                            <path fill-rule="evenodd" clip-rule="evenodd"
                                                d="M37.5867 16.3481H5.21094C5.21094 16.3481 9.93147 8.1123 18.1885 8.1123H35.3428L37.5867 16.3481V16.3481Z"
                                                stroke="black" stroke-width="0.7" stroke-miterlimit="2.61313"
                                                stroke-linecap="round" stroke-linejoin="round" />
                                            <path fill-rule="evenodd" clip-rule="evenodd"
                                                d="M22.9288 6.01855H24.9857C26.137 6.01855 27.0794 6.96086 27.0794 8.11221H20.8359C20.8359 6.96086 21.7782 6.01855 22.9296 6.01855H22.9288Z"
                                                stroke="black" stroke-width="0.7" stroke-miterlimit="2.61313"
                                                stroke-linecap="round" stroke-linejoin="round" />
                                            <path d="M7.05859 13.8354H36.8867" stroke="black" stroke-width="0.7"
                                                stroke-miterlimit="2.61313" stroke-linecap="round"
                                                stroke-linejoin="round" />
                                            <path
                                                d="M2.34375 21.1323C2.83205 21.1323 3.22482 20.9037 3.73272 20.7053C4.19571 20.5175 4.57214 20.3133 5.03431 20.3133C5.5218 20.3133 5.84761 20.5656 6.34326 20.7984C7.4252 21.3071 7.7061 21.1585 8.74068 20.7396C9.24858 20.5411 9.64053 20.3125 10.1296 20.3125C10.618 20.3125 11.0107 20.5403 11.5186 20.7396C11.9816 20.9274 12.358 21.1315 12.8202 21.1315C13.2824 21.1315 13.6588 20.9274 14.1218 20.7396C14.6297 20.5411 15.0217 20.3125 15.5108 20.3125C15.9991 20.3125 16.3918 20.5403 16.8997 20.7396C17.3627 20.9274 17.7392 21.1315 18.2013 21.1315"
                                                stroke="black" stroke-width="0.7" stroke-miterlimit="2.61313"
                                                stroke-linecap="round" stroke-linejoin="round" />
                                            <path
                                                d="M18.2031 21.1323C18.6914 21.1323 19.0842 20.9037 19.5921 20.7053C20.0551 20.5175 20.4315 20.3133 20.8937 20.3133C21.3812 20.3133 21.707 20.5656 22.2026 20.7984C23.2846 21.3071 23.5655 21.1585 24.6001 20.7396C25.108 20.5411 25.4999 20.3125 25.989 20.3125C26.4773 20.3125 26.8701 20.5403 27.378 20.7396C27.841 20.9274 28.2174 21.1315 28.6796 21.1315C29.1418 21.1315 29.5182 20.9274 29.9812 20.7396C30.4891 20.5411 30.881 20.3125 31.3702 20.3125C31.8585 20.3125 32.2512 20.5403 32.7591 20.7396C33.2221 20.9274 33.5985 21.1315 34.0607 21.1315"
                                                stroke="black" stroke-width="0.7" stroke-miterlimit="2.61313"
                                                stroke-linecap="round" stroke-linejoin="round" />
                                            <path
                                                d="M34.0547 21.1325C34.543 21.1325 34.9358 20.9038 35.4437 20.7054C35.9066 20.5176 36.2831 20.3135 36.7453 20.3135C37.2327 20.3135 37.5585 20.5658 38.0542 20.7985C39.1361 21.3072 39.417 21.1586 40.4516 20.7397"
                                                stroke="black" stroke-width="0.7" stroke-miterlimit="2.61313"
                                                stroke-linecap="round" stroke-linejoin="round" />
                                            <path d="M1 11.9614L3.5542 12.6228" stroke="black" stroke-width="0.7"
                                                stroke-miterlimit="2.61313" stroke-linecap="round"
                                                stroke-linejoin="round" />
                                            <path d="M4.4375 5.88721L6.31804 7.73671" stroke="black" stroke-width="0.7"
                                                stroke-miterlimit="2.61313" stroke-linecap="round"
                                                stroke-linejoin="round" />
                                            <path d="M10.1211 2.85791L10.8258 5.39986" stroke="black" stroke-width="0.7"
                                                stroke-miterlimit="2.61313" stroke-linecap="round"
                                                stroke-linejoin="round" />
                                            <path d="M11.2344 24.9546V29.7764" stroke="black" stroke-width="0.7"
                                                stroke-miterlimit="2.61313" stroke-linecap="round"
                                                stroke-linejoin="round" />
                                            <path d="M9.80859 28.6953L11.2359 29.7764" stroke="black" stroke-width="0.7"
                                                stroke-miterlimit="2.61313" stroke-linecap="round"
                                                stroke-linejoin="round" />
                                            <path d="M12.6609 28.6953L11.2344 29.7764" stroke="black" stroke-width="0.7"
                                                stroke-miterlimit="2.61313" stroke-linecap="round"
                                                stroke-linejoin="round" />
                                            <path d="M18.0117 24.9546V29.7764" stroke="black" stroke-width="0.7"
                                                stroke-miterlimit="2.61313" stroke-linecap="round"
                                                stroke-linejoin="round" />
                                            <path d="M16.5859 28.6953L18.0125 29.7764" stroke="black" stroke-width="0.7"
                                                stroke-miterlimit="2.61313" stroke-linecap="round"
                                                stroke-linejoin="round" />
                                            <path d="M19.4391 28.6953L18.0117 29.7764" stroke="black" stroke-width="0.7"
                                                stroke-miterlimit="2.61313" stroke-linecap="round"
                                                stroke-linejoin="round" />
                                            <path d="M24.7891 24.9546V29.7764" stroke="black" stroke-width="0.7"
                                                stroke-miterlimit="2.61313" stroke-linecap="round"
                                                stroke-linejoin="round" />
                                            <path d="M23.3594 28.6953L24.7867 29.7764" stroke="black" stroke-width="0.7"
                                                stroke-miterlimit="2.61313" stroke-linecap="round"
                                                stroke-linejoin="round" />
                                            <path d="M26.2164 28.6953L24.7891 29.7764" stroke="black" stroke-width="0.7"
                                                stroke-miterlimit="2.61313" stroke-linecap="round"
                                                stroke-linejoin="round" />
                                            <path d="M31.5625 24.9546V29.7764" stroke="black" stroke-width="0.7"
                                                stroke-miterlimit="2.61313" stroke-linecap="round"
                                                stroke-linejoin="round" />
                                            <path d="M30.1328 28.6953L31.5602 29.7764" stroke="black" stroke-width="0.7"
                                                stroke-miterlimit="2.61313" stroke-linecap="round"
                                                stroke-linejoin="round" />
                                            <path d="M32.989 28.6953L31.5625 29.7764" stroke="black" stroke-width="0.7"
                                                stroke-miterlimit="2.61313" stroke-linecap="round"
                                                stroke-linejoin="round" />
                                        </svg>