<svg xmlns="http://www.w3.org/2000/svg" width="98" height="16" viewBox="0 0 98 16"
                                        fill="none">
                                        <path fill-rule="evenodd" clip-rule="evenodd"
                                            d="M90.1543 0.539198L91.9364 5.72078L97.5045 5.78409C97.9836 5.78957 98.182 6.38918 97.7977 6.6698L93.3304 9.93508L94.9898 15.1556C95.1323 15.6049 94.6135 15.975 94.2224 15.7029L89.6801 12.5393L85.1373 15.7023C84.7468 15.9744 84.2273 15.6037 84.3699 15.155L86.0292 9.93447L81.562 6.66919C81.1777 6.38857 81.376 5.78896 81.8552 5.78348L87.4233 5.72017L89.2053 0.538589C89.3591 0.0929925 90.0012 0.0929926 90.1543 0.539198Z"
                                            fill="#008763" />
                                        <path fill-rule="evenodd" clip-rule="evenodd"
                                            d="M69.8184 0.539198L71.6004 5.72078L77.1685 5.78409C77.6477 5.78957 77.846 6.38918 77.4617 6.6698L72.9945 9.93508L74.6538 15.1556C74.7964 15.6049 74.2776 15.975 73.8864 15.7029L69.3442 12.5393L64.8013 15.7023C64.4108 15.9744 63.8914 15.6037 64.034 15.155L65.6933 9.93447L61.2261 6.66919C60.8418 6.38857 61.0401 5.78896 61.5192 5.78348L67.0873 5.72017L68.8694 0.538589C69.0231 0.0929925 69.6653 0.0929926 69.8184 0.539198Z"
                                            fill="#008763" />
                                        <path fill-rule="evenodd" clip-rule="evenodd"
                                            d="M49.4746 0.539198L51.2567 5.72078L56.8248 5.78409C57.3039 5.78957 57.5023 6.38918 57.118 6.6698L52.6507 9.93508L54.3101 15.1556C54.4526 15.6049 53.9338 15.975 53.5427 15.7029L49.0005 12.5393L44.4576 15.7023C44.0671 15.9744 43.5477 15.6037 43.6902 15.155L45.3496 9.93447L40.8823 6.66919C40.498 6.38857 40.6964 5.78896 41.1755 5.78348L46.7436 5.72017L48.5256 0.538589C48.6794 0.0929925 49.3215 0.0929926 49.4746 0.539198Z"
                                            fill="#008763" />
                                        <path fill-rule="evenodd" clip-rule="evenodd"
                                            d="M29.1309 0.539198L30.9129 5.72078L36.481 5.78409C36.9602 5.78957 37.1585 6.38918 36.7742 6.6698L32.307 9.93508L33.9663 15.1556C34.1089 15.6049 33.5901 15.975 33.1989 15.7029L28.6567 12.5393L24.1138 15.7023C23.7233 15.9744 23.2039 15.6037 23.3465 15.155L25.0058 9.93447L20.5386 6.66919C20.1543 6.38857 20.3526 5.78896 20.8317 5.78348L26.3998 5.72017L28.1819 0.538589C28.3356 0.0929925 28.9778 0.0929926 29.1309 0.539198Z"
                                            fill="#008763" />
                                        <path fill-rule="evenodd" clip-rule="evenodd"
                                            d="M8.79495 0.539198L10.577 5.72078L16.1451 5.78409C16.6242 5.78957 16.8226 6.38918 16.4383 6.6698L11.971 9.93508L13.6304 15.1556C13.7729 15.6049 13.2541 15.975 12.863 15.7029L8.32077 12.5393L3.7779 15.7023C3.3874 15.9744 2.86797 15.6037 3.01053 15.155L4.66986 9.93447L0.202621 6.66919C-0.181684 6.38857 0.0166668 5.78896 0.495809 5.78348L6.0639 5.72017L7.84596 0.538589C7.99969 0.0929925 8.64185 0.0929926 8.79495 0.539198Z"
                                            fill="#008763" />
                                    </svg>