<svg xmlns="http://www.w3.org/2000/svg" width="43" height="43" viewBox="0 0 43 43" fill="none">
  <g clip-path="url(#clip0_15215_3657)">
    <mask id="mask0_15215_3657" style="mask-type:luminance" maskUnits="userSpaceOnUse" x="8" y="8" width="27" height="27">
      <path d="M35 8H8V35H35V8Z" fill="white"/>
    </mask>
    <g mask="url(#mask0_15215_3657)">
      <path d="M21.4977 34.762C28.8228 34.762 34.761 28.8238 34.761 21.4987C34.761 14.1735 28.8228 8.23535 21.4977 8.23535C14.1726 8.23535 8.23438 14.1735 8.23438 21.4987C8.23438 28.8238 14.1726 34.762 21.4977 34.762Z" stroke="black" stroke-opacity="0.25" stroke-width="0.7" stroke-miterlimit="2.61313" stroke-linecap="round" stroke-linejoin="round"/>
      <path d="M21.4975 31.3514C26.9391 31.3514 31.3504 26.9401 31.3504 21.4984C31.3504 16.0568 26.9391 11.6455 21.4975 11.6455C16.0558 11.6455 11.6445 16.0568 11.6445 21.4984C11.6445 26.9401 16.0558 31.3514 21.4975 31.3514Z" stroke="black" stroke-opacity="0.5" stroke-width="0.7" stroke-miterlimit="2.61313" stroke-linecap="round" stroke-linejoin="round"/>
      <path d="M21.4985 27.7509C24.9516 27.7509 27.7509 24.9516 27.7509 21.4985C27.7509 18.0454 24.9516 15.2461 21.4985 15.2461C18.0454 15.2461 15.2461 18.0454 15.2461 21.4985C15.2461 24.9516 18.0454 27.7509 21.4985 27.7509Z" stroke="black" stroke-opacity="0.75" stroke-width="0.7" stroke-miterlimit="2.61313" stroke-linecap="round" stroke-linejoin="round"/>
      <path d="M21.4949 24.3844C23.0886 24.3844 24.3805 23.0925 24.3805 21.4989C24.3805 19.9052 23.0886 18.6133 21.4949 18.6133C19.9013 18.6133 18.6094 19.9052 18.6094 21.4989C18.6094 23.0925 19.9013 24.3844 21.4949 24.3844Z" stroke="black" stroke-width="0.7" stroke-miterlimit="2.61313" stroke-linecap="round" stroke-linejoin="round"/>
    </g>
    <path d="M21.5722 1V5.23721" stroke="black" stroke-width="0.7" stroke-miterlimit="2.61313" stroke-linecap="round" stroke-linejoin="round"/>
    <path d="M20.3182 4.28711L21.5725 5.23716" stroke="black" stroke-width="0.7" stroke-miterlimit="2.61313" stroke-linecap="round" stroke-linejoin="round"/>
    <path d="M22.8265 4.28711L21.5722 5.23716" stroke="black" stroke-width="0.7" stroke-miterlimit="2.61313" stroke-linecap="round" stroke-linejoin="round"/>
    <path d="M21.5731 42.1449V37.9077" stroke="black" stroke-width="0.7" stroke-miterlimit="2.61313" stroke-linecap="round" stroke-linejoin="round"/>
    <path d="M22.827 38.8577L21.5727 37.9077" stroke="black" stroke-width="0.7" stroke-miterlimit="2.61313" stroke-linecap="round" stroke-linejoin="round"/>
    <path d="M20.3188 38.8583L21.5731 37.9082" stroke="black" stroke-width="0.7" stroke-miterlimit="2.61313" stroke-linecap="round" stroke-linejoin="round"/>
    <path d="M42.1455 21.5728H37.9083" stroke="black" stroke-width="0.7" stroke-miterlimit="2.61313" stroke-linecap="round" stroke-linejoin="round"/>
    <path d="M38.8583 20.3184L37.9082 21.5727" stroke="black" stroke-width="0.7" stroke-miterlimit="2.61313" stroke-linecap="round" stroke-linejoin="round"/>
    <path d="M38.8583 22.8271L37.9082 21.5728" stroke="black" stroke-width="0.7" stroke-miterlimit="2.61313" stroke-linecap="round" stroke-linejoin="round"/>
    <path d="M1 21.5728H5.23721" stroke="black" stroke-width="0.7" stroke-miterlimit="2.61313" stroke-linecap="round" stroke-linejoin="round"/>
    <path d="M4.28723 22.8271L5.23729 21.5728" stroke="black" stroke-width="0.7" stroke-miterlimit="2.61313" stroke-linecap="round" stroke-linejoin="round"/>
    <path d="M4.28723 20.3184L5.23729 21.5727" stroke="black" stroke-width="0.7" stroke-miterlimit="2.61313" stroke-linecap="round" stroke-linejoin="round"/>
    <path d="M36.1191 7.02539L33.123 10.0216" stroke="black" stroke-width="0.7" stroke-miterlimit="2.61313" stroke-linecap="round" stroke-linejoin="round"/>
    <path d="M32.9082 8.46289L33.1233 10.0216" stroke="black" stroke-width="0.7" stroke-miterlimit="2.61313" stroke-linecap="round" stroke-linejoin="round"/>
    <path d="M34.6818 10.2371L33.1231 10.022" stroke="black" stroke-width="0.7" stroke-miterlimit="2.61313" stroke-linecap="round" stroke-linejoin="round"/>
    <path d="M7.02588 36.1188L10.022 33.1226" stroke="black" stroke-width="0.7" stroke-miterlimit="2.61313" stroke-linecap="round" stroke-linejoin="round"/>
    <path d="M10.2368 34.6817L10.0217 33.123" stroke="black" stroke-width="0.7" stroke-miterlimit="2.61313" stroke-linecap="round" stroke-linejoin="round"/>
    <path d="M8.4632 32.9082L10.0219 33.1233" stroke="black" stroke-width="0.7" stroke-miterlimit="2.61313" stroke-linecap="round" stroke-linejoin="round"/>
    <path d="M36.1201 36.1191L33.124 33.123" stroke="black" stroke-width="0.7" stroke-miterlimit="2.61313" stroke-linecap="round" stroke-linejoin="round"/>
    <path d="M34.6826 32.9082L33.1239 33.1233" stroke="black" stroke-width="0.7" stroke-miterlimit="2.61313" stroke-linecap="round" stroke-linejoin="round"/>
    <path d="M32.9088 34.6817L33.1239 33.123" stroke="black" stroke-width="0.7" stroke-miterlimit="2.61313" stroke-linecap="round" stroke-linejoin="round"/>
    <path d="M7.02545 7.02588L10.0216 10.022" stroke="black" stroke-width="0.7" stroke-miterlimit="2.61313" stroke-linecap="round" stroke-linejoin="round"/>
    <path d="M8.46301 10.2366L10.0217 10.0215" stroke="black" stroke-width="0.7" stroke-miterlimit="2.61313" stroke-linecap="round" stroke-linejoin="round"/>
    <path d="M10.2368 8.46338L10.0217 10.0221" stroke="black" stroke-width="0.7" stroke-miterlimit="2.61313" stroke-linecap="round" stroke-linejoin="round"/>
  </g>
  <defs>
    <clipPath id="clip0_15215_3657">
      <rect width="43" height="43" fill="white"/>
    </clipPath>
  </defs>
</svg>