<svg xmlns="http://www.w3.org/2000/svg" width="29" height="29" viewBox="0 0 29 29" fill="none">
  <path d="M1 5.61133H6C8.20914 5.61133 10 7.40219 10 9.61133V23.6113H1V5.61133Z" stroke="black" stroke-width="1.5"/>
  <path d="M22 14.6113V5.61133H17C14.7909 5.61133 13 7.40219 13 9.61133V23.6113H16.15" stroke="black" stroke-width="1.5"/>
  <path d="M23.4874 17.0143V17.0143C24.2447 16.4211 25.3394 16.5542 25.9325 17.3115L27.0285 18.7107C28.6687 20.8048 28.3007 23.8319 26.2067 25.472L25.0484 26.3793C24.3611 26.9177 23.488 27.1609 22.6214 27.0556V27.0556C21.7547 26.9502 20.9654 26.5049 20.427 25.8176L18.7555 23.6835C18.4272 23.2643 18.5008 22.6583 18.92 22.3299V22.3299C19.3392 22.0016 19.9452 22.0753 20.2736 22.4945L21.0215 23.4494M24.3312 18.0916L23.66 17.2346C23.3528 16.8425 22.7859 16.7736 22.3938 17.0807V17.0807V17.0807C22.0016 17.3879 21.9327 17.9548 22.2399 18.347L22.6042 18.8122" stroke="black" stroke-width="1.5"/>
  <path d="M20.8821 19.8442L17.4685 15.4858C17.1083 15.026 16.4437 14.9453 15.9839 15.3054V15.3054C15.5241 15.6655 15.4434 16.3301 15.8035 16.7899L20.3678 22.6174" stroke="black" stroke-width="1.5"/>
  <path d="M22.3178 18.4473L21.9906 18.0296C21.6517 17.5969 21.0262 17.5209 20.5934 17.8598V17.8598C20.1607 18.1987 20.0847 18.8243 20.4236 19.257L21.1907 20.2364" stroke="black" stroke-width="1.5"/>
</svg>