<svg width="29" height="29" viewBox="0 0 29 29" fill="none" xmlns="http://www.w3.org/2000/svg">
<path d="M1 5.61133H6C8.20914 5.61133 10 7.40219 10 9.61133V23.6113H1V5.61133Z" stroke="black" stroke-width="1.5"/>
<path d="M22 14.6113V5.61133H17C14.7909 5.61133 13 7.40219 13 9.61133V23.6113H16.15" stroke="black" stroke-width="1.5"/>
<path d="M23.4835 17.0143V17.0143C24.2408 16.4211 25.3355 16.5542 25.9286 17.3115L27.0246 18.7107C28.6648 20.8048 28.2968 23.8319 26.2028 25.472L25.0445 26.3793C24.3572 26.9177 23.4841 27.1609 22.6175 27.0556V27.0556C21.7508 26.9502 20.9615 26.5049 20.4231 25.8176L18.7516 23.6835C18.4233 23.2643 18.4969 22.6583 18.9161 22.3299V22.3299C19.3353 22.0016 19.9413 22.0753 20.2697 22.4945L21.0176 23.4494M24.3273 18.0916L23.6561 17.2346C23.3489 16.8425 22.782 16.7736 22.3899 17.0807V17.0807V17.0807C21.9977 17.3879 21.9288 17.9548 22.236 18.347L22.6003 18.8122" stroke="black" stroke-width="1.5"/>
<path d="M20.8782 19.8442L17.4646 15.4858C17.1044 15.026 16.4398 14.9453 15.98 15.3054V15.3054C15.5202 15.6655 15.4394 16.3301 15.7996 16.7899L20.3639 22.6174" stroke="black" stroke-width="1.5"/>
<path d="M22.3159 18.4473L21.9887 18.0296C21.6498 17.5969 21.0242 17.5209 20.5915 17.8598V17.8598C20.1587 18.1987 20.0827 18.8243 20.4217 19.257L21.1888 20.2364" stroke="black" stroke-width="1.5"/>
</svg>
