<svg width="36" height="37" viewBox="0 0 36 37" fill="none" xmlns="http://www.w3.org/2000/svg">
<g id="Frame 1000004183">
<g id="Login">
<g id="Group 394">
<path id="Vector" d="M12.5184 9.39461C12.5184 8.13819 13.0171 6.93318 13.9046 6.04475C14.7921 5.15632 15.9959 4.65723 17.2511 4.65723C18.5063 4.65723 19.71 5.15632 20.5976 6.04475C21.4851 6.93318 21.9838 8.13819 21.9838 9.39461C21.9838 12.0107 19.8646 14.8617 17.2511 14.8617C14.6376 14.8617 12.5184 12.0107 12.5184 9.39461Z" stroke="black" stroke-width="1.5" stroke-miterlimit="10"/>
<path id="Vector_2" d="M17.2512 29.0855C20.7839 29.0886 24.178 27.7105 26.7103 25.2449C26.0184 21.8186 22.0518 19.1902 17.2512 19.1902C12.4506 19.1902 8.47786 21.8186 7.79205 25.2449C10.3236 27.7116 13.7183 29.0899 17.2512 29.0855V29.0855Z" stroke="black" stroke-width="1.5" stroke-miterlimit="10"/>
</g>
</g>
</g>
</svg>
