<svg width="40" height="41" viewBox="0 0 40 41" fill="none" xmlns="http://www.w3.org/2000/svg">
<g clip-path="url(#clip0_28814_1250)">
<path d="M4.18359 8.4502V21.1669C4.18359 33.6419 19.0586 39.7669 19.6919 40.0169C19.7919 40.0585 19.9003 40.0752 20.0003 40.0752C20.1003 40.0752 20.2086 40.0585 20.3086 40.0169C20.9419 39.7585 35.8169 33.6335 35.8169 21.1669V8.4502C35.8169 8.01686 35.4836 7.65853 35.0586 7.61686C34.9836 7.60853 27.7336 6.9002 20.5253 1.1002C20.2169 0.858529 19.7836 0.858529 19.4836 1.1002C12.2919 6.88353 5.01693 7.60853 4.94193 7.61686C4.51693 7.65853 4.18359 8.01686 4.18359 8.4502ZM5.85026 9.1752C7.92526 8.8502 13.8836 7.54186 20.0003 2.80853C26.1169 7.54186 32.0753 8.8502 34.1503 9.1752V21.1669C34.1503 31.5669 22.1086 37.4002 20.0003 38.3419C17.8919 37.4002 5.85026 31.5752 5.85026 21.1669V9.1752Z" fill="black"/>
<path d="M17.4831 24.8748C17.6497 25.0415 17.8581 25.1165 18.0747 25.1165C18.2914 25.1165 18.4997 25.0331 18.6664 24.8748L28.1664 15.3748C28.4914 15.0498 28.4914 14.5248 28.1664 14.1998C27.8414 13.8748 27.3164 13.8748 26.9914 14.1998L18.0747 23.1081L13.0164 18.0498C12.6914 17.7248 12.1664 17.7248 11.8414 18.0498C11.5164 18.3748 11.5164 18.8998 11.8414 19.2248L17.4831 24.8748Z" fill="black"/>
</g>
<defs>
<clipPath id="clip0_28814_1250">
<rect width="40" height="40" fill="white" transform="translate(0 0.5)"/>
</clipPath>
</defs>
</svg>
