<svg xmlns="http://www.w3.org/2000/svg" width="20" height="21" viewBox="0 0 20 21" fill="none">
  <path d="M20 10.5C20 9.0455 19.1735 7.776 17.967 7.135C18.2965 5.8795 17.9755 4.4835 16.9955 3.504C16.264 2.772 15.3 2.408 14.335 2.408C14.0085 2.408 13.682 2.4495 13.3645 2.533C12.724 1.3265 11.4545 0.5 10 0.5C8.5455 0.5 7.276 1.3265 6.635 2.533C6.317 2.4495 5.991 2.408 5.6645 2.408C4.6995 2.408 3.736 2.7725 3.004 3.504C2.0245 4.4835 1.703 5.879 2.0325 7.135C0.8265 7.776 0 9.0455 0 10.5C0 11.9545 0.8265 13.224 2.033 13.865C1.7035 15.1205 2.0245 16.5165 3.0045 17.496C3.736 18.2275 4.7 18.592 5.665 18.592C5.9915 18.592 6.318 18.5505 6.6355 18.467C7.276 19.6735 8.5455 20.5 10 20.5C11.4545 20.5 12.724 19.6735 13.365 18.467C13.683 18.5505 14.009 18.592 14.3355 18.592C15.3005 18.592 16.264 18.2275 16.996 17.496C17.9755 16.5165 18.297 15.121 17.9675 13.865C19.1735 13.224 20 11.9545 20 10.5Z" fill="#008763"/>
  <path d="M8.73916 13.833L5 10.59L6.42627 9.35318L8.73916 11.3585L13.5737 7.16638L15 8.40323L8.73916 13.833Z" fill="white"/>
</svg>