<svg width="21" height="26" viewBox="0 0 21 26" fill="none" xmlns="http://www.w3.org/2000/svg">
<g id="Frame" clip-path="url(#clip0_35850_1446)">
<path id="Vector" d="M20.1547 13.7545C20.1547 19.5759 16.0798 22.4866 11.2364 24.1748C10.9828 24.2607 10.7073 24.2566 10.4563 24.1631C5.60132 22.4866 1.52637 19.5759 1.52637 13.7545V5.60463C1.52637 5.29585 1.64903 4.99971 1.86737 4.78137C2.08572 4.56302 2.38185 4.44036 2.69064 4.44036C5.01918 4.44036 7.92986 3.04323 9.95569 1.27354C10.2023 1.06281 10.5161 0.947021 10.8405 0.947021C11.165 0.947021 11.4787 1.06281 11.7254 1.27354C13.7629 3.05488 16.6619 4.44036 18.9904 4.44036C19.2992 4.44036 19.5954 4.56302 19.8137 4.78137C20.032 4.99971 20.1547 5.29585 20.1547 5.60463V13.7545Z" stroke="#333333" stroke-width="1.3" stroke-linecap="round" stroke-linejoin="round"/>
<path id="Vector_2" d="M6.96289 12.5917L9.54798 15.1768L14.7182 10.0066" stroke="#333333" stroke-width="1.3" stroke-linecap="round" stroke-linejoin="round"/>
</g>
<defs>
<clipPath id="clip0_35850_1446">
<rect width="21" height="25" fill="white" transform="translate(0 0.226562)"/>
</clipPath>
</defs>
</svg>
