<svg xmlns="http://www.w3.org/2000/svg" width="114" height="30" viewBox="0 0 114 30" fill="none">
  <g clip-path="url(#clip0_20314_3525)">
    <mask id="mask0_20314_3525" style="mask-type:luminance" maskUnits="userSpaceOnUse" x="0" y="0" width="114" height="30">
      <path d="M113.077 0H0V30H113.077V0Z" fill="white"/>
    </mask>
    <g mask="url(#mask0_20314_3525)">
      <g opacity="0.3">
        <path fill-rule="evenodd" clip-rule="evenodd" d="M24.7249 24.7599C26.7738 27.2911 29.9384 29.1442 33.2469 29.1442C36.7803 29.1442 39.9661 27.1358 42.0754 24.3918C44.2265 21.5753 45.2818 18.0208 45.2818 14.4983C45.2818 10.8206 44.1243 7.0926 41.7992 4.21444C39.7811 1.71584 36.637 -0.159011 33.3593 -0.159011C29.7946 -0.159011 26.5888 1.81799 24.4583 4.58313C22.2976 7.39964 21.2526 10.9541 21.2526 14.4875C21.2526 18.1646 22.3901 21.8829 24.7249 24.7599ZM9.96598 0.44539H0V0.731272H2.6225L12.9161 28.8771L21.7651 0.731272H24.1416V0.44539H18.7643V0.731272H21.2326L14.9541 21.093L7.51815 0.731272H9.96598V0.44539ZM67.0983 9.73504V-0.0465943H66.8746C66.1886 0.465334 65.3896 1.04919 64.4981 1.04919C63.7819 1.04919 63.0548 0.814073 62.3888 0.568081L61.8043 0.342643C61.0053 0.0247279 60.1555 -0.241211 59.2948 -0.241211C57.093 -0.241211 55.0241 0.73127 53.3137 2.0531C49.5035 4.9923 47.7109 10.0215 47.7109 14.7232C47.7109 21.1546 51.5827 28.9079 58.8542 28.9079C60.4414 28.9079 61.8146 28.4479 63.2488 27.8127L63.8841 27.4646C64.5894 27.0753 65.3781 26.7882 66.188 26.7882C67.3038 26.7882 68.1747 27.3926 68.7283 28.3144H68.9217V17.0066H71.1139V16.7104H61.7421V17.0066H64.3023V24.5665C64.3023 25.0681 64.2817 25.5589 64.0152 25.9995C62.9811 27.69 60.9116 28.6734 58.966 28.6734C56.5176 28.6734 55.1964 27.5165 54.2849 25.1606C52.9843 21.8013 52.6978 18.1042 52.6978 14.5189C52.6978 10.5141 53.2303 0.0156617 59.0887 0.0156617C61.6393 0.0156617 63.5957 2.24771 64.8245 4.23499C65.8586 5.93517 66.4528 7.80942 66.8728 9.73504H67.0983ZM79.891 0.44539H69.8948L69.8954 0.731272H72.6291V21.4411C72.6291 26.5833 77.5876 28.7646 82.0838 28.7646C86.0571 28.7646 90.2976 26.7876 90.2976 22.3229V0.731272H95.2555V28.0273H92.9098V28.3144H113.077V17.7138H112.851C112.801 18.7382 112.718 19.7723 112.544 20.7865C112.227 22.5997 111.314 24.2794 110.004 25.5698C108.467 27.085 106.307 28.0273 104.135 28.0273H99.9463V14.1798C100.448 14.1387 100.939 14.1079 101.441 14.1079C104.627 14.1079 105.825 17.0169 106.265 19.7306H106.522V8.37212H106.265C106.112 11.3633 105.2 13.7803 101.688 13.7803C101.103 13.7803 100.519 13.7392 99.9463 13.6782V0.731272H102.742C105.333 0.731272 107.853 0.936162 109.706 3.03585C111.539 5.115 112.052 7.84991 112.349 10.5129H112.544V0.444786H86.7431V0.731272H89.8764V22.2413C89.8764 25.6115 87.1009 27.9052 83.8027 27.9052C80.7408 27.9052 77.2383 25.8357 77.2383 22.4359V0.731876H79.891V0.44539ZM33.5199 0.485474C39.02 0.485474 40.4742 10.6461 40.4742 14.7125C40.4742 18.7789 39.02 28.9486 33.5199 28.9492C28.0096 28.9492 26.5651 18.7886 26.5651 14.7125C26.5651 10.6358 27.9993 0.485474 33.5199 0.485474Z" fill="black"/>
      </g>
    </g>
  </g>
  <defs>
    <clipPath id="clip0_20314_3525">
      <rect width="114" height="30" fill="white"/>
    </clipPath>
  </defs>
</svg>