<svg width="41" height="41" viewBox="0 0 41 41" fill="none" xmlns="http://www.w3.org/2000/svg">
<g clip-path="url(#clip0_28814_1239)">
<path d="M38.5359 22.4051C38.5358 22.4047 38.5358 22.4044 38.5357 22.4041H38.5363L37.844 19.8268C36.9825 16.6273 33.6935 14.7292 30.4922 15.584L15.7806 19.5273V11.5032C15.7806 11.204 15.98 10.9413 16.2682 10.8609L26.7022 7.94528C29.1794 7.24984 30.6293 4.68368 29.9466 2.20299L29.6097 0.988364C29.5153 0.648689 29.1728 0.441249 28.828 0.514787L7.46835 5.07447C5.31916 5.54254 3.78345 7.4406 3.77445 9.64015V36.6207C2.97779 36.9023 2.44393 37.6541 2.44043 38.499V39.833C2.44043 40.2014 2.73908 40.5 3.10744 40.5H16.4476C16.816 40.5 17.1146 40.2014 17.1146 39.833V38.499C17.1111 37.6541 16.5773 36.9023 15.7806 36.6207V29.1922L28.3991 25.8118L28.5725 26.4581C28.8554 27.5238 29.9487 28.1583 31.0143 27.8754C31.0175 27.8746 31.0206 27.8738 31.0238 27.8729L36.1778 26.4928C37.2452 26.2064 37.8782 25.1089 37.5919 24.0416L37.4184 23.3946L38.0641 23.2218C38.4199 23.1266 38.6312 22.7609 38.5359 22.4051ZM5.10847 17.8217H14.4466V36.498H5.10847V17.8217ZM15.7806 39.166H3.77445V38.499C3.77445 38.1306 4.0731 37.832 4.44146 37.832H15.1136C15.482 37.832 15.7806 38.1306 15.7806 38.499V39.166ZM14.4466 11.5031V16.4877H5.10847V9.64015C5.11522 8.06901 6.21204 6.71323 7.74716 6.37847L28.4912 1.95019L28.6599 2.55917C29.1468 4.33108 28.1116 6.16361 26.3427 6.66128L15.9094 9.57678C15.0459 9.81957 14.4486 10.6062 14.4466 11.5031ZM35.8323 25.2035V25.2055L30.6783 26.5869C30.3226 26.6827 29.9566 26.472 29.8608 26.1162C29.8607 26.1159 29.8606 26.1155 29.8605 26.1153L29.6884 25.471L36.1318 23.7447L36.3045 24.3891C36.3982 24.7443 36.1871 25.1084 35.8323 25.2035ZM15.7806 27.8122V20.9086L30.837 16.8719C33.3268 16.2088 35.8839 17.6846 36.5553 20.1722L37.0749 22.1066L15.7806 27.8122Z" fill="black"/>
<path d="M35.0063 29.4489L34.4574 28.6538L33.9084 29.4489C33.5549 29.9611 30.4553 34.5055 30.4553 36.4978C30.4553 38.7081 32.2471 40.4999 34.4574 40.4999C36.6677 40.4999 38.4594 38.7081 38.4594 36.4978C38.4594 34.5055 35.3598 29.9611 35.0063 29.4489ZM34.4574 39.1659C32.9839 39.1659 31.7893 37.9714 31.7893 36.4978C31.7893 35.4727 33.2568 32.8773 34.4574 31.0284C35.658 32.878 37.1254 35.4733 37.1254 36.4978C37.1254 37.9714 35.9309 39.1659 34.4574 39.1659Z" fill="black"/>
</g>
<defs>
<clipPath id="clip0_28814_1239">
<rect width="40" height="40" fill="white" transform="translate(0.5 0.5)"/>
</clipPath>
</defs>
</svg>
