<svg width="52" height="51" viewBox="0 0 52 51" fill="none" xmlns="http://www.w3.org/2000/svg">
<g id="Frame 1000004424">
<rect x="0.5" width="51" height="51" rx="25.5" fill="#C7E7DC"/>
<g id="Instagram">
<path id="Shape" fill-rule="evenodd" clip-rule="evenodd" d="M17.8029 13C15.7026 13 14 14.7026 14 16.8029V33.1971C14 35.2974 15.7026 37 17.8029 37H34.1971C36.2974 37 38 35.2974 38 33.1971V16.8029C38 14.7026 36.2974 13 34.1971 13H17.8029ZM34.848 18.4528C34.848 17.8529 34.3577 17.362 33.7585 17.362C33.1593 17.362 32.669 17.8529 32.669 18.4528C32.669 19.0527 33.1593 19.5435 33.7585 19.5435C34.3577 19.5435 34.848 19.0527 34.848 18.4528ZM26.1002 18.5315C29.725 18.5315 32.6689 21.4755 32.6689 25.1002C32.6689 28.725 29.725 31.6689 26.1002 31.6689C22.4755 31.6689 19.5315 28.725 19.5315 25.1002C19.5315 21.4755 22.4755 18.5315 26.1002 18.5315ZM21.6059 25.1003C21.6059 22.6233 23.6233 20.6059 26.1003 20.6059C28.5772 20.6059 30.5946 22.6233 30.5946 25.1003C30.5946 27.5772 28.5772 29.5946 26.1003 29.5946C23.6233 29.5946 21.6059 27.5772 21.6059 25.1003Z" fill="black"/>
</g>
</g>
</svg>
