<svg width="52" height="51" viewBox="0 0 52 51" fill="none" xmlns="http://www.w3.org/2000/svg">
<g id="Frame 1000004424">
<rect x="0.5" width="51" height="51" rx="25.5" fill="#C7E7DC"/>
<g id="Youtube">
<path id="Shape" fill-rule="evenodd" clip-rule="evenodd" d="M18.1449 12.5524L20.0408 18.3014V22.134H21.3047V18.3014L23.2006 12.5524H21.9367L20.6727 16.3851L19.4088 12.5524H18.1449ZM25.1 15.1076C24.4261 15.1076 24.0953 15.2149 23.6831 15.5567C23.2881 15.8936 23.1795 16.1531 23.2042 17.0239V20.2178C23.2042 20.8541 23.3078 21.2733 23.688 21.6451C24.083 22.0168 24.4557 22.1341 25.1 22.1341C25.774 22.1341 26.1418 22.0168 26.5219 21.6451C26.9169 21.2882 26.9959 20.8541 26.9959 20.2178V17.0239C26.9959 16.46 26.8972 15.926 26.5145 15.5692C26.1196 15.2024 25.7122 15.1076 25.1 15.1076ZM28.2553 15.1076V20.8566C28.2553 21.4779 28.8749 22.1341 29.5192 22.1341C30.1635 22.1341 30.5041 21.8072 30.7831 21.4953V22.1341H32.047V15.1076H30.7831V20.2178C30.7757 20.6545 30.2672 20.8566 30.1511 20.8566C30.0203 20.8566 29.5192 20.8291 29.5192 20.2178V15.1076H28.2553ZM25.0981 16.3856C25.2882 16.3856 25.7301 16.3831 25.7301 17.0243V20.2182C25.7301 20.837 25.303 20.857 25.0981 20.857C24.908 20.857 24.4662 20.8495 24.4662 20.2182V17.0243C24.4662 16.5028 24.7402 16.3856 25.0981 16.3856ZM16.2495 23.4124C13.9784 23.4124 12.4578 24.9345 12.4578 27.2451V33.3134C12.4578 35.624 13.9784 37.4654 16.2495 37.4654H35.2082C37.4793 37.4654 39 35.9434 39 33.6328V27.2451C39 24.9345 37.4793 23.4124 35.2082 23.4124H16.2495ZM17.5162 25.9669H21.3079V27.2445H20.044V34.9097H18.7801V27.2445H17.5162V25.9669ZM26.3573 25.9669H27.6212V28.522C27.7669 28.2924 27.9841 28.1103 28.1915 28.008C28.3939 27.9032 28.5988 27.8433 28.8062 27.8433C29.216 27.8433 29.5369 27.993 29.7566 28.2725C29.9763 28.5544 30.1491 28.9287 30.1491 29.4802V33.3128C30.1491 33.7869 29.9911 34.0813 29.7837 34.3333C29.5813 34.5854 29.2777 34.9048 28.8852 34.9097C28.2211 34.9172 27.8656 34.5579 27.6212 34.271V34.9097H26.3573V25.9669ZM21.3055 27.8827H22.5695V32.9929C22.5695 33.1401 22.7398 33.6367 23.2014 33.6317C23.7149 33.6267 23.7198 33.1426 23.8334 32.9929V27.8827H25.0973V34.9092H23.8334V34.2705C23.5989 34.5499 23.4779 34.6373 23.2138 34.7695C22.9521 34.9192 22.6855 34.9092 22.4386 34.9092C22.1325 34.9092 21.7844 34.6298 21.6215 34.4202C21.4759 34.228 21.3055 34.0309 21.3055 33.6317V27.8827ZM32.8081 27.8827C33.408 27.8827 33.8301 28.0125 34.1486 28.3518C34.4744 28.6912 34.5781 29.0879 34.5781 29.7267V31.7154H32.0503V32.7035C32.0503 33.0603 32.0972 33.2873 32.1885 33.4221C32.2749 33.5693 32.4502 33.6342 32.6822 33.6317C32.9389 33.6292 33.1019 33.5768 33.1883 33.4595C33.2771 33.3547 33.3142 33.0578 33.3142 32.6735V32.3541H34.5781V32.7334C34.5781 33.4296 34.5238 33.9486 34.1831 34.2879C33.8622 34.6447 33.3611 34.8094 32.7044 34.8094C32.1046 34.8094 31.6355 34.6298 31.2998 34.2605C30.9641 33.8912 30.7888 33.3847 30.7888 32.7334V29.7267C30.7888 29.1478 30.9888 28.7186 31.3566 28.3369C31.6528 28.0299 32.2083 27.8827 32.8081 27.8827ZM28.2601 28.8418C27.9121 28.8418 27.6331 29.1587 27.6282 29.4805V33.3132C27.6331 33.4978 27.9121 33.6326 28.2601 33.6326C28.6082 33.6326 28.8921 33.3606 28.8921 33.0088V29.7999C28.8921 29.1612 28.6082 28.8418 28.2601 28.8418ZM32.6832 29.1607C32.3351 29.1607 32.0562 29.4576 32.0512 29.7995V30.4382H33.3152V29.7995C33.3152 29.4077 33.0313 29.1607 32.6832 29.1607Z" fill="black"/>
</g>
</g>
</svg>
