<svg width="52" height="51" viewBox="0 0 52 51" fill="none" xmlns="http://www.w3.org/2000/svg">
<g id="Frame 1000004424">
<rect x="0.5" width="51" height="51" rx="25.5" fill="#C7E7DC"/>
<g id="Group 1000004092">
<g id="Login">
<g id="Group 394">
<path id="Vector" d="M20.3879 19.7179C20.3879 18.6656 20.8139 17.6563 21.5722 16.9122C22.3304 16.168 23.3588 15.75 24.4312 15.75C25.5035 15.75 26.5319 16.168 27.2902 16.9122C28.0484 17.6563 28.4744 18.6656 28.4744 19.7179C28.4744 21.9091 26.6639 24.297 24.4312 24.297C22.1984 24.297 20.3879 21.9091 20.3879 19.7179Z" stroke="black" stroke-width="1.5" stroke-miterlimit="10"/>
<path id="Vector_2" d="M24.4312 36.2105C27.4492 36.2131 30.349 35.0589 32.5124 32.9937C31.9212 30.124 28.5325 27.9225 24.4312 27.9225C20.3299 27.9225 16.9359 30.124 16.35 32.9937C18.5128 35.0598 21.4129 36.2142 24.4312 36.2105V36.2105Z" stroke="black" stroke-width="1.5" stroke-miterlimit="10"/>
</g>
</g>
<g id="Group 1000004091">
<path id="Vector 132" d="M31.5751 23.5732H40" stroke="black" stroke-width="1.5"/>
<path id="Vector 133" d="M35.7875 19.3607L35.7875 27.7857" stroke="black" stroke-width="1.5"/>
</g>
</g>
</g>
</svg>
