<svg width="52" height="51" viewBox="0 0 52 51" fill="none" xmlns="http://www.w3.org/2000/svg">
<rect x="0.5" width="51" height="51" rx="25.5" fill="#C7E7DC"/>
<path d="M33.0072 18.3681H19.4243C19.2158 18.366 19.0143 18.4887 18.8586 18.7124C18.7029 18.9362 18.6041 19.2451 18.5811 19.5795L17.9151 35.7166C17.9116 35.8968 17.931 36.0764 17.9721 36.2441C18.0132 36.4118 18.0752 36.5642 18.1542 36.6917C18.2332 36.8192 18.3276 36.9193 18.4314 36.9857C18.5353 37.0521 18.6465 37.0834 18.7582 37.0778H33.8124C34.036 37.0778 34.2505 36.9343 34.4086 36.6791C34.5667 36.4238 34.6555 36.0776 34.6555 35.7166L33.8503 19.5659C33.8255 19.2339 33.7258 18.9283 33.5703 18.7074C33.4148 18.4864 33.2143 18.3657 33.0072 18.3681V18.3681Z" stroke="black" stroke-width="1.5" stroke-linecap="round" stroke-linejoin="round"/>
<path d="M21.8536 22.307V17.6646C21.8536 16.5453 22.3205 15.4718 23.1516 14.6803C23.9826 13.8889 25.1098 13.4442 26.285 13.4442C27.4603 13.4442 28.5875 13.8889 29.4185 14.6803C30.2496 15.4718 30.7164 16.5453 30.7164 17.6646V22.307" stroke="black" stroke-width="1.5" stroke-linecap="round" stroke-linejoin="round"/>
</svg>
