<svg width="52" height="51" viewBox="0 0 52 51" fill="none" xmlns="http://www.w3.org/2000/svg">
<g id="Frame 1000004424">
<rect x="0.5" width="51" height="51" rx="25.5" fill="#C7E7DC"/>
<path id="Subtract" fill-rule="evenodd" clip-rule="evenodd" d="M17.6301 13C15.6252 13 14 14.6252 14 16.6301V33.3699C14 35.3748 15.6252 37 17.6301 37H34.3699C36.3748 37 38 35.3748 38 33.3699V16.6301C38 14.6252 36.3748 13 34.3699 13H17.6301ZM26.5081 17.1486H29.0765C29.0592 18.3478 29.6978 20.7831 32.6689 20.9307V23.7165C32.0847 23.778 30.6037 23.628 29.0765 22.5358V27.8123C29.0708 29.4481 28.1706 32.7862 24.6164 33.0518C20.0174 32.812 19.5315 29.2329 19.5315 27.8123C19.5316 25.7552 20.8088 22.8404 24.9461 22.9786V25.8382C24.6048 25.7091 23.7417 25.6094 23.0198 26.2441C22.1173 27.0374 21.9785 28.6425 22.7768 29.5096C23.5751 30.3767 24.7726 30.4874 25.623 29.8232C26.3033 29.2919 26.4618 28.4334 26.456 28.0706L26.5081 17.1486Z" fill="black"/>
</g>
</svg>
