<svg width="25" height="25" viewBox="0 0 25 25" fill="none" xmlns="http://www.w3.org/2000/svg">
<g id="whatsapp">
<path id="Vector" d="M12.75 0C5.99552 0 0.500079 5.49544 0.500079 12.25C0.500079 14.3591 1.04494 16.4331 2.07819 18.2631L0.519785 23.8235C0.468655 24.0062 0.518188 24.2022 0.650274 24.338C0.752002 24.4429 0.89048 24.4999 1.03269 24.4999C1.07529 24.4999 1.11844 24.4946 1.16051 24.4845L6.9638 23.047C8.73578 23.9982 10.7315 24.4999 12.75 24.4999C19.5046 24.4999 25 19.0045 25 12.25C25 5.49544 19.5046 0 12.75 0ZM18.9123 16.5726C18.6503 17.298 17.3933 17.96 16.7893 18.049C16.2471 18.1283 15.5611 18.1624 14.808 17.926C14.3516 17.7822 13.7657 17.5915 13.0153 17.2714C9.86065 15.926 7.80052 12.7895 7.64287 12.5823C7.48575 12.3751 6.35876 10.8987 6.35876 9.37069C6.35876 7.84264 7.17098 7.09113 7.45965 6.78009C7.74833 6.46904 8.08866 6.39128 8.29851 6.39128C8.50836 6.39128 8.71767 6.39395 8.90142 6.40247C9.09476 6.41206 9.35414 6.3295 9.60926 6.93561C9.8713 7.55769 10.5003 9.08574 10.5781 9.2418C10.6569 9.39732 10.7091 9.57894 10.6047 9.78612C10.5003 9.9933 10.4481 10.1227 10.2905 10.3043C10.1328 10.486 9.96024 10.7091 9.81857 10.8487C9.66092 11.0037 9.49741 11.1714 9.68062 11.4825C9.86384 11.7935 10.495 12.8103 11.4302 13.6337C12.6313 14.6914 13.6448 15.0195 13.9591 15.175C14.2733 15.3306 14.457 15.3045 14.6403 15.0973C14.8235 14.8896 15.4264 14.1902 15.6357 13.8797C15.845 13.5692 16.0549 13.6204 16.3435 13.7242C16.6322 13.8275 18.1784 14.5785 18.4926 14.734C18.8068 14.8896 19.0167 14.9673 19.0955 15.0967C19.1743 15.2256 19.1743 15.8477 18.9123 16.5726Z" fill="black"/>
</g>
</svg>
