<svg width="36" height="37" viewBox="0 0 36 37" fill="none" xmlns="http://www.w3.org/2000/svg">
<path d="M3 9.27197C3.9 10.022 4.8 10.772 6.75 10.772C10.5 10.772 10.5 7.77197 14.25 7.77197C18.15 7.77197 17.85 10.772 21.75 10.772C25.5 10.772 25.5 7.77197 29.25 7.77197C31.2 7.77197 32.1 8.52197 33 9.27197" stroke="black" stroke-width="2" stroke-linecap="round" stroke-linejoin="round"/>
<path d="M3 18.272C3.9 19.022 4.8 19.772 6.75 19.772C10.5 19.772 10.5 16.772 14.25 16.772C18.15 16.772 17.85 19.772 21.75 19.772C25.5 19.772 25.5 16.772 29.25 16.772C31.2 16.772 32.1 17.522 33 18.272" stroke="black" stroke-width="2" stroke-linecap="round" stroke-linejoin="round"/>
<path d="M3 27.272C3.9 28.022 4.8 28.772 6.75 28.772C10.5 28.772 10.5 25.772 14.25 25.772C18.15 25.772 17.85 28.772 21.75 28.772C25.5 28.772 25.5 25.772 29.25 25.772C31.2 25.772 32.1 26.522 33 27.272" stroke="black" stroke-width="2" stroke-linecap="round" stroke-linejoin="round"/>
</svg>
