<svg width="36" height="37" viewBox="0 0 36 37" fill="none" xmlns="http://www.w3.org/2000/svg">
<path d="M15.1494 3.54521C17.0319 3.18089 18.9669 3.18089 20.8494 3.54521" stroke="black" stroke-width="2" stroke-linecap="round" stroke-linejoin="round"/>
<path d="M20.8494 32.9988C18.9669 33.3631 17.0319 33.3631 15.1494 32.9988" stroke="black" stroke-width="2" stroke-linecap="round" stroke-linejoin="round"/>
<path d="M26.4141 5.85376C28.0063 6.93259 29.3761 8.30756 30.4491 9.90376" stroke="black" stroke-width="2" stroke-linecap="round" stroke-linejoin="round"/>
<path d="M3.27324 21.1221C2.90892 19.2396 2.90892 17.3047 3.27324 15.4221" stroke="black" stroke-width="2" stroke-linecap="round" stroke-linejoin="round"/>
<path d="M30.4191 26.6853C29.3403 28.2775 27.9653 29.6474 26.3691 30.7203" stroke="black" stroke-width="2" stroke-linecap="round" stroke-linejoin="round"/>
<path d="M32.7275 15.4221C33.0919 17.3047 33.0919 19.2396 32.7275 21.1221" stroke="black" stroke-width="2" stroke-linecap="round" stroke-linejoin="round"/>
<path d="M5.58105 9.85873C6.65989 8.26653 8.03486 6.89665 9.63105 5.82373" stroke="black" stroke-width="2" stroke-linecap="round" stroke-linejoin="round"/>
<path d="M9.58676 30.6906C7.99455 29.6118 6.62468 28.2368 5.55176 26.6406" stroke="black" stroke-width="2" stroke-linecap="round" stroke-linejoin="round"/>
</svg>
