<svg width="36" height="37" viewBox="0 0 36 37" fill="none" xmlns="http://www.w3.org/2000/svg">
<path d="M19.2457 3.54178C18.8548 3.3635 18.4303 3.27124 18.0007 3.27124C17.5711 3.27124 17.1465 3.3635 16.7557 3.54178L3.90068 9.39178C3.6345 9.50914 3.4082 9.70137 3.24932 9.94506C3.09045 10.1887 3.00586 10.4734 3.00586 10.7643C3.00586 11.0552 3.09045 11.3398 3.24932 11.5835C3.4082 11.8272 3.6345 12.0194 3.90068 12.1368L16.7707 18.0018C17.1615 18.1801 17.5861 18.2723 18.0157 18.2723C18.4453 18.2723 18.8698 18.1801 19.2607 18.0018L32.1307 12.1518C32.3969 12.0344 32.6232 11.8422 32.782 11.5985C32.9409 11.3548 33.0255 11.0702 33.0255 10.7793C33.0255 10.4884 32.9409 10.2037 32.782 9.96006C32.6232 9.71637 32.3969 9.52414 32.1307 9.40678L19.2457 3.54178Z" stroke="black" stroke-width="2" stroke-linecap="round" stroke-linejoin="round"/>
<path d="M3 18.272C2.99929 18.5589 3.08088 18.84 3.23508 19.0819C3.38928 19.3238 3.60963 19.5165 3.87 19.637L16.77 25.502C17.1588 25.678 17.5807 25.7691 18.0075 25.7691C18.4343 25.7691 18.8562 25.678 19.245 25.502L32.115 19.652C32.3805 19.5326 32.6056 19.3386 32.7627 19.0936C32.9199 18.8485 33.0023 18.5631 33 18.272" stroke="black" stroke-width="2" stroke-linecap="round" stroke-linejoin="round"/>
<path d="M3 25.772C2.99929 26.0589 3.08088 26.34 3.23508 26.5819C3.38928 26.8238 3.60963 27.0165 3.87 27.137L16.77 33.002C17.1588 33.178 17.5807 33.2691 18.0075 33.2691C18.4343 33.2691 18.8562 33.178 19.245 33.002L32.115 27.152C32.3805 27.0326 32.6056 26.8386 32.7627 26.5936C32.9199 26.3485 33.0023 26.0631 33 25.772" stroke="black" stroke-width="2" stroke-linecap="round" stroke-linejoin="round"/>
</svg>
