<svg width="175" height="36" viewBox="0 0 175 36" fill="none" xmlns="http://www.w3.org/2000/svg">
<g clip-path="url(#clip0_27075_1898)">
<path d="M18.8011 35.0594L21.8314 5.09623C22.0019 3.55985 22.3008 3.30343 22.813 3.30343H23.1116V1.59651H18.2033V3.30343H18.5022C19.1849 3.30343 19.5263 3.77317 19.4411 5.09623L17.6911 23.023L15.6852 5.09623C15.5141 3.6879 15.8555 3.30343 16.6244 3.30343H16.7094V1.59651H9.88019V3.30343H10.2222C10.8625 3.30343 10.8625 3.55985 10.9905 5.09623L11.5027 9.66378L9.92298 24.1755L8.13078 5.09623C7.91716 3.55985 8.21606 3.30343 8.89882 3.30343H8.9838V1.59651H2.06934V3.30343H2.41102C3.13657 3.30343 3.17906 3.55985 3.3499 5.09623L6.42296 35.0594H10.8622L12.6122 19.6507L14.4047 35.0594H18.8011ZM48.2101 15.4257C48.2101 13.3343 48.2101 12.6085 49.5332 12.6085C50.4296 12.6085 50.4296 12.9499 50.4296 14.6999V32.5838C50.4296 33.2244 50.2159 33.3522 49.8746 33.3522H49.6615V35.0591H56.5332V33.3522H56.2343C55.7652 33.3522 55.6371 33.181 55.6371 32.4983V13.7613C55.6371 10.6876 54.9968 9.49234 51.9663 9.49234C50.2159 9.49234 48.936 10.0474 48.1249 11.9676C47.7829 10.2607 46.8868 9.49234 44.5396 9.49234C42.6187 9.49234 41.5943 10.0901 40.8262 11.9676V9.49234L34.9359 9.96208V11.669H35.1917C35.5759 11.669 35.8745 11.9676 35.8745 12.9074V32.3699C35.8745 33.1382 35.704 33.3522 35.1917 33.3522H34.9359V35.0591H41.509V33.3522H41.2532C40.9115 33.3522 40.8262 33.2241 40.8262 32.7116V15.4257C40.8262 13.3343 40.7831 12.6085 42.1062 12.6085C43.0026 12.6085 43.0026 12.9499 43.0026 14.6999V32.5838C43.0026 33.2244 42.7893 33.3522 42.4904 33.3522H42.1918V35.0591H48.936V33.3522H48.8504C48.3813 33.3522 48.2101 33.181 48.2101 32.4983V15.4257ZM96.229 35.0594H104.467V33.3525H103.912C103.187 33.3525 102.973 33.0533 102.973 31.5597V18.6693H107.327V31.5594C107.327 33.053 107.113 33.3522 106.43 33.3522H105.79V35.0591H113.985V33.3522H113.303C112.576 33.3522 112.449 33.053 112.449 31.5594V5.09623C112.449 3.55985 112.576 3.30343 113.303 3.30343H113.985V1.59651H105.79V3.30343H106.43C107.113 3.30343 107.327 3.55985 107.327 5.09623V16.6626H102.973V5.09623C102.973 3.55985 103.187 3.30343 103.912 3.30343H104.467V1.59651H96.229V3.30343H96.9548C97.6379 3.30343 97.8512 3.55985 97.8512 5.09623V32.4127C97.8512 33.1385 97.6379 33.3525 96.9548 33.3525H96.229V35.0594ZM158.462 35.0594H164.992V33.3525H164.779C164.352 33.3525 164.309 33.2244 164.309 32.7119V15.4257C164.309 13.3343 164.353 12.6085 165.675 12.6085C166.657 12.6085 166.657 12.9499 166.657 14.6999V32.5838C166.657 33.2244 166.487 33.3522 166.188 33.3522H165.889V35.0591H172.804V33.3522H172.505C172.035 33.3522 171.95 33.181 171.95 32.4983V13.7613C171.95 10.6876 171.182 9.49234 168.194 9.49234C166.23 9.49234 165.121 10.0901 164.309 11.9676V1.08398L158.035 1.59651V3.30343H158.676C159.102 3.30343 159.359 3.55985 159.359 4.49903V32.3699C159.359 33.1382 159.23 33.3522 158.676 33.3522H158.462V35.0594ZM28.0206 35.358C33.4845 35.358 34.2525 30.791 34.2525 22.4252C34.2525 14.0171 33.4414 9.49234 28.0206 9.49234C22.6003 9.49234 21.7895 14.0171 21.7895 22.4252C21.7892 30.791 22.5575 35.358 28.0206 35.358ZM69.3811 35.0594H75.9541V33.3525H75.6549C75.2717 33.3525 75.2717 33.2244 75.2717 32.7119V15.4257C75.2717 13.3343 75.2717 12.6085 76.6366 12.6085C77.5758 12.6085 77.6189 12.9499 77.6189 14.6999V32.5838C77.6189 33.2244 77.3631 33.3522 77.1063 33.3522H76.8072V35.0591H83.7222V33.3522H83.4236C82.9539 33.3522 82.8264 33.181 82.8264 32.4983V13.7613C82.8264 10.6876 82.1005 9.49234 79.0694 9.49234C77.1497 9.49234 75.9966 10.0901 75.2717 11.9676V9.49234L68.9541 9.96208V11.669H69.6372C70.0216 11.669 70.3196 11.9676 70.3196 12.9074V32.3699C70.3196 33.1382 70.1497 33.3522 69.6372 33.3522H69.3814V35.0594H69.3811ZM129.949 35.358C132.211 35.358 133.065 34.2489 133.534 32.9252C133.961 34.8885 134.43 35.358 136.991 35.358C139.979 35.358 140.363 33.5658 140.321 30.0655H138.912C138.912 32.5841 138.869 32.8399 138.399 32.8399C137.973 32.8399 137.973 32.6266 137.973 31.2177V14.6146C137.973 11.2426 136.864 9.49264 132.937 9.49264C129.821 9.49264 126.747 10.4318 126.918 13.8035C127.004 15.3405 127.601 16.9621 129.223 16.8765C130.717 16.7913 131.4 15.9807 131.4 14.7424C131.4 13.8891 130.759 12.4801 129.736 11.7118C130.119 11.5412 130.717 11.3698 131.699 11.3698C132.809 11.3698 133.022 12.2237 133.022 13.8457V18.4979C127.345 20.4187 126.15 21.1871 126.15 28.3152C126.15 33.4377 127.388 35.358 129.949 35.358ZM120.175 35.358C124.4 35.358 125.381 34.0777 125.168 27.078H123.418C123.418 32.6266 123.247 33.0533 121.284 33.0533C118.937 33.0533 118.937 32.0288 118.937 22.5113V21.7424H125.765C125.765 12.1393 124.699 9.49294 120.174 9.49294C116.077 9.49294 113.942 12.0116 113.942 22.5963C113.943 32.6691 115.565 35.4011 120.175 35.358ZM63.4477 35.358C67.5886 35.358 68.7408 34.0777 68.5696 27.078H66.8205C66.8205 32.6266 66.5644 33.0533 64.558 33.0533C62.0396 33.0533 62.1677 32.0288 62.1677 22.5113V21.7424H68.7836C68.7836 12.1393 67.8875 9.49294 63.448 9.49294C59.3086 9.49294 57.1741 12.0116 57.1741 22.5963C57.1738 32.6691 58.7954 35.4011 63.4477 35.358ZM141.261 35.0594H148.09V33.3525H147.578C147.15 33.3525 146.98 33.1385 146.98 32.4561V1.08398L140.62 1.59651V3.30343H141.346C141.773 3.30343 141.943 3.47398 141.943 4.15734V32.5413C141.943 33.1813 141.9 33.3525 141.602 33.3525H141.26V35.0594H141.261ZM91.4056 35.358C94.522 35.358 96.1443 33.3091 96.1443 30.2366C96.1443 23.0233 89.6134 18.8402 89.6134 13.6754C89.6134 12.096 90.1684 11.6265 91.2782 11.6265C92.8998 11.6265 93.1562 12.3096 93.4548 14.7424L93.7103 17.1324H95.5884V9.70567H94.0954C94.0095 10.6454 93.7968 10.9865 93.7103 10.8582C93.2418 10.3035 92.1315 9.49264 90.2965 9.49264C87.5645 9.49264 85.1745 10.7304 85.1745 14.7851C85.1745 21.1021 91.6623 25.9255 91.6623 30.7485C91.6623 32.8399 91.1932 33.1813 89.699 33.1813C88.2054 33.1813 87.8215 32.4989 87.5229 29.3402L87.309 27.2482H85.3457V35.0594H87.0526C87.1812 34.2055 87.4804 33.6511 87.7356 33.9069C88.2904 34.5475 88.8876 35.358 91.4056 35.358ZM149.37 29.7672C149.37 33.8216 149.968 35.358 153.98 35.358C156.797 35.358 157.437 34.2489 157.437 31.133V26.9068H155.73V31.3463C155.73 32.8399 155.602 33.0105 155.047 33.0105C154.492 33.0105 154.364 32.8399 154.364 31.5169V11.6265H157.48V9.70567H154.407V3.30343H152.657C151.419 8.98071 150.353 9.70567 148.688 9.70567H148.218V11.5837H149.37L149.37 29.7672ZM28.0206 33.181C26.8262 33.181 26.8262 32.4986 26.8262 22.4252C26.8262 12.3096 26.8262 11.6265 28.0206 11.6265C29.2158 11.6265 29.2159 12.3096 29.2159 22.4252C29.2159 32.5413 29.2158 33.181 28.0206 33.181ZM84.3206 10.7735C88.5884 7.61427 89.4426 5.22428 88.0336 3.04762C87.2653 1.85262 85.515 1.08428 84.2347 2.15122C82.6978 3.43149 83.0822 5.65154 85.9423 6.9321C85.4297 7.5293 84.2347 8.68241 83.2531 9.66408L84.3206 10.7735ZM131.998 32.3699C130.973 32.3699 130.973 31.3036 130.973 27.9316C130.973 21.7852 130.973 20.9741 133.022 19.8643V30.4069C133.022 31.986 132.809 32.3699 131.998 32.3699ZM62.1674 19.9499C62.2527 11.9679 62.381 11.584 63.4908 11.584C64.5577 11.584 64.4727 12.0113 64.4727 19.9499H62.1674ZM118.937 19.9499C119.065 11.9679 119.151 11.584 120.26 11.584C121.37 11.584 121.199 12.0113 121.199 19.9499H118.937Z" fill="#D9D9D9"/>
</g>
<defs>
<clipPath id="clip0_27075_1898">
<rect width="173.5" height="35.6276" fill="white" transform="translate(0.799805 0.186035)"/>
</clipPath>
</defs>
</svg>
