<svg xmlns="http://www.w3.org/2000/svg" width="175" height="37" viewBox="0 0 175 37" fill="none">
  <path d="M18.5628 35.3148L21.5931 5.3516C21.7636 3.81522 22.0625 3.5588 22.5747 3.5588H22.8733V1.85188H17.965V3.5588H18.2639C18.9467 3.5588 19.288 4.02854 19.2028 5.3516L17.4528 23.2783L15.4469 5.3516C15.2758 3.94327 15.6172 3.5588 16.3861 3.5588H16.4711V1.85188H9.64191V3.5588H9.98389C10.6242 3.5588 10.6242 3.81522 10.7522 5.3516L11.2645 9.91915L9.68469 24.4308L7.8925 5.3516C7.67887 3.81522 7.97777 3.5588 8.66054 3.5588H8.74551V1.85188H1.83105V3.5588H2.17273C2.89829 3.5588 2.94078 3.81522 3.11162 5.3516L6.18468 35.3148H10.6239L12.3739 19.9061L14.1664 35.3148H18.5628ZM47.9718 15.6811C47.9718 13.5897 47.9718 12.8639 49.2949 12.8639C50.1913 12.8639 50.1913 13.2052 50.1913 14.9552V32.8392C50.1913 33.4798 49.9777 33.6075 49.6363 33.6075H49.4232V35.3145H56.2949V33.6075H55.996C55.5269 33.6075 55.3988 33.4364 55.3988 32.7536V14.0167C55.3988 10.943 54.7585 9.74771 51.728 9.74771C49.9777 9.74771 48.6977 10.3027 47.8866 12.223C47.5446 10.5161 46.6485 9.74771 44.3013 9.74771C42.3804 9.74771 41.356 10.3455 40.5879 12.223V9.74771L34.6976 10.2175V11.9244H34.9534C35.3376 11.9244 35.6362 12.223 35.6362 13.1628V32.6253C35.6362 33.3936 35.4657 33.6075 34.9534 33.6075H34.6976V35.3145H41.2707V33.6075H41.0149C40.6732 33.6075 40.5879 33.4795 40.5879 32.967V15.6811C40.5879 13.5897 40.5449 12.8639 41.8679 12.8639C42.7643 12.8639 42.7643 13.2052 42.7643 14.9552V32.8392C42.7643 33.4798 42.551 33.6075 42.2521 33.6075H41.9535V35.3145H48.6977V33.6075H48.6121C48.143 33.6075 47.9718 33.4364 47.9718 32.7536V15.6811ZM95.9907 35.3148H104.229V33.6078H103.673C102.948 33.6078 102.735 33.3086 102.735 31.815V18.9247H107.089V31.8147C107.089 33.3083 106.875 33.6075 106.192 33.6075H105.552V35.3145H113.747V33.6075H113.064C112.338 33.6075 112.21 33.3083 112.21 31.8147V5.3516C112.21 3.81522 112.338 3.5588 113.064 3.5588H113.747V1.85188H105.552V3.5588H106.192C106.875 3.5588 107.089 3.81522 107.089 5.3516V16.918H102.735V5.3516C102.735 3.81522 102.948 3.5588 103.673 3.5588H104.229V1.85188H95.9907V3.5588H96.7165C97.3996 3.5588 97.6129 3.81522 97.6129 5.3516V32.6681C97.6129 33.3939 97.3996 33.6078 96.7165 33.6078H95.9907V35.3148ZM158.224 35.3148H164.754V33.6078H164.541C164.114 33.6078 164.071 33.4798 164.071 32.9673V15.6811C164.071 13.5897 164.114 12.8639 165.437 12.8639C166.418 12.8639 166.418 13.2052 166.418 14.9552V32.8392C166.418 33.4798 166.248 33.6075 165.95 33.6075H165.651V35.3145H172.565V33.6075H172.267C171.797 33.6075 171.712 33.4364 171.712 32.7536V14.0167C171.712 10.943 170.943 9.74771 167.955 9.74771C165.992 9.74771 164.882 10.3455 164.071 12.223V1.33936L157.797 1.85188V3.5588H158.438C158.864 3.5588 159.12 3.81522 159.12 4.7544V32.6253C159.12 33.3936 158.992 33.6075 158.438 33.6075H158.224V35.3148ZM27.7823 35.6134C33.2462 35.6134 34.0143 31.0464 34.0143 22.6805C34.0143 14.2725 33.2031 9.74771 27.7823 9.74771C22.362 9.74771 21.5512 14.2725 21.5512 22.6805C21.5509 31.0464 22.3192 35.6134 27.7823 35.6134ZM69.1428 35.3148H75.7159V33.6078H75.4167C75.0334 33.6078 75.0334 33.4798 75.0334 32.9673V15.6811C75.0334 13.5897 75.0334 12.8639 76.3983 12.8639C77.3375 12.8639 77.3806 13.2052 77.3806 14.9552V32.8392C77.3806 33.4798 77.1248 33.6075 76.8681 33.6075H76.5689V35.3145H83.4839V33.6075H83.1853C82.7156 33.6075 82.5881 33.4364 82.5881 32.7536V14.0167C82.5881 10.943 81.8623 9.74771 78.8311 9.74771C76.9114 9.74771 75.7583 10.3455 75.0334 12.223V9.74771L68.7158 10.2175V11.9244H69.3989C69.7834 11.9244 70.0814 12.223 70.0814 13.1628V32.6253C70.0814 33.3936 69.9114 33.6075 69.3989 33.6075H69.1431V35.3148H69.1428ZM129.711 35.6134C131.973 35.6134 132.826 34.5042 133.296 33.1806C133.722 35.1439 134.192 35.6134 136.753 35.6134C139.741 35.6134 140.125 33.8212 140.083 30.3208H138.674C138.674 32.8395 138.631 33.0953 138.161 33.0953C137.734 33.0953 137.734 32.882 137.734 31.4731V14.87C137.734 11.498 136.625 9.74801 132.698 9.74801C129.583 9.74801 126.509 10.6872 126.679 14.0589C126.765 15.5958 127.363 17.2175 128.985 17.1319C130.478 17.0466 131.161 16.2361 131.161 14.9977C131.161 14.1444 130.521 12.7355 129.497 11.9672C129.881 11.7966 130.478 11.6252 131.46 11.6252C132.571 11.6252 132.783 12.4791 132.783 14.101V18.7533C127.107 20.6741 125.912 21.4425 125.912 28.5705C125.912 33.6931 127.15 35.6134 129.711 35.6134ZM119.936 35.6134C124.161 35.6134 125.143 34.3331 124.93 27.3334H123.179C123.179 32.882 123.009 33.3086 121.046 33.3086C118.698 33.3086 118.698 32.2842 118.698 22.7667V21.9978H125.527C125.527 12.3947 124.46 9.74831 119.936 9.74831C115.838 9.74831 113.704 12.267 113.704 22.8517C113.705 32.9245 115.326 35.6564 119.936 35.6134ZM63.2094 35.6134C67.3503 35.6134 68.5025 34.3331 68.3314 27.3334H66.5822C66.5822 32.882 66.3261 33.3086 64.3197 33.3086C61.8014 33.3086 61.9294 32.2842 61.9294 22.7667V21.9978H68.5453C68.5453 12.3947 67.6492 9.74831 63.2097 9.74831C59.0703 9.74831 56.9358 12.267 56.9358 22.8517C56.9355 32.9245 58.5572 35.6564 63.2094 35.6134ZM141.022 35.3148H147.852V33.6078H147.339C146.912 33.6078 146.742 33.3939 146.742 32.7114V1.33936L140.382 1.85188V3.5588H141.108C141.534 3.5588 141.705 3.72935 141.705 4.41271V32.7967C141.705 33.4367 141.662 33.6078 141.363 33.6078H141.022V35.3148H141.022ZM91.1673 35.6134C94.2838 35.6134 95.906 33.5644 95.906 30.492C95.906 23.2786 89.3751 19.0955 89.3751 13.9308C89.3751 12.3513 89.9301 11.8819 91.0399 11.8819C92.6615 11.8819 92.9179 12.565 93.2165 14.9977L93.472 17.3877H95.3501V9.96104H93.8571C93.7712 10.9008 93.5585 11.2419 93.472 11.1135C93.0035 10.5588 91.8932 9.74801 90.0582 9.74801C87.3262 9.74801 84.9362 10.9858 84.9362 15.0405C84.9362 21.3575 91.424 26.1808 91.424 31.0039C91.424 33.0953 90.9549 33.4367 89.4607 33.4367C87.9671 33.4367 87.5832 32.7542 87.2846 29.5956L87.0707 27.5036H85.1074V35.3148H86.8143C86.9429 34.4608 87.2421 33.9064 87.4974 34.1622C88.0521 34.8028 88.6493 35.6134 91.1673 35.6134ZM149.132 30.0225C149.132 34.077 149.73 35.6134 153.741 35.6134C156.558 35.6134 157.199 34.5042 157.199 31.3884V27.1622H155.492V31.6017C155.492 33.0953 155.363 33.2659 154.809 33.2659C154.254 33.2659 154.126 33.0953 154.126 31.7723V11.8819H157.242V9.96104H154.169V3.5588H152.419C151.181 9.23608 150.114 9.96104 148.449 9.96104H147.98V11.8391H149.132L149.132 30.0225ZM27.7823 33.4364C26.5879 33.4364 26.5879 32.7539 26.5879 22.6805C26.5879 12.565 26.5879 11.8819 27.7823 11.8819C28.9776 11.8819 28.9776 12.565 28.9776 22.6805C28.9776 32.7967 28.9776 33.4364 27.7823 33.4364ZM84.0823 11.0289C88.3501 7.86965 89.2043 5.47965 87.7954 3.30299C87.027 2.10799 85.2767 1.33965 83.9964 2.40659C82.4595 3.68686 82.8439 5.90691 85.704 7.18747C85.1914 7.78467 83.9964 8.93778 83.0148 9.91945L84.0823 11.0289ZM131.759 32.6253C130.735 32.6253 130.735 31.5589 130.735 28.187C130.735 22.0406 130.735 21.2294 132.783 20.1197V30.6622C132.783 32.2414 132.571 32.6253 131.759 32.6253ZM61.9291 20.2053C62.0144 12.2233 62.1427 11.8394 63.2525 11.8394C64.3194 11.8394 64.2344 12.2667 64.2344 20.2053H61.9291ZM118.699 20.2053C118.827 12.2233 118.912 11.8394 120.022 11.8394C121.132 11.8394 120.961 12.2667 120.961 20.2053H118.699Z" fill="black"/>
</svg>