<svg width="174" height="37" viewBox="0 0 174 37" fill="none" xmlns="http://www.w3.org/2000/svg">
<path d="M18.1185 35.3143L21.1487 5.35111C21.3193 3.81473 21.6182 3.55832 22.1304 3.55832H22.429V1.85139H17.5207V3.55832H17.8196C18.5023 3.55832 18.8437 4.02806 18.7584 5.35111L17.0084 23.2778L15.0026 5.35111C14.8315 3.94279 15.1729 3.55832 15.9418 3.55832H16.0268V1.85139H9.19758V3.55832H9.53956C10.1798 3.55832 10.1798 3.81473 10.3079 5.35111L10.8201 9.91866L9.24036 24.4304L7.44817 5.35111C7.23454 3.81473 7.53344 3.55832 8.21621 3.55832H8.30118V1.85139H1.38672V3.55832H1.7284C2.45396 3.55832 2.49644 3.81473 2.66729 5.35111L5.74035 35.3143H10.1795L11.9296 19.9056L13.722 35.3143H18.1185ZM47.5275 15.6806C47.5275 13.5892 47.5275 12.8634 48.8506 12.8634C49.747 12.8634 49.747 13.2048 49.747 14.9548V32.8387C49.747 33.4793 49.5333 33.607 49.1919 33.607H48.9789V35.314H55.8506V33.607H55.5517C55.0826 33.607 54.9545 33.4359 54.9545 32.7531V14.0162C54.9545 10.9425 54.3142 9.74722 51.2836 9.74722C49.5333 9.74722 48.2534 10.3022 47.4422 12.2225C47.1003 10.5156 46.2042 9.74722 43.8569 9.74722C41.9361 9.74722 40.9116 10.345 40.1436 12.2225V9.74722L34.2533 10.217V11.9239H34.5091C34.8933 11.9239 35.1919 12.2225 35.1919 13.1623V32.6248C35.1919 33.3931 35.0213 33.607 34.5091 33.607H34.2533V35.314H40.8264V33.607H40.5706C40.2289 33.607 40.1436 33.479 40.1436 32.9665V15.6806C40.1436 13.5892 40.1005 12.8634 41.4236 12.8634C42.32 12.8634 42.32 13.2048 42.32 14.9548V32.8387C42.32 33.4793 42.1066 33.607 41.8077 33.607H41.5091V35.314H48.2534V33.607H48.1678C47.6987 33.607 47.5275 33.4359 47.5275 32.7531V15.6806ZM95.5464 35.3143H103.785V33.6073H103.229C102.504 33.6073 102.291 33.3081 102.291 31.8146V18.9242H106.644V31.8143C106.644 33.3078 106.431 33.607 105.748 33.607H105.107V35.314H113.303V33.607H112.62C111.894 33.607 111.766 33.3078 111.766 31.8143V5.35111C111.766 3.81473 111.894 3.55832 112.62 3.55832H113.303V1.85139H105.107V3.55832H105.748C106.431 3.55832 106.644 3.81473 106.644 5.35111V16.9175H102.291V5.35111C102.291 3.81473 102.504 3.55832 103.229 3.55832H103.785V1.85139H95.5464V3.55832H96.2722C96.9553 3.55832 97.1686 3.81473 97.1686 5.35111V32.6676C97.1686 33.3934 96.9553 33.6073 96.2722 33.6073H95.5464V35.3143ZM157.78 35.3143H164.31V33.6073H164.096C163.67 33.6073 163.627 33.4793 163.627 32.9668V15.6806C163.627 13.5892 163.67 12.8634 164.993 12.8634C165.974 12.8634 165.974 13.2048 165.974 14.9548V32.8387C165.974 33.4793 165.804 33.607 165.505 33.607H165.206V35.314H172.121V33.607H171.822C171.353 33.607 171.267 33.4359 171.267 32.7531V14.0162C171.267 10.9425 170.499 9.74722 167.511 9.74722C165.548 9.74722 164.438 10.345 163.627 12.2225V1.33887L157.353 1.85139V3.55832H157.993C158.419 3.55832 158.676 3.81473 158.676 4.75391V32.6248C158.676 33.3931 158.547 33.607 157.993 33.607H157.78V35.3143ZM27.3379 35.6129C32.8019 35.6129 33.5699 31.0459 33.5699 22.68C33.5699 14.272 32.7588 9.74722 27.3379 9.74722C21.9177 9.74722 21.1068 14.272 21.1068 22.68C21.1065 31.0459 21.8749 35.6129 27.3379 35.6129ZM68.6984 35.3143H75.2715V33.6073H74.9723C74.5891 33.6073 74.5891 33.4793 74.5891 32.9668V15.6806C74.5891 13.5892 74.5891 12.8634 75.954 12.8634C76.8932 12.8634 76.9363 13.2048 76.9363 14.9548V32.8387C76.9363 33.4793 76.6804 33.607 76.4237 33.607H76.1245V35.314H83.0396V33.607H82.741C82.2712 33.607 82.1438 33.4359 82.1438 32.7531V14.0162C82.1438 10.9425 81.4179 9.74722 78.3868 9.74722C76.4671 9.74722 75.314 10.345 74.5891 12.2225V9.74722L68.2715 10.217V11.9239H68.9546C69.339 11.9239 69.637 12.2225 69.637 13.1623V32.6248C69.637 33.3931 69.4671 33.607 68.9546 33.607H68.6987V35.3143H68.6984ZM129.266 35.6129C131.528 35.6129 132.382 34.5037 132.851 33.1801C133.278 35.1434 133.748 35.6129 136.308 35.6129C139.296 35.6129 139.681 33.8207 139.638 30.3204H138.229C138.229 32.839 138.187 33.0948 137.717 33.0948C137.29 33.0948 137.29 32.8815 137.29 31.4726V14.8695C137.29 11.4975 136.181 9.74752 132.254 9.74752C129.138 9.74752 126.065 10.6867 126.235 14.0584C126.321 15.5953 126.919 17.217 128.54 17.1314C130.034 17.0462 130.717 16.2356 130.717 14.9972C130.717 14.1439 130.076 12.735 129.053 11.9667C129.437 11.7961 130.034 11.6247 131.016 11.6247C132.126 11.6247 132.339 12.4786 132.339 14.1005V18.7528C126.662 20.6736 125.467 21.442 125.467 28.5701C125.467 33.6926 126.706 35.6129 129.266 35.6129ZM119.492 35.6129C123.717 35.6129 124.699 34.3326 124.485 27.3329H122.735C122.735 32.8815 122.565 33.3081 120.601 33.3081C118.254 33.3081 118.254 32.2837 118.254 22.7662V21.9973H125.082C125.082 12.3942 124.016 9.74782 119.491 9.74782C115.394 9.74782 113.26 12.2665 113.26 22.8512C113.26 32.924 114.882 35.656 119.492 35.6129ZM62.7651 35.6129C66.906 35.6129 68.0582 34.3326 67.887 27.3329H66.1379C66.1379 32.8815 65.8818 33.3081 63.8754 33.3081C61.357 33.3081 61.4851 32.2837 61.4851 22.7662V21.9973H68.1009C68.1009 12.3942 67.2048 9.74782 62.7654 9.74782C58.6259 9.74782 56.4915 12.2665 56.4915 22.8512C56.4912 32.924 58.1128 35.656 62.7651 35.6129ZM140.578 35.3143H147.408V33.6073H146.895C146.468 33.6073 146.297 33.3934 146.297 32.7109V1.33887L139.937 1.85139V3.55832H140.663C141.09 3.55832 141.26 3.72886 141.26 4.41223V32.7962C141.26 33.4362 141.218 33.6073 140.919 33.6073H140.578V35.3143H140.578ZM90.723 35.6129C93.8394 35.6129 95.4617 33.564 95.4617 30.4915C95.4617 23.2781 88.9308 19.0951 88.9308 13.9303C88.9308 12.3508 89.4858 11.8814 90.5955 11.8814C92.2172 11.8814 92.4736 12.5645 92.7722 14.9972L93.0277 17.3872H94.9058V9.96055H93.4128C93.3269 10.9003 93.1142 11.2414 93.0277 11.1131C92.5592 10.5583 91.4488 9.74752 89.6139 9.74752C86.8819 9.74752 84.4919 10.9853 84.4919 15.04C84.4919 21.357 90.9797 26.1804 90.9797 31.0034C90.9797 33.0948 90.5106 33.4362 89.0164 33.4362C87.5228 33.4362 87.1389 32.7537 86.8403 29.5951L86.6264 27.5031H84.663V35.3143H86.37C86.4986 34.4604 86.7978 33.9059 87.053 34.1618C87.6077 34.8023 88.2049 35.6129 90.723 35.6129ZM148.687 30.0221C148.687 34.0765 149.285 35.6129 153.297 35.6129C156.114 35.6129 156.755 34.5037 156.755 31.3879V27.1617H155.047V31.6012C155.047 33.0948 154.919 33.2654 154.365 33.2654C153.81 33.2654 153.682 33.0948 153.682 31.7718V11.8814H156.798V9.96055H153.724V3.55832H151.975C150.736 9.23559 149.67 9.96055 148.005 9.96055H147.536V11.8386H148.688L148.687 30.0221ZM27.3379 33.4359C26.1435 33.4359 26.1435 32.7534 26.1435 22.68C26.1435 12.5645 26.1435 11.8814 27.3379 11.8814C28.5332 11.8814 28.5332 12.5645 28.5332 22.68C28.5332 32.7962 28.5332 33.4359 27.3379 33.4359ZM83.638 11.0284C87.9057 7.86916 88.7599 5.47917 87.351 3.3025C86.5827 2.10751 84.8324 1.33917 83.5521 2.40611C82.0151 3.68637 82.3996 5.90642 85.2596 7.18699C84.7471 7.78419 83.5521 8.93729 82.5704 9.91896L83.638 11.0284ZM131.315 32.6248C130.291 32.6248 130.291 31.5584 130.291 28.1865C130.291 22.0401 130.291 21.2289 132.339 20.1192V30.6617C132.339 32.2409 132.126 32.6248 131.315 32.6248ZM61.4848 20.2048C61.5701 12.2228 61.6984 11.8389 62.8081 11.8389C63.8751 11.8389 63.7901 12.2662 63.7901 20.2048H61.4848ZM118.255 20.2048C118.383 12.2228 118.468 11.8389 119.578 11.8389C120.687 11.8389 120.516 12.2662 120.516 20.2048H118.255Z" fill="#D9D9D9"/>
</svg>
