<svg width="37" height="35" viewBox="0 0 37 35" fill="none" xmlns="http://www.w3.org/2000/svg">
<path fill-rule="evenodd" clip-rule="evenodd" d="M7.92273 0L10.5638 8.00879V13.348H12.3246V8.00879L14.9657 0H13.205L11.4442 5.33919L9.68347 0H7.92273ZM17.6117 3.55957C16.6728 3.55957 16.212 3.70904 15.6377 4.18526C15.0875 4.65452 14.9362 5.01603 14.9706 6.22917V10.6785C14.9706 11.5649 15.115 12.1489 15.6446 12.6668C16.1948 13.1847 16.7141 13.3481 17.6117 13.3481C18.5505 13.3481 19.0629 13.1847 19.5925 12.6668C20.1427 12.1697 20.2528 11.5649 20.2528 10.6785V6.22917C20.2528 5.44358 20.1152 4.69971 19.5822 4.20264C19.032 3.69166 18.4645 3.55957 17.6117 3.55957ZM22.0068 3.55957V11.5684C22.0068 12.4339 22.87 13.3481 23.7676 13.3481C24.6651 13.3481 25.1397 12.8927 25.5283 12.4582V13.3481H27.2891V3.55957H25.5283V10.6785C25.518 11.2868 24.8096 11.5684 24.6479 11.5684C24.4657 11.5684 23.7676 11.5301 23.7676 10.6785V3.55957H22.0068ZM17.609 5.33984C17.8738 5.33984 18.4894 5.33637 18.4894 6.22971V10.679C18.4894 11.5411 17.8944 11.5689 17.609 11.5689C17.3442 11.5689 16.7286 11.5585 16.7286 10.679V6.22971C16.7286 5.50322 17.1104 5.33984 17.609 5.33984ZM5.28222 15.1289C2.11839 15.1289 0 17.2493 0 20.4681V28.9218C0 32.1406 2.11839 34.7059 5.28222 34.7059H31.6933C34.8572 34.7059 36.9756 32.5856 36.9756 29.3668V20.4681C36.9756 17.2493 34.8572 15.1289 31.6933 15.1289H5.28222ZM7.04688 18.6875H12.3291V20.4672H10.5684V31.1456H8.80762V20.4672H7.04688V18.6875ZM19.3633 18.6875H21.124V22.247C21.3269 21.9272 21.6295 21.6734 21.9184 21.5309C22.2004 21.3849 22.4858 21.3015 22.7747 21.3015C23.3456 21.3015 23.7926 21.51 24.0987 21.8994C24.4048 22.2922 24.6455 22.8136 24.6455 23.5818V28.921C24.6455 29.5814 24.4254 29.9916 24.1365 30.3427C23.8545 30.6937 23.4316 31.1387 22.8848 31.1456C21.9597 31.156 21.4645 30.6555 21.124 30.2558V31.1456H19.3633V18.6875ZM12.3262 21.3564H14.0869V28.4754C14.0869 28.6805 14.3242 29.3722 14.9673 29.3652C15.6826 29.3583 15.6895 28.6839 15.8477 28.4754V21.3564H17.6084V31.145H15.8477V30.2551C15.521 30.6444 15.3524 30.7661 14.9845 30.9503C14.6199 31.1589 14.2485 31.145 13.9046 31.145C13.4782 31.145 12.9933 30.7556 12.7664 30.4637C12.5635 30.196 12.3262 29.9214 12.3262 29.3652V21.3564ZM28.3502 21.3564C29.1858 21.3564 29.7739 21.5372 30.2175 22.0099C30.6715 22.4827 30.8159 23.0354 30.8159 23.9252V26.6956H27.2944V28.0721C27.2944 28.5692 27.3598 28.8855 27.487 29.0732C27.6074 29.2783 27.8515 29.3687 28.1748 29.3652C28.5324 29.3618 28.7594 29.2888 28.8798 29.1254C29.0036 28.9794 29.0552 28.5657 29.0552 28.0304V27.5855H30.8159V28.1139C30.8159 29.0837 30.7402 29.8067 30.2657 30.2794C29.8186 30.7765 29.1205 31.0059 28.2057 31.0059C27.3701 31.0059 26.7167 30.7556 26.249 30.2412C25.7813 29.7267 25.5371 29.0211 25.5371 28.1139V23.9252C25.5371 23.1188 25.8157 22.5209 26.3281 21.9891C26.7407 21.5615 27.5145 21.3564 28.3502 21.3564ZM22.014 22.6924C21.5291 22.6924 21.1405 23.1338 21.1337 23.5822V28.9214C21.1405 29.1787 21.5291 29.3664 22.014 29.3664C22.4989 29.3664 22.8944 28.9875 22.8944 28.4974V24.0272C22.8944 23.1373 22.4989 22.6924 22.014 22.6924ZM28.1753 23.1367C27.6904 23.1367 27.3018 23.5504 27.2949 24.0266V24.9165H29.0557V24.0266C29.0557 23.4808 28.6602 23.1367 28.1753 23.1367Z" fill="white"/>
</svg>
